%TF.GenerationSoftware,KiCad,Pcbnew,9.0.7*%
%TF.CreationDate,2026-04-25T05:58:13-04:00*%
%TF.ProjectId,capybara_habitat,63617079-6261-4726-915f-686162697461,A*%
%TF.SameCoordinates,Original*%
%TF.FileFunction,Paste,Bot*%
%TF.FilePolarity,Positive*%
%FSLAX46Y46*%
G04 Gerber Fmt 4.6, Leading zero omitted, Abs format (unit mm)*
G04 Created by KiCad (PCBNEW 9.0.7) date 2026-04-25 05:58:13*
%MOMM*%
%LPD*%
G01*
G04 APERTURE LIST*
%ADD10C,0.010000*%
G04 APERTURE END LIST*
D10*
%TO.C,REF\u002A\u002A*%
X114500000Y-72805000D02*
X114425000Y-72820000D01*
X114320000Y-72845000D01*
X114205000Y-72880000D01*
X114090000Y-72920000D01*
X113950000Y-72980000D01*
X113850000Y-73030000D01*
X113770000Y-73075000D01*
X113665000Y-73140000D01*
X113580000Y-73200000D01*
X113495000Y-73265000D01*
X113435000Y-73315000D01*
X113380000Y-73365000D01*
X113295000Y-73445000D01*
X113205000Y-73545000D01*
X113150000Y-73610000D01*
X113085000Y-73695000D01*
X113040000Y-73760000D01*
X112980000Y-73855000D01*
X112925000Y-73950000D01*
X112875000Y-74050000D01*
X112830000Y-74150000D01*
X112800000Y-74230000D01*
X112770000Y-74310000D01*
X112735000Y-74430000D01*
X112710000Y-74535000D01*
X112695000Y-74610000D01*
X111285000Y-74610000D01*
X111300000Y-74490000D01*
X111325000Y-74345000D01*
X111350000Y-74215000D01*
X111395000Y-74040000D01*
X111445000Y-73875000D01*
X111500000Y-73720000D01*
X111560000Y-73570000D01*
X111630000Y-73420000D01*
X111720000Y-73245000D01*
X111815000Y-73085000D01*
X111905000Y-72950000D01*
X111965000Y-72865000D01*
X112025000Y-72785000D01*
X112080000Y-72715000D01*
X112140000Y-72645000D01*
X112210000Y-72565000D01*
X112255000Y-72515000D01*
X112300000Y-72470000D01*
X112385000Y-72385000D01*
X112460000Y-72315000D01*
X112535000Y-72250000D01*
X112605000Y-72190000D01*
X112670000Y-72140000D01*
X112735000Y-72090000D01*
X112825000Y-72025000D01*
X112915000Y-71965000D01*
X113015000Y-71900000D01*
X113130000Y-71835000D01*
X113250000Y-71770000D01*
X113350000Y-71720000D01*
X113440000Y-71680000D01*
X113535000Y-71640000D01*
X113600000Y-71615000D01*
X113695000Y-71580000D01*
X113765000Y-71555000D01*
X113860000Y-71525000D01*
X113970000Y-71495000D01*
X114070000Y-71470000D01*
X114185000Y-71445000D01*
X114295000Y-71425000D01*
X114395000Y-71410000D01*
X114470000Y-71400000D01*
X114500000Y-71395000D01*
X114500000Y-72805000D01*
G36*
X114500000Y-72805000D02*
G01*
X114425000Y-72820000D01*
X114320000Y-72845000D01*
X114205000Y-72880000D01*
X114090000Y-72920000D01*
X113950000Y-72980000D01*
X113850000Y-73030000D01*
X113770000Y-73075000D01*
X113665000Y-73140000D01*
X113580000Y-73200000D01*
X113495000Y-73265000D01*
X113435000Y-73315000D01*
X113380000Y-73365000D01*
X113295000Y-73445000D01*
X113205000Y-73545000D01*
X113150000Y-73610000D01*
X113085000Y-73695000D01*
X113040000Y-73760000D01*
X112980000Y-73855000D01*
X112925000Y-73950000D01*
X112875000Y-74050000D01*
X112830000Y-74150000D01*
X112800000Y-74230000D01*
X112770000Y-74310000D01*
X112735000Y-74430000D01*
X112710000Y-74535000D01*
X112695000Y-74610000D01*
X111285000Y-74610000D01*
X111300000Y-74490000D01*
X111325000Y-74345000D01*
X111350000Y-74215000D01*
X111395000Y-74040000D01*
X111445000Y-73875000D01*
X111500000Y-73720000D01*
X111560000Y-73570000D01*
X111630000Y-73420000D01*
X111720000Y-73245000D01*
X111815000Y-73085000D01*
X111905000Y-72950000D01*
X111965000Y-72865000D01*
X112025000Y-72785000D01*
X112080000Y-72715000D01*
X112140000Y-72645000D01*
X112210000Y-72565000D01*
X112255000Y-72515000D01*
X112300000Y-72470000D01*
X112385000Y-72385000D01*
X112460000Y-72315000D01*
X112535000Y-72250000D01*
X112605000Y-72190000D01*
X112670000Y-72140000D01*
X112735000Y-72090000D01*
X112825000Y-72025000D01*
X112915000Y-71965000D01*
X113015000Y-71900000D01*
X113130000Y-71835000D01*
X113250000Y-71770000D01*
X113350000Y-71720000D01*
X113440000Y-71680000D01*
X113535000Y-71640000D01*
X113600000Y-71615000D01*
X113695000Y-71580000D01*
X113765000Y-71555000D01*
X113860000Y-71525000D01*
X113970000Y-71495000D01*
X114070000Y-71470000D01*
X114185000Y-71445000D01*
X114295000Y-71425000D01*
X114395000Y-71410000D01*
X114470000Y-71400000D01*
X114500000Y-71395000D01*
X114500000Y-72805000D01*
G37*
X112710000Y-75485000D02*
X112735000Y-75590000D01*
X112770000Y-75705000D01*
X112810000Y-75820000D01*
X112870000Y-75960000D01*
X112920000Y-76060000D01*
X112965000Y-76140000D01*
X113030000Y-76245000D01*
X113090000Y-76330000D01*
X113155000Y-76415000D01*
X113205000Y-76475000D01*
X113255000Y-76530000D01*
X113335000Y-76615000D01*
X113435000Y-76705000D01*
X113500000Y-76760000D01*
X113585000Y-76825000D01*
X113650000Y-76870000D01*
X113745000Y-76930000D01*
X113840000Y-76985000D01*
X113940000Y-77035000D01*
X114040000Y-77080000D01*
X114120000Y-77110000D01*
X114200000Y-77140000D01*
X114320000Y-77175000D01*
X114425000Y-77200000D01*
X114500000Y-77215000D01*
X114500000Y-78625000D01*
X114380000Y-78610000D01*
X114235000Y-78585000D01*
X114105000Y-78560000D01*
X113930000Y-78515000D01*
X113765000Y-78465000D01*
X113610000Y-78410000D01*
X113460000Y-78350000D01*
X113310000Y-78280000D01*
X113135000Y-78190000D01*
X112975000Y-78095000D01*
X112840000Y-78005000D01*
X112755000Y-77945000D01*
X112675000Y-77885000D01*
X112605000Y-77830000D01*
X112535000Y-77770000D01*
X112455000Y-77700000D01*
X112405000Y-77655000D01*
X112360000Y-77610000D01*
X112275000Y-77525000D01*
X112205000Y-77450000D01*
X112140000Y-77375000D01*
X112080000Y-77305000D01*
X112030000Y-77240000D01*
X111980000Y-77175000D01*
X111915000Y-77085000D01*
X111855000Y-76995000D01*
X111790000Y-76895000D01*
X111725000Y-76780000D01*
X111660000Y-76660000D01*
X111610000Y-76560000D01*
X111570000Y-76470000D01*
X111530000Y-76375000D01*
X111505000Y-76310000D01*
X111470000Y-76215000D01*
X111445000Y-76145000D01*
X111415000Y-76050000D01*
X111385000Y-75940000D01*
X111360000Y-75840000D01*
X111335000Y-75725000D01*
X111315000Y-75615000D01*
X111300000Y-75515000D01*
X111290000Y-75440000D01*
X111285000Y-75410000D01*
X112695000Y-75410000D01*
X112710000Y-75485000D01*
G36*
X112710000Y-75485000D02*
G01*
X112735000Y-75590000D01*
X112770000Y-75705000D01*
X112810000Y-75820000D01*
X112870000Y-75960000D01*
X112920000Y-76060000D01*
X112965000Y-76140000D01*
X113030000Y-76245000D01*
X113090000Y-76330000D01*
X113155000Y-76415000D01*
X113205000Y-76475000D01*
X113255000Y-76530000D01*
X113335000Y-76615000D01*
X113435000Y-76705000D01*
X113500000Y-76760000D01*
X113585000Y-76825000D01*
X113650000Y-76870000D01*
X113745000Y-76930000D01*
X113840000Y-76985000D01*
X113940000Y-77035000D01*
X114040000Y-77080000D01*
X114120000Y-77110000D01*
X114200000Y-77140000D01*
X114320000Y-77175000D01*
X114425000Y-77200000D01*
X114500000Y-77215000D01*
X114500000Y-78625000D01*
X114380000Y-78610000D01*
X114235000Y-78585000D01*
X114105000Y-78560000D01*
X113930000Y-78515000D01*
X113765000Y-78465000D01*
X113610000Y-78410000D01*
X113460000Y-78350000D01*
X113310000Y-78280000D01*
X113135000Y-78190000D01*
X112975000Y-78095000D01*
X112840000Y-78005000D01*
X112755000Y-77945000D01*
X112675000Y-77885000D01*
X112605000Y-77830000D01*
X112535000Y-77770000D01*
X112455000Y-77700000D01*
X112405000Y-77655000D01*
X112360000Y-77610000D01*
X112275000Y-77525000D01*
X112205000Y-77450000D01*
X112140000Y-77375000D01*
X112080000Y-77305000D01*
X112030000Y-77240000D01*
X111980000Y-77175000D01*
X111915000Y-77085000D01*
X111855000Y-76995000D01*
X111790000Y-76895000D01*
X111725000Y-76780000D01*
X111660000Y-76660000D01*
X111610000Y-76560000D01*
X111570000Y-76470000D01*
X111530000Y-76375000D01*
X111505000Y-76310000D01*
X111470000Y-76215000D01*
X111445000Y-76145000D01*
X111415000Y-76050000D01*
X111385000Y-75940000D01*
X111360000Y-75840000D01*
X111335000Y-75725000D01*
X111315000Y-75615000D01*
X111300000Y-75515000D01*
X111290000Y-75440000D01*
X111285000Y-75410000D01*
X112695000Y-75410000D01*
X112710000Y-75485000D01*
G37*
X115420000Y-71410000D02*
X115565000Y-71435000D01*
X115695000Y-71460000D01*
X115870000Y-71505000D01*
X116035000Y-71555000D01*
X116190000Y-71610000D01*
X116340000Y-71670000D01*
X116490000Y-71740000D01*
X116665000Y-71830000D01*
X116825000Y-71925000D01*
X116960000Y-72015000D01*
X117045000Y-72075000D01*
X117125000Y-72135000D01*
X117195000Y-72190000D01*
X117265000Y-72250000D01*
X117345000Y-72320000D01*
X117395000Y-72365000D01*
X117440000Y-72410000D01*
X117525000Y-72495000D01*
X117595000Y-72570000D01*
X117660000Y-72645000D01*
X117720000Y-72715000D01*
X117770000Y-72780000D01*
X117820000Y-72845000D01*
X117885000Y-72935000D01*
X117945000Y-73025000D01*
X118010000Y-73125000D01*
X118075000Y-73240000D01*
X118140000Y-73360000D01*
X118190000Y-73460000D01*
X118230000Y-73550000D01*
X118270000Y-73645000D01*
X118295000Y-73710000D01*
X118330000Y-73805000D01*
X118355000Y-73875000D01*
X118385000Y-73970000D01*
X118415000Y-74080000D01*
X118440000Y-74180000D01*
X118465000Y-74295000D01*
X118485000Y-74405000D01*
X118500000Y-74505000D01*
X118510000Y-74580000D01*
X118515000Y-74610000D01*
X117105000Y-74610000D01*
X117090000Y-74535000D01*
X117065000Y-74430000D01*
X117030000Y-74315000D01*
X116990000Y-74200000D01*
X116930000Y-74060000D01*
X116880000Y-73960000D01*
X116835000Y-73880000D01*
X116770000Y-73775000D01*
X116710000Y-73690000D01*
X116645000Y-73605000D01*
X116595000Y-73545000D01*
X116545000Y-73490000D01*
X116465000Y-73405000D01*
X116365000Y-73315000D01*
X116300000Y-73260000D01*
X116215000Y-73195000D01*
X116150000Y-73150000D01*
X116055000Y-73090000D01*
X115960000Y-73035000D01*
X115860000Y-72985000D01*
X115760000Y-72940000D01*
X115680000Y-72910000D01*
X115600000Y-72880000D01*
X115480000Y-72845000D01*
X115375000Y-72820000D01*
X115300000Y-72805000D01*
X115300000Y-71395000D01*
X115420000Y-71410000D01*
G36*
X115420000Y-71410000D02*
G01*
X115565000Y-71435000D01*
X115695000Y-71460000D01*
X115870000Y-71505000D01*
X116035000Y-71555000D01*
X116190000Y-71610000D01*
X116340000Y-71670000D01*
X116490000Y-71740000D01*
X116665000Y-71830000D01*
X116825000Y-71925000D01*
X116960000Y-72015000D01*
X117045000Y-72075000D01*
X117125000Y-72135000D01*
X117195000Y-72190000D01*
X117265000Y-72250000D01*
X117345000Y-72320000D01*
X117395000Y-72365000D01*
X117440000Y-72410000D01*
X117525000Y-72495000D01*
X117595000Y-72570000D01*
X117660000Y-72645000D01*
X117720000Y-72715000D01*
X117770000Y-72780000D01*
X117820000Y-72845000D01*
X117885000Y-72935000D01*
X117945000Y-73025000D01*
X118010000Y-73125000D01*
X118075000Y-73240000D01*
X118140000Y-73360000D01*
X118190000Y-73460000D01*
X118230000Y-73550000D01*
X118270000Y-73645000D01*
X118295000Y-73710000D01*
X118330000Y-73805000D01*
X118355000Y-73875000D01*
X118385000Y-73970000D01*
X118415000Y-74080000D01*
X118440000Y-74180000D01*
X118465000Y-74295000D01*
X118485000Y-74405000D01*
X118500000Y-74505000D01*
X118510000Y-74580000D01*
X118515000Y-74610000D01*
X117105000Y-74610000D01*
X117090000Y-74535000D01*
X117065000Y-74430000D01*
X117030000Y-74315000D01*
X116990000Y-74200000D01*
X116930000Y-74060000D01*
X116880000Y-73960000D01*
X116835000Y-73880000D01*
X116770000Y-73775000D01*
X116710000Y-73690000D01*
X116645000Y-73605000D01*
X116595000Y-73545000D01*
X116545000Y-73490000D01*
X116465000Y-73405000D01*
X116365000Y-73315000D01*
X116300000Y-73260000D01*
X116215000Y-73195000D01*
X116150000Y-73150000D01*
X116055000Y-73090000D01*
X115960000Y-73035000D01*
X115860000Y-72985000D01*
X115760000Y-72940000D01*
X115680000Y-72910000D01*
X115600000Y-72880000D01*
X115480000Y-72845000D01*
X115375000Y-72820000D01*
X115300000Y-72805000D01*
X115300000Y-71395000D01*
X115420000Y-71410000D01*
G37*
X118500000Y-75530000D02*
X118475000Y-75675000D01*
X118450000Y-75805000D01*
X118405000Y-75980000D01*
X118355000Y-76145000D01*
X118300000Y-76300000D01*
X118240000Y-76450000D01*
X118170000Y-76600000D01*
X118080000Y-76775000D01*
X117985000Y-76935000D01*
X117895000Y-77070000D01*
X117835000Y-77155000D01*
X117775000Y-77235000D01*
X117720000Y-77305000D01*
X117660000Y-77375000D01*
X117590000Y-77455000D01*
X117545000Y-77505000D01*
X117500000Y-77550000D01*
X117415000Y-77635000D01*
X117340000Y-77705000D01*
X117265000Y-77770000D01*
X117195000Y-77830000D01*
X117130000Y-77880000D01*
X117065000Y-77930000D01*
X116975000Y-77995000D01*
X116885000Y-78055000D01*
X116785000Y-78120000D01*
X116670000Y-78185000D01*
X116550000Y-78250000D01*
X116450000Y-78300000D01*
X116360000Y-78340000D01*
X116265000Y-78380000D01*
X116200000Y-78405000D01*
X116105000Y-78440000D01*
X116035000Y-78465000D01*
X115940000Y-78495000D01*
X115830000Y-78525000D01*
X115730000Y-78550000D01*
X115615000Y-78575000D01*
X115505000Y-78595000D01*
X115405000Y-78610000D01*
X115330000Y-78620000D01*
X115300000Y-78625000D01*
X115300000Y-77215000D01*
X115375000Y-77200000D01*
X115480000Y-77175000D01*
X115595000Y-77140000D01*
X115710000Y-77100000D01*
X115850000Y-77040000D01*
X115950000Y-76990000D01*
X116030000Y-76945000D01*
X116135000Y-76880000D01*
X116220000Y-76820000D01*
X116305000Y-76755000D01*
X116365000Y-76705000D01*
X116420000Y-76655000D01*
X116505000Y-76575000D01*
X116595000Y-76475000D01*
X116650000Y-76410000D01*
X116715000Y-76325000D01*
X116760000Y-76260000D01*
X116820000Y-76165000D01*
X116875000Y-76070000D01*
X116925000Y-75970000D01*
X116970000Y-75870000D01*
X117000000Y-75790000D01*
X117030000Y-75710000D01*
X117065000Y-75590000D01*
X117090000Y-75485000D01*
X117105000Y-75410000D01*
X118515000Y-75410000D01*
X118500000Y-75530000D01*
G36*
X118500000Y-75530000D02*
G01*
X118475000Y-75675000D01*
X118450000Y-75805000D01*
X118405000Y-75980000D01*
X118355000Y-76145000D01*
X118300000Y-76300000D01*
X118240000Y-76450000D01*
X118170000Y-76600000D01*
X118080000Y-76775000D01*
X117985000Y-76935000D01*
X117895000Y-77070000D01*
X117835000Y-77155000D01*
X117775000Y-77235000D01*
X117720000Y-77305000D01*
X117660000Y-77375000D01*
X117590000Y-77455000D01*
X117545000Y-77505000D01*
X117500000Y-77550000D01*
X117415000Y-77635000D01*
X117340000Y-77705000D01*
X117265000Y-77770000D01*
X117195000Y-77830000D01*
X117130000Y-77880000D01*
X117065000Y-77930000D01*
X116975000Y-77995000D01*
X116885000Y-78055000D01*
X116785000Y-78120000D01*
X116670000Y-78185000D01*
X116550000Y-78250000D01*
X116450000Y-78300000D01*
X116360000Y-78340000D01*
X116265000Y-78380000D01*
X116200000Y-78405000D01*
X116105000Y-78440000D01*
X116035000Y-78465000D01*
X115940000Y-78495000D01*
X115830000Y-78525000D01*
X115730000Y-78550000D01*
X115615000Y-78575000D01*
X115505000Y-78595000D01*
X115405000Y-78610000D01*
X115330000Y-78620000D01*
X115300000Y-78625000D01*
X115300000Y-77215000D01*
X115375000Y-77200000D01*
X115480000Y-77175000D01*
X115595000Y-77140000D01*
X115710000Y-77100000D01*
X115850000Y-77040000D01*
X115950000Y-76990000D01*
X116030000Y-76945000D01*
X116135000Y-76880000D01*
X116220000Y-76820000D01*
X116305000Y-76755000D01*
X116365000Y-76705000D01*
X116420000Y-76655000D01*
X116505000Y-76575000D01*
X116595000Y-76475000D01*
X116650000Y-76410000D01*
X116715000Y-76325000D01*
X116760000Y-76260000D01*
X116820000Y-76165000D01*
X116875000Y-76070000D01*
X116925000Y-75970000D01*
X116970000Y-75870000D01*
X117000000Y-75790000D01*
X117030000Y-75710000D01*
X117065000Y-75590000D01*
X117090000Y-75485000D01*
X117105000Y-75410000D01*
X118515000Y-75410000D01*
X118500000Y-75530000D01*
G37*
X243600000Y-124795000D02*
X243525000Y-124810000D01*
X243420000Y-124835000D01*
X243305000Y-124870000D01*
X243190000Y-124910000D01*
X243050000Y-124970000D01*
X242950000Y-125020000D01*
X242870000Y-125065000D01*
X242765000Y-125130000D01*
X242680000Y-125190000D01*
X242595000Y-125255000D01*
X242535000Y-125305000D01*
X242480000Y-125355000D01*
X242395000Y-125435000D01*
X242305000Y-125535000D01*
X242250000Y-125600000D01*
X242185000Y-125685000D01*
X242140000Y-125750000D01*
X242080000Y-125845000D01*
X242025000Y-125940000D01*
X241975000Y-126040000D01*
X241930000Y-126140000D01*
X241900000Y-126220000D01*
X241870000Y-126300000D01*
X241835000Y-126420000D01*
X241810000Y-126525000D01*
X241795000Y-126600000D01*
X240385000Y-126600000D01*
X240400000Y-126480000D01*
X240425000Y-126335000D01*
X240450000Y-126205000D01*
X240495000Y-126030000D01*
X240545000Y-125865000D01*
X240600000Y-125710000D01*
X240660000Y-125560000D01*
X240730000Y-125410000D01*
X240820000Y-125235000D01*
X240915000Y-125075000D01*
X241005000Y-124940000D01*
X241065000Y-124855000D01*
X241125000Y-124775000D01*
X241180000Y-124705000D01*
X241240000Y-124635000D01*
X241310000Y-124555000D01*
X241355000Y-124505000D01*
X241400000Y-124460000D01*
X241485000Y-124375000D01*
X241560000Y-124305000D01*
X241635000Y-124240000D01*
X241705000Y-124180000D01*
X241770000Y-124130000D01*
X241835000Y-124080000D01*
X241925000Y-124015000D01*
X242015000Y-123955000D01*
X242115000Y-123890000D01*
X242230000Y-123825000D01*
X242350000Y-123760000D01*
X242450000Y-123710000D01*
X242540000Y-123670000D01*
X242635000Y-123630000D01*
X242700000Y-123605000D01*
X242795000Y-123570000D01*
X242865000Y-123545000D01*
X242960000Y-123515000D01*
X243070000Y-123485000D01*
X243170000Y-123460000D01*
X243285000Y-123435000D01*
X243395000Y-123415000D01*
X243495000Y-123400000D01*
X243570000Y-123390000D01*
X243600000Y-123385000D01*
X243600000Y-124795000D01*
G36*
X243600000Y-124795000D02*
G01*
X243525000Y-124810000D01*
X243420000Y-124835000D01*
X243305000Y-124870000D01*
X243190000Y-124910000D01*
X243050000Y-124970000D01*
X242950000Y-125020000D01*
X242870000Y-125065000D01*
X242765000Y-125130000D01*
X242680000Y-125190000D01*
X242595000Y-125255000D01*
X242535000Y-125305000D01*
X242480000Y-125355000D01*
X242395000Y-125435000D01*
X242305000Y-125535000D01*
X242250000Y-125600000D01*
X242185000Y-125685000D01*
X242140000Y-125750000D01*
X242080000Y-125845000D01*
X242025000Y-125940000D01*
X241975000Y-126040000D01*
X241930000Y-126140000D01*
X241900000Y-126220000D01*
X241870000Y-126300000D01*
X241835000Y-126420000D01*
X241810000Y-126525000D01*
X241795000Y-126600000D01*
X240385000Y-126600000D01*
X240400000Y-126480000D01*
X240425000Y-126335000D01*
X240450000Y-126205000D01*
X240495000Y-126030000D01*
X240545000Y-125865000D01*
X240600000Y-125710000D01*
X240660000Y-125560000D01*
X240730000Y-125410000D01*
X240820000Y-125235000D01*
X240915000Y-125075000D01*
X241005000Y-124940000D01*
X241065000Y-124855000D01*
X241125000Y-124775000D01*
X241180000Y-124705000D01*
X241240000Y-124635000D01*
X241310000Y-124555000D01*
X241355000Y-124505000D01*
X241400000Y-124460000D01*
X241485000Y-124375000D01*
X241560000Y-124305000D01*
X241635000Y-124240000D01*
X241705000Y-124180000D01*
X241770000Y-124130000D01*
X241835000Y-124080000D01*
X241925000Y-124015000D01*
X242015000Y-123955000D01*
X242115000Y-123890000D01*
X242230000Y-123825000D01*
X242350000Y-123760000D01*
X242450000Y-123710000D01*
X242540000Y-123670000D01*
X242635000Y-123630000D01*
X242700000Y-123605000D01*
X242795000Y-123570000D01*
X242865000Y-123545000D01*
X242960000Y-123515000D01*
X243070000Y-123485000D01*
X243170000Y-123460000D01*
X243285000Y-123435000D01*
X243395000Y-123415000D01*
X243495000Y-123400000D01*
X243570000Y-123390000D01*
X243600000Y-123385000D01*
X243600000Y-124795000D01*
G37*
X241810000Y-127475000D02*
X241835000Y-127580000D01*
X241870000Y-127695000D01*
X241910000Y-127810000D01*
X241970000Y-127950000D01*
X242020000Y-128050000D01*
X242065000Y-128130000D01*
X242130000Y-128235000D01*
X242190000Y-128320000D01*
X242255000Y-128405000D01*
X242305000Y-128465000D01*
X242355000Y-128520000D01*
X242435000Y-128605000D01*
X242535000Y-128695000D01*
X242600000Y-128750000D01*
X242685000Y-128815000D01*
X242750000Y-128860000D01*
X242845000Y-128920000D01*
X242940000Y-128975000D01*
X243040000Y-129025000D01*
X243140000Y-129070000D01*
X243220000Y-129100000D01*
X243300000Y-129130000D01*
X243420000Y-129165000D01*
X243525000Y-129190000D01*
X243600000Y-129205000D01*
X243600000Y-130615000D01*
X243480000Y-130600000D01*
X243335000Y-130575000D01*
X243205000Y-130550000D01*
X243030000Y-130505000D01*
X242865000Y-130455000D01*
X242710000Y-130400000D01*
X242560000Y-130340000D01*
X242410000Y-130270000D01*
X242235000Y-130180000D01*
X242075000Y-130085000D01*
X241940000Y-129995000D01*
X241855000Y-129935000D01*
X241775000Y-129875000D01*
X241705000Y-129820000D01*
X241635000Y-129760000D01*
X241555000Y-129690000D01*
X241505000Y-129645000D01*
X241460000Y-129600000D01*
X241375000Y-129515000D01*
X241305000Y-129440000D01*
X241240000Y-129365000D01*
X241180000Y-129295000D01*
X241130000Y-129230000D01*
X241080000Y-129165000D01*
X241015000Y-129075000D01*
X240955000Y-128985000D01*
X240890000Y-128885000D01*
X240825000Y-128770000D01*
X240760000Y-128650000D01*
X240710000Y-128550000D01*
X240670000Y-128460000D01*
X240630000Y-128365000D01*
X240605000Y-128300000D01*
X240570000Y-128205000D01*
X240545000Y-128135000D01*
X240515000Y-128040000D01*
X240485000Y-127930000D01*
X240460000Y-127830000D01*
X240435000Y-127715000D01*
X240415000Y-127605000D01*
X240400000Y-127505000D01*
X240390000Y-127430000D01*
X240385000Y-127400000D01*
X241795000Y-127400000D01*
X241810000Y-127475000D01*
G36*
X241810000Y-127475000D02*
G01*
X241835000Y-127580000D01*
X241870000Y-127695000D01*
X241910000Y-127810000D01*
X241970000Y-127950000D01*
X242020000Y-128050000D01*
X242065000Y-128130000D01*
X242130000Y-128235000D01*
X242190000Y-128320000D01*
X242255000Y-128405000D01*
X242305000Y-128465000D01*
X242355000Y-128520000D01*
X242435000Y-128605000D01*
X242535000Y-128695000D01*
X242600000Y-128750000D01*
X242685000Y-128815000D01*
X242750000Y-128860000D01*
X242845000Y-128920000D01*
X242940000Y-128975000D01*
X243040000Y-129025000D01*
X243140000Y-129070000D01*
X243220000Y-129100000D01*
X243300000Y-129130000D01*
X243420000Y-129165000D01*
X243525000Y-129190000D01*
X243600000Y-129205000D01*
X243600000Y-130615000D01*
X243480000Y-130600000D01*
X243335000Y-130575000D01*
X243205000Y-130550000D01*
X243030000Y-130505000D01*
X242865000Y-130455000D01*
X242710000Y-130400000D01*
X242560000Y-130340000D01*
X242410000Y-130270000D01*
X242235000Y-130180000D01*
X242075000Y-130085000D01*
X241940000Y-129995000D01*
X241855000Y-129935000D01*
X241775000Y-129875000D01*
X241705000Y-129820000D01*
X241635000Y-129760000D01*
X241555000Y-129690000D01*
X241505000Y-129645000D01*
X241460000Y-129600000D01*
X241375000Y-129515000D01*
X241305000Y-129440000D01*
X241240000Y-129365000D01*
X241180000Y-129295000D01*
X241130000Y-129230000D01*
X241080000Y-129165000D01*
X241015000Y-129075000D01*
X240955000Y-128985000D01*
X240890000Y-128885000D01*
X240825000Y-128770000D01*
X240760000Y-128650000D01*
X240710000Y-128550000D01*
X240670000Y-128460000D01*
X240630000Y-128365000D01*
X240605000Y-128300000D01*
X240570000Y-128205000D01*
X240545000Y-128135000D01*
X240515000Y-128040000D01*
X240485000Y-127930000D01*
X240460000Y-127830000D01*
X240435000Y-127715000D01*
X240415000Y-127605000D01*
X240400000Y-127505000D01*
X240390000Y-127430000D01*
X240385000Y-127400000D01*
X241795000Y-127400000D01*
X241810000Y-127475000D01*
G37*
X244520000Y-123400000D02*
X244665000Y-123425000D01*
X244795000Y-123450000D01*
X244970000Y-123495000D01*
X245135000Y-123545000D01*
X245290000Y-123600000D01*
X245440000Y-123660000D01*
X245590000Y-123730000D01*
X245765000Y-123820000D01*
X245925000Y-123915000D01*
X246060000Y-124005000D01*
X246145000Y-124065000D01*
X246225000Y-124125000D01*
X246295000Y-124180000D01*
X246365000Y-124240000D01*
X246445000Y-124310000D01*
X246495000Y-124355000D01*
X246540000Y-124400000D01*
X246625000Y-124485000D01*
X246695000Y-124560000D01*
X246760000Y-124635000D01*
X246820000Y-124705000D01*
X246870000Y-124770000D01*
X246920000Y-124835000D01*
X246985000Y-124925000D01*
X247045000Y-125015000D01*
X247110000Y-125115000D01*
X247175000Y-125230000D01*
X247240000Y-125350000D01*
X247290000Y-125450000D01*
X247330000Y-125540000D01*
X247370000Y-125635000D01*
X247395000Y-125700000D01*
X247430000Y-125795000D01*
X247455000Y-125865000D01*
X247485000Y-125960000D01*
X247515000Y-126070000D01*
X247540000Y-126170000D01*
X247565000Y-126285000D01*
X247585000Y-126395000D01*
X247600000Y-126495000D01*
X247610000Y-126570000D01*
X247615000Y-126600000D01*
X246205000Y-126600000D01*
X246190000Y-126525000D01*
X246165000Y-126420000D01*
X246130000Y-126305000D01*
X246090000Y-126190000D01*
X246030000Y-126050000D01*
X245980000Y-125950000D01*
X245935000Y-125870000D01*
X245870000Y-125765000D01*
X245810000Y-125680000D01*
X245745000Y-125595000D01*
X245695000Y-125535000D01*
X245645000Y-125480000D01*
X245565000Y-125395000D01*
X245465000Y-125305000D01*
X245400000Y-125250000D01*
X245315000Y-125185000D01*
X245250000Y-125140000D01*
X245155000Y-125080000D01*
X245060000Y-125025000D01*
X244960000Y-124975000D01*
X244860000Y-124930000D01*
X244780000Y-124900000D01*
X244700000Y-124870000D01*
X244580000Y-124835000D01*
X244475000Y-124810000D01*
X244400000Y-124795000D01*
X244400000Y-123385000D01*
X244520000Y-123400000D01*
G36*
X244520000Y-123400000D02*
G01*
X244665000Y-123425000D01*
X244795000Y-123450000D01*
X244970000Y-123495000D01*
X245135000Y-123545000D01*
X245290000Y-123600000D01*
X245440000Y-123660000D01*
X245590000Y-123730000D01*
X245765000Y-123820000D01*
X245925000Y-123915000D01*
X246060000Y-124005000D01*
X246145000Y-124065000D01*
X246225000Y-124125000D01*
X246295000Y-124180000D01*
X246365000Y-124240000D01*
X246445000Y-124310000D01*
X246495000Y-124355000D01*
X246540000Y-124400000D01*
X246625000Y-124485000D01*
X246695000Y-124560000D01*
X246760000Y-124635000D01*
X246820000Y-124705000D01*
X246870000Y-124770000D01*
X246920000Y-124835000D01*
X246985000Y-124925000D01*
X247045000Y-125015000D01*
X247110000Y-125115000D01*
X247175000Y-125230000D01*
X247240000Y-125350000D01*
X247290000Y-125450000D01*
X247330000Y-125540000D01*
X247370000Y-125635000D01*
X247395000Y-125700000D01*
X247430000Y-125795000D01*
X247455000Y-125865000D01*
X247485000Y-125960000D01*
X247515000Y-126070000D01*
X247540000Y-126170000D01*
X247565000Y-126285000D01*
X247585000Y-126395000D01*
X247600000Y-126495000D01*
X247610000Y-126570000D01*
X247615000Y-126600000D01*
X246205000Y-126600000D01*
X246190000Y-126525000D01*
X246165000Y-126420000D01*
X246130000Y-126305000D01*
X246090000Y-126190000D01*
X246030000Y-126050000D01*
X245980000Y-125950000D01*
X245935000Y-125870000D01*
X245870000Y-125765000D01*
X245810000Y-125680000D01*
X245745000Y-125595000D01*
X245695000Y-125535000D01*
X245645000Y-125480000D01*
X245565000Y-125395000D01*
X245465000Y-125305000D01*
X245400000Y-125250000D01*
X245315000Y-125185000D01*
X245250000Y-125140000D01*
X245155000Y-125080000D01*
X245060000Y-125025000D01*
X244960000Y-124975000D01*
X244860000Y-124930000D01*
X244780000Y-124900000D01*
X244700000Y-124870000D01*
X244580000Y-124835000D01*
X244475000Y-124810000D01*
X244400000Y-124795000D01*
X244400000Y-123385000D01*
X244520000Y-123400000D01*
G37*
X247600000Y-127520000D02*
X247575000Y-127665000D01*
X247550000Y-127795000D01*
X247505000Y-127970000D01*
X247455000Y-128135000D01*
X247400000Y-128290000D01*
X247340000Y-128440000D01*
X247270000Y-128590000D01*
X247180000Y-128765000D01*
X247085000Y-128925000D01*
X246995000Y-129060000D01*
X246935000Y-129145000D01*
X246875000Y-129225000D01*
X246820000Y-129295000D01*
X246760000Y-129365000D01*
X246690000Y-129445000D01*
X246645000Y-129495000D01*
X246600000Y-129540000D01*
X246515000Y-129625000D01*
X246440000Y-129695000D01*
X246365000Y-129760000D01*
X246295000Y-129820000D01*
X246230000Y-129870000D01*
X246165000Y-129920000D01*
X246075000Y-129985000D01*
X245985000Y-130045000D01*
X245885000Y-130110000D01*
X245770000Y-130175000D01*
X245650000Y-130240000D01*
X245550000Y-130290000D01*
X245460000Y-130330000D01*
X245365000Y-130370000D01*
X245300000Y-130395000D01*
X245205000Y-130430000D01*
X245135000Y-130455000D01*
X245040000Y-130485000D01*
X244930000Y-130515000D01*
X244830000Y-130540000D01*
X244715000Y-130565000D01*
X244605000Y-130585000D01*
X244505000Y-130600000D01*
X244430000Y-130610000D01*
X244400000Y-130615000D01*
X244400000Y-129205000D01*
X244475000Y-129190000D01*
X244580000Y-129165000D01*
X244695000Y-129130000D01*
X244810000Y-129090000D01*
X244950000Y-129030000D01*
X245050000Y-128980000D01*
X245130000Y-128935000D01*
X245235000Y-128870000D01*
X245320000Y-128810000D01*
X245405000Y-128745000D01*
X245465000Y-128695000D01*
X245520000Y-128645000D01*
X245605000Y-128565000D01*
X245695000Y-128465000D01*
X245750000Y-128400000D01*
X245815000Y-128315000D01*
X245860000Y-128250000D01*
X245920000Y-128155000D01*
X245975000Y-128060000D01*
X246025000Y-127960000D01*
X246070000Y-127860000D01*
X246100000Y-127780000D01*
X246130000Y-127700000D01*
X246165000Y-127580000D01*
X246190000Y-127475000D01*
X246205000Y-127400000D01*
X247615000Y-127400000D01*
X247600000Y-127520000D01*
G36*
X247600000Y-127520000D02*
G01*
X247575000Y-127665000D01*
X247550000Y-127795000D01*
X247505000Y-127970000D01*
X247455000Y-128135000D01*
X247400000Y-128290000D01*
X247340000Y-128440000D01*
X247270000Y-128590000D01*
X247180000Y-128765000D01*
X247085000Y-128925000D01*
X246995000Y-129060000D01*
X246935000Y-129145000D01*
X246875000Y-129225000D01*
X246820000Y-129295000D01*
X246760000Y-129365000D01*
X246690000Y-129445000D01*
X246645000Y-129495000D01*
X246600000Y-129540000D01*
X246515000Y-129625000D01*
X246440000Y-129695000D01*
X246365000Y-129760000D01*
X246295000Y-129820000D01*
X246230000Y-129870000D01*
X246165000Y-129920000D01*
X246075000Y-129985000D01*
X245985000Y-130045000D01*
X245885000Y-130110000D01*
X245770000Y-130175000D01*
X245650000Y-130240000D01*
X245550000Y-130290000D01*
X245460000Y-130330000D01*
X245365000Y-130370000D01*
X245300000Y-130395000D01*
X245205000Y-130430000D01*
X245135000Y-130455000D01*
X245040000Y-130485000D01*
X244930000Y-130515000D01*
X244830000Y-130540000D01*
X244715000Y-130565000D01*
X244605000Y-130585000D01*
X244505000Y-130600000D01*
X244430000Y-130610000D01*
X244400000Y-130615000D01*
X244400000Y-129205000D01*
X244475000Y-129190000D01*
X244580000Y-129165000D01*
X244695000Y-129130000D01*
X244810000Y-129090000D01*
X244950000Y-129030000D01*
X245050000Y-128980000D01*
X245130000Y-128935000D01*
X245235000Y-128870000D01*
X245320000Y-128810000D01*
X245405000Y-128745000D01*
X245465000Y-128695000D01*
X245520000Y-128645000D01*
X245605000Y-128565000D01*
X245695000Y-128465000D01*
X245750000Y-128400000D01*
X245815000Y-128315000D01*
X245860000Y-128250000D01*
X245920000Y-128155000D01*
X245975000Y-128060000D01*
X246025000Y-127960000D01*
X246070000Y-127860000D01*
X246100000Y-127780000D01*
X246130000Y-127700000D01*
X246165000Y-127580000D01*
X246190000Y-127475000D01*
X246205000Y-127400000D01*
X247615000Y-127400000D01*
X247600000Y-127520000D01*
G37*
X243600000Y-66795000D02*
X243525000Y-66810000D01*
X243420000Y-66835000D01*
X243305000Y-66870000D01*
X243190000Y-66910000D01*
X243050000Y-66970000D01*
X242950000Y-67020000D01*
X242870000Y-67065000D01*
X242765000Y-67130000D01*
X242680000Y-67190000D01*
X242595000Y-67255000D01*
X242535000Y-67305000D01*
X242480000Y-67355000D01*
X242395000Y-67435000D01*
X242305000Y-67535000D01*
X242250000Y-67600000D01*
X242185000Y-67685000D01*
X242140000Y-67750000D01*
X242080000Y-67845000D01*
X242025000Y-67940000D01*
X241975000Y-68040000D01*
X241930000Y-68140000D01*
X241900000Y-68220000D01*
X241870000Y-68300000D01*
X241835000Y-68420000D01*
X241810000Y-68525000D01*
X241795000Y-68600000D01*
X240385000Y-68600000D01*
X240400000Y-68480000D01*
X240425000Y-68335000D01*
X240450000Y-68205000D01*
X240495000Y-68030000D01*
X240545000Y-67865000D01*
X240600000Y-67710000D01*
X240660000Y-67560000D01*
X240730000Y-67410000D01*
X240820000Y-67235000D01*
X240915000Y-67075000D01*
X241005000Y-66940000D01*
X241065000Y-66855000D01*
X241125000Y-66775000D01*
X241180000Y-66705000D01*
X241240000Y-66635000D01*
X241310000Y-66555000D01*
X241355000Y-66505000D01*
X241400000Y-66460000D01*
X241485000Y-66375000D01*
X241560000Y-66305000D01*
X241635000Y-66240000D01*
X241705000Y-66180000D01*
X241770000Y-66130000D01*
X241835000Y-66080000D01*
X241925000Y-66015000D01*
X242015000Y-65955000D01*
X242115000Y-65890000D01*
X242230000Y-65825000D01*
X242350000Y-65760000D01*
X242450000Y-65710000D01*
X242540000Y-65670000D01*
X242635000Y-65630000D01*
X242700000Y-65605000D01*
X242795000Y-65570000D01*
X242865000Y-65545000D01*
X242960000Y-65515000D01*
X243070000Y-65485000D01*
X243170000Y-65460000D01*
X243285000Y-65435000D01*
X243395000Y-65415000D01*
X243495000Y-65400000D01*
X243570000Y-65390000D01*
X243600000Y-65385000D01*
X243600000Y-66795000D01*
G36*
X243600000Y-66795000D02*
G01*
X243525000Y-66810000D01*
X243420000Y-66835000D01*
X243305000Y-66870000D01*
X243190000Y-66910000D01*
X243050000Y-66970000D01*
X242950000Y-67020000D01*
X242870000Y-67065000D01*
X242765000Y-67130000D01*
X242680000Y-67190000D01*
X242595000Y-67255000D01*
X242535000Y-67305000D01*
X242480000Y-67355000D01*
X242395000Y-67435000D01*
X242305000Y-67535000D01*
X242250000Y-67600000D01*
X242185000Y-67685000D01*
X242140000Y-67750000D01*
X242080000Y-67845000D01*
X242025000Y-67940000D01*
X241975000Y-68040000D01*
X241930000Y-68140000D01*
X241900000Y-68220000D01*
X241870000Y-68300000D01*
X241835000Y-68420000D01*
X241810000Y-68525000D01*
X241795000Y-68600000D01*
X240385000Y-68600000D01*
X240400000Y-68480000D01*
X240425000Y-68335000D01*
X240450000Y-68205000D01*
X240495000Y-68030000D01*
X240545000Y-67865000D01*
X240600000Y-67710000D01*
X240660000Y-67560000D01*
X240730000Y-67410000D01*
X240820000Y-67235000D01*
X240915000Y-67075000D01*
X241005000Y-66940000D01*
X241065000Y-66855000D01*
X241125000Y-66775000D01*
X241180000Y-66705000D01*
X241240000Y-66635000D01*
X241310000Y-66555000D01*
X241355000Y-66505000D01*
X241400000Y-66460000D01*
X241485000Y-66375000D01*
X241560000Y-66305000D01*
X241635000Y-66240000D01*
X241705000Y-66180000D01*
X241770000Y-66130000D01*
X241835000Y-66080000D01*
X241925000Y-66015000D01*
X242015000Y-65955000D01*
X242115000Y-65890000D01*
X242230000Y-65825000D01*
X242350000Y-65760000D01*
X242450000Y-65710000D01*
X242540000Y-65670000D01*
X242635000Y-65630000D01*
X242700000Y-65605000D01*
X242795000Y-65570000D01*
X242865000Y-65545000D01*
X242960000Y-65515000D01*
X243070000Y-65485000D01*
X243170000Y-65460000D01*
X243285000Y-65435000D01*
X243395000Y-65415000D01*
X243495000Y-65400000D01*
X243570000Y-65390000D01*
X243600000Y-65385000D01*
X243600000Y-66795000D01*
G37*
X241810000Y-69475000D02*
X241835000Y-69580000D01*
X241870000Y-69695000D01*
X241910000Y-69810000D01*
X241970000Y-69950000D01*
X242020000Y-70050000D01*
X242065000Y-70130000D01*
X242130000Y-70235000D01*
X242190000Y-70320000D01*
X242255000Y-70405000D01*
X242305000Y-70465000D01*
X242355000Y-70520000D01*
X242435000Y-70605000D01*
X242535000Y-70695000D01*
X242600000Y-70750000D01*
X242685000Y-70815000D01*
X242750000Y-70860000D01*
X242845000Y-70920000D01*
X242940000Y-70975000D01*
X243040000Y-71025000D01*
X243140000Y-71070000D01*
X243220000Y-71100000D01*
X243300000Y-71130000D01*
X243420000Y-71165000D01*
X243525000Y-71190000D01*
X243600000Y-71205000D01*
X243600000Y-72615000D01*
X243480000Y-72600000D01*
X243335000Y-72575000D01*
X243205000Y-72550000D01*
X243030000Y-72505000D01*
X242865000Y-72455000D01*
X242710000Y-72400000D01*
X242560000Y-72340000D01*
X242410000Y-72270000D01*
X242235000Y-72180000D01*
X242075000Y-72085000D01*
X241940000Y-71995000D01*
X241855000Y-71935000D01*
X241775000Y-71875000D01*
X241705000Y-71820000D01*
X241635000Y-71760000D01*
X241555000Y-71690000D01*
X241505000Y-71645000D01*
X241460000Y-71600000D01*
X241375000Y-71515000D01*
X241305000Y-71440000D01*
X241240000Y-71365000D01*
X241180000Y-71295000D01*
X241130000Y-71230000D01*
X241080000Y-71165000D01*
X241015000Y-71075000D01*
X240955000Y-70985000D01*
X240890000Y-70885000D01*
X240825000Y-70770000D01*
X240760000Y-70650000D01*
X240710000Y-70550000D01*
X240670000Y-70460000D01*
X240630000Y-70365000D01*
X240605000Y-70300000D01*
X240570000Y-70205000D01*
X240545000Y-70135000D01*
X240515000Y-70040000D01*
X240485000Y-69930000D01*
X240460000Y-69830000D01*
X240435000Y-69715000D01*
X240415000Y-69605000D01*
X240400000Y-69505000D01*
X240390000Y-69430000D01*
X240385000Y-69400000D01*
X241795000Y-69400000D01*
X241810000Y-69475000D01*
G36*
X241810000Y-69475000D02*
G01*
X241835000Y-69580000D01*
X241870000Y-69695000D01*
X241910000Y-69810000D01*
X241970000Y-69950000D01*
X242020000Y-70050000D01*
X242065000Y-70130000D01*
X242130000Y-70235000D01*
X242190000Y-70320000D01*
X242255000Y-70405000D01*
X242305000Y-70465000D01*
X242355000Y-70520000D01*
X242435000Y-70605000D01*
X242535000Y-70695000D01*
X242600000Y-70750000D01*
X242685000Y-70815000D01*
X242750000Y-70860000D01*
X242845000Y-70920000D01*
X242940000Y-70975000D01*
X243040000Y-71025000D01*
X243140000Y-71070000D01*
X243220000Y-71100000D01*
X243300000Y-71130000D01*
X243420000Y-71165000D01*
X243525000Y-71190000D01*
X243600000Y-71205000D01*
X243600000Y-72615000D01*
X243480000Y-72600000D01*
X243335000Y-72575000D01*
X243205000Y-72550000D01*
X243030000Y-72505000D01*
X242865000Y-72455000D01*
X242710000Y-72400000D01*
X242560000Y-72340000D01*
X242410000Y-72270000D01*
X242235000Y-72180000D01*
X242075000Y-72085000D01*
X241940000Y-71995000D01*
X241855000Y-71935000D01*
X241775000Y-71875000D01*
X241705000Y-71820000D01*
X241635000Y-71760000D01*
X241555000Y-71690000D01*
X241505000Y-71645000D01*
X241460000Y-71600000D01*
X241375000Y-71515000D01*
X241305000Y-71440000D01*
X241240000Y-71365000D01*
X241180000Y-71295000D01*
X241130000Y-71230000D01*
X241080000Y-71165000D01*
X241015000Y-71075000D01*
X240955000Y-70985000D01*
X240890000Y-70885000D01*
X240825000Y-70770000D01*
X240760000Y-70650000D01*
X240710000Y-70550000D01*
X240670000Y-70460000D01*
X240630000Y-70365000D01*
X240605000Y-70300000D01*
X240570000Y-70205000D01*
X240545000Y-70135000D01*
X240515000Y-70040000D01*
X240485000Y-69930000D01*
X240460000Y-69830000D01*
X240435000Y-69715000D01*
X240415000Y-69605000D01*
X240400000Y-69505000D01*
X240390000Y-69430000D01*
X240385000Y-69400000D01*
X241795000Y-69400000D01*
X241810000Y-69475000D01*
G37*
X244520000Y-65400000D02*
X244665000Y-65425000D01*
X244795000Y-65450000D01*
X244970000Y-65495000D01*
X245135000Y-65545000D01*
X245290000Y-65600000D01*
X245440000Y-65660000D01*
X245590000Y-65730000D01*
X245765000Y-65820000D01*
X245925000Y-65915000D01*
X246060000Y-66005000D01*
X246145000Y-66065000D01*
X246225000Y-66125000D01*
X246295000Y-66180000D01*
X246365000Y-66240000D01*
X246445000Y-66310000D01*
X246495000Y-66355000D01*
X246540000Y-66400000D01*
X246625000Y-66485000D01*
X246695000Y-66560000D01*
X246760000Y-66635000D01*
X246820000Y-66705000D01*
X246870000Y-66770000D01*
X246920000Y-66835000D01*
X246985000Y-66925000D01*
X247045000Y-67015000D01*
X247110000Y-67115000D01*
X247175000Y-67230000D01*
X247240000Y-67350000D01*
X247290000Y-67450000D01*
X247330000Y-67540000D01*
X247370000Y-67635000D01*
X247395000Y-67700000D01*
X247430000Y-67795000D01*
X247455000Y-67865000D01*
X247485000Y-67960000D01*
X247515000Y-68070000D01*
X247540000Y-68170000D01*
X247565000Y-68285000D01*
X247585000Y-68395000D01*
X247600000Y-68495000D01*
X247610000Y-68570000D01*
X247615000Y-68600000D01*
X246205000Y-68600000D01*
X246190000Y-68525000D01*
X246165000Y-68420000D01*
X246130000Y-68305000D01*
X246090000Y-68190000D01*
X246030000Y-68050000D01*
X245980000Y-67950000D01*
X245935000Y-67870000D01*
X245870000Y-67765000D01*
X245810000Y-67680000D01*
X245745000Y-67595000D01*
X245695000Y-67535000D01*
X245645000Y-67480000D01*
X245565000Y-67395000D01*
X245465000Y-67305000D01*
X245400000Y-67250000D01*
X245315000Y-67185000D01*
X245250000Y-67140000D01*
X245155000Y-67080000D01*
X245060000Y-67025000D01*
X244960000Y-66975000D01*
X244860000Y-66930000D01*
X244780000Y-66900000D01*
X244700000Y-66870000D01*
X244580000Y-66835000D01*
X244475000Y-66810000D01*
X244400000Y-66795000D01*
X244400000Y-65385000D01*
X244520000Y-65400000D01*
G36*
X244520000Y-65400000D02*
G01*
X244665000Y-65425000D01*
X244795000Y-65450000D01*
X244970000Y-65495000D01*
X245135000Y-65545000D01*
X245290000Y-65600000D01*
X245440000Y-65660000D01*
X245590000Y-65730000D01*
X245765000Y-65820000D01*
X245925000Y-65915000D01*
X246060000Y-66005000D01*
X246145000Y-66065000D01*
X246225000Y-66125000D01*
X246295000Y-66180000D01*
X246365000Y-66240000D01*
X246445000Y-66310000D01*
X246495000Y-66355000D01*
X246540000Y-66400000D01*
X246625000Y-66485000D01*
X246695000Y-66560000D01*
X246760000Y-66635000D01*
X246820000Y-66705000D01*
X246870000Y-66770000D01*
X246920000Y-66835000D01*
X246985000Y-66925000D01*
X247045000Y-67015000D01*
X247110000Y-67115000D01*
X247175000Y-67230000D01*
X247240000Y-67350000D01*
X247290000Y-67450000D01*
X247330000Y-67540000D01*
X247370000Y-67635000D01*
X247395000Y-67700000D01*
X247430000Y-67795000D01*
X247455000Y-67865000D01*
X247485000Y-67960000D01*
X247515000Y-68070000D01*
X247540000Y-68170000D01*
X247565000Y-68285000D01*
X247585000Y-68395000D01*
X247600000Y-68495000D01*
X247610000Y-68570000D01*
X247615000Y-68600000D01*
X246205000Y-68600000D01*
X246190000Y-68525000D01*
X246165000Y-68420000D01*
X246130000Y-68305000D01*
X246090000Y-68190000D01*
X246030000Y-68050000D01*
X245980000Y-67950000D01*
X245935000Y-67870000D01*
X245870000Y-67765000D01*
X245810000Y-67680000D01*
X245745000Y-67595000D01*
X245695000Y-67535000D01*
X245645000Y-67480000D01*
X245565000Y-67395000D01*
X245465000Y-67305000D01*
X245400000Y-67250000D01*
X245315000Y-67185000D01*
X245250000Y-67140000D01*
X245155000Y-67080000D01*
X245060000Y-67025000D01*
X244960000Y-66975000D01*
X244860000Y-66930000D01*
X244780000Y-66900000D01*
X244700000Y-66870000D01*
X244580000Y-66835000D01*
X244475000Y-66810000D01*
X244400000Y-66795000D01*
X244400000Y-65385000D01*
X244520000Y-65400000D01*
G37*
X247600000Y-69520000D02*
X247575000Y-69665000D01*
X247550000Y-69795000D01*
X247505000Y-69970000D01*
X247455000Y-70135000D01*
X247400000Y-70290000D01*
X247340000Y-70440000D01*
X247270000Y-70590000D01*
X247180000Y-70765000D01*
X247085000Y-70925000D01*
X246995000Y-71060000D01*
X246935000Y-71145000D01*
X246875000Y-71225000D01*
X246820000Y-71295000D01*
X246760000Y-71365000D01*
X246690000Y-71445000D01*
X246645000Y-71495000D01*
X246600000Y-71540000D01*
X246515000Y-71625000D01*
X246440000Y-71695000D01*
X246365000Y-71760000D01*
X246295000Y-71820000D01*
X246230000Y-71870000D01*
X246165000Y-71920000D01*
X246075000Y-71985000D01*
X245985000Y-72045000D01*
X245885000Y-72110000D01*
X245770000Y-72175000D01*
X245650000Y-72240000D01*
X245550000Y-72290000D01*
X245460000Y-72330000D01*
X245365000Y-72370000D01*
X245300000Y-72395000D01*
X245205000Y-72430000D01*
X245135000Y-72455000D01*
X245040000Y-72485000D01*
X244930000Y-72515000D01*
X244830000Y-72540000D01*
X244715000Y-72565000D01*
X244605000Y-72585000D01*
X244505000Y-72600000D01*
X244430000Y-72610000D01*
X244400000Y-72615000D01*
X244400000Y-71205000D01*
X244475000Y-71190000D01*
X244580000Y-71165000D01*
X244695000Y-71130000D01*
X244810000Y-71090000D01*
X244950000Y-71030000D01*
X245050000Y-70980000D01*
X245130000Y-70935000D01*
X245235000Y-70870000D01*
X245320000Y-70810000D01*
X245405000Y-70745000D01*
X245465000Y-70695000D01*
X245520000Y-70645000D01*
X245605000Y-70565000D01*
X245695000Y-70465000D01*
X245750000Y-70400000D01*
X245815000Y-70315000D01*
X245860000Y-70250000D01*
X245920000Y-70155000D01*
X245975000Y-70060000D01*
X246025000Y-69960000D01*
X246070000Y-69860000D01*
X246100000Y-69780000D01*
X246130000Y-69700000D01*
X246165000Y-69580000D01*
X246190000Y-69475000D01*
X246205000Y-69400000D01*
X247615000Y-69400000D01*
X247600000Y-69520000D01*
G36*
X247600000Y-69520000D02*
G01*
X247575000Y-69665000D01*
X247550000Y-69795000D01*
X247505000Y-69970000D01*
X247455000Y-70135000D01*
X247400000Y-70290000D01*
X247340000Y-70440000D01*
X247270000Y-70590000D01*
X247180000Y-70765000D01*
X247085000Y-70925000D01*
X246995000Y-71060000D01*
X246935000Y-71145000D01*
X246875000Y-71225000D01*
X246820000Y-71295000D01*
X246760000Y-71365000D01*
X246690000Y-71445000D01*
X246645000Y-71495000D01*
X246600000Y-71540000D01*
X246515000Y-71625000D01*
X246440000Y-71695000D01*
X246365000Y-71760000D01*
X246295000Y-71820000D01*
X246230000Y-71870000D01*
X246165000Y-71920000D01*
X246075000Y-71985000D01*
X245985000Y-72045000D01*
X245885000Y-72110000D01*
X245770000Y-72175000D01*
X245650000Y-72240000D01*
X245550000Y-72290000D01*
X245460000Y-72330000D01*
X245365000Y-72370000D01*
X245300000Y-72395000D01*
X245205000Y-72430000D01*
X245135000Y-72455000D01*
X245040000Y-72485000D01*
X244930000Y-72515000D01*
X244830000Y-72540000D01*
X244715000Y-72565000D01*
X244605000Y-72585000D01*
X244505000Y-72600000D01*
X244430000Y-72610000D01*
X244400000Y-72615000D01*
X244400000Y-71205000D01*
X244475000Y-71190000D01*
X244580000Y-71165000D01*
X244695000Y-71130000D01*
X244810000Y-71090000D01*
X244950000Y-71030000D01*
X245050000Y-70980000D01*
X245130000Y-70935000D01*
X245235000Y-70870000D01*
X245320000Y-70810000D01*
X245405000Y-70745000D01*
X245465000Y-70695000D01*
X245520000Y-70645000D01*
X245605000Y-70565000D01*
X245695000Y-70465000D01*
X245750000Y-70400000D01*
X245815000Y-70315000D01*
X245860000Y-70250000D01*
X245920000Y-70155000D01*
X245975000Y-70060000D01*
X246025000Y-69960000D01*
X246070000Y-69860000D01*
X246100000Y-69780000D01*
X246130000Y-69700000D01*
X246165000Y-69580000D01*
X246190000Y-69475000D01*
X246205000Y-69400000D01*
X247615000Y-69400000D01*
X247600000Y-69520000D01*
G37*
X114580000Y-120175000D02*
X114505000Y-120190000D01*
X114400000Y-120215000D01*
X114285000Y-120250000D01*
X114170000Y-120290000D01*
X114030000Y-120350000D01*
X113930000Y-120400000D01*
X113850000Y-120445000D01*
X113745000Y-120510000D01*
X113660000Y-120570000D01*
X113575000Y-120635000D01*
X113515000Y-120685000D01*
X113460000Y-120735000D01*
X113375000Y-120815000D01*
X113285000Y-120915000D01*
X113230000Y-120980000D01*
X113165000Y-121065000D01*
X113120000Y-121130000D01*
X113060000Y-121225000D01*
X113005000Y-121320000D01*
X112955000Y-121420000D01*
X112910000Y-121520000D01*
X112880000Y-121600000D01*
X112850000Y-121680000D01*
X112815000Y-121800000D01*
X112790000Y-121905000D01*
X112775000Y-121980000D01*
X111365000Y-121980000D01*
X111380000Y-121860000D01*
X111405000Y-121715000D01*
X111430000Y-121585000D01*
X111475000Y-121410000D01*
X111525000Y-121245000D01*
X111580000Y-121090000D01*
X111640000Y-120940000D01*
X111710000Y-120790000D01*
X111800000Y-120615000D01*
X111895000Y-120455000D01*
X111985000Y-120320000D01*
X112045000Y-120235000D01*
X112105000Y-120155000D01*
X112160000Y-120085000D01*
X112220000Y-120015000D01*
X112290000Y-119935000D01*
X112335000Y-119885000D01*
X112380000Y-119840000D01*
X112465000Y-119755000D01*
X112540000Y-119685000D01*
X112615000Y-119620000D01*
X112685000Y-119560000D01*
X112750000Y-119510000D01*
X112815000Y-119460000D01*
X112905000Y-119395000D01*
X112995000Y-119335000D01*
X113095000Y-119270000D01*
X113210000Y-119205000D01*
X113330000Y-119140000D01*
X113430000Y-119090000D01*
X113520000Y-119050000D01*
X113615000Y-119010000D01*
X113680000Y-118985000D01*
X113775000Y-118950000D01*
X113845000Y-118925000D01*
X113940000Y-118895000D01*
X114050000Y-118865000D01*
X114150000Y-118840000D01*
X114265000Y-118815000D01*
X114375000Y-118795000D01*
X114475000Y-118780000D01*
X114550000Y-118770000D01*
X114580000Y-118765000D01*
X114580000Y-120175000D01*
G36*
X114580000Y-120175000D02*
G01*
X114505000Y-120190000D01*
X114400000Y-120215000D01*
X114285000Y-120250000D01*
X114170000Y-120290000D01*
X114030000Y-120350000D01*
X113930000Y-120400000D01*
X113850000Y-120445000D01*
X113745000Y-120510000D01*
X113660000Y-120570000D01*
X113575000Y-120635000D01*
X113515000Y-120685000D01*
X113460000Y-120735000D01*
X113375000Y-120815000D01*
X113285000Y-120915000D01*
X113230000Y-120980000D01*
X113165000Y-121065000D01*
X113120000Y-121130000D01*
X113060000Y-121225000D01*
X113005000Y-121320000D01*
X112955000Y-121420000D01*
X112910000Y-121520000D01*
X112880000Y-121600000D01*
X112850000Y-121680000D01*
X112815000Y-121800000D01*
X112790000Y-121905000D01*
X112775000Y-121980000D01*
X111365000Y-121980000D01*
X111380000Y-121860000D01*
X111405000Y-121715000D01*
X111430000Y-121585000D01*
X111475000Y-121410000D01*
X111525000Y-121245000D01*
X111580000Y-121090000D01*
X111640000Y-120940000D01*
X111710000Y-120790000D01*
X111800000Y-120615000D01*
X111895000Y-120455000D01*
X111985000Y-120320000D01*
X112045000Y-120235000D01*
X112105000Y-120155000D01*
X112160000Y-120085000D01*
X112220000Y-120015000D01*
X112290000Y-119935000D01*
X112335000Y-119885000D01*
X112380000Y-119840000D01*
X112465000Y-119755000D01*
X112540000Y-119685000D01*
X112615000Y-119620000D01*
X112685000Y-119560000D01*
X112750000Y-119510000D01*
X112815000Y-119460000D01*
X112905000Y-119395000D01*
X112995000Y-119335000D01*
X113095000Y-119270000D01*
X113210000Y-119205000D01*
X113330000Y-119140000D01*
X113430000Y-119090000D01*
X113520000Y-119050000D01*
X113615000Y-119010000D01*
X113680000Y-118985000D01*
X113775000Y-118950000D01*
X113845000Y-118925000D01*
X113940000Y-118895000D01*
X114050000Y-118865000D01*
X114150000Y-118840000D01*
X114265000Y-118815000D01*
X114375000Y-118795000D01*
X114475000Y-118780000D01*
X114550000Y-118770000D01*
X114580000Y-118765000D01*
X114580000Y-120175000D01*
G37*
X112790000Y-122855000D02*
X112815000Y-122960000D01*
X112850000Y-123075000D01*
X112890000Y-123190000D01*
X112950000Y-123330000D01*
X113000000Y-123430000D01*
X113045000Y-123510000D01*
X113110000Y-123615000D01*
X113170000Y-123700000D01*
X113235000Y-123785000D01*
X113285000Y-123845000D01*
X113335000Y-123900000D01*
X113415000Y-123985000D01*
X113515000Y-124075000D01*
X113580000Y-124130000D01*
X113665000Y-124195000D01*
X113730000Y-124240000D01*
X113825000Y-124300000D01*
X113920000Y-124355000D01*
X114020000Y-124405000D01*
X114120000Y-124450000D01*
X114200000Y-124480000D01*
X114280000Y-124510000D01*
X114400000Y-124545000D01*
X114505000Y-124570000D01*
X114580000Y-124585000D01*
X114580000Y-125995000D01*
X114460000Y-125980000D01*
X114315000Y-125955000D01*
X114185000Y-125930000D01*
X114010000Y-125885000D01*
X113845000Y-125835000D01*
X113690000Y-125780000D01*
X113540000Y-125720000D01*
X113390000Y-125650000D01*
X113215000Y-125560000D01*
X113055000Y-125465000D01*
X112920000Y-125375000D01*
X112835000Y-125315000D01*
X112755000Y-125255000D01*
X112685000Y-125200000D01*
X112615000Y-125140000D01*
X112535000Y-125070000D01*
X112485000Y-125025000D01*
X112440000Y-124980000D01*
X112355000Y-124895000D01*
X112285000Y-124820000D01*
X112220000Y-124745000D01*
X112160000Y-124675000D01*
X112110000Y-124610000D01*
X112060000Y-124545000D01*
X111995000Y-124455000D01*
X111935000Y-124365000D01*
X111870000Y-124265000D01*
X111805000Y-124150000D01*
X111740000Y-124030000D01*
X111690000Y-123930000D01*
X111650000Y-123840000D01*
X111610000Y-123745000D01*
X111585000Y-123680000D01*
X111550000Y-123585000D01*
X111525000Y-123515000D01*
X111495000Y-123420000D01*
X111465000Y-123310000D01*
X111440000Y-123210000D01*
X111415000Y-123095000D01*
X111395000Y-122985000D01*
X111380000Y-122885000D01*
X111370000Y-122810000D01*
X111365000Y-122780000D01*
X112775000Y-122780000D01*
X112790000Y-122855000D01*
G36*
X112790000Y-122855000D02*
G01*
X112815000Y-122960000D01*
X112850000Y-123075000D01*
X112890000Y-123190000D01*
X112950000Y-123330000D01*
X113000000Y-123430000D01*
X113045000Y-123510000D01*
X113110000Y-123615000D01*
X113170000Y-123700000D01*
X113235000Y-123785000D01*
X113285000Y-123845000D01*
X113335000Y-123900000D01*
X113415000Y-123985000D01*
X113515000Y-124075000D01*
X113580000Y-124130000D01*
X113665000Y-124195000D01*
X113730000Y-124240000D01*
X113825000Y-124300000D01*
X113920000Y-124355000D01*
X114020000Y-124405000D01*
X114120000Y-124450000D01*
X114200000Y-124480000D01*
X114280000Y-124510000D01*
X114400000Y-124545000D01*
X114505000Y-124570000D01*
X114580000Y-124585000D01*
X114580000Y-125995000D01*
X114460000Y-125980000D01*
X114315000Y-125955000D01*
X114185000Y-125930000D01*
X114010000Y-125885000D01*
X113845000Y-125835000D01*
X113690000Y-125780000D01*
X113540000Y-125720000D01*
X113390000Y-125650000D01*
X113215000Y-125560000D01*
X113055000Y-125465000D01*
X112920000Y-125375000D01*
X112835000Y-125315000D01*
X112755000Y-125255000D01*
X112685000Y-125200000D01*
X112615000Y-125140000D01*
X112535000Y-125070000D01*
X112485000Y-125025000D01*
X112440000Y-124980000D01*
X112355000Y-124895000D01*
X112285000Y-124820000D01*
X112220000Y-124745000D01*
X112160000Y-124675000D01*
X112110000Y-124610000D01*
X112060000Y-124545000D01*
X111995000Y-124455000D01*
X111935000Y-124365000D01*
X111870000Y-124265000D01*
X111805000Y-124150000D01*
X111740000Y-124030000D01*
X111690000Y-123930000D01*
X111650000Y-123840000D01*
X111610000Y-123745000D01*
X111585000Y-123680000D01*
X111550000Y-123585000D01*
X111525000Y-123515000D01*
X111495000Y-123420000D01*
X111465000Y-123310000D01*
X111440000Y-123210000D01*
X111415000Y-123095000D01*
X111395000Y-122985000D01*
X111380000Y-122885000D01*
X111370000Y-122810000D01*
X111365000Y-122780000D01*
X112775000Y-122780000D01*
X112790000Y-122855000D01*
G37*
X115500000Y-118780000D02*
X115645000Y-118805000D01*
X115775000Y-118830000D01*
X115950000Y-118875000D01*
X116115000Y-118925000D01*
X116270000Y-118980000D01*
X116420000Y-119040000D01*
X116570000Y-119110000D01*
X116745000Y-119200000D01*
X116905000Y-119295000D01*
X117040000Y-119385000D01*
X117125000Y-119445000D01*
X117205000Y-119505000D01*
X117275000Y-119560000D01*
X117345000Y-119620000D01*
X117425000Y-119690000D01*
X117475000Y-119735000D01*
X117520000Y-119780000D01*
X117605000Y-119865000D01*
X117675000Y-119940000D01*
X117740000Y-120015000D01*
X117800000Y-120085000D01*
X117850000Y-120150000D01*
X117900000Y-120215000D01*
X117965000Y-120305000D01*
X118025000Y-120395000D01*
X118090000Y-120495000D01*
X118155000Y-120610000D01*
X118220000Y-120730000D01*
X118270000Y-120830000D01*
X118310000Y-120920000D01*
X118350000Y-121015000D01*
X118375000Y-121080000D01*
X118410000Y-121175000D01*
X118435000Y-121245000D01*
X118465000Y-121340000D01*
X118495000Y-121450000D01*
X118520000Y-121550000D01*
X118545000Y-121665000D01*
X118565000Y-121775000D01*
X118580000Y-121875000D01*
X118590000Y-121950000D01*
X118595000Y-121980000D01*
X117185000Y-121980000D01*
X117170000Y-121905000D01*
X117145000Y-121800000D01*
X117110000Y-121685000D01*
X117070000Y-121570000D01*
X117010000Y-121430000D01*
X116960000Y-121330000D01*
X116915000Y-121250000D01*
X116850000Y-121145000D01*
X116790000Y-121060000D01*
X116725000Y-120975000D01*
X116675000Y-120915000D01*
X116625000Y-120860000D01*
X116545000Y-120775000D01*
X116445000Y-120685000D01*
X116380000Y-120630000D01*
X116295000Y-120565000D01*
X116230000Y-120520000D01*
X116135000Y-120460000D01*
X116040000Y-120405000D01*
X115940000Y-120355000D01*
X115840000Y-120310000D01*
X115760000Y-120280000D01*
X115680000Y-120250000D01*
X115560000Y-120215000D01*
X115455000Y-120190000D01*
X115380000Y-120175000D01*
X115380000Y-118765000D01*
X115500000Y-118780000D01*
G36*
X115500000Y-118780000D02*
G01*
X115645000Y-118805000D01*
X115775000Y-118830000D01*
X115950000Y-118875000D01*
X116115000Y-118925000D01*
X116270000Y-118980000D01*
X116420000Y-119040000D01*
X116570000Y-119110000D01*
X116745000Y-119200000D01*
X116905000Y-119295000D01*
X117040000Y-119385000D01*
X117125000Y-119445000D01*
X117205000Y-119505000D01*
X117275000Y-119560000D01*
X117345000Y-119620000D01*
X117425000Y-119690000D01*
X117475000Y-119735000D01*
X117520000Y-119780000D01*
X117605000Y-119865000D01*
X117675000Y-119940000D01*
X117740000Y-120015000D01*
X117800000Y-120085000D01*
X117850000Y-120150000D01*
X117900000Y-120215000D01*
X117965000Y-120305000D01*
X118025000Y-120395000D01*
X118090000Y-120495000D01*
X118155000Y-120610000D01*
X118220000Y-120730000D01*
X118270000Y-120830000D01*
X118310000Y-120920000D01*
X118350000Y-121015000D01*
X118375000Y-121080000D01*
X118410000Y-121175000D01*
X118435000Y-121245000D01*
X118465000Y-121340000D01*
X118495000Y-121450000D01*
X118520000Y-121550000D01*
X118545000Y-121665000D01*
X118565000Y-121775000D01*
X118580000Y-121875000D01*
X118590000Y-121950000D01*
X118595000Y-121980000D01*
X117185000Y-121980000D01*
X117170000Y-121905000D01*
X117145000Y-121800000D01*
X117110000Y-121685000D01*
X117070000Y-121570000D01*
X117010000Y-121430000D01*
X116960000Y-121330000D01*
X116915000Y-121250000D01*
X116850000Y-121145000D01*
X116790000Y-121060000D01*
X116725000Y-120975000D01*
X116675000Y-120915000D01*
X116625000Y-120860000D01*
X116545000Y-120775000D01*
X116445000Y-120685000D01*
X116380000Y-120630000D01*
X116295000Y-120565000D01*
X116230000Y-120520000D01*
X116135000Y-120460000D01*
X116040000Y-120405000D01*
X115940000Y-120355000D01*
X115840000Y-120310000D01*
X115760000Y-120280000D01*
X115680000Y-120250000D01*
X115560000Y-120215000D01*
X115455000Y-120190000D01*
X115380000Y-120175000D01*
X115380000Y-118765000D01*
X115500000Y-118780000D01*
G37*
X118580000Y-122900000D02*
X118555000Y-123045000D01*
X118530000Y-123175000D01*
X118485000Y-123350000D01*
X118435000Y-123515000D01*
X118380000Y-123670000D01*
X118320000Y-123820000D01*
X118250000Y-123970000D01*
X118160000Y-124145000D01*
X118065000Y-124305000D01*
X117975000Y-124440000D01*
X117915000Y-124525000D01*
X117855000Y-124605000D01*
X117800000Y-124675000D01*
X117740000Y-124745000D01*
X117670000Y-124825000D01*
X117625000Y-124875000D01*
X117580000Y-124920000D01*
X117495000Y-125005000D01*
X117420000Y-125075000D01*
X117345000Y-125140000D01*
X117275000Y-125200000D01*
X117210000Y-125250000D01*
X117145000Y-125300000D01*
X117055000Y-125365000D01*
X116965000Y-125425000D01*
X116865000Y-125490000D01*
X116750000Y-125555000D01*
X116630000Y-125620000D01*
X116530000Y-125670000D01*
X116440000Y-125710000D01*
X116345000Y-125750000D01*
X116280000Y-125775000D01*
X116185000Y-125810000D01*
X116115000Y-125835000D01*
X116020000Y-125865000D01*
X115910000Y-125895000D01*
X115810000Y-125920000D01*
X115695000Y-125945000D01*
X115585000Y-125965000D01*
X115485000Y-125980000D01*
X115410000Y-125990000D01*
X115380000Y-125995000D01*
X115380000Y-124585000D01*
X115455000Y-124570000D01*
X115560000Y-124545000D01*
X115675000Y-124510000D01*
X115790000Y-124470000D01*
X115930000Y-124410000D01*
X116030000Y-124360000D01*
X116110000Y-124315000D01*
X116215000Y-124250000D01*
X116300000Y-124190000D01*
X116385000Y-124125000D01*
X116445000Y-124075000D01*
X116500000Y-124025000D01*
X116585000Y-123945000D01*
X116675000Y-123845000D01*
X116730000Y-123780000D01*
X116795000Y-123695000D01*
X116840000Y-123630000D01*
X116900000Y-123535000D01*
X116955000Y-123440000D01*
X117005000Y-123340000D01*
X117050000Y-123240000D01*
X117080000Y-123160000D01*
X117110000Y-123080000D01*
X117145000Y-122960000D01*
X117170000Y-122855000D01*
X117185000Y-122780000D01*
X118595000Y-122780000D01*
X118580000Y-122900000D01*
G36*
X118580000Y-122900000D02*
G01*
X118555000Y-123045000D01*
X118530000Y-123175000D01*
X118485000Y-123350000D01*
X118435000Y-123515000D01*
X118380000Y-123670000D01*
X118320000Y-123820000D01*
X118250000Y-123970000D01*
X118160000Y-124145000D01*
X118065000Y-124305000D01*
X117975000Y-124440000D01*
X117915000Y-124525000D01*
X117855000Y-124605000D01*
X117800000Y-124675000D01*
X117740000Y-124745000D01*
X117670000Y-124825000D01*
X117625000Y-124875000D01*
X117580000Y-124920000D01*
X117495000Y-125005000D01*
X117420000Y-125075000D01*
X117345000Y-125140000D01*
X117275000Y-125200000D01*
X117210000Y-125250000D01*
X117145000Y-125300000D01*
X117055000Y-125365000D01*
X116965000Y-125425000D01*
X116865000Y-125490000D01*
X116750000Y-125555000D01*
X116630000Y-125620000D01*
X116530000Y-125670000D01*
X116440000Y-125710000D01*
X116345000Y-125750000D01*
X116280000Y-125775000D01*
X116185000Y-125810000D01*
X116115000Y-125835000D01*
X116020000Y-125865000D01*
X115910000Y-125895000D01*
X115810000Y-125920000D01*
X115695000Y-125945000D01*
X115585000Y-125965000D01*
X115485000Y-125980000D01*
X115410000Y-125990000D01*
X115380000Y-125995000D01*
X115380000Y-124585000D01*
X115455000Y-124570000D01*
X115560000Y-124545000D01*
X115675000Y-124510000D01*
X115790000Y-124470000D01*
X115930000Y-124410000D01*
X116030000Y-124360000D01*
X116110000Y-124315000D01*
X116215000Y-124250000D01*
X116300000Y-124190000D01*
X116385000Y-124125000D01*
X116445000Y-124075000D01*
X116500000Y-124025000D01*
X116585000Y-123945000D01*
X116675000Y-123845000D01*
X116730000Y-123780000D01*
X116795000Y-123695000D01*
X116840000Y-123630000D01*
X116900000Y-123535000D01*
X116955000Y-123440000D01*
X117005000Y-123340000D01*
X117050000Y-123240000D01*
X117080000Y-123160000D01*
X117110000Y-123080000D01*
X117145000Y-122960000D01*
X117170000Y-122855000D01*
X117185000Y-122780000D01*
X118595000Y-122780000D01*
X118580000Y-122900000D01*
G37*
%TD*%
M02*
