%TF.GenerationSoftware,KiCad,Pcbnew,9.0.7*%
%TF.CreationDate,2026-04-25T15:01:29-04:00*%
%TF.ProjectId,capybara_habitat,63617079-6261-4726-915f-686162697461,A*%
%TF.SameCoordinates,Original*%
%TF.FileFunction,Copper,L1,Top*%
%TF.FilePolarity,Positive*%
%FSLAX46Y46*%
G04 Gerber Fmt 4.6, Leading zero omitted, Abs format (unit mm)*
G04 Created by KiCad (PCBNEW 9.0.7) date 2026-04-25 15:01:29*
%MOMM*%
%LPD*%
G01*
G04 APERTURE LIST*
G04 Aperture macros list*
%AMRoundRect*
0 Rectangle with rounded corners*
0 $1 Rounding radius*
0 $2 $3 $4 $5 $6 $7 $8 $9 X,Y pos of 4 corners*
0 Add a 4 corners polygon primitive as box body*
4,1,4,$2,$3,$4,$5,$6,$7,$8,$9,$2,$3,0*
0 Add four circle primitives for the rounded corners*
1,1,$1+$1,$2,$3*
1,1,$1+$1,$4,$5*
1,1,$1+$1,$6,$7*
1,1,$1+$1,$8,$9*
0 Add four rect primitives between the rounded corners*
20,1,$1+$1,$2,$3,$4,$5,0*
20,1,$1+$1,$4,$5,$6,$7,0*
20,1,$1+$1,$6,$7,$8,$9,0*
20,1,$1+$1,$8,$9,$2,$3,0*%
G04 Aperture macros list end*
%TA.AperFunction,ComponentPad*%
%ADD10C,1.600000*%
%TD*%
%TA.AperFunction,SMDPad,CuDef*%
%ADD11RoundRect,0.155000X-0.212500X-0.155000X0.212500X-0.155000X0.212500X0.155000X-0.212500X0.155000X0*%
%TD*%
%TA.AperFunction,SMDPad,CuDef*%
%ADD12RoundRect,0.150000X-0.825000X-0.150000X0.825000X-0.150000X0.825000X0.150000X-0.825000X0.150000X0*%
%TD*%
%TA.AperFunction,SMDPad,CuDef*%
%ADD13RoundRect,0.237500X-0.300000X-0.237500X0.300000X-0.237500X0.300000X0.237500X-0.300000X0.237500X0*%
%TD*%
%TA.AperFunction,SMDPad,CuDef*%
%ADD14RoundRect,0.237500X0.237500X-0.300000X0.237500X0.300000X-0.237500X0.300000X-0.237500X-0.300000X0*%
%TD*%
%TA.AperFunction,ComponentPad*%
%ADD15R,1.700000X1.700000*%
%TD*%
%TA.AperFunction,ComponentPad*%
%ADD16C,1.700000*%
%TD*%
%TA.AperFunction,SMDPad,CuDef*%
%ADD17R,1.752600X1.143000*%
%TD*%
%TA.AperFunction,ComponentPad*%
%ADD18R,2.000000X2.000000*%
%TD*%
%TA.AperFunction,SMDPad,CuDef*%
%ADD19RoundRect,0.150000X0.512500X0.150000X-0.512500X0.150000X-0.512500X-0.150000X0.512500X-0.150000X0*%
%TD*%
%TA.AperFunction,SMDPad,CuDef*%
%ADD20RoundRect,0.250000X0.650000X-0.412500X0.650000X0.412500X-0.650000X0.412500X-0.650000X-0.412500X0*%
%TD*%
%TA.AperFunction,SMDPad,CuDef*%
%ADD21RoundRect,0.150000X-0.150000X0.512500X-0.150000X-0.512500X0.150000X-0.512500X0.150000X0.512500X0*%
%TD*%
%TA.AperFunction,SMDPad,CuDef*%
%ADD22R,1.130000X0.890000*%
%TD*%
%TA.AperFunction,SMDPad,CuDef*%
%ADD23R,1.143000X1.752600*%
%TD*%
%TA.AperFunction,SMDPad,CuDef*%
%ADD24RoundRect,0.237500X-0.237500X0.300000X-0.237500X-0.300000X0.237500X-0.300000X0.237500X0.300000X0*%
%TD*%
%TA.AperFunction,SMDPad,CuDef*%
%ADD25RoundRect,0.250000X0.450000X-0.350000X0.450000X0.350000X-0.450000X0.350000X-0.450000X-0.350000X0*%
%TD*%
%TA.AperFunction,SMDPad,CuDef*%
%ADD26RoundRect,0.237500X0.250000X0.237500X-0.250000X0.237500X-0.250000X-0.237500X0.250000X-0.237500X0*%
%TD*%
%TA.AperFunction,ComponentPad*%
%ADD27R,1.300000X1.300000*%
%TD*%
%TA.AperFunction,ComponentPad*%
%ADD28C,1.300000*%
%TD*%
%TA.AperFunction,SMDPad,CuDef*%
%ADD29RoundRect,0.237500X0.237500X-0.250000X0.237500X0.250000X-0.237500X0.250000X-0.237500X-0.250000X0*%
%TD*%
%TA.AperFunction,ComponentPad*%
%ADD30RoundRect,0.250000X-0.750000X0.750000X-0.750000X-0.750000X0.750000X-0.750000X0.750000X0.750000X0*%
%TD*%
%TA.AperFunction,ComponentPad*%
%ADD31C,2.000000*%
%TD*%
%TA.AperFunction,SMDPad,CuDef*%
%ADD32R,1.536700X0.279400*%
%TD*%
%TA.AperFunction,SMDPad,CuDef*%
%ADD33R,1.752600X2.946400*%
%TD*%
%TA.AperFunction,WasherPad*%
%ADD34C,5.300000*%
%TD*%
%TA.AperFunction,ComponentPad*%
%ADD35R,1.778000X1.778000*%
%TD*%
%TA.AperFunction,ComponentPad*%
%ADD36C,1.778000*%
%TD*%
%TA.AperFunction,ComponentPad*%
%ADD37C,2.184400*%
%TD*%
%TA.AperFunction,SMDPad,CuDef*%
%ADD38RoundRect,0.250000X-0.337500X-0.475000X0.337500X-0.475000X0.337500X0.475000X-0.337500X0.475000X0*%
%TD*%
%TA.AperFunction,SMDPad,CuDef*%
%ADD39RoundRect,0.155000X-0.155000X0.212500X-0.155000X-0.212500X0.155000X-0.212500X0.155000X0.212500X0*%
%TD*%
%TA.AperFunction,SMDPad,CuDef*%
%ADD40RoundRect,0.237500X-0.237500X0.250000X-0.237500X-0.250000X0.237500X-0.250000X0.237500X0.250000X0*%
%TD*%
%TA.AperFunction,SMDPad,CuDef*%
%ADD41RoundRect,0.155000X0.155000X-0.212500X0.155000X0.212500X-0.155000X0.212500X-0.155000X-0.212500X0*%
%TD*%
%TA.AperFunction,SMDPad,CuDef*%
%ADD42RoundRect,0.250000X0.475000X-0.337500X0.475000X0.337500X-0.475000X0.337500X-0.475000X-0.337500X0*%
%TD*%
%TA.AperFunction,SMDPad,CuDef*%
%ADD43RoundRect,0.237500X-0.250000X-0.237500X0.250000X-0.237500X0.250000X0.237500X-0.250000X0.237500X0*%
%TD*%
%TA.AperFunction,SMDPad,CuDef*%
%ADD44R,0.800000X0.800000*%
%TD*%
%TA.AperFunction,SMDPad,CuDef*%
%ADD45RoundRect,0.155000X0.212500X0.155000X-0.212500X0.155000X-0.212500X-0.155000X0.212500X-0.155000X0*%
%TD*%
%TA.AperFunction,SMDPad,CuDef*%
%ADD46R,1.799999X4.600001*%
%TD*%
%TA.AperFunction,SMDPad,CuDef*%
%ADD47RoundRect,0.250000X-0.650000X0.412500X-0.650000X-0.412500X0.650000X-0.412500X0.650000X0.412500X0*%
%TD*%
%TA.AperFunction,ComponentPad*%
%ADD48RoundRect,0.742500X-0.082500X0.582500X-0.082500X-0.582500X0.082500X-0.582500X0.082500X0.582500X0*%
%TD*%
%TA.AperFunction,ComponentPad*%
%ADD49RoundRect,0.742500X-0.082500X0.882500X-0.082500X-0.882500X0.082500X-0.882500X0.082500X0.882500X0*%
%TD*%
%TA.AperFunction,ComponentPad*%
%ADD50RoundRect,0.742500X-0.082500X0.732500X-0.082500X-0.732500X0.082500X-0.732500X0.082500X0.732500X0*%
%TD*%
%TA.AperFunction,SMDPad,CuDef*%
%ADD51RoundRect,0.250000X-1.100000X0.412500X-1.100000X-0.412500X1.100000X-0.412500X1.100000X0.412500X0*%
%TD*%
%TA.AperFunction,SMDPad,CuDef*%
%ADD52R,1.480000X0.410000*%
%TD*%
%TA.AperFunction,SMDPad,CuDef*%
%ADD53R,2.940000X3.580000*%
%TD*%
%TA.AperFunction,SMDPad,CuDef*%
%ADD54RoundRect,0.150000X-0.512500X-0.150000X0.512500X-0.150000X0.512500X0.150000X-0.512500X0.150000X0*%
%TD*%
%TA.AperFunction,SMDPad,CuDef*%
%ADD55R,4.600001X1.799999*%
%TD*%
%TA.AperFunction,ViaPad*%
%ADD56C,0.600000*%
%TD*%
%TA.AperFunction,Conductor*%
%ADD57C,0.200000*%
%TD*%
%TA.AperFunction,Conductor*%
%ADD58C,0.800000*%
%TD*%
%TA.AperFunction,Conductor*%
%ADD59C,0.500000*%
%TD*%
%TA.AperFunction,Conductor*%
%ADD60C,0.400000*%
%TD*%
%TA.AperFunction,Conductor*%
%ADD61C,0.300000*%
%TD*%
%TA.AperFunction,Conductor*%
%ADD62C,0.600000*%
%TD*%
G04 APERTURE END LIST*
D10*
%TO.P,R13,1*%
%TO.N,GND*%
X181300000Y-89800000D03*
%TO.P,R13,2*%
%TO.N,Net-(U7-EN{slash}UVLO)*%
X171140000Y-89800000D03*
%TD*%
D11*
%TO.P,C6,1*%
%TO.N,Net-(U3-CT)*%
X168232500Y-79400000D03*
%TO.P,C6,2*%
%TO.N,GND*%
X169367500Y-79400000D03*
%TD*%
D12*
%TO.P,U6,1,+OUT_L*%
%TO.N,Net-(U6-+OUT_L)*%
X170655000Y-105420000D03*
%TO.P,U6,2,PGNDL*%
%TO.N,GND*%
X170655000Y-106690000D03*
%TO.P,U6,3,-OUT_L*%
%TO.N,Net-(U6--OUT_L)*%
X170655000Y-107960000D03*
%TO.P,U6,4,PVDDL*%
%TO.N,Net-(U6-PVDDL)*%
X170655000Y-109230000D03*
%TO.P,U6,5,~{MUTE}*%
%TO.N,5.0v*%
X170655000Y-110500000D03*
%TO.P,U6,6,VDD*%
%TO.N,Net-(U6-PVDDL)*%
X170655000Y-111770000D03*
%TO.P,U6,7,INL*%
%TO.N,aud_in_left*%
X170655000Y-113040000D03*
%TO.P,U6,8,VREF*%
%TO.N,Net-(U6-VREF)*%
X170655000Y-114310000D03*
%TO.P,U6,9,MODE*%
%TO.N,5.0v*%
X175605000Y-114310000D03*
%TO.P,U6,10,INR*%
%TO.N,aud_in_right*%
X175605000Y-113040000D03*
%TO.P,U6,11,GND*%
%TO.N,GND*%
X175605000Y-111770000D03*
%TO.P,U6,12,~{SHND}*%
%TO.N,aud_control*%
X175605000Y-110500000D03*
%TO.P,U6,13,PVDDR*%
%TO.N,Net-(U6-PVDDL)*%
X175605000Y-109230000D03*
%TO.P,U6,14,-OUT_R*%
%TO.N,Net-(U6--OUT_R)*%
X175605000Y-107960000D03*
%TO.P,U6,15,PGNDR*%
%TO.N,GND*%
X175605000Y-106690000D03*
%TO.P,U6,16,+OUT_R*%
%TO.N,Net-(U6-+OUT_R)*%
X175605000Y-105420000D03*
%TD*%
D13*
%TO.P,C36,1*%
%TO.N,GND*%
X213255000Y-86300000D03*
%TO.P,C36,2*%
%TO.N,Net-(U9-LDO)*%
X214980000Y-86300000D03*
%TD*%
D14*
%TO.P,C19,1*%
%TO.N,aud_sig_out_L+*%
X176200000Y-103462500D03*
%TO.P,C19,2*%
%TO.N,GND*%
X176200000Y-101737500D03*
%TD*%
D15*
%TO.P,J15,1,3V3*%
%TO.N,Net-(J15-3V3-Pad1)*%
X129070000Y-78020000D03*
D16*
%TO.P,J15,2,5V*%
%TO.N,5.0v*%
X126530000Y-78020000D03*
%TO.P,J15,3,SDA_I2C1/GPIO02*%
%TO.N,SDA*%
X129070000Y-80560000D03*
%TO.P,J15,4,5V*%
%TO.N,5.0v*%
X126530000Y-80560000D03*
%TO.P,J15,5,SCL_I2C1/GPIO03*%
%TO.N,SCL*%
X129070000Y-83100000D03*
%TO.P,J15,6,GND*%
%TO.N,GND*%
X126530000Y-83100000D03*
%TO.P,J15,7,GPCLK0/GPIO04*%
%TO.N,Net-(J15-GPCLK0{slash}GPIO04)*%
X129070000Y-85640000D03*
%TO.P,J15,8,GPIO14/UART_TXD*%
%TO.N,Net-(J15-GPIO14{slash}UART_TXD)*%
X126530000Y-85640000D03*
%TO.P,J15,9,GND*%
%TO.N,GND*%
X129070000Y-88180000D03*
%TO.P,J15,10,GPIO15/UART_RXD*%
%TO.N,Net-(J15-GPIO15{slash}UART_RXD)*%
X126530000Y-88180000D03*
%TO.P,J15,11,GPIO17/SPI1_~{CE1}*%
%TO.N,Net-(J15-GPIO17{slash}SPI1_~{CE1})*%
X129070000Y-90720000D03*
%TO.P,J15,12,GPIO18/SPI1_~{CE0}/PCM_CLK/PWM0*%
%TO.N,Net-(J15-GPIO18{slash}SPI1_~{CE0}{slash}PCM_CLK{slash}PWM0)*%
X126530000Y-90720000D03*
%TO.P,J15,13,GPIO27/SDIO_DAT3*%
%TO.N,pi_spkrs*%
X129070000Y-93260000D03*
%TO.P,J15,14,GND*%
%TO.N,GND*%
X126530000Y-93260000D03*
%TO.P,J15,15,GPIO22/SDIO_CLK*%
%TO.N,Net-(J15-GPIO22{slash}SDIO_CLK)*%
X129070000Y-95800000D03*
%TO.P,J15,16,GPIO23/SDIO_CMD*%
%TO.N,Net-(J15-GPIO23{slash}SDIO_CMD)*%
X126530000Y-95800000D03*
%TO.P,J15,17,3V3*%
%TO.N,Net-(J15-3V3-Pad1)*%
X129070000Y-98340000D03*
%TO.P,J15,18,GPIO24/SDIO_DAT0*%
%TO.N,pi_2nd_disp*%
X126530000Y-98340000D03*
%TO.P,J15,19,MOSI_SPI0/GPIO10*%
%TO.N,Net-(J15-MOSI_SPI0{slash}GPIO10)*%
X129070000Y-100880000D03*
%TO.P,J15,20,GND*%
%TO.N,GND*%
X126530000Y-100880000D03*
%TO.P,J15,21,MISO_SPI0/GPIO09*%
%TO.N,Net-(J15-MISO_SPI0{slash}GPIO09)*%
X129070000Y-103420000D03*
%TO.P,J15,22,GPIO25/SDIO_DAT1*%
%TO.N,pi_leds*%
X126530000Y-103420000D03*
%TO.P,J15,23,SCLK_SPI0/GPIO11*%
%TO.N,Net-(J15-SCLK_SPI0{slash}GPIO11)*%
X129070000Y-105960000D03*
%TO.P,J15,24,~{CE0}_SPI0/GPIO08*%
%TO.N,Net-(J15-~{CE0}_SPI0{slash}GPIO08)*%
X126530000Y-105960000D03*
%TO.P,J15,25,GND*%
%TO.N,GND*%
X129070000Y-108500000D03*
%TO.P,J15,26,~{CE1}_SPI0/GPIO07*%
%TO.N,Net-(J15-~{CE1}_SPI0{slash}GPIO07)*%
X126530000Y-108500000D03*
%TO.P,J15,27,ID_SD_I2C0/GPIO00*%
%TO.N,Net-(J15-ID_SD_I2C0{slash}GPIO00)*%
X129070000Y-111040000D03*
%TO.P,J15,28,ID_SC_I2C0/GPIO01*%
%TO.N,Net-(J15-ID_SC_I2C0{slash}GPIO01)*%
X126530000Y-111040000D03*
%TO.P,J15,29,GPCLK1/GPIO05*%
%TO.N,Net-(J15-GPCLK1{slash}GPIO05)*%
X129070000Y-113580000D03*
%TO.P,J15,30,GND*%
%TO.N,GND*%
X126530000Y-113580000D03*
%TO.P,J15,31,GPCLK2/GPIO06*%
%TO.N,Net-(J15-GPCLK2{slash}GPIO06)*%
X129070000Y-116120000D03*
%TO.P,J15,32,GPIO12/PWM0*%
%TO.N,Net-(J15-GPIO12{slash}PWM0)*%
X126530000Y-116120000D03*
%TO.P,J15,33,GPIO13/PWM1*%
%TO.N,Net-(J15-GPIO13{slash}PWM1)*%
X129070000Y-118660000D03*
%TO.P,J15,34,GND*%
%TO.N,GND*%
X126530000Y-118660000D03*
%TO.P,J15,35,GPIO19/SPI1_MISO/PCM_FS*%
%TO.N,Net-(J15-GPIO19{slash}SPI1_MISO{slash}PCM_FS)*%
X129070000Y-121200000D03*
%TO.P,J15,36,GPIO16/SPI1_~{CE2}*%
%TO.N,Net-(J15-GPIO16{slash}SPI1_~{CE2})*%
X126530000Y-121200000D03*
%TO.P,J15,37,GPIO26/SDIO_DAT2*%
%TO.N,pi_1st_disp*%
X129070000Y-123740000D03*
%TO.P,J15,38,GPIO20/SPI1_MOSI/PCM_DIN/PWM1*%
%TO.N,Net-(J15-GPIO20{slash}SPI1_MOSI{slash}PCM_DIN{slash}PWM1)*%
X126530000Y-123740000D03*
%TO.P,J15,39,GND*%
%TO.N,GND*%
X129070000Y-126280000D03*
%TO.P,J15,40,GPIO21/SPI1_SCLK/PCM_DOUT*%
%TO.N,Net-(J15-GPIO21{slash}SPI1_SCLK{slash}PCM_DOUT)*%
X126530000Y-126280000D03*
%TD*%
D17*
%TO.P,L4,1,1*%
%TO.N,aud_sig_out_R-*%
X180290000Y-103749600D03*
%TO.P,L4,2,2*%
%TO.N,Net-(U6--OUT_R)*%
X180290000Y-107610400D03*
%TD*%
D18*
%TO.P,TP1,1,1*%
%TO.N,5.0v*%
X204250000Y-105500000D03*
%TD*%
D19*
%TO.P,U2,1,VIN*%
%TO.N,12.0v*%
X197497500Y-74950000D03*
%TO.P,U2,2,GND*%
%TO.N,GND*%
X197497500Y-74000000D03*
%TO.P,U2,3,EN/UVLO*%
%TO.N,Net-(U2-EN{slash}UVLO)*%
X197497500Y-73050000D03*
%TO.P,U2,4,CT*%
%TO.N,Net-(U2-CT)*%
X195222500Y-73050000D03*
%TO.P,U2,5,QOD*%
%TO.N,Net-(U2-QOD)*%
X195222500Y-74000000D03*
%TO.P,U2,6,VOUT*%
%TO.N,Net-(U2-VOUT)*%
X195222500Y-74950000D03*
%TD*%
D20*
%TO.P,C27,1*%
%TO.N,Net-(U9-BST1)*%
X218600000Y-73325000D03*
%TO.P,C27,2*%
%TO.N,Net-(U9-SW1)*%
X218600000Y-70200000D03*
%TD*%
D17*
%TO.P,L1,1,1*%
%TO.N,5.0v*%
X180280000Y-113150800D03*
%TO.P,L1,2,2*%
%TO.N,Net-(U6-PVDDL)*%
X180280000Y-109290000D03*
%TD*%
D10*
%TO.P,R17,1*%
%TO.N,Net-(U9-FB)*%
X206350000Y-88940000D03*
%TO.P,R17,2*%
%TO.N,12.0v*%
X196190000Y-88940000D03*
%TD*%
D21*
%TO.P,U7,1,VIN*%
%TO.N,5.0v*%
X184110000Y-92950000D03*
%TO.P,U7,2,GND*%
%TO.N,GND*%
X183160000Y-92950000D03*
%TO.P,U7,3,EN/UVLO*%
%TO.N,Net-(U7-EN{slash}UVLO)*%
X182210000Y-92950000D03*
%TO.P,U7,4,CT*%
%TO.N,Net-(U7-CT)*%
X182210000Y-95225000D03*
%TO.P,U7,5,QOD*%
%TO.N,Net-(U7-QOD)*%
X183160000Y-95225000D03*
%TO.P,U7,6,VOUT*%
%TO.N,aud_control*%
X184110000Y-95225000D03*
%TD*%
D22*
%TO.P,C12,1*%
%TO.N,GND*%
X167800000Y-109150000D03*
%TO.P,C12,2*%
%TO.N,Net-(U6-PVDDL)*%
X167800000Y-107410000D03*
%TD*%
D23*
%TO.P,L2,1,1*%
%TO.N,aud_sig_out_L+*%
X174530400Y-103300000D03*
%TO.P,L2,2,2*%
%TO.N,Net-(U6-+OUT_L)*%
X170669600Y-103300000D03*
%TD*%
D18*
%TO.P,TP2,1,1*%
%TO.N,16.8v*%
X238494970Y-74768099D03*
%TD*%
D24*
%TO.P,C17,1*%
%TO.N,GND*%
X174600000Y-99537500D03*
%TO.P,C17,2*%
%TO.N,aud_sig_out_L-*%
X174600000Y-101262500D03*
%TD*%
D25*
%TO.P,R15,1*%
%TO.N,GND*%
X203080000Y-86590000D03*
%TO.P,R15,2*%
%TO.N,Net-(U9-PROG)*%
X203080000Y-84590000D03*
%TD*%
D26*
%TO.P,R12,1*%
%TO.N,aud_control*%
X185092500Y-97050000D03*
%TO.P,R12,2*%
%TO.N,Net-(U7-QOD)*%
X183267500Y-97050000D03*
%TD*%
D27*
%TO.P,J2,1,1*%
%TO.N,Net-(U1-VOUT)*%
X181800000Y-82440000D03*
D28*
%TO.P,J2,2,2*%
%TO.N,GND*%
X179800000Y-82440000D03*
%TD*%
D29*
%TO.P,R2,1*%
%TO.N,Net-(U1-VOUT)*%
X188500000Y-84925000D03*
%TO.P,R2,2*%
%TO.N,Net-(U1-QOD)*%
X188500000Y-83100000D03*
%TD*%
D30*
%TO.P,C14,1*%
%TO.N,GND*%
X162590000Y-96072323D03*
D31*
%TO.P,C14,2*%
%TO.N,Net-(U6-PVDDL)*%
X162590000Y-101072323D03*
%TD*%
D32*
%TO.P,U8,1,SYNC*%
%TO.N,GND*%
X214317750Y-97351330D03*
%TO.P,U8,2,TR/SS*%
%TO.N,Net-(U8-TR{slash}SS)*%
X214317750Y-96850950D03*
%TO.P,U8,3,RT*%
%TO.N,Net-(U8-RT)*%
X214317750Y-96350570D03*
%TO.P,U8,4,EN/UV*%
%TO.N,16.8v*%
X214317750Y-95850190D03*
%TO.P,U8,5,VIN*%
X214317750Y-95349810D03*
%TO.P,U8,6,VIN*%
X214317750Y-94849430D03*
%TO.P,U8,7,NC*%
%TO.N,unconnected-(U8-NC-Pad7)*%
X214317750Y-94349050D03*
%TO.P,U8,8,GND*%
%TO.N,GND*%
X214317750Y-93848670D03*
%TO.P,U8,9,SW*%
%TO.N,Net-(C31-Pad2)*%
X209682250Y-93848670D03*
%TO.P,U8,10,SW*%
X209682250Y-94349050D03*
%TO.P,U8,11,SW*%
X209682250Y-94849430D03*
%TO.P,U8,12,BST*%
%TO.N,Net-(U8-BST)*%
X209682250Y-95349810D03*
%TO.P,U8,13,INTVCC*%
%TO.N,Net-(U8-INTVCC)*%
X209682250Y-95850190D03*
%TO.P,U8,14,BIAS*%
%TO.N,5.0v*%
X209682250Y-96350570D03*
%TO.P,U8,15,PG*%
%TO.N,unconnected-(U8-PG-Pad15)*%
X209682250Y-96850950D03*
%TO.P,U8,16,VOUT*%
%TO.N,5.0v*%
X209682250Y-97351330D03*
D33*
%TO.P,U8,EPAD,GND*%
%TO.N,GND*%
X212000000Y-95600000D03*
%TD*%
D34*
%TO.P,U5,*%
%TO.N,*%
X224140000Y-79470000D03*
X224140000Y-94710000D03*
X244460000Y-79470000D03*
X244460000Y-94710000D03*
D35*
%TO.P,U5,1,VCC*%
%TO.N,5.0v*%
X227950000Y-94710000D03*
D36*
%TO.P,U5,2,GND*%
%TO.N,GND*%
X230490000Y-94710000D03*
%TO.P,U5,3,SCL*%
%TO.N,SCL*%
X233030000Y-94710000D03*
%TO.P,U5,4,SDA*%
%TO.N,SDA*%
X235570000Y-94710000D03*
%TO.P,U5,5,VIN-*%
%TO.N,16.8v*%
X238110000Y-94710000D03*
%TO.P,U5,6,VIN+*%
%TO.N,unconnected-(U5-PadVIN+)*%
X240650000Y-94710000D03*
D37*
%TO.P,U5,VIN+,VIN+*%
%TO.N,unconnected-(U5-PadVIN+)_1*%
X236000000Y-80740000D03*
%TO.P,U5,VIN-,VIN-*%
%TO.N,16.8v*%
X232500000Y-80740000D03*
%TD*%
D38*
%TO.P,C10,1*%
%TO.N,5.0v*%
X227925000Y-91000000D03*
%TO.P,C10,2*%
%TO.N,GND*%
X230000000Y-91000000D03*
%TD*%
D39*
%TO.P,C26,1*%
%TO.N,Net-(U8-TR{slash}SS)*%
X216160000Y-96892500D03*
%TO.P,C26,2*%
%TO.N,GND*%
X216160000Y-98027500D03*
%TD*%
D40*
%TO.P,R11,1*%
%TO.N,5.0v*%
X130000000Y-72887500D03*
%TO.P,R11,2*%
%TO.N,SDA*%
X130000000Y-74712500D03*
%TD*%
D41*
%TO.P,C2,1*%
%TO.N,12.0v*%
X200000000Y-74067500D03*
%TO.P,C2,2*%
%TO.N,GND*%
X200000000Y-72932500D03*
%TD*%
D42*
%TO.P,C31,1*%
%TO.N,Net-(U8-BST)*%
X203250000Y-98697500D03*
%TO.P,C31,2*%
%TO.N,Net-(C31-Pad2)*%
X203250000Y-96622500D03*
%TD*%
D27*
%TO.P,J3,1,1*%
%TO.N,Net-(U2-VOUT)*%
X190125000Y-71925000D03*
D28*
%TO.P,J3,2,2*%
%TO.N,GND*%
X190125000Y-73925000D03*
%TD*%
D40*
%TO.P,R14,1*%
%TO.N,Net-(U8-RT)*%
X217400000Y-95067500D03*
%TO.P,R14,2*%
%TO.N,GND*%
X217400000Y-96892500D03*
%TD*%
D43*
%TO.P,R16,1*%
%TO.N,GND*%
X209765000Y-86600000D03*
%TO.P,R16,2*%
%TO.N,Net-(U9-FB)*%
X211590000Y-86600000D03*
%TD*%
D44*
%TO.P,D1,1,K*%
%TO.N,GND*%
X208500000Y-106300000D03*
%TO.P,D1,2,A*%
%TO.N,Net-(D1-A)*%
X208500000Y-104700000D03*
%TD*%
D14*
%TO.P,C22,1*%
%TO.N,GND*%
X218950000Y-96842500D03*
%TO.P,C22,2*%
%TO.N,16.8v*%
X218950000Y-95117500D03*
%TD*%
D27*
%TO.P,J7,1,1*%
%TO.N,aud_sig_out_L-*%
X172900000Y-95060000D03*
D28*
%TO.P,J7,2,2*%
%TO.N,aud_sig_out_L+*%
X174900000Y-95060000D03*
%TD*%
D44*
%TO.P,D2,1,K*%
%TO.N,GND*%
X242744970Y-75668099D03*
%TO.P,D2,2,A*%
%TO.N,Net-(D2-A)*%
X242744970Y-74068099D03*
%TD*%
D45*
%TO.P,C15,1*%
%TO.N,5.0v*%
X184167500Y-91420000D03*
%TO.P,C15,2*%
%TO.N,GND*%
X183032500Y-91420000D03*
%TD*%
D40*
%TO.P,R1,1*%
%TO.N,Net-(D1-A)*%
X206750000Y-104500000D03*
%TO.P,R1,2*%
%TO.N,5.0v*%
X206750000Y-106325000D03*
%TD*%
D45*
%TO.P,C1,1*%
%TO.N,5.0v*%
X192867500Y-85900000D03*
%TO.P,C1,2*%
%TO.N,GND*%
X191732500Y-85900000D03*
%TD*%
%TO.P,C11,1*%
%TO.N,Net-(U6-VREF)*%
X168867500Y-114310000D03*
%TO.P,C11,2*%
%TO.N,GND*%
X167732500Y-114310000D03*
%TD*%
D19*
%TO.P,U1,1,VIN*%
%TO.N,5.0v*%
X192737500Y-84550000D03*
%TO.P,U1,2,GND*%
%TO.N,GND*%
X192737500Y-83600000D03*
%TO.P,U1,3,EN/UVLO*%
%TO.N,Net-(U1-EN{slash}UVLO)*%
X192737500Y-82650000D03*
%TO.P,U1,4,CT*%
%TO.N,Net-(U1-CT)*%
X190462500Y-82650000D03*
%TO.P,U1,5,QOD*%
%TO.N,Net-(U1-QOD)*%
X190462500Y-83600000D03*
%TO.P,U1,6,VOUT*%
%TO.N,Net-(U1-VOUT)*%
X190462500Y-84550000D03*
%TD*%
D29*
%TO.P,R10,1*%
%TO.N,SCL*%
X128200000Y-74712500D03*
%TO.P,R10,2*%
%TO.N,5.0v*%
X128200000Y-72887500D03*
%TD*%
D18*
%TO.P,TP3,1,1*%
%TO.N,GND*%
X133300000Y-126570000D03*
%TD*%
D46*
%TO.P,L6,1,1*%
%TO.N,Net-(U9-SW1)*%
X216000000Y-71500000D03*
%TO.P,L6,2,2*%
%TO.N,Net-(U9-SW2)*%
X207000000Y-71500000D03*
%TD*%
D47*
%TO.P,C23,1*%
%TO.N,Net-(U9-SW2)*%
X204400000Y-70200000D03*
%TO.P,C23,2*%
%TO.N,Net-(U9-BST2)*%
X204400000Y-73325000D03*
%TD*%
D40*
%TO.P,R4,1*%
%TO.N,Net-(D2-A)*%
X240994970Y-73843099D03*
%TO.P,R4,2*%
%TO.N,16.8v*%
X240994970Y-75668099D03*
%TD*%
D27*
%TO.P,J9,1,1*%
%TO.N,GND*%
X163645000Y-106530000D03*
D28*
%TO.P,J9,2,2*%
%TO.N,aud_in_right*%
X163645000Y-108530000D03*
%TO.P,J9,3,3*%
%TO.N,aud_in_left*%
X163645000Y-110530000D03*
%TD*%
D27*
%TO.P,J14,1,1*%
%TO.N,pi_spkrs*%
X167350000Y-89360000D03*
D28*
%TO.P,J14,2,2*%
%TO.N,Net-(U7-EN{slash}UVLO)*%
X165350000Y-89360000D03*
%TO.P,J14,3,3*%
%TO.N,5.0v*%
X163350000Y-89360000D03*
%TD*%
D48*
%TO.P,J1,1*%
%TO.N,Net-(J1-Pad1)*%
X231700000Y-131000000D03*
X229700000Y-131000000D03*
D49*
%TO.P,J1,2*%
%TO.N,GND*%
X237800000Y-140700000D03*
X237800000Y-136100000D03*
D50*
X235000000Y-130450000D03*
X226400000Y-130450000D03*
D49*
X223600000Y-140700000D03*
X223600000Y-136100000D03*
%TD*%
D38*
%TO.P,C9,1*%
%TO.N,5.0v*%
X229425000Y-115750000D03*
%TO.P,C9,2*%
%TO.N,GND*%
X231500000Y-115750000D03*
%TD*%
D41*
%TO.P,C30,1*%
%TO.N,GND*%
X206952500Y-85455000D03*
%TO.P,C30,2*%
%TO.N,Net-(U9-VC)*%
X206952500Y-84320000D03*
%TD*%
D47*
%TO.P,C32,1*%
%TO.N,GND*%
X226750000Y-66937500D03*
%TO.P,C32,2*%
%TO.N,16.8v*%
X226750000Y-70062500D03*
%TD*%
D18*
%TO.P,TP4,1,1*%
%TO.N,12.0v*%
X201140000Y-70550000D03*
%TD*%
D40*
%TO.P,R8,1*%
%TO.N,Net-(U3-VOUT)*%
X169000000Y-76087500D03*
%TO.P,R8,2*%
%TO.N,Net-(U3-QOD)*%
X169000000Y-77912500D03*
%TD*%
D41*
%TO.P,C4,1*%
%TO.N,Net-(U2-CT)*%
X193500000Y-73135000D03*
%TO.P,C4,2*%
%TO.N,GND*%
X193500000Y-72000000D03*
%TD*%
D51*
%TO.P,C34,1*%
%TO.N,5.0v*%
X208470000Y-99670000D03*
%TO.P,C34,2*%
%TO.N,GND*%
X208470000Y-102795000D03*
%TD*%
D27*
%TO.P,J11,1,1*%
%TO.N,aud_sig_out_R-*%
X184200000Y-107600000D03*
D28*
%TO.P,J11,2,2*%
%TO.N,aud_sig_out_R+*%
X184200000Y-105600000D03*
%TD*%
D45*
%TO.P,C3,1*%
%TO.N,Net-(U1-CT)*%
X189890000Y-81500000D03*
%TO.P,C3,2*%
%TO.N,GND*%
X188755000Y-81500000D03*
%TD*%
D11*
%TO.P,C5,1*%
%TO.N,5.0v*%
X165665000Y-75600000D03*
%TO.P,C5,2*%
%TO.N,GND*%
X166800000Y-75600000D03*
%TD*%
D27*
%TO.P,J5,1,1*%
%TO.N,pi_leds*%
X179800000Y-75485000D03*
D28*
%TO.P,J5,2,2*%
%TO.N,Net-(U1-EN{slash}UVLO)*%
X181800000Y-75485000D03*
%TO.P,J5,3,3*%
%TO.N,5.0v*%
X183800000Y-75485000D03*
%TD*%
D27*
%TO.P,J8,1,1*%
%TO.N,16.8v*%
X233150000Y-68325000D03*
D28*
%TO.P,J8,2,2*%
X235150000Y-68325000D03*
%TD*%
D34*
%TO.P,J16,*%
%TO.N,*%
X119259000Y-68221000D03*
X138459000Y-125881000D03*
X151869000Y-125881000D03*
X171049000Y-68221000D03*
D15*
%TO.P,J16,1,3V3*%
%TO.N,Net-(J15-3V3-Pad1)*%
X137539000Y-73781000D03*
D16*
%TO.P,J16,2,5V*%
%TO.N,5.0v*%
X152779000Y-73781000D03*
%TO.P,J16,3,SDA_I2C1/GPIO02*%
%TO.N,SDA*%
X137539000Y-76321000D03*
%TO.P,J16,4,5V*%
%TO.N,5.0v*%
X152779000Y-76321000D03*
%TO.P,J16,5,SCL_I2C1/GPIO03*%
%TO.N,SCL*%
X137539000Y-78861000D03*
%TO.P,J16,6,GND*%
%TO.N,GND*%
X152779000Y-78861000D03*
%TO.P,J16,7,GPCLK0/GPIO04*%
%TO.N,Net-(J15-GPCLK0{slash}GPIO04)*%
X137539000Y-81401000D03*
%TO.P,J16,8,GPIO14/UART_TXD*%
%TO.N,Net-(J15-GPIO14{slash}UART_TXD)*%
X152779000Y-81401000D03*
%TO.P,J16,9,GND*%
%TO.N,GND*%
X137539000Y-83941000D03*
%TO.P,J16,10,GPIO15/UART_RXD*%
%TO.N,Net-(J15-GPIO15{slash}UART_RXD)*%
X152779000Y-83941000D03*
%TO.P,J16,11,GPIO17/SPI1_~{CE1}*%
%TO.N,Net-(J15-GPIO17{slash}SPI1_~{CE1})*%
X137539000Y-86481000D03*
%TO.P,J16,12,GPIO18/SPI1_~{CE0}/PCM_CLK/PWM0*%
%TO.N,Net-(J15-GPIO18{slash}SPI1_~{CE0}{slash}PCM_CLK{slash}PWM0)*%
X152779000Y-86481000D03*
%TO.P,J16,13,GPIO27/SDIO_DAT3*%
%TO.N,pi_spkrs*%
X137539000Y-89021000D03*
%TO.P,J16,14,GND*%
%TO.N,GND*%
X152779000Y-89021000D03*
%TO.P,J16,15,GPIO22/SDIO_CLK*%
%TO.N,Net-(J15-GPIO22{slash}SDIO_CLK)*%
X137539000Y-91561000D03*
%TO.P,J16,16,GPIO23/SDIO_CMD*%
%TO.N,Net-(J15-GPIO23{slash}SDIO_CMD)*%
X152779000Y-91561000D03*
%TO.P,J16,17,3V3*%
%TO.N,Net-(J15-3V3-Pad1)*%
X137539000Y-94101000D03*
%TO.P,J16,18,GPIO24/SDIO_DAT0*%
%TO.N,pi_2nd_disp*%
X152779000Y-94101000D03*
%TO.P,J16,19,MOSI_SPI0/GPIO10*%
%TO.N,Net-(J15-MOSI_SPI0{slash}GPIO10)*%
X137539000Y-96641000D03*
%TO.P,J16,20,GND*%
%TO.N,GND*%
X152779000Y-96641000D03*
%TO.P,J16,21,MISO_SPI0/GPIO09*%
%TO.N,Net-(J15-MISO_SPI0{slash}GPIO09)*%
X137539000Y-99181000D03*
%TO.P,J16,22,GPIO25/SDIO_DAT1*%
%TO.N,pi_leds*%
X152779000Y-99181000D03*
%TO.P,J16,23,SCLK_SPI0/GPIO11*%
%TO.N,Net-(J15-SCLK_SPI0{slash}GPIO11)*%
X137539000Y-101721000D03*
%TO.P,J16,24,~{CE0}_SPI0/GPIO08*%
%TO.N,Net-(J15-~{CE0}_SPI0{slash}GPIO08)*%
X152779000Y-101721000D03*
%TO.P,J16,25,GND*%
%TO.N,GND*%
X137539000Y-104261000D03*
%TO.P,J16,26,~{CE1}_SPI0/GPIO07*%
%TO.N,Net-(J15-~{CE1}_SPI0{slash}GPIO07)*%
X152779000Y-104261000D03*
%TO.P,J16,27,ID_SD_I2C0/GPIO00*%
%TO.N,Net-(J15-ID_SD_I2C0{slash}GPIO00)*%
X137539000Y-106801000D03*
%TO.P,J16,28,ID_SC_I2C0/GPIO01*%
%TO.N,Net-(J15-ID_SC_I2C0{slash}GPIO01)*%
X152779000Y-106801000D03*
%TO.P,J16,29,GPCLK1/GPIO05*%
%TO.N,Net-(J15-GPCLK1{slash}GPIO05)*%
X137539000Y-109341000D03*
%TO.P,J16,30,GND*%
%TO.N,GND*%
X152779000Y-109341000D03*
%TO.P,J16,31,GPCLK2/GPIO06*%
%TO.N,Net-(J15-GPCLK2{slash}GPIO06)*%
X137539000Y-111881000D03*
%TO.P,J16,32,GPIO12/PWM0*%
%TO.N,Net-(J15-GPIO12{slash}PWM0)*%
X152779000Y-111881000D03*
%TO.P,J16,33,GPIO13/PWM1*%
%TO.N,Net-(J15-GPIO13{slash}PWM1)*%
X137539000Y-114421000D03*
%TO.P,J16,34,GND*%
%TO.N,GND*%
X152779000Y-114421000D03*
%TO.P,J16,35,GPIO19/SPI1_MISO/PCM_FS*%
%TO.N,Net-(J15-GPIO19{slash}SPI1_MISO{slash}PCM_FS)*%
X137539000Y-116961000D03*
%TO.P,J16,36,GPIO16/SPI1_~{CE2}*%
%TO.N,Net-(J15-GPIO16{slash}SPI1_~{CE2})*%
X152779000Y-116961000D03*
%TO.P,J16,37,GPIO26/SDIO_DAT2*%
%TO.N,pi_1st_disp*%
X137539000Y-119501000D03*
%TO.P,J16,38,GPIO20/SPI1_MOSI/PCM_DIN/PWM1*%
%TO.N,Net-(J15-GPIO20{slash}SPI1_MOSI{slash}PCM_DIN{slash}PWM1)*%
X152779000Y-119501000D03*
%TO.P,J16,39,GND*%
%TO.N,GND*%
X137539000Y-122041000D03*
%TO.P,J16,40,GPIO21/SPI1_SCLK/PCM_DOUT*%
%TO.N,Net-(J15-GPIO21{slash}SPI1_SCLK{slash}PCM_DOUT)*%
X152779000Y-122041000D03*
%TD*%
D52*
%TO.P,U9,1,PGND*%
%TO.N,GND*%
X208885000Y-80475000D03*
%TO.P,U9,2,SW2*%
%TO.N,Net-(U9-SW2)*%
X208885000Y-81125000D03*
%TO.P,U9,3,PVOUT*%
%TO.N,12.0v*%
X208885000Y-81775000D03*
%TO.P,U9,4,RUN*%
%TO.N,16.8v*%
X208885000Y-82425000D03*
%TO.P,U9,5,PROG*%
%TO.N,Net-(U9-PROG)*%
X208885000Y-83075000D03*
%TO.P,U9,6,VC*%
%TO.N,Net-(U9-VC)*%
X208885000Y-83725000D03*
%TO.P,U9,7,FB*%
%TO.N,Net-(U9-FB)*%
X208885000Y-84375000D03*
%TO.P,U9,8,GND*%
%TO.N,GND*%
X208885000Y-85025000D03*
%TO.P,U9,9,LDO*%
%TO.N,Net-(U9-LDO)*%
X214615000Y-85025000D03*
%TO.P,U9,10,VIN*%
%TO.N,16.8v*%
X214615000Y-84375000D03*
%TO.P,U9,11,PLDO*%
%TO.N,Net-(U9-LDO)*%
X214615000Y-83725000D03*
%TO.P,U9,12,BST2*%
%TO.N,Net-(U9-BST2)*%
X214615000Y-83075000D03*
%TO.P,U9,13,BST1*%
%TO.N,Net-(U9-BST1)*%
X214615000Y-82425000D03*
%TO.P,U9,14,PVIN*%
%TO.N,16.8v*%
X214615000Y-81775000D03*
%TO.P,U9,15,SW1*%
%TO.N,Net-(U9-SW1)*%
X214615000Y-81125000D03*
%TO.P,U9,16,MODE*%
%TO.N,GND*%
X214615000Y-80475000D03*
D53*
%TO.P,U9,17,PGND__1*%
X211750000Y-82750000D03*
%TD*%
D14*
%TO.P,C18,1*%
%TO.N,aud_sig_out_R-*%
X189000000Y-109262500D03*
%TO.P,C18,2*%
%TO.N,GND*%
X189000000Y-107537500D03*
%TD*%
D54*
%TO.P,U3,1,VIN*%
%TO.N,5.0v*%
X163862500Y-77050000D03*
%TO.P,U3,2,GND*%
%TO.N,GND*%
X163862500Y-78000000D03*
%TO.P,U3,3,EN/UVLO*%
%TO.N,Net-(U3-EN{slash}UVLO)*%
X163862500Y-78950000D03*
%TO.P,U3,4,CT*%
%TO.N,Net-(U3-CT)*%
X166137500Y-78950000D03*
%TO.P,U3,5,QOD*%
%TO.N,Net-(U3-QOD)*%
X166137500Y-78000000D03*
%TO.P,U3,6,VOUT*%
%TO.N,Net-(U3-VOUT)*%
X166137500Y-77050000D03*
%TD*%
D44*
%TO.P,D3,1,K*%
%TO.N,GND*%
X202010000Y-66680000D03*
%TO.P,D3,2,A*%
%TO.N,Net-(D3-A)*%
X200410000Y-66680000D03*
%TD*%
D20*
%TO.P,C35,1*%
%TO.N,16.8v*%
X223000000Y-70062500D03*
%TO.P,C35,2*%
%TO.N,GND*%
X223000000Y-66937500D03*
%TD*%
D39*
%TO.P,C7,1*%
%TO.N,aud_in_left*%
X166675000Y-113032500D03*
%TO.P,C7,2*%
%TO.N,GND*%
X166675000Y-114167500D03*
%TD*%
D43*
%TO.P,R18,1*%
%TO.N,Net-(C33-Pad2)*%
X204840000Y-86707500D03*
%TO.P,R18,2*%
%TO.N,GND*%
X206665000Y-86707500D03*
%TD*%
D23*
%TO.P,L5,1,1*%
%TO.N,aud_sig_out_R+*%
X186460800Y-101400000D03*
%TO.P,L5,2,2*%
%TO.N,Net-(U6-+OUT_R)*%
X182600000Y-101400000D03*
%TD*%
D24*
%TO.P,C20,1*%
%TO.N,aud_sig_out_R+*%
X189000000Y-103937500D03*
%TO.P,C20,2*%
%TO.N,GND*%
X189000000Y-105662500D03*
%TD*%
D34*
%TO.P,U4,*%
%TO.N,*%
X224140000Y-103750000D03*
X224140000Y-118990000D03*
X244460000Y-103750000D03*
X244460000Y-118990000D03*
D35*
%TO.P,U4,1,VCC*%
%TO.N,5.0v*%
X227950000Y-118990000D03*
D36*
%TO.P,U4,2,GND*%
%TO.N,GND*%
X230490000Y-118990000D03*
%TO.P,U4,3,SCL*%
%TO.N,SCL*%
X233030000Y-118990000D03*
%TO.P,U4,4,SDA*%
%TO.N,SDA*%
X235570000Y-118990000D03*
%TO.P,U4,5,VIN-*%
%TO.N,unconnected-(U4-PadVIN-)_1*%
X238110000Y-118990000D03*
%TO.P,U4,6,VIN+*%
%TO.N,unconnected-(U4-PadVIN+)*%
X240650000Y-118990000D03*
D37*
%TO.P,U4,VIN+,VIN+*%
%TO.N,unconnected-(U4-PadVIN+)_1*%
X236000000Y-105020000D03*
%TO.P,U4,VIN-,VIN-*%
%TO.N,unconnected-(U4-PadVIN-)*%
X232500000Y-105020000D03*
%TD*%
D27*
%TO.P,J4,1,1*%
%TO.N,GND*%
X214780000Y-126800000D03*
D28*
%TO.P,J4,2,2*%
%TO.N,Net-(J1-Pad1)*%
X216780000Y-126800000D03*
%TD*%
D27*
%TO.P,J6,1,1*%
%TO.N,pi_1st_disp*%
X179800000Y-68260000D03*
D28*
%TO.P,J6,2,2*%
%TO.N,Net-(U2-EN{slash}UVLO)*%
X181800000Y-68260000D03*
%TO.P,J6,3,3*%
%TO.N,5.0v*%
X183800000Y-68260000D03*
%TD*%
D27*
%TO.P,J13,1,1*%
%TO.N,pi_2nd_disp*%
X163350000Y-82400000D03*
D28*
%TO.P,J13,2,2*%
%TO.N,Net-(U3-EN{slash}UVLO)*%
X165350000Y-82400000D03*
%TO.P,J13,3,3*%
%TO.N,5.0v*%
X167350000Y-82400000D03*
%TD*%
D45*
%TO.P,C33,1*%
%TO.N,Net-(U9-VC)*%
X205962500Y-84257500D03*
%TO.P,C33,2*%
%TO.N,Net-(C33-Pad2)*%
X204827500Y-84257500D03*
%TD*%
D29*
%TO.P,R3,1*%
%TO.N,Net-(U2-VOUT)*%
X193430000Y-76305000D03*
%TO.P,R3,2*%
%TO.N,Net-(U2-QOD)*%
X193430000Y-74480000D03*
%TD*%
D13*
%TO.P,C21,1*%
%TO.N,GND*%
X214797500Y-91850000D03*
%TO.P,C21,2*%
%TO.N,16.8v*%
X216522500Y-91850000D03*
%TD*%
D41*
%TO.P,C13,1*%
%TO.N,Net-(U6-PVDDL)*%
X168295000Y-111737500D03*
%TO.P,C13,2*%
%TO.N,GND*%
X168295000Y-110602500D03*
%TD*%
D10*
%TO.P,R6,1*%
%TO.N,GND*%
X186000000Y-90280000D03*
%TO.P,R6,2*%
%TO.N,Net-(U1-EN{slash}UVLO)*%
X186000000Y-80120000D03*
%TD*%
D55*
%TO.P,L7,1,1*%
%TO.N,5.0v*%
X196750000Y-103250000D03*
%TO.P,L7,2,2*%
%TO.N,Net-(C31-Pad2)*%
X196750000Y-94250000D03*
%TD*%
D27*
%TO.P,J12,1,1*%
%TO.N,5.0v*%
X173000000Y-76200000D03*
D28*
%TO.P,J12,2,2*%
%TO.N,GND*%
X173000000Y-74200000D03*
%TD*%
D10*
%TO.P,R5,1*%
%TO.N,GND*%
X187720000Y-67700000D03*
%TO.P,R5,2*%
%TO.N,Net-(U2-EN{slash}UVLO)*%
X197880000Y-67700000D03*
%TD*%
D27*
%TO.P,J17,1,1*%
%TO.N,GND*%
X207000000Y-126800000D03*
D28*
%TO.P,J17,2,2*%
%TO.N,Net-(J1-Pad1)*%
X209000000Y-126800000D03*
%TD*%
D45*
%TO.P,C16,1*%
%TO.N,Net-(U7-CT)*%
X181887500Y-96780000D03*
%TO.P,C16,2*%
%TO.N,GND*%
X180752500Y-96780000D03*
%TD*%
D41*
%TO.P,C8,1*%
%TO.N,aud_in_right*%
X166685000Y-111747500D03*
%TO.P,C8,2*%
%TO.N,GND*%
X166685000Y-110612500D03*
%TD*%
D51*
%TO.P,C28,1*%
%TO.N,GND*%
X204600000Y-78275000D03*
%TO.P,C28,2*%
%TO.N,12.0v*%
X204600000Y-81400000D03*
%TD*%
D23*
%TO.P,L3,1,1*%
%TO.N,aud_sig_out_L-*%
X172964000Y-100910000D03*
%TO.P,L3,2,2*%
%TO.N,Net-(U6--OUT_L)*%
X169103200Y-100910000D03*
%TD*%
D43*
%TO.P,R7,1*%
%TO.N,Net-(D3-A)*%
X200230000Y-68240000D03*
%TO.P,R7,2*%
%TO.N,12.0v*%
X202055000Y-68240000D03*
%TD*%
D27*
%TO.P,J10,1,1*%
%TO.N,Net-(U3-VOUT)*%
X174510000Y-82400000D03*
D28*
%TO.P,J10,2,2*%
%TO.N,GND*%
X172510000Y-82400000D03*
%TD*%
D42*
%TO.P,C24,1*%
%TO.N,GND*%
X201150000Y-86600000D03*
%TO.P,C24,2*%
%TO.N,Net-(U9-PROG)*%
X201150000Y-84525000D03*
%TD*%
D51*
%TO.P,C29,1*%
%TO.N,5.0v*%
X211750000Y-99687500D03*
%TO.P,C29,2*%
%TO.N,GND*%
X211750000Y-102812500D03*
%TD*%
D41*
%TO.P,C25,1*%
%TO.N,GND*%
X205250000Y-97635000D03*
%TO.P,C25,2*%
%TO.N,Net-(U8-INTVCC)*%
X205250000Y-96500000D03*
%TD*%
D10*
%TO.P,R9,1*%
%TO.N,GND*%
X181280000Y-86400000D03*
%TO.P,R9,2*%
%TO.N,Net-(U3-EN{slash}UVLO)*%
X171120000Y-86400000D03*
%TD*%
D56*
%TO.N,SDA*%
X133315000Y-76315000D03*
%TO.N,SCL*%
X133330000Y-78840000D03*
X128200000Y-75800000D03*
%TO.N,SDA*%
X131200000Y-74712500D03*
%TO.N,GND*%
X167800000Y-75600000D03*
X179790000Y-83810000D03*
X173850000Y-111770000D03*
X190400000Y-105662500D03*
X194000000Y-83600000D03*
X180752500Y-95800000D03*
X213255000Y-87600000D03*
X194400000Y-72000000D03*
X176200000Y-100400000D03*
X224875000Y-66937500D03*
X199000000Y-72932500D03*
X173200000Y-106690000D03*
X203430000Y-66680000D03*
X210130000Y-104080000D03*
X204600000Y-77000000D03*
X208600000Y-86600000D03*
X213600000Y-91850000D03*
X166685000Y-109150000D03*
X162400000Y-78000000D03*
X190630000Y-85890000D03*
X218950000Y-98027500D03*
X206000000Y-85455000D03*
X205250000Y-98500000D03*
X188760000Y-80500000D03*
X243894970Y-75668099D03*
X166675000Y-115200000D03*
X211750000Y-79600000D03*
X203070000Y-87890000D03*
%TO.N,Net-(U9-BST2)*%
X201363603Y-80836397D03*
X202400000Y-79200000D03*
X216290000Y-83025000D03*
X218121397Y-86831397D03*
%TO.N,5.0v*%
X172270000Y-110500000D03*
X173445500Y-113554500D03*
X161800000Y-77000000D03*
X159519000Y-76321000D03*
%TO.N,Net-(U9-BST1)*%
X216870948Y-82475000D03*
X217600000Y-79400000D03*
%TO.N,Net-(U9-LDO)*%
X216402422Y-83817064D03*
X216200000Y-85800000D03*
%TO.N,pi_2nd_disp*%
X155240000Y-91640000D03*
X162200000Y-86800000D03*
%TO.N,pi_1st_disp*%
X159159265Y-126159265D03*
X163900000Y-73420000D03*
X159500000Y-123000000D03*
X163900000Y-71100000D03*
%TO.N,pi_leds*%
X162900000Y-73200000D03*
X154975735Y-70724265D03*
X157724265Y-67875735D03*
X162800000Y-71000000D03*
%TO.N,Net-(J15-GPIO21{slash}SPI1_SCLK{slash}PCM_DOUT)*%
X123885885Y-67285885D03*
X120708000Y-71868635D03*
%TO.N,Net-(J15-GPIO12{slash}PWM0)*%
X154652815Y-68490683D03*
X120672068Y-73872289D03*
%TO.N,SDA*%
X229800000Y-123200000D03*
X228000000Y-123200000D03*
%TO.N,pi_spkrs*%
X160370000Y-122400000D03*
X158375735Y-127265735D03*
%TO.N,Net-(U7-EN{slash}UVLO)*%
X162230000Y-93030000D03*
X159860000Y-91720000D03*
%TO.N,Net-(J15-GPIO16{slash}SPI1_~{CE2})*%
X120611873Y-73074554D03*
X155022077Y-67781000D03*
%TO.N,Net-(J15-GPIO20{slash}SPI1_MOSI{slash}PCM_DIN{slash}PWM1)*%
X124863927Y-67272000D03*
X119822988Y-72672289D03*
%TO.N,aud_control*%
X177340000Y-110200000D03*
X180000000Y-102200000D03*
X177400000Y-107260000D03*
X180000000Y-100650000D03*
%TD*%
D57*
%TO.N,pi_1st_disp*%
X129070000Y-123740000D02*
X133309000Y-119501000D01*
X133309000Y-119501000D02*
X137539000Y-119501000D01*
%TO.N,Net-(J15-GPIO19{slash}SPI1_MISO{slash}PCM_FS)*%
X133309000Y-116961000D02*
X137539000Y-116961000D01*
X129070000Y-121200000D02*
X133309000Y-116961000D01*
%TO.N,Net-(J15-GPIO13{slash}PWM1)*%
X129070000Y-118660000D02*
X133309000Y-114421000D01*
X133309000Y-114421000D02*
X137539000Y-114421000D01*
%TO.N,Net-(J15-GPCLK2{slash}GPIO06)*%
X129070000Y-116120000D02*
X133309000Y-111881000D01*
X133309000Y-111881000D02*
X137539000Y-111881000D01*
%TO.N,Net-(J15-GPCLK1{slash}GPIO05)*%
X129070000Y-113580000D02*
X133309000Y-109341000D01*
X133309000Y-109341000D02*
X137539000Y-109341000D01*
%TO.N,Net-(J15-ID_SD_I2C0{slash}GPIO00)*%
X129070000Y-111040000D02*
X133309000Y-106801000D01*
X133309000Y-106801000D02*
X137539000Y-106801000D01*
%TO.N,Net-(J15-SCLK_SPI0{slash}GPIO11)*%
X129070000Y-105960000D02*
X133309000Y-101721000D01*
X133309000Y-101721000D02*
X137539000Y-101721000D01*
%TO.N,Net-(J15-MISO_SPI0{slash}GPIO09)*%
X129070000Y-103420000D02*
X133309000Y-99181000D01*
X133309000Y-99181000D02*
X137539000Y-99181000D01*
%TO.N,Net-(J15-MOSI_SPI0{slash}GPIO10)*%
X129070000Y-100880000D02*
X133309000Y-96641000D01*
X133309000Y-96641000D02*
X137539000Y-96641000D01*
%TO.N,Net-(J15-3V3-Pad1)*%
X129070000Y-98340000D02*
X133309000Y-94101000D01*
X133309000Y-94101000D02*
X137539000Y-94101000D01*
%TO.N,Net-(J15-GPIO22{slash}SDIO_CLK)*%
X129070000Y-95800000D02*
X133309000Y-91561000D01*
X133309000Y-91561000D02*
X137539000Y-91561000D01*
%TO.N,pi_spkrs*%
X129070000Y-93260000D02*
X133309000Y-89021000D01*
X133309000Y-89021000D02*
X137539000Y-89021000D01*
%TO.N,Net-(J15-GPIO17{slash}SPI1_~{CE1})*%
X129070000Y-90720000D02*
X133309000Y-86481000D01*
X133309000Y-86481000D02*
X137539000Y-86481000D01*
%TO.N,Net-(J15-GPCLK0{slash}GPIO04)*%
X129070000Y-85640000D02*
X133309000Y-81401000D01*
X133309000Y-81401000D02*
X137539000Y-81401000D01*
%TO.N,Net-(J15-3V3-Pad1)*%
X129070000Y-78020000D02*
X127800000Y-79290000D01*
X127800000Y-79290000D02*
X127800000Y-97070000D01*
X127800000Y-97070000D02*
X129070000Y-98340000D01*
X129070000Y-78020000D02*
X133309000Y-73781000D01*
X133309000Y-73781000D02*
X137539000Y-73781000D01*
%TO.N,SCL*%
X128200000Y-75800000D02*
X128200000Y-74712500D01*
%TO.N,SDA*%
X131200000Y-74712500D02*
X130000000Y-74712500D01*
X133315000Y-76315000D02*
X133330000Y-76300000D01*
D58*
%TO.N,5.0v*%
X130000000Y-72887500D02*
X130460419Y-72887500D01*
X130460419Y-72887500D02*
X131427919Y-71920000D01*
X131427919Y-71920000D02*
X150918000Y-71920000D01*
X150918000Y-71920000D02*
X152779000Y-73781000D01*
X128200000Y-72887500D02*
X130000000Y-72887500D01*
X126530000Y-78020000D02*
X126530000Y-74557500D01*
X126530000Y-74557500D02*
X128200000Y-72887500D01*
D57*
%TO.N,Net-(U1-CT)*%
X190250000Y-82650000D02*
X189900000Y-82300000D01*
X190462500Y-82650000D02*
X190250000Y-82650000D01*
X189900000Y-81510000D02*
X189890000Y-81500000D01*
X189900000Y-82300000D02*
X189900000Y-81510000D01*
%TO.N,Net-(U2-CT)*%
X195222500Y-73050000D02*
X193585000Y-73050000D01*
X193585000Y-73050000D02*
X193500000Y-73135000D01*
D59*
%TO.N,Net-(U3-CT)*%
X167782500Y-78950000D02*
X168232500Y-79400000D01*
X166137500Y-78950000D02*
X167782500Y-78950000D01*
D58*
%TO.N,GND*%
X176200000Y-101737500D02*
X176200000Y-100400000D01*
X182920000Y-91420000D02*
X181300000Y-89800000D01*
X191732500Y-85900000D02*
X190640000Y-85900000D01*
D57*
X211750000Y-82750000D02*
X213574000Y-80926000D01*
D60*
X211750000Y-79600000D02*
X213740000Y-79600000D01*
D58*
X204600000Y-78275000D02*
X204600000Y-77000000D01*
D61*
X214797500Y-91850000D02*
X214797500Y-93368920D01*
D58*
X200000000Y-72932500D02*
X199000000Y-72932500D01*
D62*
X198549000Y-74000000D02*
X197497500Y-74000000D01*
D58*
X218950000Y-98027500D02*
X216160000Y-98027500D01*
D57*
X188755000Y-80505000D02*
X188760000Y-80500000D01*
D58*
X175605000Y-111770000D02*
X173850000Y-111770000D01*
D60*
X213740000Y-79600000D02*
X214615000Y-80475000D01*
D58*
X183032500Y-91420000D02*
X182920000Y-91420000D01*
X206000000Y-85455000D02*
X206952500Y-85455000D01*
X230490000Y-91490000D02*
X230000000Y-91000000D01*
X214797500Y-91850000D02*
X213600000Y-91850000D01*
X218950000Y-96842500D02*
X218950000Y-98027500D01*
D57*
X213574000Y-80619000D02*
X213718000Y-80475000D01*
D58*
X170655000Y-106690000D02*
X175605000Y-106690000D01*
D57*
X211750000Y-82750000D02*
X209926000Y-80926000D01*
D58*
X208600000Y-86600000D02*
X209765000Y-86600000D01*
X176200000Y-100400000D02*
X175337500Y-99537500D01*
X242744970Y-75668099D02*
X243894970Y-75668099D01*
D57*
X213574000Y-80926000D02*
X213574000Y-80619000D01*
D62*
X183160000Y-91547500D02*
X183032500Y-91420000D01*
D58*
X166675000Y-115200000D02*
X166675000Y-114167500D01*
X231500000Y-117980000D02*
X230490000Y-118990000D01*
X167800000Y-75600000D02*
X166800000Y-75600000D01*
D57*
X214615000Y-80365000D02*
X214615000Y-80475000D01*
X211732500Y-102795000D02*
X211750000Y-102812500D01*
D62*
X163862500Y-78000000D02*
X162400000Y-78000000D01*
D57*
X190620000Y-85900000D02*
X190630000Y-85890000D01*
X218900000Y-96892500D02*
X218950000Y-96842500D01*
D61*
X212000000Y-95003100D02*
X213154430Y-93848670D01*
D58*
X175337500Y-99537500D02*
X174600000Y-99537500D01*
D57*
X209926000Y-80926000D02*
X209926000Y-80576000D01*
D58*
X210130000Y-102795000D02*
X210130000Y-104080000D01*
X189000000Y-105662500D02*
X189000000Y-107537500D01*
D61*
X214797500Y-93368920D02*
X214317750Y-93848670D01*
X213154430Y-93848670D02*
X214317750Y-93848670D01*
D60*
X209765000Y-85905000D02*
X208885000Y-85025000D01*
D58*
X208500000Y-106300000D02*
X209000000Y-106300000D01*
X201150000Y-86600000D02*
X203070000Y-86600000D01*
X203430000Y-66680000D02*
X202010000Y-66680000D01*
D57*
X209926000Y-80576000D02*
X209825000Y-80475000D01*
X179800000Y-83060000D02*
X179790000Y-83070000D01*
D58*
X166817500Y-114310000D02*
X166675000Y-114167500D01*
X206952500Y-85455000D02*
X206952500Y-86420000D01*
X180752500Y-96780000D02*
X180752500Y-95800000D01*
X189000000Y-105662500D02*
X190400000Y-105662500D01*
D57*
X212000000Y-95600000D02*
X212000000Y-95003100D01*
D58*
X209000000Y-106300000D02*
X210130000Y-105170000D01*
X167732500Y-114310000D02*
X166817500Y-114310000D01*
X210130000Y-105170000D02*
X210130000Y-104080000D01*
D57*
X168285000Y-110612500D02*
X168295000Y-110602500D01*
D60*
X209760000Y-79600000D02*
X211750000Y-79600000D01*
D58*
X166685000Y-109150000D02*
X167800000Y-109150000D01*
D57*
X214317750Y-97351330D02*
X215483830Y-97351330D01*
D58*
X206952500Y-86420000D02*
X206665000Y-86707500D01*
X230490000Y-94710000D02*
X230490000Y-91490000D01*
D57*
X166695000Y-110602500D02*
X166685000Y-110612500D01*
D58*
X217400000Y-96892500D02*
X218900000Y-96892500D01*
D62*
X183160000Y-92950000D02*
X183160000Y-91547500D01*
D58*
X203080000Y-86590000D02*
X203080000Y-87880000D01*
D62*
X198549000Y-74000000D02*
X199000000Y-73549000D01*
D57*
X203070000Y-86600000D02*
X203080000Y-86590000D01*
X215483830Y-97351330D02*
X216160000Y-98027500D01*
X209825000Y-80475000D02*
X208885000Y-80475000D01*
D58*
X194400000Y-72000000D02*
X193500000Y-72000000D01*
X231500000Y-115750000D02*
X231500000Y-117980000D01*
X166685000Y-110612500D02*
X168285000Y-110612500D01*
D57*
X213718000Y-80475000D02*
X214615000Y-80475000D01*
D58*
X188755000Y-81500000D02*
X188755000Y-80505000D01*
D62*
X192737500Y-83600000D02*
X194000000Y-83600000D01*
D57*
X203080000Y-87880000D02*
X203070000Y-87890000D01*
D58*
X172510000Y-82400000D02*
X169510000Y-79400000D01*
X205250000Y-97635000D02*
X205250000Y-98500000D01*
D60*
X208885000Y-80475000D02*
X209760000Y-79600000D01*
D58*
X223000000Y-66937500D02*
X226750000Y-66937500D01*
X179800000Y-82440000D02*
X179800000Y-83800000D01*
X213255000Y-87600000D02*
X213255000Y-86300000D01*
X210130000Y-102795000D02*
X211732500Y-102795000D01*
X168295000Y-109645000D02*
X167800000Y-109150000D01*
X208470000Y-102795000D02*
X210130000Y-102795000D01*
D57*
X190640000Y-85900000D02*
X190630000Y-85890000D01*
D58*
X168295000Y-110602500D02*
X168295000Y-109645000D01*
D62*
X199000000Y-73549000D02*
X199000000Y-72932500D01*
D60*
X209765000Y-86600000D02*
X209765000Y-85905000D01*
D58*
X169510000Y-79400000D02*
X169367500Y-79400000D01*
%TO.N,16.8v*%
X233150000Y-69423129D02*
X238494970Y-74768099D01*
X202830000Y-91000000D02*
X211750000Y-91000000D01*
X211750000Y-91000000D02*
X214750000Y-88000000D01*
D60*
X199301000Y-83979000D02*
X199301000Y-87471000D01*
D58*
X215680000Y-88000000D02*
X218740000Y-84940000D01*
X239394970Y-75668099D02*
X238494970Y-74768099D01*
D60*
X199301000Y-87471000D02*
X202980000Y-91150000D01*
X208885000Y-82425000D02*
X207255000Y-82425000D01*
D58*
X233150000Y-68325000D02*
X233150000Y-69423129D01*
X214750000Y-88000000D02*
X215680000Y-88000000D01*
D61*
X200460000Y-82820000D02*
X200380000Y-82900000D01*
D60*
X206860000Y-82820000D02*
X200460000Y-82820000D01*
X207255000Y-82425000D02*
X206860000Y-82820000D01*
X200380000Y-82900000D02*
X199301000Y-83979000D01*
D58*
X240994970Y-75668099D02*
X239394970Y-75668099D01*
D57*
%TO.N,Net-(U6-VREF)*%
X170655000Y-114310000D02*
X168867500Y-114310000D01*
D59*
%TO.N,Net-(U6-PVDDL)*%
X165442323Y-101072323D02*
X162590000Y-101072323D01*
X175605000Y-109230000D02*
X180270000Y-109230000D01*
D60*
X169630000Y-109230000D02*
X170655000Y-109230000D01*
D59*
X175605000Y-109230000D02*
X175045900Y-109230000D01*
D60*
X168327500Y-111770000D02*
X168295000Y-111737500D01*
D59*
X168265000Y-107865000D02*
X169630000Y-109230000D01*
X170655000Y-109230000D02*
X175605000Y-109230000D01*
X167800000Y-103430000D02*
X165442323Y-101072323D01*
X167800000Y-107410000D02*
X167800000Y-103430000D01*
X175045900Y-109230000D02*
X172505900Y-111770000D01*
D57*
X168255000Y-107865000D02*
X168265000Y-107865000D01*
D59*
X172505900Y-111770000D02*
X170655000Y-111770000D01*
X170655000Y-111770000D02*
X168327500Y-111770000D01*
X167800000Y-107410000D02*
X168255000Y-107865000D01*
D58*
%TO.N,Net-(U9-SW2)*%
X207000000Y-80400000D02*
X207000000Y-71500000D01*
D59*
X205700000Y-70200000D02*
X207000000Y-71500000D01*
X207725000Y-81125000D02*
X207000000Y-80400000D01*
X204400000Y-70200000D02*
X205700000Y-70200000D01*
D60*
X208885000Y-81125000D02*
X207725000Y-81125000D01*
D57*
%TO.N,Net-(U9-BST2)*%
X215970364Y-88701000D02*
X217839967Y-86831397D01*
X212500000Y-91250000D02*
X215049000Y-88701000D01*
X216240000Y-83075000D02*
X216290000Y-83025000D01*
X198800000Y-83400000D02*
X198800000Y-87961364D01*
X202400000Y-75325000D02*
X204400000Y-73325000D01*
X214615000Y-83075000D02*
X216240000Y-83075000D01*
X202400000Y-79200000D02*
X202400000Y-75325000D01*
X201363603Y-80836397D02*
X198800000Y-83400000D01*
X212040364Y-91701000D02*
X212491364Y-91250000D01*
X198800000Y-87961364D02*
X202539636Y-91701000D01*
X217839967Y-86831397D02*
X218121397Y-86831397D01*
X202539636Y-91701000D02*
X212040364Y-91701000D01*
X215049000Y-88701000D02*
X215970364Y-88701000D01*
X212491364Y-91250000D02*
X212500000Y-91250000D01*
%TO.N,Net-(U9-PROG)*%
X207048900Y-83646500D02*
X207053900Y-83651500D01*
X207053900Y-83651500D02*
X207630400Y-83075000D01*
X203080000Y-84590000D02*
X204023500Y-83646500D01*
X203080000Y-84590000D02*
X201215000Y-84590000D01*
X207630400Y-83075000D02*
X208885000Y-83075000D01*
X204023500Y-83646500D02*
X207048900Y-83646500D01*
X201215000Y-84590000D02*
X201150000Y-84525000D01*
D58*
%TO.N,12.0v*%
X196190000Y-81390000D02*
X198240000Y-79340000D01*
X200000000Y-74860000D02*
X200000000Y-74067500D01*
X201140000Y-79340000D02*
X201140000Y-77940000D01*
X198240000Y-79340000D02*
X201140000Y-79340000D01*
D57*
X204600000Y-81400000D02*
X204200000Y-81400000D01*
D58*
X201140000Y-69155000D02*
X202055000Y-68240000D01*
X198950000Y-74950000D02*
X197497500Y-74950000D01*
X199500000Y-75500000D02*
X198950000Y-74950000D01*
X196190000Y-88940000D02*
X196190000Y-81390000D01*
X200640000Y-75500000D02*
X200000000Y-74860000D01*
X201140000Y-76000000D02*
X200640000Y-75500000D01*
D60*
X208885000Y-81775000D02*
X204975000Y-81775000D01*
X204975000Y-81775000D02*
X204600000Y-81400000D01*
D58*
X201140000Y-76000000D02*
X201140000Y-70550000D01*
X200640000Y-75500000D02*
X199500000Y-75500000D01*
X204600000Y-81400000D02*
X203200000Y-81400000D01*
X203200000Y-81400000D02*
X201140000Y-79340000D01*
X201140000Y-77940000D02*
X201140000Y-76000000D01*
X201140000Y-70550000D02*
X201140000Y-69155000D01*
%TO.N,5.0v*%
X193971000Y-84601000D02*
X193920000Y-84601000D01*
X195189000Y-86000000D02*
X195189000Y-85819000D01*
X163350000Y-89360000D02*
X163350000Y-86400000D01*
X204250000Y-105500000D02*
X204250000Y-101950000D01*
X206530000Y-99670000D02*
X208470000Y-99670000D01*
X163862500Y-77050000D02*
X165312500Y-75600000D01*
X174201000Y-114310000D02*
X175605000Y-114310000D01*
X195189000Y-85241000D02*
X195189000Y-86000000D01*
X229425000Y-115750000D02*
X229425000Y-117515000D01*
X227990000Y-110000000D02*
X227990000Y-94770000D01*
X227950000Y-95799000D02*
X227950000Y-94710000D01*
X190319000Y-91681000D02*
X191000000Y-91000000D01*
X172270000Y-110500000D02*
X170655000Y-110500000D01*
X152779000Y-76321000D02*
X152779000Y-73781000D01*
X205000000Y-105500000D02*
X205825000Y-106325000D01*
X195189000Y-86811000D02*
X191000000Y-91000000D01*
X192867500Y-85900000D02*
X192867500Y-84680000D01*
X184167500Y-91420000D02*
X184428500Y-91681000D01*
X204250000Y-105500000D02*
X205000000Y-105500000D01*
X165665000Y-74935000D02*
X166400000Y-74200000D01*
D62*
X184110000Y-92950000D02*
X184110000Y-91477500D01*
X184110000Y-91477500D02*
X184167500Y-91420000D01*
D58*
X192737500Y-84550000D02*
X193920000Y-84550000D01*
X159516000Y-74984000D02*
X162500000Y-72000000D01*
X165665000Y-75600000D02*
X165665000Y-74935000D01*
X161120000Y-87130000D02*
X163350000Y-89360000D01*
X161984372Y-77000000D02*
X161985372Y-76999000D01*
X161120000Y-77680000D02*
X161120000Y-87130000D01*
X183800000Y-75485000D02*
X183800000Y-68260000D01*
X229425000Y-117515000D02*
X227950000Y-118990000D01*
X191000000Y-97950000D02*
X191000000Y-102221700D01*
X161800000Y-77000000D02*
X161984372Y-77000000D01*
X227990000Y-112000000D02*
X227990000Y-110000000D01*
X166400000Y-74200000D02*
X171000000Y-74200000D01*
D57*
X192867500Y-84680000D02*
X192737500Y-84550000D01*
D58*
X204250000Y-101950000D02*
X206530000Y-99670000D01*
X179120800Y-114310000D02*
X180280000Y-113150800D01*
X183800000Y-75485000D02*
X189585000Y-75485000D01*
X211750000Y-99687500D02*
X224061500Y-99687500D01*
X126530000Y-80560000D02*
X126530000Y-78020000D01*
X227930000Y-94710000D02*
X227930000Y-91005000D01*
X161985372Y-76999000D02*
X163862500Y-76999000D01*
X192028300Y-103250000D02*
X196750000Y-103250000D01*
X224061500Y-99687500D02*
X227950000Y-95799000D01*
X173445500Y-113554500D02*
X174201000Y-114310000D01*
X191000000Y-91000000D02*
X191000000Y-97950000D01*
X195189000Y-81089000D02*
X195189000Y-85241000D01*
X191000000Y-102221700D02*
X192028300Y-103250000D01*
X189585000Y-75485000D02*
X195189000Y-81089000D01*
X161120000Y-77680000D02*
X161800000Y-77000000D01*
X227990000Y-118990000D02*
X227990000Y-112000000D01*
X171000000Y-74200000D02*
X173000000Y-76200000D01*
X159516000Y-76318000D02*
X159516000Y-74984000D01*
X162500000Y-72000000D02*
X180060000Y-72000000D01*
X175605000Y-114310000D02*
X179120800Y-114310000D01*
X180280000Y-113150800D02*
X186849200Y-113150800D01*
X205825000Y-106325000D02*
X206750000Y-106325000D01*
D57*
X227990000Y-94770000D02*
X227930000Y-94710000D01*
D58*
X186849200Y-113150800D02*
X196750000Y-103250000D01*
X184428500Y-91681000D02*
X190319000Y-91681000D01*
X180060000Y-72000000D02*
X183800000Y-68260000D01*
X159519000Y-76321000D02*
X159516000Y-76318000D01*
X195189000Y-86000000D02*
X195189000Y-86811000D01*
X195189000Y-85819000D02*
X193971000Y-84601000D01*
X165312500Y-75600000D02*
X165665000Y-75600000D01*
D57*
X227930000Y-91005000D02*
X227925000Y-91000000D01*
D58*
X163350000Y-86400000D02*
X167350000Y-82400000D01*
D61*
%TO.N,Net-(U7-CT)*%
X182210000Y-96170000D02*
X182210000Y-95225000D01*
X181887500Y-96780000D02*
X181887500Y-96492500D01*
X181887500Y-96492500D02*
X182210000Y-96170000D01*
D57*
%TO.N,Net-(U8-INTVCC)*%
X205949810Y-95850190D02*
X205300000Y-96500000D01*
X205300000Y-96500000D02*
X205250000Y-96500000D01*
X209682250Y-95850190D02*
X205949810Y-95850190D01*
%TO.N,Net-(U8-TR{slash}SS)*%
X214317750Y-96850950D02*
X216118450Y-96850950D01*
X216118450Y-96850950D02*
X216160000Y-96892500D01*
D60*
%TO.N,Net-(U9-SW1)*%
X216600000Y-75000000D02*
X216400000Y-74800000D01*
X214615000Y-81125000D02*
X215675000Y-81125000D01*
D58*
X216000000Y-74400000D02*
X216000000Y-71500000D01*
D59*
X217300000Y-70200000D02*
X216000000Y-71500000D01*
X218600000Y-70200000D02*
X217300000Y-70200000D01*
D58*
X216600000Y-80200000D02*
X216600000Y-75000000D01*
X216400000Y-74800000D02*
X216000000Y-74400000D01*
D59*
X215675000Y-81125000D02*
X216600000Y-80200000D01*
D57*
%TO.N,Net-(U9-BST1)*%
X218400000Y-73525000D02*
X218600000Y-73325000D01*
X216805000Y-82425000D02*
X214615000Y-82425000D01*
X216870948Y-82475000D02*
X216855000Y-82475000D01*
X216855000Y-82475000D02*
X216805000Y-82425000D01*
D59*
X218400000Y-78600000D02*
X218400000Y-73525000D01*
X217600000Y-79400000D02*
X218400000Y-78600000D01*
D60*
%TO.N,aud_sig_out_L+*%
X174900000Y-97900000D02*
X174900000Y-95060000D01*
X176200000Y-103462500D02*
X177076000Y-102586500D01*
X177076000Y-100076000D02*
X174900000Y-97900000D01*
X177076000Y-102586500D02*
X177076000Y-100076000D01*
X176037500Y-103300000D02*
X176200000Y-103462500D01*
X174530400Y-103300000D02*
X176037500Y-103300000D01*
D57*
%TO.N,aud_sig_out_L-*%
X172964000Y-95124000D02*
X172900000Y-95060000D01*
D60*
X172964000Y-100964000D02*
X173262500Y-101262500D01*
X173262500Y-101262500D02*
X174600000Y-101262500D01*
D57*
X172964000Y-100910000D02*
X172964000Y-100964000D01*
D60*
X172964000Y-100910000D02*
X172964000Y-95124000D01*
D59*
%TO.N,aud_sig_out_R-*%
X185862500Y-109262500D02*
X184200000Y-107600000D01*
X182200000Y-104583300D02*
X182200000Y-106800000D01*
X180290000Y-103749600D02*
X181366300Y-103749600D01*
X189000000Y-109262500D02*
X185862500Y-109262500D01*
X182200000Y-106800000D02*
X183000000Y-107600000D01*
X183000000Y-107600000D02*
X184200000Y-107600000D01*
X181366300Y-103749600D02*
X182200000Y-104583300D01*
%TO.N,aud_sig_out_R+*%
X186460800Y-103339200D02*
X186460800Y-101400000D01*
X184200000Y-105600000D02*
X186460800Y-103339200D01*
D57*
X186460800Y-101400000D02*
X186462500Y-101400000D01*
D59*
X186462500Y-101400000D02*
X189000000Y-103937500D01*
D57*
%TO.N,aud_in_left*%
X170655000Y-113040000D02*
X166682500Y-113040000D01*
X166682500Y-113040000D02*
X166675000Y-113032500D01*
X166675000Y-113032500D02*
X166147500Y-113032500D01*
X166147500Y-113032500D02*
X163645000Y-110530000D01*
%TO.N,aud_in_right*%
X173494636Y-112406000D02*
X174128636Y-113040000D01*
X174128636Y-113040000D02*
X175605000Y-113040000D01*
X163645000Y-108707500D02*
X163645000Y-108530000D01*
X167343500Y-112406000D02*
X173494636Y-112406000D01*
X167343500Y-112406000D02*
X166685000Y-111747500D01*
X166685000Y-111747500D02*
X163645000Y-108707500D01*
%TO.N,Net-(U9-VC)*%
X206952500Y-84317500D02*
X206022500Y-84317500D01*
X208885000Y-83725000D02*
X207547500Y-83725000D01*
X207547500Y-83725000D02*
X206952500Y-84320000D01*
X206022500Y-84317500D02*
X205962500Y-84257500D01*
%TO.N,Net-(U8-BST)*%
X204500000Y-97447500D02*
X203250000Y-98697500D01*
X205170190Y-95349810D02*
X204500000Y-96020000D01*
X209682250Y-95349810D02*
X205170190Y-95349810D01*
X204500000Y-96020000D02*
X204500000Y-97447500D01*
%TO.N,Net-(C31-Pad2)*%
X209682250Y-94882250D02*
X209709110Y-94909110D01*
X209709110Y-94909110D02*
X209740000Y-94909110D01*
X209682250Y-94849430D02*
X209682250Y-94882250D01*
%TO.N,Net-(C33-Pad2)*%
X204840000Y-86707500D02*
X204840000Y-84270000D01*
X204840000Y-84270000D02*
X204827500Y-84257500D01*
%TO.N,Net-(U9-LDO)*%
X214980000Y-86300000D02*
X215700000Y-86300000D01*
X215700000Y-86300000D02*
X216200000Y-85800000D01*
X216310358Y-83725000D02*
X216402422Y-83817064D01*
X214980000Y-86300000D02*
X214980000Y-85390000D01*
X214615000Y-83725000D02*
X216310358Y-83725000D01*
X214980000Y-85390000D02*
X214615000Y-85025000D01*
D59*
%TO.N,Net-(D1-A)*%
X206750000Y-104500000D02*
X207000000Y-104750000D01*
X207000000Y-104750000D02*
X208650000Y-104750000D01*
%TO.N,Net-(D2-A)*%
X241219970Y-74068099D02*
X240994970Y-73843099D01*
X242744970Y-74068099D02*
X241219970Y-74068099D01*
%TO.N,Net-(D3-A)*%
X200480000Y-67990000D02*
X200480000Y-66590000D01*
X200230000Y-68240000D02*
X200480000Y-67990000D01*
D58*
%TO.N,Net-(U1-VOUT)*%
X190462500Y-84550000D02*
X188875000Y-84550000D01*
X184285000Y-84925000D02*
X181800000Y-82440000D01*
X188500000Y-84925000D02*
X184285000Y-84925000D01*
X188875000Y-84550000D02*
X188500000Y-84925000D01*
D59*
%TO.N,Net-(U2-VOUT)*%
X192000000Y-73800000D02*
X190125000Y-71925000D01*
X193430000Y-76305000D02*
X192705000Y-76305000D01*
D57*
X193430000Y-76305000D02*
X193867500Y-76305000D01*
D59*
X192000000Y-75600000D02*
X192000000Y-73800000D01*
X193867500Y-76305000D02*
X195222500Y-74950000D01*
X192705000Y-76305000D02*
X192000000Y-75600000D01*
D57*
X193430000Y-76305000D02*
X193425000Y-76300000D01*
%TO.N,Net-(U1-EN{slash}UVLO)*%
X192770000Y-82617500D02*
X192737500Y-82650000D01*
X192737500Y-82650000D02*
X189407501Y-79320001D01*
X186799999Y-79320001D02*
X186000000Y-80120000D01*
X186000000Y-80120000D02*
X181800000Y-75920000D01*
X181800000Y-75920000D02*
X181800000Y-75485000D01*
X189407501Y-79320001D02*
X186799999Y-79320001D01*
%TO.N,pi_2nd_disp*%
X126530000Y-98340000D02*
X122912000Y-94722000D01*
X152779000Y-94101000D02*
X155534000Y-91346000D01*
X162200000Y-83550000D02*
X163350000Y-82400000D01*
X155534000Y-91346000D02*
X155534000Y-72504700D01*
X122912000Y-71376700D02*
X122994350Y-71294350D01*
X162200000Y-86800000D02*
X162200000Y-83550000D01*
X155534000Y-91346000D02*
X155360000Y-91520000D01*
X124812700Y-69476000D02*
X122994350Y-71294350D01*
X152505300Y-69476000D02*
X124812700Y-69476000D01*
X155534000Y-72504700D02*
X152505300Y-69476000D01*
X122912000Y-94722000D02*
X122912000Y-71376700D01*
D59*
%TO.N,Net-(U2-EN{slash}UVLO)*%
X183860000Y-66200000D02*
X181800000Y-68260000D01*
X197880000Y-67700000D02*
X196380000Y-66200000D01*
X197497500Y-73050000D02*
X197880000Y-72667500D01*
X196380000Y-66200000D02*
X183860000Y-66200000D01*
X197880000Y-72667500D02*
X197880000Y-67700000D01*
%TO.N,Net-(U3-VOUT)*%
X174510000Y-81597500D02*
X169000000Y-76087500D01*
X174510000Y-82400000D02*
X174510000Y-81597500D01*
X166137500Y-77050000D02*
X168037500Y-77050000D01*
X168037500Y-77050000D02*
X169000000Y-76087500D01*
%TO.N,Net-(U3-EN{slash}UVLO)*%
X165350000Y-82400000D02*
X165350000Y-80437500D01*
X165350000Y-80437500D02*
X163862500Y-78950000D01*
D57*
X168000000Y-81200000D02*
X166550000Y-81200000D01*
X171120000Y-84320000D02*
X168000000Y-81200000D01*
X166550000Y-81200000D02*
X165350000Y-82400000D01*
X171120000Y-86400000D02*
X171120000Y-84320000D01*
%TO.N,Net-(J15-GPIO18{slash}SPI1_~{CE0}{slash}PCM_CLK{slash}PWM0)*%
X152173100Y-70278000D02*
X154732000Y-72836900D01*
X123714000Y-71708900D02*
X125144900Y-70278000D01*
X125144900Y-70278000D02*
X152173100Y-70278000D01*
X154732000Y-72836900D02*
X154732000Y-84528000D01*
X126530000Y-90720000D02*
X123714000Y-87904000D01*
X154732000Y-84528000D02*
X152779000Y-86481000D01*
X123714000Y-87904000D02*
X123714000Y-71708900D01*
%TO.N,pi_1st_disp*%
X158623265Y-127866735D02*
X156387000Y-130103000D01*
X148573800Y-129800000D02*
X148560000Y-129800000D01*
X156387000Y-130103000D02*
X148876800Y-130103000D01*
X158976735Y-127513265D02*
X158976735Y-127514678D01*
X163900000Y-73420000D02*
X159216000Y-78104000D01*
X163972000Y-71172000D02*
X176828000Y-71172000D01*
X148876800Y-130103000D02*
X148573800Y-129800000D01*
X159216000Y-78104000D02*
X159216000Y-116171100D01*
X159159265Y-126159265D02*
X159159265Y-127330735D01*
X141501000Y-119501000D02*
X137539000Y-119501000D01*
X158976735Y-127514678D02*
X158624678Y-127866735D01*
X146470000Y-127710000D02*
X146470000Y-127696200D01*
X158624678Y-127866735D02*
X158623265Y-127866735D01*
X159210000Y-122710000D02*
X159500000Y-123000000D01*
X179740000Y-68260000D02*
X179800000Y-68260000D01*
X145859000Y-123859000D02*
X141501000Y-119501000D01*
X159159265Y-127330735D02*
X158976735Y-127513265D01*
X159216000Y-116171100D02*
X159210000Y-116177100D01*
X163900000Y-71100000D02*
X163972000Y-71172000D01*
X145859000Y-127085200D02*
X145859000Y-123859000D01*
X159210000Y-116177100D02*
X159210000Y-122710000D01*
X146470000Y-127696200D02*
X145859000Y-127085200D01*
X176828000Y-71172000D02*
X179740000Y-68260000D01*
X148560000Y-129800000D02*
X146470000Y-127710000D01*
%TO.N,pi_leds*%
X124646600Y-69075000D02*
X152671400Y-69075000D01*
X157724265Y-67875735D02*
X160848530Y-71000000D01*
X154975735Y-71324265D02*
X154975735Y-70724265D01*
X122511000Y-99401000D02*
X122511000Y-71210600D01*
X154948200Y-71351800D02*
X154975735Y-71324265D01*
X152671400Y-69075000D02*
X154948200Y-71351800D01*
X155960000Y-72363600D02*
X155960000Y-96000000D01*
X163400000Y-72700000D02*
X177015000Y-72700000D01*
X177015000Y-72700000D02*
X179800000Y-75485000D01*
X162900000Y-73200000D02*
X163400000Y-72700000D01*
X122511000Y-71210600D02*
X122580800Y-71140800D01*
X126530000Y-103420000D02*
X122511000Y-99401000D01*
X160848530Y-71000000D02*
X162800000Y-71000000D01*
X154948200Y-71351800D02*
X155960000Y-72363600D01*
X122580800Y-71140800D02*
X124646600Y-69075000D01*
X155960000Y-96000000D02*
X152779000Y-99181000D01*
%TO.N,Net-(J15-GPIO21{slash}SPI1_SCLK{slash}PCM_DOUT)*%
X119109000Y-118859000D02*
X126530000Y-126280000D01*
X155671000Y-66671000D02*
X158815000Y-69815000D01*
X119776699Y-71868635D02*
X119109000Y-72536334D01*
X123885885Y-67285885D02*
X124500770Y-66671000D01*
X123885885Y-67285885D02*
X123885885Y-67336885D01*
X120708000Y-71868635D02*
X119776699Y-71868635D01*
X158815000Y-69815000D02*
X158815000Y-116005000D01*
X158815000Y-116005000D02*
X152779000Y-122041000D01*
X124500770Y-66671000D02*
X155671000Y-66671000D01*
X119109000Y-72536334D02*
X119109000Y-118859000D01*
%TO.N,Net-(J15-GPIO12{slash}PWM0)*%
X157612000Y-70313300D02*
X157612000Y-107048000D01*
X155789383Y-68490683D02*
X157612000Y-70313300D01*
X154652815Y-68490683D02*
X155789383Y-68490683D01*
X157612000Y-107048000D02*
X152779000Y-111881000D01*
%TO.N,Net-(J15-GPIO15{slash}UART_RXD)*%
X154331000Y-73003000D02*
X154331000Y-82389000D01*
X124115000Y-71875000D02*
X124125000Y-71865000D01*
X125311000Y-70679000D02*
X152007000Y-70679000D01*
X154331000Y-82389000D02*
X152779000Y-83941000D01*
X152007000Y-70679000D02*
X154331000Y-73003000D01*
X124125000Y-71865000D02*
X125311000Y-70679000D01*
X126530000Y-88180000D02*
X124115000Y-85765000D01*
X124115000Y-85765000D02*
X124115000Y-71875000D01*
%TO.N,Net-(J15-~{CE0}_SPI0{slash}GPIO08)*%
X156361000Y-98139000D02*
X152779000Y-101721000D01*
X154165500Y-70002000D02*
X155102000Y-70002000D01*
X122110000Y-101540000D02*
X122110000Y-71044500D01*
X124480500Y-68674000D02*
X152837500Y-68674000D01*
X152837500Y-68674000D02*
X154165500Y-70002000D01*
X122110000Y-71044500D02*
X124480500Y-68674000D01*
X126530000Y-105960000D02*
X122110000Y-101540000D01*
X156361000Y-71261000D02*
X156361000Y-98139000D01*
X155102000Y-70002000D02*
X156361000Y-71261000D01*
%TO.N,SCL*%
X146689000Y-126781000D02*
X146689000Y-88011000D01*
X149209000Y-129301000D02*
X146689000Y-126781000D01*
X129070000Y-83100000D02*
X133330000Y-78840000D01*
X139239000Y-80561000D02*
X137539000Y-78861000D01*
X137539000Y-78861000D02*
X137609000Y-78861000D01*
X233010000Y-94710000D02*
X233010000Y-97490000D01*
X133351000Y-78861000D02*
X137539000Y-78861000D01*
X230000000Y-111250000D02*
X233070000Y-114320000D01*
X146689000Y-88011000D02*
X139239000Y-80561000D01*
X233010000Y-97490000D02*
X230000000Y-100500000D01*
X137609000Y-78861000D02*
X137689000Y-78781000D01*
X160410000Y-124060000D02*
X155169000Y-129301000D01*
X155169000Y-129301000D02*
X149209000Y-129301000D01*
X228000000Y-124060000D02*
X160410000Y-124060000D01*
X230000000Y-100500000D02*
X230000000Y-111250000D01*
X133330000Y-78840000D02*
X133351000Y-78861000D01*
X233070000Y-118990000D02*
X228000000Y-124060000D01*
X233070000Y-114320000D02*
X233070000Y-118990000D01*
%TO.N,Net-(J15-GPIO23{slash}SDIO_CMD)*%
X155133000Y-89207000D02*
X152779000Y-91561000D01*
X155133000Y-72670800D02*
X155133000Y-89207000D01*
X123313000Y-71542800D02*
X124978800Y-69877000D01*
X152339200Y-69877000D02*
X155133000Y-72670800D01*
X126530000Y-95800000D02*
X123313000Y-92583000D01*
X124978800Y-69877000D02*
X152339200Y-69877000D01*
X123313000Y-92583000D02*
X123313000Y-71542800D01*
%TO.N,Net-(J15-ID_SC_I2C0{slash}GPIO01)*%
X157211000Y-70479400D02*
X155623283Y-68891683D01*
X154497700Y-69200000D02*
X153169700Y-67872000D01*
X121308000Y-70712300D02*
X121308000Y-105818000D01*
X121308000Y-105818000D02*
X126530000Y-111040000D01*
X124148300Y-67872000D02*
X121308000Y-70712300D01*
X153169700Y-67872000D02*
X124148300Y-67872000D01*
X157211000Y-102369000D02*
X157211000Y-70479400D01*
X155101758Y-68891683D02*
X154793441Y-69200000D01*
X154793441Y-69200000D02*
X154497700Y-69200000D01*
X155623283Y-68891683D02*
X155101758Y-68891683D01*
X152779000Y-106801000D02*
X157211000Y-102369000D01*
%TO.N,SDA*%
X239000000Y-111000000D02*
X239000000Y-101000000D01*
X147090000Y-85872000D02*
X147090000Y-126614900D01*
X155002900Y-128900000D02*
X160262900Y-123640000D01*
X227560000Y-123640000D02*
X228000000Y-123200000D01*
X129070000Y-80560000D02*
X133315000Y-76315000D01*
X239000000Y-101000000D02*
X235550000Y-97550000D01*
X160262900Y-123640000D02*
X227560000Y-123640000D01*
X133351000Y-76321000D02*
X137539000Y-76321000D01*
X235610000Y-114390000D02*
X239000000Y-111000000D01*
X133330000Y-76300000D02*
X133351000Y-76321000D01*
X149375100Y-128900000D02*
X155002900Y-128900000D01*
X229800000Y-123200000D02*
X231400000Y-123200000D01*
X137539000Y-76321000D02*
X147090000Y-85872000D01*
X235610000Y-118990000D02*
X235610000Y-114390000D01*
X235550000Y-97550000D02*
X235550000Y-94710000D01*
X231400000Y-123200000D02*
X235610000Y-118990000D01*
X147090000Y-126614900D02*
X149375100Y-128900000D01*
%TO.N,Net-(J15-~{CE1}_SPI0{slash}GPIO07)*%
X121768700Y-70818700D02*
X124314400Y-68273000D01*
X154959541Y-69601000D02*
X155267858Y-69292683D01*
X154331600Y-69601000D02*
X154959541Y-69601000D01*
X155267858Y-69292683D02*
X155457183Y-69292683D01*
X121709000Y-103679000D02*
X121709000Y-70878400D01*
X155457183Y-69292683D02*
X156810000Y-70645500D01*
X156810000Y-70645500D02*
X156810000Y-100230000D01*
X124314400Y-68273000D02*
X153003600Y-68273000D01*
X153003600Y-68273000D02*
X154331600Y-69601000D01*
X126530000Y-108500000D02*
X121709000Y-103679000D01*
X121709000Y-70878400D02*
X121768700Y-70818700D01*
X156810000Y-100230000D02*
X152779000Y-104261000D01*
%TO.N,Net-(J15-GPIO14{slash}UART_TXD)*%
X124520000Y-72052240D02*
X125492240Y-71080000D01*
X125492240Y-71080000D02*
X151808000Y-71080000D01*
X126530000Y-85640000D02*
X124520000Y-83630000D01*
X153930000Y-80250000D02*
X152779000Y-81401000D01*
X124520000Y-83630000D02*
X124520000Y-72052240D01*
X153930000Y-73202000D02*
X153930000Y-80250000D01*
X151808000Y-71080000D02*
X153930000Y-73202000D01*
%TO.N,pi_spkrs*%
X159611000Y-121641000D02*
X159611000Y-116343200D01*
X146260000Y-126919100D02*
X149042900Y-129702000D01*
X166700000Y-91060000D02*
X167350000Y-90410000D01*
X137539000Y-89021000D02*
X146260000Y-97742000D01*
X155488000Y-129702000D02*
X157040000Y-128150000D01*
X157924265Y-127265735D02*
X158375735Y-127265735D01*
X159617000Y-116337200D02*
X159617000Y-92863000D01*
X149042900Y-129702000D02*
X155488000Y-129702000D01*
X159617000Y-92863000D02*
X161420000Y-91060000D01*
X161420000Y-91060000D02*
X166700000Y-91060000D01*
X160370000Y-122400000D02*
X159611000Y-121641000D01*
X157040000Y-128150000D02*
X157924265Y-127265735D01*
X159611000Y-116343200D02*
X159617000Y-116337200D01*
X146260000Y-97742000D02*
X146260000Y-123170000D01*
X146260000Y-123170000D02*
X146260000Y-126919100D01*
X167350000Y-90410000D02*
X167350000Y-89360000D01*
D60*
%TO.N,Net-(U7-EN{slash}UVLO)*%
X182210000Y-92950000D02*
X181250000Y-91990000D01*
X166407520Y-92931000D02*
X169538520Y-89800000D01*
X164151000Y-90559000D02*
X165350000Y-89360000D01*
X162329000Y-92931000D02*
X166407520Y-92931000D01*
X161021000Y-90559000D02*
X164151000Y-90559000D01*
X162230000Y-93030000D02*
X162329000Y-92931000D01*
X169538520Y-89800000D02*
X171140000Y-89800000D01*
X176660000Y-89800000D02*
X171140000Y-89800000D01*
X178850000Y-91990000D02*
X176660000Y-89800000D01*
X181250000Y-91990000D02*
X178850000Y-91990000D01*
X159860000Y-91720000D02*
X161021000Y-90559000D01*
D57*
%TO.N,Net-(U7-QOD)*%
X183267500Y-97050000D02*
X183160000Y-96942500D01*
D61*
X183160000Y-96942500D02*
X183160000Y-95225000D01*
D57*
%TO.N,Net-(J15-GPIO16{slash}SPI1_~{CE2})*%
X126070000Y-121200000D02*
X126530000Y-121200000D01*
X120270666Y-73074554D02*
X120071931Y-73273289D01*
X158013000Y-111727000D02*
X152779000Y-116961000D01*
X155022077Y-67781000D02*
X155646800Y-67781000D01*
X120611873Y-73074554D02*
X120270666Y-73074554D01*
X120150000Y-115280000D02*
X126070000Y-121200000D01*
X120071931Y-115201931D02*
X120150000Y-115280000D01*
X158013000Y-70147200D02*
X158013000Y-111727000D01*
X120071931Y-73273289D02*
X120071931Y-115201931D01*
X155646800Y-67781000D02*
X158013000Y-70147200D01*
%TO.N,Net-(J15-GPIO20{slash}SPI1_MOSI{slash}PCM_DIN{slash}PWM1)*%
X124863927Y-67214073D02*
X124863927Y-67272000D01*
X125920000Y-123740000D02*
X120055000Y-117875000D01*
X124897000Y-67181000D02*
X124863927Y-67214073D01*
X158414000Y-69981100D02*
X155613900Y-67181000D01*
X119510000Y-72985277D02*
X119510000Y-117330000D01*
X152779000Y-119501000D02*
X158414000Y-113866000D01*
X119510000Y-117330000D02*
X120055000Y-117875000D01*
X158414000Y-113866000D02*
X158414000Y-69981100D01*
X126530000Y-123740000D02*
X125920000Y-123740000D01*
X155613900Y-67181000D02*
X124897000Y-67181000D01*
X119822988Y-72672289D02*
X119510000Y-72985277D01*
D60*
%TO.N,Net-(U6-+OUT_L)*%
X170655000Y-105420000D02*
X170655000Y-103314600D01*
D57*
X170655000Y-103314600D02*
X170669600Y-103300000D01*
D59*
%TO.N,Net-(U6--OUT_L)*%
X170655000Y-107960000D02*
X169680001Y-107960000D01*
X169103200Y-107383199D02*
X169103200Y-100910000D01*
X169680001Y-107960000D02*
X169103200Y-107383199D01*
D60*
%TO.N,Net-(U6--OUT_R)*%
X175605000Y-107960000D02*
X179940400Y-107960000D01*
X179940400Y-107960000D02*
X180290000Y-107610400D01*
D59*
%TO.N,Net-(U6-+OUT_R)*%
X177400000Y-104600000D02*
X177400000Y-105000000D01*
X177400000Y-104600000D02*
X177400000Y-103600000D01*
X179600000Y-101400000D02*
X182600000Y-101400000D01*
X177400000Y-103600000D02*
X179600000Y-101400000D01*
X177400000Y-105000000D02*
X176980000Y-105420000D01*
X176980000Y-105420000D02*
X175605000Y-105420000D01*
D57*
%TO.N,Net-(U1-QOD)*%
X190462500Y-83600000D02*
X189000000Y-83600000D01*
X189000000Y-83600000D02*
X188500000Y-83100000D01*
%TO.N,Net-(U2-QOD)*%
X193910000Y-74000000D02*
X195222500Y-74000000D01*
X193430000Y-74480000D02*
X193910000Y-74000000D01*
%TO.N,Net-(U3-QOD)*%
X169000000Y-77912500D02*
X166225000Y-77912500D01*
X166225000Y-77912500D02*
X166137500Y-78000000D01*
%TO.N,Net-(U8-RT)*%
X215327420Y-96350570D02*
X216610490Y-95067500D01*
X216610490Y-95067500D02*
X217400000Y-95067500D01*
X214317750Y-96350570D02*
X215327420Y-96350570D01*
%TO.N,Net-(U9-FB)*%
X207670000Y-87620000D02*
X206350000Y-88940000D01*
X207670000Y-84693000D02*
X207670000Y-87620000D01*
X207670000Y-84693000D02*
X207988000Y-84375000D01*
X206350000Y-88940000D02*
X209250000Y-88940000D01*
X209250000Y-88940000D02*
X211590000Y-86600000D01*
X207988000Y-84375000D02*
X208885000Y-84375000D01*
X211510000Y-86600000D02*
X211590000Y-86600000D01*
D61*
%TO.N,aud_control*%
X185092500Y-97050000D02*
X185092500Y-96207500D01*
D57*
X179789800Y-102200000D02*
X180000000Y-102200000D01*
X181650000Y-99000000D02*
X183142500Y-99000000D01*
X178600000Y-103389800D02*
X179789800Y-102200000D01*
X177400000Y-107260000D02*
X178600000Y-106060000D01*
X183142500Y-99000000D02*
X185092500Y-97050000D01*
X180000000Y-100650000D02*
X181650000Y-99000000D01*
X177040000Y-110500000D02*
X177340000Y-110200000D01*
X178600000Y-106060000D02*
X178600000Y-103389800D01*
X175605000Y-110500000D02*
X177040000Y-110500000D01*
D61*
X185092500Y-96207500D02*
X184110000Y-95225000D01*
D57*
X185092500Y-97107500D02*
X185092500Y-97050000D01*
%TO.N,Net-(J15-GPIO12{slash}PWM0)*%
X120672068Y-73872289D02*
X120672068Y-110262068D01*
X120672068Y-110262068D02*
X126530000Y-116120000D01*
%TD*%
%TA.AperFunction,Conductor*%
%TO.N,Net-(J1-Pad1)*%
G36*
X233142734Y-125249852D02*
G01*
X233188643Y-125302521D01*
X233200000Y-125354363D01*
X233200000Y-132676000D01*
X233180315Y-132743039D01*
X233127511Y-132788794D01*
X233076000Y-132800000D01*
X228324000Y-132800000D01*
X228256961Y-132780315D01*
X228211206Y-132727511D01*
X228200000Y-132676000D01*
X228200000Y-128185043D01*
X228219685Y-128118004D01*
X228261070Y-128082143D01*
X228260000Y-128070000D01*
X208174174Y-128285088D01*
X208106927Y-128266122D01*
X208060610Y-128213811D01*
X208048846Y-128161095D01*
X208048846Y-127793647D01*
X208068531Y-127726608D01*
X208073574Y-127719343D01*
X208093796Y-127692331D01*
X208144091Y-127557483D01*
X208150500Y-127497873D01*
X208150499Y-126102135D01*
X213629500Y-126102135D01*
X213629500Y-127497870D01*
X213629501Y-127497876D01*
X213635908Y-127557483D01*
X213686202Y-127692328D01*
X213686206Y-127692335D01*
X213772452Y-127807544D01*
X213772455Y-127807547D01*
X213887664Y-127893793D01*
X213887671Y-127893797D01*
X214022517Y-127944091D01*
X214022516Y-127944091D01*
X214029444Y-127944835D01*
X214082127Y-127950500D01*
X215477872Y-127950499D01*
X215537483Y-127944091D01*
X215672331Y-127893796D01*
X215787546Y-127807546D01*
X215873796Y-127692331D01*
X215924091Y-127557483D01*
X215930500Y-127497873D01*
X215930499Y-126102128D01*
X215924091Y-126042517D01*
X215873796Y-125907669D01*
X215873795Y-125907668D01*
X215873793Y-125907664D01*
X215787547Y-125792455D01*
X215787544Y-125792452D01*
X215672335Y-125706206D01*
X215672328Y-125706202D01*
X215537482Y-125655908D01*
X215537483Y-125655908D01*
X215477883Y-125649501D01*
X215477881Y-125649500D01*
X215477873Y-125649500D01*
X215477864Y-125649500D01*
X214082129Y-125649500D01*
X214082123Y-125649501D01*
X214022516Y-125655908D01*
X213887671Y-125706202D01*
X213887664Y-125706206D01*
X213772455Y-125792452D01*
X213772452Y-125792455D01*
X213686206Y-125907664D01*
X213686202Y-125907671D01*
X213635908Y-126042517D01*
X213629501Y-126102116D01*
X213629501Y-126102123D01*
X213629500Y-126102135D01*
X208150499Y-126102135D01*
X208150499Y-126102128D01*
X208144091Y-126042517D01*
X208093796Y-125907669D01*
X208093795Y-125907668D01*
X208093793Y-125907664D01*
X208073579Y-125880661D01*
X208049162Y-125815197D01*
X208048846Y-125806351D01*
X208048846Y-125427332D01*
X208068531Y-125360293D01*
X208121335Y-125314538D01*
X208172479Y-125303333D01*
X233075638Y-125230364D01*
X233142734Y-125249852D01*
G37*
%TD.AperFunction*%
%TD*%
%TA.AperFunction,Conductor*%
%TO.N,16.8v*%
G36*
X236943039Y-66669685D02*
G01*
X236988794Y-66722489D01*
X237000000Y-66774000D01*
X237000000Y-72365739D01*
X236982411Y-72429400D01*
X234150000Y-77163888D01*
X234150000Y-82390385D01*
X234149999Y-82390385D01*
X237222585Y-85344794D01*
X239311945Y-87353794D01*
X239346626Y-87414448D01*
X239350000Y-87443176D01*
X239350000Y-94194830D01*
X239343931Y-94233148D01*
X239294714Y-94384623D01*
X239260500Y-94600638D01*
X239260500Y-94776000D01*
X239240815Y-94843039D01*
X239188011Y-94888794D01*
X239136500Y-94900000D01*
X237083500Y-94900000D01*
X237016461Y-94880315D01*
X236970706Y-94827511D01*
X236959500Y-94776000D01*
X236959500Y-94600638D01*
X236939595Y-94474971D01*
X236925286Y-94384625D01*
X236857701Y-94176617D01*
X236857701Y-94176616D01*
X236771560Y-94007557D01*
X236758049Y-93950211D01*
X236800000Y-89000000D01*
X230835514Y-82836698D01*
X230803040Y-82774835D01*
X230800632Y-82748932D01*
X230805073Y-82390385D01*
X230936223Y-71800000D01*
X231800000Y-71800000D01*
X231800000Y-68600000D01*
X230975755Y-68607703D01*
X230998483Y-66772462D01*
X231018996Y-66705674D01*
X231072362Y-66660576D01*
X231122473Y-66650000D01*
X236876000Y-66650000D01*
X236943039Y-66669685D01*
G37*
%TD.AperFunction*%
%TD*%
%TA.AperFunction,Conductor*%
%TO.N,16.8v*%
G36*
X213792891Y-84116276D02*
G01*
X213796769Y-84118867D01*
X213796770Y-84118868D01*
X213800000Y-84119510D01*
X213800000Y-84630488D01*
X213796770Y-84631131D01*
X213796765Y-84631134D01*
X213792886Y-84633726D01*
X213726208Y-84654601D01*
X213658829Y-84636114D01*
X213612141Y-84584133D01*
X213600000Y-84530621D01*
X213600000Y-84219378D01*
X213619685Y-84152339D01*
X213672489Y-84106584D01*
X213741647Y-84096640D01*
X213792891Y-84116276D01*
G37*
%TD.AperFunction*%
%TA.AperFunction,Conductor*%
G36*
X231800000Y-71800000D02*
G01*
X222200000Y-71800000D01*
X221400001Y-75999994D01*
X221399998Y-76000013D01*
X220800000Y-82299979D01*
X220800000Y-82200000D01*
X217600000Y-82200000D01*
X217600000Y-84000000D01*
X216871560Y-84000000D01*
X216902922Y-83882956D01*
X216902922Y-83751172D01*
X216868814Y-83623878D01*
X216802922Y-83509750D01*
X216733983Y-83440811D01*
X216700498Y-83379488D01*
X216705482Y-83309796D01*
X216714278Y-83291129D01*
X216756389Y-83218191D01*
X216756388Y-83218191D01*
X216756392Y-83218186D01*
X216790500Y-83090892D01*
X216790500Y-83090884D01*
X216791498Y-83083310D01*
X216819767Y-83019415D01*
X216878093Y-82980946D01*
X216914437Y-82975500D01*
X216936838Y-82975500D01*
X216936840Y-82975500D01*
X217064134Y-82941392D01*
X217178262Y-82875500D01*
X217271448Y-82782314D01*
X217337340Y-82668186D01*
X217371448Y-82540892D01*
X217371448Y-82409108D01*
X217337340Y-82281814D01*
X217271448Y-82167686D01*
X217178262Y-82074500D01*
X217103150Y-82031134D01*
X217064135Y-82008608D01*
X216972791Y-81984133D01*
X216936840Y-81974500D01*
X216805056Y-81974500D01*
X216677760Y-82008608D01*
X216563634Y-82074500D01*
X216563631Y-82074502D01*
X216549953Y-82088181D01*
X216488630Y-82121666D01*
X216462272Y-82124500D01*
X215598607Y-82124500D01*
X215531568Y-82104815D01*
X215509315Y-82082955D01*
X215508188Y-82084083D01*
X215499553Y-82075448D01*
X215433230Y-82031132D01*
X215433229Y-82031131D01*
X215374752Y-82019500D01*
X215374748Y-82019500D01*
X213855252Y-82019500D01*
X213855247Y-82019500D01*
X213796770Y-82031131D01*
X213796765Y-82031134D01*
X213792886Y-82033726D01*
X213726208Y-82054601D01*
X213658829Y-82036114D01*
X213612141Y-81984133D01*
X213600000Y-81930621D01*
X213600000Y-81619378D01*
X213619685Y-81552339D01*
X213672489Y-81506584D01*
X213741647Y-81496640D01*
X213792891Y-81516276D01*
X213796769Y-81518867D01*
X213796770Y-81518868D01*
X213855247Y-81530499D01*
X213855250Y-81530500D01*
X213855252Y-81530500D01*
X215374749Y-81530500D01*
X215374749Y-81530499D01*
X215387905Y-81527883D01*
X215412097Y-81525500D01*
X215434461Y-81525500D01*
X215496462Y-81542114D01*
X215501112Y-81544799D01*
X215501114Y-81544800D01*
X215571233Y-81563587D01*
X215615691Y-81575499D01*
X215615694Y-81575499D01*
X215734306Y-81575499D01*
X215734309Y-81575499D01*
X215804429Y-81556710D01*
X215848885Y-81544800D01*
X215848887Y-81544799D01*
X215951614Y-81485489D01*
X216600404Y-80836698D01*
X216661725Y-80803215D01*
X216671901Y-80801441D01*
X216679045Y-80800500D01*
X216679057Y-80800500D01*
X216831784Y-80759577D01*
X216968716Y-80680520D01*
X217080520Y-80568716D01*
X217085530Y-80560037D01*
X217163641Y-80424746D01*
X217165392Y-80425757D01*
X217200023Y-80381800D01*
X219100000Y-79000000D01*
X221372646Y-68793373D01*
X221406430Y-68732217D01*
X221467916Y-68699032D01*
X221492515Y-68696331D01*
X231800000Y-68600000D01*
X231800000Y-71800000D01*
G37*
%TD.AperFunction*%
%TD*%
%TA.AperFunction,Conductor*%
%TO.N,16.8v*%
G36*
X220800000Y-82299982D02*
G01*
X220800000Y-90348638D01*
X220780315Y-90415677D01*
X220763681Y-90436319D01*
X219600000Y-91599999D01*
X219600000Y-95476000D01*
X219580315Y-95543039D01*
X219527511Y-95588794D01*
X219476000Y-95600000D01*
X218524000Y-95600000D01*
X218456961Y-95580315D01*
X218411206Y-95527511D01*
X218400000Y-95476000D01*
X218400000Y-94200000D01*
X217000000Y-94200000D01*
X216999999Y-94200000D01*
X215236319Y-95963681D01*
X215174996Y-95997166D01*
X215148638Y-96000000D01*
X213724000Y-96000000D01*
X213656961Y-95980315D01*
X213611206Y-95927511D01*
X213600000Y-95876000D01*
X213600000Y-94813250D01*
X213619685Y-94746211D01*
X213672489Y-94700456D01*
X213724000Y-94689250D01*
X215105850Y-94689250D01*
X215105851Y-94689249D01*
X215120668Y-94686302D01*
X215164329Y-94677618D01*
X215164329Y-94677617D01*
X215164331Y-94677617D01*
X215230652Y-94633302D01*
X215274967Y-94566981D01*
X215277740Y-94553036D01*
X215310124Y-94491126D01*
X215312095Y-94489130D01*
X216008845Y-93800000D01*
X216008845Y-91324000D01*
X216028530Y-91256961D01*
X216081334Y-91211206D01*
X216132845Y-91200000D01*
X217000000Y-91200000D01*
X217000000Y-88147696D01*
X217019685Y-88080657D01*
X217036319Y-88060015D01*
X217264550Y-87831784D01*
X217778727Y-87317606D01*
X217840048Y-87284123D01*
X217909739Y-87289107D01*
X217927844Y-87297636D01*
X217928204Y-87297785D01*
X217928211Y-87297789D01*
X218055505Y-87331897D01*
X218055507Y-87331897D01*
X218187287Y-87331897D01*
X218187289Y-87331897D01*
X218314583Y-87297789D01*
X218428711Y-87231897D01*
X218521897Y-87138711D01*
X218587789Y-87024583D01*
X218621897Y-86897289D01*
X218621897Y-86765505D01*
X218587789Y-86638211D01*
X218521897Y-86524083D01*
X218428711Y-86430897D01*
X218371647Y-86397951D01*
X218314584Y-86365005D01*
X218250936Y-86347951D01*
X218187289Y-86330897D01*
X218055505Y-86330897D01*
X217928209Y-86365005D01*
X217814083Y-86430897D01*
X217814080Y-86430899D01*
X217720899Y-86524080D01*
X217720894Y-86524086D01*
X217712330Y-86538920D01*
X217666949Y-86584301D01*
X217655459Y-86590935D01*
X217655453Y-86590939D01*
X217211681Y-87034712D01*
X217150358Y-87068197D01*
X217080666Y-87063213D01*
X217024733Y-87021341D01*
X217000316Y-86955877D01*
X217000000Y-86947031D01*
X217000000Y-84800000D01*
X215649055Y-84800000D01*
X215582016Y-84780315D01*
X215545953Y-84744891D01*
X215499552Y-84675447D01*
X215433230Y-84631132D01*
X215433229Y-84631131D01*
X215374752Y-84619500D01*
X215374748Y-84619500D01*
X213855252Y-84619500D01*
X213855247Y-84619500D01*
X213800000Y-84630488D01*
X213800000Y-84119510D01*
X213855247Y-84130499D01*
X213855250Y-84130500D01*
X213855252Y-84130500D01*
X215374750Y-84130500D01*
X215374751Y-84130499D01*
X215389568Y-84127552D01*
X215433229Y-84118868D01*
X215433229Y-84118867D01*
X215433231Y-84118867D01*
X215499552Y-84074552D01*
X215499553Y-84074551D01*
X215508188Y-84065917D01*
X215510417Y-84068146D01*
X215549113Y-84035806D01*
X215598607Y-84025500D01*
X215873243Y-84025500D01*
X215940282Y-84045185D01*
X215980630Y-84087500D01*
X216001919Y-84124374D01*
X216001921Y-84124377D01*
X216001922Y-84124378D01*
X216095108Y-84217564D01*
X216209236Y-84283456D01*
X216336530Y-84317564D01*
X216336532Y-84317564D01*
X216468312Y-84317564D01*
X216468314Y-84317564D01*
X216595608Y-84283456D01*
X216709736Y-84217564D01*
X216802922Y-84124378D01*
X216868814Y-84010250D01*
X216871560Y-84000000D01*
X217600000Y-84000000D01*
X217600000Y-82200000D01*
X220800000Y-82200000D01*
X220800000Y-82299982D01*
G37*
%TD.AperFunction*%
%TD*%
%TA.AperFunction,Conductor*%
%TO.N,Net-(C31-Pad2)*%
G36*
X210341498Y-92220547D02*
G01*
X210388025Y-92272673D01*
X210400000Y-92325837D01*
X210400000Y-94885610D01*
X210380315Y-94952649D01*
X210327511Y-94998404D01*
X210276000Y-95009610D01*
X208894147Y-95009610D01*
X208835673Y-95021241D01*
X208835670Y-95021242D01*
X208835669Y-95021243D01*
X208824937Y-95028413D01*
X208758261Y-95049290D01*
X208756049Y-95049310D01*
X205130628Y-95049310D01*
X205054200Y-95069788D01*
X204985679Y-95109350D01*
X204985676Y-95109352D01*
X204259541Y-95835487D01*
X204259535Y-95835495D01*
X204219982Y-95904004D01*
X204219979Y-95904009D01*
X204213682Y-95927511D01*
X204204720Y-95960959D01*
X204199500Y-95980439D01*
X204199500Y-97047055D01*
X204192269Y-97071677D01*
X204188940Y-97097129D01*
X204182587Y-97104650D01*
X204179815Y-97114094D01*
X204160422Y-97130897D01*
X204143860Y-97150510D01*
X204130520Y-97156808D01*
X204127011Y-97159849D01*
X204111944Y-97165579D01*
X204017809Y-97194524D01*
X203981365Y-97200000D01*
X202524000Y-97200000D01*
X202456961Y-97180315D01*
X202411206Y-97127511D01*
X202400000Y-97076000D01*
X202400000Y-96000000D01*
X201979400Y-96000000D01*
X201912361Y-95980315D01*
X201866606Y-95927511D01*
X201855400Y-95876000D01*
X201855400Y-95200800D01*
X193374000Y-95200800D01*
X193306961Y-95181115D01*
X193261206Y-95128311D01*
X193250000Y-95076800D01*
X193250000Y-92374000D01*
X193269685Y-92306961D01*
X193322489Y-92261206D01*
X193374000Y-92250000D01*
X206999973Y-92250000D01*
X207000000Y-92250000D01*
X210274178Y-92201850D01*
X210341498Y-92220547D01*
G37*
%TD.AperFunction*%
%TD*%
%TA.AperFunction,Conductor*%
%TO.N,5.0v*%
G36*
X208823088Y-96170375D02*
G01*
X208824908Y-96171567D01*
X208835669Y-96178757D01*
X208835671Y-96178757D01*
X208835673Y-96178758D01*
X208894147Y-96190389D01*
X208894150Y-96190390D01*
X208894152Y-96190390D01*
X210470350Y-96190390D01*
X210470351Y-96190389D01*
X210499589Y-96184573D01*
X210528827Y-96178758D01*
X210528827Y-96178757D01*
X210528831Y-96178757D01*
X210530662Y-96177533D01*
X210535268Y-96176090D01*
X210540113Y-96174084D01*
X210540173Y-96174229D01*
X210546615Y-96168502D01*
X210572415Y-96164457D01*
X210597336Y-96156653D01*
X210606378Y-96159133D01*
X210615642Y-96157681D01*
X210639530Y-96168225D01*
X210664718Y-96175134D01*
X210670985Y-96182110D01*
X210679561Y-96185896D01*
X210693957Y-96207683D01*
X210711410Y-96227111D01*
X210713934Y-96237914D01*
X210718080Y-96244189D01*
X210723546Y-96279057D01*
X210725339Y-96420128D01*
X210706508Y-96487412D01*
X210654290Y-96533835D01*
X210585263Y-96544656D01*
X210532459Y-96524807D01*
X210531141Y-96523926D01*
X210528831Y-96522383D01*
X210528830Y-96522382D01*
X210528829Y-96522382D01*
X210528829Y-96522381D01*
X210470352Y-96510750D01*
X210470348Y-96510750D01*
X208894152Y-96510750D01*
X208894147Y-96510750D01*
X208835670Y-96522381D01*
X208835669Y-96522382D01*
X208769347Y-96566697D01*
X208725032Y-96633019D01*
X208725031Y-96633020D01*
X208713400Y-96691497D01*
X208713400Y-97010402D01*
X208725031Y-97068879D01*
X208725032Y-97068880D01*
X208769347Y-97135202D01*
X208835669Y-97179517D01*
X208835670Y-97179518D01*
X208894147Y-97191149D01*
X208894150Y-97191150D01*
X208894152Y-97191150D01*
X210470350Y-97191150D01*
X210470351Y-97191149D01*
X210485168Y-97188202D01*
X210528829Y-97179518D01*
X210528829Y-97179517D01*
X210528831Y-97179517D01*
X210543273Y-97169866D01*
X210609949Y-97148986D01*
X210677329Y-97167468D01*
X210724022Y-97219445D01*
X210736157Y-97271390D01*
X210745745Y-98025846D01*
X210745746Y-98025848D01*
X213913178Y-98097370D01*
X213979755Y-98118563D01*
X214024306Y-98172386D01*
X214034367Y-98222992D01*
X214001620Y-100678464D01*
X213981043Y-100745235D01*
X213927634Y-100790281D01*
X213878454Y-100800807D01*
X206470001Y-100849999D01*
X206470000Y-100849999D01*
X204753618Y-102446633D01*
X204746128Y-102453064D01*
X201423429Y-105083535D01*
X201358649Y-105109713D01*
X201347364Y-105110310D01*
X193262326Y-105169110D01*
X193195145Y-105149913D01*
X193149007Y-105097443D01*
X193137451Y-105047699D01*
X193082821Y-102425782D01*
X193101105Y-102358348D01*
X193152944Y-102311503D01*
X193206794Y-102299200D01*
X199359877Y-102299200D01*
X199360673Y-102299203D01*
X199380365Y-102299329D01*
X202429344Y-102318895D01*
X203596507Y-101203337D01*
X203603743Y-101196944D01*
X204679344Y-100318895D01*
X205160000Y-99910000D01*
X206000000Y-99000000D01*
X206000000Y-96276333D01*
X206008644Y-96246892D01*
X206015168Y-96216906D01*
X206018922Y-96211890D01*
X206019685Y-96209294D01*
X206036319Y-96188652D01*
X206037962Y-96187009D01*
X206099285Y-96153524D01*
X206125643Y-96150690D01*
X208756049Y-96150690D01*
X208823088Y-96170375D01*
G37*
%TD.AperFunction*%
%TD*%
M02*
