M48
; DRILL file {KiCad 9.0.7} date 2026-04-25T05:58:06-0400
; FORMAT={-:-/ absolute / inch / decimal}
; #@! TF.CreationDate,2026-04-25T05:58:06-04:00
; #@! TF.GenerationSoftware,Kicad,Pcbnew,9.0.7
; #@! TF.FileFunction,Plated,1,2,PTH
FMAT,2
INCH
; #@! TA.AperFunction,Plated,PTH,ViaDrill
T1C0.0118
; #@! TA.AperFunction,Plated,PTH,ComponentDrill
T2C0.0256
; #@! TA.AperFunction,Plated,PTH,ComponentDrill
T3C0.0315
; #@! TA.AperFunction,Plated,PTH,ComponentDrill
T4C0.0394
%
G90
G05
T1
X4.7174Y-2.8611
X4.7485Y-2.877
X4.7509Y-2.9084
X4.7523Y-2.8295
X4.8774Y-2.6491
X4.9159Y-2.6485
X5.2484Y-3.7048
X5.5354Y-3.1732
X5.5827Y-3.126
X6.0887Y-2.6965
X6.1014Y-2.7844
X6.1032Y-2.6685
X6.1118Y-3.6079
X6.2096Y-2.6723
X6.2353Y-5.0105
X6.2661Y-4.9669
X6.2795Y-4.8425
X6.2803Y-3.0048
X6.2937Y-3.611
X6.3138Y-4.8189
X6.3701Y-3.0315
X6.3858Y-3.4173
X6.387Y-3.6626
X6.3937Y-3.0709
X6.4094Y-2.7953
X6.4134Y-2.8819
X6.4528Y-2.7992
X6.4528Y-2.8906
X6.562Y-4.5354
X6.5624Y-4.2972
X6.6063Y-2.9764
X6.7823Y-4.3504
X6.8189Y-4.2004
X6.8286Y-4.4706
X6.8445Y-4.4004
X6.937Y-3.9528
X6.9819Y-4.3386
X6.9843Y-4.2228
X7.0783Y-3.2996
X7.0866Y-3.9626
X7.0866Y-4.0236
X7.1162Y-3.7717
X7.4315Y-3.1693
X7.4961Y-4.1599
X7.5051Y-3.3815
X7.6378Y-3.2913
X7.6535Y-2.8346
X7.8346Y-2.8714
X7.9277Y-3.1825
X7.9685Y-3.1181
X7.9949Y-3.4602
X8.0091Y-2.6252
X8.0551Y-3.0315
X8.0807Y-3.878
X8.1102Y-3.3644
X8.2126Y-3.4094
X8.2728Y-4.0976
X8.3366Y-3.1339
X8.3959Y-3.4488
X8.4094Y-3.6161
X8.5118Y-3.378
X8.5154Y-3.2687
X8.5198Y-3.2999
X8.5382Y-3.247
X8.5669Y-3.126
X8.5875Y-3.4186
X8.6201Y-3.8594
X8.8533Y-2.6353
X8.9764Y-4.8504
X9.0472Y-4.8504
X9.6022Y-2.9791
T3
X6.4311Y-3.2441
X6.4311Y-3.5181
X6.4427Y-4.1941
X6.4427Y-4.2728
X6.4427Y-4.3516
X6.5098Y-3.2441
X6.5098Y-3.5181
X6.5886Y-3.2441
X6.5886Y-3.5181
X6.737Y-3.4016
X6.7378Y-3.5354
X6.7917Y-3.2441
X6.8071Y-3.7425
X6.811Y-2.9213
X6.811Y-3.0
X6.8705Y-3.2441
X6.8858Y-3.7425
X7.0787Y-2.6874
X7.0787Y-2.9719
X7.0787Y-3.2457
X7.137Y-3.4016
X7.1378Y-3.5354
X7.1575Y-2.6874
X7.1575Y-2.9719
X7.1575Y-3.2457
X7.2362Y-2.6874
X7.2362Y-2.9719
X7.252Y-4.1575
X7.252Y-4.2362
X7.3228Y-3.1543
X7.3228Y-3.5543
X7.3906Y-2.6654
X7.4852Y-2.8317
X7.4852Y-2.9104
X7.724Y-3.5016
X7.7906Y-2.6654
X8.124Y-3.5016
X8.4559Y-4.9921
X8.5346Y-4.9921
X9.1791Y-2.69
X9.2579Y-2.69
T4
X4.9815Y-3.0717
X4.9815Y-3.1717
X4.9815Y-3.2717
X4.9815Y-3.3717
X4.9815Y-3.4717
X4.9815Y-3.5717
X4.9815Y-3.6717
X4.9815Y-3.7717
X4.9815Y-3.8717
X4.9815Y-3.9717
X4.9815Y-4.0717
X4.9815Y-4.1717
X4.9815Y-4.2717
X4.9815Y-4.3717
X4.9815Y-4.4717
X4.9815Y-4.5717
X4.9815Y-4.6717
X4.9815Y-4.7717
X4.9815Y-4.8717
X4.9815Y-4.9717
X5.0815Y-3.0717
X5.0815Y-3.1717
X5.0815Y-3.2717
X5.0815Y-3.3717
X5.0815Y-3.4717
X5.0815Y-3.5717
X5.0815Y-3.6717
X5.0815Y-3.7717
X5.0815Y-3.8717
X5.0815Y-3.9717
X5.0815Y-4.0717
X5.0815Y-4.1717
X5.0815Y-4.2717
X5.0815Y-4.3717
X5.0815Y-4.4717
X5.0815Y-4.5717
X5.0815Y-4.6717
X5.0815Y-4.7717
X5.0815Y-4.8717
X5.0815Y-4.9717
X5.248Y-4.9831
X5.4149Y-2.9048
X5.4149Y-3.0048
X5.4149Y-3.1048
X5.4149Y-3.2048
X5.4149Y-3.3048
X5.4149Y-3.4048
X5.4149Y-3.5048
X5.4149Y-3.6048
X5.4149Y-3.7048
X5.4149Y-3.8048
X5.4149Y-3.9048
X5.4149Y-4.0048
X5.4149Y-4.1048
X5.4149Y-4.2048
X5.4149Y-4.3048
X5.4149Y-4.4048
X5.4149Y-4.5048
X5.4149Y-4.6048
X5.4149Y-4.7048
X5.4149Y-4.8048
X6.0149Y-2.9048
X6.0149Y-3.0048
X6.0149Y-3.1048
X6.0149Y-3.2048
X6.0149Y-3.3048
X6.0149Y-3.4048
X6.0149Y-3.5048
X6.0149Y-3.6048
X6.0149Y-3.7048
X6.0149Y-3.8048
X6.0149Y-3.9048
X6.0149Y-4.0048
X6.0149Y-4.1048
X6.0149Y-4.2048
X6.0149Y-4.3048
X6.0149Y-4.4048
X6.0149Y-4.5048
X6.0149Y-4.6048
X6.0149Y-4.7048
X6.0149Y-4.8048
X6.4012Y-3.7824
X6.4012Y-3.9792
X7.9189Y-2.7776
X8.0413Y-4.1535
X8.9744Y-3.7287
X8.9744Y-4.6846
X9.0744Y-3.7287
X9.0744Y-4.6846
X9.1535Y-3.1787
X9.1535Y-4.1346
X9.1744Y-3.7287
X9.1744Y-4.6846
X9.2744Y-3.7287
X9.2744Y-4.6846
X9.2913Y-3.1787
X9.2913Y-4.1346
X9.3744Y-3.7287
X9.3744Y-4.6846
X9.3896Y-2.9436
X9.4744Y-3.7287
X9.4744Y-4.6846
T2
G00X8.8031Y-5.3268
M15
G01X8.8031Y-5.3898
M16
G05
G00X8.8031Y-5.5079
M15
G01X8.8031Y-5.5709
M16
G05
G00X8.9134Y-5.1102
M15
G01X8.9134Y-5.1614
M16
G05
G00X9.0433Y-5.1378
M15
G01X9.0433Y-5.1772
M16
G05
G00X9.122Y-5.1378
M15
G01X9.122Y-5.1772
M16
G05
G00X9.252Y-5.1102
M15
G01X9.252Y-5.1614
M16
G05
G00X9.3622Y-5.3268
M15
G01X9.3622Y-5.3898
M16
G05
G00X9.3622Y-5.5079
M15
G01X9.3622Y-5.5709
M16
G05
M30
