%TF.GenerationSoftware,KiCad,Pcbnew,9.0.7*%
%TF.CreationDate,2026-04-25T05:58:13-04:00*%
%TF.ProjectId,capybara_habitat,63617079-6261-4726-915f-686162697461,A*%
%TF.SameCoordinates,Original*%
%TF.FileFunction,Paste,Top*%
%TF.FilePolarity,Positive*%
%FSLAX46Y46*%
G04 Gerber Fmt 4.6, Leading zero omitted, Abs format (unit mm)*
G04 Created by KiCad (PCBNEW 9.0.7) date 2026-04-25 05:58:13*
%MOMM*%
%LPD*%
G01*
G04 APERTURE LIST*
G04 Aperture macros list*
%AMRoundRect*
0 Rectangle with rounded corners*
0 $1 Rounding radius*
0 $2 $3 $4 $5 $6 $7 $8 $9 X,Y pos of 4 corners*
0 Add a 4 corners polygon primitive as box body*
4,1,4,$2,$3,$4,$5,$6,$7,$8,$9,$2,$3,0*
0 Add four circle primitives for the rounded corners*
1,1,$1+$1,$2,$3*
1,1,$1+$1,$4,$5*
1,1,$1+$1,$6,$7*
1,1,$1+$1,$8,$9*
0 Add four rect primitives between the rounded corners*
20,1,$1+$1,$2,$3,$4,$5,0*
20,1,$1+$1,$4,$5,$6,$7,0*
20,1,$1+$1,$6,$7,$8,$9,0*
20,1,$1+$1,$8,$9,$2,$3,0*%
G04 Aperture macros list end*
%ADD10C,0.750000*%
%ADD11C,0.000000*%
%ADD12RoundRect,0.237500X-0.237500X0.250000X-0.237500X-0.250000X0.237500X-0.250000X0.237500X0.250000X0*%
%ADD13RoundRect,0.237500X0.237500X-0.250000X0.237500X0.250000X-0.237500X0.250000X-0.237500X-0.250000X0*%
%ADD14RoundRect,0.237500X0.250000X0.237500X-0.250000X0.237500X-0.250000X-0.237500X0.250000X-0.237500X0*%
%ADD15RoundRect,0.155000X0.212500X0.155000X-0.212500X0.155000X-0.212500X-0.155000X0.212500X-0.155000X0*%
%ADD16RoundRect,0.155000X-0.212500X-0.155000X0.212500X-0.155000X0.212500X0.155000X-0.212500X0.155000X0*%
%ADD17RoundRect,0.150000X-0.825000X-0.150000X0.825000X-0.150000X0.825000X0.150000X-0.825000X0.150000X0*%
%ADD18RoundRect,0.237500X-0.300000X-0.237500X0.300000X-0.237500X0.300000X0.237500X-0.300000X0.237500X0*%
%ADD19RoundRect,0.237500X0.237500X-0.300000X0.237500X0.300000X-0.237500X0.300000X-0.237500X-0.300000X0*%
%ADD20R,1.752600X1.143000*%
%ADD21RoundRect,0.150000X0.512500X0.150000X-0.512500X0.150000X-0.512500X-0.150000X0.512500X-0.150000X0*%
%ADD22RoundRect,0.250000X0.650000X-0.412500X0.650000X0.412500X-0.650000X0.412500X-0.650000X-0.412500X0*%
%ADD23RoundRect,0.150000X-0.150000X0.512500X-0.150000X-0.512500X0.150000X-0.512500X0.150000X0.512500X0*%
%ADD24R,1.130000X0.890000*%
%ADD25R,1.143000X1.752600*%
%ADD26RoundRect,0.237500X-0.237500X0.300000X-0.237500X-0.300000X0.237500X-0.300000X0.237500X0.300000X0*%
%ADD27RoundRect,0.250000X0.450000X-0.350000X0.450000X0.350000X-0.450000X0.350000X-0.450000X-0.350000X0*%
%ADD28R,1.536700X0.279400*%
%ADD29RoundRect,0.250000X-0.337500X-0.475000X0.337500X-0.475000X0.337500X0.475000X-0.337500X0.475000X0*%
%ADD30RoundRect,0.155000X-0.155000X0.212500X-0.155000X-0.212500X0.155000X-0.212500X0.155000X0.212500X0*%
%ADD31RoundRect,0.155000X0.155000X-0.212500X0.155000X0.212500X-0.155000X0.212500X-0.155000X-0.212500X0*%
%ADD32RoundRect,0.250000X0.475000X-0.337500X0.475000X0.337500X-0.475000X0.337500X-0.475000X-0.337500X0*%
%ADD33RoundRect,0.237500X-0.250000X-0.237500X0.250000X-0.237500X0.250000X0.237500X-0.250000X0.237500X0*%
%ADD34R,0.800000X0.800000*%
%ADD35R,1.799999X4.600001*%
%ADD36RoundRect,0.250000X-0.650000X0.412500X-0.650000X-0.412500X0.650000X-0.412500X0.650000X0.412500X0*%
%ADD37RoundRect,0.250000X-1.100000X0.412500X-1.100000X-0.412500X1.100000X-0.412500X1.100000X0.412500X0*%
%ADD38R,1.480000X0.410000*%
%ADD39R,2.940000X3.580000*%
%ADD40RoundRect,0.150000X-0.512500X-0.150000X0.512500X-0.150000X0.512500X0.150000X-0.512500X0.150000X0*%
%ADD41R,4.600001X1.799999*%
G04 APERTURE END LIST*
D10*
%TO.C,J16*%
X121359000Y-68221000D02*
G75*
G02*
X117159000Y-68221000I-2100000J0D01*
G01*
X117159000Y-68221000D02*
G75*
G02*
X121359000Y-68221000I2100000J0D01*
G01*
X140539000Y-125851000D02*
G75*
G02*
X136339000Y-125851000I-2100000J0D01*
G01*
X136339000Y-125851000D02*
G75*
G02*
X140539000Y-125851000I2100000J0D01*
G01*
X154009000Y-125891000D02*
G75*
G02*
X149809000Y-125891000I-2100000J0D01*
G01*
X149809000Y-125891000D02*
G75*
G02*
X154009000Y-125891000I2100000J0D01*
G01*
X173149000Y-68221000D02*
G75*
G02*
X168949000Y-68221000I-2100000J0D01*
G01*
X168949000Y-68221000D02*
G75*
G02*
X173149000Y-68221000I2100000J0D01*
G01*
D11*
%TO.C,U8*%
G36*
X212776300Y-95500000D02*
G01*
X211223700Y-95500000D01*
X211223700Y-94226800D01*
X212776300Y-94226800D01*
X212776300Y-95500000D01*
G37*
G36*
X212776300Y-96973200D02*
G01*
X211223700Y-96973200D01*
X211223700Y-95700000D01*
X212776300Y-95700000D01*
X212776300Y-96973200D01*
G37*
D10*
%TO.C,U5*%
X226240000Y-79470000D02*
G75*
G02*
X222040000Y-79470000I-2100000J0D01*
G01*
X222040000Y-79470000D02*
G75*
G02*
X226240000Y-79470000I2100000J0D01*
G01*
X226240000Y-94710000D02*
G75*
G02*
X222040000Y-94710000I-2100000J0D01*
G01*
X222040000Y-94710000D02*
G75*
G02*
X226240000Y-94710000I2100000J0D01*
G01*
X246560000Y-79470000D02*
G75*
G02*
X242360000Y-79470000I-2100000J0D01*
G01*
X242360000Y-79470000D02*
G75*
G02*
X246560000Y-79470000I2100000J0D01*
G01*
X246560000Y-94710000D02*
G75*
G02*
X242360000Y-94710000I-2100000J0D01*
G01*
X242360000Y-94710000D02*
G75*
G02*
X246560000Y-94710000I2100000J0D01*
G01*
%TO.C,U4*%
X226240000Y-103750000D02*
G75*
G02*
X222040000Y-103750000I-2100000J0D01*
G01*
X222040000Y-103750000D02*
G75*
G02*
X226240000Y-103750000I2100000J0D01*
G01*
X226240000Y-118990000D02*
G75*
G02*
X222040000Y-118990000I-2100000J0D01*
G01*
X222040000Y-118990000D02*
G75*
G02*
X226240000Y-118990000I2100000J0D01*
G01*
X246560000Y-103750000D02*
G75*
G02*
X242360000Y-103750000I-2100000J0D01*
G01*
X242360000Y-103750000D02*
G75*
G02*
X246560000Y-103750000I2100000J0D01*
G01*
X246560000Y-118990000D02*
G75*
G02*
X242360000Y-118990000I-2100000J0D01*
G01*
X242360000Y-118990000D02*
G75*
G02*
X246560000Y-118990000I2100000J0D01*
G01*
%TD*%
D12*
%TO.C,R8*%
X169000000Y-76087500D03*
X169000000Y-77912500D03*
%TD*%
D13*
%TO.C,R3*%
X193430000Y-76305000D03*
X193430000Y-74480000D03*
%TD*%
D12*
%TO.C,R4*%
X240994970Y-73843099D03*
X240994970Y-75668099D03*
%TD*%
D13*
%TO.C,R2*%
X188500000Y-84925000D03*
X188500000Y-83100000D03*
%TD*%
D14*
%TO.C,R12*%
X185092500Y-97050000D03*
X183267500Y-97050000D03*
%TD*%
D12*
%TO.C,R11*%
X142600000Y-76312500D03*
X142600000Y-74487500D03*
%TD*%
D15*
%TO.C,C15*%
X183032500Y-91420000D03*
X184167500Y-91420000D03*
%TD*%
D16*
%TO.C,C6*%
X168232500Y-79400000D03*
X169367500Y-79400000D03*
%TD*%
D17*
%TO.C,U6*%
X170655000Y-105420000D03*
X170655000Y-106690000D03*
X170655000Y-107960000D03*
X170655000Y-109230000D03*
X170655000Y-110500000D03*
X170655000Y-111770000D03*
X170655000Y-113040000D03*
X170655000Y-114310000D03*
X175605000Y-114310000D03*
X175605000Y-113040000D03*
X175605000Y-111770000D03*
X175605000Y-110500000D03*
X175605000Y-109230000D03*
X175605000Y-107960000D03*
X175605000Y-106690000D03*
X175605000Y-105420000D03*
%TD*%
D18*
%TO.C,C36*%
X213255000Y-86300000D03*
X214980000Y-86300000D03*
%TD*%
D19*
%TO.C,C19*%
X176200000Y-103462500D03*
X176200000Y-101737500D03*
%TD*%
D20*
%TO.C,L4*%
X180290000Y-103749600D03*
X180290000Y-107610400D03*
%TD*%
D21*
%TO.C,U2*%
X197497500Y-74950000D03*
X197497500Y-74000000D03*
X197497500Y-73050000D03*
X195222500Y-73050000D03*
X195222500Y-74000000D03*
X195222500Y-74950000D03*
%TD*%
D22*
%TO.C,C27*%
X218600000Y-73325000D03*
X218600000Y-70200000D03*
%TD*%
D20*
%TO.C,L1*%
X180280000Y-113150800D03*
X180280000Y-109290000D03*
%TD*%
D23*
%TO.C,U7*%
X184110000Y-92950000D03*
X183160000Y-92950000D03*
X182210000Y-92950000D03*
X182210000Y-95225000D03*
X183160000Y-95225000D03*
X184110000Y-95225000D03*
%TD*%
D24*
%TO.C,C12*%
X167800000Y-109150000D03*
X167800000Y-107410000D03*
%TD*%
D25*
%TO.C,L2*%
X174530400Y-103300000D03*
X170669600Y-103300000D03*
%TD*%
D26*
%TO.C,C17*%
X174600000Y-99537500D03*
X174600000Y-101262500D03*
%TD*%
D27*
%TO.C,R15*%
X203080000Y-86590000D03*
X203080000Y-84590000D03*
%TD*%
D28*
%TO.C,U8*%
X214317750Y-97351330D03*
X214317750Y-96850950D03*
X214317750Y-96350570D03*
X214317750Y-95850190D03*
X214317750Y-95349810D03*
X214317750Y-94849430D03*
X214317750Y-94349050D03*
X214317750Y-93848670D03*
X209682250Y-93848670D03*
X209682250Y-94349050D03*
X209682250Y-94849430D03*
X209682250Y-95349810D03*
X209682250Y-95850190D03*
X209682250Y-96350570D03*
X209682250Y-96850950D03*
X209682250Y-97351330D03*
%TD*%
D29*
%TO.C,C10*%
X227925000Y-91000000D03*
X230000000Y-91000000D03*
%TD*%
D30*
%TO.C,C26*%
X216160000Y-96892500D03*
X216160000Y-98027500D03*
%TD*%
D31*
%TO.C,C2*%
X200000000Y-74067500D03*
X200000000Y-72932500D03*
%TD*%
D32*
%TO.C,C31*%
X203250000Y-98697500D03*
X203250000Y-96622500D03*
%TD*%
D12*
%TO.C,R14*%
X217400000Y-95067500D03*
X217400000Y-96892500D03*
%TD*%
D33*
%TO.C,R16*%
X209765000Y-86600000D03*
X211590000Y-86600000D03*
%TD*%
D34*
%TO.C,D1*%
X208500000Y-106300000D03*
X208500000Y-104700000D03*
%TD*%
D19*
%TO.C,C22*%
X218950000Y-96842500D03*
X218950000Y-95117500D03*
%TD*%
D34*
%TO.C,D2*%
X242744970Y-75668099D03*
X242744970Y-74068099D03*
%TD*%
D12*
%TO.C,R1*%
X206750000Y-104500000D03*
X206750000Y-106325000D03*
%TD*%
D15*
%TO.C,C1*%
X192867500Y-85900000D03*
X191732500Y-85900000D03*
%TD*%
%TO.C,C11*%
X168867500Y-114310000D03*
X167732500Y-114310000D03*
%TD*%
D21*
%TO.C,U1*%
X192737500Y-84550000D03*
X192737500Y-83600000D03*
X192737500Y-82650000D03*
X190462500Y-82650000D03*
X190462500Y-83600000D03*
X190462500Y-84550000D03*
%TD*%
D13*
%TO.C,R10*%
X145000000Y-76312500D03*
X145000000Y-74487500D03*
%TD*%
D35*
%TO.C,L6*%
X216000000Y-71500000D03*
X207000000Y-71500000D03*
%TD*%
D36*
%TO.C,C23*%
X204400000Y-70200000D03*
X204400000Y-73325000D03*
%TD*%
D29*
%TO.C,C9*%
X229425000Y-115750000D03*
X231500000Y-115750000D03*
%TD*%
D31*
%TO.C,C30*%
X206952500Y-85455000D03*
X206952500Y-84320000D03*
%TD*%
D36*
%TO.C,C32*%
X226750000Y-66937500D03*
X226750000Y-70062500D03*
%TD*%
D31*
%TO.C,C4*%
X193500000Y-73135000D03*
X193500000Y-72000000D03*
%TD*%
D37*
%TO.C,C34*%
X208470000Y-99670000D03*
X208470000Y-102795000D03*
%TD*%
D15*
%TO.C,C3*%
X189890000Y-81500000D03*
X188755000Y-81500000D03*
%TD*%
D16*
%TO.C,C5*%
X165665000Y-75600000D03*
X166800000Y-75600000D03*
%TD*%
D38*
%TO.C,U9*%
X208885000Y-80475000D03*
X208885000Y-81125000D03*
X208885000Y-81775000D03*
X208885000Y-82425000D03*
X208885000Y-83075000D03*
X208885000Y-83725000D03*
X208885000Y-84375000D03*
X208885000Y-85025000D03*
X214615000Y-85025000D03*
X214615000Y-84375000D03*
X214615000Y-83725000D03*
X214615000Y-83075000D03*
X214615000Y-82425000D03*
X214615000Y-81775000D03*
X214615000Y-81125000D03*
X214615000Y-80475000D03*
D39*
X211750000Y-82750000D03*
%TD*%
D19*
%TO.C,C18*%
X189000000Y-109262500D03*
X189000000Y-107537500D03*
%TD*%
D40*
%TO.C,U3*%
X163862500Y-77050000D03*
X163862500Y-78000000D03*
X163862500Y-78950000D03*
X166137500Y-78950000D03*
X166137500Y-78000000D03*
X166137500Y-77050000D03*
%TD*%
D34*
%TO.C,D3*%
X202010000Y-66680000D03*
X200410000Y-66680000D03*
%TD*%
D22*
%TO.C,C35*%
X223000000Y-70062500D03*
X223000000Y-66937500D03*
%TD*%
D30*
%TO.C,C7*%
X166675000Y-113032500D03*
X166675000Y-114167500D03*
%TD*%
D33*
%TO.C,R18*%
X204840000Y-86707500D03*
X206665000Y-86707500D03*
%TD*%
D25*
%TO.C,L5*%
X186460800Y-101400000D03*
X182600000Y-101400000D03*
%TD*%
D26*
%TO.C,C20*%
X189000000Y-103937500D03*
X189000000Y-105662500D03*
%TD*%
D15*
%TO.C,C33*%
X205962500Y-84257500D03*
X204827500Y-84257500D03*
%TD*%
D18*
%TO.C,C21*%
X214797500Y-91850000D03*
X216522500Y-91850000D03*
%TD*%
D31*
%TO.C,C13*%
X168295000Y-111737500D03*
X168295000Y-110602500D03*
%TD*%
D41*
%TO.C,L7*%
X196750000Y-103250000D03*
X196750000Y-94250000D03*
%TD*%
D15*
%TO.C,C16*%
X181887500Y-96780000D03*
X180752500Y-96780000D03*
%TD*%
D31*
%TO.C,C8*%
X166685000Y-111747500D03*
X166685000Y-110612500D03*
%TD*%
D37*
%TO.C,C28*%
X204600000Y-78275000D03*
X204600000Y-81400000D03*
%TD*%
D25*
%TO.C,L3*%
X172964000Y-100910000D03*
X169103200Y-100910000D03*
%TD*%
D33*
%TO.C,R7*%
X200230000Y-68240000D03*
X202055000Y-68240000D03*
%TD*%
D32*
%TO.C,C24*%
X201150000Y-86600000D03*
X201150000Y-84525000D03*
%TD*%
D37*
%TO.C,C29*%
X211750000Y-99687500D03*
X211750000Y-102812500D03*
%TD*%
D31*
%TO.C,C25*%
X205250000Y-97635000D03*
X205250000Y-96500000D03*
%TD*%
M02*
