ISO-10303-21;
HEADER;
/* Generated by software containing ST-Developer
 * from STEP Tools, Inc. (www.steptools.com) 
 */

FILE_DESCRIPTION(
/* description */ (''),
/* implementation_level */ '2;1');

FILE_NAME(
/* name */ 'Buzzer.step',
/* time_stamp */ '2026-03-08T00:56:06-05:00',
/* author */ (''),
/* organization */ (''),
/* preprocessor_version */ 'ST-DEVELOPER v20.1',
/* originating_system */ 'Autodesk Translation Framework v14.24.0.0',
/* authorisation */ '');

FILE_SCHEMA (('AUTOMOTIVE_DESIGN { 1 0 10303 214 3 1 1 }'));
ENDSEC;

DATA;
#10=MECHANICAL_DESIGN_GEOMETRIC_PRESENTATION_REPRESENTATION('',(#142,#143,
#144,#145,#146),#296);
#11=SHAPE_REPRESENTATION_RELATIONSHIP('SRR','None',#303,#12);
#12=ADVANCED_BREP_SHAPE_REPRESENTATION('',(#13),#295);
#13=MANIFOLD_SOLID_BREP('Body1',#159);
#14=TOROIDAL_SURFACE('',#190,5.5,0.5);
#15=FACE_BOUND('',#43,.T.);
#16=FACE_BOUND('',#45,.T.);
#17=FACE_BOUND('',#51,.T.);
#18=FACE_BOUND('',#52,.T.);
#19=PLANE('',#176);
#20=PLANE('',#180);
#21=PLANE('',#184);
#22=PLANE('',#186);
#23=PLANE('',#195);
#24=PLANE('',#196);
#25=FACE_OUTER_BOUND('',#37,.T.);
#26=FACE_OUTER_BOUND('',#38,.T.);
#27=FACE_OUTER_BOUND('',#39,.T.);
#28=FACE_OUTER_BOUND('',#40,.T.);
#29=FACE_OUTER_BOUND('',#41,.T.);
#30=FACE_OUTER_BOUND('',#42,.T.);
#31=FACE_OUTER_BOUND('',#44,.T.);
#32=FACE_OUTER_BOUND('',#46,.T.);
#33=FACE_OUTER_BOUND('',#47,.T.);
#34=FACE_OUTER_BOUND('',#48,.T.);
#35=FACE_OUTER_BOUND('',#49,.T.);
#36=FACE_OUTER_BOUND('',#50,.T.);
#37=EDGE_LOOP('',(#103,#104,#105,#106));
#38=EDGE_LOOP('',(#107));
#39=EDGE_LOOP('',(#108,#109,#110,#111));
#40=EDGE_LOOP('',(#112));
#41=EDGE_LOOP('',(#113,#114,#115,#116));
#42=EDGE_LOOP('',(#117));
#43=EDGE_LOOP('',(#118));
#44=EDGE_LOOP('',(#119));
#45=EDGE_LOOP('',(#120));
#46=EDGE_LOOP('',(#121,#122,#123,#124));
#47=EDGE_LOOP('',(#125,#126,#127,#128));
#48=EDGE_LOOP('',(#129,#130,#131,#132));
#49=EDGE_LOOP('',(#133));
#50=EDGE_LOOP('',(#134));
#51=EDGE_LOOP('',(#135));
#52=EDGE_LOOP('',(#136));
#53=LINE('',#257,#58);
#54=LINE('',#264,#59);
#55=LINE('',#271,#60);
#56=LINE('',#282,#61);
#57=LINE('',#289,#62);
#58=VECTOR('',#203,0.3);
#59=VECTOR('',#212,0.3);
#60=VECTOR('',#221,5.75);
#61=VECTOR('',#236,6.);
#62=VECTOR('',#245,6.);
#63=CIRCLE('',#174,0.3);
#64=CIRCLE('',#175,0.3);
#65=CIRCLE('',#178,0.3);
#66=CIRCLE('',#179,0.3);
#67=CIRCLE('',#182,5.75);
#68=CIRCLE('',#183,5.75);
#69=CIRCLE('',#185,6.);
#70=CIRCLE('',#187,6.);
#71=CIRCLE('',#189,6.);
#72=CIRCLE('',#191,5.5);
#73=CIRCLE('',#192,0.5);
#74=CIRCLE('',#194,6.);
#75=VERTEX_POINT('',#254);
#76=VERTEX_POINT('',#256);
#77=VERTEX_POINT('',#261);
#78=VERTEX_POINT('',#263);
#79=VERTEX_POINT('',#268);
#80=VERTEX_POINT('',#270);
#81=VERTEX_POINT('',#274);
#82=VERTEX_POINT('',#277);
#83=VERTEX_POINT('',#280);
#84=VERTEX_POINT('',#284);
#85=VERTEX_POINT('',#288);
#86=EDGE_CURVE('',#75,#75,#63,.T.);
#87=EDGE_CURVE('',#75,#76,#53,.T.);
#88=EDGE_CURVE('',#76,#76,#64,.T.);
#89=EDGE_CURVE('',#77,#77,#65,.T.);
#90=EDGE_CURVE('',#77,#78,#54,.T.);
#91=EDGE_CURVE('',#78,#78,#66,.T.);
#92=EDGE_CURVE('',#79,#79,#67,.T.);
#93=EDGE_CURVE('',#79,#80,#55,.T.);
#94=EDGE_CURVE('',#80,#80,#68,.T.);
#95=EDGE_CURVE('',#81,#81,#69,.T.);
#96=EDGE_CURVE('',#82,#82,#70,.T.);
#97=EDGE_CURVE('',#83,#83,#71,.T.);
#98=EDGE_CURVE('',#83,#82,#56,.T.);
#99=EDGE_CURVE('',#84,#84,#72,.T.);
#100=EDGE_CURVE('',#84,#83,#73,.T.);
#101=EDGE_CURVE('',#81,#85,#57,.T.);
#102=EDGE_CURVE('',#85,#85,#74,.T.);
#103=ORIENTED_EDGE('',*,*,#86,.F.);
#104=ORIENTED_EDGE('',*,*,#87,.T.);
#105=ORIENTED_EDGE('',*,*,#88,.F.);
#106=ORIENTED_EDGE('',*,*,#87,.F.);
#107=ORIENTED_EDGE('',*,*,#86,.T.);
#108=ORIENTED_EDGE('',*,*,#89,.F.);
#109=ORIENTED_EDGE('',*,*,#90,.T.);
#110=ORIENTED_EDGE('',*,*,#91,.F.);
#111=ORIENTED_EDGE('',*,*,#90,.F.);
#112=ORIENTED_EDGE('',*,*,#89,.T.);
#113=ORIENTED_EDGE('',*,*,#92,.T.);
#114=ORIENTED_EDGE('',*,*,#93,.T.);
#115=ORIENTED_EDGE('',*,*,#94,.T.);
#116=ORIENTED_EDGE('',*,*,#93,.F.);
#117=ORIENTED_EDGE('',*,*,#95,.F.);
#118=ORIENTED_EDGE('',*,*,#92,.F.);
#119=ORIENTED_EDGE('',*,*,#96,.F.);
#120=ORIENTED_EDGE('',*,*,#94,.F.);
#121=ORIENTED_EDGE('',*,*,#97,.F.);
#122=ORIENTED_EDGE('',*,*,#98,.T.);
#123=ORIENTED_EDGE('',*,*,#96,.T.);
#124=ORIENTED_EDGE('',*,*,#98,.F.);
#125=ORIENTED_EDGE('',*,*,#99,.T.);
#126=ORIENTED_EDGE('',*,*,#100,.T.);
#127=ORIENTED_EDGE('',*,*,#97,.T.);
#128=ORIENTED_EDGE('',*,*,#100,.F.);
#129=ORIENTED_EDGE('',*,*,#95,.T.);
#130=ORIENTED_EDGE('',*,*,#101,.T.);
#131=ORIENTED_EDGE('',*,*,#102,.T.);
#132=ORIENTED_EDGE('',*,*,#101,.F.);
#133=ORIENTED_EDGE('',*,*,#99,.F.);
#134=ORIENTED_EDGE('',*,*,#102,.F.);
#135=ORIENTED_EDGE('',*,*,#88,.T.);
#136=ORIENTED_EDGE('',*,*,#91,.T.);
#137=CYLINDRICAL_SURFACE('',#173,0.3);
#138=CYLINDRICAL_SURFACE('',#177,0.3);
#139=CYLINDRICAL_SURFACE('',#181,5.75);
#140=CYLINDRICAL_SURFACE('',#188,6.);
#141=CYLINDRICAL_SURFACE('',#193,6.);
#142=STYLED_ITEM('',(#312),#147);
#143=STYLED_ITEM('',(#312),#148);
#144=STYLED_ITEM('',(#312),#149);
#145=STYLED_ITEM('',(#312),#150);
#146=STYLED_ITEM('',(#313),#13);
#147=ADVANCED_FACE('',(#25),#137,.T.);
#148=ADVANCED_FACE('',(#26),#19,.T.);
#149=ADVANCED_FACE('',(#27),#138,.T.);
#150=ADVANCED_FACE('',(#28),#20,.T.);
#151=ADVANCED_FACE('',(#29),#139,.T.);
#152=ADVANCED_FACE('',(#30,#15),#21,.F.);
#153=ADVANCED_FACE('',(#31,#16),#22,.T.);
#154=ADVANCED_FACE('',(#32),#140,.T.);
#155=ADVANCED_FACE('',(#33),#14,.T.);
#156=ADVANCED_FACE('',(#34),#141,.T.);
#157=ADVANCED_FACE('',(#35),#23,.T.);
#158=ADVANCED_FACE('',(#36,#17,#18),#24,.F.);
#159=CLOSED_SHELL('',(#147,#148,#149,#150,#151,#152,#153,#154,#155,#156,
#157,#158));
#160=DERIVED_UNIT_ELEMENT(#162,1.);
#161=DERIVED_UNIT_ELEMENT(#298,-3.);
#162=(
MASS_UNIT()
NAMED_UNIT(*)
SI_UNIT(.KILO.,.GRAM.)
);
#163=DERIVED_UNIT((#160,#161));
#164=MEASURE_REPRESENTATION_ITEM('density measure',
POSITIVE_RATIO_MEASURE(7850.),#163);
#165=PROPERTY_DEFINITION_REPRESENTATION(#170,#167);
#166=PROPERTY_DEFINITION_REPRESENTATION(#171,#168);
#167=REPRESENTATION('material name',(#169),#295);
#168=REPRESENTATION('density',(#164),#295);
#169=DESCRIPTIVE_REPRESENTATION_ITEM('Steel','Steel');
#170=PROPERTY_DEFINITION('material property','material name',#305);
#171=PROPERTY_DEFINITION('material property','density of part',#305);
#172=AXIS2_PLACEMENT_3D('',#252,#197,#198);
#173=AXIS2_PLACEMENT_3D('',#253,#199,#200);
#174=AXIS2_PLACEMENT_3D('',#255,#201,#202);
#175=AXIS2_PLACEMENT_3D('',#258,#204,#205);
#176=AXIS2_PLACEMENT_3D('',#259,#206,#207);
#177=AXIS2_PLACEMENT_3D('',#260,#208,#209);
#178=AXIS2_PLACEMENT_3D('',#262,#210,#211);
#179=AXIS2_PLACEMENT_3D('',#265,#213,#214);
#180=AXIS2_PLACEMENT_3D('',#266,#215,#216);
#181=AXIS2_PLACEMENT_3D('',#267,#217,#218);
#182=AXIS2_PLACEMENT_3D('',#269,#219,#220);
#183=AXIS2_PLACEMENT_3D('',#272,#222,#223);
#184=AXIS2_PLACEMENT_3D('',#273,#224,#225);
#185=AXIS2_PLACEMENT_3D('',#275,#226,#227);
#186=AXIS2_PLACEMENT_3D('',#276,#228,#229);
#187=AXIS2_PLACEMENT_3D('',#278,#230,#231);
#188=AXIS2_PLACEMENT_3D('',#279,#232,#233);
#189=AXIS2_PLACEMENT_3D('',#281,#234,#235);
#190=AXIS2_PLACEMENT_3D('',#283,#237,#238);
#191=AXIS2_PLACEMENT_3D('',#285,#239,#240);
#192=AXIS2_PLACEMENT_3D('',#286,#241,#242);
#193=AXIS2_PLACEMENT_3D('',#287,#243,#244);
#194=AXIS2_PLACEMENT_3D('',#290,#246,#247);
#195=AXIS2_PLACEMENT_3D('',#291,#248,#249);
#196=AXIS2_PLACEMENT_3D('',#292,#250,#251);
#197=DIRECTION('axis',(0.,0.,1.));
#198=DIRECTION('refdir',(1.,0.,0.));
#199=DIRECTION('center_axis',(0.,0.,-1.));
#200=DIRECTION('ref_axis',(1.,0.,0.));
#201=DIRECTION('center_axis',(0.,0.,-1.));
#202=DIRECTION('ref_axis',(1.,0.,0.));
#203=DIRECTION('',(0.,0.,1.));
#204=DIRECTION('center_axis',(0.,0.,1.));
#205=DIRECTION('ref_axis',(1.,0.,0.));
#206=DIRECTION('center_axis',(0.,0.,-1.));
#207=DIRECTION('ref_axis',(1.,0.,0.));
#208=DIRECTION('center_axis',(0.,0.,-1.));
#209=DIRECTION('ref_axis',(1.,0.,0.));
#210=DIRECTION('center_axis',(0.,0.,-1.));
#211=DIRECTION('ref_axis',(1.,0.,0.));
#212=DIRECTION('',(0.,0.,1.));
#213=DIRECTION('center_axis',(0.,0.,1.));
#214=DIRECTION('ref_axis',(1.,0.,0.));
#215=DIRECTION('center_axis',(0.,0.,-1.));
#216=DIRECTION('ref_axis',(1.,0.,0.));
#217=DIRECTION('center_axis',(0.,0.,1.));
#218=DIRECTION('ref_axis',(-1.,0.,0.));
#219=DIRECTION('center_axis',(0.,0.,1.));
#220=DIRECTION('ref_axis',(-1.,0.,0.));
#221=DIRECTION('',(0.,0.,1.));
#222=DIRECTION('center_axis',(0.,0.,-1.));
#223=DIRECTION('ref_axis',(-1.,0.,0.));
#224=DIRECTION('center_axis',(0.,0.,-1.));
#225=DIRECTION('ref_axis',(-1.,0.,0.));
#226=DIRECTION('center_axis',(0.,0.,-1.));
#227=DIRECTION('ref_axis',(1.,0.,0.));
#228=DIRECTION('center_axis',(0.,0.,-1.));
#229=DIRECTION('ref_axis',(-1.,0.,0.));
#230=DIRECTION('center_axis',(0.,0.,1.));
#231=DIRECTION('ref_axis',(1.,0.,0.));
#232=DIRECTION('center_axis',(0.,0.,1.));
#233=DIRECTION('ref_axis',(1.,0.,0.));
#234=DIRECTION('center_axis',(0.,0.,1.));
#235=DIRECTION('ref_axis',(1.,0.,0.));
#236=DIRECTION('',(0.,0.,-1.));
#237=DIRECTION('center_axis',(0.,0.,1.));
#238=DIRECTION('ref_axis',(1.,0.,0.));
#239=DIRECTION('center_axis',(0.,0.,-1.));
#240=DIRECTION('ref_axis',(1.,0.,0.));
#241=DIRECTION('center_axis',(1.22464679914735E-16,-1.,0.));
#242=DIRECTION('ref_axis',(-1.,-1.22464679914735E-16,0.));
#243=DIRECTION('center_axis',(0.,0.,1.));
#244=DIRECTION('ref_axis',(1.,0.,0.));
#245=DIRECTION('',(0.,0.,-1.));
#246=DIRECTION('center_axis',(0.,0.,1.));
#247=DIRECTION('ref_axis',(1.,0.,0.));
#248=DIRECTION('center_axis',(0.,0.,1.));
#249=DIRECTION('ref_axis',(1.,0.,0.));
#250=DIRECTION('center_axis',(0.,0.,1.));
#251=DIRECTION('ref_axis',(1.,0.,0.));
#252=CARTESIAN_POINT('',(0.,0.,0.));
#253=CARTESIAN_POINT('Origin',(3.8,0.,0.));
#254=CARTESIAN_POINT('',(3.5,3.67394039744206E-17,-5.));
#255=CARTESIAN_POINT('Origin',(3.8,0.,-5.));
#256=CARTESIAN_POINT('',(3.5,3.67394039744206E-17,0.));
#257=CARTESIAN_POINT('',(3.5,3.67394039744206E-17,0.));
#258=CARTESIAN_POINT('Origin',(3.8,0.,0.));
#259=CARTESIAN_POINT('Origin',(3.8,0.,-5.));
#260=CARTESIAN_POINT('Origin',(-3.8,0.,0.));
#261=CARTESIAN_POINT('',(-4.1,3.67394039744206E-17,-6.5));
#262=CARTESIAN_POINT('Origin',(-3.8,0.,-6.5));
#263=CARTESIAN_POINT('',(-4.1,3.67394039744206E-17,0.));
#264=CARTESIAN_POINT('',(-4.1,3.67394039744206E-17,0.));
#265=CARTESIAN_POINT('Origin',(-3.8,0.,0.));
#266=CARTESIAN_POINT('Origin',(-3.8,0.,-6.5));
#267=CARTESIAN_POINT('Origin',(0.,0.,4.));
#268=CARTESIAN_POINT('',(5.75,-7.04171909509728E-16,4.));
#269=CARTESIAN_POINT('Origin',(0.,0.,4.));
#270=CARTESIAN_POINT('',(5.75,-7.04171909509728E-16,4.5));
#271=CARTESIAN_POINT('',(5.75,7.04171909509728E-16,4.));
#272=CARTESIAN_POINT('Origin',(0.,0.,4.5));
#273=CARTESIAN_POINT('Origin',(0.,0.,4.));
#274=CARTESIAN_POINT('',(-6.,-7.34788079488412E-16,4.));
#275=CARTESIAN_POINT('Origin',(0.,0.,4.));
#276=CARTESIAN_POINT('Origin',(0.,0.,4.5));
#277=CARTESIAN_POINT('',(-6.,-7.34788079488412E-16,4.5));
#278=CARTESIAN_POINT('Origin',(0.,0.,4.5));
#279=CARTESIAN_POINT('Origin',(0.,0.,0.));
#280=CARTESIAN_POINT('',(-6.,-7.34788079488412E-16,9.));
#281=CARTESIAN_POINT('Origin',(0.,0.,9.));
#282=CARTESIAN_POINT('',(-6.,-7.34788079488412E-16,0.));
#283=CARTESIAN_POINT('Origin',(0.,0.,9.));
#284=CARTESIAN_POINT('',(-5.5,6.73555739531044E-16,9.5));
#285=CARTESIAN_POINT('Origin',(0.,0.,9.5));
#286=CARTESIAN_POINT('Origin',(-5.5,-6.73555739531044E-16,9.));
#287=CARTESIAN_POINT('Origin',(0.,0.,0.));
#288=CARTESIAN_POINT('',(-6.,-7.34788079488412E-16,0.));
#289=CARTESIAN_POINT('',(-6.,-7.34788079488412E-16,0.));
#290=CARTESIAN_POINT('Origin',(0.,0.,0.));
#291=CARTESIAN_POINT('Origin',(0.,0.,9.5));
#292=CARTESIAN_POINT('Origin',(0.,0.,0.));
#293=UNCERTAINTY_MEASURE_WITH_UNIT(LENGTH_MEASURE(0.01),#297,
'DISTANCE_ACCURACY_VALUE',
'Maximum model space distance between geometric entities at asserted c
onnectivities');
#294=UNCERTAINTY_MEASURE_WITH_UNIT(LENGTH_MEASURE(0.01),#297,
'DISTANCE_ACCURACY_VALUE',
'Maximum model space distance between geometric entities at asserted c
onnectivities');
#295=(
GEOMETRIC_REPRESENTATION_CONTEXT(3)
GLOBAL_UNCERTAINTY_ASSIGNED_CONTEXT((#293))
GLOBAL_UNIT_ASSIGNED_CONTEXT((#297,#299,#300))
REPRESENTATION_CONTEXT('','3D')
);
#296=(
GEOMETRIC_REPRESENTATION_CONTEXT(3)
GLOBAL_UNCERTAINTY_ASSIGNED_CONTEXT((#294))
GLOBAL_UNIT_ASSIGNED_CONTEXT((#297,#299,#300))
REPRESENTATION_CONTEXT('','3D')
);
#297=(
LENGTH_UNIT()
NAMED_UNIT(*)
SI_UNIT(.MILLI.,.METRE.)
);
#298=(
LENGTH_UNIT()
NAMED_UNIT(*)
SI_UNIT($,.METRE.)
);
#299=(
NAMED_UNIT(*)
PLANE_ANGLE_UNIT()
SI_UNIT($,.RADIAN.)
);
#300=(
NAMED_UNIT(*)
SI_UNIT($,.STERADIAN.)
SOLID_ANGLE_UNIT()
);
#301=SHAPE_DEFINITION_REPRESENTATION(#302,#303);
#302=PRODUCT_DEFINITION_SHAPE('',$,#305);
#303=SHAPE_REPRESENTATION('',(#172),#295);
#304=PRODUCT_DEFINITION_CONTEXT('part definition',#309,'design');
#305=PRODUCT_DEFINITION('Buzzer','Buzzer v2',#306,#304);
#306=PRODUCT_DEFINITION_FORMATION('',$,#311);
#307=PRODUCT_RELATED_PRODUCT_CATEGORY('Buzzer v2','Buzzer v2',(#311));
#308=APPLICATION_PROTOCOL_DEFINITION('international standard',
'automotive_design',2009,#309);
#309=APPLICATION_CONTEXT(
'Core Data for Automotive Mechanical Design Process');
#310=PRODUCT_CONTEXT('part definition',#309,'mechanical');
#311=PRODUCT('Buzzer','Buzzer v2',$,(#310));
#312=PRESENTATION_STYLE_ASSIGNMENT((#314));
#313=PRESENTATION_STYLE_ASSIGNMENT((#315));
#314=SURFACE_STYLE_USAGE(.BOTH.,#316);
#315=SURFACE_STYLE_USAGE(.BOTH.,#317);
#316=SURFACE_SIDE_STYLE('',(#318));
#317=SURFACE_SIDE_STYLE('',(#319));
#318=SURFACE_STYLE_FILL_AREA(#320);
#319=SURFACE_STYLE_FILL_AREA(#321);
#320=FILL_AREA_STYLE('Steel - Satin',(#322));
#321=FILL_AREA_STYLE('ABS (White)',(#323));
#322=FILL_AREA_STYLE_COLOUR('Steel - Satin',#324);
#323=FILL_AREA_STYLE_COLOUR('ABS (White)',#325);
#324=COLOUR_RGB('Steel - Satin',0.627450980392157,0.627450980392157,0.627450980392157);
#325=COLOUR_RGB('ABS (White)',0.0980392156862745,0.0980392156862745,0.0980392156862745);
ENDSEC;
END-ISO-10303-21;
