ISO-10303-21;
HEADER;
/* Generated by software containing ST-Developer
 * from STEP Tools, Inc. (www.steptools.com) 
 */

FILE_DESCRIPTION(
/* description */ (''),
/* implementation_level */ '2;1');

FILE_NAME(
/* name */ 'Female DC Power Barrel Jack.step',
/* time_stamp */ '2026-04-17T03:26:06-04:00',
/* author */ (''),
/* organization */ (''),
/* preprocessor_version */ 'ST-DEVELOPER v20.1',
/* originating_system */ 'Autodesk Translation Framework v15.8.0.0',
/* authorisation */ '');

FILE_SCHEMA (('AUTOMOTIVE_DESIGN { 1 0 10303 214 3 1 1 }'));
ENDSEC;

DATA;
#10=MECHANICAL_DESIGN_GEOMETRIC_PRESENTATION_REPRESENTATION('',(#24,#25,
#26,#27,#28,#29,#30,#31),#1912);
#11=SHAPE_REPRESENTATION_RELATIONSHIP('SRR','None',#1919,#12);
#12=ADVANCED_BREP_SHAPE_REPRESENTATION('',(#13),#1911);
#13=MANIFOLD_SOLID_BREP('Body1',#1204);
#14=CIRCLE('',#1277,3.);
#15=CIRCLE('',#1278,3.);
#16=CYLINDRICAL_SURFACE('',#1276,3.);
#17=FACE_BOUND('',#140,.T.);
#18=FACE_BOUND('',#141,.T.);
#19=FACE_BOUND('',#155,.T.);
#20=FACE_BOUND('',#156,.T.);
#21=FACE_BOUND('',#160,.T.);
#22=FACE_BOUND('',#161,.T.);
#23=FACE_BOUND('',#163,.T.);
#24=STYLED_ITEM('',(#1929),#1185);
#25=STYLED_ITEM('',(#1929),#1186);
#26=STYLED_ITEM('',(#1929),#1193);
#27=STYLED_ITEM('',(#1929),#1194);
#28=STYLED_ITEM('',(#1929),#1195);
#29=STYLED_ITEM('',(#1929),#1199);
#30=STYLED_ITEM('',(#1929),#1200);
#31=STYLED_ITEM('',(#1928),#13);
#32=FACE_OUTER_BOUND('',#95,.T.);
#33=FACE_OUTER_BOUND('',#96,.T.);
#34=FACE_OUTER_BOUND('',#97,.T.);
#35=FACE_OUTER_BOUND('',#98,.T.);
#36=FACE_OUTER_BOUND('',#99,.T.);
#37=FACE_OUTER_BOUND('',#100,.T.);
#38=FACE_OUTER_BOUND('',#101,.T.);
#39=FACE_OUTER_BOUND('',#102,.T.);
#40=FACE_OUTER_BOUND('',#103,.T.);
#41=FACE_OUTER_BOUND('',#104,.T.);
#42=FACE_OUTER_BOUND('',#105,.T.);
#43=FACE_OUTER_BOUND('',#106,.T.);
#44=FACE_OUTER_BOUND('',#107,.T.);
#45=FACE_OUTER_BOUND('',#108,.T.);
#46=FACE_OUTER_BOUND('',#109,.T.);
#47=FACE_OUTER_BOUND('',#110,.T.);
#48=FACE_OUTER_BOUND('',#111,.T.);
#49=FACE_OUTER_BOUND('',#112,.T.);
#50=FACE_OUTER_BOUND('',#113,.T.);
#51=FACE_OUTER_BOUND('',#114,.T.);
#52=FACE_OUTER_BOUND('',#115,.T.);
#53=FACE_OUTER_BOUND('',#116,.T.);
#54=FACE_OUTER_BOUND('',#117,.T.);
#55=FACE_OUTER_BOUND('',#118,.T.);
#56=FACE_OUTER_BOUND('',#119,.T.);
#57=FACE_OUTER_BOUND('',#120,.T.);
#58=FACE_OUTER_BOUND('',#121,.T.);
#59=FACE_OUTER_BOUND('',#122,.T.);
#60=FACE_OUTER_BOUND('',#123,.T.);
#61=FACE_OUTER_BOUND('',#124,.T.);
#62=FACE_OUTER_BOUND('',#125,.T.);
#63=FACE_OUTER_BOUND('',#126,.T.);
#64=FACE_OUTER_BOUND('',#127,.T.);
#65=FACE_OUTER_BOUND('',#128,.T.);
#66=FACE_OUTER_BOUND('',#129,.T.);
#67=FACE_OUTER_BOUND('',#130,.T.);
#68=FACE_OUTER_BOUND('',#131,.T.);
#69=FACE_OUTER_BOUND('',#132,.T.);
#70=FACE_OUTER_BOUND('',#133,.T.);
#71=FACE_OUTER_BOUND('',#134,.T.);
#72=FACE_OUTER_BOUND('',#135,.T.);
#73=FACE_OUTER_BOUND('',#136,.T.);
#74=FACE_OUTER_BOUND('',#137,.T.);
#75=FACE_OUTER_BOUND('',#138,.T.);
#76=FACE_OUTER_BOUND('',#139,.T.);
#77=FACE_OUTER_BOUND('',#142,.T.);
#78=FACE_OUTER_BOUND('',#143,.T.);
#79=FACE_OUTER_BOUND('',#144,.T.);
#80=FACE_OUTER_BOUND('',#145,.T.);
#81=FACE_OUTER_BOUND('',#146,.T.);
#82=FACE_OUTER_BOUND('',#147,.T.);
#83=FACE_OUTER_BOUND('',#148,.T.);
#84=FACE_OUTER_BOUND('',#149,.T.);
#85=FACE_OUTER_BOUND('',#150,.T.);
#86=FACE_OUTER_BOUND('',#151,.T.);
#87=FACE_OUTER_BOUND('',#152,.T.);
#88=FACE_OUTER_BOUND('',#153,.T.);
#89=FACE_OUTER_BOUND('',#154,.T.);
#90=FACE_OUTER_BOUND('',#157,.T.);
#91=FACE_OUTER_BOUND('',#158,.T.);
#92=FACE_OUTER_BOUND('',#159,.T.);
#93=FACE_OUTER_BOUND('',#162,.T.);
#94=FACE_OUTER_BOUND('',#164,.T.);
#95=EDGE_LOOP('',(#755,#756,#757,#758));
#96=EDGE_LOOP('',(#759,#760,#761,#762));
#97=EDGE_LOOP('',(#763,#764,#765,#766,#767,#768));
#98=EDGE_LOOP('',(#769,#770,#771,#772));
#99=EDGE_LOOP('',(#773,#774,#775,#776,#777,#778));
#100=EDGE_LOOP('',(#779,#780,#781,#782));
#101=EDGE_LOOP('',(#783,#784,#785,#786));
#102=EDGE_LOOP('',(#787,#788,#789,#790));
#103=EDGE_LOOP('',(#791,#792,#793,#794));
#104=EDGE_LOOP('',(#795,#796,#797,#798,#799,#800));
#105=EDGE_LOOP('',(#801,#802,#803,#804));
#106=EDGE_LOOP('',(#805,#806,#807,#808,#809,#810));
#107=EDGE_LOOP('',(#811,#812,#813,#814));
#108=EDGE_LOOP('',(#815,#816,#817,#818));
#109=EDGE_LOOP('',(#819,#820,#821,#822));
#110=EDGE_LOOP('',(#823,#824,#825,#826));
#111=EDGE_LOOP('',(#827,#828,#829,#830,#831,#832));
#112=EDGE_LOOP('',(#833,#834,#835,#836));
#113=EDGE_LOOP('',(#837,#838,#839,#840,#841,#842));
#114=EDGE_LOOP('',(#843,#844,#845,#846));
#115=EDGE_LOOP('',(#847,#848,#849,#850));
#116=EDGE_LOOP('',(#851,#852,#853,#854));
#117=EDGE_LOOP('',(#855,#856,#857,#858));
#118=EDGE_LOOP('',(#859,#860,#861,#862,#863,#864));
#119=EDGE_LOOP('',(#865,#866,#867,#868));
#120=EDGE_LOOP('',(#869,#870,#871,#872,#873,#874));
#121=EDGE_LOOP('',(#875,#876,#877,#878));
#122=EDGE_LOOP('',(#879,#880,#881,#882));
#123=EDGE_LOOP('',(#883,#884,#885,#886));
#124=EDGE_LOOP('',(#887,#888,#889,#890));
#125=EDGE_LOOP('',(#891,#892,#893,#894));
#126=EDGE_LOOP('',(#895,#896,#897,#898));
#127=EDGE_LOOP('',(#899,#900,#901,#902));
#128=EDGE_LOOP('',(#903,#904,#905,#906));
#129=EDGE_LOOP('',(#907,#908,#909,#910));
#130=EDGE_LOOP('',(#911,#912,#913,#914));
#131=EDGE_LOOP('',(#915,#916,#917,#918));
#132=EDGE_LOOP('',(#919,#920,#921,#922));
#133=EDGE_LOOP('',(#923,#924,#925,#926,#927,#928,#929));
#134=EDGE_LOOP('',(#930,#931,#932,#933));
#135=EDGE_LOOP('',(#934,#935,#936,#937));
#136=EDGE_LOOP('',(#938,#939,#940,#941,#942,#943,#944));
#137=EDGE_LOOP('',(#945,#946,#947,#948));
#138=EDGE_LOOP('',(#949,#950,#951,#952));
#139=EDGE_LOOP('',(#953,#954,#955,#956,#957,#958,#959,#960,#961,#962,#963,
#964));
#140=EDGE_LOOP('',(#965,#966,#967,#968));
#141=EDGE_LOOP('',(#969,#970,#971,#972));
#142=EDGE_LOOP('',(#973,#974,#975,#976));
#143=EDGE_LOOP('',(#977,#978,#979,#980));
#144=EDGE_LOOP('',(#981,#982,#983,#984,#985,#986,#987));
#145=EDGE_LOOP('',(#988,#989,#990,#991,#992,#993,#994));
#146=EDGE_LOOP('',(#995,#996,#997,#998));
#147=EDGE_LOOP('',(#999,#1000,#1001,#1002));
#148=EDGE_LOOP('',(#1003,#1004,#1005,#1006));
#149=EDGE_LOOP('',(#1007,#1008,#1009,#1010,#1011,#1012,#1013,#1014,#1015,
#1016,#1017,#1018));
#150=EDGE_LOOP('',(#1019,#1020,#1021,#1022));
#151=EDGE_LOOP('',(#1023,#1024,#1025,#1026));
#152=EDGE_LOOP('',(#1027,#1028,#1029,#1030));
#153=EDGE_LOOP('',(#1031,#1032,#1033,#1034));
#154=EDGE_LOOP('',(#1035,#1036,#1037,#1038,#1039,#1040,#1041));
#155=EDGE_LOOP('',(#1042,#1043,#1044,#1045));
#156=EDGE_LOOP('',(#1046,#1047,#1048,#1049));
#157=EDGE_LOOP('',(#1050,#1051,#1052,#1053));
#158=EDGE_LOOP('',(#1054));
#159=EDGE_LOOP('',(#1055,#1056,#1057,#1058,#1059,#1060,#1061));
#160=EDGE_LOOP('',(#1062,#1063,#1064,#1065));
#161=EDGE_LOOP('',(#1066,#1067,#1068,#1069));
#162=EDGE_LOOP('',(#1070,#1071,#1072,#1073));
#163=EDGE_LOOP('',(#1074));
#164=EDGE_LOOP('',(#1075,#1076,#1077,#1078));
#165=LINE('',#1579,#325);
#166=LINE('',#1581,#326);
#167=LINE('',#1583,#327);
#168=LINE('',#1584,#328);
#169=LINE('',#1588,#329);
#170=LINE('',#1589,#330);
#171=LINE('',#1590,#331);
#172=LINE('',#1593,#332);
#173=LINE('',#1595,#333);
#174=LINE('',#1597,#334);
#175=LINE('',#1598,#335);
#176=LINE('',#1601,#336);
#177=LINE('',#1603,#337);
#178=LINE('',#1604,#338);
#179=LINE('',#1607,#339);
#180=LINE('',#1608,#340);
#181=LINE('',#1609,#341);
#182=LINE('',#1611,#342);
#183=LINE('',#1616,#343);
#184=LINE('',#1618,#344);
#185=LINE('',#1620,#345);
#186=LINE('',#1621,#346);
#187=LINE('',#1625,#347);
#188=LINE('',#1626,#348);
#189=LINE('',#1627,#349);
#190=LINE('',#1630,#350);
#191=LINE('',#1632,#351);
#192=LINE('',#1634,#352);
#193=LINE('',#1635,#353);
#194=LINE('',#1638,#354);
#195=LINE('',#1640,#355);
#196=LINE('',#1641,#356);
#197=LINE('',#1643,#357);
#198=LINE('',#1645,#358);
#199=LINE('',#1646,#359);
#200=LINE('',#1648,#360);
#201=LINE('',#1653,#361);
#202=LINE('',#1655,#362);
#203=LINE('',#1657,#363);
#204=LINE('',#1658,#364);
#205=LINE('',#1662,#365);
#206=LINE('',#1663,#366);
#207=LINE('',#1664,#367);
#208=LINE('',#1667,#368);
#209=LINE('',#1669,#369);
#210=LINE('',#1671,#370);
#211=LINE('',#1672,#371);
#212=LINE('',#1675,#372);
#213=LINE('',#1677,#373);
#214=LINE('',#1678,#374);
#215=LINE('',#1680,#375);
#216=LINE('',#1682,#376);
#217=LINE('',#1683,#377);
#218=LINE('',#1685,#378);
#219=LINE('',#1690,#379);
#220=LINE('',#1692,#380);
#221=LINE('',#1694,#381);
#222=LINE('',#1695,#382);
#223=LINE('',#1699,#383);
#224=LINE('',#1700,#384);
#225=LINE('',#1701,#385);
#226=LINE('',#1704,#386);
#227=LINE('',#1706,#387);
#228=LINE('',#1708,#388);
#229=LINE('',#1709,#389);
#230=LINE('',#1712,#390);
#231=LINE('',#1714,#391);
#232=LINE('',#1715,#392);
#233=LINE('',#1718,#393);
#234=LINE('',#1719,#394);
#235=LINE('',#1720,#395);
#236=LINE('',#1722,#396);
#237=LINE('',#1727,#397);
#238=LINE('',#1729,#398);
#239=LINE('',#1731,#399);
#240=LINE('',#1732,#400);
#241=LINE('',#1735,#401);
#242=LINE('',#1737,#402);
#243=LINE('',#1738,#403);
#244=LINE('',#1741,#404);
#245=LINE('',#1743,#405);
#246=LINE('',#1744,#406);
#247=LINE('',#1746,#407);
#248=LINE('',#1748,#408);
#249=LINE('',#1752,#409);
#250=LINE('',#1754,#410);
#251=LINE('',#1756,#411);
#252=LINE('',#1757,#412);
#253=LINE('',#1760,#413);
#254=LINE('',#1762,#414);
#255=LINE('',#1763,#415);
#256=LINE('',#1766,#416);
#257=LINE('',#1767,#417);
#258=LINE('',#1770,#418);
#259=LINE('',#1771,#419);
#260=LINE('',#1773,#420);
#261=LINE('',#1777,#421);
#262=LINE('',#1779,#422);
#263=LINE('',#1781,#423);
#264=LINE('',#1783,#424);
#265=LINE('',#1785,#425);
#266=LINE('',#1787,#426);
#267=LINE('',#1788,#427);
#268=LINE('',#1791,#428);
#269=LINE('',#1793,#429);
#270=LINE('',#1794,#430);
#271=LINE('',#1797,#431);
#272=LINE('',#1799,#432);
#273=LINE('',#1800,#433);
#274=LINE('',#1803,#434);
#275=LINE('',#1805,#435);
#276=LINE('',#1806,#436);
#277=LINE('',#1808,#437);
#278=LINE('',#1809,#438);
#279=LINE('',#1811,#439);
#280=LINE('',#1815,#440);
#281=LINE('',#1817,#441);
#282=LINE('',#1819,#442);
#283=LINE('',#1821,#443);
#284=LINE('',#1823,#444);
#285=LINE('',#1825,#445);
#286=LINE('',#1827,#446);
#287=LINE('',#1829,#447);
#288=LINE('',#1830,#448);
#289=LINE('',#1833,#449);
#290=LINE('',#1834,#450);
#291=LINE('',#1837,#451);
#292=LINE('',#1839,#452);
#293=LINE('',#1840,#453);
#294=LINE('',#1843,#454);
#295=LINE('',#1845,#455);
#296=LINE('',#1847,#456);
#297=LINE('',#1848,#457);
#298=LINE('',#1851,#458);
#299=LINE('',#1853,#459);
#300=LINE('',#1855,#460);
#301=LINE('',#1857,#461);
#302=LINE('',#1858,#462);
#303=LINE('',#1860,#463);
#304=LINE('',#1861,#464);
#305=LINE('',#1863,#465);
#306=LINE('',#1867,#466);
#307=LINE('',#1869,#467);
#308=LINE('',#1871,#468);
#309=LINE('',#1873,#469);
#310=LINE('',#1874,#470);
#311=LINE('',#1876,#471);
#312=LINE('',#1878,#472);
#313=LINE('',#1881,#473);
#314=LINE('',#1883,#474);
#315=LINE('',#1884,#475);
#316=LINE('',#1887,#476);
#317=LINE('',#1889,#477);
#318=LINE('',#1890,#478);
#319=LINE('',#1893,#479);
#320=LINE('',#1894,#480);
#321=LINE('',#1899,#481);
#322=LINE('',#1904,#482);
#323=LINE('',#1905,#483);
#324=LINE('',#1907,#484);
#325=VECTOR('',#1287,10.);
#326=VECTOR('',#1288,10.);
#327=VECTOR('',#1289,10.);
#328=VECTOR('',#1290,10.);
#329=VECTOR('',#1293,10.);
#330=VECTOR('',#1294,10.);
#331=VECTOR('',#1295,10.);
#332=VECTOR('',#1298,10.);
#333=VECTOR('',#1299,10.);
#334=VECTOR('',#1300,10.);
#335=VECTOR('',#1301,10.);
#336=VECTOR('',#1304,10.);
#337=VECTOR('',#1305,10.);
#338=VECTOR('',#1306,10.);
#339=VECTOR('',#1309,10.);
#340=VECTOR('',#1310,10.);
#341=VECTOR('',#1311,10.);
#342=VECTOR('',#1314,10.);
#343=VECTOR('',#1319,10.);
#344=VECTOR('',#1320,10.);
#345=VECTOR('',#1321,10.);
#346=VECTOR('',#1322,10.);
#347=VECTOR('',#1325,10.);
#348=VECTOR('',#1326,10.);
#349=VECTOR('',#1327,10.);
#350=VECTOR('',#1330,10.);
#351=VECTOR('',#1331,10.);
#352=VECTOR('',#1332,10.);
#353=VECTOR('',#1333,10.);
#354=VECTOR('',#1336,10.);
#355=VECTOR('',#1337,10.);
#356=VECTOR('',#1338,10.);
#357=VECTOR('',#1341,10.);
#358=VECTOR('',#1342,10.);
#359=VECTOR('',#1343,10.);
#360=VECTOR('',#1346,10.);
#361=VECTOR('',#1351,10.);
#362=VECTOR('',#1352,10.);
#363=VECTOR('',#1353,10.);
#364=VECTOR('',#1354,10.);
#365=VECTOR('',#1357,10.);
#366=VECTOR('',#1358,10.);
#367=VECTOR('',#1359,10.);
#368=VECTOR('',#1362,10.);
#369=VECTOR('',#1363,10.);
#370=VECTOR('',#1364,10.);
#371=VECTOR('',#1365,10.);
#372=VECTOR('',#1368,10.);
#373=VECTOR('',#1369,10.);
#374=VECTOR('',#1370,10.);
#375=VECTOR('',#1373,10.);
#376=VECTOR('',#1374,10.);
#377=VECTOR('',#1375,10.);
#378=VECTOR('',#1378,10.);
#379=VECTOR('',#1383,10.);
#380=VECTOR('',#1384,10.);
#381=VECTOR('',#1385,10.);
#382=VECTOR('',#1386,10.);
#383=VECTOR('',#1389,10.);
#384=VECTOR('',#1390,10.);
#385=VECTOR('',#1391,10.);
#386=VECTOR('',#1394,10.);
#387=VECTOR('',#1395,10.);
#388=VECTOR('',#1396,10.);
#389=VECTOR('',#1397,10.);
#390=VECTOR('',#1400,10.);
#391=VECTOR('',#1401,10.);
#392=VECTOR('',#1402,10.);
#393=VECTOR('',#1405,10.);
#394=VECTOR('',#1406,10.);
#395=VECTOR('',#1407,10.);
#396=VECTOR('',#1410,10.);
#397=VECTOR('',#1415,10.);
#398=VECTOR('',#1416,10.);
#399=VECTOR('',#1417,10.);
#400=VECTOR('',#1418,10.);
#401=VECTOR('',#1421,10.);
#402=VECTOR('',#1422,10.);
#403=VECTOR('',#1423,10.);
#404=VECTOR('',#1426,10.);
#405=VECTOR('',#1427,10.);
#406=VECTOR('',#1428,10.);
#407=VECTOR('',#1431,10.);
#408=VECTOR('',#1434,10.);
#409=VECTOR('',#1437,10.);
#410=VECTOR('',#1438,10.);
#411=VECTOR('',#1439,10.);
#412=VECTOR('',#1440,10.);
#413=VECTOR('',#1443,10.);
#414=VECTOR('',#1444,10.);
#415=VECTOR('',#1445,10.);
#416=VECTOR('',#1448,10.);
#417=VECTOR('',#1449,10.);
#418=VECTOR('',#1452,10.);
#419=VECTOR('',#1453,10.);
#420=VECTOR('',#1456,10.);
#421=VECTOR('',#1459,10.);
#422=VECTOR('',#1460,10.);
#423=VECTOR('',#1461,10.);
#424=VECTOR('',#1462,10.);
#425=VECTOR('',#1463,10.);
#426=VECTOR('',#1464,10.);
#427=VECTOR('',#1465,10.);
#428=VECTOR('',#1468,10.);
#429=VECTOR('',#1469,10.);
#430=VECTOR('',#1470,10.);
#431=VECTOR('',#1473,10.);
#432=VECTOR('',#1474,10.);
#433=VECTOR('',#1475,10.);
#434=VECTOR('',#1478,10.);
#435=VECTOR('',#1479,10.);
#436=VECTOR('',#1480,10.);
#437=VECTOR('',#1481,10.);
#438=VECTOR('',#1482,10.);
#439=VECTOR('',#1485,10.);
#440=VECTOR('',#1490,10.);
#441=VECTOR('',#1491,10.);
#442=VECTOR('',#1492,10.);
#443=VECTOR('',#1493,10.);
#444=VECTOR('',#1494,10.);
#445=VECTOR('',#1495,10.);
#446=VECTOR('',#1496,10.);
#447=VECTOR('',#1497,10.);
#448=VECTOR('',#1498,10.);
#449=VECTOR('',#1501,10.);
#450=VECTOR('',#1502,10.);
#451=VECTOR('',#1505,10.);
#452=VECTOR('',#1506,10.);
#453=VECTOR('',#1507,10.);
#454=VECTOR('',#1510,10.);
#455=VECTOR('',#1511,10.);
#456=VECTOR('',#1512,10.);
#457=VECTOR('',#1513,10.);
#458=VECTOR('',#1516,10.);
#459=VECTOR('',#1517,10.);
#460=VECTOR('',#1518,10.);
#461=VECTOR('',#1519,10.);
#462=VECTOR('',#1520,10.);
#463=VECTOR('',#1523,10.);
#464=VECTOR('',#1524,10.);
#465=VECTOR('',#1527,10.);
#466=VECTOR('',#1532,10.);
#467=VECTOR('',#1533,10.);
#468=VECTOR('',#1534,10.);
#469=VECTOR('',#1535,10.);
#470=VECTOR('',#1536,10.);
#471=VECTOR('',#1539,10.);
#472=VECTOR('',#1542,10.);
#473=VECTOR('',#1545,10.);
#474=VECTOR('',#1546,10.);
#475=VECTOR('',#1547,10.);
#476=VECTOR('',#1550,10.);
#477=VECTOR('',#1551,10.);
#478=VECTOR('',#1552,10.);
#479=VECTOR('',#1555,10.);
#480=VECTOR('',#1556,10.);
#481=VECTOR('',#1561,3.);
#482=VECTOR('',#1568,10.);
#483=VECTOR('',#1569,10.);
#484=VECTOR('',#1572,10.);
#485=VERTEX_POINT('',#1577);
#486=VERTEX_POINT('',#1578);
#487=VERTEX_POINT('',#1580);
#488=VERTEX_POINT('',#1582);
#489=VERTEX_POINT('',#1586);
#490=VERTEX_POINT('',#1587);
#491=VERTEX_POINT('',#1592);
#492=VERTEX_POINT('',#1594);
#493=VERTEX_POINT('',#1596);
#494=VERTEX_POINT('',#1600);
#495=VERTEX_POINT('',#1602);
#496=VERTEX_POINT('',#1606);
#497=VERTEX_POINT('',#1614);
#498=VERTEX_POINT('',#1615);
#499=VERTEX_POINT('',#1617);
#500=VERTEX_POINT('',#1619);
#501=VERTEX_POINT('',#1623);
#502=VERTEX_POINT('',#1624);
#503=VERTEX_POINT('',#1629);
#504=VERTEX_POINT('',#1631);
#505=VERTEX_POINT('',#1633);
#506=VERTEX_POINT('',#1637);
#507=VERTEX_POINT('',#1639);
#508=VERTEX_POINT('',#1644);
#509=VERTEX_POINT('',#1651);
#510=VERTEX_POINT('',#1652);
#511=VERTEX_POINT('',#1654);
#512=VERTEX_POINT('',#1656);
#513=VERTEX_POINT('',#1660);
#514=VERTEX_POINT('',#1661);
#515=VERTEX_POINT('',#1666);
#516=VERTEX_POINT('',#1668);
#517=VERTEX_POINT('',#1670);
#518=VERTEX_POINT('',#1674);
#519=VERTEX_POINT('',#1676);
#520=VERTEX_POINT('',#1681);
#521=VERTEX_POINT('',#1688);
#522=VERTEX_POINT('',#1689);
#523=VERTEX_POINT('',#1691);
#524=VERTEX_POINT('',#1693);
#525=VERTEX_POINT('',#1697);
#526=VERTEX_POINT('',#1698);
#527=VERTEX_POINT('',#1703);
#528=VERTEX_POINT('',#1705);
#529=VERTEX_POINT('',#1707);
#530=VERTEX_POINT('',#1711);
#531=VERTEX_POINT('',#1713);
#532=VERTEX_POINT('',#1717);
#533=VERTEX_POINT('',#1725);
#534=VERTEX_POINT('',#1726);
#535=VERTEX_POINT('',#1728);
#536=VERTEX_POINT('',#1730);
#537=VERTEX_POINT('',#1734);
#538=VERTEX_POINT('',#1736);
#539=VERTEX_POINT('',#1740);
#540=VERTEX_POINT('',#1742);
#541=VERTEX_POINT('',#1750);
#542=VERTEX_POINT('',#1751);
#543=VERTEX_POINT('',#1753);
#544=VERTEX_POINT('',#1755);
#545=VERTEX_POINT('',#1759);
#546=VERTEX_POINT('',#1761);
#547=VERTEX_POINT('',#1765);
#548=VERTEX_POINT('',#1769);
#549=VERTEX_POINT('',#1775);
#550=VERTEX_POINT('',#1776);
#551=VERTEX_POINT('',#1778);
#552=VERTEX_POINT('',#1780);
#553=VERTEX_POINT('',#1782);
#554=VERTEX_POINT('',#1784);
#555=VERTEX_POINT('',#1786);
#556=VERTEX_POINT('',#1790);
#557=VERTEX_POINT('',#1792);
#558=VERTEX_POINT('',#1796);
#559=VERTEX_POINT('',#1798);
#560=VERTEX_POINT('',#1802);
#561=VERTEX_POINT('',#1804);
#562=VERTEX_POINT('',#1807);
#563=VERTEX_POINT('',#1814);
#564=VERTEX_POINT('',#1816);
#565=VERTEX_POINT('',#1818);
#566=VERTEX_POINT('',#1820);
#567=VERTEX_POINT('',#1822);
#568=VERTEX_POINT('',#1824);
#569=VERTEX_POINT('',#1826);
#570=VERTEX_POINT('',#1828);
#571=VERTEX_POINT('',#1832);
#572=VERTEX_POINT('',#1836);
#573=VERTEX_POINT('',#1838);
#574=VERTEX_POINT('',#1842);
#575=VERTEX_POINT('',#1844);
#576=VERTEX_POINT('',#1846);
#577=VERTEX_POINT('',#1850);
#578=VERTEX_POINT('',#1852);
#579=VERTEX_POINT('',#1854);
#580=VERTEX_POINT('',#1856);
#581=VERTEX_POINT('',#1866);
#582=VERTEX_POINT('',#1868);
#583=VERTEX_POINT('',#1870);
#584=VERTEX_POINT('',#1872);
#585=VERTEX_POINT('',#1880);
#586=VERTEX_POINT('',#1882);
#587=VERTEX_POINT('',#1886);
#588=VERTEX_POINT('',#1888);
#589=VERTEX_POINT('',#1892);
#590=VERTEX_POINT('',#1896);
#591=VERTEX_POINT('',#1898);
#592=VERTEX_POINT('',#1903);
#593=EDGE_CURVE('',#485,#486,#165,.T.);
#594=EDGE_CURVE('',#486,#487,#166,.T.);
#595=EDGE_CURVE('',#488,#487,#167,.T.);
#596=EDGE_CURVE('',#488,#485,#168,.T.);
#597=EDGE_CURVE('',#489,#490,#169,.T.);
#598=EDGE_CURVE('',#489,#488,#170,.T.);
#599=EDGE_CURVE('',#487,#490,#171,.T.);
#600=EDGE_CURVE('',#491,#489,#172,.T.);
#601=EDGE_CURVE('',#491,#492,#173,.T.);
#602=EDGE_CURVE('',#492,#493,#174,.T.);
#603=EDGE_CURVE('',#485,#493,#175,.T.);
#604=EDGE_CURVE('',#494,#491,#176,.T.);
#605=EDGE_CURVE('',#494,#495,#177,.T.);
#606=EDGE_CURVE('',#495,#492,#178,.T.);
#607=EDGE_CURVE('',#486,#496,#179,.T.);
#608=EDGE_CURVE('',#496,#495,#180,.T.);
#609=EDGE_CURVE('',#490,#494,#181,.T.);
#610=EDGE_CURVE('',#493,#496,#182,.T.);
#611=EDGE_CURVE('',#497,#498,#183,.T.);
#612=EDGE_CURVE('',#499,#497,#184,.T.);
#613=EDGE_CURVE('',#499,#500,#185,.T.);
#614=EDGE_CURVE('',#498,#500,#186,.T.);
#615=EDGE_CURVE('',#501,#502,#187,.T.);
#616=EDGE_CURVE('',#500,#501,#188,.T.);
#617=EDGE_CURVE('',#502,#499,#189,.T.);
#618=EDGE_CURVE('',#497,#503,#190,.T.);
#619=EDGE_CURVE('',#504,#503,#191,.T.);
#620=EDGE_CURVE('',#505,#504,#192,.T.);
#621=EDGE_CURVE('',#502,#505,#193,.T.);
#622=EDGE_CURVE('',#505,#506,#194,.T.);
#623=EDGE_CURVE('',#507,#504,#195,.T.);
#624=EDGE_CURVE('',#506,#507,#196,.T.);
#625=EDGE_CURVE('',#506,#501,#197,.T.);
#626=EDGE_CURVE('',#508,#507,#198,.T.);
#627=EDGE_CURVE('',#498,#508,#199,.T.);
#628=EDGE_CURVE('',#503,#508,#200,.T.);
#629=EDGE_CURVE('',#509,#510,#201,.T.);
#630=EDGE_CURVE('',#511,#509,#202,.T.);
#631=EDGE_CURVE('',#511,#512,#203,.T.);
#632=EDGE_CURVE('',#510,#512,#204,.T.);
#633=EDGE_CURVE('',#513,#514,#205,.T.);
#634=EDGE_CURVE('',#512,#513,#206,.T.);
#635=EDGE_CURVE('',#514,#511,#207,.T.);
#636=EDGE_CURVE('',#509,#515,#208,.T.);
#637=EDGE_CURVE('',#516,#515,#209,.T.);
#638=EDGE_CURVE('',#517,#516,#210,.T.);
#639=EDGE_CURVE('',#514,#517,#211,.T.);
#640=EDGE_CURVE('',#517,#518,#212,.T.);
#641=EDGE_CURVE('',#519,#516,#213,.T.);
#642=EDGE_CURVE('',#518,#519,#214,.T.);
#643=EDGE_CURVE('',#518,#513,#215,.T.);
#644=EDGE_CURVE('',#520,#519,#216,.T.);
#645=EDGE_CURVE('',#510,#520,#217,.T.);
#646=EDGE_CURVE('',#515,#520,#218,.T.);
#647=EDGE_CURVE('',#521,#522,#219,.T.);
#648=EDGE_CURVE('',#522,#523,#220,.T.);
#649=EDGE_CURVE('',#524,#523,#221,.T.);
#650=EDGE_CURVE('',#524,#521,#222,.T.);
#651=EDGE_CURVE('',#525,#526,#223,.T.);
#652=EDGE_CURVE('',#525,#524,#224,.T.);
#653=EDGE_CURVE('',#523,#526,#225,.T.);
#654=EDGE_CURVE('',#527,#525,#226,.T.);
#655=EDGE_CURVE('',#527,#528,#227,.T.);
#656=EDGE_CURVE('',#528,#529,#228,.T.);
#657=EDGE_CURVE('',#521,#529,#229,.T.);
#658=EDGE_CURVE('',#530,#527,#230,.T.);
#659=EDGE_CURVE('',#530,#531,#231,.T.);
#660=EDGE_CURVE('',#531,#528,#232,.T.);
#661=EDGE_CURVE('',#522,#532,#233,.T.);
#662=EDGE_CURVE('',#532,#531,#234,.T.);
#663=EDGE_CURVE('',#526,#530,#235,.T.);
#664=EDGE_CURVE('',#529,#532,#236,.T.);
#665=EDGE_CURVE('',#533,#534,#237,.T.);
#666=EDGE_CURVE('',#533,#535,#238,.T.);
#667=EDGE_CURVE('',#535,#536,#239,.T.);
#668=EDGE_CURVE('',#536,#534,#240,.T.);
#669=EDGE_CURVE('',#537,#533,#241,.T.);
#670=EDGE_CURVE('',#538,#537,#242,.T.);
#671=EDGE_CURVE('',#538,#535,#243,.T.);
#672=EDGE_CURVE('',#534,#539,#244,.T.);
#673=EDGE_CURVE('',#540,#536,#245,.T.);
#674=EDGE_CURVE('',#539,#540,#246,.T.);
#675=EDGE_CURVE('',#540,#538,#247,.T.);
#676=EDGE_CURVE('',#539,#537,#248,.T.);
#677=EDGE_CURVE('',#541,#542,#249,.T.);
#678=EDGE_CURVE('',#543,#541,#250,.T.);
#679=EDGE_CURVE('',#544,#543,#251,.T.);
#680=EDGE_CURVE('',#542,#544,#252,.T.);
#681=EDGE_CURVE('',#545,#541,#253,.T.);
#682=EDGE_CURVE('',#546,#545,#254,.T.);
#683=EDGE_CURVE('',#543,#546,#255,.T.);
#684=EDGE_CURVE('',#547,#546,#256,.T.);
#685=EDGE_CURVE('',#544,#547,#257,.T.);
#686=EDGE_CURVE('',#542,#548,#258,.T.);
#687=EDGE_CURVE('',#548,#547,#259,.T.);
#688=EDGE_CURVE('',#548,#545,#260,.T.);
#689=EDGE_CURVE('',#549,#550,#261,.T.);
#690=EDGE_CURVE('',#551,#549,#262,.T.);
#691=EDGE_CURVE('',#552,#551,#263,.T.);
#692=EDGE_CURVE('',#553,#552,#264,.T.);
#693=EDGE_CURVE('',#554,#553,#265,.T.);
#694=EDGE_CURVE('',#555,#554,#266,.T.);
#695=EDGE_CURVE('',#550,#555,#267,.T.);
#696=EDGE_CURVE('',#556,#552,#268,.T.);
#697=EDGE_CURVE('',#557,#556,#269,.T.);
#698=EDGE_CURVE('',#553,#557,#270,.T.);
#699=EDGE_CURVE('',#550,#558,#271,.T.);
#700=EDGE_CURVE('',#555,#559,#272,.T.);
#701=EDGE_CURVE('',#559,#558,#273,.T.);
#702=EDGE_CURVE('',#558,#560,#274,.T.);
#703=EDGE_CURVE('',#561,#559,#275,.T.);
#704=EDGE_CURVE('',#557,#561,#276,.T.);
#705=EDGE_CURVE('',#562,#556,#277,.T.);
#706=EDGE_CURVE('',#560,#562,#278,.T.);
#707=EDGE_CURVE('',#561,#554,#279,.T.);
#708=EDGE_CURVE('',#563,#560,#280,.T.);
#709=EDGE_CURVE('',#563,#564,#281,.T.);
#710=EDGE_CURVE('',#564,#565,#282,.T.);
#711=EDGE_CURVE('',#565,#566,#283,.T.);
#712=EDGE_CURVE('',#567,#566,#284,.T.);
#713=EDGE_CURVE('',#568,#567,#285,.T.);
#714=EDGE_CURVE('',#568,#569,#286,.T.);
#715=EDGE_CURVE('',#570,#569,#287,.T.);
#716=EDGE_CURVE('',#549,#570,#288,.T.);
#717=EDGE_CURVE('',#571,#562,#289,.T.);
#718=EDGE_CURVE('',#571,#563,#290,.T.);
#719=EDGE_CURVE('',#564,#572,#291,.T.);
#720=EDGE_CURVE('',#572,#573,#292,.T.);
#721=EDGE_CURVE('',#573,#565,#293,.T.);
#722=EDGE_CURVE('',#574,#571,#294,.T.);
#723=EDGE_CURVE('',#575,#574,#295,.T.);
#724=EDGE_CURVE('',#576,#575,#296,.T.);
#725=EDGE_CURVE('',#572,#576,#297,.T.);
#726=EDGE_CURVE('',#577,#573,#298,.T.);
#727=EDGE_CURVE('',#578,#577,#299,.T.);
#728=EDGE_CURVE('',#578,#579,#300,.T.);
#729=EDGE_CURVE('',#580,#579,#301,.T.);
#730=EDGE_CURVE('',#566,#580,#302,.T.);
#731=EDGE_CURVE('',#579,#574,#303,.T.);
#732=EDGE_CURVE('',#575,#578,#304,.T.);
#733=EDGE_CURVE('',#577,#576,#305,.T.);
#734=EDGE_CURVE('',#551,#581,#306,.T.);
#735=EDGE_CURVE('',#582,#581,#307,.T.);
#736=EDGE_CURVE('',#583,#582,#308,.T.);
#737=EDGE_CURVE('',#584,#583,#309,.T.);
#738=EDGE_CURVE('',#584,#580,#310,.T.);
#739=EDGE_CURVE('',#581,#570,#311,.T.);
#740=EDGE_CURVE('',#567,#584,#312,.T.);
#741=EDGE_CURVE('',#569,#585,#313,.T.);
#742=EDGE_CURVE('',#586,#568,#314,.T.);
#743=EDGE_CURVE('',#585,#586,#315,.T.);
#744=EDGE_CURVE('',#582,#587,#316,.T.);
#745=EDGE_CURVE('',#587,#588,#317,.T.);
#746=EDGE_CURVE('',#588,#583,#318,.T.);
#747=EDGE_CURVE('',#589,#585,#319,.T.);
#748=EDGE_CURVE('',#589,#587,#320,.T.);
#749=EDGE_CURVE('',#590,#590,#14,.T.);
#750=EDGE_CURVE('',#590,#591,#321,.T.);
#751=EDGE_CURVE('',#591,#591,#15,.T.);
#752=EDGE_CURVE('',#592,#588,#322,.T.);
#753=EDGE_CURVE('',#586,#592,#323,.T.);
#754=EDGE_CURVE('',#592,#589,#324,.T.);
#755=ORIENTED_EDGE('',*,*,#593,.T.);
#756=ORIENTED_EDGE('',*,*,#594,.T.);
#757=ORIENTED_EDGE('',*,*,#595,.F.);
#758=ORIENTED_EDGE('',*,*,#596,.T.);
#759=ORIENTED_EDGE('',*,*,#597,.F.);
#760=ORIENTED_EDGE('',*,*,#598,.T.);
#761=ORIENTED_EDGE('',*,*,#595,.T.);
#762=ORIENTED_EDGE('',*,*,#599,.T.);
#763=ORIENTED_EDGE('',*,*,#598,.F.);
#764=ORIENTED_EDGE('',*,*,#600,.F.);
#765=ORIENTED_EDGE('',*,*,#601,.T.);
#766=ORIENTED_EDGE('',*,*,#602,.T.);
#767=ORIENTED_EDGE('',*,*,#603,.F.);
#768=ORIENTED_EDGE('',*,*,#596,.F.);
#769=ORIENTED_EDGE('',*,*,#604,.F.);
#770=ORIENTED_EDGE('',*,*,#605,.T.);
#771=ORIENTED_EDGE('',*,*,#606,.T.);
#772=ORIENTED_EDGE('',*,*,#601,.F.);
#773=ORIENTED_EDGE('',*,*,#599,.F.);
#774=ORIENTED_EDGE('',*,*,#594,.F.);
#775=ORIENTED_EDGE('',*,*,#607,.T.);
#776=ORIENTED_EDGE('',*,*,#608,.T.);
#777=ORIENTED_EDGE('',*,*,#605,.F.);
#778=ORIENTED_EDGE('',*,*,#609,.F.);
#779=ORIENTED_EDGE('',*,*,#593,.F.);
#780=ORIENTED_EDGE('',*,*,#603,.T.);
#781=ORIENTED_EDGE('',*,*,#610,.T.);
#782=ORIENTED_EDGE('',*,*,#607,.F.);
#783=ORIENTED_EDGE('',*,*,#610,.F.);
#784=ORIENTED_EDGE('',*,*,#602,.F.);
#785=ORIENTED_EDGE('',*,*,#606,.F.);
#786=ORIENTED_EDGE('',*,*,#608,.F.);
#787=ORIENTED_EDGE('',*,*,#611,.F.);
#788=ORIENTED_EDGE('',*,*,#612,.F.);
#789=ORIENTED_EDGE('',*,*,#613,.T.);
#790=ORIENTED_EDGE('',*,*,#614,.F.);
#791=ORIENTED_EDGE('',*,*,#615,.F.);
#792=ORIENTED_EDGE('',*,*,#616,.F.);
#793=ORIENTED_EDGE('',*,*,#613,.F.);
#794=ORIENTED_EDGE('',*,*,#617,.F.);
#795=ORIENTED_EDGE('',*,*,#617,.T.);
#796=ORIENTED_EDGE('',*,*,#612,.T.);
#797=ORIENTED_EDGE('',*,*,#618,.T.);
#798=ORIENTED_EDGE('',*,*,#619,.F.);
#799=ORIENTED_EDGE('',*,*,#620,.F.);
#800=ORIENTED_EDGE('',*,*,#621,.F.);
#801=ORIENTED_EDGE('',*,*,#622,.F.);
#802=ORIENTED_EDGE('',*,*,#620,.T.);
#803=ORIENTED_EDGE('',*,*,#623,.F.);
#804=ORIENTED_EDGE('',*,*,#624,.F.);
#805=ORIENTED_EDGE('',*,*,#616,.T.);
#806=ORIENTED_EDGE('',*,*,#625,.F.);
#807=ORIENTED_EDGE('',*,*,#624,.T.);
#808=ORIENTED_EDGE('',*,*,#626,.F.);
#809=ORIENTED_EDGE('',*,*,#627,.F.);
#810=ORIENTED_EDGE('',*,*,#614,.T.);
#811=ORIENTED_EDGE('',*,*,#611,.T.);
#812=ORIENTED_EDGE('',*,*,#627,.T.);
#813=ORIENTED_EDGE('',*,*,#628,.F.);
#814=ORIENTED_EDGE('',*,*,#618,.F.);
#815=ORIENTED_EDGE('',*,*,#628,.T.);
#816=ORIENTED_EDGE('',*,*,#626,.T.);
#817=ORIENTED_EDGE('',*,*,#623,.T.);
#818=ORIENTED_EDGE('',*,*,#619,.T.);
#819=ORIENTED_EDGE('',*,*,#629,.F.);
#820=ORIENTED_EDGE('',*,*,#630,.F.);
#821=ORIENTED_EDGE('',*,*,#631,.T.);
#822=ORIENTED_EDGE('',*,*,#632,.F.);
#823=ORIENTED_EDGE('',*,*,#633,.F.);
#824=ORIENTED_EDGE('',*,*,#634,.F.);
#825=ORIENTED_EDGE('',*,*,#631,.F.);
#826=ORIENTED_EDGE('',*,*,#635,.F.);
#827=ORIENTED_EDGE('',*,*,#635,.T.);
#828=ORIENTED_EDGE('',*,*,#630,.T.);
#829=ORIENTED_EDGE('',*,*,#636,.T.);
#830=ORIENTED_EDGE('',*,*,#637,.F.);
#831=ORIENTED_EDGE('',*,*,#638,.F.);
#832=ORIENTED_EDGE('',*,*,#639,.F.);
#833=ORIENTED_EDGE('',*,*,#640,.F.);
#834=ORIENTED_EDGE('',*,*,#638,.T.);
#835=ORIENTED_EDGE('',*,*,#641,.F.);
#836=ORIENTED_EDGE('',*,*,#642,.F.);
#837=ORIENTED_EDGE('',*,*,#634,.T.);
#838=ORIENTED_EDGE('',*,*,#643,.F.);
#839=ORIENTED_EDGE('',*,*,#642,.T.);
#840=ORIENTED_EDGE('',*,*,#644,.F.);
#841=ORIENTED_EDGE('',*,*,#645,.F.);
#842=ORIENTED_EDGE('',*,*,#632,.T.);
#843=ORIENTED_EDGE('',*,*,#629,.T.);
#844=ORIENTED_EDGE('',*,*,#645,.T.);
#845=ORIENTED_EDGE('',*,*,#646,.F.);
#846=ORIENTED_EDGE('',*,*,#636,.F.);
#847=ORIENTED_EDGE('',*,*,#646,.T.);
#848=ORIENTED_EDGE('',*,*,#644,.T.);
#849=ORIENTED_EDGE('',*,*,#641,.T.);
#850=ORIENTED_EDGE('',*,*,#637,.T.);
#851=ORIENTED_EDGE('',*,*,#647,.T.);
#852=ORIENTED_EDGE('',*,*,#648,.T.);
#853=ORIENTED_EDGE('',*,*,#649,.F.);
#854=ORIENTED_EDGE('',*,*,#650,.T.);
#855=ORIENTED_EDGE('',*,*,#651,.F.);
#856=ORIENTED_EDGE('',*,*,#652,.T.);
#857=ORIENTED_EDGE('',*,*,#649,.T.);
#858=ORIENTED_EDGE('',*,*,#653,.T.);
#859=ORIENTED_EDGE('',*,*,#652,.F.);
#860=ORIENTED_EDGE('',*,*,#654,.F.);
#861=ORIENTED_EDGE('',*,*,#655,.T.);
#862=ORIENTED_EDGE('',*,*,#656,.T.);
#863=ORIENTED_EDGE('',*,*,#657,.F.);
#864=ORIENTED_EDGE('',*,*,#650,.F.);
#865=ORIENTED_EDGE('',*,*,#658,.F.);
#866=ORIENTED_EDGE('',*,*,#659,.T.);
#867=ORIENTED_EDGE('',*,*,#660,.T.);
#868=ORIENTED_EDGE('',*,*,#655,.F.);
#869=ORIENTED_EDGE('',*,*,#653,.F.);
#870=ORIENTED_EDGE('',*,*,#648,.F.);
#871=ORIENTED_EDGE('',*,*,#661,.T.);
#872=ORIENTED_EDGE('',*,*,#662,.T.);
#873=ORIENTED_EDGE('',*,*,#659,.F.);
#874=ORIENTED_EDGE('',*,*,#663,.F.);
#875=ORIENTED_EDGE('',*,*,#647,.F.);
#876=ORIENTED_EDGE('',*,*,#657,.T.);
#877=ORIENTED_EDGE('',*,*,#664,.T.);
#878=ORIENTED_EDGE('',*,*,#661,.F.);
#879=ORIENTED_EDGE('',*,*,#664,.F.);
#880=ORIENTED_EDGE('',*,*,#656,.F.);
#881=ORIENTED_EDGE('',*,*,#660,.F.);
#882=ORIENTED_EDGE('',*,*,#662,.F.);
#883=ORIENTED_EDGE('',*,*,#665,.F.);
#884=ORIENTED_EDGE('',*,*,#666,.T.);
#885=ORIENTED_EDGE('',*,*,#667,.T.);
#886=ORIENTED_EDGE('',*,*,#668,.T.);
#887=ORIENTED_EDGE('',*,*,#669,.F.);
#888=ORIENTED_EDGE('',*,*,#670,.F.);
#889=ORIENTED_EDGE('',*,*,#671,.T.);
#890=ORIENTED_EDGE('',*,*,#666,.F.);
#891=ORIENTED_EDGE('',*,*,#672,.F.);
#892=ORIENTED_EDGE('',*,*,#668,.F.);
#893=ORIENTED_EDGE('',*,*,#673,.F.);
#894=ORIENTED_EDGE('',*,*,#674,.F.);
#895=ORIENTED_EDGE('',*,*,#675,.F.);
#896=ORIENTED_EDGE('',*,*,#673,.T.);
#897=ORIENTED_EDGE('',*,*,#667,.F.);
#898=ORIENTED_EDGE('',*,*,#671,.F.);
#899=ORIENTED_EDGE('',*,*,#676,.F.);
#900=ORIENTED_EDGE('',*,*,#674,.T.);
#901=ORIENTED_EDGE('',*,*,#675,.T.);
#902=ORIENTED_EDGE('',*,*,#670,.T.);
#903=ORIENTED_EDGE('',*,*,#677,.F.);
#904=ORIENTED_EDGE('',*,*,#678,.F.);
#905=ORIENTED_EDGE('',*,*,#679,.F.);
#906=ORIENTED_EDGE('',*,*,#680,.F.);
#907=ORIENTED_EDGE('',*,*,#681,.F.);
#908=ORIENTED_EDGE('',*,*,#682,.F.);
#909=ORIENTED_EDGE('',*,*,#683,.F.);
#910=ORIENTED_EDGE('',*,*,#678,.T.);
#911=ORIENTED_EDGE('',*,*,#679,.T.);
#912=ORIENTED_EDGE('',*,*,#683,.T.);
#913=ORIENTED_EDGE('',*,*,#684,.F.);
#914=ORIENTED_EDGE('',*,*,#685,.F.);
#915=ORIENTED_EDGE('',*,*,#686,.F.);
#916=ORIENTED_EDGE('',*,*,#680,.T.);
#917=ORIENTED_EDGE('',*,*,#685,.T.);
#918=ORIENTED_EDGE('',*,*,#687,.F.);
#919=ORIENTED_EDGE('',*,*,#688,.F.);
#920=ORIENTED_EDGE('',*,*,#687,.T.);
#921=ORIENTED_EDGE('',*,*,#684,.T.);
#922=ORIENTED_EDGE('',*,*,#682,.T.);
#923=ORIENTED_EDGE('',*,*,#689,.F.);
#924=ORIENTED_EDGE('',*,*,#690,.F.);
#925=ORIENTED_EDGE('',*,*,#691,.F.);
#926=ORIENTED_EDGE('',*,*,#692,.F.);
#927=ORIENTED_EDGE('',*,*,#693,.F.);
#928=ORIENTED_EDGE('',*,*,#694,.F.);
#929=ORIENTED_EDGE('',*,*,#695,.F.);
#930=ORIENTED_EDGE('',*,*,#696,.F.);
#931=ORIENTED_EDGE('',*,*,#697,.F.);
#932=ORIENTED_EDGE('',*,*,#698,.F.);
#933=ORIENTED_EDGE('',*,*,#692,.T.);
#934=ORIENTED_EDGE('',*,*,#699,.F.);
#935=ORIENTED_EDGE('',*,*,#695,.T.);
#936=ORIENTED_EDGE('',*,*,#700,.T.);
#937=ORIENTED_EDGE('',*,*,#701,.T.);
#938=ORIENTED_EDGE('',*,*,#702,.F.);
#939=ORIENTED_EDGE('',*,*,#701,.F.);
#940=ORIENTED_EDGE('',*,*,#703,.F.);
#941=ORIENTED_EDGE('',*,*,#704,.F.);
#942=ORIENTED_EDGE('',*,*,#697,.T.);
#943=ORIENTED_EDGE('',*,*,#705,.F.);
#944=ORIENTED_EDGE('',*,*,#706,.F.);
#945=ORIENTED_EDGE('',*,*,#694,.T.);
#946=ORIENTED_EDGE('',*,*,#707,.F.);
#947=ORIENTED_EDGE('',*,*,#703,.T.);
#948=ORIENTED_EDGE('',*,*,#700,.F.);
#949=ORIENTED_EDGE('',*,*,#707,.T.);
#950=ORIENTED_EDGE('',*,*,#693,.T.);
#951=ORIENTED_EDGE('',*,*,#698,.T.);
#952=ORIENTED_EDGE('',*,*,#704,.T.);
#953=ORIENTED_EDGE('',*,*,#689,.T.);
#954=ORIENTED_EDGE('',*,*,#699,.T.);
#955=ORIENTED_EDGE('',*,*,#702,.T.);
#956=ORIENTED_EDGE('',*,*,#708,.F.);
#957=ORIENTED_EDGE('',*,*,#709,.T.);
#958=ORIENTED_EDGE('',*,*,#710,.T.);
#959=ORIENTED_EDGE('',*,*,#711,.T.);
#960=ORIENTED_EDGE('',*,*,#712,.F.);
#961=ORIENTED_EDGE('',*,*,#713,.F.);
#962=ORIENTED_EDGE('',*,*,#714,.T.);
#963=ORIENTED_EDGE('',*,*,#715,.F.);
#964=ORIENTED_EDGE('',*,*,#716,.F.);
#965=ORIENTED_EDGE('',*,*,#669,.T.);
#966=ORIENTED_EDGE('',*,*,#665,.T.);
#967=ORIENTED_EDGE('',*,*,#672,.T.);
#968=ORIENTED_EDGE('',*,*,#676,.T.);
#969=ORIENTED_EDGE('',*,*,#681,.T.);
#970=ORIENTED_EDGE('',*,*,#677,.T.);
#971=ORIENTED_EDGE('',*,*,#686,.T.);
#972=ORIENTED_EDGE('',*,*,#688,.T.);
#973=ORIENTED_EDGE('',*,*,#706,.T.);
#974=ORIENTED_EDGE('',*,*,#717,.F.);
#975=ORIENTED_EDGE('',*,*,#718,.T.);
#976=ORIENTED_EDGE('',*,*,#708,.T.);
#977=ORIENTED_EDGE('',*,*,#710,.F.);
#978=ORIENTED_EDGE('',*,*,#719,.T.);
#979=ORIENTED_EDGE('',*,*,#720,.T.);
#980=ORIENTED_EDGE('',*,*,#721,.T.);
#981=ORIENTED_EDGE('',*,*,#709,.F.);
#982=ORIENTED_EDGE('',*,*,#718,.F.);
#983=ORIENTED_EDGE('',*,*,#722,.F.);
#984=ORIENTED_EDGE('',*,*,#723,.F.);
#985=ORIENTED_EDGE('',*,*,#724,.F.);
#986=ORIENTED_EDGE('',*,*,#725,.F.);
#987=ORIENTED_EDGE('',*,*,#719,.F.);
#988=ORIENTED_EDGE('',*,*,#711,.F.);
#989=ORIENTED_EDGE('',*,*,#721,.F.);
#990=ORIENTED_EDGE('',*,*,#726,.F.);
#991=ORIENTED_EDGE('',*,*,#727,.F.);
#992=ORIENTED_EDGE('',*,*,#728,.T.);
#993=ORIENTED_EDGE('',*,*,#729,.F.);
#994=ORIENTED_EDGE('',*,*,#730,.F.);
#995=ORIENTED_EDGE('',*,*,#731,.F.);
#996=ORIENTED_EDGE('',*,*,#728,.F.);
#997=ORIENTED_EDGE('',*,*,#732,.F.);
#998=ORIENTED_EDGE('',*,*,#723,.T.);
#999=ORIENTED_EDGE('',*,*,#725,.T.);
#1000=ORIENTED_EDGE('',*,*,#733,.F.);
#1001=ORIENTED_EDGE('',*,*,#726,.T.);
#1002=ORIENTED_EDGE('',*,*,#720,.F.);
#1003=ORIENTED_EDGE('',*,*,#733,.T.);
#1004=ORIENTED_EDGE('',*,*,#724,.T.);
#1005=ORIENTED_EDGE('',*,*,#732,.T.);
#1006=ORIENTED_EDGE('',*,*,#727,.T.);
#1007=ORIENTED_EDGE('',*,*,#691,.T.);
#1008=ORIENTED_EDGE('',*,*,#734,.T.);
#1009=ORIENTED_EDGE('',*,*,#735,.F.);
#1010=ORIENTED_EDGE('',*,*,#736,.F.);
#1011=ORIENTED_EDGE('',*,*,#737,.F.);
#1012=ORIENTED_EDGE('',*,*,#738,.T.);
#1013=ORIENTED_EDGE('',*,*,#729,.T.);
#1014=ORIENTED_EDGE('',*,*,#731,.T.);
#1015=ORIENTED_EDGE('',*,*,#722,.T.);
#1016=ORIENTED_EDGE('',*,*,#717,.T.);
#1017=ORIENTED_EDGE('',*,*,#705,.T.);
#1018=ORIENTED_EDGE('',*,*,#696,.T.);
#1019=ORIENTED_EDGE('',*,*,#690,.T.);
#1020=ORIENTED_EDGE('',*,*,#716,.T.);
#1021=ORIENTED_EDGE('',*,*,#739,.F.);
#1022=ORIENTED_EDGE('',*,*,#734,.F.);
#1023=ORIENTED_EDGE('',*,*,#730,.T.);
#1024=ORIENTED_EDGE('',*,*,#738,.F.);
#1025=ORIENTED_EDGE('',*,*,#740,.F.);
#1026=ORIENTED_EDGE('',*,*,#712,.T.);
#1027=ORIENTED_EDGE('',*,*,#741,.F.);
#1028=ORIENTED_EDGE('',*,*,#714,.F.);
#1029=ORIENTED_EDGE('',*,*,#742,.F.);
#1030=ORIENTED_EDGE('',*,*,#743,.F.);
#1031=ORIENTED_EDGE('',*,*,#736,.T.);
#1032=ORIENTED_EDGE('',*,*,#744,.T.);
#1033=ORIENTED_EDGE('',*,*,#745,.T.);
#1034=ORIENTED_EDGE('',*,*,#746,.T.);
#1035=ORIENTED_EDGE('',*,*,#715,.T.);
#1036=ORIENTED_EDGE('',*,*,#741,.T.);
#1037=ORIENTED_EDGE('',*,*,#747,.F.);
#1038=ORIENTED_EDGE('',*,*,#748,.T.);
#1039=ORIENTED_EDGE('',*,*,#744,.F.);
#1040=ORIENTED_EDGE('',*,*,#735,.T.);
#1041=ORIENTED_EDGE('',*,*,#739,.T.);
#1042=ORIENTED_EDGE('',*,*,#615,.T.);
#1043=ORIENTED_EDGE('',*,*,#621,.T.);
#1044=ORIENTED_EDGE('',*,*,#622,.T.);
#1045=ORIENTED_EDGE('',*,*,#625,.T.);
#1046=ORIENTED_EDGE('',*,*,#633,.T.);
#1047=ORIENTED_EDGE('',*,*,#639,.T.);
#1048=ORIENTED_EDGE('',*,*,#640,.T.);
#1049=ORIENTED_EDGE('',*,*,#643,.T.);
#1050=ORIENTED_EDGE('',*,*,#749,.F.);
#1051=ORIENTED_EDGE('',*,*,#750,.T.);
#1052=ORIENTED_EDGE('',*,*,#751,.T.);
#1053=ORIENTED_EDGE('',*,*,#750,.F.);
#1054=ORIENTED_EDGE('',*,*,#751,.F.);
#1055=ORIENTED_EDGE('',*,*,#713,.T.);
#1056=ORIENTED_EDGE('',*,*,#740,.T.);
#1057=ORIENTED_EDGE('',*,*,#737,.T.);
#1058=ORIENTED_EDGE('',*,*,#746,.F.);
#1059=ORIENTED_EDGE('',*,*,#752,.F.);
#1060=ORIENTED_EDGE('',*,*,#753,.F.);
#1061=ORIENTED_EDGE('',*,*,#742,.T.);
#1062=ORIENTED_EDGE('',*,*,#597,.T.);
#1063=ORIENTED_EDGE('',*,*,#609,.T.);
#1064=ORIENTED_EDGE('',*,*,#604,.T.);
#1065=ORIENTED_EDGE('',*,*,#600,.T.);
#1066=ORIENTED_EDGE('',*,*,#651,.T.);
#1067=ORIENTED_EDGE('',*,*,#663,.T.);
#1068=ORIENTED_EDGE('',*,*,#658,.T.);
#1069=ORIENTED_EDGE('',*,*,#654,.T.);
#1070=ORIENTED_EDGE('',*,*,#754,.F.);
#1071=ORIENTED_EDGE('',*,*,#752,.T.);
#1072=ORIENTED_EDGE('',*,*,#745,.F.);
#1073=ORIENTED_EDGE('',*,*,#748,.F.);
#1074=ORIENTED_EDGE('',*,*,#749,.T.);
#1075=ORIENTED_EDGE('',*,*,#743,.T.);
#1076=ORIENTED_EDGE('',*,*,#753,.T.);
#1077=ORIENTED_EDGE('',*,*,#754,.T.);
#1078=ORIENTED_EDGE('',*,*,#747,.T.);
#1079=PLANE('',#1218);
#1080=PLANE('',#1219);
#1081=PLANE('',#1220);
#1082=PLANE('',#1221);
#1083=PLANE('',#1222);
#1084=PLANE('',#1223);
#1085=PLANE('',#1224);
#1086=PLANE('',#1225);
#1087=PLANE('',#1226);
#1088=PLANE('',#1227);
#1089=PLANE('',#1228);
#1090=PLANE('',#1229);
#1091=PLANE('',#1230);
#1092=PLANE('',#1231);
#1093=PLANE('',#1232);
#1094=PLANE('',#1233);
#1095=PLANE('',#1234);
#1096=PLANE('',#1235);
#1097=PLANE('',#1236);
#1098=PLANE('',#1237);
#1099=PLANE('',#1238);
#1100=PLANE('',#1239);
#1101=PLANE('',#1240);
#1102=PLANE('',#1241);
#1103=PLANE('',#1242);
#1104=PLANE('',#1243);
#1105=PLANE('',#1244);
#1106=PLANE('',#1245);
#1107=PLANE('',#1246);
#1108=PLANE('',#1247);
#1109=PLANE('',#1248);
#1110=PLANE('',#1249);
#1111=PLANE('',#1250);
#1112=PLANE('',#1251);
#1113=PLANE('',#1252);
#1114=PLANE('',#1253);
#1115=PLANE('',#1254);
#1116=PLANE('',#1255);
#1117=PLANE('',#1256);
#1118=PLANE('',#1257);
#1119=PLANE('',#1258);
#1120=PLANE('',#1259);
#1121=PLANE('',#1260);
#1122=PLANE('',#1261);
#1123=PLANE('',#1262);
#1124=PLANE('',#1263);
#1125=PLANE('',#1264);
#1126=PLANE('',#1265);
#1127=PLANE('',#1266);
#1128=PLANE('',#1267);
#1129=PLANE('',#1268);
#1130=PLANE('',#1269);
#1131=PLANE('',#1270);
#1132=PLANE('',#1271);
#1133=PLANE('',#1272);
#1134=PLANE('',#1273);
#1135=PLANE('',#1274);
#1136=PLANE('',#1275);
#1137=PLANE('',#1279);
#1138=PLANE('',#1280);
#1139=PLANE('',#1281);
#1140=PLANE('',#1282);
#1141=ADVANCED_FACE('',(#32),#1079,.T.);
#1142=ADVANCED_FACE('',(#33),#1080,.T.);
#1143=ADVANCED_FACE('',(#34),#1081,.F.);
#1144=ADVANCED_FACE('',(#35),#1082,.F.);
#1145=ADVANCED_FACE('',(#36),#1083,.F.);
#1146=ADVANCED_FACE('',(#37),#1084,.F.);
#1147=ADVANCED_FACE('',(#38),#1085,.F.);
#1148=ADVANCED_FACE('',(#39),#1086,.F.);
#1149=ADVANCED_FACE('',(#40),#1087,.F.);
#1150=ADVANCED_FACE('',(#41),#1088,.T.);
#1151=ADVANCED_FACE('',(#42),#1089,.T.);
#1152=ADVANCED_FACE('',(#43),#1090,.T.);
#1153=ADVANCED_FACE('',(#44),#1091,.T.);
#1154=ADVANCED_FACE('',(#45),#1092,.T.);
#1155=ADVANCED_FACE('',(#46),#1093,.F.);
#1156=ADVANCED_FACE('',(#47),#1094,.F.);
#1157=ADVANCED_FACE('',(#48),#1095,.T.);
#1158=ADVANCED_FACE('',(#49),#1096,.T.);
#1159=ADVANCED_FACE('',(#50),#1097,.T.);
#1160=ADVANCED_FACE('',(#51),#1098,.T.);
#1161=ADVANCED_FACE('',(#52),#1099,.T.);
#1162=ADVANCED_FACE('',(#53),#1100,.T.);
#1163=ADVANCED_FACE('',(#54),#1101,.T.);
#1164=ADVANCED_FACE('',(#55),#1102,.F.);
#1165=ADVANCED_FACE('',(#56),#1103,.F.);
#1166=ADVANCED_FACE('',(#57),#1104,.F.);
#1167=ADVANCED_FACE('',(#58),#1105,.F.);
#1168=ADVANCED_FACE('',(#59),#1106,.F.);
#1169=ADVANCED_FACE('',(#60),#1107,.T.);
#1170=ADVANCED_FACE('',(#61),#1108,.T.);
#1171=ADVANCED_FACE('',(#62),#1109,.T.);
#1172=ADVANCED_FACE('',(#63),#1110,.T.);
#1173=ADVANCED_FACE('',(#64),#1111,.F.);
#1174=ADVANCED_FACE('',(#65),#1112,.F.);
#1175=ADVANCED_FACE('',(#66),#1113,.T.);
#1176=ADVANCED_FACE('',(#67),#1114,.T.);
#1177=ADVANCED_FACE('',(#68),#1115,.T.);
#1178=ADVANCED_FACE('',(#69),#1116,.T.);
#1179=ADVANCED_FACE('',(#70),#1117,.T.);
#1180=ADVANCED_FACE('',(#71),#1118,.T.);
#1181=ADVANCED_FACE('',(#72),#1119,.T.);
#1182=ADVANCED_FACE('',(#73),#1120,.T.);
#1183=ADVANCED_FACE('',(#74),#1121,.T.);
#1184=ADVANCED_FACE('',(#75),#1122,.T.);
#1185=ADVANCED_FACE('',(#76,#17,#18),#1123,.F.);
#1186=ADVANCED_FACE('',(#77),#1124,.T.);
#1187=ADVANCED_FACE('',(#78),#1125,.T.);
#1188=ADVANCED_FACE('',(#79),#1126,.T.);
#1189=ADVANCED_FACE('',(#80),#1127,.T.);
#1190=ADVANCED_FACE('',(#81),#1128,.T.);
#1191=ADVANCED_FACE('',(#82),#1129,.T.);
#1192=ADVANCED_FACE('',(#83),#1130,.T.);
#1193=ADVANCED_FACE('',(#84),#1131,.F.);
#1194=ADVANCED_FACE('',(#85),#1132,.T.);
#1195=ADVANCED_FACE('',(#86),#1133,.T.);
#1196=ADVANCED_FACE('',(#87),#1134,.F.);
#1197=ADVANCED_FACE('',(#88),#1135,.T.);
#1198=ADVANCED_FACE('',(#89,#19,#20),#1136,.T.);
#1199=ADVANCED_FACE('',(#90),#16,.F.);
#1200=ADVANCED_FACE('',(#91),#1137,.T.);
#1201=ADVANCED_FACE('',(#92,#21,#22),#1138,.T.);
#1202=ADVANCED_FACE('',(#93,#23),#1139,.T.);
#1203=ADVANCED_FACE('',(#94),#1140,.F.);
#1204=CLOSED_SHELL('',(#1141,#1142,#1143,#1144,#1145,#1146,#1147,#1148,
#1149,#1150,#1151,#1152,#1153,#1154,#1155,#1156,#1157,#1158,#1159,#1160,
#1161,#1162,#1163,#1164,#1165,#1166,#1167,#1168,#1169,#1170,#1171,#1172,
#1173,#1174,#1175,#1176,#1177,#1178,#1179,#1180,#1181,#1182,#1183,#1184,
#1185,#1186,#1187,#1188,#1189,#1190,#1191,#1192,#1193,#1194,#1195,#1196,
#1197,#1198,#1199,#1200,#1201,#1202,#1203));
#1205=DERIVED_UNIT_ELEMENT(#1207,1.);
#1206=DERIVED_UNIT_ELEMENT(#1914,-3.);
#1207=(
MASS_UNIT()
NAMED_UNIT(*)
SI_UNIT(.KILO.,.GRAM.)
);
#1208=DERIVED_UNIT((#1205,#1206));
#1209=MEASURE_REPRESENTATION_ITEM('density measure',
POSITIVE_RATIO_MEASURE(7850.),#1208);
#1210=PROPERTY_DEFINITION_REPRESENTATION(#1215,#1212);
#1211=PROPERTY_DEFINITION_REPRESENTATION(#1216,#1213);
#1212=REPRESENTATION('material name',(#1214),#1911);
#1213=REPRESENTATION('density',(#1209),#1911);
#1214=DESCRIPTIVE_REPRESENTATION_ITEM('Steel','Steel');
#1215=PROPERTY_DEFINITION('material property','material name',#1921);
#1216=PROPERTY_DEFINITION('material property','density of part',#1921);
#1217=AXIS2_PLACEMENT_3D('',#1575,#1283,#1284);
#1218=AXIS2_PLACEMENT_3D('',#1576,#1285,#1286);
#1219=AXIS2_PLACEMENT_3D('',#1585,#1291,#1292);
#1220=AXIS2_PLACEMENT_3D('',#1591,#1296,#1297);
#1221=AXIS2_PLACEMENT_3D('',#1599,#1302,#1303);
#1222=AXIS2_PLACEMENT_3D('',#1605,#1307,#1308);
#1223=AXIS2_PLACEMENT_3D('',#1610,#1312,#1313);
#1224=AXIS2_PLACEMENT_3D('',#1612,#1315,#1316);
#1225=AXIS2_PLACEMENT_3D('',#1613,#1317,#1318);
#1226=AXIS2_PLACEMENT_3D('',#1622,#1323,#1324);
#1227=AXIS2_PLACEMENT_3D('',#1628,#1328,#1329);
#1228=AXIS2_PLACEMENT_3D('',#1636,#1334,#1335);
#1229=AXIS2_PLACEMENT_3D('',#1642,#1339,#1340);
#1230=AXIS2_PLACEMENT_3D('',#1647,#1344,#1345);
#1231=AXIS2_PLACEMENT_3D('',#1649,#1347,#1348);
#1232=AXIS2_PLACEMENT_3D('',#1650,#1349,#1350);
#1233=AXIS2_PLACEMENT_3D('',#1659,#1355,#1356);
#1234=AXIS2_PLACEMENT_3D('',#1665,#1360,#1361);
#1235=AXIS2_PLACEMENT_3D('',#1673,#1366,#1367);
#1236=AXIS2_PLACEMENT_3D('',#1679,#1371,#1372);
#1237=AXIS2_PLACEMENT_3D('',#1684,#1376,#1377);
#1238=AXIS2_PLACEMENT_3D('',#1686,#1379,#1380);
#1239=AXIS2_PLACEMENT_3D('',#1687,#1381,#1382);
#1240=AXIS2_PLACEMENT_3D('',#1696,#1387,#1388);
#1241=AXIS2_PLACEMENT_3D('',#1702,#1392,#1393);
#1242=AXIS2_PLACEMENT_3D('',#1710,#1398,#1399);
#1243=AXIS2_PLACEMENT_3D('',#1716,#1403,#1404);
#1244=AXIS2_PLACEMENT_3D('',#1721,#1408,#1409);
#1245=AXIS2_PLACEMENT_3D('',#1723,#1411,#1412);
#1246=AXIS2_PLACEMENT_3D('',#1724,#1413,#1414);
#1247=AXIS2_PLACEMENT_3D('',#1733,#1419,#1420);
#1248=AXIS2_PLACEMENT_3D('',#1739,#1424,#1425);
#1249=AXIS2_PLACEMENT_3D('',#1745,#1429,#1430);
#1250=AXIS2_PLACEMENT_3D('',#1747,#1432,#1433);
#1251=AXIS2_PLACEMENT_3D('',#1749,#1435,#1436);
#1252=AXIS2_PLACEMENT_3D('',#1758,#1441,#1442);
#1253=AXIS2_PLACEMENT_3D('',#1764,#1446,#1447);
#1254=AXIS2_PLACEMENT_3D('',#1768,#1450,#1451);
#1255=AXIS2_PLACEMENT_3D('',#1772,#1454,#1455);
#1256=AXIS2_PLACEMENT_3D('',#1774,#1457,#1458);
#1257=AXIS2_PLACEMENT_3D('',#1789,#1466,#1467);
#1258=AXIS2_PLACEMENT_3D('',#1795,#1471,#1472);
#1259=AXIS2_PLACEMENT_3D('',#1801,#1476,#1477);
#1260=AXIS2_PLACEMENT_3D('',#1810,#1483,#1484);
#1261=AXIS2_PLACEMENT_3D('',#1812,#1486,#1487);
#1262=AXIS2_PLACEMENT_3D('',#1813,#1488,#1489);
#1263=AXIS2_PLACEMENT_3D('',#1831,#1499,#1500);
#1264=AXIS2_PLACEMENT_3D('',#1835,#1503,#1504);
#1265=AXIS2_PLACEMENT_3D('',#1841,#1508,#1509);
#1266=AXIS2_PLACEMENT_3D('',#1849,#1514,#1515);
#1267=AXIS2_PLACEMENT_3D('',#1859,#1521,#1522);
#1268=AXIS2_PLACEMENT_3D('',#1862,#1525,#1526);
#1269=AXIS2_PLACEMENT_3D('',#1864,#1528,#1529);
#1270=AXIS2_PLACEMENT_3D('',#1865,#1530,#1531);
#1271=AXIS2_PLACEMENT_3D('',#1875,#1537,#1538);
#1272=AXIS2_PLACEMENT_3D('',#1877,#1540,#1541);
#1273=AXIS2_PLACEMENT_3D('',#1879,#1543,#1544);
#1274=AXIS2_PLACEMENT_3D('',#1885,#1548,#1549);
#1275=AXIS2_PLACEMENT_3D('',#1891,#1553,#1554);
#1276=AXIS2_PLACEMENT_3D('',#1895,#1557,#1558);
#1277=AXIS2_PLACEMENT_3D('',#1897,#1559,#1560);
#1278=AXIS2_PLACEMENT_3D('',#1900,#1562,#1563);
#1279=AXIS2_PLACEMENT_3D('',#1901,#1564,#1565);
#1280=AXIS2_PLACEMENT_3D('',#1902,#1566,#1567);
#1281=AXIS2_PLACEMENT_3D('',#1906,#1570,#1571);
#1282=AXIS2_PLACEMENT_3D('',#1908,#1573,#1574);
#1283=DIRECTION('axis',(0.,0.,1.));
#1284=DIRECTION('refdir',(1.,0.,0.));
#1285=DIRECTION('center_axis',(1.,0.,1.54074395550979E-33));
#1286=DIRECTION('ref_axis',(1.54074395550979E-33,0.,-1.));
#1287=DIRECTION('',(1.54074395550979E-33,0.,-1.));
#1288=DIRECTION('',(0.,1.,0.));
#1289=DIRECTION('',(1.54074395550979E-33,0.,-1.));
#1290=DIRECTION('',(0.,-1.,0.));
#1291=DIRECTION('center_axis',(0.,-1.,0.));
#1292=DIRECTION('ref_axis',(-1.54074395550979E-33,0.,1.));
#1293=DIRECTION('',(7.70371977754894E-34,0.,-1.));
#1294=DIRECTION('',(-1.,0.,-1.54074395550979E-33));
#1295=DIRECTION('',(1.,0.,1.54074395550979E-33));
#1296=DIRECTION('center_axis',(1.54074395550979E-33,0.,-1.));
#1297=DIRECTION('ref_axis',(0.,-1.,0.));
#1298=DIRECTION('',(0.,-1.,0.));
#1299=DIRECTION('',(-1.,0.,-1.54074395550979E-33));
#1300=DIRECTION('',(0.,-1.,0.));
#1301=DIRECTION('',(-1.,0.,-1.54074395550979E-33));
#1302=DIRECTION('center_axis',(0.,-1.,0.));
#1303=DIRECTION('ref_axis',(-1.54074395550979E-33,0.,1.));
#1304=DIRECTION('',(-7.70371977754894E-34,0.,1.));
#1305=DIRECTION('',(-1.,0.,-1.54074395550979E-33));
#1306=DIRECTION('',(-1.54074395550979E-33,0.,1.));
#1307=DIRECTION('center_axis',(-1.54074395550979E-33,0.,1.));
#1308=DIRECTION('ref_axis',(0.,1.,0.));
#1309=DIRECTION('',(-1.,0.,-1.54074395550979E-33));
#1310=DIRECTION('',(0.,1.,0.));
#1311=DIRECTION('',(0.,1.,0.));
#1312=DIRECTION('center_axis',(0.,1.,0.));
#1313=DIRECTION('ref_axis',(1.54074395550979E-33,0.,-1.));
#1314=DIRECTION('',(1.54074395550979E-33,0.,-1.));
#1315=DIRECTION('center_axis',(1.,0.,1.54074395550979E-33));
#1316=DIRECTION('ref_axis',(1.54074395550979E-33,0.,-1.));
#1317=DIRECTION('center_axis',(1.,0.,0.));
#1318=DIRECTION('ref_axis',(0.,0.,-1.));
#1319=DIRECTION('',(0.,0.,-1.));
#1320=DIRECTION('',(0.,-1.,0.));
#1321=DIRECTION('',(0.,0.,-1.));
#1322=DIRECTION('',(0.,1.,0.));
#1323=DIRECTION('center_axis',(0.,1.,0.));
#1324=DIRECTION('ref_axis',(0.,0.,1.));
#1325=DIRECTION('',(0.,0.,1.));
#1326=DIRECTION('',(-1.,0.,0.));
#1327=DIRECTION('',(1.,0.,0.));
#1328=DIRECTION('center_axis',(0.,0.,1.));
#1329=DIRECTION('ref_axis',(0.,-1.,0.));
#1330=DIRECTION('',(1.,0.,0.));
#1331=DIRECTION('',(0.,-1.,0.));
#1332=DIRECTION('',(1.,0.,0.));
#1333=DIRECTION('',(0.,1.,0.));
#1334=DIRECTION('center_axis',(0.,1.,0.));
#1335=DIRECTION('ref_axis',(0.,0.,1.));
#1336=DIRECTION('',(0.,0.,-1.));
#1337=DIRECTION('',(0.,0.,1.));
#1338=DIRECTION('',(1.,0.,0.));
#1339=DIRECTION('center_axis',(0.,0.,-1.));
#1340=DIRECTION('ref_axis',(0.,1.,0.));
#1341=DIRECTION('',(0.,-1.,0.));
#1342=DIRECTION('',(0.,1.,0.));
#1343=DIRECTION('',(1.,0.,0.));
#1344=DIRECTION('center_axis',(0.,-1.,0.));
#1345=DIRECTION('ref_axis',(0.,0.,-1.));
#1346=DIRECTION('',(0.,0.,-1.));
#1347=DIRECTION('center_axis',(1.,0.,0.));
#1348=DIRECTION('ref_axis',(0.,0.,-1.));
#1349=DIRECTION('center_axis',(1.,0.,0.));
#1350=DIRECTION('ref_axis',(0.,0.,-1.));
#1351=DIRECTION('',(0.,0.,-1.));
#1352=DIRECTION('',(0.,-1.,0.));
#1353=DIRECTION('',(0.,0.,-1.));
#1354=DIRECTION('',(0.,1.,0.));
#1355=DIRECTION('center_axis',(0.,1.,0.));
#1356=DIRECTION('ref_axis',(0.,0.,1.));
#1357=DIRECTION('',(0.,0.,1.));
#1358=DIRECTION('',(-1.,0.,0.));
#1359=DIRECTION('',(1.,0.,0.));
#1360=DIRECTION('center_axis',(0.,0.,1.));
#1361=DIRECTION('ref_axis',(0.,-1.,0.));
#1362=DIRECTION('',(1.,0.,0.));
#1363=DIRECTION('',(0.,-1.,0.));
#1364=DIRECTION('',(1.,0.,0.));
#1365=DIRECTION('',(0.,1.,0.));
#1366=DIRECTION('center_axis',(0.,1.,0.));
#1367=DIRECTION('ref_axis',(0.,0.,1.));
#1368=DIRECTION('',(0.,0.,-1.));
#1369=DIRECTION('',(0.,0.,1.));
#1370=DIRECTION('',(1.,0.,0.));
#1371=DIRECTION('center_axis',(0.,0.,-1.));
#1372=DIRECTION('ref_axis',(0.,1.,0.));
#1373=DIRECTION('',(0.,-1.,0.));
#1374=DIRECTION('',(0.,1.,0.));
#1375=DIRECTION('',(1.,0.,0.));
#1376=DIRECTION('center_axis',(0.,-1.,0.));
#1377=DIRECTION('ref_axis',(0.,0.,-1.));
#1378=DIRECTION('',(0.,0.,-1.));
#1379=DIRECTION('center_axis',(1.,0.,0.));
#1380=DIRECTION('ref_axis',(0.,0.,-1.));
#1381=DIRECTION('center_axis',(1.,0.,1.54074395550979E-33));
#1382=DIRECTION('ref_axis',(1.54074395550979E-33,0.,-1.));
#1383=DIRECTION('',(1.54074395550979E-33,0.,-1.));
#1384=DIRECTION('',(0.,1.,0.));
#1385=DIRECTION('',(1.54074395550979E-33,0.,-1.));
#1386=DIRECTION('',(0.,-1.,0.));
#1387=DIRECTION('center_axis',(0.,-1.,0.));
#1388=DIRECTION('ref_axis',(-1.54074395550979E-33,0.,1.));
#1389=DIRECTION('',(7.70371977754894E-34,0.,-1.));
#1390=DIRECTION('',(-1.,0.,-1.54074395550979E-33));
#1391=DIRECTION('',(1.,0.,1.54074395550979E-33));
#1392=DIRECTION('center_axis',(1.54074395550979E-33,0.,-1.));
#1393=DIRECTION('ref_axis',(0.,-1.,0.));
#1394=DIRECTION('',(0.,-1.,0.));
#1395=DIRECTION('',(-1.,0.,-1.54074395550979E-33));
#1396=DIRECTION('',(0.,-1.,0.));
#1397=DIRECTION('',(-1.,0.,-1.54074395550979E-33));
#1398=DIRECTION('center_axis',(0.,-1.,0.));
#1399=DIRECTION('ref_axis',(-1.54074395550979E-33,0.,1.));
#1400=DIRECTION('',(-7.70371977754894E-34,0.,1.));
#1401=DIRECTION('',(-1.,0.,-1.54074395550979E-33));
#1402=DIRECTION('',(-1.54074395550979E-33,0.,1.));
#1403=DIRECTION('center_axis',(-1.54074395550979E-33,0.,1.));
#1404=DIRECTION('ref_axis',(0.,1.,0.));
#1405=DIRECTION('',(-1.,0.,-1.54074395550979E-33));
#1406=DIRECTION('',(0.,1.,0.));
#1407=DIRECTION('',(0.,1.,0.));
#1408=DIRECTION('center_axis',(0.,1.,0.));
#1409=DIRECTION('ref_axis',(1.54074395550979E-33,0.,-1.));
#1410=DIRECTION('',(1.54074395550979E-33,0.,-1.));
#1411=DIRECTION('center_axis',(1.,0.,1.54074395550979E-33));
#1412=DIRECTION('ref_axis',(1.54074395550979E-33,0.,-1.));
#1413=DIRECTION('center_axis',(0.,0.,-1.));
#1414=DIRECTION('ref_axis',(-1.,0.,0.));
#1415=DIRECTION('',(-1.,0.,0.));
#1416=DIRECTION('',(0.,-1.,0.));
#1417=DIRECTION('',(-1.,-1.04083408558608E-15,-3.56653693405044E-33));
#1418=DIRECTION('',(0.,1.,0.));
#1419=DIRECTION('center_axis',(1.,0.,0.));
#1420=DIRECTION('ref_axis',(0.,-1.,0.));
#1421=DIRECTION('',(0.,0.,-1.));
#1422=DIRECTION('',(0.,1.,0.));
#1423=DIRECTION('',(0.,0.,-1.));
#1424=DIRECTION('center_axis',(-1.,0.,0.));
#1425=DIRECTION('ref_axis',(0.,1.,0.));
#1426=DIRECTION('',(0.,0.,1.));
#1427=DIRECTION('',(0.,0.,-1.));
#1428=DIRECTION('',(0.,-1.,0.));
#1429=DIRECTION('center_axis',(1.04083408558608E-15,-1.,0.));
#1430=DIRECTION('ref_axis',(-1.,-1.04083408558608E-15,-3.56653693405044E-33));
#1431=DIRECTION('',(1.,1.04083408558608E-15,3.56653693405044E-33));
#1432=DIRECTION('center_axis',(3.56653693405044E-33,0.,-1.));
#1433=DIRECTION('ref_axis',(-1.,0.,-3.56653693405044E-33));
#1434=DIRECTION('',(1.,0.,3.56653693405044E-33));
#1435=DIRECTION('center_axis',(3.56653693405044E-33,0.,-1.));
#1436=DIRECTION('ref_axis',(-1.,0.,-3.56653693405044E-33));
#1437=DIRECTION('',(1.,0.,3.56653693405044E-33));
#1438=DIRECTION('',(0.,1.,0.));
#1439=DIRECTION('',(-1.,1.04083408558608E-15,-3.56653693405044E-33));
#1440=DIRECTION('',(-9.57088814332031E-17,-1.,-3.41349260548173E-49));
#1441=DIRECTION('center_axis',(-1.,0.,0.));
#1442=DIRECTION('ref_axis',(0.,1.,0.));
#1443=DIRECTION('',(0.,0.,1.));
#1444=DIRECTION('',(0.,1.,0.));
#1445=DIRECTION('',(0.,0.,-1.));
#1446=DIRECTION('center_axis',(-1.04083408558608E-15,-1.,0.));
#1447=DIRECTION('ref_axis',(-1.,1.04083408558608E-15,-3.56653693405044E-33));
#1448=DIRECTION('',(-1.,1.04083408558608E-15,-3.56653693405044E-33));
#1449=DIRECTION('',(0.,0.,-1.));
#1450=DIRECTION('center_axis',(1.,-9.57088814332031E-17,0.));
#1451=DIRECTION('ref_axis',(-9.57088814332031E-17,-1.,-3.41349260548173E-49));
#1452=DIRECTION('',(0.,0.,-1.));
#1453=DIRECTION('',(-9.57088814332031E-17,-1.,-3.41349260548173E-49));
#1454=DIRECTION('center_axis',(0.,0.,-1.));
#1455=DIRECTION('ref_axis',(-1.,0.,0.));
#1456=DIRECTION('',(-1.,0.,0.));
#1457=DIRECTION('center_axis',(1.,0.,0.));
#1458=DIRECTION('ref_axis',(0.,1.,0.));
#1459=DIRECTION('',(0.,0.,-1.));
#1460=DIRECTION('',(0.,-1.,0.));
#1461=DIRECTION('',(0.,-0.57346228701262,0.819231960664533));
#1462=DIRECTION('',(0.,0.,-1.));
#1463=DIRECTION('',(0.,1.,0.));
#1464=DIRECTION('',(0.,0.,1.));
#1465=DIRECTION('',(0.,-1.,0.));
#1466=DIRECTION('center_axis',(2.7755575615629E-15,1.,0.));
#1467=DIRECTION('ref_axis',(-1.,2.7755575615629E-15,-3.56653693405044E-33));
#1468=DIRECTION('',(1.,-2.7755575615629E-15,3.96508282164752E-15));
#1469=DIRECTION('',(0.,0.,-1.));
#1470=DIRECTION('',(-1.,2.7755575615629E-15,-3.56653693405044E-33));
#1471=DIRECTION('center_axis',(0.,0.,-1.));
#1472=DIRECTION('ref_axis',(-1.,0.,0.));
#1473=DIRECTION('',(-1.,0.,0.));
#1474=DIRECTION('',(-1.,-1.38777878078145E-15,-3.56653693405044E-33));
#1475=DIRECTION('',(0.,1.,0.));
#1476=DIRECTION('center_axis',(-1.,0.,0.));
#1477=DIRECTION('ref_axis',(0.,-1.,0.));
#1478=DIRECTION('',(0.,0.,1.));
#1479=DIRECTION('',(0.,0.,-1.));
#1480=DIRECTION('',(0.,-1.,0.));
#1481=DIRECTION('',(0.,0.57346228701262,-0.819231960664533));
#1482=DIRECTION('',(0.,1.,0.));
#1483=DIRECTION('center_axis',(1.38777878078145E-15,-1.,0.));
#1484=DIRECTION('ref_axis',(1.,1.38777878078145E-15,3.56653693405044E-33));
#1485=DIRECTION('',(1.,1.38777878078145E-15,3.56653693405044E-33));
#1486=DIRECTION('center_axis',(0.,0.,1.));
#1487=DIRECTION('ref_axis',(1.,0.,0.));
#1488=DIRECTION('center_axis',(0.,1.,0.));
#1489=DIRECTION('ref_axis',(0.,0.,1.));
#1490=DIRECTION('',(1.,0.,0.));
#1491=DIRECTION('',(0.,0.,-1.));
#1492=DIRECTION('',(-1.,0.,0.));
#1493=DIRECTION('',(0.,0.,1.));
#1494=DIRECTION('',(1.,0.,0.));
#1495=DIRECTION('',(0.,0.,1.));
#1496=DIRECTION('',(1.,0.,0.));
#1497=DIRECTION('',(0.,0.,-1.));
#1498=DIRECTION('',(1.,0.,0.));
#1499=DIRECTION('center_axis',(0.,0.,1.));
#1500=DIRECTION('ref_axis',(0.,-1.,0.));
#1501=DIRECTION('',(1.,0.,0.));
#1502=DIRECTION('',(0.,-1.,0.));
#1503=DIRECTION('center_axis',(0.,0.,-1.));
#1504=DIRECTION('ref_axis',(-1.,0.,0.));
#1505=DIRECTION('',(0.,-1.,0.));
#1506=DIRECTION('',(-1.,0.,-3.56653693405044E-33));
#1507=DIRECTION('',(0.,1.,0.));
#1508=DIRECTION('center_axis',(1.,0.,0.));
#1509=DIRECTION('ref_axis',(0.,1.,0.));
#1510=DIRECTION('',(0.,-0.57346228701262,0.819231960664533));
#1511=DIRECTION('',(0.,0.,-1.));
#1512=DIRECTION('',(0.,1.,0.));
#1513=DIRECTION('',(0.,0.,1.));
#1514=DIRECTION('center_axis',(-1.,0.,0.));
#1515=DIRECTION('ref_axis',(0.,-1.,0.));
#1516=DIRECTION('',(0.,0.,-1.));
#1517=DIRECTION('',(0.,-1.,0.));
#1518=DIRECTION('',(0.,0.,-1.));
#1519=DIRECTION('',(0.,0.57346228701262,-0.819231960664533));
#1520=DIRECTION('',(0.,1.,0.));
#1521=DIRECTION('center_axis',(-2.77555756156289E-15,1.,0.));
#1522=DIRECTION('ref_axis',(-1.,-2.77555756156289E-15,-3.56653693405044E-33));
#1523=DIRECTION('',(1.,2.77555756156289E-15,-3.96508282164752E-15));
#1524=DIRECTION('',(-1.,-2.77555756156289E-15,-3.56653693405044E-33));
#1525=DIRECTION('center_axis',(0.,-1.,0.));
#1526=DIRECTION('ref_axis',(1.,0.,3.56653693405044E-33));
#1527=DIRECTION('',(1.,0.,3.56653693405044E-33));
#1528=DIRECTION('center_axis',(0.,0.,1.));
#1529=DIRECTION('ref_axis',(1.,0.,0.));
#1530=DIRECTION('center_axis',(0.,-0.819231960664533,-0.57346228701262));
#1531=DIRECTION('ref_axis',(-2.3354370129853E-99,0.57346228701262,-0.819231960664533));
#1532=DIRECTION('',(1.,0.,0.));
#1533=DIRECTION('',(0.,-0.57346228701262,0.819231960664533));
#1534=DIRECTION('',(1.,0.,0.));
#1535=DIRECTION('',(1.61148865401197E-99,0.573462287012627,-0.819231960664528));
#1536=DIRECTION('',(1.,0.,0.));
#1537=DIRECTION('center_axis',(0.,0.,1.));
#1538=DIRECTION('ref_axis',(0.,-1.,0.));
#1539=DIRECTION('',(0.,-1.,0.));
#1540=DIRECTION('center_axis',(0.,0.,1.));
#1541=DIRECTION('ref_axis',(0.,-1.,0.));
#1542=DIRECTION('',(0.,1.,0.));
#1543=DIRECTION('center_axis',(0.,0.,-1.));
#1544=DIRECTION('ref_axis',(0.,1.,0.));
#1545=DIRECTION('',(0.,-1.,0.));
#1546=DIRECTION('',(0.,1.,0.));
#1547=DIRECTION('',(-1.,0.,0.));
#1548=DIRECTION('center_axis',(0.,1.,0.));
#1549=DIRECTION('ref_axis',(0.,0.,1.));
#1550=DIRECTION('',(0.,0.,-1.));
#1551=DIRECTION('',(-1.,0.,-3.56653693405044E-33));
#1552=DIRECTION('',(-7.70371977754894E-34,0.,1.));
#1553=DIRECTION('center_axis',(1.,0.,0.));
#1554=DIRECTION('ref_axis',(0.,0.,-1.));
#1555=DIRECTION('',(0.,0.,1.));
#1556=DIRECTION('',(0.,1.,0.));
#1557=DIRECTION('center_axis',(0.,0.,1.));
#1558=DIRECTION('ref_axis',(-1.,0.,0.));
#1559=DIRECTION('center_axis',(-3.56653693405044E-33,0.,1.));
#1560=DIRECTION('ref_axis',(-1.,0.,0.));
#1561=DIRECTION('',(0.,0.,1.));
#1562=DIRECTION('center_axis',(0.,0.,1.));
#1563=DIRECTION('ref_axis',(-1.,0.,0.));
#1564=DIRECTION('center_axis',(0.,0.,-1.));
#1565=DIRECTION('ref_axis',(-1.,0.,0.));
#1566=DIRECTION('center_axis',(-1.,0.,-7.70371977754894E-34));
#1567=DIRECTION('ref_axis',(-7.70371977754894E-34,0.,1.));
#1568=DIRECTION('',(0.,1.,0.));
#1569=DIRECTION('',(7.70371977754894E-34,0.,-1.));
#1570=DIRECTION('center_axis',(3.56653693405044E-33,0.,-1.));
#1571=DIRECTION('ref_axis',(-1.,0.,-3.56653693405044E-33));
#1572=DIRECTION('',(1.,0.,3.56653693405044E-33));
#1573=DIRECTION('center_axis',(0.,1.,0.));
#1574=DIRECTION('ref_axis',(1.,0.,0.));
#1575=CARTESIAN_POINT('',(0.,0.,0.));
#1576=CARTESIAN_POINT('Origin',(-1.5,0.1,10.8));
#1577=CARTESIAN_POINT('',(-1.5,0.1,10.8));
#1578=CARTESIAN_POINT('',(-1.5,0.1,8.8));
#1579=CARTESIAN_POINT('',(-1.5,0.1,10.8));
#1580=CARTESIAN_POINT('',(-1.5,1.3,8.8));
#1581=CARTESIAN_POINT('',(-1.5,0.1,8.8));
#1582=CARTESIAN_POINT('',(-1.5,1.3,10.8));
#1583=CARTESIAN_POINT('',(-1.5,1.3,10.8));
#1584=CARTESIAN_POINT('',(-1.5,0.9,10.8));
#1585=CARTESIAN_POINT('Origin',(-0.75,1.3,9.8));
#1586=CARTESIAN_POINT('',(0.,1.3,10.8));
#1587=CARTESIAN_POINT('',(0.,1.3,8.8));
#1588=CARTESIAN_POINT('',(0.,1.3,4.9));
#1589=CARTESIAN_POINT('',(-0.375000000000001,1.3,10.8));
#1590=CARTESIAN_POINT('',(-0.375000000000001,1.3,8.8));
#1591=CARTESIAN_POINT('Origin',(0.,1.7,10.8));
#1592=CARTESIAN_POINT('',(0.,1.7,10.8));
#1593=CARTESIAN_POINT('',(-8.32001735975286E-33,0.85,10.8));
#1594=CARTESIAN_POINT('',(-1.9,1.7,10.8));
#1595=CARTESIAN_POINT('',(0.,1.7,10.8));
#1596=CARTESIAN_POINT('',(-1.9,0.1,10.8));
#1597=CARTESIAN_POINT('',(-1.9,0.1,10.8));
#1598=CARTESIAN_POINT('',(0.,0.1,10.8));
#1599=CARTESIAN_POINT('Origin',(0.,1.7,8.8));
#1600=CARTESIAN_POINT('',(0.,1.7,8.8));
#1601=CARTESIAN_POINT('',(-3.38963670212154E-33,1.7,4.4));
#1602=CARTESIAN_POINT('',(-1.9,1.7,8.8));
#1603=CARTESIAN_POINT('',(0.,1.7,8.8));
#1604=CARTESIAN_POINT('',(-1.9,1.7,10.8));
#1605=CARTESIAN_POINT('Origin',(0.,0.1,8.8));
#1606=CARTESIAN_POINT('',(-1.9,0.1,8.8));
#1607=CARTESIAN_POINT('',(0.,0.1,8.8));
#1608=CARTESIAN_POINT('',(-1.9,1.7,8.8));
#1609=CARTESIAN_POINT('',(-6.77927340424307E-33,0.05,8.8));
#1610=CARTESIAN_POINT('Origin',(0.,0.1,10.8));
#1611=CARTESIAN_POINT('',(-1.9,0.1,8.8));
#1612=CARTESIAN_POINT('Origin',(-1.9,0.9,9.8));
#1613=CARTESIAN_POINT('Origin',(12.3,0.1,6.2));
#1614=CARTESIAN_POINT('',(12.3,0.1,6.2));
#1615=CARTESIAN_POINT('',(12.3,0.1,4.2));
#1616=CARTESIAN_POINT('',(12.3,0.1,6.2));
#1617=CARTESIAN_POINT('',(12.3,1.3,6.2));
#1618=CARTESIAN_POINT('',(12.3,0.9,6.2));
#1619=CARTESIAN_POINT('',(12.3,1.3,4.2));
#1620=CARTESIAN_POINT('',(12.3,1.3,6.2));
#1621=CARTESIAN_POINT('',(12.3,0.1,4.2));
#1622=CARTESIAN_POINT('Origin',(11.55,1.3,5.2));
#1623=CARTESIAN_POINT('',(10.8,1.3,4.2));
#1624=CARTESIAN_POINT('',(10.8,1.3,6.2));
#1625=CARTESIAN_POINT('',(10.8,1.3,10.1));
#1626=CARTESIAN_POINT('',(11.175,1.3,4.2));
#1627=CARTESIAN_POINT('',(11.175,1.3,6.2));
#1628=CARTESIAN_POINT('Origin',(10.8,1.7,6.2));
#1629=CARTESIAN_POINT('',(12.7,0.1,6.2));
#1630=CARTESIAN_POINT('',(10.8,0.1,6.2));
#1631=CARTESIAN_POINT('',(12.7,1.7,6.2));
#1632=CARTESIAN_POINT('',(12.7,0.1,6.2));
#1633=CARTESIAN_POINT('',(10.8,1.7,6.2));
#1634=CARTESIAN_POINT('',(10.8,1.7,6.2));
#1635=CARTESIAN_POINT('',(10.8,0.85,6.2));
#1636=CARTESIAN_POINT('Origin',(10.8,1.7,4.2));
#1637=CARTESIAN_POINT('',(10.8,1.7,4.2));
#1638=CARTESIAN_POINT('',(10.8,1.7,9.6));
#1639=CARTESIAN_POINT('',(12.7,1.7,4.2));
#1640=CARTESIAN_POINT('',(12.7,1.7,6.2));
#1641=CARTESIAN_POINT('',(10.8,1.7,4.2));
#1642=CARTESIAN_POINT('Origin',(10.8,0.1,4.2));
#1643=CARTESIAN_POINT('',(10.8,0.05,4.2));
#1644=CARTESIAN_POINT('',(12.7,0.1,4.2));
#1645=CARTESIAN_POINT('',(12.7,1.7,4.2));
#1646=CARTESIAN_POINT('',(10.8,0.1,4.2));
#1647=CARTESIAN_POINT('Origin',(10.8,0.1,6.2));
#1648=CARTESIAN_POINT('',(12.7,0.1,4.2));
#1649=CARTESIAN_POINT('Origin',(12.7,0.9,5.2));
#1650=CARTESIAN_POINT('Origin',(12.3,0.1,10.8));
#1651=CARTESIAN_POINT('',(12.3,0.1,10.8));
#1652=CARTESIAN_POINT('',(12.3,0.1,8.8));
#1653=CARTESIAN_POINT('',(12.3,0.1,10.8));
#1654=CARTESIAN_POINT('',(12.3,1.3,10.8));
#1655=CARTESIAN_POINT('',(12.3,0.9,10.8));
#1656=CARTESIAN_POINT('',(12.3,1.3,8.8));
#1657=CARTESIAN_POINT('',(12.3,1.3,10.8));
#1658=CARTESIAN_POINT('',(12.3,0.1,8.8));
#1659=CARTESIAN_POINT('Origin',(11.55,1.3,9.8));
#1660=CARTESIAN_POINT('',(10.8,1.3,8.8));
#1661=CARTESIAN_POINT('',(10.8,1.3,10.8));
#1662=CARTESIAN_POINT('',(10.8,1.3,12.4));
#1663=CARTESIAN_POINT('',(11.175,1.3,8.8));
#1664=CARTESIAN_POINT('',(11.175,1.3,10.8));
#1665=CARTESIAN_POINT('Origin',(10.8,1.7,10.8));
#1666=CARTESIAN_POINT('',(12.7,0.1,10.8));
#1667=CARTESIAN_POINT('',(10.8,0.1,10.8));
#1668=CARTESIAN_POINT('',(12.7,1.7,10.8));
#1669=CARTESIAN_POINT('',(12.7,0.1,10.8));
#1670=CARTESIAN_POINT('',(10.8,1.7,10.8));
#1671=CARTESIAN_POINT('',(10.8,1.7,10.8));
#1672=CARTESIAN_POINT('',(10.8,0.85,10.8));
#1673=CARTESIAN_POINT('Origin',(10.8,1.7,8.8));
#1674=CARTESIAN_POINT('',(10.8,1.7,8.8));
#1675=CARTESIAN_POINT('',(10.8,1.7,11.9));
#1676=CARTESIAN_POINT('',(12.7,1.7,8.8));
#1677=CARTESIAN_POINT('',(12.7,1.7,10.8));
#1678=CARTESIAN_POINT('',(10.8,1.7,8.8));
#1679=CARTESIAN_POINT('Origin',(10.8,0.1,8.8));
#1680=CARTESIAN_POINT('',(10.8,0.05,8.8));
#1681=CARTESIAN_POINT('',(12.7,0.1,8.8));
#1682=CARTESIAN_POINT('',(12.7,1.7,8.8));
#1683=CARTESIAN_POINT('',(10.8,0.1,8.8));
#1684=CARTESIAN_POINT('Origin',(10.8,0.1,10.8));
#1685=CARTESIAN_POINT('',(12.7,0.1,8.8));
#1686=CARTESIAN_POINT('Origin',(12.7,0.9,9.8));
#1687=CARTESIAN_POINT('Origin',(-1.5,0.1,6.2));
#1688=CARTESIAN_POINT('',(-1.5,0.1,6.2));
#1689=CARTESIAN_POINT('',(-1.5,0.1,4.2));
#1690=CARTESIAN_POINT('',(-1.5,0.1,6.2));
#1691=CARTESIAN_POINT('',(-1.5,1.3,4.2));
#1692=CARTESIAN_POINT('',(-1.5,0.1,4.2));
#1693=CARTESIAN_POINT('',(-1.5,1.3,6.2));
#1694=CARTESIAN_POINT('',(-1.5,1.3,6.2));
#1695=CARTESIAN_POINT('',(-1.5,0.9,6.2));
#1696=CARTESIAN_POINT('Origin',(-0.75,1.3,5.2));
#1697=CARTESIAN_POINT('',(0.,1.3,6.2));
#1698=CARTESIAN_POINT('',(0.,1.3,4.2));
#1699=CARTESIAN_POINT('',(0.,1.3,2.6));
#1700=CARTESIAN_POINT('',(-0.375000000000001,1.3,6.2));
#1701=CARTESIAN_POINT('',(-0.375000000000001,1.3,4.2));
#1702=CARTESIAN_POINT('Origin',(0.,1.7,6.2));
#1703=CARTESIAN_POINT('',(0.,1.7,6.2));
#1704=CARTESIAN_POINT('',(-4.77630626208035E-33,0.85,6.2));
#1705=CARTESIAN_POINT('',(-1.9,1.7,6.2));
#1706=CARTESIAN_POINT('',(0.,1.7,6.2));
#1707=CARTESIAN_POINT('',(-1.9,0.1,6.2));
#1708=CARTESIAN_POINT('',(-1.9,0.1,6.2));
#1709=CARTESIAN_POINT('',(0.,0.1,6.2));
#1710=CARTESIAN_POINT('Origin',(0.,1.7,4.2));
#1711=CARTESIAN_POINT('',(0.,1.7,4.2));
#1712=CARTESIAN_POINT('',(-1.61778115328528E-33,1.7,2.1));
#1713=CARTESIAN_POINT('',(-1.9,1.7,4.2));
#1714=CARTESIAN_POINT('',(0.,1.7,4.2));
#1715=CARTESIAN_POINT('',(-1.9,1.7,6.2));
#1716=CARTESIAN_POINT('Origin',(0.,0.1,4.2));
#1717=CARTESIAN_POINT('',(-1.9,0.1,4.2));
#1718=CARTESIAN_POINT('',(0.,0.1,4.2));
#1719=CARTESIAN_POINT('',(-1.9,1.7,4.2));
#1720=CARTESIAN_POINT('',(-3.23556230657056E-33,0.05,4.2));
#1721=CARTESIAN_POINT('Origin',(0.,0.1,6.2));
#1722=CARTESIAN_POINT('',(-1.9,0.1,4.2));
#1723=CARTESIAN_POINT('Origin',(-1.9,0.9,5.2));
#1724=CARTESIAN_POINT('Origin',(6.4,3.6,14.2));
#1725=CARTESIAN_POINT('',(6.6,5.,14.2));
#1726=CARTESIAN_POINT('',(6.2,5.,14.2));
#1727=CARTESIAN_POINT('',(3.2,5.,14.2));
#1728=CARTESIAN_POINT('',(6.6,0.700000000000001,14.2));
#1729=CARTESIAN_POINT('',(6.6,0.700000000000001,14.2));
#1730=CARTESIAN_POINT('',(6.2,0.700000000000001,14.2));
#1731=CARTESIAN_POINT('',(6.2,0.7,14.2));
#1732=CARTESIAN_POINT('',(6.2,6.5,14.2));
#1733=CARTESIAN_POINT('Origin',(6.6,6.5,15.6));
#1734=CARTESIAN_POINT('',(6.6,5.,15.6));
#1735=CARTESIAN_POINT('',(6.6,5.,13.7));
#1736=CARTESIAN_POINT('',(6.6,0.700000000000001,15.6));
#1737=CARTESIAN_POINT('',(6.6,0.700000000000001,15.6));
#1738=CARTESIAN_POINT('',(6.6,0.700000000000001,15.6));
#1739=CARTESIAN_POINT('Origin',(6.2,0.700000000000001,15.6));
#1740=CARTESIAN_POINT('',(6.2,5.,15.6));
#1741=CARTESIAN_POINT('',(6.2,5.,13.7));
#1742=CARTESIAN_POINT('',(6.2,0.700000000000001,15.6));
#1743=CARTESIAN_POINT('',(6.2,0.700000000000001,15.6));
#1744=CARTESIAN_POINT('',(6.2,6.5,15.6));
#1745=CARTESIAN_POINT('Origin',(6.6,0.700000000000001,15.6));
#1746=CARTESIAN_POINT('',(6.2,0.7,15.6));
#1747=CARTESIAN_POINT('Origin',(6.4,3.6,15.6));
#1748=CARTESIAN_POINT('',(3.2,5.,15.6));
#1749=CARTESIAN_POINT('Origin',(4.4,3.6,15.6));
#1750=CARTESIAN_POINT('',(4.2,5.,15.6));
#1751=CARTESIAN_POINT('',(4.6,5.,15.6));
#1752=CARTESIAN_POINT('',(2.2,5.,15.6));
#1753=CARTESIAN_POINT('',(4.2,0.700000000000001,15.6));
#1754=CARTESIAN_POINT('',(4.2,0.700000000000001,15.6));
#1755=CARTESIAN_POINT('',(4.6,0.7,15.6));
#1756=CARTESIAN_POINT('',(4.6,0.7,15.6));
#1757=CARTESIAN_POINT('',(4.6,6.5,15.6));
#1758=CARTESIAN_POINT('Origin',(4.2,0.700000000000001,15.6));
#1759=CARTESIAN_POINT('',(4.2,5.,14.2));
#1760=CARTESIAN_POINT('',(4.2,5.,13.7));
#1761=CARTESIAN_POINT('',(4.2,0.700000000000001,14.2));
#1762=CARTESIAN_POINT('',(4.2,0.700000000000001,14.2));
#1763=CARTESIAN_POINT('',(4.2,0.700000000000001,15.6));
#1764=CARTESIAN_POINT('Origin',(4.6,0.7,15.6));
#1765=CARTESIAN_POINT('',(4.6,0.7,14.2));
#1766=CARTESIAN_POINT('',(4.6,0.7,14.2));
#1767=CARTESIAN_POINT('',(4.6,0.7,15.6));
#1768=CARTESIAN_POINT('Origin',(4.6,6.5,15.6));
#1769=CARTESIAN_POINT('',(4.6,5.,14.2));
#1770=CARTESIAN_POINT('',(4.6,5.,13.7));
#1771=CARTESIAN_POINT('',(4.6,6.5,14.2));
#1772=CARTESIAN_POINT('Origin',(4.4,3.6,14.2));
#1773=CARTESIAN_POINT('',(2.2,5.,14.2));
#1774=CARTESIAN_POINT('Origin',(9.9,0.600000000000001,15.7));
#1775=CARTESIAN_POINT('',(9.9,5.,15.7));
#1776=CARTESIAN_POINT('',(9.9,5.,14.6));
#1777=CARTESIAN_POINT('',(9.9,5.,13.75));
#1778=CARTESIAN_POINT('',(9.9,6.51000017732381,15.7));
#1779=CARTESIAN_POINT('',(9.9,3.55500008866191,15.7));
#1780=CARTESIAN_POINT('',(9.9,6.6,15.5714288055897));
#1781=CARTESIAN_POINT('',(9.9,5.78322178253963,16.7382550044038));
#1782=CARTESIAN_POINT('',(9.9,6.6,16.3));
#1783=CARTESIAN_POINT('',(9.9,6.6,15.7));
#1784=CARTESIAN_POINT('',(9.9,0.600000000000001,16.3));
#1785=CARTESIAN_POINT('',(9.9,6.6,16.3));
#1786=CARTESIAN_POINT('',(9.9,0.600000000000001,14.6));
#1787=CARTESIAN_POINT('',(9.9,0.600000000000001,15.7));
#1788=CARTESIAN_POINT('',(9.9,6.6,14.6));
#1789=CARTESIAN_POINT('Origin',(9.9,6.6,15.7));
#1790=CARTESIAN_POINT('',(9.5,6.6,15.5714288055897));
#1791=CARTESIAN_POINT('',(4.95,6.60000000000001,15.5714288055897));
#1792=CARTESIAN_POINT('',(9.5,6.6,16.3));
#1793=CARTESIAN_POINT('',(9.5,6.6,15.7));
#1794=CARTESIAN_POINT('',(9.5,6.6,16.3));
#1795=CARTESIAN_POINT('Origin',(9.7,3.6,14.6));
#1796=CARTESIAN_POINT('',(9.5,5.,14.6));
#1797=CARTESIAN_POINT('',(4.85,5.,14.6));
#1798=CARTESIAN_POINT('',(9.5,0.6,14.6));
#1799=CARTESIAN_POINT('',(9.9,0.600000000000001,14.6));
#1800=CARTESIAN_POINT('',(9.5,0.6,14.6));
#1801=CARTESIAN_POINT('Origin',(9.5,6.6,15.7));
#1802=CARTESIAN_POINT('',(9.5,5.,15.7));
#1803=CARTESIAN_POINT('',(9.5,5.,13.75));
#1804=CARTESIAN_POINT('',(9.5,0.6,16.3));
#1805=CARTESIAN_POINT('',(9.5,0.6,15.7));
#1806=CARTESIAN_POINT('',(9.5,0.6,16.3));
#1807=CARTESIAN_POINT('',(9.5,6.51000017732381,15.7));
#1808=CARTESIAN_POINT('',(9.5,6.76979876641687,15.3288591031342));
#1809=CARTESIAN_POINT('',(9.5,6.55500008866191,15.7));
#1810=CARTESIAN_POINT('Origin',(9.5,0.6,15.7));
#1811=CARTESIAN_POINT('',(9.9,0.600000000000001,16.3));
#1812=CARTESIAN_POINT('Origin',(9.7,3.6,16.3));
#1813=CARTESIAN_POINT('Origin',(-5.77778983316171E-33,5.,11.8));
#1814=CARTESIAN_POINT('',(1.3,5.,15.7));
#1815=CARTESIAN_POINT('',(-5.77778983316171E-33,5.,15.7));
#1816=CARTESIAN_POINT('',(1.3,5.,14.6));
#1817=CARTESIAN_POINT('',(1.3,5.,13.75));
#1818=CARTESIAN_POINT('',(0.9,5.,14.6));
#1819=CARTESIAN_POINT('',(0.55,5.,14.6));
#1820=CARTESIAN_POINT('',(0.9,5.,15.7));
#1821=CARTESIAN_POINT('',(0.9,5.,13.75));
#1822=CARTESIAN_POINT('',(-5.77778983316171E-33,5.,15.7));
#1823=CARTESIAN_POINT('',(-5.77778983316171E-33,5.,15.7));
#1824=CARTESIAN_POINT('',(-5.77778983316171E-33,5.,11.8));
#1825=CARTESIAN_POINT('',(-5.77778983316171E-33,5.,15.));
#1826=CARTESIAN_POINT('',(10.8,5.,11.8));
#1827=CARTESIAN_POINT('',(-5.77778983316171E-33,5.,11.8));
#1828=CARTESIAN_POINT('',(10.8,5.,15.7));
#1829=CARTESIAN_POINT('',(10.8,5.,13.4));
#1830=CARTESIAN_POINT('',(-5.77778983316171E-33,5.,15.7));
#1831=CARTESIAN_POINT('Origin',(-5.77778983316171E-33,6.51000017732381,
15.7));
#1832=CARTESIAN_POINT('',(1.3,6.51000017732381,15.7));
#1833=CARTESIAN_POINT('',(-5.77778983316171E-33,6.51000017732381,15.7));
#1834=CARTESIAN_POINT('',(1.3,3.55500008866191,15.7));
#1835=CARTESIAN_POINT('Origin',(1.1,3.6,14.6));
#1836=CARTESIAN_POINT('',(1.3,0.6,14.6));
#1837=CARTESIAN_POINT('',(1.3,0.6,14.6));
#1838=CARTESIAN_POINT('',(0.9,0.6,14.6));
#1839=CARTESIAN_POINT('',(0.9,0.6,14.6));
#1840=CARTESIAN_POINT('',(0.9,6.6,14.6));
#1841=CARTESIAN_POINT('Origin',(1.3,0.6,15.7));
#1842=CARTESIAN_POINT('',(1.3,6.6,15.5714288055897));
#1843=CARTESIAN_POINT('',(1.3,5.78322178253963,16.7382550044038));
#1844=CARTESIAN_POINT('',(1.3,6.6,16.3));
#1845=CARTESIAN_POINT('',(1.3,6.6,15.7));
#1846=CARTESIAN_POINT('',(1.3,0.6,16.3));
#1847=CARTESIAN_POINT('',(1.3,0.6,16.3));
#1848=CARTESIAN_POINT('',(1.3,0.6,15.7));
#1849=CARTESIAN_POINT('Origin',(0.9,6.6,15.7));
#1850=CARTESIAN_POINT('',(0.9,0.6,16.3));
#1851=CARTESIAN_POINT('',(0.9,0.6,15.7));
#1852=CARTESIAN_POINT('',(0.9,6.6,16.3));
#1853=CARTESIAN_POINT('',(0.9,6.6,16.3));
#1854=CARTESIAN_POINT('',(0.9,6.6,15.5714288055897));
#1855=CARTESIAN_POINT('',(0.9,6.6,15.7));
#1856=CARTESIAN_POINT('',(0.9,6.51000017732381,15.7));
#1857=CARTESIAN_POINT('',(0.9,6.76979876641687,15.3288591031342));
#1858=CARTESIAN_POINT('',(0.9,6.5550000886619,15.7));
#1859=CARTESIAN_POINT('Origin',(1.3,6.6,15.7));
#1860=CARTESIAN_POINT('',(0.650000000000001,6.6,15.5714288055897));
#1861=CARTESIAN_POINT('',(1.3,6.6,16.3));
#1862=CARTESIAN_POINT('Origin',(0.9,0.6,15.7));
#1863=CARTESIAN_POINT('',(0.9,0.6,16.3));
#1864=CARTESIAN_POINT('Origin',(1.1,3.6,16.3));
#1865=CARTESIAN_POINT('Origin',(-5.77778983316171E-33,7.00000010430813,
15.));
#1866=CARTESIAN_POINT('',(10.8,6.51000017732381,15.7));
#1867=CARTESIAN_POINT('',(-5.77778983316171E-33,6.51000017732381,15.7));
#1868=CARTESIAN_POINT('',(10.8,7.7,14.));
#1869=CARTESIAN_POINT('',(10.8,5.84899360596669,16.6442952426497));
#1870=CARTESIAN_POINT('',(-5.77778983316171E-33,7.7,14.));
#1871=CARTESIAN_POINT('',(2.7,7.7,14.));
#1872=CARTESIAN_POINT('',(-5.77778983316171E-33,6.51000017732381,15.7));
#1873=CARTESIAN_POINT('',(-5.77778983316171E-33,6.51000017732381,15.7));
#1874=CARTESIAN_POINT('',(-5.77778983316171E-33,6.51000017732381,15.7));
#1875=CARTESIAN_POINT('Origin',(-5.77778983316171E-33,6.51000017732381,
15.7));
#1876=CARTESIAN_POINT('',(10.8,5.,15.7));
#1877=CARTESIAN_POINT('Origin',(-5.77778983316171E-33,6.51000017732381,
15.7));
#1878=CARTESIAN_POINT('',(-5.77778983316171E-33,5.,15.7));
#1879=CARTESIAN_POINT('Origin',(-5.77778983316171E-33,0.,11.8));
#1880=CARTESIAN_POINT('',(10.8,0.,11.8));
#1881=CARTESIAN_POINT('',(10.8,0.,11.8));
#1882=CARTESIAN_POINT('',(-5.77778983316171E-33,0.,11.8));
#1883=CARTESIAN_POINT('',(-9.09038933750775E-33,0.,11.8));
#1884=CARTESIAN_POINT('',(2.7,0.,11.8));
#1885=CARTESIAN_POINT('Origin',(5.4,7.7,7.5));
#1886=CARTESIAN_POINT('',(10.8,7.7,0.));
#1887=CARTESIAN_POINT('',(10.8,7.7,3.85185988877447E-32));
#1888=CARTESIAN_POINT('',(0.,7.7,0.));
#1889=CARTESIAN_POINT('',(0.,7.7,0.));
#1890=CARTESIAN_POINT('',(-1.15555796663234E-32,7.7,15.));
#1891=CARTESIAN_POINT('Origin',(10.8,0.,15.));
#1892=CARTESIAN_POINT('',(10.8,0.,3.85185988877447E-32));
#1893=CARTESIAN_POINT('',(10.8,0.,3.85185988877447E-32));
#1894=CARTESIAN_POINT('',(10.8,0.,3.85185988877447E-32));
#1895=CARTESIAN_POINT('Origin',(5.4,3.85,0.));
#1896=CARTESIAN_POINT('',(8.4,3.85,0.));
#1897=CARTESIAN_POINT('Origin',(5.4,3.85,3.85185988877447E-32));
#1898=CARTESIAN_POINT('',(8.4,3.85,6.));
#1899=CARTESIAN_POINT('',(8.4,3.85,0.));
#1900=CARTESIAN_POINT('Origin',(5.4,3.85,6.));
#1901=CARTESIAN_POINT('Origin',(5.4,3.85,6.));
#1902=CARTESIAN_POINT('Origin',(0.,0.,0.));
#1903=CARTESIAN_POINT('',(0.,0.,0.));
#1904=CARTESIAN_POINT('',(0.,0.,0.));
#1905=CARTESIAN_POINT('',(-1.15555796663234E-32,0.,15.));
#1906=CARTESIAN_POINT('Origin',(10.8,0.,3.85185988877447E-32));
#1907=CARTESIAN_POINT('',(0.,0.,0.));
#1908=CARTESIAN_POINT('Origin',(5.4,0.,7.5));
#1909=UNCERTAINTY_MEASURE_WITH_UNIT(LENGTH_MEASURE(0.01),#1913,
'DISTANCE_ACCURACY_VALUE',
'Maximum model space distance between geometric entities at asserted c
onnectivities');
#1910=UNCERTAINTY_MEASURE_WITH_UNIT(LENGTH_MEASURE(0.01),#1913,
'DISTANCE_ACCURACY_VALUE',
'Maximum model space distance between geometric entities at asserted c
onnectivities');
#1911=(
GEOMETRIC_REPRESENTATION_CONTEXT(3)
GLOBAL_UNCERTAINTY_ASSIGNED_CONTEXT((#1909))
GLOBAL_UNIT_ASSIGNED_CONTEXT((#1913,#1915,#1916))
REPRESENTATION_CONTEXT('','3D')
);
#1912=(
GEOMETRIC_REPRESENTATION_CONTEXT(3)
GLOBAL_UNCERTAINTY_ASSIGNED_CONTEXT((#1910))
GLOBAL_UNIT_ASSIGNED_CONTEXT((#1913,#1915,#1916))
REPRESENTATION_CONTEXT('','3D')
);
#1913=(
LENGTH_UNIT()
NAMED_UNIT(*)
SI_UNIT(.MILLI.,.METRE.)
);
#1914=(
LENGTH_UNIT()
NAMED_UNIT(*)
SI_UNIT($,.METRE.)
);
#1915=(
NAMED_UNIT(*)
PLANE_ANGLE_UNIT()
SI_UNIT($,.RADIAN.)
);
#1916=(
NAMED_UNIT(*)
SI_UNIT($,.STERADIAN.)
SOLID_ANGLE_UNIT()
);
#1917=SHAPE_DEFINITION_REPRESENTATION(#1918,#1919);
#1918=PRODUCT_DEFINITION_SHAPE('',$,#1921);
#1919=SHAPE_REPRESENTATION('',(#1217),#1911);
#1920=PRODUCT_DEFINITION_CONTEXT('part definition',#1925,'design');
#1921=PRODUCT_DEFINITION('Female DC Power Barrel Jack',
'Female DC Power Barrel Jack v3',#1922,#1920);
#1922=PRODUCT_DEFINITION_FORMATION('',$,#1927);
#1923=PRODUCT_RELATED_PRODUCT_CATEGORY('Female DC Power Barrel Jack v3',
'Female DC Power Barrel Jack v3',(#1927));
#1924=APPLICATION_PROTOCOL_DEFINITION('international standard',
'automotive_design',2009,#1925);
#1925=APPLICATION_CONTEXT(
'Core Data for Automotive Mechanical Design Process');
#1926=PRODUCT_CONTEXT('part definition',#1925,'mechanical');
#1927=PRODUCT('Female DC Power Barrel Jack',
'Female DC Power Barrel Jack v3',$,(#1926));
#1928=PRESENTATION_STYLE_ASSIGNMENT((#1930));
#1929=PRESENTATION_STYLE_ASSIGNMENT((#1931));
#1930=SURFACE_STYLE_USAGE(.BOTH.,#1932);
#1931=SURFACE_STYLE_USAGE(.BOTH.,#1933);
#1932=SURFACE_SIDE_STYLE('',(#1934));
#1933=SURFACE_SIDE_STYLE('',(#1935));
#1934=SURFACE_STYLE_FILL_AREA(#1936);
#1935=SURFACE_STYLE_FILL_AREA(#1937);
#1936=FILL_AREA_STYLE('Steel - Satin',(#1938));
#1937=FILL_AREA_STYLE('Base Material - Opaque',(#1939));
#1938=FILL_AREA_STYLE_COLOUR('Steel - Satin',#1940);
#1939=FILL_AREA_STYLE_COLOUR('Base Material - Opaque',#1941);
#1940=COLOUR_RGB('Steel - Satin',0.627450980392157,0.627450980392157,0.627450980392157);
#1941=COLOUR_RGB('Base Material - Opaque',0.0980392156862745,0.0980392156862745,
0.0980392156862745);
ENDSEC;
END-ISO-10303-21;
