ISO-10303-21;
HEADER;
FILE_DESCRIPTION (( 'STEP AP214' ),
    '1' );
FILE_NAME ('GRM_Auto_Q3_1.8_1_0.8_0.35.STEP',
    '2024-08-04T18:18:05',
    ( '' ),
    ( '' ),
    'SwSTEP 2.0',
    'SolidWorks 2021',
    '' );
FILE_SCHEMA (( 'AUTOMOTIVE_DESIGN' ));
ENDSEC;

DATA;
#1 = ORIENTED_EDGE ( 'NONE', *, *, #361, .F. ) ;
#2 = ADVANCED_FACE ( 'NONE', ( #864 ), #263, .T. ) ;
#3 = DIRECTION ( 'NONE',  ( -1.000000000000000000, 0.000000000000000000, 0.000000000000000000 ) ) ;
#4 = ORIENTED_EDGE ( 'NONE', *, *, #882, .F. ) ;
#5 = EDGE_CURVE ( 'NONE', #131, #1028, #217, .T. ) ;
#6 = AXIS2_PLACEMENT_3D ( 'NONE', #717, #611, #515 ) ;
#7 = CARTESIAN_POINT ( 'NONE',  ( 0.5500000000000001554, 0.000000000000000000, -0.4549999999999997935 ) ) ;
#8 = AXIS2_PLACEMENT_3D ( 'NONE', #697, #997, #13 ) ;
#9 = AXIS2_PLACEMENT_3D ( 'NONE', #101, #192, #695 ) ;
#10 = PRESENTATION_STYLE_ASSIGNMENT (( #1178 ) ) ;
#11 = ORIENTED_EDGE ( 'NONE', *, *, #822, .F. ) ;
#12 = CARTESIAN_POINT ( 'NONE',  ( 0.9000000000000000222, 0.7999999999999999334, 0.4999999999999997780 ) ) ;
#13 = DIRECTION ( 'NONE',  ( -1.000000000000000000, 0.000000000000000000, -0.000000000000000000 ) ) ;
#14 = CARTESIAN_POINT ( 'NONE',  ( 0.5500000000000001554, 0.000000000000000000, -0.4999999999999997780 ) ) ;
#15 = FACE_OUTER_BOUND ( 'NONE', #815, .T. ) ;
#16 = EDGE_CURVE ( 'NONE', #73, #1218, #1252, .T. ) ;
#17 = EDGE_CURVE ( 'NONE', #340, #394, #928, .T. ) ;
#18 = CARTESIAN_POINT ( 'NONE',  ( -0.5500000000000000444, 0.01499999999999999944, 0.4549999999999997935 ) ) ;
#19 = ORIENTED_EDGE ( 'NONE', *, *, #962, .T. ) ;
#20 = CARTESIAN_POINT ( 'NONE',  ( -0.5499999999999999334, 0.7999999999999999334, 0.4549999999999997935 ) ) ;
#21 = ORIENTED_EDGE ( 'NONE', *, *, #984, .T. ) ;
#22 = VECTOR ( 'NONE', #972, 1000.000000000000000 ) ;
#23 = CARTESIAN_POINT ( 'NONE',  ( 0.000000000000000000, 0.7999999999999999334, 0.000000000000000000 ) ) ;
#24 = EDGE_CURVE ( 'NONE', #694, #277, #636, .T. ) ;
#25 = CIRCLE ( 'NONE', #291, 0.04500000000000001221 ) ;
#26 = CARTESIAN_POINT ( 'NONE',  ( -0.8549999999999999822, 0.7549999999999998934, 0.4549999999999997935 ) ) ;
#27 = EDGE_CURVE ( 'NONE', #1218, #53, #734, .T. ) ;
#28 = DIRECTION ( 'NONE',  ( -1.000000000000000000, 0.000000000000000000, 0.000000000000000000 ) ) ;
#29 = EDGE_LOOP ( 'NONE', ( #1083, #171, #640, #786 ) ) ;
#30 = DIRECTION ( 'NONE',  ( -1.000000000000000000, 0.000000000000000000, -0.000000000000000000 ) ) ;
#31 = DIRECTION ( 'NONE',  ( -2.168404344971010101E-16, 0.000000000000000000, 1.000000000000000000 ) ) ;
#32 = CARTESIAN_POINT ( 'NONE',  ( -0.5500000000000001554, 0.04500000000000001221, -0.4549999999999997935 ) ) ;
#33 = CYLINDRICAL_SURFACE ( 'NONE', #103, 0.03000000000000002318 ) ;
#34 = VERTEX_POINT ( 'NONE', #437 ) ;
#35 = DIRECTION ( 'NONE',  ( 1.000000000000000000, 0.000000000000000000, 0.000000000000000000 ) ) ;
#36 = EDGE_CURVE ( 'NONE', #514, #467, #824, .T. ) ;
#37 = DIRECTION ( 'NONE',  ( 0.000000000000000000, 0.000000000000000000, 1.000000000000000000 ) ) ;
#38 =( NAMED_UNIT ( * ) PLANE_ANGLE_UNIT ( ) SI_UNIT ( $, .RADIAN. ) );
#39 = ORIENTED_EDGE ( 'NONE', *, *, #693, .F. ) ;
#40 = ORIENTED_EDGE ( 'NONE', *, *, #1005, .F. ) ;
#41 = VECTOR ( 'NONE', #265, 1000.000000000000000 ) ;
#42 = ORIENTED_EDGE ( 'NONE', *, *, #999, .F. ) ;
#43 = EDGE_CURVE ( 'NONE', #394, #461, #544, .T. ) ;
#44 = AXIS2_PLACEMENT_3D ( 'NONE', #910, #208, #607 ) ;
#45 = DIRECTION ( 'NONE',  ( 0.000000000000000000, -0.000000000000000000, 1.000000000000000000 ) ) ;
#46 = DIRECTION ( 'NONE',  ( -2.409338161078897997E-15, -1.000000000000000000, 0.000000000000000000 ) ) ;
#47 = ORIENTED_EDGE ( 'NONE', *, *, #758, .F. ) ;
#48 = ORIENTED_EDGE ( 'NONE', *, *, #315, .F. ) ;
#49 = ORIENTED_EDGE ( 'NONE', *, *, #5, .T. ) ;
#50 = CARTESIAN_POINT ( 'NONE',  ( -0.8549999999999999822, 0.04500000000000001221, 0.4549999999999997935 ) ) ;
#51 = DIRECTION ( 'NONE',  ( 1.000000000000000000, -0.000000000000000000, -0.000000000000000000 ) ) ;
#52 = EDGE_LOOP ( 'NONE', ( #460, #383, #738, #836 ) ) ;
#53 = VERTEX_POINT ( 'NONE', #765 ) ;
#54 = FILL_AREA_STYLE_COLOUR ( '', #1202 ) ;
#55 = CARTESIAN_POINT ( 'NONE',  ( 0.8549999999999999822, 0.7999999999999999334, 0.4549999999999997935 ) ) ;
#56 = ORIENTED_EDGE ( 'NONE', *, *, #999, .T. ) ;
#57 = ADVANCED_FACE ( 'NONE', ( #492 ), #505, .T. ) ;
#58 = CYLINDRICAL_SURFACE ( 'NONE', #1242, 0.04500000000000001221 ) ;
#59 = CARTESIAN_POINT ( 'NONE',  ( -0.5500000000000001554, 0.7999999999999999334, -0.4999999999999997780 ) ) ;
#60 = VERTEX_POINT ( 'NONE', #292 ) ;
#61 = ORIENTED_EDGE ( 'NONE', *, *, #259, .F. ) ;
#62 = CARTESIAN_POINT ( 'NONE',  ( 0.5499999999999999334, 0.7549999999999998934, 0.4999999999999997780 ) ) ;
#63 = DIRECTION ( 'NONE',  ( 0.000000000000000000, 0.000000000000000000, -1.000000000000000000 ) ) ;
#64 = ORIENTED_EDGE ( 'NONE', *, *, #551, .T. ) ;
#65 = COLOUR_RGB ( '',0.4862745098039215619, 0.2352941176470588203, 0.01568627450980392135 ) ;
#66 = VECTOR ( 'NONE', #145, 1000.000000000000000 ) ;
#67 = AXIS2_PLACEMENT_3D ( 'NONE', #529, #522, #729 ) ;
#68 = VECTOR ( 'NONE', #345, 1000.000000000000000 ) ;
#69 = LINE ( 'NONE', #187, #274 ) ;
#70 = PLANE ( 'NONE',  #807 ) ;
#71 = VERTEX_POINT ( 'NONE', #1086 ) ;
#72 = AXIS2_PLACEMENT_3D ( 'NONE', #1194, #685, #196 ) ;
#73 = VERTEX_POINT ( 'NONE', #500 ) ;
#74 =( NAMED_UNIT ( * ) SI_UNIT ( $, .STERADIAN. ) SOLID_ANGLE_UNIT ( ) );
#75 = DIRECTION ( 'NONE',  ( -0.000000000000000000, -1.000000000000000000, -0.000000000000000000 ) ) ;
#76 = DIRECTION ( 'NONE',  ( 1.000000000000000000, 0.000000000000000000, 0.000000000000000000 ) ) ;
#77 = DIRECTION ( 'NONE',  ( -1.000000000000000000, -0.000000000000000000, 8.673617379884037937E-17 ) ) ;
#78 = ORIENTED_EDGE ( 'NONE', *, *, #942, .F. ) ;
#79 = ORIENTED_EDGE ( 'NONE', *, *, #207, .F. ) ;
#80 = DIRECTION ( 'NONE',  ( 1.084202172485505050E-16, -0.000000000000000000, -1.000000000000000000 ) ) ;
#81 = FACE_OUTER_BOUND ( 'NONE', #550, .T. ) ;
#82 = DIRECTION ( 'NONE',  ( 0.000000000000000000, 1.000000000000000000, 0.000000000000000000 ) ) ;
#83 = FACE_OUTER_BOUND ( 'NONE', #1209, .T. ) ;
#84 = EDGE_CURVE ( 'NONE', #821, #793, #597, .T. ) ;
#85 = CARTESIAN_POINT ( 'NONE',  ( -0.8549999999999999822, 0.7549999999999998934, 0.4999999999999997780 ) ) ;
#86 = PRODUCT_DEFINITION_SHAPE ( 'NONE', 'NONE',  #1207 ) ;
#87 = AXIS2_PLACEMENT_3D ( 'NONE', #1051, #374, #742 ) ;
#88 = CARTESIAN_POINT ( 'NONE',  ( -0.5500000000000001554, 0.7999999999999999334, -0.4999999999999997780 ) ) ;
#89 = AXIS2_PLACEMENT_3D ( 'NONE', #124, #523, #46 ) ;
#90 = ORIENTED_EDGE ( 'NONE', *, *, #847, .T. ) ;
#91 = AXIS2_PLACEMENT_3D ( 'NONE', #1205, #1100, #900 ) ;
#92 = LINE ( 'NONE', #169, #247 ) ;
#93 = VERTEX_POINT ( 'NONE', #298 ) ;
#94 = DIRECTION ( 'NONE',  ( 1.000000000000000000, 0.000000000000000000, 2.168404344971010101E-16 ) ) ;
#95 = ADVANCED_FACE ( 'NONE', ( #81 ), #700, .T. ) ;
#96 = ORIENTED_EDGE ( 'NONE', *, *, #984, .F. ) ;
#97 = DIRECTION ( 'NONE',  ( -1.000000000000000000, 0.000000000000000000, 0.000000000000000000 ) ) ;
#98 = EDGE_LOOP ( 'NONE', ( #1239, #474, #245, #79 ) ) ;
#99 = FACE_OUTER_BOUND ( 'NONE', #29, .T. ) ;
#100 = ORIENTED_EDGE ( 'NONE', *, *, #477, .T. ) ;
#101 = CARTESIAN_POINT ( 'NONE',  ( 0.8550000000000000933, 0.7549999999999998934, -0.4549999999999997935 ) ) ;
#102 = VECTOR ( 'NONE', #269, 1000.000000000000000 ) ;
#103 = AXIS2_PLACEMENT_3D ( 'NONE', #722, #512, #613 ) ;
#104 = DIRECTION ( 'NONE',  ( 0.000000000000000000, 0.000000000000000000, 1.000000000000000000 ) ) ;
#105 = DIRECTION ( 'NONE',  ( 0.000000000000000000, 0.000000000000000000, 1.000000000000000000 ) ) ;
#106 = VECTOR ( 'NONE', #418, 1000.000000000000000 ) ;
#107 = VECTOR ( 'NONE', #1151, 1000.000000000000000 ) ;
#108 =( NAMED_UNIT ( * ) PLANE_ANGLE_UNIT ( ) SI_UNIT ( $, .RADIAN. ) );
#109 = DIRECTION ( 'NONE',  ( 2.409338161078897997E-15, -1.000000000000000000, 0.000000000000000000 ) ) ;
#110 = DIRECTION ( 'NONE',  ( 0.000000000000000000, -1.000000000000000000, 0.000000000000000000 ) ) ;
#111 = ADVANCED_FACE ( 'NONE', ( #1068 ), #898, .F. ) ;
#112 = SURFACE_SIDE_STYLE ('',( #270 ) ) ;
#113 = ADVANCED_FACE ( 'NONE', ( #15 ), #204, .F. ) ;
#114 = DIRECTION ( 'NONE',  ( 0.000000000000000000, 1.000000000000000000, 0.000000000000000000 ) ) ;
#115 = DIRECTION ( 'NONE',  ( 0.000000000000000000, 0.000000000000000000, 1.000000000000000000 ) ) ;
#116 = CARTESIAN_POINT ( 'NONE',  ( 0.8550000000000000933, 0.7999999999999999334, -0.4549999999999997935 ) ) ;
#117 = EDGE_LOOP ( 'NONE', ( #19, #334, #282 ) ) ;
#118 = CIRCLE ( 'NONE', #1221, 0.04500000000000001221 ) ;
#119 = LINE ( 'NONE', #211, #1241 ) ;
#120 = AXIS2_PLACEMENT_3D ( 'NONE', #1260, #486, #177 ) ;
#121 = VERTEX_POINT ( 'NONE', #7 ) ;
#122 = CARTESIAN_POINT ( 'NONE',  ( -0.5500000000000000444, 0.04500000000000001221, -0.4549999999999997935 ) ) ;
#123 = DIRECTION ( 'NONE',  ( 0.000000000000000000, 1.000000000000000000, 0.000000000000000000 ) ) ;
#124 = CARTESIAN_POINT ( 'NONE',  ( 0.8549999999999999822, 0.7549999999999998934, 0.4549999999999997935 ) ) ;
#125 = VERTEX_POINT ( 'NONE', #871 ) ;
#126 = ADVANCED_FACE ( 'NONE', ( #608 ), #471, .F. ) ;
#127 = EDGE_CURVE ( 'NONE', #1255, #366, #1132, .T. ) ;
#128 = DIRECTION ( 'NONE',  ( 0.000000000000000000, 0.000000000000000000, -1.000000000000000000 ) ) ;
#129 = CARTESIAN_POINT ( 'NONE',  ( 0.8550000000000000933, 0.04500000000000001221, -0.4549999999999997935 ) ) ;
#130 = ORIENTED_EDGE ( 'NONE', *, *, #477, .F. ) ;
#131 = VERTEX_POINT ( 'NONE', #209 ) ;
#132 = DIRECTION ( 'NONE',  ( -0.000000000000000000, 1.000000000000000000, -0.000000000000000000 ) ) ;
#133 = EDGE_LOOP ( 'NONE', ( #1152, #829, #979, #1173 ) ) ;
#134 = CARTESIAN_POINT ( 'NONE',  ( 0.5500000000893123797, 0.01499999999999999251, 0.4549999999999996825 ) ) ;
#135 = DIRECTION ( 'NONE',  ( 1.000000000000000000, -0.000000000000000000, 0.000000000000000000 ) ) ;
#136 = ORIENTED_EDGE ( 'NONE', *, *, #259, .T. ) ;
#137 = ORIENTED_EDGE ( 'NONE', *, *, #650, .T. ) ;
#138 = DIRECTION ( 'NONE',  ( 1.000000000000000000, 0.000000000000000000, 0.000000000000000000 ) ) ;
#139 = EDGE_CURVE ( 'NONE', #1256, #267, #391, .T. ) ;
#140 = CLOSED_SHELL ( 'NONE', ( #788, #126, #113, #679, #586, #802, #740, #1175, #1144, #1078, #1045, #629, #1199, #224, #574, #1014, #95, #176 ) ) ;
#141 = ORIENTED_EDGE ( 'NONE', *, *, #43, .F. ) ;
#142 = AXIS2_PLACEMENT_3D ( 'NONE', #32, #444, #249 ) ;
#143 = AXIS2_PLACEMENT_3D ( 'NONE', #1142, #549, #817 ) ;
#144 = DIRECTION ( 'NONE',  ( 1.000000000000000000, 0.000000000000000000, 0.000000000000000000 ) ) ;
#145 = DIRECTION ( 'NONE',  ( -1.000000000000000000, 0.000000000000000000, 0.000000000000000000 ) ) ;
#146 = ORIENTED_EDGE ( 'NONE', *, *, #818, .T. ) ;
#147 = SURFACE_STYLE_USAGE ( .BOTH. , #649 ) ;
#148 = ADVANCED_FACE ( 'NONE', ( #99 ), #503, .F. ) ;
#149 = EDGE_CURVE ( 'NONE', #277, #1232, #271, .T. ) ;
#150 = DIRECTION ( 'NONE',  ( -1.000000000000000000, -0.000000000000000000, -0.000000000000000000 ) ) ;
#151 = DIRECTION ( 'NONE',  ( -2.409338161078897997E-15, 0.000000000000000000, 1.000000000000000000 ) ) ;
#152 = CARTESIAN_POINT ( 'NONE',  ( -0.8549999999999999822, 0.000000000000000000, 0.4549999999999997935 ) ) ;
#153 = DIRECTION ( 'NONE',  ( -0.000000000000000000, 1.000000000000000000, -0.000000000000000000 ) ) ;
#154 = ORIENTED_EDGE ( 'NONE', *, *, #1111, .T. ) ;
#155 = EDGE_LOOP ( 'NONE', ( #21, #1122, #380, #1140 ) ) ;
#156 = CARTESIAN_POINT ( 'NONE',  ( 0.9000000000000000222, 0.04500000000000001221, 0.4549999999999997935 ) ) ;
#157 = MANIFOLD_SOLID_BREP ( 'Boss-Extrude2', #530 ) ;
#158 = CARTESIAN_POINT ( 'NONE',  ( -0.8550000000000000933, 0.04500000000000001221, -0.4999999999999997780 ) ) ;
#159 = DIRECTION ( 'NONE',  ( 1.000000000000000000, 0.000000000000000000, -0.000000000000000000 ) ) ;
#160 = EDGE_LOOP ( 'NONE', ( #938, #647, #524, #880, #1148, #252, #1247, #49 ) ) ;
#161 = EDGE_LOOP ( 'NONE', ( #1121, #754, #100, #533 ) ) ;
#162 = SURFACE_SIDE_STYLE ('',( #335 ) ) ;
#163 = CARTESIAN_POINT ( 'NONE',  ( 0.9000000000000000222, 0.04500000000000001221, 0.4549999999999997935 ) ) ;
#164 = ORIENTED_EDGE ( 'NONE', *, *, #557, .T. ) ;
#165 = COLOUR_RGB ( '',0.7921568627450980005, 0.8196078431372548767, 0.9333333333333333481 ) ;
#166 = AXIS2_PLACEMENT_3D ( 'NONE', #784, #94, #521 ) ;
#167 = CIRCLE ( 'NONE', #142, 0.04500000000000001221 ) ;
#168 = CIRCLE ( 'NONE', #91, 0.04500000000000001221 ) ;
#169 = CARTESIAN_POINT ( 'NONE',  ( -0.9000000000000000222, 0.04500000000000001221, 0.4999999999999997780 ) ) ;
#170 = CARTESIAN_POINT ( 'NONE',  ( 0.5499999999756255420, 0.7549999999999998934, 0.4849999999999997091 ) ) ;
#171 = ORIENTED_EDGE ( 'NONE', *, *, #963, .T. ) ;
#172 = ORIENTED_EDGE ( 'NONE', *, *, #1057, .F. ) ;
#173 =( LENGTH_UNIT ( ) NAMED_UNIT ( * ) SI_UNIT ( .MILLI., .METRE. ) );
#174 = CARTESIAN_POINT ( 'NONE',  ( 0.9000000000000000222, 0.7549999999999998934, 0.4549999999999997935 ) ) ;
#175 = CARTESIAN_POINT ( 'NONE',  ( 0.5500000000000001554, 0.7999999999999999334, -0.4999999999999997780 ) ) ;
#176 = ADVANCED_FACE ( 'NONE', ( #232 ), #1183, .T. ) ;
#177 = DIRECTION ( 'NONE',  ( 0.000000000000000000, 0.000000000000000000, 1.000000000000000000 ) ) ;
#178 = FACE_OUTER_BOUND ( 'NONE', #160, .T. ) ;
#179 = ORIENTED_EDGE ( 'NONE', *, *, #496, .F. ) ;
#180 = DIRECTION ( 'NONE',  ( -8.673617379884036705E-17, 0.000000000000000000, -1.000000000000000000 ) ) ;
#181 = CARTESIAN_POINT ( 'NONE',  ( -0.8550000000000000933, 0.7549999999999998934, 9.269928574751069074E-17 ) ) ;
#182 = LINE ( 'NONE', #1069, #671 ) ;
#183 = CARTESIAN_POINT ( 'NONE',  ( -0.9000000000000000222, 0.7549999999999998934, 0.4999999999999997780 ) ) ;
#184 = VERTEX_POINT ( 'NONE', #432 ) ;
#185 = DIRECTION ( 'NONE',  ( -1.000000000000000000, 0.000000000000000000, 1.084202172485505174E-16 ) ) ;
#186 = AXIS2_PLACEMENT_3D ( 'NONE', #901, #591, #302 ) ;
#187 = CARTESIAN_POINT ( 'NONE',  ( 500000.0000000000582, 0.04500000000000001221, -0.4850000000433679626 ) ) ;
#188 = VECTOR ( 'NONE', #484, 1000.000000000000000 ) ;
#189 = EDGE_CURVE ( 'NONE', #541, #520, #980, .T. ) ;
#190 = EDGE_CURVE ( 'NONE', #590, #236, #720, .T. ) ;
#191 = ORIENTED_EDGE ( 'NONE', *, *, #1075, .T. ) ;
#192 = DIRECTION ( 'NONE',  ( 0.000000000000000000, -1.000000000000000000, 0.000000000000000000 ) ) ;
#193 = ORIENTED_EDGE ( 'NONE', *, *, #1206, .T. ) ;
#194 = DIRECTION ( 'NONE',  ( 1.000000000000000000, -0.000000000000000000, 0.000000000000000000 ) ) ;
#195 = CARTESIAN_POINT ( 'NONE',  ( 0.8549999999999999822, 0.7549999999999998934, 0.4549999999999997935 ) ) ;
#196 = DIRECTION ( 'NONE',  ( 1.000000000000000000, 0.000000000000000000, 0.000000000000000000 ) ) ;
#197 = EDGE_LOOP ( 'NONE', ( #241, #1107, #228, #251 ) ) ;
#198 = DIRECTION ( 'NONE',  ( 1.000000000000000000, 0.000000000000000000, 0.000000000000000000 ) ) ;
#199 = EDGE_CURVE ( 'NONE', #967, #359, #427, .T. ) ;
#200 = FILL_AREA_STYLE_COLOUR ( '', #65 ) ;
#201 = CARTESIAN_POINT ( 'NONE',  ( -0.8549999999999999822, 0.04499999999999999833, 0.4549999999999997935 ) ) ;
#202 = SPHERICAL_SURFACE ( 'NONE', #44, 0.04499999999999999833 ) ;
#203 = AXIS2_PLACEMENT_3D ( 'NONE', #379, #684, #304 ) ;
#204 = PLANE ( 'NONE',  #1267 ) ;
#205 = VECTOR ( 'NONE', #1040, 1000.000000000000000 ) ;
#206 = CARTESIAN_POINT ( 'NONE',  ( 0.8550000000000000933, 0.04499999999999999833, -0.4549999999999997935 ) ) ;
#207 = EDGE_CURVE ( 'NONE', #233, #73, #924, .T. ) ;
#208 = DIRECTION ( 'NONE',  ( 0.000000000000000000, 1.000000000000000000, 0.000000000000000000 ) ) ;
#209 = CARTESIAN_POINT ( 'NONE',  ( -0.5499999999999999334, 0.04500000000000022732, 0.4999999999999997780 ) ) ;
#210 = UNCERTAINTY_MEASURE_WITH_UNIT (LENGTH_MEASURE( 1.000000000000000082E-05 ), #708, 'distance_accuracy_value', 'NONE');
#211 = CARTESIAN_POINT ( 'NONE',  ( 0.8550000000000000933, 0.7999999999999999334, -0.4999999999999997780 ) ) ;
#212 = DIRECTION ( 'NONE',  ( -1.000000000000000000, 0.000000000000000000, 0.000000000000000000 ) ) ;
#213 = CARTESIAN_POINT ( 'NONE',  ( -0.9000000000000000222, 0.04500000000000001221, 0.4549999999999997935 ) ) ;
#214 = ORIENTED_EDGE ( 'NONE', *, *, #397, .T. ) ;
#215 = CARTESIAN_POINT ( 'NONE',  ( -0.8550000000000000933, 0.04499999999999999833, -0.4549999999999997935 ) ) ;
#216 = FACE_OUTER_BOUND ( 'NONE', #278, .T. ) ;
#217 = CIRCLE ( 'NONE', #479, 0.04500000000000001221 ) ;
#218 = CARTESIAN_POINT ( 'NONE',  ( -0.5500000000000001554, 0.7549999999999998934, -0.4999999999999997780 ) ) ;
#219 = ORIENTED_EDGE ( 'NONE', *, *, #237, .F. ) ;
#220 = VECTOR ( 'NONE', #638, 1000.000000000000000 ) ;
#221 = ADVANCED_FACE ( 'NONE', ( #1217 ), #326, .T. ) ;
#222 = VECTOR ( 'NONE', #781, 1000.000000000000000 ) ;
#223 = VECTOR ( 'NONE', #759, 1000.000000000000000 ) ;
#224 = ADVANCED_FACE ( 'NONE', ( #736 ), #1022, .T. ) ;
#225 = CARTESIAN_POINT ( 'NONE',  ( 0.000000000000000000, 0.000000000000000000, -0.4549999999999997935 ) ) ;
#226 = DIRECTION ( 'NONE',  ( -2.168404344971009854E-16, -0.000000000000000000, -1.000000000000000000 ) ) ;
#227 = LINE ( 'NONE', #730, #66 ) ;
#228 = ORIENTED_EDGE ( 'NONE', *, *, #1033, .F. ) ;
#229 = CARTESIAN_POINT ( 'NONE',  ( 0.5500000000000001554, 0.7999999999999999334, -0.4549999999999997935 ) ) ;
#230 = DIRECTION ( 'NONE',  ( -1.000000000000000000, -0.000000000000000000, -0.000000000000000000 ) ) ;
#231 = CARTESIAN_POINT ( 'NONE',  ( 0.000000000000000000, 0.7549999999999998934, -0.4549999999999997935 ) ) ;
#232 = FACE_OUTER_BOUND ( 'NONE', #1228, .T. ) ;
#233 = VERTEX_POINT ( 'NONE', #407 ) ;
#234 = VERTEX_POINT ( 'NONE', #218 ) ;
#235 = FACE_OUTER_BOUND ( 'NONE', #117, .T. ) ;
#236 = VERTEX_POINT ( 'NONE', #828 ) ;
#237 = EDGE_CURVE ( 'NONE', #394, #690, #619, .T. ) ;
#238 = DIRECTION ( 'NONE',  ( 0.000000000000000000, 0.000000000000000000, 1.000000000000000000 ) ) ;
#239 = LINE ( 'NONE', #421, #220 ) ;
#240 = ORIENTED_EDGE ( 'NONE', *, *, #1012, .T. ) ;
#241 = ORIENTED_EDGE ( 'NONE', *, *, #413, .F. ) ;
#242 = VECTOR ( 'NONE', #538, 1000.000000000000000 ) ;
#243 = AXIS2_PLACEMENT_3D ( 'NONE', #1073, #565, #159 ) ;
#244 = COLOUR_RGB ( '',0.7921568627450980005, 0.8196078431372548767, 0.9333333333333333481 ) ;
#245 = ORIENTED_EDGE ( 'NONE', *, *, #902, .F. ) ;
#246 = AXIS2_PLACEMENT_3D ( 'NONE', #384, #592, #598 ) ;
#247 = VECTOR ( 'NONE', #571, 1000.000000000000000 ) ;
#248 = ADVANCED_FACE ( 'NONE', ( #519 ), #33, .T. ) ;
#249 = DIRECTION ( 'NONE',  ( 0.000000000000000000, 0.000000000000000000, 1.000000000000000000 ) ) ;
#250 = CARTESIAN_POINT ( 'NONE',  ( -0.5500000000000000444, 0.01499999999999999944, -0.4549999999999997935 ) ) ;
#251 = ORIENTED_EDGE ( 'NONE', *, *, #1206, .F. ) ;
#252 = ORIENTED_EDGE ( 'NONE', *, *, #853, .T. ) ;
#253 =( LENGTH_UNIT ( ) NAMED_UNIT ( * ) SI_UNIT ( .MILLI., .METRE. ) );
#254 = DIRECTION ( 'NONE',  ( 1.000000000000000000, 0.000000000000000000, 2.168404344971010101E-16 ) ) ;
#255 = ORIENTED_EDGE ( 'NONE', *, *, #651, .T. ) ;
#256 = DIRECTION ( 'NONE',  ( 1.000000000000000000, -0.000000000000000000, -0.000000000000000000 ) ) ;
#257 = DIRECTION ( 'NONE',  ( 0.000000000000000000, -1.000000000000000000, 0.000000000000000000 ) ) ;
#258 = ORIENTED_EDGE ( 'NONE', *, *, #496, .T. ) ;
#259 = EDGE_CURVE ( 'NONE', #933, #60, #1163, .T. ) ;
#260 = VERTEX_POINT ( 'NONE', #319 ) ;
#261 = DIRECTION ( 'NONE',  ( 0.000000000000000000, -0.000000000000000000, 1.000000000000000000 ) ) ;
#262 = CARTESIAN_POINT ( 'NONE',  ( 500000.0000000000582, 0.04500000000000022732, 0.4849999999566316777 ) ) ;
#263 = SPHERICAL_SURFACE ( 'NONE', #1180, 0.04499999999999999833 ) ;
#264 = LINE ( 'NONE', #564, #222 ) ;
#265 = DIRECTION ( 'NONE',  ( -0.000000000000000000, -1.000000000000000000, -0.000000000000000000 ) ) ;
#266 = ORIENTED_EDGE ( 'NONE', *, *, #27, .F. ) ;
#267 = VERTEX_POINT ( 'NONE', #920 ) ;
#268 = EDGE_CURVE ( 'NONE', #60, #260, #239, .T. ) ;
#269 = DIRECTION ( 'NONE',  ( 1.000000000000000000, -0.000000000000000000, -0.000000000000000000 ) ) ;
#270 = SURFACE_STYLE_FILL_AREA ( #368 ) ;
#271 = CIRCLE ( 'NONE', #615, 0.04500000000000001221 ) ;
#272 =( GEOMETRIC_REPRESENTATION_CONTEXT ( 3 ) GLOBAL_UNCERTAINTY_ASSIGNED_CONTEXT ( ( #476 ) ) GLOBAL_UNIT_ASSIGNED_CONTEXT ( ( #393, #1169, #780 ) ) REPRESENTATION_CONTEXT ( 'NONE', 'WORKASPACE' ) );
#273 = AXIS2_PLACEMENT_3D ( 'NONE', #339, #1261, #1137 ) ;
#274 = VECTOR ( 'NONE', #879, 1000.000000000000000 ) ;
#275 = FACE_OUTER_BOUND ( 'NONE', #354, .T. ) ;
#276 = FACE_OUTER_BOUND ( 'NONE', #532, .T. ) ;
#277 = VERTEX_POINT ( 'NONE', #1036 ) ;
#278 = EDGE_LOOP ( 'NONE', ( #896, #214, #255, #1087 ) ) ;
#279 = EDGE_CURVE ( 'NONE', #1195, #1181, #369, .T. ) ;
#280 = CARTESIAN_POINT ( 'NONE',  ( -0.8550000000000000933, 0.04500000000000001221, -0.4549999999999997935 ) ) ;
#281 = LINE ( 'NONE', #59, #41 ) ;
#282 = ORIENTED_EDGE ( 'NONE', *, *, #552, .F. ) ;
#283 = DIRECTION ( 'NONE',  ( 0.000000000000000000, 0.000000000000000000, 1.000000000000000000 ) ) ;
#284 = CARTESIAN_POINT ( 'NONE',  ( 0.9000000000000001332, 0.7999999999999999334, -0.4549999999999997935 ) ) ;
#285 = EDGE_CURVE ( 'NONE', #933, #277, #814, .T. ) ;
#286 = AXIS2_PLACEMENT_3D ( 'NONE', #1258, #363, #1118 ) ;
#287 = CIRCLE ( 'NONE', #1013, 0.04500000000000001221 ) ;
#288 = CARTESIAN_POINT ( 'NONE',  ( 500000.0000000000582, 0.04500000000000001221, -0.4550000000433679359 ) ) ;
#289 = MECHANICAL_DESIGN_GEOMETRIC_PRESENTATION_REPRESENTATION (  '', ( #852 ), #1034 ) ;
#290 = ORIENTED_EDGE ( 'NONE', *, *, #610, .T. ) ;
#291 = AXIS2_PLACEMENT_3D ( 'NONE', #699, #601, #109 ) ;
#292 = CARTESIAN_POINT ( 'NONE',  ( 0.8550000000000000933, 0.7999999999999999334, 0.4549999999999997935 ) ) ;
#293 = DIRECTION ( 'NONE',  ( 0.000000000000000000, 0.000000000000000000, 1.000000000000000000 ) ) ;
#294 = EDGE_CURVE ( 'NONE', #34, #973, #227, .T. ) ;
#295 = ORIENTED_EDGE ( 'NONE', *, *, #1259, .T. ) ;
#296 = DIRECTION ( 'NONE',  ( 0.000000000000000000, 1.000000000000000000, -0.000000000000000000 ) ) ;
#297 = VERTEX_POINT ( 'NONE', #540 ) ;
#298 = CARTESIAN_POINT ( 'NONE',  ( 0.5500000000893123797, 0.7549999999999998934, 0.4849999999999996536 ) ) ;
#299 = CARTESIAN_POINT ( 'NONE',  ( -0.5500000000000000444, 0.7849999999999999201, -0.4549999999999997935 ) ) ;
#300 = EDGE_LOOP ( 'NONE', ( #490, #78, #39, #416 ) ) ;
#301 = FACE_OUTER_BOUND ( 'NONE', #446, .T. ) ;
#302 = DIRECTION ( 'NONE',  ( 1.000000000000000000, 0.000000000000000000, -8.673617379884035472E-17 ) ) ;
#303 = EDGE_CURVE ( 'NONE', #93, #389, #954, .T. ) ;
#304 = DIRECTION ( 'NONE',  ( -1.084202172485505050E-16, 0.000000000000000000, -1.000000000000000000 ) ) ;
#305 = DIRECTION ( 'NONE',  ( -0.000000000000000000, -0.000000000000000000, -1.000000000000000000 ) ) ;
#306 = AXIS2_PLACEMENT_3D ( 'NONE', #215, #536, #138 ) ;
#307 = VECTOR ( 'NONE', #756, 1000.000000000000000 ) ;
#308 = FACE_OUTER_BOUND ( 'NONE', #1156, .T. ) ;
#309 = CARTESIAN_POINT ( 'NONE',  ( 0.8549999999999999822, 0.7549999999999998934, 0.4549999999999997935 ) ) ;
#310 = PLANE ( 'NONE',  #1167 ) ;
#311 = LINE ( 'NONE', #225, #102 ) ;
#312 =( NAMED_UNIT ( * ) SI_UNIT ( $, .STERADIAN. ) SOLID_ANGLE_UNIT ( ) );
#313 = ORIENTED_EDGE ( 'NONE', *, *, #1227, .F. ) ;
#314 = EDGE_CURVE ( 'NONE', #350, #626, #365, .T. ) ;
#315 = EDGE_CURVE ( 'NONE', #821, #236, #1146, .T. ) ;
#316 = ORIENTED_EDGE ( 'NONE', *, *, #149, .F. ) ;
#317 = CARTESIAN_POINT ( 'NONE',  ( -0.8550000000000000933, 0.7999999999999999334, 0.4549999999999997935 ) ) ;
#318 = DIRECTION ( 'NONE',  ( -1.000000000000000000, -0.000000000000000000, -0.000000000000000000 ) ) ;
#319 = CARTESIAN_POINT ( 'NONE',  ( 0.5499999999999999334, 0.7999999999999999334, 0.4549999999999997935 ) ) ;
#320 = ORIENTED_EDGE ( 'NONE', *, *, #1103, .F. ) ;
#321 = AXIS2_PLACEMENT_3D ( 'NONE', #213, #135, #715 ) ;
#322 = LINE ( 'NONE', #733, #510 ) ;
#323 = AXIS2_PLACEMENT_3D ( 'NONE', #704, #1098, #991 ) ;
#324 = ORIENTED_EDGE ( 'NONE', *, *, #1096, .F. ) ;
#325 = CARTESIAN_POINT ( 'NONE',  ( -0.5500000000000001554, 0.000000000000000000, -0.4999999999999997780 ) ) ;
#326 = CYLINDRICAL_SURFACE ( 'NONE', #321, 0.04500000000000001221 ) ;
#327 = ORIENTED_EDGE ( 'NONE', *, *, #1244, .F. ) ;
#328 = ORIENTED_EDGE ( 'NONE', *, *, #1150, .T. ) ;
#329 = DIRECTION ( 'NONE',  ( 0.000000000000000000, -1.000000000000000000, 0.000000000000000000 ) ) ;
#330 = ADVANCED_FACE ( 'NONE', ( #276 ), #1172, .F. ) ;
#331 = DIRECTION ( 'NONE',  ( 0.000000000000000000, -1.000000000000000000, 0.000000000000000000 ) ) ;
#332 = CARTESIAN_POINT ( 'NONE',  ( 0.8550000000000000933, 0.7549999999999998934, -0.4549999999999997935 ) ) ;
#333 = ORIENTED_EDGE ( 'NONE', *, *, #891, .T. ) ;
#334 = ORIENTED_EDGE ( 'NONE', *, *, #1005, .T. ) ;
#335 = SURFACE_STYLE_FILL_AREA ( #959 ) ;
#336 = DIRECTION ( 'NONE',  ( -1.000000000000000000, 0.000000000000000000, -2.409338161078898392E-15 ) ) ;
#337 = ADVANCED_FACE ( 'NONE', ( #178 ), #70, .F. ) ;
#338 = CYLINDRICAL_SURFACE ( 'NONE', #344, 0.04500000000000001221 ) ;
#339 = CARTESIAN_POINT ( 'NONE',  ( 500000.0000000000582, 0.7549999999999998934, 0.4849999999566316777 ) ) ;
#340 = VERTEX_POINT ( 'NONE', #760 ) ;
#341 = VERTEX_POINT ( 'NONE', #767 ) ;
#342 = SURFACE_STYLE_USAGE ( .BOTH. , #162 ) ;
#343 = AXIS2_PLACEMENT_3D ( 'NONE', #206, #402, #1203 ) ;
#344 = AXIS2_PLACEMENT_3D ( 'NONE', #848, #1042, #238 ) ;
#345 = DIRECTION ( 'NONE',  ( -0.000000000000000000, 1.000000000000000000, 0.000000000000000000 ) ) ;
#346 = EDGE_LOOP ( 'NONE', ( #409, #850, #1226, #47 ) ) ;
#347 = CIRCLE ( 'NONE', #513, 0.04500000000000001221 ) ;
#348 = PLANE ( 'NONE',  #511 ) ;
#349 = DIRECTION ( 'NONE',  ( -1.000000000000000000, 0.000000000000000000, 2.168404344971010101E-16 ) ) ;
#350 = VERTEX_POINT ( 'NONE', #546 ) ;
#351 = ORIENTED_EDGE ( 'NONE', *, *, #435, .T. ) ;
#352 = CARTESIAN_POINT ( 'NONE',  ( -0.8550000000000000933, 0.7999999999999999334, -0.4549999999999997935 ) ) ;
#353 = CYLINDRICAL_SURFACE ( 'NONE', #143, 0.04500000000000001221 ) ;
#354 = EDGE_LOOP ( 'NONE', ( #798, #1046, #762, #179 ) ) ;
#355 = DIRECTION ( 'NONE',  ( 0.000000000000000000, 0.000000000000000000, -1.000000000000000000 ) ) ;
#356 = CARTESIAN_POINT ( 'NONE',  ( -0.8549999999999999822, 0.04500000000000001221, 0.4549999999999997935 ) ) ;
#357 = EDGE_LOOP ( 'NONE', ( #1023, #664, #1177, #4 ) ) ;
#358 = EDGE_CURVE ( 'NONE', #340, #1143, #681, .T. ) ;
#359 = VERTEX_POINT ( 'NONE', #1270 ) ;
#360 = FACE_OUTER_BOUND ( 'NONE', #491, .T. ) ;
#361 = EDGE_CURVE ( 'NONE', #467, #234, #1246, .T. ) ;
#362 = DIRECTION ( 'NONE',  ( 0.000000000000000000, -1.000000000000000000, 0.000000000000000000 ) ) ;
#363 = DIRECTION ( 'NONE',  ( 1.000000000000000000, 0.000000000000000000, 2.168404344971010101E-16 ) ) ;
#364 = DIRECTION ( 'NONE',  ( 0.000000000000000000, -1.000000000000000000, -0.000000000000000000 ) ) ;
#365 = LINE ( 'NONE', #183, #1133 ) ;
#366 = VERTEX_POINT ( 'NONE', #777 ) ;
#367 = ORIENTED_EDGE ( 'NONE', *, *, #594, .F. ) ;
#368 = FILL_AREA_STYLE ('',( #200 ) ) ;
#369 = CIRCLE ( 'NONE', #1182, 0.04500000000000001221 ) ;
#370 = CIRCLE ( 'NONE', #388, 0.02999999999999997113 ) ;
#371 = ADVANCED_FACE ( 'NONE', ( #1235 ), #459, .F. ) ;
#372 = CIRCLE ( 'NONE', #1204, 0.03000000000000002318 ) ;
#373 = CARTESIAN_POINT ( 'NONE',  ( 0.8549999999999999822, 0.7549999999999998934, 0.4999999999999997780 ) ) ;
#374 = DIRECTION ( 'NONE',  ( 1.000000000000000000, 0.000000000000000000, 2.168404344971010101E-16 ) ) ;
#375 = CARTESIAN_POINT ( 'NONE',  ( 0.5499999999756255420, 0.04500000000000001221, 0.4549999999999996825 ) ) ;
#376 = EDGE_CURVE ( 'NONE', #93, #71, #439, .T. ) ;
#377 = EDGE_CURVE ( 'NONE', #121, #926, #998, .T. ) ;
#378 = DIRECTION ( 'NONE',  ( 0.000000000000000000, 0.000000000000000000, -1.000000000000000000 ) ) ;
#379 = CARTESIAN_POINT ( 'NONE',  ( -0.9000000000000001332, 0.7999999999999999334, -0.4999999999999997780 ) ) ;
#380 = ORIENTED_EDGE ( 'NONE', *, *, #552, .T. ) ;
#381 = CARTESIAN_POINT ( 'NONE',  ( -0.8550000000000000933, 0.7549999999999998934, -0.4999999999999997780 ) ) ;
#382 = FACE_OUTER_BOUND ( 'NONE', #656, .T. ) ;
#383 = ORIENTED_EDGE ( 'NONE', *, *, #942, .T. ) ;
#384 = CARTESIAN_POINT ( 'NONE',  ( -0.8550000000000000933, 0.04500000000000001221, -0.4999999999999997780 ) ) ;
#385 = PRESENTATION_LAYER_ASSIGNMENT (  '', '', ( #952 ) ) ;
#386 = EDGE_LOOP ( 'NONE', ( #1037, #290, #191, #1062 ) ) ;
#387 = DIRECTION ( 'NONE',  ( -0.000000000000000000, -0.000000000000000000, 1.000000000000000000 ) ) ;
#388 = AXIS2_PLACEMENT_3D ( 'NONE', #438, #545, #431 ) ;
#389 = VERTEX_POINT ( 'NONE', #646 ) ;
#390 = AXIS2_PLACEMENT_3D ( 'NONE', #288, #813, #903 ) ;
#391 = LINE ( 'NONE', #20, #665 ) ;
#392 = CARTESIAN_POINT ( 'NONE',  ( -0.5500000000000000444, 0.7849999999999999201, -0.4549999999999997935 ) ) ;
#393 =( LENGTH_UNIT ( ) NAMED_UNIT ( * ) SI_UNIT ( .MILLI., .METRE. ) );
#394 = VERTEX_POINT ( 'NONE', #849 ) ;
#395 = SPHERICAL_SURFACE ( 'NONE', #854, 0.04499999999999999833 ) ;
#396 = CARTESIAN_POINT ( 'NONE',  ( 0.5499999999999999334, 0.04500000000000001221, 0.4549999999999997935 ) ) ;
#397 = EDGE_CURVE ( 'NONE', #1232, #1155, #859, .T. ) ;
#398 = LINE ( 'NONE', #801, #106 ) ;
#399 = DIRECTION ( 'NONE',  ( 2.168404344971009854E-16, -0.000000000000000000, -1.000000000000000000 ) ) ;
#400 = CARTESIAN_POINT ( 'NONE',  ( 0.8549999999999999822, 0.04500000000000001221, 0.4549999999999997935 ) ) ;
#401 = ORIENTED_EDGE ( 'NONE', *, *, #838, .F. ) ;
#402 = DIRECTION ( 'NONE',  ( -0.000000000000000000, 0.000000000000000000, 1.000000000000000000 ) ) ;
#403 = LINE ( 'NONE', #923, #894 ) ;
#404 = CARTESIAN_POINT ( 'NONE',  ( 0.8550000000000000933, 0.7549999999999998934, -0.4549999999999997935 ) ) ;
#405 = VECTOR ( 'NONE', #1101, 1000.000000000000000 ) ;
#406 = AXIS2_PLACEMENT_3D ( 'NONE', #981, #789, #682 ) ;
#407 = CARTESIAN_POINT ( 'NONE',  ( -0.9000000000000000222, 0.7549999999999998934, 0.4549999999999997935 ) ) ;
#408 = CIRCLE ( 'NONE', #895, 0.04500000000000001221 ) ;
#409 = ORIENTED_EDGE ( 'NONE', *, *, #918, .F. ) ;
#410 = VECTOR ( 'NONE', #465, 1000.000000000000000 ) ;
#411 = LINE ( 'NONE', #922, #617 ) ;
#412 = CARTESIAN_POINT ( 'NONE',  ( 0.8550000000000000933, 0.7549999999999998934, 0.4549999999999997935 ) ) ;
#413 = EDGE_CURVE ( 'NONE', #757, #53, #686, .T. ) ;
#414 = EDGE_CURVE ( 'NONE', #234, #34, #281, .T. ) ;
#415 = DIRECTION ( 'NONE',  ( 0.000000000000000000, 0.000000000000000000, -1.000000000000000000 ) ) ;
#416 = ORIENTED_EDGE ( 'NONE', *, *, #487, .F. ) ;
#417 = DIRECTION ( 'NONE',  ( 0.000000000000000000, 0.000000000000000000, 1.000000000000000000 ) ) ;
#418 = DIRECTION ( 'NONE',  ( 0.000000000000000000, -1.000000000000000000, 0.000000000000000000 ) ) ;
#419 = FACE_OUTER_BOUND ( 'NONE', #556, .T. ) ;
#420 = CARTESIAN_POINT ( 'NONE',  ( -0.5500000000000000444, 0.04500000000000001915, -0.4849999999999998201 ) ) ;
#421 = CARTESIAN_POINT ( 'NONE',  ( 0.5499999999999999334, 0.7999999999999999334, 0.4549999999999997935 ) ) ;
#422 = EDGE_LOOP ( 'NONE', ( #1280, #914, #136, #956 ) ) ;
#423 = DIRECTION ( 'NONE',  ( 0.000000000000000000, 1.000000000000000000, 0.000000000000000000 ) ) ;
#424 = DIRECTION ( 'NONE',  ( 0.000000000000000000, 0.000000000000000000, -1.000000000000000000 ) ) ;
#425 = ORIENTED_EDGE ( 'NONE', *, *, #376, .F. ) ;
#426 = VERTEX_POINT ( 'NONE', #250 ) ;
#427 = CIRCLE ( 'NONE', #893, 0.04500000000000001221 ) ;
#428 = AXIS2_PLACEMENT_3D ( 'NONE', #1216, #123, #517 ) ;
#429 = CARTESIAN_POINT ( 'NONE',  ( -0.8550000000000000933, 0.7549999999999998934, -0.4549999999999997935 ) ) ;
#430 = AXIS2_PLACEMENT_3D ( 'NONE', #231, #76, #378 ) ;
#431 = DIRECTION ( 'NONE',  ( 0.000000000000000000, 0.000000000000000000, -1.000000000000000000 ) ) ;
#432 = CARTESIAN_POINT ( 'NONE',  ( -0.5500000000000001554, 0.000000000000000000, -0.4549999999999997935 ) ) ;
#433 = ORIENTED_EDGE ( 'NONE', *, *, #139, .T. ) ;
#434 = EDGE_LOOP ( 'NONE', ( #351, #295, #401, #567 ) ) ;
#435 = EDGE_CURVE ( 'NONE', #851, #1116, #1164, .T. ) ;
#436 = DIRECTION ( 'NONE',  ( -0.000000000000000000, 1.000000000000000000, -0.000000000000000000 ) ) ;
#437 = CARTESIAN_POINT ( 'NONE',  ( -0.5500000000000001554, 0.04500000000000022732, -0.4999999999999997780 ) ) ;
#438 = CARTESIAN_POINT ( 'NONE',  ( -0.5500000000000000444, 0.7549999999999998934, 0.4549999999999997935 ) ) ;
#439 = LINE ( 'NONE', #1254, #582 ) ;
#440 = ORIENTED_EDGE ( 'NONE', *, *, #693, .T. ) ;
#441 = ORIENTED_EDGE ( 'NONE', *, *, #937, .F. ) ;
#442 = CYLINDRICAL_SURFACE ( 'NONE', #1097, 0.04500000000000001221 ) ;
#443 = ORIENTED_EDGE ( 'NONE', *, *, #199, .F. ) ;
#444 = DIRECTION ( 'NONE',  ( 1.000000000000000000, -0.000000000000000000, -2.168404344971010101E-16 ) ) ;
#445 = DIRECTION ( 'NONE',  ( -1.000000000000000000, -0.000000000000000000, 8.673617379884037937E-17 ) ) ;
#446 = EDGE_LOOP ( 'NONE', ( #440, #941, #1085 ) ) ;
#447 = ORIENTED_EDGE ( 'NONE', *, *, #27, .T. ) ;
#448 = AXIS2_PLACEMENT_3D ( 'NONE', #12, #604, #1266 ) ;
#449 = AXIS2_PLACEMENT_3D ( 'NONE', #614, #423, #823 ) ;
#450 = EDGE_CURVE ( 'NONE', #366, #694, #466, .T. ) ;
#451 = AXIS2_PLACEMENT_3D ( 'NONE', #624, #1021, #128 ) ;
#452 = LINE ( 'NONE', #1251, #1272 ) ;
#453 = DIRECTION ( 'NONE',  ( 1.000000000000000000, -0.000000000000000000, -2.168404344971010101E-16 ) ) ;
#454 = VECTOR ( 'NONE', #858, 1000.000000000000000 ) ;
#455 = EDGE_CURVE ( 'NONE', #461, #743, #866, .T. ) ;
#456 = VECTOR ( 'NONE', #150, 1000.000000000000000 ) ;
#457 = ADVANCED_FACE ( 'NONE', ( #83 ), #473, .F. ) ;
#458 = DIRECTION ( 'NONE',  ( -1.000000000000000000, 0.000000000000000000, 0.000000000000000000 ) ) ;
#459 = PLANE ( 'NONE',  #273 ) ;
#460 = ORIENTED_EDGE ( 'NONE', *, *, #1191, .T. ) ;
#461 = VERTEX_POINT ( 'NONE', #702 ) ;
#462 =( NAMED_UNIT ( * ) PLANE_ANGLE_UNIT ( ) SI_UNIT ( $, .RADIAN. ) );
#463 = LINE ( 'NONE', #714, #456 ) ;
#464 = EDGE_LOOP ( 'NONE', ( #940, #990, #324, #674 ) ) ;
#465 = DIRECTION ( 'NONE',  ( -1.000000000000000000, 0.000000000000000000, 0.000000000000000000 ) ) ;
#466 = LINE ( 'NONE', #1070, #772 ) ;
#467 = VERTEX_POINT ( 'NONE', #381 ) ;
#468 = ORIENTED_EDGE ( 'NONE', *, *, #1074, .T. ) ;
#469 = CARTESIAN_POINT ( 'NONE',  ( 0.000000000000000000, 0.7549999999999998934, -0.4549999999999997935 ) ) ;
#470 = CARTESIAN_POINT ( 'NONE',  ( -0.9000000000000001332, 0.04500000000000001221, -0.4549999999999997935 ) ) ;
#471 = PLANE ( 'NONE',  #448 ) ;
#472 = CARTESIAN_POINT ( 'NONE',  ( -0.9000000000000001332, 0.7999999999999999334, -0.4549999999999997935 ) ) ;
#473 = PLANE ( 'NONE',  #203 ) ;
#474 = ORIENTED_EDGE ( 'NONE', *, *, #976, .F. ) ;
#475 = FACE_OUTER_BOUND ( 'NONE', #1165, .T. ) ;
#476 = UNCERTAINTY_MEASURE_WITH_UNIT (LENGTH_MEASURE( 1.000000000000000082E-05 ), #393, 'distance_accuracy_value', 'NONE');
#477 = EDGE_CURVE ( 'NONE', #1147, #1181, #876, .T. ) ;
#478 = PRODUCT_CONTEXT ( 'NONE', #1219, 'mechanical' ) ;
#479 = AXIS2_PLACEMENT_3D ( 'NONE', #857, #453, #634 ) ;
#480 = VECTOR ( 'NONE', #673, 1000.000000000000000 ) ;
#481 = VECTOR ( 'NONE', #845, 1000.000000000000000 ) ;
#482 = LINE ( 'NONE', #284, #454 ) ;
#483 = ORIENTED_EDGE ( 'NONE', *, *, #916, .T. ) ;
#484 = DIRECTION ( 'NONE',  ( 0.000000000000000000, 0.000000000000000000, 1.000000000000000000 ) ) ;
#485 = EDGE_CURVE ( 'NONE', #260, #588, #1079, .T. ) ;
#486 = DIRECTION ( 'NONE',  ( -1.000000000000000000, -0.000000000000000000, 8.673617379884037937E-17 ) ) ;
#487 = EDGE_CURVE ( 'NONE', #1028, #851, #322, .T. ) ;
#488 = ORIENTED_EDGE ( 'NONE', *, *, #963, .F. ) ;
#489 = SHAPE_DEFINITION_REPRESENTATION ( #86, #1225 ) ;
#490 = ORIENTED_EDGE ( 'NONE', *, *, #5, .F. ) ;
#491 = EDGE_LOOP ( 'NONE', ( #860, #483, #64, #621 ) ) ;
#492 = FACE_OUTER_BOUND ( 'NONE', #1044, .T. ) ;
#493 = AXIS2_PLACEMENT_3D ( 'NONE', #570, #110, #691 ) ;
#494 = ORIENTED_EDGE ( 'NONE', *, *, #199, .T. ) ;
#495 = AXIS2_PLACEMENT_3D ( 'NONE', #913, #1018, #1106 ) ;
#496 = EDGE_CURVE ( 'NONE', #793, #426, #906, .T. ) ;
#497 = FACE_OUTER_BOUND ( 'NONE', #951, .T. ) ;
#498 = CIRCLE ( 'NONE', #930, 0.04500000000000001221 ) ;
#499 = AXIS2_PLACEMENT_3D ( 'NONE', #156, #1112, #63 ) ;
#500 = CARTESIAN_POINT ( 'NONE',  ( -0.9000000000000001332, 0.7549999999999998934, -0.4549999999999997935 ) ) ;
#501 = PLANE ( 'NONE',  #826 ) ;
#502 = CYLINDRICAL_SURFACE ( 'NONE', #390, 0.03000000000000002318 ) ;
#503 = PLANE ( 'NONE',  #186 ) ;
#504 = FACE_OUTER_BOUND ( 'NONE', #631, .T. ) ;
#505 = CYLINDRICAL_SURFACE ( 'NONE', #790, 0.03000000000000002318 ) ;
#506 = UNCERTAINTY_MEASURE_WITH_UNIT (LENGTH_MEASURE( 1.000000000000000082E-05 ), #253, 'distance_accuracy_value', 'NONE');
#507 = PLANE ( 'NONE',  #774 ) ;
#508 = ADVANCED_FACE ( 'NONE', ( #235 ), #709, .T. ) ;
#509 = LINE ( 'NONE', #14, #620 ) ;
#510 = VECTOR ( 'NONE', #30, 1000.000000000000000 ) ;
#511 = AXIS2_PLACEMENT_3D ( 'NONE', #1145, #1017, #721 ) ;
#512 = DIRECTION ( 'NONE',  ( -1.000000000000000000, -0.000000000000000000, 8.673617379884037937E-17 ) ) ;
#513 = AXIS2_PLACEMENT_3D ( 'NONE', #689, #1084, #212 ) ;
#514 = VERTEX_POINT ( 'NONE', #915 ) ;
#515 = DIRECTION ( 'NONE',  ( 0.000000000000000000, 0.000000000000000000, -1.000000000000000000 ) ) ;
#516 = LINE ( 'NONE', #561, #307 ) ;
#517 = DIRECTION ( 'NONE',  ( 0.000000000000000000, 0.000000000000000000, 1.000000000000000000 ) ) ;
#518 = EDGE_CURVE ( 'NONE', #1195, #359, #119, .T. ) ;
#519 = FACE_OUTER_BOUND ( 'NONE', #573, .T. ) ;
#520 = VERTEX_POINT ( 'NONE', #229 ) ;
#521 = DIRECTION ( 'NONE',  ( 0.000000000000000000, 0.000000000000000000, 1.000000000000000000 ) ) ;
#522 = DIRECTION ( 'NONE',  ( 1.000000000000000000, -0.000000000000000000, -2.168404344971010101E-16 ) ) ;
#523 = DIRECTION ( 'NONE',  ( -1.000000000000000000, 2.409338161078898392E-15, -0.000000000000000000 ) ) ;
#524 = ORIENTED_EDGE ( 'NONE', *, *, #414, .F. ) ;
#525 = ORIENTED_EDGE ( 'NONE', *, *, #189, .F. ) ;
#526 = SPHERICAL_SURFACE ( 'NONE', #1109, 0.04499999999999999833 ) ;
#527 = EDGE_LOOP ( 'NONE', ( #955, #1138, #778, #433 ) ) ;
#528 = EDGE_CURVE ( 'NONE', #461, #93, #1269, .T. ) ;
#529 = CARTESIAN_POINT ( 'NONE',  ( -0.5499999999999999334, 0.7549999999999998934, 0.4549999999999997935 ) ) ;
#530 = CLOSED_SHELL ( 'NONE', ( #1125, #593, #148, #1054, #988, #57, #371, #983, #111, #248 ) ) ;
#531 = CARTESIAN_POINT ( 'NONE',  ( 0.8550000000000000933, 0.04500000000000001221, -0.4999999999999997780 ) ) ;
#532 = EDGE_LOOP ( 'NONE', ( #769, #1131, #164, #1262 ) ) ;
#533 = ORIENTED_EDGE ( 'NONE', *, *, #1227, .T. ) ;
#534 =( GEOMETRIC_REPRESENTATION_CONTEXT ( 3 ) GLOBAL_UNCERTAINTY_ASSIGNED_CONTEXT ( ( #210 ) ) GLOBAL_UNIT_ASSIGNED_CONTEXT ( ( #708, #38, #312 ) ) REPRESENTATION_CONTEXT ( 'NONE', 'WORKASPACE' ) );
#535 = MECHANICAL_DESIGN_GEOMETRIC_PRESENTATION_REPRESENTATION (  '', ( #618 ), #957 ) ;
#536 = DIRECTION ( 'NONE',  ( 0.000000000000000000, 1.000000000000000000, 0.000000000000000000 ) ) ;
#537 = CIRCLE ( 'NONE', #603, 0.04500000000000001221 ) ;
#538 = DIRECTION ( 'NONE',  ( 1.084202172485505050E-16, -0.000000000000000000, 1.000000000000000000 ) ) ;
#539 = LINE ( 'NONE', #325, #1095 ) ;
#540 = CARTESIAN_POINT ( 'NONE',  ( -0.5500000000000000444, 0.04500000000000001221, -0.4849999999999998201 ) ) ;
#541 = VERTEX_POINT ( 'NONE', #727 ) ;
#542 = ORIENTED_EDGE ( 'NONE', *, *, #725, .T. ) ;
#543 = DIRECTION ( 'NONE',  ( 0.000000000000000000, -1.000000000000000000, 0.000000000000000000 ) ) ;
#544 = LINE ( 'NONE', #944, #978 ) ;
#545 = DIRECTION ( 'NONE',  ( 1.000000000000000000, 0.000000000000000000, -8.673617379884036705E-17 ) ) ;
#546 = CARTESIAN_POINT ( 'NONE',  ( -0.5499999999999999334, 0.7549999999999998934, 0.4999999999999997780 ) ) ;
#547 = ORIENTED_EDGE ( 'NONE', *, *, #485, .F. ) ;
#548 = EDGE_LOOP ( 'NONE', ( #367, #628, #927, #843 ) ) ;
#549 = DIRECTION ( 'NONE',  ( 1.084202172485505050E-16, 0.000000000000000000, -1.000000000000000000 ) ) ;
#550 = EDGE_LOOP ( 'NONE', ( #861, #1039, #130 ) ) ;
#551 = EDGE_CURVE ( 'NONE', #125, #359, #287, .T. ) ;
#552 = EDGE_CURVE ( 'NONE', #973, #1218, #1094, .T. ) ;
#553 = DIRECTION ( 'NONE',  ( 1.000000000000000000, 0.000000000000000000, -8.673617379884036705E-17 ) ) ;
#554 = CARTESIAN_POINT ( 'NONE',  ( 0.9000000000000000222, 0.7999999999999999334, 0.4549999999999997935 ) ) ;
#555 = ORIENTED_EDGE ( 'NONE', *, *, #1050, .F. ) ;
#556 = EDGE_LOOP ( 'NONE', ( #1187, #578, #468, #333 ) ) ;
#557 = EDGE_CURVE ( 'NONE', #973, #467, #411, .T. ) ;
#558 = DIRECTION ( 'NONE',  ( 1.000000000000000000, 0.000000000000000000, 0.000000000000000000 ) ) ;
#559 = AXIS2_PLACEMENT_3D ( 'NONE', #837, #35, #417 ) ;
#560 = AXIS2_PLACEMENT_3D ( 'NONE', #201, #1184, #293 ) ;
#561 = CARTESIAN_POINT ( 'NONE',  ( -0.9000000000000000222, 0.7999999999999999334, 0.4549999999999997935 ) ) ;
#562 = CARTESIAN_POINT ( 'NONE',  ( -0.9000000000000001332, 0.7999999999999999334, -0.4549999999999997935 ) ) ;
#563 = CIRCLE ( 'NONE', #830, 0.04500000000000001221 ) ;
#564 = CARTESIAN_POINT ( 'NONE',  ( 0.9000000000000000222, 0.04500000000000001221, 0.4999999999999997780 ) ) ;
#565 = DIRECTION ( 'NONE',  ( 0.000000000000000000, 0.000000000000000000, 1.000000000000000000 ) ) ;
#566 = ORIENTED_EDGE ( 'NONE', *, *, #805, .F. ) ;
#567 = ORIENTED_EDGE ( 'NONE', *, *, #487, .T. ) ;
#568 = FACE_OUTER_BOUND ( 'NONE', #434, .T. ) ;
#569 = CARTESIAN_POINT ( 'NONE',  ( 0.9000000000000001332, 0.04500000000000001221, -0.4999999999999997780 ) ) ;
#570 = CARTESIAN_POINT ( 'NONE',  ( 0.8550000000000000933, 0.04499999999999999833, -0.4549999999999997935 ) ) ;
#571 = DIRECTION ( 'NONE',  ( 1.000000000000000000, -0.000000000000000000, 0.000000000000000000 ) ) ;
#572 = CARTESIAN_POINT ( 'NONE',  ( 500000.0000000000582, 0.7849999999999999201, 0.4549999999566316511 ) ) ;
#573 = EDGE_LOOP ( 'NONE', ( #935, #1077, #56, #219 ) ) ;
#574 = ADVANCED_FACE ( 'NONE', ( #812 ), #627, .T. ) ;
#575 = CARTESIAN_POINT ( 'NONE',  ( 0.000000000000000000, 0.000000000000000000, 0.000000000000000000 ) ) ;
#576 = DIRECTION ( 'NONE',  ( -0.000000000000000000, -1.000000000000000000, -0.000000000000000000 ) ) ;
#577 = DIRECTION ( 'NONE',  ( 2.168404344971010101E-16, 0.000000000000000000, 1.000000000000000000 ) ) ;
#578 = ORIENTED_EDGE ( 'NONE', *, *, #1193, .T. ) ;
#579 = ADVANCED_FACE ( 'NONE', ( #308 ), #526, .T. ) ;
#580 = DIRECTION ( 'NONE',  ( 1.000000000000000000, 0.000000000000000000, 2.168404344971010101E-16 ) ) ;
#581 = AXIS2_PLACEMENT_3D ( 'NONE', #396, #1089, #104 ) ;
#582 = VECTOR ( 'NONE', #1154, 1000.000000000000000 ) ;
#583 = CIRCLE ( 'NONE', #560, 0.04500000000000001221 ) ;
#584 = AXIS2_PLACEMENT_3D ( 'NONE', #654, #576, #1162 ) ;
#585 = CARTESIAN_POINT ( 'NONE',  ( 0.9000000000000001332, 0.7549999999999998934, -0.4549999999999997935 ) ) ;
#586 = ADVANCED_FACE ( 'NONE', ( #1024 ), #507, .T. ) ;
#587 = MANIFOLD_SOLID_BREP ( 'Fillet1', #770 ) ;
#588 = VERTEX_POINT ( 'NONE', #62 ) ;
#589 = DIRECTION ( 'NONE',  ( 0.000000000000000000, 0.000000000000000000, 1.000000000000000000 ) ) ;
#590 = VERTEX_POINT ( 'NONE', #844 ) ;
#591 = DIRECTION ( 'NONE',  ( 8.673617379884035472E-17, -0.000000000000000000, 1.000000000000000000 ) ) ;
#592 = DIRECTION ( 'NONE',  ( 1.084202172485505050E-16, -0.000000000000000000, 1.000000000000000000 ) ) ;
#593 = ADVANCED_FACE ( 'NONE', ( #771 ), #310, .F. ) ;
#594 = EDGE_CURVE ( 'NONE', #541, #926, #676, .T. ) ;
#595 = ORIENTED_EDGE ( 'NONE', *, *, #303, .F. ) ;
#596 = LINE ( 'NONE', #612, #1065 ) ;
#597 = LINE ( 'NONE', #1093, #1011 ) ;
#598 = DIRECTION ( 'NONE',  ( 1.000000000000000000, 0.000000000000000000, 0.000000000000000000 ) ) ;
#599 = MANIFOLD_SOLID_BREP ( 'Mirror2', #140 ) ;
#600 = VECTOR ( 'NONE', #153, 1000.000000000000000 ) ;
#601 = DIRECTION ( 'NONE',  ( -1.000000000000000000, -2.409338161078898392E-15, 0.000000000000000000 ) ) ;
#602 = PRESENTATION_LAYER_ASSIGNMENT (  '', '', ( #852 ) ) ;
#603 = AXIS2_PLACEMENT_3D ( 'NONE', #661, #305, #1198 ) ;
#604 = DIRECTION ( 'NONE',  ( 0.000000000000000000, 0.000000000000000000, -1.000000000000000000 ) ) ;
#605 = ADVANCED_FACE ( 'NONE', ( #855 ), #949, .T. ) ;
#606 = PRODUCT ( 'GRM_Auto_Q3_1.8_1_0.8_0.35', 'GRM_Auto_Q3_1.8_1_0.8_0.35', '', ( #478 ) ) ;
#607 = DIRECTION ( 'NONE',  ( 1.000000000000000000, 0.000000000000000000, 0.000000000000000000 ) ) ;
#608 = FACE_OUTER_BOUND ( 'NONE', #357, .T. ) ;
#609 = ADVANCED_FACE ( 'NONE', ( #568 ), #1149, .F. ) ;
#610 = EDGE_CURVE ( 'NONE', #926, #1195, #658, .T. ) ;
#611 = DIRECTION ( 'NONE',  ( 1.000000000000000000, 0.000000000000000000, 2.168404344971010101E-16 ) ) ;
#612 = CARTESIAN_POINT ( 'NONE',  ( -0.5500000000000000444, 0.7549999999999998934, 0.4849999999999998201 ) ) ;
#613 = DIRECTION ( 'NONE',  ( 0.000000000000000000, 0.000000000000000000, 1.000000000000000000 ) ) ;
#614 = CARTESIAN_POINT ( 'NONE',  ( -0.8550000000000000933, 0.04500000000000001221, -0.4549999999999997935 ) ) ;
#615 = AXIS2_PLACEMENT_3D ( 'NONE', #400, #1006, #804 ) ;
#616 = CARTESIAN_POINT ( 'NONE',  ( 0.8550000000000000933, 0.000000000000000000, -0.4549999999999997935 ) ) ;
#617 = VECTOR ( 'NONE', #436, 1000.000000000000000 ) ;
#618 = STYLED_ITEM ( 'NONE', ( #1141 ), #587 ) ;
#619 = LINE ( 'NONE', #932, #405 ) ;
#620 = VECTOR ( 'NONE', #399, 1000.000000000000000 ) ;
#621 = ORIENTED_EDGE ( 'NONE', *, *, #1273, .T. ) ;
#622 = PRESENTATION_LAYER_ASSIGNMENT (  '', '', ( #1161 ) ) ;
#623 = CARTESIAN_POINT ( 'NONE',  ( 0.9000000000000001332, 0.04500000000000001221, -0.4549999999999997935 ) ) ;
#624 = CARTESIAN_POINT ( 'NONE',  ( 0.5499999999756255420, 0.04500000000000001221, -0.4549999999999999045 ) ) ;
#625 = DIRECTION ( 'NONE',  ( -1.084202172485505050E-16, 0.000000000000000000, 1.000000000000000000 ) ) ;
#626 = VERTEX_POINT ( 'NONE', #85 ) ;
#627 = CYLINDRICAL_SURFACE ( 'NONE', #559, 0.04500000000000001221 ) ;
#628 = ORIENTED_EDGE ( 'NONE', *, *, #1273, .F. ) ;
#629 = ADVANCED_FACE ( 'NONE', ( #360 ), #763, .T. ) ;
#630 = DIRECTION ( 'NONE',  ( 0.000000000000000000, 1.000000000000000000, 0.000000000000000000 ) ) ;
#631 = EDGE_LOOP ( 'NONE', ( #1053, #240, #316 ) ) ;
#632 = ORIENTED_EDGE ( 'NONE', *, *, #237, .T. ) ;
#633 = CARTESIAN_POINT ( 'NONE',  ( 0.8550000000000002043, 0.7549999999999998934, -0.4549999999999997935 ) ) ;
#634 = DIRECTION ( 'NONE',  ( 0.000000000000000000, 0.000000000000000000, 1.000000000000000000 ) ) ;
#635 = ADVANCED_FACE ( 'NONE', ( #475 ), #890, .T. ) ;
#636 = CIRCLE ( 'NONE', #907, 0.04500000000000001221 ) ;
#637 = CARTESIAN_POINT ( 'NONE',  ( -0.5500000000000000444, 0.7849999999999999201, 0.4549999999999997935 ) ) ;
#638 = DIRECTION ( 'NONE',  ( -1.000000000000000000, 0.000000000000000000, 0.000000000000000000 ) ) ;
#639 = ORIENTED_EDGE ( 'NONE', *, *, #303, .T. ) ;
#640 = ORIENTED_EDGE ( 'NONE', *, *, #839, .T. ) ;
#641 = VECTOR ( 'NONE', #1043, 1000.000000000000000 ) ;
#642 = FILL_AREA_STYLE ('',( #54 ) ) ;
#643 = CIRCLE ( 'NONE', #688, 0.04500000000000001221 ) ;
#644 = CARTESIAN_POINT ( 'NONE',  ( 0.8549999999999999822, 0.04499999999999999833, 0.4549999999999997935 ) ) ;
#645 = LINE ( 'NONE', #1119, #909 ) ;
#646 = CARTESIAN_POINT ( 'NONE',  ( 0.5500000000893123797, 0.04500000000000022732, 0.4849999999999997091 ) ) ;
#647 = ORIENTED_EDGE ( 'NONE', *, *, #805, .T. ) ;
#648 = ORIENTED_EDGE ( 'NONE', *, *, #651, .F. ) ;
#649 = SURFACE_SIDE_STYLE ('',( #755 ) ) ;
#650 = EDGE_CURVE ( 'NONE', #389, #821, #1134, .T. ) ;
#651 = EDGE_CURVE ( 'NONE', #1155, #933, #498, .T. ) ;
#652 = DIRECTION ( 'NONE',  ( 0.000000000000000000, 0.000000000000000000, -1.000000000000000000 ) ) ;
#653 = ORIENTED_EDGE ( 'NONE', *, *, #1091, .T. ) ;
#654 = CARTESIAN_POINT ( 'NONE',  ( -0.8550000000000000933, 0.7549999999999998934, -0.4549999999999997935 ) ) ;
#655 = DIRECTION ( 'NONE',  ( 0.000000000000000000, 0.000000000000000000, -1.000000000000000000 ) ) ;
#656 = EDGE_LOOP ( 'NONE', ( #761, #663, #1056, #425 ) ) ;
#657 = ORIENTED_EDGE ( 'NONE', *, *, #268, .F. ) ;
#658 = LINE ( 'NONE', #974, #705 ) ;
#659 = PLANE ( 'NONE',  #1113 ) ;
#660 = ORIENTED_EDGE ( 'NONE', *, *, #839, .F. ) ;
#661 = CARTESIAN_POINT ( 'NONE',  ( -0.8550000000000000933, 0.04499999999999999833, -0.4549999999999997935 ) ) ;
#662 = CARTESIAN_POINT ( 'NONE',  ( -0.8549999999999999822, 0.000000000000000000, 9.269928574751067841E-17 ) ) ;
#663 = ORIENTED_EDGE ( 'NONE', *, *, #455, .T. ) ;
#664 = ORIENTED_EDGE ( 'NONE', *, *, #728, .F. ) ;
#665 = VECTOR ( 'NONE', #194, 1000.000000000000000 ) ;
#666 = DIRECTION ( 'NONE',  ( 0.000000000000000000, 0.000000000000000000, -1.000000000000000000 ) ) ;
#667 = AXIS2_PLACEMENT_3D ( 'NONE', #531, #625, #28 ) ;
#668 = PRESENTATION_LAYER_ASSIGNMENT (  '', '', ( #618 ) ) ;
#669 = DIRECTION ( 'NONE',  ( 1.000000000000000000, 0.000000000000000000, -8.673617379884036705E-17 ) ) ;
#670 = DIRECTION ( 'NONE',  ( 2.168404344971009854E-16, 0.000000000000000000, -1.000000000000000000 ) ) ;
#671 = VECTOR ( 'NONE', #1274, 1000.000000000000000 ) ;
#672 = PLANE ( 'NONE',  #1243 ) ;
#673 = DIRECTION ( 'NONE',  ( -1.084202172485505050E-16, 0.000000000000000000, -1.000000000000000000 ) ) ;
#674 = ORIENTED_EDGE ( 'NONE', *, *, #314, .F. ) ;
#675 = ORIENTED_EDGE ( 'NONE', *, *, #528, .T. ) ;
#676 = LINE ( 'NONE', #968, #205 ) ;
#677 = PRODUCT_DEFINITION_CONTEXT ( 'detailed design', #1001, 'design' ) ;
#678 = APPLICATION_PROTOCOL_DEFINITION ( 'draft international standard', 'automotive_design', 1998, #1219 ) ;
#679 = ADVANCED_FACE ( 'NONE', ( #899 ), #501, .F. ) ;
#680 = LINE ( 'NONE', #1076, #223 ) ;
#681 = LINE ( 'NONE', #841, #908 ) ;
#682 = DIRECTION ( 'NONE',  ( 0.000000000000000000, 0.000000000000000000, 1.000000000000000000 ) ) ;
#683 = CARTESIAN_POINT ( 'NONE',  ( 0.5499999999999999334, 0.7999999999999999334, 0.4999999999999997780 ) ) ;
#684 = DIRECTION ( 'NONE',  ( 1.000000000000000000, 0.000000000000000000, -1.084202172485505050E-16 ) ) ;
#685 = DIRECTION ( 'NONE',  ( 0.000000000000000000, 0.000000000000000000, 1.000000000000000000 ) ) ;
#686 = CIRCLE ( 'NONE', #1032, 0.04500000000000001221 ) ;
#687 = AXIS2_PLACEMENT_3D ( 'NONE', #1114, #630, #45 ) ;
#688 = AXIS2_PLACEMENT_3D ( 'NONE', #808, #3, #115 ) ;
#689 = CARTESIAN_POINT ( 'NONE',  ( 0.8549999999999999822, 0.04500000000000001221, 0.4549999999999997935 ) ) ;
#690 = VERTEX_POINT ( 'NONE', #392 ) ;
#691 = DIRECTION ( 'NONE',  ( -1.000000000000000000, 0.000000000000000000, 0.000000000000000000 ) ) ;
#692 = EDGE_CURVE ( 'NONE', #234, #1128, #1110, .T. ) ;
#693 = EDGE_CURVE ( 'NONE', #851, #757, #583, .T. ) ;
#694 = VERTEX_POINT ( 'NONE', #796 ) ;
#695 = DIRECTION ( 'NONE',  ( -1.000000000000000000, 0.000000000000000000, 0.000000000000000000 ) ) ;
#696 = DIRECTION ( 'NONE',  ( 0.000000000000000000, -0.000000000000000000, -1.000000000000000000 ) ) ;
#697 = CARTESIAN_POINT ( 'NONE',  ( -0.9000000000000000222, 0.7999999999999999334, 0.4999999999999997780 ) ) ;
#698 = ORIENTED_EDGE ( 'NONE', *, *, #377, .F. ) ;
#699 = CARTESIAN_POINT ( 'NONE',  ( -0.8549999999999999822, 0.7549999999999998934, 0.4549999999999997935 ) ) ;
#700 = SPHERICAL_SURFACE ( 'NONE', #493, 0.04499999999999999833 ) ;
#701 = DIRECTION ( 'NONE',  ( 0.000000000000000000, 0.000000000000000000, -1.000000000000000000 ) ) ;
#702 = CARTESIAN_POINT ( 'NONE',  ( 0.5500000000893123797, 0.7849999999999999201, 0.4549999999999996825 ) ) ;
#703 = VECTOR ( 'NONE', #1127, 1000.000000000000000 ) ;
#704 = CARTESIAN_POINT ( 'NONE',  ( 0.8549999999999999822, 0.04499999999999999833, 0.4549999999999997935 ) ) ;
#705 = VECTOR ( 'NONE', #558, 1000.000000000000000 ) ;
#706 = EDGE_CURVE ( 'NONE', #690, #743, #1192, .T. ) ;
#707 = VECTOR ( 'NONE', #543, 1000.000000000000000 ) ;
#708 =( LENGTH_UNIT ( ) NAMED_UNIT ( * ) SI_UNIT ( .MILLI., .METRE. ) );
#709 = SPHERICAL_SURFACE ( 'NONE', #306, 0.04499999999999999833 ) ;
#710 = ADVANCED_FACE ( 'NONE', ( #881 ), #1276, .F. ) ;
#711 = CARTESIAN_POINT ( 'NONE',  ( -0.5499999999999999334, 0.000000000000000000, 0.4549999999999997935 ) ) ;
#712 = DIRECTION ( 'NONE',  ( 0.000000000000000000, 1.000000000000000000, 0.000000000000000000 ) ) ;
#713 = ORIENTED_EDGE ( 'NONE', *, *, #706, .F. ) ;
#714 = CARTESIAN_POINT ( 'NONE',  ( 0.5500000000000001554, 0.7549999999999998934, -0.4999999999999997780 ) ) ;
#715 = DIRECTION ( 'NONE',  ( 0.000000000000000000, 0.000000000000000000, -1.000000000000000000 ) ) ;
#716 = ORIENTED_EDGE ( 'NONE', *, *, #1033, .T. ) ;
#717 = CARTESIAN_POINT ( 'NONE',  ( 0.5499999999756255420, 0.7549999999999998934, 0.4549999999999996825 ) ) ;
#718 = CARTESIAN_POINT ( 'NONE',  ( -0.8549999999999999822, 0.7999999999999999334, 0.4999999999999997780 ) ) ;
#719 = VECTOR ( 'NONE', #75, 1000.000000000000000 ) ;
#720 = CIRCLE ( 'NONE', #791, 0.03000000000000002318 ) ;
#721 = DIRECTION ( 'NONE',  ( 1.084202172485505050E-16, 0.000000000000000000, -1.000000000000000000 ) ) ;
#722 = CARTESIAN_POINT ( 'NONE',  ( 500000.0000000000582, 0.7549999999999998934, -0.4550000000433679359 ) ) ;
#723 = CIRCLE ( 'NONE', #810, 0.02999999999999997113 ) ;
#724 = ORIENTED_EDGE ( 'NONE', *, *, #190, .T. ) ;
#725 = EDGE_CURVE ( 'NONE', #967, #1181, #398, .T. ) ;
#726 = MECHANICAL_DESIGN_GEOMETRIC_PRESENTATION_REPRESENTATION (  '', ( #1161 ), #912 ) ;
#727 = CARTESIAN_POINT ( 'NONE',  ( 0.5500000000000001554, 0.7549999999999998934, -0.4999999999999997780 ) ) ;
#728 = EDGE_CURVE ( 'NONE', #588, #933, #403, .T. ) ;
#729 = DIRECTION ( 'NONE',  ( 0.000000000000000000, 0.000000000000000000, 1.000000000000000000 ) ) ;
#730 = CARTESIAN_POINT ( 'NONE',  ( -0.9000000000000001332, 0.04500000000000001221, -0.4999999999999997780 ) ) ;
#731 = EDGE_LOOP ( 'NONE', ( #716, #737, #320 ) ) ;
#732 = ORIENTED_EDGE ( 'NONE', *, *, #905, .F. ) ;
#733 = CARTESIAN_POINT ( 'NONE',  ( 0.000000000000000000, 0.000000000000000000, 0.4549999999999997935 ) ) ;
#734 = LINE ( 'NONE', #1124, #242 ) ;
#735 = CARTESIAN_POINT ( 'NONE',  ( -0.8549999999999999822, 0.7999999999999999334, 0.4549999999999997935 ) ) ;
#736 = FACE_OUTER_BOUND ( 'NONE', #161, .T. ) ;
#737 = ORIENTED_EDGE ( 'NONE', *, *, #1096, .T. ) ;
#738 = ORIENTED_EDGE ( 'NONE', *, *, #1248, .F. ) ;
#739 = DIRECTION ( 'NONE',  ( 1.000000000000000000, 0.000000000000000000, 0.000000000000000000 ) ) ;
#740 = ADVANCED_FACE ( 'NONE', ( #1234 ), #338, .T. ) ;
#741 = DIRECTION ( 'NONE',  ( -1.000000000000000000, 0.000000000000000000, 0.000000000000000000 ) ) ;
#742 = DIRECTION ( 'NONE',  ( 0.000000000000000000, 0.000000000000000000, 1.000000000000000000 ) ) ;
#743 = VERTEX_POINT ( 'NONE', #637 ) ;
#744 = PRODUCT_RELATED_PRODUCT_CATEGORY ( 'part', '', ( #606 ) ) ;
#745 = ORIENTED_EDGE ( 'NONE', *, *, #902, .T. ) ;
#746 = AXIS2_PLACEMENT_3D ( 'NONE', #575, #862, #261 ) ;
#747 = AXIS2_PLACEMENT_3D ( 'NONE', #412, #887, #794 ) ;
#748 = DIRECTION ( 'NONE',  ( 1.000000000000000000, 0.000000000000000000, -8.673617379884036705E-17 ) ) ;
#749 = FACE_OUTER_BOUND ( 'NONE', #133, .T. ) ;
#750 = ORIENTED_EDGE ( 'NONE', *, *, #1193, .F. ) ;
#751 = FACE_OUTER_BOUND ( 'NONE', #197, .T. ) ;
#752 = CARTESIAN_POINT ( 'NONE',  ( -0.5500000000000001554, 0.7999999999999999334, -0.4999999999999997780 ) ) ;
#753 = ORIENTED_EDGE ( 'NONE', *, *, #1104, .F. ) ;
#754 = ORIENTED_EDGE ( 'NONE', *, *, #918, .T. ) ;
#755 = SURFACE_STYLE_FILL_AREA ( #642 ) ;
#756 = DIRECTION ( 'NONE',  ( -0.000000000000000000, 1.000000000000000000, -0.000000000000000000 ) ) ;
#757 = VERTEX_POINT ( 'NONE', #1229 ) ;
#758 = EDGE_CURVE ( 'NONE', #1147, #121, #645, .T. ) ;
#759 = DIRECTION ( 'NONE',  ( 1.084202172485505050E-16, -0.000000000000000000, -1.000000000000000000 ) ) ;
#760 = CARTESIAN_POINT ( 'NONE',  ( 0.5500000000893123797, 0.7549999999999998934, -0.4849999999999999312 ) ) ;
#761 = ORIENTED_EDGE ( 'NONE', *, *, #528, .F. ) ;
#762 = ORIENTED_EDGE ( 'NONE', *, *, #1057, .T. ) ;
#763 = CYLINDRICAL_SURFACE ( 'NONE', #809, 0.04500000000000001221 ) ;
#764 = CARTESIAN_POINT ( 'NONE',  ( 0.5500000000000001554, 0.7999999999999999334, -0.4999999999999997780 ) ) ;
#765 = CARTESIAN_POINT ( 'NONE',  ( -0.9000000000000000222, 0.04500000000000001221, 0.4549999999999997935 ) ) ;
#766 = DIRECTION ( 'NONE',  ( 0.000000000000000000, 0.000000000000000000, 1.000000000000000000 ) ) ;
#767 = CARTESIAN_POINT ( 'NONE',  ( 0.5500000000893123797, 0.04500000000000001221, -0.4849999999999999312 ) ) ;
#768 = ORIENTED_EDGE ( 'NONE', *, *, #1150, .F. ) ;
#769 = ORIENTED_EDGE ( 'NONE', *, *, #414, .T. ) ;
#770 = CLOSED_SHELL ( 'NONE', ( #457, #710, #337, #330, #797, #609, #773, #787, #221, #2, #1082, #868, #1278, #635, #883, #579, #508, #605 ) ) ;
#771 = FACE_OUTER_BOUND ( 'NONE', #948, .T. ) ;
#772 = VECTOR ( 'NONE', #946, 1000.000000000000000 ) ;
#773 = ADVANCED_FACE ( 'NONE', ( #919 ), #58, .T. ) ;
#774 = AXIS2_PLACEMENT_3D ( 'NONE', #23, #1210, #816 ) ;
#775 = AXIS2_PLACEMENT_3D ( 'NONE', #280, #865, #766 ) ;
#776 = LINE ( 'NONE', #1279, #1168 ) ;
#777 = CARTESIAN_POINT ( 'NONE',  ( 0.5499999999999999334, 0.000000000000000000, 0.4549999999999997935 ) ) ;
#778 = ORIENTED_EDGE ( 'NONE', *, *, #976, .T. ) ;
#779 = UNCERTAINTY_MEASURE_WITH_UNIT (LENGTH_MEASURE( 1.000000000000000082E-05 ), #1265, 'distance_accuracy_value', 'NONE');
#780 =( NAMED_UNIT ( * ) SI_UNIT ( $, .STERADIAN. ) SOLID_ANGLE_UNIT ( ) );
#781 = DIRECTION ( 'NONE',  ( -1.000000000000000000, 0.000000000000000000, 0.000000000000000000 ) ) ;
#782 = ORIENTED_EDGE ( 'NONE', *, *, #706, .T. ) ;
#783 = SURFACE_STYLE_FILL_AREA ( #1277 ) ;
#784 = CARTESIAN_POINT ( 'NONE',  ( 0.5499999999999999334, 0.7549999999999998934, 0.4549999999999997935 ) ) ;
#785 = CARTESIAN_POINT ( 'NONE',  ( 500000.0000000000582, 0.01499999999999999944, 0.4549999999566316511 ) ) ;
#786 = ORIENTED_EDGE ( 'NONE', *, *, #358, .F. ) ;
#787 = ADVANCED_FACE ( 'NONE', ( #751 ), #1026, .T. ) ;
#788 = ADVANCED_FACE ( 'NONE', ( #1136 ), #348, .F. ) ;
#789 = DIRECTION ( 'NONE',  ( 1.000000000000000000, -0.000000000000000000, -2.168404344971010101E-16 ) ) ;
#790 = AXIS2_PLACEMENT_3D ( 'NONE', #1002, #889, #994 ) ;
#791 = AXIS2_PLACEMENT_3D ( 'NONE', #1120, #1230, #834 ) ;
#792 = AXIS2_PLACEMENT_3D ( 'NONE', #1171, #458, #1268 ) ;
#793 = VERTEX_POINT ( 'NONE', #1245 ) ;
#794 = DIRECTION ( 'NONE',  ( -1.000000000000000000, 0.000000000000000000, 0.000000000000000000 ) ) ;
#795 = ORIENTED_EDGE ( 'NONE', *, *, #518, .T. ) ;
#796 = CARTESIAN_POINT ( 'NONE',  ( 0.8549999999999999822, 0.000000000000000000, 0.4549999999999997935 ) ) ;
#797 = ADVANCED_FACE ( 'NONE', ( #1126 ), #827, .T. ) ;
#798 = ORIENTED_EDGE ( 'NONE', *, *, #84, .F. ) ;
#799 = DIRECTION ( 'NONE',  ( 0.000000000000000000, -1.000000000000000000, 0.000000000000000000 ) ) ;
#800 = DIRECTION ( 'NONE',  ( 1.000000000000000000, 0.000000000000000000, 2.168404344971010101E-16 ) ) ;
#801 = CARTESIAN_POINT ( 'NONE',  ( 0.9000000000000001332, 0.7999999999999999334, -0.4549999999999997935 ) ) ;
#802 = ADVANCED_FACE ( 'NONE', ( #833 ), #1035, .F. ) ;
#803 = LINE ( 'NONE', #1004, #68 ) ;
#804 = DIRECTION ( 'NONE',  ( 0.000000000000000000, 0.000000000000000000, -1.000000000000000000 ) ) ;
#805 = EDGE_CURVE ( 'NONE', #184, #34, #167, .T. ) ;
#806 = VECTOR ( 'NONE', #1115, 1000.000000000000000 ) ;
#807 = AXIS2_PLACEMENT_3D ( 'NONE', #752, #349, #577 ) ;
#808 = CARTESIAN_POINT ( 'NONE',  ( 0.8550000000000000933, 0.04500000000000001221, -0.4549999999999997935 ) ) ;
#809 = AXIS2_PLACEMENT_3D ( 'NONE', #469, #870, #1264 ) ;
#810 = AXIS2_PLACEMENT_3D ( 'NONE', #1179, #553, #1253 ) ;
#811 = ORIENTED_EDGE ( 'NONE', *, *, #16, .T. ) ;
#812 = FACE_OUTER_BOUND ( 'NONE', #386, .T. ) ;
#813 = DIRECTION ( 'NONE',  ( -1.000000000000000000, -0.000000000000000000, 8.673617379884037937E-17 ) ) ;
#814 = LINE ( 'NONE', #820, #806 ) ;
#815 = EDGE_LOOP ( 'NONE', ( #753, #1275, #441, #547, #921, #525, #1010, #698 ) ) ;
#816 = DIRECTION ( 'NONE',  ( 0.000000000000000000, 0.000000000000000000, 1.000000000000000000 ) ) ;
#817 = DIRECTION ( 'NONE',  ( 1.000000000000000000, 0.000000000000000000, 1.084202172485505174E-16 ) ) ;
#818 = EDGE_CURVE ( 'NONE', #851, #53, #118, .T. ) ;
#819 = CARTESIAN_POINT ( 'NONE',  ( 0.000000000000000000, 0.7549999999999998934, 0.4549999999999997935 ) ) ;
#820 = CARTESIAN_POINT ( 'NONE',  ( 0.8549999999999999822, 0.7999999999999999334, 0.4999999999999997780 ) ) ;
#821 = VERTEX_POINT ( 'NONE', #134 ) ;
#822 = EDGE_CURVE ( 'NONE', #743, #71, #370, .T. ) ;
#823 = DIRECTION ( 'NONE',  ( 0.000000000000000000, 0.000000000000000000, -1.000000000000000000 ) ) ;
#824 = CIRCLE ( 'NONE', #1058, 0.04500000000000001221 ) ;
#825 = VECTOR ( 'NONE', #51, 1000.000000000000000 ) ;
#826 = AXIS2_PLACEMENT_3D ( 'NONE', #875, #283, #1090 ) ;
#827 = PLANE ( 'NONE',  #687 ) ;
#828 = CARTESIAN_POINT ( 'NONE',  ( -0.5500000000000000444, 0.01499999999999999251, 0.4549999999999997935 ) ) ;
#829 = ORIENTED_EDGE ( 'NONE', *, *, #450, .T. ) ;
#830 = AXIS2_PLACEMENT_3D ( 'NONE', #971, #355, #1049 ) ;
#831 = ORIENTED_EDGE ( 'NONE', *, *, #17, .T. ) ;
#832 = DIRECTION ( 'NONE',  ( 0.000000000000000000, 1.000000000000000000, 0.000000000000000000 ) ) ;
#833 = FACE_OUTER_BOUND ( 'NONE', #346, .T. ) ;
#834 = DIRECTION ( 'NONE',  ( 0.000000000000000000, 0.000000000000000000, -1.000000000000000000 ) ) ;
#835 = ORIENTED_EDGE ( 'NONE', *, *, #725, .F. ) ;
#836 = ORIENTED_EDGE ( 'NONE', *, *, #314, .T. ) ;
#837 = CARTESIAN_POINT ( 'NONE',  ( 0.9000000000000001332, 0.04500000000000001221, -0.4549999999999997935 ) ) ;
#838 = EDGE_CURVE ( 'NONE', #1028, #184, #539, .T. ) ;
#839 = EDGE_CURVE ( 'NONE', #297, #1143, #939, .T. ) ;
#840 = CYLINDRICAL_SURFACE ( 'NONE', #430, 0.04500000000000001221 ) ;
#841 = CARTESIAN_POINT ( 'NONE',  ( 500000.0000000000582, 0.7549999999999998934, -0.4850000000433679626 ) ) ;
#842 = ORIENTED_EDGE ( 'NONE', *, *, #847, .F. ) ;
#843 = ORIENTED_EDGE ( 'NONE', *, *, #610, .F. ) ;
#844 = CARTESIAN_POINT ( 'NONE',  ( -0.5500000000000000444, 0.04500000000000022732, 0.4849999999999998201 ) ) ;
#845 = DIRECTION ( 'NONE',  ( 2.168404344971009854E-16, -0.000000000000000000, -1.000000000000000000 ) ) ;
#846 = ORIENTED_EDGE ( 'NONE', *, *, #294, .F. ) ;
#847 = EDGE_CURVE ( 'NONE', #793, #341, #1271, .T. ) ;
#848 = CARTESIAN_POINT ( 'NONE',  ( 0.000000000000000000, 0.7549999999999998934, 0.4549999999999997935 ) ) ;
#849 = CARTESIAN_POINT ( 'NONE',  ( 0.5500000000893123797, 0.7849999999999999201, -0.4549999999999999045 ) ) ;
#850 = ORIENTED_EDGE ( 'NONE', *, *, #450, .F. ) ;
#851 = VERTEX_POINT ( 'NONE', #152 ) ;
#852 = STYLED_ITEM ( 'NONE', ( #1250 ), #599 ) ;
#853 = EDGE_CURVE ( 'NONE', #267, #350, #877, .T. ) ;
#854 = AXIS2_PLACEMENT_3D ( 'NONE', #309, #1196, #97 ) ;
#855 = FACE_OUTER_BOUND ( 'NONE', #155, .T. ) ;
#856 = CARTESIAN_POINT ( 'NONE',  ( -0.8550000000000000933, 0.000000000000000000, -0.4549999999999997935 ) ) ;
#857 = CARTESIAN_POINT ( 'NONE',  ( -0.5499999999999999334, 0.04500000000000001221, 0.4549999999999997935 ) ) ;
#858 = DIRECTION ( 'NONE',  ( 1.000000000000000000, 0.000000000000000000, 0.000000000000000000 ) ) ;
#859 = LINE ( 'NONE', #554, #600 ) ;
#860 = ORIENTED_EDGE ( 'NONE', *, *, #189, .T. ) ;
#861 = ORIENTED_EDGE ( 'NONE', *, *, #1075, .F. ) ;
#862 = DIRECTION ( 'NONE',  ( 0.000000000000000000, 1.000000000000000000, 0.000000000000000000 ) ) ;
#863 = LINE ( 'NONE', #1020, #719 ) ;
#864 = FACE_OUTER_BOUND ( 'NONE', #731, .T. ) ;
#865 = DIRECTION ( 'NONE',  ( -1.000000000000000000, -0.000000000000000000, -0.000000000000000000 ) ) ;
#866 = LINE ( 'NONE', #572, #22 ) ;
#867 = ORIENTED_EDGE ( 'NONE', *, *, #207, .T. ) ;
#868 = ADVANCED_FACE ( 'NONE', ( #931 ), #840, .T. ) ;
#869 = ORIENTED_EDGE ( 'NONE', *, *, #43, .T. ) ;
#870 = DIRECTION ( 'NONE',  ( -1.000000000000000000, 0.000000000000000000, 0.000000000000000000 ) ) ;
#871 = CARTESIAN_POINT ( 'NONE',  ( 0.8550000000000002043, 0.7999999999999999334, -0.4549999999999997935 ) ) ;
#872 = CYLINDRICAL_SURFACE ( 'NONE', #792, 0.04500000000000001221 ) ;
#873 = DIRECTION ( 'NONE',  ( -1.000000000000000000, -0.000000000000000000, -0.000000000000000000 ) ) ;
#874 = EDGE_LOOP ( 'NONE', ( #750, #925, #313, #835 ) ) ;
#875 = CARTESIAN_POINT ( 'NONE',  ( 0.9000000000000001332, 0.7999999999999999334, -0.4999999999999997780 ) ) ;
#876 = CIRCLE ( 'NONE', #343, 0.04500000000000001221 ) ;
#877 = CIRCLE ( 'NONE', #67, 0.04500000000000001221 ) ;
#878 = APPLICATION_PROTOCOL_DEFINITION ( 'draft international standard', 'automotive_design', 1998, #1001 ) ;
#879 = DIRECTION ( 'NONE',  ( -1.000000000000000000, -0.000000000000000000, 8.673617379884037937E-17 ) ) ;
#880 = ORIENTED_EDGE ( 'NONE', *, *, #692, .T. ) ;
#881 = FACE_OUTER_BOUND ( 'NONE', #52, .T. ) ;
#882 = EDGE_CURVE ( 'NONE', #277, #1255, #264, .T. ) ;
#883 = ADVANCED_FACE ( 'NONE', ( #884 ), #872, .T. ) ;
#884 = FACE_OUTER_BOUND ( 'NONE', #993, .T. ) ;
#885 = EDGE_LOOP ( 'NONE', ( #595, #1166, #1263, #768 ) ) ;
#886 = ORIENTED_EDGE ( 'NONE', *, *, #1170, .F. ) ;
#887 = DIRECTION ( 'NONE',  ( 0.000000000000000000, 0.000000000000000000, 1.000000000000000000 ) ) ;
#888 = EDGE_LOOP ( 'NONE', ( #648, #653, #61 ) ) ;
#889 = DIRECTION ( 'NONE',  ( -1.000000000000000000, -0.000000000000000000, 8.673617379884037937E-17 ) ) ;
#890 = CYLINDRICAL_SURFACE ( 'NONE', #246, 0.04500000000000001221 ) ;
#891 = EDGE_CURVE ( 'NONE', #125, #60, #776, .T. ) ;
#892 = DIRECTION ( 'NONE',  ( -1.084202172485505050E-16, 0.000000000000000000, -1.000000000000000000 ) ) ;
#893 = AXIS2_PLACEMENT_3D ( 'NONE', #332, #712, #1009 ) ;
#894 = VECTOR ( 'NONE', #256, 1000.000000000000000 ) ;
#895 = AXIS2_PLACEMENT_3D ( 'NONE', #404, #387, #198 ) ;
#896 = ORIENTED_EDGE ( 'NONE', *, *, #149, .T. ) ;
#897 = DIRECTION ( 'NONE',  ( 0.000000000000000000, 0.000000000000000000, -1.000000000000000000 ) ) ;
#898 = PLANE ( 'NONE',  #1160 ) ;
#899 = FACE_OUTER_BOUND ( 'NONE', #548, .T. ) ;
#900 = DIRECTION ( 'NONE',  ( 1.000000000000000000, 0.000000000000000000, 0.000000000000000000 ) ) ;
#901 = CARTESIAN_POINT ( 'NONE',  ( 500000.0000000000582, 0.04500000000000001915, -0.4850000000433679626 ) ) ;
#902 = EDGE_CURVE ( 'NONE', #73, #514, #563, .T. ) ;
#903 = DIRECTION ( 'NONE',  ( 0.000000000000000000, 0.000000000000000000, 1.000000000000000000 ) ) ;
#904 = EDGE_LOOP ( 'NONE', ( #327, #657, #1249, #1224 ) ) ;
#905 = EDGE_CURVE ( 'NONE', #1128, #514, #1059, .T. ) ;
#906 = LINE ( 'NONE', #1123, #929 ) ;
#907 = AXIS2_PLACEMENT_3D ( 'NONE', #644, #230, #1025 ) ;
#908 = VECTOR ( 'NONE', #77, 1000.000000000000000 ) ;
#909 = VECTOR ( 'NONE', #318, 1000.000000000000000 ) ;
#910 = CARTESIAN_POINT ( 'NONE',  ( -0.8549999999999999822, 0.04499999999999999833, 0.4549999999999997935 ) ) ;
#911 = CIRCLE ( 'NONE', #775, 0.04500000000000001221 ) ;
#912 =( GEOMETRIC_REPRESENTATION_CONTEXT ( 3 ) GLOBAL_UNCERTAINTY_ASSIGNED_CONTEXT ( ( #779 ) ) GLOBAL_UNIT_ASSIGNED_CONTEXT ( ( #1265, #108, #989 ) ) REPRESENTATION_CONTEXT ( 'NONE', 'WORKASPACE' ) );
#913 = CARTESIAN_POINT ( 'NONE',  ( 0.5500000000000001554, 0.7549999999999998934, -0.4549999999999997935 ) ) ;
#914 = ORIENTED_EDGE ( 'NONE', *, *, #728, .T. ) ;
#915 = CARTESIAN_POINT ( 'NONE',  ( -0.8550000000000002043, 0.7999999999999999334, -0.4549999999999997935 ) ) ;
#916 = EDGE_CURVE ( 'NONE', #520, #125, #482, .T. ) ;
#917 = FACE_OUTER_BOUND ( 'NONE', #1237, .T. ) ;
#918 = EDGE_CURVE ( 'NONE', #694, #1147, #680, .T. ) ;
#919 = FACE_OUTER_BOUND ( 'NONE', #464, .T. ) ;
#920 = CARTESIAN_POINT ( 'NONE',  ( -0.5499999999999999334, 0.7999999999999999334, 0.4549999999999997935 ) ) ;
#921 = ORIENTED_EDGE ( 'NONE', *, *, #1244, .T. ) ;
#922 = CARTESIAN_POINT ( 'NONE',  ( -0.8550000000000000933, 0.7999999999999999334, -0.4999999999999997780 ) ) ;
#923 = CARTESIAN_POINT ( 'NONE',  ( 0.9000000000000000222, 0.7549999999999998934, 0.4999999999999997780 ) ) ;
#924 = LINE ( 'NONE', #1027, #703 ) ;
#925 = ORIENTED_EDGE ( 'NONE', *, *, #397, .F. ) ;
#926 = VERTEX_POINT ( 'NONE', #964 ) ;
#927 = ORIENTED_EDGE ( 'NONE', *, *, #518, .F. ) ;
#928 = CIRCLE ( 'NONE', #286, 0.02999999999999997113 ) ;
#929 = VECTOR ( 'NONE', #1030, 1000.000000000000000 ) ;
#930 = AXIS2_PLACEMENT_3D ( 'NONE', #195, #1003, #105 ) ;
#931 = FACE_OUTER_BOUND ( 'NONE', #1052, .T. ) ;
#932 = CARTESIAN_POINT ( 'NONE',  ( 500000.0000000000582, 0.7849999999999999201, -0.4550000000433679359 ) ) ;
#933 = VERTEX_POINT ( 'NONE', #373 ) ;
#934 = VECTOR ( 'NONE', #1153, 1000.000000000000000 ) ;
#935 = ORIENTED_EDGE ( 'NONE', *, *, #17, .F. ) ;
#936 = DIRECTION ( 'NONE',  ( -1.000000000000000000, -0.000000000000000000, 2.409338161078898392E-15 ) ) ;
#937 = EDGE_CURVE ( 'NONE', #588, #1255, #1072, .T. ) ;
#938 = ORIENTED_EDGE ( 'NONE', *, *, #838, .T. ) ;
#939 = LINE ( 'NONE', #420, #1015 ) ;
#940 = ORIENTED_EDGE ( 'NONE', *, *, #853, .F. ) ;
#941 = ORIENTED_EDGE ( 'NONE', *, *, #413, .T. ) ;
#942 = EDGE_CURVE ( 'NONE', #757, #131, #92, .T. ) ;
#943 = FACE_OUTER_BOUND ( 'NONE', #98, .T. ) ;
#944 = CARTESIAN_POINT ( 'NONE',  ( 0.5499999999756255420, 0.7849999999999999201, -0.4550000001517880421 ) ) ;
#945 = DIRECTION ( 'NONE',  ( 0.000000000000000000, 1.000000000000000000, 0.000000000000000000 ) ) ;
#946 = DIRECTION ( 'NONE',  ( 1.000000000000000000, -0.000000000000000000, -0.000000000000000000 ) ) ;
#947 = EDGE_LOOP ( 'NONE', ( #141, #632, #782, #995 ) ) ;
#948 = EDGE_LOOP ( 'NONE', ( #42, #660, #886, #172, #987, #555, #11, #713 ) ) ;
#949 = CYLINDRICAL_SURFACE ( 'NONE', #1064, 0.04500000000000001221 ) ;
#950 = CYLINDRICAL_SURFACE ( 'NONE', #499, 0.04500000000000001221 ) ;
#951 = EDGE_LOOP ( 'NONE', ( #842, #258, #1041, #488 ) ) ;
#952 = STYLED_ITEM ( 'NONE', ( #1200 ), #157 ) ;
#953 = DIRECTION ( 'NONE',  ( 0.000000000000000000, -0.000000000000000000, 1.000000000000000000 ) ) ;
#954 = LINE ( 'NONE', #170, #641 ) ;
#955 = ORIENTED_EDGE ( 'NONE', *, *, #992, .T. ) ;
#956 = ORIENTED_EDGE ( 'NONE', *, *, #268, .T. ) ;
#957 =( GEOMETRIC_REPRESENTATION_CONTEXT ( 3 ) GLOBAL_UNCERTAINTY_ASSIGNED_CONTEXT ( ( #1007 ) ) GLOBAL_UNIT_ASSIGNED_CONTEXT ( ( #173, #462, #74 ) ) REPRESENTATION_CONTEXT ( 'NONE', 'WORKASPACE' ) );
#958 = VECTOR ( 'NONE', #1158, 1000.000000000000000 ) ;
#959 = FILL_AREA_STYLE ('',( #1214 ) ) ;
#960 = LINE ( 'NONE', #1211, #481 ) ;
#961 = EDGE_LOOP ( 'NONE', ( #1029, #494, #1189 ) ) ;
#962 = EDGE_CURVE ( 'NONE', #973, #1116, #911, .T. ) ;
#963 = EDGE_CURVE ( 'NONE', #341, #297, #69, .T. ) ;
#964 = CARTESIAN_POINT ( 'NONE',  ( 0.5500000000000001554, 0.04500000000000022732, -0.4999999999999997780 ) ) ;
#965 = CARTESIAN_POINT ( 'NONE',  ( -0.5500000000000001554, 0.7549999999999998934, -0.4999999999999997780 ) ) ;
#966 = ORIENTED_EDGE ( 'NONE', *, *, #84, .T. ) ;
#967 = VERTEX_POINT ( 'NONE', #585 ) ;
#968 = CARTESIAN_POINT ( 'NONE',  ( 0.5500000000000001554, 0.7999999999999999334, -0.4999999999999997780 ) ) ;
#969 = CARTESIAN_POINT ( 'NONE',  ( -0.5500000000000000444, 0.7549999999999998934, -0.4849999999999998201 ) ) ;
#970 = DIRECTION ( 'NONE',  ( -2.168404344971009854E-16, 0.000000000000000000, 1.000000000000000000 ) ) ;
#971 = CARTESIAN_POINT ( 'NONE',  ( -0.8550000000000000933, 0.7549999999999998934, -0.4549999999999997935 ) ) ;
#972 = DIRECTION ( 'NONE',  ( -1.000000000000000000, -0.000000000000000000, 8.673617379884037937E-17 ) ) ;
#973 = VERTEX_POINT ( 'NONE', #158 ) ;
#974 = CARTESIAN_POINT ( 'NONE',  ( 0.9000000000000001332, 0.04500000000000001221, -0.4999999999999997780 ) ) ;
#975 = FILL_AREA_STYLE_COLOUR ( '', #165 ) ;
#976 = EDGE_CURVE ( 'NONE', #514, #1256, #182, .T. ) ;
#977 = LINE ( 'NONE', #88, #934 ) ;
#978 = VECTOR ( 'NONE', #970, 1000.000000000000000 ) ;
#979 = ORIENTED_EDGE ( 'NONE', *, *, #24, .T. ) ;
#980 = CIRCLE ( 'NONE', #495, 0.04500000000000001221 ) ;
#981 = CARTESIAN_POINT ( 'NONE',  ( -0.5500000000000001554, 0.7549999999999998934, -0.4549999999999997935 ) ) ;
#982 = AXIS2_PLACEMENT_3D ( 'NONE', #375, #580, #701 ) ;
#983 = ADVANCED_FACE ( 'NONE', ( #382 ), #986, .T. ) ;
#984 = EDGE_CURVE ( 'NONE', #73, #467, #1139, .T. ) ;
#985 = VECTOR ( 'NONE', #364, 1000.000000000000000 ) ;
#986 = CYLINDRICAL_SURFACE ( 'NONE', #120, 0.03000000000000002318 ) ;
#987 = ORIENTED_EDGE ( 'NONE', *, *, #190, .F. ) ;
#988 = ADVANCED_FACE ( 'NONE', ( #275 ), #672, .F. ) ;
#989 =( NAMED_UNIT ( * ) SI_UNIT ( $, .STERADIAN. ) SOLID_ANGLE_UNIT ( ) );
#990 = ORIENTED_EDGE ( 'NONE', *, *, #139, .F. ) ;
#991 = DIRECTION ( 'NONE',  ( -1.000000000000000000, 0.000000000000000000, 0.000000000000000000 ) ) ;
#992 = EDGE_CURVE ( 'NONE', #267, #1128, #977, .T. ) ;
#993 = EDGE_LOOP ( 'NONE', ( #566, #1236, #1048, #846 ) ) ;
#994 = DIRECTION ( 'NONE',  ( 0.000000000000000000, 0.000000000000000000, 1.000000000000000000 ) ) ;
#995 = ORIENTED_EDGE ( 'NONE', *, *, #455, .F. ) ;
#996 = SURFACE_STYLE_USAGE ( .BOTH. , #112 ) ;
#997 = DIRECTION ( 'NONE',  ( 0.000000000000000000, 0.000000000000000000, -1.000000000000000000 ) ) ;
#998 = CIRCLE ( 'NONE', #87, 0.04500000000000001221 ) ;
#999 = EDGE_CURVE ( 'NONE', #1143, #690, #723, .T. ) ;
#1000 = FACE_OUTER_BOUND ( 'NONE', #888, .T. ) ;
#1001 = APPLICATION_CONTEXT ( 'automotive_design' ) ;
#1002 = CARTESIAN_POINT ( 'NONE',  ( 500000.0000000000582, 0.04500000000000001221, 0.4549999999566316511 ) ) ;
#1003 = DIRECTION ( 'NONE',  ( -0.000000000000000000, -1.000000000000000000, -0.000000000000000000 ) ) ;
#1004 = CARTESIAN_POINT ( 'NONE',  ( 0.5499999999756255420, 0.04500000000000001915, -0.4849999999999999312 ) ) ;
#1005 = EDGE_CURVE ( 'NONE', #1116, #1218, #537, .T. ) ;
#1006 = DIRECTION ( 'NONE',  ( -0.000000000000000000, 1.000000000000000000, -0.000000000000000000 ) ) ;
#1007 = UNCERTAINTY_MEASURE_WITH_UNIT (LENGTH_MEASURE( 1.000000000000000082E-05 ), #173, 'distance_accuracy_value', 'NONE');
#1008 = LINE ( 'NONE', #18, #1186 ) ;
#1009 = DIRECTION ( 'NONE',  ( 0.000000000000000000, 0.000000000000000000, 1.000000000000000000 ) ) ;
#1010 = ORIENTED_EDGE ( 'NONE', *, *, #594, .T. ) ;
#1011 = VECTOR ( 'NONE', #670, 1000.000000000000000 ) ;
#1012 = EDGE_CURVE ( 'NONE', #694, #1232, #347, .T. ) ;
#1013 = AXIS2_PLACEMENT_3D ( 'NONE', #633, #936, #1117 ) ;
#1014 = ADVANCED_FACE ( 'NONE', ( #1092 ), #1188, .T. ) ;
#1015 = VECTOR ( 'NONE', #945, 1000.000000000000000 ) ;
#1016 = DIRECTION ( 'NONE',  ( 0.000000000000000000, 0.000000000000000000, -1.000000000000000000 ) ) ;
#1017 = DIRECTION ( 'NONE',  ( -1.000000000000000000, 0.000000000000000000, -1.084202172485505050E-16 ) ) ;
#1018 = DIRECTION ( 'NONE',  ( 1.000000000000000000, 0.000000000000000000, 2.168404344971010101E-16 ) ) ;
#1019 = ORIENTED_EDGE ( 'NONE', *, *, #36, .F. ) ;
#1020 = CARTESIAN_POINT ( 'NONE',  ( -0.5499999999999999334, 0.7999999999999999334, 0.4999999999999997780 ) ) ;
#1021 = DIRECTION ( 'NONE',  ( 1.000000000000000000, 0.000000000000000000, 2.168404344971010101E-16 ) ) ;
#1022 = CYLINDRICAL_SURFACE ( 'NONE', #667, 0.04500000000000001221 ) ;
#1023 = ORIENTED_EDGE ( 'NONE', *, *, #285, .F. ) ;
#1024 = FACE_OUTER_BOUND ( 'NONE', #904, .T. ) ;
#1025 = DIRECTION ( 'NONE',  ( 0.000000000000000000, 0.000000000000000000, 1.000000000000000000 ) ) ;
#1026 = CYLINDRICAL_SURFACE ( 'NONE', #1185, 0.04500000000000001221 ) ;
#1027 = CARTESIAN_POINT ( 'NONE',  ( -0.9000000000000001332, 0.7549999999999998934, -0.4999999999999997780 ) ) ;
#1028 = VERTEX_POINT ( 'NONE', #711 ) ;
#1029 = ORIENTED_EDGE ( 'NONE', *, *, #1074, .F. ) ;
#1030 = DIRECTION ( 'NONE',  ( -1.000000000000000000, -0.000000000000000000, 8.673617379884037937E-17 ) ) ;
#1031 = CARTESIAN_POINT ( 'NONE',  ( -0.8549999999999999822, 0.7549999999999998934, 0.4549999999999997935 ) ) ;
#1032 = AXIS2_PLACEMENT_3D ( 'NONE', #356, #257, #655 ) ;
#1033 = EDGE_CURVE ( 'NONE', #233, #626, #1038, .T. ) ;
#1034 =( GEOMETRIC_REPRESENTATION_CONTEXT ( 3 ) GLOBAL_UNCERTAINTY_ASSIGNED_CONTEXT ( ( #506 ) ) GLOBAL_UNIT_ASSIGNED_CONTEXT ( ( #253, #1071, #1157 ) ) REPRESENTATION_CONTEXT ( 'NONE', 'WORKASPACE' ) );
#1035 = PLANE ( 'NONE',  #428 ) ;
#1036 = CARTESIAN_POINT ( 'NONE',  ( 0.8549999999999999822, 0.04500000000000001221, 0.4999999999999997780 ) ) ;
#1037 = ORIENTED_EDGE ( 'NONE', *, *, #377, .T. ) ;
#1038 = CIRCLE ( 'NONE', #1080, 0.04500000000000001221 ) ;
#1039 = ORIENTED_EDGE ( 'NONE', *, *, #279, .T. ) ;
#1040 = DIRECTION ( 'NONE',  ( 0.000000000000000000, -1.000000000000000000, -0.000000000000000000 ) ) ;
#1041 = ORIENTED_EDGE ( 'NONE', *, *, #1170, .T. ) ;
#1042 = DIRECTION ( 'NONE',  ( 1.000000000000000000, 0.000000000000000000, 0.000000000000000000 ) ) ;
#1043 = DIRECTION ( 'NONE',  ( 0.000000000000000000, -1.000000000000000000, 0.000000000000000000 ) ) ;
#1044 = EDGE_LOOP ( 'NONE', ( #1129, #328, #724, #48 ) ) ;
#1045 = ADVANCED_FACE ( 'NONE', ( #504 ), #1088, .T. ) ;
#1046 = ORIENTED_EDGE ( 'NONE', *, *, #315, .T. ) ;
#1047 = LINE ( 'NONE', #718, #707 ) ;
#1048 = ORIENTED_EDGE ( 'NONE', *, *, #962, .F. ) ;
#1049 = DIRECTION ( 'NONE',  ( -1.000000000000000000, 0.000000000000000000, 0.000000000000000000 ) ) ;
#1050 = EDGE_CURVE ( 'NONE', #71, #590, #596, .T. ) ;
#1051 = CARTESIAN_POINT ( 'NONE',  ( 0.5500000000000001554, 0.04500000000000001221, -0.4549999999999997935 ) ) ;
#1052 = EDGE_LOOP ( 'NONE', ( #1213, #1, #1019, #732 ) ) ;
#1053 = ORIENTED_EDGE ( 'NONE', *, *, #24, .F. ) ;
#1054 = ADVANCED_FACE ( 'NONE', ( #497 ), #502, .T. ) ;
#1055 = CARTESIAN_POINT ( 'NONE',  ( 0.8550000000000000933, 0.04500000000000001221, -0.4999999999999997780 ) ) ;
#1056 = ORIENTED_EDGE ( 'NONE', *, *, #822, .T. ) ;
#1057 = EDGE_CURVE ( 'NONE', #236, #426, #1008, .T. ) ;
#1058 = AXIS2_PLACEMENT_3D ( 'NONE', #1233, #336, #151 ) ;
#1059 = LINE ( 'NONE', #472, #410 ) ;
#1060 = VECTOR ( 'NONE', #445, 1000.000000000000000 ) ;
#1061 = CARTESIAN_POINT ( 'NONE',  ( 500000.0000000000582, 0.01499999999999999251, 0.4549999999566316511 ) ) ;
#1062 = ORIENTED_EDGE ( 'NONE', *, *, #758, .T. ) ;
#1063 = ORIENTED_EDGE ( 'NONE', *, *, #279, .F. ) ;
#1064 = AXIS2_PLACEMENT_3D ( 'NONE', #352, #1066, #666 ) ;
#1065 = VECTOR ( 'NONE', #799, 1000.000000000000000 ) ;
#1066 = DIRECTION ( 'NONE',  ( 0.000000000000000000, -1.000000000000000000, 0.000000000000000000 ) ) ;
#1067 = CARTESIAN_POINT ( 'NONE',  ( -0.5500000000000001554, 0.7999999999999999334, -0.4549999999999997935 ) ) ;
#1068 = FACE_OUTER_BOUND ( 'NONE', #947, .T. ) ;
#1069 = CARTESIAN_POINT ( 'NONE',  ( -0.8550000000000000933, 0.7999999999999999334, 0.4999999999999997780 ) ) ;
#1070 = CARTESIAN_POINT ( 'NONE',  ( 0.000000000000000000, 0.000000000000000000, 0.4549999999999997935 ) ) ;
#1071 =( NAMED_UNIT ( * ) PLANE_ANGLE_UNIT ( ) SI_UNIT ( $, .RADIAN. ) );
#1072 = LINE ( 'NONE', #683, #985 ) ;
#1073 = CARTESIAN_POINT ( 'NONE',  ( -0.9000000000000001332, 0.7999999999999999334, -0.4999999999999997780 ) ) ;
#1074 = EDGE_CURVE ( 'NONE', #967, #125, #408, .T. ) ;
#1075 = EDGE_CURVE ( 'NONE', #1195, #1147, #643, .T. ) ;
#1076 = CARTESIAN_POINT ( 'NONE',  ( 0.8549999999999999822, 0.000000000000000000, 9.269928574751067841E-17 ) ) ;
#1077 = ORIENTED_EDGE ( 'NONE', *, *, #358, .T. ) ;
#1078 = ADVANCED_FACE ( 'NONE', ( #1000 ), #395, .T. ) ;
#1079 = CIRCLE ( 'NONE', #166, 0.04500000000000001221 ) ;
#1080 = AXIS2_PLACEMENT_3D ( 'NONE', #26, #296, #589 ) ;
#1081 = PRODUCT_DEFINITION_FORMATION_WITH_SPECIFIED_SOURCE ( 'ANY', '', #606, .NOT_KNOWN. ) ;
#1082 = ADVANCED_FACE ( 'NONE', ( #301 ), #202, .T. ) ;
#1083 = ORIENTED_EDGE ( 'NONE', *, *, #1111, .F. ) ;
#1084 = DIRECTION ( 'NONE',  ( 0.000000000000000000, 0.000000000000000000, 1.000000000000000000 ) ) ;
#1085 = ORIENTED_EDGE ( 'NONE', *, *, #818, .F. ) ;
#1086 = CARTESIAN_POINT ( 'NONE',  ( -0.5500000000000000444, 0.7549999999999998934, 0.4849999999999997646 ) ) ;
#1087 = ORIENTED_EDGE ( 'NONE', *, *, #285, .T. ) ;
#1088 = SPHERICAL_SURFACE ( 'NONE', #323, 0.04499999999999999833 ) ;
#1089 = DIRECTION ( 'NONE',  ( 1.000000000000000000, 0.000000000000000000, 2.168404344971010101E-16 ) ) ;
#1090 = DIRECTION ( 'NONE',  ( -1.000000000000000000, 0.000000000000000000, 0.000000000000000000 ) ) ;
#1091 = EDGE_CURVE ( 'NONE', #1155, #60, #1135, .T. ) ;
#1092 = FACE_OUTER_BOUND ( 'NONE', #961, .T. ) ;
#1093 = CARTESIAN_POINT ( 'NONE',  ( 0.5499999999756255420, 0.01499999999999999944, 0.4549999998482115449 ) ) ;
#1094 = CIRCLE ( 'NONE', #449, 0.04500000000000001221 ) ;
#1095 = VECTOR ( 'NONE', #226, 1000.000000000000000 ) ;
#1096 = EDGE_CURVE ( 'NONE', #626, #1256, #25, .T. ) ;
#1097 = AXIS2_PLACEMENT_3D ( 'NONE', #55, #362, #1016 ) ;
#1098 = DIRECTION ( 'NONE',  ( 0.000000000000000000, -1.000000000000000000, 0.000000000000000000 ) ) ;
#1099 = DIRECTION ( 'NONE',  ( 1.000000000000000000, 0.000000000000000000, 0.000000000000000000 ) ) ;
#1100 = DIRECTION ( 'NONE',  ( -0.000000000000000000, 0.000000000000000000, -1.000000000000000000 ) ) ;
#1101 = DIRECTION ( 'NONE',  ( -1.000000000000000000, -0.000000000000000000, 8.673617379884037937E-17 ) ) ;
#1102 = ORIENTED_EDGE ( 'NONE', *, *, #36, .T. ) ;
#1103 = EDGE_CURVE ( 'NONE', #233, #1256, #168, .T. ) ;
#1104 = EDGE_CURVE ( 'NONE', #366, #121, #509, .T. ) ;
#1105 = LINE ( 'NONE', #262, #958 ) ;
#1106 = DIRECTION ( 'NONE',  ( 0.000000000000000000, 0.000000000000000000, 1.000000000000000000 ) ) ;
#1107 = ORIENTED_EDGE ( 'NONE', *, *, #1191, .F. ) ;
#1108 = MECHANICAL_DESIGN_GEOMETRIC_PRESENTATION_REPRESENTATION (  '', ( #952 ), #534 ) ;
#1109 = AXIS2_PLACEMENT_3D ( 'NONE', #429, #114, #1099 ) ;
#1110 = CIRCLE ( 'NONE', #406, 0.04500000000000001221 ) ;
#1111 = EDGE_CURVE ( 'NONE', #341, #340, #803, .T. ) ;
#1112 = DIRECTION ( 'NONE',  ( -1.000000000000000000, 0.000000000000000000, 0.000000000000000000 ) ) ;
#1113 = AXIS2_PLACEMENT_3D ( 'NONE', #764, #254, #31 ) ;
#1114 = CARTESIAN_POINT ( 'NONE',  ( 0.000000000000000000, 0.7999999999999999334, 0.000000000000000000 ) ) ;
#1115 = DIRECTION ( 'NONE',  ( 0.000000000000000000, -1.000000000000000000, 0.000000000000000000 ) ) ;
#1116 = VERTEX_POINT ( 'NONE', #856 ) ;
#1117 = DIRECTION ( 'NONE',  ( 2.409338161078897997E-15, 0.000000000000000000, 1.000000000000000000 ) ) ;
#1118 = DIRECTION ( 'NONE',  ( 0.000000000000000000, 0.000000000000000000, -1.000000000000000000 ) ) ;
#1119 = CARTESIAN_POINT ( 'NONE',  ( 0.000000000000000000, 0.000000000000000000, -0.4549999999999997935 ) ) ;
#1120 = CARTESIAN_POINT ( 'NONE',  ( -0.5500000000000000444, 0.04500000000000001221, 0.4549999999999997935 ) ) ;
#1121 = ORIENTED_EDGE ( 'NONE', *, *, #1012, .F. ) ;
#1122 = ORIENTED_EDGE ( 'NONE', *, *, #557, .F. ) ;
#1123 = CARTESIAN_POINT ( 'NONE',  ( 500000.0000000000582, 0.01499999999999999944, -0.4550000000433679359 ) ) ;
#1124 = CARTESIAN_POINT ( 'NONE',  ( -0.9000000000000001332, 0.04500000000000001221, -0.4999999999999997780 ) ) ;
#1125 = ADVANCED_FACE ( 'NONE', ( #917 ), #659, .T. ) ;
#1126 = FACE_OUTER_BOUND ( 'NONE', #527, .T. ) ;
#1127 = DIRECTION ( 'NONE',  ( -1.084202172485505050E-16, -0.000000000000000000, -1.000000000000000000 ) ) ;
#1128 = VERTEX_POINT ( 'NONE', #1067 ) ;
#1129 = ORIENTED_EDGE ( 'NONE', *, *, #650, .F. ) ;
#1130 = CARTESIAN_POINT ( 'NONE',  ( -0.5500000000000000444, 0.7549999999999998934, -0.4549999999999997935 ) ) ;
#1131 = ORIENTED_EDGE ( 'NONE', *, *, #294, .T. ) ;
#1132 = CIRCLE ( 'NONE', #581, 0.04500000000000001221 ) ;
#1133 = VECTOR ( 'NONE', #873, 1000.000000000000000 ) ;
#1134 = CIRCLE ( 'NONE', #982, 0.03000000000000002318 ) ;
#1135 = CIRCLE ( 'NONE', #747, 0.04500000000000001221 ) ;
#1136 = FACE_OUTER_BOUND ( 'NONE', #874, .T. ) ;
#1137 = DIRECTION ( 'NONE',  ( -1.000000000000000000, 0.000000000000000000, 8.673617379884035472E-17 ) ) ;
#1138 = ORIENTED_EDGE ( 'NONE', *, *, #905, .T. ) ;
#1139 = CIRCLE ( 'NONE', #584, 0.04500000000000001221 ) ;
#1140 = ORIENTED_EDGE ( 'NONE', *, *, #16, .F. ) ;
#1141 = PRESENTATION_STYLE_ASSIGNMENT (( #342 ) ) ;
#1142 = CARTESIAN_POINT ( 'NONE',  ( 0.8550000000000000933, 0.7549999999999998934, 9.269928574751069074E-17 ) ) ;
#1143 = VERTEX_POINT ( 'NONE', #969 ) ;
#1144 = ADVANCED_FACE ( 'NONE', ( #749 ), #950, .T. ) ;
#1145 = CARTESIAN_POINT ( 'NONE',  ( 0.9000000000000001332, 0.7999999999999999334, -0.4999999999999997780 ) ) ;
#1146 = LINE ( 'NONE', #1061, #1060 ) ;
#1147 = VERTEX_POINT ( 'NONE', #616 ) ;
#1148 = ORIENTED_EDGE ( 'NONE', *, *, #992, .F. ) ;
#1149 = PLANE ( 'NONE',  #746 ) ;
#1150 = EDGE_CURVE ( 'NONE', #389, #590, #1105, .T. ) ;
#1151 = DIRECTION ( 'NONE',  ( -1.084202172485505050E-16, 0.000000000000000000, 1.000000000000000000 ) ) ;
#1152 = ORIENTED_EDGE ( 'NONE', *, *, #127, .T. ) ;
#1153 = DIRECTION ( 'NONE',  ( -2.168404344971009854E-16, -0.000000000000000000, -1.000000000000000000 ) ) ;
#1154 = DIRECTION ( 'NONE',  ( -1.000000000000000000, -0.000000000000000000, 8.673617379884037937E-17 ) ) ;
#1155 = VERTEX_POINT ( 'NONE', #174 ) ;
#1156 = EDGE_LOOP ( 'NONE', ( #745, #1102, #96 ) ) ;
#1157 =( NAMED_UNIT ( * ) SI_UNIT ( $, .STERADIAN. ) SOLID_ANGLE_UNIT ( ) );
#1158 = DIRECTION ( 'NONE',  ( -1.000000000000000000, -0.000000000000000000, 8.673617379884037937E-17 ) ) ;
#1159 = DIRECTION ( 'NONE',  ( 0.000000000000000000, -1.000000000000000000, 0.000000000000000000 ) ) ;
#1160 = AXIS2_PLACEMENT_3D ( 'NONE', #1190, #1159, #696 ) ;
#1161 = STYLED_ITEM ( 'NONE', ( #10 ), #1225 ) ;
#1162 = DIRECTION ( 'NONE',  ( 0.000000000000000000, 0.000000000000000000, 1.000000000000000000 ) ) ;
#1163 = CIRCLE ( 'NONE', #89, 0.04500000000000001221 ) ;
#1164 = LINE ( 'NONE', #662, #480 ) ;
#1165 = EDGE_LOOP ( 'NONE', ( #146, #266, #40, #1231 ) ) ;
#1166 = ORIENTED_EDGE ( 'NONE', *, *, #376, .T. ) ;
#1167 = AXIS2_PLACEMENT_3D ( 'NONE', #1130, #748, #180 ) ;
#1168 = VECTOR ( 'NONE', #1176, 1000.000000000000000 ) ;
#1169 =( NAMED_UNIT ( * ) PLANE_ANGLE_UNIT ( ) SI_UNIT ( $, .RADIAN. ) );
#1170 = EDGE_CURVE ( 'NONE', #426, #297, #372, .T. ) ;
#1171 = CARTESIAN_POINT ( 'NONE',  ( -0.9000000000000001332, 0.04500000000000001221, -0.4549999999999997935 ) ) ;
#1172 = PLANE ( 'NONE',  #243 ) ;
#1173 = ORIENTED_EDGE ( 'NONE', *, *, #882, .T. ) ;
#1174 = SURFACE_SIDE_STYLE ('',( #783 ) ) ;
#1175 = ADVANCED_FACE ( 'NONE', ( #216 ), #442, .T. ) ;
#1176 = DIRECTION ( 'NONE',  ( -1.084202172485505050E-16, 0.000000000000000000, 1.000000000000000000 ) ) ;
#1177 = ORIENTED_EDGE ( 'NONE', *, *, #937, .T. ) ;
#1178 = SURFACE_STYLE_USAGE ( .BOTH. , #1174 ) ;
#1179 = CARTESIAN_POINT ( 'NONE',  ( -0.5500000000000000444, 0.7549999999999998934, -0.4549999999999997935 ) ) ;
#1180 = AXIS2_PLACEMENT_3D ( 'NONE', #1031, #832, #739 ) ;
#1181 = VERTEX_POINT ( 'NONE', #623 ) ;
#1182 = AXIS2_PLACEMENT_3D ( 'NONE', #129, #1223, #415 ) ;
#1183 = CYLINDRICAL_SURFACE ( 'NONE', #1201, 0.04500000000000001221 ) ;
#1184 = DIRECTION ( 'NONE',  ( -1.000000000000000000, 0.000000000000000000, 0.000000000000000000 ) ) ;
#1185 = AXIS2_PLACEMENT_3D ( 'NONE', #735, #331, #424 ) ;
#1186 = VECTOR ( 'NONE', #897, 1000.000000000000000 ) ;
#1187 = ORIENTED_EDGE ( 'NONE', *, *, #1091, .F. ) ;
#1188 = SPHERICAL_SURFACE ( 'NONE', #9, 0.04499999999999999833 ) ;
#1189 = ORIENTED_EDGE ( 'NONE', *, *, #551, .F. ) ;
#1190 = CARTESIAN_POINT ( 'NONE',  ( 500000.0000000000582, 0.7849999999999999201, -0.4550000000433679359 ) ) ;
#1191 = EDGE_CURVE ( 'NONE', #626, #757, #1047, .T. ) ;
#1192 = LINE ( 'NONE', #299, #188 ) ;
#1193 = EDGE_CURVE ( 'NONE', #1155, #967, #452, .T. ) ;
#1194 = CARTESIAN_POINT ( 'NONE',  ( 0.000000000000000000, 0.000000000000000000, 0.000000000000000000 ) ) ;
#1195 = VERTEX_POINT ( 'NONE', #1055 ) ;
#1196 = DIRECTION ( 'NONE',  ( 0.000000000000000000, -1.000000000000000000, 0.000000000000000000 ) ) ;
#1197 = DIRECTION ( 'NONE',  ( -2.168404344971010101E-16, 0.000000000000000000, 1.000000000000000000 ) ) ;
#1198 = DIRECTION ( 'NONE',  ( -1.000000000000000000, 0.000000000000000000, 0.000000000000000000 ) ) ;
#1199 = ADVANCED_FACE ( 'NONE', ( #419 ), #353, .T. ) ;
#1200 = PRESENTATION_STYLE_ASSIGNMENT (( #996 ) ) ;
#1201 = AXIS2_PLACEMENT_3D ( 'NONE', #116, #1208, #1212 ) ;
#1202 = COLOUR_RGB ( '',0.7921568627450980005, 0.8196078431372548767, 0.9333333333333333481 ) ;
#1203 = DIRECTION ( 'NONE',  ( 1.000000000000000000, 0.000000000000000000, 0.000000000000000000 ) ) ;
#1204 = AXIS2_PLACEMENT_3D ( 'NONE', #122, #669, #652 ) ;
#1205 = CARTESIAN_POINT ( 'NONE',  ( -0.8550000000000000933, 0.7549999999999998934, 0.4549999999999997935 ) ) ;
#1206 = EDGE_CURVE ( 'NONE', #53, #233, #516, .T. ) ;
#1207 = PRODUCT_DEFINITION ( 'UNKNOWN', '', #1081, #677 ) ;
#1208 = DIRECTION ( 'NONE',  ( 0.000000000000000000, -1.000000000000000000, 0.000000000000000000 ) ) ;
#1209 = EDGE_LOOP ( 'NONE', ( #867, #811, #447, #193 ) ) ;
#1210 = DIRECTION ( 'NONE',  ( 0.000000000000000000, 1.000000000000000000, 0.000000000000000000 ) ) ;
#1211 = CARTESIAN_POINT ( 'NONE',  ( 0.5500000000000001554, 0.7999999999999999334, -0.4999999999999997780 ) ) ;
#1212 = DIRECTION ( 'NONE',  ( 0.000000000000000000, 0.000000000000000000, -1.000000000000000000 ) ) ;
#1213 = ORIENTED_EDGE ( 'NONE', *, *, #692, .F. ) ;
#1214 = FILL_AREA_STYLE_COLOUR ( '', #244 ) ;
#1215 = CARTESIAN_POINT ( 'NONE',  ( 0.5499999999999999334, 0.04500000000000022732, 0.4999999999999997780 ) ) ;
#1216 = CARTESIAN_POINT ( 'NONE',  ( 0.000000000000000000, 0.000000000000000000, 0.000000000000000000 ) ) ;
#1217 = FACE_OUTER_BOUND ( 'NONE', #300, .T. ) ;
#1218 = VERTEX_POINT ( 'NONE', #470 ) ;
#1219 = APPLICATION_CONTEXT ( 'automotive_design' ) ;
#1220 = AXIS2_PLACEMENT_3D ( 'NONE', #181, #892, #185 ) ;
#1221 = AXIS2_PLACEMENT_3D ( 'NONE', #50, #1222, #144 ) ;
#1222 = DIRECTION ( 'NONE',  ( -0.000000000000000000, -0.000000000000000000, -1.000000000000000000 ) ) ;
#1223 = DIRECTION ( 'NONE',  ( 0.000000000000000000, -1.000000000000000000, -0.000000000000000000 ) ) ;
#1224 = ORIENTED_EDGE ( 'NONE', *, *, #916, .F. ) ;
#1225 = ADVANCED_BREP_SHAPE_REPRESENTATION ( 'GRM_Auto_Q3_1.8_1_0.8_0.35', ( #587, #599, #157, #72 ), #272 ) ;
#1226 = ORIENTED_EDGE ( 'NONE', *, *, #1104, .T. ) ;
#1227 = EDGE_CURVE ( 'NONE', #1181, #1232, #1257, .T. ) ;
#1228 = EDGE_LOOP ( 'NONE', ( #443, #542, #1063, #795 ) ) ;
#1229 = CARTESIAN_POINT ( 'NONE',  ( -0.8549999999999999822, 0.04500000000000001221, 0.4999999999999997780 ) ) ;
#1230 = DIRECTION ( 'NONE',  ( 1.000000000000000000, 0.000000000000000000, -8.673617379884036705E-17 ) ) ;
#1231 = ORIENTED_EDGE ( 'NONE', *, *, #435, .F. ) ;
#1232 = VERTEX_POINT ( 'NONE', #163 ) ;
#1233 = CARTESIAN_POINT ( 'NONE',  ( -0.8550000000000002043, 0.7549999999999998934, -0.4549999999999997935 ) ) ;
#1234 = FACE_OUTER_BOUND ( 'NONE', #422, .T. ) ;
#1235 = FACE_OUTER_BOUND ( 'NONE', #885, .T. ) ;
#1236 = ORIENTED_EDGE ( 'NONE', *, *, #1259, .F. ) ;
#1237 = EDGE_LOOP ( 'NONE', ( #831, #869, #675, #639, #137, #966, #90, #154 ) ) ;
#1238 = CYLINDRICAL_SURFACE ( 'NONE', #1220, 0.04500000000000001221 ) ;
#1239 = ORIENTED_EDGE ( 'NONE', *, *, #1103, .T. ) ;
#1240 = VECTOR ( 'NONE', #329, 1000.000000000000000 ) ;
#1241 = VECTOR ( 'NONE', #132, 1000.000000000000000 ) ;
#1242 = AXIS2_PLACEMENT_3D ( 'NONE', #819, #741, #37 ) ;
#1243 = AXIS2_PLACEMENT_3D ( 'NONE', #785, #82, #953 ) ;
#1244 = EDGE_CURVE ( 'NONE', #260, #520, #960, .T. ) ;
#1245 = CARTESIAN_POINT ( 'NONE',  ( 0.5500000000893123797, 0.01499999999999999944, -0.4549999999999999045 ) ) ;
#1246 = LINE ( 'NONE', #965, #825 ) ;
#1247 = ORIENTED_EDGE ( 'NONE', *, *, #1248, .T. ) ;
#1248 = EDGE_CURVE ( 'NONE', #350, #131, #863, .T. ) ;
#1249 = ORIENTED_EDGE ( 'NONE', *, *, #891, .F. ) ;
#1250 = PRESENTATION_STYLE_ASSIGNMENT (( #147 ) ) ;
#1251 = CARTESIAN_POINT ( 'NONE',  ( 0.9000000000000001332, 0.7549999999999998934, -0.4999999999999997780 ) ) ;
#1252 = LINE ( 'NONE', #562, #1240 ) ;
#1253 = DIRECTION ( 'NONE',  ( 0.000000000000000000, 0.000000000000000000, -1.000000000000000000 ) ) ;
#1254 = CARTESIAN_POINT ( 'NONE',  ( 500000.0000000000582, 0.7549999999999998934, 0.4849999999566316222 ) ) ;
#1255 = VERTEX_POINT ( 'NONE', #1215 ) ;
#1256 = VERTEX_POINT ( 'NONE', #317 ) ;
#1257 = LINE ( 'NONE', #569, #107 ) ;
#1258 = CARTESIAN_POINT ( 'NONE',  ( 0.5499999999756255420, 0.7549999999999998934, -0.4549999999999999045 ) ) ;
#1259 = EDGE_CURVE ( 'NONE', #1116, #184, #311, .T. ) ;
#1260 = CARTESIAN_POINT ( 'NONE',  ( 500000.0000000000582, 0.7549999999999998934, 0.4549999999566316511 ) ) ;
#1261 = DIRECTION ( 'NONE',  ( -8.673617379884035472E-17, 0.000000000000000000, -1.000000000000000000 ) ) ;
#1262 = ORIENTED_EDGE ( 'NONE', *, *, #361, .T. ) ;
#1263 = ORIENTED_EDGE ( 'NONE', *, *, #1050, .T. ) ;
#1264 = DIRECTION ( 'NONE',  ( 0.000000000000000000, 0.000000000000000000, -1.000000000000000000 ) ) ;
#1265 =( LENGTH_UNIT ( ) NAMED_UNIT ( * ) SI_UNIT ( .MILLI., .METRE. ) );
#1266 = DIRECTION ( 'NONE',  ( 1.000000000000000000, 0.000000000000000000, 0.000000000000000000 ) ) ;
#1267 = AXIS2_PLACEMENT_3D ( 'NONE', #175, #800, #1197 ) ;
#1268 = DIRECTION ( 'NONE',  ( 0.000000000000000000, 0.000000000000000000, 1.000000000000000000 ) ) ;
#1269 = CIRCLE ( 'NONE', #6, 0.02999999999999997113 ) ;
#1270 = CARTESIAN_POINT ( 'NONE',  ( 0.8550000000000000933, 0.7549999999999998934, -0.4999999999999997780 ) ) ;
#1271 = CIRCLE ( 'NONE', #451, 0.03000000000000002318 ) ;
#1272 = VECTOR ( 'NONE', #80, 1000.000000000000000 ) ;
#1273 = EDGE_CURVE ( 'NONE', #359, #541, #463, .T. ) ;
#1274 = DIRECTION ( 'NONE',  ( 1.084202172485505050E-16, -0.000000000000000000, 1.000000000000000000 ) ) ;
#1275 = ORIENTED_EDGE ( 'NONE', *, *, #127, .F. ) ;
#1276 = PLANE ( 'NONE',  #8 ) ;
#1277 = FILL_AREA_STYLE ('',( #975 ) ) ;
#1278 = ADVANCED_FACE ( 'NONE', ( #943 ), #1238, .T. ) ;
#1279 = CARTESIAN_POINT ( 'NONE',  ( 0.8550000000000000933, 0.7999999999999999334, 0.4999999999999997780 ) ) ;
#1280 = ORIENTED_EDGE ( 'NONE', *, *, #485, .T. ) ;
ENDSEC;
END-ISO-10303-21;
