ISO-10303-21;
HEADER;
/* Generated by software containing ST-Developer
 * from STEP Tools, Inc. (www.steptools.com) 
 */

FILE_DESCRIPTION(
/* description */ (''),
/* implementation_level */ '2;1');

FILE_NAME(
/* name */ 'gps board.stp',
/* time_stamp */ '2025-10-18T13:49:10-04:00',
/* author */ ('persf'),
/* organization */ (''),
/* preprocessor_version */ 'ST-DEVELOPER v20.1',
/* originating_system */ 'Autodesk Inventor 2026',
/* authorisation */ '');

FILE_SCHEMA (('AUTOMOTIVE_DESIGN { 1 0 10303 214 3 1 1 }'));
ENDSEC;

DATA;
#10=MECHANICAL_DESIGN_GEOMETRIC_PRESENTATION_REPRESENTATION('',(#13),#1518);
#11=SHAPE_REPRESENTATION_RELATIONSHIP('SRR','None',#1525,#12);
#12=ADVANCED_BREP_SHAPE_REPRESENTATION('',(#14),#1517);
#13=STYLED_ITEM('',(#1534),#14);
#14=MANIFOLD_SOLID_BREP('Solid1',#889);
#15=FACE_BOUND('',#168,.T.);
#16=FACE_BOUND('',#169,.T.);
#17=FACE_BOUND('',#170,.T.);
#18=FACE_BOUND('',#171,.T.);
#19=FACE_BOUND('',#172,.T.);
#20=FACE_BOUND('',#173,.T.);
#21=FACE_BOUND('',#174,.T.);
#22=FACE_BOUND('',#175,.T.);
#23=FACE_BOUND('',#176,.T.);
#24=FACE_BOUND('',#177,.T.);
#25=FACE_BOUND('',#178,.T.);
#26=FACE_BOUND('',#179,.T.);
#27=FACE_BOUND('',#180,.T.);
#28=FACE_BOUND('',#181,.T.);
#29=FACE_BOUND('',#182,.T.);
#30=FACE_BOUND('',#183,.T.);
#31=FACE_BOUND('',#184,.T.);
#32=FACE_BOUND('',#185,.T.);
#33=FACE_BOUND('',#186,.T.);
#34=FACE_BOUND('',#187,.T.);
#35=FACE_BOUND('',#188,.T.);
#36=FACE_BOUND('',#189,.T.);
#37=FACE_BOUND('',#190,.T.);
#38=FACE_BOUND('',#191,.T.);
#39=FACE_BOUND('',#192,.T.);
#40=FACE_BOUND('',#193,.T.);
#41=FACE_BOUND('',#194,.T.);
#42=FACE_BOUND('',#195,.T.);
#43=FACE_BOUND('',#196,.T.);
#44=FACE_BOUND('',#197,.T.);
#45=FACE_BOUND('',#198,.T.);
#46=FACE_BOUND('',#199,.T.);
#47=FACE_BOUND('',#200,.T.);
#48=FACE_BOUND('',#201,.T.);
#49=FACE_BOUND('',#203,.T.);
#50=FACE_BOUND('',#204,.T.);
#51=FACE_BOUND('',#205,.T.);
#52=FACE_BOUND('',#206,.T.);
#53=FACE_BOUND('',#207,.T.);
#54=FACE_BOUND('',#208,.T.);
#55=FACE_BOUND('',#209,.T.);
#56=FACE_BOUND('',#210,.T.);
#57=FACE_BOUND('',#211,.T.);
#58=FACE_BOUND('',#212,.T.);
#59=FACE_BOUND('',#213,.T.);
#60=FACE_BOUND('',#214,.T.);
#61=FACE_BOUND('',#215,.T.);
#62=FACE_BOUND('',#216,.T.);
#63=FACE_BOUND('',#217,.T.);
#64=FACE_BOUND('',#218,.T.);
#65=FACE_BOUND('',#219,.T.);
#66=FACE_BOUND('',#220,.T.);
#67=FACE_BOUND('',#221,.T.);
#68=FACE_BOUND('',#222,.T.);
#69=FACE_BOUND('',#223,.T.);
#70=FACE_BOUND('',#224,.T.);
#71=FACE_BOUND('',#225,.T.);
#72=FACE_BOUND('',#226,.T.);
#73=FACE_BOUND('',#227,.T.);
#74=FACE_BOUND('',#228,.T.);
#75=FACE_BOUND('',#229,.T.);
#76=FACE_BOUND('',#230,.T.);
#77=FACE_BOUND('',#231,.T.);
#78=FACE_BOUND('',#232,.T.);
#79=FACE_BOUND('',#233,.T.);
#80=FACE_BOUND('',#234,.T.);
#81=FACE_BOUND('',#235,.T.);
#82=FACE_BOUND('',#236,.T.);
#83=PLANE('',#1014);
#84=PLANE('',#1015);
#85=PLANE('',#1016);
#86=PLANE('',#1017);
#87=PLANE('',#1018);
#88=PLANE('',#1019);
#89=FACE_OUTER_BOUND('',#129,.T.);
#90=FACE_OUTER_BOUND('',#130,.T.);
#91=FACE_OUTER_BOUND('',#131,.T.);
#92=FACE_OUTER_BOUND('',#132,.T.);
#93=FACE_OUTER_BOUND('',#133,.T.);
#94=FACE_OUTER_BOUND('',#134,.T.);
#95=FACE_OUTER_BOUND('',#135,.T.);
#96=FACE_OUTER_BOUND('',#136,.T.);
#97=FACE_OUTER_BOUND('',#137,.T.);
#98=FACE_OUTER_BOUND('',#138,.T.);
#99=FACE_OUTER_BOUND('',#139,.T.);
#100=FACE_OUTER_BOUND('',#140,.T.);
#101=FACE_OUTER_BOUND('',#141,.T.);
#102=FACE_OUTER_BOUND('',#142,.T.);
#103=FACE_OUTER_BOUND('',#143,.T.);
#104=FACE_OUTER_BOUND('',#144,.T.);
#105=FACE_OUTER_BOUND('',#145,.T.);
#106=FACE_OUTER_BOUND('',#146,.T.);
#107=FACE_OUTER_BOUND('',#147,.T.);
#108=FACE_OUTER_BOUND('',#148,.T.);
#109=FACE_OUTER_BOUND('',#149,.T.);
#110=FACE_OUTER_BOUND('',#150,.T.);
#111=FACE_OUTER_BOUND('',#151,.T.);
#112=FACE_OUTER_BOUND('',#152,.T.);
#113=FACE_OUTER_BOUND('',#153,.T.);
#114=FACE_OUTER_BOUND('',#154,.T.);
#115=FACE_OUTER_BOUND('',#155,.T.);
#116=FACE_OUTER_BOUND('',#156,.T.);
#117=FACE_OUTER_BOUND('',#157,.T.);
#118=FACE_OUTER_BOUND('',#158,.T.);
#119=FACE_OUTER_BOUND('',#159,.T.);
#120=FACE_OUTER_BOUND('',#160,.T.);
#121=FACE_OUTER_BOUND('',#161,.T.);
#122=FACE_OUTER_BOUND('',#162,.T.);
#123=FACE_OUTER_BOUND('',#163,.T.);
#124=FACE_OUTER_BOUND('',#164,.T.);
#125=FACE_OUTER_BOUND('',#165,.T.);
#126=FACE_OUTER_BOUND('',#166,.T.);
#127=FACE_OUTER_BOUND('',#167,.T.);
#128=FACE_OUTER_BOUND('',#202,.T.);
#129=EDGE_LOOP('',(#587,#588,#589,#590));
#130=EDGE_LOOP('',(#591,#592,#593,#594));
#131=EDGE_LOOP('',(#595,#596,#597,#598));
#132=EDGE_LOOP('',(#599,#600,#601,#602));
#133=EDGE_LOOP('',(#603,#604,#605,#606));
#134=EDGE_LOOP('',(#607,#608,#609,#610));
#135=EDGE_LOOP('',(#611,#612,#613,#614));
#136=EDGE_LOOP('',(#615,#616,#617,#618));
#137=EDGE_LOOP('',(#619,#620,#621,#622));
#138=EDGE_LOOP('',(#623,#624,#625,#626));
#139=EDGE_LOOP('',(#627,#628,#629,#630));
#140=EDGE_LOOP('',(#631,#632,#633,#634));
#141=EDGE_LOOP('',(#635,#636,#637,#638));
#142=EDGE_LOOP('',(#639,#640,#641,#642));
#143=EDGE_LOOP('',(#643,#644,#645,#646));
#144=EDGE_LOOP('',(#647,#648,#649,#650));
#145=EDGE_LOOP('',(#651,#652,#653,#654));
#146=EDGE_LOOP('',(#655,#656,#657,#658));
#147=EDGE_LOOP('',(#659,#660,#661,#662));
#148=EDGE_LOOP('',(#663,#664,#665,#666));
#149=EDGE_LOOP('',(#667,#668,#669,#670));
#150=EDGE_LOOP('',(#671,#672,#673,#674));
#151=EDGE_LOOP('',(#675,#676,#677,#678));
#152=EDGE_LOOP('',(#679,#680,#681,#682));
#153=EDGE_LOOP('',(#683,#684,#685,#686));
#154=EDGE_LOOP('',(#687,#688,#689,#690));
#155=EDGE_LOOP('',(#691,#692,#693,#694));
#156=EDGE_LOOP('',(#695,#696,#697,#698));
#157=EDGE_LOOP('',(#699,#700,#701,#702));
#158=EDGE_LOOP('',(#703,#704,#705,#706));
#159=EDGE_LOOP('',(#707,#708,#709,#710));
#160=EDGE_LOOP('',(#711,#712,#713,#714));
#161=EDGE_LOOP('',(#715,#716,#717,#718));
#162=EDGE_LOOP('',(#719,#720,#721,#722));
#163=EDGE_LOOP('',(#723,#724,#725,#726));
#164=EDGE_LOOP('',(#727,#728,#729,#730));
#165=EDGE_LOOP('',(#731,#732,#733,#734));
#166=EDGE_LOOP('',(#735,#736,#737,#738));
#167=EDGE_LOOP('',(#739,#740,#741,#742));
#168=EDGE_LOOP('',(#743));
#169=EDGE_LOOP('',(#744));
#170=EDGE_LOOP('',(#745));
#171=EDGE_LOOP('',(#746));
#172=EDGE_LOOP('',(#747));
#173=EDGE_LOOP('',(#748));
#174=EDGE_LOOP('',(#749));
#175=EDGE_LOOP('',(#750));
#176=EDGE_LOOP('',(#751));
#177=EDGE_LOOP('',(#752));
#178=EDGE_LOOP('',(#753));
#179=EDGE_LOOP('',(#754));
#180=EDGE_LOOP('',(#755));
#181=EDGE_LOOP('',(#756));
#182=EDGE_LOOP('',(#757));
#183=EDGE_LOOP('',(#758));
#184=EDGE_LOOP('',(#759));
#185=EDGE_LOOP('',(#760));
#186=EDGE_LOOP('',(#761));
#187=EDGE_LOOP('',(#762));
#188=EDGE_LOOP('',(#763));
#189=EDGE_LOOP('',(#764));
#190=EDGE_LOOP('',(#765));
#191=EDGE_LOOP('',(#766));
#192=EDGE_LOOP('',(#767));
#193=EDGE_LOOP('',(#768));
#194=EDGE_LOOP('',(#769));
#195=EDGE_LOOP('',(#770));
#196=EDGE_LOOP('',(#771));
#197=EDGE_LOOP('',(#772));
#198=EDGE_LOOP('',(#773));
#199=EDGE_LOOP('',(#774));
#200=EDGE_LOOP('',(#775));
#201=EDGE_LOOP('',(#776));
#202=EDGE_LOOP('',(#777,#778,#779,#780));
#203=EDGE_LOOP('',(#781));
#204=EDGE_LOOP('',(#782));
#205=EDGE_LOOP('',(#783));
#206=EDGE_LOOP('',(#784));
#207=EDGE_LOOP('',(#785));
#208=EDGE_LOOP('',(#786));
#209=EDGE_LOOP('',(#787));
#210=EDGE_LOOP('',(#788));
#211=EDGE_LOOP('',(#789));
#212=EDGE_LOOP('',(#790));
#213=EDGE_LOOP('',(#791));
#214=EDGE_LOOP('',(#792));
#215=EDGE_LOOP('',(#793));
#216=EDGE_LOOP('',(#794));
#217=EDGE_LOOP('',(#795));
#218=EDGE_LOOP('',(#796));
#219=EDGE_LOOP('',(#797));
#220=EDGE_LOOP('',(#798));
#221=EDGE_LOOP('',(#799));
#222=EDGE_LOOP('',(#800));
#223=EDGE_LOOP('',(#801));
#224=EDGE_LOOP('',(#802));
#225=EDGE_LOOP('',(#803));
#226=EDGE_LOOP('',(#804));
#227=EDGE_LOOP('',(#805));
#228=EDGE_LOOP('',(#806));
#229=EDGE_LOOP('',(#807));
#230=EDGE_LOOP('',(#808));
#231=EDGE_LOOP('',(#809));
#232=EDGE_LOOP('',(#810));
#233=EDGE_LOOP('',(#811));
#234=EDGE_LOOP('',(#812));
#235=EDGE_LOOP('',(#813));
#236=EDGE_LOOP('',(#814));
#237=LINE('',#1289,#283);
#238=LINE('',#1295,#284);
#239=LINE('',#1301,#285);
#240=LINE('',#1307,#286);
#241=LINE('',#1313,#287);
#242=LINE('',#1319,#288);
#243=LINE('',#1325,#289);
#244=LINE('',#1331,#290);
#245=LINE('',#1337,#291);
#246=LINE('',#1343,#292);
#247=LINE('',#1349,#293);
#248=LINE('',#1355,#294);
#249=LINE('',#1361,#295);
#250=LINE('',#1367,#296);
#251=LINE('',#1373,#297);
#252=LINE('',#1379,#298);
#253=LINE('',#1385,#299);
#254=LINE('',#1391,#300);
#255=LINE('',#1397,#301);
#256=LINE('',#1403,#302);
#257=LINE('',#1409,#303);
#258=LINE('',#1415,#304);
#259=LINE('',#1421,#305);
#260=LINE('',#1427,#306);
#261=LINE('',#1433,#307);
#262=LINE('',#1439,#308);
#263=LINE('',#1445,#309);
#264=LINE('',#1451,#310);
#265=LINE('',#1457,#311);
#266=LINE('',#1463,#312);
#267=LINE('',#1469,#313);
#268=LINE('',#1475,#314);
#269=LINE('',#1481,#315);
#270=LINE('',#1487,#316);
#271=LINE('',#1492,#317);
#272=LINE('',#1494,#318);
#273=LINE('',#1496,#319);
#274=LINE('',#1497,#320);
#275=LINE('',#1500,#321);
#276=LINE('',#1502,#322);
#277=LINE('',#1503,#323);
#278=LINE('',#1506,#324);
#279=LINE('',#1508,#325);
#280=LINE('',#1509,#326);
#281=LINE('',#1511,#327);
#282=LINE('',#1512,#328);
#283=VECTOR('',#1026,0.6);
#284=VECTOR('',#1033,0.6);
#285=VECTOR('',#1040,0.6);
#286=VECTOR('',#1047,0.6);
#287=VECTOR('',#1054,0.6);
#288=VECTOR('',#1061,0.6);
#289=VECTOR('',#1068,0.6);
#290=VECTOR('',#1075,0.6);
#291=VECTOR('',#1082,0.6);
#292=VECTOR('',#1089,0.6);
#293=VECTOR('',#1096,0.6);
#294=VECTOR('',#1103,0.6);
#295=VECTOR('',#1110,0.6);
#296=VECTOR('',#1117,0.6);
#297=VECTOR('',#1124,0.6);
#298=VECTOR('',#1131,0.6);
#299=VECTOR('',#1138,0.6);
#300=VECTOR('',#1145,0.6);
#301=VECTOR('',#1152,0.6);
#302=VECTOR('',#1159,0.6);
#303=VECTOR('',#1166,0.6);
#304=VECTOR('',#1173,0.6);
#305=VECTOR('',#1180,0.6);
#306=VECTOR('',#1187,0.6);
#307=VECTOR('',#1194,0.6);
#308=VECTOR('',#1201,0.6);
#309=VECTOR('',#1208,0.6);
#310=VECTOR('',#1215,0.6);
#311=VECTOR('',#1222,0.6);
#312=VECTOR('',#1229,0.6);
#313=VECTOR('',#1236,0.6);
#314=VECTOR('',#1243,0.6);
#315=VECTOR('',#1250,0.6);
#316=VECTOR('',#1257,0.6);
#317=VECTOR('',#1262,10.);
#318=VECTOR('',#1263,10.);
#319=VECTOR('',#1264,10.);
#320=VECTOR('',#1265,10.);
#321=VECTOR('',#1268,10.);
#322=VECTOR('',#1269,10.);
#323=VECTOR('',#1270,10.);
#324=VECTOR('',#1273,10.);
#325=VECTOR('',#1274,10.);
#326=VECTOR('',#1275,10.);
#327=VECTOR('',#1278,10.);
#328=VECTOR('',#1279,10.);
#329=CIRCLE('',#913,0.6);
#330=CIRCLE('',#914,0.6);
#331=CIRCLE('',#916,0.6);
#332=CIRCLE('',#917,0.6);
#333=CIRCLE('',#919,0.6);
#334=CIRCLE('',#920,0.6);
#335=CIRCLE('',#922,0.6);
#336=CIRCLE('',#923,0.6);
#337=CIRCLE('',#925,0.6);
#338=CIRCLE('',#926,0.6);
#339=CIRCLE('',#928,0.6);
#340=CIRCLE('',#929,0.6);
#341=CIRCLE('',#931,0.6);
#342=CIRCLE('',#932,0.6);
#343=CIRCLE('',#934,0.6);
#344=CIRCLE('',#935,0.6);
#345=CIRCLE('',#937,0.6);
#346=CIRCLE('',#938,0.6);
#347=CIRCLE('',#940,0.6);
#348=CIRCLE('',#941,0.6);
#349=CIRCLE('',#943,0.6);
#350=CIRCLE('',#944,0.6);
#351=CIRCLE('',#946,0.6);
#352=CIRCLE('',#947,0.6);
#353=CIRCLE('',#949,0.6);
#354=CIRCLE('',#950,0.6);
#355=CIRCLE('',#952,0.6);
#356=CIRCLE('',#953,0.6);
#357=CIRCLE('',#955,0.6);
#358=CIRCLE('',#956,0.6);
#359=CIRCLE('',#958,0.6);
#360=CIRCLE('',#959,0.6);
#361=CIRCLE('',#961,0.6);
#362=CIRCLE('',#962,0.6);
#363=CIRCLE('',#964,0.6);
#364=CIRCLE('',#965,0.6);
#365=CIRCLE('',#967,0.6);
#366=CIRCLE('',#968,0.6);
#367=CIRCLE('',#970,0.6);
#368=CIRCLE('',#971,0.6);
#369=CIRCLE('',#973,0.6);
#370=CIRCLE('',#974,0.6);
#371=CIRCLE('',#976,0.6);
#372=CIRCLE('',#977,0.6);
#373=CIRCLE('',#979,0.6);
#374=CIRCLE('',#980,0.6);
#375=CIRCLE('',#982,0.6);
#376=CIRCLE('',#983,0.6);
#377=CIRCLE('',#985,0.6);
#378=CIRCLE('',#986,0.6);
#379=CIRCLE('',#988,0.6);
#380=CIRCLE('',#989,0.6);
#381=CIRCLE('',#991,0.6);
#382=CIRCLE('',#992,0.6);
#383=CIRCLE('',#994,0.6);
#384=CIRCLE('',#995,0.6);
#385=CIRCLE('',#997,0.6);
#386=CIRCLE('',#998,0.6);
#387=CIRCLE('',#1000,0.6);
#388=CIRCLE('',#1001,0.6);
#389=CIRCLE('',#1003,0.6);
#390=CIRCLE('',#1004,0.6);
#391=CIRCLE('',#1006,0.6);
#392=CIRCLE('',#1007,0.6);
#393=CIRCLE('',#1009,0.6);
#394=CIRCLE('',#1010,0.6);
#395=CIRCLE('',#1012,0.6);
#396=CIRCLE('',#1013,0.6);
#397=VERTEX_POINT('',#1286);
#398=VERTEX_POINT('',#1288);
#399=VERTEX_POINT('',#1292);
#400=VERTEX_POINT('',#1294);
#401=VERTEX_POINT('',#1298);
#402=VERTEX_POINT('',#1300);
#403=VERTEX_POINT('',#1304);
#404=VERTEX_POINT('',#1306);
#405=VERTEX_POINT('',#1310);
#406=VERTEX_POINT('',#1312);
#407=VERTEX_POINT('',#1316);
#408=VERTEX_POINT('',#1318);
#409=VERTEX_POINT('',#1322);
#410=VERTEX_POINT('',#1324);
#411=VERTEX_POINT('',#1328);
#412=VERTEX_POINT('',#1330);
#413=VERTEX_POINT('',#1334);
#414=VERTEX_POINT('',#1336);
#415=VERTEX_POINT('',#1340);
#416=VERTEX_POINT('',#1342);
#417=VERTEX_POINT('',#1346);
#418=VERTEX_POINT('',#1348);
#419=VERTEX_POINT('',#1352);
#420=VERTEX_POINT('',#1354);
#421=VERTEX_POINT('',#1358);
#422=VERTEX_POINT('',#1360);
#423=VERTEX_POINT('',#1364);
#424=VERTEX_POINT('',#1366);
#425=VERTEX_POINT('',#1370);
#426=VERTEX_POINT('',#1372);
#427=VERTEX_POINT('',#1376);
#428=VERTEX_POINT('',#1378);
#429=VERTEX_POINT('',#1382);
#430=VERTEX_POINT('',#1384);
#431=VERTEX_POINT('',#1388);
#432=VERTEX_POINT('',#1390);
#433=VERTEX_POINT('',#1394);
#434=VERTEX_POINT('',#1396);
#435=VERTEX_POINT('',#1400);
#436=VERTEX_POINT('',#1402);
#437=VERTEX_POINT('',#1406);
#438=VERTEX_POINT('',#1408);
#439=VERTEX_POINT('',#1412);
#440=VERTEX_POINT('',#1414);
#441=VERTEX_POINT('',#1418);
#442=VERTEX_POINT('',#1420);
#443=VERTEX_POINT('',#1424);
#444=VERTEX_POINT('',#1426);
#445=VERTEX_POINT('',#1430);
#446=VERTEX_POINT('',#1432);
#447=VERTEX_POINT('',#1436);
#448=VERTEX_POINT('',#1438);
#449=VERTEX_POINT('',#1442);
#450=VERTEX_POINT('',#1444);
#451=VERTEX_POINT('',#1448);
#452=VERTEX_POINT('',#1450);
#453=VERTEX_POINT('',#1454);
#454=VERTEX_POINT('',#1456);
#455=VERTEX_POINT('',#1460);
#456=VERTEX_POINT('',#1462);
#457=VERTEX_POINT('',#1466);
#458=VERTEX_POINT('',#1468);
#459=VERTEX_POINT('',#1472);
#460=VERTEX_POINT('',#1474);
#461=VERTEX_POINT('',#1478);
#462=VERTEX_POINT('',#1480);
#463=VERTEX_POINT('',#1484);
#464=VERTEX_POINT('',#1486);
#465=VERTEX_POINT('',#1490);
#466=VERTEX_POINT('',#1491);
#467=VERTEX_POINT('',#1493);
#468=VERTEX_POINT('',#1495);
#469=VERTEX_POINT('',#1499);
#470=VERTEX_POINT('',#1501);
#471=VERTEX_POINT('',#1505);
#472=VERTEX_POINT('',#1507);
#473=EDGE_CURVE('',#397,#397,#329,.T.);
#474=EDGE_CURVE('',#397,#398,#237,.T.);
#475=EDGE_CURVE('',#398,#398,#330,.T.);
#476=EDGE_CURVE('',#399,#399,#331,.T.);
#477=EDGE_CURVE('',#399,#400,#238,.T.);
#478=EDGE_CURVE('',#400,#400,#332,.T.);
#479=EDGE_CURVE('',#401,#401,#333,.T.);
#480=EDGE_CURVE('',#401,#402,#239,.T.);
#481=EDGE_CURVE('',#402,#402,#334,.T.);
#482=EDGE_CURVE('',#403,#403,#335,.T.);
#483=EDGE_CURVE('',#403,#404,#240,.T.);
#484=EDGE_CURVE('',#404,#404,#336,.T.);
#485=EDGE_CURVE('',#405,#405,#337,.T.);
#486=EDGE_CURVE('',#405,#406,#241,.T.);
#487=EDGE_CURVE('',#406,#406,#338,.T.);
#488=EDGE_CURVE('',#407,#407,#339,.T.);
#489=EDGE_CURVE('',#407,#408,#242,.T.);
#490=EDGE_CURVE('',#408,#408,#340,.T.);
#491=EDGE_CURVE('',#409,#409,#341,.T.);
#492=EDGE_CURVE('',#409,#410,#243,.T.);
#493=EDGE_CURVE('',#410,#410,#342,.T.);
#494=EDGE_CURVE('',#411,#411,#343,.T.);
#495=EDGE_CURVE('',#411,#412,#244,.T.);
#496=EDGE_CURVE('',#412,#412,#344,.T.);
#497=EDGE_CURVE('',#413,#413,#345,.T.);
#498=EDGE_CURVE('',#413,#414,#245,.T.);
#499=EDGE_CURVE('',#414,#414,#346,.T.);
#500=EDGE_CURVE('',#415,#415,#347,.T.);
#501=EDGE_CURVE('',#415,#416,#246,.T.);
#502=EDGE_CURVE('',#416,#416,#348,.T.);
#503=EDGE_CURVE('',#417,#417,#349,.T.);
#504=EDGE_CURVE('',#417,#418,#247,.T.);
#505=EDGE_CURVE('',#418,#418,#350,.T.);
#506=EDGE_CURVE('',#419,#419,#351,.T.);
#507=EDGE_CURVE('',#419,#420,#248,.T.);
#508=EDGE_CURVE('',#420,#420,#352,.T.);
#509=EDGE_CURVE('',#421,#421,#353,.T.);
#510=EDGE_CURVE('',#421,#422,#249,.T.);
#511=EDGE_CURVE('',#422,#422,#354,.T.);
#512=EDGE_CURVE('',#423,#423,#355,.T.);
#513=EDGE_CURVE('',#423,#424,#250,.T.);
#514=EDGE_CURVE('',#424,#424,#356,.T.);
#515=EDGE_CURVE('',#425,#425,#357,.T.);
#516=EDGE_CURVE('',#425,#426,#251,.T.);
#517=EDGE_CURVE('',#426,#426,#358,.T.);
#518=EDGE_CURVE('',#427,#427,#359,.T.);
#519=EDGE_CURVE('',#427,#428,#252,.T.);
#520=EDGE_CURVE('',#428,#428,#360,.T.);
#521=EDGE_CURVE('',#429,#429,#361,.T.);
#522=EDGE_CURVE('',#429,#430,#253,.T.);
#523=EDGE_CURVE('',#430,#430,#362,.T.);
#524=EDGE_CURVE('',#431,#431,#363,.T.);
#525=EDGE_CURVE('',#431,#432,#254,.T.);
#526=EDGE_CURVE('',#432,#432,#364,.T.);
#527=EDGE_CURVE('',#433,#433,#365,.T.);
#528=EDGE_CURVE('',#433,#434,#255,.T.);
#529=EDGE_CURVE('',#434,#434,#366,.T.);
#530=EDGE_CURVE('',#435,#435,#367,.T.);
#531=EDGE_CURVE('',#435,#436,#256,.T.);
#532=EDGE_CURVE('',#436,#436,#368,.T.);
#533=EDGE_CURVE('',#437,#437,#369,.T.);
#534=EDGE_CURVE('',#437,#438,#257,.T.);
#535=EDGE_CURVE('',#438,#438,#370,.T.);
#536=EDGE_CURVE('',#439,#439,#371,.T.);
#537=EDGE_CURVE('',#439,#440,#258,.T.);
#538=EDGE_CURVE('',#440,#440,#372,.T.);
#539=EDGE_CURVE('',#441,#441,#373,.T.);
#540=EDGE_CURVE('',#441,#442,#259,.T.);
#541=EDGE_CURVE('',#442,#442,#374,.T.);
#542=EDGE_CURVE('',#443,#443,#375,.T.);
#543=EDGE_CURVE('',#443,#444,#260,.T.);
#544=EDGE_CURVE('',#444,#444,#376,.T.);
#545=EDGE_CURVE('',#445,#445,#377,.T.);
#546=EDGE_CURVE('',#445,#446,#261,.T.);
#547=EDGE_CURVE('',#446,#446,#378,.T.);
#548=EDGE_CURVE('',#447,#447,#379,.T.);
#549=EDGE_CURVE('',#447,#448,#262,.T.);
#550=EDGE_CURVE('',#448,#448,#380,.T.);
#551=EDGE_CURVE('',#449,#449,#381,.T.);
#552=EDGE_CURVE('',#449,#450,#263,.T.);
#553=EDGE_CURVE('',#450,#450,#382,.T.);
#554=EDGE_CURVE('',#451,#451,#383,.T.);
#555=EDGE_CURVE('',#451,#452,#264,.T.);
#556=EDGE_CURVE('',#452,#452,#384,.T.);
#557=EDGE_CURVE('',#453,#453,#385,.T.);
#558=EDGE_CURVE('',#453,#454,#265,.T.);
#559=EDGE_CURVE('',#454,#454,#386,.T.);
#560=EDGE_CURVE('',#455,#455,#387,.T.);
#561=EDGE_CURVE('',#455,#456,#266,.T.);
#562=EDGE_CURVE('',#456,#456,#388,.T.);
#563=EDGE_CURVE('',#457,#457,#389,.T.);
#564=EDGE_CURVE('',#457,#458,#267,.T.);
#565=EDGE_CURVE('',#458,#458,#390,.T.);
#566=EDGE_CURVE('',#459,#459,#391,.T.);
#567=EDGE_CURVE('',#459,#460,#268,.T.);
#568=EDGE_CURVE('',#460,#460,#392,.T.);
#569=EDGE_CURVE('',#461,#461,#393,.T.);
#570=EDGE_CURVE('',#461,#462,#269,.T.);
#571=EDGE_CURVE('',#462,#462,#394,.T.);
#572=EDGE_CURVE('',#463,#463,#395,.T.);
#573=EDGE_CURVE('',#463,#464,#270,.T.);
#574=EDGE_CURVE('',#464,#464,#396,.T.);
#575=EDGE_CURVE('',#465,#466,#271,.T.);
#576=EDGE_CURVE('',#466,#467,#272,.T.);
#577=EDGE_CURVE('',#468,#467,#273,.T.);
#578=EDGE_CURVE('',#465,#468,#274,.T.);
#579=EDGE_CURVE('',#469,#465,#275,.T.);
#580=EDGE_CURVE('',#470,#468,#276,.T.);
#581=EDGE_CURVE('',#469,#470,#277,.T.);
#582=EDGE_CURVE('',#471,#469,#278,.T.);
#583=EDGE_CURVE('',#472,#470,#279,.T.);
#584=EDGE_CURVE('',#471,#472,#280,.T.);
#585=EDGE_CURVE('',#466,#471,#281,.T.);
#586=EDGE_CURVE('',#467,#472,#282,.T.);
#587=ORIENTED_EDGE('',*,*,#473,.F.);
#588=ORIENTED_EDGE('',*,*,#474,.T.);
#589=ORIENTED_EDGE('',*,*,#475,.T.);
#590=ORIENTED_EDGE('',*,*,#474,.F.);
#591=ORIENTED_EDGE('',*,*,#476,.F.);
#592=ORIENTED_EDGE('',*,*,#477,.T.);
#593=ORIENTED_EDGE('',*,*,#478,.T.);
#594=ORIENTED_EDGE('',*,*,#477,.F.);
#595=ORIENTED_EDGE('',*,*,#479,.F.);
#596=ORIENTED_EDGE('',*,*,#480,.T.);
#597=ORIENTED_EDGE('',*,*,#481,.T.);
#598=ORIENTED_EDGE('',*,*,#480,.F.);
#599=ORIENTED_EDGE('',*,*,#482,.F.);
#600=ORIENTED_EDGE('',*,*,#483,.T.);
#601=ORIENTED_EDGE('',*,*,#484,.T.);
#602=ORIENTED_EDGE('',*,*,#483,.F.);
#603=ORIENTED_EDGE('',*,*,#485,.F.);
#604=ORIENTED_EDGE('',*,*,#486,.T.);
#605=ORIENTED_EDGE('',*,*,#487,.T.);
#606=ORIENTED_EDGE('',*,*,#486,.F.);
#607=ORIENTED_EDGE('',*,*,#488,.F.);
#608=ORIENTED_EDGE('',*,*,#489,.T.);
#609=ORIENTED_EDGE('',*,*,#490,.T.);
#610=ORIENTED_EDGE('',*,*,#489,.F.);
#611=ORIENTED_EDGE('',*,*,#491,.F.);
#612=ORIENTED_EDGE('',*,*,#492,.T.);
#613=ORIENTED_EDGE('',*,*,#493,.T.);
#614=ORIENTED_EDGE('',*,*,#492,.F.);
#615=ORIENTED_EDGE('',*,*,#494,.F.);
#616=ORIENTED_EDGE('',*,*,#495,.T.);
#617=ORIENTED_EDGE('',*,*,#496,.T.);
#618=ORIENTED_EDGE('',*,*,#495,.F.);
#619=ORIENTED_EDGE('',*,*,#497,.F.);
#620=ORIENTED_EDGE('',*,*,#498,.T.);
#621=ORIENTED_EDGE('',*,*,#499,.T.);
#622=ORIENTED_EDGE('',*,*,#498,.F.);
#623=ORIENTED_EDGE('',*,*,#500,.F.);
#624=ORIENTED_EDGE('',*,*,#501,.T.);
#625=ORIENTED_EDGE('',*,*,#502,.T.);
#626=ORIENTED_EDGE('',*,*,#501,.F.);
#627=ORIENTED_EDGE('',*,*,#503,.F.);
#628=ORIENTED_EDGE('',*,*,#504,.T.);
#629=ORIENTED_EDGE('',*,*,#505,.T.);
#630=ORIENTED_EDGE('',*,*,#504,.F.);
#631=ORIENTED_EDGE('',*,*,#506,.F.);
#632=ORIENTED_EDGE('',*,*,#507,.T.);
#633=ORIENTED_EDGE('',*,*,#508,.T.);
#634=ORIENTED_EDGE('',*,*,#507,.F.);
#635=ORIENTED_EDGE('',*,*,#509,.F.);
#636=ORIENTED_EDGE('',*,*,#510,.T.);
#637=ORIENTED_EDGE('',*,*,#511,.T.);
#638=ORIENTED_EDGE('',*,*,#510,.F.);
#639=ORIENTED_EDGE('',*,*,#512,.F.);
#640=ORIENTED_EDGE('',*,*,#513,.T.);
#641=ORIENTED_EDGE('',*,*,#514,.T.);
#642=ORIENTED_EDGE('',*,*,#513,.F.);
#643=ORIENTED_EDGE('',*,*,#515,.F.);
#644=ORIENTED_EDGE('',*,*,#516,.T.);
#645=ORIENTED_EDGE('',*,*,#517,.T.);
#646=ORIENTED_EDGE('',*,*,#516,.F.);
#647=ORIENTED_EDGE('',*,*,#518,.F.);
#648=ORIENTED_EDGE('',*,*,#519,.T.);
#649=ORIENTED_EDGE('',*,*,#520,.T.);
#650=ORIENTED_EDGE('',*,*,#519,.F.);
#651=ORIENTED_EDGE('',*,*,#521,.F.);
#652=ORIENTED_EDGE('',*,*,#522,.T.);
#653=ORIENTED_EDGE('',*,*,#523,.T.);
#654=ORIENTED_EDGE('',*,*,#522,.F.);
#655=ORIENTED_EDGE('',*,*,#524,.F.);
#656=ORIENTED_EDGE('',*,*,#525,.T.);
#657=ORIENTED_EDGE('',*,*,#526,.T.);
#658=ORIENTED_EDGE('',*,*,#525,.F.);
#659=ORIENTED_EDGE('',*,*,#527,.F.);
#660=ORIENTED_EDGE('',*,*,#528,.T.);
#661=ORIENTED_EDGE('',*,*,#529,.T.);
#662=ORIENTED_EDGE('',*,*,#528,.F.);
#663=ORIENTED_EDGE('',*,*,#530,.F.);
#664=ORIENTED_EDGE('',*,*,#531,.T.);
#665=ORIENTED_EDGE('',*,*,#532,.T.);
#666=ORIENTED_EDGE('',*,*,#531,.F.);
#667=ORIENTED_EDGE('',*,*,#533,.F.);
#668=ORIENTED_EDGE('',*,*,#534,.T.);
#669=ORIENTED_EDGE('',*,*,#535,.T.);
#670=ORIENTED_EDGE('',*,*,#534,.F.);
#671=ORIENTED_EDGE('',*,*,#536,.F.);
#672=ORIENTED_EDGE('',*,*,#537,.T.);
#673=ORIENTED_EDGE('',*,*,#538,.T.);
#674=ORIENTED_EDGE('',*,*,#537,.F.);
#675=ORIENTED_EDGE('',*,*,#539,.F.);
#676=ORIENTED_EDGE('',*,*,#540,.T.);
#677=ORIENTED_EDGE('',*,*,#541,.T.);
#678=ORIENTED_EDGE('',*,*,#540,.F.);
#679=ORIENTED_EDGE('',*,*,#542,.F.);
#680=ORIENTED_EDGE('',*,*,#543,.T.);
#681=ORIENTED_EDGE('',*,*,#544,.T.);
#682=ORIENTED_EDGE('',*,*,#543,.F.);
#683=ORIENTED_EDGE('',*,*,#545,.F.);
#684=ORIENTED_EDGE('',*,*,#546,.T.);
#685=ORIENTED_EDGE('',*,*,#547,.T.);
#686=ORIENTED_EDGE('',*,*,#546,.F.);
#687=ORIENTED_EDGE('',*,*,#548,.F.);
#688=ORIENTED_EDGE('',*,*,#549,.T.);
#689=ORIENTED_EDGE('',*,*,#550,.T.);
#690=ORIENTED_EDGE('',*,*,#549,.F.);
#691=ORIENTED_EDGE('',*,*,#551,.F.);
#692=ORIENTED_EDGE('',*,*,#552,.T.);
#693=ORIENTED_EDGE('',*,*,#553,.T.);
#694=ORIENTED_EDGE('',*,*,#552,.F.);
#695=ORIENTED_EDGE('',*,*,#554,.F.);
#696=ORIENTED_EDGE('',*,*,#555,.T.);
#697=ORIENTED_EDGE('',*,*,#556,.T.);
#698=ORIENTED_EDGE('',*,*,#555,.F.);
#699=ORIENTED_EDGE('',*,*,#557,.F.);
#700=ORIENTED_EDGE('',*,*,#558,.T.);
#701=ORIENTED_EDGE('',*,*,#559,.T.);
#702=ORIENTED_EDGE('',*,*,#558,.F.);
#703=ORIENTED_EDGE('',*,*,#560,.F.);
#704=ORIENTED_EDGE('',*,*,#561,.T.);
#705=ORIENTED_EDGE('',*,*,#562,.T.);
#706=ORIENTED_EDGE('',*,*,#561,.F.);
#707=ORIENTED_EDGE('',*,*,#563,.F.);
#708=ORIENTED_EDGE('',*,*,#564,.T.);
#709=ORIENTED_EDGE('',*,*,#565,.T.);
#710=ORIENTED_EDGE('',*,*,#564,.F.);
#711=ORIENTED_EDGE('',*,*,#566,.F.);
#712=ORIENTED_EDGE('',*,*,#567,.T.);
#713=ORIENTED_EDGE('',*,*,#568,.T.);
#714=ORIENTED_EDGE('',*,*,#567,.F.);
#715=ORIENTED_EDGE('',*,*,#569,.F.);
#716=ORIENTED_EDGE('',*,*,#570,.T.);
#717=ORIENTED_EDGE('',*,*,#571,.T.);
#718=ORIENTED_EDGE('',*,*,#570,.F.);
#719=ORIENTED_EDGE('',*,*,#572,.F.);
#720=ORIENTED_EDGE('',*,*,#573,.T.);
#721=ORIENTED_EDGE('',*,*,#574,.T.);
#722=ORIENTED_EDGE('',*,*,#573,.F.);
#723=ORIENTED_EDGE('',*,*,#575,.T.);
#724=ORIENTED_EDGE('',*,*,#576,.T.);
#725=ORIENTED_EDGE('',*,*,#577,.F.);
#726=ORIENTED_EDGE('',*,*,#578,.F.);
#727=ORIENTED_EDGE('',*,*,#579,.T.);
#728=ORIENTED_EDGE('',*,*,#578,.T.);
#729=ORIENTED_EDGE('',*,*,#580,.F.);
#730=ORIENTED_EDGE('',*,*,#581,.F.);
#731=ORIENTED_EDGE('',*,*,#582,.T.);
#732=ORIENTED_EDGE('',*,*,#581,.T.);
#733=ORIENTED_EDGE('',*,*,#583,.F.);
#734=ORIENTED_EDGE('',*,*,#584,.F.);
#735=ORIENTED_EDGE('',*,*,#585,.T.);
#736=ORIENTED_EDGE('',*,*,#584,.T.);
#737=ORIENTED_EDGE('',*,*,#586,.F.);
#738=ORIENTED_EDGE('',*,*,#576,.F.);
#739=ORIENTED_EDGE('',*,*,#586,.T.);
#740=ORIENTED_EDGE('',*,*,#583,.T.);
#741=ORIENTED_EDGE('',*,*,#580,.T.);
#742=ORIENTED_EDGE('',*,*,#577,.T.);
#743=ORIENTED_EDGE('',*,*,#572,.T.);
#744=ORIENTED_EDGE('',*,*,#569,.T.);
#745=ORIENTED_EDGE('',*,*,#566,.T.);
#746=ORIENTED_EDGE('',*,*,#563,.T.);
#747=ORIENTED_EDGE('',*,*,#560,.T.);
#748=ORIENTED_EDGE('',*,*,#557,.T.);
#749=ORIENTED_EDGE('',*,*,#554,.T.);
#750=ORIENTED_EDGE('',*,*,#551,.T.);
#751=ORIENTED_EDGE('',*,*,#548,.T.);
#752=ORIENTED_EDGE('',*,*,#545,.T.);
#753=ORIENTED_EDGE('',*,*,#542,.T.);
#754=ORIENTED_EDGE('',*,*,#539,.T.);
#755=ORIENTED_EDGE('',*,*,#536,.T.);
#756=ORIENTED_EDGE('',*,*,#533,.T.);
#757=ORIENTED_EDGE('',*,*,#530,.T.);
#758=ORIENTED_EDGE('',*,*,#527,.T.);
#759=ORIENTED_EDGE('',*,*,#524,.T.);
#760=ORIENTED_EDGE('',*,*,#521,.T.);
#761=ORIENTED_EDGE('',*,*,#518,.T.);
#762=ORIENTED_EDGE('',*,*,#515,.T.);
#763=ORIENTED_EDGE('',*,*,#512,.T.);
#764=ORIENTED_EDGE('',*,*,#509,.T.);
#765=ORIENTED_EDGE('',*,*,#506,.T.);
#766=ORIENTED_EDGE('',*,*,#503,.T.);
#767=ORIENTED_EDGE('',*,*,#500,.T.);
#768=ORIENTED_EDGE('',*,*,#497,.T.);
#769=ORIENTED_EDGE('',*,*,#494,.T.);
#770=ORIENTED_EDGE('',*,*,#491,.T.);
#771=ORIENTED_EDGE('',*,*,#488,.T.);
#772=ORIENTED_EDGE('',*,*,#485,.T.);
#773=ORIENTED_EDGE('',*,*,#482,.T.);
#774=ORIENTED_EDGE('',*,*,#479,.T.);
#775=ORIENTED_EDGE('',*,*,#476,.T.);
#776=ORIENTED_EDGE('',*,*,#473,.T.);
#777=ORIENTED_EDGE('',*,*,#585,.F.);
#778=ORIENTED_EDGE('',*,*,#575,.F.);
#779=ORIENTED_EDGE('',*,*,#579,.F.);
#780=ORIENTED_EDGE('',*,*,#582,.F.);
#781=ORIENTED_EDGE('',*,*,#574,.F.);
#782=ORIENTED_EDGE('',*,*,#571,.F.);
#783=ORIENTED_EDGE('',*,*,#568,.F.);
#784=ORIENTED_EDGE('',*,*,#565,.F.);
#785=ORIENTED_EDGE('',*,*,#562,.F.);
#786=ORIENTED_EDGE('',*,*,#559,.F.);
#787=ORIENTED_EDGE('',*,*,#556,.F.);
#788=ORIENTED_EDGE('',*,*,#553,.F.);
#789=ORIENTED_EDGE('',*,*,#550,.F.);
#790=ORIENTED_EDGE('',*,*,#547,.F.);
#791=ORIENTED_EDGE('',*,*,#544,.F.);
#792=ORIENTED_EDGE('',*,*,#541,.F.);
#793=ORIENTED_EDGE('',*,*,#538,.F.);
#794=ORIENTED_EDGE('',*,*,#535,.F.);
#795=ORIENTED_EDGE('',*,*,#532,.F.);
#796=ORIENTED_EDGE('',*,*,#529,.F.);
#797=ORIENTED_EDGE('',*,*,#526,.F.);
#798=ORIENTED_EDGE('',*,*,#523,.F.);
#799=ORIENTED_EDGE('',*,*,#520,.F.);
#800=ORIENTED_EDGE('',*,*,#517,.F.);
#801=ORIENTED_EDGE('',*,*,#514,.F.);
#802=ORIENTED_EDGE('',*,*,#511,.F.);
#803=ORIENTED_EDGE('',*,*,#508,.F.);
#804=ORIENTED_EDGE('',*,*,#505,.F.);
#805=ORIENTED_EDGE('',*,*,#502,.F.);
#806=ORIENTED_EDGE('',*,*,#499,.F.);
#807=ORIENTED_EDGE('',*,*,#496,.F.);
#808=ORIENTED_EDGE('',*,*,#493,.F.);
#809=ORIENTED_EDGE('',*,*,#490,.F.);
#810=ORIENTED_EDGE('',*,*,#487,.F.);
#811=ORIENTED_EDGE('',*,*,#484,.F.);
#812=ORIENTED_EDGE('',*,*,#481,.F.);
#813=ORIENTED_EDGE('',*,*,#478,.F.);
#814=ORIENTED_EDGE('',*,*,#475,.F.);
#815=CYLINDRICAL_SURFACE('',#912,0.6);
#816=CYLINDRICAL_SURFACE('',#915,0.6);
#817=CYLINDRICAL_SURFACE('',#918,0.6);
#818=CYLINDRICAL_SURFACE('',#921,0.6);
#819=CYLINDRICAL_SURFACE('',#924,0.6);
#820=CYLINDRICAL_SURFACE('',#927,0.6);
#821=CYLINDRICAL_SURFACE('',#930,0.6);
#822=CYLINDRICAL_SURFACE('',#933,0.6);
#823=CYLINDRICAL_SURFACE('',#936,0.6);
#824=CYLINDRICAL_SURFACE('',#939,0.6);
#825=CYLINDRICAL_SURFACE('',#942,0.6);
#826=CYLINDRICAL_SURFACE('',#945,0.6);
#827=CYLINDRICAL_SURFACE('',#948,0.6);
#828=CYLINDRICAL_SURFACE('',#951,0.6);
#829=CYLINDRICAL_SURFACE('',#954,0.6);
#830=CYLINDRICAL_SURFACE('',#957,0.6);
#831=CYLINDRICAL_SURFACE('',#960,0.6);
#832=CYLINDRICAL_SURFACE('',#963,0.6);
#833=CYLINDRICAL_SURFACE('',#966,0.6);
#834=CYLINDRICAL_SURFACE('',#969,0.6);
#835=CYLINDRICAL_SURFACE('',#972,0.6);
#836=CYLINDRICAL_SURFACE('',#975,0.6);
#837=CYLINDRICAL_SURFACE('',#978,0.6);
#838=CYLINDRICAL_SURFACE('',#981,0.6);
#839=CYLINDRICAL_SURFACE('',#984,0.6);
#840=CYLINDRICAL_SURFACE('',#987,0.6);
#841=CYLINDRICAL_SURFACE('',#990,0.6);
#842=CYLINDRICAL_SURFACE('',#993,0.6);
#843=CYLINDRICAL_SURFACE('',#996,0.6);
#844=CYLINDRICAL_SURFACE('',#999,0.6);
#845=CYLINDRICAL_SURFACE('',#1002,0.6);
#846=CYLINDRICAL_SURFACE('',#1005,0.6);
#847=CYLINDRICAL_SURFACE('',#1008,0.6);
#848=CYLINDRICAL_SURFACE('',#1011,0.6);
#849=ADVANCED_FACE('',(#89),#815,.F.);
#850=ADVANCED_FACE('',(#90),#816,.F.);
#851=ADVANCED_FACE('',(#91),#817,.F.);
#852=ADVANCED_FACE('',(#92),#818,.F.);
#853=ADVANCED_FACE('',(#93),#819,.F.);
#854=ADVANCED_FACE('',(#94),#820,.F.);
#855=ADVANCED_FACE('',(#95),#821,.F.);
#856=ADVANCED_FACE('',(#96),#822,.F.);
#857=ADVANCED_FACE('',(#97),#823,.F.);
#858=ADVANCED_FACE('',(#98),#824,.F.);
#859=ADVANCED_FACE('',(#99),#825,.F.);
#860=ADVANCED_FACE('',(#100),#826,.F.);
#861=ADVANCED_FACE('',(#101),#827,.F.);
#862=ADVANCED_FACE('',(#102),#828,.F.);
#863=ADVANCED_FACE('',(#103),#829,.F.);
#864=ADVANCED_FACE('',(#104),#830,.F.);
#865=ADVANCED_FACE('',(#105),#831,.F.);
#866=ADVANCED_FACE('',(#106),#832,.F.);
#867=ADVANCED_FACE('',(#107),#833,.F.);
#868=ADVANCED_FACE('',(#108),#834,.F.);
#869=ADVANCED_FACE('',(#109),#835,.F.);
#870=ADVANCED_FACE('',(#110),#836,.F.);
#871=ADVANCED_FACE('',(#111),#837,.F.);
#872=ADVANCED_FACE('',(#112),#838,.F.);
#873=ADVANCED_FACE('',(#113),#839,.F.);
#874=ADVANCED_FACE('',(#114),#840,.F.);
#875=ADVANCED_FACE('',(#115),#841,.F.);
#876=ADVANCED_FACE('',(#116),#842,.F.);
#877=ADVANCED_FACE('',(#117),#843,.F.);
#878=ADVANCED_FACE('',(#118),#844,.F.);
#879=ADVANCED_FACE('',(#119),#845,.F.);
#880=ADVANCED_FACE('',(#120),#846,.F.);
#881=ADVANCED_FACE('',(#121),#847,.F.);
#882=ADVANCED_FACE('',(#122),#848,.F.);
#883=ADVANCED_FACE('',(#123),#83,.T.);
#884=ADVANCED_FACE('',(#124),#84,.T.);
#885=ADVANCED_FACE('',(#125),#85,.T.);
#886=ADVANCED_FACE('',(#126),#86,.T.);
#887=ADVANCED_FACE('',(#127,#15,#16,#17,#18,#19,#20,#21,#22,#23,#24,#25,
#26,#27,#28,#29,#30,#31,#32,#33,#34,#35,#36,#37,#38,#39,#40,#41,#42,#43,
#44,#45,#46,#47,#48),#87,.T.);
#888=ADVANCED_FACE('',(#128,#49,#50,#51,#52,#53,#54,#55,#56,#57,#58,#59,
#60,#61,#62,#63,#64,#65,#66,#67,#68,#69,#70,#71,#72,#73,#74,#75,#76,#77,
#78,#79,#80,#81,#82),#88,.F.);
#889=CLOSED_SHELL('',(#849,#850,#851,#852,#853,#854,#855,#856,#857,#858,
#859,#860,#861,#862,#863,#864,#865,#866,#867,#868,#869,#870,#871,#872,#873,
#874,#875,#876,#877,#878,#879,#880,#881,#882,#883,#884,#885,#886,#887,#888));
#890=DERIVED_UNIT_ELEMENT(#893,1.);
#891=DERIVED_UNIT_ELEMENT(#1520,-3.);
#892=DIMENSIONAL_EXPONENTS(0.,1.,0.,0.,0.,0.,0.);
#893=(
CONVERSION_BASED_UNIT('gram',#895)
MASS_UNIT()
NAMED_UNIT(#892)
);
#894=(
MASS_UNIT()
NAMED_UNIT(*)
SI_UNIT(.KILO.,.GRAM.)
);
#895=MASS_MEASURE_WITH_UNIT(MASS_MEASURE(0.001),#894);
#896=DERIVED_UNIT((#890,#891));
#897=MEASURE_REPRESENTATION_ITEM('density measure',
POSITIVE_RATIO_MEASURE(1.),#896);
#898=PROPERTY_DEFINITION_REPRESENTATION(#903,#900);
#899=PROPERTY_DEFINITION_REPRESENTATION(#904,#901);
#900=REPRESENTATION('material name',(#902),#1517);
#901=REPRESENTATION('density',(#897),#1517);
#902=DESCRIPTIVE_REPRESENTATION_ITEM('Generic','Generic');
#903=PROPERTY_DEFINITION('material property','material name',#1527);
#904=PROPERTY_DEFINITION('material property','density of part',#1527);
#905=DATE_TIME_ROLE('creation_date');
#906=APPLIED_DATE_AND_TIME_ASSIGNMENT(#907,#905,(#1527));
#907=DATE_AND_TIME(#908,#909);
#908=CALENDAR_DATE(2025,18,10);
#909=LOCAL_TIME(0,0,0.,#910);
#910=COORDINATED_UNIVERSAL_TIME_OFFSET(0,0,.BEHIND.);
#911=AXIS2_PLACEMENT_3D('',#1284,#1020,#1021);
#912=AXIS2_PLACEMENT_3D('',#1285,#1022,#1023);
#913=AXIS2_PLACEMENT_3D('',#1287,#1024,#1025);
#914=AXIS2_PLACEMENT_3D('',#1290,#1027,#1028);
#915=AXIS2_PLACEMENT_3D('',#1291,#1029,#1030);
#916=AXIS2_PLACEMENT_3D('',#1293,#1031,#1032);
#917=AXIS2_PLACEMENT_3D('',#1296,#1034,#1035);
#918=AXIS2_PLACEMENT_3D('',#1297,#1036,#1037);
#919=AXIS2_PLACEMENT_3D('',#1299,#1038,#1039);
#920=AXIS2_PLACEMENT_3D('',#1302,#1041,#1042);
#921=AXIS2_PLACEMENT_3D('',#1303,#1043,#1044);
#922=AXIS2_PLACEMENT_3D('',#1305,#1045,#1046);
#923=AXIS2_PLACEMENT_3D('',#1308,#1048,#1049);
#924=AXIS2_PLACEMENT_3D('',#1309,#1050,#1051);
#925=AXIS2_PLACEMENT_3D('',#1311,#1052,#1053);
#926=AXIS2_PLACEMENT_3D('',#1314,#1055,#1056);
#927=AXIS2_PLACEMENT_3D('',#1315,#1057,#1058);
#928=AXIS2_PLACEMENT_3D('',#1317,#1059,#1060);
#929=AXIS2_PLACEMENT_3D('',#1320,#1062,#1063);
#930=AXIS2_PLACEMENT_3D('',#1321,#1064,#1065);
#931=AXIS2_PLACEMENT_3D('',#1323,#1066,#1067);
#932=AXIS2_PLACEMENT_3D('',#1326,#1069,#1070);
#933=AXIS2_PLACEMENT_3D('',#1327,#1071,#1072);
#934=AXIS2_PLACEMENT_3D('',#1329,#1073,#1074);
#935=AXIS2_PLACEMENT_3D('',#1332,#1076,#1077);
#936=AXIS2_PLACEMENT_3D('',#1333,#1078,#1079);
#937=AXIS2_PLACEMENT_3D('',#1335,#1080,#1081);
#938=AXIS2_PLACEMENT_3D('',#1338,#1083,#1084);
#939=AXIS2_PLACEMENT_3D('',#1339,#1085,#1086);
#940=AXIS2_PLACEMENT_3D('',#1341,#1087,#1088);
#941=AXIS2_PLACEMENT_3D('',#1344,#1090,#1091);
#942=AXIS2_PLACEMENT_3D('',#1345,#1092,#1093);
#943=AXIS2_PLACEMENT_3D('',#1347,#1094,#1095);
#944=AXIS2_PLACEMENT_3D('',#1350,#1097,#1098);
#945=AXIS2_PLACEMENT_3D('',#1351,#1099,#1100);
#946=AXIS2_PLACEMENT_3D('',#1353,#1101,#1102);
#947=AXIS2_PLACEMENT_3D('',#1356,#1104,#1105);
#948=AXIS2_PLACEMENT_3D('',#1357,#1106,#1107);
#949=AXIS2_PLACEMENT_3D('',#1359,#1108,#1109);
#950=AXIS2_PLACEMENT_3D('',#1362,#1111,#1112);
#951=AXIS2_PLACEMENT_3D('',#1363,#1113,#1114);
#952=AXIS2_PLACEMENT_3D('',#1365,#1115,#1116);
#953=AXIS2_PLACEMENT_3D('',#1368,#1118,#1119);
#954=AXIS2_PLACEMENT_3D('',#1369,#1120,#1121);
#955=AXIS2_PLACEMENT_3D('',#1371,#1122,#1123);
#956=AXIS2_PLACEMENT_3D('',#1374,#1125,#1126);
#957=AXIS2_PLACEMENT_3D('',#1375,#1127,#1128);
#958=AXIS2_PLACEMENT_3D('',#1377,#1129,#1130);
#959=AXIS2_PLACEMENT_3D('',#1380,#1132,#1133);
#960=AXIS2_PLACEMENT_3D('',#1381,#1134,#1135);
#961=AXIS2_PLACEMENT_3D('',#1383,#1136,#1137);
#962=AXIS2_PLACEMENT_3D('',#1386,#1139,#1140);
#963=AXIS2_PLACEMENT_3D('',#1387,#1141,#1142);
#964=AXIS2_PLACEMENT_3D('',#1389,#1143,#1144);
#965=AXIS2_PLACEMENT_3D('',#1392,#1146,#1147);
#966=AXIS2_PLACEMENT_3D('',#1393,#1148,#1149);
#967=AXIS2_PLACEMENT_3D('',#1395,#1150,#1151);
#968=AXIS2_PLACEMENT_3D('',#1398,#1153,#1154);
#969=AXIS2_PLACEMENT_3D('',#1399,#1155,#1156);
#970=AXIS2_PLACEMENT_3D('',#1401,#1157,#1158);
#971=AXIS2_PLACEMENT_3D('',#1404,#1160,#1161);
#972=AXIS2_PLACEMENT_3D('',#1405,#1162,#1163);
#973=AXIS2_PLACEMENT_3D('',#1407,#1164,#1165);
#974=AXIS2_PLACEMENT_3D('',#1410,#1167,#1168);
#975=AXIS2_PLACEMENT_3D('',#1411,#1169,#1170);
#976=AXIS2_PLACEMENT_3D('',#1413,#1171,#1172);
#977=AXIS2_PLACEMENT_3D('',#1416,#1174,#1175);
#978=AXIS2_PLACEMENT_3D('',#1417,#1176,#1177);
#979=AXIS2_PLACEMENT_3D('',#1419,#1178,#1179);
#980=AXIS2_PLACEMENT_3D('',#1422,#1181,#1182);
#981=AXIS2_PLACEMENT_3D('',#1423,#1183,#1184);
#982=AXIS2_PLACEMENT_3D('',#1425,#1185,#1186);
#983=AXIS2_PLACEMENT_3D('',#1428,#1188,#1189);
#984=AXIS2_PLACEMENT_3D('',#1429,#1190,#1191);
#985=AXIS2_PLACEMENT_3D('',#1431,#1192,#1193);
#986=AXIS2_PLACEMENT_3D('',#1434,#1195,#1196);
#987=AXIS2_PLACEMENT_3D('',#1435,#1197,#1198);
#988=AXIS2_PLACEMENT_3D('',#1437,#1199,#1200);
#989=AXIS2_PLACEMENT_3D('',#1440,#1202,#1203);
#990=AXIS2_PLACEMENT_3D('',#1441,#1204,#1205);
#991=AXIS2_PLACEMENT_3D('',#1443,#1206,#1207);
#992=AXIS2_PLACEMENT_3D('',#1446,#1209,#1210);
#993=AXIS2_PLACEMENT_3D('',#1447,#1211,#1212);
#994=AXIS2_PLACEMENT_3D('',#1449,#1213,#1214);
#995=AXIS2_PLACEMENT_3D('',#1452,#1216,#1217);
#996=AXIS2_PLACEMENT_3D('',#1453,#1218,#1219);
#997=AXIS2_PLACEMENT_3D('',#1455,#1220,#1221);
#998=AXIS2_PLACEMENT_3D('',#1458,#1223,#1224);
#999=AXIS2_PLACEMENT_3D('',#1459,#1225,#1226);
#1000=AXIS2_PLACEMENT_3D('',#1461,#1227,#1228);
#1001=AXIS2_PLACEMENT_3D('',#1464,#1230,#1231);
#1002=AXIS2_PLACEMENT_3D('',#1465,#1232,#1233);
#1003=AXIS2_PLACEMENT_3D('',#1467,#1234,#1235);
#1004=AXIS2_PLACEMENT_3D('',#1470,#1237,#1238);
#1005=AXIS2_PLACEMENT_3D('',#1471,#1239,#1240);
#1006=AXIS2_PLACEMENT_3D('',#1473,#1241,#1242);
#1007=AXIS2_PLACEMENT_3D('',#1476,#1244,#1245);
#1008=AXIS2_PLACEMENT_3D('',#1477,#1246,#1247);
#1009=AXIS2_PLACEMENT_3D('',#1479,#1248,#1249);
#1010=AXIS2_PLACEMENT_3D('',#1482,#1251,#1252);
#1011=AXIS2_PLACEMENT_3D('',#1483,#1253,#1254);
#1012=AXIS2_PLACEMENT_3D('',#1485,#1255,#1256);
#1013=AXIS2_PLACEMENT_3D('',#1488,#1258,#1259);
#1014=AXIS2_PLACEMENT_3D('',#1489,#1260,#1261);
#1015=AXIS2_PLACEMENT_3D('',#1498,#1266,#1267);
#1016=AXIS2_PLACEMENT_3D('',#1504,#1271,#1272);
#1017=AXIS2_PLACEMENT_3D('',#1510,#1276,#1277);
#1018=AXIS2_PLACEMENT_3D('',#1513,#1280,#1281);
#1019=AXIS2_PLACEMENT_3D('',#1514,#1282,#1283);
#1020=DIRECTION('axis',(0.,0.,1.));
#1021=DIRECTION('refdir',(1.,0.,0.));
#1022=DIRECTION('center_axis',(0.,1.,0.));
#1023=DIRECTION('ref_axis',(1.,0.,0.));
#1024=DIRECTION('center_axis',(0.,-1.,0.));
#1025=DIRECTION('ref_axis',(1.,0.,0.));
#1026=DIRECTION('',(0.,-1.,0.));
#1027=DIRECTION('center_axis',(0.,-1.,0.));
#1028=DIRECTION('ref_axis',(1.,0.,0.));
#1029=DIRECTION('center_axis',(0.,1.,0.));
#1030=DIRECTION('ref_axis',(1.,0.,0.));
#1031=DIRECTION('center_axis',(0.,-1.,0.));
#1032=DIRECTION('ref_axis',(1.,0.,0.));
#1033=DIRECTION('',(0.,-1.,0.));
#1034=DIRECTION('center_axis',(0.,-1.,0.));
#1035=DIRECTION('ref_axis',(1.,0.,0.));
#1036=DIRECTION('center_axis',(0.,1.,0.));
#1037=DIRECTION('ref_axis',(1.,0.,0.));
#1038=DIRECTION('center_axis',(0.,-1.,0.));
#1039=DIRECTION('ref_axis',(1.,0.,0.));
#1040=DIRECTION('',(0.,-1.,0.));
#1041=DIRECTION('center_axis',(0.,-1.,0.));
#1042=DIRECTION('ref_axis',(1.,0.,0.));
#1043=DIRECTION('center_axis',(0.,1.,0.));
#1044=DIRECTION('ref_axis',(1.,0.,0.));
#1045=DIRECTION('center_axis',(0.,-1.,0.));
#1046=DIRECTION('ref_axis',(1.,0.,0.));
#1047=DIRECTION('',(0.,-1.,0.));
#1048=DIRECTION('center_axis',(0.,-1.,0.));
#1049=DIRECTION('ref_axis',(1.,0.,0.));
#1050=DIRECTION('center_axis',(0.,1.,0.));
#1051=DIRECTION('ref_axis',(1.,0.,0.));
#1052=DIRECTION('center_axis',(0.,-1.,0.));
#1053=DIRECTION('ref_axis',(1.,0.,0.));
#1054=DIRECTION('',(0.,-1.,0.));
#1055=DIRECTION('center_axis',(0.,-1.,0.));
#1056=DIRECTION('ref_axis',(1.,0.,0.));
#1057=DIRECTION('center_axis',(0.,1.,0.));
#1058=DIRECTION('ref_axis',(1.,0.,0.));
#1059=DIRECTION('center_axis',(0.,-1.,0.));
#1060=DIRECTION('ref_axis',(1.,0.,0.));
#1061=DIRECTION('',(0.,-1.,0.));
#1062=DIRECTION('center_axis',(0.,-1.,0.));
#1063=DIRECTION('ref_axis',(1.,0.,0.));
#1064=DIRECTION('center_axis',(0.,1.,0.));
#1065=DIRECTION('ref_axis',(1.,0.,0.));
#1066=DIRECTION('center_axis',(0.,-1.,0.));
#1067=DIRECTION('ref_axis',(1.,0.,0.));
#1068=DIRECTION('',(0.,-1.,0.));
#1069=DIRECTION('center_axis',(0.,-1.,0.));
#1070=DIRECTION('ref_axis',(1.,0.,0.));
#1071=DIRECTION('center_axis',(0.,1.,0.));
#1072=DIRECTION('ref_axis',(1.,0.,0.));
#1073=DIRECTION('center_axis',(0.,-1.,0.));
#1074=DIRECTION('ref_axis',(1.,0.,0.));
#1075=DIRECTION('',(0.,-1.,0.));
#1076=DIRECTION('center_axis',(0.,-1.,0.));
#1077=DIRECTION('ref_axis',(1.,0.,0.));
#1078=DIRECTION('center_axis',(0.,1.,0.));
#1079=DIRECTION('ref_axis',(1.,0.,0.));
#1080=DIRECTION('center_axis',(0.,-1.,0.));
#1081=DIRECTION('ref_axis',(1.,0.,0.));
#1082=DIRECTION('',(0.,-1.,0.));
#1083=DIRECTION('center_axis',(0.,-1.,0.));
#1084=DIRECTION('ref_axis',(1.,0.,0.));
#1085=DIRECTION('center_axis',(0.,1.,0.));
#1086=DIRECTION('ref_axis',(1.,0.,0.));
#1087=DIRECTION('center_axis',(0.,-1.,0.));
#1088=DIRECTION('ref_axis',(1.,0.,0.));
#1089=DIRECTION('',(0.,-1.,0.));
#1090=DIRECTION('center_axis',(0.,-1.,0.));
#1091=DIRECTION('ref_axis',(1.,0.,0.));
#1092=DIRECTION('center_axis',(0.,1.,0.));
#1093=DIRECTION('ref_axis',(1.,0.,0.));
#1094=DIRECTION('center_axis',(0.,-1.,0.));
#1095=DIRECTION('ref_axis',(1.,0.,0.));
#1096=DIRECTION('',(0.,-1.,0.));
#1097=DIRECTION('center_axis',(0.,-1.,0.));
#1098=DIRECTION('ref_axis',(1.,0.,0.));
#1099=DIRECTION('center_axis',(0.,1.,0.));
#1100=DIRECTION('ref_axis',(1.,0.,0.));
#1101=DIRECTION('center_axis',(0.,-1.,0.));
#1102=DIRECTION('ref_axis',(1.,0.,0.));
#1103=DIRECTION('',(0.,-1.,0.));
#1104=DIRECTION('center_axis',(0.,-1.,0.));
#1105=DIRECTION('ref_axis',(1.,0.,0.));
#1106=DIRECTION('center_axis',(0.,1.,0.));
#1107=DIRECTION('ref_axis',(1.,0.,0.));
#1108=DIRECTION('center_axis',(0.,-1.,0.));
#1109=DIRECTION('ref_axis',(1.,0.,0.));
#1110=DIRECTION('',(0.,-1.,0.));
#1111=DIRECTION('center_axis',(0.,-1.,0.));
#1112=DIRECTION('ref_axis',(1.,0.,0.));
#1113=DIRECTION('center_axis',(0.,1.,0.));
#1114=DIRECTION('ref_axis',(1.,0.,0.));
#1115=DIRECTION('center_axis',(0.,-1.,0.));
#1116=DIRECTION('ref_axis',(1.,0.,0.));
#1117=DIRECTION('',(0.,-1.,0.));
#1118=DIRECTION('center_axis',(0.,-1.,0.));
#1119=DIRECTION('ref_axis',(1.,0.,0.));
#1120=DIRECTION('center_axis',(0.,1.,0.));
#1121=DIRECTION('ref_axis',(1.,0.,0.));
#1122=DIRECTION('center_axis',(0.,-1.,0.));
#1123=DIRECTION('ref_axis',(1.,0.,0.));
#1124=DIRECTION('',(0.,-1.,0.));
#1125=DIRECTION('center_axis',(0.,-1.,0.));
#1126=DIRECTION('ref_axis',(1.,0.,0.));
#1127=DIRECTION('center_axis',(0.,1.,0.));
#1128=DIRECTION('ref_axis',(1.,0.,0.));
#1129=DIRECTION('center_axis',(0.,-1.,0.));
#1130=DIRECTION('ref_axis',(1.,0.,0.));
#1131=DIRECTION('',(0.,-1.,0.));
#1132=DIRECTION('center_axis',(0.,-1.,0.));
#1133=DIRECTION('ref_axis',(1.,0.,0.));
#1134=DIRECTION('center_axis',(0.,1.,0.));
#1135=DIRECTION('ref_axis',(1.,0.,0.));
#1136=DIRECTION('center_axis',(0.,-1.,0.));
#1137=DIRECTION('ref_axis',(1.,0.,0.));
#1138=DIRECTION('',(0.,-1.,0.));
#1139=DIRECTION('center_axis',(0.,-1.,0.));
#1140=DIRECTION('ref_axis',(1.,0.,0.));
#1141=DIRECTION('center_axis',(0.,1.,0.));
#1142=DIRECTION('ref_axis',(1.,0.,0.));
#1143=DIRECTION('center_axis',(0.,-1.,0.));
#1144=DIRECTION('ref_axis',(1.,0.,0.));
#1145=DIRECTION('',(0.,-1.,0.));
#1146=DIRECTION('center_axis',(0.,-1.,0.));
#1147=DIRECTION('ref_axis',(1.,0.,0.));
#1148=DIRECTION('center_axis',(0.,1.,0.));
#1149=DIRECTION('ref_axis',(1.,0.,0.));
#1150=DIRECTION('center_axis',(0.,-1.,0.));
#1151=DIRECTION('ref_axis',(1.,0.,0.));
#1152=DIRECTION('',(0.,-1.,0.));
#1153=DIRECTION('center_axis',(0.,-1.,0.));
#1154=DIRECTION('ref_axis',(1.,0.,0.));
#1155=DIRECTION('center_axis',(0.,1.,0.));
#1156=DIRECTION('ref_axis',(1.,0.,0.));
#1157=DIRECTION('center_axis',(0.,-1.,0.));
#1158=DIRECTION('ref_axis',(1.,0.,0.));
#1159=DIRECTION('',(0.,-1.,0.));
#1160=DIRECTION('center_axis',(0.,-1.,0.));
#1161=DIRECTION('ref_axis',(1.,0.,0.));
#1162=DIRECTION('center_axis',(0.,1.,0.));
#1163=DIRECTION('ref_axis',(1.,0.,0.));
#1164=DIRECTION('center_axis',(0.,-1.,0.));
#1165=DIRECTION('ref_axis',(1.,0.,0.));
#1166=DIRECTION('',(0.,-1.,0.));
#1167=DIRECTION('center_axis',(0.,-1.,0.));
#1168=DIRECTION('ref_axis',(1.,0.,0.));
#1169=DIRECTION('center_axis',(0.,1.,0.));
#1170=DIRECTION('ref_axis',(1.,0.,0.));
#1171=DIRECTION('center_axis',(0.,-1.,0.));
#1172=DIRECTION('ref_axis',(1.,0.,0.));
#1173=DIRECTION('',(0.,-1.,0.));
#1174=DIRECTION('center_axis',(0.,-1.,0.));
#1175=DIRECTION('ref_axis',(1.,0.,0.));
#1176=DIRECTION('center_axis',(0.,1.,0.));
#1177=DIRECTION('ref_axis',(1.,0.,0.));
#1178=DIRECTION('center_axis',(0.,-1.,0.));
#1179=DIRECTION('ref_axis',(1.,0.,0.));
#1180=DIRECTION('',(0.,-1.,0.));
#1181=DIRECTION('center_axis',(0.,-1.,0.));
#1182=DIRECTION('ref_axis',(1.,0.,0.));
#1183=DIRECTION('center_axis',(0.,1.,0.));
#1184=DIRECTION('ref_axis',(1.,0.,0.));
#1185=DIRECTION('center_axis',(0.,-1.,0.));
#1186=DIRECTION('ref_axis',(1.,0.,0.));
#1187=DIRECTION('',(0.,-1.,0.));
#1188=DIRECTION('center_axis',(0.,-1.,0.));
#1189=DIRECTION('ref_axis',(1.,0.,0.));
#1190=DIRECTION('center_axis',(0.,1.,0.));
#1191=DIRECTION('ref_axis',(1.,0.,0.));
#1192=DIRECTION('center_axis',(0.,-1.,0.));
#1193=DIRECTION('ref_axis',(1.,0.,0.));
#1194=DIRECTION('',(0.,-1.,0.));
#1195=DIRECTION('center_axis',(0.,-1.,0.));
#1196=DIRECTION('ref_axis',(1.,0.,0.));
#1197=DIRECTION('center_axis',(0.,1.,0.));
#1198=DIRECTION('ref_axis',(1.,0.,0.));
#1199=DIRECTION('center_axis',(0.,-1.,0.));
#1200=DIRECTION('ref_axis',(1.,0.,0.));
#1201=DIRECTION('',(0.,-1.,0.));
#1202=DIRECTION('center_axis',(0.,-1.,0.));
#1203=DIRECTION('ref_axis',(1.,0.,0.));
#1204=DIRECTION('center_axis',(0.,1.,0.));
#1205=DIRECTION('ref_axis',(1.,0.,0.));
#1206=DIRECTION('center_axis',(0.,-1.,0.));
#1207=DIRECTION('ref_axis',(1.,0.,0.));
#1208=DIRECTION('',(0.,-1.,0.));
#1209=DIRECTION('center_axis',(0.,-1.,0.));
#1210=DIRECTION('ref_axis',(1.,0.,0.));
#1211=DIRECTION('center_axis',(0.,1.,0.));
#1212=DIRECTION('ref_axis',(1.,0.,0.));
#1213=DIRECTION('center_axis',(0.,-1.,0.));
#1214=DIRECTION('ref_axis',(1.,0.,0.));
#1215=DIRECTION('',(0.,-1.,0.));
#1216=DIRECTION('center_axis',(0.,-1.,0.));
#1217=DIRECTION('ref_axis',(1.,0.,0.));
#1218=DIRECTION('center_axis',(0.,1.,0.));
#1219=DIRECTION('ref_axis',(1.,0.,0.));
#1220=DIRECTION('center_axis',(0.,-1.,0.));
#1221=DIRECTION('ref_axis',(1.,0.,0.));
#1222=DIRECTION('',(0.,-1.,0.));
#1223=DIRECTION('center_axis',(0.,-1.,0.));
#1224=DIRECTION('ref_axis',(1.,0.,0.));
#1225=DIRECTION('center_axis',(0.,1.,0.));
#1226=DIRECTION('ref_axis',(1.,0.,0.));
#1227=DIRECTION('center_axis',(0.,-1.,0.));
#1228=DIRECTION('ref_axis',(1.,0.,0.));
#1229=DIRECTION('',(0.,-1.,0.));
#1230=DIRECTION('center_axis',(0.,-1.,0.));
#1231=DIRECTION('ref_axis',(1.,0.,0.));
#1232=DIRECTION('center_axis',(0.,1.,0.));
#1233=DIRECTION('ref_axis',(1.,0.,0.));
#1234=DIRECTION('center_axis',(0.,-1.,0.));
#1235=DIRECTION('ref_axis',(1.,0.,0.));
#1236=DIRECTION('',(0.,-1.,0.));
#1237=DIRECTION('center_axis',(0.,-1.,0.));
#1238=DIRECTION('ref_axis',(1.,0.,0.));
#1239=DIRECTION('center_axis',(0.,1.,0.));
#1240=DIRECTION('ref_axis',(1.,0.,0.));
#1241=DIRECTION('center_axis',(0.,-1.,0.));
#1242=DIRECTION('ref_axis',(1.,0.,0.));
#1243=DIRECTION('',(0.,-1.,0.));
#1244=DIRECTION('center_axis',(0.,-1.,0.));
#1245=DIRECTION('ref_axis',(1.,0.,0.));
#1246=DIRECTION('center_axis',(0.,1.,0.));
#1247=DIRECTION('ref_axis',(1.,0.,0.));
#1248=DIRECTION('center_axis',(0.,-1.,0.));
#1249=DIRECTION('ref_axis',(1.,0.,0.));
#1250=DIRECTION('',(0.,-1.,0.));
#1251=DIRECTION('center_axis',(0.,-1.,0.));
#1252=DIRECTION('ref_axis',(1.,0.,0.));
#1253=DIRECTION('center_axis',(0.,1.,0.));
#1254=DIRECTION('ref_axis',(1.,0.,0.));
#1255=DIRECTION('center_axis',(0.,-1.,0.));
#1256=DIRECTION('ref_axis',(1.,0.,0.));
#1257=DIRECTION('',(0.,-1.,0.));
#1258=DIRECTION('center_axis',(0.,-1.,0.));
#1259=DIRECTION('ref_axis',(1.,0.,0.));
#1260=DIRECTION('center_axis',(1.,0.,-1.83697019872103E-16));
#1261=DIRECTION('ref_axis',(-1.83697019872103E-16,0.,-1.));
#1262=DIRECTION('',(-1.83697019872103E-16,0.,-1.));
#1263=DIRECTION('',(0.,1.,0.));
#1264=DIRECTION('',(-1.83697019872103E-16,0.,-1.));
#1265=DIRECTION('',(0.,1.,0.));
#1266=DIRECTION('center_axis',(0.,0.,1.));
#1267=DIRECTION('ref_axis',(1.,0.,0.));
#1268=DIRECTION('',(1.,0.,0.));
#1269=DIRECTION('',(1.,0.,0.));
#1270=DIRECTION('',(0.,1.,0.));
#1271=DIRECTION('center_axis',(-1.,0.,0.));
#1272=DIRECTION('ref_axis',(0.,0.,1.));
#1273=DIRECTION('',(0.,0.,1.));
#1274=DIRECTION('',(0.,0.,1.));
#1275=DIRECTION('',(0.,1.,0.));
#1276=DIRECTION('center_axis',(-1.76604314741932E-16,0.,-1.));
#1277=DIRECTION('ref_axis',(-1.,0.,1.76604314741932E-16));
#1278=DIRECTION('',(-1.,0.,1.76604314741932E-16));
#1279=DIRECTION('',(-1.,0.,1.76604314741932E-16));
#1280=DIRECTION('center_axis',(0.,1.,0.));
#1281=DIRECTION('ref_axis',(0.,0.,1.));
#1282=DIRECTION('center_axis',(0.,1.,0.));
#1283=DIRECTION('ref_axis',(0.,0.,1.));
#1284=CARTESIAN_POINT('',(0.,0.,0.));
#1285=CARTESIAN_POINT('Origin',(-5.84200000000002,0.,-2.35674538834827));
#1286=CARTESIAN_POINT('',(-6.44200000000002,0.5,-2.35674538834826));
#1287=CARTESIAN_POINT('Origin',(-5.84200000000002,0.5,-2.35674538834827));
#1288=CARTESIAN_POINT('',(-6.44200000000002,0.,-2.35674538834827));
#1289=CARTESIAN_POINT('',(-6.44200000000002,0.,-2.35674538834827));
#1290=CARTESIAN_POINT('Origin',(-5.84200000000002,0.,-2.35674538834827));
#1291=CARTESIAN_POINT('Origin',(-13.462,0.,-2.35674538834827));
#1292=CARTESIAN_POINT('',(-14.062,0.5,-2.35674538834826));
#1293=CARTESIAN_POINT('Origin',(-13.462,0.5,-2.35674538834827));
#1294=CARTESIAN_POINT('',(-14.062,0.,-2.35674538834827));
#1295=CARTESIAN_POINT('',(-14.062,0.,-2.35674538834827));
#1296=CARTESIAN_POINT('Origin',(-13.462,0.,-2.35674538834827));
#1297=CARTESIAN_POINT('Origin',(-18.542,0.,-2.35674538834827));
#1298=CARTESIAN_POINT('',(-19.142,0.5,-2.35674538834826));
#1299=CARTESIAN_POINT('Origin',(-18.542,0.5,-2.35674538834827));
#1300=CARTESIAN_POINT('',(-19.142,0.,-2.35674538834827));
#1301=CARTESIAN_POINT('',(-19.142,0.,-2.35674538834827));
#1302=CARTESIAN_POINT('Origin',(-18.542,0.,-2.35674538834827));
#1303=CARTESIAN_POINT('Origin',(-23.622,0.,-2.35674538834826));
#1304=CARTESIAN_POINT('',(-24.222,0.5,-2.35674538834826));
#1305=CARTESIAN_POINT('Origin',(-23.622,0.5,-2.35674538834826));
#1306=CARTESIAN_POINT('',(-24.222,0.,-2.35674538834826));
#1307=CARTESIAN_POINT('',(-24.222,0.,-2.35674538834826));
#1308=CARTESIAN_POINT('Origin',(-23.622,0.,-2.35674538834826));
#1309=CARTESIAN_POINT('Origin',(-41.402,0.,-2.35674538834826));
#1310=CARTESIAN_POINT('',(-42.002,0.5,-2.35674538834826));
#1311=CARTESIAN_POINT('Origin',(-41.402,0.5,-2.35674538834826));
#1312=CARTESIAN_POINT('',(-42.002,0.,-2.35674538834826));
#1313=CARTESIAN_POINT('',(-42.002,0.,-2.35674538834826));
#1314=CARTESIAN_POINT('Origin',(-41.402,0.,-2.35674538834826));
#1315=CARTESIAN_POINT('Origin',(-36.322,0.,-2.35674538834826));
#1316=CARTESIAN_POINT('',(-36.922,0.5,-2.35674538834826));
#1317=CARTESIAN_POINT('Origin',(-36.322,0.5,-2.35674538834826));
#1318=CARTESIAN_POINT('',(-36.922,0.,-2.35674538834826));
#1319=CARTESIAN_POINT('',(-36.922,0.,-2.35674538834826));
#1320=CARTESIAN_POINT('Origin',(-36.322,0.,-2.35674538834826));
#1321=CARTESIAN_POINT('Origin',(-31.242,0.,-2.35674538834826));
#1322=CARTESIAN_POINT('',(-31.842,0.5,-2.35674538834826));
#1323=CARTESIAN_POINT('Origin',(-31.242,0.5,-2.35674538834826));
#1324=CARTESIAN_POINT('',(-31.842,0.,-2.35674538834826));
#1325=CARTESIAN_POINT('',(-31.842,0.,-2.35674538834826));
#1326=CARTESIAN_POINT('Origin',(-31.242,0.,-2.35674538834826));
#1327=CARTESIAN_POINT('Origin',(-46.482,0.,-15.1162006138569));
#1328=CARTESIAN_POINT('',(-47.082,0.5,-15.1162006138569));
#1329=CARTESIAN_POINT('Origin',(-46.482,0.5,-15.1162006138569));
#1330=CARTESIAN_POINT('',(-47.082,0.,-15.1162006138569));
#1331=CARTESIAN_POINT('',(-47.082,0.,-15.1162006138569));
#1332=CARTESIAN_POINT('Origin',(-46.482,0.,-15.1162006138569));
#1333=CARTESIAN_POINT('Origin',(-8.38200000000001,0.,-17.391));
#1334=CARTESIAN_POINT('',(-8.98200000000001,0.5,-17.391));
#1335=CARTESIAN_POINT('Origin',(-8.38200000000001,0.5,-17.391));
#1336=CARTESIAN_POINT('',(-8.98200000000001,0.,-17.391));
#1337=CARTESIAN_POINT('',(-8.98200000000001,0.,-17.391));
#1338=CARTESIAN_POINT('Origin',(-8.38200000000001,0.,-17.391));
#1339=CARTESIAN_POINT('Origin',(-13.462,0.,-17.391));
#1340=CARTESIAN_POINT('',(-14.062,0.5,-17.391));
#1341=CARTESIAN_POINT('Origin',(-13.462,0.5,-17.391));
#1342=CARTESIAN_POINT('',(-14.062,0.,-17.391));
#1343=CARTESIAN_POINT('',(-14.062,0.,-17.391));
#1344=CARTESIAN_POINT('Origin',(-13.462,0.,-17.391));
#1345=CARTESIAN_POINT('Origin',(-18.542,0.,-17.391));
#1346=CARTESIAN_POINT('',(-19.142,0.5,-17.391));
#1347=CARTESIAN_POINT('Origin',(-18.542,0.5,-17.391));
#1348=CARTESIAN_POINT('',(-19.142,0.,-17.391));
#1349=CARTESIAN_POINT('',(-19.142,0.,-17.391));
#1350=CARTESIAN_POINT('Origin',(-18.542,0.,-17.391));
#1351=CARTESIAN_POINT('Origin',(-23.622,0.,-17.391));
#1352=CARTESIAN_POINT('',(-24.222,0.5,-17.391));
#1353=CARTESIAN_POINT('Origin',(-23.622,0.5,-17.391));
#1354=CARTESIAN_POINT('',(-24.222,0.,-17.391));
#1355=CARTESIAN_POINT('',(-24.222,0.,-17.391));
#1356=CARTESIAN_POINT('Origin',(-23.622,0.,-17.391));
#1357=CARTESIAN_POINT('Origin',(-28.702,0.,-17.391));
#1358=CARTESIAN_POINT('',(-29.302,0.5,-17.391));
#1359=CARTESIAN_POINT('Origin',(-28.702,0.5,-17.391));
#1360=CARTESIAN_POINT('',(-29.302,0.,-17.391));
#1361=CARTESIAN_POINT('',(-29.302,0.,-17.391));
#1362=CARTESIAN_POINT('Origin',(-28.702,0.,-17.391));
#1363=CARTESIAN_POINT('Origin',(-49.022,0.,-17.391));
#1364=CARTESIAN_POINT('',(-49.622,0.5,-17.391));
#1365=CARTESIAN_POINT('Origin',(-49.022,0.5,-17.391));
#1366=CARTESIAN_POINT('',(-49.622,0.,-17.391));
#1367=CARTESIAN_POINT('',(-49.622,0.,-17.391));
#1368=CARTESIAN_POINT('Origin',(-49.022,0.,-17.391));
#1369=CARTESIAN_POINT('Origin',(-46.482,0.,-17.391));
#1370=CARTESIAN_POINT('',(-47.082,0.5,-17.391));
#1371=CARTESIAN_POINT('Origin',(-46.482,0.5,-17.391));
#1372=CARTESIAN_POINT('',(-47.082,0.,-17.391));
#1373=CARTESIAN_POINT('',(-47.082,0.,-17.391));
#1374=CARTESIAN_POINT('Origin',(-46.482,0.,-17.391));
#1375=CARTESIAN_POINT('Origin',(-43.942,0.,-17.391));
#1376=CARTESIAN_POINT('',(-44.542,0.5,-17.391));
#1377=CARTESIAN_POINT('Origin',(-43.942,0.5,-17.391));
#1378=CARTESIAN_POINT('',(-44.542,0.,-17.391));
#1379=CARTESIAN_POINT('',(-44.542,0.,-17.391));
#1380=CARTESIAN_POINT('Origin',(-43.942,0.,-17.391));
#1381=CARTESIAN_POINT('Origin',(-41.402,0.,-17.391));
#1382=CARTESIAN_POINT('',(-42.002,0.5,-17.391));
#1383=CARTESIAN_POINT('Origin',(-41.402,0.5,-17.391));
#1384=CARTESIAN_POINT('',(-42.002,0.,-17.391));
#1385=CARTESIAN_POINT('',(-42.002,0.,-17.391));
#1386=CARTESIAN_POINT('Origin',(-41.402,0.,-17.391));
#1387=CARTESIAN_POINT('Origin',(-38.862,0.,-17.391));
#1388=CARTESIAN_POINT('',(-39.462,0.5,-17.391));
#1389=CARTESIAN_POINT('Origin',(-38.862,0.5,-17.391));
#1390=CARTESIAN_POINT('',(-39.462,0.,-17.391));
#1391=CARTESIAN_POINT('',(-39.462,0.,-17.391));
#1392=CARTESIAN_POINT('Origin',(-38.862,0.,-17.391));
#1393=CARTESIAN_POINT('Origin',(-36.322,0.,-17.391));
#1394=CARTESIAN_POINT('',(-36.922,0.5,-17.391));
#1395=CARTESIAN_POINT('Origin',(-36.322,0.5,-17.391));
#1396=CARTESIAN_POINT('',(-36.922,0.,-17.391));
#1397=CARTESIAN_POINT('',(-36.922,0.,-17.391));
#1398=CARTESIAN_POINT('Origin',(-36.322,0.,-17.391));
#1399=CARTESIAN_POINT('Origin',(-33.782,0.,-17.391));
#1400=CARTESIAN_POINT('',(-34.382,0.5,-17.391));
#1401=CARTESIAN_POINT('Origin',(-33.782,0.5,-17.391));
#1402=CARTESIAN_POINT('',(-34.382,0.,-17.391));
#1403=CARTESIAN_POINT('',(-34.382,0.,-17.391));
#1404=CARTESIAN_POINT('Origin',(-33.782,0.,-17.391));
#1405=CARTESIAN_POINT('Origin',(-31.242,0.,-17.391));
#1406=CARTESIAN_POINT('',(-31.842,0.5,-17.391));
#1407=CARTESIAN_POINT('Origin',(-31.242,0.5,-17.391));
#1408=CARTESIAN_POINT('',(-31.842,0.,-17.391));
#1409=CARTESIAN_POINT('',(-31.842,0.,-17.391));
#1410=CARTESIAN_POINT('Origin',(-31.242,0.,-17.391));
#1411=CARTESIAN_POINT('Origin',(-26.162,0.,-17.391));
#1412=CARTESIAN_POINT('',(-26.762,0.5,-17.391));
#1413=CARTESIAN_POINT('Origin',(-26.162,0.5,-17.391));
#1414=CARTESIAN_POINT('',(-26.762,0.,-17.391));
#1415=CARTESIAN_POINT('',(-26.762,0.,-17.391));
#1416=CARTESIAN_POINT('Origin',(-26.162,0.,-17.391));
#1417=CARTESIAN_POINT('Origin',(-21.082,0.,-17.391));
#1418=CARTESIAN_POINT('',(-21.682,0.5,-17.391));
#1419=CARTESIAN_POINT('Origin',(-21.082,0.5,-17.391));
#1420=CARTESIAN_POINT('',(-21.682,0.,-17.391));
#1421=CARTESIAN_POINT('',(-21.682,0.,-17.391));
#1422=CARTESIAN_POINT('Origin',(-21.082,0.,-17.391));
#1423=CARTESIAN_POINT('Origin',(-16.002,0.,-17.391));
#1424=CARTESIAN_POINT('',(-16.602,0.5,-17.391));
#1425=CARTESIAN_POINT('Origin',(-16.002,0.5,-17.391));
#1426=CARTESIAN_POINT('',(-16.602,0.,-17.391));
#1427=CARTESIAN_POINT('',(-16.602,0.,-17.391));
#1428=CARTESIAN_POINT('Origin',(-16.002,0.,-17.391));
#1429=CARTESIAN_POINT('Origin',(-10.922,0.,-17.391));
#1430=CARTESIAN_POINT('',(-11.522,0.5,-17.391));
#1431=CARTESIAN_POINT('Origin',(-10.922,0.5,-17.391));
#1432=CARTESIAN_POINT('',(-11.522,0.,-17.391));
#1433=CARTESIAN_POINT('',(-11.522,0.,-17.391));
#1434=CARTESIAN_POINT('Origin',(-10.922,0.,-17.391));
#1435=CARTESIAN_POINT('Origin',(-5.84200000000001,0.,-17.391));
#1436=CARTESIAN_POINT('',(-6.44200000000001,0.5,-17.391));
#1437=CARTESIAN_POINT('Origin',(-5.84200000000001,0.5,-17.391));
#1438=CARTESIAN_POINT('',(-6.44200000000001,0.,-17.391));
#1439=CARTESIAN_POINT('',(-6.44200000000001,0.,-17.391));
#1440=CARTESIAN_POINT('Origin',(-5.84200000000001,0.,-17.391));
#1441=CARTESIAN_POINT('Origin',(-28.702,0.,-2.35674538834826));
#1442=CARTESIAN_POINT('',(-29.302,0.5,-2.35674538834826));
#1443=CARTESIAN_POINT('Origin',(-28.702,0.5,-2.35674538834826));
#1444=CARTESIAN_POINT('',(-29.302,0.,-2.35674538834826));
#1445=CARTESIAN_POINT('',(-29.302,0.,-2.35674538834826));
#1446=CARTESIAN_POINT('Origin',(-28.702,0.,-2.35674538834826));
#1447=CARTESIAN_POINT('Origin',(-33.782,0.,-2.35674538834826));
#1448=CARTESIAN_POINT('',(-34.382,0.5,-2.35674538834826));
#1449=CARTESIAN_POINT('Origin',(-33.782,0.5,-2.35674538834826));
#1450=CARTESIAN_POINT('',(-34.382,0.,-2.35674538834826));
#1451=CARTESIAN_POINT('',(-34.382,0.,-2.35674538834826));
#1452=CARTESIAN_POINT('Origin',(-33.782,0.,-2.35674538834826));
#1453=CARTESIAN_POINT('Origin',(-38.862,0.,-2.35674538834826));
#1454=CARTESIAN_POINT('',(-39.462,0.5,-2.35674538834826));
#1455=CARTESIAN_POINT('Origin',(-38.862,0.5,-2.35674538834826));
#1456=CARTESIAN_POINT('',(-39.462,0.,-2.35674538834826));
#1457=CARTESIAN_POINT('',(-39.462,0.,-2.35674538834826));
#1458=CARTESIAN_POINT('Origin',(-38.862,0.,-2.35674538834826));
#1459=CARTESIAN_POINT('Origin',(-26.162,0.,-2.35674538834826));
#1460=CARTESIAN_POINT('',(-26.762,0.5,-2.35674538834826));
#1461=CARTESIAN_POINT('Origin',(-26.162,0.5,-2.35674538834826));
#1462=CARTESIAN_POINT('',(-26.762,0.,-2.35674538834826));
#1463=CARTESIAN_POINT('',(-26.762,0.,-2.35674538834826));
#1464=CARTESIAN_POINT('Origin',(-26.162,0.,-2.35674538834826));
#1465=CARTESIAN_POINT('Origin',(-21.082,0.,-2.35674538834827));
#1466=CARTESIAN_POINT('',(-21.682,0.5,-2.35674538834826));
#1467=CARTESIAN_POINT('Origin',(-21.082,0.5,-2.35674538834827));
#1468=CARTESIAN_POINT('',(-21.682,0.,-2.35674538834827));
#1469=CARTESIAN_POINT('',(-21.682,0.,-2.35674538834827));
#1470=CARTESIAN_POINT('Origin',(-21.082,0.,-2.35674538834827));
#1471=CARTESIAN_POINT('Origin',(-16.002,0.,-2.35674538834827));
#1472=CARTESIAN_POINT('',(-16.602,0.5,-2.35674538834826));
#1473=CARTESIAN_POINT('Origin',(-16.002,0.5,-2.35674538834827));
#1474=CARTESIAN_POINT('',(-16.602,0.,-2.35674538834827));
#1475=CARTESIAN_POINT('',(-16.602,0.,-2.35674538834827));
#1476=CARTESIAN_POINT('Origin',(-16.002,0.,-2.35674538834827));
#1477=CARTESIAN_POINT('Origin',(-8.38200000000002,0.,-2.35674538834827));
#1478=CARTESIAN_POINT('',(-8.98200000000002,0.5,-2.35674538834826));
#1479=CARTESIAN_POINT('Origin',(-8.38200000000002,0.5,-2.35674538834827));
#1480=CARTESIAN_POINT('',(-8.98200000000002,0.,-2.35674538834827));
#1481=CARTESIAN_POINT('',(-8.98200000000002,0.,-2.35674538834827));
#1482=CARTESIAN_POINT('Origin',(-8.38200000000002,0.,-2.35674538834827));
#1483=CARTESIAN_POINT('Origin',(-10.922,0.,-2.35674538834827));
#1484=CARTESIAN_POINT('',(-11.522,0.5,-2.35674538834826));
#1485=CARTESIAN_POINT('Origin',(-10.922,0.5,-2.35674538834827));
#1486=CARTESIAN_POINT('',(-11.522,0.,-2.35674538834827));
#1487=CARTESIAN_POINT('',(-11.522,0.,-2.35674538834827));
#1488=CARTESIAN_POINT('Origin',(-10.922,0.,-2.35674538834827));
#1489=CARTESIAN_POINT('Origin',(0.,0.,0.));
#1490=CARTESIAN_POINT('',(0.,0.,0.));
#1491=CARTESIAN_POINT('',(-3.49795865240459E-15,0.,-19.042));
#1492=CARTESIAN_POINT('',(0.,0.,0.));
#1493=CARTESIAN_POINT('',(-3.49795865240459E-15,0.5,-19.042));
#1494=CARTESIAN_POINT('',(-3.49795865240459E-15,0.,-19.042));
#1495=CARTESIAN_POINT('',(0.,0.5,0.));
#1496=CARTESIAN_POINT('',(0.,0.5,0.));
#1497=CARTESIAN_POINT('',(0.,0.,0.));
#1498=CARTESIAN_POINT('Origin',(-50.292,0.,0.));
#1499=CARTESIAN_POINT('',(-50.292,0.,0.));
#1500=CARTESIAN_POINT('',(-50.292,0.,0.));
#1501=CARTESIAN_POINT('',(-50.292,0.5,0.));
#1502=CARTESIAN_POINT('',(-50.292,0.5,0.));
#1503=CARTESIAN_POINT('',(-50.292,0.,0.));
#1504=CARTESIAN_POINT('Origin',(-50.292,0.,-19.042));
#1505=CARTESIAN_POINT('',(-50.292,0.,-19.042));
#1506=CARTESIAN_POINT('',(-50.292,0.,-19.042));
#1507=CARTESIAN_POINT('',(-50.292,0.5,-19.042));
#1508=CARTESIAN_POINT('',(-50.292,0.5,-19.042));
#1509=CARTESIAN_POINT('',(-50.292,0.,-19.042));
#1510=CARTESIAN_POINT('Origin',(-3.49795865240459E-15,0.,-19.042));
#1511=CARTESIAN_POINT('',(0.,0.,-19.042));
#1512=CARTESIAN_POINT('',(0.,0.5,-19.042));
#1513=CARTESIAN_POINT('Origin',(-25.146,0.5,-9.521));
#1514=CARTESIAN_POINT('Origin',(-25.146,0.,-9.521));
#1515=UNCERTAINTY_MEASURE_WITH_UNIT(LENGTH_MEASURE(0.01),#1519,
'DISTANCE_ACCURACY_VALUE',
'Maximum model space distance between geometric entities at asserted c
onnectivities');
#1516=UNCERTAINTY_MEASURE_WITH_UNIT(LENGTH_MEASURE(0.01),#1519,
'DISTANCE_ACCURACY_VALUE',
'Maximum model space distance between geometric entities at asserted c
onnectivities');
#1517=(
GEOMETRIC_REPRESENTATION_CONTEXT(3)
GLOBAL_UNCERTAINTY_ASSIGNED_CONTEXT((#1515))
GLOBAL_UNIT_ASSIGNED_CONTEXT((#1519,#1521,#1522))
REPRESENTATION_CONTEXT('','3D')
);
#1518=(
GEOMETRIC_REPRESENTATION_CONTEXT(3)
GLOBAL_UNCERTAINTY_ASSIGNED_CONTEXT((#1516))
GLOBAL_UNIT_ASSIGNED_CONTEXT((#1519,#1521,#1522))
REPRESENTATION_CONTEXT('','3D')
);
#1519=(
LENGTH_UNIT()
NAMED_UNIT(*)
SI_UNIT(.MILLI.,.METRE.)
);
#1520=(
LENGTH_UNIT()
NAMED_UNIT(*)
SI_UNIT(.CENTI.,.METRE.)
);
#1521=(
NAMED_UNIT(*)
PLANE_ANGLE_UNIT()
SI_UNIT($,.RADIAN.)
);
#1522=(
NAMED_UNIT(*)
SI_UNIT($,.STERADIAN.)
SOLID_ANGLE_UNIT()
);
#1523=SHAPE_DEFINITION_REPRESENTATION(#1524,#1525);
#1524=PRODUCT_DEFINITION_SHAPE('',$,#1527);
#1525=SHAPE_REPRESENTATION('',(#911),#1517);
#1526=PRODUCT_DEFINITION_CONTEXT('part definition',#1531,'design');
#1527=PRODUCT_DEFINITION('gps board','gps board',#1528,#1526);
#1528=PRODUCT_DEFINITION_FORMATION('',$,#1533);
#1529=PRODUCT_RELATED_PRODUCT_CATEGORY('gps board','gps board',(#1533));
#1530=APPLICATION_PROTOCOL_DEFINITION('international standard',
'automotive_design',2009,#1531);
#1531=APPLICATION_CONTEXT(
'Core Data for Automotive Mechanical Design Process');
#1532=PRODUCT_CONTEXT('part definition',#1531,'mechanical');
#1533=PRODUCT('gps board','gps board',$,(#1532));
#1534=PRESENTATION_STYLE_ASSIGNMENT((#1535));
#1535=SURFACE_STYLE_USAGE(.BOTH.,#1538);
#1536=SURFACE_STYLE_RENDERING_WITH_PROPERTIES($,#1542,(#1537));
#1537=SURFACE_STYLE_TRANSPARENT(0.);
#1538=SURFACE_SIDE_STYLE('',(#1539,#1536));
#1539=SURFACE_STYLE_FILL_AREA(#1540);
#1540=FILL_AREA_STYLE('',(#1541));
#1541=FILL_AREA_STYLE_COLOUR('',#1542);
#1542=COLOUR_RGB('',0.749019607843137,0.749019607843137,0.749019607843137);
ENDSEC;
END-ISO-10303-21;
