ISO-10303-21;
HEADER;
FILE_DESCRIPTION (( 'STEP AP214' ),
    '1' );
FILE_NAME ('PT2512FK-070R1L.STEP',
    '2024-01-29T17:01:20',
    ( '' ),
    ( '' ),
    'SwSTEP 2.0',
    'SolidWorks 2021',
    '' );
FILE_SCHEMA (( 'AUTOMOTIVE_DESIGN' ));
ENDSEC;

DATA;
#1 = EDGE_CURVE ( 'NONE', #606, #358, #1176, .T. ) ;
#2 = LINE ( 'NONE', #947, #64 ) ;
#3 = SURFACE_SIDE_STYLE ('',( #93 ) ) ;
#4 = CARTESIAN_POINT ( 'NONE',  ( -3.142500000000000071, 0.5524999999999999911, -7.906474847329527655 ) ) ;
#5 = EDGE_LOOP ( 'NONE', ( #379, #51, #941, #950 ) ) ;
#6 = DIRECTION ( 'NONE',  ( 0.000000000000000000, 1.000000000000000000, 0.000000000000000000 ) ) ;
#7 = CARTESIAN_POINT ( 'NONE',  ( 2.674999999999999822, 0.5849999999999999645, 1.600000000000000089 ) ) ;
#8 = DIRECTION ( 'NONE',  ( 0.000000000000000000, -0.000000000000000000, 1.000000000000000000 ) ) ;
#9 = ORIENTED_EDGE ( 'NONE', *, *, #603, .T. ) ;
#10 = FACE_OUTER_BOUND ( 'NONE', #672, .T. ) ;
#11 = DIRECTION ( 'NONE',  ( 0.000000000000000000, 0.000000000000000000, 1.000000000000000000 ) ) ;
#12 = EDGE_CURVE ( 'NONE', #519, #135, #414, .T. ) ;
#13 = CARTESIAN_POINT ( 'NONE',  ( 3.142500000000000071, 0.03249999999999964029, 1.600000000000000089 ) ) ;
#14 = LINE ( 'NONE', #690, #361 ) ;
#15 = EDGE_CURVE ( 'NONE', #355, #325, #1187, .T. ) ;
#16 = ORIENTED_EDGE ( 'NONE', *, *, #1161, .T. ) ;
#17 = VECTOR ( 'NONE', #1164, 1000.000000000000000 ) ;
#18 = STYLED_ITEM ( 'NONE', ( #489 ), #317 ) ;
#19 = LINE ( 'NONE', #588, #518 ) ;
#20 = COLOUR_RGB ( '',0.2509803921568627416, 0.2509803921568627416, 0.2509803921568627416 ) ;
#21 = PRESENTATION_LAYER_ASSIGNMENT (  '', '', ( #402 ) ) ;
#22 = DIRECTION ( 'NONE',  ( -0.000000000000000000, -0.000000000000000000, -1.000000000000000000 ) ) ;
#23 = DIRECTION ( 'NONE',  ( -0.000000000000000000, -0.000000000000000000, -1.000000000000000000 ) ) ;
#24 = ORIENTED_EDGE ( 'NONE', *, *, #164, .T. ) ;
#25 =( GEOMETRIC_REPRESENTATION_CONTEXT ( 3 ) GLOBAL_UNCERTAINTY_ASSIGNED_CONTEXT ( ( #1042 ) ) GLOBAL_UNIT_ASSIGNED_CONTEXT ( ( #411, #891, #790 ) ) REPRESENTATION_CONTEXT ( 'NONE', 'WORKASPACE' ) );
#26 = CARTESIAN_POINT ( 'NONE',  ( -3.142500000000000071, 0.03249999999999964029, -7.906474847329527655 ) ) ;
#27 = DIRECTION ( 'NONE',  ( 0.000000000000000000, 1.000000000000000000, 0.000000000000000000 ) ) ;
#28 = FILL_AREA_STYLE_COLOUR ( '', #162 ) ;
#29 =( NAMED_UNIT ( * ) PLANE_ANGLE_UNIT ( ) SI_UNIT ( $, .RADIAN. ) );
#30 = DIRECTION ( 'NONE',  ( -0.000000000000000000, -1.000000000000000000, -0.000000000000000000 ) ) ;
#31 = EDGE_CURVE ( 'NONE', #1052, #433, #1168, .T. ) ;
#32 = CARTESIAN_POINT ( 'NONE',  ( -3.142500000000000071, 0.5524999999999999911, -1.600000000000000089 ) ) ;
#33 =( LENGTH_UNIT ( ) NAMED_UNIT ( * ) SI_UNIT ( .MILLI., .METRE. ) );
#34 = PLANE ( 'NONE',  #360 ) ;
#35 = ORIENTED_EDGE ( 'NONE', *, *, #103, .F. ) ;
#36 = ORIENTED_EDGE ( 'NONE', *, *, #511, .T. ) ;
#37 = PRESENTATION_LAYER_ASSIGNMENT (  '', '', ( #1152 ) ) ;
#38 = ORIENTED_EDGE ( 'NONE', *, *, #555, .T. ) ;
#39 = VECTOR ( 'NONE', #568, 1000.000000000000000 ) ;
#40 = STYLED_ITEM ( 'NONE', ( #1138 ), #860 ) ;
#41 = PLANE ( 'NONE',  #81 ) ;
#42 =( NAMED_UNIT ( * ) SI_UNIT ( $, .STERADIAN. ) SOLID_ANGLE_UNIT ( ) );
#43 = DIRECTION ( 'NONE',  ( 1.000000000000000000, -0.000000000000000000, -0.000000000000000000 ) ) ;
#44 = PRESENTATION_LAYER_ASSIGNMENT (  '', '', ( #524 ) ) ;
#45 = VERTEX_POINT ( 'NONE', #316 ) ;
#46 = CARTESIAN_POINT ( 'NONE',  ( 3.142500000000000071, 0.03249999999999964029, -1.599999999999999867 ) ) ;
#47 = ORIENTED_EDGE ( 'NONE', *, *, #706, .F. ) ;
#48 = APPLICATION_PROTOCOL_DEFINITION ( 'draft international standard', 'automotive_design', 1998, #593 ) ;
#49 = SURFACE_SIDE_STYLE ('',( #442 ) ) ;
#50 = DIRECTION ( 'NONE',  ( -1.000000000000000000, 1.224646799147353454E-16, 0.000000000000000000 ) ) ;
#51 = ORIENTED_EDGE ( 'NONE', *, *, #511, .F. ) ;
#52 = EDGE_LOOP ( 'NONE', ( #803, #1236, #591, #709 ) ) ;
#53 = CARTESIAN_POINT ( 'NONE',  ( 3.142500000000000071, 0.03249999999999964029, 1.600000000000000089 ) ) ;
#54 = ADVANCED_FACE ( 'NONE', ( #312 ), #701, .F. ) ;
#55 = PRODUCT_DEFINITION_CONTEXT ( 'detailed design', #1043, 'design' ) ;
#56 = DIRECTION ( 'NONE',  ( 0.000000000000000000, 0.000000000000000000, -1.000000000000000000 ) ) ;
#57 = EDGE_CURVE ( 'NONE', #984, #683, #694, .T. ) ;
#58 = CARTESIAN_POINT ( 'NONE',  ( 2.674999999999999822, 0.5524999999999999911, 1.600000000000000089 ) ) ;
#59 = ORIENTED_EDGE ( 'NONE', *, *, #367, .T. ) ;
#60 = CARTESIAN_POINT ( 'NONE',  ( 3.142500000000000071, 0.5524999999999999911, 1.600000000000000089 ) ) ;
#61 = PRESENTATION_LAYER_ASSIGNMENT (  '', '', ( #894 ) ) ;
#62 = PLANE ( 'NONE',  #624 ) ;
#63 = DIRECTION ( 'NONE',  ( 0.000000000000000000, 0.000000000000000000, 1.000000000000000000 ) ) ;
#64 = VECTOR ( 'NONE', #1062, 1000.000000000000000 ) ;
#65 = SURFACE_SIDE_STYLE ('',( #458 ) ) ;
#66 = ORIENTED_EDGE ( 'NONE', *, *, #603, .F. ) ;
#67 =( GEOMETRIC_REPRESENTATION_CONTEXT ( 3 ) GLOBAL_UNCERTAINTY_ASSIGNED_CONTEXT ( ( #673 ) ) GLOBAL_UNIT_ASSIGNED_CONTEXT ( ( #320, #1080, #985 ) ) REPRESENTATION_CONTEXT ( 'NONE', 'WORKASPACE' ) );
#68 = AXIS2_PLACEMENT_3D ( 'NONE', #469, #395, #687 ) ;
#69 = CARTESIAN_POINT ( 'NONE',  ( -2.674999999999999822, 0.5849999999999999645, -1.599999999999999867 ) ) ;
#70 = ORIENTED_EDGE ( 'NONE', *, *, #862, .T. ) ;
#71 = CARTESIAN_POINT ( 'NONE',  ( -2.629486510016368683, 0.6500000000000000222, 1.600000000000000089 ) ) ;
#72 = ORIENTED_EDGE ( 'NONE', *, *, #1227, .T. ) ;
#73 = ADVANCED_FACE ( 'NONE', ( #1064 ), #34, .F. ) ;
#74 = LINE ( 'NONE', #460, #801 ) ;
#75 = CARTESIAN_POINT ( 'NONE',  ( -2.674999999999999822, 0.5524999999999999911, 1.600000000000000089 ) ) ;
#76 = ORIENTED_EDGE ( 'NONE', *, *, #119, .F. ) ;
#77 = SURFACE_STYLE_USAGE ( .BOTH. , #470 ) ;
#78 = VECTOR ( 'NONE', #1100, 1000.000000000000000 ) ;
#79 =( NAMED_UNIT ( * ) SI_UNIT ( $, .STERADIAN. ) SOLID_ANGLE_UNIT ( ) );
#80 = VERTEX_POINT ( 'NONE', #231 ) ;
#81 = AXIS2_PLACEMENT_3D ( 'NONE', #886, #876, #216 ) ;
#82 = CARTESIAN_POINT ( 'NONE',  ( 3.142500000000000071, 0.03249999999999964029, -1.600000000000000089 ) ) ;
#83 = PLANE ( 'NONE',  #1000 ) ;
#84 = DIRECTION ( 'NONE',  ( 0.000000000000000000, -0.000000000000000000, 1.000000000000000000 ) ) ;
#85 = ORIENTED_EDGE ( 'NONE', *, *, #725, .T. ) ;
#86 = LINE ( 'NONE', #582, #366 ) ;
#87 =( LENGTH_UNIT ( ) NAMED_UNIT ( * ) SI_UNIT ( .MILLI., .METRE. ) );
#88 = CARTESIAN_POINT ( 'NONE',  ( 3.174999999999999822, -3.704556567420743261E-16, -1.600000000000000089 ) ) ;
#89 = ORIENTED_EDGE ( 'NONE', *, *, #500, .F. ) ;
#90 = EDGE_CURVE ( 'NONE', #851, #984, #611, .T. ) ;
#91 = LINE ( 'NONE', #185, #939 ) ;
#92 =( NAMED_UNIT ( * ) PLANE_ANGLE_UNIT ( ) SI_UNIT ( $, .RADIAN. ) );
#93 = SURFACE_STYLE_FILL_AREA ( #372 ) ;
#94 = SURFACE_STYLE_USAGE ( .BOTH. , #490 ) ;
#95 = VERTEX_POINT ( 'NONE', #707 ) ;
#96 = COLOUR_RGB ( '',0.2509803921568627416, 0.2509803921568627416, 0.2509803921568627416 ) ;
#97 = VECTOR ( 'NONE', #124, 1000.000000000000000 ) ;
#98 = COLOUR_RGB ( '',0.7921568627450980005, 0.8196078431372548767, 0.9333333333333333481 ) ;
#99 = CARTESIAN_POINT ( 'NONE',  ( 2.629486510016367795, 0.6500000000000000222, -6.950888360823835654 ) ) ;
#100 = SURFACE_SIDE_STYLE ('',( #849 ) ) ;
#101 = ORIENTED_EDGE ( 'NONE', *, *, #774, .F. ) ;
#102 = ADVANCED_FACE ( 'NONE', ( #1077 ), #510, .F. ) ;
#103 = EDGE_CURVE ( 'NONE', #433, #355, #989, .T. ) ;
#104 = DIRECTION ( 'NONE',  ( 1.000000000000000000, 1.159574516027277451E-16, 0.000000000000000000 ) ) ;
#105 =( LENGTH_UNIT ( ) NAMED_UNIT ( * ) SI_UNIT ( .MILLI., .METRE. ) );
#106 = LINE ( 'NONE', #1139, #39 ) ;
#107 = EDGE_LOOP ( 'NONE', ( #928, #394, #888, #633 ) ) ;
#108 = LINE ( 'NONE', #966, #668 ) ;
#109 =( LENGTH_UNIT ( ) NAMED_UNIT ( * ) SI_UNIT ( .MILLI., .METRE. ) );
#110 = EDGE_CURVE ( 'NONE', #135, #298, #982, .T. ) ;
#111 = DIRECTION ( 'NONE',  ( 0.000000000000000000, 0.000000000000000000, 1.000000000000000000 ) ) ;
#112 = DIRECTION ( 'NONE',  ( 0.000000000000000000, -1.000000000000000000, 0.000000000000000000 ) ) ;
#113 = DIRECTION ( 'NONE',  ( 0.000000000000000000, -0.000000000000000000, -1.000000000000000000 ) ) ;
#114 = MECHANICAL_DESIGN_GEOMETRIC_PRESENTATION_REPRESENTATION (  '', ( #219 ), #562 ) ;
#115 = MECHANICAL_DESIGN_GEOMETRIC_PRESENTATION_REPRESENTATION (  '', ( #855 ), #163 ) ;
#116 = SHAPE_DEFINITION_REPRESENTATION ( #390, #415 ) ;
#117 =( GEOMETRIC_REPRESENTATION_CONTEXT ( 3 ) GLOBAL_UNCERTAINTY_ASSIGNED_CONTEXT ( ( #1065 ) ) GLOBAL_UNIT_ASSIGNED_CONTEXT ( ( #168, #822, #276 ) ) REPRESENTATION_CONTEXT ( 'NONE', 'WORKASPACE' ) );
#118 = CARTESIAN_POINT ( 'NONE',  ( -2.674999999999999822, 0.03249999999999968886, -1.600000000000000089 ) ) ;
#119 = EDGE_CURVE ( 'NONE', #1115, #606, #430, .T. ) ;
#120 = DIRECTION ( 'NONE',  ( 1.224646799147353454E-16, 1.000000000000000000, -0.000000000000000000 ) ) ;
#121 = ORIENTED_EDGE ( 'NONE', *, *, #1186, .T. ) ;
#122 = DIRECTION ( 'NONE',  ( -0.5735764363510524877, 0.8191520442889872466, 0.000000000000000000 ) ) ;
#123 = LINE ( 'NONE', #697, #404 ) ;
#124 = DIRECTION ( 'NONE',  ( -1.000000000000000000, -1.159574516027277451E-16, 0.000000000000000000 ) ) ;
#125 = FACE_OUTER_BOUND ( 'NONE', #661, .T. ) ;
#126 = CARTESIAN_POINT ( 'NONE',  ( 3.142500000000000071, 0.5524999999999999911, -1.600000000000000089 ) ) ;
#127 = UNCERTAINTY_MEASURE_WITH_UNIT (LENGTH_MEASURE( 1.000000000000000082E-05 ), #443, 'distance_accuracy_value', 'NONE');
#128 = ADVANCED_FACE ( 'NONE', ( #238 ), #998, .F. ) ;
#129 = EDGE_LOOP ( 'NONE', ( #569, #1011, #651, #154, #408, #481, #832, #101 ) ) ;
#130 = ORIENTED_EDGE ( 'NONE', *, *, #1144, .F. ) ;
#131 = CARTESIAN_POINT ( 'NONE',  ( 3.142500000000000071, 0.03249999999999964029, 1.600000000000000089 ) ) ;
#132 =( NAMED_UNIT ( * ) SI_UNIT ( $, .STERADIAN. ) SOLID_ANGLE_UNIT ( ) );
#133 = FACE_OUTER_BOUND ( 'NONE', #1119, .T. ) ;
#134 = ORIENTED_EDGE ( 'NONE', *, *, #119, .T. ) ;
#135 = VERTEX_POINT ( 'NONE', #630 ) ;
#136 = VERTEX_POINT ( 'NONE', #914 ) ;
#137 = VECTOR ( 'NONE', #419, 1000.000000000000000 ) ;
#138 = CARTESIAN_POINT ( 'NONE',  ( -3.142500000000000071, 0.5524999999999999911, 1.600000000000000089 ) ) ;
#139 = ORIENTED_EDGE ( 'NONE', *, *, #554, .F. ) ;
#140 = DIRECTION ( 'NONE',  ( 0.000000000000000000, 0.000000000000000000, 1.000000000000000000 ) ) ;
#141 = FILL_AREA_STYLE_COLOUR ( '', #957 ) ;
#142 = CARTESIAN_POINT ( 'NONE',  ( -2.674999999999999822, 0.5524999999999999911, 1.600000000000000089 ) ) ;
#143 = MECHANICAL_DESIGN_GEOMETRIC_PRESENTATION_REPRESENTATION (  '', ( #484 ), #67 ) ;
#144 = MECHANICAL_DESIGN_GEOMETRIC_PRESENTATION_REPRESENTATION (  '', ( #524 ), #978 ) ;
#145 = ORIENTED_EDGE ( 'NONE', *, *, #828, .F. ) ;
#146 = EDGE_CURVE ( 'NONE', #792, #147, #813, .T. ) ;
#147 = VERTEX_POINT ( 'NONE', #1013 ) ;
#148 = DIRECTION ( 'NONE',  ( 1.000000000000000000, 0.000000000000000000, 0.000000000000000000 ) ) ;
#149 = EDGE_CURVE ( 'NONE', #355, #983, #352, .T. ) ;
#150 = FACE_OUTER_BOUND ( 'NONE', #960, .T. ) ;
#151 = CARTESIAN_POINT ( 'NONE',  ( -2.674999999999999822, 0.5849999999999999645, -1.599999999999999867 ) ) ;
#152 = CARTESIAN_POINT ( 'NONE',  ( 3.142500000000000071, 0.03249999999999964029, -1.600000000000000089 ) ) ;
#153 = CARTESIAN_POINT ( 'NONE',  ( -3.174999999999999822, 0.5849999999999999645, 1.600000000000000089 ) ) ;
#154 = ORIENTED_EDGE ( 'NONE', *, *, #370, .F. ) ;
#155 = DIRECTION ( 'NONE',  ( 0.000000000000000000, 0.000000000000000000, -1.000000000000000000 ) ) ;
#156 = CARTESIAN_POINT ( 'NONE',  ( -2.674999999999999822, -3.092233167847066534E-16, 1.600000000000000089 ) ) ;
#157 = DIRECTION ( 'NONE',  ( 0.000000000000000000, 0.000000000000000000, 1.000000000000000000 ) ) ;
#158 = CARTESIAN_POINT ( 'NONE',  ( -3.142500000000000071, 0.5524999999999999911, 1.600000000000000089 ) ) ;
#159 = CARTESIAN_POINT ( 'NONE',  ( -2.674999999999999822, -3.092233167847066534E-16, 1.600000000000000089 ) ) ;
#160 = ORIENTED_EDGE ( 'NONE', *, *, #340, .F. ) ;
#161 = MECHANICAL_DESIGN_GEOMETRIC_PRESENTATION_REPRESENTATION (  '', ( #1072 ), #1097 ) ;
#162 = COLOUR_RGB ( '',1.000000000000000000, 1.000000000000000000, 1.000000000000000000 ) ;
#163 =( GEOMETRIC_REPRESENTATION_CONTEXT ( 3 ) GLOBAL_UNCERTAINTY_ASSIGNED_CONTEXT ( ( #1141 ) ) GLOBAL_UNIT_ASSIGNED_CONTEXT ( ( #846, #922, #636 ) ) REPRESENTATION_CONTEXT ( 'NONE', 'WORKASPACE' ) );
#164 = EDGE_CURVE ( 'NONE', #325, #771, #1008, .T. ) ;
#165 =( NAMED_UNIT ( * ) PLANE_ANGLE_UNIT ( ) SI_UNIT ( $, .RADIAN. ) );
#166 = ORIENTED_EDGE ( 'NONE', *, *, #774, .T. ) ;
#167 = VECTOR ( 'NONE', #692, 1000.000000000000000 ) ;
#168 =( LENGTH_UNIT ( ) NAMED_UNIT ( * ) SI_UNIT ( .MILLI., .METRE. ) );
#169 = ORIENTED_EDGE ( 'NONE', *, *, #915, .T. ) ;
#170 = DIRECTION ( 'NONE',  ( 0.000000000000000000, -0.000000000000000000, 1.000000000000000000 ) ) ;
#171 = DIRECTION ( 'NONE',  ( -1.000000000000000000, 0.000000000000000000, -0.000000000000000000 ) ) ;
#172 = ORIENTED_EDGE ( 'NONE', *, *, #561, .T. ) ;
#173 = FACE_OUTER_BOUND ( 'NONE', #176, .T. ) ;
#174 = FILL_AREA_STYLE ('',( #538 ) ) ;
#175 = LINE ( 'NONE', #71, #375 ) ;
#176 = EDGE_LOOP ( 'NONE', ( #906, #823, #990, #134 ) ) ;
#177 = CARTESIAN_POINT ( 'NONE',  ( -3.142500000000000071, 0.5524999999999999911, 1.600000000000000089 ) ) ;
#178 = MECHANICAL_DESIGN_GEOMETRIC_PRESENTATION_REPRESENTATION (  '', ( #400 ), #759 ) ;
#179 = MECHANICAL_DESIGN_GEOMETRIC_PRESENTATION_REPRESENTATION (  '', ( #264 ), #932 ) ;
#180 = VERTEX_POINT ( 'NONE', #152 ) ;
#181 =( GEOMETRIC_REPRESENTATION_CONTEXT ( 3 ) GLOBAL_UNCERTAINTY_ASSIGNED_CONTEXT ( ( #127 ) ) GLOBAL_UNIT_ASSIGNED_CONTEXT ( ( #443, #29, #1091 ) ) REPRESENTATION_CONTEXT ( 'NONE', 'WORKASPACE' ) );
#182 = VECTOR ( 'NONE', #563, 1000.000000000000000 ) ;
#183 = VECTOR ( 'NONE', #514, 1000.000000000000000 ) ;
#184 = VECTOR ( 'NONE', #845, 1000.000000000000000 ) ;
#185 = CARTESIAN_POINT ( 'NONE',  ( -3.174999999999999822, -3.704556567420743261E-16, 1.600000000000000089 ) ) ;
#186 = FILL_AREA_STYLE_COLOUR ( '', #581 ) ;
#187 = ADVANCED_FACE ( 'NONE', ( #1113 ), #1014, .T. ) ;
#188 = FILL_AREA_STYLE_COLOUR ( '', #727 ) ;
#189 = ORIENTED_EDGE ( 'NONE', *, *, #1003, .T. ) ;
#190 = LINE ( 'NONE', #963, #627 ) ;
#191 = DIRECTION ( 'NONE',  ( 0.000000000000000000, 0.000000000000000000, -1.000000000000000000 ) ) ;
#192 = ORIENTED_EDGE ( 'NONE', *, *, #1160, .T. ) ;
#193 = UNCERTAINTY_MEASURE_WITH_UNIT (LENGTH_MEASURE( 1.000000000000000082E-05 ), #1212, 'distance_accuracy_value', 'NONE');
#194 = CARTESIAN_POINT ( 'NONE',  ( 2.674999999999999822, -3.092233167847066534E-16, -1.600000000000000089 ) ) ;
#195 = CARTESIAN_POINT ( 'NONE',  ( 0.000000000000000000, 0.000000000000000000, -1.600000000000000089 ) ) ;
#196 = DIRECTION ( 'NONE',  ( 0.000000000000000000, -0.000000000000000000, -1.000000000000000000 ) ) ;
#197 = EDGE_LOOP ( 'NONE', ( #750, #946, #1117, #520, #716, #522 ) ) ;
#198 = EDGE_CURVE ( 'NONE', #553, #1079, #274, .T. ) ;
#199 = VECTOR ( 'NONE', #1145, 1000.000000000000000 ) ;
#200 = VECTOR ( 'NONE', #590, 1000.000000000000000 ) ;
#201 = ADVANCED_FACE ( 'NONE', ( #724 ), #929, .T. ) ;
#202 = VECTOR ( 'NONE', #385, 1000.000000000000000 ) ;
#203 = DIRECTION ( 'NONE',  ( 0.000000000000000000, 0.000000000000000000, -1.000000000000000000 ) ) ;
#204 = LINE ( 'NONE', #763, #762 ) ;
#205 = CARTESIAN_POINT ( 'NONE',  ( -3.142500000000000071, 0.5524999999999999911, -7.906474847329527655 ) ) ;
#206 = CARTESIAN_POINT ( 'NONE',  ( -3.174999999999999822, 0.5849999999999999645, -1.600000000000000089 ) ) ;
#207 = ORIENTED_EDGE ( 'NONE', *, *, #367, .F. ) ;
#208 = UNCERTAINTY_MEASURE_WITH_UNIT (LENGTH_MEASURE( 1.000000000000000082E-05 ), #105, 'distance_accuracy_value', 'NONE');
#209 = DIRECTION ( 'NONE',  ( -1.000000000000000000, 0.000000000000000000, -0.000000000000000000 ) ) ;
#210 = CARTESIAN_POINT ( 'NONE',  ( -2.674999999999999822, 0.5849999999999999645, -1.600000000000000089 ) ) ;
#211 = PLANE ( 'NONE',  #1173 ) ;
#212 = CARTESIAN_POINT ( 'NONE',  ( 2.674999999999999822, 0.5849999999999999645, -1.600000000000000089 ) ) ;
#213 = DIRECTION ( 'NONE',  ( -1.000000000000000000, 0.000000000000000000, -0.000000000000000000 ) ) ;
#214 = LINE ( 'NONE', #899, #936 ) ;
#215 = CARTESIAN_POINT ( 'NONE',  ( 3.174999999999999822, -3.704556567420743261E-16, 1.600000000000000089 ) ) ;
#216 = DIRECTION ( 'NONE',  ( 0.000000000000000000, 0.000000000000000000, 1.000000000000000000 ) ) ;
#217 = PRESENTATION_STYLE_ASSIGNMENT (( #237 ) ) ;
#218 = CARTESIAN_POINT ( 'NONE',  ( 0.000000000000000000, 0.000000000000000000, 1.600000000000000089 ) ) ;
#219 = STYLED_ITEM ( 'NONE', ( #494 ), #540 ) ;
#220 = AXIS2_PLACEMENT_3D ( 'NONE', #856, #1039, #104 ) ;
#221 = VECTOR ( 'NONE', #335, 1000.000000000000000 ) ;
#222 = DIRECTION ( 'NONE',  ( 0.000000000000000000, 0.000000000000000000, 1.000000000000000000 ) ) ;
#223 = FILL_AREA_STYLE ('',( #1172 ) ) ;
#224 = STYLED_ITEM ( 'NONE', ( #272 ), #1053 ) ;
#225 = PRESENTATION_STYLE_ASSIGNMENT (( #698 ) ) ;
#226 = EDGE_CURVE ( 'NONE', #883, #859, #347, .T. ) ;
#227 = CARTESIAN_POINT ( 'NONE',  ( 2.674999999999999822, 0.5849999999999999645, -1.600000000000000089 ) ) ;
#228 = ORIENTED_EDGE ( 'NONE', *, *, #1203, .T. ) ;
#229 = EDGE_LOOP ( 'NONE', ( #579, #47, #285, #121 ) ) ;
#230 = PLANE ( 'NONE',  #841 ) ;
#231 = CARTESIAN_POINT ( 'NONE',  ( 3.174999999999999822, 0.5849999999999999645, -1.600000000000000089 ) ) ;
#232 = ORIENTED_EDGE ( 'NONE', *, *, #1030, .T. ) ;
#233 = ORIENTED_EDGE ( 'NONE', *, *, #776, .F. ) ;
#234 = LINE ( 'NONE', #993, #346 ) ;
#235 = EDGE_LOOP ( 'NONE', ( #656, #76, #233, #677 ) ) ;
#236 = DIRECTION ( 'NONE',  ( -1.000000000000000000, 0.000000000000000000, 0.000000000000000000 ) ) ;
#237 = SURFACE_STYLE_USAGE ( .BOTH. , #720 ) ;
#238 = FACE_OUTER_BOUND ( 'NONE', #1025, .T. ) ;
#239 = EDGE_CURVE ( 'NONE', #136, #851, #175, .T. ) ;
#240 = EDGE_CURVE ( 'NONE', #646, #1034, #1108, .T. ) ;
#241 = ORIENTED_EDGE ( 'NONE', *, *, #280, .F. ) ;
#242 = CARTESIAN_POINT ( 'NONE',  ( -2.629486510016368683, 0.6500000000000000222, -6.950888360823835654 ) ) ;
#243 = ORIENTED_EDGE ( 'NONE', *, *, #1019, .F. ) ;
#244 = DIRECTION ( 'NONE',  ( 1.000000000000000000, 0.000000000000000000, 0.000000000000000000 ) ) ;
#245 =( GEOMETRIC_REPRESENTATION_CONTEXT ( 3 ) GLOBAL_UNCERTAINTY_ASSIGNED_CONTEXT ( ( #1009 ) ) GLOBAL_UNIT_ASSIGNED_CONTEXT ( ( #33, #322, #132 ) ) REPRESENTATION_CONTEXT ( 'NONE', 'WORKASPACE' ) );
#246 = VECTOR ( 'NONE', #747, 1000.000000000000000 ) ;
#247 = FILL_AREA_STYLE ('',( #537 ) ) ;
#248 = CARTESIAN_POINT ( 'NONE',  ( 2.674999999999999822, 0.5849999999999999645, -6.950888360823835654 ) ) ;
#249 = UNCERTAINTY_MEASURE_WITH_UNIT (LENGTH_MEASURE( 1.000000000000000082E-05 ), #87, 'distance_accuracy_value', 'NONE');
#250 =( NAMED_UNIT ( * ) SI_UNIT ( $, .STERADIAN. ) SOLID_ANGLE_UNIT ( ) );
#251 = VECTOR ( 'NONE', #574, 1000.000000000000000 ) ;
#252 = SURFACE_STYLE_USAGE ( .BOTH. , #745 ) ;
#253 = EDGE_LOOP ( 'NONE', ( #1110, #847, #1158, #806 ) ) ;
#254 = LINE ( 'NONE', #1211, #664 ) ;
#255 = DIRECTION ( 'NONE',  ( 1.000000000000000000, 0.000000000000000000, 0.000000000000000000 ) ) ;
#256 = ORIENTED_EDGE ( 'NONE', *, *, #976, .F. ) ;
#257 = ADVANCED_FACE ( 'NONE', ( #650 ), #552, .T. ) ;
#258 = LINE ( 'NONE', #1206, #182 ) ;
#259 = FILL_AREA_STYLE ('',( #909 ) ) ;
#260 = ORIENTED_EDGE ( 'NONE', *, *, #1029, .T. ) ;
#261 = PRESENTATION_STYLE_ASSIGNMENT (( #1022 ) ) ;
#262 = ORIENTED_EDGE ( 'NONE', *, *, #695, .T. ) ;
#263 = VECTOR ( 'NONE', #691, 1000.000000000000000 ) ;
#264 = STYLED_ITEM ( 'NONE', ( #769 ), #330 ) ;
#265 = CARTESIAN_POINT ( 'NONE',  ( 3.142500000000000071, 0.5524999999999999911, 1.600000000000000089 ) ) ;
#266 = VECTOR ( 'NONE', #1233, 1000.000000000000000 ) ;
#267 = SURFACE_SIDE_STYLE ('',( #917 ) ) ;
#268 = PRODUCT_RELATED_PRODUCT_CATEGORY ( 'part', '', ( #956 ) ) ;
#269 = VERTEX_POINT ( 'NONE', #1124 ) ;
#270 = AXIS2_PLACEMENT_3D ( 'NONE', #26, #529, #1181 ) ;
#271 = AXIS2_PLACEMENT_3D ( 'NONE', #1055, #203, #209 ) ;
#272 = PRESENTATION_STYLE_ASSIGNMENT (( #252 ) ) ;
#273 = LINE ( 'NONE', #265, #286 ) ;
#274 = LINE ( 'NONE', #153, #78 ) ;
#275 = ORIENTED_EDGE ( 'NONE', *, *, #706, .T. ) ;
#276 =( NAMED_UNIT ( * ) SI_UNIT ( $, .STERADIAN. ) SOLID_ANGLE_UNIT ( ) );
#277 = DIRECTION ( 'NONE',  ( 0.000000000000000000, -1.000000000000000000, 0.000000000000000000 ) ) ;
#278 = ORIENTED_EDGE ( 'NONE', *, *, #31, .F. ) ;
#279 = ADVANCED_FACE ( 'NONE', ( #1234 ), #1046, .T. ) ;
#280 = EDGE_CURVE ( 'NONE', #373, #95, #1033, .T. ) ;
#281 =( LENGTH_UNIT ( ) NAMED_UNIT ( * ) SI_UNIT ( .MILLI., .METRE. ) );
#282 = FACE_OUTER_BOUND ( 'NONE', #440, .T. ) ;
#283 = AXIS2_PLACEMENT_3D ( 'NONE', #638, #364, #749 ) ;
#284 = FILL_AREA_STYLE ('',( #301 ) ) ;
#285 = ORIENTED_EDGE ( 'NONE', *, *, #1029, .F. ) ;
#286 = VECTOR ( 'NONE', #740, 1000.000000000000000 ) ;
#287 =( GEOMETRIC_REPRESENTATION_CONTEXT ( 3 ) GLOBAL_UNCERTAINTY_ASSIGNED_CONTEXT ( ( #534 ) ) GLOBAL_UNIT_ASSIGNED_CONTEXT ( ( #1049, #575, #488 ) ) REPRESENTATION_CONTEXT ( 'NONE', 'WORKASPACE' ) );
#288 = CARTESIAN_POINT ( 'NONE',  ( 3.142500000000000071, 0.03249999999999964029, 1.600000000000000089 ) ) ;
#289 = CARTESIAN_POINT ( 'NONE',  ( -2.674999999999999822, -3.092233167847066534E-16, 1.600000000000000089 ) ) ;
#290 = CARTESIAN_POINT ( 'NONE',  ( 3.142500000000000071, 0.5524999999999999911, -1.600000000000000089 ) ) ;
#291 = DIRECTION ( 'NONE',  ( -0.000000000000000000, -0.000000000000000000, -1.000000000000000000 ) ) ;
#292 = VERTEX_POINT ( 'NONE', #660 ) ;
#293 = DIRECTION ( 'NONE',  ( -1.159574516027277451E-16, -1.000000000000000000, 0.000000000000000000 ) ) ;
#294 = SURFACE_STYLE_FILL_AREA ( #567 ) ;
#295 = ADVANCED_FACE ( 'NONE', ( #666 ), #940, .T. ) ;
#296 = SURFACE_STYLE_USAGE ( .BOTH. , #864 ) ;
#297 = PLANE ( 'NONE',  #1120 ) ;
#298 = VERTEX_POINT ( 'NONE', #290 ) ;
#299 = CARTESIAN_POINT ( 'NONE',  ( -3.142500000000000071, 0.5524999999999999911, 1.600000000000000089 ) ) ;
#300 =( NAMED_UNIT ( * ) SI_UNIT ( $, .STERADIAN. ) SOLID_ANGLE_UNIT ( ) );
#301 = FILL_AREA_STYLE_COLOUR ( '', #680 ) ;
#302 = EDGE_LOOP ( 'NONE', ( #166, #1005, #799, #36 ) ) ;
#303 = AXIS2_PLACEMENT_3D ( 'NONE', #604, #506, #113 ) ;
#304 =( GEOMETRIC_REPRESENTATION_CONTEXT ( 3 ) GLOBAL_UNCERTAINTY_ASSIGNED_CONTEXT ( ( #708 ) ) GLOBAL_UNIT_ASSIGNED_CONTEXT ( ( #515, #975, #42 ) ) REPRESENTATION_CONTEXT ( 'NONE', 'WORKASPACE' ) );
#305 = CARTESIAN_POINT ( 'NONE',  ( 3.174999999999999822, 0.5849999999999999645, 1.600000000000000089 ) ) ;
#306 = PLANE ( 'NONE',  #220 ) ;
#307 = DIRECTION ( 'NONE',  ( -0.000000000000000000, -0.000000000000000000, -1.000000000000000000 ) ) ;
#308 = DIRECTION ( 'NONE',  ( 1.000000000000000000, -0.000000000000000000, -0.000000000000000000 ) ) ;
#309 = ORIENTED_EDGE ( 'NONE', *, *, #1130, .T. ) ;
#310 = UNCERTAINTY_MEASURE_WITH_UNIT (LENGTH_MEASURE( 1.000000000000000082E-05 ), #339, 'distance_accuracy_value', 'NONE');
#311 = FACE_OUTER_BOUND ( 'NONE', #754, .T. ) ;
#312 = FACE_OUTER_BOUND ( 'NONE', #253, .T. ) ;
#313 = EDGE_CURVE ( 'NONE', #1210, #292, #1040, .T. ) ;
#314 = CARTESIAN_POINT ( 'NONE',  ( 2.674999999999999822, 0.5849999999999999645, 1.600000000000000089 ) ) ;
#315 = DIRECTION ( 'NONE',  ( -0.5735764363510525987, 0.8191520442889872466, 0.000000000000000000 ) ) ;
#316 = CARTESIAN_POINT ( 'NONE',  ( -2.674999999999999822, 0.03249999999999968886, 1.600000000000000089 ) ) ;
#317 = MANIFOLD_SOLID_BREP ( 'Boss-Extrude1[1]', #559 ) ;
#318 = PRESENTATION_LAYER_ASSIGNMENT (  '', '', ( #854 ) ) ;
#319 =( GEOMETRIC_REPRESENTATION_CONTEXT ( 3 ) GLOBAL_UNCERTAINTY_ASSIGNED_CONTEXT ( ( #951 ) ) GLOBAL_UNIT_ASSIGNED_CONTEXT ( ( #109, #92, #300 ) ) REPRESENTATION_CONTEXT ( 'NONE', 'WORKASPACE' ) );
#320 =( LENGTH_UNIT ( ) NAMED_UNIT ( * ) SI_UNIT ( .MILLI., .METRE. ) );
#321 = FACE_OUTER_BOUND ( 'NONE', #620, .T. ) ;
#322 =( NAMED_UNIT ( * ) PLANE_ANGLE_UNIT ( ) SI_UNIT ( $, .RADIAN. ) );
#323 = CARTESIAN_POINT ( 'NONE',  ( 2.674999999999999822, -3.092233167847066534E-16, -1.600000000000000089 ) ) ;
#324 = ORIENTED_EDGE ( 'NONE', *, *, #935, .T. ) ;
#325 = VERTEX_POINT ( 'NONE', #843 ) ;
#326 = LINE ( 'NONE', #971, #403 ) ;
#327 = ORIENTED_EDGE ( 'NONE', *, *, #1160, .F. ) ;
#328 = LINE ( 'NONE', #215, #1159 ) ;
#329 = CARTESIAN_POINT ( 'NONE',  ( 2.674999999999999822, 0.5849999999999999645, -1.599999999999999867 ) ) ;
#330 = ADVANCED_FACE ( 'NONE', ( #948 ), #1226, .T. ) ;
#331 = CARTESIAN_POINT ( 'NONE',  ( -3.142500000000000071, 0.5524999999999999911, 1.600000000000000089 ) ) ;
#332 = DIRECTION ( 'NONE',  ( -0.5735764363510451602, -0.8191520442889924647, -0.000000000000000000 ) ) ;
#333 = EDGE_CURVE ( 'NONE', #45, #1179, #804, .T. ) ;
#334 = EDGE_LOOP ( 'NONE', ( #189, #344, #495, #815, #9, #1041, #232, #758 ) ) ;
#335 = DIRECTION ( 'NONE',  ( -0.000000000000000000, -0.000000000000000000, -1.000000000000000000 ) ) ;
#336 = EDGE_LOOP ( 'NONE', ( #70, #890, #369, #667 ) ) ;
#337 = PRESENTATION_STYLE_ASSIGNMENT (( #531 ) ) ;
#338 = CARTESIAN_POINT ( 'NONE',  ( -2.674999999999999822, 0.5849999999999999645, 1.600000000000000089 ) ) ;
#339 =( LENGTH_UNIT ( ) NAMED_UNIT ( * ) SI_UNIT ( .MILLI., .METRE. ) );
#340 = EDGE_CURVE ( 'NONE', #1205, #180, #868, .T. ) ;
#341 = VECTOR ( 'NONE', #30, 1000.000000000000000 ) ;
#342 = VECTOR ( 'NONE', #1069, 1000.000000000000000 ) ;
#343 = FILL_AREA_STYLE_COLOUR ( '', #1056 ) ;
#344 = ORIENTED_EDGE ( 'NONE', *, *, #333, .T. ) ;
#345 = VECTOR ( 'NONE', #1128, 1000.000000000000000 ) ;
#346 = VECTOR ( 'NONE', #840, 1000.000000000000000 ) ;
#347 = LINE ( 'NONE', #814, #996 ) ;
#348 = ADVANCED_FACE ( 'NONE', ( #1063 ), #41, .F. ) ;
#349 = PLANE ( 'NONE',  #785 ) ;
#350 = VERTEX_POINT ( 'NONE', #406 ) ;
#351 = PRESENTATION_STYLE_ASSIGNMENT (( #465 ) ) ;
#352 = LINE ( 'NONE', #1193, #1170 ) ;
#353 = FILL_AREA_STYLE ('',( #741 ) ) ;
#354 = ORIENTED_EDGE ( 'NONE', *, *, #239, .F. ) ;
#355 = VERTEX_POINT ( 'NONE', #594 ) ;
#356 = ADVANCED_FACE ( 'NONE', ( #1156 ), #211, .F. ) ;
#357 = DIRECTION ( 'NONE',  ( 1.000000000000000000, 0.000000000000000000, -0.000000000000000000 ) ) ;
#358 = VERTEX_POINT ( 'NONE', #1075 ) ;
#359 = FACE_OUTER_BOUND ( 'NONE', #197, .T. ) ;
#360 = AXIS2_PLACEMENT_3D ( 'NONE', #218, #797, #213 ) ;
#361 = VECTOR ( 'NONE', #407, 1000.000000000000000 ) ;
#362 = LINE ( 'NONE', #457, #246 ) ;
#363 = VECTOR ( 'NONE', #1007, 1000.000000000000000 ) ;
#364 = DIRECTION ( 'NONE',  ( 0.8191520442889872466, 0.5735764363510525987, -0.000000000000000000 ) ) ;
#365 = ORIENTED_EDGE ( 'NONE', *, *, #1161, .F. ) ;
#366 = VECTOR ( 'NONE', #374, 1000.000000000000000 ) ;
#367 = EDGE_CURVE ( 'NONE', #325, #373, #1162, .T. ) ;
#368 = FILL_AREA_STYLE ('',( #188 ) ) ;
#369 = ORIENTED_EDGE ( 'NONE', *, *, #1030, .F. ) ;
#370 = EDGE_CURVE ( 'NONE', #805, #550, #987, .T. ) ;
#371 = SURFACE_SIDE_STYLE ('',( #570 ) ) ;
#372 = FILL_AREA_STYLE ('',( #1230 ) ) ;
#373 = VERTEX_POINT ( 'NONE', #429 ) ;
#374 = DIRECTION ( 'NONE',  ( -0.000000000000000000, -0.000000000000000000, -1.000000000000000000 ) ) ;
#375 = VECTOR ( 'NONE', #1201, 1000.000000000000000 ) ;
#376 = MECHANICAL_DESIGN_GEOMETRIC_PRESENTATION_REPRESENTATION (  '', ( #18 ), #874 ) ;
#377 =( LENGTH_UNIT ( ) NAMED_UNIT ( * ) SI_UNIT ( .MILLI., .METRE. ) );
#378 = DIRECTION ( 'NONE',  ( 0.000000000000000000, 0.000000000000000000, 1.000000000000000000 ) ) ;
#379 = ORIENTED_EDGE ( 'NONE', *, *, #834, .T. ) ;
#380 = PRESENTATION_LAYER_ASSIGNMENT (  '', '', ( #855 ) ) ;
#381 = MECHANICAL_DESIGN_GEOMETRIC_PRESENTATION_REPRESENTATION (  '', ( #447 ), #117 ) ;
#382 = PRODUCT_DEFINITION_FORMATION_WITH_SPECIFIED_SOURCE ( 'ANY', '', #956, .NOT_KNOWN. ) ;
#383 = EDGE_CURVE ( 'NONE', #1088, #80, #493, .T. ) ;
#384 = FACE_OUTER_BOUND ( 'NONE', #235, .T. ) ;
#385 = DIRECTION ( 'NONE',  ( -1.000000000000000000, 1.159574516027277451E-16, -0.000000000000000000 ) ) ;
#386 = SURFACE_STYLE_USAGE ( .BOTH. , #3 ) ;
#387 = DIRECTION ( 'NONE',  ( 0.000000000000000000, 0.000000000000000000, 1.000000000000000000 ) ) ;
#388 = ORIENTED_EDGE ( 'NONE', *, *, #652, .F. ) ;
#389 = LINE ( 'NONE', #299, #880 ) ;
#390 = PRODUCT_DEFINITION_SHAPE ( 'NONE', 'NONE',  #486 ) ;
#391 = EDGE_CURVE ( 'NONE', #896, #1132, #713, .T. ) ;
#392 = CARTESIAN_POINT ( 'NONE',  ( 2.674999999999999822, 0.5849999999999999645, 1.600000000000000089 ) ) ;
#393 = CARTESIAN_POINT ( 'NONE',  ( -2.674999999999999822, 0.5849999999999999645, 1.600000000000000089 ) ) ;
#394 = ORIENTED_EDGE ( 'NONE', *, *, #31, .T. ) ;
#395 = DIRECTION ( 'NONE',  ( -1.000000000000000000, 0.000000000000000000, 0.000000000000000000 ) ) ;
#396 = LINE ( 'NONE', #778, #918 ) ;
#397 = CARTESIAN_POINT ( 'NONE',  ( -3.174999999999999822, -3.704556567420743261E-16, 1.600000000000000089 ) ) ;
#398 = CARTESIAN_POINT ( 'NONE',  ( 2.674999999999999822, 0.5524999999999999911, 1.600000000000000089 ) ) ;
#399 = VERTEX_POINT ( 'NONE', #118 ) ;
#400 = STYLED_ITEM ( 'NONE', ( #1027 ), #201 ) ;
#401 = VECTOR ( 'NONE', #291, 1000.000000000000000 ) ;
#402 = STYLED_ITEM ( 'NONE', ( #351 ), #748 ) ;
#403 = VECTOR ( 'NONE', #521, 1000.000000000000000 ) ;
#404 = VECTOR ( 'NONE', #602, 1000.000000000000000 ) ;
#405 = CARTESIAN_POINT ( 'NONE',  ( -3.142500000000000071, 0.03249999999999964029, 1.600000000000000089 ) ) ;
#406 = CARTESIAN_POINT ( 'NONE',  ( 3.174999999999999822, -3.704556567420743261E-16, 1.600000000000000089 ) ) ;
#407 = DIRECTION ( 'NONE',  ( -1.000000000000000000, 0.000000000000000000, 0.000000000000000000 ) ) ;
#408 = ORIENTED_EDGE ( 'NONE', *, *, #784, .F. ) ;
#409 = ADVANCED_FACE ( 'NONE', ( #504 ), #881, .T. ) ;
#410 = LINE ( 'NONE', #314, #1121 ) ;
#411 =( LENGTH_UNIT ( ) NAMED_UNIT ( * ) SI_UNIT ( .MILLI., .METRE. ) );
#412 = FILL_AREA_STYLE ('',( #28 ) ) ;
#413 = SURFACE_STYLE_FILL_AREA ( #526 ) ;
#414 = LINE ( 'NONE', #227, #17 ) ;
#415 = ADVANCED_BREP_SHAPE_REPRESENTATION ( 'PT2512FK-070R1L', ( #317, #748, #722, #1133, #961 ), #702 ) ;
#416 = CARTESIAN_POINT ( 'NONE',  ( -3.142500000000000071, 0.03249999999999964029, 1.600000000000000089 ) ) ;
#417 = CARTESIAN_POINT ( 'NONE',  ( 3.142500000000000071, 0.03249999999999964029, 1.600000000000000089 ) ) ;
#418 = DIRECTION ( 'NONE',  ( 1.000000000000000000, 0.000000000000000000, 0.000000000000000000 ) ) ;
#419 = DIRECTION ( 'NONE',  ( -0.000000000000000000, -1.000000000000000000, -0.000000000000000000 ) ) ;
#420 = UNCERTAINTY_MEASURE_WITH_UNIT (LENGTH_MEASURE( 1.000000000000000082E-05 ), #281, 'distance_accuracy_value', 'NONE');
#421 = VECTOR ( 'NONE', #308, 1000.000000000000000 ) ;
#422 = ORIENTED_EDGE ( 'NONE', *, *, #925, .F. ) ;
#423 = VERTEX_POINT ( 'NONE', #60 ) ;
#424 = VECTOR ( 'NONE', #478, 1000.000000000000000 ) ;
#425 = ADVANCED_FACE ( 'NONE', ( #150 ), #618, .F. ) ;
#426 = LINE ( 'NONE', #405, #1102 ) ;
#427 = ORIENTED_EDGE ( 'NONE', *, *, #15, .F. ) ;
#428 = ADVANCED_FACE ( 'NONE', ( #1191 ), #1198, .T. ) ;
#429 = CARTESIAN_POINT ( 'NONE',  ( 2.629486510016367795, 0.6500000000000000222, -1.599999999999999867 ) ) ;
#430 = LINE ( 'NONE', #715, #444 ) ;
#431 = ORIENTED_EDGE ( 'NONE', *, *, #1082, .T. ) ;
#432 = CARTESIAN_POINT ( 'NONE',  ( 2.674999999999999822, 0.5524999999999999911, 1.600000000000000089 ) ) ;
#433 = VERTEX_POINT ( 'NONE', #877 ) ;
#434 = PRODUCT_CONTEXT ( 'NONE', #593, 'mechanical' ) ;
#435 = CARTESIAN_POINT ( 'NONE',  ( 2.674999999999999822, 0.03249999999999968886, -1.600000000000000089 ) ) ;
#436 = EDGE_CURVE ( 'NONE', #683, #983, #764, .T. ) ;
#437 = SURFACE_STYLE_FILL_AREA ( #259 ) ;
#438 = VERTEX_POINT ( 'NONE', #968 ) ;
#439 = LINE ( 'NONE', #159, #821 ) ;
#440 = EDGE_LOOP ( 'NONE', ( #1196, #192, #1231, #256 ) ) ;
#441 = LINE ( 'NONE', #592, #1103 ) ;
#442 = SURFACE_STYLE_FILL_AREA ( #247 ) ;
#443 =( LENGTH_UNIT ( ) NAMED_UNIT ( * ) SI_UNIT ( .MILLI., .METRE. ) );
#444 = VECTOR ( 'NONE', #1092, 1000.000000000000000 ) ;
#445 = EDGE_LOOP ( 'NONE', ( #614, #1095, #1147, #977, #607, #243, #613, #130 ) ) ;
#446 = VECTOR ( 'NONE', #654, 1000.000000000000000 ) ;
#447 = STYLED_ITEM ( 'NONE', ( #261 ), #991 ) ;
#448 =( LENGTH_UNIT ( ) NAMED_UNIT ( * ) SI_UNIT ( .MILLI., .METRE. ) );
#449 = FACE_OUTER_BOUND ( 'NONE', #129, .T. ) ;
#450 = SURFACE_STYLE_USAGE ( .BOTH. , #817 ) ;
#451 = AXIS2_PLACEMENT_3D ( 'NONE', #487, #293, #674 ) ;
#452 =( NAMED_UNIT ( * ) PLANE_ANGLE_UNIT ( ) SI_UNIT ( $, .RADIAN. ) );
#453 = ORIENTED_EDGE ( 'NONE', *, *, #612, .F. ) ;
#454 = ADVANCED_FACE ( 'NONE', ( #850 ), #770, .F. ) ;
#455 = LINE ( 'NONE', #1127, #648 ) ;
#456 = EDGE_LOOP ( 'NONE', ( #38, #965, #921, #275 ) ) ;
#457 = CARTESIAN_POINT ( 'NONE',  ( -3.142500000000000071, 0.03249999999999964029, 1.600000000000000089 ) ) ;
#458 = SURFACE_STYLE_FILL_AREA ( #353 ) ;
#459 = ORIENTED_EDGE ( 'NONE', *, *, #226, .T. ) ;
#460 = CARTESIAN_POINT ( 'NONE',  ( 2.674999999999999822, -3.092233167847066534E-16, 1.600000000000000089 ) ) ;
#461 = DIRECTION ( 'NONE',  ( 0.000000000000000000, 0.000000000000000000, 1.000000000000000000 ) ) ;
#462 = ORIENTED_EDGE ( 'NONE', *, *, #573, .F. ) ;
#463 = COLOUR_RGB ( '',0.2509803921568627416, 0.2509803921568627416, 0.2509803921568627416 ) ;
#464 = COLOUR_RGB ( '',0.2509803921568627416, 0.2509803921568627416, 0.2509803921568627416 ) ;
#465 = SURFACE_STYLE_USAGE ( .BOTH. , #824 ) ;
#466 = AXIS2_PLACEMENT_3D ( 'NONE', #1185, #1192, #619 ) ;
#467 = ORIENTED_EDGE ( 'NONE', *, *, #776, .T. ) ;
#468 = VECTOR ( 'NONE', #222, 1000.000000000000000 ) ;
#469 = CARTESIAN_POINT ( 'NONE',  ( -3.142500000000000071, 0.03249999999999964029, 1.600000000000000089 ) ) ;
#470 = SURFACE_SIDE_STYLE ('',( #1017 ) ) ;
#471 = ORIENTED_EDGE ( 'NONE', *, *, #685, .T. ) ;
#472 =( NAMED_UNIT ( * ) PLANE_ANGLE_UNIT ( ) SI_UNIT ( $, .RADIAN. ) );
#473 = CARTESIAN_POINT ( 'NONE',  ( -2.674999999999999822, -3.092233167847066534E-16, -1.600000000000000089 ) ) ;
#474 = DIRECTION ( 'NONE',  ( -1.000000000000000000, 0.000000000000000000, -0.000000000000000000 ) ) ;
#475 = CARTESIAN_POINT ( 'NONE',  ( -2.629486510016368683, 0.6500000000000000222, -6.950888360823835654 ) ) ;
#476 = ORIENTED_EDGE ( 'NONE', *, *, #1227, .F. ) ;
#477 = EDGE_CURVE ( 'NONE', #859, #900, #1051, .T. ) ;
#478 = DIRECTION ( 'NONE',  ( -0.000000000000000000, 1.000000000000000000, -0.000000000000000000 ) ) ;
#479 = COLOUR_RGB ( '',1.000000000000000000, 1.000000000000000000, 1.000000000000000000 ) ;
#480 =( NAMED_UNIT ( * ) PLANE_ANGLE_UNIT ( ) SI_UNIT ( $, .RADIAN. ) );
#481 = ORIENTED_EDGE ( 'NONE', *, *, #1123, .F. ) ;
#482 = UNCERTAINTY_MEASURE_WITH_UNIT (LENGTH_MEASURE( 1.000000000000000082E-05 ), #653, 'distance_accuracy_value', 'NONE');
#483 = AXIS2_PLACEMENT_3D ( 'NONE', #156, #926, #461 ) ;
#484 = STYLED_ITEM ( 'NONE', ( #1004 ), #938 ) ;
#485 = VECTOR ( 'NONE', #1109, 1000.000000000000000 ) ;
#486 = PRODUCT_DEFINITION ( 'UNKNOWN', '', #382, #55 ) ;
#487 = CARTESIAN_POINT ( 'NONE',  ( 2.674999999999999822, 0.03249999999999968886, 1.600000000000000089 ) ) ;
#488 =( NAMED_UNIT ( * ) SI_UNIT ( $, .STERADIAN. ) SOLID_ANGLE_UNIT ( ) );
#489 = PRESENTATION_STYLE_ASSIGNMENT (( #753 ) ) ;
#490 = SURFACE_SIDE_STYLE ('',( #671 ) ) ;
#491 = ORIENTED_EDGE ( 'NONE', *, *, #110, .T. ) ;
#492 = DIRECTION ( 'NONE',  ( 0.000000000000000000, 1.000000000000000000, 0.000000000000000000 ) ) ;
#493 = LINE ( 'NONE', #967, #1036 ) ;
#494 = PRESENTATION_STYLE_ASSIGNMENT (( #94 ) ) ;
#495 = ORIENTED_EDGE ( 'NONE', *, *, #684, .T. ) ;
#496 = DIRECTION ( 'NONE',  ( 0.000000000000000000, 0.000000000000000000, 1.000000000000000000 ) ) ;
#497 = ADVANCED_FACE ( 'NONE', ( #1146 ), #297, .F. ) ;
#498 = DIRECTION ( 'NONE',  ( 0.000000000000000000, 0.000000000000000000, 1.000000000000000000 ) ) ;
#499 = PLANE ( 'NONE',  #798 ) ;
#500 = EDGE_CURVE ( 'NONE', #553, #805, #106, .T. ) ;
#501 = CARTESIAN_POINT ( 'NONE',  ( 2.674999999999999822, 0.5524999999999999911, -1.599999999999999867 ) ) ;
#502 = AXIS2_PLACEMENT_3D ( 'NONE', #338, #532, #1112 ) ;
#503 = DIRECTION ( 'NONE',  ( -0.000000000000000000, -0.000000000000000000, -1.000000000000000000 ) ) ;
#504 = FACE_OUTER_BOUND ( 'NONE', #844, .T. ) ;
#505 = PRESENTATION_STYLE_ASSIGNMENT (( #812 ) ) ;
#506 = DIRECTION ( 'NONE',  ( 0.000000000000000000, -1.000000000000000000, 0.000000000000000000 ) ) ;
#507 = LINE ( 'NONE', #131, #183 ) ;
#508 =( LENGTH_UNIT ( ) NAMED_UNIT ( * ) SI_UNIT ( .MILLI., .METRE. ) );
#509 =( NAMED_UNIT ( * ) PLANE_ANGLE_UNIT ( ) SI_UNIT ( $, .RADIAN. ) );
#510 = PLANE ( 'NONE',  #1218 ) ;
#511 = EDGE_CURVE ( 'NONE', #45, #399, #1157, .T. ) ;
#512 = EDGE_LOOP ( 'NONE', ( #777, #145, #765, #733 ) ) ;
#513 = ORIENTED_EDGE ( 'NONE', *, *, #280, .T. ) ;
#514 = DIRECTION ( 'NONE',  ( -0.000000000000000000, -1.000000000000000000, -0.000000000000000000 ) ) ;
#515 =( LENGTH_UNIT ( ) NAMED_UNIT ( * ) SI_UNIT ( .MILLI., .METRE. ) );
#516 = CARTESIAN_POINT ( 'NONE',  ( -2.674999999999999822, 0.5524999999999999911, -1.599999999999999867 ) ) ;
#517 = VECTOR ( 'NONE', #893, 1000.000000000000000 ) ;
#518 = VECTOR ( 'NONE', #980, 1000.000000000000000 ) ;
#519 = VERTEX_POINT ( 'NONE', #212 ) ;
#520 = ORIENTED_EDGE ( 'NONE', *, *, #884, .T. ) ;
#521 = DIRECTION ( 'NONE',  ( -0.000000000000000000, -0.000000000000000000, -1.000000000000000000 ) ) ;
#522 = ORIENTED_EDGE ( 'NONE', *, *, #90, .T. ) ;
#523 = PLANE ( 'NONE',  #919 ) ;
#524 = STYLED_ITEM ( 'NONE', ( #772 ), #1133 ) ;
#525 = DIRECTION ( 'NONE',  ( -0.000000000000000000, 0.000000000000000000, -1.000000000000000000 ) ) ;
#526 = FILL_AREA_STYLE ('',( #141 ) ) ;
#527 = CARTESIAN_POINT ( 'NONE',  ( -2.674999999999999822, -3.092233167847066534E-16, 1.600000000000000089 ) ) ;
#528 = VERTEX_POINT ( 'NONE', #949 ) ;
#529 = DIRECTION ( 'NONE',  ( 0.000000000000000000, -1.000000000000000000, 0.000000000000000000 ) ) ;
#530 = EDGE_LOOP ( 'NONE', ( #1125, #827, #462, #1059 ) ) ;
#531 = SURFACE_STYLE_USAGE ( .BOTH. , #49 ) ;
#532 = DIRECTION ( 'NONE',  ( -1.000000000000000000, 0.000000000000000000, 0.000000000000000000 ) ) ;
#533 = DIRECTION ( 'NONE',  ( -1.000000000000000000, 0.000000000000000000, -0.000000000000000000 ) ) ;
#534 = UNCERTAINTY_MEASURE_WITH_UNIT (LENGTH_MEASURE( 1.000000000000000082E-05 ), #1049, 'distance_accuracy_value', 'NONE');
#535 = DIRECTION ( 'NONE',  ( 1.000000000000000000, -1.224646799147353454E-16, 0.000000000000000000 ) ) ;
#536 = EDGE_LOOP ( 'NONE', ( #710, #1104, #228, #738 ) ) ;
#537 = FILL_AREA_STYLE_COLOUR ( '', #479 ) ;
#538 = FILL_AREA_STYLE_COLOUR ( '', #783 ) ;
#539 = CARTESIAN_POINT ( 'NONE',  ( -2.674999999999999822, -3.092233167847066534E-16, 1.600000000000000089 ) ) ;
#540 = ADVANCED_FACE ( 'NONE', ( #578 ), #499, .T. ) ;
#541 = MECHANICAL_DESIGN_GEOMETRIC_PRESENTATION_REPRESENTATION (  '', ( #1152 ), #931 ) ;
#542 = VECTOR ( 'NONE', #315, 1000.000000000000114 ) ;
#543 = LINE ( 'NONE', #732, #485 ) ;
#544 = ORIENTED_EDGE ( 'NONE', *, *, #1215, .T. ) ;
#545 = MECHANICAL_DESIGN_GEOMETRIC_PRESENTATION_REPRESENTATION (  '', ( #40 ), #287 ) ;
#546 = LINE ( 'NONE', #937, #345 ) ;
#547 = STYLED_ITEM ( 'NONE', ( #1081 ), #415 ) ;
#548 = ORIENTED_EDGE ( 'NONE', *, *, #760, .F. ) ;
#549 = PLANE ( 'NONE',  #600 ) ;
#550 = VERTEX_POINT ( 'NONE', #206 ) ;
#551 = DIRECTION ( 'NONE',  ( -0.000000000000000000, -0.000000000000000000, -1.000000000000000000 ) ) ;
#552 = PLANE ( 'NONE',  #283 ) ;
#553 = VERTEX_POINT ( 'NONE', #393 ) ;
#554 = EDGE_CURVE ( 'NONE', #859, #269, #775, .T. ) ;
#555 = EDGE_CURVE ( 'NONE', #930, #80, #1070, .T. ) ;
#556 = FILL_AREA_STYLE ('',( #641 ) ) ;
#557 = SURFACE_STYLE_USAGE ( .BOTH. , #267 ) ;
#558 = ORIENTED_EDGE ( 'NONE', *, *, #739, .F. ) ;
#559 = CLOSED_SHELL ( 'NONE', ( #728, #811, #1111, #102, #649, #54, #356, #128, #657, #670 ) ) ;
#560 = MECHANICAL_DESIGN_GEOMETRIC_PRESENTATION_REPRESENTATION (  '', ( #853 ), #970 ) ;
#561 = EDGE_CURVE ( 'NONE', #1210, #519, #964, .T. ) ;
#562 =( GEOMETRIC_REPRESENTATION_CONTEXT ( 3 ) GLOBAL_UNCERTAINTY_ASSIGNED_CONTEXT ( ( #879 ) ) GLOBAL_UNIT_ASSIGNED_CONTEXT ( ( #571, #480, #945 ) ) REPRESENTATION_CONTEXT ( 'NONE', 'WORKASPACE' ) );
#563 = DIRECTION ( 'NONE',  ( 1.000000000000000000, -0.000000000000000000, -0.000000000000000000 ) ) ;
#564 = PRESENTATION_LAYER_ASSIGNMENT (  '', '', ( #1101 ) ) ;
#565 = EDGE_LOOP ( 'NONE', ( #903, #89, #66, #1086 ) ) ;
#566 = COLOUR_RGB ( '',0.7921568627450980005, 0.8196078431372548767, 0.9333333333333333481 ) ;
#567 = FILL_AREA_STYLE ('',( #186 ) ) ;
#568 = DIRECTION ( 'NONE',  ( -0.000000000000000000, -0.000000000000000000, -1.000000000000000000 ) ) ;
#569 = ORIENTED_EDGE ( 'NONE', *, *, #834, .F. ) ;
#570 = SURFACE_STYLE_FILL_AREA ( #662 ) ;
#571 =( LENGTH_UNIT ( ) NAMED_UNIT ( * ) SI_UNIT ( .MILLI., .METRE. ) );
#572 = ORIENTED_EDGE ( 'NONE', *, *, #226, .F. ) ;
#573 = EDGE_CURVE ( 'NONE', #1088, #1210, #14, .T. ) ;
#574 = DIRECTION ( 'NONE',  ( 1.000000000000000000, -1.224646799147353454E-16, 0.000000000000000000 ) ) ;
#575 =( NAMED_UNIT ( * ) PLANE_ANGLE_UNIT ( ) SI_UNIT ( $, .RADIAN. ) );
#576 = VECTOR ( 'NONE', #1058, 1000.000000000000000 ) ;
#577 =( NAMED_UNIT ( * ) SI_UNIT ( $, .STERADIAN. ) SOLID_ANGLE_UNIT ( ) );
#578 = FACE_OUTER_BOUND ( 'NONE', #1208, .T. ) ;
#579 = ORIENTED_EDGE ( 'NONE', *, *, #1144, .T. ) ;
#580 = UNCERTAINTY_MEASURE_WITH_UNIT (LENGTH_MEASURE( 1.000000000000000082E-05 ), #377, 'distance_accuracy_value', 'NONE');
#581 = COLOUR_RGB ( '',1.000000000000000000, 1.000000000000000000, 1.000000000000000000 ) ;
#582 = CARTESIAN_POINT ( 'NONE',  ( -3.174999999999999822, 0.5849999999999999645, 1.600000000000000089 ) ) ;
#583 = FACE_OUTER_BOUND ( 'NONE', #302, .T. ) ;
#584 = DIRECTION ( 'NONE',  ( 0.000000000000000000, 1.000000000000000000, 0.000000000000000000 ) ) ;
#585 = DIRECTION ( 'NONE',  ( 0.000000000000000000, 1.000000000000000000, 0.000000000000000000 ) ) ;
#586 = VERTEX_POINT ( 'NONE', #1163 ) ;
#587 = ADVANCED_FACE ( 'NONE', ( #125 ), #230, .T. ) ;
#588 = CARTESIAN_POINT ( 'NONE',  ( 2.674999999999999822, -3.092233167847066534E-16, 1.600000000000000089 ) ) ;
#589 = ADVANCED_FACE ( 'NONE', ( #1175 ), #705, .F. ) ;
#590 = DIRECTION ( 'NONE',  ( -0.000000000000000000, -0.000000000000000000, -1.000000000000000000 ) ) ;
#591 = ORIENTED_EDGE ( 'NONE', *, *, #1169, .T. ) ;
#592 = CARTESIAN_POINT ( 'NONE',  ( -3.142500000000000071, 0.03249999999999964029, -1.599999999999999867 ) ) ;
#593 = APPLICATION_CONTEXT ( 'automotive_design' ) ;
#594 = CARTESIAN_POINT ( 'NONE',  ( 2.674999999999999822, 0.5524999999999999911, -1.599999999999999867 ) ) ;
#595 = CLOSED_SHELL ( 'NONE', ( #187, #1053, #634, #587, #257, #540, #991, #330 ) ) ;
#596 = CARTESIAN_POINT ( 'NONE',  ( -2.674999999999999822, 0.5849999999999999645, 1.600000000000000089 ) ) ;
#597 = AXIS2_PLACEMENT_3D ( 'NONE', #902, #810, #525 ) ;
#598 = VECTOR ( 'NONE', #773, 1000.000000000000000 ) ;
#599 = PRESENTATION_LAYER_ASSIGNMENT (  '', '', ( #447 ) ) ;
#600 = AXIS2_PLACEMENT_3D ( 'NONE', #1209, #1214, #1195 ) ;
#601 = DIRECTION ( 'NONE',  ( -0.000000000000000000, -1.000000000000000000, -0.000000000000000000 ) ) ;
#602 = DIRECTION ( 'NONE',  ( 0.000000000000000000, 0.000000000000000000, 1.000000000000000000 ) ) ;
#603 = EDGE_CURVE ( 'NONE', #1034, #553, #882, .T. ) ;
#604 = CARTESIAN_POINT ( 'NONE',  ( -3.174999999999999822, 0.5849999999999999645, 1.600000000000000089 ) ) ;
#605 = UNCERTAINTY_MEASURE_WITH_UNIT (LENGTH_MEASURE( 1.000000000000000082E-05 ), #927, 'distance_accuracy_value', 'NONE');
#606 = VERTEX_POINT ( 'NONE', #435 ) ;
#607 = ORIENTED_EDGE ( 'NONE', *, *, #12, .F. ) ;
#608 = SURFACE_STYLE_USAGE ( .BOTH. , #625 ) ;
#609 =( NAMED_UNIT ( * ) SI_UNIT ( $, .STERADIAN. ) SOLID_ANGLE_UNIT ( ) );
#610 = DIRECTION ( 'NONE',  ( -0.5735764363510451602, -0.8191520442889924647, 0.000000000000000000 ) ) ;
#611 = LINE ( 'NONE', #596, #916 ) ;
#612 = EDGE_CURVE ( 'NONE', #95, #1052, #1200, .T. ) ;
#613 = ORIENTED_EDGE ( 'NONE', *, *, #555, .F. ) ;
#614 = ORIENTED_EDGE ( 'NONE', *, *, #1, .F. ) ;
#615 = CARTESIAN_POINT ( 'NONE',  ( -3.142500000000000071, 0.5524999999999999911, 1.600000000000000089 ) ) ;
#616 = VERTEX_POINT ( 'NONE', #988 ) ;
#617 = DIRECTION ( 'NONE',  ( 0.000000000000000000, 0.000000000000000000, -1.000000000000000000 ) ) ;
#618 = PLANE ( 'NONE',  #597 ) ;
#619 = DIRECTION ( 'NONE',  ( 0.000000000000000000, -0.000000000000000000, -1.000000000000000000 ) ) ;
#620 = EDGE_LOOP ( 'NONE', ( #431, #160, #837, #85 ) ) ;
#621 = VECTOR ( 'NONE', #1149, 1000.000000000000000 ) ;
#622 =( GEOMETRIC_REPRESENTATION_CONTEXT ( 3 ) GLOBAL_UNCERTAINTY_ASSIGNED_CONTEXT ( ( #852 ) ) GLOBAL_UNIT_ASSIGNED_CONTEXT ( ( #448, #628, #907 ) ) REPRESENTATION_CONTEXT ( 'NONE', 'WORKASPACE' ) );
#623 = ORIENTED_EDGE ( 'NONE', *, *, #952, .F. ) ;
#624 = AXIS2_PLACEMENT_3D ( 'NONE', #734, #842, #1216 ) ;
#625 = SURFACE_SIDE_STYLE ('',( #1171 ) ) ;
#626 = ORIENTED_EDGE ( 'NONE', *, *, #313, .F. ) ;
#627 = VECTOR ( 'NONE', #761, 1000.000000000000000 ) ;
#628 =( NAMED_UNIT ( * ) PLANE_ANGLE_UNIT ( ) SI_UNIT ( $, .RADIAN. ) );
#629 = SURFACE_STYLE_FILL_AREA ( #796 ) ;
#630 = CARTESIAN_POINT ( 'NONE',  ( 2.674999999999999822, 0.5524999999999999911, -1.600000000000000089 ) ) ;
#631 = CARTESIAN_POINT ( 'NONE',  ( 0.000000000000000000, 0.000000000000000000, -1.600000000000000089 ) ) ;
#632 =( NAMED_UNIT ( * ) SI_UNIT ( $, .STERADIAN. ) SOLID_ANGLE_UNIT ( ) );
#633 = ORIENTED_EDGE ( 'NONE', *, *, #57, .F. ) ;
#634 = ADVANCED_FACE ( 'NONE', ( #133 ), #1167, .T. ) ;
#635 = CARTESIAN_POINT ( 'NONE',  ( 0.000000000000000000, 0.000000000000000000, 1.600000000000000089 ) ) ;
#636 =( NAMED_UNIT ( * ) SI_UNIT ( $, .STERADIAN. ) SOLID_ANGLE_UNIT ( ) );
#637 = DIRECTION ( 'NONE',  ( -0.000000000000000000, -0.000000000000000000, -1.000000000000000000 ) ) ;
#638 = CARTESIAN_POINT ( 'NONE',  ( 2.674999999999999822, 0.5849999999999999645, -6.950888360823835654 ) ) ;
#639 = DIRECTION ( 'NONE',  ( 1.000000000000000000, 0.000000000000000000, 0.000000000000000000 ) ) ;
#640 = ORIENTED_EDGE ( 'NONE', *, *, #436, .F. ) ;
#641 = FILL_AREA_STYLE_COLOUR ( '', #98 ) ;
#642 = EDGE_LOOP ( 'NONE', ( #548, #459, #1071, #365 ) ) ;
#643 = VECTOR ( 'NONE', #637, 1000.000000000000000 ) ;
#644 = VECTOR ( 'NONE', #387, 1000.000000000000000 ) ;
#645 = CARTESIAN_POINT ( 'NONE',  ( -2.674999999999999822, 0.5849999999999999645, 1.600000000000000089 ) ) ;
#646 = VERTEX_POINT ( 'NONE', #331 ) ;
#647 = MECHANICAL_DESIGN_GEOMETRIC_PRESENTATION_REPRESENTATION (  '', ( #1101 ), #181 ) ;
#648 = VECTOR ( 'NONE', #658, 1000.000000000000000 ) ;
#649 = ADVANCED_FACE ( 'NONE', ( #714 ), #997, .F. ) ;
#650 = FACE_OUTER_BOUND ( 'NONE', #994, .T. ) ;
#651 = ORIENTED_EDGE ( 'NONE', *, *, #862, .F. ) ;
#652 = EDGE_CURVE ( 'NONE', #292, #528, #258, .T. ) ;
#653 =( LENGTH_UNIT ( ) NAMED_UNIT ( * ) SI_UNIT ( .MILLI., .METRE. ) );
#654 = DIRECTION ( 'NONE',  ( 1.000000000000000000, 1.224646799147353454E-16, -0.000000000000000000 ) ) ;
#655 = DIRECTION ( 'NONE',  ( -1.000000000000000000, 0.000000000000000000, 0.000000000000000000 ) ) ;
#656 = ORIENTED_EDGE ( 'NONE', *, *, #848, .T. ) ;
#657 = ADVANCED_FACE ( 'NONE', ( #1024 ), #83, .T. ) ;
#658 = DIRECTION ( 'NONE',  ( -0.000000000000000000, -1.000000000000000000, -0.000000000000000000 ) ) ;
#659 = CARTESIAN_POINT ( 'NONE',  ( 0.000000000000000000, 0.000000000000000000, 1.600000000000000089 ) ) ;
#660 = CARTESIAN_POINT ( 'NONE',  ( 2.674999999999999822, 0.5524999999999999911, 1.600000000000000089 ) ) ;
#661 = EDGE_LOOP ( 'NONE', ( #1023, #866, #24, #1129 ) ) ;
#662 = FILL_AREA_STYLE ('',( #1061 ) ) ;
#663 = PRESENTATION_LAYER_ASSIGNMENT (  '', '', ( #219 ) ) ;
#664 = VECTOR ( 'NONE', #551, 1000.000000000000000 ) ;
#665 = PLANE ( 'NONE',  #1001 ) ;
#666 = FACE_OUTER_BOUND ( 'NONE', #445, .T. ) ;
#667 = ORIENTED_EDGE ( 'NONE', *, *, #1066, .T. ) ;
#668 = VECTOR ( 'NONE', #496, 1000.000000000000000 ) ;
#669 = LINE ( 'NONE', #82, #184 ) ;
#670 = ADVANCED_FACE ( 'NONE', ( #449 ), #62, .F. ) ;
#671 = SURFACE_STYLE_FILL_AREA ( #1150 ) ;
#672 = EDGE_LOOP ( 'NONE', ( #1182, #1213, #1085, #324 ) ) ;
#673 = UNCERTAINTY_MEASURE_WITH_UNIT (LENGTH_MEASURE( 1.000000000000000082E-05 ), #320, 'distance_accuracy_value', 'NONE');
#674 = DIRECTION ( 'NONE',  ( 1.000000000000000000, -1.159574516027277451E-16, 0.000000000000000000 ) ) ;
#675 = SURFACE_STYLE_USAGE ( .BOTH. , #943 ) ;
#676 = CARTESIAN_POINT ( 'NONE',  ( 3.174999999999999822, 0.5849999999999999645, 1.600000000000000089 ) ) ;
#677 = ORIENTED_EDGE ( 'NONE', *, *, #340, .T. ) ;
#678 = DIRECTION ( 'NONE',  ( -1.000000000000000000, -0.000000000000000000, -0.000000000000000000 ) ) ;
#679 = LINE ( 'NONE', #1057, #598 ) ;
#680 = COLOUR_RGB ( '',1.000000000000000000, 1.000000000000000000, 1.000000000000000000 ) ;
#681 = SURFACE_STYLE_FILL_AREA ( #284 ) ;
#682 = CARTESIAN_POINT ( 'NONE',  ( -3.142500000000000071, 0.5524999999999999911, -1.599999999999999867 ) ) ;
#683 = VERTEX_POINT ( 'NONE', #75 ) ;
#684 = EDGE_CURVE ( 'NONE', #1179, #646, #362, .T. ) ;
#685 = EDGE_CURVE ( 'NONE', #1115, #586, #546, .T. ) ;
#686 =( GEOMETRIC_REPRESENTATION_CONTEXT ( 3 ) GLOBAL_UNCERTAINTY_ASSIGNED_CONTEXT ( ( #482 ) ) GLOBAL_UNIT_ASSIGNED_CONTEXT ( ( #653, #1031, #632 ) ) REPRESENTATION_CONTEXT ( 'NONE', 'WORKASPACE' ) );
#687 = DIRECTION ( 'NONE',  ( 0.000000000000000000, 0.000000000000000000, 1.000000000000000000 ) ) ;
#688 = LINE ( 'NONE', #473, #1074 ) ;
#689 = CARTESIAN_POINT ( 'NONE',  ( 3.142500000000000071, 0.03249999999999964029, -7.906474847329527655 ) ) ;
#690 = CARTESIAN_POINT ( 'NONE',  ( 3.174999999999999822, 0.5849999999999999645, 1.600000000000000089 ) ) ;
#691 = DIRECTION ( 'NONE',  ( -0.000000000000000000, 1.000000000000000000, 0.000000000000000000 ) ) ;
#692 = DIRECTION ( 'NONE',  ( 0.000000000000000000, 1.000000000000000000, 0.000000000000000000 ) ) ;
#693 = CARTESIAN_POINT ( 'NONE',  ( -2.674999999999999822, 0.03249999999999968886, 1.600000000000000089 ) ) ;
#694 = LINE ( 'NONE', #142, #341 ) ;
#695 = EDGE_CURVE ( 'NONE', #900, #1016, #1032, .T. ) ;
#696 = CARTESIAN_POINT ( 'NONE',  ( 3.142500000000000071, 0.5524999999999999911, -7.906474847329527655 ) ) ;
#697 = CARTESIAN_POINT ( 'NONE',  ( -3.142500000000000071, 0.03249999999999964029, -7.906474847329527655 ) ) ;
#698 = SURFACE_STYLE_USAGE ( .BOTH. , #1166 ) ;
#699 = VECTOR ( 'NONE', #63, 1000.000000000000000 ) ;
#700 = DIRECTION ( 'NONE',  ( 0.000000000000000000, 0.000000000000000000, -1.000000000000000000 ) ) ;
#701 = PLANE ( 'NONE',  #303 ) ;
#702 =( GEOMETRIC_REPRESENTATION_CONTEXT ( 3 ) GLOBAL_UNCERTAINTY_ASSIGNED_CONTEXT ( ( #818 ) ) GLOBAL_UNIT_ASSIGNED_CONTEXT ( ( #508, #972, #609 ) ) REPRESENTATION_CONTEXT ( 'NONE', 'WORKASPACE' ) );
#703 = SURFACE_STYLE_FILL_AREA ( #223 ) ;
#704 =( NAMED_UNIT ( * ) SI_UNIT ( $, .STERADIAN. ) SOLID_ANGLE_UNIT ( ) );
#705 = PLANE ( 'NONE',  #875 ) ;
#706 = EDGE_CURVE ( 'NONE', #350, #930, #254, .T. ) ;
#707 = CARTESIAN_POINT ( 'NONE',  ( -2.629486510016368683, 0.6500000000000000222, -1.599999999999999867 ) ) ;
#708 = UNCERTAINTY_MEASURE_WITH_UNIT (LENGTH_MEASURE( 1.000000000000000082E-05 ), #515, 'distance_accuracy_value', 'NONE');
#709 = ORIENTED_EDGE ( 'NONE', *, *, #90, .F. ) ;
#710 = ORIENTED_EDGE ( 'NONE', *, *, #477, .F. ) ;
#711 = ORIENTED_EDGE ( 'NONE', *, *, #146, .F. ) ;
#712 = CARTESIAN_POINT ( 'NONE',  ( -2.674999999999999822, 0.5524999999999999911, -1.600000000000000089 ) ) ;
#713 = LINE ( 'NONE', #689, #1099 ) ;
#714 = FACE_OUTER_BOUND ( 'NONE', #565, .T. ) ;
#715 = CARTESIAN_POINT ( 'NONE',  ( 2.674999999999999822, 0.03249999999999968886, 1.600000000000000089 ) ) ;
#716 = ORIENTED_EDGE ( 'NONE', *, *, #239, .T. ) ;
#717 = FILL_AREA_STYLE_COLOUR ( '', #857 ) ;
#718 = ORIENTED_EDGE ( 'NONE', *, *, #149, .T. ) ;
#719 = DIRECTION ( 'NONE',  ( -0.000000000000000000, 0.000000000000000000, 1.000000000000000000 ) ) ;
#720 = SURFACE_SIDE_STYLE ('',( #413 ) ) ;
#721 =( NAMED_UNIT ( * ) PLANE_ANGLE_UNIT ( ) SI_UNIT ( $, .RADIAN. ) );
#722 = MANIFOLD_SOLID_BREP ( 'Boss-Extrude2', #1054 ) ;
#723 = AXIS2_PLACEMENT_3D ( 'NONE', #527, #731, #735 ) ;
#724 = FACE_OUTER_BOUND ( 'NONE', #536, .T. ) ;
#725 = EDGE_CURVE ( 'NONE', #528, #298, #273, .T. ) ;
#726 = PRESENTATION_LAYER_ASSIGNMENT (  '', '', ( #18 ) ) ;
#727 = COLOUR_RGB ( '',0.7921568627450980005, 0.8196078431372548767, 0.9333333333333333481 ) ;
#728 = ADVANCED_FACE ( 'NONE', ( #1118 ), #1106, .F. ) ;
#729 = SURFACE_STYLE_FILL_AREA ( #751 ) ;
#730 = ORIENTED_EDGE ( 'NONE', *, *, #901, .T. ) ;
#731 = DIRECTION ( 'NONE',  ( -1.224646799147353454E-16, 1.000000000000000000, 0.000000000000000000 ) ) ;
#732 = CARTESIAN_POINT ( 'NONE',  ( 3.174999999999999822, 0.5849999999999999645, -1.600000000000000089 ) ) ;
#733 = ORIENTED_EDGE ( 'NONE', *, *, #962, .T. ) ;
#734 = CARTESIAN_POINT ( 'NONE',  ( 0.000000000000000000, 0.000000000000000000, -1.600000000000000089 ) ) ;
#735 = DIRECTION ( 'NONE',  ( -1.000000000000000000, -1.224646799147353454E-16, 0.000000000000000000 ) ) ;
#736 = ORIENTED_EDGE ( 'NONE', *, *, #391, .T. ) ;
#737 = DIRECTION ( 'NONE',  ( 0.000000000000000000, 1.000000000000000000, 0.000000000000000000 ) ) ;
#738 = ORIENTED_EDGE ( 'NONE', *, *, #695, .F. ) ;
#739 = EDGE_CURVE ( 'NONE', #616, #792, #752, .T. ) ;
#740 = DIRECTION ( 'NONE',  ( -0.000000000000000000, -0.000000000000000000, -1.000000000000000000 ) ) ;
#741 = FILL_AREA_STYLE_COLOUR ( '', #463 ) ;
#742 = VERTEX_POINT ( 'NONE', #1012 ) ;
#743 = AXIS2_PLACEMENT_3D ( 'NONE', #205, #584, #84 ) ;
#744 = VECTOR ( 'NONE', #585, 1000.000000000000000 ) ;
#745 = SURFACE_SIDE_STYLE ('',( #1116 ) ) ;
#746 = PRESENTATION_LAYER_ASSIGNMENT (  '', '', ( #484 ) ) ;
#747 = DIRECTION ( 'NONE',  ( 0.000000000000000000, 1.000000000000000000, 0.000000000000000000 ) ) ;
#748 = MANIFOLD_SOLID_BREP ( 'Boss-Extrude1[2]', #1197 ) ;
#749 = DIRECTION ( 'NONE',  ( -0.5735764363510525987, 0.8191520442889872466, 0.000000000000000000 ) ) ;
#750 = ORIENTED_EDGE ( 'NONE', *, *, #57, .T. ) ;
#751 = FILL_AREA_STYLE ('',( #920 ) ) ;
#752 = LINE ( 'NONE', #835, #446 ) ;
#753 = SURFACE_STYLE_USAGE ( .BOTH. , #100 ) ;
#754 = EDGE_LOOP ( 'NONE', ( #895, #72, #736, #422 ) ) ;
#755 = SURFACE_STYLE_USAGE ( .BOTH. , #371 ) ;
#756 = LINE ( 'NONE', #1131, #202 ) ;
#757 = PRESENTATION_STYLE_ASSIGNMENT (( #296 ) ) ;
#758 = ORIENTED_EDGE ( 'NONE', *, *, #739, .T. ) ;
#759 =( GEOMETRIC_REPRESENTATION_CONTEXT ( 3 ) GLOBAL_UNCERTAINTY_ASSIGNED_CONTEXT ( ( #605 ) ) GLOBAL_UNIT_ASSIGNED_CONTEXT ( ( #927, #452, #250 ) ) REPRESENTATION_CONTEXT ( 'NONE', 'WORKASPACE' ) );
#760 = EDGE_CURVE ( 'NONE', #883, #423, #1026, .T. ) ;
#761 = DIRECTION ( 'NONE',  ( 1.000000000000000000, 0.000000000000000000, 0.000000000000000000 ) ) ;
#762 = VECTOR ( 'NONE', #11, 1000.000000000000000 ) ;
#763 = CARTESIAN_POINT ( 'NONE',  ( -2.674999999999999822, 0.5524999999999999911, -6.950888360823835654 ) ) ;
#764 = LINE ( 'NONE', #398, #421 ) ;
#765 = ORIENTED_EDGE ( 'NONE', *, *, #240, .F. ) ;
#766 = VECTOR ( 'NONE', #492, 1000.000000000000000 ) ;
#767 = PLANE ( 'NONE',  #451 ) ;
#768 = CARTESIAN_POINT ( 'NONE',  ( -2.629486510016368683, 0.6500000000000000222, 1.600000000000000089 ) ) ;
#769 = PRESENTATION_STYLE_ASSIGNMENT (( #386 ) ) ;
#770 = PLANE ( 'NONE',  #955 ) ;
#771 = VERTEX_POINT ( 'NONE', #7 ) ;
#772 = PRESENTATION_STYLE_ASSIGNMENT (( #755 ) ) ;
#773 = DIRECTION ( 'NONE',  ( -1.000000000000000000, -1.159574516027277451E-16, 0.000000000000000000 ) ) ;
#774 = EDGE_CURVE ( 'NONE', #399, #742, #679, .T. ) ;
#775 = LINE ( 'NONE', #682, #576 ) ;
#776 = EDGE_CURVE ( 'NONE', #1205, #1115, #2, .T. ) ;
#777 = ORIENTED_EDGE ( 'NONE', *, *, #1123, .T. ) ;
#778 = CARTESIAN_POINT ( 'NONE',  ( -2.674999999999999822, 0.5524999999999999911, 1.600000000000000089 ) ) ;
#779 = VECTOR ( 'NONE', #23, 1000.000000000000000 ) ;
#780 = CARTESIAN_POINT ( 'NONE',  ( -2.674999999999999822, 0.03249999999999968886, 1.600000000000000089 ) ) ;
#781 = DIRECTION ( 'NONE',  ( 0.000000000000000000, 1.000000000000000000, -0.000000000000000000 ) ) ;
#782 = DIRECTION ( 'NONE',  ( 0.000000000000000000, -1.000000000000000000, 0.000000000000000000 ) ) ;
#783 = COLOUR_RGB ( '',0.7921568627450980005, 0.8196078431372548767, 0.9333333333333333481 ) ;
#784 = EDGE_CURVE ( 'NONE', #1228, #805, #1155, .T. ) ;
#785 = AXIS2_PLACEMENT_3D ( 'NONE', #1010, #639, #1015 ) ;
#786 = CARTESIAN_POINT ( 'NONE',  ( 3.142500000000000071, 0.5524999999999999911, -1.599999999999999867 ) ) ;
#787 = DIRECTION ( 'NONE',  ( 1.000000000000000000, 0.000000000000000000, 0.000000000000000000 ) ) ;
#788 = CARTESIAN_POINT ( 'NONE',  ( 2.674999999999999822, 0.5524999999999999911, -1.599999999999999867 ) ) ;
#789 = LINE ( 'NONE', #242, #468 ) ;
#790 =( NAMED_UNIT ( * ) SI_UNIT ( $, .STERADIAN. ) SOLID_ANGLE_UNIT ( ) );
#791 = SURFACE_STYLE_FILL_AREA ( #412 ) ;
#792 = VERTEX_POINT ( 'NONE', #289 ) ;
#793 = EDGE_CURVE ( 'NONE', #433, #683, #204, .T. ) ;
#794 = FILL_AREA_STYLE ('',( #717 ) ) ;
#795 = AXIS2_PLACEMENT_3D ( 'NONE', #631, #56, #171 ) ;
#796 = FILL_AREA_STYLE ('',( #1076 ) ) ;
#797 = DIRECTION ( 'NONE',  ( 0.000000000000000000, 0.000000000000000000, -1.000000000000000000 ) ) ;
#798 = AXIS2_PLACEMENT_3D ( 'NONE', #475, #865, #8 ) ;
#799 = ORIENTED_EDGE ( 'NONE', *, *, #333, .F. ) ;
#800 = ORIENTED_EDGE ( 'NONE', *, *, #908, .T. ) ;
#801 = VECTOR ( 'NONE', #535, 1000.000000000000000 ) ;
#802 = PLANE ( 'NONE',  #270 ) ;
#803 = ORIENTED_EDGE ( 'NONE', *, *, #908, .F. ) ;
#804 = LINE ( 'NONE', #780, #97 ) ;
#805 = VERTEX_POINT ( 'NONE', #210 ) ;
#806 = ORIENTED_EDGE ( 'NONE', *, *, #500, .T. ) ;
#807 = DIRECTION ( 'NONE',  ( 1.000000000000000000, 1.224646799147353454E-16, -0.000000000000000000 ) ) ;
#808 = ORIENTED_EDGE ( 'NONE', *, *, #652, .T. ) ;
#809 = DIRECTION ( 'NONE',  ( 1.000000000000000000, 0.000000000000000000, 0.000000000000000000 ) ) ;
#810 = DIRECTION ( 'NONE',  ( 1.000000000000000000, 0.000000000000000000, -0.000000000000000000 ) ) ;
#811 = ADVANCED_FACE ( 'NONE', ( #583 ), #306, .F. ) ;
#812 = SURFACE_STYLE_USAGE ( .BOTH. , #981 ) ;
#813 = LINE ( 'NONE', #539, #643 ) ;
#814 = CARTESIAN_POINT ( 'NONE',  ( -3.142500000000000071, 0.5524999999999999911, -1.599999999999999867 ) ) ;
#815 = ORIENTED_EDGE ( 'NONE', *, *, #240, .T. ) ;
#816 = CARTESIAN_POINT ( 'NONE',  ( -2.674999999999999822, 0.5849999999999999645, 1.600000000000000089 ) ) ;
#817 = SURFACE_SIDE_STYLE ('',( #437 ) ) ;
#818 = UNCERTAINTY_MEASURE_WITH_UNIT (LENGTH_MEASURE( 1.000000000000000082E-05 ), #508, 'distance_accuracy_value', 'NONE');
#819 = MECHANICAL_DESIGN_GEOMETRIC_PRESENTATION_REPRESENTATION (  '', ( #894 ), #622 ) ;
#820 = MECHANICAL_DESIGN_GEOMETRIC_PRESENTATION_REPRESENTATION (  '', ( #402 ), #319 ) ;
#821 = VECTOR ( 'NONE', #737, 1000.000000000000000 ) ;
#822 =( NAMED_UNIT ( * ) PLANE_ANGLE_UNIT ( ) SI_UNIT ( $, .RADIAN. ) );
#823 = ORIENTED_EDGE ( 'NONE', *, *, #1186, .F. ) ;
#824 = SURFACE_SIDE_STYLE ('',( #913 ) ) ;
#825 = PRESENTATION_STYLE_ASSIGNMENT (( #450 ) ) ;
#826 = SURFACE_STYLE_USAGE ( .BOTH. , #65 ) ;
#827 = ORIENTED_EDGE ( 'NONE', *, *, #561, .F. ) ;
#828 = EDGE_CURVE ( 'NONE', #1034, #1228, #396, .T. ) ;
#829 = FILL_AREA_STYLE ('',( #343 ) ) ;
#830 = ORIENTED_EDGE ( 'NONE', *, *, #313, .T. ) ;
#831 = CARTESIAN_POINT ( 'NONE',  ( -3.142500000000000071, 0.5524999999999999911, -7.906474847329527655 ) ) ;
#832 = ORIENTED_EDGE ( 'NONE', *, *, #1067, .F. ) ;
#833 = CARTESIAN_POINT ( 'NONE',  ( -3.142500000000000071, 0.03249999999999964029, 1.600000000000000089 ) ) ;
#834 = EDGE_CURVE ( 'NONE', #147, #399, #688, .T. ) ;
#835 = CARTESIAN_POINT ( 'NONE',  ( -2.674999999999999822, -3.092233167847066534E-16, 1.600000000000000089 ) ) ;
#836 = FILL_AREA_STYLE ('',( #1207 ) ) ;
#837 = ORIENTED_EDGE ( 'NONE', *, *, #915, .F. ) ;
#838 = VECTOR ( 'NONE', #782, 1000.000000000000000 ) ;
#839 = AXIS2_PLACEMENT_3D ( 'NONE', #1105, #155, #533 ) ;
#840 = DIRECTION ( 'NONE',  ( -0.000000000000000000, 1.000000000000000000, -0.000000000000000000 ) ) ;
#841 = AXIS2_PLACEMENT_3D ( 'NONE', #887, #418, #700 ) ;
#842 = DIRECTION ( 'NONE',  ( 0.000000000000000000, -0.000000000000000000, 1.000000000000000000 ) ) ;
#843 = CARTESIAN_POINT ( 'NONE',  ( 2.674999999999999822, 0.5849999999999999645, -1.599999999999999867 ) ) ;
#844 = EDGE_LOOP ( 'NONE', ( #262, #904, #1190, #16 ) ) ;
#845 = DIRECTION ( 'NONE',  ( -0.000000000000000000, -1.000000000000000000, -0.000000000000000000 ) ) ;
#846 =( LENGTH_UNIT ( ) NAMED_UNIT ( * ) SI_UNIT ( .MILLI., .METRE. ) );
#847 = ORIENTED_EDGE ( 'NONE', *, *, #1066, .F. ) ;
#848 = EDGE_CURVE ( 'NONE', #180, #606, #756, .T. ) ;
#849 = SURFACE_STYLE_FILL_AREA ( #368 ) ;
#850 = FACE_OUTER_BOUND ( 'NONE', #889, .T. ) ;
#851 = VERTEX_POINT ( 'NONE', #768 ) ;
#852 = UNCERTAINTY_MEASURE_WITH_UNIT (LENGTH_MEASURE( 1.000000000000000082E-05 ), #448, 'distance_accuracy_value', 'NONE');
#853 = STYLED_ITEM ( 'NONE', ( #1114 ), #257 ) ;
#854 = STYLED_ITEM ( 'NONE', ( #225 ), #409 ) ;
#855 = STYLED_ITEM ( 'NONE', ( #1225 ), #722 ) ;
#856 = CARTESIAN_POINT ( 'NONE',  ( -2.674999999999999822, 0.03249999999999968886, 1.600000000000000089 ) ) ;
#857 = COLOUR_RGB ( '',1.000000000000000000, 1.000000000000000000, 1.000000000000000000 ) ;
#858 =( NAMED_UNIT ( * ) PLANE_ANGLE_UNIT ( ) SI_UNIT ( $, .RADIAN. ) );
#859 = VERTEX_POINT ( 'NONE', #1143 ) ;
#860 = ADVANCED_FACE ( 'NONE', ( #282 ), #665, .T. ) ;
#861 = CARTESIAN_POINT ( 'NONE',  ( 3.142500000000000071, 0.5524999999999999911, -1.599999999999999867 ) ) ;
#862 = EDGE_CURVE ( 'NONE', #550, #438, #214, .T. ) ;
#863 = CARTESIAN_POINT ( 'NONE',  ( 3.142500000000000071, 0.5524999999999999911, -7.906474847329527655 ) ) ;
#864 = SURFACE_SIDE_STYLE ('',( #681 ) ) ;
#865 = DIRECTION ( 'NONE',  ( 0.000000000000000000, 1.000000000000000000, 0.000000000000000000 ) ) ;
#866 = ORIENTED_EDGE ( 'NONE', *, *, #15, .T. ) ;
#867 = CARTESIAN_POINT ( 'NONE',  ( -2.674999999999999822, 0.5849999999999999645, -1.600000000000000089 ) ) ;
#868 = LINE ( 'NONE', #13, #779 ) ;
#869 = CARTESIAN_POINT ( 'NONE',  ( 2.674999999999999822, 0.5849999999999999645, 1.600000000000000089 ) ) ;
#870 = ORIENTED_EDGE ( 'NONE', *, *, #103, .T. ) ;
#871 = CARTESIAN_POINT ( 'NONE',  ( -3.142500000000000071, 0.03249999999999964029, 1.600000000000000089 ) ) ;
#872 = VECTOR ( 'NONE', #43, 1000.000000000000000 ) ;
#873 = DIRECTION ( 'NONE',  ( 0.000000000000000000, 1.000000000000000000, 0.000000000000000000 ) ) ;
#874 =( GEOMETRIC_REPRESENTATION_CONTEXT ( 3 ) GLOBAL_UNCERTAINTY_ASSIGNED_CONTEXT ( ( #249 ) ) GLOBAL_UNIT_ASSIGNED_CONTEXT ( ( #87, #858, #79 ) ) REPRESENTATION_CONTEXT ( 'NONE', 'WORKASPACE' ) );
#875 = AXIS2_PLACEMENT_3D ( 'NONE', #1083, #120, #50 ) ;
#876 = DIRECTION ( 'NONE',  ( -1.000000000000000000, 0.000000000000000000, 0.000000000000000000 ) ) ;
#877 = CARTESIAN_POINT ( 'NONE',  ( -2.675000000000000711, 0.5524999999999999911, -1.599999999999999867 ) ) ;
#878 = DIRECTION ( 'NONE',  ( 0.000000000000000000, -0.000000000000000000, 1.000000000000000000 ) ) ;
#879 = UNCERTAINTY_MEASURE_WITH_UNIT (LENGTH_MEASURE( 1.000000000000000082E-05 ), #571, 'distance_accuracy_value', 'NONE');
#880 = VECTOR ( 'NONE', #678, 1000.000000000000000 ) ;
#881 = PLANE ( 'NONE',  #1199 ) ;
#882 = LINE ( 'NONE', #816, #363 ) ;
#883 = VERTEX_POINT ( 'NONE', #786 ) ;
#884 = EDGE_CURVE ( 'NONE', #771, #136, #410, .T. ) ;
#885 = DIRECTION ( 'NONE',  ( 1.000000000000000000, 0.000000000000000000, 0.000000000000000000 ) ) ;
#886 = CARTESIAN_POINT ( 'NONE',  ( 3.174999999999999822, -3.704556567420743261E-16, 1.600000000000000089 ) ) ;
#887 = CARTESIAN_POINT ( 'NONE',  ( 2.674999999999999822, 0.5524999999999999911, -6.950888360823835654 ) ) ;
#888 = ORIENTED_EDGE ( 'NONE', *, *, #793, .T. ) ;
#889 = EDGE_LOOP ( 'NONE', ( #491, #912, #388, #1047 ) ) ;
#890 = ORIENTED_EDGE ( 'NONE', *, *, #1130, .F. ) ;
#891 =( NAMED_UNIT ( * ) PLANE_ANGLE_UNIT ( ) SI_UNIT ( $, .RADIAN. ) );
#892 = AXIS2_PLACEMENT_3D ( 'NONE', #195, #191, #474 ) ;
#893 = DIRECTION ( 'NONE',  ( 1.000000000000000000, 0.000000000000000000, 0.000000000000000000 ) ) ;
#894 = STYLED_ITEM ( 'NONE', ( #337 ), #428 ) ;
#895 = ORIENTED_EDGE ( 'NONE', *, *, #1203, .F. ) ;
#896 = VERTEX_POINT ( 'NONE', #46 ) ;
#897 = PRESENTATION_LAYER_ASSIGNMENT (  '', '', ( #224 ) ) ;
#898 = EDGE_CURVE ( 'NONE', #983, #771, #905, .T. ) ;
#899 = CARTESIAN_POINT ( 'NONE',  ( -3.174999999999999822, -3.704556567420743261E-16, -1.600000000000000089 ) ) ;
#900 = VERTEX_POINT ( 'NONE', #138 ) ;
#901 = EDGE_CURVE ( 'NONE', #438, #147, #1094, .T. ) ;
#902 = CARTESIAN_POINT ( 'NONE',  ( 2.674999999999999822, 0.5849999999999999645, 1.600000000000000089 ) ) ;
#903 = ORIENTED_EDGE ( 'NONE', *, *, #784, .T. ) ;
#904 = ORIENTED_EDGE ( 'NONE', *, *, #925, .T. ) ;
#905 = LINE ( 'NONE', #432, #167 ) ;
#906 = ORIENTED_EDGE ( 'NONE', *, *, #1, .T. ) ;
#907 =( NAMED_UNIT ( * ) SI_UNIT ( $, .STERADIAN. ) SOLID_ANGLE_UNIT ( ) );
#908 = EDGE_CURVE ( 'NONE', #95, #851, #789, .T. ) ;
#909 = FILL_AREA_STYLE_COLOUR ( '', #96 ) ;
#910 = DIRECTION ( 'NONE',  ( 0.000000000000000000, 0.000000000000000000, 1.000000000000000000 ) ) ;
#911 = FACE_OUTER_BOUND ( 'NONE', #52, .T. ) ;
#912 = ORIENTED_EDGE ( 'NONE', *, *, #725, .F. ) ;
#913 = SURFACE_STYLE_FILL_AREA ( #174 ) ;
#914 = CARTESIAN_POINT ( 'NONE',  ( 2.629486510016367795, 0.6500000000000000222, 1.600000000000000089 ) ) ;
#915 = EDGE_CURVE ( 'NONE', #528, #1205, #507, .T. ) ;
#916 = VECTOR ( 'NONE', #332, 1000.000000000000000 ) ;
#917 = SURFACE_STYLE_FILL_AREA ( #836 ) ;
#918 = VECTOR ( 'NONE', #22, 1000.000000000000000 ) ;
#919 = AXIS2_PLACEMENT_3D ( 'NONE', #53, #809, #617 ) ;
#920 = FILL_AREA_STYLE_COLOUR ( '', #958 ) ;
#921 = ORIENTED_EDGE ( 'NONE', *, *, #1215, .F. ) ;
#922 =( NAMED_UNIT ( * ) PLANE_ANGLE_UNIT ( ) SI_UNIT ( $, .RADIAN. ) );
#923 =( NAMED_UNIT ( * ) SI_UNIT ( $, .STERADIAN. ) SOLID_ANGLE_UNIT ( ) );
#924 = VERTEX_POINT ( 'NONE', #32 ) ;
#925 = EDGE_CURVE ( 'NONE', #1016, #1132, #426, .T. ) ;
#926 = DIRECTION ( 'NONE',  ( -1.000000000000000000, 0.000000000000000000, 0.000000000000000000 ) ) ;
#927 =( LENGTH_UNIT ( ) NAMED_UNIT ( * ) SI_UNIT ( .MILLI., .METRE. ) );
#928 = ORIENTED_EDGE ( 'NONE', *, *, #1169, .F. ) ;
#929 = PLANE ( 'NONE',  #1098 ) ;
#930 = VERTEX_POINT ( 'NONE', #1189 ) ;
#931 =( GEOMETRIC_REPRESENTATION_CONTEXT ( 3 ) GLOBAL_UNCERTAINTY_ASSIGNED_CONTEXT ( ( #310 ) ) GLOBAL_UNIT_ASSIGNED_CONTEXT ( ( #339, #721, #1107 ) ) REPRESENTATION_CONTEXT ( 'NONE', 'WORKASPACE' ) );
#932 =( GEOMETRIC_REPRESENTATION_CONTEXT ( 3 ) GLOBAL_UNCERTAINTY_ASSIGNED_CONTEXT ( ( #208 ) ) GLOBAL_UNIT_ASSIGNED_CONTEXT ( ( #105, #509, #704 ) ) REPRESENTATION_CONTEXT ( 'NONE', 'WORKASPACE' ) );
#933 = DIRECTION ( 'NONE',  ( -0.000000000000000000, -0.000000000000000000, -1.000000000000000000 ) ) ;
#934 = PRESENTATION_LAYER_ASSIGNMENT (  '', '', ( #1154 ) ) ;
#935 = EDGE_CURVE ( 'NONE', #1179, #742, #1068, .T. ) ;
#936 = VECTOR ( 'NONE', #601, 1000.000000000000000 ) ;
#937 = CARTESIAN_POINT ( 'NONE',  ( 2.674999999999999822, -3.092233167847066534E-16, 1.600000000000000089 ) ) ;
#938 = ADVANCED_FACE ( 'NONE', ( #311 ), #802, .T. ) ;
#939 = VECTOR ( 'NONE', #933, 1000.000000000000000 ) ;
#940 = PLANE ( 'NONE',  #892 ) ;
#941 = ORIENTED_EDGE ( 'NONE', *, *, #1003, .F. ) ;
#942 = PLANE ( 'NONE',  #68 ) ;
#943 = SURFACE_SIDE_STYLE ('',( #294 ) ) ;
#944 = CARTESIAN_POINT ( 'NONE',  ( -2.629486510016368683, 0.6500000000000000222, -1.599999999999999867 ) ) ;
#945 =( NAMED_UNIT ( * ) SI_UNIT ( $, .STERADIAN. ) SOLID_ANGLE_UNIT ( ) );
#946 = ORIENTED_EDGE ( 'NONE', *, *, #436, .T. ) ;
#947 = CARTESIAN_POINT ( 'NONE',  ( 2.674999999999999822, 0.03249999999999968886, 1.600000000000000089 ) ) ;
#948 = FACE_OUTER_BOUND ( 'NONE', #107, .T. ) ;
#949 = CARTESIAN_POINT ( 'NONE',  ( 3.142500000000000071, 0.5524999999999999911, 1.600000000000000089 ) ) ;
#950 = ORIENTED_EDGE ( 'NONE', *, *, #146, .T. ) ;
#951 = UNCERTAINTY_MEASURE_WITH_UNIT (LENGTH_MEASURE( 1.000000000000000082E-05 ), #109, 'distance_accuracy_value', 'NONE');
#952 = EDGE_CURVE ( 'NONE', #292, #135, #326, .T. ) ;
#953 = VECTOR ( 'NONE', #255, 1000.000000000000000 ) ;
#954 = LINE ( 'NONE', #861, #1223 ) ;
#955 = AXIS2_PLACEMENT_3D ( 'NONE', #1235, #781, #378 ) ;
#956 = PRODUCT ( 'PT2512FK-070R1L', 'PT2512FK-070R1L', '', ( #434 ) ) ;
#957 = COLOUR_RGB ( '',0.2509803921568627416, 0.2509803921568627416, 0.2509803921568627416 ) ;
#958 = COLOUR_RGB ( '',0.2509803921568627416, 0.2509803921568627416, 0.2509803921568627416 ) ;
#959 = FILL_AREA_STYLE_COLOUR ( '', #464 ) ;
#960 = EDGE_LOOP ( 'NONE', ( #1188, #623, #626, #172 ) ) ;
#961 = AXIS2_PLACEMENT_3D ( 'NONE', #1183, #140, #244 ) ;
#962 = EDGE_CURVE ( 'NONE', #646, #924, #1087, .T. ) ;
#963 = CARTESIAN_POINT ( 'NONE',  ( -3.142500000000000071, 0.5524999999999999911, -1.600000000000000089 ) ) ;
#964 = LINE ( 'NONE', #869, #200 ) ;
#965 = ORIENTED_EDGE ( 'NONE', *, *, #383, .F. ) ;
#966 = CARTESIAN_POINT ( 'NONE',  ( -2.674999999999999822, 0.5849999999999999645, -6.950888360823835654 ) ) ;
#967 = CARTESIAN_POINT ( 'NONE',  ( 3.174999999999999822, 0.5849999999999999645, 1.600000000000000089 ) ) ;
#968 = CARTESIAN_POINT ( 'NONE',  ( -3.174999999999999822, -3.704556567420743261E-16, -1.600000000000000089 ) ) ;
#969 = DIRECTION ( 'NONE',  ( 0.000000000000000000, 1.000000000000000000, 0.000000000000000000 ) ) ;
#970 =( GEOMETRIC_REPRESENTATION_CONTEXT ( 3 ) GLOBAL_UNCERTAINTY_ASSIGNED_CONTEXT ( ( #193 ) ) GLOBAL_UNIT_ASSIGNED_CONTEXT ( ( #1212, #165, #923 ) ) REPRESENTATION_CONTEXT ( 'NONE', 'WORKASPACE' ) );
#971 = CARTESIAN_POINT ( 'NONE',  ( 2.674999999999999822, 0.5524999999999999911, 1.600000000000000089 ) ) ;
#972 =( NAMED_UNIT ( * ) PLANE_ANGLE_UNIT ( ) SI_UNIT ( $, .RADIAN. ) );
#973 = MECHANICAL_DESIGN_GEOMETRIC_PRESENTATION_REPRESENTATION (  '', ( #854 ), #245 ) ;
#974 = CARTESIAN_POINT ( 'NONE',  ( -3.174999999999999822, 0.5849999999999999645, -1.600000000000000089 ) ) ;
#975 =( NAMED_UNIT ( * ) PLANE_ANGLE_UNIT ( ) SI_UNIT ( $, .RADIAN. ) );
#976 = EDGE_CURVE ( 'NONE', #1132, #423, #234, .T. ) ;
#977 = ORIENTED_EDGE ( 'NONE', *, *, #110, .F. ) ;
#978 =( GEOMETRIC_REPRESENTATION_CONTEXT ( 3 ) GLOBAL_UNCERTAINTY_ASSIGNED_CONTEXT ( ( #420 ) ) GLOBAL_UNIT_ASSIGNED_CONTEXT ( ( #281, #472, #1044 ) ) REPRESENTATION_CONTEXT ( 'NONE', 'WORKASPACE' ) );
#979 = DIRECTION ( 'NONE',  ( 1.000000000000000000, 0.000000000000000000, -0.000000000000000000 ) ) ;
#980 = DIRECTION ( 'NONE',  ( -0.000000000000000000, -0.000000000000000000, -1.000000000000000000 ) ) ;
#981 = SURFACE_SIDE_STYLE ('',( #629 ) ) ;
#982 = LINE ( 'NONE', #126, #872 ) ;
#983 = VERTEX_POINT ( 'NONE', #58 ) ;
#984 = VERTEX_POINT ( 'NONE', #645 ) ;
#985 =( NAMED_UNIT ( * ) SI_UNIT ( $, .STERADIAN. ) SOLID_ANGLE_UNIT ( ) );
#986 = SURFACE_SIDE_STYLE ('',( #703 ) ) ;
#987 = LINE ( 'NONE', #974, #342 ) ;
#988 = CARTESIAN_POINT ( 'NONE',  ( -3.174999999999999822, -3.704556567420743261E-16, 1.600000000000000089 ) ) ;
#989 = LINE ( 'NONE', #501, #517 ) ;
#990 = ORIENTED_EDGE ( 'NONE', *, *, #685, .F. ) ;
#991 = ADVANCED_FACE ( 'NONE', ( #911 ), #549, .T. ) ;
#992 = EDGE_LOOP ( 'NONE', ( #471, #260, #544, #1180, #830, #808, #169, #467 ) ) ;
#993 = CARTESIAN_POINT ( 'NONE',  ( 3.142500000000000071, 0.5524999999999999911, 1.600000000000000089 ) ) ;
#994 = EDGE_LOOP ( 'NONE', ( #1002, #59, #1028, #1140 ) ) ;
#995 = CARTESIAN_POINT ( 'NONE',  ( 2.674999999999999822, 0.5849999999999999645, 1.600000000000000089 ) ) ;
#996 = VECTOR ( 'NONE', #1194, 1000.000000000000000 ) ;
#997 = PLANE ( 'NONE',  #502 ) ;
#998 = PLANE ( 'NONE',  #723 ) ;
#999 = COLOUR_RGB ( '',0.2509803921568627416, 0.2509803921568627416, 0.2509803921568627416 ) ;
#1000 = AXIS2_PLACEMENT_3D ( 'NONE', #659, #170, #357 ) ;
#1001 = AXIS2_PLACEMENT_3D ( 'NONE', #696, #979, #1165 ) ;
#1002 = ORIENTED_EDGE ( 'NONE', *, *, #164, .F. ) ;
#1003 = EDGE_CURVE ( 'NONE', #792, #45, #439, .T. ) ;
#1004 = PRESENTATION_STYLE_ASSIGNMENT (( #608 ) ) ;
#1005 = ORIENTED_EDGE ( 'NONE', *, *, #935, .F. ) ;
#1006 = DIRECTION ( 'NONE',  ( 1.000000000000000000, 0.000000000000000000, 0.000000000000000000 ) ) ;
#1007 = DIRECTION ( 'NONE',  ( -0.000000000000000000, 1.000000000000000000, -0.000000000000000000 ) ) ;
#1008 = LINE ( 'NONE', #248, #699 ) ;
#1009 = UNCERTAINTY_MEASURE_WITH_UNIT (LENGTH_MEASURE( 1.000000000000000082E-05 ), #33, 'distance_accuracy_value', 'NONE');
#1010 = CARTESIAN_POINT ( 'NONE',  ( 2.674999999999999822, -3.092233167847066534E-16, 1.600000000000000089 ) ) ;
#1011 = ORIENTED_EDGE ( 'NONE', *, *, #901, .F. ) ;
#1012 = CARTESIAN_POINT ( 'NONE',  ( -3.142500000000000071, 0.03249999999999964029, -1.600000000000000089 ) ) ;
#1013 = CARTESIAN_POINT ( 'NONE',  ( -2.674999999999999822, -3.092233167847066534E-16, -1.600000000000000089 ) ) ;
#1014 = PLANE ( 'NONE',  #795 ) ;
#1015 = DIRECTION ( 'NONE',  ( 0.000000000000000000, 0.000000000000000000, -1.000000000000000000 ) ) ;
#1016 = VERTEX_POINT ( 'NONE', #833 ) ;
#1017 = SURFACE_STYLE_FILL_AREA ( #556 ) ;
#1018 = PRESENTATION_LAYER_ASSIGNMENT (  '', '', ( #853 ) ) ;
#1019 = EDGE_CURVE ( 'NONE', #80, #519, #543, .T. ) ;
#1020 = EDGE_LOOP ( 'NONE', ( #139, #572, #327, #476 ) ) ;
#1021 = VECTOR ( 'NONE', #807, 1000.000000000000000 ) ;
#1022 = SURFACE_STYLE_USAGE ( .BOTH. , #1122 ) ;
#1023 = ORIENTED_EDGE ( 'NONE', *, *, #149, .F. ) ;
#1024 = FACE_OUTER_BOUND ( 'NONE', #334, .T. ) ;
#1025 = EDGE_LOOP ( 'NONE', ( #730, #711, #558, #309 ) ) ;
#1026 = LINE ( 'NONE', #863, #266 ) ;
#1027 = PRESENTATION_STYLE_ASSIGNMENT (( #557 ) ) ;
#1028 = ORIENTED_EDGE ( 'NONE', *, *, #1126, .T. ) ;
#1029 = EDGE_CURVE ( 'NONE', #586, #350, #74, .T. ) ;
#1030 = EDGE_CURVE ( 'NONE', #1079, #616, #455, .T. ) ;
#1031 =( NAMED_UNIT ( * ) PLANE_ANGLE_UNIT ( ) SI_UNIT ( $, .RADIAN. ) );
#1032 = LINE ( 'NONE', #177, #1174 ) ;
#1033 = LINE ( 'NONE', #944, #199 ) ;
#1034 = VERTEX_POINT ( 'NONE', #1204 ) ;
#1035 = PRESENTATION_LAYER_ASSIGNMENT (  '', '', ( #400 ) ) ;
#1036 = VECTOR ( 'NONE', #307, 1000.000000000000000 ) ;
#1037 = VECTOR ( 'NONE', #610, 1000.000000000000000 ) ;
#1038 = VECTOR ( 'NONE', #503, 1000.000000000000000 ) ;
#1039 = DIRECTION ( 'NONE',  ( 1.159574516027277451E-16, -1.000000000000000000, 0.000000000000000000 ) ) ;
#1040 = LINE ( 'NONE', #392, #621 ) ;
#1041 = ORIENTED_EDGE ( 'NONE', *, *, #198, .T. ) ;
#1042 = UNCERTAINTY_MEASURE_WITH_UNIT (LENGTH_MEASURE( 1.000000000000000082E-05 ), #411, 'distance_accuracy_value', 'NONE');
#1043 = APPLICATION_CONTEXT ( 'automotive_design' ) ;
#1044 =( NAMED_UNIT ( * ) SI_UNIT ( $, .STERADIAN. ) SOLID_ANGLE_UNIT ( ) );
#1045 = ADVANCED_FACE ( 'NONE', ( #173 ), #349, .F. ) ;
#1046 = PLANE ( 'NONE',  #743 ) ;
#1047 = ORIENTED_EDGE ( 'NONE', *, *, #952, .T. ) ;
#1048 = LINE ( 'NONE', #1232, #766 ) ;
#1049 =( LENGTH_UNIT ( ) NAMED_UNIT ( * ) SI_UNIT ( .MILLI., .METRE. ) );
#1050 =( NAMED_UNIT ( * ) PLANE_ANGLE_UNIT ( ) SI_UNIT ( $, .RADIAN. ) );
#1051 = LINE ( 'NONE', #4, #644 ) ;
#1052 = VERTEX_POINT ( 'NONE', #69 ) ;
#1053 = ADVANCED_FACE ( 'NONE', ( #359 ), #1224, .F. ) ;
#1054 = CLOSED_SHELL ( 'NONE', ( #428, #409, #938, #860, #279, #201 ) ) ;
#1055 = CARTESIAN_POINT ( 'NONE',  ( 0.000000000000000000, 0.000000000000000000, 1.600000000000000089 ) ) ;
#1056 = COLOUR_RGB ( '',0.2509803921568627416, 0.2509803921568627416, 0.2509803921568627416 ) ;
#1057 = CARTESIAN_POINT ( 'NONE',  ( -2.674999999999999822, 0.03249999999999968886, -1.600000000000000089 ) ) ;
#1058 = DIRECTION ( 'NONE',  ( 0.000000000000000000, -1.000000000000000000, 0.000000000000000000 ) ) ;
#1059 = ORIENTED_EDGE ( 'NONE', *, *, #383, .T. ) ;
#1060 = VECTOR ( 'NONE', #1137, 1000.000000000000000 ) ;
#1061 = FILL_AREA_STYLE_COLOUR ( '', #566 ) ;
#1062 = DIRECTION ( 'NONE',  ( -1.000000000000000000, 1.159574516027277451E-16, -0.000000000000000000 ) ) ;
#1063 = FACE_OUTER_BOUND ( 'NONE', #456, .T. ) ;
#1064 = FACE_OUTER_BOUND ( 'NONE', #992, .T. ) ;
#1065 = UNCERTAINTY_MEASURE_WITH_UNIT (LENGTH_MEASURE( 1.000000000000000082E-05 ), #168, 'distance_accuracy_value', 'NONE');
#1066 = EDGE_CURVE ( 'NONE', #1079, #550, #86, .T. ) ;
#1067 = EDGE_CURVE ( 'NONE', #742, #924, #1048, .T. ) ;
#1068 = LINE ( 'NONE', #416, #221 ) ;
#1069 = DIRECTION ( 'NONE',  ( -1.000000000000000000, -0.000000000000000000, -0.000000000000000000 ) ) ;
#1070 = LINE ( 'NONE', #88, #744 ) ;
#1071 = ORIENTED_EDGE ( 'NONE', *, *, #477, .T. ) ;
#1072 = STYLED_ITEM ( 'NONE', ( #757 ), #279 ) ;
#1073 = CARTESIAN_POINT ( 'NONE',  ( -2.674999999999999822, -3.092233167847066534E-16, -1.600000000000000089 ) ) ;
#1074 = VECTOR ( 'NONE', #873, 1000.000000000000000 ) ;
#1075 = CARTESIAN_POINT ( 'NONE',  ( 2.674999999999999822, -3.092233167847066534E-16, -1.600000000000000089 ) ) ;
#1076 = FILL_AREA_STYLE_COLOUR ( '', #999 ) ;
#1077 = FACE_OUTER_BOUND ( 'NONE', #512, .T. ) ;
#1078 = COLOUR_RGB ( '',0.7921568627450980005, 0.8196078431372548767, 0.9333333333333333481 ) ;
#1079 = VERTEX_POINT ( 'NONE', #1153 ) ;
#1080 =( NAMED_UNIT ( * ) PLANE_ANGLE_UNIT ( ) SI_UNIT ( $, .RADIAN. ) );
#1081 = PRESENTATION_STYLE_ASSIGNMENT (( #1089 ) ) ;
#1082 = EDGE_CURVE ( 'NONE', #298, #180, #669, .T. ) ;
#1083 = CARTESIAN_POINT ( 'NONE',  ( 2.674999999999999822, -3.092233167847066534E-16, 1.600000000000000089 ) ) ;
#1084 = CARTESIAN_POINT ( 'NONE',  ( -3.142500000000000071, 0.5524999999999999911, 1.600000000000000089 ) ) ;
#1085 = ORIENTED_EDGE ( 'NONE', *, *, #684, .F. ) ;
#1086 = ORIENTED_EDGE ( 'NONE', *, *, #828, .T. ) ;
#1087 = LINE ( 'NONE', #615, #1038 ) ;
#1088 = VERTEX_POINT ( 'NONE', #305 ) ;
#1089 = SURFACE_STYLE_USAGE ( .BOTH. , #986 ) ;
#1090 = CARTESIAN_POINT ( 'NONE',  ( -2.674999999999999822, 0.5524999999999999911, -6.950888360823835654 ) ) ;
#1091 =( NAMED_UNIT ( * ) SI_UNIT ( $, .STERADIAN. ) SOLID_ANGLE_UNIT ( ) );
#1092 = DIRECTION ( 'NONE',  ( -0.000000000000000000, -0.000000000000000000, -1.000000000000000000 ) ) ;
#1093 = ORIENTED_EDGE ( 'NONE', *, *, #1126, .F. ) ;
#1094 = LINE ( 'NONE', #1073, #1021 ) ;
#1095 = ORIENTED_EDGE ( 'NONE', *, *, #848, .F. ) ;
#1096 = APPLICATION_PROTOCOL_DEFINITION ( 'draft international standard', 'automotive_design', 1998, #1043 ) ;
#1097 =( GEOMETRIC_REPRESENTATION_CONTEXT ( 3 ) GLOBAL_UNCERTAINTY_ASSIGNED_CONTEXT ( ( #580 ) ) GLOBAL_UNIT_ASSIGNED_CONTEXT ( ( #377, #1050, #577 ) ) REPRESENTATION_CONTEXT ( 'NONE', 'WORKASPACE' ) );
#1098 = AXIS2_PLACEMENT_3D ( 'NONE', #831, #655, #910 ) ;
#1099 = VECTOR ( 'NONE', #111, 1000.000000000000000 ) ;
#1100 = DIRECTION ( 'NONE',  ( -1.000000000000000000, -0.000000000000000000, -0.000000000000000000 ) ) ;
#1101 = STYLED_ITEM ( 'NONE', ( #505 ), #587 ) ;
#1102 = VECTOR ( 'NONE', #885, 1000.000000000000000 ) ;
#1103 = VECTOR ( 'NONE', #148, 1000.000000000000000 ) ;
#1104 = ORIENTED_EDGE ( 'NONE', *, *, #554, .T. ) ;
#1105 = CARTESIAN_POINT ( 'NONE',  ( 0.000000000000000000, 0.000000000000000000, -1.600000000000000089 ) ) ;
#1106 = PLANE ( 'NONE',  #483 ) ;
#1107 =( NAMED_UNIT ( * ) SI_UNIT ( $, .STERADIAN. ) SOLID_ANGLE_UNIT ( ) );
#1108 = LINE ( 'NONE', #158, #953 ) ;
#1109 = DIRECTION ( 'NONE',  ( -1.000000000000000000, 0.000000000000000000, 0.000000000000000000 ) ) ;
#1110 = ORIENTED_EDGE ( 'NONE', *, *, #370, .T. ) ;
#1111 = ADVANCED_FACE ( 'NONE', ( #10 ), #942, .F. ) ;
#1112 = DIRECTION ( 'NONE',  ( 0.000000000000000000, 0.000000000000000000, 1.000000000000000000 ) ) ;
#1113 = FACE_OUTER_BOUND ( 'NONE', #1151, .T. ) ;
#1114 = PRESENTATION_STYLE_ASSIGNMENT (( #826 ) ) ;
#1115 = VERTEX_POINT ( 'NONE', #1142 ) ;
#1116 = SURFACE_STYLE_FILL_AREA ( #829 ) ;
#1117 = ORIENTED_EDGE ( 'NONE', *, *, #898, .T. ) ;
#1118 = FACE_OUTER_BOUND ( 'NONE', #5, .T. ) ;
#1119 = EDGE_LOOP ( 'NONE', ( #1219, #870, #718, #640 ) ) ;
#1120 = AXIS2_PLACEMENT_3D ( 'NONE', #676, #112, #196 ) ;
#1121 = VECTOR ( 'NONE', #122, 1000.000000000000227 ) ;
#1122 = SURFACE_SIDE_STYLE ('',( #729 ) ) ;
#1123 = EDGE_CURVE ( 'NONE', #924, #1228, #190, .T. ) ;
#1124 = CARTESIAN_POINT ( 'NONE',  ( -3.142500000000000071, 0.03249999999999964029, -1.599999999999999867 ) ) ;
#1125 = ORIENTED_EDGE ( 'NONE', *, *, #1019, .T. ) ;
#1126 = EDGE_CURVE ( 'NONE', #373, #136, #1229, .T. ) ;
#1127 = CARTESIAN_POINT ( 'NONE',  ( -3.174999999999999822, -3.704556567420743261E-16, 1.600000000000000089 ) ) ;
#1128 = DIRECTION ( 'NONE',  ( -0.000000000000000000, -1.000000000000000000, -0.000000000000000000 ) ) ;
#1129 = ORIENTED_EDGE ( 'NONE', *, *, #898, .F. ) ;
#1130 = EDGE_CURVE ( 'NONE', #616, #438, #91, .T. ) ;
#1131 = CARTESIAN_POINT ( 'NONE',  ( 2.674999999999999822, 0.03249999999999968886, -1.600000000000000089 ) ) ;
#1132 = VERTEX_POINT ( 'NONE', #288 ) ;
#1133 = MANIFOLD_SOLID_BREP ( 'Boss-Extrude3', #595 ) ;
#1134 = COLOUR_RGB ( '',1.000000000000000000, 1.000000000000000000, 1.000000000000000000 ) ;
#1135 = PRESENTATION_LAYER_ASSIGNMENT (  '', '', ( #264 ) ) ;
#1136 = ADVANCED_FACE ( 'NONE', ( #384 ), #767, .F. ) ;
#1137 = DIRECTION ( 'NONE',  ( 0.000000000000000000, 0.000000000000000000, 1.000000000000000000 ) ) ;
#1138 = PRESENTATION_STYLE_ASSIGNMENT (( #675 ) ) ;
#1139 = CARTESIAN_POINT ( 'NONE',  ( -2.674999999999999822, 0.5849999999999999645, 1.600000000000000089 ) ) ;
#1140 = ORIENTED_EDGE ( 'NONE', *, *, #884, .F. ) ;
#1141 = UNCERTAINTY_MEASURE_WITH_UNIT (LENGTH_MEASURE( 1.000000000000000082E-05 ), #846, 'distance_accuracy_value', 'NONE');
#1142 = CARTESIAN_POINT ( 'NONE',  ( 2.674999999999999822, 0.03249999999999968886, 1.600000000000000089 ) ) ;
#1143 = CARTESIAN_POINT ( 'NONE',  ( -3.142500000000000071, 0.5524999999999999911, -1.599999999999999867 ) ) ;
#1144 = EDGE_CURVE ( 'NONE', #358, #930, #1148, .T. ) ;
#1145 = DIRECTION ( 'NONE',  ( -1.000000000000000000, 0.000000000000000000, 0.000000000000000000 ) ) ;
#1146 = FACE_OUTER_BOUND ( 'NONE', #530, .T. ) ;
#1147 = ORIENTED_EDGE ( 'NONE', *, *, #1082, .F. ) ;
#1148 = LINE ( 'NONE', #194, #251 ) ;
#1149 = DIRECTION ( 'NONE',  ( 0.000000000000000000, -1.000000000000000000, 0.000000000000000000 ) ) ;
#1150 = FILL_AREA_STYLE ('',( #959 ) ) ;
#1151 = EDGE_LOOP ( 'NONE', ( #278, #453, #241, #207, #427, #35 ) ) ;
#1152 = STYLED_ITEM ( 'NONE', ( #825 ), #187 ) ;
#1153 = CARTESIAN_POINT ( 'NONE',  ( -3.174999999999999822, 0.5849999999999999645, 1.600000000000000089 ) ) ;
#1154 = STYLED_ITEM ( 'NONE', ( #217 ), #634 ) ;
#1155 = LINE ( 'NONE', #867, #424 ) ;
#1156 = FACE_OUTER_BOUND ( 'NONE', #336, .T. ) ;
#1157 = LINE ( 'NONE', #693, #401 ) ;
#1158 = ORIENTED_EDGE ( 'NONE', *, *, #198, .F. ) ;
#1159 = VECTOR ( 'NONE', #27, 1000.000000000000000 ) ;
#1160 = EDGE_CURVE ( 'NONE', #896, #883, #954, .T. ) ;
#1161 = EDGE_CURVE ( 'NONE', #423, #900, #389, .T. ) ;
#1162 = LINE ( 'NONE', #329, #542 ) ;
#1163 = CARTESIAN_POINT ( 'NONE',  ( 2.674999999999999822, -3.092233167847066534E-16, 1.600000000000000089 ) ) ;
#1164 = DIRECTION ( 'NONE',  ( 0.000000000000000000, -1.000000000000000000, 0.000000000000000000 ) ) ;
#1165 = DIRECTION ( 'NONE',  ( -0.000000000000000000, 0.000000000000000000, -1.000000000000000000 ) ) ;
#1166 = SURFACE_SIDE_STYLE ('',( #791 ) ) ;
#1167 = PLANE ( 'NONE',  #466 ) ;
#1168 = LINE ( 'NONE', #516, #838 ) ;
#1169 = EDGE_CURVE ( 'NONE', #1052, #984, #108, .T. ) ;
#1170 = VECTOR ( 'NONE', #157, 1000.000000000000000 ) ;
#1171 = SURFACE_STYLE_FILL_AREA ( #794 ) ;
#1172 = FILL_AREA_STYLE_COLOUR ( '', #1078 ) ;
#1173 = AXIS2_PLACEMENT_3D ( 'NONE', #397, #787, #1184 ) ;
#1174 = VECTOR ( 'NONE', #277, 1000.000000000000000 ) ;
#1175 = FACE_OUTER_BOUND ( 'NONE', #229, .T. ) ;
#1176 = LINE ( 'NONE', #323, #137 ) ;
#1177 = PRESENTATION_LAYER_ASSIGNMENT (  '', '', ( #40 ) ) ;
#1178 = MECHANICAL_DESIGN_GEOMETRIC_PRESENTATION_REPRESENTATION (  '', ( #547 ), #25 ) ;
#1179 = VERTEX_POINT ( 'NONE', #871 ) ;
#1180 = ORIENTED_EDGE ( 'NONE', *, *, #573, .T. ) ;
#1181 = DIRECTION ( 'NONE',  ( 0.000000000000000000, -0.000000000000000000, -1.000000000000000000 ) ) ;
#1182 = ORIENTED_EDGE ( 'NONE', *, *, #1067, .T. ) ;
#1183 = CARTESIAN_POINT ( 'NONE',  ( 0.000000000000000000, 0.000000000000000000, 0.000000000000000000 ) ) ;
#1184 = DIRECTION ( 'NONE',  ( 0.000000000000000000, 0.000000000000000000, -1.000000000000000000 ) ) ;
#1185 = CARTESIAN_POINT ( 'NONE',  ( 2.674999999999999822, 0.5524999999999999911, -6.950888360823835654 ) ) ;
#1186 = EDGE_CURVE ( 'NONE', #586, #358, #19, .T. ) ;
#1187 = LINE ( 'NONE', #788, #263 ) ;
#1188 = ORIENTED_EDGE ( 'NONE', *, *, #12, .T. ) ;
#1189 = CARTESIAN_POINT ( 'NONE',  ( 3.174999999999999822, -3.704556567420743261E-16, -1.600000000000000089 ) ) ;
#1190 = ORIENTED_EDGE ( 'NONE', *, *, #976, .T. ) ;
#1191 = FACE_OUTER_BOUND ( 'NONE', #1020, .T. ) ;
#1192 = DIRECTION ( 'NONE',  ( 0.000000000000000000, -1.000000000000000000, 0.000000000000000000 ) ) ;
#1193 = CARTESIAN_POINT ( 'NONE',  ( 2.674999999999999822, 0.5524999999999999911, -6.950888360823835654 ) ) ;
#1194 = DIRECTION ( 'NONE',  ( -1.000000000000000000, 0.000000000000000000, 0.000000000000000000 ) ) ;
#1195 = DIRECTION ( 'NONE',  ( -0.5735764363510451602, -0.8191520442889924647, 0.000000000000000000 ) ) ;
#1196 = ORIENTED_EDGE ( 'NONE', *, *, #391, .F. ) ;
#1197 = CLOSED_SHELL ( 'NONE', ( #1045, #589, #348, #497, #425, #454, #1217, #1136, #73, #295 ) ) ;
#1198 = PLANE ( 'NONE',  #839 ) ;
#1199 = AXIS2_PLACEMENT_3D ( 'NONE', #635, #719, #1006 ) ;
#1200 = LINE ( 'NONE', #151, #1037 ) ;
#1201 = DIRECTION ( 'NONE',  ( -1.000000000000000000, -0.000000000000000000, -0.000000000000000000 ) ) ;
#1202 = MECHANICAL_DESIGN_GEOMETRIC_PRESENTATION_REPRESENTATION (  '', ( #224 ), #686 ) ;
#1203 = EDGE_CURVE ( 'NONE', #269, #1016, #123, .T. ) ;
#1204 = CARTESIAN_POINT ( 'NONE',  ( -2.674999999999999822, 0.5524999999999999911, 1.600000000000000089 ) ) ;
#1205 = VERTEX_POINT ( 'NONE', #417 ) ;
#1206 = CARTESIAN_POINT ( 'NONE',  ( 3.142500000000000071, 0.5524999999999999911, 1.600000000000000089 ) ) ;
#1207 = FILL_AREA_STYLE_COLOUR ( '', #1134 ) ;
#1208 = EDGE_LOOP ( 'NONE', ( #1093, #513, #800, #354 ) ) ;
#1209 = CARTESIAN_POINT ( 'NONE',  ( -2.674999999999999822, 0.5849999999999999645, -6.950888360823835654 ) ) ;
#1210 = VERTEX_POINT ( 'NONE', #995 ) ;
#1211 = CARTESIAN_POINT ( 'NONE',  ( 3.174999999999999822, -3.704556567420743261E-16, 1.600000000000000089 ) ) ;
#1212 =( LENGTH_UNIT ( ) NAMED_UNIT ( * ) SI_UNIT ( .MILLI., .METRE. ) );
#1213 = ORIENTED_EDGE ( 'NONE', *, *, #962, .F. ) ;
#1214 = DIRECTION ( 'NONE',  ( -0.8191520442889924647, 0.5735764363510451602, 0.000000000000000000 ) ) ;
#1215 = EDGE_CURVE ( 'NONE', #350, #1088, #328, .T. ) ;
#1216 = DIRECTION ( 'NONE',  ( 1.000000000000000000, 0.000000000000000000, -0.000000000000000000 ) ) ;
#1217 = ADVANCED_FACE ( 'NONE', ( #321 ), #523, .F. ) ;
#1218 = AXIS2_PLACEMENT_3D ( 'NONE', #1084, #969, #878 ) ;
#1219 = ORIENTED_EDGE ( 'NONE', *, *, #793, .F. ) ;
#1220 = PRESENTATION_LAYER_ASSIGNMENT (  '', '', ( #547 ) ) ;
#1221 = AXIS2_PLACEMENT_3D ( 'NONE', #1090, #236, #498 ) ;
#1222 = MECHANICAL_DESIGN_GEOMETRIC_PRESENTATION_REPRESENTATION (  '', ( #1154 ), #304 ) ;
#1223 = VECTOR ( 'NONE', #6, 1000.000000000000000 ) ;
#1224 = PLANE ( 'NONE',  #271 ) ;
#1225 = PRESENTATION_STYLE_ASSIGNMENT (( #77 ) ) ;
#1226 = PLANE ( 'NONE',  #1221 ) ;
#1227 = EDGE_CURVE ( 'NONE', #269, #896, #441, .T. ) ;
#1228 = VERTEX_POINT ( 'NONE', #712 ) ;
#1229 = LINE ( 'NONE', #99, #1060 ) ;
#1230 = FILL_AREA_STYLE_COLOUR ( '', #20 ) ;
#1231 = ORIENTED_EDGE ( 'NONE', *, *, #760, .T. ) ;
#1232 = CARTESIAN_POINT ( 'NONE',  ( -3.142500000000000071, 0.03249999999999964029, -1.600000000000000089 ) ) ;
#1233 = DIRECTION ( 'NONE',  ( 0.000000000000000000, 0.000000000000000000, 1.000000000000000000 ) ) ;
#1234 = FACE_OUTER_BOUND ( 'NONE', #642, .T. ) ;
#1235 = CARTESIAN_POINT ( 'NONE',  ( 3.142500000000000071, 0.5524999999999999911, 1.600000000000000089 ) ) ;
#1236 = ORIENTED_EDGE ( 'NONE', *, *, #612, .T. ) ;
#1237 = PRESENTATION_LAYER_ASSIGNMENT (  '', '', ( #1072 ) ) ;
ENDSEC;
END-ISO-10303-21;
