999
"DXF R12 Output" (www.mydxf.blogspot.com)
 0 
SECTION
 2 
HEADER
 9 
$ACADVER
 1 
AC1009
 9 
$EXTMIN
 10 
 0 
 20 
 0 
 9 
$EXTMAX
 10 
 8.5 
 20 
 11 
 0 
ENDSEC
 0 
SECTION
 2 
ENTITIES
0
POLYLINE
8
Layer 1
62
7
70
0
10
0.000000
20
0.000000
66
1
0
VERTEX
8
Layer 1
10
163.124547
20
303.389080
70
0
0
VERTEX
8
Layer 1
10
160.773061
20
302.836762
70
0
0
VERTEX
8
Layer 1
10
158.071002
20
302.013246
70
0
0
VERTEX
8
Layer 1
10
155.435089
20
301.057438
70
0
0
VERTEX
8
Layer 1
10
153.282041
20
300.108245
70
0
0
VERTEX
8
Layer 1
10
150.662389
20
298.631469
70
0
0
VERTEX
8
Layer 1
10
148.232906
20
296.932691
70
0
0
VERTEX
8
Layer 1
10
146.001861
20
295.021420
70
0
0
VERTEX
8
Layer 1
10
143.977521
20
292.907164
70
0
0
VERTEX
8
Layer 1
10
142.168156
20
290.599431
70
0
0
VERTEX
8
Layer 1
10
140.582033
20
288.107729
70
0
0
VERTEX
8
Layer 1
10
139.227421
20
285.441568
70
0
0
VERTEX
8
Layer 1
10
138.112587
20
282.610456
70
0
0
VERTEX
8
Layer 1
10
137.423283
20
280.322997
70
0
0
VERTEX
8
Layer 1
10
136.889371
20
277.988099
70
0
0
VERTEX
8
Layer 1
10
136.509971
20
275.610414
70
0
0
VERTEX
8
Layer 1
10
136.284205
20
273.194590
70
0
0
VERTEX
8
Layer 1
10
136.211195
20
270.745281
70
0
0
VERTEX
8
Layer 1
10
136.290061
20
268.267136
70
0
0
VERTEX
8
Layer 1
10
136.899913
20
263.242944
70
0
0
VERTEX
8
Layer 1
10
138.106730
20
258.159220
70
0
0
VERTEX
8
Layer 1
10
139.903487
20
253.053172
70
0
0
VERTEX
8
Layer 1
10
142.283153
20
247.962006
70
0
0
VERTEX
8
Layer 1
10
145.238703
20
242.922931
70
0
0
VERTEX
8
Layer 1
10
147.496482
20
239.430429
70
0
0
VERTEX
8
Layer 1
10
144.392035
20
236.220149
70
0
0
VERTEX
8
Layer 1
10
137.806111
20
229.215852
70
0
0
VERTEX
8
Layer 1
10
131.815500
20
222.148716
70
0
0
VERTEX
8
Layer 1
10
125.560305
20
213.950486
70
0
0
VERTEX
8
Layer 1
10
118.180630
20
203.552906
70
0
0
VERTEX
8
Layer 1
10
112.067649
20
194.856928
70
0
0
VERTEX
8
Layer 1
10
107.614929
20
188.886161
70
0
0
VERTEX
8
Layer 1
10
103.823668
20
184.383831
70
0
0
VERTEX
8
Layer 1
10
99.695063
20
180.093169
70
0
0
VERTEX
8
Layer 1
10
95.161865
20
175.798648
70
0
0
VERTEX
8
Layer 1
10
90.549293
20
171.904310
70
0
0
VERTEX
8
Layer 1
10
85.844117
20
168.400232
70
0
0
VERTEX
8
Layer 1
10
81.033107
20
165.276493
70
0
0
VERTEX
8
Layer 1
10
78.325535
20
163.472915
70
0
0
VERTEX
8
Layer 1
10
77.798573
20
162.920046
70
0
0
VERTEX
8
Layer 1
10
77.681716
20
162.489547
70
0
0
VERTEX
8
Layer 1
10
77.809322
20
162.140352
70
0
0
VERTEX
8
Layer 1
10
78.094025
20
161.858956
70
0
0
VERTEX
8
Layer 1
10
79.181022
20
161.492949
70
0
0
VERTEX
8
Layer 1
10
81.035311
20
161.378296
70
0
0
VERTEX
8
Layer 1
10
83.749497
20
161.501768
70
0
0
VERTEX
8
Layer 1
10
86.377693
20
161.629650
70
0
0
VERTEX
8
Layer 1
10
87.418388
20
161.572324
70
0
0
VERTEX
8
Layer 1
10
83.026302
20
157.316939
70
0
0
VERTEX
8
Layer 1
10
76.094215
20
151.024262
70
0
0
VERTEX
8
Layer 1
10
73.144109
20
148.268184
70
0
0
VERTEX
8
Layer 1
10
72.537220
20
147.487111
70
0
0
VERTEX
8
Layer 1
10
72.390046
20
146.967315
70
0
0
VERTEX
8
Layer 1
10
72.656834
20
146.471221
70
0
0
VERTEX
8
Layer 1
10
73.439560
20
146.305856
70
0
0
VERTEX
8
Layer 1
10
75.029266
20
146.471221
70
0
0
VERTEX
8
Layer 1
10
77.716993
20
146.967315
70
0
0
VERTEX
8
Layer 1
10
79.723418
20
147.320093
70
0
0
VERTEX
8
Layer 1
10
80.645051
20
147.355371
70
0
0
VERTEX
8
Layer 1
10
79.392689
20
145.750231
70
0
0
VERTEX
8
Layer 1
10
76.129492
20
142.134256
70
0
0
VERTEX
8
Layer 1
10
66.445736
20
131.528868
70
0
0
VERTEX
8
Layer 1
10
64.441516
20
129.161396
70
0
0
VERTEX
8
Layer 1
10
63.852818
20
128.199525
70
0
0
VERTEX
8
Layer 1
10
64.015978
20
127.776192
70
0
0
VERTEX
8
Layer 1
10
64.417263
20
127.458691
70
0
0
VERTEX
8
Layer 1
10
65.127780
20
127.581957
70
0
0
VERTEX
8
Layer 1
10
66.503063
20
128.114087
70
0
0
VERTEX
8
Layer 1
10
70.361572
20
129.950186
70
0
0
VERTEX
8
Layer 1
10
74.220081
20
132.057483
70
0
0
VERTEX
8
Layer 1
10
75.595364
20
132.928611
70
0
0
VERTEX
8
Layer 1
10
76.305881
20
133.526473
70
0
0
VERTEX
8
Layer 1
10
76.738034
20
134.232029
70
0
0
VERTEX
8
Layer 1
10
76.799771
20
134.620085
70
0
0
VERTEX
8
Layer 1
10
75.622374
20
134.205571
70
0
0
VERTEX
8
Layer 1
10
72.989768
20
132.997306
70
0
0
VERTEX
8
Layer 1
10
69.038655
20
131.233416
70
0
0
VERTEX
8
Layer 1
10
69.109486
20
131.485115
70
0
0
VERTEX
8
Layer 1
10
69.631763
20
132.201902
70
0
0
VERTEX
8
Layer 1
10
71.825601
20
134.800884
70
0
0
VERTEX
8
Layer 1
10
79.375050
20
143.051479
70
0
0
VERTEX
8
Layer 1
10
82.918815
20
146.835023
70
0
0
VERTEX
8
Layer 1
10
84.706408
20
148.898774
70
0
0
VERTEX
8
Layer 1
10
85.062562
20
149.446958
70
0
0
VERTEX
8
Layer 1
10
85.124780
20
149.758671
70
0
0
VERTEX
8
Layer 1
10
84.941432
20
149.898404
70
0
0
VERTEX
8
Layer 1
10
84.560887
20
149.930650
70
0
0
VERTEX
8
Layer 1
10
83.665712
20
149.833636
70
0
0
VERTEX
8
Layer 1
10
82.691163
20
149.577872
70
0
0
VERTEX
8
Layer 1
10
78.351994
20
148.519538
70
0
0
VERTEX
8
Layer 1
10
76.341159
20
148.188809
70
0
0
VERTEX
8
Layer 1
10
75.494492
20
148.202038
70
0
0
VERTEX
8
Layer 1
10
77.020257
20
149.683705
70
0
0
VERTEX
8
Layer 1
10
80.715606
20
152.858707
70
0
0
VERTEX
8
Layer 1
10
88.609014
20
159.737878
70
0
0
VERTEX
8
Layer 1
10
91.312176
20
162.244807
70
0
0
VERTEX
8
Layer 1
10
92.533669
20
163.547881
70
0
0
VERTEX
8
Layer 1
10
92.604225
20
164.024682
70
0
0
VERTEX
8
Layer 1
10
92.066239
20
164.240208
70
0
0
VERTEX
8
Layer 1
10
90.827106
20
164.197764
70
0
0
VERTEX
8
Layer 1
10
88.794223
20
163.900659
70
0
0
VERTEX
8
Layer 1
10
83.268837
20
163.181874
70
0
0
VERTEX
8
Layer 1
10
81.744726
20
163.141635
70
0
0
VERTEX
8
Layer 1
10
81.380579
20
163.208539
70
0
0
VERTEX
8
Layer 1
10
81.315329
20
163.336214
70
0
0
VERTEX
8
Layer 1
10
86.183665
20
166.758161
70
0
0
VERTEX
8
Layer 1
10
91.336429
20
170.256726
70
0
0
VERTEX
8
Layer 1
10
95.311796
20
173.209588
70
0
0
VERTEX
8
Layer 1
10
98.665392
20
176.050002
70
0
0
VERTEX
8
Layer 1
10
101.952842
20
179.211224
70
0
0
VERTEX
8
Layer 1
10
105.375340
20
182.805150
70
0
0
VERTEX
8
Layer 1
10
108.589478
20
186.584284
70
0
0
VERTEX
8
Layer 1
10
111.968981
20
190.998419
70
0
0
VERTEX
8
Layer 1
10
115.887573
20
196.497346
70
0
0
VERTEX
8
Layer 1
10
125.372891
20
209.982285
70
0
0
VERTEX
8
Layer 1
10
130.810082
20
217.275970
70
0
0
VERTEX
8
Layer 1
10
138.381580
20
226.479066
70
0
0
VERTEX
8
Layer 1
10
146.402870
20
235.338204
70
0
0
VERTEX
8
Layer 1
10
150.424539
20
239.809665
70
0
0
VERTEX
8
Layer 1
10
151.433264
20
241.202036
70
0
0
VERTEX
8
Layer 1
10
152.012040
20
242.323208
70
0
0
VERTEX
8
Layer 1
10
152.682318
20
244.122376
70
0
0
VERTEX
8
Layer 1
10
150.918428
20
242.640708
70
0
0
VERTEX
8
Layer 1
10
149.154538
20
241.159041
70
0
0
VERTEX
8
Layer 1
10
148.484260
20
242.040986
70
0
0
VERTEX
8
Layer 1
10
146.948573
20
244.224351
70
0
0
VERTEX
8
Layer 1
10
145.221064
20
247.072482
70
0
0
VERTEX
8
Layer 1
10
143.572929
20
250.112436
70
0
0
VERTEX
8
Layer 1
10
142.275367
20
252.871270
70
0
0
VERTEX
8
Layer 1
10
141.197465
20
255.587385
70
0
0
VERTEX
8
Layer 1
10
140.293196
20
258.328305
70
0
0
VERTEX
8
Layer 1
10
139.564213
20
261.079147
70
0
0
VERTEX
8
Layer 1
10
139.012171
20
263.825027
70
0
0
VERTEX
8
Layer 1
10
138.638722
20
266.551064
70
0
0
VERTEX
8
Layer 1
10
138.445521
20
269.242374
70
0
0
VERTEX
8
Layer 1
10
138.434221
20
271.884075
70
0
0
VERTEX
8
Layer 1
10
138.606476
20
274.461284
70
0
0
VERTEX
8
Layer 1
10
138.953888
20
276.993534
70
0
0
VERTEX
8
Layer 1
10
139.452661
20
279.416437
70
0
0
VERTEX
8
Layer 1
10
140.101192
20
281.728132
70
0
0
VERTEX
8
Layer 1
10
140.897880
20
283.926759
70
0
0
VERTEX
8
Layer 1
10
141.841121
20
286.010457
70
0
0
VERTEX
8
Layer 1
10
142.929316
20
287.977367
70
0
0
VERTEX
8
Layer 1
10
144.160861
20
289.825627
70
0
0
VERTEX
8
Layer 1
10
145.534154
20
291.553378
70
0
0
VERTEX
8
Layer 1
10
147.047594
20
293.158759
70
0
0
VERTEX
8
Layer 1
10
148.699579
20
294.639910
70
0
0
VERTEX
8
Layer 1
10
150.488506
20
295.994970
70
0
0
VERTEX
8
Layer 1
10
152.412774
20
297.222080
70
0
0
VERTEX
8
Layer 1
10
154.470781
20
298.319378
70
0
0
VERTEX
8
Layer 1
10
156.660924
20
299.285004
70
0
0
VERTEX
8
Layer 1
10
158.981602
20
300.117099
70
0
0
VERTEX
8
Layer 1
10
161.431213
20
300.813801
70
0
0
VERTEX
8
Layer 1
10
164.952929
20
301.317060
70
0
0
VERTEX
8
Layer 1
10
169.364308
20
301.453211
70
0
0
VERTEX
8
Layer 1
10
173.848447
20
301.225559
70
0
0
VERTEX
8
Layer 1
10
177.588445
20
300.637412
70
0
0
VERTEX
8
Layer 1
10
181.121324
20
299.563230
70
0
0
VERTEX
8
Layer 1
10
184.466514
20
298.142610
70
0
0
VERTEX
8
Layer 1
10
187.618227
20
296.379684
70
0
0
VERTEX
8
Layer 1
10
190.570676
20
294.278588
70
0
0
VERTEX
8
Layer 1
10
193.318072
20
291.843455
70
0
0
VERTEX
8
Layer 1
10
195.854629
20
289.078420
70
0
0
VERTEX
8
Layer 1
10
198.174557
20
285.987616
70
0
0
VERTEX
8
Layer 1
10
200.272071
20
282.575178
70
0
0
VERTEX
8
Layer 1
10
201.419150
20
280.248497
70
0
0
VERTEX
8
Layer 1
10
202.622454
20
277.429029
70
0
0
VERTEX
8
Layer 1
10
203.541330
20
274.960134
70
0
0
VERTEX
8
Layer 1
10
203.835128
20
273.685172
70
0
0
VERTEX
8
Layer 1
10
202.864989
20
273.147186
70
0
0
VERTEX
8
Layer 1
10
200.730682
20
272.344616
70
0
0
VERTEX
8
Layer 1
10
195.474290
20
270.439615
70
0
0
VERTEX
8
Layer 1
10
193.242969
20
269.592948
70
0
0
VERTEX
8
Layer 1
10
192.993819
20
269.635942
70
0
0
VERTEX
8
Layer 1
10
192.969566
20
269.910448
70
0
0
VERTEX
8
Layer 1
10
192.462448
20
271.351877
70
0
0
VERTEX
8
Layer 1
10
191.240954
20
273.927707
70
0
0
VERTEX
8
Layer 1
10
188.454008
20
278.976842
70
0
0
VERTEX
8
Layer 1
10
186.726153
20
281.246679
70
0
0
VERTEX
8
Layer 1
10
184.811024
20
283.284593
70
0
0
VERTEX
8
Layer 1
10
182.729702
20
285.076939
70
0
0
VERTEX
8
Layer 1
10
180.503273
20
286.610076
70
0
0
VERTEX
8
Layer 1
10
178.152821
20
287.870362
70
0
0
VERTEX
8
Layer 1
10
175.699429
20
288.844153
70
0
0
VERTEX
8
Layer 1
10
173.164182
20
289.517808
70
0
0
VERTEX
8
Layer 1
10
170.568163
20
289.877683
70
0
0
VERTEX
8
Layer 1
10
167.289739
20
289.833654
70
0
0
VERTEX
8
Layer 1
10
164.177920
20
289.221185
70
0
0
VERTEX
8
Layer 1
10
161.276941
20
288.073761
70
0
0
VERTEX
8
Layer 1
10
158.631037
20
286.424868
70
0
0
VERTEX
8
Layer 1
10
156.284444
20
284.307993
70
0
0
VERTEX
8
Layer 1
10
154.281395
20
281.756623
70
0
0
VERTEX
8
Layer 1
10
152.666126
20
278.804243
70
0
0
VERTEX
8
Layer 1
10
151.482873
20
275.484340
70
0
0
VERTEX
8
Layer 1
10
151.025915
20
272.685818
70
0
0
VERTEX
8
Layer 1
10
150.869921
20
269.209302
70
0
0
VERTEX
8
Layer 1
10
151.011584
20
265.686482
70
0
0
VERTEX
8
Layer 1
10
151.447595
20
262.749054
70
0
0
VERTEX
8
Layer 1
10
152.246858
20
259.969274
70
0
0
VERTEX
8
Layer 1
10
153.290860
20
257.153113
70
0
0
VERTEX
8
Layer 1
10
154.533300
20
254.409713
70
0
0
VERTEX
8
Layer 1
10
155.927876
20
251.848214
70
0
0
VERTEX
8
Layer 1
10
157.691766
20
248.779046
70
0
0
VERTEX
8
Layer 1
10
157.092043
20
247.932378
70
0
0
VERTEX
8
Layer 1
10
156.695168
20
247.389982
70
0
0
VERTEX
8
Layer 1
10
157.092043
20
247.297378
70
0
0
VERTEX
8
Layer 1
10
157.501597
20
247.172252
70
0
0
VERTEX
8
Layer 1
10
157.669717
20
246.851996
70
0
0
VERTEX
8
Layer 1
10
157.593098
20
246.419292
70
0
0
VERTEX
8
Layer 1
10
157.268432
20
245.956822
70
0
0
VERTEX
8
Layer 1
10
156.886440
20
245.481674
70
0
0
VERTEX
8
Layer 1
10
157.413953
20
245.753974
70
0
0
VERTEX
8
Layer 1
10
160.760935
20
248.249879
70
0
0
VERTEX
8
Layer 1
10
166.672722
20
252.649475
70
0
0
VERTEX
8
Layer 1
10
172.746567
20
256.697258
70
0
0
VERTEX
8
Layer 1
10
178.992391
20
260.398602
70
0
0
VERTEX
8
Layer 1
10
185.420117
20
263.758881
70
0
0
VERTEX
8
Layer 1
10
192.039665
20
266.783470
70
0
0
VERTEX
8
Layer 1
10
198.860959
20
269.477744
70
0
0
VERTEX
8
Layer 1
10
205.893919
20
271.847075
70
0
0
VERTEX
8
Layer 1
10
213.148468
20
273.896839
70
0
0
VERTEX
8
Layer 1
10
219.317931
20
275.387447
70
0
0
VERTEX
8
Layer 1
10
225.644388
20
276.736564
70
0
0
VERTEX
8
Layer 1
10
232.111198
20
277.943261
70
0
0
VERTEX
8
Layer 1
10
238.701722
20
279.006608
70
0
0
VERTEX
8
Layer 1
10
245.399319
20
279.925674
70
0
0
VERTEX
8
Layer 1
10
252.187350
20
280.699529
70
0
0
VERTEX
8
Layer 1
10
259.049175
20
281.327243
70
0
0
VERTEX
8
Layer 1
10
265.968154
20
281.807886
70
0
0
VERTEX
8
Layer 1
10
279.911015
20
282.324237
70
0
0
VERTEX
8
Layer 1
10
286.901618
20
282.358085
70
0
0
VERTEX
8
Layer 1
10
293.882815
20
282.241141
70
0
0
VERTEX
8
Layer 1
10
300.837968
20
281.972475
70
0
0
VERTEX
8
Layer 1
10
307.750436
20
281.551157
70
0
0
VERTEX
8
Layer 1
10
314.603579
20
280.976257
70
0
0
VERTEX
8
Layer 1
10
321.380758
20
280.246843
70
0
0
VERTEX
8
Layer 1
10
328.337168
20
279.342023
70
0
0
VERTEX
8
Layer 1
10
335.029408
20
278.319793
70
0
0
VERTEX
8
Layer 1
10
341.464506
20
277.178501
70
0
0
VERTEX
8
Layer 1
10
347.649490
20
275.916493
70
0
0
VERTEX
8
Layer 1
10
353.591388
20
274.532115
70
0
0
VERTEX
8
Layer 1
10
359.297227
20
273.023714
70
0
0
VERTEX
8
Layer 1
10
364.774037
20
271.389635
70
0
0
VERTEX
8
Layer 1
10
370.028844
20
269.628225
70
0
0
VERTEX
8
Layer 1
10
375.363096
20
267.617184
70
0
0
VERTEX
8
Layer 1
10
380.542731
20
265.406465
70
0
0
VERTEX
8
Layer 1
10
385.604958
20
262.974984
70
0
0
VERTEX
8
Layer 1
10
390.586982
20
260.301657
70
0
0
VERTEX
8
Layer 1
10
395.526012
20
257.365400
70
0
0
VERTEX
8
Layer 1
10
400.459254
20
254.145130
70
0
0
VERTEX
8
Layer 1
10
405.423915
20
250.619761
70
0
0
VERTEX
8
Layer 1
10
410.457203
20
246.768211
70
0
0
VERTEX
8
Layer 1
10
412.366614
20
245.387967
70
0
0
VERTEX
8
Layer 1
10
412.704509
20
245.255124
70
0
0
VERTEX
8
Layer 1
10
412.503315
20
245.568766
70
0
0
VERTEX
8
Layer 1
10
412.158254
20
246.066514
70
0
0
VERTEX
8
Layer 1
10
412.071162
20
246.508037
70
0
0
VERTEX
8
Layer 1
10
412.235425
20
246.823884
70
0
0
VERTEX
8
Layer 1
10
412.644427
20
246.944600
70
0
0
VERTEX
8
Layer 1
10
412.891922
20
246.984839
70
0
0
VERTEX
8
Layer 1
10
412.931059
20
247.134218
70
0
0
VERTEX
8
Layer 1
10
412.291649
20
247.932378
70
0
0
VERTEX
8
Layer 1
10
411.374426
20
248.884879
70
0
0
VERTEX
8
Layer 1
10
412.644427
20
250.825158
70
0
0
VERTEX
8
Layer 1
10
413.966095
20
253.041803
70
0
0
VERTEX
8
Layer 1
10
415.113252
20
255.315912
70
0
0
VERTEX
8
Layer 1
10
416.085847
20
257.632189
70
0
0
VERTEX
8
Layer 1
10
416.883826
20
259.975337
70
0
0
VERTEX
8
Layer 1
10
417.507139
20
262.330062
70
0
0
VERTEX
8
Layer 1
10
417.955734
20
264.681065
70
0
0
VERTEX
8
Layer 1
10
418.229559
20
267.013052
70
0
0
VERTEX
8
Layer 1
10
418.328562
20
269.310725
70
0
0
VERTEX
8
Layer 1
10
418.252692
20
271.558789
70
0
0
VERTEX
8
Layer 1
10
418.001898
20
273.741948
70
0
0
VERTEX
8
Layer 1
10
417.576127
20
275.844904
70
0
0
VERTEX
8
Layer 1
10
416.975328
20
277.852363
70
0
0
VERTEX
8
Layer 1
10
416.199449
20
279.749027
70
0
0
VERTEX
8
Layer 1
10
415.248438
20
281.519600
70
0
0
VERTEX
8
Layer 1
10
414.122244
20
283.148787
70
0
0
VERTEX
8
Layer 1
10
412.820816
20
284.621290
70
0
0
VERTEX
8
Layer 1
10
410.999668
20
286.226361
70
0
0
VERTEX
8
Layer 1
10
409.040028
20
287.546592
70
0
0
VERTEX
8
Layer 1
10
406.958844
20
288.578261
70
0
0
VERTEX
8
Layer 1
10
404.773067
20
289.317648
70
0
0
VERTEX
8
Layer 1
10
402.499648
20
289.761032
70
0
0
VERTEX
8
Layer 1
10
400.155534
20
289.904692
70
0
0
VERTEX
8
Layer 1
10
397.757677
20
289.744909
70
0
0
VERTEX
8
Layer 1
10
395.323027
20
289.277960
70
0
0
VERTEX
8
Layer 1
10
392.311874
20
288.276195
70
0
0
VERTEX
8
Layer 1
10
389.456990
20
286.846548
70
0
0
VERTEX
8
Layer 1
10
386.779047
20
285.010931
70
0
0
VERTEX
8
Layer 1
10
384.298714
20
282.791255
70
0
0
VERTEX
8
Layer 1
10
382.036663
20
280.209429
70
0
0
VERTEX
8
Layer 1
10
380.013564
20
277.287367
70
0
0
VERTEX
8
Layer 1
10
378.250087
20
274.046977
70
0
0
VERTEX
8
Layer 1
10
376.766904
20
270.510170
70
0
0
VERTEX
8
Layer 1
10
376.449404
20
269.522392
70
0
0
VERTEX
8
Layer 1
10
374.579680
20
270.263226
70
0
0
VERTEX
8
Layer 1
10
369.076344
20
272.238783
70
0
0
VERTEX
8
Layer 1
10
366.714936
20
273.040250
70
0
0
VERTEX
8
Layer 1
10
366.087377
20
273.398402
70
0
0
VERTEX
8
Layer 1
10
365.795508
20
273.861561
70
0
0
VERTEX
8
Layer 1
10
365.814525
20
274.529773
70
0
0
VERTEX
8
Layer 1
10
366.119623
20
275.503082
70
0
0
VERTEX
8
Layer 1
10
367.488843
20
278.765176
70
0
0
VERTEX
8
Layer 1
10
369.711413
20
283.325107
70
0
0
VERTEX
8
Layer 1
10
370.985918
20
285.438571
70
0
0
VERTEX
8
Layer 1
10
372.364345
20
287.436900
70
0
0
VERTEX
8
Layer 1
10
373.843024
20
289.316993
70
0
0
VERTEX
8
Layer 1
10
375.418286
20
291.075750
70
0
0
VERTEX
8
Layer 1
10
377.086463
20
292.710070
70
0
0
VERTEX
8
Layer 1
10
378.843884
20
294.216852
70
0
0
VERTEX
8
Layer 1
10
380.686883
20
295.592996
70
0
0
VERTEX
8
Layer 1
10
382.611788
20
296.835402
70
0
0
VERTEX
8
Layer 1
10
384.614931
20
297.940968
70
0
0
VERTEX
8
Layer 1
10
386.692644
20
298.906595
70
0
0
VERTEX
8
Layer 1
10
388.841256
20
299.729181
70
0
0
VERTEX
8
Layer 1
10
391.057100
20
300.405625
70
0
0
VERTEX
8
Layer 1
10
393.336506
20
300.932829
70
0
0
VERTEX
8
Layer 1
10
395.675805
20
301.307690
70
0
0
VERTEX
8
Layer 1
10
399.481191
20
301.584056
70
0
0
VERTEX
8
Layer 1
10
403.225805
20
301.468094
70
0
0
VERTEX
8
Layer 1
10
406.872028
20
300.970966
70
0
0
VERTEX
8
Layer 1
10
410.382238
20
300.103835
70
0
0
VERTEX
8
Layer 1
10
413.718815
20
298.877862
70
0
0
VERTEX
8
Layer 1
10
416.844138
20
297.304211
70
0
0
VERTEX
8
Layer 1
10
419.720588
20
295.394042
70
0
0
VERTEX
8
Layer 1
10
422.310544
20
293.158518
70
0
0
VERTEX
8
Layer 1
10
424.313661
20
290.980941
70
0
0
VERTEX
8
Layer 1
10
426.038966
20
288.649574
70
0
0
VERTEX
8
Layer 1
10
427.489766
20
286.156150
70
0
0
VERTEX
8
Layer 1
10
428.669367
20
283.492401
70
0
0
VERTEX
8
Layer 1
10
429.581078
20
280.650057
70
0
0
VERTEX
8
Layer 1
10
430.228205
20
277.620852
70
0
0
VERTEX
8
Layer 1
10
430.614056
20
274.396516
70
0
0
VERTEX
8
Layer 1
10
430.741938
20
270.968782
70
0
0
VERTEX
8
Layer 1
10
430.605581
20
267.548558
70
0
0
VERTEX
8
Layer 1
10
430.200093
20
264.125440
70
0
0
VERTEX
8
Layer 1
10
429.530848
20
260.716378
70
0
0
VERTEX
8
Layer 1
10
428.603221
20
257.338322
70
0
0
VERTEX
8
Layer 1
10
427.422586
20
254.008222
70
0
0
VERTEX
8
Layer 1
10
425.994318
20
250.743027
70
0
0
VERTEX
8
Layer 1
10
424.323790
20
247.559688
70
0
0
VERTEX
8
Layer 1
10
422.416377
20
244.475154
70
0
0
VERTEX
8
Layer 1
10
420.299709
20
241.335430
70
0
0
VERTEX
8
Layer 1
10
419.788181
20
241.564735
70
0
0
VERTEX
8
Layer 1
10
418.747486
20
242.323208
70
0
0
VERTEX
8
Layer 1
10
417.336374
20
243.346264
70
0
0
VERTEX
8
Layer 1
10
417.865541
20
241.511819
70
0
0
VERTEX
8
Layer 1
10
418.350060
20
240.420963
70
0
0
VERTEX
8
Layer 1
10
419.333979
20
239.055602
70
0
0
VERTEX
8
Layer 1
10
424.109712
20
233.927092
70
0
0
VERTEX
8
Layer 1
10
430.760128
20
226.806488
70
0
0
VERTEX
8
Layer 1
10
437.122810
20
219.295624
70
0
0
VERTEX
8
Layer 1
10
443.531794
20
210.977780
70
0
0
VERTEX
8
Layer 1
10
450.321117
20
201.436238
70
0
0
VERTEX
8
Layer 1
10
458.858345
20
189.547619
70
0
0
VERTEX
8
Layer 1
10
462.391086
20
185.098758
70
0
0
VERTEX
8
Layer 1
10
466.271092
20
180.679662
70
0
0
VERTEX
8
Layer 1
10
469.707922
20
177.140307
70
0
0
VERTEX
8
Layer 1
10
471.013131
20
175.966149
70
0
0
VERTEX
8
Layer 1
10
471.911131
20
175.330666
70
0
0
VERTEX
8
Layer 1
10
474.803910
20
173.249276
70
0
0
VERTEX
8
Layer 1
10
479.636969
20
169.686218
70
0
0
VERTEX
8
Layer 1
10
485.378431
20
165.611632
70
0
0
VERTEX
8
Layer 1
10
487.405802
20
164.020824
70
0
0
VERTEX
8
Layer 1
10
488.209474
20
163.230381
70
0
0
VERTEX
8
Layer 1
10
487.481318
20
163.096986
70
0
0
VERTEX
8
Layer 1
10
485.612146
20
163.195103
70
0
0
VERTEX
8
Layer 1
10
480.660025
20
163.900659
70
0
0
VERTEX
8
Layer 1
10
477.643773
20
164.376909
70
0
0
VERTEX
8
Layer 1
10
477.098070
20
164.257847
70
0
0
VERTEX
8
Layer 1
10
476.955856
20
163.900659
70
0
0
VERTEX
8
Layer 1
10
477.900640
20
162.745862
70
0
0
VERTEX
8
Layer 1
10
480.571831
20
160.218538
70
0
0
VERTEX
8
Layer 1
10
490.114475
20
151.906207
70
0
0
VERTEX
8
Layer 1
10
493.024894
20
149.375025
70
0
0
VERTEX
8
Layer 1
10
494.241978
20
148.166760
70
0
0
VERTEX
8
Layer 1
10
494.040233
20
148.022893
70
0
0
VERTEX
8
Layer 1
10
493.210102
20
148.100614
70
0
0
VERTEX
8
Layer 1
10
488.315308
20
149.119261
70
0
0
VERTEX
8
Layer 1
10
485.418118
20
149.666066
70
0
0
VERTEX
8
Layer 1
10
484.081972
20
149.789539
70
0
0
VERTEX
8
Layer 1
10
485.034472
20
148.537177
70
0
0
VERTEX
8
Layer 1
10
487.574474
20
145.803147
70
0
0
VERTEX
8
Layer 1
10
495.622222
20
137.182135
70
0
0
VERTEX
8
Layer 1
10
499.049129
20
133.356147
70
0
0
VERTEX
8
Layer 1
10
500.521426
20
131.550916
70
0
0
VERTEX
8
Layer 1
10
500.040766
20
131.581784
70
0
0
VERTEX
8
Layer 1
10
498.686981
20
132.115361
70
0
0
VERTEX
8
Layer 1
10
494.735867
20
133.879251
70
0
0
VERTEX
8
Layer 1
10
493.289477
20
134.478974
70
0
0
VERTEX
8
Layer 1
10
492.583921
20
134.655363
70
0
0
VERTEX
8
Layer 1
10
492.782359
20
134.196751
70
0
0
VERTEX
8
Layer 1
10
493.430589
20
133.314806
70
0
0
VERTEX
8
Layer 1
10
494.168666
20
132.663821
70
0
0
VERTEX
8
Layer 1
10
495.392916
20
131.864007
70
0
0
VERTEX
8
Layer 1
10
499.392537
20
129.751748
70
0
0
VERTEX
8
Layer 1
10
502.511315
20
128.283310
70
0
0
VERTEX
8
Layer 1
10
504.340248
20
127.555705
70
0
0
VERTEX
8
Layer 1
10
505.256369
20
127.449872
70
0
0
VERTEX
8
Layer 1
10
505.489946
20
127.592912
70
0
0
VERTEX
8
Layer 1
10
505.636707
20
127.846747
70
0
0
VERTEX
8
Layer 1
10
505.677911
20
128.139029
70
0
0
VERTEX
8
Layer 1
10
505.536386
20
128.551201
70
0
0
VERTEX
8
Layer 1
10
504.384345
20
130.122165
70
0
0
VERTEX
8
Layer 1
10
496.358646
20
138.959254
70
0
0
VERTEX
8
Layer 1
10
488.668086
20
147.425926
70
0
0
VERTEX
8
Layer 1
10
489.369232
20
147.452385
70
0
0
VERTEX
8
Layer 1
10
491.208087
20
147.108426
70
0
0
VERTEX
8
Layer 1
10
495.547257
20
146.332314
70
0
0
VERTEX
8
Layer 1
10
496.962778
20
146.358773
70
0
0
VERTEX
8
Layer 1
10
497.229015
20
146.570440
70
0
0
VERTEX
8
Layer 1
10
497.346424
20
146.967315
70
0
0
VERTEX
8
Layer 1
10
497.145231
20
147.524043
70
0
0
VERTEX
8
Layer 1
10
496.345417
20
148.484260
70
0
0
VERTEX
8
Layer 1
10
492.407532
20
152.117874
70
0
0
VERTEX
8
Layer 1
10
484.099610
20
159.508573
70
0
0
VERTEX
8
Layer 1
10
482.426120
20
161.097176
70
0
0
VERTEX
8
Layer 1
10
481.930026
20
161.713435
70
0
0
VERTEX
8
Layer 1
10
482.040269
20
161.858956
70
0
0
VERTEX
8
Layer 1
10
482.388637
20
161.819269
70
0
0
VERTEX
8
Layer 1
10
486.868918
20
161.395935
70
0
0
VERTEX
8
Layer 1
10
490.251177
20
161.303331
70
0
0
VERTEX
8
Layer 1
10
491.070835
20
161.440583
70
0
0
VERTEX
8
Layer 1
10
491.596143
20
161.713435
70
0
0
VERTEX
8
Layer 1
10
491.920740
20
162.014192
70
0
0
VERTEX
8
Layer 1
10
492.056408
20
162.326938
70
0
0
VERTEX
8
Layer 1
10
491.976275
20
162.680199
70
0
0
VERTEX
8
Layer 1
10
491.653469
20
163.102499
70
0
0
VERTEX
8
Layer 1
10
490.172353
20
164.268320
70
0
0
VERTEX
8
Layer 1
10
487.398085
20
166.052605
70
0
0
VERTEX
8
Layer 1
10
483.512015
20
168.584338
70
0
0
VERTEX
8
Layer 1
10
479.883913
20
171.198754
70
0
0
VERTEX
8
Layer 1
10
476.414562
20
173.965305
70
0
0
VERTEX
8
Layer 1
10
473.004742
20
176.953445
70
0
0
VERTEX
8
Layer 1
10
468.289644
20
181.586412
70
0
0
VERTEX
8
Layer 1
10
463.858973
20
186.606333
70
0
0
VERTEX
8
Layer 1
10
459.124031
20
192.744119
70
0
0
VERTEX
8
Layer 1
10
453.496119
20
200.730682
70
0
0
VERTEX
8
Layer 1
10
444.288613
20
213.620308
70
0
0
VERTEX
8
Layer 1
10
439.992439
20
219.289561
70
0
0
VERTEX
8
Layer 1
10
436.351108
20
223.837641
70
0
0
VERTEX
8
Layer 1
10
428.709055
20
232.308723
70
0
0
VERTEX
8
Layer 1
10
422.204710
20
239.112928
70
0
0
VERTEX
8
Layer 1
10
421.989185
20
239.461297
70
0
0
VERTEX
8
Layer 1
10
422.147384
20
240.074248
70
0
0
VERTEX
8
Layer 1
10
423.968600
20
242.993486
70
0
0
VERTEX
8
Layer 1
10
425.750181
20
245.827045
70
0
0
VERTEX
8
Layer 1
10
427.336941
20
248.735224
70
0
0
VERTEX
8
Layer 1
10
428.727538
20
251.703348
70
0
0
VERTEX
8
Layer 1
10
429.920627
20
254.716740
70
0
0
VERTEX
8
Layer 1
10
430.914865
20
257.760725
70
0
0
VERTEX
8
Layer 1
10
431.708908
20
260.820627
70
0
0
VERTEX
8
Layer 1
10
432.301413
20
263.881768
70
0
0
VERTEX
8
Layer 1
10
432.691036
20
266.929474
70
0
0
VERTEX
8
Layer 1
10
432.876434
20
269.949067
70
0
0
VERTEX
8
Layer 1
10
432.856263
20
272.925873
70
0
0
VERTEX
8
Layer 1
10
432.629180
20
275.845214
70
0
0
VERTEX
8
Layer 1
10
432.193840
20
278.692415
70
0
0
VERTEX
8
Layer 1
10
431.548900
20
281.452800
70
0
0
VERTEX
8
Layer 1
10
430.693018
20
284.111692
70
0
0
VERTEX
8
Layer 1
10
429.624848
20
286.654415
70
0
0
VERTEX
8
Layer 1
10
428.343048
20
289.066293
70
0
0
VERTEX
8
Layer 1
10
426.814174
20
291.372278
70
0
0
VERTEX
8
Layer 1
10
425.069860
20
293.497860
70
0
0
VERTEX
8
Layer 1
10
423.127006
20
295.437924
70
0
0
VERTEX
8
Layer 1
10
421.002509
20
297.187353
70
0
0
VERTEX
8
Layer 1
10
418.713268
20
298.741032
70
0
0
VERTEX
8
Layer 1
10
416.276180
20
300.093844
70
0
0
VERTEX
8
Layer 1
10
413.708144
20
301.240674
70
0
0
VERTEX
8
Layer 1
10
411.026058
20
302.176406
70
0
0
VERTEX
8
Layer 1
10
408.246820
20
302.895923
70
0
0
VERTEX
8
Layer 1
10
405.387328
20
303.394110
70
0
0
VERTEX
8
Layer 1
10
402.464482
20
303.665851
70
0
0
VERTEX
8
Layer 1
10
399.495178
20
303.706029
70
0
0
VERTEX
8
Layer 1
10
396.496315
20
303.509529
70
0
0
VERTEX
8
Layer 1
10
393.484792
20
303.071235
70
0
0
VERTEX
8
Layer 1
10
390.477506
20
302.386031
70
0
0
VERTEX
8
Layer 1
10
387.491355
20
301.448801
70
0
0
VERTEX
8
Layer 1
10
384.109096
20
300.049265
70
0
0
VERTEX
8
Layer 1
10
380.991421
20
298.348764
70
0
0
VERTEX
8
Layer 1
10
378.045724
20
296.284462
70
0
0
VERTEX
8
Layer 1
10
375.179403
20
293.793518
70
0
0
VERTEX
8
Layer 1
10
371.845651
20
290.211168
70
0
0
VERTEX
8
Layer 1
10
368.961691
20
286.248479
70
0
0
VERTEX
8
Layer 1
10
366.487835
20
281.842612
70
0
0
VERTEX
8
Layer 1
10
364.384396
20
276.930730
70
0
0
VERTEX
8
Layer 1
10
363.555368
20
275.030139
70
0
0
VERTEX
8
Layer 1
10
363.203692
20
274.504830
70
0
0
VERTEX
8
Layer 1
10
362.938006
20
274.320173
70
0
0
VERTEX
8
Layer 1
10
358.493004
20
275.484340
70
0
0
VERTEX
8
Layer 1
10
352.605538
20
277.001561
70
0
0
VERTEX
8
Layer 1
10
346.391065
20
278.401373
70
0
0
VERTEX
8
Layer 1
10
339.876454
20
279.678815
70
0
0
VERTEX
8
Layer 1
10
333.088578
20
280.828927
70
0
0
VERTEX
8
Layer 1
10
326.054309
20
281.846747
70
0
0
VERTEX
8
Layer 1
10
318.800518
20
282.727314
70
0
0
VERTEX
8
Layer 1
10
311.354077
20
283.465667
70
0
0
VERTEX
8
Layer 1
10
303.741858
20
284.056846
70
0
0
VERTEX
8
Layer 1
10
295.566228
20
284.368834
70
0
0
VERTEX
8
Layer 1
10
284.877054
20
284.462540
70
0
0
VERTEX
8
Layer 1
10
274.095277
20
284.344580
70
0
0
VERTEX
8
Layer 1
10
265.641834
20
284.021568
70
0
0
VERTEX
8
Layer 1
10
253.912517
20
283.071272
70
0
0
VERTEX
8
Layer 1
10
242.636299
20
281.763789
70
0
0
VERTEX
8
Layer 1
10
231.882633
20
280.112347
70
0
0
VERTEX
8
Layer 1
10
221.720973
20
278.130175
70
0
0
VERTEX
8
Layer 1
10
212.910342
20
276.017917
70
0
0
VERTEX
8
Layer 1
10
206.586797
20
274.249617
70
0
0
VERTEX
8
Layer 1
10
206.316701
20
274.354348
70
0
0
VERTEX
8
Layer 1
10
205.987074
20
274.822881
70
0
0
VERTEX
8
Layer 1
10
205.175685
20
276.824897
70
0
0
VERTEX
8
Layer 1
10
204.194176
20
279.304540
70
0
0
VERTEX
8
Layer 1
10
203.018778
20
281.812296
70
0
0
VERTEX
8
Layer 1
10
200.223564
20
286.693861
70
0
0
VERTEX
8
Layer 1
10
198.672374
20
288.958531
70
0
0
VERTEX
8
Layer 1
10
197.064547
20
291.033031
70
0
0
VERTEX
8
Layer 1
10
195.434396
20
292.862791
70
0
0
VERTEX
8
Layer 1
10
193.816233
20
294.393241
70
0
0
VERTEX
8
Layer 1
10
191.030734
20
296.611953
70
0
0
VERTEX
8
Layer 1
10
188.280375
20
298.490427
70
0
0
VERTEX
8
Layer 1
10
185.520920
20
300.045613
70
0
0
VERTEX
8
Layer 1
10
182.708136
20
301.294461
70
0
0
VERTEX
8
Layer 1
10
179.797786
20
302.253920
70
0
0
VERTEX
8
Layer 1
10
176.745637
20
302.940942
70
0
0
VERTEX
8
Layer 1
10
173.507451
20
303.372475
70
0
0
VERTEX
8
Layer 1
10
170.038996
20
303.565469
70
0
0
VERTEX
8
Layer 1
10
165.893854
20
303.569879
70
0
0
VERTEX
8
Layer 1
10
163.124547
20
303.389080
70
0
0
VERTEX
8
Layer 1
10
163.124547
20
303.389080
70
0
0
SEQEND
8
Layer 1
0
POLYLINE
8
Layer 1
62
7
70
0
10
0.000000
20
0.000000
66
1
0
VERTEX
8
Layer 1
10
175.365944
20
286.702681
70
0
0
VERTEX
8
Layer 1
10
177.674573
20
285.733712
70
0
0
VERTEX
8
Layer 1
10
179.818664
20
284.540262
70
0
0
VERTEX
8
Layer 1
10
181.808965
20
283.112820
70
0
0
VERTEX
8
Layer 1
10
183.656227
20
281.441879
70
0
0
VERTEX
8
Layer 1
10
185.371196
20
279.517929
70
0
0
VERTEX
8
Layer 1
10
186.964623
20
277.331464
70
0
0
VERTEX
8
Layer 1
10
188.447255
20
274.872973
70
0
0
VERTEX
8
Layer 1
10
189.829842
20
272.132949
70
0
0
VERTEX
8
Layer 1
10
190.751474
20
269.892809
70
0
0
VERTEX
8
Layer 1
10
190.958731
20
268.816836
70
0
0
VERTEX
8
Layer 1
10
187.148729
20
267.017668
70
0
0
VERTEX
8
Layer 1
10
181.341672
20
264.145835
70
0
0
VERTEX
8
Layer 1
10
174.611881
20
260.341345
70
0
0
VERTEX
8
Layer 1
10
168.153287
20
256.311958
70
0
0
VERTEX
8
Layer 1
10
163.159825
20
252.765437
70
0
0
VERTEX
8
Layer 1
10
160.619823
20
250.860436
70
0
0
VERTEX
8
Layer 1
10
159.490934
20
250.119602
70
0
0
VERTEX
8
Layer 1
10
157.691766
20
253.012382
70
0
0
VERTEX
8
Layer 1
10
156.504809
20
255.092557
70
0
0
VERTEX
8
Layer 1
10
155.483734
20
257.198520
70
0
0
VERTEX
8
Layer 1
10
154.628230
20
259.319675
70
0
0
VERTEX
8
Layer 1
10
153.937988
20
261.445429
70
0
0
VERTEX
8
Layer 1
10
153.412696
20
263.565189
70
0
0
VERTEX
8
Layer 1
10
153.052046
20
265.668361
70
0
0
VERTEX
8
Layer 1
10
152.855727
20
267.744351
70
0
0
VERTEX
8
Layer 1
10
152.823430
20
269.782566
70
0
0
VERTEX
8
Layer 1
10
152.954843
20
271.772411
70
0
0
VERTEX
8
Layer 1
10
153.249657
20
273.703294
70
0
0
VERTEX
8
Layer 1
10
153.707562
20
275.564620
70
0
0
VERTEX
8
Layer 1
10
154.328248
20
277.345795
70
0
0
VERTEX
8
Layer 1
10
155.111405
20
279.036227
70
0
0
VERTEX
8
Layer 1
10
156.056723
20
280.625322
70
0
0
VERTEX
8
Layer 1
10
157.163891
20
282.102485
70
0
0
VERTEX
8
Layer 1
10
158.432600
20
283.457123
70
0
0
VERTEX
8
Layer 1
10
160.131446
20
284.874850
70
0
0
VERTEX
8
Layer 1
10
161.969199
20
286.041222
70
0
0
VERTEX
8
Layer 1
10
163.899556
20
286.929781
70
0
0
VERTEX
8
Layer 1
10
165.876216
20
287.514070
70
0
0
VERTEX
8
Layer 1
10
168.038634
20
287.744478
70
0
0
VERTEX
8
Layer 1
10
170.581392
20
287.664001
70
0
0
VERTEX
8
Layer 1
10
173.143994
20
287.305710
70
0
0
VERTEX
8
Layer 1
10
175.365944
20
286.702681
70
0
0
VERTEX
8
Layer 1
10
175.365944
20
286.702681
70
0
0
SEQEND
8
Layer 1
0
POLYLINE
8
Layer 1
62
7
70
0
10
0.000000
20
0.000000
66
1
0
VERTEX
8
Layer 1
10
403.295810
20
287.478792
70
0
0
VERTEX
8
Layer 1
10
405.578876
20
286.832836
70
0
0
VERTEX
8
Layer 1
10
407.682935
20
285.883023
70
0
0
VERTEX
8
Layer 1
10
409.594344
20
284.642995
70
0
0
VERTEX
8
Layer 1
10
411.299460
20
283.126394
70
0
0
VERTEX
8
Layer 1
10
412.784642
20
281.346863
70
0
0
VERTEX
8
Layer 1
10
414.036246
20
279.318045
70
0
0
VERTEX
8
Layer 1
10
415.040630
20
277.053582
70
0
0
VERTEX
8
Layer 1
10
415.784151
20
274.567117
70
0
0
VERTEX
8
Layer 1
10
416.184333
20
271.610397
70
0
0
VERTEX
8
Layer 1
10
416.181026
20
268.164197
70
0
0
VERTEX
8
Layer 1
10
415.794073
20
264.585705
70
0
0
VERTEX
8
Layer 1
10
415.043317
20
261.232109
70
0
0
VERTEX
8
Layer 1
10
413.956320
20
258.274837
70
0
0
VERTEX
8
Layer 1
10
412.459218
20
254.957070
70
0
0
VERTEX
8
Layer 1
10
410.975346
20
252.148627
70
0
0
VERTEX
8
Layer 1
10
409.928036
20
250.719325
70
0
0
VERTEX
8
Layer 1
10
409.449030
20
250.719876
70
0
0
VERTEX
8
Layer 1
10
408.556612
20
251.147068
70
0
0
VERTEX
8
Layer 1
10
404.989144
20
253.612104
70
0
0
VERTEX
8
Layer 1
10
400.307118
20
256.821833
70
0
0
VERTEX
8
Layer 1
10
395.102541
20
260.054712
70
0
0
VERTEX
8
Layer 1
10
389.620150
20
263.161915
70
0
0
VERTEX
8
Layer 1
10
384.104686
20
265.994612
70
0
0
VERTEX
8
Layer 1
10
378.213294
20
268.852114
70
0
0
VERTEX
8
Layer 1
10
378.777739
20
270.157392
70
0
0
VERTEX
8
Layer 1
10
380.321142
20
273.543165
70
0
0
VERTEX
8
Layer 1
10
382.016682
20
276.559762
70
0
0
VERTEX
8
Layer 1
10
383.867664
20
279.211729
70
0
0
VERTEX
8
Layer 1
10
385.877396
20
281.503615
70
0
0
VERTEX
8
Layer 1
10
388.049185
20
283.439966
70
0
0
VERTEX
8
Layer 1
10
390.386340
20
285.025331
70
0
0
VERTEX
8
Layer 1
10
392.892166
20
286.264257
70
0
0
VERTEX
8
Layer 1
10
395.569971
20
287.161292
70
0
0
VERTEX
8
Layer 1
10
397.660181
20
287.612738
70
0
0
VERTEX
8
Layer 1
10
399.565182
20
287.809522
70
0
0
VERTEX
8
Layer 1
10
401.404038
20
287.761566
70
0
0
VERTEX
8
Layer 1
10
403.295810
20
287.478792
70
0
0
VERTEX
8
Layer 1
10
403.295810
20
287.478792
70
0
0
SEQEND
8
Layer 1
0
POLYLINE
8
Layer 1
62
7
70
0
10
0.000000
20
0.000000
66
1
0
VERTEX
8
Layer 1
10
139.770644
20
212.337078
70
0
0
VERTEX
8
Layer 1
10
137.635785
20
210.747924
70
0
0
VERTEX
8
Layer 1
10
135.629912
20
208.990097
70
0
0
VERTEX
8
Layer 1
10
134.239195
20
207.529927
70
0
0
VERTEX
8
Layer 1
10
133.926449
20
207.057190
70
0
0
VERTEX
8
Layer 1
10
133.949807
20
206.833741
70
0
0
VERTEX
8
Layer 1
10
134.739147
20
207.063047
70
0
0
VERTEX
8
Layer 1
10
136.031197
20
207.821520
70
0
0
VERTEX
8
Layer 1
10
137.917457
20
209.290509
70
0
0
VERTEX
8
Layer 1
10
139.982310
20
211.133223
70
0
0
VERTEX
8
Layer 1
10
141.597372
20
212.757656
70
0
0
VERTEX
8
Layer 1
10
142.134256
20
213.571801
70
0
0
VERTEX
8
Layer 1
10
141.349325
20
213.311627
70
0
0
VERTEX
8
Layer 1
10
139.770644
20
212.337078
70
0
0
VERTEX
8
Layer 1
10
139.770644
20
212.337078
70
0
0
SEQEND
8
Layer 1
0
POLYLINE
8
Layer 1
62
7
70
0
10
0.000000
20
0.000000
66
1
0
VERTEX
8
Layer 1
10
428.978048
20
213.501246
70
0
0
VERTEX
8
Layer 1
10
429.718331
20
212.549296
70
0
0
VERTEX
8
Layer 1
10
431.487182
20
210.806904
70
0
0
VERTEX
8
Layer 1
10
433.606606
20
208.912376
70
0
0
VERTEX
8
Layer 1
10
435.398608
20
207.504020
70
0
0
VERTEX
8
Layer 1
10
436.620101
20
206.794054
70
0
0
VERTEX
8
Layer 1
10
437.233053
20
206.692630
70
0
0
VERTEX
8
Layer 1
10
437.142172
20
206.984154
70
0
0
VERTEX
8
Layer 1
10
436.730896
20
207.523312
70
0
0
VERTEX
8
Layer 1
10
435.226628
20
209.078291
70
0
0
VERTEX
8
Layer 1
10
433.279184
20
210.825094
70
0
0
VERTEX
8
Layer 1
10
431.447494
20
212.231245
70
0
0
VERTEX
8
Layer 1
10
429.379333
20
213.567391
70
0
0
VERTEX
8
Layer 1
10
429.051360
20
213.664957
70
0
0
VERTEX
8
Layer 1
10
428.978048
20
213.501246
70
0
0
VERTEX
8
Layer 1
10
428.978048
20
213.501246
70
0
0
SEQEND
8
Layer 1
0
POLYLINE
8
Layer 1
62
7
70
0
10
0.000000
20
0.000000
66
1
0
VERTEX
8
Layer 1
10
400.226641
20
209.973466
70
0
0
VERTEX
8
Layer 1
10
398.577404
20
209.254680
70
0
0
VERTEX
8
Layer 1
10
395.605249
20
207.715686
70
0
0
VERTEX
8
Layer 1
10
391.030160
20
205.475546
70
0
0
VERTEX
8
Layer 1
10
386.944549
20
203.896865
70
0
0
VERTEX
8
Layer 1
10
382.885397
20
202.834121
70
0
0
VERTEX
8
Layer 1
10
378.389683
20
202.141794
70
0
0
VERTEX
8
Layer 1
10
375.463830
20
201.920205
70
0
0
VERTEX
8
Layer 1
10
372.286623
20
201.956586
70
0
0
VERTEX
8
Layer 1
10
368.447958
20
202.270778
70
0
0
VERTEX
8
Layer 1
10
363.537729
20
202.882628
70
0
0
VERTEX
8
Layer 1
10
357.293558
20
203.552906
70
0
0
VERTEX
8
Layer 1
10
356.353185
20
203.428331
70
0
0
VERTEX
8
Layer 1
10
355.591405
20
203.085475
70
0
0
VERTEX
8
Layer 1
10
355.080979
20
202.570640
70
0
0
VERTEX
8
Layer 1
10
354.894668
20
201.930127
70
0
0
VERTEX
8
Layer 1
10
354.989201
20
201.299605
70
0
0
VERTEX
8
Layer 1
10
355.306977
20
200.742258
70
0
0
VERTEX
8
Layer 1
10
355.899258
20
200.235346
70
0
0
VERTEX
8
Layer 1
10
356.817308
20
199.756133
70
0
0
VERTEX
8
Layer 1
10
359.835765
20
198.789852
70
0
0
VERTEX
8
Layer 1
10
364.772452
20
197.661513
70
0
0
VERTEX
8
Layer 1
10
367.292059
20
197.170380
70
0
0
VERTEX
8
Layer 1
10
369.530545
20
196.880992
70
0
0
VERTEX
8
Layer 1
10
375.532181
20
196.709013
70
0
0
VERTEX
8
Layer 1
10
381.445622
20
196.850124
70
0
0
VERTEX
8
Layer 1
10
383.405194
20
197.125732
70
0
0
VERTEX
8
Layer 1
10
385.586354
20
197.626236
70
0
0
VERTEX
8
Layer 1
10
390.189556
20
199.043962
70
0
0
VERTEX
8
Layer 1
10
394.445492
20
200.871793
70
0
0
VERTEX
8
Layer 1
10
398.231792
20
203.043583
70
0
0
VERTEX
8
Layer 1
10
401.426086
20
205.493185
70
0
0
VERTEX
8
Layer 1
10
402.572615
20
206.767596
70
0
0
VERTEX
8
Layer 1
10
402.805228
20
207.333694
70
0
0
VERTEX
8
Layer 1
10
402.872476
20
207.962631
70
0
0
VERTEX
8
Layer 1
10
402.677346
20
208.966395
70
0
0
VERTEX
8
Layer 1
10
402.131642
20
209.669195
70
0
0
VERTEX
8
Layer 1
10
401.294897
20
210.021421
70
0
0
VERTEX
8
Layer 1
10
400.226641
20
209.973466
70
0
0
VERTEX
8
Layer 1
10
400.226641
20
209.973466
70
0
0
SEQEND
8
Layer 1
0
POLYLINE
8
Layer 1
62
7
70
0
10
0.000000
20
0.000000
66
1
0
VERTEX
8
Layer 1
10
168.275106
20
209.232632
70
0
0
VERTEX
8
Layer 1
10
167.986269
20
208.330912
70
0
0
VERTEX
8
Layer 1
10
168.048005
20
207.396533
70
0
0
VERTEX
8
Layer 1
10
168.463622
20
206.426600
70
0
0
VERTEX
8
Layer 1
10
169.236426
20
205.418220
70
0
0
VERTEX
8
Layer 1
10
170.369725
20
204.368498
70
0
0
VERTEX
8
Layer 1
10
171.866827
20
203.274542
70
0
0
VERTEX
8
Layer 1
10
175.965666
20
200.942349
70
0
0
VERTEX
8
Layer 1
10
178.957045
20
199.584705
70
0
0
VERTEX
8
Layer 1
10
182.057150
20
198.475108
70
0
0
VERTEX
8
Layer 1
10
185.265570
20
197.613558
70
0
0
VERTEX
8
Layer 1
10
188.581890
20
197.000055
70
0
0
VERTEX
8
Layer 1
10
192.005697
20
196.634599
70
0
0
VERTEX
8
Layer 1
10
195.536577
20
196.517190
70
0
0
VERTEX
8
Layer 1
10
199.174118
20
196.647828
70
0
0
VERTEX
8
Layer 1
10
202.917906
20
197.026513
70
0
0
VERTEX
8
Layer 1
10
206.507422
20
197.606392
70
0
0
VERTEX
8
Layer 1
10
210.149855
20
198.358250
70
0
0
VERTEX
8
Layer 1
10
213.236662
20
199.149796
70
0
0
VERTEX
8
Layer 1
10
215.159302
20
199.848737
70
0
0
VERTEX
8
Layer 1
10
216.080935
20
200.512952
70
0
0
VERTEX
8
Layer 1
10
216.552775
20
201.325995
70
0
0
VERTEX
8
Layer 1
10
216.548366
20
202.185340
70
0
0
VERTEX
8
Layer 1
10
216.041247
20
202.988461
70
0
0
VERTEX
8
Layer 1
10
215.343959
20
203.386439
70
0
0
VERTEX
8
Layer 1
10
214.140656
20
203.526448
70
0
0
VERTEX
8
Layer 1
10
212.256050
20
203.415102
70
0
0
VERTEX
8
Layer 1
10
209.514854
20
203.059017
70
0
0
VERTEX
8
Layer 1
10
201.154016
20
202.106516
70
0
0
VERTEX
8
Layer 1
10
197.478303
20
201.912833
70
0
0
VERTEX
8
Layer 1
10
193.966715
20
201.972571
70
0
0
VERTEX
8
Layer 1
10
190.581631
20
202.294412
70
0
0
VERTEX
8
Layer 1
10
187.285430
20
202.887038
70
0
0
VERTEX
8
Layer 1
10
184.040493
20
203.759130
70
0
0
VERTEX
8
Layer 1
10
180.809198
20
204.919370
70
0
0
VERTEX
8
Layer 1
10
177.553925
20
206.376439
70
0
0
VERTEX
8
Layer 1
10
174.237054
20
208.139020
70
0
0
VERTEX
8
Layer 1
10
171.941241
20
209.297124
70
0
0
VERTEX
8
Layer 1
10
170.210975
20
209.863222
70
0
0
VERTEX
8
Layer 1
10
169.003262
20
209.840623
70
0
0
VERTEX
8
Layer 1
10
168.581926
20
209.609594
70
0
0
VERTEX
8
Layer 1
10
168.275106
20
209.232632
70
0
0
VERTEX
8
Layer 1
10
168.275106
20
209.232632
70
0
0
SEQEND
8
Layer 1
0
POLYLINE
8
Layer 1
62
7
70
0
10
0.000000
20
0.000000
66
1
0
VERTEX
8
Layer 1
10
135.290363
20
194.204289
70
0
0
VERTEX
8
Layer 1
10
134.426057
20
193.348802
70
0
0
VERTEX
8
Layer 1
10
134.258487
20
193.083116
70
0
0
VERTEX
8
Layer 1
10
134.302585
20
192.969566
70
0
0
VERTEX
8
Layer 1
10
134.962941
20
193.282656
70
0
0
VERTEX
8
Layer 1
10
135.881266
20
193.992622
70
0
0
VERTEX
8
Layer 1
10
136.654070
20
194.755505
70
0
0
VERTEX
8
Layer 1
10
136.877864
20
195.227345
70
0
0
VERTEX
8
Layer 1
10
136.335468
20
194.980401
70
0
0
VERTEX
8
Layer 1
10
135.290363
20
194.204289
70
0
0
VERTEX
8
Layer 1
10
135.290363
20
194.204289
70
0
0
SEQEND
8
Layer 1
0
POLYLINE
8
Layer 1
62
7
70
0
10
0.000000
20
0.000000
66
1
0
VERTEX
8
Layer 1
10
433.564162
20
195.121512
70
0
0
VERTEX
8
Layer 1
10
433.907569
20
194.636442
70
0
0
VERTEX
8
Layer 1
10
434.697461
20
193.913247
70
0
0
VERTEX
8
Layer 1
10
435.573343
20
193.256198
70
0
0
VERTEX
8
Layer 1
10
436.174719
20
192.969566
70
0
0
VERTEX
8
Layer 1
10
436.240865
20
193.154774
70
0
0
VERTEX
8
Layer 1
10
436.068886
20
193.604566
70
0
0
VERTEX
8
Layer 1
10
435.513812
20
194.223582
70
0
0
VERTEX
8
Layer 1
10
434.671003
20
194.826060
70
0
0
VERTEX
8
Layer 1
10
433.900955
20
195.197028
70
0
0
VERTEX
8
Layer 1
10
433.655870
20
195.228517
70
0
0
VERTEX
8
Layer 1
10
433.564162
20
195.121512
70
0
0
VERTEX
8
Layer 1
10
433.564162
20
195.121512
70
0
0
SEQEND
8
Layer 1
0
POLYLINE
8
Layer 1
62
7
70
0
10
0.000000
20
0.000000
66
1
0
VERTEX
8
Layer 1
10
126.294524
20
191.205676
70
0
0
VERTEX
8
Layer 1
10
124.016350
20
189.673297
70
0
0
VERTEX
8
Layer 1
10
121.668722
20
187.677896
70
0
0
VERTEX
8
Layer 1
10
120.028856
20
185.947079
70
0
0
VERTEX
8
Layer 1
10
119.717212
20
185.408266
70
0
0
VERTEX
8
Layer 1
10
119.730967
20
185.260299
70
0
0
VERTEX
8
Layer 1
10
119.873964
20
185.208450
70
0
0
VERTEX
8
Layer 1
10
120.770792
20
185.589340
70
0
0
VERTEX
8
Layer 1
10
122.259626
20
186.588694
70
0
0
VERTEX
8
Layer 1
10
124.046115
20
187.991538
70
0
0
VERTEX
8
Layer 1
10
125.835913
20
189.582897
70
0
0
VERTEX
8
Layer 1
10
127.247025
20
190.997316
70
0
0
VERTEX
8
Layer 1
10
127.785011
20
191.717204
70
0
0
VERTEX
8
Layer 1
10
127.730716
20
191.827034
70
0
0
VERTEX
8
Layer 1
10
127.463101
20
191.775633
70
0
0
VERTEX
8
Layer 1
10
126.294524
20
191.205676
70
0
0
VERTEX
8
Layer 1
10
126.294524
20
191.205676
70
0
0
SEQEND
8
Layer 1
0
POLYLINE
8
Layer 1
62
7
70
0
10
0.000000
20
0.000000
66
1
0
VERTEX
8
Layer 1
10
442.030834
20
191.593732
70
0
0
VERTEX
8
Layer 1
10
442.695049
20
190.745962
70
0
0
VERTEX
8
Layer 1
10
444.301842
20
189.230119
70
0
0
VERTEX
8
Layer 1
10
448.028060
20
186.231506
70
0
0
VERTEX
8
Layer 1
10
449.115608
20
185.636193
70
0
0
VERTEX
8
Layer 1
10
449.690526
20
185.570047
70
0
0
VERTEX
8
Layer 1
10
449.766112
20
185.723010
70
0
0
VERTEX
8
Layer 1
10
449.689975
20
185.993381
70
0
0
VERTEX
8
Layer 1
10
449.051116
20
186.866507
70
0
0
VERTEX
8
Layer 1
10
446.052503
20
189.313904
70
0
0
VERTEX
8
Layer 1
10
442.842223
20
191.523176
70
0
0
VERTEX
8
Layer 1
10
442.264549
20
191.730433
70
0
0
VERTEX
8
Layer 1
10
442.030834
20
191.593732
70
0
0
VERTEX
8
Layer 1
10
442.030834
20
191.593732
70
0
0
SEQEND
8
Layer 1
0
POLYLINE
8
Layer 1
62
7
70
0
10
0.000000
20
0.000000
66
1
0
VERTEX
8
Layer 1
10
276.084063
20
188.348174
70
0
0
VERTEX
8
Layer 1
10
271.642367
20
187.719030
70
0
0
VERTEX
8
Layer 1
10
267.425568
20
186.787683
70
0
0
VERTEX
8
Layer 1
10
263.443586
20
185.559505
70
0
0
VERTEX
8
Layer 1
10
259.706344
20
184.039873
70
0
0
VERTEX
8
Layer 1
10
256.223764
20
182.234159
70
0
0
VERTEX
8
Layer 1
10
253.005767
20
180.147739
70
0
0
VERTEX
8
Layer 1
10
250.062276
20
177.785987
70
0
0
VERTEX
8
Layer 1
10
247.403211
20
175.154277
70
0
0
VERTEX
8
Layer 1
10
245.557328
20
172.977191
70
0
0
VERTEX
8
Layer 1
10
243.804876
20
170.644300
70
0
0
VERTEX
8
Layer 1
10
242.148335
20
168.162684
70
0
0
VERTEX
8
Layer 1
10
240.590186
20
165.539423
70
0
0
VERTEX
8
Layer 1
10
237.778987
20
159.896284
70
0
0
VERTEX
8
Layer 1
10
235.391120
20
153.771520
70
0
0
VERTEX
8
Layer 1
10
233.446432
20
147.221770
70
0
0
VERTEX
8
Layer 1
10
231.964764
20
140.303669
70
0
0
VERTEX
8
Layer 1
10
230.965961
20
133.073856
70
0
0
VERTEX
8
Layer 1
10
230.469867
20
125.588968
70
0
0
VERTEX
8
Layer 1
10
230.427768
20
121.704810
70
0
0
VERTEX
8
Layer 1
10
230.539872
20
117.962762
70
0
0
VERTEX
8
Layer 1
10
230.806591
20
114.361894
70
0
0
VERTEX
8
Layer 1
10
231.228340
20
110.901276
70
0
0
VERTEX
8
Layer 1
10
231.805532
20
107.579978
70
0
0
VERTEX
8
Layer 1
10
232.538580
20
104.397070
70
0
0
VERTEX
8
Layer 1
10
233.427897
20
101.351621
70
0
0
VERTEX
8
Layer 1
10
234.473898
20
98.442701
70
0
0
VERTEX
8
Layer 1
10
235.676995
20
95.669380
70
0
0
VERTEX
8
Layer 1
10
237.037602
20
93.030728
70
0
0
VERTEX
8
Layer 1
10
238.556132
20
90.525815
70
0
0
VERTEX
8
Layer 1
10
240.232999
20
88.153710
70
0
0
VERTEX
8
Layer 1
10
242.068615
20
85.913484
70
0
0
VERTEX
8
Layer 1
10
244.063396
20
83.804205
70
0
0
VERTEX
8
Layer 1
10
246.217753
20
81.824945
70
0
0
VERTEX
8
Layer 1
10
248.532101
20
79.974773
70
0
0
VERTEX
8
Layer 1
10
252.324327
20
77.503880
70
0
0
VERTEX
8
Layer 1
10
256.585361
20
75.388107
70
0
0
VERTEX
8
Layer 1
10
261.277998
20
73.635311
70
0
0
VERTEX
8
Layer 1
10
266.365029
20
72.253344
70
0
0
VERTEX
8
Layer 1
10
271.809248
20
71.250063
70
0
0
VERTEX
8
Layer 1
10
277.573447
20
70.633321
70
0
0
VERTEX
8
Layer 1
10
283.620421
20
70.410975
70
0
0
VERTEX
8
Layer 1
10
289.912960
20
70.590878
70
0
0
VERTEX
8
Layer 1
10
295.828744
20
71.119080
70
0
0
VERTEX
8
Layer 1
10
301.269105
20
71.972224
70
0
0
VERTEX
8
Layer 1
10
306.267941
20
73.164366
70
0
0
VERTEX
8
Layer 1
10
310.859154
20
74.709561
70
0
0
VERTEX
8
Layer 1
10
315.076643
20
76.621866
70
0
0
VERTEX
8
Layer 1
10
318.954307
20
78.915336
70
0
0
VERTEX
8
Layer 1
10
322.526046
20
81.604028
70
0
0
VERTEX
8
Layer 1
10
325.825761
20
84.701998
70
0
0
VERTEX
8
Layer 1
10
327.997895
20
87.166069
70
0
0
VERTEX
8
Layer 1
10
329.967044
20
89.829406
70
0
0
VERTEX
8
Layer 1
10
331.738582
20
92.702755
70
0
0
VERTEX
8
Layer 1
10
333.317884
20
95.796866
70
0
0
VERTEX
8
Layer 1
10
334.710323
20
99.122488
70
0
0
VERTEX
8
Layer 1
10
335.921275
20
102.690369
70
0
0
VERTEX
8
Layer 1
10
336.956113
20
106.511257
70
0
0
VERTEX
8
Layer 1
10
337.820213
20
110.595903
70
0
0
VERTEX
8
Layer 1
10
338.121177
20
112.851271
70
0
0
VERTEX
8
Layer 1
10
338.336151
20
115.780086
70
0
0
VERTEX
8
Layer 1
10
338.508130
20
122.859348
70
0
0
VERTEX
8
Layer 1
10
338.336151
20
130.236267
70
0
0
VERTEX
8
Layer 1
10
337.820213
20
136.313419
70
0
0
VERTEX
8
Layer 1
10
337.088750
20
140.640462
70
0
0
VERTEX
8
Layer 1
10
336.069552
20
145.318078
70
0
0
VERTEX
8
Layer 1
10
334.858531
20
149.956006
70
0
0
VERTEX
8
Layer 1
10
333.551599
20
154.163986
70
0
0
VERTEX
8
Layer 1
10
332.037961
20
158.040685
70
0
0
VERTEX
8
Layer 1
10
330.067916
20
162.344026
70
0
0
VERTEX
8
Layer 1
10
327.925892
20
166.482002
70
0
0
VERTEX
8
Layer 1
10
325.896316
20
169.862607
70
0
0
VERTEX
8
Layer 1
10
323.564123
20
172.942249
70
0
0
VERTEX
8
Layer 1
10
320.679612
20
176.111187
70
0
0
VERTEX
8
Layer 1
10
317.616506
20
178.995699
70
0
0
VERTEX
8
Layer 1
10
314.748532
20
181.222059
70
0
0
VERTEX
8
Layer 1
10
312.605267
20
182.525201
70
0
0
VERTEX
8
Layer 1
10
310.242895
20
183.729538
70
0
0
VERTEX
8
Layer 1
10
307.690353
20
184.825562
70
0
0
VERTEX
8
Layer 1
10
304.976581
20
185.803763
70
0
0
VERTEX
8
Layer 1
10
302.130517
20
186.654633
70
0
0
VERTEX
8
Layer 1
10
299.181100
20
187.368664
70
0
0
VERTEX
8
Layer 1
10
296.157269
20
187.936347
70
0
0
VERTEX
8
Layer 1
10
293.087962
20
188.348174
70
0
0
VERTEX
8
Layer 1
10
289.354579
20
188.601182
70
0
0
VERTEX
8
Layer 1
10
284.652158
20
188.678904
70
0
0
VERTEX
8
Layer 1
10
279.916665
20
188.591260
70
0
0
VERTEX
8
Layer 1
10
276.084063
20
188.348174
70
0
0
VERTEX
8
Layer 1
10
276.084063
20
188.348174
70
0
0
SEQEND
8
Layer 1
0
POLYLINE
8
Layer 1
62
7
70
0
10
0.000000
20
0.000000
66
1
0
VERTEX
8
Layer 1
10
294.746019
20
185.914006
70
0
0
VERTEX
8
Layer 1
10
300.278019
20
184.814331
70
0
0
VERTEX
8
Layer 1
10
305.611581
20
183.175567
70
0
0
VERTEX
8
Layer 1
10
308.108864
20
182.188133
70
0
0
VERTEX
8
Layer 1
10
310.442435
20
181.106855
70
0
0
VERTEX
8
Layer 1
10
312.574262
20
179.945374
70
0
0
VERTEX
8
Layer 1
10
314.466309
20
178.717335
70
0
0
VERTEX
8
Layer 1
10
316.420214
20
177.192052
70
0
0
VERTEX
8
Layer 1
10
318.310349
20
175.466265
70
0
0
VERTEX
8
Layer 1
10
320.132479
20
173.548655
70
0
0
VERTEX
8
Layer 1
10
321.882364
20
171.447903
70
0
0
VERTEX
8
Layer 1
10
323.555769
20
169.172692
70
0
0
VERTEX
8
Layer 1
10
325.148455
20
166.731702
70
0
0
VERTEX
8
Layer 1
10
328.074721
20
161.387116
70
0
0
VERTEX
8
Layer 1
10
330.627262
20
155.483596
70
0
0
VERTEX
8
Layer 1
10
332.772180
20
149.090597
70
0
0
VERTEX
8
Layer 1
10
334.475574
20
142.277572
70
0
0
VERTEX
8
Layer 1
10
335.703545
20
135.113974
70
0
0
VERTEX
8
Layer 1
10
336.180346
20
129.489370
70
0
0
VERTEX
8
Layer 1
10
336.342955
20
122.925494
70
0
0
VERTEX
8
Layer 1
10
336.194678
20
116.599744
70
0
0
VERTEX
8
Layer 1
10
335.738823
20
111.689515
70
0
0
VERTEX
8
Layer 1
10
335.149987
20
108.630888
70
0
0
VERTEX
8
Layer 1
10
334.421417
20
105.635514
70
0
0
VERTEX
8
Layer 1
10
333.562210
20
102.726955
70
0
0
VERTEX
8
Layer 1
10
332.581460
20
99.928778
70
0
0
VERTEX
8
Layer 1
10
331.488261
20
97.264546
70
0
0
VERTEX
8
Layer 1
10
330.291710
20
94.757824
70
0
0
VERTEX
8
Layer 1
10
329.000901
20
92.432177
70
0
0
VERTEX
8
Layer 1
10
327.624929
20
90.311168
70
0
0
VERTEX
8
Layer 1
10
324.763913
20
86.754036
70
0
0
VERTEX
8
Layer 1
10
321.498167
20
83.596259
70
0
0
VERTEX
8
Layer 1
10
317.826451
20
80.837012
70
0
0
VERTEX
8
Layer 1
10
313.747524
20
78.475466
70
0
0
VERTEX
8
Layer 1
10
309.260147
20
76.510796
70
0
0
VERTEX
8
Layer 1
10
304.363078
20
74.942174
70
0
0
VERTEX
8
Layer 1
10
299.055078
20
73.768774
70
0
0
VERTEX
8
Layer 1
10
293.334907
20
72.989768
70
0
0
VERTEX
8
Layer 1
10
288.195373
20
72.745580
70
0
0
VERTEX
8
Layer 1
10
281.825525
20
72.782511
70
0
0
VERTEX
8
Layer 1
10
275.654115
20
73.064182
70
0
0
VERTEX
8
Layer 1
10
271.109893
20
73.554213
70
0
0
VERTEX
8
Layer 1
10
266.461492
20
74.474743
70
0
0
VERTEX
8
Layer 1
10
262.550617
20
75.520950
70
0
0
VERTEX
8
Layer 1
10
258.950628
20
76.818512
70
0
0
VERTEX
8
Layer 1
10
255.234883
20
78.493105
70
0
0
VERTEX
8
Layer 1
10
253.056401
20
79.655765
70
0
0
VERTEX
8
Layer 1
10
250.979981
20
80.946635
70
0
0
VERTEX
8
Layer 1
10
249.006810
20
82.364111
70
0
0
VERTEX
8
Layer 1
10
247.138077
20
83.906594
70
0
0
VERTEX
8
Layer 1
10
245.374970
20
85.572479
70
0
0
VERTEX
8
Layer 1
10
243.718679
20
87.360166
70
0
0
VERTEX
8
Layer 1
10
242.170392
20
89.268053
70
0
0
VERTEX
8
Layer 1
10
240.731297
20
91.294537
70
0
0
VERTEX
8
Layer 1
10
239.402584
20
93.438016
70
0
0
VERTEX
8
Layer 1
10
238.185439
20
95.696889
70
0
0
VERTEX
8
Layer 1
10
236.090613
20
100.554408
70
0
0
VERTEX
8
Layer 1
10
234.456328
20
105.854277
70
0
0
VERTEX
8
Layer 1
10
233.292091
20
111.583681
70
0
0
VERTEX
8
Layer 1
10
232.836236
20
116.619587
70
0
0
VERTEX
8
Layer 1
10
232.687959
20
123.004869
70
0
0
VERTEX
8
Layer 1
10
232.850568
20
129.562130
70
0
0
VERTEX
8
Layer 1
10
233.327369
20
135.113974
70
0
0
VERTEX
8
Layer 1
10
234.354835
20
141.312463
70
0
0
VERTEX
8
Layer 1
10
235.732874
20
147.236859
70
0
0
VERTEX
8
Layer 1
10
237.444950
20
152.851197
70
0
0
VERTEX
8
Layer 1
10
239.474526
20
158.119509
70
0
0
VERTEX
8
Layer 1
10
241.805066
20
163.005829
70
0
0
VERTEX
8
Layer 1
10
244.420032
20
167.474190
70
0
0
VERTEX
8
Layer 1
10
247.302890
20
171.488624
70
0
0
VERTEX
8
Layer 1
10
250.437102
20
175.013166
70
0
0
VERTEX
8
Layer 1
10
252.838197
20
177.202319
70
0
0
VERTEX
8
Layer 1
10
255.424501
20
179.145078
70
0
0
VERTEX
8
Layer 1
10
258.215857
20
180.849712
70
0
0
VERTEX
8
Layer 1
10
261.232109
20
182.324490
70
0
0
VERTEX
8
Layer 1
10
264.493101
20
183.577679
70
0
0
VERTEX
8
Layer 1
10
268.018676
20
184.617547
70
0
0
VERTEX
8
Layer 1
10
271.828678
20
185.452363
70
0
0
VERTEX
8
Layer 1
10
275.942952
20
186.090395
70
0
0
VERTEX
8
Layer 1
10
280.111244
20
186.390256
70
0
0
VERTEX
8
Layer 1
10
285.265110
20
186.451992
70
0
0
VERTEX
8
Layer 1
10
290.458664
20
186.288833
70
0
0
VERTEX
8
Layer 1
10
294.746019
20
185.914006
70
0
0
VERTEX
8
Layer 1
10
294.746019
20
185.914006
70
0
0
SEQEND
8
Layer 1
0
POLYLINE
8
Layer 1
62
7
70
0
10
0.000000
20
0.000000
66
1
0
VERTEX
8
Layer 1
10
260.420720
20
156.562876
70
0
0
VERTEX
8
Layer 1
10
260.075728
20
156.140714
70
0
0
VERTEX
8
Layer 1
10
259.949430
20
155.712351
70
0
0
VERTEX
8
Layer 1
10
260.095158
20
155.225283
70
0
0
VERTEX
8
Layer 1
10
260.566241
20
154.627007
70
0
0
VERTEX
8
Layer 1
10
262.697791
20
152.886819
70
0
0
VERTEX
8
Layer 1
10
266.770724
20
150.071761
70
0
0
VERTEX
8
Layer 1
10
276.710244
20
143.157312
70
0
0
VERTEX
8
Layer 1
10
279.619560
20
140.913865
70
0
0
VERTEX
8
Layer 1
10
281.093510
20
139.523699
70
0
0
VERTEX
8
Layer 1
10
281.577064
20
138.829374
70
0
0
VERTEX
8
Layer 1
10
281.952304
20
138.023841
70
0
0
VERTEX
8
Layer 1
10
282.233287
20
136.959513
70
0
0
VERTEX
8
Layer 1
10
282.434067
20
135.488801
70
0
0
VERTEX
8
Layer 1
10
282.651246
20
130.737873
70
0
0
VERTEX
8
Layer 1
10
282.716289
20
122.590355
70
0
0
VERTEX
8
Layer 1
10
282.650143
20
112.108439
70
0
0
VERTEX
8
Layer 1
10
282.512891
20
109.428980
70
0
0
VERTEX
8
Layer 1
10
282.292956
20
108.055901
70
0
0
VERTEX
8
Layer 1
10
281.639214
20
106.527932
70
0
0
VERTEX
8
Layer 1
10
280.581982
20
104.960274
70
0
0
VERTEX
8
Layer 1
10
279.127875
20
103.352930
70
0
0
VERTEX
8
Layer 1
10
277.283508
20
101.705897
70
0
0
VERTEX
8
Layer 1
10
273.662573
20
99.133925
70
0
0
VERTEX
8
Layer 1
10
271.822132
20
98.088131
70
0
0
VERTEX
8
Layer 1
10
269.932496
20
97.190339
70
0
0
VERTEX
8
Layer 1
10
267.971754
20
96.431453
70
0
0
VERTEX
8
Layer 1
10
265.917993
20
95.802378
70
0
0
VERTEX
8
Layer 1
10
261.443776
20
94.897282
70
0
0
VERTEX
8
Layer 1
10
259.209148
20
94.443632
70
0
0
VERTEX
8
Layer 1
10
257.933635
20
93.860997
70
0
0
VERTEX
8
Layer 1
10
257.645211
20
93.514075
70
0
0
VERTEX
8
Layer 1
10
257.584164
20
93.126226
70
0
0
VERTEX
8
Layer 1
10
257.746359
20
92.694555
70
0
0
VERTEX
8
Layer 1
10
258.127663
20
92.216169
70
0
0
VERTEX
8
Layer 1
10
258.972538
20
91.864563
70
0
0
VERTEX
8
Layer 1
10
260.408593
20
91.771338
70
0
0
VERTEX
8
Layer 1
10
262.296093
20
91.910451
70
0
0
VERTEX
8
Layer 1
10
264.495305
20
92.255857
70
0
0
VERTEX
8
Layer 1
10
269.269935
20
93.461365
70
0
0
VERTEX
8
Layer 1
10
271.565886
20
94.269379
70
0
0
VERTEX
8
Layer 1
10
273.614617
20
95.179504
70
0
0
VERTEX
8
Layer 1
10
277.596598
20
97.538707
70
0
0
VERTEX
8
Layer 1
10
282.716289
20
101.247286
70
0
0
VERTEX
8
Layer 1
10
283.818720
20
102.001349
70
0
0
VERTEX
8
Layer 1
10
284.550735
20
102.305620
70
0
0
VERTEX
8
Layer 1
10
285.472367
20
101.842599
70
0
0
VERTEX
8
Layer 1
10
287.055459
20
100.718119
70
0
0
VERTEX
8
Layer 1
10
289.735951
20
98.719962
70
0
0
VERTEX
8
Layer 1
10
292.320119
20
97.002926
70
0
0
VERTEX
8
Layer 1
10
294.837314
20
95.553780
70
0
0
VERTEX
8
Layer 1
10
297.316889
20
94.359296
70
0
0
VERTEX
8
Layer 1
10
299.788195
20
93.406244
70
0
0
VERTEX
8
Layer 1
10
302.280585
20
92.681395
70
0
0
VERTEX
8
Layer 1
10
304.823412
20
92.171521
70
0
0
VERTEX
8
Layer 1
10
307.446027
20
91.863391
70
0
0
VERTEX
8
Layer 1
10
309.915473
20
91.788426
70
0
0
VERTEX
8
Layer 1
10
310.482123
20
91.967571
70
0
0
VERTEX
8
Layer 1
10
310.903251
20
92.322003
70
0
0
VERTEX
8
Layer 1
10
311.249415
20
92.928891
70
0
0
VERTEX
8
Layer 1
10
311.291307
20
93.525858
70
0
0
VERTEX
8
Layer 1
10
311.042158
20
94.023605
70
0
0
VERTEX
8
Layer 1
10
310.515196
20
94.332837
70
0
0
VERTEX
8
Layer 1
10
306.705193
20
95.073671
70
0
0
VERTEX
8
Layer 1
10
302.491150
20
95.994201
70
0
0
VERTEX
8
Layer 1
10
298.816195
20
97.304992
70
0
0
VERTEX
8
Layer 1
10
295.399210
20
99.131720
70
0
0
VERTEX
8
Layer 1
10
291.959073
20
101.600064
70
0
0
VERTEX
8
Layer 1
10
289.983516
20
103.358993
70
0
0
VERTEX
8
Layer 1
10
288.484209
20
105.114615
70
0
0
VERTEX
8
Layer 1
10
287.434695
20
106.903310
70
0
0
VERTEX
8
Layer 1
10
286.808514
20
108.761457
70
0
0
VERTEX
8
Layer 1
10
286.635432
20
110.393607
70
0
0
VERTEX
8
Layer 1
10
286.535111
20
113.457815
70
0
0
VERTEX
8
Layer 1
10
286.526292
20
124.001467
70
0
0
VERTEX
8
Layer 1
10
286.724729
20
135.674009
70
0
0
VERTEX
8
Layer 1
10
286.957893
20
137.658937
70
0
0
VERTEX
8
Layer 1
10
287.372959
20
138.641754
70
0
0
VERTEX
8
Layer 1
10
288.472634
20
140.017588
70
0
0
VERTEX
8
Layer 1
10
290.667023
20
141.896131
70
0
0
VERTEX
8
Layer 1
10
294.521674
20
144.713945
70
0
0
VERTEX
8
Layer 1
10
300.602134
20
148.907594
70
0
0
VERTEX
8
Layer 1
10
307.225541
20
153.608361
70
0
0
VERTEX
8
Layer 1
10
308.619014
20
154.781347
70
0
0
VERTEX
8
Layer 1
10
309.033528
20
155.398709
70
0
0
VERTEX
8
Layer 1
10
308.921080
20
156.033709
70
0
0
VERTEX
8
Layer 1
10
308.610194
20
156.536418
70
0
0
VERTEX
8
Layer 1
10
308.140559
20
156.867147
70
0
0
VERTEX
8
Layer 1
10
307.551860
20
156.986210
70
0
0
VERTEX
8
Layer 1
10
304.672310
20
155.469265
70
0
0
VERTEX
8
Layer 1
10
298.697133
20
151.835651
70
0
0
VERTEX
8
Layer 1
10
288.149070
20
145.278390
70
0
0
VERTEX
8
Layer 1
10
286.255094
20
144.319826
70
0
0
VERTEX
8
Layer 1
10
285.115180
20
144.039257
70
0
0
VERTEX
8
Layer 1
10
284.471842
20
143.992680
70
0
0
VERTEX
8
Layer 1
10
283.778482
20
144.083355
70
0
0
VERTEX
8
Layer 1
10
281.724101
20
144.947661
70
0
0
VERTEX
8
Layer 1
10
277.916855
20
147.174572
70
0
0
VERTEX
8
Layer 1
10
271.321560
20
151.306484
70
0
0
VERTEX
8
Layer 1
10
264.759889
20
155.323744
70
0
0
VERTEX
8
Layer 1
10
261.584887
20
156.986210
70
0
0
VERTEX
8
Layer 1
10
260.949887
20
156.867147
70
0
0
VERTEX
8
Layer 1
10
260.420720
20
156.562876
70
0
0
VERTEX
8
Layer 1
10
260.420720
20
156.562876
70
0
0
SEQEND
8
Layer 1
0
POLYLINE
8
Layer 1
62
7
70
0
10
0.000000
20
0.000000
66
1
0
VERTEX
8
Layer 1
10
429.471937
20
180.093169
70
0
0
VERTEX
8
Layer 1
10
432.713085
20
176.040632
70
0
0
VERTEX
8
Layer 1
10
436.351108
20
172.014553
70
0
0
VERTEX
8
Layer 1
10
437.122259
20
171.402703
70
0
0
VERTEX
8
Layer 1
10
437.329034
20
171.353507
70
0
0
VERTEX
8
Layer 1
10
437.413852
20
171.458927
70
0
0
VERTEX
8
Layer 1
10
437.209351
20
172.084006
70
0
0
VERTEX
8
Layer 1
10
436.492219
20
173.178720
70
0
0
VERTEX
8
Layer 1
10
433.109960
20
177.173931
70
0
0
VERTEX
8
Layer 1
10
431.377490
20
178.983021
70
0
0
VERTEX
8
Layer 1
10
430.071660
20
180.163725
70
0
0
VERTEX
8
Layer 1
10
428.801659
20
181.151503
70
0
0
VERTEX
8
Layer 1
10
429.471937
20
180.093169
70
0
0
VERTEX
8
Layer 1
10
429.471937
20
180.093169
70
0
0
SEQEND
8
Layer 1
0
POLYLINE
8
Layer 1
62
7
70
0
10
0.000000
20
0.000000
66
1
0
VERTEX
8
Layer 1
10
136.630919
20
177.729556
70
0
0
VERTEX
8
Layer 1
10
134.683475
20
175.599659
70
0
0
VERTEX
8
Layer 1
10
133.142827
20
173.707887
70
0
0
VERTEX
8
Layer 1
10
132.190878
20
172.292365
70
0
0
VERTEX
8
Layer 1
10
131.992509
20
171.837613
70
0
0
VERTEX
8
Layer 1
10
132.009528
20
171.591219
70
0
0
VERTEX
8
Layer 1
10
132.835800
20
172.211888
70
0
0
VERTEX
8
Layer 1
10
134.571578
20
173.990110
70
0
0
VERTEX
8
Layer 1
10
138.535921
20
178.611501
70
0
0
VERTEX
8
Layer 1
10
139.536928
20
180.027023
70
0
0
VERTEX
8
Layer 1
10
139.770644
20
180.622336
70
0
0
VERTEX
8
Layer 1
10
138.729949
20
179.771259
70
0
0
VERTEX
8
Layer 1
10
136.630919
20
177.729556
70
0
0
VERTEX
8
Layer 1
10
136.630919
20
177.729556
70
0
0
SEQEND
8
Layer 1
0
POLYLINE
8
Layer 1
62
7
70
0
10
0.000000
20
0.000000
66
1
0
VERTEX
8
Layer 1
10
455.789176
20
175.754000
70
0
0
VERTEX
8
Layer 1
10
456.937358
20
174.391946
70
0
0
VERTEX
8
Layer 1
10
459.497755
20
171.842574
70
0
0
VERTEX
8
Layer 1
10
462.144141
20
169.379191
70
0
0
VERTEX
8
Layer 1
10
463.550292
20
168.275106
70
0
0
VERTEX
8
Layer 1
10
463.720618
20
168.328023
70
0
0
VERTEX
8
Layer 1
10
463.755344
20
168.486773
70
0
0
VERTEX
8
Layer 1
10
463.418000
20
169.121773
70
0
0
VERTEX
8
Layer 1
10
461.116124
20
171.661775
70
0
0
VERTEX
8
Layer 1
10
459.316405
20
173.342982
70
0
0
VERTEX
8
Layer 1
10
457.592754
20
174.766221
70
0
0
VERTEX
8
Layer 1
10
456.299050
20
175.660293
70
0
0
VERTEX
8
Layer 1
10
455.924017
20
175.824142
70
0
0
VERTEX
8
Layer 1
10
455.789176
20
175.754000
70
0
0
VERTEX
8
Layer 1
10
455.789176
20
175.754000
70
0
0
SEQEND
8
Layer 1
0
POLYLINE
8
Layer 1
62
7
70
0
10
0.000000
20
0.000000
66
1
0
VERTEX
8
Layer 1
10
111.971737
20
174.907332
70
0
0
VERTEX
8
Layer 1
10
109.459848
20
172.784601
70
0
0
VERTEX
8
Layer 1
10
107.275380
20
170.625489
70
0
0
VERTEX
8
Layer 1
10
105.904507
20
168.949243
70
0
0
VERTEX
8
Layer 1
10
105.676097
20
168.454458
70
0
0
VERTEX
8
Layer 1
10
105.833400
20
168.275106
70
0
0
VERTEX
8
Layer 1
10
107.248371
20
169.364859
70
0
0
VERTEX
8
Layer 1
10
109.824201
20
171.780837
70
0
0
VERTEX
8
Layer 1
10
112.247896
20
174.243118
70
0
0
VERTEX
8
Layer 1
10
113.206460
20
175.471777
70
0
0
VERTEX
8
Layer 1
10
112.761078
20
175.401222
70
0
0
VERTEX
8
Layer 1
10
111.971737
20
174.907332
70
0
0
VERTEX
8
Layer 1
10
111.971737
20
174.907332
70
0
0
SEQEND
8
Layer 1
0
POLYLINE
8
Layer 1
62
7
70
0
10
0.000000
20
0.000000
66
1
0
VERTEX
8
Layer 1
10
406.047478
20
175.436499
70
0
0
VERTEX
8
Layer 1
10
406.643342
20
174.407931
70
0
0
VERTEX
8
Layer 1
10
408.089181
20
172.499623
70
0
0
VERTEX
8
Layer 1
10
409.872363
20
170.366418
70
0
0
VERTEX
8
Layer 1
10
411.480259
20
168.663162
70
0
0
VERTEX
8
Layer 1
10
412.357794
20
167.907996
70
0
0
VERTEX
8
Layer 1
10
412.706163
20
167.834134
70
0
0
VERTEX
8
Layer 1
10
412.512135
20
168.395271
70
0
0
VERTEX
8
Layer 1
10
411.762482
20
169.545107
70
0
0
VERTEX
8
Layer 1
10
410.234512
20
171.398294
70
0
0
VERTEX
8
Layer 1
10
408.349354
20
173.443304
70
0
0
VERTEX
8
Layer 1
10
406.742010
20
175.012063
70
0
0
VERTEX
8
Layer 1
10
406.240955
20
175.409076
70
0
0
VERTEX
8
Layer 1
10
406.047478
20
175.436499
70
0
0
VERTEX
8
Layer 1
10
406.047478
20
175.436499
70
0
0
SEQEND
8
Layer 1
0
POLYLINE
8
Layer 1
62
7
70
0
10
0.000000
20
0.000000
66
1
0
VERTEX
8
Layer 1
10
161.642880
20
174.342888
70
0
0
VERTEX
8
Layer 1
10
158.159197
20
170.065454
70
0
0
VERTEX
8
Layer 1
10
156.633432
20
167.851772
70
0
0
VERTEX
8
Layer 1
10
156.696960
20
167.710110
70
0
0
VERTEX
8
Layer 1
10
156.883684
20
167.756963
70
0
0
VERTEX
8
Layer 1
10
157.603571
20
168.389759
70
0
0
VERTEX
8
Layer 1
10
160.267045
20
171.626497
70
0
0
VERTEX
8
Layer 1
10
162.736491
20
174.907332
70
0
0
VERTEX
8
Layer 1
10
162.962490
20
175.305310
70
0
0
VERTEX
8
Layer 1
10
162.745311
20
175.286569
70
0
0
VERTEX
8
Layer 1
10
161.642880
20
174.342888
70
0
0
VERTEX
8
Layer 1
10
161.642880
20
174.342888
70
0
0
SEQEND
8
Layer 1
0
POLYLINE
8
Layer 1
62
7
70
0
10
0.000000
20
0.000000
66
1
0
VERTEX
8
Layer 1
10
178.999557
20
171.308997
70
0
0
VERTEX
8
Layer 1
10
177.668923
20
169.676296
70
0
0
VERTEX
8
Layer 1
10
176.397819
20
167.878231
70
0
0
VERTEX
8
Layer 1
10
175.378071
20
166.199228
70
0
0
VERTEX
8
Layer 1
10
174.801499
20
164.923715
70
0
0
VERTEX
8
Layer 1
10
174.801775
20
164.725071
70
0
0
VERTEX
8
Layer 1
10
174.995527
20
164.796384
70
0
0
VERTEX
8
Layer 1
10
175.851014
20
165.624861
70
0
0
VERTEX
8
Layer 1
10
178.646779
20
169.157051
70
0
0
VERTEX
8
Layer 1
10
180.324128
20
171.641380
70
0
0
VERTEX
8
Layer 1
10
180.953065
20
172.918546
70
0
0
VERTEX
8
Layer 1
10
180.869212
20
173.062069
70
0
0
VERTEX
8
Layer 1
10
180.517054
20
172.852952
70
0
0
VERTEX
8
Layer 1
10
178.999557
20
171.308997
70
0
0
VERTEX
8
Layer 1
10
178.999557
20
171.308997
70
0
0
SEQEND
8
Layer 1
0
POLYLINE
8
Layer 1
62
7
70
0
10
0.000000
20
0.000000
66
1
0
VERTEX
8
Layer 1
10
388.408578
20
172.967053
70
0
0
VERTEX
8
Layer 1
10
388.668269
20
172.252816
70
0
0
VERTEX
8
Layer 1
10
389.355015
20
171.056540
70
0
0
VERTEX
8
Layer 1
10
391.455698
20
167.975245
70
0
0
VERTEX
8
Layer 1
10
393.602683
20
165.237908
70
0
0
VERTEX
8
Layer 1
10
394.347306
20
164.471580
70
0
0
VERTEX
8
Layer 1
10
394.688026
20
164.359270
70
0
0
VERTEX
8
Layer 1
10
394.484628
20
165.182786
70
0
0
VERTEX
8
Layer 1
10
393.695838
20
166.661147
70
0
0
VERTEX
8
Layer 1
10
392.450642
20
168.576070
70
0
0
VERTEX
8
Layer 1
10
390.878024
20
170.709274
70
0
0
VERTEX
8
Layer 1
10
388.968613
20
172.949414
70
0
0
VERTEX
8
Layer 1
10
388.541421
20
173.219510
70
0
0
VERTEX
8
Layer 1
10
388.408578
20
172.967053
70
0
0
VERTEX
8
Layer 1
10
388.408578
20
172.967053
70
0
0
SEQEND
8
Layer 1
0
POLYLINE
8
Layer 1
62
7
70
0
10
0.000000
20
0.000000
66
1
0
VERTEX
8
Layer 1
10
121.461465
20
165.629271
70
0
0
VERTEX
8
Layer 1
10
119.660093
20
163.701670
70
0
0
VERTEX
8
Layer 1
10
118.692158
20
162.485137
70
0
0
VERTEX
8
Layer 1
10
118.541401
20
162.175561
70
0
0
VERTEX
8
Layer 1
10
118.623807
20
162.082198
70
0
0
VERTEX
8
Layer 1
10
119.521186
20
162.595380
70
0
0
VERTEX
8
Layer 1
10
122.228758
20
165.267674
70
0
0
VERTEX
8
Layer 1
10
124.671745
20
168.204550
70
0
0
VERTEX
8
Layer 1
10
124.820022
20
168.675289
70
0
0
VERTEX
8
Layer 1
10
124.296919
20
168.372120
70
0
0
VERTEX
8
Layer 1
10
121.461465
20
165.629271
70
0
0
VERTEX
8
Layer 1
10
121.461465
20
165.629271
70
0
0
SEQEND
8
Layer 1
0
POLYLINE
8
Layer 1
62
7
70
0
10
0.000000
20
0.000000
66
1
0
VERTEX
8
Layer 1
10
200.130959
20
167.146216
70
0
0
VERTEX
8
Layer 1
10
198.803632
20
165.069236
70
0
0
VERTEX
8
Layer 1
10
198.789094
20
164.956168
70
0
0
VERTEX
8
Layer 1
10
198.895685
20
164.988207
70
0
0
VERTEX
8
Layer 1
10
199.460681
20
165.452882
70
0
0
VERTEX
8
Layer 1
10
200.224115
20
166.274744
70
0
0
VERTEX
8
Layer 1
10
200.885022
20
167.212362
70
0
0
VERTEX
8
Layer 1
10
201.301190
20
168.037532
70
0
0
VERTEX
8
Layer 1
10
201.330405
20
168.522051
70
0
0
VERTEX
8
Layer 1
10
200.902661
20
168.178092
70
0
0
VERTEX
8
Layer 1
10
200.130959
20
167.146216
70
0
0
VERTEX
8
Layer 1
10
200.130959
20
167.146216
70
0
0
SEQEND
8
Layer 1
0
POLYLINE
8
Layer 1
62
7
70
0
10
0.000000
20
0.000000
66
1
0
VERTEX
8
Layer 1
10
368.653010
20
168.204550
70
0
0
VERTEX
8
Layer 1
10
369.108314
20
167.132436
70
0
0
VERTEX
8
Layer 1
10
370.205233
20
165.210347
70
0
0
VERTEX
8
Layer 1
10
371.540277
20
163.109664
70
0
0
VERTEX
8
Layer 1
10
372.709957
20
161.501768
70
0
0
VERTEX
8
Layer 1
10
373.332693
20
160.852712
70
0
0
VERTEX
8
Layer 1
10
373.570956
20
160.813851
70
0
0
VERTEX
8
Layer 1
10
373.115652
20
162.110310
70
0
0
VERTEX
8
Layer 1
10
371.787222
20
164.478333
70
0
0
VERTEX
8
Layer 1
10
370.028844
20
167.005105
70
0
0
VERTEX
8
Layer 1
10
369.049885
20
168.067849
70
0
0
VERTEX
8
Layer 1
10
368.758843
20
168.270145
70
0
0
VERTEX
8
Layer 1
10
368.653010
20
168.204550
70
0
0
VERTEX
8
Layer 1
10
368.653010
20
168.204550
70
0
0
SEQEND
8
Layer 1
0
POLYLINE
8
Layer 1
62
7
70
0
10
0.000000
20
0.000000
66
1
0
VERTEX
8
Layer 1
10
444.500280
20
168.345662
70
0
0
VERTEX
8
Layer 1
10
445.232294
20
167.249294
70
0
0
VERTEX
8
Layer 1
10
446.916809
20
165.236805
70
0
0
VERTEX
8
Layer 1
10
448.786533
20
163.191244
70
0
0
VERTEX
8
Layer 1
10
450.074172
20
161.995658
70
0
0
VERTEX
8
Layer 1
10
450.724056
20
161.684772
70
0
0
VERTEX
8
Layer 1
10
450.823895
20
161.764974
70
0
0
VERTEX
8
Layer 1
10
450.775319
20
161.995658
70
0
0
VERTEX
8
Layer 1
10
450.237883
20
162.888627
70
0
0
VERTEX
8
Layer 1
10
449.121672
20
164.323992
70
0
0
VERTEX
8
Layer 1
10
447.640555
20
165.944566
70
0
0
VERTEX
8
Layer 1
10
446.136288
20
167.366703
70
0
0
VERTEX
8
Layer 1
10
444.969364
20
168.272901
70
0
0
VERTEX
8
Layer 1
10
444.625061
20
168.433305
70
0
0
VERTEX
8
Layer 1
10
444.500280
20
168.345662
70
0
0
VERTEX
8
Layer 1
10
444.500280
20
168.345662
70
0
0
SEQEND
8
Layer 1
0
POLYLINE
8
Layer 1
62
7
70
0
10
0.000000
20
0.000000
66
1
0
VERTEX
8
Layer 1
10
218.757638
20
165.664549
70
0
0
VERTEX
8
Layer 1
10
217.713084
20
163.960741
70
0
0
VERTEX
8
Layer 1
10
216.671838
20
161.982428
70
0
0
VERTEX
8
Layer 1
10
215.915019
20
160.301772
70
0
0
VERTEX
8
Layer 1
10
215.723747
20
159.490934
70
0
0
VERTEX
8
Layer 1
10
215.865409
20
159.402188
70
0
0
VERTEX
8
Layer 1
10
216.089754
20
159.601177
70
0
0
VERTEX
8
Layer 1
10
217.487637
20
161.748713
70
0
0
VERTEX
8
Layer 1
10
219.361770
20
165.170660
70
0
0
VERTEX
8
Layer 1
10
219.903615
20
166.481450
70
0
0
VERTEX
8
Layer 1
10
219.992361
20
167.110939
70
0
0
VERTEX
8
Layer 1
10
219.573437
20
166.744931
70
0
0
VERTEX
8
Layer 1
10
218.757638
20
165.664549
70
0
0
VERTEX
8
Layer 1
10
218.757638
20
165.664549
70
0
0
SEQEND
8
Layer 1
0
POLYLINE
8
Layer 1
62
7
70
0
10
0.000000
20
0.000000
66
1
0
VERTEX
8
Layer 1
10
349.955776
20
167.146216
70
0
0
VERTEX
8
Layer 1
10
350.144705
20
166.417854
70
0
0
VERTEX
8
Layer 1
10
350.666844
20
165.228537
70
0
0
VERTEX
8
Layer 1
10
352.284111
20
162.202915
70
0
0
VERTEX
8
Layer 1
10
353.954294
20
159.541094
70
0
0
VERTEX
8
Layer 1
10
354.542579
20
158.806531
70
0
0
VERTEX
8
Layer 1
10
354.728356
20
158.668822
70
0
0
VERTEX
8
Layer 1
10
354.824112
20
158.714822
70
0
0
VERTEX
8
Layer 1
10
354.481807
20
159.902692
70
0
0
VERTEX
8
Layer 1
10
353.461507
20
162.079442
70
0
0
VERTEX
8
Layer 1
10
352.170009
20
164.434787
70
0
0
VERTEX
8
Layer 1
10
351.014110
20
166.158438
70
0
0
VERTEX
8
Layer 1
10
350.273276
20
166.956598
70
0
0
VERTEX
8
Layer 1
10
349.955776
20
167.146216
70
0
0
VERTEX
8
Layer 1
10
349.955776
20
167.146216
70
0
0
SEQEND
8
Layer 1
0
POLYLINE
8
Layer 1
62
7
70
0
10
0.000000
20
0.000000
66
1
0
VERTEX
8
Layer 1
10
425.803046
20
159.949545
70
0
0
VERTEX
8
Layer 1
10
426.142526
20
159.192864
70
0
0
VERTEX
8
Layer 1
10
427.063676
20
157.838389
70
0
0
VERTEX
8
Layer 1
10
429.908500
20
154.225722
70
0
0
VERTEX
8
Layer 1
10
432.852543
20
150.890868
70
0
0
VERTEX
8
Layer 1
10
433.897716
20
149.883659
70
0
0
VERTEX
8
Layer 1
10
434.410829
20
149.613150
70
0
0
VERTEX
8
Layer 1
10
434.415790
20
149.920246
70
0
0
VERTEX
8
Layer 1
10
434.139631
20
150.515490
70
0
0
VERTEX
8
Layer 1
10
432.902703
20
152.360408
70
0
0
VERTEX
8
Layer 1
10
431.017546
20
154.727880
70
0
0
VERTEX
8
Layer 1
10
428.801659
20
157.197877
70
0
0
VERTEX
8
Layer 1
10
426.707040
20
159.301316
70
0
0
VERTEX
8
Layer 1
10
426.058259
20
159.851980
70
0
0
VERTEX
8
Layer 1
10
425.803046
20
159.949545
70
0
0
VERTEX
8
Layer 1
10
425.803046
20
159.949545
70
0
0
SEQEND
8
Layer 1
0
POLYLINE
8
Layer 1
62
7
70
0
10
0.000000
20
0.000000
66
1
0
VERTEX
8
Layer 1
10
139.700088
20
156.915654
70
0
0
VERTEX
8
Layer 1
10
136.141440
20
152.453013
70
0
0
VERTEX
8
Layer 1
10
135.091374
20
150.853385
70
0
0
VERTEX
8
Layer 1
10
134.831752
20
150.107039
70
0
0
VERTEX
8
Layer 1
10
135.529591
20
150.630143
70
0
0
VERTEX
8
Layer 1
10
137.027795
20
152.254575
70
0
0
VERTEX
8
Layer 1
10
140.758422
20
156.915654
70
0
0
VERTEX
8
Layer 1
10
142.010784
20
158.780968
70
0
0
VERTEX
8
Layer 1
10
142.416479
20
159.667323
70
0
0
VERTEX
8
Layer 1
10
141.560992
20
158.939718
70
0
0
VERTEX
8
Layer 1
10
139.700088
20
156.915654
70
0
0
VERTEX
8
Layer 1
10
139.700088
20
156.915654
70
0
0
SEQEND
8
Layer 1
0
POLYLINE
8
Layer 1
62
7
70
0
10
0.000000
20
0.000000
66
1
0
VERTEX
8
Layer 1
10
390.878024
20
156.668710
70
0
0
VERTEX
8
Layer 1
10
391.603975
20
155.271929
70
0
0
VERTEX
8
Layer 1
10
393.325421
20
152.532388
70
0
0
VERTEX
8
Layer 1
10
395.357753
20
149.515033
70
0
0
VERTEX
8
Layer 1
10
397.016361
20
147.284815
70
0
0
VERTEX
8
Layer 1
10
397.771527
20
146.528547
70
0
0
VERTEX
8
Layer 1
10
397.994907
20
146.438975
70
0
0
VERTEX
8
Layer 1
10
398.109973
20
146.526342
70
0
0
VERTEX
8
Layer 1
10
397.998627
20
147.185596
70
0
0
VERTEX
8
Layer 1
10
397.404417
20
148.413705
70
0
0
VERTEX
8
Layer 1
10
395.630605
20
151.142222
70
0
0
VERTEX
8
Layer 1
10
393.479762
20
154.022875
70
0
0
VERTEX
8
Layer 1
10
391.659648
20
156.162694
70
0
0
VERTEX
8
Layer 1
10
391.094790
20
156.675738
70
0
0
VERTEX
8
Layer 1
10
390.937366
20
156.744209
70
0
0
VERTEX
8
Layer 1
10
390.878024
20
156.668710
70
0
0
VERTEX
8
Layer 1
10
390.878024
20
156.668710
70
0
0
SEQEND
8
Layer 1
0
POLYLINE
8
Layer 1
62
7
70
0
10
0.000000
20
0.000000
66
1
0
VERTEX
8
Layer 1
10
157.656488
20
154.234542
70
0
0
VERTEX
8
Layer 1
10
154.618188
20
150.151136
70
0
0
VERTEX
8
Layer 1
10
153.524025
20
148.370710
70
0
0
VERTEX
8
Layer 1
10
152.929263
20
147.073148
70
0
0
VERTEX
8
Layer 1
10
152.792562
20
146.460196
70
0
0
VERTEX
8
Layer 1
10
153.211485
20
146.720370
70
0
0
VERTEX
8
Layer 1
10
154.923010
20
148.745536
70
0
0
VERTEX
8
Layer 1
10
157.299300
20
152.100235
70
0
0
VERTEX
8
Layer 1
10
159.298560
20
155.243266
70
0
0
VERTEX
8
Layer 1
10
159.831241
20
156.253782
70
0
0
VERTEX
8
Layer 1
10
159.878990
20
156.633432
70
0
0
VERTEX
8
Layer 1
10
159.124927
20
155.923466
70
0
0
VERTEX
8
Layer 1
10
157.656488
20
154.234542
70
0
0
VERTEX
8
Layer 1
10
157.656488
20
154.234542
70
0
0
SEQEND
8
Layer 1
0
POLYLINE
8
Layer 1
62
7
70
0
10
0.000000
20
0.000000
66
1
0
VERTEX
8
Layer 1
10
176.283167
20
154.798986
70
0
0
VERTEX
8
Layer 1
10
174.222171
20
152.117874
70
0
0
VERTEX
8
Layer 1
10
172.389379
20
149.383844
70
0
0
VERTEX
8
Layer 1
10
171.198202
20
147.258357
70
0
0
VERTEX
8
Layer 1
10
170.972411
20
146.630522
70
0
0
VERTEX
8
Layer 1
10
171.062052
20
146.402870
70
0
0
VERTEX
8
Layer 1
10
171.984787
20
147.330015
70
0
0
VERTEX
8
Layer 1
10
173.707887
20
149.560233
70
0
0
VERTEX
8
Layer 1
10
175.616196
20
152.266702
70
0
0
VERTEX
8
Layer 1
10
177.094556
20
154.622597
70
0
0
VERTEX
8
Layer 1
10
177.835390
20
156.038119
70
0
0
VERTEX
8
Layer 1
10
178.047057
20
156.633432
70
0
0
VERTEX
8
Layer 1
10
176.283167
20
154.798986
70
0
0
VERTEX
8
Layer 1
10
176.283167
20
154.798986
70
0
0
SEQEND
8
Layer 1
0
POLYLINE
8
Layer 1
62
7
70
0
10
0.000000
20
0.000000
66
1
0
VERTEX
8
Layer 1
10
409.610536
20
155.328153
70
0
0
VERTEX
8
Layer 1
10
412.763489
20
150.442178
70
0
0
VERTEX
8
Layer 1
10
415.254984
20
147.249537
70
0
0
VERTEX
8
Layer 1
10
416.181026
20
146.464606
70
0
0
VERTEX
8
Layer 1
10
416.227328
20
146.614537
70
0
0
VERTEX
8
Layer 1
10
416.101651
20
147.108426
70
0
0
VERTEX
8
Layer 1
10
414.911025
20
149.300611
70
0
0
VERTEX
8
Layer 1
10
412.714982
20
152.475061
70
0
0
VERTEX
8
Layer 1
10
410.466022
20
155.338626
70
0
0
VERTEX
8
Layer 1
10
409.619355
20
156.249717
70
0
0
VERTEX
8
Layer 1
10
409.116647
20
156.598154
70
0
0
VERTEX
8
Layer 1
10
409.125466
20
156.240966
70
0
0
VERTEX
8
Layer 1
10
409.610536
20
155.328153
70
0
0
VERTEX
8
Layer 1
10
409.610536
20
155.328153
70
0
0
SEQEND
8
Layer 1
0
POLYLINE
8
Layer 1
62
7
70
0
10
0.000000
20
0.000000
66
1
0
VERTEX
8
Layer 1
10
461.080846
20
156.457043
70
0
0
VERTEX
8
Layer 1
10
461.356729
20
155.805093
70
0
0
VERTEX
8
Layer 1
10
462.090673
20
154.634724
70
0
0
VERTEX
8
Layer 1
10
464.370501
20
151.482873
70
0
0
VERTEX
8
Layer 1
10
466.795850
20
148.489772
70
0
0
VERTEX
8
Layer 1
10
467.711694
20
147.517841
70
0
0
VERTEX
8
Layer 1
10
468.242239
20
147.143704
70
0
0
VERTEX
8
Layer 1
10
468.266493
20
147.474984
70
0
0
VERTEX
8
Layer 1
10
467.827725
20
148.391656
70
0
0
VERTEX
8
Layer 1
10
465.984460
20
151.200651
70
0
0
VERTEX
8
Layer 1
10
462.910882
20
154.860723
70
0
0
VERTEX
8
Layer 1
10
461.623793
20
156.151670
70
0
0
VERTEX
8
Layer 1
10
461.232224
20
156.456905
70
0
0
VERTEX
8
Layer 1
10
461.080846
20
156.457043
70
0
0
VERTEX
8
Layer 1
10
461.080846
20
156.457043
70
0
0
SEQEND
8
Layer 1
0
POLYLINE
8
Layer 1
62
7
70
0
10
0.000000
20
0.000000
66
1
0
VERTEX
8
Layer 1
10
105.974511
20
154.552042
70
0
0
VERTEX
8
Layer 1
10
103.752010
20
151.787144
70
0
0
VERTEX
8
Layer 1
10
101.952842
20
149.048705
70
0
0
VERTEX
8
Layer 1
10
101.141453
20
147.637593
70
0
0
VERTEX
8
Layer 1
10
102.446731
20
148.872316
70
0
0
VERTEX
8
Layer 1
10
104.121875
20
150.733771
70
0
0
VERTEX
8
Layer 1
10
106.005379
20
153.207076
70
0
0
VERTEX
8
Layer 1
10
107.432477
20
155.356265
70
0
0
VERTEX
8
Layer 1
10
107.767133
20
156.016828
70
0
0
VERTEX
8
Layer 1
10
107.738401
20
156.245376
70
0
0
VERTEX
8
Layer 1
10
105.974511
20
154.552042
70
0
0
VERTEX
8
Layer 1
10
105.974511
20
154.552042
70
0
0
SEQEND
8
Layer 1
0
POLYLINE
8
Layer 1
62
7
70
0
10
0.000000
20
0.000000
66
1
0
VERTEX
8
Layer 1
10
195.297901
20
153.846486
70
0
0
VERTEX
8
Layer 1
10
194.892206
20
153.229124
70
0
0
VERTEX
8
Layer 1
10
194.804012
20
152.717596
70
0
0
VERTEX
8
Layer 1
10
194.905435
20
152.622236
70
0
0
VERTEX
8
Layer 1
10
195.086234
20
152.695548
70
0
0
VERTEX
8
Layer 1
10
195.580123
20
153.282041
70
0
0
VERTEX
8
Layer 1
10
195.967628
20
153.980431
70
0
0
VERTEX
8
Layer 1
10
196.034325
20
154.344785
70
0
0
VERTEX
8
Layer 1
10
195.803366
20
154.318878
70
0
0
VERTEX
8
Layer 1
10
195.297901
20
153.846486
70
0
0
VERTEX
8
Layer 1
10
195.297901
20
153.846486
70
0
0
SEQEND
8
Layer 1
0
POLYLINE
8
Layer 1
62
7
70
0
10
0.000000
20
0.000000
66
1
0
VERTEX
8
Layer 1
10
445.558614
20
154.305097
70
0
0
VERTEX
8
Layer 1
10
445.841319
20
153.645430
70
0
0
VERTEX
8
Layer 1
10
446.589938
20
152.480573
70
0
0
VERTEX
8
Layer 1
10
448.887956
20
149.392664
70
0
0
VERTEX
8
Layer 1
10
451.258735
20
146.556108
70
0
0
VERTEX
8
Layer 1
10
452.098305
20
145.705444
70
0
0
VERTEX
8
Layer 1
10
452.508341
20
145.485647
70
0
0
VERTEX
8
Layer 1
10
452.438336
20
146.026941
70
0
0
VERTEX
8
Layer 1
10
451.868930
20
147.117245
70
0
0
VERTEX
8
Layer 1
10
449.615561
20
150.283428
70
0
0
VERTEX
8
Layer 1
10
446.793337
20
153.471659
70
0
0
VERTEX
8
Layer 1
10
445.894856
20
154.267063
70
0
0
VERTEX
8
Layer 1
10
445.646119
20
154.391294
70
0
0
VERTEX
8
Layer 1
10
445.558614
20
154.305097
70
0
0
VERTEX
8
Layer 1
10
445.558614
20
154.305097
70
0
0
SEQEND
8
Layer 1
0
POLYLINE
8
Layer 1
62
7
70
0
10
0.000000
20
0.000000
66
1
0
VERTEX
8
Layer 1
10
374.368014
20
153.740652
70
0
0
VERTEX
8
Layer 1
10
374.932458
20
153.176208
70
0
0
VERTEX
8
Layer 1
10
375.183813
20
153.229124
70
0
0
VERTEX
8
Layer 1
10
375.144125
20
153.599541
70
0
0
VERTEX
8
Layer 1
10
374.888912
20
153.978778
70
0
0
VERTEX
8
Layer 1
10
374.584090
20
154.146347
70
0
0
VERTEX
8
Layer 1
10
374.365258
20
154.075791
70
0
0
VERTEX
8
Layer 1
10
374.368014
20
153.740652
70
0
0
VERTEX
8
Layer 1
10
374.368014
20
153.740652
70
0
0
SEQEND
8
Layer 1
0
POLYLINE
8
Layer 1
62
7
70
0
10
0.000000
20
0.000000
66
1
0
VERTEX
8
Layer 1
10
119.697575
20
150.742039
70
0
0
VERTEX
8
Layer 1
10
117.812418
20
148.325510
70
0
0
VERTEX
8
Layer 1
10
116.681323
20
146.570440
70
0
0
VERTEX
8
Layer 1
10
116.460562
20
146.060841
70
0
0
VERTEX
8
Layer 1
10
116.502730
20
145.860474
70
0
0
VERTEX
8
Layer 1
10
117.475074
20
146.579259
70
0
0
VERTEX
8
Layer 1
10
118.626012
20
147.933045
70
0
0
VERTEX
8
Layer 1
10
119.935701
20
149.763080
70
0
0
VERTEX
8
Layer 1
10
120.967576
20
151.421137
70
0
0
VERTEX
8
Layer 1
10
121.285076
20
152.258985
70
0
0
VERTEX
8
Layer 1
10
120.742680
20
151.884158
70
0
0
VERTEX
8
Layer 1
10
119.697575
20
150.742039
70
0
0
VERTEX
8
Layer 1
10
119.697575
20
150.742039
70
0
0
SEQEND
8
Layer 1
0
POLYLINE
8
Layer 1
62
7
70
0
10
0.000000
20
0.000000
66
1
0
VERTEX
8
Layer 1
10
216.147081
20
147.037870
70
0
0
VERTEX
8
Layer 1
10
213.884892
20
142.945646
70
0
0
VERTEX
8
Layer 1
10
213.294540
20
141.481617
70
0
0
VERTEX
8
Layer 1
10
213.183745
20
140.652589
70
0
0
VERTEX
8
Layer 1
10
213.346905
20
140.695032
70
0
0
VERTEX
8
Layer 1
10
213.695273
20
141.097971
70
0
0
VERTEX
8
Layer 1
10
214.735969
20
142.733979
70
0
0
VERTEX
8
Layer 1
10
216.993748
20
147.042280
70
0
0
VERTEX
8
Layer 1
10
217.712533
20
148.711912
70
0
0
VERTEX
8
Layer 1
10
217.875693
20
149.472039
70
0
0
VERTEX
8
Layer 1
10
216.147081
20
147.037870
70
0
0
VERTEX
8
Layer 1
10
216.147081
20
147.037870
70
0
0
SEQEND
8
Layer 1
0
POLYLINE
8
Layer 1
62
7
70
0
10
0.000000
20
0.000000
66
1
0
VERTEX
8
Layer 1
10
352.460500
20
148.343149
70
0
0
VERTEX
8
Layer 1
10
354.550709
20
144.034848
70
0
0
VERTEX
8
Layer 1
10
355.804174
20
141.809590
70
0
0
VERTEX
8
Layer 1
10
356.588002
20
140.652589
70
0
0
VERTEX
8
Layer 1
10
356.976058
20
140.471790
70
0
0
VERTEX
8
Layer 1
10
356.834947
20
141.111200
70
0
0
VERTEX
8
Layer 1
10
356.183961
20
142.692638
70
0
0
VERTEX
8
Layer 1
10
355.093106
20
144.846237
70
0
0
VERTEX
8
Layer 1
10
353.903031
20
146.940305
70
0
0
VERTEX
8
Layer 1
10
352.954389
20
148.343149
70
0
0
VERTEX
8
Layer 1
10
352.072444
20
149.401483
70
0
0
VERTEX
8
Layer 1
10
352.460500
20
148.343149
70
0
0
VERTEX
8
Layer 1
10
352.460500
20
148.343149
70
0
0
SEQEND
8
Layer 1
0
POLYLINE
8
Layer 1
62
7
70
0
10
0.000000
20
0.000000
66
1
0
VERTEX
8
Layer 1
10
195.685957
20
147.037870
70
0
0
VERTEX
8
Layer 1
10
193.203281
20
143.025021
70
0
0
VERTEX
8
Layer 1
10
192.009900
20
140.806929
70
0
0
VERTEX
8
Layer 1
10
191.382065
20
139.382588
70
0
0
VERTEX
8
Layer 1
10
191.280435
20
138.808290
70
0
0
VERTEX
8
Layer 1
10
191.448762
20
138.737114
70
0
0
VERTEX
8
Layer 1
10
192.418350
20
139.854428
70
0
0
VERTEX
8
Layer 1
10
193.936949
20
142.235129
70
0
0
VERTEX
8
Layer 1
10
195.650679
20
145.379814
70
0
0
VERTEX
8
Layer 1
10
196.430098
20
147.057714
70
0
0
VERTEX
8
Layer 1
10
196.700193
20
147.928635
70
0
0
VERTEX
8
Layer 1
10
196.642178
20
148.044941
70
0
0
VERTEX
8
Layer 1
10
196.454351
20
147.939659
70
0
0
VERTEX
8
Layer 1
10
195.685957
20
147.037870
70
0
0
VERTEX
8
Layer 1
10
195.685957
20
147.037870
70
0
0
SEQEND
8
Layer 1
0
POLYLINE
8
Layer 1
62
7
70
0
10
0.000000
20
0.000000
66
1
0
VERTEX
8
Layer 1
10
373.415513
20
146.790926
70
0
0
VERTEX
8
Layer 1
10
375.210271
20
143.069118
70
0
0
VERTEX
8
Layer 1
10
377.296071
20
139.558977
70
0
0
VERTEX
8
Layer 1
10
377.837916
20
139.024849
70
0
0
VERTEX
8
Layer 1
10
377.978820
20
139.031257
70
0
0
VERTEX
8
Layer 1
10
378.032495
20
139.201789
70
0
0
VERTEX
8
Layer 1
10
377.876501
20
139.980657
70
0
0
VERTEX
8
Layer 1
10
377.366627
20
141.252311
70
0
0
VERTEX
8
Layer 1
10
375.007424
20
145.450369
70
0
0
VERTEX
8
Layer 1
10
373.769945
20
147.364190
70
0
0
VERTEX
8
Layer 1
10
373.098013
20
148.166760
70
0
0
VERTEX
8
Layer 1
10
373.111242
20
147.756656
70
0
0
VERTEX
8
Layer 1
10
373.415513
20
146.790926
70
0
0
VERTEX
8
Layer 1
10
373.415513
20
146.790926
70
0
0
SEQEND
8
Layer 1
0
POLYLINE
8
Layer 1
62
7
70
0
10
0.000000
20
0.000000
66
1
0
VERTEX
8
Layer 1
10
427.919714
20
146.826204
70
0
0
VERTEX
8
Layer 1
10
428.335882
20
145.966307
70
0
0
VERTEX
8
Layer 1
10
429.291138
20
144.577244
70
0
0
VERTEX
8
Layer 1
10
430.345614
20
143.254326
70
0
0
VERTEX
8
Layer 1
10
431.059438
20
142.592868
70
0
0
VERTEX
8
Layer 1
10
431.383002
20
142.588458
70
0
0
VERTEX
8
Layer 1
10
431.319612
20
142.954465
70
0
0
VERTEX
8
Layer 1
10
429.859993
20
145.168147
70
0
0
VERTEX
8
Layer 1
10
428.400374
20
146.923218
70
0
0
VERTEX
8
Layer 1
10
428.039328
20
147.102914
70
0
0
VERTEX
8
Layer 1
10
427.919714
20
146.826204
70
0
0
VERTEX
8
Layer 1
10
427.919714
20
146.826204
70
0
0
SEQEND
8
Layer 1
0
POLYLINE
8
Layer 1
62
7
70
0
10
0.000000
20
0.000000
66
1
0
VERTEX
8
Layer 1
10
140.335088
20
146.155925
70
0
0
VERTEX
8
Layer 1
10
138.972483
20
144.092174
70
0
0
VERTEX
8
Layer 1
10
138.554111
20
143.228970
70
0
0
VERTEX
8
Layer 1
10
138.535921
20
142.875090
70
0
0
VERTEX
8
Layer 1
10
138.965318
20
143.221805
70
0
0
VERTEX
8
Layer 1
10
139.695678
20
144.087764
70
0
0
VERTEX
8
Layer 1
10
141.252311
20
146.332314
70
0
0
VERTEX
8
Layer 1
10
141.357042
20
146.671863
70
0
0
VERTEX
8
Layer 1
10
141.164117
20
146.746829
70
0
0
VERTEX
8
Layer 1
10
140.785983
20
146.570440
70
0
0
VERTEX
8
Layer 1
10
140.335088
20
146.155925
70
0
0
VERTEX
8
Layer 1
10
140.335088
20
146.155925
70
0
0
SEQEND
8
Layer 1
0
POLYLINE
8
Layer 1
62
7
70
0
10
0.000000
20
0.000000
66
1
0
VERTEX
8
Layer 1
10
98.636729
20
141.569811
70
0
0
VERTEX
8
Layer 1
10
98.083308
20
140.629438
70
0
0
VERTEX
8
Layer 1
10
97.939992
20
140.105783
70
0
0
VERTEX
8
Layer 1
10
98.180322
20
140.111295
70
0
0
VERTEX
8
Layer 1
10
98.777840
20
140.758422
70
0
0
VERTEX
8
Layer 1
10
99.558361
20
142.134256
70
0
0
VERTEX
8
Layer 1
10
99.715458
20
142.663423
70
0
0
VERTEX
8
Layer 1
10
99.624507
20
142.875090
70
0
0
VERTEX
8
Layer 1
10
98.636729
20
141.569811
70
0
0
VERTEX
8
Layer 1
10
98.636729
20
141.569811
70
0
0
SEQEND
8
Layer 1
0
POLYLINE
8
Layer 1
62
7
70
0
10
0.000000
20
0.000000
66
1
0
VERTEX
8
Layer 1
10
156.527599
20
136.807308
70
0
0
VERTEX
8
Layer 1
10
154.567476
20
134.153205
70
0
0
VERTEX
8
Layer 1
10
152.832249
20
131.449493
70
0
0
VERTEX
8
Layer 1
10
151.665877
20
129.281561
70
0
0
VERTEX
8
Layer 1
10
151.403498
20
128.581449
70
0
0
VERTEX
8
Layer 1
10
151.412318
20
128.234803
70
0
0
VERTEX
8
Layer 1
10
152.191185
20
129.009812
70
0
0
VERTEX
8
Layer 1
10
153.753882
20
131.127583
70
0
0
VERTEX
8
Layer 1
10
155.495172
20
133.721603
70
0
0
VERTEX
8
Layer 1
10
156.809821
20
135.925363
70
0
0
VERTEX
8
Layer 1
10
157.660898
20
137.596649
70
0
0
VERTEX
8
Layer 1
10
157.903433
20
138.288976
70
0
0
VERTEX
8
Layer 1
10
156.527599
20
136.807308
70
0
0
VERTEX
8
Layer 1
10
156.527599
20
136.807308
70
0
0
SEQEND
8
Layer 1
0
POLYLINE
8
Layer 1
62
7
70
0
10
0.000000
20
0.000000
66
1
0
VERTEX
8
Layer 1
10
410.986370
20
138.112587
70
0
0
VERTEX
8
Layer 1
10
411.252469
20
137.343710
70
0
0
VERTEX
8
Layer 1
10
411.957612
20
136.022929
70
0
0
VERTEX
8
Layer 1
10
414.126094
20
132.560743
70
0
0
VERTEX
8
Layer 1
10
416.373952
20
129.396214
70
0
0
VERTEX
8
Layer 1
10
417.178313
20
128.447503
70
0
0
VERTEX
8
Layer 1
10
417.583319
20
128.199525
70
0
0
VERTEX
8
Layer 1
10
417.365588
20
129.056114
70
0
0
VERTEX
8
Layer 1
10
416.423561
20
130.871819
70
0
0
VERTEX
8
Layer 1
10
415.038356
20
133.150544
70
0
0
VERTEX
8
Layer 1
10
413.491094
20
135.396196
70
0
0
VERTEX
8
Layer 1
10
411.497898
20
137.945017
70
0
0
VERTEX
8
Layer 1
10
411.099920
20
138.283464
70
0
0
VERTEX
8
Layer 1
10
410.986370
20
138.112587
70
0
0
VERTEX
8
Layer 1
10
410.986370
20
138.112587
70
0
0
SEQEND
8
Layer 1
0
POLYLINE
8
Layer 1
62
7
70
0
10
0.000000
20
0.000000
66
1
0
VERTEX
8
Layer 1
10
138.571198
20
134.514251
70
0
0
VERTEX
8
Layer 1
10
136.167898
20
130.382339
70
0
0
VERTEX
8
Layer 1
10
135.192798
20
128.496630
70
0
0
VERTEX
8
Layer 1
10
134.902307
20
127.705636
70
0
0
VERTEX
8
Layer 1
10
135.280441
20
128.033747
70
0
0
VERTEX
8
Layer 1
10
135.923159
20
128.901774
70
0
0
VERTEX
8
Layer 1
10
137.592239
20
131.559736
70
0
0
VERTEX
8
Layer 1
10
139.089341
20
134.283843
70
0
0
VERTEX
8
Layer 1
10
139.517084
20
135.234552
70
0
0
VERTEX
8
Layer 1
10
139.594255
20
135.678419
70
0
0
VERTEX
8
Layer 1
10
139.241477
20
135.400606
70
0
0
VERTEX
8
Layer 1
10
138.571198
20
134.514251
70
0
0
VERTEX
8
Layer 1
10
138.571198
20
134.514251
70
0
0
SEQEND
8
Layer 1
0
POLYLINE
8
Layer 1
62
7
70
0
10
0.000000
20
0.000000
66
1
0
VERTEX
8
Layer 1
10
428.978048
20
135.643141
70
0
0
VERTEX
8
Layer 1
10
429.891412
20
133.700657
70
0
0
VERTEX
8
Layer 1
10
431.945793
20
130.051610
70
0
0
VERTEX
8
Layer 1
10
434.112622
20
126.455479
70
0
0
VERTEX
8
Layer 1
10
435.363330
20
124.671745
70
0
0
VERTEX
8
Layer 1
10
435.637835
20
124.676155
70
0
0
VERTEX
8
Layer 1
10
435.627913
20
125.130357
70
0
0
VERTEX
8
Layer 1
10
434.834163
20
127.176469
70
0
0
VERTEX
8
Layer 1
10
433.308949
20
129.947981
70
0
0
VERTEX
8
Layer 1
10
431.363709
20
132.944389
70
0
0
VERTEX
8
Layer 1
10
429.689667
20
135.173505
70
0
0
VERTEX
8
Layer 1
10
429.170353
20
135.690270
70
0
0
VERTEX
8
Layer 1
10
429.027924
20
135.744944
70
0
0
VERTEX
8
Layer 1
10
428.978048
20
135.643141
70
0
0
VERTEX
8
Layer 1
10
428.978048
20
135.643141
70
0
0
SEQEND
8
Layer 1
0
POLYLINE
8
Layer 1
62
7
70
0
10
0.000000
20
0.000000
66
1
0
VERTEX
8
Layer 1
10
448.733616
20
135.748974
70
0
0
VERTEX
8
Layer 1
10
449.257822
20
134.661426
70
0
0
VERTEX
8
Layer 1
10
450.546013
20
132.578382
70
0
0
VERTEX
8
Layer 1
10
453.707786
20
128.058414
70
0
0
VERTEX
8
Layer 1
10
454.852109
20
126.705731
70
0
0
VERTEX
8
Layer 1
10
455.131576
20
126.467192
70
0
0
VERTEX
8
Layer 1
10
455.215912
20
126.523830
70
0
0
VERTEX
8
Layer 1
10
454.799193
20
127.532554
70
0
0
VERTEX
8
Layer 1
10
453.601952
20
129.751748
70
0
0
VERTEX
8
Layer 1
10
452.285649
20
131.745495
70
0
0
VERTEX
8
Layer 1
10
450.691534
20
133.848383
70
0
0
VERTEX
8
Layer 1
10
449.335543
20
135.402260
70
0
0
VERTEX
8
Layer 1
10
448.908076
20
135.767647
70
0
0
VERTEX
8
Layer 1
10
448.733616
20
135.748974
70
0
0
VERTEX
8
Layer 1
10
448.733616
20
135.748974
70
0
0
SEQEND
8
Layer 1
0
POLYLINE
8
Layer 1
62
7
70
0
10
0.000000
20
0.000000
66
1
0
VERTEX
8
Layer 1
10
118.427575
20
133.985084
70
0
0
VERTEX
8
Layer 1
10
115.477469
20
129.888450
70
0
0
VERTEX
8
Layer 1
10
114.314955
20
128.017073
70
0
0
VERTEX
8
Layer 1
10
113.665072
20
126.717858
70
0
0
VERTEX
8
Layer 1
10
113.464980
20
125.970960
70
0
0
VERTEX
8
Layer 1
10
113.493092
20
125.637475
70
0
0
VERTEX
8
Layer 1
10
113.739486
20
125.720709
70
0
0
VERTEX
8
Layer 1
10
114.194239
20
126.223968
70
0
0
VERTEX
8
Layer 1
10
115.745359
20
128.442060
70
0
0
VERTEX
8
Layer 1
10
117.686741
20
131.533277
70
0
0
VERTEX
8
Layer 1
10
119.284164
20
134.280536
70
0
0
VERTEX
8
Layer 1
10
119.803409
20
135.466752
70
0
0
VERTEX
8
Layer 1
10
118.427575
20
133.985084
70
0
0
VERTEX
8
Layer 1
10
118.427575
20
133.985084
70
0
0
SEQEND
8
Layer 1
0
POLYLINE
8
Layer 1
62
7
70
0
10
0.000000
20
0.000000
66
1
0
VERTEX
8
Layer 1
10
391.936358
20
135.290363
70
0
0
VERTEX
8
Layer 1
10
392.180822
20
134.536162
70
0
0
VERTEX
8
Layer 1
10
392.827122
20
133.212280
70
0
0
VERTEX
8
Layer 1
10
394.802679
20
129.725290
70
0
0
VERTEX
8
Layer 1
10
396.817924
20
126.569029
70
0
0
VERTEX
8
Layer 1
10
397.513833
20
125.658559
70
0
0
VERTEX
8
Layer 1
10
397.827751
20
125.483135
70
0
0
VERTEX
8
Layer 1
10
397.546631
20
126.572337
70
0
0
VERTEX
8
Layer 1
10
396.584208
20
128.614039
70
0
0
VERTEX
8
Layer 1
10
395.238140
20
131.039388
70
0
0
VERTEX
8
Layer 1
10
393.806081
20
133.279528
70
0
0
VERTEX
8
Layer 1
10
392.315594
20
135.224217
70
0
0
VERTEX
8
Layer 1
10
392.020143
20
135.457381
70
0
0
VERTEX
8
Layer 1
10
391.936358
20
135.290363
70
0
0
VERTEX
8
Layer 1
10
391.936358
20
135.290363
70
0
0
SEQEND
8
Layer 1
0
POLYLINE
8
Layer 1
62
7
70
0
10
0.000000
20
0.000000
66
1
0
VERTEX
8
Layer 1
10
175.436499
20
133.420640
70
0
0
VERTEX
8
Layer 1
10
174.457540
20
131.833139
70
0
0
VERTEX
8
Layer 1
10
173.743165
20
130.351471
70
0
0
VERTEX
8
Layer 1
10
173.143442
20
128.940359
70
0
0
VERTEX
8
Layer 1
10
173.848998
20
129.645915
70
0
0
VERTEX
8
Layer 1
10
174.749134
20
130.872370
70
0
0
VERTEX
8
Layer 1
10
175.837784
20
132.710674
70
0
0
VERTEX
8
Layer 1
10
176.681695
20
134.383613
70
0
0
VERTEX
8
Layer 1
10
176.876481
20
134.915192
70
0
0
VERTEX
8
Layer 1
10
176.847611
20
135.113974
70
0
0
VERTEX
8
Layer 1
10
176.327264
20
134.624495
70
0
0
VERTEX
8
Layer 1
10
175.436499
20
133.420640
70
0
0
VERTEX
8
Layer 1
10
175.436499
20
133.420640
70
0
0
SEQEND
8
Layer 1
0
POLYLINE
8
Layer 1
62
7
70
0
10
0.000000
20
0.000000
66
1
0
VERTEX
8
Layer 1
10
467.078072
20
133.173695
70
0
0
VERTEX
8
Layer 1
10
469.891477
20
128.772789
70
0
0
VERTEX
8
Layer 1
10
472.546131
20
125.059801
70
0
0
VERTEX
8
Layer 1
10
473.200424
20
124.428108
70
0
0
VERTEX
8
Layer 1
10
473.362826
20
124.413638
70
0
0
VERTEX
8
Layer 1
10
473.414847
20
124.583551
70
0
0
VERTEX
8
Layer 1
10
473.186092
20
125.426911
70
0
0
VERTEX
8
Layer 1
10
472.510853
20
126.858969
70
0
0
VERTEX
8
Layer 1
10
471.465748
20
128.543484
70
0
0
VERTEX
8
Layer 1
10
470.050227
20
130.492582
70
0
0
VERTEX
8
Layer 1
10
468.542101
20
132.335847
70
0
0
VERTEX
8
Layer 1
10
467.219183
20
133.702862
70
0
0
VERTEX
8
Layer 1
10
466.266683
20
134.584807
70
0
0
VERTEX
8
Layer 1
10
467.078072
20
133.173695
70
0
0
VERTEX
8
Layer 1
10
467.078072
20
133.173695
70
0
0
SEQEND
8
Layer 1
0
POLYLINE
8
Layer 1
62
7
70
0
10
0.000000
20
0.000000
66
1
0
VERTEX
8
Layer 1
10
99.765618
20
131.692027
70
0
0
VERTEX
8
Layer 1
10
97.745964
20
129.040129
70
0
0
VERTEX
8
Layer 1
10
96.255477
20
126.748726
70
0
0
VERTEX
8
Layer 1
10
95.479366
20
125.138625
70
0
0
VERTEX
8
Layer 1
10
95.417078
20
124.689315
70
0
0
VERTEX
8
Layer 1
10
95.602838
20
124.530634
70
0
0
VERTEX
8
Layer 1
10
96.059245
20
124.917932
70
0
0
VERTEX
8
Layer 1
10
96.886068
20
125.942297
70
0
0
VERTEX
8
Layer 1
10
99.095340
20
129.077060
70
0
0
VERTEX
8
Layer 1
10
101.119404
20
132.284584
70
0
0
VERTEX
8
Layer 1
10
101.714717
20
133.399900
70
0
0
VERTEX
8
Layer 1
10
101.847009
20
133.914529
70
0
0
VERTEX
8
Layer 1
10
101.176730
20
133.319216
70
0
0
VERTEX
8
Layer 1
10
99.765618
20
131.692027
70
0
0
VERTEX
8
Layer 1
10
99.765618
20
131.692027
70
0
0
SEQEND
8
Layer 1
0
POLYLINE
8
Layer 1
62
7
70
0
10
0.000000
20
0.000000
66
1
0
VERTEX
8
Layer 1
10
484.364194
20
131.692027
70
0
0
VERTEX
8
Layer 1
10
484.635599
20
131.075148
70
0
0
VERTEX
8
Layer 1
10
485.351421
20
130.004756
70
0
0
VERTEX
8
Layer 1
10
487.525967
20
127.216157
70
0
0
VERTEX
8
Layer 1
10
489.707127
20
124.751671
70
0
0
VERTEX
8
Layer 1
10
490.431218
20
124.086423
70
0
0
VERTEX
8
Layer 1
10
490.637071
20
123.973501
70
0
0
VERTEX
8
Layer 1
10
490.714198
20
124.036745
70
0
0
VERTEX
8
Layer 1
10
490.261099
20
125.063108
70
0
0
VERTEX
8
Layer 1
10
489.126697
20
126.770774
70
0
0
VERTEX
8
Layer 1
10
487.648337
20
128.690107
70
0
0
VERTEX
8
Layer 1
10
486.163362
20
130.351471
70
0
0
VERTEX
8
Layer 1
10
484.893361
20
131.458312
70
0
0
VERTEX
8
Layer 1
10
484.506408
20
131.705808
70
0
0
VERTEX
8
Layer 1
10
484.364194
20
131.692027
70
0
0
VERTEX
8
Layer 1
10
484.364194
20
131.692027
70
0
0
SEQEND
8
Layer 1
0
POLYLINE
8
Layer 1
62
7
70
0
10
0.000000
20
0.000000
66
1
0
VERTEX
8
Layer 1
10
82.303107
20
130.069249
70
0
0
VERTEX
8
Layer 1
10
80.578354
20
128.040224
70
0
0
VERTEX
8
Layer 1
10
79.432376
20
126.325392
70
0
0
VERTEX
8
Layer 1
10
79.178748
20
125.774934
70
0
0
VERTEX
8
Layer 1
10
79.192598
20
125.529988
70
0
0
VERTEX
8
Layer 1
10
79.514852
20
125.666207
70
0
0
VERTEX
8
Layer 1
10
80.186439
20
126.259246
70
0
0
VERTEX
8
Layer 1
10
81.380372
20
127.579959
70
0
0
VERTEX
8
Layer 1
10
82.647066
20
129.231401
70
0
0
VERTEX
8
Layer 1
10
83.609488
20
130.684405
70
0
0
VERTEX
8
Layer 1
10
83.890608
20
131.409805
70
0
0
VERTEX
8
Layer 1
10
83.374671
20
131.096715
70
0
0
VERTEX
8
Layer 1
10
82.303107
20
130.069249
70
0
0
VERTEX
8
Layer 1
10
82.303107
20
130.069249
70
0
0
SEQEND
8
Layer 1
0
POLYLINE
8
Layer 1
62
7
70
0
10
0.000000
20
0.000000
66
1
0
VERTEX
8
Layer 1
10
355.635502
20
129.575359
70
0
0
VERTEX
8
Layer 1
10
358.034392
20
124.804037
70
0
0
VERTEX
8
Layer 1
10
360.327449
20
120.826465
70
0
0
VERTEX
8
Layer 1
10
360.794880
20
120.332576
70
0
0
VERTEX
8
Layer 1
10
360.891894
20
121.002854
70
0
0
VERTEX
8
Layer 1
10
360.622901
20
122.184660
70
0
0
VERTEX
8
Layer 1
10
360.009949
20
123.789800
70
0
0
VERTEX
8
Layer 1
10
358.882713
20
125.890483
70
0
0
VERTEX
8
Layer 1
10
357.368524
20
128.345046
70
0
0
VERTEX
8
Layer 1
10
355.966782
20
130.382890
70
0
0
VERTEX
8
Layer 1
10
355.176890
20
131.233416
70
0
0
VERTEX
8
Layer 1
10
355.207758
20
130.748346
70
0
0
VERTEX
8
Layer 1
10
355.635502
20
129.575359
70
0
0
VERTEX
8
Layer 1
10
355.635502
20
129.575359
70
0
0
SEQEND
8
Layer 1
0
POLYLINE
8
Layer 1
62
7
70
0
10
0.000000
20
0.000000
66
1
0
VERTEX
8
Layer 1
10
212.372356
20
129.398970
70
0
0
VERTEX
8
Layer 1
10
210.496569
20
126.330904
70
0
0
VERTEX
8
Layer 1
10
208.875444
20
122.925494
70
0
0
VERTEX
8
Layer 1
10
208.120830
20
120.657793
70
0
0
VERTEX
8
Layer 1
10
208.139270
20
120.441493
70
0
0
VERTEX
8
Layer 1
10
208.259667
20
120.411537
70
0
0
VERTEX
8
Layer 1
10
208.844576
20
121.002854
70
0
0
VERTEX
8
Layer 1
10
210.086465
20
123.064952
70
0
0
VERTEX
8
Layer 1
10
211.768224
20
126.281295
70
0
0
VERTEX
8
Layer 1
10
213.205243
20
129.292586
70
0
0
VERTEX
8
Layer 1
10
213.712912
20
130.739527
70
0
0
VERTEX
8
Layer 1
10
213.214613
20
130.426436
70
0
0
VERTEX
8
Layer 1
10
212.372356
20
129.398970
70
0
0
VERTEX
8
Layer 1
10
212.372356
20
129.398970
70
0
0
SEQEND
8
Layer 1
0
POLYLINE
8
Layer 1
62
7
70
0
10
0.000000
20
0.000000
66
1
0
VERTEX
8
Layer 1
10
194.980401
20
128.869803
70
0
0
VERTEX
8
Layer 1
10
193.239662
20
125.774728
70
0
0
VERTEX
8
Layer 1
10
191.981788
20
123.026918
70
0
0
VERTEX
8
Layer 1
10
191.597039
20
121.621869
70
0
0
VERTEX
8
Layer 1
10
191.854043
20
121.733973
70
0
0
VERTEX
8
Layer 1
10
192.475677
20
122.555077
70
0
0
VERTEX
8
Layer 1
10
193.553303
20
124.423698
70
0
0
VERTEX
8
Layer 1
10
194.773144
20
126.867788
70
0
0
VERTEX
8
Layer 1
10
195.735015
20
129.034066
70
0
0
VERTEX
8
Layer 1
10
196.038735
20
130.069249
70
0
0
VERTEX
8
Layer 1
10
195.641859
20
129.787026
70
0
0
VERTEX
8
Layer 1
10
194.980401
20
128.869803
70
0
0
VERTEX
8
Layer 1
10
194.980401
20
128.869803
70
0
0
SEQEND
8
Layer 1
0
POLYLINE
8
Layer 1
62
7
70
0
10
0.000000
20
0.000000
66
1
0
VERTEX
8
Layer 1
10
373.450791
20
129.469526
70
0
0
VERTEX
8
Layer 1
10
374.116108
20
127.831864
70
0
0
VERTEX
8
Layer 1
10
375.360202
20
125.258239
70
0
0
VERTEX
8
Layer 1
10
377.613571
20
121.179243
70
0
0
VERTEX
8
Layer 1
10
378.142738
20
120.473687
70
0
0
VERTEX
8
Layer 1
10
378.178016
20
121.179243
70
0
0
VERTEX
8
Layer 1
10
377.702317
20
122.645477
70
0
0
VERTEX
8
Layer 1
10
376.568466
20
125.077440
70
0
0
VERTEX
8
Layer 1
10
375.216334
20
127.588778
70
0
0
VERTEX
8
Layer 1
10
374.085791
20
129.293137
70
0
0
VERTEX
8
Layer 1
10
373.358187
20
130.082478
70
0
0
VERTEX
8
Layer 1
10
373.450791
20
129.469526
70
0
0
VERTEX
8
Layer 1
10
373.450791
20
129.469526
70
0
0
SEQEND
8
Layer 1
0
POLYLINE
8
Layer 1
62
7
70
0
10
0.000000
20
0.000000
66
1
0
VERTEX
8
Layer 1
10
446.264170
20
129.187304
70
0
0
VERTEX
8
Layer 1
10
446.675928
20
128.042980
70
0
0
VERTEX
8
Layer 1
10
447.626775
20
126.303343
70
0
0
VERTEX
8
Layer 1
10
448.690070
20
124.682770
70
0
0
VERTEX
8
Layer 1
10
449.439172
20
123.895634
70
0
0
VERTEX
8
Layer 1
10
449.633062
20
123.881233
70
0
0
VERTEX
8
Layer 1
10
449.713677
20
124.018555
70
0
0
VERTEX
8
Layer 1
10
449.545005
20
124.720252
70
0
0
VERTEX
8
Layer 1
10
447.957504
20
127.635080
70
0
0
VERTEX
8
Layer 1
10
446.405281
20
129.822304
70
0
0
VERTEX
8
Layer 1
10
446.264170
20
129.187304
70
0
0
VERTEX
8
Layer 1
10
446.264170
20
129.187304
70
0
0
SEQEND
8
Layer 1
0
POLYLINE
8
Layer 1
62
7
70
0
10
0.000000
20
0.000000
66
1
0
VERTEX
8
Layer 1
10
134.725918
20
122.167021
70
0
0
VERTEX
8
Layer 1
10
133.659867
20
120.793943
70
0
0
VERTEX
8
Layer 1
10
132.732722
20
119.252193
70
0
0
VERTEX
8
Layer 1
10
132.175995
20
117.994870
70
0
0
VERTEX
8
Layer 1
10
132.108884
20
117.614463
70
0
0
VERTEX
8
Layer 1
10
132.221194
20
117.475074
70
0
0
VERTEX
8
Layer 1
10
132.722249
20
117.922110
70
0
0
VERTEX
8
Layer 1
10
133.610258
20
119.014068
70
0
0
VERTEX
8
Layer 1
10
135.396196
20
121.637854
70
0
0
VERTEX
8
Layer 1
10
135.742911
20
122.424990
70
0
0
VERTEX
8
Layer 1
10
135.709287
20
122.802022
70
0
0
VERTEX
8
Layer 1
10
135.351548
20
122.729261
70
0
0
VERTEX
8
Layer 1
10
134.725918
20
122.167021
70
0
0
VERTEX
8
Layer 1
10
134.725918
20
122.167021
70
0
0
SEQEND
8
Layer 1
0
POLYLINE
8
Layer 1
62
7
70
0
10
0.000000
20
0.000000
66
1
0
VERTEX
8
Layer 1
10
397.580806
20
121.920077
70
0
0
VERTEX
8
Layer 1
10
398.186041
20
120.524399
70
0
0
VERTEX
8
Layer 1
10
399.538724
20
118.162991
70
0
0
VERTEX
8
Layer 1
10
400.944324
20
115.986792
70
0
0
VERTEX
8
Layer 1
10
401.708309
20
115.146739
70
0
0
VERTEX
8
Layer 1
10
401.469632
20
116.131210
70
0
0
VERTEX
8
Layer 1
10
400.566190
20
118.048338
70
0
0
VERTEX
8
Layer 1
10
399.431237
20
120.058070
70
0
0
VERTEX
8
Layer 1
10
398.498029
20
121.320354
70
0
0
VERTEX
8
Layer 1
10
397.854209
20
121.858341
70
0
0
VERTEX
8
Layer 1
10
397.580806
20
121.920077
70
0
0
VERTEX
8
Layer 1
10
397.580806
20
121.920077
70
0
0
SEQEND
8
Layer 1
0
POLYLINE
8
Layer 1
62
7
70
0
10
0.000000
20
0.000000
66
1
0
VERTEX
8
Layer 1
10
169.862607
20
120.579520
70
0
0
VERTEX
8
Layer 1
10
169.032476
20
119.370153
70
0
0
VERTEX
8
Layer 1
10
168.169273
20
117.783755
70
0
0
VERTEX
8
Layer 1
10
167.491277
20
116.263502
70
0
0
VERTEX
8
Layer 1
10
167.216772
20
115.252573
70
0
0
VERTEX
8
Layer 1
10
167.299385
20
115.199036
70
0
0
VERTEX
8
Layer 1
10
167.527106
20
115.406362
70
0
0
VERTEX
8
Layer 1
10
168.297155
20
116.429969
70
0
0
VERTEX
8
Layer 1
10
170.250663
20
119.697575
70
0
0
VERTEX
8
Layer 1
10
170.834951
20
120.931747
70
0
0
VERTEX
8
Layer 1
10
170.956219
20
121.501153
70
0
0
VERTEX
8
Layer 1
10
170.627694
20
121.389256
70
0
0
VERTEX
8
Layer 1
10
169.862607
20
120.579520
70
0
0
VERTEX
8
Layer 1
10
169.862607
20
120.579520
70
0
0
SEQEND
8
Layer 1
0
POLYLINE
8
Layer 1
62
7
70
0
10
0.000000
20
0.000000
66
1
0
VERTEX
8
Layer 1
10
155.469265
20
119.521186
70
0
0
VERTEX
8
Layer 1
10
153.331099
20
116.396345
70
0
0
VERTEX
8
Layer 1
10
151.381450
20
113.096217
70
0
0
VERTEX
8
Layer 1
10
150.046956
20
110.398017
70
0
0
VERTEX
8
Layer 1
10
149.743719
20
109.517519
70
0
0
VERTEX
8
Layer 1
10
149.754261
20
109.078958
70
0
0
VERTEX
8
Layer 1
10
150.039239
20
109.118094
70
0
0
VERTEX
8
Layer 1
10
150.578880
20
109.736007
70
0
0
VERTEX
8
Layer 1
10
152.752874
20
113.171182
70
0
0
VERTEX
8
Layer 1
10
154.888835
20
116.916693
70
0
0
VERTEX
8
Layer 1
10
156.188050
20
119.534416
70
0
0
VERTEX
8
Layer 1
10
156.460833
20
120.274629
70
0
0
VERTEX
8
Layer 1
10
156.448775
20
120.558023
70
0
0
VERTEX
8
Layer 1
10
156.126658
20
120.326306
70
0
0
VERTEX
8
Layer 1
10
155.469265
20
119.521186
70
0
0
VERTEX
8
Layer 1
10
155.469265
20
119.521186
70
0
0
SEQEND
8
Layer 1
0
POLYLINE
8
Layer 1
62
7
70
0
10
0.000000
20
0.000000
66
1
0
VERTEX
8
Layer 1
10
412.397482
20
120.403131
70
0
0
VERTEX
8
Layer 1
10
414.373039
20
116.240351
70
0
0
VERTEX
8
Layer 1
10
416.049286
20
113.108895
70
0
0
VERTEX
8
Layer 1
10
417.570089
20
110.635591
70
0
0
VERTEX
8
Layer 1
10
418.674174
20
109.200776
70
0
0
VERTEX
8
Layer 1
10
418.988298
20
108.991659
70
0
0
VERTEX
8
Layer 1
10
419.100264
20
109.184791
70
0
0
VERTEX
8
Layer 1
10
418.829066
20
110.330217
70
0
0
VERTEX
8
Layer 1
10
418.041930
20
112.077571
70
0
0
VERTEX
8
Layer 1
10
415.078595
20
117.087018
70
0
0
VERTEX
8
Layer 1
10
412.931059
20
120.226742
70
0
0
VERTEX
8
Layer 1
10
412.513788
20
120.619208
70
0
0
VERTEX
8
Layer 1
10
412.397482
20
120.403131
70
0
0
VERTEX
8
Layer 1
10
412.397482
20
120.403131
70
0
0
SEQEND
8
Layer 1
0
POLYLINE
8
Layer 1
62
7
70
0
10
0.000000
20
0.000000
66
1
0
VERTEX
8
Layer 1
10
80.327551
20
114.053127
70
0
0
VERTEX
8
Layer 1
10
78.430818
20
111.514779
70
0
0
VERTEX
8
Layer 1
10
76.768903
20
108.986353
70
0
0
VERTEX
8
Layer 1
10
75.589852
20
106.874646
70
0
0
VERTEX
8
Layer 1
10
75.141714
20
105.586455
70
0
0
VERTEX
8
Layer 1
10
75.218333
20
105.492129
70
0
0
VERTEX
8
Layer 1
10
75.437166
20
105.618977
70
0
0
VERTEX
8
Layer 1
10
76.235326
20
106.455171
70
0
0
VERTEX
8
Layer 1
10
78.810605
20
109.890347
70
0
0
VERTEX
8
Layer 1
10
81.418958
20
113.859651
70
0
0
VERTEX
8
Layer 1
10
82.611788
20
116.086011
70
0
0
VERTEX
8
Layer 1
10
82.644310
20
116.447401
70
0
0
VERTEX
8
Layer 1
10
82.283264
20
116.255234
70
0
0
VERTEX
8
Layer 1
10
80.327551
20
114.053127
70
0
0
VERTEX
8
Layer 1
10
80.327551
20
114.053127
70
0
0
SEQEND
8
Layer 1
0
POLYLINE
8
Layer 1
62
7
70
0
10
0.000000
20
0.000000
66
1
0
VERTEX
8
Layer 1
10
486.480862
20
115.887573
70
0
0
VERTEX
8
Layer 1
10
487.166574
20
114.422442
70
0
0
VERTEX
8
Layer 1
10
488.844475
20
111.760070
70
0
0
VERTEX
8
Layer 1
10
490.945709
20
108.753740
70
0
0
VERTEX
8
Layer 1
10
492.901422
20
106.256734
70
0
0
VERTEX
8
Layer 1
10
493.602568
20
105.580392
70
0
0
VERTEX
8
Layer 1
10
493.784469
20
105.519414
70
0
0
VERTEX
8
Layer 1
10
493.853922
20
105.634962
70
0
0
VERTEX
8
Layer 1
10
493.655485
20
106.370835
70
0
0
VERTEX
8
Layer 1
10
493.007255
20
107.738401
70
0
0
VERTEX
8
Layer 1
10
491.317779
20
110.435499
70
0
0
VERTEX
8
Layer 1
10
489.148746
20
113.334342
70
0
0
VERTEX
8
Layer 1
10
487.277369
20
115.472508
70
0
0
VERTEX
8
Layer 1
10
486.696181
20
115.955579
70
0
0
VERTEX
8
Layer 1
10
486.536716
20
115.997980
70
0
0
VERTEX
8
Layer 1
10
486.480862
20
115.887573
70
0
0
VERTEX
8
Layer 1
10
486.480862
20
115.887573
70
0
0
SEQEND
8
Layer 1
0
POLYLINE
8
Layer 1
62
7
70
0
10
0.000000
20
0.000000
66
1
0
VERTEX
8
Layer 1
10
458.258622
20
114.511739
70
0
0
VERTEX
8
Layer 1
10
458.565098
20
113.608848
70
0
0
VERTEX
8
Layer 1
10
459.413970
20
111.971737
70
0
0
VERTEX
8
Layer 1
10
462.315569
20
107.209234
70
0
0
VERTEX
8
Layer 1
10
463.931182
20
104.845070
70
0
0
VERTEX
8
Layer 1
10
464.789425
20
103.853433
70
0
0
VERTEX
8
Layer 1
10
464.925230
20
103.879547
70
0
0
VERTEX
8
Layer 1
10
464.860532
20
104.257475
70
0
0
VERTEX
8
Layer 1
10
464.114737
20
106.080345
70
0
0
VERTEX
8
Layer 1
10
462.529992
20
108.965407
70
0
0
VERTEX
8
Layer 1
10
460.591367
20
111.962918
70
0
0
VERTEX
8
Layer 1
10
458.950398
20
114.126990
70
0
0
VERTEX
8
Layer 1
10
458.445140
20
114.600898
70
0
0
VERTEX
8
Layer 1
10
458.306948
20
114.634091
70
0
0
VERTEX
8
Layer 1
10
458.258622
20
114.511739
70
0
0
VERTEX
8
Layer 1
10
458.258622
20
114.511739
70
0
0
SEQEND
8
Layer 1
0
POLYLINE
8
Layer 1
62
7
70
0
10
0.000000
20
0.000000
66
1
0
VERTEX
8
Layer 1
10
129.822304
20
112.853682
70
0
0
VERTEX
8
Layer 1
10
128.891852
20
111.292640
70
0
0
VERTEX
8
Layer 1
10
128.093692
20
109.572847
70
0
0
VERTEX
8
Layer 1
10
126.188691
20
105.057288
70
0
0
VERTEX
8
Layer 1
10
125.249419
20
102.812738
70
0
0
VERTEX
8
Layer 1
10
124.707023
20
101.176730
70
0
0
VERTEX
8
Layer 1
10
124.495356
20
100.012563
70
0
0
VERTEX
8
Layer 1
10
125.200912
20
100.894508
70
0
0
VERTEX
8
Layer 1
10
126.695809
20
103.614206
70
0
0
VERTEX
8
Layer 1
10
128.772789
20
108.152915
70
0
0
VERTEX
8
Layer 1
10
130.519041
20
112.413812
70
0
0
VERTEX
8
Layer 1
10
130.982888
20
113.784823
70
0
0
VERTEX
8
Layer 1
10
131.021749
20
114.300072
70
0
0
VERTEX
8
Layer 1
10
129.822304
20
112.853682
70
0
0
VERTEX
8
Layer 1
10
129.822304
20
112.853682
70
0
0
SEQEND
8
Layer 1
0
POLYLINE
8
Layer 1
62
7
70
0
10
0.000000
20
0.000000
66
1
0
VERTEX
8
Layer 1
10
216.676248
20
113.171182
70
0
0
VERTEX
8
Layer 1
10
215.818556
20
111.699988
70
0
0
VERTEX
8
Layer 1
10
214.577218
20
109.180381
70
0
0
VERTEX
8
Layer 1
10
213.362339
20
106.468952
70
0
0
VERTEX
8
Layer 1
10
212.584023
20
104.422288
70
0
0
VERTEX
8
Layer 1
10
211.843189
20
102.058675
70
0
0
VERTEX
8
Layer 1
10
211.825550
20
101.736765
70
0
0
VERTEX
8
Layer 1
10
212.019578
20
101.600064
70
0
0
VERTEX
8
Layer 1
10
212.584574
20
102.329873
70
0
0
VERTEX
8
Layer 1
10
213.576211
20
104.263538
70
0
0
VERTEX
8
Layer 1
10
216.111803
20
110.207847
70
0
0
VERTEX
8
Layer 1
10
217.121630
20
113.171182
70
0
0
VERTEX
8
Layer 1
10
217.079186
20
113.521756
70
0
0
VERTEX
8
Layer 1
10
216.676248
20
113.171182
70
0
0
VERTEX
8
Layer 1
10
216.676248
20
113.171182
70
0
0
SEQEND
8
Layer 1
0
POLYLINE
8
Layer 1
62
7
70
0
10
0.000000
20
0.000000
66
1
0
VERTEX
8
Layer 1
10
351.860777
20
112.818404
70
0
0
VERTEX
8
Layer 1
10
354.114147
20
107.010797
70
0
0
VERTEX
8
Layer 1
10
356.446891
20
101.705897
70
0
0
VERTEX
8
Layer 1
10
356.764943
20
101.557620
70
0
0
VERTEX
8
Layer 1
10
356.874635
20
101.921974
70
0
0
VERTEX
8
Layer 1
10
356.482169
20
103.963677
70
0
0
VERTEX
8
Layer 1
10
355.666921
20
106.184524
70
0
0
VERTEX
8
Layer 1
10
354.458105
20
108.951076
70
0
0
VERTEX
8
Layer 1
10
353.202987
20
111.499345
70
0
0
VERTEX
8
Layer 1
10
352.248833
20
113.065349
70
0
0
VERTEX
8
Layer 1
10
351.776992
20
113.537190
70
0
0
VERTEX
8
Layer 1
10
351.860777
20
112.818404
70
0
0
VERTEX
8
Layer 1
10
351.860777
20
112.818404
70
0
0
SEQEND
8
Layer 1
0
POLYLINE
8
Layer 1
62
7
70
0
10
0.000000
20
0.000000
66
1
0
VERTEX
8
Layer 1
10
113.135905
20
110.137292
70
0
0
VERTEX
8
Layer 1
10
110.959705
20
106.370284
70
0
0
VERTEX
8
Layer 1
10
109.061319
20
102.623120
70
0
0
VERTEX
8
Layer 1
10
107.797932
20
99.669707
70
0
0
VERTEX
8
Layer 1
10
107.515986
20
98.732503
70
0
0
VERTEX
8
Layer 1
10
107.526734
20
98.283951
70
0
0
VERTEX
8
Layer 1
10
107.857464
20
98.403013
70
0
0
VERTEX
8
Layer 1
10
108.373402
20
99.024785
70
0
0
VERTEX
8
Layer 1
10
109.974132
20
101.897169
70
0
0
VERTEX
8
Layer 1
10
112.315696
20
106.525727
70
0
0
VERTEX
8
Layer 1
10
114.405905
20
110.896316
70
0
0
VERTEX
8
Layer 1
10
115.252573
20
112.994793
70
0
0
VERTEX
8
Layer 1
10
115.045867
20
112.890614
70
0
0
VERTEX
8
Layer 1
10
114.577885
20
112.320105
70
0
0
VERTEX
8
Layer 1
10
113.135905
20
110.137292
70
0
0
VERTEX
8
Layer 1
10
113.135905
20
110.137292
70
0
0
SEQEND
8
Layer 1
0
POLYLINE
8
Layer 1
62
7
70
0
10
0.000000
20
0.000000
66
1
0
VERTEX
8
Layer 1
10
507.647542
20
112.818404
70
0
0
VERTEX
8
Layer 1
10
509.257092
20
110.811980
70
0
0
VERTEX
8
Layer 1
10
513.115601
20
106.715345
70
0
0
VERTEX
8
Layer 1
10
517.445951
20
102.411453
70
0
0
VERTEX
8
Layer 1
10
518.493261
20
101.585732
70
0
0
VERTEX
8
Layer 1
10
518.971716
20
101.494231
70
0
0
VERTEX
8
Layer 1
10
519.143144
20
101.975442
70
0
0
VERTEX
8
Layer 1
10
518.887931
20
102.724544
70
0
0
VERTEX
8
Layer 1
10
518.163082
20
103.810990
70
0
0
VERTEX
8
Layer 1
10
516.925603
20
105.304233
70
0
0
VERTEX
8
Layer 1
10
514.181101
20
108.055901
70
0
0
VERTEX
8
Layer 1
10
511.135634
20
110.701736
70
0
0
VERTEX
8
Layer 1
10
508.665637
20
112.527363
70
0
0
VERTEX
8
Layer 1
10
507.920325
20
112.909355
70
0
0
VERTEX
8
Layer 1
10
507.718020
20
112.928579
70
0
0
VERTEX
8
Layer 1
10
507.647542
20
112.818404
70
0
0
VERTEX
8
Layer 1
10
507.647542
20
112.818404
70
0
0
SEQEND
8
Layer 1
0
POLYLINE
8
Layer 1
62
7
70
0
10
0.000000
20
0.000000
66
1
0
VERTEX
8
Layer 1
10
59.019759
20
111.336737
70
0
0
VERTEX
8
Layer 1
10
56.722293
20
109.339131
70
0
0
VERTEX
8
Layer 1
10
54.080867
20
106.785901
70
0
0
VERTEX
8
Layer 1
10
52.129564
20
104.647735
70
0
0
VERTEX
8
Layer 1
10
50.879407
20
103.042044
70
0
0
VERTEX
8
Layer 1
10
50.330396
20
101.958905
70
0
0
VERTEX
8
Layer 1
10
50.318821
20
101.610193
70
0
0
VERTEX
8
Layer 1
10
50.482532
20
101.388397
70
0
0
VERTEX
8
Layer 1
10
51.039122
20
101.718989
70
0
0
VERTEX
8
Layer 1
10
52.249729
20
102.756514
70
0
0
VERTEX
8
Layer 1
10
55.783021
20
106.115622
70
0
0
VERTEX
8
Layer 1
10
59.382459
20
109.792231
70
0
0
VERTEX
8
Layer 1
10
61.348094
20
112.112848
70
0
0
VERTEX
8
Layer 1
10
61.579605
20
112.725800
70
0
0
VERTEX
8
Layer 1
10
61.504364
20
112.834665
70
0
0
VERTEX
8
Layer 1
10
61.295177
20
112.809585
70
0
0
VERTEX
8
Layer 1
10
59.019759
20
111.336737
70
0
0
VERTEX
8
Layer 1
10
59.019759
20
111.336737
70
0
0
SEQEND
8
Layer 1
0
POLYLINE
8
Layer 1
62
7
70
0
10
0.000000
20
0.000000
66
1
0
VERTEX
8
Layer 1
10
106.186178
20
112.183404
70
0
0
VERTEX
8
Layer 1
10
105.974511
20
111.477848
70
0
0
VERTEX
8
Layer 1
10
106.538956
20
112.183404
70
0
0
VERTEX
8
Layer 1
10
106.750623
20
112.888960
70
0
0
VERTEX
8
Layer 1
10
106.186178
20
112.183404
70
0
0
VERTEX
8
Layer 1
10
106.186178
20
112.183404
70
0
0
SEQEND
8
Layer 1
0
POLYLINE
8
Layer 1
62
7
70
0
10
0.000000
20
0.000000
66
1
0
VERTEX
8
Layer 1
10
442.736390
20
112.783127
70
0
0
VERTEX
8
Layer 1
10
443.510848
20
110.633937
70
0
0
VERTEX
8
Layer 1
10
445.360176
20
106.490449
70
0
0
VERTEX
8
Layer 1
10
447.493932
20
102.062534
70
0
0
VERTEX
8
Layer 1
10
449.121672
20
99.060062
70
0
0
VERTEX
8
Layer 1
10
449.862506
20
97.895895
70
0
0
VERTEX
8
Layer 1
10
449.615561
20
99.307007
70
0
0
VERTEX
8
Layer 1
10
449.211451
20
100.626893
70
0
0
VERTEX
8
Layer 1
10
448.386901
20
102.623120
70
0
0
VERTEX
8
Layer 1
10
446.056913
20
107.500276
70
0
0
VERTEX
8
Layer 1
10
443.786456
20
111.649827
70
0
0
VERTEX
8
Layer 1
10
443.036320
20
112.736549
70
0
0
VERTEX
8
Layer 1
10
442.821010
20
112.907736
70
0
0
VERTEX
8
Layer 1
10
442.736390
20
112.783127
70
0
0
VERTEX
8
Layer 1
10
442.736390
20
112.783127
70
0
0
SEQEND
8
Layer 1
0
POLYLINE
8
Layer 1
62
7
70
0
10
0.000000
20
0.000000
66
1
0
VERTEX
8
Layer 1
10
371.686901
20
111.830626
70
0
0
VERTEX
8
Layer 1
10
373.080374
20
108.174964
70
0
0
VERTEX
8
Layer 1
10
375.214681
20
103.117009
70
0
0
VERTEX
8
Layer 1
10
375.731170
20
102.111592
70
0
0
VERTEX
8
Layer 1
10
376.118674
20
101.661800
70
0
0
VERTEX
8
Layer 1
10
376.240286
20
101.657666
70
0
0
VERTEX
8
Layer 1
10
376.301127
20
101.807321
70
0
0
VERTEX
8
Layer 1
10
376.202459
20
102.587842
70
0
0
VERTEX
8
Layer 1
10
375.509030
20
104.587653
70
0
0
VERTEX
8
Layer 1
10
374.306277
20
107.473818
70
0
0
VERTEX
8
Layer 1
10
373.037379
20
110.227691
70
0
0
VERTEX
8
Layer 1
10
372.145512
20
111.830626
70
0
0
VERTEX
8
Layer 1
10
371.439956
20
112.712571
70
0
0
VERTEX
8
Layer 1
10
371.686901
20
111.830626
70
0
0
VERTEX
8
Layer 1
10
371.686901
20
111.830626
70
0
0
SEQEND
8
Layer 1
0
POLYLINE
8
Layer 1
62
7
70
0
10
0.000000
20
0.000000
66
1
0
VERTEX
8
Layer 1
10
196.567902
20
111.760070
70
0
0
VERTEX
8
Layer 1
10
195.302311
20
109.548593
70
0
0
VERTEX
8
Layer 1
10
193.825053
20
106.265553
70
0
0
VERTEX
8
Layer 1
10
192.678524
20
103.207409
70
0
0
VERTEX
8
Layer 1
10
192.398782
20
102.167816
70
0
0
VERTEX
8
Layer 1
10
192.405121
20
101.670620
70
0
0
VERTEX
8
Layer 1
10
193.002639
20
102.472638
70
0
0
VERTEX
8
Layer 1
10
194.142553
20
104.673642
70
0
0
VERTEX
8
Layer 1
10
195.401529
20
107.410428
70
0
0
VERTEX
8
Layer 1
10
196.356235
20
109.819791
70
0
0
VERTEX
8
Layer 1
10
197.004464
20
111.980557
70
0
0
VERTEX
8
Layer 1
10
196.916821
20
112.121668
70
0
0
VERTEX
8
Layer 1
10
196.567902
20
111.760070
70
0
0
VERTEX
8
Layer 1
10
196.567902
20
111.760070
70
0
0
SEQEND
8
Layer 1
0
POLYLINE
8
Layer 1
62
7
70
0
10
0.000000
20
0.000000
66
1
0
VERTEX
8
Layer 1
10
474.133632
20
112.042293
70
0
0
VERTEX
8
Layer 1
10
475.174878
20
109.955942
70
0
0
VERTEX
8
Layer 1
10
477.515891
20
105.908365
70
0
0
VERTEX
8
Layer 1
10
479.982581
20
101.867404
70
0
0
VERTEX
8
Layer 1
10
481.400859
20
99.800896
70
0
0
VERTEX
8
Layer 1
10
481.964201
20
99.489459
70
0
0
VERTEX
8
Layer 1
10
482.074306
20
99.595637
70
0
0
VERTEX
8
Layer 1
10
482.071137
20
99.875862
70
0
0
VERTEX
8
Layer 1
10
481.728281
20
100.956795
70
0
0
VERTEX
8
Layer 1
10
480.942247
20
102.728954
70
0
0
VERTEX
8
Layer 1
10
479.178909
20
105.791508
70
0
0
VERTEX
8
Layer 1
10
476.916168
20
109.105416
70
0
0
VERTEX
8
Layer 1
10
474.964314
20
111.559428
70
0
0
VERTEX
8
Layer 1
10
474.358183
20
112.116707
70
0
0
VERTEX
8
Layer 1
10
474.191880
20
112.167143
70
0
0
VERTEX
8
Layer 1
10
474.133632
20
112.042293
70
0
0
VERTEX
8
Layer 1
10
474.133632
20
112.042293
70
0
0
SEQEND
8
Layer 1
0
POLYLINE
8
Layer 1
62
7
70
0
10
0.000000
20
0.000000
66
1
0
VERTEX
8
Layer 1
10
90.875613
20
108.408679
70
0
0
VERTEX
8
Layer 1
10
88.906671
20
105.198400
70
0
0
VERTEX
8
Layer 1
10
87.427208
20
102.332078
70
0
0
VERTEX
8
Layer 1
10
86.648891
20
100.272737
70
0
0
VERTEX
8
Layer 1
10
86.588809
20
99.690377
70
0
0
VERTEX
8
Layer 1
10
86.783388
20
99.483396
70
0
0
VERTEX
8
Layer 1
10
87.288233
20
99.989067
70
0
0
VERTEX
8
Layer 1
10
88.176310
20
101.326110
70
0
0
VERTEX
8
Layer 1
10
90.518425
20
105.414476
70
0
0
VERTEX
8
Layer 1
10
92.642259
20
109.588832
70
0
0
VERTEX
8
Layer 1
10
93.257484
20
111.033362
70
0
0
VERTEX
8
Layer 1
10
93.380337
20
111.689515
70
0
0
VERTEX
8
Layer 1
10
92.564537
20
110.803160
70
0
0
VERTEX
8
Layer 1
10
90.875613
20
108.408679
70
0
0
VERTEX
8
Layer 1
10
90.875613
20
108.408679
70
0
0
SEQEND
8
Layer 1
0
POLYLINE
8
Layer 1
62
7
70
0
10
0.000000
20
0.000000
66
1
0
VERTEX
8
Layer 1
10
177.905945
20
111.407292
70
0
0
VERTEX
8
Layer 1
10
176.471682
20
108.940602
70
0
0
VERTEX
8
Layer 1
10
174.554554
20
105.008781
70
0
0
VERTEX
8
Layer 1
10
172.875552
20
101.162950
70
0
0
VERTEX
8
Layer 1
10
172.155664
20
98.954229
70
0
0
VERTEX
8
Layer 1
10
172.202767
20
98.797201
70
0
0
VERTEX
8
Layer 1
10
172.337358
20
98.842332
70
0
0
VERTEX
8
Layer 1
10
172.828698
20
99.461347
70
0
0
VERTEX
8
Layer 1
10
174.417853
20
102.270342
70
0
0
VERTEX
8
Layer 1
10
176.278206
20
106.137671
70
0
0
VERTEX
8
Layer 1
10
177.764834
20
109.819791
70
0
0
VERTEX
8
Layer 1
10
178.324869
20
111.658647
70
0
0
VERTEX
8
Layer 1
10
178.236124
20
111.759519
70
0
0
VERTEX
8
Layer 1
10
177.905945
20
111.407292
70
0
0
VERTEX
8
Layer 1
10
177.905945
20
111.407292
70
0
0
SEQEND
8
Layer 1
0
POLYLINE
8
Layer 1
62
7
70
0
10
0.000000
20
0.000000
66
1
0
VERTEX
8
Layer 1
10
391.124969
20
109.290624
70
0
0
VERTEX
8
Layer 1
10
392.507417
20
105.856551
70
0
0
VERTEX
8
Layer 1
10
394.114762
20
102.429092
70
0
0
VERTEX
8
Layer 1
10
395.470753
20
99.954134
70
0
0
VERTEX
8
Layer 1
10
395.905662
20
99.369432
70
0
0
VERTEX
8
Layer 1
10
396.036300
20
99.292004
70
0
0
VERTEX
8
Layer 1
10
396.099138
20
99.377563
70
0
0
VERTEX
8
Layer 1
10
395.900701
20
100.621105
70
0
0
VERTEX
8
Layer 1
10
395.252471
20
102.552565
70
0
0
VERTEX
8
Layer 1
10
394.051924
20
105.297067
70
0
0
VERTEX
8
Layer 1
10
392.553719
20
108.342534
70
0
0
VERTEX
8
Layer 1
10
391.214266
20
110.812531
70
0
0
VERTEX
8
Layer 1
10
390.489968
20
111.830626
70
0
0
VERTEX
8
Layer 1
10
390.542885
20
111.076563
70
0
0
VERTEX
8
Layer 1
10
391.124969
20
109.290624
70
0
0
VERTEX
8
Layer 1
10
391.124969
20
109.290624
70
0
0
SEQEND
8
Layer 1
0
POLYLINE
8
Layer 1
62
7
70
0
10
0.000000
20
0.000000
66
1
0
VERTEX
8
Layer 1
10
428.978048
20
109.502291
70
0
0
VERTEX
8
Layer 1
10
429.395869
20
108.321036
70
0
0
VERTEX
8
Layer 1
10
430.442077
20
106.058296
70
0
0
VERTEX
8
Layer 1
10
433.176106
20
100.894508
70
0
0
VERTEX
8
Layer 1
10
433.940642
20
99.805306
70
0
0
VERTEX
8
Layer 1
10
434.139149
20
99.731167
70
0
0
VERTEX
8
Layer 1
10
434.212392
20
99.933188
70
0
0
VERTEX
8
Layer 1
10
433.974818
20
101.053258
70
0
0
VERTEX
8
Layer 1
10
433.211384
20
102.940620
70
0
0
VERTEX
8
Layer 1
10
430.847771
20
107.390033
70
0
0
VERTEX
8
Layer 1
10
429.708960
20
109.285663
70
0
0
VERTEX
8
Layer 1
10
429.119159
20
110.066736
70
0
0
VERTEX
8
Layer 1
10
428.978048
20
109.502291
70
0
0
VERTEX
8
Layer 1
10
428.978048
20
109.502291
70
0
0
SEQEND
8
Layer 1
0
POLYLINE
8
Layer 1
62
7
70
0
10
0.000000
20
0.000000
66
1
0
VERTEX
8
Layer 1
10
138.218420
20
108.020624
70
0
0
VERTEX
8
Layer 1
10
136.542725
20
105.136663
70
0
0
VERTEX
8
Layer 1
10
136.035607
20
104.012184
70
0
0
VERTEX
8
Layer 1
10
135.925363
20
103.469787
70
0
0
VERTEX
8
Layer 1
10
136.452877
20
104.083842
70
0
0
VERTEX
8
Layer 1
10
137.473177
20
105.657011
70
0
0
VERTEX
8
Layer 1
10
139.206199
20
108.796735
70
0
0
VERTEX
8
Layer 1
10
139.344554
20
109.270781
70
0
0
VERTEX
8
Layer 1
10
139.201789
20
109.281805
70
0
0
VERTEX
8
Layer 1
10
138.218420
20
108.020624
70
0
0
VERTEX
8
Layer 1
10
138.218420
20
108.020624
70
0
0
SEQEND
8
Layer 1
0
POLYLINE
8
Layer 1
62
7
70
0
10
0.000000
20
0.000000
66
1
0
VERTEX
8
Layer 1
10
97.260895
20
105.057288
70
0
0
VERTEX
8
Layer 1
10
96.034991
20
103.169926
70
0
0
VERTEX
8
Layer 1
10
95.602838
20
101.917564
70
0
0
VERTEX
8
Layer 1
10
95.756627
20
101.673927
70
0
0
VERTEX
8
Layer 1
10
96.171693
20
102.005759
70
0
0
VERTEX
8
Layer 1
10
97.507839
20
104.104788
70
0
0
VERTEX
8
Layer 1
10
98.138981
20
105.369828
70
0
0
VERTEX
8
Layer 1
10
98.297180
20
105.996560
70
0
0
VERTEX
8
Layer 1
10
98.204093
20
106.048856
70
0
0
VERTEX
8
Layer 1
10
97.998972
20
105.915531
70
0
0
VERTEX
8
Layer 1
10
97.260895
20
105.057288
70
0
0
VERTEX
8
Layer 1
10
97.260895
20
105.057288
70
0
0
SEQEND
8
Layer 1
0
POLYLINE
8
Layer 1
62
7
70
0
10
0.000000
20
0.000000
66
1
0
VERTEX
8
Layer 1
10
503.414206
20
103.258121
70
0
0
VERTEX
8
Layer 1
10
503.729157
20
102.509225
70
0
0
VERTEX
8
Layer 1
10
504.564593
20
101.083575
70
0
0
VERTEX
8
Layer 1
10
507.140424
20
97.159471
70
0
0
VERTEX
8
Layer 1
10
509.828702
20
93.400732
70
0
0
VERTEX
8
Layer 1
10
510.804698
20
92.181787
70
0
0
VERTEX
8
Layer 1
10
511.316433
20
91.722280
70
0
0
VERTEX
8
Layer 1
10
511.490643
20
91.820801
70
0
0
VERTEX
8
Layer 1
10
511.519487
20
92.101999
70
0
0
VERTEX
8
Layer 1
10
511.194615
20
93.126226
70
0
0
VERTEX
8
Layer 1
10
509.389383
20
96.418637
70
0
0
VERTEX
8
Layer 1
10
506.757329
20
100.220371
70
0
0
VERTEX
8
Layer 1
10
505.398927
20
101.881253
70
0
0
VERTEX
8
Layer 1
10
504.155040
20
103.152287
70
0
0
VERTEX
8
Layer 1
10
503.546498
20
103.615308
70
0
0
VERTEX
8
Layer 1
10
503.440664
20
103.534280
70
0
0
VERTEX
8
Layer 1
10
503.414206
20
103.258121
70
0
0
VERTEX
8
Layer 1
10
503.414206
20
103.258121
70
0
0
SEQEND
8
Layer 1
0
POLYLINE
8
Layer 1
62
7
70
0
10
0.000000
20
0.000000
66
1
0
VERTEX
8
Layer 1
10
63.852818
20
101.705897
70
0
0
VERTEX
8
Layer 1
10
62.273585
20
99.714907
70
0
0
VERTEX
8
Layer 1
10
60.532295
20
97.234436
70
0
0
VERTEX
8
Layer 1
10
58.996057
20
94.820112
70
0
0
VERTEX
8
Layer 1
10
58.031981
20
93.027559
70
0
0
VERTEX
8
Layer 1
10
57.701803
20
91.864494
70
0
0
VERTEX
8
Layer 1
10
57.803158
20
91.686864
70
0
0
VERTEX
8
Layer 1
10
58.062849
20
91.766377
70
0
0
VERTEX
8
Layer 1
10
58.999364
20
92.660449
70
0
0
VERTEX
8
Layer 1
10
60.395594
20
94.473948
70
0
0
VERTEX
8
Layer 1
10
62.784562
20
97.961490
70
0
0
VERTEX
8
Layer 1
10
64.558374
20
100.784265
70
0
0
VERTEX
8
Layer 1
10
65.564894
20
102.674383
70
0
0
VERTEX
8
Layer 1
10
65.732877
20
103.185980
70
0
0
VERTEX
8
Layer 1
10
65.651986
20
103.363954
70
0
0
VERTEX
8
Layer 1
10
64.990527
20
102.878884
70
0
0
VERTEX
8
Layer 1
10
63.852818
20
101.705897
70
0
0
VERTEX
8
Layer 1
10
63.852818
20
101.705897
70
0
0
SEQEND
8
Layer 1
0
POLYLINE
8
Layer 1
62
7
70
0
10
0.000000
20
0.000000
66
1
0
VERTEX
8
Layer 1
10
153.705375
20
97.049228
70
0
0
VERTEX
8
Layer 1
10
151.961328
20
93.840050
70
0
0
VERTEX
8
Layer 1
10
150.574470
20
90.796238
70
0
0
VERTEX
8
Layer 1
10
149.756466
20
88.427113
70
0
0
VERTEX
8
Layer 1
10
149.626930
20
87.654722
70
0
0
VERTEX
8
Layer 1
10
149.718983
20
87.241999
70
0
0
VERTEX
8
Layer 1
10
150.077549
20
87.630606
70
0
0
VERTEX
8
Layer 1
10
150.801571
20
88.902261
70
0
0
VERTEX
8
Layer 1
10
152.823430
20
92.983461
70
0
0
VERTEX
8
Layer 1
10
154.739455
20
97.263099
70
0
0
VERTEX
8
Layer 1
10
155.331185
20
98.782801
70
0
0
VERTEX
8
Layer 1
10
155.504542
20
99.518674
70
0
0
VERTEX
8
Layer 1
10
155.322641
20
99.440401
70
0
0
VERTEX
8
Layer 1
10
154.922459
20
98.945410
70
0
0
VERTEX
8
Layer 1
10
153.705375
20
97.049228
70
0
0
VERTEX
8
Layer 1
10
153.705375
20
97.049228
70
0
0
SEQEND
8
Layer 1
0
POLYLINE
8
Layer 1
62
7
70
0
10
0.000000
20
0.000000
66
1
0
VERTEX
8
Layer 1
10
413.103038
20
99.730341
70
0
0
VERTEX
8
Layer 1
10
414.977171
20
94.822317
70
0
0
VERTEX
8
Layer 1
10
417.618596
20
88.723667
70
0
0
VERTEX
8
Layer 1
10
418.288875
20
87.616826
70
0
0
VERTEX
8
Layer 1
10
418.521488
20
87.369330
70
0
0
VERTEX
8
Layer 1
10
418.641653
20
87.383111
70
0
0
VERTEX
8
Layer 1
10
418.487312
20
88.622795
70
0
0
VERTEX
8
Layer 1
10
417.803805
20
90.897661
70
0
0
VERTEX
8
Layer 1
10
416.816026
20
93.549560
70
0
0
VERTEX
8
Layer 1
10
415.748873
20
95.920338
70
0
0
VERTEX
8
Layer 1
10
414.015851
20
98.896903
70
0
0
VERTEX
8
Layer 1
10
413.372582
20
99.705536
70
0
0
VERTEX
8
Layer 1
10
413.180553
20
99.831420
70
0
0
VERTEX
8
Layer 1
10
413.103038
20
99.730341
70
0
0
VERTEX
8
Layer 1
10
413.103038
20
99.730341
70
0
0
SEQEND
8
Layer 1
0
POLYLINE
8
Layer 1
62
7
70
0
10
0.000000
20
0.000000
66
1
0
VERTEX
8
Layer 1
10
136.948420
20
96.978672
70
0
0
VERTEX
8
Layer 1
10
135.662985
20
94.653093
70
0
0
VERTEX
8
Layer 1
10
134.470154
20
92.079468
70
0
0
VERTEX
8
Layer 1
10
133.713886
20
90.068082
70
0
0
VERTEX
8
Layer 1
10
133.606950
20
89.526444
70
0
0
VERTEX
8
Layer 1
10
133.738140
20
89.429223
70
0
0
VERTEX
8
Layer 1
10
135.956231
20
93.406795
70
0
0
VERTEX
8
Layer 1
10
137.936198
20
97.543117
70
0
0
VERTEX
8
Layer 1
10
137.841389
20
97.727774
70
0
0
VERTEX
8
Layer 1
10
137.601059
20
97.670999
70
0
0
VERTEX
8
Layer 1
10
136.948420
20
96.978672
70
0
0
VERTEX
8
Layer 1
10
136.948420
20
96.978672
70
0
0
SEQEND
8
Layer 1
0
POLYLINE
8
Layer 1
62
7
70
0
10
0.000000
20
0.000000
66
1
0
VERTEX
8
Layer 1
10
200.765960
20
96.978672
70
0
0
VERTEX
8
Layer 1
10
199.495959
20
94.015337
70
0
0
VERTEX
8
Layer 1
10
198.089808
20
90.597800
70
0
0
VERTEX
8
Layer 1
10
197.030923
20
87.418388
70
0
0
VERTEX
8
Layer 1
10
196.534277
20
85.244394
70
0
0
VERTEX
8
Layer 1
10
196.563974
20
84.774207
70
0
0
VERTEX
8
Layer 1
10
196.814846
20
84.843109
70
0
0
VERTEX
8
Layer 1
10
197.523709
20
86.313201
70
0
0
VERTEX
8
Layer 1
10
198.728667
20
89.301341
70
0
0
VERTEX
8
Layer 1
10
200.907071
20
95.426449
70
0
0
VERTEX
8
Layer 1
10
201.227327
20
96.740547
70
0
0
VERTEX
8
Layer 1
10
201.299537
20
97.551936
70
0
0
VERTEX
8
Layer 1
10
201.247791
20
97.715372
70
0
0
VERTEX
8
Layer 1
10
201.140235
20
97.688638
70
0
0
VERTEX
8
Layer 1
10
200.765960
20
96.978672
70
0
0
VERTEX
8
Layer 1
10
200.765960
20
96.978672
70
0
0
SEQEND
8
Layer 1
0
POLYLINE
8
Layer 1
62
7
70
0
10
0.000000
20
0.000000
66
1
0
VERTEX
8
Layer 1
10
224.437364
20
94.826726
70
0
0
VERTEX
8
Layer 1
10
223.321703
20
91.896464
70
0
0
VERTEX
8
Layer 1
10
222.576460
20
89.508598
70
0
0
VERTEX
8
Layer 1
10
222.294237
20
87.980628
70
0
0
VERTEX
8
Layer 1
10
222.355698
20
87.638323
70
0
0
VERTEX
8
Layer 1
10
222.567640
20
87.630055
70
0
0
VERTEX
8
Layer 1
10
222.954525
20
88.190228
70
0
0
VERTEX
8
Layer 1
10
223.486517
20
89.359770
70
0
0
VERTEX
8
Layer 1
10
224.706357
20
92.683600
70
0
0
VERTEX
8
Layer 1
10
225.668228
20
95.914826
70
0
0
VERTEX
8
Layer 1
10
225.877759
20
96.968613
70
0
0
VERTEX
8
Layer 1
10
225.813198
20
97.366728
70
0
0
VERTEX
8
Layer 1
10
225.284031
20
96.612665
70
0
0
VERTEX
8
Layer 1
10
224.437364
20
94.826726
70
0
0
VERTEX
8
Layer 1
10
224.437364
20
94.826726
70
0
0
SEQEND
8
Layer 1
0
POLYLINE
8
Layer 1
62
7
70
0
10
0.000000
20
0.000000
66
1
0
VERTEX
8
Layer 1
10
342.759105
20
96.414227
70
0
0
VERTEX
8
Layer 1
10
343.835078
20
92.926135
70
0
0
VERTEX
8
Layer 1
10
345.228551
20
89.041167
70
0
0
VERTEX
8
Layer 1
10
345.667318
20
88.187334
70
0
0
VERTEX
8
Layer 1
10
346.092857
20
87.660923
70
0
0
VERTEX
8
Layer 1
10
346.359645
20
87.577690
70
0
0
VERTEX
8
Layer 1
10
346.322163
20
88.053389
70
0
0
VERTEX
8
Layer 1
10
345.722440
20
90.311168
70
0
0
VERTEX
8
Layer 1
10
344.738520
20
93.368210
70
0
0
VERTEX
8
Layer 1
10
343.592543
20
96.061449
70
0
0
VERTEX
8
Layer 1
10
342.770680
20
97.405313
70
0
0
VERTEX
8
Layer 1
10
342.672831
20
97.414942
70
0
0
VERTEX
8
Layer 1
10
342.633221
20
97.263237
70
0
0
VERTEX
8
Layer 1
10
342.759105
20
96.414227
70
0
0
VERTEX
8
Layer 1
10
342.759105
20
96.414227
70
0
0
SEQEND
8
Layer 1
0
POLYLINE
8
Layer 1
62
7
70
0
10
0.000000
20
0.000000
66
1
0
VERTEX
8
Layer 1
10
367.912176
20
95.179504
70
0
0
VERTEX
8
Layer 1
10
369.477629
20
90.443460
70
0
0
VERTEX
8
Layer 1
10
371.228289
20
86.077832
70
0
0
VERTEX
8
Layer 1
10
371.951484
20
84.706408
70
0
0
VERTEX
8
Layer 1
10
372.101415
20
84.683808
70
0
0
VERTEX
8
Layer 1
10
372.145512
20
85.054776
70
0
0
VERTEX
8
Layer 1
10
371.996271
20
86.049720
70
0
0
VERTEX
8
Layer 1
10
371.553507
20
87.663128
70
0
0
VERTEX
8
Layer 1
10
370.134678
20
91.819294
70
0
0
VERTEX
8
Layer 1
10
368.583557
20
95.671189
70
0
0
VERTEX
8
Layer 1
10
367.975428
20
96.904258
70
0
0
VERTEX
8
Layer 1
10
367.594676
20
97.366728
70
0
0
VERTEX
8
Layer 1
10
367.554988
20
96.722908
70
0
0
VERTEX
8
Layer 1
10
367.912176
20
95.179504
70
0
0
VERTEX
8
Layer 1
10
367.912176
20
95.179504
70
0
0
SEQEND
8
Layer 1
0
POLYLINE
8
Layer 1
62
7
70
0
10
0.000000
20
0.000000
66
1
0
VERTEX
8
Layer 1
10
114.899795
20
90.064223
70
0
0
VERTEX
8
Layer 1
10
113.721296
20
87.814712
70
0
0
VERTEX
8
Layer 1
10
112.483265
20
85.059186
70
0
0
VERTEX
8
Layer 1
10
111.536277
20
82.627773
70
0
0
VERTEX
8
Layer 1
10
111.230903
20
81.350607
70
0
0
VERTEX
8
Layer 1
10
111.440779
20
81.464088
70
0
0
VERTEX
8
Layer 1
10
111.891260
20
82.112938
70
0
0
VERTEX
8
Layer 1
10
113.232919
20
84.485921
70
0
0
VERTEX
8
Layer 1
10
114.693640
20
87.407915
70
0
0
VERTEX
8
Layer 1
10
115.711184
20
89.817279
70
0
0
VERTEX
8
Layer 1
10
116.275629
20
91.969225
70
0
0
VERTEX
8
Layer 1
10
115.812608
20
91.466516
70
0
0
VERTEX
8
Layer 1
10
114.899795
20
90.064223
70
0
0
VERTEX
8
Layer 1
10
114.899795
20
90.064223
70
0
0
SEQEND
8
Layer 1
0
POLYLINE
8
Layer 1
62
7
70
0
10
0.000000
20
0.000000
66
1
0
VERTEX
8
Layer 1
10
177.306223
20
91.298946
70
0
0
VERTEX
8
Layer 1
10
175.919916
20
88.655316
70
0
0
VERTEX
8
Layer 1
10
174.523686
20
85.310540
70
0
0
VERTEX
8
Layer 1
10
173.530947
20
82.349410
70
0
0
VERTEX
8
Layer 1
10
173.315077
20
81.351709
70
0
0
VERTEX
8
Layer 1
10
173.355109
20
80.856718
70
0
0
VERTEX
8
Layer 1
10
173.831911
20
81.400216
70
0
0
VERTEX
8
Layer 1
10
174.708895
20
83.114497
70
0
0
VERTEX
8
Layer 1
10
176.882889
20
88.335611
70
0
0
VERTEX
8
Layer 1
10
177.967682
20
91.709051
70
0
0
VERTEX
8
Layer 1
10
177.966028
20
91.970534
70
0
0
VERTEX
8
Layer 1
10
177.855234
20
91.991824
70
0
0
VERTEX
8
Layer 1
10
177.306223
20
91.298946
70
0
0
VERTEX
8
Layer 1
10
177.306223
20
91.298946
70
0
0
SEQEND
8
Layer 1
0
POLYLINE
8
Layer 1
62
7
70
0
10
0.000000
20
0.000000
66
1
0
VERTEX
8
Layer 1
10
390.525246
20
91.757558
70
0
0
VERTEX
8
Layer 1
10
392.289136
20
86.818666
70
0
0
VERTEX
8
Layer 1
10
393.760331
20
83.247891
70
0
0
VERTEX
8
Layer 1
10
394.560144
20
81.641649
70
0
0
VERTEX
8
Layer 1
10
394.725854
20
81.552490
70
0
0
VERTEX
8
Layer 1
10
394.744802
20
81.927178
70
0
0
VERTEX
8
Layer 1
10
394.370526
20
84.031720
70
0
0
VERTEX
8
Layer 1
10
393.506771
20
86.682516
70
0
0
VERTEX
8
Layer 1
10
392.222990
20
89.574744
70
0
0
VERTEX
8
Layer 1
10
391.051657
20
91.626920
70
0
0
VERTEX
8
Layer 1
10
390.674557
20
92.000024
70
0
0
VERTEX
8
Layer 1
10
390.567268
20
91.964186
70
0
0
VERTEX
8
Layer 1
10
390.525246
20
91.757558
70
0
0
VERTEX
8
Layer 1
10
390.525246
20
91.757558
70
0
0
SEQEND
8
Layer 1
0
POLYLINE
8
Layer 1
62
7
70
0
10
0.000000
20
0.000000
66
1
0
VERTEX
8
Layer 1
10
424.744712
20
91.828113
70
0
0
VERTEX
8
Layer 1
10
425.171353
20
89.962800
70
0
0
VERTEX
8
Layer 1
10
426.199921
20
86.959777
70
0
0
VERTEX
8
Layer 1
10
427.532761
20
83.612796
70
0
0
VERTEX
8
Layer 1
10
428.872215
20
80.715606
70
0
0
VERTEX
8
Layer 1
10
429.701243
20
79.377806
70
0
0
VERTEX
8
Layer 1
10
429.886727
20
79.301118
70
0
0
VERTEX
8
Layer 1
10
429.921729
20
79.591127
70
0
0
VERTEX
8
Layer 1
10
429.546903
20
81.186896
70
0
0
VERTEX
8
Layer 1
10
428.589992
20
83.996442
70
0
0
VERTEX
8
Layer 1
10
427.200378
20
87.566665
70
0
0
VERTEX
8
Layer 1
10
425.966206
20
90.333217
70
0
0
VERTEX
8
Layer 1
10
425.082607
20
91.889298
70
0
0
VERTEX
8
Layer 1
10
424.833251
20
92.086289
70
0
0
VERTEX
8
Layer 1
10
424.744712
20
91.828113
70
0
0
VERTEX
8
Layer 1
10
424.744712
20
91.828113
70
0
0
SEQEND
8
Layer 1
0
POLYLINE
8
Layer 1
62
7
70
0
10
0.000000
20
0.000000
66
1
0
VERTEX
8
Layer 1
10
48.471697
20
90.452279
70
0
0
VERTEX
8
Layer 1
10
45.844052
20
88.274426
70
0
0
VERTEX
8
Layer 1
10
42.928673
20
85.332588
70
0
0
VERTEX
8
Layer 1
10
40.668138
20
82.648720
70
0
0
VERTEX
8
Layer 1
10
40.077992
20
81.722884
70
0
0
VERTEX
8
Layer 1
10
40.005025
20
81.244773
70
0
0
VERTEX
8
Layer 1
10
40.347744
20
81.185587
70
0
0
VERTEX
8
Layer 1
10
40.927760
20
81.459196
70
0
0
VERTEX
8
Layer 1
10
42.809610
20
83.013073
70
0
0
VERTEX
8
Layer 1
10
45.670419
20
85.922940
70
0
0
VERTEX
8
Layer 1
10
49.530031
20
90.205335
70
0
0
VERTEX
8
Layer 1
10
50.019511
20
90.898764
70
0
0
VERTEX
8
Layer 1
10
49.979823
20
91.175474
70
0
0
VERTEX
8
Layer 1
10
49.450656
20
91.028851
70
0
0
VERTEX
8
Layer 1
10
48.471697
20
90.452279
70
0
0
VERTEX
8
Layer 1
10
48.471697
20
90.452279
70
0
0
SEQEND
8
Layer 1
0
POLYLINE
8
Layer 1
62
7
70
0
10
0.000000
20
0.000000
66
1
0
VERTEX
8
Layer 1
10
519.500883
20
90.593390
70
0
0
VERTEX
8
Layer 1
10
524.241337
20
85.341408
70
0
0
VERTEX
8
Layer 1
10
528.002833
20
81.597551
70
0
0
VERTEX
8
Layer 1
10
528.858870
20
81.039721
70
0
0
VERTEX
8
Layer 1
10
529.347799
20
80.944912
70
0
0
VERTEX
8
Layer 1
10
529.446466
20
81.299895
70
0
0
VERTEX
8
Layer 1
10
529.131722
20
82.091441
70
0
0
VERTEX
8
Layer 1
10
527.947711
20
83.696029
70
0
0
VERTEX
8
Layer 1
10
525.930262
20
85.905853
70
0
0
VERTEX
8
Layer 1
10
523.635000
20
88.148749
70
0
0
VERTEX
8
Layer 1
10
521.617551
20
89.852557
70
0
0
VERTEX
8
Layer 1
10
520.200375
20
90.841437
70
0
0
VERTEX
8
Layer 1
10
519.328904
20
91.307766
70
0
0
VERTEX
8
Layer 1
10
519.119510
20
91.338772
70
0
0
VERTEX
8
Layer 1
10
519.072588
20
91.231698
70
0
0
VERTEX
8
Layer 1
10
519.500883
20
90.593390
70
0
0
VERTEX
8
Layer 1
10
519.500883
20
90.593390
70
0
0
SEQEND
8
Layer 1
0
POLYLINE
8
Layer 1
62
7
70
0
10
0.000000
20
0.000000
66
1
0
VERTEX
8
Layer 1
10
69.215044
20
88.829500
70
0
0
VERTEX
8
Layer 1
10
66.939074
20
85.706313
70
0
0
VERTEX
8
Layer 1
10
65.162506
20
82.894011
70
0
0
VERTEX
8
Layer 1
10
64.159845
20
80.862230
70
0
0
VERTEX
8
Layer 1
10
64.034512
20
80.285796
70
0
0
VERTEX
8
Layer 1
10
64.205596
20
80.080606
70
0
0
VERTEX
8
Layer 1
10
64.677023
20
80.436485
70
0
0
VERTEX
8
Layer 1
10
65.509772
20
81.393050
70
0
0
VERTEX
8
Layer 1
10
67.786293
20
84.441824
70
0
0
VERTEX
8
Layer 1
10
70.089272
20
87.894087
70
0
0
VERTEX
8
Layer 1
10
71.472823
20
90.417001
70
0
0
VERTEX
8
Layer 1
10
71.551647
20
91.002392
70
0
0
VERTEX
8
Layer 1
10
71.150913
20
90.893252
70
0
0
VERTEX
8
Layer 1
10
70.346689
20
90.149111
70
0
0
VERTEX
8
Layer 1
10
69.215044
20
88.829500
70
0
0
VERTEX
8
Layer 1
10
69.215044
20
88.829500
70
0
0
SEQEND
8
Layer 1
0
POLYLINE
8
Layer 1
62
7
70
0
10
0.000000
20
0.000000
66
1
0
VERTEX
8
Layer 1
10
497.769758
20
90.593390
70
0
0
VERTEX
8
Layer 1
10
498.073409
20
89.786204
70
0
0
VERTEX
8
Layer 1
10
498.876048
20
88.389079
70
0
0
VERTEX
8
Layer 1
10
501.328406
20
84.732866
70
0
0
VERTEX
8
Layer 1
10
503.827067
20
81.440455
70
0
0
VERTEX
8
Layer 1
10
504.687583
20
80.498083
70
0
0
VERTEX
8
Layer 1
10
504.949557
20
80.302152
70
0
0
VERTEX
8
Layer 1
10
505.072263
20
80.327551
70
0
0
VERTEX
8
Layer 1
10
504.899181
20
81.261310
70
0
0
VERTEX
8
Layer 1
10
504.084484
20
82.876372
70
0
0
VERTEX
8
Layer 1
10
502.740621
20
84.980913
70
0
0
VERTEX
8
Layer 1
10
500.980038
20
87.383111
70
0
0
VERTEX
8
Layer 1
10
498.395939
20
90.549293
70
0
0
VERTEX
8
Layer 1
10
497.904255
20
90.895457
70
0
0
VERTEX
8
Layer 1
10
497.769758
20
90.593390
70
0
0
VERTEX
8
Layer 1
10
497.769758
20
90.593390
70
0
0
SEQEND
8
Layer 1
0
POLYLINE
8
Layer 1
62
7
70
0
10
0.000000
20
0.000000
66
1
0
VERTEX
8
Layer 1
10
471.805297
20
89.041167
70
0
0
VERTEX
8
Layer 1
10
472.707637
20
86.848983
70
0
0
VERTEX
8
Layer 1
10
474.393806
20
83.330573
70
0
0
VERTEX
8
Layer 1
10
476.126276
20
79.977529
70
0
0
VERTEX
8
Layer 1
10
477.167523
20
78.281438
70
0
0
VERTEX
8
Layer 1
10
477.559988
20
78.113869
70
0
0
VERTEX
8
Layer 1
10
477.661412
20
78.634216
70
0
0
VERTEX
8
Layer 1
10
477.441477
20
79.828700
70
0
0
VERTEX
8
Layer 1
10
476.801516
20
81.522586
70
0
0
VERTEX
8
Layer 1
10
474.380577
20
86.183665
70
0
0
VERTEX
8
Layer 1
10
472.127207
20
89.623251
70
0
0
VERTEX
8
Layer 1
10
471.866689
20
89.854761
70
0
0
VERTEX
8
Layer 1
10
471.726473
20
89.834918
70
0
0
VERTEX
8
Layer 1
10
471.805297
20
89.041167
70
0
0
VERTEX
8
Layer 1
10
471.805297
20
89.041167
70
0
0
SEQEND
8
Layer 1
0
POLYLINE
8
Layer 1
62
7
70
0
10
0.000000
20
0.000000
66
1
0
VERTEX
8
Layer 1
10
91.193113
20
87.171444
70
0
0
VERTEX
8
Layer 1
10
88.600195
20
82.664705
70
0
0
VERTEX
8
Layer 1
10
86.959777
20
79.057550
70
0
0
VERTEX
8
Layer 1
10
86.871031
20
78.271516
70
0
0
VERTEX
8
Layer 1
10
87.387520
20
78.643036
70
0
0
VERTEX
8
Layer 1
10
88.413333
20
80.059660
70
0
0
VERTEX
8
Layer 1
10
89.852557
20
82.408941
70
0
0
VERTEX
8
Layer 1
10
92.586586
20
87.608007
70
0
0
VERTEX
8
Layer 1
10
93.156543
20
89.081406
70
0
0
VERTEX
8
Layer 1
10
93.210424
20
89.471460
70
0
0
VERTEX
8
Layer 1
10
93.098114
20
89.605612
70
0
0
VERTEX
8
Layer 1
10
92.396968
20
88.891237
70
0
0
VERTEX
8
Layer 1
10
91.193113
20
87.171444
70
0
0
VERTEX
8
Layer 1
10
91.193113
20
87.171444
70
0
0
SEQEND
8
Layer 1
0
POLYLINE
8
Layer 1
62
7
70
0
10
0.000000
20
0.000000
66
1
0
VERTEX
8
Layer 1
10
456.847510
20
87.771166
70
0
0
VERTEX
8
Layer 1
10
457.502905
20
85.541499
70
0
0
VERTEX
8
Layer 1
10
458.915671
20
82.289878
70
0
0
VERTEX
8
Layer 1
10
460.414426
20
79.441747
70
0
0
VERTEX
8
Layer 1
10
460.986244
20
78.614441
70
0
0
VERTEX
8
Layer 1
10
461.327791
20
78.422549
70
0
0
VERTEX
8
Layer 1
10
461.339917
20
79.037706
70
0
0
VERTEX
8
Layer 1
10
460.922096
20
80.354009
70
0
0
VERTEX
8
Layer 1
10
458.928900
20
84.772553
70
0
0
VERTEX
8
Layer 1
10
457.253205
20
87.859361
70
0
0
VERTEX
8
Layer 1
10
456.934602
20
88.155915
70
0
0
VERTEX
8
Layer 1
10
456.847510
20
87.771166
70
0
0
VERTEX
8
Layer 1
10
456.847510
20
87.771166
70
0
0
SEQEND
8
Layer 1
0
POLYLINE
8
Layer 1
62
7
70
0
10
0.000000
20
0.000000
66
1
0
VERTEX
8
Layer 1
10
487.398085
20
87.418388
70
0
0
VERTEX
8
Layer 1
10
488.563355
20
84.677744
70
0
0
VERTEX
8
Layer 1
10
490.317323
20
81.474079
70
0
0
VERTEX
8
Layer 1
10
491.952228
20
78.984789
70
0
0
VERTEX
8
Layer 1
10
492.503857
20
78.375972
70
0
0
VERTEX
8
Layer 1
10
492.674510
20
78.294909
70
0
0
VERTEX
8
Layer 1
10
492.760310
20
78.387272
70
0
0
VERTEX
8
Layer 1
10
492.591087
20
79.281895
70
0
0
VERTEX
8
Layer 1
10
491.909233
20
80.834669
70
0
0
VERTEX
8
Layer 1
10
489.232530
20
85.478109
70
0
0
VERTEX
8
Layer 1
10
487.468640
20
88.009292
70
0
0
VERTEX
8
Layer 1
10
487.308788
20
88.137725
70
0
0
VERTEX
8
Layer 1
10
487.248154
20
88.077642
70
0
0
VERTEX
8
Layer 1
10
487.398085
20
87.418388
70
0
0
VERTEX
8
Layer 1
10
487.398085
20
87.418388
70
0
0
SEQEND
8
Layer 1
0
POLYLINE
8
Layer 1
62
7
70
0
10
0.000000
20
0.000000
66
1
0
VERTEX
8
Layer 1
10
146.685092
20
85.336998
70
0
0
VERTEX
8
Layer 1
10
145.406272
20
82.034114
70
0
0
VERTEX
8
Layer 1
10
145.107513
20
80.797738
70
0
0
VERTEX
8
Layer 1
10
145.132869
20
80.186439
70
0
0
VERTEX
8
Layer 1
10
145.362244
20
80.286692
70
0
0
VERTEX
8
Layer 1
10
145.724324
20
80.823093
70
0
0
VERTEX
8
Layer 1
10
146.636585
20
82.713212
70
0
0
VERTEX
8
Layer 1
10
147.449628
20
84.874528
70
0
0
VERTEX
8
Layer 1
10
147.743426
20
86.324777
70
0
0
VERTEX
8
Layer 1
10
147.637593
20
86.815359
70
0
0
VERTEX
8
Layer 1
10
147.478843
20
86.862763
70
0
0
VERTEX
8
Layer 1
10
146.685092
20
85.336998
70
0
0
VERTEX
8
Layer 1
10
146.685092
20
85.336998
70
0
0
SEQEND
8
Layer 1
0
POLYLINE
8
Layer 1
62
7
70
0
10
0.000000
20
0.000000
66
1
0
VERTEX
8
Layer 1
10
441.148889
20
85.725054
70
0
0
VERTEX
8
Layer 1
10
441.920040
20
83.230803
70
0
0
VERTEX
8
Layer 1
10
443.402258
20
79.079598
70
0
0
VERTEX
8
Layer 1
10
444.983696
20
74.935008
70
0
0
VERTEX
8
Layer 1
10
446.052503
20
72.460601
70
0
0
VERTEX
8
Layer 1
10
446.581670
20
71.437545
70
0
0
VERTEX
8
Layer 1
10
446.616948
20
72.460601
70
0
0
VERTEX
8
Layer 1
10
446.198575
20
74.829726
70
0
0
VERTEX
8
Layer 1
10
445.122051
20
78.210883
70
0
0
VERTEX
8
Layer 1
10
443.655266
20
81.856623
70
0
0
VERTEX
8
Layer 1
10
442.066112
20
85.019498
70
0
0
VERTEX
8
Layer 1
10
441.131250
20
86.483527
70
0
0
VERTEX
8
Layer 1
10
441.054080
20
86.358952
70
0
0
VERTEX
8
Layer 1
10
441.148889
20
85.725054
70
0
0
VERTEX
8
Layer 1
10
441.148889
20
85.725054
70
0
0
SEQEND
8
Layer 1
0
POLYLINE
8
Layer 1
62
7
70
0
10
0.000000
20
0.000000
66
1
0
VERTEX
8
Layer 1
10
128.164247
20
79.833661
70
0
0
VERTEX
8
Layer 1
10
125.972614
20
75.415117
70
0
0
VERTEX
8
Layer 1
10
123.648689
20
69.885322
70
0
0
VERTEX
8
Layer 1
10
123.116215
20
67.950555
70
0
0
VERTEX
8
Layer 1
10
123.119109
20
67.525154
70
0
0
VERTEX
8
Layer 1
10
123.278272
20
67.451154
70
0
0
VERTEX
8
Layer 1
10
123.995955
20
68.327586
70
0
0
VERTEX
8
Layer 1
10
125.130357
20
70.520322
70
0
0
VERTEX
8
Layer 1
10
127.732094
20
76.804180
70
0
0
VERTEX
8
Layer 1
10
128.702234
20
79.484742
70
0
0
VERTEX
8
Layer 1
10
129.010915
20
80.680329
70
0
0
VERTEX
8
Layer 1
10
128.680185
20
80.495120
70
0
0
VERTEX
8
Layer 1
10
128.164247
20
79.833661
70
0
0
VERTEX
8
Layer 1
10
128.164247
20
79.833661
70
0
0
SEQEND
8
Layer 1
0
POLYLINE
8
Layer 1
62
7
70
0
10
0.000000
20
0.000000
66
1
0
VERTEX
8
Layer 1
10
227.612366
20
76.305881
70
0
0
VERTEX
8
Layer 1
10
226.447096
20
72.924725
70
0
0
VERTEX
8
Layer 1
10
225.672087
20
69.999975
70
0
0
VERTEX
8
Layer 1
10
225.399786
20
68.040954
70
0
0
VERTEX
8
Layer 1
10
225.487292
20
67.582756
70
0
0
VERTEX
8
Layer 1
10
225.742642
20
67.556987
70
0
0
VERTEX
8
Layer 1
10
226.247556
20
68.546970
70
0
0
VERTEX
8
Layer 1
10
227.056740
20
70.740808
70
0
0
VERTEX
8
Layer 1
10
228.529588
20
75.670881
70
0
0
VERTEX
8
Layer 1
10
229.155769
20
78.471056
70
0
0
VERTEX
8
Layer 1
10
229.154667
20
78.920297
70
0
0
VERTEX
8
Layer 1
10
228.988200
20
79.022272
70
0
0
VERTEX
8
Layer 1
10
228.445804
20
78.219702
70
0
0
VERTEX
8
Layer 1
10
227.612366
20
76.305881
70
0
0
VERTEX
8
Layer 1
10
227.612366
20
76.305881
70
0
0
SEQEND
8
Layer 1
0
POLYLINE
8
Layer 1
62
7
70
0
10
0.000000
20
0.000000
66
1
0
VERTEX
8
Layer 1
10
339.019658
20
78.422549
70
0
0
VERTEX
8
Layer 1
10
339.492050
20
75.908455
70
0
0
VERTEX
8
Layer 1
10
340.576291
20
72.200427
70
0
0
VERTEX
8
Layer 1
10
341.772980
20
68.842973
70
0
0
VERTEX
8
Layer 1
10
342.257430
20
67.778369
70
0
0
VERTEX
8
Layer 1
10
342.582716
20
67.380598
70
0
0
VERTEX
8
Layer 1
10
342.778880
20
67.552164
70
0
0
VERTEX
8
Layer 1
10
342.842338
20
68.045364
70
0
0
VERTEX
8
Layer 1
10
342.595945
20
69.867683
70
0
0
VERTEX
8
Layer 1
10
341.893145
20
72.589586
70
0
0
VERTEX
8
Layer 1
10
340.783548
20
75.953103
70
0
0
VERTEX
8
Layer 1
10
340.061456
20
77.742901
70
0
0
VERTEX
8
Layer 1
10
339.504728
20
78.788557
70
0
0
VERTEX
8
Layer 1
10
339.146438
20
79.033848
70
0
0
VERTEX
8
Layer 1
10
339.019658
20
78.422549
70
0
0
VERTEX
8
Layer 1
10
339.019658
20
78.422549
70
0
0
SEQEND
8
Layer 1
0
POLYLINE
8
Layer 1
62
7
70
0
10
0.000000
20
0.000000
66
1
0
VERTEX
8
Layer 1
10
515.055880
20
78.210883
70
0
0
VERTEX
8
Layer 1
10
515.868923
20
76.731971
70
0
0
VERTEX
8
Layer 1
10
517.697305
20
74.131887
70
0
0
VERTEX
8
Layer 1
10
519.624906
20
71.657480
70
0
0
VERTEX
8
Layer 1
10
520.735606
20
70.555600
70
0
0
VERTEX
8
Layer 1
10
520.995780
20
70.665843
70
0
0
VERTEX
8
Layer 1
10
520.964911
20
71.040670
70
0
0
VERTEX
8
Layer 1
10
519.924216
20
72.848657
70
0
0
VERTEX
8
Layer 1
10
518.647601
20
74.539787
70
0
0
VERTEX
8
Layer 1
10
517.040256
20
76.402895
70
0
0
VERTEX
8
Layer 1
10
515.657807
20
77.829441
70
0
0
VERTEX
8
Layer 1
10
515.224552
20
78.188834
70
0
0
VERTEX
8
Layer 1
10
515.055880
20
78.210883
70
0
0
VERTEX
8
Layer 1
10
515.055880
20
78.210883
70
0
0
SEQEND
8
Layer 1
0
POLYLINE
8
Layer 1
62
7
70
0
10
0.000000
20
0.000000
66
1
0
VERTEX
8
Layer 1
10
110.102014
20
76.446993
70
0
0
VERTEX
8
Layer 1
10
108.492464
20
73.329317
70
0
0
VERTEX
8
Layer 1
10
107.854708
20
71.848201
70
0
0
VERTEX
8
Layer 1
10
107.597290
20
70.978934
70
0
0
VERTEX
8
Layer 1
10
107.681557
20
70.680106
70
0
0
VERTEX
8
Layer 1
10
107.914239
20
70.731438
70
0
0
VERTEX
8
Layer 1
10
108.704131
20
71.697719
70
0
0
VERTEX
8
Layer 1
10
109.725534
20
73.504052
70
0
0
VERTEX
8
Layer 1
10
110.737014
20
75.776714
70
0
0
VERTEX
8
Layer 1
10
111.133889
20
76.992696
70
0
0
VERTEX
8
Layer 1
10
111.133889
20
77.540604
70
0
0
VERTEX
8
Layer 1
10
110.776702
20
77.374137
70
0
0
VERTEX
8
Layer 1
10
110.102014
20
76.446993
70
0
0
VERTEX
8
Layer 1
10
110.102014
20
76.446993
70
0
0
SEQEND
8
Layer 1
0
POLYLINE
8
Layer 1
62
7
70
0
10
0.000000
20
0.000000
66
1
0
VERTEX
8
Layer 1
10
51.470310
20
75.600325
70
0
0
VERTEX
8
Layer 1
10
49.243399
20
72.976539
70
0
0
VERTEX
8
Layer 1
10
48.568160
20
71.884581
70
0
0
VERTEX
8
Layer 1
10
48.154197
20
70.908378
70
0
0
VERTEX
8
Layer 1
10
47.907252
20
70.026433
70
0
0
VERTEX
8
Layer 1
10
48.859753
20
70.908378
70
0
0
VERTEX
8
Layer 1
10
50.122588
20
72.376816
70
0
0
VERTEX
8
Layer 1
10
51.659928
20
74.506714
70
0
0
VERTEX
8
Layer 1
10
52.873154
20
76.424944
70
0
0
VERTEX
8
Layer 1
10
53.171155
20
77.031832
70
0
0
VERTEX
8
Layer 1
10
53.163645
20
77.258382
70
0
0
VERTEX
8
Layer 1
10
51.470310
20
75.600325
70
0
0
VERTEX
8
Layer 1
10
51.470310
20
75.600325
70
0
0
SEQEND
8
Layer 1
0
POLYLINE
8
Layer 1
62
7
70
0
10
0.000000
20
0.000000
66
1
0
VERTEX
8
Layer 1
10
157.233155
20
75.776714
70
0
0
VERTEX
8
Layer 1
10
155.648961
20
72.659039
70
0
0
VERTEX
8
Layer 1
10
153.952319
20
68.800529
70
0
0
VERTEX
8
Layer 1
10
152.599636
20
65.299208
70
0
0
VERTEX
8
Layer 1
10
152.047318
20
63.253095
70
0
0
VERTEX
8
Layer 1
10
152.168034
20
62.830864
70
0
0
VERTEX
8
Layer 1
10
152.483881
20
62.865040
70
0
0
VERTEX
8
Layer 1
10
152.925404
20
63.322549
70
0
0
VERTEX
8
Layer 1
10
153.423152
20
64.170318
70
0
0
VERTEX
8
Layer 1
10
154.892693
20
67.463832
70
0
0
VERTEX
8
Layer 1
10
156.554057
20
71.706538
70
0
0
VERTEX
8
Layer 1
10
157.858233
20
75.426692
70
0
0
VERTEX
8
Layer 1
10
158.256211
20
77.152549
70
0
0
VERTEX
8
Layer 1
10
157.890204
20
76.821819
70
0
0
VERTEX
8
Layer 1
10
157.233155
20
75.776714
70
0
0
VERTEX
8
Layer 1
10
157.233155
20
75.776714
70
0
0
SEQEND
8
Layer 1
0
POLYLINE
8
Layer 1
62
7
70
0
10
0.000000
20
0.000000
66
1
0
VERTEX
8
Layer 1
10
410.280814
20
77.117271
70
0
0
VERTEX
8
Layer 1
10
413.455816
20
67.909765
70
0
0
VERTEX
8
Layer 1
10
414.999220
20
64.346707
70
0
0
VERTEX
8
Layer 1
10
415.608864
20
63.216715
70
0
0
VERTEX
8
Layer 1
10
415.960540
20
62.794484
70
0
0
VERTEX
8
Layer 1
10
416.204177
20
63.054727
70
0
0
VERTEX
8
Layer 1
10
416.209689
20
63.785018
70
0
0
VERTEX
8
Layer 1
10
415.598942
20
66.353132
70
0
0
VERTEX
8
Layer 1
10
414.313508
20
69.893590
70
0
0
VERTEX
8
Layer 1
10
412.538593
20
73.801158
70
0
0
VERTEX
8
Layer 1
10
410.920224
20
76.676298
70
0
0
VERTEX
8
Layer 1
10
410.450037
20
77.244050
70
0
0
VERTEX
8
Layer 1
10
410.324291
20
77.272851
70
0
0
VERTEX
8
Layer 1
10
410.280814
20
77.117271
70
0
0
VERTEX
8
Layer 1
10
410.280814
20
77.117271
70
0
0
SEQEND
8
Layer 1
0
POLYLINE
8
Layer 1
62
7
70
0
10
0.000000
20
0.000000
66
1
0
VERTEX
8
Layer 1
10
459.316956
20
77.117271
70
0
0
VERTEX
8
Layer 1
10
460.287095
20
74.370012
70
0
0
VERTEX
8
Layer 1
10
461.680569
20
71.225878
70
0
0
VERTEX
8
Layer 1
10
462.451168
20
70.233690
70
0
0
VERTEX
8
Layer 1
10
462.592141
20
70.340350
70
0
0
VERTEX
8
Layer 1
10
462.580152
20
70.776086
70
0
0
VERTEX
8
Layer 1
10
462.127053
20
72.416504
70
0
0
VERTEX
8
Layer 1
10
461.151402
20
74.718380
70
0
0
VERTEX
8
Layer 1
10
459.943137
20
76.751264
70
0
0
VERTEX
8
Layer 1
10
459.494447
20
77.223655
70
0
0
VERTEX
8
Layer 1
10
459.363947
20
77.252939
70
0
0
VERTEX
8
Layer 1
10
459.316956
20
77.117271
70
0
0
VERTEX
8
Layer 1
10
459.316956
20
77.117271
70
0
0
SEQEND
8
Layer 1
0
POLYLINE
8
Layer 1
62
7
70
0
10
0.000000
20
0.000000
66
1
0
VERTEX
8
Layer 1
10
171.132608
20
74.400880
70
0
0
VERTEX
8
Layer 1
10
170.353189
20
72.441309
70
0
0
VERTEX
8
Layer 1
10
169.871426
20
70.789315
70
0
0
VERTEX
8
Layer 1
10
169.773310
20
69.831854
70
0
0
VERTEX
8
Layer 1
10
169.894991
20
69.734495
70
0
0
VERTEX
8
Layer 1
10
170.144829
20
69.955877
70
0
0
VERTEX
8
Layer 1
10
170.794713
20
71.248478
70
0
0
VERTEX
8
Layer 1
10
171.586809
20
73.391053
70
0
0
VERTEX
8
Layer 1
10
172.213542
20
75.447639
70
0
0
VERTEX
8
Layer 1
10
172.367331
20
76.482270
70
0
0
VERTEX
8
Layer 1
10
171.921949
20
75.944284
70
0
0
VERTEX
8
Layer 1
10
171.132608
20
74.400880
70
0
0
VERTEX
8
Layer 1
10
171.132608
20
74.400880
70
0
0
SEQEND
8
Layer 1
0
POLYLINE
8
Layer 1
62
7
70
0
10
0.000000
20
0.000000
66
1
0
VERTEX
8
Layer 1
10
202.882628
20
72.601712
70
0
0
VERTEX
8
Layer 1
10
201.281898
20
67.702508
70
0
0
VERTEX
8
Layer 1
10
200.236793
20
63.782262
70
0
0
VERTEX
8
Layer 1
10
200.143086
20
62.650617
70
0
0
VERTEX
8
Layer 1
10
200.228111
20
62.470714
70
0
0
VERTEX
8
Layer 1
10
200.386723
20
62.534310
70
0
0
VERTEX
8
Layer 1
10
200.881715
20
63.350661
70
0
0
VERTEX
8
Layer 1
10
201.542071
20
65.016985
70
0
0
VERTEX
8
Layer 1
10
202.670961
20
68.433971
70
0
0
VERTEX
8
Layer 1
10
203.535267
20
71.583066
70
0
0
VERTEX
8
Layer 1
10
204.002698
20
73.892108
70
0
0
VERTEX
8
Layer 1
10
204.046244
20
74.552809
70
0
0
VERTEX
8
Layer 1
10
203.940962
20
74.788936
70
0
0
VERTEX
8
Layer 1
10
203.530857
20
74.145116
70
0
0
VERTEX
8
Layer 1
10
202.882628
20
72.601712
70
0
0
VERTEX
8
Layer 1
10
202.882628
20
72.601712
70
0
0
SEQEND
8
Layer 1
0
POLYLINE
8
Layer 1
62
7
70
0
10
0.000000
20
0.000000
66
1
0
VERTEX
8
Layer 1
10
364.243285
20
73.483657
70
0
0
VERTEX
8
Layer 1
10
364.941675
20
70.372045
70
0
0
VERTEX
8
Layer 1
10
365.914571
20
66.979313
70
0
0
VERTEX
8
Layer 1
10
366.907310
20
64.122362
70
0
0
VERTEX
8
Layer 1
10
367.665232
20
62.618095
70
0
0
VERTEX
8
Layer 1
10
367.863463
20
62.558702
70
0
0
VERTEX
8
Layer 1
10
367.934776
20
62.857323
70
0
0
VERTEX
8
Layer 1
10
367.731377
20
64.373166
70
0
0
VERTEX
8
Layer 1
10
367.124489
20
66.854738
70
0
0
VERTEX
8
Layer 1
10
366.183564
20
69.991155
70
0
0
VERTEX
8
Layer 1
10
365.205707
20
72.784165
70
0
0
VERTEX
8
Layer 1
10
364.499049
20
74.396470
70
0
0
VERTEX
8
Layer 1
10
364.274291
20
74.713351
70
0
0
VERTEX
8
Layer 1
10
364.149578
20
74.679244
70
0
0
VERTEX
8
Layer 1
10
364.243285
20
73.483657
70
0
0
VERTEX
8
Layer 1
10
364.243285
20
73.483657
70
0
0
SEQEND
8
Layer 1
0
POLYLINE
8
Layer 1
62
7
70
0
10
0.000000
20
0.000000
66
1
0
VERTEX
8
Layer 1
10
396.875250
20
74.012824
70
0
0
VERTEX
8
Layer 1
10
397.128258
20
72.964963
70
0
0
VERTEX
8
Layer 1
10
397.708688
20
71.450774
70
0
0
VERTEX
8
Layer 1
10
398.348649
20
70.088720
70
0
0
VERTEX
8
Layer 1
10
398.780251
20
69.497266
70
0
0
VERTEX
8
Layer 1
10
398.875612
20
69.869337
70
0
0
VERTEX
8
Layer 1
10
398.722925
20
70.806954
70
0
0
VERTEX
8
Layer 1
10
397.898306
20
73.307268
70
0
0
VERTEX
8
Layer 1
10
397.122195
20
74.718380
70
0
0
VERTEX
8
Layer 1
10
396.935884
20
74.626879
70
0
0
VERTEX
8
Layer 1
10
396.875250
20
74.012824
70
0
0
VERTEX
8
Layer 1
10
396.875250
20
74.012824
70
0
0
SEQEND
8
Layer 1
0
POLYLINE
8
Layer 1
62
7
70
0
10
0.000000
20
0.000000
66
1
0
VERTEX
8
Layer 1
10
66.569209
20
72.601712
70
0
0
VERTEX
8
Layer 1
10
64.226542
20
69.235990
70
0
0
VERTEX
8
Layer 1
10
62.194761
20
65.625527
70
0
0
VERTEX
8
Layer 1
10
61.062565
20
62.927878
70
0
0
VERTEX
8
Layer 1
10
61.017778
20
62.283094
70
0
0
VERTEX
8
Layer 1
10
61.157908
20
62.200015
70
0
0
VERTEX
8
Layer 1
10
61.418650
20
62.300595
70
0
0
VERTEX
8
Layer 1
10
62.023264
20
62.965774
70
0
0
VERTEX
8
Layer 1
10
62.954888
20
64.327966
70
0
0
VERTEX
8
Layer 1
10
65.268340
20
68.200807
70
0
0
VERTEX
8
Layer 1
10
67.297364
20
72.033960
70
0
0
VERTEX
8
Layer 1
10
67.873454
20
73.346543
70
0
0
VERTEX
8
Layer 1
10
67.980321
20
73.942269
70
0
0
VERTEX
8
Layer 1
10
67.499661
20
73.629178
70
0
0
VERTEX
8
Layer 1
10
66.569209
20
72.601712
70
0
0
VERTEX
8
Layer 1
10
66.569209
20
72.601712
70
0
0
SEQEND
8
Layer 1
0
POLYLINE
8
Layer 1
62
7
70
0
10
0.000000
20
0.000000
66
1
0
VERTEX
8
Layer 1
10
501.756149
20
72.037268
70
0
0
VERTEX
8
Layer 1
10
504.296151
20
67.265945
70
0
0
VERTEX
8
Layer 1
10
506.624486
20
63.500040
70
0
0
VERTEX
8
Layer 1
10
507.330042
20
62.618095
70
0
0
VERTEX
8
Layer 1
10
507.118375
20
63.852818
70
0
0
VERTEX
8
Layer 1
10
506.686222
20
65.246291
70
0
0
VERTEX
8
Layer 1
10
505.989485
20
66.851431
70
0
0
VERTEX
8
Layer 1
10
504.829177
20
68.863919
70
0
0
VERTEX
8
Layer 1
10
503.348060
20
71.124455
70
0
0
VERTEX
8
Layer 1
10
502.005850
20
72.968271
70
0
0
VERTEX
8
Layer 1
10
501.262260
20
73.730602
70
0
0
VERTEX
8
Layer 1
10
501.297538
20
73.227893
70
0
0
VERTEX
8
Layer 1
10
501.756149
20
72.037268
70
0
0
VERTEX
8
Layer 1
10
501.756149
20
72.037268
70
0
0
SEQEND
8
Layer 1
0
POLYLINE
8
Layer 1
62
7
70
0
10
0.000000
20
0.000000
66
1
0
VERTEX
8
Layer 1
10
95.461727
20
69.744211
70
0
0
VERTEX
8
Layer 1
10
93.710515
20
66.577477
70
0
0
VERTEX
8
Layer 1
10
92.458704
20
63.910144
70
0
0
VERTEX
8
Layer 1
10
91.835279
20
62.069635
70
0
0
VERTEX
8
Layer 1
10
91.799519
20
61.561759
70
0
0
VERTEX
8
Layer 1
10
91.969225
20
61.383372
70
0
0
VERTEX
8
Layer 1
10
92.488125
20
61.854386
70
0
0
VERTEX
8
Layer 1
10
93.302615
20
63.100960
70
0
0
VERTEX
8
Layer 1
10
95.333845
20
66.921987
70
0
0
VERTEX
8
Layer 1
10
97.093876
20
70.848847
70
0
0
VERTEX
8
Layer 1
10
97.569369
20
72.227713
70
0
0
VERTEX
8
Layer 1
10
97.613673
20
72.883935
70
0
0
VERTEX
8
Layer 1
10
96.908117
20
72.041677
70
0
0
VERTEX
8
Layer 1
10
95.461727
20
69.744211
70
0
0
VERTEX
8
Layer 1
10
95.461727
20
69.744211
70
0
0
SEQEND
8
Layer 1
0
POLYLINE
8
Layer 1
62
7
70
0
10
0.000000
20
0.000000
66
1
0
VERTEX
8
Layer 1
10
239.359873
20
71.190600
70
0
0
VERTEX
8
Layer 1
10
238.547381
20
69.056845
70
0
0
VERTEX
8
Layer 1
10
237.781191
20
66.503063
70
0
0
VERTEX
8
Layer 1
10
237.266356
20
64.299854
70
0
0
VERTEX
8
Layer 1
10
237.207927
20
63.217818
70
0
0
VERTEX
8
Layer 1
10
237.490150
20
63.171515
70
0
0
VERTEX
8
Layer 1
10
237.825289
20
63.535318
70
0
0
VERTEX
8
Layer 1
10
238.760150
20
65.651986
70
0
0
VERTEX
8
Layer 1
10
239.972825
20
70.035252
70
0
0
VERTEX
8
Layer 1
10
240.372456
20
72.041677
70
0
0
VERTEX
8
Layer 1
10
240.418207
20
72.989768
70
0
0
VERTEX
8
Layer 1
10
240.034561
20
72.513518
70
0
0
VERTEX
8
Layer 1
10
239.359873
20
71.190600
70
0
0
VERTEX
8
Layer 1
10
239.359873
20
71.190600
70
0
0
SEQEND
8
Layer 1
0
POLYLINE
8
Layer 1
62
7
70
0
10
0.000000
20
0.000000
66
1
0
VERTEX
8
Layer 1
10
327.730762
20
72.778101
70
0
0
VERTEX
8
Layer 1
10
328.348123
20
69.501676
70
0
0
VERTEX
8
Layer 1
10
329.494652
20
65.510875
70
0
0
VERTEX
8
Layer 1
10
330.464240
20
63.439406
70
0
0
VERTEX
8
Layer 1
10
330.720624
20
63.299535
70
0
0
VERTEX
8
Layer 1
10
330.821979
20
63.676429
70
0
0
VERTEX
8
Layer 1
10
330.551332
20
65.739078
70
0
0
VERTEX
8
Layer 1
10
329.635763
20
69.144488
70
0
0
VERTEX
8
Layer 1
10
328.405450
20
72.257754
70
0
0
VERTEX
8
Layer 1
10
327.934161
20
72.964412
70
0
0
VERTEX
8
Layer 1
10
327.790913
20
72.998174
70
0
0
VERTEX
8
Layer 1
10
327.730762
20
72.778101
70
0
0
VERTEX
8
Layer 1
10
327.730762
20
72.778101
70
0
0
SEQEND
8
Layer 1
0
POLYLINE
8
Layer 1
62
7
70
0
10
0.000000
20
0.000000
66
1
0
VERTEX
8
Layer 1
10
485.069750
20
72.672268
70
0
0
VERTEX
8
Layer 1
10
485.713570
20
71.106816
70
0
0
VERTEX
8
Layer 1
10
487.256974
20
67.980321
70
0
0
VERTEX
8
Layer 1
10
488.795968
20
65.281569
70
0
0
VERTEX
8
Layer 1
10
489.567669
20
64.381985
70
0
0
VERTEX
8
Layer 1
10
489.624445
20
64.606881
70
0
0
VERTEX
8
Layer 1
10
489.439787
20
65.281569
70
0
0
VERTEX
8
Layer 1
10
488.280030
20
67.980321
70
0
0
VERTEX
8
Layer 1
10
487.183111
20
70.052891
70
0
0
VERTEX
8
Layer 1
10
486.145723
20
71.728587
70
0
0
VERTEX
8
Layer 1
10
485.372919
20
72.703136
70
0
0
VERTEX
8
Layer 1
10
485.149814
20
72.832396
70
0
0
VERTEX
8
Layer 1
10
485.069750
20
72.672268
70
0
0
VERTEX
8
Layer 1
10
485.069750
20
72.672268
70
0
0
SEQEND
8
Layer 1
0
POLYLINE
8
Layer 1
62
7
70
0
10
0.000000
20
0.000000
66
1
0
VERTEX
8
Layer 1
10
82.620608
20
71.684490
70
0
0
VERTEX
8
Layer 1
10
81.196266
20
69.166537
70
0
0
VERTEX
8
Layer 1
10
80.433384
20
67.098376
70
0
0
VERTEX
8
Layer 1
10
80.568432
20
66.754968
70
0
0
VERTEX
8
Layer 1
10
80.958141
20
67.076327
70
0
0
VERTEX
8
Layer 1
10
82.408941
20
69.567822
70
0
0
VERTEX
8
Layer 1
10
83.181194
20
71.267771
70
0
0
VERTEX
8
Layer 1
10
83.480504
20
72.293032
70
0
0
VERTEX
8
Layer 1
10
83.449705
20
72.503045
70
0
0
VERTEX
8
Layer 1
10
83.296949
20
72.484855
70
0
0
VERTEX
8
Layer 1
10
82.620608
20
71.684490
70
0
0
VERTEX
8
Layer 1
10
82.620608
20
71.684490
70
0
0
SEQEND
8
Layer 1
0
POLYLINE
8
Layer 1
62
7
70
0
10
0.000000
20
0.000000
66
1
0
VERTEX
8
Layer 1
10
471.840575
20
71.437545
70
0
0
VERTEX
8
Layer 1
10
472.934187
20
68.897543
70
0
0
VERTEX
8
Layer 1
10
475.346306
20
64.333478
70
0
0
VERTEX
8
Layer 1
10
476.620166
20
62.254844
70
0
0
VERTEX
8
Layer 1
10
477.308634
20
61.383372
70
0
0
VERTEX
8
Layer 1
10
477.462630
20
61.639136
70
0
0
VERTEX
8
Layer 1
10
477.343361
20
62.344692
70
0
0
VERTEX
8
Layer 1
10
476.448738
20
64.734763
70
0
0
VERTEX
8
Layer 1
10
474.952187
20
67.812751
70
0
0
VERTEX
8
Layer 1
10
473.181131
20
70.837822
70
0
0
VERTEX
8
Layer 1
10
472.262255
20
72.067584
70
0
0
VERTEX
8
Layer 1
10
471.677415
20
72.606122
70
0
0
VERTEX
8
Layer 1
10
471.536097
20
72.602746
70
0
0
VERTEX
8
Layer 1
10
471.509294
20
72.410441
70
0
0
VERTEX
8
Layer 1
10
471.840575
20
71.437545
70
0
0
VERTEX
8
Layer 1
10
471.840575
20
71.437545
70
0
0
SEQEND
8
Layer 1
0
POLYLINE
8
Layer 1
62
7
70
0
10
0.000000
20
0.000000
66
1
0
VERTEX
8
Layer 1
10
140.335088
20
69.955877
70
0
0
VERTEX
8
Layer 1
10
139.410700
20
68.026071
70
0
0
VERTEX
8
Layer 1
10
138.628525
20
66.026812
70
0
0
VERTEX
8
Layer 1
10
138.117548
20
64.325210
70
0
0
VERTEX
8
Layer 1
10
138.006754
20
63.288373
70
0
0
VERTEX
8
Layer 1
10
138.146762
20
63.137891
70
0
0
VERTEX
8
Layer 1
10
138.412448
20
63.380977
70
0
0
VERTEX
8
Layer 1
10
139.347310
20
65.087541
70
0
0
VERTEX
8
Layer 1
10
141.058283
20
69.409071
70
0
0
VERTEX
8
Layer 1
10
141.510280
20
70.991060
70
0
0
VERTEX
8
Layer 1
10
141.499256
20
71.613934
70
0
0
VERTEX
8
Layer 1
10
141.049464
20
71.128864
70
0
0
VERTEX
8
Layer 1
10
140.335088
20
69.955877
70
0
0
VERTEX
8
Layer 1
10
140.335088
20
69.955877
70
0
0
SEQEND
8
Layer 1
0
POLYLINE
8
Layer 1
62
7
70
0
10
0.000000
20
0.000000
66
1
0
VERTEX
8
Layer 1
10
181.363170
20
67.345320
70
0
0
VERTEX
8
Layer 1
10
179.858902
20
63.792184
70
0
0
VERTEX
8
Layer 1
10
178.668828
20
60.377955
70
0
0
VERTEX
8
Layer 1
10
178.014535
20
57.810392
70
0
0
VERTEX
8
Layer 1
10
177.957553
20
57.065287
70
0
0
VERTEX
8
Layer 1
10
178.117612
20
56.797258
70
0
0
VERTEX
8
Layer 1
10
178.553141
20
57.380306
70
0
0
VERTEX
8
Layer 1
10
179.280126
20
58.921643
70
0
0
VERTEX
8
Layer 1
10
181.147093
20
63.632332
70
0
0
VERTEX
8
Layer 1
10
182.795779
20
68.435625
70
0
0
VERTEX
8
Layer 1
10
183.249912
20
70.092717
70
0
0
VERTEX
8
Layer 1
10
183.303449
20
70.837822
70
0
0
VERTEX
8
Layer 1
10
182.650809
20
69.885322
70
0
0
VERTEX
8
Layer 1
10
181.363170
20
67.345320
70
0
0
VERTEX
8
Layer 1
10
181.363170
20
67.345320
70
0
0
SEQEND
8
Layer 1
0
POLYLINE
8
Layer 1
62
7
70
0
10
0.000000
20
0.000000
66
1
0
VERTEX
8
Layer 1
10
384.880798
20
70.626156
70
0
0
VERTEX
8
Layer 1
10
385.083714
20
69.555902
70
0
0
VERTEX
8
Layer 1
10
385.624388
20
67.765898
70
0
0
VERTEX
8
Layer 1
10
387.310556
20
63.089936
70
0
0
VERTEX
8
Layer 1
10
389.122402
20
58.724859
70
0
0
VERTEX
8
Layer 1
10
389.820172
20
57.323462
70
0
0
VERTEX
8
Layer 1
10
390.243024
20
56.797258
70
0
0
VERTEX
8
Layer 1
10
390.381585
20
57.022361
70
0
0
VERTEX
8
Layer 1
10
390.332872
20
57.658808
70
0
0
VERTEX
8
Layer 1
10
389.744725
20
59.932572
70
0
0
VERTEX
8
Layer 1
10
388.620796
20
63.152223
70
0
0
VERTEX
8
Layer 1
10
387.103299
20
66.851431
70
0
0
VERTEX
8
Layer 1
10
385.409965
20
70.352753
70
0
0
VERTEX
8
Layer 1
10
385.009782
20
70.879715
70
0
0
VERTEX
8
Layer 1
10
384.880798
20
70.626156
70
0
0
VERTEX
8
Layer 1
10
384.880798
20
70.626156
70
0
0
SEQEND
8
Layer 1
0
POLYLINE
8
Layer 1
62
7
70
0
10
0.000000
20
0.000000
66
1
0
VERTEX
8
Layer 1
10
39.017247
20
67.380598
70
0
0
VERTEX
8
Layer 1
10
35.692865
20
64.140001
70
0
0
VERTEX
8
Layer 1
10
33.139083
20
61.035004
70
0
0
VERTEX
8
Layer 1
10
32.329968
20
59.782435
70
0
0
VERTEX
8
Layer 1
10
31.928063
20
58.862663
70
0
0
VERTEX
8
Layer 1
10
32.004888
20
58.375319
70
0
0
VERTEX
8
Layer 1
10
32.631965
20
58.420037
70
0
0
VERTEX
8
Layer 1
10
33.875507
20
59.667989
70
0
0
VERTEX
8
Layer 1
10
36.230301
20
62.371150
70
0
0
VERTEX
8
Layer 1
10
40.931067
20
68.103793
70
0
0
VERTEX
8
Layer 1
10
41.717101
20
69.197405
70
0
0
VERTEX
8
Layer 1
10
41.768915
20
69.497266
70
0
0
VERTEX
8
Layer 1
10
40.829644
20
68.875495
70
0
0
VERTEX
8
Layer 1
10
39.017247
20
67.380598
70
0
0
VERTEX
8
Layer 1
10
39.017247
20
67.380598
70
0
0
SEQEND
8
Layer 1
0
POLYLINE
8
Layer 1
62
7
70
0
10
0.000000
20
0.000000
66
1
0
VERTEX
8
Layer 1
10
427.708047
20
68.897543
70
0
0
VERTEX
8
Layer 1
10
428.272492
20
66.675042
70
0
0
VERTEX
8
Layer 1
10
429.357284
20
63.843999
70
0
0
VERTEX
8
Layer 1
10
429.939368
20
62.835274
70
0
0
VERTEX
8
Layer 1
10
430.389160
20
62.441706
70
0
0
VERTEX
8
Layer 1
10
430.484382
20
62.586814
70
0
0
VERTEX
8
Layer 1
10
430.463023
20
62.987409
70
0
0
VERTEX
8
Layer 1
10
430.133396
20
64.346707
70
0
0
VERTEX
8
Layer 1
10
429.525956
20
66.102880
70
0
0
VERTEX
8
Layer 1
10
428.766381
20
67.839209
70
0
0
VERTEX
8
Layer 1
10
427.787422
20
69.426710
70
0
0
VERTEX
8
Layer 1
10
427.605521
20
69.456476
70
0
0
VERTEX
8
Layer 1
10
427.708047
20
68.897543
70
0
0
VERTEX
8
Layer 1
10
427.708047
20
68.897543
70
0
0
SEQEND
8
Layer 1
0
POLYLINE
8
Layer 1
62
7
70
0
10
0.000000
20
0.000000
66
1
0
VERTEX
8
Layer 1
10
527.403110
20
69.320877
70
0
0
VERTEX
8
Layer 1
10
527.796747
20
68.607742
70
0
0
VERTEX
8
Layer 1
10
528.839027
20
67.233975
70
0
0
VERTEX
8
Layer 1
10
532.037731
20
63.447123
70
0
0
VERTEX
8
Layer 1
10
535.335654
20
59.845480
70
0
0
VERTEX
8
Layer 1
10
536.501957
20
58.703224
70
0
0
VERTEX
8
Layer 1
10
537.069227
20
58.314203
70
0
0
VERTEX
8
Layer 1
10
537.351794
20
58.597597
70
0
0
VERTEX
8
Layer 1
10
537.338772
20
59.112915
70
0
0
VERTEX
8
Layer 1
10
536.500373
20
60.735142
70
0
0
VERTEX
8
Layer 1
10
534.702859
20
62.972527
70
0
0
VERTEX
8
Layer 1
10
532.095057
20
65.616708
70
0
0
VERTEX
8
Layer 1
10
528.703979
20
68.580043
70
0
0
VERTEX
8
Layer 1
10
527.744312
20
69.267960
70
0
0
VERTEX
8
Layer 1
10
527.403110
20
69.320877
70
0
0
VERTEX
8
Layer 1
10
527.403110
20
69.320877
70
0
0
SEQEND
8
Layer 1
0
POLYLINE
8
Layer 1
62
7
70
0
10
0.000000
20
0.000000
66
1
0
VERTEX
8
Layer 1
10
258.762663
20
64.664207
70
0
0
VERTEX
8
Layer 1
10
258.542177
20
63.019380
70
0
0
VERTEX
8
Layer 1
10
258.374607
20
59.972260
70
0
0
VERTEX
8
Layer 1
10
258.339329
20
56.956008
70
0
0
VERTEX
8
Layer 1
10
258.434138
20
56.569055
70
0
0
VERTEX
8
Layer 1
10
258.621552
20
56.797258
70
0
0
VERTEX
8
Layer 1
10
258.923618
20
58.507129
70
0
0
VERTEX
8
Layer 1
10
259.185997
20
61.374553
70
0
0
VERTEX
8
Layer 1
10
259.316083
20
64.069997
70
0
0
VERTEX
8
Layer 1
10
259.221274
20
65.263930
70
0
0
VERTEX
8
Layer 1
10
258.762663
20
64.664207
70
0
0
VERTEX
8
Layer 1
10
258.762663
20
64.664207
70
0
0
SEQEND
8
Layer 1
0
POLYLINE
8
Layer 1
62
7
70
0
10
0.000000
20
0.000000
66
1
0
VERTEX
8
Layer 1
10
308.716028
20
62.088928
70
0
0
VERTEX
8
Layer 1
10
308.892417
20
57.661564
70
0
0
VERTEX
8
Layer 1
10
309.142669
20
56.492987
70
0
0
VERTEX
8
Layer 1
10
309.492139
20
56.091702
70
0
0
VERTEX
8
Layer 1
10
309.617196
20
56.382813
70
0
0
VERTEX
8
Layer 1
10
309.679001
20
57.163816
70
0
0
VERTEX
8
Layer 1
10
309.637660
20
59.641531
70
0
0
VERTEX
8
Layer 1
10
309.417725
20
62.416901
70
0
0
VERTEX
8
Layer 1
10
309.068806
20
64.381985
70
0
0
VERTEX
8
Layer 1
10
308.914465
20
64.757914
70
0
0
VERTEX
8
Layer 1
10
308.813042
20
64.558374
70
0
0
VERTEX
8
Layer 1
10
308.716028
20
62.088928
70
0
0
VERTEX
8
Layer 1
10
308.716028
20
62.088928
70
0
0
SEQEND
8
Layer 1
0
POLYLINE
8
Layer 1
62
7
70
0
10
0.000000
20
0.000000
66
1
0
VERTEX
8
Layer 1
10
446.969726
20
65.158097
70
0
0
VERTEX
8
Layer 1
10
448.345560
20
60.748372
70
0
0
VERTEX
8
Layer 1
10
449.477757
20
57.591008
70
0
0
VERTEX
8
Layer 1
10
450.629798
20
54.856979
70
0
0
VERTEX
8
Layer 1
10
451.530484
20
53.128367
70
0
0
VERTEX
8
Layer 1
10
451.801820
20
52.822993
70
0
0
VERTEX
8
Layer 1
10
451.908618
20
52.987256
70
0
0
VERTEX
8
Layer 1
10
451.560250
20
54.601215
70
0
0
VERTEX
8
Layer 1
10
450.709173
20
57.326425
70
0
0
VERTEX
8
Layer 1
10
449.646429
20
60.289760
70
0
0
VERTEX
8
Layer 1
10
448.663060
20
62.618095
70
0
0
VERTEX
8
Layer 1
10
447.445976
20
64.840596
70
0
0
VERTEX
8
Layer 1
10
447.095403
20
65.267237
70
0
0
VERTEX
8
Layer 1
10
446.969726
20
65.158097
70
0
0
VERTEX
8
Layer 1
10
446.969726
20
65.158097
70
0
0
SEQEND
8
Layer 1
0
POLYLINE
8
Layer 1
62
7
70
0
10
0.000000
20
0.000000
66
1
0
VERTEX
8
Layer 1
10
513.644768
20
65.158097
70
0
0
VERTEX
8
Layer 1
10
513.909351
20
64.383087
70
0
0
VERTEX
8
Layer 1
10
514.623727
20
63.006151
70
0
0
VERTEX
8
Layer 1
10
516.925603
20
59.372537
70
0
0
VERTEX
8
Layer 1
10
518.578148
20
57.180904
70
0
0
VERTEX
8
Layer 1
10
518.995556
20
56.815173
70
0
0
VERTEX
8
Layer 1
10
519.139285
20
56.894272
70
0
0
VERTEX
8
Layer 1
10
518.602401
20
58.261287
70
0
0
VERTEX
8
Layer 1
10
516.960881
20
61.030594
70
0
0
VERTEX
8
Layer 1
10
514.681053
20
64.218825
70
0
0
VERTEX
8
Layer 1
10
513.939668
20
65.053917
70
0
0
VERTEX
8
Layer 1
10
513.727933
20
65.207913
70
0
0
VERTEX
8
Layer 1
10
513.644768
20
65.158097
70
0
0
VERTEX
8
Layer 1
10
513.644768
20
65.158097
70
0
0
SEQEND
8
Layer 1
0
POLYLINE
8
Layer 1
62
7
70
0
10
0.000000
20
0.000000
66
1
0
VERTEX
8
Layer 1
10
53.445867
20
62.759206
70
0
0
VERTEX
8
Layer 1
10
51.990107
20
60.859166
70
0
0
VERTEX
8
Layer 1
10
50.795622
20
59.041808
70
0
0
VERTEX
8
Layer 1
10
50.017857
20
57.575023
70
0
0
VERTEX
8
Layer 1
10
49.812254
20
56.726702
70
0
0
VERTEX
8
Layer 1
10
49.995808
20
56.710717
70
0
0
VERTEX
8
Layer 1
10
50.354650
20
56.995696
70
0
0
VERTEX
8
Layer 1
10
51.399755
20
58.243648
70
0
0
VERTEX
8
Layer 1
10
54.045590
20
62.203581
70
0
0
VERTEX
8
Layer 1
10
55.021241
20
63.928886
70
0
0
VERTEX
8
Layer 1
10
55.315590
20
64.734763
70
0
0
VERTEX
8
Layer 1
10
54.711458
20
64.210006
70
0
0
VERTEX
8
Layer 1
10
53.445867
20
62.759206
70
0
0
VERTEX
8
Layer 1
10
53.445867
20
62.759206
70
0
0
SEQEND
8
Layer 1
0
POLYLINE
8
Layer 1
62
7
70
0
10
0.000000
20
0.000000
66
1
0
VERTEX
8
Layer 1
10
114.582294
20
60.818927
70
0
0
VERTEX
8
Layer 1
10
113.757676
20
58.997711
70
0
0
VERTEX
8
Layer 1
10
113.065349
20
57.044203
70
0
0
VERTEX
8
Layer 1
10
112.156946
20
54.539479
70
0
0
VERTEX
8
Layer 1
10
110.772292
20
51.399755
70
0
0
VERTEX
8
Layer 1
10
108.580659
20
46.231557
70
0
0
VERTEX
8
Layer 1
10
108.098345
20
44.533813
70
0
0
VERTEX
8
Layer 1
10
108.055901
20
43.497527
70
0
0
VERTEX
8
Layer 1
10
108.206521
20
43.419461
70
0
0
VERTEX
8
Layer 1
10
108.506796
20
43.779199
70
0
0
VERTEX
8
Layer 1
10
109.440555
20
45.565688
70
0
0
VERTEX
8
Layer 1
10
110.625669
20
48.364210
70
0
0
VERTEX
8
Layer 1
10
111.830626
20
51.681977
70
0
0
VERTEX
8
Layer 1
10
112.928648
20
54.746736
70
0
0
VERTEX
8
Layer 1
10
113.947294
20
57.150036
70
0
0
VERTEX
8
Layer 1
10
115.088310
20
59.796973
70
0
0
VERTEX
8
Layer 1
10
115.640628
20
61.656775
70
0
0
VERTEX
8
Layer 1
10
115.665020
20
62.119934
70
0
0
VERTEX
8
Layer 1
10
115.505029
20
62.180430
70
0
0
VERTEX
8
Layer 1
10
114.582294
20
60.818927
70
0
0
VERTEX
8
Layer 1
10
114.582294
20
60.818927
70
0
0
SEQEND
8
Layer 1
0
POLYLINE
8
Layer 1
62
7
70
0
10
0.000000
20
0.000000
66
1
0
VERTEX
8
Layer 1
10
245.251266
20
57.855592
70
0
0
VERTEX
8
Layer 1
10
244.821869
20
55.569150
70
0
0
VERTEX
8
Layer 1
10
244.567758
20
53.243020
70
0
0
VERTEX
8
Layer 1
10
244.531929
20
51.485744
70
0
0
VERTEX
8
Layer 1
10
244.609306
20
51.010596
70
0
0
VERTEX
8
Layer 1
10
244.757376
20
50.905865
70
0
0
VERTEX
8
Layer 1
10
245.165827
20
51.823639
70
0
0
VERTEX
8
Layer 1
10
245.537898
20
53.670763
70
0
0
VERTEX
8
Layer 1
10
245.784291
20
55.881689
70
0
0
VERTEX
8
Layer 1
10
245.815710
20
57.890870
70
0
0
VERTEX
8
Layer 1
10
245.709877
20
59.795871
70
0
0
VERTEX
8
Layer 1
10
245.251266
20
57.855592
70
0
0
VERTEX
8
Layer 1
10
245.251266
20
57.855592
70
0
0
SEQEND
8
Layer 1
0
POLYLINE
8
Layer 1
62
7
70
0
10
0.000000
20
0.000000
66
1
0
VERTEX
8
Layer 1
10
283.421845
20
57.255869
70
0
0
VERTEX
8
Layer 1
10
283.217895
20
55.018485
70
0
0
VERTEX
8
Layer 1
10
283.139623
20
51.792220
70
0
0
VERTEX
8
Layer 1
10
283.193642
20
48.678403
70
0
0
VERTEX
8
Layer 1
10
283.386567
20
46.778363
70
0
0
VERTEX
8
Layer 1
10
283.685395
20
46.087138
70
0
0
VERTEX
8
Layer 1
10
283.828324
20
46.008177
70
0
0
VERTEX
8
Layer 1
10
283.964793
20
46.090446
70
0
0
VERTEX
8
Layer 1
10
284.211944
20
46.689066
70
0
0
VERTEX
8
Layer 1
10
284.414033
20
47.783780
70
0
0
VERTEX
8
Layer 1
10
284.631763
20
51.064615
70
0
0
VERTEX
8
Layer 1
10
284.515457
20
55.139201
70
0
0
VERTEX
8
Layer 1
10
284.299932
20
57.285635
70
0
0
VERTEX
8
Layer 1
10
284.034797
20
58.367120
70
0
0
VERTEX
8
Layer 1
10
283.888794
20
58.502306
70
0
0
VERTEX
8
Layer 1
10
283.736589
20
58.363813
70
0
0
VERTEX
8
Layer 1
10
283.421845
20
57.255869
70
0
0
VERTEX
8
Layer 1
10
283.421845
20
57.255869
70
0
0
SEQEND
8
Layer 1
0
POLYLINE
8
Layer 1
62
7
70
0
10
0.000000
20
0.000000
66
1
0
VERTEX
8
Layer 1
10
359.868838
20
57.855592
70
0
0
VERTEX
8
Layer 1
10
360.000027
20
56.631893
70
0
0
VERTEX
8
Layer 1
10
360.362727
20
54.945173
70
0
0
VERTEX
8
Layer 1
10
360.831260
20
53.311370
70
0
0
VERTEX
8
Layer 1
10
361.279950
20
52.246422
70
0
0
VERTEX
8
Layer 1
10
361.421750
20
52.110616
70
0
0
VERTEX
8
Layer 1
10
361.481695
20
52.277841
70
0
0
VERTEX
8
Layer 1
10
361.385783
20
53.317985
70
0
0
VERTEX
8
Layer 1
10
360.539116
20
56.797258
70
0
0
VERTEX
8
Layer 1
10
360.045227
20
58.054030
70
0
0
VERTEX
8
Layer 1
10
359.923959
20
58.131751
70
0
0
VERTEX
8
Layer 1
10
359.868838
20
57.855592
70
0
0
VERTEX
8
Layer 1
10
359.868838
20
57.855592
70
0
0
SEQEND
8
Layer 1
0
POLYLINE
8
Layer 1
62
7
70
0
10
0.000000
20
0.000000
66
1
0
VERTEX
8
Layer 1
10
206.234019
20
55.280313
70
0
0
VERTEX
8
Layer 1
10
205.832734
20
53.679582
70
0
0
VERTEX
8
Layer 1
10
205.775407
20
52.634478
70
0
0
VERTEX
8
Layer 1
10
205.871319
20
52.562820
70
0
0
VERTEX
8
Layer 1
10
206.039991
20
52.802047
70
0
0
VERTEX
8
Layer 1
10
206.516241
20
54.080867
70
0
0
VERTEX
8
Layer 1
10
206.917526
20
55.681598
70
0
0
VERTEX
8
Layer 1
10
206.974853
20
56.726702
70
0
0
VERTEX
8
Layer 1
10
206.878941
20
56.798360
70
0
0
VERTEX
8
Layer 1
10
206.710269
20
56.559133
70
0
0
VERTEX
8
Layer 1
10
206.234019
20
55.280313
70
0
0
VERTEX
8
Layer 1
10
206.234019
20
55.280313
70
0
0
SEQEND
8
Layer 1
0
POLYLINE
8
Layer 1
62
7
70
0
10
0.000000
20
0.000000
66
1
0
VERTEX
8
Layer 1
10
304.341581
20
55.280313
70
0
0
VERTEX
8
Layer 1
10
304.260001
20
53.566583
70
0
0
VERTEX
8
Layer 1
10
304.350400
20
51.360067
70
0
0
VERTEX
8
Layer 1
10
304.559862
20
49.411520
70
0
0
VERTEX
8
Layer 1
10
304.835470
20
48.471697
70
0
0
VERTEX
8
Layer 1
10
305.019162
20
48.665932
70
0
0
VERTEX
8
Layer 1
10
305.147458
20
49.383959
70
0
0
VERTEX
8
Layer 1
10
305.241164
20
51.774581
70
0
0
VERTEX
8
Layer 1
10
305.123204
20
54.409943
70
0
0
VERTEX
8
Layer 1
10
304.800192
20
56.056424
70
0
0
VERTEX
8
Layer 1
10
304.688846
20
56.168321
70
0
0
VERTEX
8
Layer 1
10
304.570886
20
56.078473
70
0
0
VERTEX
8
Layer 1
10
304.341581
20
55.280313
70
0
0
VERTEX
8
Layer 1
10
304.341581
20
55.280313
70
0
0
SEQEND
8
Layer 1
0
POLYLINE
8
Layer 1
62
7
70
0
10
0.000000
20
0.000000
66
1
0
VERTEX
8
Layer 1
10
322.297981
20
54.433645
70
0
0
VERTEX
8
Layer 1
10
322.202069
20
53.047338
70
0
0
VERTEX
8
Layer 1
10
322.271522
20
51.889234
70
0
0
VERTEX
8
Layer 1
10
322.486497
20
51.094932
70
0
0
VERTEX
8
Layer 1
10
322.827148
20
50.800032
70
0
0
VERTEX
8
Layer 1
10
323.045429
20
51.405267
70
0
0
VERTEX
8
Layer 1
10
323.118190
20
52.810867
70
0
0
VERTEX
8
Layer 1
10
323.045429
20
54.401675
70
0
0
VERTEX
8
Layer 1
10
322.827148
20
55.562535
70
0
0
VERTEX
8
Layer 1
10
322.679973
20
55.802865
70
0
0
VERTEX
8
Layer 1
10
322.549335
20
55.712466
70
0
0
VERTEX
8
Layer 1
10
322.297981
20
54.433645
70
0
0
VERTEX
8
Layer 1
10
322.297981
20
54.433645
70
0
0
SEQEND
8
Layer 1
0
POLYLINE
8
Layer 1
62
7
70
0
10
0.000000
20
0.000000
66
1
0
VERTEX
8
Layer 1
10
76.799771
20
54.080867
70
0
0
VERTEX
8
Layer 1
10
75.492838
20
51.717255
70
0
0
VERTEX
8
Layer 1
10
74.334734
20
49.168434
70
0
0
VERTEX
8
Layer 1
10
73.580120
20
47.056175
70
0
0
VERTEX
8
Layer 1
10
73.433703
20
46.358061
70
0
0
VERTEX
8
Layer 1
10
73.483657
20
46.002251
70
0
0
VERTEX
8
Layer 1
10
74.012824
20
46.681349
70
0
0
VERTEX
8
Layer 1
10
75.071158
20
48.577531
70
0
0
VERTEX
8
Layer 1
10
76.710474
20
51.972468
70
0
0
VERTEX
8
Layer 1
10
77.655257
20
54.385138
70
0
0
VERTEX
8
Layer 1
10
77.815523
20
55.052592
70
0
0
VERTEX
8
Layer 1
10
77.740144
20
55.269840
70
0
0
VERTEX
8
Layer 1
10
77.408450
20
54.968669
70
0
0
VERTEX
8
Layer 1
10
76.799771
20
54.080867
70
0
0
VERTEX
8
Layer 1
10
76.799771
20
54.080867
70
0
0
SEQEND
8
Layer 1
0
POLYLINE
8
Layer 1
62
7
70
0
10
0.000000
20
0.000000
66
1
0
VERTEX
8
Layer 1
10
491.631421
20
53.904478
70
0
0
VERTEX
8
Layer 1
10
492.581717
20
51.734342
70
0
0
VERTEX
8
Layer 1
10
493.995033
20
48.952357
70
0
0
VERTEX
8
Layer 1
10
495.302517
20
46.626779
70
0
0
VERTEX
8
Layer 1
10
495.738804
20
45.968972
70
0
0
VERTEX
8
Layer 1
10
495.935312
20
45.825862
70
0
0
VERTEX
8
Layer 1
10
495.845189
20
46.489870
70
0
0
VERTEX
8
Layer 1
10
495.425989
20
47.691727
70
0
0
VERTEX
8
Layer 1
10
493.977394
20
50.936733
70
0
0
VERTEX
8
Layer 1
10
492.343591
20
54.016375
70
0
0
VERTEX
8
Layer 1
10
491.692881
20
55.011526
70
0
0
VERTEX
8
Layer 1
10
491.278643
20
55.386146
70
0
0
VERTEX
8
Layer 1
10
491.309511
20
54.949583
70
0
0
VERTEX
8
Layer 1
10
491.631421
20
53.904478
70
0
0
VERTEX
8
Layer 1
10
491.631421
20
53.904478
70
0
0
SEQEND
8
Layer 1
0
POLYLINE
8
Layer 1
62
7
70
0
10
0.000000
20
0.000000
66
1
0
VERTEX
8
Layer 1
10
42.933083
20
52.493366
70
0
0
VERTEX
8
Layer 1
10
40.150546
20
48.775968
70
0
0
VERTEX
8
Layer 1
10
39.098275
20
47.021449
70
0
0
VERTEX
8
Layer 1
10
38.241135
20
45.296695
70
0
0
VERTEX
8
Layer 1
10
37.677793
20
43.748882
70
0
0
VERTEX
8
Layer 1
10
37.718996
20
43.513237
70
0
0
VERTEX
8
Layer 1
10
37.967732
20
43.629819
70
0
0
VERTEX
8
Layer 1
10
39.064651
20
44.899820
70
0
0
VERTEX
8
Layer 1
10
40.922248
20
47.519197
70
0
0
VERTEX
8
Layer 1
10
44.229542
20
52.656526
70
0
0
VERTEX
8
Layer 1
10
44.861235
20
53.913849
70
0
0
VERTEX
8
Layer 1
10
44.930275
20
54.224804
70
0
0
VERTEX
8
Layer 1
10
44.838084
20
54.327812
70
0
0
VERTEX
8
Layer 1
10
44.150167
20
53.781006
70
0
0
VERTEX
8
Layer 1
10
42.933083
20
52.493366
70
0
0
VERTEX
8
Layer 1
10
42.933083
20
52.493366
70
0
0
SEQEND
8
Layer 1
0
POLYLINE
8
Layer 1
62
7
70
0
10
0.000000
20
0.000000
66
1
0
VERTEX
8
Layer 1
10
129.787026
20
52.634478
70
0
0
VERTEX
8
Layer 1
10
127.926122
20
48.321767
70
0
0
VERTEX
8
Layer 1
10
126.647302
20
44.591139
70
0
0
VERTEX
8
Layer 1
10
126.761955
20
44.533813
70
0
0
VERTEX
8
Layer 1
10
127.035358
20
44.661695
70
0
0
VERTEX
8
Layer 1
10
127.495898
20
45.239093
70
0
0
VERTEX
8
Layer 1
10
128.133379
20
46.410151
70
0
0
VERTEX
8
Layer 1
10
129.601818
20
49.706420
70
0
0
VERTEX
8
Layer 1
10
130.765985
20
52.896856
70
0
0
VERTEX
8
Layer 1
10
131.023127
20
53.935622
70
0
0
VERTEX
8
Layer 1
10
130.951194
20
54.327812
70
0
0
VERTEX
8
Layer 1
10
130.501402
20
53.838333
70
0
0
VERTEX
8
Layer 1
10
129.787026
20
52.634478
70
0
0
VERTEX
8
Layer 1
10
129.787026
20
52.634478
70
0
0
SEQEND
8
Layer 1
0
POLYLINE
8
Layer 1
62
7
70
0
10
0.000000
20
0.000000
66
1
0
VERTEX
8
Layer 1
10
437.585831
20
52.846144
70
0
0
VERTEX
8
Layer 1
10
438.624873
20
49.834302
70
0
0
VERTEX
8
Layer 1
10
439.733367
20
47.087044
70
0
0
VERTEX
8
Layer 1
10
440.676497
20
45.146765
70
0
0
VERTEX
8
Layer 1
10
441.012670
20
44.648741
70
0
0
VERTEX
8
Layer 1
10
441.219445
20
44.555861
70
0
0
VERTEX
8
Layer 1
10
441.226473
20
45.127679
70
0
0
VERTEX
8
Layer 1
10
440.931710
20
46.305971
70
0
0
VERTEX
8
Layer 1
10
439.764235
20
49.640274
70
0
0
VERTEX
8
Layer 1
10
438.371865
20
52.875359
70
0
0
VERTEX
8
Layer 1
10
437.795982
20
53.929628
70
0
0
VERTEX
8
Layer 1
10
437.409442
20
54.327812
70
0
0
VERTEX
8
Layer 1
10
437.352116
20
53.891249
70
0
0
VERTEX
8
Layer 1
10
437.585831
20
52.846144
70
0
0
VERTEX
8
Layer 1
10
437.585831
20
52.846144
70
0
0
SEQEND
8
Layer 1
0
POLYLINE
8
Layer 1
62
7
70
0
10
0.000000
20
0.000000
66
1
0
VERTEX
8
Layer 1
10
456.353621
20
53.410589
70
0
0
VERTEX
8
Layer 1
10
457.269741
20
50.524975
70
0
0
VERTEX
8
Layer 1
10
458.602581
20
47.100273
70
0
0
VERTEX
8
Layer 1
10
459.895732
20
44.237810
70
0
0
VERTEX
8
Layer 1
10
460.384798
20
43.361584
70
0
0
VERTEX
8
Layer 1
10
460.692790
20
43.038916
70
0
0
VERTEX
8
Layer 1
10
460.831972
20
43.194634
70
0
0
VERTEX
8
Layer 1
10
460.833901
20
43.636434
70
0
0
VERTEX
8
Layer 1
10
460.472304
20
45.226140
70
0
0
VERTEX
8
Layer 1
10
459.700602
20
47.503763
70
0
0
VERTEX
8
Layer 1
10
458.611400
20
50.165032
70
0
0
VERTEX
8
Layer 1
10
457.534325
20
52.458089
70
0
0
VERTEX
8
Layer 1
10
456.715218
20
53.878020
70
0
0
VERTEX
8
Layer 1
10
456.279758
20
54.252847
70
0
0
VERTEX
8
Layer 1
10
456.353621
20
53.410589
70
0
0
VERTEX
8
Layer 1
10
456.353621
20
53.410589
70
0
0
SEQEND
8
Layer 1
0
POLYLINE
8
Layer 1
62
7
70
0
10
0.000000
20
0.000000
66
1
0
VERTEX
8
Layer 1
10
524.228108
20
54.045590
70
0
0
VERTEX
8
Layer 1
10
525.216989
20
52.169803
70
0
0
VERTEX
8
Layer 1
10
527.456027
20
48.723052
70
0
0
VERTEX
8
Layer 1
10
529.853815
20
45.309373
70
0
0
VERTEX
8
Layer 1
10
531.318946
20
43.532805
70
0
0
VERTEX
8
Layer 1
10
531.586148
20
43.524744
70
0
0
VERTEX
8
Layer 1
10
531.544944
20
43.971022
70
0
0
VERTEX
8
Layer 1
10
530.719223
20
45.874369
70
0
0
VERTEX
8
Layer 1
10
529.205585
20
48.538394
70
0
0
VERTEX
8
Layer 1
10
527.367832
20
51.258643
70
0
0
VERTEX
8
Layer 1
10
525.176199
20
53.750138
70
0
0
VERTEX
8
Layer 1
10
524.485526
20
54.230247
70
0
0
VERTEX
8
Layer 1
10
524.295012
20
54.228249
70
0
0
VERTEX
8
Layer 1
10
524.228108
20
54.045590
70
0
0
VERTEX
8
Layer 1
10
524.228108
20
54.045590
70
0
0
SEQEND
8
Layer 1
0
POLYLINE
8
Layer 1
62
7
70
0
10
0.000000
20
0.000000
66
1
0
VERTEX
8
Layer 1
10
419.276653
20
53.093089
70
0
0
VERTEX
8
Layer 1
10
420.219232
20
49.423647
70
0
0
VERTEX
8
Layer 1
10
421.313946
20
45.803814
70
0
0
VERTEX
8
Layer 1
10
422.342514
20
42.918200
70
0
0
VERTEX
8
Layer 1
10
423.086655
20
41.451415
70
0
0
VERTEX
8
Layer 1
10
423.212333
20
41.404010
70
0
0
VERTEX
8
Layer 1
10
423.271864
20
41.627804
70
0
0
VERTEX
8
Layer 1
10
423.192489
20
42.862527
70
0
0
VERTEX
8
Layer 1
10
422.605444
20
45.367251
70
0
0
VERTEX
8
Layer 1
10
421.538842
20
48.798017
70
0
0
VERTEX
8
Layer 1
10
420.399479
20
51.950970
70
0
0
VERTEX
8
Layer 1
10
419.594153
20
53.622256
70
0
0
VERTEX
8
Layer 1
10
419.170820
20
53.886839
70
0
0
VERTEX
8
Layer 1
10
419.276653
20
53.093089
70
0
0
VERTEX
8
Layer 1
10
419.276653
20
53.093089
70
0
0
SEQEND
8
Layer 1
0
POLYLINE
8
Layer 1
62
7
70
0
10
0.000000
20
0.000000
66
1
0
VERTEX
8
Layer 1
10
147.214259
20
51.152810
70
0
0
VERTEX
8
Layer 1
10
145.813069
20
47.464075
70
0
0
VERTEX
8
Layer 1
10
144.762452
20
44.132528
70
0
0
VERTEX
8
Layer 1
10
144.267461
20
41.885773
70
0
0
VERTEX
8
Layer 1
10
144.292403
20
41.396569
70
0
0
VERTEX
8
Layer 1
10
144.533147
20
41.451415
70
0
0
VERTEX
8
Layer 1
10
145.005263
20
42.197830
70
0
0
VERTEX
8
Layer 1
10
145.611324
20
43.539971
70
0
0
VERTEX
8
Layer 1
10
146.967315
20
47.232564
70
0
0
VERTEX
8
Layer 1
10
148.085180
20
50.971460
70
0
0
VERTEX
8
Layer 1
10
148.393585
20
52.371479
70
0
0
VERTEX
8
Layer 1
10
148.448982
20
53.198922
70
0
0
VERTEX
8
Layer 1
10
148.310627
20
53.221522
70
0
0
VERTEX
8
Layer 1
10
148.030059
20
52.850554
70
0
0
VERTEX
8
Layer 1
10
147.214259
20
51.152810
70
0
0
VERTEX
8
Layer 1
10
147.214259
20
51.152810
70
0
0
SEQEND
8
Layer 1
0
POLYLINE
8
Layer 1
62
7
70
0
10
0.000000
20
0.000000
66
1
0
VERTEX
8
Layer 1
10
211.666800
20
52.705033
70
0
0
VERTEX
8
Layer 1
10
210.580905
20
49.308443
70
0
0
VERTEX
8
Layer 1
10
209.673604
20
45.561279
70
0
0
VERTEX
8
Layer 1
10
209.216095
20
42.793074
70
0
0
VERTEX
8
Layer 1
10
209.240762
20
42.191560
70
0
0
VERTEX
8
Layer 1
10
209.331282
20
42.159159
70
0
0
VERTEX
8
Layer 1
10
209.479576
20
42.333360
70
0
0
VERTEX
8
Layer 1
10
210.062211
20
43.610527
70
0
0
VERTEX
8
Layer 1
10
210.727529
20
45.645063
70
0
0
VERTEX
8
Layer 1
10
211.843189
20
50.411976
70
0
0
VERTEX
8
Layer 1
10
212.204786
20
53.370902
70
0
0
VERTEX
8
Layer 1
10
212.150492
20
53.557695
70
0
0
VERTEX
8
Layer 1
10
212.041627
20
53.512564
70
0
0
VERTEX
8
Layer 1
10
211.666800
20
52.705033
70
0
0
VERTEX
8
Layer 1
10
211.666800
20
52.705033
70
0
0
SEQEND
8
Layer 1
0
POLYLINE
8
Layer 1
62
7
70
0
10
0.000000
20
0.000000
66
1
0
VERTEX
8
Layer 1
10
60.289760
20
51.752533
70
0
0
VERTEX
8
Layer 1
10
58.805337
20
49.125990
70
0
0
VERTEX
8
Layer 1
10
57.436668
20
46.271244
70
0
0
VERTEX
8
Layer 1
10
56.524406
20
43.978739
70
0
0
VERTEX
8
Layer 1
10
56.345881
20
43.290339
70
0
0
VERTEX
8
Layer 1
10
56.409202
20
43.038916
70
0
0
VERTEX
8
Layer 1
10
57.156099
20
43.929680
70
0
0
VERTEX
8
Layer 1
10
58.442085
20
46.116904
70
0
0
VERTEX
8
Layer 1
10
59.866978
20
48.872982
70
0
0
VERTEX
8
Layer 1
10
61.030594
20
51.470310
70
0
0
VERTEX
8
Layer 1
10
61.445659
20
52.724877
70
0
0
VERTEX
8
Layer 1
10
61.440698
20
53.198922
70
0
0
VERTEX
8
Layer 1
10
61.045477
20
52.879217
70
0
0
VERTEX
8
Layer 1
10
60.289760
20
51.752533
70
0
0
VERTEX
8
Layer 1
10
60.289760
20
51.752533
70
0
0
SEQEND
8
Layer 1
0
POLYLINE
8
Layer 1
62
7
70
0
10
0.000000
20
0.000000
66
1
0
VERTEX
8
Layer 1
10
163.688992
20
51.717255
70
0
0
VERTEX
8
Layer 1
10
162.101491
20
46.990030
70
0
0
VERTEX
8
Layer 1
10
161.043157
20
43.497527
70
0
0
VERTEX
8
Layer 1
10
161.021108
20
43.175617
70
0
0
VERTEX
8
Layer 1
10
161.184268
20
43.038916
70
0
0
VERTEX
8
Layer 1
10
161.565709
20
43.452259
70
0
0
VERTEX
8
Layer 1
10
162.105901
20
44.546491
70
0
0
VERTEX
8
Layer 1
10
163.371492
20
47.902843
70
0
0
VERTEX
8
Layer 1
10
164.398958
20
51.358413
70
0
0
VERTEX
8
Layer 1
10
164.641493
20
52.576669
70
0
0
VERTEX
8
Layer 1
10
164.606215
20
53.163645
70
0
0
VERTEX
8
Layer 1
10
164.253437
20
52.824096
70
0
0
VERTEX
8
Layer 1
10
163.688992
20
51.717255
70
0
0
VERTEX
8
Layer 1
10
163.688992
20
51.717255
70
0
0
SEQEND
8
Layer 1
0
POLYLINE
8
Layer 1
62
7
70
0
10
0.000000
20
0.000000
66
1
0
VERTEX
8
Layer 1
10
355.741335
20
51.152810
70
0
0
VERTEX
8
Layer 1
10
356.100728
20
48.819514
70
0
0
VERTEX
8
Layer 1
10
356.764391
20
45.980203
70
0
0
VERTEX
8
Layer 1
10
357.507430
20
43.478235
70
0
0
VERTEX
8
Layer 1
10
358.104948
20
42.156971
70
0
0
VERTEX
8
Layer 1
10
358.249160
20
42.108946
70
0
0
VERTEX
8
Layer 1
10
358.312756
20
42.328399
70
0
0
VERTEX
8
Layer 1
10
358.206371
20
43.528395
70
0
0
VERTEX
8
Layer 1
10
357.117169
20
48.683364
70
0
0
VERTEX
8
Layer 1
10
356.391218
20
51.470310
70
0
0
VERTEX
8
Layer 1
10
355.913314
20
52.828505
70
0
0
VERTEX
8
Layer 1
10
355.770481
20
52.963553
70
0
0
VERTEX
8
Layer 1
10
355.693379
20
52.731492
70
0
0
VERTEX
8
Layer 1
10
355.741335
20
51.152810
70
0
0
VERTEX
8
Layer 1
10
355.741335
20
51.152810
70
0
0
SEQEND
8
Layer 1
0
POLYLINE
8
Layer 1
62
7
70
0
10
0.000000
20
0.000000
66
1
0
VERTEX
8
Layer 1
10
403.436921
20
52.034755
70
0
0
VERTEX
8
Layer 1
10
404.486435
20
48.158607
70
0
0
VERTEX
8
Layer 1
10
406.012200
20
44.097250
70
0
0
VERTEX
8
Layer 1
10
406.753034
20
42.509749
70
0
0
VERTEX
8
Layer 1
10
406.576645
20
44.097250
70
0
0
VERTEX
8
Layer 1
10
406.120238
20
46.158245
70
0
0
VERTEX
8
Layer 1
10
405.306644
20
48.864163
70
0
0
VERTEX
8
Layer 1
10
404.413675
20
51.365028
70
0
0
VERTEX
8
Layer 1
10
403.719143
20
52.810867
70
0
0
VERTEX
8
Layer 1
10
403.451804
20
53.106318
70
0
0
VERTEX
8
Layer 1
10
403.326678
20
53.110728
70
0
0
VERTEX
8
Layer 1
10
403.436921
20
52.034755
70
0
0
VERTEX
8
Layer 1
10
403.436921
20
52.034755
70
0
0
SEQEND
8
Layer 1
0
POLYLINE
8
Layer 1
62
7
70
0
10
0.000000
20
0.000000
66
1
0
VERTEX
8
Layer 1
10
477.132245
20
52.528644
70
0
0
VERTEX
8
Layer 1
10
478.799121
20
48.449649
70
0
0
VERTEX
8
Layer 1
10
480.730581
20
44.450028
70
0
0
VERTEX
8
Layer 1
10
481.388388
20
43.447642
70
0
0
VERTEX
8
Layer 1
10
481.720013
20
43.210895
70
0
0
VERTEX
8
Layer 1
10
481.763076
20
43.609149
70
0
0
VERTEX
8
Layer 1
10
481.555199
20
44.511764
70
0
0
VERTEX
8
Layer 1
10
480.537104
20
47.307530
70
0
0
VERTEX
8
Layer 1
10
478.966691
20
50.553087
70
0
0
VERTEX
8
Layer 1
10
477.348322
20
53.022533
70
0
0
VERTEX
8
Layer 1
10
477.026963
20
53.192308
70
0
0
VERTEX
8
Layer 1
10
477.132245
20
52.528644
70
0
0
VERTEX
8
Layer 1
10
477.132245
20
52.528644
70
0
0
SEQEND
8
Layer 1
0
POLYLINE
8
Layer 1
62
7
70
0
10
0.000000
20
0.000000
66
1
0
VERTEX
8
Layer 1
10
507.823931
20
52.563922
70
0
0
VERTEX
8
Layer 1
10
508.527833
20
50.779086
70
0
0
VERTEX
8
Layer 1
10
509.830356
20
48.048364
70
0
0
VERTEX
8
Layer 1
10
511.232097
20
45.370558
70
0
0
VERTEX
8
Layer 1
10
512.233656
20
43.744472
70
0
0
VERTEX
8
Layer 1
10
512.974490
20
42.862527
70
0
0
VERTEX
8
Layer 1
10
512.762823
20
43.744472
70
0
0
VERTEX
8
Layer 1
10
512.039077
20
45.564035
70
0
0
VERTEX
8
Layer 1
10
510.729940
20
48.299718
70
0
0
VERTEX
8
Layer 1
10
509.334813
20
50.962641
70
0
0
VERTEX
8
Layer 1
10
508.353098
20
52.563922
70
0
0
VERTEX
8
Layer 1
10
507.612264
20
53.445867
70
0
0
VERTEX
8
Layer 1
10
507.823931
20
52.563922
70
0
0
VERTEX
8
Layer 1
10
507.823931
20
52.563922
70
0
0
SEQEND
8
Layer 1
0
POLYLINE
8
Layer 1
62
7
70
0
10
0.000000
20
0.000000
66
1
0
VERTEX
8
Layer 1
10
90.628668
20
50.729476
70
0
0
VERTEX
8
Layer 1
10
89.129913
20
47.784883
70
0
0
VERTEX
8
Layer 1
10
88.004882
20
45.058570
70
0
0
VERTEX
8
Layer 1
10
87.547924
20
43.377362
70
0
0
VERTEX
8
Layer 1
10
87.661957
20
43.187055
70
0
0
VERTEX
8
Layer 1
10
88.053389
20
43.568083
70
0
0
VERTEX
8
Layer 1
10
89.357565
20
45.772946
70
0
0
VERTEX
8
Layer 1
10
90.840335
20
48.903850
70
0
0
VERTEX
8
Layer 1
10
91.952688
20
51.704026
70
0
0
VERTEX
8
Layer 1
10
92.198392
20
52.587349
70
0
0
VERTEX
8
Layer 1
10
92.145614
20
52.916700
70
0
0
VERTEX
8
Layer 1
10
91.585579
20
52.272880
70
0
0
VERTEX
8
Layer 1
10
90.628668
20
50.729476
70
0
0
VERTEX
8
Layer 1
10
90.628668
20
50.729476
70
0
0
SEQEND
8
Layer 1
0
POLYLINE
8
Layer 1
62
7
70
0
10
0.000000
20
0.000000
66
1
0
VERTEX
8
Layer 1
10
230.222923
20
51.223366
70
0
0
VERTEX
8
Layer 1
10
229.279242
20
48.714783
70
0
0
VERTEX
8
Layer 1
10
228.362019
20
45.018883
70
0
0
VERTEX
8
Layer 1
10
227.801984
20
41.673555
70
0
0
VERTEX
8
Layer 1
10
227.759265
20
40.612947
70
0
0
VERTEX
8
Layer 1
10
227.929866
20
40.216692
70
0
0
VERTEX
8
Layer 1
10
228.140361
20
40.407275
70
0
0
VERTEX
8
Layer 1
10
228.396745
20
40.960833
70
0
0
VERTEX
8
Layer 1
10
229.019068
20
43.047735
70
0
0
VERTEX
8
Layer 1
10
230.505145
20
50.376698
70
0
0
VERTEX
8
Layer 1
10
230.562472
20
51.421803
70
0
0
VERTEX
8
Layer 1
10
230.440653
20
51.482988
70
0
0
VERTEX
8
Layer 1
10
230.222923
20
51.223366
70
0
0
VERTEX
8
Layer 1
10
230.222923
20
51.223366
70
0
0
SEQEND
8
Layer 1
0
POLYLINE
8
Layer 1
62
7
70
0
10
0.000000
20
0.000000
66
1
0
VERTEX
8
Layer 1
10
336.902990
20
50.905865
70
0
0
VERTEX
8
Layer 1
10
337.542400
20
46.804821
70
0
0
VERTEX
8
Layer 1
10
338.631602
20
41.698360
70
0
0
VERTEX
8
Layer 1
10
339.072575
20
40.528680
70
0
0
VERTEX
8
Layer 1
10
339.434172
20
40.225511
70
0
0
VERTEX
8
Layer 1
10
339.623790
20
40.755781
70
0
0
VERTEX
8
Layer 1
10
339.548825
20
42.086415
70
0
0
VERTEX
8
Layer 1
10
338.455213
20
47.131141
70
0
0
VERTEX
8
Layer 1
10
337.762886
20
49.686576
70
0
0
VERTEX
8
Layer 1
10
337.255768
20
51.117532
70
0
0
VERTEX
8
Layer 1
10
336.986775
20
51.421803
70
0
0
VERTEX
8
Layer 1
10
336.902990
20
50.905865
70
0
0
VERTEX
8
Layer 1
10
336.902990
20
50.905865
70
0
0
SEQEND
8
Layer 1
0
POLYLINE
8
Layer 1
62
7
70
0
10
0.000000
20
0.000000
66
1
0
VERTEX
8
Layer 1
10
188.947897
20
49.706420
70
0
0
VERTEX
8
Layer 1
10
188.163517
20
47.406197
70
0
0
VERTEX
8
Layer 1
10
187.408903
20
44.586729
70
0
0
VERTEX
8
Layer 1
10
186.859341
20
41.972314
70
0
0
VERTEX
8
Layer 1
10
186.690118
20
40.287248
70
0
0
VERTEX
8
Layer 1
10
186.768941
20
39.595472
70
0
0
VERTEX
8
Layer 1
10
186.897375
20
39.489087
70
0
0
VERTEX
8
Layer 1
10
187.607340
20
41.416137
70
0
0
VERTEX
8
Layer 1
10
189.036091
20
47.003259
70
0
0
VERTEX
8
Layer 1
10
189.532185
20
49.576885
70
0
0
VERTEX
8
Layer 1
10
189.618175
20
50.764754
70
0
0
VERTEX
8
Layer 1
10
189.349182
20
50.513400
70
0
0
VERTEX
8
Layer 1
10
188.947897
20
49.706420
70
0
0
VERTEX
8
Layer 1
10
188.947897
20
49.706420
70
0
0
SEQEND
8
Layer 1
0
POLYLINE
8
Layer 1
62
7
70
0
10
0.000000
20
0.000000
66
1
0
VERTEX
8
Layer 1
10
377.825238
20
50.376698
70
0
0
VERTEX
8
Layer 1
10
378.482287
20
46.363849
70
0
0
VERTEX
8
Layer 1
10
379.694961
20
41.451415
70
0
0
VERTEX
8
Layer 1
10
380.387288
20
39.467039
70
0
0
VERTEX
8
Layer 1
10
380.503595
20
39.615867
70
0
0
VERTEX
8
Layer 1
10
380.576906
20
40.393081
70
0
0
VERTEX
8
Layer 1
10
380.331064
20
42.541720
70
0
0
VERTEX
8
Layer 1
10
379.642045
20
45.834682
70
0
0
VERTEX
8
Layer 1
10
378.820733
20
48.955665
70
0
0
VERTEX
8
Layer 1
10
378.178016
20
50.588365
70
0
0
VERTEX
8
Layer 1
10
377.909023
20
50.720657
70
0
0
VERTEX
8
Layer 1
10
377.825238
20
50.376698
70
0
0
VERTEX
8
Layer 1
10
377.825238
20
50.376698
70
0
0
SEQEND
8
Layer 1
0
POLYLINE
8
Layer 1
62
7
70
0
10
0.000000
20
0.000000
66
1
0
VERTEX
8
Layer 1
10
263.454610
20
49.036142
70
0
0
VERTEX
8
Layer 1
10
263.018048
20
44.816035
70
0
0
VERTEX
8
Layer 1
10
263.003165
20
43.038365
70
0
0
VERTEX
8
Layer 1
10
263.137110
20
41.627804
70
0
0
VERTEX
8
Layer 1
10
263.384055
20
40.040303
70
0
0
VERTEX
8
Layer 1
10
263.666277
20
41.627804
70
0
0
VERTEX
8
Layer 1
10
263.816208
20
43.837076
70
0
0
VERTEX
8
Layer 1
10
263.807388
20
46.919474
70
0
0
VERTEX
8
Layer 1
10
263.683916
20
49.565309
70
0
0
VERTEX
8
Layer 1
10
263.589107
20
49.657913
70
0
0
VERTEX
8
Layer 1
10
263.454610
20
49.036142
70
0
0
VERTEX
8
Layer 1
10
263.454610
20
49.036142
70
0
0
SEQEND
8
Layer 1
 0 
ENDSEC
 0 
EOF