999
DXF File generated by ImageToStl.com - Free Image and 3D model conversion tools
0
SECTION
2
HEADER
9
$ACADVER
1
AC1009
9
$EXTMIN
10
0
20
0
9
$EXTMAX
10
1434.000000
20
776.115217
0
ENDSEC
0
SECTION
2
ENTITIES
0
LINE
8
0
10
782.500000
20
0.814877
11
774.651678
21
1.731145
0
LINE
8
0
10
774.651678
20
1.731145
11
758.408917
21
4.752750
0
LINE
8
0
10
758.408917
20
4.752750
11
742.415059
21
9.094542
0
LINE
8
0
10
742.415059
20
9.094542
11
727.842576
21
14.438233
0
LINE
8
0
10
727.842576
20
14.438233
11
721.455749
21
17.386326
0
LINE
8
0
10
721.455749
20
17.386326
11
712.790331
21
22.210481
0
LINE
8
0
10
712.790331
20
22.210481
11
697.176752
21
33.796818
0
LINE
8
0
10
697.176752
20
33.796818
11
683.894764
21
47.874492
0
LINE
8
0
10
683.894764
20
47.874492
11
672.994667
21
64.332269
0
LINE
8
0
10
672.994667
20
64.332269
11
664.526762
21
83.058910
0
LINE
8
0
10
664.526762
20
83.058910
11
658.541346
21
103.943179
0
LINE
8
0
10
658.541346
20
103.943179
11
655.088720
21
126.873839
0
LINE
8
0
10
655.088720
20
126.873839
11
654.219184
21
151.739654
0
LINE
8
0
10
654.219184
20
151.739654
11
654.768793
21
164.863483
0
LINE
8
0
10
654.768793
20
164.863483
11
655.887642
21
178.173563
0
LINE
8
0
10
655.887642
20
178.173563
11
659.491678
21
202.879866
0
LINE
8
0
10
659.491678
20
202.879866
11
665.069994
21
225.657028
0
LINE
8
0
10
665.069994
20
225.657028
11
672.805585
21
247.252252
0
LINE
8
0
10
672.805585
20
247.252252
11
677.539546
21
257.840137
0
LINE
8
0
10
677.539546
20
257.840137
11
681.675106
21
266.084139
0
LINE
8
0
10
681.675106
20
266.084139
11
690.447212
21
280.923443
0
LINE
8
0
10
690.447212
20
280.923443
11
700.037968
21
293.679751
0
LINE
8
0
10
700.037968
20
293.679751
11
710.628174
21
304.491389
0
LINE
8
0
10
710.628174
20
304.491389
11
722.398630
21
313.496683
0
LINE
8
0
10
722.398630
20
313.496683
11
735.530136
21
320.833959
0
LINE
8
0
10
735.530136
20
320.833959
11
750.203493
21
326.641543
0
LINE
8
0
10
750.203493
20
326.641543
11
766.599502
21
331.057762
0
LINE
8
0
10
766.599502
20
331.057762
11
775.500000
21
332.787336
0
LINE
8
0
10
775.500000
20
332.787336
11
778.629232
21
333.252090
0
LINE
8
0
10
778.629232
20
333.252090
11
786.129043
21
333.976618
0
LINE
8
0
10
786.129043
20
333.976618
11
799.564150
21
334.557987
0
LINE
8
0
10
799.564150
20
334.557987
11
818.986686
21
334.409360
0
LINE
8
0
10
818.986686
20
334.409360
11
832.543439
21
333.621441
0
LINE
8
0
10
832.543439
20
333.621441
11
840.182275
21
332.781067
0
LINE
8
0
10
840.182275
20
332.781067
11
843.398398
21
332.267757
0
LINE
8
0
10
843.398398
20
332.267757
11
851.345838
21
330.643178
0
LINE
8
0
10
851.345838
20
330.643178
11
866.129692
21
326.516545
0
LINE
8
0
10
866.129692
20
326.516545
11
879.537531
21
321.142136
0
LINE
8
0
10
879.537531
20
321.142136
11
891.695781
21
314.426577
0
LINE
8
0
10
891.695781
20
314.426577
11
902.730867
21
306.276495
0
LINE
8
0
10
902.730867
20
306.276495
11
912.769216
21
296.598517
0
LINE
8
0
10
912.769216
20
296.598517
11
921.937252
21
285.299270
0
LINE
8
0
10
921.937252
20
285.299270
11
930.361403
21
272.285380
0
LINE
8
0
10
930.361403
20
272.285380
11
934.334029
21
265.106265
0
LINE
8
0
10
934.334029
20
265.106265
11
938.406643
21
256.732895
0
LINE
8
0
10
938.406643
20
256.732895
11
945.968299
21
237.526856
0
LINE
8
0
10
945.968299
20
237.526856
11
952.344601
21
216.391662
0
LINE
8
0
10
952.344601
20
216.391662
11
957.046842
21
194.947204
0
LINE
8
0
10
957.046842
20
194.947204
11
958.617469
21
184.615217
0
LINE
8
0
10
958.617469
20
184.615217
11
959.054932
21
180.768971
0
LINE
8
0
10
959.054932
20
180.768971
11
959.755139
21
172.241213
0
LINE
8
0
10
959.755139
20
172.241213
11
960.368571
21
158.109987
0
LINE
8
0
10
960.368571
20
158.109987
11
960.370734
21
138.863792
0
LINE
8
0
10
960.370734
20
138.863792
11
959.760352
21
125.872396
0
LINE
8
0
10
959.760352
20
125.872396
11
959.061915
21
118.647300
0
LINE
8
0
10
959.061915
20
118.647300
11
958.625225
21
115.615217
0
LINE
8
0
10
958.625225
20
115.615217
11
957.461871
21
109.192407
0
LINE
8
0
10
957.461871
20
109.192407
11
954.627857
21
96.914212
0
LINE
8
0
10
954.627857
20
96.914212
11
951.113232
21
85.388708
0
LINE
8
0
10
951.113232
20
85.388708
11
946.912953
21
74.611239
0
LINE
8
0
10
946.912953
20
74.611239
11
942.021975
21
64.577153
0
LINE
8
0
10
942.021975
20
64.577153
11
936.435251
21
55.281796
0
LINE
8
0
10
936.435251
20
55.281796
11
930.147739
21
46.720513
0
LINE
8
0
10
930.147739
20
46.720513
11
923.154392
21
38.888651
0
LINE
8
0
10
923.154392
20
38.888651
11
915.450166
21
31.781557
0
LINE
8
0
10
915.450166
20
31.781557
11
907.030017
21
25.394575
0
LINE
8
0
10
907.030017
20
25.394575
11
897.888899
21
19.723054
0
LINE
8
0
10
897.888899
20
19.723054
11
888.021768
21
14.762338
0
LINE
8
0
10
888.021768
20
14.762338
11
877.423579
21
10.507774
0
LINE
8
0
10
877.423579
20
10.507774
11
866.089287
21
6.954708
0
LINE
8
0
10
866.089287
20
6.954708
11
854.013847
21
4.098487
0
LINE
8
0
10
854.013847
20
4.098487
11
841.192215
21
1.934456
0
LINE
8
0
10
841.192215
20
1.934456
11
834.500000
21
1.110558
0
LINE
8
0
10
834.500000
20
1.110558
11
832.630319
21
0.947723
0
LINE
8
0
10
832.630319
20
0.947723
11
827.350566
21
0.674175
0
LINE
8
0
10
827.350566
20
0.674175
11
816.720261
21
0.400643
0
LINE
8
0
10
816.720261
20
0.400643
11
800.679449
21
0.309433
0
LINE
8
0
10
800.679449
20
0.309433
11
789.909246
21
0.461277
0
LINE
8
0
10
789.909246
20
0.461277
11
784.469608
21
0.673873
0
LINE
8
0
10
784.469608
20
0.673873
11
782.500000
21
0.814877
0
LINE
8
0
10
792.000000
20
7.160082
11
792.272704
21
7.396733
0
LINE
8
0
10
792.272704
20
7.396733
11
792.089512
21
7.702238
0
LINE
8
0
10
792.089512
20
7.702238
11
790.901245
21
7.786395
0
LINE
8
0
10
790.901245
20
7.786395
11
788.667575
21
7.652059
0
LINE
8
0
10
788.667575
20
7.652059
11
787.146110
21
7.503849
0
LINE
8
0
10
787.146110
20
7.503849
11
785.456046
21
7.342297
0
LINE
8
0
10
785.456046
20
7.342297
11
782.884346
21
7.221590
0
LINE
8
0
10
782.884346
20
7.221590
11
780.649254
21
7.586323
0
LINE
8
0
10
780.649254
20
7.586323
11
779.930797
21
8.224297
0
LINE
8
0
10
779.930797
20
8.224297
11
779.136896
21
8.852485
0
LINE
8
0
10
779.136896
20
8.852485
11
775.276014
21
9.532359
0
LINE
8
0
10
775.276014
20
9.532359
11
772.058632
21
9.610531
0
LINE
8
0
10
772.058632
20
9.610531
11
769.412655
21
9.665973
0
LINE
8
0
10
769.412655
20
9.665973
11
766.963268
21
9.932417
0
LINE
8
0
10
766.963268
20
9.932417
11
766.555617
21
10.202253
0
LINE
8
0
10
766.555617
20
10.202253
11
766.773945
21
10.357124
0
LINE
8
0
10
766.773945
20
10.357124
11
767.098802
21
10.601024
0
LINE
8
0
10
767.098802
20
10.601024
11
765.686583
21
10.678499
0
LINE
8
0
10
765.686583
20
10.678499
11
764.123445
21
10.502531
0
LINE
8
0
10
764.123445
20
10.502531
11
762.338579
21
10.316536
0
LINE
8
0
10
762.338579
20
10.316536
11
760.397437
21
10.500855
0
LINE
8
0
10
760.397437
20
10.500855
11
760.343182
21
10.861481
0
LINE
8
0
10
760.343182
20
10.861481
11
760.399389
21
11.214309
0
LINE
8
0
10
760.399389
20
11.214309
11
759.418400
21
11.472302
0
LINE
8
0
10
759.418400
20
11.472302
11
758.469738
21
11.354183
0
LINE
8
0
10
758.469738
20
11.354183
11
757.510785
21
11.251585
0
LINE
8
0
10
757.510785
20
11.251585
11
756.194878
21
11.545078
0
LINE
8
0
10
756.194878
20
11.545078
11
756.000000
21
11.905020
0
LINE
8
0
10
756.000000
20
11.905020
11
755.822461
21
12.263305
0
LINE
8
0
10
755.822461
20
12.263305
11
754.623633
21
12.545605
0
LINE
8
0
10
754.623633
20
12.545605
11
753.750000
21
12.434851
0
LINE
8
0
10
753.750000
20
12.434851
11
752.675584
21
12.232303
0
LINE
8
0
10
752.675584
20
12.232303
11
752.334001
21
12.530298
0
LINE
8
0
10
752.334001
20
12.530298
11
753.000000
21
13.089146
0
LINE
8
0
10
753.000000
20
13.089146
11
753.573173
21
13.621224
0
LINE
8
0
10
753.573173
20
13.621224
11
752.641010
21
13.866416
0
LINE
8
0
10
752.641010
20
13.866416
11
751.000000
21
13.615217
0
LINE
8
0
10
751.000000
20
13.615217
11
749.363010
21
13.364758
0
LINE
8
0
10
749.363010
20
13.364758
11
748.429507
21
13.607566
0
LINE
8
0
10
748.429507
20
13.607566
11
749.000000
21
14.135426
0
LINE
8
0
10
749.000000
20
14.135426
11
749.613187
21
14.669994
0
LINE
8
0
10
749.613187
20
14.669994
11
748.995051
21
14.911260
0
LINE
8
0
10
748.995051
20
14.911260
11
747.666211
21
14.656019
0
LINE
8
0
10
747.666211
20
14.656019
11
746.549025
21
14.470667
0
LINE
8
0
10
746.549025
20
14.470667
11
745.385342
21
14.644585
0
LINE
8
0
10
745.385342
20
14.644585
11
745.423368
21
14.991223
0
LINE
8
0
10
745.423368
20
14.991223
11
745.123438
21
15.579530
0
LINE
8
0
10
745.123438
20
15.579530
11
741.880394
21
17.224002
0
LINE
8
0
10
741.880394
20
17.224002
11
737.043811
21
18.845142
0
LINE
8
0
10
737.043811
20
18.845142
11
732.930544
21
19.666381
0
LINE
8
0
10
732.930544
20
19.666381
11
731.869170
21
19.534360
0
LINE
8
0
10
731.869170
20
19.534360
11
731.438704
21
19.315758
0
LINE
8
0
10
731.438704
20
19.315758
11
731.162744
21
19.483372
0
LINE
8
0
10
731.162744
20
19.483372
11
731.339748
21
19.855924
0
LINE
8
0
10
731.339748
20
19.855924
11
731.309575
21
20.744511
0
LINE
8
0
10
731.309575
20
20.744511
11
729.136760
21
21.823650
0
LINE
8
0
10
729.136760
20
21.823650
11
727.909758
21
21.559444
0
LINE
8
0
10
727.909758
20
21.559444
11
727.267241
21
21.490770
0
LINE
8
0
10
727.267241
20
21.490770
11
727.000000
21
22.115217
0
LINE
8
0
10
727.000000
20
22.115217
11
726.706250
21
22.723281
0
LINE
8
0
10
726.706250
20
22.723281
11
726.000000
21
22.615217
0
LINE
8
0
10
726.000000
20
22.615217
11
725.293750
21
22.507153
0
LINE
8
0
10
725.293750
20
22.507153
11
725.000000
21
23.115217
0
LINE
8
0
10
725.000000
20
23.115217
11
724.706250
21
23.723281
0
LINE
8
0
10
724.706250
20
23.723281
11
724.000000
21
23.615217
0
LINE
8
0
10
724.000000
20
23.615217
11
723.293750
21
23.507153
0
LINE
8
0
10
723.293750
20
23.507153
11
723.000000
21
24.115217
0
LINE
8
0
10
723.000000
20
24.115217
11
722.737031
21
24.742305
0
LINE
8
0
10
722.737031
20
24.742305
11
722.104785
21
24.679978
0
LINE
8
0
10
722.104785
20
24.679978
11
721.292407
21
24.758644
0
LINE
8
0
10
721.292407
20
24.758644
11
720.596355
21
25.724715
0
LINE
8
0
10
720.596355
20
25.724715
11
719.733774
21
26.699343
0
LINE
8
0
10
719.733774
20
26.699343
11
718.503567
21
26.754959
0
LINE
8
0
10
718.503567
20
26.754959
11
717.930972
21
26.619768
0
LINE
8
0
10
717.930972
20
26.619768
11
717.278412
21
26.959430
0
LINE
8
0
10
717.278412
20
26.959430
11
717.261996
21
27.401205
0
LINE
8
0
10
717.261996
20
27.401205
11
716.919185
21
28.218329
0
LINE
8
0
10
716.919185
20
28.218329
11
715.760762
21
28.478122
0
LINE
8
0
10
715.760762
20
28.478122
11
715.121566
21
28.504438
0
LINE
8
0
10
715.121566
20
28.504438
11
714.548664
21
28.989757
0
LINE
8
0
10
714.548664
20
28.989757
11
714.674807
21
29.398061
0
LINE
8
0
10
714.674807
20
29.398061
11
714.834683
21
29.796068
0
LINE
8
0
10
714.834683
20
29.796068
11
714.332271
21
30.017194
0
LINE
8
0
10
714.332271
20
30.017194
11
713.696070
21
29.828830
0
LINE
8
0
10
713.696070
20
29.828830
11
712.341787
21
29.712838
0
LINE
8
0
10
712.341787
20
29.712838
11
711.377517
21
30.313400
0
LINE
8
0
10
711.377517
20
30.313400
11
711.176944
21
30.720014
0
LINE
8
0
10
711.176944
20
30.720014
11
711.418977
21
30.925500
0
LINE
8
0
10
711.418977
20
30.925500
11
711.845492
21
30.710709
0
LINE
8
0
10
711.845492
20
30.710709
11
712.589819
21
30.289225
0
LINE
8
0
10
712.589819
20
30.289225
11
713.106968
21
30.218101
0
LINE
8
0
10
713.106968
20
30.218101
11
711.941622
21
31.440642
0
LINE
8
0
10
711.941622
20
31.440642
11
710.250000
21
32.674853
0
LINE
8
0
10
710.250000
20
32.674853
11
709.047550
21
33.412017
0
LINE
8
0
10
709.047550
20
33.412017
11
708.195943
21
33.570663
0
LINE
8
0
10
708.195943
20
33.570663
11
708.500000
21
33.000860
0
LINE
8
0
10
708.500000
20
33.000860
11
708.664645
21
32.672350
0
LINE
8
0
10
708.664645
20
32.672350
11
707.687362
21
33.511718
0
LINE
8
0
10
707.687362
20
33.511718
11
706.665802
21
34.576215
0
LINE
8
0
10
706.665802
20
34.576215
11
705.618833
21
35.637843
0
LINE
8
0
10
705.618833
20
35.637843
11
704.469973
21
36.457843
0
LINE
8
0
10
704.469973
20
36.457843
11
704.509585
21
36.115217
0
LINE
8
0
10
704.509585
20
36.115217
11
704.484279
21
35.866265
0
LINE
8
0
10
704.484279
20
35.866265
11
702.897069
21
37.318793
0
LINE
8
0
10
702.897069
20
37.318793
11
701.530657
21
38.841370
0
LINE
8
0
10
701.530657
20
38.841370
11
697.571195
21
43.040671
0
LINE
8
0
10
697.571195
20
43.040671
11
693.186874
21
47.202265
0
LINE
8
0
10
693.186874
20
47.202265
11
691.485408
21
48.752657
0
LINE
8
0
10
691.485408
20
48.752657
11
689.787402
21
50.583971
0
LINE
8
0
10
689.787402
20
50.583971
11
690.000000
21
50.639335
0
LINE
8
0
10
690.000000
20
50.639335
11
690.391103
21
50.524109
0
LINE
8
0
10
690.391103
20
50.524109
11
689.898446
21
51.203517
0
LINE
8
0
10
689.898446
20
51.203517
11
689.075364
21
51.914470
0
LINE
8
0
10
689.075364
20
51.914470
11
687.282660
21
53.854923
0
LINE
8
0
10
687.282660
20
53.854923
11
686.377347
21
55.749944
0
LINE
8
0
10
686.377347
20
55.749944
11
685.654939
21
57.516703
0
LINE
8
0
10
685.654939
20
57.516703
11
684.301983
21
59.148782
0
LINE
8
0
10
684.301983
20
59.148782
11
682.939751
21
60.664084
0
LINE
8
0
10
682.939751
20
60.664084
11
682.195043
21
62.150084
0
LINE
8
0
10
682.195043
20
62.150084
11
681.559752
21
63.507629
0
LINE
8
0
10
681.559752
20
63.507629
11
680.460587
21
64.714094
0
LINE
8
0
10
680.460587
20
64.714094
11
679.642270
21
65.681443
0
LINE
8
0
10
679.642270
20
65.681443
11
679.682210
21
66.464094
0
LINE
8
0
10
679.682210
20
66.464094
11
679.782021
21
66.923950
0
LINE
8
0
10
679.782021
20
66.923950
11
679.107650
21
67.115217
0
LINE
8
0
10
679.107650
20
67.115217
11
678.423558
21
67.408967
0
LINE
8
0
10
678.423558
20
67.408967
11
678.500000
21
68.115217
0
LINE
8
0
10
678.500000
20
68.115217
11
678.608064
21
68.821467
0
LINE
8
0
10
678.608064
20
68.821467
11
678.000000
21
69.115217
0
LINE
8
0
10
678.000000
20
69.115217
11
677.391936
21
69.408967
0
LINE
8
0
10
677.391936
20
69.408967
11
677.500000
21
70.115217
0
LINE
8
0
10
677.500000
20
70.115217
11
677.608064
21
70.821467
0
LINE
8
0
10
677.608064
20
70.821467
11
677.000000
21
71.115217
0
LINE
8
0
10
677.000000
20
71.115217
11
676.391936
21
71.408967
0
LINE
8
0
10
676.391936
20
71.408967
11
676.500000
21
72.115217
0
LINE
8
0
10
676.500000
20
72.115217
11
676.634620
21
72.821467
0
LINE
8
0
10
676.634620
20
72.821467
11
676.090402
21
73.115217
0
LINE
8
0
10
676.090402
20
73.115217
11
675.552212
21
73.604030
0
LINE
8
0
10
675.552212
20
73.604030
11
675.701324
21
74.779262
0
LINE
8
0
10
675.701324
20
74.779262
11
675.908792
21
75.463473
0
LINE
8
0
10
675.908792
20
75.463473
11
675.648998
21
75.937192
0
LINE
8
0
10
675.648998
20
75.937192
11
675.181393
21
75.727324
0
LINE
8
0
10
675.181393
20
75.727324
11
674.719402
21
75.518008
0
LINE
8
0
10
674.719402
20
75.518008
11
674.435819
21
75.939117
0
LINE
8
0
10
674.435819
20
75.939117
11
674.618443
21
76.563279
0
LINE
8
0
10
674.618443
20
76.563279
11
674.697458
21
77.660157
0
LINE
8
0
10
674.697458
20
77.660157
11
674.047972
21
78.115217
0
LINE
8
0
10
674.047972
20
78.115217
11
673.406028
21
78.408967
0
LINE
8
0
10
673.406028
20
78.408967
11
673.500000
21
79.115217
0
LINE
8
0
10
673.500000
20
79.115217
11
673.634620
21
79.821467
0
LINE
8
0
10
673.634620
20
79.821467
11
673.090402
21
80.115217
0
LINE
8
0
10
673.090402
20
80.115217
11
672.552212
21
80.604030
0
LINE
8
0
10
672.552212
20
80.604030
11
672.701324
21
81.779262
0
LINE
8
0
10
672.701324
20
81.779262
11
672.899028
21
82.438523
0
LINE
8
0
10
672.899028
20
82.438523
11
672.675757
21
82.947424
0
LINE
8
0
10
672.675757
20
82.947424
11
672.263198
21
82.777882
0
LINE
8
0
10
672.263198
20
82.777882
11
671.837828
21
82.633017
0
LINE
8
0
10
671.837828
20
82.633017
11
671.578809
21
83.387371
0
LINE
8
0
10
671.578809
20
83.387371
11
671.750782
21
84.270209
0
LINE
8
0
10
671.750782
20
84.270209
11
671.921099
21
85.147168
0
LINE
8
0
10
671.921099
20
85.147168
11
671.667460
21
85.908084
0
LINE
8
0
10
671.667460
20
85.908084
11
671.250782
21
85.770209
0
LINE
8
0
10
671.250782
20
85.770209
11
670.834104
21
85.632334
0
LINE
8
0
10
670.834104
20
85.632334
11
670.580465
21
86.393250
0
LINE
8
0
10
670.580465
20
86.393250
11
670.750782
21
87.270209
0
LINE
8
0
10
670.750782
20
87.270209
11
670.921099
21
88.147168
0
LINE
8
0
10
670.921099
20
88.147168
11
670.667460
21
88.908084
0
LINE
8
0
10
670.667460
20
88.908084
11
670.250782
21
88.770209
0
LINE
8
0
10
670.250782
20
88.770209
11
669.834104
21
88.632334
0
LINE
8
0
10
669.834104
20
88.632334
11
669.580465
21
89.393250
0
LINE
8
0
10
669.580465
20
89.393250
11
669.750782
21
90.270209
0
LINE
8
0
10
669.750782
20
90.270209
11
669.921099
21
91.147168
0
LINE
8
0
10
669.921099
20
91.147168
11
669.667460
21
91.908084
0
LINE
8
0
10
669.667460
20
91.908084
11
669.250782
21
91.770209
0
LINE
8
0
10
669.250782
20
91.770209
11
668.834104
21
91.632334
0
LINE
8
0
10
668.834104
20
91.632334
11
668.580465
21
92.393250
0
LINE
8
0
10
668.580465
20
92.393250
11
668.750782
21
93.270209
0
LINE
8
0
10
668.750782
20
93.270209
11
668.944208
21
94.228177
0
LINE
8
0
10
668.944208
20
94.228177
11
668.606138
21
94.892427
0
LINE
8
0
10
668.606138
20
94.892427
11
668.050390
21
94.646360
0
LINE
8
0
10
668.050390
20
94.646360
11
667.495299
21
94.393260
0
LINE
8
0
10
667.495299
20
94.393260
11
667.211842
21
95.038637
0
LINE
8
0
10
667.211842
20
95.038637
11
667.460254
21
95.989988
0
LINE
8
0
10
667.460254
20
95.989988
11
667.646294
21
96.817244
0
LINE
8
0
10
667.646294
20
96.817244
11
667.487046
21
97.948213
0
LINE
8
0
10
667.487046
20
97.948213
11
667.161007
21
98.115217
0
LINE
8
0
10
667.161007
20
98.115217
11
666.827407
21
98.285368
0
LINE
8
0
10
666.827407
20
98.285368
11
666.609026
21
99.434310
0
LINE
8
0
10
666.609026
20
99.434310
11
666.751143
21
100.271589
0
LINE
8
0
10
666.751143
20
100.271589
11
666.931151
21
101.182781
0
LINE
8
0
10
666.931151
20
101.182781
11
666.643791
21
101.903111
0
LINE
8
0
10
666.643791
20
101.903111
11
666.172581
21
101.721878
0
LINE
8
0
10
666.172581
20
101.721878
11
665.688018
21
101.580843
0
LINE
8
0
10
665.688018
20
101.580843
11
665.443418
21
102.799935
0
LINE
8
0
10
665.443418
20
102.799935
11
665.671156
21
104.220997
0
LINE
8
0
10
665.671156
20
104.220997
11
665.898687
21
105.641144
0
LINE
8
0
10
665.898687
20
105.641144
11
665.654689
21
106.861134
0
LINE
8
0
10
665.654689
20
106.861134
11
665.171156
21
106.720997
0
LINE
8
0
10
665.171156
20
106.720997
11
664.687623
21
106.580861
0
LINE
8
0
10
664.687623
20
106.580861
11
664.443625
21
107.800851
0
LINE
8
0
10
664.443625
20
107.800851
11
664.671156
21
109.220997
0
LINE
8
0
10
664.671156
20
109.220997
11
664.886321
21
110.585803
0
LINE
8
0
10
664.886321
20
110.585803
11
664.676642
21
111.858802
0
LINE
8
0
10
664.676642
20
111.858802
11
664.251224
21
111.770482
0
LINE
8
0
10
664.251224
20
111.770482
11
663.815634
21
111.746366
0
LINE
8
0
10
663.815634
20
111.746366
11
663.527947
21
113.540292
0
LINE
8
0
10
663.527947
20
113.540292
11
663.674783
21
115.364991
0
LINE
8
0
10
663.674783
20
115.364991
11
663.844505
21
117.259021
0
LINE
8
0
10
663.844505
20
117.259021
11
663.580931
21
118.594354
0
LINE
8
0
10
663.580931
20
118.594354
11
663.128107
21
118.134595
0
LINE
8
0
10
663.128107
20
118.134595
11
662.681135
21
117.787237
0
LINE
8
0
10
662.681135
20
117.787237
11
662.400851
21
119.047248
0
LINE
8
0
10
662.400851
20
119.047248
11
662.462547
21
121.167019
0
LINE
8
0
10
662.462547
20
121.167019
11
662.564988
21
122.634595
0
LINE
8
0
10
662.564988
20
122.634595
11
662.686253
21
124.821799
0
LINE
8
0
10
662.686253
20
124.821799
11
662.527235
21
127.097041
0
LINE
8
0
10
662.527235
20
127.097041
11
662.266538
21
126.904844
0
LINE
8
0
10
662.266538
20
126.904844
11
662.112556
21
127.039367
0
LINE
8
0
10
662.112556
20
127.039367
11
661.838729
21
129.964956
0
LINE
8
0
10
661.838729
20
129.964956
11
661.631374
21
135.838850
0
LINE
8
0
10
661.631374
20
135.838850
11
661.515645
21
143.948547
0
LINE
8
0
10
661.515645
20
143.948547
11
661.500000
21
148.619166
0
LINE
8
0
10
661.500000
20
148.619166
11
661.515672
21
153.289703
0
LINE
8
0
10
661.515672
20
153.289703
11
661.631603
21
161.398804
0
LINE
8
0
10
661.631603
20
161.398804
11
661.839318
21
167.271630
0
LINE
8
0
10
661.839318
20
167.271630
11
662.113622
21
170.195809
0
LINE
8
0
10
662.113622
20
170.195809
11
662.267871
21
170.329539
0
LINE
8
0
10
662.267871
20
170.329539
11
662.412032
21
170.128039
0
LINE
8
0
10
662.412032
20
170.128039
11
662.611720
21
170.572474
0
LINE
8
0
10
662.611720
20
170.572474
11
662.672824
21
173.032519
0
LINE
8
0
10
662.672824
20
173.032519
11
662.541515
21
175.615217
0
LINE
8
0
10
662.541515
20
175.615217
11
662.431002
21
177.357842
0
LINE
8
0
10
662.431002
20
177.357842
11
662.359186
21
179.880150
0
LINE
8
0
10
662.359186
20
179.880150
11
662.494330
21
181.196601
0
LINE
8
0
10
662.494330
20
181.196601
11
662.846052
21
181.400873
0
LINE
8
0
10
662.846052
20
181.400873
11
663.106134
21
181.115217
0
LINE
8
0
10
663.106134
20
181.115217
11
663.570952
21
180.664866
0
LINE
8
0
10
663.570952
20
180.664866
11
663.808948
21
182.225937
0
LINE
8
0
10
663.808948
20
182.225937
11
663.601620
21
184.365217
0
LINE
8
0
10
663.601620
20
184.365217
11
663.427988
21
186.419898
0
LINE
8
0
10
663.427988
20
186.419898
11
663.694128
21
188.810527
0
LINE
8
0
10
663.694128
20
188.810527
11
664.130421
21
189.115217
0
LINE
8
0
10
664.130421
20
189.115217
11
664.558898
21
189.358019
0
LINE
8
0
10
664.558898
20
189.358019
11
664.782777
21
191.249872
0
LINE
8
0
10
664.782777
20
191.249872
11
664.574191
21
192.865217
0
LINE
8
0
10
664.574191
20
192.865217
11
664.315496
21
194.599358
0
LINE
8
0
10
664.315496
20
194.599358
11
664.537408
21
195.658264
0
LINE
8
0
10
664.537408
20
195.658264
11
665.045717
21
195.115217
0
LINE
8
0
10
665.045717
20
195.115217
11
665.563363
21
194.566065
0
LINE
8
0
10
665.563363
20
194.566065
11
665.842979
21
195.631574
0
LINE
8
0
10
665.842979
20
195.631574
11
665.642052
21
197.387625
0
LINE
8
0
10
665.642052
20
197.387625
11
665.473929
21
199.029899
0
LINE
8
0
10
665.473929
20
199.029899
11
665.757299
21
200.559501
0
LINE
8
0
10
665.757299
20
200.559501
11
666.215332
21
200.482134
0
LINE
8
0
10
666.215332
20
200.482134
11
666.666867
21
200.370259
0
LINE
8
0
10
666.666867
20
200.370259
11
666.892061
21
201.618841
0
LINE
8
0
10
666.892061
20
201.618841
11
666.671156
21
203.009437
0
LINE
8
0
10
666.671156
20
203.009437
11
666.445248
21
204.422365
0
LINE
8
0
10
666.445248
20
204.422365
11
666.684546
21
205.649403
0
LINE
8
0
10
666.684546
20
205.649403
11
667.160046
21
205.516303
0
LINE
8
0
10
667.160046
20
205.516303
11
667.631781
21
205.365320
0
LINE
8
0
10
667.631781
20
205.365320
11
667.940696
21
206.331420
0
LINE
8
0
10
667.940696
20
206.331420
11
667.783660
21
207.466592
0
LINE
8
0
10
667.783660
20
207.466592
11
667.664234
21
208.495004
0
LINE
8
0
10
667.664234
20
208.495004
11
667.915531
21
209.906224
0
LINE
8
0
10
667.915531
20
209.906224
11
668.255303
21
210.115217
0
LINE
8
0
10
668.255303
20
210.115217
11
668.593758
21
210.273030
0
LINE
8
0
10
668.593758
20
210.273030
11
668.836160
21
211.338655
0
LINE
8
0
10
668.836160
20
211.338655
11
668.710251
21
212.115217
0
LINE
8
0
10
668.710251
20
212.115217
11
668.587897
21
212.891780
0
LINE
8
0
10
668.587897
20
212.891780
11
668.854304
21
213.957405
0
LINE
8
0
10
668.854304
20
213.957405
11
669.210251
21
214.115217
0
LINE
8
0
10
669.210251
20
214.115217
11
669.566170
21
214.273138
0
LINE
8
0
10
669.566170
20
214.273138
11
669.832384
21
215.339499
0
LINE
8
0
10
669.832384
20
215.339499
11
669.709890
21
216.116597
0
LINE
8
0
10
669.709890
20
216.116597
11
669.562559
21
216.911305
0
LINE
8
0
10
669.562559
20
216.911305
11
669.833565
21
217.603064
0
LINE
8
0
10
669.833565
20
217.603064
11
670.239102
21
217.467444
0
LINE
8
0
10
670.239102
20
217.467444
11
670.653974
21
217.357012
0
LINE
8
0
10
670.653974
20
217.357012
11
670.837831
21
218.401210
0
LINE
8
0
10
670.837831
20
218.401210
11
670.605761
21
219.549853
0
LINE
8
0
10
670.605761
20
219.549853
11
670.351733
21
220.778300
0
LINE
8
0
10
670.351733
20
220.778300
11
670.598524
21
221.739447
0
LINE
8
0
10
670.598524
20
221.739447
11
671.117442
21
221.542634
0
LINE
8
0
10
671.117442
20
221.542634
11
671.626883
21
221.331756
0
LINE
8
0
10
671.626883
20
221.331756
11
671.937412
21
222.025734
0
LINE
8
0
10
671.937412
20
222.025734
11
671.751143
21
222.958845
0
LINE
8
0
10
671.751143
20
222.958845
11
671.609026
21
223.796124
0
LINE
8
0
10
671.609026
20
223.796124
11
671.827407
21
224.945066
0
LINE
8
0
10
671.827407
20
224.945066
11
672.161007
21
225.115217
0
LINE
8
0
10
672.161007
20
225.115217
11
672.487046
21
225.282221
0
LINE
8
0
10
672.487046
20
225.282221
11
672.646294
21
226.413191
0
LINE
8
0
10
672.646294
20
226.413191
11
672.460254
21
227.240447
0
LINE
8
0
10
672.460254
20
227.240447
11
672.217647
21
228.174821
0
LINE
8
0
10
672.217647
20
228.174821
11
672.479720
21
228.842340
0
LINE
8
0
10
672.479720
20
228.842340
11
673.000000
21
228.615217
0
LINE
8
0
10
673.000000
20
228.615217
11
673.520280
21
228.388095
0
LINE
8
0
10
673.520280
20
228.388095
11
673.782353
21
229.055613
0
LINE
8
0
10
673.782353
20
229.055613
11
673.539746
21
229.989988
0
LINE
8
0
10
673.539746
20
229.989988
11
673.337649
21
230.874022
0
LINE
8
0
10
673.337649
20
230.874022
11
673.570076
21
231.967139
0
LINE
8
0
10
673.570076
20
231.967139
11
673.991629
21
232.115217
0
LINE
8
0
10
673.991629
20
232.115217
11
674.618150
21
232.388669
0
LINE
8
0
10
674.618150
20
232.388669
11
674.542705
21
233.046119
0
LINE
8
0
10
674.542705
20
233.046119
11
674.439712
21
233.891038
0
LINE
8
0
10
674.439712
20
233.891038
11
675.000000
21
234.615217
0
LINE
8
0
10
675.000000
20
234.615217
11
675.560288
21
235.339396
0
LINE
8
0
10
675.560288
20
235.339396
11
675.457295
21
236.184315
0
LINE
8
0
10
675.457295
20
236.184315
11
675.393483
21
236.841765
0
LINE
8
0
10
675.393483
20
236.841765
11
676.047972
21
237.115217
0
LINE
8
0
10
676.047972
20
237.115217
11
676.702380
21
237.555842
0
LINE
8
0
10
676.702380
20
237.555842
11
676.638374
21
238.615217
0
LINE
8
0
10
676.638374
20
238.615217
11
676.533720
21
239.674592
0
LINE
8
0
10
676.533720
20
239.674592
11
677.090402
21
240.115217
0
LINE
8
0
10
677.090402
20
240.115217
11
677.634620
21
240.408967
0
LINE
8
0
10
677.634620
20
240.408967
11
677.500000
21
241.115217
0
LINE
8
0
10
677.500000
20
241.115217
11
677.406028
21
241.821467
0
LINE
8
0
10
677.406028
20
241.821467
11
678.047972
21
242.115217
0
LINE
8
0
10
678.047972
20
242.115217
11
678.697458
21
242.570277
0
LINE
8
0
10
678.697458
20
242.570277
11
678.618443
21
243.667155
0
LINE
8
0
10
678.618443
20
243.667155
11
678.435819
21
244.291317
0
LINE
8
0
10
678.435819
20
244.291317
11
678.719402
21
244.712426
0
LINE
8
0
10
678.719402
20
244.712426
11
679.181393
21
244.503110
0
LINE
8
0
10
679.181393
20
244.503110
11
679.648998
21
244.293242
0
LINE
8
0
10
679.648998
20
244.293242
11
679.908792
21
244.766961
0
LINE
8
0
10
679.908792
20
244.766961
11
679.701324
21
245.451172
0
LINE
8
0
10
679.701324
20
245.451172
11
679.565829
21
246.626865
0
LINE
8
0
10
679.565829
20
246.626865
11
680.138374
21
247.115217
0
LINE
8
0
10
680.138374
20
247.115217
11
680.723081
21
247.571099
0
LINE
8
0
10
680.723081
20
247.571099
11
680.618443
21
248.667155
0
LINE
8
0
10
680.618443
20
248.667155
11
680.435819
21
249.291317
0
LINE
8
0
10
680.435819
20
249.291317
11
680.719402
21
249.712426
0
LINE
8
0
10
680.719402
20
249.712426
11
681.181393
21
249.503110
0
LINE
8
0
10
681.181393
20
249.503110
11
681.648998
21
249.293242
0
LINE
8
0
10
681.648998
20
249.293242
11
681.908792
21
249.766961
0
LINE
8
0
10
681.908792
20
249.766961
11
681.701324
21
250.451172
0
LINE
8
0
10
681.701324
20
250.451172
11
681.552212
21
251.626404
0
LINE
8
0
10
681.552212
20
251.626404
11
682.090402
21
252.115217
0
LINE
8
0
10
682.090402
20
252.115217
11
682.634620
21
252.408967
0
LINE
8
0
10
682.634620
20
252.408967
11
682.500000
21
253.115217
0
LINE
8
0
10
682.500000
20
253.115217
11
682.391936
21
253.821467
0
LINE
8
0
10
682.391936
20
253.821467
11
683.000000
21
254.115217
0
LINE
8
0
10
683.000000
20
254.115217
11
683.608064
21
254.408967
0
LINE
8
0
10
683.608064
20
254.408967
11
683.500000
21
255.115217
0
LINE
8
0
10
683.500000
20
255.115217
11
683.391936
21
255.821467
0
LINE
8
0
10
683.391936
20
255.821467
11
684.000000
21
256.115217
0
LINE
8
0
10
684.000000
20
256.115217
11
684.608064
21
256.408967
0
LINE
8
0
10
684.608064
20
256.408967
11
684.500000
21
257.115217
0
LINE
8
0
10
684.500000
20
257.115217
11
684.391936
21
257.821467
0
LINE
8
0
10
684.391936
20
257.821467
11
685.000000
21
258.115217
0
LINE
8
0
10
685.000000
20
258.115217
11
685.608064
21
258.408967
0
LINE
8
0
10
685.608064
20
258.408967
11
685.500000
21
259.115217
0
LINE
8
0
10
685.500000
20
259.115217
11
685.391936
21
259.821467
0
LINE
8
0
10
685.391936
20
259.821467
11
686.000000
21
260.115217
0
LINE
8
0
10
686.000000
20
260.115217
11
686.608064
21
260.408967
0
LINE
8
0
10
686.608064
20
260.408967
11
686.500000
21
261.115217
0
LINE
8
0
10
686.500000
20
261.115217
11
686.423558
21
261.821467
0
LINE
8
0
10
686.423558
20
261.821467
11
687.107650
21
262.115217
0
LINE
8
0
10
687.107650
20
262.115217
11
687.782021
21
262.306485
0
LINE
8
0
10
687.782021
20
262.306485
11
687.682210
21
262.766340
0
LINE
8
0
10
687.682210
20
262.766340
11
687.642270
21
263.548991
0
LINE
8
0
10
687.642270
20
263.548991
11
688.460587
21
264.516340
0
LINE
8
0
10
688.460587
20
264.516340
11
689.559752
21
265.731985
0
LINE
8
0
10
689.559752
20
265.731985
11
690.195043
21
267.111600
0
LINE
8
0
10
690.195043
20
267.111600
11
690.761463
21
268.463233
0
LINE
8
0
10
690.761463
20
268.463233
11
691.695043
21
269.611600
0
LINE
8
0
10
691.695043
20
269.611600
11
692.628624
21
270.761030
0
LINE
8
0
10
692.628624
20
270.761030
11
693.195043
21
272.115217
0
LINE
8
0
10
693.195043
20
272.115217
11
693.944214
21
273.572258
0
LINE
8
0
10
693.944214
20
273.572258
11
695.317174
21
274.968972
0
LINE
8
0
10
695.317174
20
274.968972
11
696.446776
21
276.325801
0
LINE
8
0
10
696.446776
20
276.325801
11
696.610848
21
277.686947
0
LINE
8
0
10
696.610848
20
277.686947
11
696.567434
21
278.852097
0
LINE
8
0
10
696.567434
20
278.852097
11
697.198182
21
279.737701
0
LINE
8
0
10
697.198182
20
279.737701
11
697.604797
21
279.938274
0
LINE
8
0
10
697.604797
20
279.938274
11
697.810282
21
279.696241
0
LINE
8
0
10
697.810282
20
279.696241
11
697.595492
21
279.269726
0
LINE
8
0
10
697.595492
20
279.269726
11
697.187389
21
278.547092
0
LINE
8
0
10
697.187389
20
278.547092
11
697.114089
21
278.026163
0
LINE
8
0
10
697.114089
20
278.026163
11
698.290630
21
279.112857
0
LINE
8
0
10
698.290630
20
279.112857
11
699.488717
21
280.738341
0
LINE
8
0
10
699.488717
20
280.738341
11
700.161538
21
281.846034
0
LINE
8
0
10
700.161538
20
281.846034
11
700.343428
21
282.776968
0
LINE
8
0
10
700.343428
20
282.776968
11
699.853727
21
282.606501
0
LINE
8
0
10
699.853727
20
282.606501
11
699.604272
21
282.569219
0
LINE
8
0
10
699.604272
20
282.569219
11
700.747833
21
283.894626
0
LINE
8
0
10
700.747833
20
283.894626
11
702.000000
21
285.094068
0
LINE
8
0
10
702.000000
20
285.094068
11
703.201172
21
286.247046
0
LINE
8
0
10
703.201172
20
286.247046
11
704.000391
21
287.258699
0
LINE
8
0
10
704.000391
20
287.258699
11
703.500000
21
286.992773
0
LINE
8
0
10
703.500000
20
286.992773
11
703.232286
21
286.855149
0
LINE
8
0
10
703.232286
20
286.855149
11
703.509376
21
287.353900
0
LINE
8
0
10
703.509376
20
287.353900
11
705.675292
21
289.720839
0
LINE
8
0
10
705.675292
20
289.720839
11
708.067527
21
292.132082
0
LINE
8
0
10
708.067527
20
292.132082
11
709.303786
21
293.362990
0
LINE
8
0
10
709.303786
20
293.362990
11
711.035780
21
295.150653
0
LINE
8
0
10
711.035780
20
295.150653
11
711.712049
21
295.957854
0
LINE
8
0
10
711.712049
20
295.957854
11
711.250563
21
295.686678
0
LINE
8
0
10
711.250563
20
295.686678
11
710.567527
21
295.116101
0
LINE
8
0
10
710.567527
20
295.116101
11
706.500000
21
291.616984
0
LINE
8
0
10
706.500000
20
291.616984
11
710.958208
21
296.366101
0
LINE
8
0
10
710.958208
20
296.366101
11
712.440011
21
297.927266
0
LINE
8
0
10
712.440011
20
297.927266
11
714.625703
21
300.117754
0
LINE
8
0
10
714.625703
20
300.117754
11
715.766735
21
301.059642
0
LINE
8
0
10
715.766735
20
301.059642
11
715.854171
21
300.745556
0
LINE
8
0
10
715.854171
20
300.745556
11
715.500000
21
300.115217
0
LINE
8
0
10
715.500000
20
300.115217
11
715.270124
21
299.614318
0
LINE
8
0
10
715.270124
20
299.614318
11
715.497584
21
299.139898
0
LINE
8
0
10
715.497584
20
299.139898
11
716.889850
21
299.613318
0
LINE
8
0
10
716.889850
20
299.613318
11
718.000000
21
300.615217
0
LINE
8
0
10
718.000000
20
300.615217
11
718.418471
21
301.197639
0
LINE
8
0
10
718.418471
20
301.197639
11
718.643555
21
301.996858
0
LINE
8
0
10
718.643555
20
301.996858
11
718.422445
21
302.115217
0
LINE
8
0
10
718.422445
20
302.115217
11
718.205371
21
302.478995
0
LINE
8
0
10
718.205371
20
302.478995
11
718.838394
21
303.353611
0
LINE
8
0
10
718.838394
20
303.353611
11
720.215794
21
304.231636
0
LINE
8
0
10
720.215794
20
304.231636
11
721.788394
21
304.603611
0
LINE
8
0
10
721.788394
20
304.603611
11
722.916500
21
305.000830
0
LINE
8
0
10
722.916500
20
305.000830
11
723.225223
21
305.939547
0
LINE
8
0
10
723.225223
20
305.939547
11
723.330893
21
306.689611
0
LINE
8
0
10
723.330893
20
306.689611
11
723.970807
21
306.633259
0
LINE
8
0
10
723.970807
20
306.633259
11
724.577514
21
306.609836
0
LINE
8
0
10
724.577514
20
306.609836
11
726.542709
21
307.769061
0
LINE
8
0
10
726.542709
20
307.769061
11
727.659149
21
308.808930
0
LINE
8
0
10
727.659149
20
308.808930
11
728.636865
21
309.780199
0
LINE
8
0
10
728.636865
20
309.780199
11
729.665331
21
310.476205
0
LINE
8
0
10
729.665331
20
310.476205
11
729.589408
21
310.115217
0
LINE
8
0
10
729.589408
20
310.115217
11
729.381416
21
309.611644
0
LINE
8
0
10
729.381416
20
309.611644
11
729.733805
21
309.732202
0
LINE
8
0
10
729.733805
20
309.732202
11
730.274719
21
310.349674
0
LINE
8
0
10
730.274719
20
310.349674
11
730.878635
21
310.971753
0
LINE
8
0
10
730.878635
20
310.971753
11
731.983772
21
311.548966
0
LINE
8
0
10
731.983772
20
311.548966
11
732.348877
21
311.433007
0
LINE
8
0
10
732.348877
20
311.433007
11
732.808733
21
311.333196
0
LINE
8
0
10
732.808733
20
311.333196
11
733.000000
21
312.007567
0
LINE
8
0
10
733.000000
20
312.007567
11
733.293750
21
312.691659
0
LINE
8
0
10
733.293750
20
312.691659
11
734.000000
21
312.615217
0
LINE
8
0
10
734.000000
20
312.615217
11
734.706250
21
312.427306
0
LINE
8
0
10
734.706250
20
312.427306
11
735.000000
21
312.843396
0
LINE
8
0
10
735.000000
20
312.843396
11
735.545707
21
313.482140
0
LINE
8
0
10
735.545707
20
313.482140
11
736.857726
21
313.829547
0
LINE
8
0
10
736.857726
20
313.829547
11
739.590506
21
314.432458
0
LINE
8
0
10
739.590506
20
314.432458
11
743.922515
21
316.315994
0
LINE
8
0
10
743.922515
20
316.315994
11
745.733975
21
317.639500
0
LINE
8
0
10
745.733975
20
317.639500
11
746.000000
21
318.171179
0
LINE
8
0
10
746.000000
20
318.171179
11
746.440625
21
318.819944
0
LINE
8
0
10
746.440625
20
318.819944
11
747.500000
21
318.753591
0
LINE
8
0
10
747.500000
20
318.753591
11
748.559375
21
318.622382
0
LINE
8
0
10
748.559375
20
318.622382
11
749.000000
21
319.115217
0
LINE
8
0
10
749.000000
20
319.115217
11
749.440625
21
319.608052
0
LINE
8
0
10
749.440625
20
319.608052
11
750.500000
21
319.476844
0
LINE
8
0
10
750.500000
20
319.476844
11
751.559375
21
319.368000
0
LINE
8
0
10
751.559375
20
319.368000
11
752.000000
21
319.914609
0
LINE
8
0
10
752.000000
20
319.914609
11
752.170151
21
320.263585
0
LINE
8
0
10
752.170151
20
320.263585
11
753.319093
21
320.503066
0
LINE
8
0
10
753.319093
20
320.503066
11
754.156372
21
320.364074
0
LINE
8
0
10
754.156372
20
320.364074
11
755.113608
21
320.170853
0
LINE
8
0
10
755.113608
20
320.170853
11
755.777227
21
320.509115
0
LINE
8
0
10
755.777227
20
320.509115
11
755.531142
21
321.064828
0
LINE
8
0
10
755.531142
20
321.064828
11
755.278043
21
321.619918
0
LINE
8
0
10
755.278043
20
321.619918
11
755.923420
21
321.903375
0
LINE
8
0
10
755.923420
20
321.903375
11
756.874771
21
321.654963
0
LINE
8
0
10
756.874771
20
321.654963
11
757.707393
21
321.467382
0
LINE
8
0
10
757.707393
20
321.467382
11
758.834785
21
321.632829
0
LINE
8
0
10
758.834785
20
321.632829
11
759.000000
21
321.966845
0
LINE
8
0
10
759.000000
20
321.966845
11
759.370635
21
322.467308
0
LINE
8
0
10
759.370635
20
322.467308
11
761.833238
21
323.472364
0
LINE
8
0
10
761.833238
20
323.472364
11
765.474333
21
324.245752
0
LINE
8
0
10
765.474333
20
324.245752
11
768.953976
21
324.502859
0
LINE
8
0
10
768.953976
20
324.502859
11
770.214522
21
324.348867
0
LINE
8
0
10
770.214522
20
324.348867
11
771.061310
21
324.186958
0
LINE
8
0
10
771.061310
20
324.186958
11
771.794627
21
324.448264
0
LINE
8
0
10
771.794627
20
324.448264
11
771.656146
21
324.862567
0
LINE
8
0
10
771.656146
20
324.862567
11
771.622132
21
325.296423
0
LINE
8
0
10
771.622132
20
325.296423
11
773.363252
21
325.548038
0
LINE
8
0
10
773.363252
20
325.548038
11
775.152857
21
325.367889
0
LINE
8
0
10
775.152857
20
325.367889
11
777.108979
21
325.161416
0
LINE
8
0
10
777.108979
20
325.161416
11
778.700117
21
325.493638
0
LINE
8
0
10
778.700117
20
325.493638
11
778.526528
21
326.072294
0
LINE
8
0
10
778.526528
20
326.072294
11
778.345729
21
326.648283
0
LINE
8
0
10
778.345729
20
326.648283
11
779.918123
21
326.913395
0
LINE
8
0
10
779.918123
20
326.913395
11
781.873445
21
326.636598
0
LINE
8
0
10
781.873445
20
326.636598
11
783.514087
21
326.429444
0
LINE
8
0
10
783.514087
20
326.429444
11
785.687182
21
326.548787
0
LINE
8
0
10
785.687182
20
326.548787
11
786.000000
21
326.863223
0
LINE
8
0
10
786.000000
20
326.863223
11
786.211706
21
327.048204
0
LINE
8
0
10
786.211706
20
327.048204
11
787.792885
21
327.341648
0
LINE
8
0
10
787.792885
20
327.341648
11
792.496742
21
327.556070
0
LINE
8
0
10
792.496742
20
327.556070
11
796.750000
21
327.521730
0
LINE
8
0
10
796.750000
20
327.521730
11
799.245692
21
327.470567
0
LINE
8
0
10
799.245692
20
327.470567
11
802.807013
21
327.466951
0
LINE
8
0
10
802.807013
20
327.466951
11
804.480400
21
327.596407
0
LINE
8
0
10
804.480400
20
327.596407
11
804.288435
21
327.860682
0
LINE
8
0
10
804.288435
20
327.860682
11
803.500000
21
328.043922
0
LINE
8
0
10
803.500000
20
328.043922
11
802.406389
21
328.271113
0
LINE
8
0
10
802.406389
20
328.271113
11
801.416069
21
328.590900
0
LINE
8
0
10
801.416069
20
328.590900
11
802.175591
21
328.766909
0
LINE
8
0
10
802.175591
20
328.766909
11
804.869719
21
328.841955
0
LINE
8
0
10
804.869719
20
328.841955
11
807.000000
21
328.854997
0
LINE
8
0
10
807.000000
20
328.854997
11
808.929480
21
328.851393
0
LINE
8
0
10
808.929480
20
328.851393
11
811.540802
21
328.773842
0
LINE
8
0
10
811.540802
20
328.773842
11
812.589860
21
328.584195
0
LINE
8
0
10
812.589860
20
328.584195
11
812.198162
21
328.260487
0
LINE
8
0
10
812.198162
20
328.260487
11
811.500000
21
328.041496
0
LINE
8
0
10
811.500000
20
328.041496
11
810.972637
21
327.852955
0
LINE
8
0
10
810.972637
20
327.852955
11
811.168582
21
327.579577
0
LINE
8
0
10
811.168582
20
327.579577
11
813.012674
21
327.445879
0
LINE
8
0
10
813.012674
20
327.445879
11
816.481613
21
327.453551
0
LINE
8
0
10
816.481613
20
327.453551
11
818.818119
21
327.510928
0
LINE
8
0
10
818.818119
20
327.510928
11
822.767960
21
327.566579
0
LINE
8
0
10
822.767960
20
327.566579
11
826.819930
21
327.400272
0
LINE
8
0
10
826.819930
20
327.400272
11
827.880701
21
327.145930
0
LINE
8
0
10
827.880701
20
327.145930
11
827.818119
21
326.981647
0
LINE
8
0
10
827.818119
20
326.981647
11
827.519403
21
326.615975
0
LINE
8
0
10
827.519403
20
326.615975
11
828.879198
21
326.124444
0
LINE
8
0
10
828.879198
20
326.124444
11
830.500000
21
326.012215
0
LINE
8
0
10
830.500000
20
326.012215
11
831.792501
21
325.966545
0
LINE
8
0
10
831.792501
20
325.966545
11
833.321229
21
325.864323
0
LINE
8
0
10
833.321229
20
325.864323
11
833.515670
21
325.675752
0
LINE
8
0
10
833.515670
20
325.675752
11
832.464719
21
325.314620
0
LINE
8
0
10
832.464719
20
325.314620
11
831.500000
21
325.042402
0
LINE
8
0
10
831.500000
20
325.042402
11
830.858101
21
324.846781
0
LINE
8
0
10
830.858101
20
324.846781
11
830.430442
21
324.590349
0
LINE
8
0
10
830.430442
20
324.590349
11
831.164954
21
324.511444
0
LINE
8
0
10
831.164954
20
324.511444
11
833.086418
21
324.607405
0
LINE
8
0
10
833.086418
20
324.607405
11
834.500000
21
324.720128
0
LINE
8
0
10
834.500000
20
324.720128
11
836.977655
21
324.962888
0
LINE
8
0
10
836.977655
20
324.962888
11
841.173675
21
325.528540
0
LINE
8
0
10
841.173675
20
325.528540
11
842.375229
21
325.781761
0
LINE
8
0
10
842.375229
20
325.781761
11
843.187444
21
325.960856
0
LINE
8
0
10
843.187444
20
325.960856
11
843.720827
21
325.612170
0
LINE
8
0
10
843.720827
20
325.612170
11
843.469738
21
325.066253
0
LINE
8
0
10
843.469738
20
325.066253
11
843.253615
21
324.495315
0
LINE
8
0
10
843.253615
20
324.495315
11
844.378990
21
324.195754
0
LINE
8
0
10
844.378990
20
324.195754
11
845.844509
21
324.434119
0
LINE
8
0
10
845.844509
20
324.434119
11
847.144640
21
324.620737
0
LINE
8
0
10
847.144640
20
324.620737
11
848.775983
21
324.412434
0
LINE
8
0
10
848.775983
20
324.412434
11
849.000000
21
324.031200
0
LINE
8
0
10
849.000000
20
324.031200
11
849.267233
21
323.466085
0
LINE
8
0
10
849.267233
20
323.466085
11
849.909730
21
323.559427
0
LINE
8
0
10
849.909730
20
323.559427
11
850.789257
21
323.736619
0
LINE
8
0
10
850.789257
20
323.736619
11
854.000926
21
323.364718
0
LINE
8
0
10
854.000926
20
323.364718
11
857.696535
21
322.402660
0
LINE
8
0
10
857.696535
20
322.402660
11
860.132628
21
321.304308
0
LINE
8
0
10
860.132628
20
321.304308
11
860.333525
21
320.845855
0
LINE
8
0
10
860.333525
20
320.845855
11
860.259902
21
320.513648
0
LINE
8
0
10
860.259902
20
320.513648
11
861.127462
21
320.393578
0
LINE
8
0
10
861.127462
20
320.393578
11
862.000000
21
320.615217
0
LINE
8
0
10
862.000000
20
320.615217
11
862.915849
21
320.851309
0
LINE
8
0
10
862.915849
20
320.851309
11
863.738181
21
320.695144
0
LINE
8
0
10
863.738181
20
320.695144
11
863.618999
21
320.307761
0
LINE
8
0
10
863.618999
20
320.307761
11
863.542048
21
319.437395
0
LINE
8
0
10
863.542048
20
319.437395
11
864.243769
21
318.779575
0
LINE
8
0
10
864.243769
20
318.779575
11
864.805595
21
318.527131
0
LINE
8
0
10
864.805595
20
318.527131
11
864.808486
21
318.255504
0
LINE
8
0
10
864.808486
20
318.255504
11
864.250000
21
318.194164
0
LINE
8
0
10
864.250000
20
318.194164
11
863.367188
21
317.827322
0
LINE
8
0
10
863.367188
20
317.827322
11
863.000000
21
317.056200
0
LINE
8
0
10
863.000000
20
317.056200
11
863.354102
21
316.526363
0
LINE
8
0
10
863.354102
20
316.526363
11
864.250000
21
316.806200
0
LINE
8
0
10
864.250000
20
316.806200
11
866.087414
21
317.377568
0
LINE
8
0
10
866.087414
20
317.377568
11
868.749706
21
317.615217
0
LINE
8
0
10
868.749706
20
317.615217
11
870.011529
21
317.551381
0
LINE
8
0
10
870.011529
20
317.551381
11
871.743169
21
317.120326
0
LINE
8
0
10
871.743169
20
317.120326
11
871.999706
21
316.806200
0
LINE
8
0
10
871.999706
20
316.806200
11
872.268681
21
316.400939
0
LINE
8
0
10
872.268681
20
316.400939
11
872.914953
21
316.562655
0
LINE
8
0
10
872.914953
20
316.562655
11
873.954500
21
316.576738
0
LINE
8
0
10
873.954500
20
316.576738
11
878.122152
21
314.882429
0
LINE
8
0
10
878.122152
20
314.882429
11
883.663218
21
311.701643
0
LINE
8
0
10
883.663218
20
311.701643
11
888.884107
21
308.006567
0
LINE
8
0
10
888.884107
20
308.006567
11
890.845238
21
306.269979
0
LINE
8
0
10
890.845238
20
306.269979
11
892.598820
21
304.656763
0
LINE
8
0
10
892.598820
20
304.656763
11
895.760343
21
302.443054
0
LINE
8
0
10
895.760343
20
302.443054
11
896.778888
21
302.115217
0
LINE
8
0
10
896.778888
20
302.115217
11
897.268306
21
301.979723
0
LINE
8
0
10
897.268306
20
301.979723
11
898.880758
21
300.977452
0
LINE
8
0
10
898.880758
20
300.977452
11
902.375912
21
298.054272
0
LINE
8
0
10
902.375912
20
298.054272
11
905.028888
21
295.476634
0
LINE
8
0
10
905.028888
20
295.476634
11
907.423140
21
292.959788
0
LINE
8
0
10
907.423140
20
292.959788
11
909.728096
21
290.316262
0
LINE
8
0
10
909.728096
20
290.316262
11
910.169242
21
289.589207
0
LINE
8
0
10
910.169242
20
289.589207
11
910.000000
21
289.608474
0
LINE
8
0
10
910.000000
20
289.608474
11
909.693750
21
289.655089
0
LINE
8
0
10
909.693750
20
289.655089
11
910.759375
21
288.360404
0
LINE
8
0
10
910.759375
20
288.360404
11
912.000000
21
287.178568
0
LINE
8
0
10
912.000000
20
287.178568
11
913.240625
21
285.986810
0
LINE
8
0
10
913.240625
20
285.986810
11
914.306250
21
284.625126
0
LINE
8
0
10
914.306250
20
284.625126
11
914.000000
21
284.622916
0
LINE
8
0
10
914.000000
20
284.622916
11
913.603859
21
284.709408
0
LINE
8
0
10
913.603859
20
284.709408
11
914.062495
21
283.946681
0
LINE
8
0
10
914.062495
20
283.946681
11
914.860784
21
283.191405
0
LINE
8
0
10
914.860784
20
283.191405
11
915.718477
21
282.385260
0
LINE
8
0
10
915.718477
20
282.385260
11
916.578243
21
281.279041
0
LINE
8
0
10
916.578243
20
281.279041
11
916.474420
21
281.115217
0
LINE
8
0
10
916.474420
20
281.115217
11
916.391111
21
280.908423
0
LINE
8
0
10
916.391111
20
280.908423
11
917.389390
21
279.512054
0
LINE
8
0
10
917.389390
20
279.512054
11
918.348025
21
278.494465
0
LINE
8
0
10
918.348025
20
278.494465
11
919.327845
21
277.415766
0
LINE
8
0
10
919.327845
20
277.415766
11
920.469187
21
275.606753
0
LINE
8
0
10
920.469187
20
275.606753
11
920.490132
21
275.099250
0
LINE
8
0
10
920.490132
20
275.099250
11
920.633071
21
274.367715
0
LINE
8
0
10
920.633071
20
274.367715
11
921.648872
21
273.696463
0
LINE
8
0
10
921.648872
20
273.696463
11
922.634044
21
273.081480
0
LINE
8
0
10
922.634044
20
273.081480
11
922.703345
21
272.485229
0
LINE
8
0
10
922.703345
20
272.485229
11
922.627345
21
272.097533
0
LINE
8
0
10
922.627345
20
272.097533
11
923.331878
21
270.697352
0
LINE
8
0
10
923.331878
20
270.697352
11
924.025637
21
269.857324
0
LINE
8
0
10
924.025637
20
269.857324
11
924.724010
21
268.996335
0
LINE
8
0
10
924.724010
20
268.996335
11
925.459699
21
267.454615
0
LINE
8
0
10
925.459699
20
267.454615
11
925.406403
21
266.963773
0
LINE
8
0
10
925.406403
20
266.963773
11
925.364442
21
266.364481
0
LINE
8
0
10
925.364442
20
266.364481
11
926.000000
21
266.115217
0
LINE
8
0
10
926.000000
20
266.115217
11
926.608064
21
265.821467
0
LINE
8
0
10
926.608064
20
265.821467
11
926.500000
21
265.115217
0
LINE
8
0
10
926.500000
20
265.115217
11
926.391936
21
264.408967
0
LINE
8
0
10
926.391936
20
264.408967
11
927.000000
21
264.115217
0
LINE
8
0
10
927.000000
20
264.115217
11
927.608064
21
263.821467
0
LINE
8
0
10
927.608064
20
263.821467
11
927.500000
21
263.115217
0
LINE
8
0
10
927.500000
20
263.115217
11
927.391936
21
262.408967
0
LINE
8
0
10
927.391936
20
262.408967
11
928.000000
21
262.115217
0
LINE
8
0
10
928.000000
20
262.115217
11
928.608064
21
261.821467
0
LINE
8
0
10
928.608064
20
261.821467
11
928.500000
21
261.115217
0
LINE
8
0
10
928.500000
20
261.115217
11
928.391936
21
260.408967
0
LINE
8
0
10
928.391936
20
260.408967
11
929.000000
21
260.115217
0
LINE
8
0
10
929.000000
20
260.115217
11
929.608064
21
259.821467
0
LINE
8
0
10
929.608064
20
259.821467
11
929.500000
21
259.115217
0
LINE
8
0
10
929.500000
20
259.115217
11
929.391936
21
258.408967
0
LINE
8
0
10
929.391936
20
258.408967
11
930.000000
21
258.115217
0
LINE
8
0
10
930.000000
20
258.115217
11
930.608064
21
257.821467
0
LINE
8
0
10
930.608064
20
257.821467
11
930.500000
21
257.115217
0
LINE
8
0
10
930.500000
20
257.115217
11
930.391936
21
256.408967
0
LINE
8
0
10
930.391936
20
256.408967
11
931.000000
21
256.115217
0
LINE
8
0
10
931.000000
20
256.115217
11
931.608064
21
255.821467
0
LINE
8
0
10
931.608064
20
255.821467
11
931.500000
21
255.115217
0
LINE
8
0
10
931.500000
20
255.115217
11
931.391936
21
254.408967
0
LINE
8
0
10
931.391936
20
254.408967
11
932.000000
21
254.115217
0
LINE
8
0
10
932.000000
20
254.115217
11
932.608064
21
253.821467
0
LINE
8
0
10
932.608064
20
253.821467
11
932.500000
21
253.115217
0
LINE
8
0
10
932.500000
20
253.115217
11
932.391936
21
252.408967
0
LINE
8
0
10
932.391936
20
252.408967
11
933.000000
21
252.115217
0
LINE
8
0
10
933.000000
20
252.115217
11
933.623570
21
251.846556
0
LINE
8
0
10
933.623570
20
251.846556
11
933.552786
21
251.200627
0
LINE
8
0
10
933.552786
20
251.200627
11
933.462213
21
250.451821
0
LINE
8
0
10
933.462213
20
250.451821
11
934.038202
21
249.935816
0
LINE
8
0
10
934.038202
20
249.935816
11
934.829692
21
249.031886
0
LINE
8
0
10
934.829692
20
249.031886
11
935.257237
21
247.350406
0
LINE
8
0
10
935.257237
20
247.350406
11
935.598169
21
245.771804
0
LINE
8
0
10
935.598169
20
245.771804
11
936.181420
21
245.115217
0
LINE
8
0
10
936.181420
20
245.115217
11
936.546127
21
244.674592
0
LINE
8
0
10
936.546127
20
244.674592
11
936.361626
21
243.615217
0
LINE
8
0
10
936.361626
20
243.615217
11
936.297620
21
242.555842
0
LINE
8
0
10
936.297620
20
242.555842
11
936.952028
21
242.115217
0
LINE
8
0
10
936.952028
20
242.115217
11
937.593972
21
241.821467
0
LINE
8
0
10
937.593972
20
241.821467
11
937.500000
21
241.115217
0
LINE
8
0
10
937.500000
20
241.115217
11
937.365380
21
240.408967
0
LINE
8
0
10
937.365380
20
240.408967
11
937.909598
21
240.115217
0
LINE
8
0
10
937.909598
20
240.115217
11
938.466280
21
239.674592
0
LINE
8
0
10
938.466280
20
239.674592
11
938.361626
21
238.615217
0
LINE
8
0
10
938.361626
20
238.615217
11
938.271065
21
237.555842
0
LINE
8
0
10
938.271065
20
237.555842
11
938.861626
21
237.115217
0
LINE
8
0
10
938.861626
20
237.115217
11
939.452188
21
236.674592
0
LINE
8
0
10
939.452188
20
236.674592
11
939.361626
21
235.615217
0
LINE
8
0
10
939.361626
20
235.615217
11
939.297620
21
234.555842
0
LINE
8
0
10
939.297620
20
234.555842
11
939.952028
21
234.115217
0
LINE
8
0
10
939.952028
20
234.115217
11
940.606517
21
233.841765
0
LINE
8
0
10
940.606517
20
233.841765
11
940.542705
21
233.184315
0
LINE
8
0
10
940.542705
20
233.184315
11
940.439712
21
232.339396
0
LINE
8
0
10
940.439712
20
232.339396
11
941.000000
21
231.615217
0
LINE
8
0
10
941.000000
20
231.615217
11
941.572832
21
230.911336
0
LINE
8
0
10
941.572832
20
230.911336
11
941.500000
21
230.115217
0
LINE
8
0
10
941.500000
20
230.115217
11
941.409547
21
229.329988
0
LINE
8
0
10
941.409547
20
229.329988
11
941.940014
21
228.652290
0
LINE
8
0
10
941.940014
20
228.652290
11
942.461466
21
227.796529
0
LINE
8
0
10
942.461466
20
227.796529
11
942.349337
21
226.583192
0
LINE
8
0
10
942.349337
20
226.583192
11
942.296469
21
225.546435
0
LINE
8
0
10
942.296469
20
225.546435
11
942.960399
21
225.115217
0
LINE
8
0
10
942.960399
20
225.115217
11
943.411649
21
224.972071
0
LINE
8
0
10
943.411649
20
224.972071
11
943.666431
21
223.888818
0
LINE
8
0
10
943.666431
20
223.888818
11
943.460254
21
222.989988
0
LINE
8
0
10
943.460254
20
222.989988
11
943.226091
21
222.080471
0
LINE
8
0
10
943.226091
20
222.080471
11
943.459230
21
221.381977
0
LINE
8
0
10
943.459230
20
221.381977
11
943.932948
21
221.573777
0
LINE
8
0
10
943.932948
20
221.573777
11
944.415902
21
221.741324
0
LINE
8
0
10
944.415902
20
221.741324
11
944.641201
21
220.752818
0
LINE
8
0
10
944.641201
20
220.752818
11
944.394239
21
219.549853
0
LINE
8
0
10
944.394239
20
219.549853
11
944.133028
21
218.295722
0
LINE
8
0
10
944.133028
20
218.295722
11
944.403047
21
217.363094
0
LINE
8
0
10
944.403047
20
217.363094
11
944.961291
21
217.591294
0
LINE
8
0
10
944.961291
20
217.591294
11
945.508325
21
217.838411
0
LINE
8
0
10
945.508325
20
217.838411
11
945.786850
21
217.187981
0
LINE
8
0
10
945.786850
20
217.187981
11
945.539746
21
216.240447
0
LINE
8
0
10
945.539746
20
216.240447
11
945.336908
21
215.353741
0
LINE
8
0
10
945.336908
20
215.353741
11
945.573255
21
214.262405
0
LINE
8
0
10
945.573255
20
214.262405
11
946.000000
21
214.115217
0
LINE
8
0
10
946.000000
20
214.115217
11
946.418341
21
213.971178
0
LINE
8
0
10
946.418341
20
213.971178
11
946.677861
21
212.933101
0
LINE
8
0
10
946.677861
20
212.933101
11
946.500000
21
212.115217
0
LINE
8
0
10
946.500000
20
212.115217
11
946.322139
21
211.297333
0
LINE
8
0
10
946.322139
20
211.297333
11
946.581659
21
210.259256
0
LINE
8
0
10
946.581659
20
210.259256
11
947.000000
21
210.115217
0
LINE
8
0
10
947.000000
20
210.115217
11
947.418341
21
209.971178
0
LINE
8
0
10
947.418341
20
209.971178
11
947.677861
21
208.933101
0
LINE
8
0
10
947.677861
20
208.933101
11
947.500000
21
208.115217
0
LINE
8
0
10
947.500000
20
208.115217
11
947.318442
21
207.283260
0
LINE
8
0
10
947.318442
20
207.283260
11
947.600945
21
206.254565
0
LINE
8
0
10
947.600945
20
206.254565
11
948.049244
21
206.115217
0
LINE
8
0
10
948.049244
20
206.115217
11
948.487223
21
205.967047
0
LINE
8
0
10
948.487223
20
205.967047
11
948.833227
21
204.921080
0
LINE
8
0
10
948.833227
20
204.921080
11
948.710511
21
204.116213
0
LINE
8
0
10
948.710511
20
204.116213
11
948.624689
21
202.529284
0
LINE
8
0
10
948.624689
20
202.529284
11
949.152426
21
201.521013
0
LINE
8
0
10
949.152426
20
201.521013
11
949.474477
21
201.050443
0
LINE
8
0
10
949.474477
20
201.050443
11
949.633888
21
199.118411
0
LINE
8
0
10
949.633888
20
199.118411
11
949.451613
21
197.894912
0
LINE
8
0
10
949.451613
20
197.894912
11
949.196856
21
196.489268
0
LINE
8
0
10
949.196856
20
196.489268
11
949.480031
21
195.423339
0
LINE
8
0
10
949.480031
20
195.423339
11
950.049165
21
195.645603
0
LINE
8
0
10
950.049165
20
195.645603
11
950.619632
21
195.862646
0
LINE
8
0
10
950.619632
20
195.862646
11
950.922993
21
194.754783
0
LINE
8
0
10
950.922993
20
194.754783
11
950.688853
21
193.309482
0
LINE
8
0
10
950.688853
20
193.309482
11
950.523313
21
192.052044
0
LINE
8
0
10
950.523313
20
192.052044
11
950.707702
21
190.072194
0
LINE
8
0
10
950.707702
20
190.072194
11
951.034921
21
189.593635
0
LINE
8
0
10
951.034921
20
189.593635
11
951.368555
21
189.043773
0
LINE
8
0
10
951.368555
20
189.043773
11
951.534795
21
186.567226
0
LINE
8
0
10
951.534795
20
186.567226
11
951.349870
21
184.901720
0
LINE
8
0
10
951.349870
20
184.901720
11
951.115297
21
183.078001
0
LINE
8
0
10
951.115297
20
183.078001
11
951.341715
21
181.417190
0
LINE
8
0
10
951.341715
20
181.417190
11
951.813622
21
181.500029
0
LINE
8
0
10
951.813622
20
181.500029
11
952.298629
21
181.438216
0
LINE
8
0
10
952.298629
20
181.438216
11
952.610074
21
179.595002
0
LINE
8
0
10
952.610074
20
179.595002
11
952.552872
21
177.078629
0
LINE
8
0
10
952.552872
20
177.078629
11
952.448048
21
175.403171
0
LINE
8
0
10
952.448048
20
175.403171
11
952.320792
21
172.902757
0
LINE
8
0
10
952.320792
20
172.902757
11
952.386492
21
170.535853
0
LINE
8
0
10
952.386492
20
170.535853
11
952.587755
21
170.123208
0
LINE
8
0
10
952.587755
20
170.123208
11
952.732129
21
170.328909
0
LINE
8
0
10
952.732129
20
170.328909
11
952.886378
21
170.194275
0
LINE
8
0
10
952.886378
20
170.194275
11
953.160682
21
167.264120
0
LINE
8
0
10
953.160682
20
167.264120
11
953.368397
21
161.380820
0
LINE
8
0
10
953.368397
20
161.380820
11
953.484328
21
153.258016
0
LINE
8
0
10
953.484328
20
153.258016
11
953.500000
21
148.579813
0
LINE
8
0
10
953.500000
20
148.579813
11
953.482084
21
143.866615
0
LINE
8
0
10
953.482084
20
143.866615
11
953.349555
21
135.484947
0
LINE
8
0
10
953.349555
20
135.484947
11
953.112101
21
129.137835
0
LINE
8
0
10
953.112101
20
129.137835
11
952.798525
21
125.595181
0
LINE
8
0
10
952.798525
20
125.595181
11
952.622192
21
125.116121
0
LINE
8
0
10
952.622192
20
125.116121
11
952.332754
21
124.794338
0
LINE
8
0
10
952.332754
20
124.794338
11
952.212118
21
122.623395
0
LINE
8
0
10
952.212118
20
122.623395
11
952.395777
21
121.041623
0
LINE
8
0
10
952.395777
20
121.041623
11
952.635509
21
119.190661
0
LINE
8
0
10
952.635509
20
119.190661
11
952.389177
21
117.571886
0
LINE
8
0
10
952.389177
20
117.571886
11
951.885175
21
117.686183
0
LINE
8
0
10
951.885175
20
117.686183
11
951.383885
21
117.818262
0
LINE
8
0
10
951.383885
20
117.818262
11
951.162063
21
116.359004
0
LINE
8
0
10
951.162063
20
116.359004
11
951.425369
21
114.661341
0
LINE
8
0
10
951.425369
20
114.661341
11
951.697269
21
112.923446
0
LINE
8
0
10
951.697269
20
112.923446
11
951.451166
21
111.502476
0
LINE
8
0
10
951.451166
20
111.502476
11
950.907681
21
111.672273
0
LINE
8
0
10
950.907681
20
111.672273
11
950.367392
21
111.861102
0
LINE
8
0
10
950.367392
20
111.861102
11
950.090533
21
110.688652
0
LINE
8
0
10
950.090533
20
110.688652
11
950.328844
21
109.220997
0
LINE
8
0
10
950.328844
20
109.220997
11
950.554877
21
107.807509
0
LINE
8
0
10
950.554877
20
107.807509
11
950.315218
21
106.581016
0
LINE
8
0
10
950.315218
20
106.581016
11
949.839099
21
106.714659
0
LINE
8
0
10
949.839099
20
106.714659
11
949.369323
21
106.876811
0
LINE
8
0
10
949.369323
20
106.876811
11
949.132415
21
105.946939
0
LINE
8
0
10
949.132415
20
105.946939
11
949.357827
21
104.825655
0
LINE
8
0
10
949.357827
20
104.825655
11
949.534271
21
103.774019
0
LINE
8
0
10
949.534271
20
103.774019
11
949.368842
21
102.079048
0
LINE
8
0
10
949.368842
20
102.079048
11
949.047344
21
101.644478
0
LINE
8
0
10
949.047344
20
101.644478
11
948.534821
21
100.794234
0
LINE
8
0
10
948.534821
20
100.794234
11
948.650663
21
99.583192
0
LINE
8
0
10
948.650663
20
99.583192
11
948.703531
21
98.546435
0
LINE
8
0
10
948.703531
20
98.546435
11
948.039601
21
98.115217
0
LINE
8
0
10
948.039601
20
98.115217
11
947.588351
21
97.972071
0
LINE
8
0
10
947.588351
20
97.972071
11
947.333569
21
96.888818
0
LINE
8
0
10
947.333569
20
96.888818
11
947.539746
21
95.989988
0
LINE
8
0
10
947.539746
20
95.989988
11
947.782353
21
95.055613
0
LINE
8
0
10
947.782353
20
95.055613
11
947.520280
21
94.388095
0
LINE
8
0
10
947.520280
20
94.388095
11
947.000000
21
94.615217
0
LINE
8
0
10
947.000000
20
94.615217
11
946.476835
21
94.840669
0
LINE
8
0
10
946.476835
20
94.840669
11
946.235227
21
94.115845
0
LINE
8
0
10
946.235227
20
94.115845
11
946.500000
21
93.115217
0
LINE
8
0
10
946.500000
20
93.115217
11
946.770948
21
92.096596
0
LINE
8
0
10
946.770948
20
92.096596
11
946.507867
21
91.394495
0
LINE
8
0
10
946.507867
20
91.394495
11
945.949610
21
91.646360
0
LINE
8
0
10
945.949610
20
91.646360
11
945.393862
21
91.892427
0
LINE
8
0
10
945.393862
20
91.892427
11
945.055792
21
91.228177
0
LINE
8
0
10
945.055792
20
91.228177
11
945.249218
21
90.270209
0
LINE
8
0
10
945.249218
20
90.270209
11
945.419535
21
89.393250
0
LINE
8
0
10
945.419535
20
89.393250
11
945.165896
21
88.632334
0
LINE
8
0
10
945.165896
20
88.632334
11
944.749218
21
88.770209
0
LINE
8
0
10
944.749218
20
88.770209
11
944.332563
21
88.908123
0
LINE
8
0
10
944.332563
20
88.908123
11
944.078729
21
88.147869
0
LINE
8
0
10
944.078729
20
88.147869
11
944.248857
21
87.271589
0
LINE
8
0
10
944.248857
20
87.271589
11
944.391634
21
86.434310
0
LINE
8
0
10
944.391634
20
86.434310
11
944.177714
21
85.285368
0
LINE
8
0
10
944.177714
20
85.285368
11
943.847363
21
85.115217
0
LINE
8
0
10
943.847363
20
85.115217
11
943.347099
21
84.821467
0
LINE
8
0
10
943.347099
20
84.821467
11
943.500000
21
84.115217
0
LINE
8
0
10
943.500000
20
84.115217
11
943.593972
21
83.408967
0
LINE
8
0
10
943.593972
20
83.408967
11
942.952028
21
83.115217
0
LINE
8
0
10
942.952028
20
83.115217
11
942.297620
21
82.674592
0
LINE
8
0
10
942.297620
20
82.674592
11
942.361626
21
81.615217
0
LINE
8
0
10
942.361626
20
81.615217
11
942.434658
21
80.555842
0
LINE
8
0
10
942.434658
20
80.555842
11
941.801949
21
80.115217
0
LINE
8
0
10
941.801949
20
80.115217
11
941.193440
21
79.921932
0
LINE
8
0
10
941.193440
20
79.921932
11
941.324657
21
79.457226
0
LINE
8
0
10
941.324657
20
79.457226
11
941.462194
21
78.598305
0
LINE
8
0
10
941.462194
20
78.598305
11
940.868879
21
77.457226
0
LINE
8
0
10
940.868879
20
77.457226
11
940.265123
21
76.509432
0
LINE
8
0
10
940.265123
20
76.509432
11
940.377555
21
76.115217
0
LINE
8
0
10
940.377555
20
76.115217
11
940.455325
21
75.951304
0
LINE
8
0
10
940.455325
20
75.951304
11
939.680150
21
74.844482
0
LINE
8
0
10
939.680150
20
74.844482
11
938.922681
21
74.037898
0
LINE
8
0
10
938.922681
20
74.037898
11
938.159175
21
73.119056
0
LINE
8
0
10
938.159175
20
73.119056
11
937.343234
21
71.254212
0
LINE
8
0
10
937.343234
20
71.254212
11
937.391296
21
70.537898
0
LINE
8
0
10
937.391296
20
70.537898
11
937.492332
21
69.533130
0
LINE
8
0
10
937.492332
20
69.533130
11
936.968615
21
69.115217
0
LINE
8
0
10
936.968615
20
69.115217
11
936.346938
21
68.894905
0
LINE
8
0
10
936.346938
20
68.894905
11
936.212452
21
68.365217
0
LINE
8
0
10
936.212452
20
68.365217
11
935.956348
21
66.996629
0
LINE
8
0
10
935.956348
20
66.996629
11
933.538271
21
62.912655
0
LINE
8
0
10
933.538271
20
62.912655
11
932.086657
21
61.397020
0
LINE
8
0
10
932.086657
20
61.397020
11
931.544849
21
60.921508
0
LINE
8
0
10
931.544849
20
60.921508
11
931.200904
21
60.255492
0
LINE
8
0
10
931.200904
20
60.255492
11
931.441130
21
60.147020
0
LINE
8
0
10
931.441130
20
60.147020
11
931.653385
21
60.010461
0
LINE
8
0
10
931.653385
20
60.010461
11
931.120573
21
59.154785
0
LINE
8
0
10
931.120573
20
59.154785
11
930.441130
21
58.541060
0
LINE
8
0
10
930.441130
20
58.541060
11
929.805785
21
57.981000
0
LINE
8
0
10
929.805785
20
57.981000
11
929.570745
21
57.487699
0
LINE
8
0
10
929.570745
20
57.487699
11
930.000000
21
57.615217
0
LINE
8
0
10
930.000000
20
57.615217
11
930.424609
21
57.739338
0
LINE
8
0
10
930.424609
20
57.739338
11
930.158203
21
57.223102
0
LINE
8
0
10
930.158203
20
57.223102
11
929.500000
21
56.646328
0
LINE
8
0
10
929.500000
20
56.646328
11
928.087500
21
55.256186
0
LINE
8
0
10
928.087500
20
55.256186
11
927.500000
21
54.184900
0
LINE
8
0
10
927.500000
20
54.184900
11
927.302734
21
53.684385
0
LINE
8
0
10
927.302734
20
53.684385
11
925.970703
21
52.068290
0
LINE
8
0
10
925.970703
20
52.068290
11
925.000000
21
51.151760
0
LINE
8
0
10
925.000000
20
51.151760
11
924.147656
21
50.352731
0
LINE
8
0
10
924.147656
20
50.352731
11
923.614844
21
49.530064
0
LINE
8
0
10
923.614844
20
49.530064
11
924.000000
21
49.607750
0
LINE
8
0
10
924.000000
20
49.607750
11
924.266797
21
49.573264
0
LINE
8
0
10
924.266797
20
49.573264
11
922.934766
21
47.993155
0
LINE
8
0
10
922.934766
20
47.993155
11
921.500000
21
46.642149
0
LINE
8
0
10
921.500000
20
46.642149
11
917.699027
21
43.002940
0
LINE
8
0
10
917.699027
20
43.002940
11
914.177537
21
39.323428
0
LINE
8
0
10
914.177537
20
39.323428
11
912.943922
21
37.992922
0
LINE
8
0
10
912.943922
20
37.992922
11
911.554743
21
36.755337
0
LINE
8
0
10
911.554743
20
36.755337
11
911.570281
21
37.000689
0
LINE
8
0
10
911.570281
20
37.000689
11
911.600000
21
37.355301
0
LINE
8
0
10
911.600000
20
37.355301
11
910.306577
21
36.855492
0
LINE
8
0
10
910.306577
20
36.855492
11
909.142743
21
36.062631
0
LINE
8
0
10
909.142743
20
36.062631
11
908.063374
21
35.239826
0
LINE
8
0
10
908.063374
20
35.239826
11
906.541339
21
33.941912
0
LINE
8
0
10
906.541339
20
33.941912
11
905.982477
21
33.249188
0
LINE
8
0
10
905.982477
20
33.249188
11
906.523870
21
33.331571
0
LINE
8
0
10
906.523870
20
33.331571
11
907.250000
21
33.716525
0
LINE
8
0
10
907.250000
20
33.716525
11
907.689574
21
33.937376
0
LINE
8
0
10
907.689574
20
33.937376
11
907.907947
21
33.837283
0
LINE
8
0
10
907.907947
20
33.837283
11
907.666667
21
33.525542
0
LINE
8
0
10
907.666667
20
33.525542
11
906.808854
21
32.845906
0
LINE
8
0
10
906.808854
20
32.845906
11
905.916667
21
32.490217
0
LINE
8
0
10
905.916667
20
32.490217
11
904.958185
21
32.365217
0
LINE
8
0
10
904.958185
20
32.365217
11
903.940983
21
32.240217
0
LINE
8
0
10
903.940983
20
32.240217
11
903.402650
21
31.812799
0
LINE
8
0
10
903.402650
20
31.812799
11
903.595492
21
30.960709
0
LINE
8
0
10
903.595492
20
30.960709
11
903.809086
21
30.536404
0
LINE
8
0
10
903.809086
20
30.536404
11
903.610541
21
30.289101
0
LINE
8
0
10
903.610541
20
30.289101
11
903.212620
21
30.483811
0
LINE
8
0
10
903.212620
20
30.483811
11
902.541020
21
30.506550
0
LINE
8
0
10
902.541020
20
30.506550
11
900.296483
21
29.244533
0
LINE
8
0
10
900.296483
20
29.244533
11
899.000000
21
28.115217
0
LINE
8
0
10
899.000000
20
28.115217
11
897.715708
21
26.978366
0
LINE
8
0
10
897.715708
20
26.978366
11
895.553496
21
25.665471
0
LINE
8
0
10
895.553496
20
25.665471
11
894.941889
21
25.651132
0
LINE
8
0
10
894.941889
20
25.651132
11
894.276680
21
25.733831
0
LINE
8
0
10
894.276680
20
25.733831
11
894.000000
21
25.115217
0
LINE
8
0
10
894.000000
20
25.115217
11
893.706250
21
24.507153
0
LINE
8
0
10
893.706250
20
24.507153
11
893.000000
21
24.615217
0
LINE
8
0
10
893.000000
20
24.615217
11
892.293750
21
24.723281
0
LINE
8
0
10
892.293750
20
24.723281
11
892.000000
21
24.115217
0
LINE
8
0
10
892.000000
20
24.115217
11
891.706250
21
23.507153
0
LINE
8
0
10
891.706250
20
23.507153
11
891.000000
21
23.615217
0
LINE
8
0
10
891.000000
20
23.615217
11
890.293750
21
23.723281
0
LINE
8
0
10
890.293750
20
23.723281
11
890.000000
21
23.115217
0
LINE
8
0
10
890.000000
20
23.115217
11
889.732759
21
22.490770
0
LINE
8
0
10
889.732759
20
22.490770
11
889.090242
21
22.559444
0
LINE
8
0
10
889.090242
20
22.559444
11
887.863240
21
22.823650
0
LINE
8
0
10
887.863240
20
22.823650
11
885.690425
21
21.744511
0
LINE
8
0
10
885.690425
20
21.744511
11
885.660252
21
20.855924
0
LINE
8
0
10
885.660252
20
20.855924
11
885.839267
21
20.479239
0
LINE
8
0
10
885.839267
20
20.479239
11
885.545869
21
20.324328
0
LINE
8
0
10
885.545869
20
20.324328
11
885.094152
21
20.557028
0
LINE
8
0
10
885.094152
20
20.557028
11
883.307113
21
20.734232
0
LINE
8
0
10
883.307113
20
20.734232
11
879.912760
21
19.561823
0
LINE
8
0
10
879.912760
20
19.561823
11
878.620703
21
18.418580
0
LINE
8
0
10
878.620703
20
18.418580
11
878.637939
21
17.892027
0
LINE
8
0
10
878.637939
20
17.892027
11
878.739211
21
17.526572
0
LINE
8
0
10
878.739211
20
17.526572
11
877.899365
21
17.384639
0
LINE
8
0
10
877.899365
20
17.384639
11
877.000000
21
17.615217
0
LINE
8
0
10
877.000000
20
17.615217
11
875.999372
21
17.879990
0
LINE
8
0
10
875.999372
20
17.879990
11
875.274548
21
17.638382
0
LINE
8
0
10
875.274548
20
17.638382
11
875.500000
21
17.115217
0
LINE
8
0
10
875.500000
20
17.115217
11
875.725452
21
16.592052
0
LINE
8
0
10
875.725452
20
16.592052
11
875.000628
21
16.350444
0
LINE
8
0
10
875.000628
20
16.350444
11
874.000000
21
16.615217
0
LINE
8
0
10
874.000000
20
16.615217
11
873.095482
21
16.847517
0
LINE
8
0
10
873.095482
20
16.847517
11
872.261069
21
16.701205
0
LINE
8
0
10
872.261069
20
16.701205
11
872.367860
21
16.329025
0
LINE
8
0
10
872.367860
20
16.329025
11
872.406962
21
15.874698
0
LINE
8
0
10
872.406962
20
15.874698
11
871.347483
21
15.040203
0
LINE
8
0
10
871.347483
20
15.040203
11
868.436729
21
14.408613
0
LINE
8
0
10
868.436729
20
14.408613
11
866.799503
21
14.739131
0
LINE
8
0
10
866.799503
20
14.739131
11
866.396291
21
14.937719
0
LINE
8
0
10
866.396291
20
14.937719
11
866.186565
21
14.702032
0
LINE
8
0
10
866.186565
20
14.702032
11
866.395202
21
14.284783
0
LINE
8
0
10
866.395202
20
14.284783
11
866.526259
21
13.800338
0
LINE
8
0
10
866.526259
20
13.800338
11
865.256511
21
13.521332
0
LINE
8
0
10
865.256511
20
13.521332
11
863.799711
21
13.714467
0
LINE
8
0
10
863.799711
20
13.714467
11
862.290340
21
13.934829
0
LINE
8
0
10
862.290340
20
13.934829
11
861.440848
21
13.692373
0
LINE
8
0
10
861.440848
20
13.692373
11
862.000000
21
13.200807
0
LINE
8
0
10
862.000000
20
13.200807
11
862.544405
21
12.712312
0
LINE
8
0
10
862.544405
20
12.712312
11
861.597858
21
12.475675
0
LINE
8
0
10
861.597858
20
12.475675
11
860.000000
21
12.700807
0
LINE
8
0
10
860.000000
20
12.700807
11
858.344321
21
12.935934
0
LINE
8
0
10
858.344321
20
12.935934
11
857.417047
21
12.665967
0
LINE
8
0
10
857.417047
20
12.665967
11
858.000000
21
12.118526
0
LINE
8
0
10
858.000000
20
12.118526
11
858.650065
21
11.555209
0
LINE
8
0
10
858.650065
20
11.555209
11
858.192940
21
11.260130
0
LINE
8
0
10
858.192940
20
11.260130
11
857.000000
21
11.473013
0
LINE
8
0
10
857.000000
20
11.473013
11
856.263086
21
11.539892
0
LINE
8
0
10
856.263086
20
11.539892
11
853.633789
21
11.448175
0
LINE
8
0
10
853.633789
20
11.448175
11
847.662500
21
10.827954
0
LINE
8
0
10
847.662500
20
10.827954
11
843.000000
21
10.155743
0
LINE
8
0
10
843.000000
20
10.155743
11
840.740918
21
9.781383
0
LINE
8
0
10
840.740918
20
9.781383
11
837.010254
21
9.085430
0
LINE
8
0
10
837.010254
20
9.085430
11
834.575684
21
8.517263
0
LINE
8
0
10
834.575684
20
8.517263
11
833.732520
21
8.145801
0
LINE
8
0
10
833.732520
20
8.145801
11
834.000000
21
8.055371
0
LINE
8
0
10
834.000000
20
8.055371
11
834.680810
21
7.948990
0
LINE
8
0
10
834.680810
20
7.948990
11
834.576921
21
7.702324
0
LINE
8
0
10
834.576921
20
7.702324
11
832.771935
21
7.426661
0
LINE
8
0
10
832.771935
20
7.426661
11
829.569351
21
7.141449
0
LINE
8
0
10
829.569351
20
7.141449
11
822.808881
21
6.738263
0
LINE
8
0
10
822.808881
20
6.738263
11
811.735981
21
6.348764
0
LINE
8
0
10
811.735981
20
6.348764
11
806.000000
21
6.261233
0
LINE
8
0
10
806.000000
20
6.261233
11
802.265115
21
6.247957
0
LINE
8
0
10
802.265115
20
6.247957
11
796.565134
21
6.324694
0
LINE
8
0
10
796.565134
20
6.324694
11
793.133595
21
6.545011
0
LINE
8
0
10
793.133595
20
6.545011
11
791.860959
21
6.915940
0
LINE
8
0
10
791.860959
20
6.915940
11
792.000000
21
7.160082
0
LINE
8
0
10
182.367294
20
162.600448
11
182.358529
21
163.435494
0
LINE
8
0
10
182.358529
20
163.435494
11
183.506084
21
165.960386
0
LINE
8
0
10
183.506084
20
165.960386
11
184.526154
21
167.350448
0
LINE
8
0
10
184.526154
20
167.350448
11
185.600996
21
168.606067
0
LINE
8
0
10
185.600996
20
168.606067
11
189.030497
21
172.484054
0
LINE
8
0
10
189.030497
20
172.484054
11
196.523253
21
180.787605
0
LINE
8
0
10
196.523253
20
180.787605
11
208.514555
21
193.895753
0
LINE
8
0
10
208.514555
20
193.895753
11
217.022993
21
203.083714
0
LINE
8
0
10
217.022993
20
203.083714
11
221.613275
21
207.972455
0
LINE
8
0
10
221.613275
20
207.972455
11
223.413604
21
209.859795
0
LINE
8
0
10
223.413604
20
209.859795
11
226.457066
21
213.096841
0
LINE
8
0
10
226.457066
20
213.096841
11
229.784316
21
216.892029
0
LINE
8
0
10
229.784316
20
216.892029
11
230.819427
21
218.298986
0
LINE
8
0
10
230.819427
20
218.298986
11
230.890071
21
218.558480
0
LINE
8
0
10
230.890071
20
218.558480
11
230.616846
21
218.609928
0
LINE
8
0
10
230.616846
20
218.609928
11
229.108319
21
218.477941
0
LINE
8
0
10
229.108319
20
218.477941
11
225.016900
21
217.784709
0
LINE
8
0
10
225.016900
20
217.784709
11
221.518638
21
217.063902
0
LINE
8
0
10
221.518638
20
217.063902
11
218.044685
21
216.331099
0
LINE
8
0
10
218.044685
20
216.331099
11
212.445208
21
215.349778
0
LINE
8
0
10
212.445208
20
215.349778
11
208.629244
21
215.081024
0
LINE
8
0
10
208.629244
20
215.081024
11
206.579524
21
215.605061
0
LINE
8
0
10
206.579524
20
215.605061
11
206.278778
21
217.002111
0
LINE
8
0
10
206.278778
20
217.002111
11
207.709735
21
219.352399
0
LINE
8
0
10
207.709735
20
219.352399
11
210.855127
21
222.736147
0
LINE
8
0
10
210.855127
20
222.736147
11
215.697682
21
227.233579
0
LINE
8
0
10
215.697682
20
227.233579
11
218.750000
21
229.924996
0
LINE
8
0
10
218.750000
20
229.924996
11
224.439583
21
234.935045
0
LINE
8
0
10
224.439583
20
234.935045
11
233.453387
21
243.019807
0
LINE
8
0
10
233.453387
20
243.019807
11
238.723946
21
247.837007
0
LINE
8
0
10
238.723946
20
247.837007
11
240.865509
21
249.828904
0
LINE
8
0
10
240.865509
20
249.828904
11
250.231018
21
258.615217
0
LINE
8
0
10
250.231018
20
258.615217
11
236.120876
21
258.269443
0
LINE
8
0
10
236.120876
20
258.269443
11
231.993531
21
258.180261
0
LINE
8
0
10
231.993531
20
258.180261
11
226.219907
21
258.168937
0
LINE
8
0
10
226.219907
20
258.168937
11
223.059337
21
258.439926
0
LINE
8
0
10
223.059337
20
258.439926
11
221.677779
21
259.064739
0
LINE
8
0
10
221.677779
20
259.064739
11
221.393492
21
259.532178
0
LINE
8
0
10
221.393492
20
259.532178
11
221.188647
21
260.383190
0
LINE
8
0
10
221.188647
20
260.383190
11
221.738399
21
262.084916
0
LINE
8
0
10
221.738399
20
262.084916
11
223.942456
21
264.135110
0
LINE
8
0
10
223.942456
20
264.135110
11
228.250871
21
266.952411
0
LINE
8
0
10
228.250871
20
266.952411
11
231.334857
21
268.779551
0
LINE
8
0
10
231.334857
20
268.779551
11
234.992748
21
270.987905
0
LINE
8
0
10
234.992748
20
270.987905
11
242.812838
21
276.144133
0
LINE
8
0
10
242.812838
20
276.144133
11
255.321278
21
285.329312
0
LINE
8
0
10
255.321278
20
285.329312
11
272.101135
21
299.170157
0
LINE
8
0
10
272.101135
20
299.170157
11
283.636726
21
309.817671
0
LINE
8
0
10
283.636726
20
309.817671
11
290.344989
21
316.645139
0
LINE
8
0
10
290.344989
20
316.645139
11
293.307988
21
319.898019
0
LINE
8
0
10
293.307988
20
319.898019
11
301.702411
21
329.720765
0
LINE
8
0
10
301.702411
20
329.720765
11
312.311262
21
343.384162
0
LINE
8
0
10
312.311262
20
343.384162
11
317.240105
21
350.141725
0
LINE
8
0
10
317.240105
20
350.141725
11
322.864103
21
358.040389
0
LINE
8
0
10
322.864103
20
358.040389
11
329.385625
21
367.348619
0
LINE
8
0
10
329.385625
20
367.348619
11
333.046197
21
372.615217
0
LINE
8
0
10
333.046197
20
372.615217
11
338.614988
21
380.610747
0
LINE
8
0
10
338.614988
20
380.610747
11
348.857635
21
395.098316
0
LINE
8
0
10
348.857635
20
395.098316
11
358.140344
21
407.877933
0
LINE
8
0
10
358.140344
20
407.877933
11
366.743078
21
419.305648
0
LINE
8
0
10
366.743078
20
419.305648
11
378.984653
21
434.691257
0
LINE
8
0
10
378.984653
20
434.691257
11
395.539855
21
453.796853
0
LINE
8
0
10
395.539855
20
453.796853
11
404.547279
21
463.547093
0
LINE
8
0
10
404.547279
20
463.547093
11
407.450526
21
466.644948
0
LINE
8
0
10
407.450526
20
466.644948
11
412.613422
21
472.199205
0
LINE
8
0
10
412.613422
20
472.199205
11
416.522996
21
476.466810
0
LINE
8
0
10
416.522996
20
476.466810
11
418.705018
21
478.930105
0
LINE
8
0
10
418.705018
20
478.930105
11
419.000000
21
479.323367
0
LINE
8
0
10
419.000000
20
479.323367
11
418.865646
21
479.605743
0
LINE
8
0
10
418.865646
20
479.605743
11
417.871809
21
481.248797
0
LINE
8
0
10
417.871809
20
481.248797
11
414.973226
21
485.772773
0
LINE
8
0
10
414.973226
20
485.772773
11
412.417279
21
489.666740
0
LINE
8
0
10
412.417279
20
489.666740
11
408.458427
21
495.952715
0
LINE
8
0
10
408.458427
20
495.952715
11
401.537346
21
508.805274
0
LINE
8
0
10
401.537346
20
508.805274
11
395.966233
21
521.931316
0
LINE
8
0
10
395.966233
20
521.931316
11
391.770455
21
535.210050
0
LINE
8
0
10
391.770455
20
535.210050
11
388.975375
21
548.520686
0
LINE
8
0
10
388.975375
20
548.520686
11
387.606358
21
561.742433
0
LINE
8
0
10
387.606358
20
561.742433
11
387.688769
21
574.754499
0
LINE
8
0
10
387.688769
20
574.754499
11
389.247973
21
587.436094
0
LINE
8
0
10
389.247973
20
587.436094
11
390.589298
21
593.615217
0
LINE
8
0
10
390.589298
20
593.615217
11
391.965266
21
598.569676
0
LINE
8
0
10
391.965266
20
598.569676
11
395.416171
21
608.030143
0
LINE
8
0
10
395.416171
20
608.030143
11
399.768802
21
616.855570
0
LINE
8
0
10
399.768802
20
616.855570
11
404.986879
21
625.001430
0
LINE
8
0
10
404.986879
20
625.001430
11
411.034121
21
632.423197
0
LINE
8
0
10
411.034121
20
632.423197
11
417.874247
21
639.076342
0
LINE
8
0
10
417.874247
20
639.076342
11
425.470977
21
644.916341
0
LINE
8
0
10
425.470977
20
644.916341
11
433.788031
21
649.898664
0
LINE
8
0
10
433.788031
20
649.898664
11
438.205342
21
652.054284
0
LINE
8
0
10
438.205342
20
652.054284
11
441.453818
21
653.391427
0
LINE
8
0
10
441.453818
20
653.391427
11
450.147513
21
656.416440
0
LINE
8
0
10
450.147513
20
656.416440
11
454.521954
21
657.731727
0
LINE
8
0
10
454.521954
20
657.731727
11
460.325878
21
659.232281
0
LINE
8
0
10
460.325878
20
659.232281
11
468.183964
21
660.315289
0
LINE
8
0
10
468.183964
20
660.315289
11
475.276041
21
660.525953
0
LINE
8
0
10
475.276041
20
660.525953
11
480.000000
21
660.546593
0
LINE
8
0
10
480.000000
20
660.546593
11
484.401844
21
660.529141
0
LINE
8
0
10
484.401844
20
660.529141
11
491.379126
21
660.332360
0
LINE
8
0
10
491.379126
20
660.332360
11
499.259632
21
659.452568
0
LINE
8
0
10
499.259632
20
659.452568
11
504.330157
21
658.336353
0
LINE
8
0
10
504.330157
20
658.336353
11
511.234418
21
656.411355
0
LINE
8
0
10
511.234418
20
656.411355
11
523.867471
21
651.692999
0
LINE
8
0
10
523.867471
20
651.692999
11
535.227340
21
645.660650
0
LINE
8
0
10
535.227340
20
645.660650
11
545.666956
21
638.126896
0
LINE
8
0
10
545.666956
20
638.126896
11
550.651959
21
633.738424
0
LINE
8
0
10
550.651959
20
633.738424
11
555.723595
21
628.754470
0
LINE
8
0
10
555.723595
20
628.754470
11
564.573690
21
618.464913
0
LINE
8
0
10
564.573690
20
618.464913
11
571.981489
21
607.322410
0
LINE
8
0
10
571.981489
20
607.322410
11
578.285319
21
594.818065
0
LINE
8
0
10
578.285319
20
594.818065
11
581.128972
21
587.896172
0
LINE
8
0
10
581.128972
20
587.896172
11
582.257331
21
585.015443
0
LINE
8
0
10
582.257331
20
585.015443
11
584.050816
21
580.820144
0
LINE
8
0
10
584.050816
20
580.820144
11
585.378751
21
578.440509
0
LINE
8
0
10
585.378751
20
578.440509
11
586.423647
21
577.549480
0
LINE
8
0
10
586.423647
20
577.549480
11
586.896991
21
577.559987
0
LINE
8
0
10
586.896991
20
577.559987
11
596.840763
21
580.448517
0
LINE
8
0
10
596.840763
20
580.448517
11
617.918133
21
585.832671
0
LINE
8
0
10
617.918133
20
585.832671
11
640.404681
21
590.666794
0
LINE
8
0
10
640.404681
20
590.666794
11
664.087703
21
594.919500
0
LINE
8
0
10
664.087703
20
594.919500
11
701.390334
21
600.139740
0
LINE
8
0
10
701.390334
20
600.139740
11
753.329594
21
604.772150
0
LINE
8
0
10
753.329594
20
604.772150
11
779.764534
21
606.020058
0
LINE
8
0
10
779.764534
20
606.020058
11
795.379417
21
606.391217
0
LINE
8
0
10
795.379417
20
606.391217
11
826.851762
21
606.285001
0
LINE
8
0
10
826.851762
20
606.285001
11
858.397555
21
605.074382
0
LINE
8
0
10
858.397555
20
605.074382
11
889.716808
21
602.791726
0
LINE
8
0
10
889.716808
20
602.791726
11
920.509532
21
599.469399
0
LINE
8
0
10
920.509532
20
599.469399
11
950.475738
21
595.139769
0
LINE
8
0
10
950.475738
20
595.139769
11
979.315438
21
589.835202
0
LINE
8
0
10
979.315438
20
589.835202
11
1006.728642
21
583.588065
0
LINE
8
0
10
1006.728642
20
583.588065
11
1019.806562
21
580.121148
0
LINE
8
0
10
1019.806562
20
580.121148
11
1023.983685
21
579.028202
0
LINE
8
0
10
1023.983685
20
579.028202
11
1028.884269
21
577.987982
0
LINE
8
0
10
1028.884269
20
577.987982
11
1030.703679
21
577.800887
0
LINE
8
0
10
1030.703679
20
577.800887
11
1031.040856
21
577.886748
0
LINE
8
0
10
1031.040856
20
577.886748
11
1031.218443
21
578.186159
0
LINE
8
0
10
1031.218443
20
578.186159
11
1031.857345
21
579.578711
0
LINE
8
0
10
1031.857345
20
579.578711
11
1033.314909
21
583.145627
0
LINE
8
0
10
1033.314909
20
583.145627
11
1034.456005
21
586.115217
0
LINE
8
0
10
1034.456005
20
586.115217
11
1037.259222
21
593.054730
0
LINE
8
0
10
1037.259222
20
593.054730
11
1043.686138
21
606.003886
0
LINE
8
0
10
1043.686138
20
606.003886
11
1051.177127
21
617.684787
0
LINE
8
0
10
1051.177127
20
617.684787
11
1059.696302
21
628.063318
0
LINE
8
0
10
1059.696302
20
628.063318
11
1069.207776
21
637.105363
0
LINE
8
0
10
1069.207776
20
637.105363
11
1079.675664
21
644.776809
0
LINE
8
0
10
1079.675664
20
644.776809
11
1091.064079
21
651.043538
0
LINE
8
0
10
1091.064079
20
651.043538
11
1103.337134
21
655.871436
0
LINE
8
0
10
1103.337134
20
655.871436
11
1109.794188
21
657.735163
0
LINE
8
0
10
1109.794188
20
657.735163
11
1116.585149
21
659.229377
0
LINE
8
0
10
1116.585149
20
659.229377
11
1130.266012
21
660.835325
0
LINE
8
0
10
1130.266012
20
660.835325
11
1143.879504
21
660.653522
0
LINE
8
0
10
1143.879504
20
660.653522
11
1157.186467
21
658.750636
0
LINE
8
0
10
1157.186467
20
658.750636
11
1169.947747
21
655.193331
0
LINE
8
0
10
1169.947747
20
655.193331
11
1181.924189
21
650.048276
0
LINE
8
0
10
1181.924189
20
650.048276
11
1192.876636
21
643.382135
0
LINE
8
0
10
1192.876636
20
643.382135
11
1202.565934
21
635.261576
0
LINE
8
0
10
1202.565934
20
635.261576
11
1206.862166
21
630.676723
0
LINE
8
0
10
1206.862166
20
630.676723
11
1210.153813
21
626.574087
0
LINE
8
0
10
1210.153813
20
626.574087
11
1215.926315
21
617.642048
0
LINE
8
0
10
1215.926315
20
617.642048
11
1220.597497
21
607.835848
0
LINE
8
0
10
1220.597497
20
607.835848
11
1224.143038
21
597.269321
0
LINE
8
0
10
1224.143038
20
597.269321
11
1226.538618
21
586.056298
0
LINE
8
0
10
1226.538618
20
586.056298
11
1227.759919
21
574.310614
0
LINE
8
0
10
1227.759919
20
574.310614
11
1227.782621
21
562.146101
0
LINE
8
0
10
1227.782621
20
562.146101
11
1226.582403
21
549.676593
0
LINE
8
0
10
1226.582403
20
549.676593
11
1225.516100
21
543.363039
0
LINE
8
0
10
1225.516100
20
543.363039
11
1223.998734
21
536.692144
0
LINE
8
0
10
1223.998734
20
536.692144
11
1219.523192
21
522.589288
0
LINE
8
0
10
1219.523192
20
522.589288
11
1213.450066
21
508.236224
0
LINE
8
0
10
1213.450066
20
508.236224
11
1206.167555
21
494.550406
0
LINE
8
0
10
1206.167555
20
494.550406
11
1202.194092
21
488.244419
0
LINE
8
0
10
1202.194092
20
488.244419
11
1196.294047
21
479.423756
0
LINE
8
0
10
1196.294047
20
479.423756
11
1207.224452
21
468.019487
0
LINE
8
0
10
1207.224452
20
468.019487
11
1217.635131
21
456.969982
0
LINE
8
0
10
1217.635131
20
456.969982
11
1236.585693
21
435.563030
0
LINE
8
0
10
1236.585693
20
435.563030
11
1254.530075
21
413.226332
0
LINE
8
0
10
1254.530075
20
413.226332
11
1268.402362
21
394.526394
0
LINE
8
0
10
1268.402362
20
394.526394
11
1278.266256
21
380.611415
0
LINE
8
0
10
1278.266256
20
380.611415
11
1283.466626
21
373.115217
0
LINE
8
0
10
1283.466626
20
373.115217
11
1286.947344
21
368.081484
0
LINE
8
0
10
1286.947344
20
368.081484
11
1293.332229
21
358.946325
0
LINE
8
0
10
1293.332229
20
358.946325
11
1301.700905
21
347.265903
0
LINE
8
0
10
1301.700905
20
347.265903
11
1311.254600
21
334.603342
0
LINE
8
0
10
1311.254600
20
334.603342
11
1319.884730
21
324.061641
0
LINE
8
0
10
1319.884730
20
324.061641
11
1324.163751
21
319.174848
0
LINE
8
0
10
1324.163751
20
319.174848
11
1330.556880
21
312.278451
0
LINE
8
0
10
1330.556880
20
312.278451
11
1343.975117
21
299.329014
0
LINE
8
0
10
1343.975117
20
299.329014
11
1358.492099
21
287.291693
0
LINE
8
0
10
1358.492099
20
287.291693
11
1374.415155
21
275.911654
0
LINE
8
0
10
1374.415155
20
275.911654
11
1383.000000
21
270.388481
0
LINE
8
0
10
1383.000000
20
270.388481
11
1386.187548
21
268.379589
0
LINE
8
0
10
1386.187548
20
268.379589
11
1391.011872
21
265.159760
0
LINE
8
0
10
1391.011872
20
265.159760
11
1393.978998
21
262.839248
0
LINE
8
0
10
1393.978998
20
262.839248
11
1395.341525
21
261.220501
0
LINE
8
0
10
1395.341525
20
261.220501
11
1395.500000
21
260.612555
0
LINE
8
0
10
1395.500000
20
260.612555
11
1395.443676
21
259.979538
0
LINE
8
0
10
1395.443676
20
259.979538
11
1394.547265
21
259.143043
0
LINE
8
0
10
1394.547265
20
259.143043
11
1391.615125
21
258.744662
0
LINE
8
0
10
1391.615125
20
258.744662
11
1387.364905
21
258.636221
0
LINE
8
0
10
1387.364905
20
258.636221
11
1383.276066
21
258.616710
0
LINE
8
0
10
1383.276066
20
258.616710
11
1380.799311
21
258.615217
0
LINE
8
0
10
1380.799311
20
258.615217
11
1377.860554
21
258.602835
0
LINE
8
0
10
1377.860554
20
258.602835
11
1372.714865
21
258.511240
0
LINE
8
0
10
1372.714865
20
258.511240
11
1368.927755
21
258.347129
0
LINE
8
0
10
1368.927755
20
258.347129
11
1366.958600
21
258.130407
0
LINE
8
0
10
1366.958600
20
258.130407
11
1366.799311
21
258.008538
0
LINE
8
0
10
1366.799311
20
258.008538
11
1367.215602
21
257.635210
0
LINE
8
0
10
1367.215602
20
257.635210
11
1369.504090
21
255.558420
0
LINE
8
0
10
1369.504090
20
255.558420
11
1373.345487
21
252.061587
0
LINE
8
0
10
1373.345487
20
252.061587
11
1378.273834
21
247.568874
0
LINE
8
0
10
1378.273834
20
247.568874
11
1381.000000
21
245.081615
0
LINE
8
0
10
1381.000000
20
245.081615
11
1386.892773
21
239.744782
0
LINE
8
0
10
1386.892773
20
239.744782
11
1395.831909
21
231.775324
0
LINE
8
0
10
1395.831909
20
231.775324
11
1400.817212
21
227.411184
0
LINE
8
0
10
1400.817212
20
227.411184
11
1402.750000
21
225.751614
0
LINE
8
0
10
1402.750000
20
225.751614
11
1406.206419
21
222.680337
0
LINE
8
0
10
1406.206419
20
222.680337
11
1409.744246
21
219.006203
0
LINE
8
0
10
1409.744246
20
219.006203
11
1410.856223
21
217.340279
0
LINE
8
0
10
1410.856223
20
217.340279
11
1411.000000
21
216.783932
0
LINE
8
0
10
1411.000000
20
216.783932
11
1410.827955
21
215.733257
0
LINE
8
0
10
1410.827955
20
215.733257
11
1409.204904
21
215.137627
0
LINE
8
0
10
1409.204904
20
215.137627
11
1406.541053
21
215.252552
0
LINE
8
0
10
1406.541053
20
215.252552
11
1404.561826
21
215.427213
0
LINE
8
0
10
1404.561826
20
215.427213
11
1398.201709
21
216.321651
0
LINE
8
0
10
1398.201709
20
216.321651
11
1391.951203
21
217.627862
0
LINE
8
0
10
1391.951203
20
217.627862
11
1389.522789
21
218.217127
0
LINE
8
0
10
1389.522789
20
218.217127
11
1386.019519
21
218.854818
0
LINE
8
0
10
1386.019519
20
218.854818
11
1385.376151
21
218.824701
0
LINE
8
0
10
1385.376151
20
218.824701
11
1385.617006
21
218.398005
0
LINE
8
0
10
1385.617006
20
218.398005
11
1387.853063
21
215.696097
0
LINE
8
0
10
1387.853063
20
215.696097
11
1392.008232
21
211.003811
0
LINE
8
0
10
1392.008232
20
211.003811
11
1397.578491
21
204.890321
0
LINE
8
0
10
1397.578491
20
204.890321
11
1400.736774
21
201.478490
0
LINE
8
0
10
1400.736774
20
201.478490
11
1405.953294
21
195.867574
0
LINE
8
0
10
1405.953294
20
195.867574
11
1414.719275
21
186.407924
0
LINE
8
0
10
1414.719275
20
186.407924
11
1421.473810
21
179.055007
0
LINE
8
0
10
1421.473810
20
179.055007
11
1426.470456
21
173.517412
0
LINE
8
0
10
1426.470456
20
173.517412
11
1429.962771
21
169.503727
0
LINE
8
0
10
1429.962771
20
169.503727
11
1432.204312
21
166.722542
0
LINE
8
0
10
1432.204312
20
166.722542
11
1433.776079
21
164.224237
0
LINE
8
0
10
1433.776079
20
164.224237
11
1434.000000
21
163.249374
0
LINE
8
0
10
1434.000000
20
163.249374
11
1433.890994
21
162.420721
0
LINE
8
0
10
1433.890994
20
162.420721
11
1433.154937
21
161.283615
0
LINE
8
0
10
1433.154937
20
161.283615
11
1432.618543
21
161.115217
0
LINE
8
0
10
1432.618543
20
161.115217
11
1431.976699
21
161.270202
0
LINE
8
0
10
1431.976699
20
161.270202
11
1429.172440
21
162.398291
0
LINE
8
0
10
1429.172440
20
162.398291
11
1422.293405
21
165.576752
0
LINE
8
0
10
1422.293405
20
165.576752
11
1411.293019
21
171.024071
0
LINE
8
0
10
1411.293019
20
171.024071
11
1404.305307
21
174.712332
0
LINE
8
0
10
1404.305307
20
174.712332
11
1401.376846
21
176.423050
0
LINE
8
0
10
1401.376846
20
176.423050
11
1400.657376
21
176.942178
0
LINE
8
0
10
1400.657376
20
176.942178
11
1399.081391
21
178.621112
0
LINE
8
0
10
1399.081391
20
178.621112
11
1397.879834
21
180.339749
0
LINE
8
0
10
1397.879834
20
180.339749
11
1397.559605
21
181.016762
0
LINE
8
0
10
1397.559605
20
181.016762
11
1397.915181
21
181.553385
0
LINE
8
0
10
1397.915181
20
181.553385
11
1400.423878
21
180.729008
0
LINE
8
0
10
1400.423878
20
180.729008
11
1404.313988
21
179.021850
0
LINE
8
0
10
1404.313988
20
179.021850
11
1408.095916
21
177.288979
0
LINE
8
0
10
1408.095916
20
177.288979
11
1410.389847
21
176.228863
0
LINE
8
0
10
1410.389847
20
176.228863
11
1413.915175
21
174.631612
0
LINE
8
0
10
1413.915175
20
174.631612
11
1418.168086
21
172.820241
0
LINE
8
0
10
1418.168086
20
172.820241
11
1419.843299
21
172.199177
0
LINE
8
0
10
1419.843299
20
172.199177
11
1420.212028
21
172.115217
0
LINE
8
0
10
1420.212028
20
172.115217
11
1420.216922
21
172.361164
0
LINE
8
0
10
1420.216922
20
172.361164
11
1418.929408
21
174.209801
0
LINE
8
0
10
1418.929408
20
174.209801
11
1416.147439
21
177.603131
0
LINE
8
0
10
1416.147439
20
177.603131
11
1412.153348
21
182.223995
0
LINE
8
0
10
1412.153348
20
182.223995
11
1404.507087
21
190.763129
0
LINE
8
0
10
1404.507087
20
190.763129
11
1392.704761
21
203.484852
0
LINE
8
0
10
1392.704761
20
203.484852
11
1386.750000
21
209.704768
0
LINE
8
0
10
1386.750000
20
209.704768
11
1384.188794
21
212.367222
0
LINE
8
0
10
1384.188794
20
212.367222
11
1379.634155
21
217.219456
0
LINE
8
0
10
1379.634155
20
217.219456
11
1376.185181
21
221.053865
0
LINE
8
0
10
1376.185181
20
221.053865
11
1374.260229
21
223.405336
0
LINE
8
0
10
1374.260229
20
223.405336
11
1374.000000
21
223.879623
0
LINE
8
0
10
1374.000000
20
223.879623
11
1374.236798
21
224.268925
0
LINE
8
0
10
1374.236798
20
224.268925
11
1376.116644
21
224.329149
0
LINE
8
0
10
1376.116644
20
224.329149
11
1377.750000
21
223.999762
0
LINE
8
0
10
1377.750000
20
223.999762
11
1379.837305
21
223.529216
0
LINE
8
0
10
1379.837305
20
223.529216
11
1386.097852
21
222.242111
0
LINE
8
0
10
1386.097852
20
222.242111
11
1389.500000
21
221.584080
0
LINE
8
0
10
1389.500000
20
221.584080
11
1392.783789
21
220.958146
0
LINE
8
0
10
1392.783789
20
220.958146
11
1398.245117
21
219.887775
0
LINE
8
0
10
1398.245117
20
219.887775
11
1399.750000
21
219.575173
0
LINE
8
0
10
1399.750000
20
219.575173
11
1400.623633
21
219.458167
0
LINE
8
0
10
1400.623633
20
219.458167
11
1401.822461
21
219.708561
0
LINE
8
0
10
1401.822461
20
219.708561
11
1402.000000
21
220.045120
0
LINE
8
0
10
1402.000000
20
220.045120
11
1401.893068
21
220.236080
0
LINE
8
0
10
1401.893068
20
220.236080
11
1401.069311
21
221.135939
0
LINE
8
0
10
1401.069311
20
221.135939
11
1398.467457
21
223.636232
0
LINE
8
0
10
1398.467457
20
223.636232
11
1392.891878
21
228.713407
0
LINE
8
0
10
1392.891878
20
228.713407
11
1385.528891
21
235.218560
0
LINE
8
0
10
1385.528891
20
235.218560
11
1381.388470
21
238.814172
0
LINE
8
0
10
1381.388470
20
238.814172
11
1376.102356
21
243.379102
0
LINE
8
0
10
1376.102356
20
243.379102
11
1367.539014
21
250.782969
0
LINE
8
0
10
1367.539014
20
250.782969
11
1361.352283
21
256.171444
0
LINE
8
0
10
1361.352283
20
256.171444
11
1357.179884
21
259.887649
0
LINE
8
0
10
1357.179884
20
259.887649
11
1354.659534
21
262.274704
0
LINE
8
0
10
1354.659534
20
262.274704
11
1353.428954
21
263.675729
0
LINE
8
0
10
1353.428954
20
263.675729
11
1353.208910
21
264.679041
0
LINE
8
0
10
1353.208910
20
264.679041
11
1353.617772
21
265.116149
0
LINE
8
0
10
1353.617772
20
265.116149
11
1354.523579
21
265.573054
0
LINE
8
0
10
1354.523579
20
265.573054
11
1357.229821
21
265.580497
0
LINE
8
0
10
1357.229821
20
265.580497
11
1360.206830
21
265.121696
0
LINE
8
0
10
1360.206830
20
265.121696
11
1362.117772
21
264.750127
0
LINE
8
0
10
1362.117772
20
264.750127
11
1370.249854
21
263.400043
0
LINE
8
0
10
1370.249854
20
263.400043
11
1381.358865
21
262.361019
0
LINE
8
0
10
1381.358865
20
262.361019
11
1384.698453
21
262.418568
0
LINE
8
0
10
1384.698453
20
262.418568
11
1385.563962
21
262.712440
0
LINE
8
0
10
1385.563962
20
262.712440
11
1385.500000
21
262.942864
0
LINE
8
0
10
1385.500000
20
262.942864
11
1384.952679
21
263.477926
0
LINE
8
0
10
1384.952679
20
263.477926
11
1383.177437
21
265.015871
0
LINE
8
0
10
1383.177437
20
265.015871
11
1379.173106
21
268.219436
0
LINE
8
0
10
1379.173106
20
268.219436
11
1368.711378
21
276.053315
0
LINE
8
0
10
1368.711378
20
276.053315
11
1362.000000
21
280.755957
0
LINE
8
0
10
1362.000000
20
280.755957
11
1354.144221
21
286.354108
0
LINE
8
0
10
1354.144221
20
286.354108
11
1347.193093
21
291.791797
0
LINE
8
0
10
1347.193093
20
291.791797
11
1344.641782
21
293.858781
0
LINE
8
0
10
1344.641782
20
293.858781
11
1341.393320
21
296.202854
0
LINE
8
0
10
1341.393320
20
296.202854
11
1339.977277
21
297.006565
0
LINE
8
0
10
1339.977277
20
297.006565
11
1339.587717
21
297.115217
0
LINE
8
0
10
1339.587717
20
297.115217
11
1339.105065
21
297.239867
0
LINE
8
0
10
1339.105065
20
297.239867
11
1337.546234
21
298.189276
0
LINE
8
0
10
1337.546234
20
298.189276
11
1333.974804
21
301.124693
0
LINE
8
0
10
1333.974804
20
301.124693
11
1327.612738
21
307.190571
0
LINE
8
0
10
1327.612738
20
307.190571
11
1320.402183
21
314.781238
0
LINE
8
0
10
1320.402183
20
314.781238
11
1316.812903
21
318.829744
0
LINE
8
0
10
1316.812903
20
318.829744
11
1309.221089
21
327.869715
0
LINE
8
0
10
1309.221089
20
327.869715
11
1299.480493
21
340.557628
0
LINE
8
0
10
1299.480493
20
340.557628
11
1294.718383
21
347.119187
0
LINE
8
0
10
1294.718383
20
347.119187
11
1289.093151
21
355.023168
0
LINE
8
0
10
1289.093151
20
355.023168
11
1282.359237
21
364.598273
0
LINE
8
0
10
1282.359237
20
364.598273
11
1278.499788
21
370.115217
0
LINE
8
0
10
1278.499788
20
370.115217
11
1272.729808
21
378.327088
0
LINE
8
0
10
1272.729808
20
378.327088
11
1261.907247
21
393.427080
0
LINE
8
0
10
1261.907247
20
393.427080
11
1251.819654
21
407.035228
0
LINE
8
0
10
1251.819654
20
407.035228
11
1242.201159
21
419.479318
0
LINE
8
0
10
1242.201159
20
419.479318
11
1228.071378
21
436.679875
0
LINE
8
0
10
1228.071378
20
436.679875
11
1208.392036
21
458.599085
0
LINE
8
0
10
1208.392036
20
458.599085
11
1197.594311
21
469.861265
0
LINE
8
0
10
1197.594311
20
469.861265
11
1193.312953
21
474.361651
0
LINE
8
0
10
1193.312953
20
474.361651
11
1188.389614
21
479.928961
0
LINE
8
0
10
1188.389614
20
479.928961
11
1186.643638
21
482.232398
0
LINE
8
0
10
1186.643638
20
482.232398
11
1186.369641
21
482.802448
0
LINE
8
0
10
1186.369641
20
482.802448
11
1186.007900
21
484.751290
0
LINE
8
0
10
1186.007900
20
484.751290
11
1185.487550
21
487.056400
0
LINE
8
0
10
1185.487550
20
487.056400
11
1185.293345
21
487.872844
0
LINE
8
0
10
1185.293345
20
487.872844
11
1185.221865
21
488.763872
0
LINE
8
0
10
1185.221865
20
488.763872
11
1185.778634
21
488.608278
0
LINE
8
0
10
1185.778634
20
488.608278
11
1187.210462
21
487.337086
0
LINE
8
0
10
1187.210462
20
487.337086
11
1188.331652
21
486.261587
0
LINE
8
0
10
1188.331652
20
486.261587
11
1191.809052
21
482.907957
0
LINE
8
0
10
1191.809052
20
482.907957
11
1197.769087
21
491.771800
0
LINE
8
0
10
1197.769087
20
491.771800
11
1201.688654
21
497.906411
0
LINE
8
0
10
1201.688654
20
497.906411
11
1208.548252
21
510.515674
0
LINE
8
0
10
1208.548252
20
510.515674
11
1214.077650
21
523.463624
0
LINE
8
0
10
1214.077650
20
523.463624
11
1218.247865
21
536.612617
0
LINE
8
0
10
1218.247865
20
536.612617
11
1221.029915
21
549.825011
0
LINE
8
0
10
1221.029915
20
549.825011
11
1222.394818
21
562.963163
0
LINE
8
0
10
1222.394818
20
562.963163
11
1222.313590
21
575.889430
0
LINE
8
0
10
1222.313590
20
575.889430
11
1220.757250
21
588.466170
0
LINE
8
0
10
1220.757250
20
588.466170
11
1219.416855
21
594.580453
0
LINE
8
0
10
1219.416855
20
594.580453
11
1219.011375
21
595.996811
0
LINE
8
0
10
1219.011375
20
595.996811
11
1217.734786
21
599.662355
0
LINE
8
0
10
1217.734786
20
599.662355
11
1215.047755
21
606.256224
0
LINE
8
0
10
1215.047755
20
606.256224
11
1213.046469
21
610.615217
0
LINE
8
0
10
1213.046469
20
610.615217
11
1208.950181
21
617.982322
0
LINE
8
0
10
1208.950181
20
617.982322
11
1198.485158
21
630.989341
0
LINE
8
0
10
1198.485158
20
630.989341
11
1185.194969
21
641.531024
0
LINE
8
0
10
1185.194969
20
641.531024
11
1169.325329
21
649.412472
0
LINE
8
0
10
1169.325329
20
649.412472
11
1160.500000
21
652.294703
0
LINE
8
0
10
1160.500000
20
652.294703
11
1155.731641
21
653.439802
0
LINE
8
0
10
1155.731641
20
653.439802
11
1147.855187
21
654.301734
0
LINE
8
0
10
1147.855187
20
654.301734
11
1140.123674
21
654.477940
0
LINE
8
0
10
1140.123674
20
654.477940
11
1135.000000
21
654.490762
0
LINE
8
0
10
1135.000000
20
654.490762
11
1132.122845
21
654.485371
0
LINE
8
0
10
1132.122845
20
654.485371
11
1127.249834
21
654.448659
0
LINE
8
0
10
1127.249834
20
654.448659
11
1121.690180
21
654.281525
0
LINE
8
0
10
1121.690180
20
654.281525
11
1113.877994
21
653.232037
0
LINE
8
0
10
1113.877994
20
653.232037
11
1108.500000
21
651.729641
0
LINE
8
0
10
1108.500000
20
651.729641
11
1103.411828
21
650.046413
0
LINE
8
0
10
1103.411828
20
650.046413
11
1093.725112
21
646.044634
0
LINE
8
0
10
1093.725112
20
646.044634
11
1084.692327
21
641.196684
0
LINE
8
0
10
1084.692327
20
641.196684
11
1076.314788
21
635.503677
0
LINE
8
0
10
1076.314788
20
635.503677
11
1068.593811
21
628.966727
0
LINE
8
0
10
1068.593811
20
628.966727
11
1061.530710
21
621.586947
0
LINE
8
0
10
1061.530710
20
621.586947
11
1055.126801
21
613.365450
0
LINE
8
0
10
1055.126801
20
613.365450
11
1049.383399
21
604.303349
0
LINE
8
0
10
1049.383399
20
604.303349
11
1046.759798
21
599.457420
0
LINE
8
0
10
1046.759798
20
599.457420
11
1043.090615
21
591.720119
0
LINE
8
0
10
1043.090615
20
591.720119
11
1038.732168
21
580.764981
0
LINE
8
0
10
1038.732168
20
580.764981
11
1037.610413
21
577.001293
0
LINE
8
0
10
1037.610413
20
577.001293
11
1037.424112
21
575.572271
0
LINE
8
0
10
1037.424112
20
575.572271
11
1037.527221
21
575.254663
0
LINE
8
0
10
1037.527221
20
575.254663
11
1037.947031
21
575.027929
0
LINE
8
0
10
1037.947031
20
575.027929
11
1040.315182
21
574.061307
0
LINE
8
0
10
1040.315182
20
574.061307
11
1046.577928
21
571.723876
0
LINE
8
0
10
1046.577928
20
571.723876
11
1056.877644
21
568.057725
0
LINE
8
0
10
1056.877644
20
568.057725
11
1063.472595
21
565.818497
0
LINE
8
0
10
1063.472595
20
565.818497
11
1066.220408
21
564.964108
0
LINE
8
0
10
1066.220408
20
564.964108
11
1066.877508
21
564.807519
0
LINE
8
0
10
1066.877508
20
564.807519
11
1067.644995
21
565.212773
0
LINE
8
0
10
1067.644995
20
565.212773
11
1069.805165
21
568.659360
0
LINE
8
0
10
1069.805165
20
568.659360
11
1071.062981
21
571.485512
0
LINE
8
0
10
1071.062981
20
571.485512
11
1074.551098
21
578.937050
0
LINE
8
0
10
1074.551098
20
578.937050
11
1083.816994
21
593.870111
0
LINE
8
0
10
1083.816994
20
593.870111
11
1088.856168
21
600.161289
0
LINE
8
0
10
1088.856168
20
600.161289
11
1092.661587
21
604.082086
0
LINE
8
0
10
1092.661587
20
604.082086
11
1101.040611
21
610.775917
0
LINE
8
0
10
1101.040611
20
610.775917
11
1110.213494
21
615.897091
0
LINE
8
0
10
1110.213494
20
615.897091
11
1119.903770
21
619.394845
0
LINE
8
0
10
1119.903770
20
619.394845
11
1129.834973
21
621.218414
0
LINE
8
0
10
1129.834973
20
621.218414
11
1139.730637
21
621.317032
0
LINE
8
0
10
1139.730637
20
621.317032
11
1149.314295
21
619.639936
0
LINE
8
0
10
1149.314295
20
619.639936
11
1158.309480
21
616.136359
0
LINE
8
0
10
1158.309480
20
616.136359
11
1162.500000
21
613.683777
0
LINE
8
0
10
1162.500000
20
613.683777
11
1167.762300
21
609.769681
0
LINE
8
0
10
1167.762300
20
609.769681
11
1176.274614
21
600.584634
0
LINE
8
0
10
1176.274614
20
600.584634
11
1182.213213
21
589.384248
0
LINE
8
0
10
1182.213213
20
589.384248
11
1185.709295
21
575.921076
0
LINE
8
0
10
1185.709295
20
575.921076
11
1186.582392
21
568.263619
0
LINE
8
0
10
1186.582392
20
568.263619
11
1186.752303
21
561.491204
0
LINE
8
0
10
1186.752303
20
561.491204
11
1185.178205
21
547.469974
0
LINE
8
0
10
1185.178205
20
547.469974
11
1181.110923
21
533.022095
0
LINE
8
0
10
1181.110923
20
533.022095
11
1174.620910
21
518.397830
0
LINE
8
0
10
1174.620910
20
518.397830
11
1170.489396
21
511.097761
0
LINE
8
0
10
1170.489396
20
511.097761
11
1169.374837
21
509.238687
0
LINE
8
0
10
1169.374837
20
509.238687
11
1167.954482
21
506.621867
0
LINE
8
0
10
1167.954482
20
506.621867
11
1167.599978
21
504.624335
0
LINE
8
0
10
1167.599978
20
504.624335
11
1168.356420
21
503.935630
0
LINE
8
0
10
1168.356420
20
503.935630
11
1169.084895
21
503.361176
0
LINE
8
0
10
1169.084895
20
503.361176
11
1169.573141
21
501.607314
0
LINE
8
0
10
1169.573141
20
501.607314
11
1169.365094
21
500.312298
0
LINE
8
0
10
1169.365094
20
500.312298
11
1169.094790
21
499.241247
0
LINE
8
0
10
1169.094790
20
499.241247
11
1168.620031
21
497.643331
0
LINE
8
0
10
1168.620031
20
497.643331
11
1168.474050
21
497.313277
0
LINE
8
0
10
1168.474050
20
497.313277
11
1168.121524
21
497.482073
0
LINE
8
0
10
1168.121524
20
497.482073
11
1165.789922
21
499.071483
0
LINE
8
0
10
1165.789922
20
499.071483
11
1161.702732
21
502.030842
0
LINE
8
0
10
1161.702732
20
502.030842
11
1156.355729
21
506.001179
0
LINE
8
0
10
1156.355729
20
506.001179
11
1153.364726
21
508.253287
0
LINE
8
0
10
1153.364726
20
508.253287
11
1147.014916
21
512.997737
0
LINE
8
0
10
1147.014916
20
512.997737
11
1135.319868
21
521.345637
0
LINE
8
0
10
1135.319868
20
521.345637
11
1118.516704
21
532.183136
0
LINE
8
0
10
1118.516704
20
532.183136
11
1106.429295
21
539.193787
0
LINE
8
0
10
1106.429295
20
539.193787
11
1095.162879
21
545.220674
0
LINE
8
0
10
1095.162879
20
545.220674
11
1071.329075
21
556.309703
0
LINE
8
0
10
1071.329075
20
556.309703
11
1045.643617
21
566.141544
0
LINE
8
0
10
1045.643617
20
566.141544
11
1017.966080
21
574.751162
0
LINE
8
0
10
1017.966080
20
574.751162
11
988.156038
21
582.173520
0
LINE
8
0
10
988.156038
20
582.173520
11
956.073063
21
588.443584
0
LINE
8
0
10
956.073063
20
588.443584
11
921.576730
21
593.596318
0
LINE
8
0
10
921.576730
20
593.596318
11
884.526612
21
597.666687
0
LINE
8
0
10
884.526612
20
597.666687
11
865.000000
21
599.306911
0
LINE
8
0
10
865.000000
20
599.306911
11
860.366419
21
599.599692
0
LINE
8
0
10
860.366419
20
599.599692
11
848.355298
21
600.067819
0
LINE
8
0
10
848.355298
20
600.067819
11
833.594482
21
600.379432
0
LINE
8
0
10
833.594482
20
600.379432
11
817.174675
21
600.534605
0
LINE
8
0
10
817.174675
20
600.534605
11
800.186580
21
600.533416
0
LINE
8
0
10
800.186580
20
600.533416
11
783.720899
21
600.375941
0
LINE
8
0
10
783.720899
20
600.375941
11
768.868336
21
600.062257
0
LINE
8
0
10
768.868336
20
600.062257
11
756.719594
21
599.592439
0
LINE
8
0
10
756.719594
20
599.592439
11
752.000000
21
599.299003
0
LINE
8
0
10
752.000000
20
599.299003
11
729.237266
21
597.388721
0
LINE
8
0
10
729.237266
20
597.388721
11
686.471298
21
592.479326
0
LINE
8
0
10
686.471298
20
592.479326
11
647.148455
21
586.079713
0
LINE
8
0
10
647.148455
20
586.079713
11
610.985285
21
578.143753
0
LINE
8
0
10
610.985285
20
578.143753
11
594.000000
21
573.585228
0
LINE
8
0
10
594.000000
20
573.585228
11
584.318120
21
570.715973
0
LINE
8
0
10
584.318120
20
570.715973
11
565.777466
21
564.595576
0
LINE
8
0
10
565.777466
20
564.595576
11
539.663266
21
554.279207
0
LINE
8
0
10
539.663266
20
554.279207
11
507.000895
21
537.896978
0
LINE
8
0
10
507.000895
20
537.896978
11
483.279238
21
523.217536
0
LINE
8
0
10
483.279238
20
523.217536
11
467.472920
21
512.110770
0
LINE
8
0
10
467.472920
20
512.110770
11
459.500000
21
506.125035
0
LINE
8
0
10
459.500000
20
506.125035
11
457.450103
21
504.557225
0
LINE
8
0
10
457.450103
20
504.557225
11
453.974464
21
501.919034
0
LINE
8
0
10
453.974464
20
501.919034
11
450.211911
21
499.132801
0
LINE
8
0
10
450.211911
20
499.132801
11
447.596976
21
497.400740
0
LINE
8
0
10
447.596976
20
497.400740
11
447.298760
21
497.651240
0
LINE
8
0
10
447.298760
20
497.651240
11
447.872445
21
498.423259
0
LINE
8
0
10
447.872445
20
498.423259
11
448.455596
21
499.283182
0
LINE
8
0
10
448.455596
20
499.283182
11
448.587100
21
500.731653
0
LINE
8
0
10
448.587100
20
500.731653
11
448.146238
21
501.439011
0
LINE
8
0
10
448.146238
20
501.439011
11
447.698516
21
502.114981
0
LINE
8
0
10
447.698516
20
502.114981
11
447.724531
21
503.309637
0
LINE
8
0
10
447.724531
20
503.309637
11
448.200165
21
503.915382
0
LINE
8
0
10
448.200165
20
503.915382
11
448.670433
21
504.551387
0
LINE
8
0
10
448.670433
20
504.551387
11
448.488622
21
505.941859
0
LINE
8
0
10
448.488622
20
505.941859
11
447.817548
21
506.841588
0
LINE
8
0
10
447.817548
20
506.841588
11
446.899736
21
508.082599
0
LINE
8
0
10
446.899736
20
508.082599
11
443.909330
21
512.757298
0
LINE
8
0
10
443.909330
20
512.757298
11
442.205054
21
515.615217
0
LINE
8
0
10
442.205054
20
515.615217
11
438.874458
21
521.799123
0
LINE
8
0
10
438.874458
20
521.799123
11
433.632441
21
534.419552
0
LINE
8
0
10
433.632441
20
534.419552
11
430.275530
21
547.153297
0
LINE
8
0
10
430.275530
20
547.153297
11
428.795172
21
559.732147
0
LINE
8
0
10
428.795172
20
559.732147
11
429.182814
21
571.887894
0
LINE
8
0
10
429.182814
20
571.887894
11
431.429903
21
583.352329
0
LINE
8
0
10
431.429903
20
583.352329
11
435.527886
21
593.857242
0
LINE
8
0
10
435.527886
20
593.857242
11
441.468210
21
603.134425
0
LINE
8
0
10
441.468210
20
603.134425
11
445.126577
21
607.228802
0
LINE
8
0
10
445.126577
20
607.228802
11
448.708458
21
610.470593
0
LINE
8
0
10
448.708458
20
610.470593
11
456.633325
21
615.713670
0
LINE
8
0
10
456.633325
20
615.713670
11
465.375513
21
619.297681
0
LINE
8
0
10
465.375513
20
619.297681
11
474.698036
21
621.216553
0
LINE
8
0
10
474.698036
20
621.216553
11
484.363911
21
621.464215
0
LINE
8
0
10
484.363911
20
621.464215
11
494.136154
21
620.034593
0
LINE
8
0
10
494.136154
20
620.034593
11
503.777781
21
616.921618
0
LINE
8
0
10
503.777781
20
616.921618
11
513.051807
21
612.119215
0
LINE
8
0
10
513.051807
20
612.119215
11
517.476913
21
609.082581
0
LINE
8
0
10
517.476913
20
609.082581
11
521.696352
21
605.615331
0
LINE
8
0
10
521.696352
20
605.615331
11
529.836637
21
597.164397
0
LINE
8
0
10
529.836637
20
597.164397
11
537.171977
21
587.241861
0
LINE
8
0
10
537.171977
20
587.241861
11
543.214186
21
576.508093
0
LINE
8
0
10
543.214186
20
576.508093
11
545.597808
21
571.043362
0
LINE
8
0
10
545.597808
20
571.043362
11
546.349622
21
569.178357
0
LINE
8
0
10
546.349622
20
569.178357
11
547.585571
21
566.494409
0
LINE
8
0
10
547.585571
20
566.494409
11
549.030594
21
564.701891
0
LINE
8
0
10
549.030594
20
564.701891
11
549.923796
21
564.698901
0
LINE
8
0
10
549.923796
20
564.698901
11
550.530062
21
564.934316
0
LINE
8
0
10
550.530062
20
564.934316
11
553.235626
21
565.925939
0
LINE
8
0
10
553.235626
20
565.925939
11
560.056503
21
568.367099
0
LINE
8
0
10
560.056503
20
568.367099
11
565.690958
21
570.359489
0
LINE
8
0
10
565.690958
20
570.359489
11
579.881916
21
575.355799
0
LINE
8
0
10
579.881916
20
575.355799
11
577.822114
21
580.985508
0
LINE
8
0
10
577.822114
20
580.985508
11
574.792385
21
588.539529
0
LINE
8
0
10
574.792385
20
588.539529
11
569.262263
21
600.174198
0
LINE
8
0
10
569.262263
20
600.174198
11
565.370816
21
607.209403
0
LINE
8
0
10
565.370816
20
607.209403
11
563.479992
21
610.273120
0
LINE
8
0
10
563.479992
20
610.273120
11
560.974218
21
613.798876
0
LINE
8
0
10
560.974218
20
613.798876
11
554.078834
21
621.920591
0
LINE
8
0
10
554.078834
20
621.920591
11
545.928741
21
630.193266
0
LINE
8
0
10
545.928741
20
630.193266
11
538.032423
21
637.085725
0
LINE
8
0
10
538.032423
20
637.085725
11
534.650831
21
639.535883
0
LINE
8
0
10
534.650831
20
639.535883
11
531.645255
21
641.376822
0
LINE
8
0
10
531.645255
20
641.376822
11
524.671648
21
645.013076
0
LINE
8
0
10
524.671648
20
645.013076
11
512.974861
21
649.846870
0
LINE
8
0
10
512.974861
20
649.846870
11
505.262563
21
652.261704
0
LINE
8
0
10
505.262563
20
652.261704
11
500.486149
21
653.314324
0
LINE
8
0
10
500.486149
20
653.314324
11
489.329955
21
654.655211
0
LINE
8
0
10
489.329955
20
654.655211
11
477.303335
21
654.946284
0
LINE
8
0
10
477.303335
20
654.946284
11
465.927161
21
654.150735
0
LINE
8
0
10
465.927161
20
654.150735
11
460.958265
21
653.333974
0
LINE
8
0
10
460.958265
20
653.333974
11
454.703770
21
651.835698
0
LINE
8
0
10
454.703770
20
651.835698
11
442.973988
21
647.788580
0
LINE
8
0
10
442.973988
20
647.788580
11
432.325044
21
642.380830
0
LINE
8
0
10
432.325044
20
642.380830
11
422.807209
21
635.660600
0
LINE
8
0
10
422.807209
20
635.660600
11
414.470757
21
627.676040
0
LINE
8
0
10
414.470757
20
627.676040
11
407.365959
21
618.475300
0
LINE
8
0
10
407.365959
20
618.475300
11
401.543088
21
608.106530
0
LINE
8
0
10
401.543088
20
608.106530
11
397.052417
21
596.617881
0
LINE
8
0
10
397.052417
20
596.617881
11
395.322366
21
590.468649
0
LINE
8
0
10
395.322366
20
590.468649
11
394.892570
21
588.444876
0
LINE
8
0
10
394.892570
20
588.444876
11
394.206865
21
583.499978
0
LINE
8
0
10
394.206865
20
583.499978
11
393.612294
21
574.473103
0
LINE
8
0
10
393.612294
20
574.473103
11
393.627594
21
561.207610
0
LINE
8
0
10
393.627594
20
561.207610
11
394.563534
21
549.015869
0
LINE
8
0
10
394.563534
20
549.015869
11
395.375768
21
544.167795
0
LINE
8
0
10
395.375768
20
544.167795
11
397.068782
21
537.191945
0
LINE
8
0
10
397.068782
20
537.191945
11
401.442289
21
523.470204
0
LINE
8
0
10
401.442289
20
523.470204
11
407.035004
21
510.284780
0
LINE
8
0
10
407.035004
20
510.284780
11
413.730010
21
497.911321
0
LINE
8
0
10
413.730010
20
497.911321
11
417.454335
21
492.115217
0
LINE
8
0
10
417.454335
20
492.115217
11
419.731061
21
488.780500
0
LINE
8
0
10
419.731061
20
488.780500
11
422.422403
21
484.879770
0
LINE
8
0
10
422.422403
20
484.879770
11
423.438299
21
483.441067
0
LINE
8
0
10
423.438299
20
483.441067
11
423.636676
21
483.180194
0
LINE
8
0
10
423.636676
20
483.180194
11
424.115040
21
483.321781
0
LINE
8
0
10
424.115040
20
483.321781
11
426.509485
21
485.186624
0
LINE
8
0
10
426.509485
20
485.186624
11
428.130649
21
486.680194
0
LINE
8
0
10
428.130649
20
486.680194
11
429.539051
21
488.030571
0
LINE
8
0
10
429.539051
20
488.030571
11
431.244871
21
489.452601
0
LINE
8
0
10
431.244871
20
489.452601
11
431.660181
21
488.929202
0
LINE
8
0
10
431.660181
20
488.929202
11
431.013945
21
486.171823
0
LINE
8
0
10
431.013945
20
486.171823
11
430.364298
21
483.865217
0
LINE
8
0
10
430.364298
20
483.865217
11
429.972560
21
483.140874
0
LINE
8
0
10
429.972560
20
483.140874
11
427.792340
21
480.322392
0
LINE
8
0
10
427.792340
20
480.322392
11
424.120914
21
476.103930
0
LINE
8
0
10
424.120914
20
476.103930
11
419.403624
21
470.997186
0
LINE
8
0
10
419.403624
20
470.997186
11
416.791950
21
468.270614
0
LINE
8
0
10
416.791950
20
468.270614
11
407.641549
21
458.563712
0
LINE
8
0
10
407.641549
20
458.563712
11
388.696029
21
436.943144
0
LINE
8
0
10
388.696029
20
436.943144
11
369.593092
21
413.251121
0
LINE
8
0
10
369.593092
20
413.251121
11
351.175385
21
388.532721
0
LINE
8
0
10
351.175385
20
388.532721
11
342.486821
21
376.115217
0
LINE
8
0
10
342.486821
20
376.115217
11
337.674732
21
369.104930
0
LINE
8
0
10
337.674732
20
369.104930
11
328.994877
21
356.628041
0
LINE
8
0
10
328.994877
20
356.628041
11
321.385781
21
345.967296
0
LINE
8
0
10
321.385781
20
345.967296
11
314.621440
21
336.832173
0
LINE
8
0
10
314.621440
20
336.832173
11
305.564463
21
325.354508
0
LINE
8
0
10
305.564463
20
325.354508
11
294.335767
21
312.679077
0
LINE
8
0
10
294.335767
20
312.679077
11
288.576028
21
306.814023
0
LINE
8
0
10
288.576028
20
306.814023
11
279.766390
21
298.567204
0
LINE
8
0
10
279.766390
20
298.567204
11
260.936682
21
283.671819
0
LINE
8
0
10
260.936682
20
283.671819
11
250.819444
21
276.946388
0
LINE
8
0
10
250.819444
20
276.946388
11
247.204048
21
274.621029
0
LINE
8
0
10
247.204048
20
274.621029
11
240.170884
21
269.813424
0
LINE
8
0
10
240.170884
20
269.813424
11
237.619372
21
267.923316
0
LINE
8
0
10
237.619372
20
267.923316
11
235.655716
21
266.444703
0
LINE
8
0
10
235.655716
20
266.444703
11
232.592044
21
264.415700
0
LINE
8
0
10
232.592044
20
264.415700
11
231.869372
21
264.115217
0
LINE
8
0
10
231.869372
20
264.115217
11
231.255378
21
263.780950
0
LINE
8
0
10
231.255378
20
263.780950
11
231.000000
21
262.977285
0
LINE
8
0
10
231.000000
20
262.977285
11
231.513394
21
262.570391
0
LINE
8
0
10
231.513394
20
262.570391
11
235.222702
21
262.335758
0
LINE
8
0
10
235.222702
20
262.335758
11
241.624595
21
262.808103
0
LINE
8
0
10
241.624595
20
262.808103
11
249.658147
21
263.909148
0
LINE
8
0
10
249.658147
20
263.909148
11
253.955256
21
264.670971
0
LINE
8
0
10
253.955256
20
264.670971
11
255.903448
21
265.027691
0
LINE
8
0
10
255.903448
20
265.027691
11
259.036867
21
265.476347
0
LINE
8
0
10
259.036867
20
265.476347
11
261.159548
21
265.522938
0
LINE
8
0
10
261.159548
20
265.522938
11
262.279347
21
265.108645
0
LINE
8
0
10
262.279347
20
265.108645
11
262.404125
21
264.174647
0
LINE
8
0
10
262.404125
20
264.174647
11
261.541738
21
262.662121
0
LINE
8
0
10
261.541738
20
262.662121
11
259.700046
21
260.512248
0
LINE
8
0
10
259.700046
20
260.512248
11
256.886905
21
257.666206
0
LINE
8
0
10
256.886905
20
257.666206
11
255.118498
21
255.963740
0
LINE
8
0
10
255.118498
20
255.963740
11
253.136465
21
254.108771
0
LINE
8
0
10
253.136465
20
254.108771
11
247.935319
21
249.400508
0
LINE
8
0
10
247.935319
20
249.400508
11
238.455939
21
241.089779
0
LINE
8
0
10
238.455939
20
241.089779
11
232.118498
21
235.687327
0
LINE
8
0
10
232.118498
20
235.687327
11
226.285695
21
230.739002
0
LINE
8
0
10
226.285695
20
230.739002
11
219.127780
21
224.517371
0
LINE
8
0
10
219.127780
20
224.517371
11
216.211251
21
221.865046
0
LINE
8
0
10
216.211251
20
221.865046
11
215.513925
21
221.166190
0
LINE
8
0
10
215.513925
20
221.166190
11
213.527849
21
218.936015
0
LINE
8
0
10
213.527849
20
218.936015
11
217.513925
21
219.613076
0
LINE
8
0
10
217.513925
20
219.613076
11
218.505256
21
219.798323
0
LINE
8
0
10
218.505256
20
219.798323
11
221.339177
21
220.404424
0
LINE
8
0
10
221.339177
20
220.404424
11
226.898393
21
221.712508
0
LINE
8
0
10
226.898393
20
221.712508
11
230.839127
21
222.702677
0
LINE
8
0
10
230.839127
20
222.702677
11
234.363171
21
223.606955
0
LINE
8
0
10
234.363171
20
223.606955
11
239.030407
21
224.718631
0
LINE
8
0
10
239.030407
20
224.718631
11
241.264576
21
224.991778
0
LINE
8
0
10
241.264576
20
224.991778
11
241.955356
21
224.535165
0
LINE
8
0
10
241.955356
20
224.535165
11
242.000000
21
224.067190
0
LINE
8
0
10
242.000000
20
224.067190
11
241.654028
21
223.488151
0
LINE
8
0
10
241.654028
20
223.488151
11
239.094827
21
220.387835
0
LINE
8
0
10
239.094827
20
220.387835
11
234.509454
21
215.220225
0
LINE
8
0
10
234.509454
20
215.220225
11
228.454113
21
208.612150
0
LINE
8
0
10
228.454113
20
208.612150
11
225.049018
21
204.963822
0
LINE
8
0
10
225.049018
20
204.963822
11
217.976589
21
197.360069
0
LINE
8
0
10
217.976589
20
197.360069
11
208.255277
21
186.680843
0
LINE
8
0
10
208.255277
20
186.680843
11
203.474653
21
181.269345
0
LINE
8
0
10
203.474653
20
181.269345
11
201.879510
21
179.390662
0
LINE
8
0
10
201.879510
20
179.390662
11
200.659312
21
177.905966
0
LINE
8
0
10
200.659312
20
177.905966
11
198.762175
21
175.504401
0
LINE
8
0
10
198.762175
20
175.504401
11
197.631205
21
173.840195
0
LINE
8
0
10
197.631205
20
173.840195
11
197.316585
21
172.889657
0
LINE
8
0
10
197.316585
20
172.889657
11
197.868500
21
172.629093
0
LINE
8
0
10
197.868500
20
172.629093
11
199.337134
21
173.034811
0
LINE
8
0
10
199.337134
20
173.034811
11
201.772672
21
174.083119
0
LINE
8
0
10
201.772672
20
174.083119
11
205.225298
21
175.750324
0
LINE
8
0
10
205.225298
20
175.750324
11
207.348702
21
176.808609
0
LINE
8
0
10
207.348702
20
176.808609
11
210.199575
21
178.213731
0
LINE
8
0
10
210.199575
20
178.213731
11
215.142765
21
180.533919
0
LINE
8
0
10
215.142765
20
180.533919
11
216.626244
21
181.163215
0
LINE
8
0
10
216.626244
20
181.163215
11
217.872682
21
181.591145
0
LINE
8
0
10
217.872682
20
181.591145
11
218.531603
21
181.227940
0
LINE
8
0
10
218.531603
20
181.227940
11
218.120166
21
180.339749
0
LINE
8
0
10
218.120166
20
180.339749
11
216.918609
21
178.626708
0
LINE
8
0
10
216.918609
20
178.626708
11
215.342624
21
176.961227
0
LINE
8
0
10
215.342624
20
176.961227
11
214.660652
21
176.475836
0
LINE
8
0
10
214.660652
20
176.475836
11
211.802004
21
174.806125
0
LINE
8
0
10
211.802004
20
174.806125
11
204.912053
21
171.127627
0
LINE
8
0
10
204.912053
20
171.127627
11
194.045805
21
165.637100
0
LINE
8
0
10
194.045805
20
165.637100
11
187.284202
21
162.417703
0
LINE
8
0
10
187.284202
20
162.417703
11
184.572238
21
161.272680
0
LINE
8
0
10
184.572238
20
161.272680
11
183.981943
21
161.115217
0
LINE
8
0
10
183.981943
20
161.115217
11
183.076696
21
161.551504
0
LINE
8
0
10
183.076696
20
161.551504
11
182.367294
21
162.600448
0
LINE
8
0
10
538.285551
20
358.144538
11
532.170720
21
359.095096
0
LINE
8
0
10
532.170720
20
359.095096
11
519.899687
21
362.042537
0
LINE
8
0
10
519.899687
20
362.042537
11
507.914731
21
366.264861
0
LINE
8
0
10
507.914731
20
366.264861
11
496.625335
21
371.617806
0
LINE
8
0
10
496.625335
20
371.617806
11
491.369435
21
374.673180
0
LINE
8
0
10
491.369435
20
374.673180
11
487.175493
21
377.473372
0
LINE
8
0
10
487.175493
20
377.473372
11
480.905256
21
382.851659
0
LINE
8
0
10
480.905256
20
382.851659
11
477.599809
21
387.725527
0
LINE
8
0
10
477.599809
20
387.725527
11
477.428665
21
391.845031
0
LINE
8
0
10
477.428665
20
391.845031
11
478.571429
21
393.543789
0
LINE
8
0
10
478.571429
20
393.543789
11
479.622027
21
394.377442
0
LINE
8
0
10
479.622027
20
394.377442
11
482.341630
21
394.914535
0
LINE
8
0
10
482.341630
20
394.914535
11
486.665604
21
393.731275
0
LINE
8
0
10
486.665604
20
393.731275
11
491.524392
21
391.560800
0
LINE
8
0
10
491.524392
20
391.560800
11
495.752343
21
389.442831
0
LINE
8
0
10
495.752343
20
389.442831
11
498.206812
21
388.170546
0
LINE
8
0
10
498.206812
20
388.170546
11
503.950220
21
385.270623
0
LINE
8
0
10
503.950220
20
385.270623
11
514.696409
21
380.488141
0
LINE
8
0
10
514.696409
20
380.488141
11
524.805803
21
376.939020
0
LINE
8
0
10
524.805803
20
376.939020
11
534.699255
21
374.475512
0
LINE
8
0
10
534.699255
20
374.475512
11
539.696518
21
373.604691
0
LINE
8
0
10
539.696518
20
373.604691
11
545.422578
21
372.848093
0
LINE
8
0
10
545.422578
20
372.848093
11
556.793742
21
372.190996
0
LINE
8
0
10
556.793742
20
372.190996
11
566.639641
21
372.506967
0
LINE
8
0
10
566.639641
20
372.506967
11
574.492094
21
373.131185
0
LINE
8
0
10
574.492094
20
373.131185
11
583.786731
21
374.103951
0
LINE
8
0
10
583.786731
20
374.103951
11
594.876153
21
375.440427
0
LINE
8
0
10
594.876153
20
375.440427
11
601.204095
21
376.249796
0
LINE
8
0
10
601.204095
20
376.249796
11
604.229491
21
376.632174
0
LINE
8
0
10
604.229491
20
376.632174
11
608.396427
21
377.033375
0
LINE
8
0
10
608.396427
20
377.033375
11
611.585956
21
376.643079
0
LINE
8
0
10
611.585956
20
376.643079
11
612.954095
21
375.656760
0
LINE
8
0
10
612.954095
20
375.656760
11
614.403781
21
374.013832
0
LINE
8
0
10
614.403781
20
374.013832
11
614.964606
21
370.881497
0
LINE
8
0
10
614.964606
20
370.881497
11
612.432352
21
367.982460
0
LINE
8
0
10
612.432352
20
367.982460
11
606.837001
21
365.351045
0
LINE
8
0
10
606.837001
20
365.351045
11
602.900033
21
364.146422
0
LINE
8
0
10
602.900033
20
364.146422
11
594.934857
21
362.218323
0
LINE
8
0
10
594.934857
20
362.218323
11
577.835241
21
359.272001
0
LINE
8
0
10
577.835241
20
359.272001
11
560.608042
21
357.671808
0
LINE
8
0
10
560.608042
20
357.671808
11
544.970986
21
357.577299
0
LINE
8
0
10
544.970986
20
357.577299
11
538.285551
21
358.144538
0
LINE
8
0
10
1051.882687
20
358.161742
11
1043.688585
21
359.127056
0
LINE
8
0
10
1043.688585
20
359.127056
11
1026.666561
21
362.433947
0
LINE
8
0
10
1026.666561
20
362.433947
11
1018.423900
21
364.661825
0
LINE
8
0
10
1018.423900
20
364.661825
11
1014.757903
21
365.882116
0
LINE
8
0
10
1014.757903
20
365.882116
11
1009.531667
21
368.443241
0
LINE
8
0
10
1009.531667
20
368.443241
11
1007.124404
21
371.152377
0
LINE
8
0
10
1007.124404
20
371.152377
11
1007.549671
21
373.994269
0
LINE
8
0
10
1007.549671
20
373.994269
11
1008.828741
21
375.460230
0
LINE
8
0
10
1008.828741
20
375.460230
11
1009.736691
21
376.152724
0
LINE
8
0
10
1009.736691
20
376.152724
11
1012.225799
21
376.920153
0
LINE
8
0
10
1012.225799
20
376.920153
11
1016.701715
21
376.846161
0
LINE
8
0
10
1016.701715
20
376.846161
11
1022.148760
21
376.225487
0
LINE
8
0
10
1022.148760
20
376.225487
11
1027.081750
21
375.537507
0
LINE
8
0
10
1027.081750
20
375.537507
11
1030.000000
21
375.110245
0
LINE
8
0
10
1030.000000
20
375.110245
11
1037.435785
21
374.100064
0
LINE
8
0
10
1037.435785
20
374.100064
11
1051.291948
21
372.793838
0
LINE
8
0
10
1051.291948
20
372.793838
11
1064.008606
21
372.473723
0
LINE
8
0
10
1064.008606
20
372.473723
11
1075.843005
21
373.180436
0
LINE
8
0
10
1075.843005
20
373.180436
11
1087.052387
21
374.954696
0
LINE
8
0
10
1087.052387
20
374.954696
11
1097.893999
21
377.837220
0
LINE
8
0
10
1097.893999
20
377.837220
11
1108.625085
21
381.868726
0
LINE
8
0
10
1108.625085
20
381.868726
11
1119.502888
21
387.089931
0
LINE
8
0
10
1119.502888
20
387.089931
11
1125.077198
21
390.159394
0
LINE
8
0
10
1125.077198
20
390.159394
11
1128.278805
21
391.912436
0
LINE
8
0
10
1128.278805
20
391.912436
11
1133.522792
21
394.243975
0
LINE
8
0
10
1133.522792
20
394.243975
11
1137.443709
21
395.055524
0
LINE
8
0
10
1137.443709
20
395.055524
11
1140.308639
21
394.402361
0
LINE
8
0
10
1140.308639
20
394.402361
11
1141.428571
21
393.543789
0
LINE
8
0
10
1141.428571
20
393.543789
11
1142.546458
21
391.831254
0
LINE
8
0
10
1142.546458
20
391.831254
11
1142.594307
21
387.592151
0
LINE
8
0
10
1142.594307
20
387.592151
11
1141.519962
21
385.447179
0
LINE
8
0
10
1141.519962
20
385.447179
11
1140.363983
21
384.023162
0
LINE
8
0
10
1140.363983
20
384.023162
11
1136.975620
21
380.905116
0
LINE
8
0
10
1136.975620
20
380.905116
11
1129.720545
21
375.835921
0
LINE
8
0
10
1129.720545
20
375.835921
11
1117.443483
21
369.137152
0
LINE
8
0
10
1117.443483
20
369.137152
11
1104.218701
21
363.613600
0
LINE
8
0
10
1104.218701
20
363.613600
11
1097.942229
21
361.669734
0
LINE
8
0
10
1097.942229
20
361.669734
11
1092.165383
21
360.251440
0
LINE
8
0
10
1092.165383
20
360.251440
11
1081.180586
21
358.296739
0
LINE
8
0
10
1081.180586
20
358.296739
11
1070.217966
21
357.461802
0
LINE
8
0
10
1070.217966
20
357.461802
11
1058.393897
21
357.679332
0
LINE
8
0
10
1058.393897
20
357.679332
11
1051.882687
21
358.161742
0
LINE
8
0
10
848.000000
20
8.582591
11
854.384981
21
9.861926
0
LINE
8
0
10
854.384981
20
9.861926
11
866.527751
21
12.940689
0
LINE
8
0
10
866.527751
20
12.940689
11
877.835381
21
16.713504
0
LINE
8
0
10
877.835381
20
16.713504
11
888.309203
21
21.181086
0
LINE
8
0
10
888.309203
20
21.181086
11
897.950555
21
26.344151
0
LINE
8
0
10
897.950555
20
26.344151
11
906.760770
21
32.203413
0
LINE
8
0
10
906.760770
20
32.203413
11
914.741185
21
38.759587
0
LINE
8
0
10
914.741185
20
38.759587
11
921.893133
21
46.013389
0
LINE
8
0
10
921.893133
20
46.013389
11
925.158850
21
49.902123
0
LINE
8
0
10
925.158850
20
49.902123
11
930.258511
21
56.786144
0
LINE
8
0
10
930.258511
20
56.786144
11
938.985189
21
71.606838
0
LINE
8
0
10
938.985189
20
71.606838
11
945.886270
21
88.161951
0
LINE
8
0
10
945.886270
20
88.161951
11
951.127269
21
106.848539
0
LINE
8
0
10
951.127269
20
106.848539
11
953.176962
21
117.115217
0
LINE
8
0
10
953.176962
20
117.115217
11
953.561602
21
119.810016
0
LINE
8
0
10
953.561602
20
119.810016
11
954.137046
21
126.931907
0
LINE
8
0
10
954.137046
20
126.931907
11
954.532408
21
140.765425
0
LINE
8
0
10
954.532408
20
140.765425
11
954.233329
21
161.787235
0
LINE
8
0
10
954.233329
20
161.787235
11
953.428524
21
176.732974
0
LINE
8
0
10
953.428524
20
176.732974
11
952.632349
21
185.125975
0
LINE
8
0
10
952.632349
20
185.125975
11
952.159728
21
188.615217
0
LINE
8
0
10
952.159728
20
188.615217
11
950.399099
21
198.737660
0
LINE
8
0
10
950.399099
20
198.737660
11
945.839949
21
218.295079
0
LINE
8
0
10
945.839949
20
218.295079
11
939.992130
21
236.752206
0
LINE
8
0
10
939.992130
20
236.752206
11
932.969870
21
253.888636
0
LINE
8
0
10
932.969870
20
253.888636
11
924.887396
21
269.483965
0
LINE
8
0
10
924.887396
20
269.483965
11
915.858935
21
283.317789
0
LINE
8
0
10
915.858935
20
283.317789
11
905.998714
21
295.169705
0
LINE
8
0
10
905.998714
20
295.169705
11
895.420960
21
304.819308
0
LINE
8
0
10
895.420960
20
304.819308
11
889.898704
21
308.749366
0
LINE
8
0
10
889.898704
20
308.749366
11
884.890643
21
311.763292
0
LINE
8
0
10
884.890643
20
311.763292
11
873.883548
21
317.110768
0
LINE
8
0
10
873.883548
20
317.110768
11
861.711615
21
321.523629
0
LINE
8
0
10
861.711615
20
321.523629
11
848.562593
21
324.968945
0
LINE
8
0
10
848.562593
20
324.968945
11
834.624232
21
327.413783
0
LINE
8
0
10
834.624232
20
327.413783
11
820.084281
21
328.825212
0
LINE
8
0
10
820.084281
20
328.825212
11
805.130490
21
329.170299
0
LINE
8
0
10
805.130490
20
329.170299
11
789.950608
21
328.416112
0
LINE
8
0
10
789.950608
20
328.416112
11
782.334554
21
327.616500
0
LINE
8
0
10
782.334554
20
327.616500
11
773.625041
21
326.351153
0
LINE
8
0
10
773.625041
20
326.351153
11
757.529368
21
322.826264
0
LINE
8
0
10
757.529368
20
322.826264
11
743.059932
21
317.879782
0
LINE
8
0
10
743.059932
20
317.879782
11
730.050850
21
311.396508
0
LINE
8
0
10
730.050850
20
311.396508
11
718.336237
21
303.261244
0
LINE
8
0
10
718.336237
20
303.261244
11
707.750211
21
293.358791
0
LINE
8
0
10
707.750211
20
293.358791
11
698.126888
21
281.573950
0
LINE
8
0
10
698.126888
20
281.573950
11
689.300384
21
267.791524
0
LINE
8
0
10
689.300384
20
267.791524
11
685.134101
21
260.115217
0
LINE
8
0
10
685.134101
20
260.115217
11
679.624453
21
248.589964
0
LINE
8
0
10
679.624453
20
248.589964
11
670.733300
21
224.585443
0
LINE
8
0
10
670.733300
20
224.585443
11
664.597767
21
198.966926
0
LINE
8
0
10
664.597767
20
198.966926
11
661.119571
21
171.324040
0
LINE
8
0
10
661.119571
20
171.324040
11
660.346262
21
156.615217
0
LINE
8
0
10
660.346262
20
156.615217
11
660.202437
21
149.904404
0
LINE
8
0
10
660.202437
20
149.904404
11
660.318532
21
137.323549
0
LINE
8
0
10
660.318532
20
137.323549
11
661.568442
21
120.200605
0
LINE
8
0
10
661.568442
20
120.200605
11
665.429016
21
99.643518
0
LINE
8
0
10
665.429016
20
99.643518
11
672.056763
21
80.301784
0
LINE
8
0
10
672.056763
20
80.301784
11
676.496865
21
70.615217
0
LINE
8
0
10
676.496865
20
70.615217
11
679.619760
21
64.718039
0
LINE
8
0
10
679.619760
20
64.718039
11
686.708835
21
53.773621
0
LINE
8
0
10
686.708835
20
53.773621
11
694.925431
21
43.960189
0
LINE
8
0
10
694.925431
20
43.960189
11
704.273314
21
35.275026
0
LINE
8
0
10
704.273314
20
35.275026
11
714.756254
21
27.715415
0
LINE
8
0
10
714.756254
20
27.715415
11
726.378017
21
21.278639
0
LINE
8
0
10
726.378017
20
21.278639
11
739.142372
21
15.961980
0
LINE
8
0
10
739.142372
20
15.961980
11
753.053086
21
11.762721
0
LINE
8
0
10
753.053086
20
11.762721
11
760.439506
21
10.081268
0
LINE
8
0
10
760.439506
20
10.081268
11
766.241421
21
8.940046
0
LINE
8
0
10
766.241421
20
8.940046
11
776.408122
21
7.391681
0
LINE
8
0
10
776.408122
20
7.391681
11
787.238418
21
6.643987
0
LINE
8
0
10
787.238418
20
6.643987
11
797.658896
21
6.480091
0
LINE
8
0
10
797.658896
20
6.480091
11
806.425611
21
6.509724
0
LINE
8
0
10
806.425611
20
6.509724
11
811.500000
21
6.556191
0
LINE
8
0
10
811.500000
20
6.556191
11
818.633237
21
6.649992
0
LINE
8
0
10
818.633237
20
6.649992
11
830.123951
21
6.942537
0
LINE
8
0
10
830.123951
20
6.942537
11
838.676680
21
7.417365
0
LINE
8
0
10
838.676680
20
7.417365
11
845.207057
21
8.125313
0
LINE
8
0
10
845.207057
20
8.125313
11
848.000000
21
8.582591
0
LINE
8
0
10
736.500000
20
59.151638
11
735.715742
21
59.376329
0
LINE
8
0
10
735.715742
20
59.376329
11
735.057599
21
59.705091
0
LINE
8
0
10
735.057599
20
59.705091
11
735.724322
21
59.906582
0
LINE
8
0
10
735.724322
20
59.906582
11
737.849154
21
60.021071
0
LINE
8
0
10
737.849154
20
60.021071
11
739.500000
21
60.058273
0
LINE
8
0
10
739.500000
20
60.058273
11
743.321526
21
60.135541
0
LINE
8
0
10
743.321526
20
60.135541
11
748.680187
21
60.323945
0
LINE
8
0
10
748.680187
20
60.323945
11
751.507268
21
60.609443
0
LINE
8
0
10
751.507268
20
60.609443
11
752.419896
21
61.054358
0
LINE
8
0
10
752.419896
20
61.054358
11
752.351143
21
61.356072
0
LINE
8
0
10
752.351143
20
61.356072
11
752.433641
21
61.655009
0
LINE
8
0
10
752.433641
20
61.655009
11
754.182071
21
61.786443
0
LINE
8
0
10
754.182071
20
61.786443
11
755.651565
21
61.604175
0
LINE
8
0
10
755.651565
20
61.604175
11
757.470296
21
61.343754
0
LINE
8
0
10
757.470296
20
61.343754
11
758.562139
21
61.590421
0
LINE
8
0
10
758.562139
20
61.590421
11
758.000000
21
62.134727
0
LINE
8
0
10
758.000000
20
62.134727
11
757.296502
21
62.713968
0
LINE
8
0
10
757.296502
20
62.713968
11
757.450390
21
62.970025
0
LINE
8
0
10
757.450390
20
62.970025
11
758.342901
21
62.705285
0
LINE
8
0
10
758.342901
20
62.705285
11
760.424972
21
62.120143
0
LINE
8
0
10
760.424972
20
62.120143
11
762.842901
21
61.553895
0
LINE
8
0
10
762.842901
20
61.553895
11
765.500000
21
61.001102
0
LINE
8
0
10
765.500000
20
61.001102
11
763.000000
21
62.566290
0
LINE
8
0
10
763.000000
20
62.566290
11
760.500000
21
64.131479
0
LINE
8
0
10
760.500000
20
64.131479
11
763.399153
21
63.477505
0
LINE
8
0
10
763.399153
20
63.477505
11
764.670970
21
63.246722
0
LINE
8
0
10
764.670970
20
63.246722
11
765.747898
21
63.482099
0
LINE
8
0
10
765.747898
20
63.482099
11
765.597215
21
63.957920
0
LINE
8
0
10
765.597215
20
63.957920
11
765.399406
21
64.403951
0
LINE
8
0
10
765.399406
20
64.403951
11
765.830380
21
64.676893
0
LINE
8
0
10
765.830380
20
64.676893
11
766.448062
21
64.496774
0
LINE
8
0
10
766.448062
20
64.496774
11
767.544940
21
64.417759
0
LINE
8
0
10
767.544940
20
64.417759
11
768.000000
21
65.067245
0
LINE
8
0
10
768.000000
20
65.067245
11
768.293750
21
65.709189
0
LINE
8
0
10
768.293750
20
65.709189
11
769.000000
21
65.615217
0
LINE
8
0
10
769.000000
20
65.615217
11
769.706250
21
65.480598
0
LINE
8
0
10
769.706250
20
65.480598
11
770.000000
21
66.024815
0
LINE
8
0
10
770.000000
20
66.024815
11
770.440625
21
66.581497
0
LINE
8
0
10
770.440625
20
66.581497
11
771.500000
21
66.476844
0
LINE
8
0
10
771.500000
20
66.476844
11
772.559375
21
66.412837
0
LINE
8
0
10
772.559375
20
66.412837
11
773.000000
21
67.067245
0
LINE
8
0
10
773.000000
20
67.067245
11
773.293750
21
67.709189
0
LINE
8
0
10
773.293750
20
67.709189
11
774.000000
21
67.615217
0
LINE
8
0
10
774.000000
20
67.615217
11
774.706250
21
67.507153
0
LINE
8
0
10
774.706250
20
67.507153
11
775.000000
21
68.115217
0
LINE
8
0
10
775.000000
20
68.115217
11
775.293750
21
68.723281
0
LINE
8
0
10
775.293750
20
68.723281
11
776.000000
21
68.615217
0
LINE
8
0
10
776.000000
20
68.615217
11
776.706250
21
68.507153
0
LINE
8
0
10
776.706250
20
68.507153
11
777.000000
21
69.115217
0
LINE
8
0
10
777.000000
20
69.115217
11
777.293750
21
69.723281
0
LINE
8
0
10
777.293750
20
69.723281
11
778.000000
21
69.615217
0
LINE
8
0
10
778.000000
20
69.615217
11
778.706250
21
69.489817
0
LINE
8
0
10
778.706250
20
69.489817
11
779.000000
21
70.056200
0
LINE
8
0
10
779.000000
20
70.056200
11
779.220313
21
70.769345
0
LINE
8
0
10
779.220313
20
70.769345
11
779.750000
21
70.996796
0
LINE
8
0
10
779.750000
20
70.996796
11
781.241910
21
70.952226
0
LINE
8
0
10
781.241910
20
70.952226
11
784.075133
21
72.315495
0
LINE
8
0
10
784.075133
20
72.315495
11
785.711314
21
73.865217
0
LINE
8
0
10
785.711314
20
73.865217
11
786.663568
21
74.823998
0
LINE
8
0
10
786.663568
20
74.823998
11
787.629072
21
75.553263
0
LINE
8
0
10
787.629072
20
75.553263
11
787.523405
21
75.233925
0
LINE
8
0
10
787.523405
20
75.233925
11
787.511746
21
74.901731
0
LINE
8
0
10
787.511746
20
74.901731
11
789.112041
21
75.544182
0
LINE
8
0
10
789.112041
20
75.544182
11
790.526890
21
76.439699
0
LINE
8
0
10
790.526890
20
76.439699
11
792.083075
21
77.396053
0
LINE
8
0
10
792.083075
20
77.396053
11
794.637735
21
78.449308
0
LINE
8
0
10
794.637735
20
78.449308
11
795.321559
21
78.416483
0
LINE
8
0
10
795.321559
20
78.416483
11
795.655217
21
78.265926
0
LINE
8
0
10
795.655217
20
78.265926
11
795.794749
21
78.562354
0
LINE
8
0
10
795.794749
20
78.562354
11
795.585410
21
78.977021
0
LINE
8
0
10
795.585410
20
78.977021
11
794.727473
21
79.605150
0
LINE
8
0
10
794.727473
20
79.605150
11
793.680902
21
79.471204
0
LINE
8
0
10
793.680902
20
79.471204
11
793.272617
21
79.269882
0
LINE
8
0
10
793.272617
20
79.269882
11
793.089894
21
79.392737
0
LINE
8
0
10
793.089894
20
79.392737
11
793.333333
21
79.704892
0
LINE
8
0
10
793.333333
20
79.704892
11
794.194992
21
80.347809
0
LINE
8
0
10
794.194992
20
80.347809
11
795.096426
21
80.615217
0
LINE
8
0
10
795.096426
20
80.615217
11
795.659374
21
80.851936
0
LINE
8
0
10
795.659374
20
80.851936
11
797.518357
21
82.450373
0
LINE
8
0
10
797.518357
20
82.450373
11
798.585426
21
83.615217
0
LINE
8
0
10
798.585426
20
83.615217
11
799.527960
21
84.661701
0
LINE
8
0
10
799.527960
20
84.661701
11
800.546015
21
85.460920
0
LINE
8
0
10
800.546015
20
85.460920
11
800.496146
21
85.115217
0
LINE
8
0
10
800.496146
20
85.115217
11
800.411732
21
84.723485
0
LINE
8
0
10
800.411732
20
84.723485
11
801.196521
21
85.211897
0
LINE
8
0
10
801.196521
20
85.211897
11
801.969063
21
86.031884
0
LINE
8
0
10
801.969063
20
86.031884
11
803.294497
21
87.278527
0
LINE
8
0
10
803.294497
20
87.278527
11
806.210858
21
88.512598
0
LINE
8
0
10
806.210858
20
88.512598
11
809.450190
21
88.071934
0
LINE
8
0
10
809.450190
20
88.071934
11
812.975270
21
85.961597
0
LINE
8
0
10
812.975270
20
85.961597
11
814.833333
21
84.281884
0
LINE
8
0
10
814.833333
20
84.281884
11
816.510352
21
82.682491
0
LINE
8
0
10
816.510352
20
82.682491
11
819.130013
21
80.586992
0
LINE
8
0
10
819.130013
20
80.586992
11
819.750000
21
80.348983
0
LINE
8
0
10
819.750000
20
80.348983
11
820.258865
21
80.219791
0
LINE
8
0
10
820.258865
20
80.219791
11
822.128174
21
78.859075
0
LINE
8
0
10
822.128174
20
78.859075
11
823.258382
21
77.795147
0
LINE
8
0
10
823.258382
20
77.795147
11
824.480224
21
76.703189
0
LINE
8
0
10
824.480224
20
76.703189
11
826.551371
21
75.645968
0
LINE
8
0
10
826.551371
20
75.645968
11
827.258382
21
75.753339
0
LINE
8
0
10
827.258382
20
75.753339
11
827.632253
21
75.904431
0
LINE
8
0
10
827.632253
20
75.904431
11
827.495586
21
75.317376
0
LINE
8
0
10
827.495586
20
75.317376
11
827.000000
21
74.643456
0
LINE
8
0
10
827.000000
20
74.643456
11
826.224100
21
73.644313
0
LINE
8
0
10
826.224100
20
73.644313
11
826.591561
21
73.394384
0
LINE
8
0
10
826.591561
20
73.394384
11
827.870677
21
74.051266
0
LINE
8
0
10
827.870677
20
74.051266
11
828.744884
21
74.466968
0
LINE
8
0
10
828.744884
20
74.466968
11
829.695491
21
74.634502
0
LINE
8
0
10
829.695491
20
74.634502
11
829.654807
21
74.365699
0
LINE
8
0
10
829.654807
20
74.365699
11
829.580089
21
73.970972
0
LINE
8
0
10
829.580089
20
73.970972
11
830.264893
21
73.045366
0
LINE
8
0
10
830.264893
20
73.045366
11
833.026280
21
71.533076
0
LINE
8
0
10
833.026280
20
71.533076
11
835.750000
21
70.610680
0
LINE
8
0
10
835.750000
20
70.610680
11
837.339062
21
69.874283
0
LINE
8
0
10
837.339062
20
69.874283
11
838.000000
21
68.988812
0
LINE
8
0
10
838.000000
20
68.988812
11
838.293750
21
68.470022
0
LINE
8
0
10
838.293750
20
68.470022
11
839.000000
21
68.615217
0
LINE
8
0
10
839.000000
20
68.615217
11
839.706250
21
68.723281
0
LINE
8
0
10
839.706250
20
68.723281
11
840.000000
21
68.115217
0
LINE
8
0
10
840.000000
20
68.115217
11
840.293750
21
67.507153
0
LINE
8
0
10
840.293750
20
67.507153
11
841.000000
21
67.615217
0
LINE
8
0
10
841.000000
20
67.615217
11
841.706250
21
67.709189
0
LINE
8
0
10
841.706250
20
67.709189
11
842.000000
21
67.067245
0
LINE
8
0
10
842.000000
20
67.067245
11
842.455060
21
66.417759
0
LINE
8
0
10
842.455060
20
66.417759
11
843.551938
21
66.496774
0
LINE
8
0
10
843.551938
20
66.496774
11
844.109829
21
66.655687
0
LINE
8
0
10
844.109829
20
66.655687
11
844.634905
21
66.484647
0
LINE
8
0
10
844.634905
20
66.484647
11
844.537417
21
66.175759
0
LINE
8
0
10
844.537417
20
66.175759
11
844.462222
21
65.732804
0
LINE
8
0
10
844.462222
20
65.732804
11
845.272239
21
64.940647
0
LINE
8
0
10
845.272239
20
64.940647
11
847.681608
21
64.371875
0
LINE
8
0
10
847.681608
20
64.371875
11
849.145560
21
64.705178
0
LINE
8
0
10
849.145560
20
64.705178
11
849.602983
21
64.937029
0
LINE
8
0
10
849.602983
20
64.937029
11
849.779420
21
64.640291
0
LINE
8
0
10
849.779420
20
64.640291
11
849.498137
21
64.112202
0
LINE
8
0
10
849.498137
20
64.112202
11
849.227663
21
63.523925
0
LINE
8
0
10
849.227663
20
63.523925
11
849.870804
21
63.166322
0
LINE
8
0
10
849.870804
20
63.166322
11
850.843628
21
63.364074
0
LINE
8
0
10
850.843628
20
63.364074
11
851.680907
21
63.503066
0
LINE
8
0
10
851.680907
20
63.503066
11
852.829849
21
63.263585
0
LINE
8
0
10
852.829849
20
63.263585
11
853.000000
21
62.914609
0
LINE
8
0
10
853.000000
20
62.914609
11
853.447209
21
62.370527
0
LINE
8
0
10
853.447209
20
62.370527
11
854.522414
21
62.485445
0
LINE
8
0
10
854.522414
20
62.485445
11
855.421771
21
62.610008
0
LINE
8
0
10
855.421771
20
62.610008
11
858.707106
21
62.375139
0
LINE
8
0
10
858.707106
20
62.375139
11
862.889973
21
61.676185
0
LINE
8
0
10
862.889973
20
61.676185
11
866.668820
21
60.730633
0
LINE
8
0
10
866.668820
20
60.730633
11
868.000000
21
60.233349
0
LINE
8
0
10
868.000000
20
60.233349
11
869.284281
21
59.902530
0
LINE
8
0
10
869.284281
20
59.902530
11
873.538377
21
59.688883
0
LINE
8
0
10
873.538377
20
59.688883
11
878.545094
21
59.984346
0
LINE
8
0
10
878.545094
20
59.984346
11
882.510723
21
60.683066
0
LINE
8
0
10
882.510723
20
60.683066
11
883.542596
21
61.150569
0
LINE
8
0
10
883.542596
20
61.150569
11
884.287511
21
61.917414
0
LINE
8
0
10
884.287511
20
61.917414
11
884.951692
21
63.569277
0
LINE
8
0
10
884.951692
20
63.569277
11
884.554475
21
65.215177
0
LINE
8
0
10
884.554475
20
65.215177
11
883.143217
21
66.658881
0
LINE
8
0
10
883.143217
20
66.658881
11
882.072122
21
67.243587
0
LINE
8
0
10
882.072122
20
67.243587
11
880.972271
21
67.806651
0
LINE
8
0
10
880.972271
20
67.806651
11
879.662031
21
68.901315
0
LINE
8
0
10
879.662031
20
68.901315
11
879.613020
21
69.298087
0
LINE
8
0
10
879.613020
20
69.298087
11
879.716968
21
69.583510
0
LINE
8
0
10
879.716968
20
69.583510
11
879.110695
21
70.082928
0
LINE
8
0
10
879.110695
20
70.082928
11
876.769592
21
70.642223
0
LINE
8
0
10
876.769592
20
70.642223
11
871.914533
21
71.447528
0
LINE
8
0
10
871.914533
20
71.447528
11
868.300795
21
72.000601
0
LINE
8
0
10
868.300795
20
72.000601
11
865.370167
21
72.372226
0
LINE
8
0
10
865.370167
20
72.372226
11
860.620652
21
72.602819
0
LINE
8
0
10
860.620652
20
72.602819
11
859.386750
21
72.433385
0
LINE
8
0
10
859.386750
20
72.433385
11
858.629428
21
72.196587
0
LINE
8
0
10
858.629428
20
72.196587
11
858.203523
21
72.524069
0
LINE
8
0
10
858.203523
20
72.524069
11
858.500000
21
73.115217
0
LINE
8
0
10
858.500000
20
73.115217
11
858.797678
21
73.711373
0
LINE
8
0
10
858.797678
20
73.711373
11
858.327520
21
74.018842
0
LINE
8
0
10
858.327520
20
74.018842
11
857.515029
21
73.759358
0
LINE
8
0
10
857.515029
20
73.759358
11
856.486124
21
73.636462
0
LINE
8
0
10
856.486124
20
73.636462
11
853.281170
21
74.171496
0
LINE
8
0
10
853.281170
20
74.171496
11
849.819793
21
75.323808
0
LINE
8
0
10
849.819793
20
75.323808
11
847.629715
21
76.584812
0
LINE
8
0
10
847.629715
20
76.584812
11
847.488827
21
77.097139
0
LINE
8
0
10
847.488827
20
77.097139
11
847.482242
21
77.533687
0
LINE
8
0
10
847.482242
20
77.533687
11
846.302500
21
78.519723
0
LINE
8
0
10
846.302500
20
78.519723
11
843.295090
21
79.583557
0
LINE
8
0
10
843.295090
20
79.583557
11
841.770556
21
79.473413
0
LINE
8
0
10
841.770556
20
79.473413
11
841.184395
21
79.287432
0
LINE
8
0
10
841.184395
20
79.287432
11
841.291110
21
79.777225
0
LINE
8
0
10
841.291110
20
79.777225
11
841.280023
21
80.298452
0
LINE
8
0
10
841.280023
20
80.298452
11
839.951468
21
81.789507
0
LINE
8
0
10
839.951468
20
81.789507
11
838.797633
21
82.575687
0
LINE
8
0
10
838.797633
20
82.575687
11
837.438300
21
83.324218
0
LINE
8
0
10
837.438300
20
83.324218
11
836.290942
21
83.536402
0
LINE
8
0
10
836.290942
20
83.536402
11
836.453627
21
83.009170
0
LINE
8
0
10
836.453627
20
83.009170
11
836.529918
21
82.729174
0
LINE
8
0
10
836.529918
20
82.729174
11
835.479134
21
83.750542
0
LINE
8
0
10
835.479134
20
83.750542
11
834.481480
21
84.926107
0
LINE
8
0
10
834.481480
20
84.926107
11
833.321567
21
86.172096
0
LINE
8
0
10
833.321567
20
86.172096
11
831.175133
21
87.669001
0
LINE
8
0
10
831.175133
20
87.669001
11
830.452982
21
87.735548
0
LINE
8
0
10
830.452982
20
87.735548
11
829.141421
21
87.860952
0
LINE
8
0
10
829.141421
20
87.860952
11
827.823113
21
88.866616
0
LINE
8
0
10
827.823113
20
88.866616
11
827.197977
21
89.677885
0
LINE
8
0
10
827.197977
20
89.677885
11
827.277364
21
90.065812
0
LINE
8
0
10
827.277364
20
90.065812
11
828.000000
21
89.730988
0
LINE
8
0
10
828.000000
20
89.730988
11
828.395249
21
89.562648
0
LINE
8
0
10
828.395249
20
89.562648
11
828.187309
21
89.955903
0
LINE
8
0
10
828.187309
20
89.955903
11
826.563878
21
91.397193
0
LINE
8
0
10
826.563878
20
91.397193
11
823.423871
21
93.976264
0
LINE
8
0
10
823.423871
20
93.976264
11
821.253561
21
95.720513
0
LINE
8
0
10
821.253561
20
95.720513
11
820.031749
21
96.791610
0
LINE
8
0
10
820.031749
20
96.791610
11
818.563454
21
98.598470
0
LINE
8
0
10
818.563454
20
98.598470
11
818.497818
21
99.111686
0
LINE
8
0
10
818.497818
20
99.111686
11
818.386815
21
99.848002
0
LINE
8
0
10
818.386815
20
99.848002
11
817.430874
21
100.503370
0
LINE
8
0
10
817.430874
20
100.503370
11
816.515247
21
101.223964
0
LINE
8
0
10
816.515247
20
101.223964
11
816.501165
21
102.117103
0
LINE
8
0
10
816.501165
20
102.117103
11
816.803019
21
103.547890
0
LINE
8
0
10
816.803019
20
103.547890
11
816.117623
21
105.836935
0
LINE
8
0
10
816.117623
20
105.836935
11
815.249840
21
106.575025
0
LINE
8
0
10
815.249840
20
106.575025
11
814.782161
21
106.480585
0
LINE
8
0
10
814.782161
20
106.480585
11
814.353873
21
106.349197
0
LINE
8
0
10
814.353873
20
106.349197
11
814.130235
21
107.269896
0
LINE
8
0
10
814.130235
20
107.269896
11
814.335948
21
108.317606
0
LINE
8
0
10
814.335948
20
108.317606
11
814.593277
21
110.269661
0
LINE
8
0
10
814.593277
20
110.269661
11
814.330600
21
111.451284
0
LINE
8
0
10
814.330600
20
111.451284
11
814.254246
21
111.738694
0
LINE
8
0
10
814.254246
20
111.738694
11
814.113207
21
113.487526
0
LINE
8
0
10
814.113207
20
113.487526
11
813.988181
21
116.622030
0
LINE
8
0
10
813.988181
20
116.622030
11
813.879715
21
120.926590
0
LINE
8
0
10
813.879715
20
120.926590
11
813.749255
21
129.105628
0
LINE
8
0
10
813.749255
20
129.105628
11
813.638351
21
142.093806
0
LINE
8
0
10
813.638351
20
142.093806
11
813.603495
21
155.881144
0
LINE
8
0
10
813.603495
20
155.881144
11
813.649046
21
168.742724
0
LINE
8
0
10
813.649046
20
168.742724
11
813.738601
21
176.743735
0
LINE
8
0
10
813.738601
20
176.743735
11
813.825702
21
180.890048
0
LINE
8
0
10
813.825702
20
180.890048
11
813.935359
21
183.834654
0
LINE
8
0
10
813.935359
20
183.834654
11
814.068115
21
185.361941
0
LINE
8
0
10
814.068115
20
185.361941
11
814.143326
21
185.526709
0
LINE
8
0
10
814.143326
20
185.526709
11
814.483834
21
185.563592
0
LINE
8
0
10
814.483834
20
185.563592
11
815.144479
21
186.757434
0
LINE
8
0
10
815.144479
20
186.757434
11
815.696980
21
189.704407
0
LINE
8
0
10
815.696980
20
189.704407
11
815.471577
21
191.161206
0
LINE
8
0
10
815.471577
20
191.161206
11
815.415209
21
191.834976
0
LINE
8
0
10
815.415209
20
191.834976
11
816.107650
21
192.115217
0
LINE
8
0
10
816.107650
20
192.115217
11
816.821260
21
192.267246
0
LINE
8
0
10
816.821260
20
192.267246
11
816.815789
21
192.632761
0
LINE
8
0
10
816.815789
20
192.632761
11
817.010506
21
193.218083
0
LINE
8
0
10
817.010506
20
193.218083
11
819.234534
21
196.005189
0
LINE
8
0
10
819.234534
20
196.005189
11
822.577625
21
199.543156
0
LINE
8
0
10
822.577625
20
199.543156
11
825.447298
21
202.146675
0
LINE
8
0
10
825.447298
20
202.146675
11
826.206953
21
202.571357
0
LINE
8
0
10
826.206953
20
202.571357
11
827.181292
21
203.189833
0
LINE
8
0
10
827.181292
20
203.189833
11
828.531110
21
204.615217
0
LINE
8
0
10
828.531110
20
204.615217
11
829.105479
21
205.287322
0
LINE
8
0
10
829.105479
20
205.287322
11
829.605472
21
205.647596
0
LINE
8
0
10
829.605472
20
205.647596
11
829.469514
21
205.291393
0
LINE
8
0
10
829.469514
20
205.291393
11
829.211612
21
204.678058
0
LINE
8
0
10
829.211612
20
204.678058
11
829.833139
21
204.655296
0
LINE
8
0
10
829.833139
20
204.655296
11
830.830674
21
205.241544
0
LINE
8
0
10
830.830674
20
205.241544
11
831.593869
21
205.782938
0
LINE
8
0
10
831.593869
20
205.782938
11
832.485755
21
206.777293
0
LINE
8
0
10
832.485755
20
206.777293
11
832.504595
21
207.107783
0
LINE
8
0
10
832.504595
20
207.107783
11
832.819578
21
207.569269
0
LINE
8
0
10
832.819578
20
207.569269
11
834.090891
21
207.847111
0
LINE
8
0
10
834.090891
20
207.847111
11
834.846615
21
207.829879
0
LINE
8
0
10
834.846615
20
207.829879
11
835.506665
21
207.340137
0
LINE
8
0
10
835.506665
20
207.340137
11
835.367105
21
206.900188
0
LINE
8
0
10
835.367105
20
206.900188
11
835.170321
21
206.497722
0
LINE
8
0
10
835.170321
20
206.497722
11
835.441564
21
206.317328
0
LINE
8
0
10
835.441564
20
206.317328
11
835.894050
21
206.549736
0
LINE
8
0
10
835.894050
20
206.549736
11
836.411094
21
206.984407
0
LINE
8
0
10
836.411094
20
206.984407
11
836.366145
21
208.088924
0
LINE
8
0
10
836.366145
20
208.088924
11
835.798558
21
208.896203
0
LINE
8
0
10
835.798558
20
208.896203
11
835.381361
21
209.466519
0
LINE
8
0
10
835.381361
20
209.466519
11
835.276993
21
209.968964
0
LINE
8
0
10
835.276993
20
209.968964
11
835.602678
21
209.839209
0
LINE
8
0
10
835.602678
20
209.839209
11
836.938783
21
209.826135
0
LINE
8
0
10
836.938783
20
209.826135
11
838.602678
21
210.721408
0
LINE
8
0
10
838.602678
20
210.721408
11
839.228548
21
211.262689
0
LINE
8
0
10
839.228548
20
211.262689
11
839.491125
21
211.696110
0
LINE
8
0
10
839.491125
20
211.696110
11
839.095492
21
211.534866
0
LINE
8
0
10
839.095492
20
211.534866
11
838.541359
21
211.297230
0
LINE
8
0
10
838.541359
20
211.297230
11
838.177263
21
211.491034
0
LINE
8
0
10
838.177263
20
211.491034
11
838.377517
21
211.917035
0
LINE
8
0
10
838.377517
20
211.917035
11
839.263885
21
212.547490
0
LINE
8
0
10
839.263885
20
212.547490
11
840.430874
21
212.503370
0
LINE
8
0
10
840.430874
20
212.503370
11
841.618169
21
212.492104
0
LINE
8
0
10
841.618169
20
212.492104
11
842.553358
21
213.201552
0
LINE
8
0
10
842.553358
20
213.201552
11
842.809651
21
213.695310
0
LINE
8
0
10
842.809651
20
213.695310
11
842.535296
21
213.900405
0
LINE
8
0
10
842.535296
20
213.900405
11
842.000000
21
213.615217
0
LINE
8
0
10
842.000000
20
213.615217
11
841.474706
21
213.335684
0
LINE
8
0
10
841.474706
20
213.335684
11
841.177105
21
213.510187
0
LINE
8
0
10
841.177105
20
213.510187
11
841.406180
21
213.963413
0
LINE
8
0
10
841.406180
20
213.963413
11
841.838048
21
214.428721
0
LINE
8
0
10
841.838048
20
214.428721
11
843.111543
21
214.502023
0
LINE
8
0
10
843.111543
20
214.502023
11
844.004227
21
214.112955
0
LINE
8
0
10
844.004227
20
214.112955
11
844.944124
21
213.676403
0
LINE
8
0
10
844.944124
20
213.676403
11
845.634269
21
214.072414
0
LINE
8
0
10
845.634269
20
214.072414
11
845.524968
21
214.985568
0
LINE
8
0
10
845.524968
20
214.985568
11
845.468277
21
215.805706
0
LINE
8
0
10
845.468277
20
215.805706
11
846.119084
21
216.679935
0
LINE
8
0
10
846.119084
20
216.679935
11
846.831429
21
216.740534
0
LINE
8
0
10
846.831429
20
216.740534
11
847.457622
21
216.796374
0
LINE
8
0
10
847.457622
20
216.796374
11
848.200253
21
217.435223
0
LINE
8
0
10
848.200253
20
217.435223
11
848.225223
21
217.939547
0
LINE
8
0
10
848.225223
20
217.939547
11
848.266781
21
218.729234
0
LINE
8
0
10
848.266781
20
218.729234
11
848.752554
21
218.768147
0
LINE
8
0
10
848.752554
20
218.768147
11
849.541717
21
218.855423
0
LINE
8
0
10
849.541717
20
218.855423
11
852.904810
21
220.483104
0
LINE
8
0
10
852.904810
20
220.483104
11
857.044209
21
223.052892
0
LINE
8
0
10
857.044209
20
223.052892
11
860.035854
21
225.370307
0
LINE
8
0
10
860.035854
20
225.370307
11
860.500000
21
226.061101
0
LINE
8
0
10
860.500000
20
226.061101
11
860.767408
21
226.932654
0
LINE
8
0
10
860.767408
20
226.932654
11
861.410325
21
227.781884
0
LINE
8
0
10
861.410325
20
227.781884
11
861.722603
21
228.026355
0
LINE
8
0
10
861.722603
20
228.026355
11
861.857285
21
227.862109
0
LINE
8
0
10
861.857285
20
227.862109
11
861.666069
21
227.470002
0
LINE
8
0
10
861.666069
20
227.470002
11
861.707192
21
226.468013
0
LINE
8
0
10
861.707192
20
226.468013
11
862.725263
21
225.667149
0
LINE
8
0
10
862.725263
20
225.667149
11
863.334600
21
225.467891
0
LINE
8
0
10
863.334600
20
225.467891
11
863.868975
21
225.496240
0
LINE
8
0
10
863.868975
20
225.496240
11
863.728195
21
225.720355
0
LINE
8
0
10
863.728195
20
225.720355
11
863.590801
21
226.672991
0
LINE
8
0
10
863.590801
20
226.672991
11
864.258676
21
227.965166
0
LINE
8
0
10
864.258676
20
227.965166
11
864.824202
21
228.700477
0
LINE
8
0
10
864.824202
20
228.700477
11
864.749625
21
229.014674
0
LINE
8
0
10
864.749625
20
229.014674
11
864.095492
21
228.652667
0
LINE
8
0
10
864.095492
20
228.652667
11
863.525473
21
228.352916
0
LINE
8
0
10
863.525473
20
228.352916
11
863.166033
21
228.485267
0
LINE
8
0
10
863.166033
20
228.485267
11
863.377517
21
228.917035
0
LINE
8
0
10
863.377517
20
228.917035
11
864.263885
21
229.547490
0
LINE
8
0
10
864.263885
20
229.547490
11
865.430874
21
229.503370
0
LINE
8
0
10
865.430874
20
229.503370
11
866.618169
21
229.492104
0
LINE
8
0
10
866.618169
20
229.492104
11
867.553358
21
230.201552
0
LINE
8
0
10
867.553358
20
230.201552
11
867.810186
21
230.702654
0
LINE
8
0
10
867.810186
20
230.702654
11
867.490713
21
230.903465
0
LINE
8
0
10
867.490713
20
230.903465
11
866.904508
21
230.609400
0
LINE
8
0
10
866.904508
20
230.609400
11
866.400837
21
230.348520
0
LINE
8
0
10
866.400837
20
230.348520
11
866.095066
21
230.391845
0
LINE
8
0
10
866.095066
20
230.391845
11
866.320579
21
230.692138
0
LINE
8
0
10
866.320579
20
230.692138
11
867.393443
21
231.329794
0
LINE
8
0
10
867.393443
20
231.329794
11
868.820579
21
231.602463
0
LINE
8
0
10
868.820579
20
231.602463
11
869.925955
21
232.000492
0
LINE
8
0
10
869.925955
20
232.000492
11
870.225223
21
232.939547
0
LINE
8
0
10
870.225223
20
232.939547
11
870.201871
21
233.409109
0
LINE
8
0
10
870.201871
20
233.409109
11
870.640701
21
233.748463
0
LINE
8
0
10
870.640701
20
233.748463
11
871.055000
21
233.581225
0
LINE
8
0
10
871.055000
20
233.581225
11
871.725833
21
233.638627
0
LINE
8
0
10
871.725833
20
233.638627
11
874.073102
21
235.262141
0
LINE
8
0
10
874.073102
20
235.262141
11
876.788705
21
237.938759
0
LINE
8
0
10
876.788705
20
237.938759
11
878.705677
21
240.518270
0
LINE
8
0
10
878.705677
20
240.518270
11
879.000000
21
241.412169
0
LINE
8
0
10
879.000000
20
241.412169
11
878.513847
21
242.687793
0
LINE
8
0
10
878.513847
20
242.687793
11
877.345012
21
244.286476
0
LINE
8
0
10
877.345012
20
244.286476
11
875.427781
21
245.500628
0
LINE
8
0
10
875.427781
20
245.500628
11
871.843025
21
246.084088
0
LINE
8
0
10
871.843025
20
246.084088
11
870.240786
21
245.534291
0
LINE
8
0
10
870.240786
20
245.534291
11
870.000000
21
244.948550
0
LINE
8
0
10
870.000000
20
244.948550
11
869.808733
21
244.315860
0
LINE
8
0
10
869.808733
20
244.315860
11
869.348877
21
244.433007
0
LINE
8
0
10
869.348877
20
244.433007
11
868.983772
21
244.548966
0
LINE
8
0
10
868.983772
20
244.548966
11
867.878635
21
243.971753
0
LINE
8
0
10
867.878635
20
243.971753
11
867.274719
21
243.349674
0
LINE
8
0
10
867.274719
20
243.349674
11
866.692250
21
242.684038
0
LINE
8
0
10
866.692250
20
242.684038
11
866.305020
21
242.566849
0
LINE
8
0
10
866.305020
20
242.566849
11
866.500000
21
243.115217
0
LINE
8
0
10
866.500000
20
243.115217
11
866.627518
21
243.544472
0
LINE
8
0
10
866.627518
20
243.544472
11
866.134217
21
243.309432
0
LINE
8
0
10
866.134217
20
243.309432
11
865.574157
21
242.674087
0
LINE
8
0
10
865.574157
20
242.674087
11
864.962942
21
241.976944
0
LINE
8
0
10
864.962942
20
241.976944
11
864.124211
21
241.324611
0
LINE
8
0
10
864.124211
20
241.324611
11
864.000000
21
241.449768
0
LINE
8
0
10
864.000000
20
241.449768
11
863.763281
21
241.605679
0
LINE
8
0
10
863.763281
20
241.605679
11
862.164844
21
241.161020
0
LINE
8
0
10
862.164844
20
241.161020
11
861.000000
21
240.615217
0
LINE
8
0
10
861.000000
20
240.615217
11
859.835156
21
239.970769
0
LINE
8
0
10
859.835156
20
239.970769
11
858.236719
21
238.860017
0
LINE
8
0
10
858.236719
20
238.860017
11
858.000000
21
238.530520
0
LINE
8
0
10
858.000000
20
238.530520
11
858.339137
21
238.363449
0
LINE
8
0
10
858.339137
20
238.363449
11
859.154508
21
238.710709
0
LINE
8
0
10
859.154508
20
238.710709
11
859.581023
21
238.925500
0
LINE
8
0
10
859.581023
20
238.925500
11
859.823056
21
238.720014
0
LINE
8
0
10
859.823056
20
238.720014
11
859.622483
21
238.313400
0
LINE
8
0
10
859.622483
20
238.313400
11
858.760717
21
237.673504
0
LINE
8
0
10
858.760717
20
237.673504
11
857.652879
21
237.694925
0
LINE
8
0
10
857.652879
20
237.694925
11
856.953478
21
237.705717
0
LINE
8
0
10
856.953478
20
237.705717
11
854.911180
21
236.750025
0
LINE
8
0
10
854.911180
20
236.750025
11
853.819829
21
235.901251
0
LINE
8
0
10
853.819829
20
235.901251
11
851.612084
21
234.195373
0
LINE
8
0
10
851.612084
20
234.195373
11
849.884924
21
233.304180
0
LINE
8
0
10
849.884924
20
233.304180
11
848.367268
21
232.441502
0
LINE
8
0
10
848.367268
20
232.441502
11
846.663223
21
230.804180
0
LINE
8
0
10
846.663223
20
230.804180
11
846.002189
21
230.072606
0
LINE
8
0
10
846.002189
20
230.072606
11
845.375685
21
229.705518
0
LINE
8
0
10
845.375685
20
229.705518
11
845.487381
21
230.115217
0
LINE
8
0
10
845.487381
20
230.115217
11
845.619798
21
230.544472
0
LINE
8
0
10
845.619798
20
230.544472
11
845.133221
21
230.309432
0
LINE
8
0
10
845.133221
20
230.309432
11
844.574157
21
229.674087
0
LINE
8
0
10
844.574157
20
229.674087
11
843.960432
21
228.994644
0
LINE
8
0
10
843.960432
20
228.994644
11
843.104756
21
228.461832
0
LINE
8
0
10
843.104756
20
228.461832
11
842.968197
21
228.674087
0
LINE
8
0
10
842.968197
20
228.674087
11
842.839998
21
228.886343
0
LINE
8
0
10
842.839998
20
228.886343
11
842.040779
21
228.353531
0
LINE
8
0
10
842.040779
20
228.353531
11
841.468197
21
227.674087
0
LINE
8
0
10
841.468197
20
227.674087
11
840.898123
21
226.989999
0
LINE
8
0
10
840.898123
20
226.989999
11
840.115850
21
226.425820
0
LINE
8
0
10
840.115850
20
226.425820
11
840.000000
21
226.615217
0
LINE
8
0
10
840.000000
20
226.615217
11
839.875789
21
226.804615
0
LINE
8
0
10
839.875789
20
226.804615
11
839.037058
21
226.240435
0
LINE
8
0
10
839.037058
20
226.240435
11
838.425843
21
225.556347
0
LINE
8
0
10
838.425843
20
225.556347
11
837.869453
21
224.909148
0
LINE
8
0
10
837.869453
20
224.909148
11
837.400939
21
224.594063
0
LINE
8
0
10
837.400939
20
224.594063
11
837.546520
21
224.964985
0
LINE
8
0
10
837.546520
20
224.964985
11
837.800312
21
225.586091
0
LINE
8
0
10
837.800312
20
225.586091
11
837.143231
21
225.685086
0
LINE
8
0
10
837.143231
20
225.685086
11
836.120677
21
225.179802
0
LINE
8
0
10
836.120677
20
225.179802
11
834.622949
21
224.224366
0
LINE
8
0
10
834.622949
20
224.224366
11
834.000000
21
223.521016
0
LINE
8
0
10
834.000000
20
223.521016
11
834.339137
21
223.360657
0
LINE
8
0
10
834.339137
20
223.360657
11
835.154508
21
223.710709
0
LINE
8
0
10
835.154508
20
223.710709
11
835.581023
21
223.925500
0
LINE
8
0
10
835.581023
20
223.925500
11
835.823056
21
223.720014
0
LINE
8
0
10
835.823056
20
223.720014
11
835.622483
21
223.313400
0
LINE
8
0
10
835.622483
20
223.313400
11
834.745444
21
222.679364
0
LINE
8
0
10
834.745444
20
222.679364
11
833.600885
21
222.714878
0
LINE
8
0
10
833.600885
20
222.714878
11
832.819753
21
222.652936
0
LINE
8
0
10
832.819753
20
222.652936
11
830.334198
21
221.164432
0
LINE
8
0
10
830.334198
20
221.164432
11
828.935913
21
219.921204
0
LINE
8
0
10
828.935913
20
219.921204
11
827.706654
21
218.742701
0
LINE
8
0
10
827.706654
20
218.742701
11
826.362451
21
217.691255
0
LINE
8
0
10
826.362451
20
217.691255
11
826.413068
21
217.947814
0
LINE
8
0
10
826.413068
20
217.947814
11
826.614730
21
218.474724
0
LINE
8
0
10
826.614730
20
218.474724
11
825.484658
21
218.333162
0
LINE
8
0
10
825.484658
20
218.333162
11
824.077368
21
217.655226
0
LINE
8
0
10
824.077368
20
217.655226
11
822.903225
21
216.949555
0
LINE
8
0
10
822.903225
20
216.949555
11
821.540223
21
215.579618
0
LINE
8
0
10
821.540223
20
215.579618
11
821.519242
21
215.084084
0
LINE
8
0
10
821.519242
20
215.084084
11
821.536468
21
214.567834
0
LINE
8
0
10
821.536468
20
214.567834
11
820.756909
21
214.655005
0
LINE
8
0
10
820.756909
20
214.655005
11
820.064351
21
214.660693
0
LINE
8
0
10
820.064351
20
214.660693
11
818.201747
21
213.619315
0
LINE
8
0
10
818.201747
20
213.619315
11
817.261113
21
212.700513
0
LINE
8
0
10
817.261113
20
212.700513
11
814.556224
21
210.611528
0
LINE
8
0
10
814.556224
20
210.611528
11
809.335308
21
208.497929
0
LINE
8
0
10
809.335308
20
208.497929
11
806.798823
21
208.370996
0
LINE
8
0
10
806.798823
20
208.370996
11
806.256064
21
208.847024
0
LINE
8
0
10
806.256064
20
208.847024
11
805.562314
21
209.501534
0
LINE
8
0
10
805.562314
20
209.501534
11
804.435392
21
209.452051
0
LINE
8
0
10
804.435392
20
209.452051
11
803.421647
21
209.378999
0
LINE
8
0
10
803.421647
20
209.378999
11
803.000000
21
209.976844
0
LINE
8
0
10
803.000000
20
209.976844
11
802.581903
21
210.576050
0
LINE
8
0
10
802.581903
20
210.576050
11
801.576692
21
210.506273
0
LINE
8
0
10
801.576692
20
210.506273
11
800.920495
21
210.448986
0
LINE
8
0
10
800.920495
20
210.448986
11
799.568344
21
211.293299
0
LINE
8
0
10
799.568344
20
211.293299
11
799.000000
21
212.115217
0
LINE
8
0
10
799.000000
20
212.115217
11
798.438049
21
212.924540
0
LINE
8
0
10
798.438049
20
212.924540
11
797.092876
21
213.781563
0
LINE
8
0
10
797.092876
20
213.781563
11
796.455333
21
213.736450
0
LINE
8
0
10
796.455333
20
213.736450
11
795.271070
21
213.685701
0
LINE
8
0
10
795.271070
20
213.685701
11
794.377517
21
214.313400
0
LINE
8
0
10
794.377517
20
214.313400
11
794.167974
21
214.737759
0
LINE
8
0
10
794.167974
20
214.737759
11
794.482543
21
214.890280
0
LINE
8
0
10
794.482543
20
214.890280
11
795.000000
21
214.615217
0
LINE
8
0
10
795.000000
20
214.615217
11
795.535296
21
214.330029
0
LINE
8
0
10
795.535296
20
214.330029
11
795.809651
21
214.535125
0
LINE
8
0
10
795.809651
20
214.535125
11
795.553358
21
215.028882
0
LINE
8
0
10
795.553358
20
215.028882
11
794.593505
21
215.728865
0
LINE
8
0
10
794.593505
20
215.728865
11
793.346912
21
215.694845
0
LINE
8
0
10
793.346912
20
215.694845
11
792.829359
21
215.552725
0
LINE
8
0
10
792.829359
20
215.552725
11
792.365364
21
215.756074
0
LINE
8
0
10
792.365364
20
215.756074
11
792.476070
21
216.076498
0
LINE
8
0
10
792.476070
20
216.076498
11
792.547090
21
216.558133
0
LINE
8
0
10
792.547090
20
216.558133
11
791.723413
21
217.610998
0
LINE
8
0
10
791.723413
20
217.610998
11
789.334791
21
218.713998
0
LINE
8
0
10
789.334791
20
218.713998
11
787.954557
21
218.587132
0
LINE
8
0
10
787.954557
20
218.587132
11
787.326120
21
218.537873
0
LINE
8
0
10
787.326120
20
218.537873
11
787.225223
21
219.290887
0
LINE
8
0
10
787.225223
20
219.290887
11
787.195786
21
219.796059
0
LINE
8
0
10
787.195786
20
219.796059
11
786.416768
21
220.427606
0
LINE
8
0
10
786.416768
20
220.427606
11
785.760762
21
220.478122
0
LINE
8
0
10
785.760762
20
220.478122
11
785.121566
21
220.504438
0
LINE
8
0
10
785.121566
20
220.504438
11
784.548664
21
220.989757
0
LINE
8
0
10
784.548664
20
220.989757
11
784.674807
21
221.398061
0
LINE
8
0
10
784.674807
20
221.398061
11
784.834049
21
221.799230
0
LINE
8
0
10
784.834049
20
221.799230
11
784.291528
21
222.002694
0
LINE
8
0
10
784.291528
20
222.002694
11
783.612107
21
221.796610
0
LINE
8
0
10
783.612107
20
221.796610
11
782.985083
21
221.604458
0
LINE
8
0
10
782.985083
20
221.604458
11
782.335890
21
221.682556
0
LINE
8
0
10
782.335890
20
221.682556
11
782.393680
21
221.943188
0
LINE
8
0
10
782.393680
20
221.943188
11
782.354444
21
222.393077
0
LINE
8
0
10
782.354444
20
222.393077
11
781.050086
21
223.749129
0
LINE
8
0
10
781.050086
20
223.749129
11
779.945618
21
224.488270
0
LINE
8
0
10
779.945618
20
224.488270
11
778.801890
21
225.104891
0
LINE
8
0
10
778.801890
20
225.104891
11
777.232428
21
225.633630
0
LINE
8
0
10
777.232428
20
225.633630
11
777.000000
21
225.480624
0
LINE
8
0
10
777.000000
20
225.480624
11
776.875789
21
225.343486
0
LINE
8
0
10
776.875789
20
225.343486
11
776.037058
21
225.979379
0
LINE
8
0
10
776.037058
20
225.979379
11
775.425843
21
226.674087
0
LINE
8
0
10
775.425843
20
226.674087
11
774.866779
21
227.309432
0
LINE
8
0
10
774.866779
20
227.309432
11
774.380202
21
227.544472
0
LINE
8
0
10
774.380202
20
227.544472
11
774.512619
21
227.115217
0
LINE
8
0
10
774.512619
20
227.115217
11
774.624315
21
226.705518
0
LINE
8
0
10
774.624315
20
226.705518
11
773.997811
21
227.072606
0
LINE
8
0
10
773.997811
20
227.072606
11
773.336777
21
227.804180
0
LINE
8
0
10
773.336777
20
227.804180
11
771.599991
21
229.441502
0
LINE
8
0
10
771.599991
20
229.441502
11
770.003617
21
230.304180
0
LINE
8
0
10
770.003617
20
230.304180
11
768.556763
21
230.964475
0
LINE
8
0
10
768.556763
20
230.964475
11
767.179460
21
232.115217
0
LINE
8
0
10
767.179460
20
232.115217
11
766.494339
21
232.865217
0
LINE
8
0
10
766.494339
20
232.865217
11
766.197076
21
232.865217
0
LINE
8
0
10
766.197076
20
232.865217
11
766.500000
21
232.115217
0
LINE
8
0
10
766.500000
20
232.115217
11
766.694980
21
231.566849
0
LINE
8
0
10
766.694980
20
231.566849
11
766.307750
21
231.684038
0
LINE
8
0
10
766.307750
20
231.684038
11
765.725281
21
232.349674
0
LINE
8
0
10
765.725281
20
232.349674
11
765.104240
21
232.965177
0
LINE
8
0
10
765.104240
20
232.965177
11
763.883466
21
233.497990
0
LINE
8
0
10
763.883466
20
233.497990
11
763.434091
21
233.349674
0
LINE
8
0
10
763.434091
20
233.349674
11
763.196865
21
233.195559
0
LINE
8
0
10
763.196865
20
233.195559
11
763.408624
21
233.689218
0
LINE
8
0
10
763.408624
20
233.689218
11
763.831526
21
234.276189
0
LINE
8
0
10
763.831526
20
234.276189
11
764.385340
21
235.113191
0
LINE
8
0
10
764.385340
20
235.113191
11
764.414718
21
236.243010
0
LINE
8
0
10
764.414718
20
236.243010
11
763.894050
21
236.680698
0
LINE
8
0
10
763.894050
20
236.680698
11
763.432176
21
236.918276
0
LINE
8
0
10
763.432176
20
236.918276
11
763.182904
21
236.709011
0
LINE
8
0
10
763.182904
20
236.709011
11
763.404508
21
236.269726
0
LINE
8
0
10
763.404508
20
236.269726
11
763.686252
21
235.743076
0
LINE
8
0
10
763.686252
20
235.743076
11
763.669373
21
235.205231
0
LINE
8
0
10
763.669373
20
235.205231
11
762.880357
21
235.354342
0
LINE
8
0
10
762.880357
20
235.354342
11
761.321223
21
236.190028
0
LINE
8
0
10
761.321223
20
236.190028
11
760.253493
21
236.865217
0
LINE
8
0
10
760.253493
20
236.865217
11
758.977817
21
237.655432
0
LINE
8
0
10
758.977817
20
237.655432
11
758.104648
21
237.771666
0
LINE
8
0
10
758.104648
20
237.771666
11
758.375453
21
237.115217
0
LINE
8
0
10
758.375453
20
237.115217
11
758.513833
21
236.730061
0
LINE
8
0
10
758.513833
20
236.730061
11
757.780975
21
237.262873
0
LINE
8
0
10
757.780975
20
237.262873
11
757.000000
21
238.115217
0
LINE
8
0
10
757.000000
20
238.115217
11
756.215257
21
238.967561
0
LINE
8
0
10
756.215257
20
238.967561
11
755.456952
21
239.500373
0
LINE
8
0
10
755.456952
20
239.500373
11
755.576788
21
239.115217
0
LINE
8
0
10
755.576788
20
239.115217
11
755.657612
21
238.754229
0
LINE
8
0
10
755.657612
20
238.754229
11
754.635869
21
239.450235
0
LINE
8
0
10
754.635869
20
239.450235
11
753.659149
21
240.421505
0
LINE
8
0
10
753.659149
20
240.421505
11
752.544664
21
241.462582
0
LINE
8
0
10
752.544664
20
241.462582
11
750.592670
21
242.629965
0
LINE
8
0
10
750.592670
20
242.629965
11
749.995583
21
242.612488
0
LINE
8
0
10
749.995583
20
242.612488
11
749.292453
21
242.506351
0
LINE
8
0
10
749.292453
20
242.506351
11
749.000000
21
243.115217
0
LINE
8
0
10
749.000000
20
243.115217
11
748.737031
21
243.742305
0
LINE
8
0
10
748.737031
20
243.742305
11
748.104785
21
243.679978
0
LINE
8
0
10
748.104785
20
243.679978
11
747.304103
21
243.728166
0
LINE
8
0
10
747.304103
20
243.728166
11
746.636170
21
244.620961
0
LINE
8
0
10
746.636170
20
244.620961
11
746.147191
21
245.359730
0
LINE
8
0
10
746.147191
20
245.359730
11
744.424449
21
246.052815
0
LINE
8
0
10
744.424449
20
246.052815
11
740.869515
21
245.247092
0
LINE
8
0
10
740.869515
20
245.247092
11
738.545455
21
243.569763
0
LINE
8
0
10
738.545455
20
243.569763
11
737.557102
21
242.536310
0
LINE
8
0
10
737.557102
20
242.536310
11
736.200852
21
240.875522
0
LINE
8
0
10
736.200852
20
240.875522
11
736.000000
21
240.452742
0
LINE
8
0
10
736.000000
20
240.452742
11
740.000104
21
236.011284
0
LINE
8
0
10
740.000104
20
236.011284
11
744.560162
21
232.115217
0
LINE
8
0
10
744.560162
20
232.115217
11
744.757710
21
232.482405
0
LINE
8
0
10
744.757710
20
232.482405
11
744.449270
21
233.365217
0
LINE
8
0
10
744.449270
20
233.365217
11
744.382466
21
233.620848
0
LINE
8
0
10
744.382466
20
233.620848
11
745.328460
21
232.735682
0
LINE
8
0
10
745.328460
20
232.735682
11
746.224741
21
231.703909
0
LINE
8
0
10
746.224741
20
231.703909
11
747.308661
21
230.568421
0
LINE
8
0
10
747.308661
20
230.568421
11
749.196723
21
229.438204
0
LINE
8
0
10
749.196723
20
229.438204
11
749.859265
21
229.528238
0
LINE
8
0
10
749.859265
20
229.528238
11
750.328735
21
229.735990
0
LINE
8
0
10
750.328735
20
229.735990
11
750.802730
21
229.431202
0
LINE
8
0
10
750.802730
20
229.431202
11
750.774777
21
228.939547
0
LINE
8
0
10
750.774777
20
228.939547
11
751.074045
21
228.000492
0
LINE
8
0
10
751.074045
20
228.000492
11
752.179421
21
227.602463
0
LINE
8
0
10
752.179421
20
227.602463
11
753.606557
21
227.329794
0
LINE
8
0
10
753.606557
20
227.329794
11
754.679421
21
226.692138
0
LINE
8
0
10
754.679421
20
226.692138
11
754.910583
21
226.390111
0
LINE
8
0
10
754.910583
20
226.390111
11
754.684369
21
226.296222
0
LINE
8
0
10
754.684369
20
226.296222
11
754.250000
21
226.513909
0
LINE
8
0
10
754.250000
20
226.513909
11
753.367188
21
226.868068
0
LINE
8
0
10
753.367188
20
226.868068
11
753.000000
21
226.709418
0
LINE
8
0
10
753.000000
20
226.709418
11
753.622949
21
226.006069
0
LINE
8
0
10
753.622949
20
226.006069
11
755.120677
21
225.050633
0
LINE
8
0
10
755.120677
20
225.050633
11
756.143210
21
224.545304
0
LINE
8
0
10
756.143210
20
224.545304
11
756.799329
21
224.644295
0
LINE
8
0
10
756.799329
20
224.644295
11
756.544489
21
225.265449
0
LINE
8
0
10
756.544489
20
225.265449
11
756.437734
21
225.603258
0
LINE
8
0
10
756.437734
20
225.603258
11
757.172655
21
225.064576
0
LINE
8
0
10
757.172655
20
225.064576
11
757.923812
21
224.254433
0
LINE
8
0
10
757.923812
20
224.254433
11
758.729957
21
223.401061
0
LINE
8
0
10
758.729957
20
223.401061
11
759.836176
21
222.570475
0
LINE
8
0
10
759.836176
20
222.570475
11
760.000000
21
222.695563
0
LINE
8
0
10
760.000000
20
222.695563
11
760.115850
21
222.853764
0
LINE
8
0
10
760.115850
20
222.853764
11
760.898123
21
222.246775
0
LINE
8
0
10
760.898123
20
222.246775
11
761.468197
21
221.556347
0
LINE
8
0
10
761.468197
20
221.556347
11
762.040779
21
220.876904
0
LINE
8
0
10
762.040779
20
220.876904
11
762.839998
21
220.344091
0
LINE
8
0
10
762.839998
20
220.344091
11
762.968197
21
220.556347
0
LINE
8
0
10
762.968197
20
220.556347
11
763.096395
21
220.768602
0
LINE
8
0
10
763.096395
20
220.768602
11
763.895614
21
220.235790
0
LINE
8
0
10
763.895614
20
220.235790
11
764.468197
21
219.556347
0
LINE
8
0
10
764.468197
20
219.556347
11
765.040779
21
218.858236
0
LINE
8
0
10
765.040779
20
218.858236
11
765.839998
21
218.199368
0
LINE
8
0
10
765.839998
20
218.199368
11
765.968197
21
218.319763
0
LINE
8
0
10
765.968197
20
218.319763
11
766.178472
21
218.395397
0
LINE
8
0
10
766.178472
20
218.395397
11
767.531915
21
217.434291
0
LINE
8
0
10
767.531915
20
217.434291
11
768.508382
21
216.515926
0
LINE
8
0
10
768.508382
20
216.515926
11
769.562540
21
215.591534
0
LINE
8
0
10
769.562540
20
215.591534
11
771.440585
21
214.589732
0
LINE
8
0
10
771.440585
20
214.589732
11
772.033159
21
214.635710
0
LINE
8
0
10
772.033159
20
214.635710
11
772.670272
21
214.690331
0
LINE
8
0
10
772.670272
20
214.690331
11
772.774777
21
213.939547
0
LINE
8
0
10
772.774777
20
213.939547
11
773.045820
21
213.036878
0
LINE
8
0
10
773.045820
20
213.036878
11
774.083333
21
212.726328
0
LINE
8
0
10
774.083333
20
212.726328
11
775.201563
21
212.403269
0
LINE
8
0
10
775.201563
20
212.403269
11
775.666667
21
211.470522
0
LINE
8
0
10
775.666667
20
211.470522
11
775.568445
21
210.853178
0
LINE
8
0
10
775.568445
20
210.853178
11
774.497001
21
210.927540
0
LINE
8
0
10
774.497001
20
210.927540
11
773.333333
21
211.632464
0
LINE
8
0
10
773.333333
20
211.632464
11
772.088200
21
212.401919
0
LINE
8
0
10
772.088200
20
212.401919
11
771.071067
21
212.404450
0
LINE
8
0
10
771.071067
20
212.404450
11
771.000000
21
211.638270
0
LINE
8
0
10
771.000000
20
211.638270
11
771.293750
21
210.525895
0
LINE
8
0
10
771.293750
20
210.525895
11
772.000000
21
209.990217
0
LINE
8
0
10
772.000000
20
209.990217
11
773.073437
21
209.845767
0
LINE
8
0
10
773.073437
20
209.845767
11
774.250000
21
209.674005
0
LINE
8
0
10
774.250000
20
209.674005
11
775.682324
21
209.808031
0
LINE
8
0
10
775.682324
20
209.808031
11
777.370677
21
210.398774
0
LINE
8
0
10
777.370677
20
210.398774
11
778.076780
21
210.697417
0
LINE
8
0
10
778.076780
20
210.697417
11
778.767188
21
210.706010
0
LINE
8
0
10
778.767188
20
210.706010
11
778.685360
21
210.415137
0
LINE
8
0
10
778.685360
20
210.415137
11
778.630444
21
209.965308
0
LINE
8
0
10
778.630444
20
209.965308
11
779.421120
21
208.807190
0
LINE
8
0
10
779.421120
20
208.807190
11
780.169326
21
208.241544
0
LINE
8
0
10
780.169326
20
208.241544
11
781.165674
21
207.655097
0
LINE
8
0
10
781.165674
20
207.655097
11
781.770847
21
207.677855
0
LINE
8
0
10
781.770847
20
207.677855
11
781.494896
21
208.291393
0
LINE
8
0
10
781.494896
20
208.291393
11
781.429144
21
208.568690
0
LINE
8
0
10
781.429144
20
208.568690
11
782.477555
21
207.675603
0
LINE
8
0
10
782.477555
20
207.675603
11
783.462587
21
206.615217
0
LINE
8
0
10
783.462587
20
206.615217
11
784.451981
21
205.568733
0
LINE
8
0
10
784.451981
20
205.568733
11
785.529845
21
204.769514
0
LINE
8
0
10
785.529845
20
204.769514
11
785.485557
21
205.115217
0
LINE
8
0
10
785.485557
20
205.115217
11
785.401144
21
205.500373
0
LINE
8
0
10
785.401144
20
205.500373
11
786.208058
21
204.967561
0
LINE
8
0
10
786.208058
20
204.967561
11
787.000000
21
204.115217
0
LINE
8
0
10
787.000000
20
204.115217
11
787.784926
21
203.262873
0
LINE
8
0
10
787.784926
20
203.262873
11
788.544464
21
202.730061
0
LINE
8
0
10
788.544464
20
202.730061
11
788.425526
21
203.115217
0
LINE
8
0
10
788.425526
20
203.115217
11
788.361460
21
203.500373
0
LINE
8
0
10
788.361460
20
203.500373
11
789.491520
21
202.967561
0
LINE
8
0
10
789.491520
20
202.967561
11
790.546459
21
202.115217
0
LINE
8
0
10
790.546459
20
202.115217
11
793.821877
21
199.168557
0
LINE
8
0
10
793.821877
20
199.168557
11
797.598033
21
195.501399
0
LINE
8
0
10
797.598033
20
195.501399
11
798.507587
21
194.400712
0
LINE
8
0
10
798.507587
20
194.400712
11
798.261454
21
194.470158
0
LINE
8
0
10
798.261454
20
194.470158
11
797.748930
21
194.707996
0
LINE
8
0
10
797.748930
20
194.707996
11
797.428642
21
194.312232
0
LINE
8
0
10
797.428642
20
194.312232
11
797.616239
21
193.672898
0
LINE
8
0
10
797.616239
20
193.672898
11
798.343635
21
192.771473
0
LINE
8
0
10
798.343635
20
192.771473
11
799.259293
21
192.775469
0
LINE
8
0
10
799.259293
20
192.775469
11
799.641318
21
192.957023
0
LINE
8
0
10
799.641318
20
192.957023
11
799.778715
21
192.639355
0
LINE
8
0
10
799.778715
20
192.639355
11
799.526393
21
192.157922
0
LINE
8
0
10
799.526393
20
192.157922
11
799.334433
21
191.024602
0
LINE
8
0
10
799.334433
20
191.024602
11
800.036597
21
190.092599
0
LINE
8
0
10
800.036597
20
190.092599
11
800.385662
21
189.442266
0
LINE
8
0
10
800.385662
20
189.442266
11
800.781183
21
186.620891
0
LINE
8
0
10
800.781183
20
186.620891
11
800.967006
21
183.229137
0
LINE
8
0
10
800.967006
20
183.229137
11
801.096564
21
178.404512
0
LINE
8
0
10
801.096564
20
178.404512
11
801.175017
21
171.954844
0
LINE
8
0
10
801.175017
20
171.954844
11
801.207525
21
163.687960
0
LINE
8
0
10
801.207525
20
163.687960
11
801.199249
21
153.411686
0
LINE
8
0
10
801.199249
20
153.411686
11
801.181430
21
147.459975
0
LINE
8
0
10
801.181430
20
147.459975
11
801.131896
21
138.273356
0
LINE
8
0
10
801.131896
20
138.273356
11
801.002940
21
126.327445
0
LINE
8
0
10
801.002940
20
126.327445
11
800.883486
21
119.698432
0
LINE
8
0
10
800.883486
20
119.698432
11
800.739606
21
114.227160
0
LINE
8
0
10
800.739606
20
114.227160
11
800.573324
21
109.990600
0
LINE
8
0
10
800.573324
20
109.990600
11
800.386664
21
107.065722
0
LINE
8
0
10
800.386664
20
107.065722
11
800.181651
21
105.529496
0
LINE
8
0
10
800.181651
20
105.529496
11
800.072895
21
105.306182
0
LINE
8
0
10
800.072895
20
105.306182
11
799.574805
21
104.610220
0
LINE
8
0
10
799.574805
20
104.610220
11
799.726116
21
103.386565
0
LINE
8
0
10
799.726116
20
103.386565
11
799.920507
21
102.733850
0
LINE
8
0
10
799.920507
20
102.733850
11
799.642047
21
102.295076
0
LINE
8
0
10
799.642047
20
102.295076
11
799.169939
21
102.510189
0
LINE
8
0
10
799.169939
20
102.510189
11
798.500996
21
102.630928
0
LINE
8
0
10
798.500996
20
102.630928
11
797.916328
21
101.564373
0
LINE
8
0
10
797.916328
20
101.564373
11
798.250000
21
100.832031
0
LINE
8
0
10
798.250000
20
100.832031
11
798.177759
21
100.666379
0
LINE
8
0
10
798.177759
20
100.666379
11
797.361206
21
99.760661
0
LINE
8
0
10
797.361206
20
99.760661
11
794.809961
21
97.311332
0
LINE
8
0
10
794.809961
20
97.311332
11
792.500000
21
95.219831
0
LINE
8
0
10
792.500000
20
95.219831
11
789.946677
21
92.903083
0
LINE
8
0
10
789.946677
20
92.903083
11
785.239705
21
88.391859
0
LINE
8
0
10
785.239705
20
88.391859
11
783.665802
21
86.753018
0
LINE
8
0
10
783.665802
20
86.753018
11
782.620955
21
85.641174
0
LINE
8
0
10
782.620955
20
85.641174
11
781.486425
21
84.688488
0
LINE
8
0
10
781.486425
20
84.688488
11
781.536479
21
84.964985
0
LINE
8
0
10
781.536479
20
84.964985
11
781.795879
21
85.587676
0
LINE
8
0
10
781.795879
20
85.587676
11
781.131757
21
85.679592
0
LINE
8
0
10
781.131757
20
85.679592
11
780.092669
21
85.164812
0
LINE
8
0
10
780.092669
20
85.164812
11
779.304136
21
84.644268
0
LINE
8
0
10
779.304136
20
84.644268
11
778.468292
21
83.531588
0
LINE
8
0
10
778.468292
20
83.531588
11
778.523930
21
83.076498
0
LINE
8
0
10
778.523930
20
83.076498
11
778.634636
21
82.756074
0
LINE
8
0
10
778.634636
20
82.756074
11
778.170641
21
82.552725
0
LINE
8
0
10
778.170641
20
82.552725
11
777.653088
21
82.694845
0
LINE
8
0
10
777.653088
20
82.694845
11
776.406495
21
82.728865
0
LINE
8
0
10
776.406495
20
82.728865
11
775.446642
21
82.028882
0
LINE
8
0
10
775.446642
20
82.028882
11
775.201284
21
81.555312
0
LINE
8
0
10
775.201284
20
81.555312
11
775.403760
21
81.296839
0
LINE
8
0
10
775.403760
20
81.296839
11
775.845492
21
81.519726
0
LINE
8
0
10
775.845492
20
81.519726
11
776.660863
21
81.866985
0
LINE
8
0
10
776.660863
20
81.866985
11
777.000000
21
81.699914
0
LINE
8
0
10
777.000000
20
81.699914
11
776.752789
21
81.278929
0
LINE
8
0
10
776.752789
20
81.278929
11
775.154720
21
80.203704
0
LINE
8
0
10
775.154720
20
80.203704
11
772.928719
21
79.198441
0
LINE
8
0
10
772.928719
20
79.198441
11
771.087101
21
78.720301
0
LINE
8
0
10
771.087101
20
78.720301
11
770.626784
21
78.821766
0
LINE
8
0
10
770.626784
20
78.821766
11
770.184118
21
78.904388
0
LINE
8
0
10
770.184118
20
78.904388
11
770.000000
21
78.222867
0
LINE
8
0
10
770.000000
20
78.222867
11
769.732759
21
77.522392
0
LINE
8
0
10
769.732759
20
77.522392
11
769.090242
21
77.559444
0
LINE
8
0
10
769.090242
20
77.559444
11
767.863240
21
77.823650
0
LINE
8
0
10
767.863240
20
77.823650
11
765.690425
21
76.744511
0
LINE
8
0
10
765.690425
20
76.744511
11
765.660252
21
75.855924
0
LINE
8
0
10
765.660252
20
75.855924
11
765.836397
21
75.485115
0
LINE
8
0
10
765.836397
20
75.485115
11
765.567473
21
75.312343
0
LINE
8
0
10
765.567473
20
75.312343
11
765.145560
21
75.525256
0
LINE
8
0
10
765.145560
20
75.525256
11
763.707650
21
75.845608
0
LINE
8
0
10
763.707650
20
75.845608
11
761.269160
21
75.313011
0
LINE
8
0
10
761.269160
20
75.313011
11
760.421092
21
74.567017
0
LINE
8
0
10
760.421092
20
74.567017
11
760.478568
21
74.149894
0
LINE
8
0
10
760.478568
20
74.149894
11
760.505026
21
73.710713
0
LINE
8
0
10
760.505026
20
73.710713
11
759.110166
21
72.911145
0
LINE
8
0
10
759.110166
20
72.911145
11
755.924185
21
72.245719
0
LINE
8
0
10
755.924185
20
72.245719
11
751.114177
21
71.749335
0
LINE
8
0
10
751.114177
20
71.749335
11
748.152381
21
71.575440
0
LINE
8
0
10
748.152381
20
71.575440
11
744.823062
21
71.385960
0
LINE
8
0
10
744.823062
20
71.385960
11
739.665626
21
70.882448
0
LINE
8
0
10
739.665626
20
70.882448
11
736.593765
21
70.230683
0
LINE
8
0
10
736.593765
20
70.230683
11
735.708248
21
69.452046
0
LINE
8
0
10
735.708248
20
69.452046
11
736.116860
21
69.021832
0
LINE
8
0
10
736.116860
20
69.021832
11
736.684922
21
68.598735
0
LINE
8
0
10
736.684922
20
68.598735
11
736.394135
21
68.163584
0
LINE
8
0
10
736.394135
20
68.163584
11
735.500000
21
68.098727
0
LINE
8
0
10
735.500000
20
68.098727
11
733.729890
21
67.741113
0
LINE
8
0
10
733.729890
20
67.741113
11
730.925614
21
65.688213
0
LINE
8
0
10
730.925614
20
65.688213
11
730.400000
21
64.365217
0
LINE
8
0
10
730.400000
20
64.365217
11
730.208532
21
62.606568
0
LINE
8
0
10
730.208532
20
62.606568
11
729.473471
21
61.440690
0
LINE
8
0
10
729.473471
20
61.440690
11
728.750000
21
61.748159
0
LINE
8
0
10
728.750000
20
61.748159
11
728.243497
21
62.007104
0
LINE
8
0
10
728.243497
20
62.007104
11
728.278596
21
61.581320
0
LINE
8
0
10
728.278596
20
61.581320
11
728.822621
21
60.867210
0
LINE
8
0
10
728.822621
20
60.867210
11
730.078549
21
59.766160
0
LINE
8
0
10
730.078549
20
59.766160
11
734.111387
21
58.534470
0
LINE
8
0
10
734.111387
20
58.534470
11
737.000000
21
58.369714
0
LINE
8
0
10
737.000000
20
58.369714
11
738.242129
21
58.384585
0
LINE
8
0
10
738.242129
20
58.384585
11
738.024117
21
58.725522
0
LINE
8
0
10
738.024117
20
58.725522
11
736.500000
21
59.151638
0
LINE
8
0
10
463.707181
20
516.487081
11
472.726128
21
523.013884
0
LINE
8
0
10
472.726128
20
523.013884
11
492.636516
21
536.033186
0
LINE
8
0
10
492.636516
20
536.033186
11
502.643904
21
541.947606
0
LINE
8
0
10
502.643904
20
541.947606
11
504.793572
21
543.144904
0
LINE
8
0
10
504.793572
20
543.144904
11
510.010359
21
545.929348
0
LINE
8
0
10
510.010359
20
545.929348
11
519.209558
21
550.631123
0
LINE
8
0
10
519.209558
20
550.631123
11
528.586204
21
555.243808
0
LINE
8
0
10
528.586204
20
555.243808
11
534.118454
21
557.869871
0
LINE
8
0
10
534.118454
20
557.869871
11
538.503426
21
559.856990
0
LINE
8
0
10
538.503426
20
559.856990
11
541.250662
21
560.965425
0
LINE
8
0
10
541.250662
20
560.965425
11
541.856860
21
561.115217
0
LINE
8
0
10
541.856860
20
561.115217
11
542.464240
21
561.233830
0
LINE
8
0
10
542.464240
20
561.233830
11
542.881353
21
562.353581
0
LINE
8
0
10
542.881353
20
562.353581
11
542.128069
21
565.029689
0
LINE
8
0
10
542.128069
20
565.029689
11
540.076147
21
569.717742
0
LINE
8
0
10
540.076147
20
569.717742
11
538.523121
21
572.958619
0
LINE
8
0
10
538.523121
20
572.958619
11
536.259843
21
577.451890
0
LINE
8
0
10
536.259843
20
577.451890
11
531.852200
21
585.154694
0
LINE
8
0
10
531.852200
20
585.154694
11
524.777001
21
594.572582
0
LINE
8
0
10
524.777001
20
594.572582
11
519.159140
21
600.261538
0
LINE
8
0
10
519.159140
20
600.261538
11
514.972239
21
603.830151
0
LINE
8
0
10
514.972239
20
603.830151
11
506.143181
21
609.618307
0
LINE
8
0
10
506.143181
20
609.618307
11
496.897871
21
613.600681
0
LINE
8
0
10
496.897871
20
613.600681
11
487.465219
21
615.768851
0
LINE
8
0
10
487.465219
20
615.768851
11
478.074133
21
616.114395
0
LINE
8
0
10
478.074133
20
616.114395
11
468.953524
21
614.628889
0
LINE
8
0
10
468.953524
20
614.628889
11
460.332299
21
611.303911
0
LINE
8
0
10
460.332299
20
611.303911
11
452.439369
21
606.131039
0
LINE
8
0
10
452.439369
20
606.131039
11
448.837548
21
602.849010
0
LINE
8
0
10
448.837548
20
602.849010
11
445.065913
21
598.591360
0
LINE
8
0
10
445.065913
20
598.591360
11
439.221481
21
589.122703
0
LINE
8
0
10
439.221481
20
589.122703
11
435.609915
21
578.286135
0
LINE
8
0
10
435.609915
20
578.286135
11
434.192514
21
565.965534
0
LINE
8
0
10
434.192514
20
565.965534
11
434.294532
21
559.212432
0
LINE
8
0
10
434.294532
20
559.212432
11
434.629500
21
554.714041
0
LINE
8
0
10
434.629500
20
554.714041
11
435.865794
21
546.264536
0
LINE
8
0
10
435.865794
20
546.264536
11
439.263736
21
534.463792
0
LINE
8
0
10
439.263736
20
534.463792
11
442.657286
21
526.794219
0
LINE
8
0
10
442.657286
20
526.794219
11
445.823702
21
520.862534
0
LINE
8
0
10
445.823702
20
520.862534
11
450.673948
21
512.728126
0
LINE
8
0
10
450.673948
20
512.728126
11
452.904995
21
509.566731
0
LINE
8
0
10
452.904995
20
509.566731
11
453.444760
21
509.115217
0
LINE
8
0
10
453.444760
20
509.115217
11
453.738966
21
509.265678
0
LINE
8
0
10
453.738966
20
509.265678
11
455.385206
21
510.378657
0
LINE
8
0
10
455.385206
20
510.378657
11
459.867758
21
513.624724
0
LINE
8
0
10
459.867758
20
513.624724
11
463.707181
21
516.487081
0
LINE
8
0
10
1165.841683
20
514.170741
11
1170.148395
21
521.544110
0
LINE
8
0
10
1170.148395
20
521.544110
11
1176.757898
21
537.669097
0
LINE
8
0
10
1176.757898
20
537.669097
11
1180.454208
21
554.530983
0
LINE
8
0
10
1180.454208
20
554.530983
11
1180.947766
21
570.808853
0
LINE
8
0
10
1180.947766
20
570.808853
11
1179.903025
21
578.315996
0
LINE
8
0
10
1179.903025
20
578.315996
11
1178.822567
21
582.620476
0
LINE
8
0
10
1178.822567
20
582.620476
11
1175.693545
21
590.618140
0
LINE
8
0
10
1175.693545
20
590.618140
11
1171.384744
21
597.712692
0
LINE
8
0
10
1171.384744
20
597.712692
11
1166.029400
21
603.798470
0
LINE
8
0
10
1166.029400
20
603.798470
11
1159.760749
21
608.769811
0
LINE
8
0
10
1159.760749
20
608.769811
11
1152.712025
21
612.521053
0
LINE
8
0
10
1152.712025
20
612.521053
11
1145.016465
21
614.946535
0
LINE
8
0
10
1145.016465
20
614.946535
11
1136.807302
21
615.940594
0
LINE
8
0
10
1136.807302
20
615.940594
11
1132.551757
21
615.867821
0
LINE
8
0
10
1132.551757
20
615.867821
11
1125.300373
21
614.910188
0
LINE
8
0
10
1125.300373
20
614.910188
11
1111.356478
21
610.139484
0
LINE
8
0
10
1111.356478
20
610.139484
11
1098.645268
21
601.878376
0
LINE
8
0
10
1098.645268
20
601.878376
11
1087.751767
21
590.507076
0
LINE
8
0
10
1087.751767
20
590.507076
11
1083.169479
21
583.773920
0
LINE
8
0
10
1083.169479
20
583.773920
11
1081.742365
21
581.235906
0
LINE
8
0
10
1081.742365
20
581.235906
11
1078.346155
21
574.453777
0
LINE
8
0
10
1078.346155
20
574.453777
11
1075.149806
21
567.425339
0
LINE
8
0
10
1075.149806
20
567.425339
11
1073.549636
21
563.456688
0
LINE
8
0
10
1073.549636
20
563.456688
11
1073.121879
21
562.001758
0
LINE
8
0
10
1073.121879
20
562.001758
11
1073.151598
21
561.745646
0
LINE
8
0
10
1073.151598
20
561.745646
11
1073.466419
21
561.587625
0
LINE
8
0
10
1073.466419
20
561.587625
11
1075.401950
21
560.681751
0
LINE
8
0
10
1075.401950
20
560.681751
11
1080.810513
21
558.197925
0
LINE
8
0
10
1080.810513
20
558.197925
11
1085.495716
21
556.063911
0
LINE
8
0
10
1085.495716
20
556.063911
11
1089.597658
21
554.144368
0
LINE
8
0
10
1089.597658
20
554.144368
11
1098.448113
21
549.691163
0
LINE
8
0
10
1098.448113
20
549.691163
11
1112.749177
21
541.833152
0
LINE
8
0
10
1112.749177
20
541.833152
11
1132.076373
21
530.156340
0
LINE
8
0
10
1132.076373
20
530.156340
11
1145.386995
21
521.332344
0
LINE
8
0
10
1145.386995
20
521.332344
11
1153.105516
21
515.775156
0
LINE
8
0
10
1153.105516
20
515.775156
11
1156.500000
21
513.165623
0
LINE
8
0
10
1156.500000
20
513.165623
11
1158.482124
21
511.629257
0
LINE
8
0
10
1158.482124
20
511.629257
11
1161.421131
21
509.498895
0
LINE
8
0
10
1161.421131
20
509.498895
11
1162.016025
21
509.167292
0
LINE
8
0
10
1162.016025
20
509.167292
11
1162.477538
21
509.545984
0
LINE
8
0
10
1162.477538
20
509.545984
11
1164.515897
21
512.211885
0
LINE
8
0
10
1164.515897
20
512.211885
11
1165.841683
21
514.170741
0
LINE
8
0
10
733.250000
20
61.235929
11
732.367188
21
62.632208
0
LINE
8
0
10
732.367188
20
62.632208
11
732.000000
21
64.192772
0
LINE
8
0
10
732.000000
20
64.192772
11
732.103469
21
65.127349
0
LINE
8
0
10
732.103469
20
65.127349
11
733.106169
21
66.588958
0
LINE
8
0
10
733.106169
20
66.588958
11
735.558669
21
67.680157
0
LINE
8
0
10
735.558669
20
67.680157
11
739.927506
21
68.608525
0
LINE
8
0
10
739.927506
20
68.608525
11
742.976345
21
69.076515
0
LINE
8
0
10
742.976345
20
69.076515
11
750.173635
21
70.352555
0
LINE
8
0
10
750.173635
20
70.352555
11
763.422611
21
74.246688
0
LINE
8
0
10
763.422611
20
74.246688
11
775.381152
21
80.045162
0
LINE
8
0
10
775.381152
20
80.045162
11
786.333704
21
87.885899
0
LINE
8
0
10
786.333704
20
87.885899
11
791.521623
21
92.615217
0
LINE
8
0
10
791.521623
20
92.615217
11
793.516164
21
94.563873
0
LINE
8
0
10
793.516164
20
94.563873
11
796.751312
21
97.907558
0
LINE
8
0
10
796.751312
20
97.907558
11
799.099458
21
101.121621
0
LINE
8
0
10
799.099458
20
101.121621
11
800.702496
21
104.936315
0
LINE
8
0
10
800.702496
20
104.936315
11
801.702322
21
110.081896
0
LINE
8
0
10
801.702322
20
110.081896
11
802.240827
21
117.288618
0
LINE
8
0
10
802.240827
20
117.288618
11
802.459908
21
127.286737
0
LINE
8
0
10
802.459908
20
127.286737
11
802.499954
21
137.056475
0
LINE
8
0
10
802.499954
20
137.056475
11
802.500734
21
144.822285
0
LINE
8
0
10
802.500734
20
144.822285
11
802.500000
21
149.115217
0
LINE
8
0
10
802.500000
20
149.115217
11
802.499334
21
155.870500
0
LINE
8
0
10
802.499334
20
155.870500
11
802.483823
21
166.945622
0
LINE
8
0
10
802.483823
20
166.945622
11
802.426771
21
175.191332
0
LINE
8
0
10
802.426771
20
175.191332
11
802.301014
21
181.109042
0
LINE
8
0
10
802.301014
20
181.109042
11
802.079390
21
185.200166
0
LINE
8
0
10
802.079390
20
185.200166
11
801.734737
21
187.966116
0
LINE
8
0
10
801.734737
20
187.966116
11
800.927660
21
190.727183
0
LINE
8
0
10
800.927660
20
190.727183
11
800.156598
21
192.373883
0
LINE
8
0
10
800.156598
20
192.373883
11
798.962587
21
194.421408
0
LINE
8
0
10
798.962587
20
194.421408
11
796.064729
21
197.766706
0
LINE
8
0
10
796.064729
20
197.766706
11
792.975787
21
200.508586
0
LINE
8
0
10
792.975787
20
200.508586
11
788.625899
21
203.923014
0
LINE
8
0
10
788.625899
20
203.923014
11
782.727653
21
208.235594
0
LINE
8
0
10
782.727653
20
208.235594
11
774.993636
21
213.671930
0
LINE
8
0
10
774.993636
20
213.671930
11
765.136434
21
220.457627
0
LINE
8
0
10
765.136434
20
220.457627
11
759.321823
21
224.426986
0
LINE
8
0
10
759.321823
20
224.426986
11
755.435822
21
227.085835
0
LINE
8
0
10
755.435822
20
227.085835
11
748.970878
21
231.597049
0
LINE
8
0
10
748.970878
20
231.597049
11
744.131561
21
235.154665
0
LINE
8
0
10
744.131561
20
235.154665
11
740.777334
21
237.904740
0
LINE
8
0
10
740.777334
20
237.904740
11
738.767657
21
239.993330
0
LINE
8
0
10
738.767657
20
239.993330
11
737.961993
21
241.566493
0
LINE
8
0
10
737.961993
20
241.566493
11
738.703593
21
243.279310
0
LINE
8
0
10
738.703593
20
243.279310
11
740.293105
21
244.202903
0
LINE
8
0
10
740.293105
20
244.202903
11
741.359164
21
244.631995
0
LINE
8
0
10
741.359164
20
244.631995
11
743.988438
21
244.394967
0
LINE
8
0
10
743.988438
20
244.394967
11
747.722388
21
242.574738
0
LINE
8
0
10
747.722388
20
242.574738
11
751.682630
21
240.253347
0
LINE
8
0
10
751.682630
20
240.253347
11
757.212807
21
236.842921
0
LINE
8
0
10
757.212807
20
236.842921
11
764.649931
21
232.169710
0
LINE
8
0
10
764.649931
20
232.169710
11
769.188913
21
229.305262
0
LINE
8
0
10
769.188913
20
229.305262
11
775.137625
21
225.549556
0
LINE
8
0
10
775.137625
20
225.549556
11
784.812898
21
219.456584
0
LINE
8
0
10
784.812898
20
219.456584
11
791.942198
21
215.032712
0
LINE
8
0
10
791.942198
20
215.032712
11
797.025798
21
212.011354
0
LINE
8
0
10
797.025798
20
212.011354
11
800.563970
21
210.125921
0
LINE
8
0
10
800.563970
20
210.125921
11
803.056985
21
209.109828
0
LINE
8
0
10
803.056985
20
209.109828
11
805.931185
21
208.632542
0
LINE
8
0
10
805.931185
20
208.632542
11
808.000000
21
208.623481
0
LINE
8
0
10
808.000000
20
208.623481
11
811.274567
21
208.807734
0
LINE
8
0
10
811.274567
20
208.807734
11
816.032874
21
210.485785
0
LINE
8
0
10
816.032874
20
210.485785
11
820.752126
21
213.222194
0
LINE
8
0
10
820.752126
20
213.222194
11
824.000000
21
215.251406
0
LINE
8
0
10
824.000000
20
215.251406
11
831.043020
21
219.690121
0
LINE
8
0
10
831.043020
20
219.690121
11
843.061795
21
227.253563
0
LINE
8
0
10
843.061795
20
227.253563
11
852.561800
21
233.211226
0
LINE
8
0
10
852.561800
20
233.211226
11
859.828134
21
237.738553
0
LINE
8
0
10
859.828134
20
237.738553
11
865.145897
21
241.010989
0
LINE
8
0
10
865.145897
20
241.010989
11
868.800188
21
243.203977
0
LINE
8
0
10
868.800188
20
243.203977
11
871.076107
21
244.492962
0
LINE
8
0
10
871.076107
20
244.492962
11
872.258753
21
245.053388
0
LINE
8
0
10
872.258753
20
245.053388
11
872.529192
21
245.115217
0
LINE
8
0
10
872.529192
20
245.115217
11
874.160710
21
244.668903
0
LINE
8
0
10
874.160710
20
244.668903
11
876.628256
21
242.070831
0
LINE
8
0
10
876.628256
20
242.070831
11
876.848560
21
240.567369
0
LINE
8
0
10
876.848560
20
240.567369
11
876.388556
21
239.887087
0
LINE
8
0
10
876.388556
20
239.887087
11
873.338574
21
237.183386
0
LINE
8
0
10
873.338574
20
237.183386
11
867.716042
21
232.892897
0
LINE
8
0
10
867.716042
20
232.892897
11
859.841858
21
227.260492
0
LINE
8
0
10
859.841858
20
227.260492
11
855.160677
21
224.017595
0
LINE
8
0
10
855.160677
20
224.017595
11
849.042259
21
219.813889
0
LINE
8
0
10
849.042259
20
219.813889
11
838.888280
21
212.797136
0
LINE
8
0
10
838.888280
20
212.797136
11
831.186284
21
207.375164
0
LINE
8
0
10
831.186284
20
207.375164
11
825.546080
21
203.236661
0
LINE
8
0
10
825.546080
20
203.236661
11
821.577480
21
200.070314
0
LINE
8
0
10
821.577480
20
200.070314
11
818.890293
21
197.564811
0
LINE
8
0
10
818.890293
20
197.564811
11
816.408621
21
194.364639
0
LINE
8
0
10
816.408621
20
194.364639
11
815.217886
21
192.149250
0
LINE
8
0
10
815.217886
20
192.149250
11
812.500000
21
186.615217
0
LINE
8
0
10
812.500000
20
186.615217
11
812.500000
21
148.615217
0
LINE
8
0
10
812.500000
20
148.615217
11
812.503863
21
140.952247
0
LINE
8
0
10
812.503863
20
140.952247
11
812.568066
21
128.308703
0
LINE
8
0
10
812.568066
20
128.308703
11
812.781577
21
118.753475
0
LINE
8
0
10
812.781577
20
118.753475
11
813.233198
21
111.700703
0
LINE
8
0
10
813.233198
20
111.700703
11
814.011733
21
106.564531
0
LINE
8
0
10
814.011733
20
106.564531
11
815.205987
21
102.759100
0
LINE
8
0
10
815.205987
20
102.759100
11
817.971098
21
98.264528
0
LINE
8
0
10
817.971098
20
98.264528
11
820.593164
21
95.222821
0
LINE
8
0
10
820.593164
20
95.222821
11
825.519399
21
90.265880
0
LINE
8
0
10
825.519399
20
90.265880
11
836.921811
21
81.669860
0
LINE
8
0
10
836.921811
20
81.669860
11
850.054308
21
75.001849
0
LINE
8
0
10
850.054308
20
75.001849
11
864.513085
21
70.466880
0
LINE
8
0
10
864.513085
20
70.466880
11
872.113639
21
69.063358
0
LINE
8
0
10
872.113639
20
69.063358
11
875.169160
21
68.594398
0
LINE
8
0
10
875.169160
20
68.594398
11
879.518991
21
67.661672
0
LINE
8
0
10
879.518991
20
67.661672
11
881.931991
21
66.545557
0
LINE
8
0
10
881.931991
20
66.545557
11
882.901905
21
65.017677
0
LINE
8
0
10
882.901905
20
65.017677
11
883.000000
21
64.027956
0
LINE
8
0
10
883.000000
20
64.027956
11
882.629108
21
62.545673
0
LINE
8
0
10
882.629108
20
62.545673
11
879.623815
21
60.760570
0
LINE
8
0
10
879.623815
20
60.760570
11
873.515720
21
60.545094
0
LINE
8
0
10
873.515720
20
60.545094
11
864.203072
21
61.895654
0
LINE
8
0
10
864.203072
20
61.895654
11
858.313245
21
63.157076
0
LINE
8
0
10
858.313245
20
63.157076
11
852.831896
21
64.590189
0
LINE
8
0
10
852.831896
20
64.590189
11
842.331154
21
68.398857
0
LINE
8
0
10
842.331154
20
68.398857
11
832.087910
21
73.647789
0
LINE
8
0
10
832.087910
20
73.647789
11
821.672037
21
80.557397
0
LINE
8
0
10
821.672037
20
80.557397
11
816.264949
21
84.703832
0
LINE
8
0
10
816.264949
20
84.703832
11
813.470764
21
86.801083
0
LINE
8
0
10
813.470764
20
86.801083
11
809.721483
21
89.181004
0
LINE
8
0
10
809.721483
20
89.181004
11
807.941907
21
89.998305
0
LINE
8
0
10
807.941907
20
89.998305
11
807.377459
21
90.109644
0
LINE
8
0
10
807.377459
20
90.109644
11
806.050095
21
89.708106
0
LINE
8
0
10
806.050095
20
89.708106
11
801.521189
21
86.985087
0
LINE
8
0
10
801.521189
20
86.985087
11
798.877459
21
84.998993
0
LINE
8
0
10
798.877459
20
84.998993
11
795.343185
21
82.218741
0
LINE
8
0
10
795.343185
20
82.218741
11
788.742669
21
77.372081
0
LINE
8
0
10
788.742669
20
77.372081
11
779.747477
21
71.714329
0
LINE
8
0
10
779.747477
20
71.714329
11
774.148685
21
68.883252
0
LINE
8
0
10
774.148685
20
68.883252
11
768.793191
21
66.750660
0
LINE
8
0
10
768.793191
20
66.750660
11
756.272929
21
63.116783
0
LINE
8
0
10
756.272929
20
63.116783
11
746.888553
21
61.240871
0
LINE
8
0
10
746.888553
20
61.240871
11
741.391710
21
60.536262
0
LINE
8
0
10
741.391710
20
60.536262
11
736.973188
21
60.356484
0
LINE
8
0
10
736.973188
20
60.356484
11
734.036527
21
60.776990
0
LINE
8
0
10
734.036527
20
60.776990
11
733.250000
21
61.235929
0
ENDSEC
0
EOF
