<?xml version="1.0" encoding="UTF-8"?>
<svg xmlns="http://www.w3.org/2000/svg" version="1.1" viewBox="0 0 279.93 64.7">
  <defs>
    <style>
      .cls-1, .cls-2 {
        fill: #002a5c;
      }

      .cls-2 {
        fill-rule: evenodd;
      }
    </style>
  </defs>
  <!-- Generator: Adobe Illustrator 28.6.0, SVG Export Plug-In . SVG Version: 1.2.0 Build 709)  -->
  <g>
    <g id="Crest_x2F_Wordmark">
      <g>
        <g>
          <path class="cls-1" d="M45.21,28.09c.02.51.02.8.1,2.58.08,1.78.21,2.02,1.39,2.03v.29h-2.38c-.98,0-1.23.05-1.49.08l-.02-.29c1.15-.27,1.47-.48,1.47-2.38,0-.27,0-.59-.02-.96l-.06-2.11c-.03-.94-.05-1.38-.18-2.5h-.03c-.48.91-2.32,4.29-3.04,5.79-.38.83-.75,1.62-.98,2.37h-.24c-.16-.5-.53-1.66-1.25-3.04-.9-1.71-1.78-3.44-2.66-5.17h-.03c-.1.94-.38,3.86-.38,6.85,0,.75.11,1.06,1.44,1.2l-.02.26c-.13-.02-.37-.03-.61-.05-.22-.02-.43-.02-.5-.02l-.94.02c-.22,0-1.31.05-1.57.05l.02-.22c1.49-.27,1.52-.74,1.65-2.83l.24-4.08c.02-.34.03-.5.03-.75,0-1.65-.67-1.9-1.86-1.97l.03-.3c.24.02.67.05,1.12.06.45.03.9.05,1.14.05h.69c.58,1.57.67,1.75,3.91,7.78.3-.51.46-.8,1.15-2.13.42-.82,2.58-4.77,2.99-5.7h2.27l-.02.29c-1.36.16-1.47.26-1.42,2.64l.05,2.18Z"/>
          <path class="cls-1" d="M48.58,29.81c.05.91.11,1.36.56,1.95.61.79,1.23.79,1.46.79.42,0,.94-.11,1.63-.61l.14.19c-.45.32-1.36.98-2.42.98-1.6,0-2.37-1.46-2.37-2.79,0-2.5,2.03-3.26,2.45-3.26.58,0,1.55.21,2.08,1.42.05.11.1.19.35.19l.02.29-3.91.85ZM49.63,29.28c.06-.03.83-.21,1.02-.24.56-.13.62-.14.62-.26,0-.18-.5-1.23-1.54-1.23-.9,0-1.09,1.34-1.14,1.95l1.02-.22Z"/>
          <path class="cls-1" d="M58.44,32.29c-.58.48-1.36.86-2.15.86s-1.86-.37-2.37-.94c-.34-.38-.51-1.18-.51-1.81,0-2.1,1.95-3.47,3.23-3.47.43,0,1.82.35,1.82.64,0,.08-.37.74-.58.74-.1,0-.48-.24-.56-.27-.22-.1-.9-.35-1.41-.35-1.33,0-1.58,1.12-1.58,2.07,0,2.08,1.62,2.83,2.48,2.83.64,0,1.2-.34,1.5-.51l.11.22Z"/>
          <path class="cls-1" d="M60.92,30.85c0,.16-.02.4-.02.66,0,.38.02.78.1.98.05.16.06.21.98.29v.27c-.26-.03-.37-.03-1.09-.03-.83,0-1.26.03-1.87.08l.02-.26c.9-.19.91-.19.96-1.6.03-1.42.05-1.71.06-2.1l.03-2.19c.02-.34.02-.91.02-1.49,0-1.07,0-2.06-.53-2.06-.13,0-.38.1-.5.13v-.3s.22-.11.22-.11l1.52-.74.26-.14.26.13c-.19.91-.26,1.95-.3,3.95l-.05,1.58c.88-.37,1.79-.77,2.61-.77,1.6,0,1.6,1.71,1.6,3.31,0,.29-.05,1.57-.05,1.82,0,.48.11.48,1.07.53l-.02.24h-1.55c-.4,0-.82.06-1.17.08l-.02-.18c.06-.02.1-.03.19-.06.48-.18.59-.37.59-2.26,0-1.78-.11-2.87-1.39-2.87-.69,0-1.57.35-1.84.48,0,.16-.02.22-.03.74l-.06,1.89Z"/>
          <path class="cls-1" d="M67.42,28.83c-.03-.13-.06-.26-.06-.37,0-.88,2.05-1.5,2.45-1.5.32,0,.83.38,1.02.56.21.21.48.5.48,1.63,0,.35-.02.69-.03,1.04l-.03.59c-.03.42-.03.48-.03.67,0,.11,0,1.06.43,1.06.32,0,.67-.16.82-.22v.32l-1.15.46c-.14.06-.3.11-.38.11-.26,0-.53-.42-.64-.8-.35.19-1.41.8-2.23.8-.96,0-.96-.85-.96-1.1,0-.77.18-1.01.54-1.2.93-.46,2.16-.62,2.62-.69l.03-.96c.03-.77-.06-.98-.3-1.23-.3-.29-.69-.46-.96-.46-.26,0-.74.16-.74.53,0,.1.03.21.08.34l-.96.43ZM68.71,32.66c.38,0,.99-.3,1.52-.56-.03-.37.03-1.2.05-1.47-1.42-.1-2.29.45-2.29,1.06,0,.4.22.98.72.98Z"/>
          <path class="cls-1" d="M74.89,30.45c-.02,1.22-.02,1.34.03,1.76.03.3.05.46,1.02.58l-.02.24c-.14-.02-.35-.03-.59-.03-.24-.02-.5-.02-.72-.02h-1.71l-.02-.26c.88-.16.91-.34.96-.66.1-.61.11-1.89.11-2.32,0-1.7-.08-1.7-1.02-1.79,0-.05,0-.1-.02-.14.54-.14,1.47-.59,1.49-.61.02-.02.29-.16.35-.16.18,0,.18.42.18.98,1.02-.58,1.78-.9,2.48-.9,1.62,0,1.62,1.23,1.62,2.4v1.86c0,.45,0,1.1.1,1.2.1.1.7.19.8.24l.02.24c-.19-.03-.53-.08-1.36-.08-.66,0-1.26.05-1.57.08v-.22c.56-.11.77-.26.88-.45.18-.37.21-2.07.21-2.39,0-1.02,0-2.21-1.22-2.21-.06,0-.86,0-1.95.56l-.05,2.1Z"/>
          <path class="cls-1" d="M80.74,32.82c.32-.03.67-.08.75-.24.1-.19.14-2.08.14-2.46,0-1.49-.05-1.71-.18-1.86-.08-.08-.75-.05-.75-.18,0-.11.08-.14.14-.16.62-.19,1.3-.59,1.82-1.02.05,0,.1.02.14.03-.16.71-.26,2.62-.26,3.44,0,.34.02,1.71.13,2.1.06.19.16.21.53.24.4.02.43.03.54.05l.1.22-3.15.08.03-.24ZM82.51,23.1c.32,0,.59.27.59.61s-.26.61-.59.61-.61-.27-.61-.61.29-.61.61-.61Z"/>
          <path class="cls-1" d="M89.83,32.29c-.58.48-1.36.86-2.15.86s-1.86-.37-2.37-.94c-.34-.38-.51-1.18-.51-1.81,0-2.1,1.95-3.47,3.23-3.47.43,0,1.82.35,1.82.64,0,.08-.37.74-.58.74-.1,0-.48-.24-.56-.27-.22-.1-.9-.35-1.41-.35-1.33,0-1.58,1.12-1.58,2.07,0,2.08,1.62,2.83,2.48,2.83.64,0,1.2-.34,1.5-.51l.11.22Z"/>
          <path class="cls-1" d="M91.24,28.83c-.03-.13-.06-.26-.06-.37,0-.88,2.05-1.5,2.45-1.5.32,0,.83.38,1.02.56.21.21.48.5.48,1.63,0,.35-.02.69-.03,1.04l-.03.59c-.03.42-.03.48-.03.67,0,.11,0,1.06.43,1.06.32,0,.67-.16.82-.22v.32l-1.15.46c-.14.06-.3.11-.38.11-.26,0-.53-.42-.64-.8-.35.19-1.41.8-2.23.8-.96,0-.96-.85-.96-1.1,0-.77.18-1.01.54-1.2.93-.46,2.16-.62,2.62-.69l.03-.96c.03-.77-.06-.98-.3-1.23-.3-.29-.69-.46-.96-.46-.26,0-.74.16-.74.53,0,.1.03.21.08.34l-.96.43ZM92.54,32.66c.38,0,.99-.3,1.52-.56-.03-.37.03-1.2.05-1.47-1.42-.1-2.29.45-2.29,1.06,0,.4.22.98.72.98Z"/>
          <path class="cls-1" d="M98.87,29.36c-.02.75,0,2.64.11,2.99.11.34,1.02.43,1.18.45v.27c-.22,0-1.47-.08-2.06-.08-.21,0-1.01.02-1.46.06v-.24c.8-.14,1.06-.43,1.14-1.12.08-.51.21-3.52.21-5.63,0-.82,0-2.06-.21-2.35-.1-.14-.27-.19-.53-.19-.16,0-.24.02-.35.03v-.24c.8-.34,1.54-.66,2.1-1.06h.24c-.22.83-.29,2.43-.3,3.35l-.06,3.76Z"/>
          <path class="cls-1" d="M113.88,26.27c-.69.03-.75.16-1.39,1.57-.29.62-.72,1.62-1.02,2.22-.19.34-.21.37-.24.45.4,1.04,1.02,2.03,1.63,2.03.53,0,.9-.67,1.04-.93.19-.34.21-.38.32-.38.05,0,.16.05.16.16,0,0-.48,1.7-1.94,1.7-.98,0-1.54-1.07-1.84-1.65-.93,1.36-1.95,1.7-3.03,1.7-1.81,0-2.5-1.5-2.5-2.66,0-1.78,1.5-2.61,2.06-2.91-.94-.54-1.18-1.36-1.18-1.79,0-1.5,2.18-2.1,2.21-2.1.18,0,.8.38,1.06.59.35.29.59.77.59,1.28,0,.45,0,.51-.58,1.09-.16.21-.46.5-.64.69,1.04.53,1.49.82,2.39,2.67.06-.16.45-.86.48-.94.37-.67.83-1.92.91-2.66-.13-.19-.19-.29-.69-.51l.11-.26c.66.22,1.63.35,2.11.38l-.03.26ZM106.02,29.9c0,2.45,1.98,2.5,2.21,2.5.96,0,1.63-.54,2.16-1.38,0-.02-.05-.13-.06-.14-.7-1.63-1.22-2.51-2.8-3.07-1.12.75-1.5,1.22-1.5,2.1ZM109.08,25.84c0-.66-.75-1.46-1.5-1.46-.61,0-1.14.72-1.14,1.09,0,.5.62,1.27,1.73,1.62.48-.24.91-.69.91-1.25Z"/>
          <path class="cls-1" d="M121.05,28.8c0,.67.02,2.08.03,2.72.03.95.03,1.2,1.47,1.23l-.03.3c-.14,0-.58-.02-1.01-.03-.45,0-.88-.02-1.06-.02-.29,0-.78.02-1.23.02-.45.02-.86.03-1.02.03l-.02-.29c1.2-.06,1.42-.29,1.55-.67.24-.69.24-3.17.24-4.08,0-1.55-.03-2.06-.08-3.36-.03-1.07-.11-1.38-1.62-1.41v-.32c.3,0,.7.02,1.1.05.4.02.8.03,1.07.03.24,0,.69-.02,1.14-.05.45-.02.86-.03,1.02-.03v.35c-.9,0-1.15.08-1.31.37-.26.5-.26,3.04-.26,3.76v1.39Z"/>
          <path class="cls-1" d="M125.4,30.45c-.02,1.22-.02,1.34.03,1.76.03.3.05.46,1.02.58l-.02.24c-.14-.02-.35-.03-.59-.03-.24-.02-.5-.02-.72-.02h-1.71l-.02-.26c.88-.16.91-.34.96-.66.1-.61.11-1.89.11-2.32,0-1.7-.08-1.7-1.02-1.79,0-.05,0-.1-.02-.14.54-.14,1.47-.59,1.49-.61.02-.02.29-.16.35-.16.18,0,.18.42.18.98,1.02-.58,1.78-.9,2.48-.9,1.62,0,1.62,1.23,1.62,2.4v1.86c0,.45,0,1.1.1,1.2s.7.19.8.24l.02.24c-.19-.03-.53-.08-1.36-.08-.66,0-1.26.05-1.57.08v-.22c.56-.11.77-.26.88-.45.18-.37.21-2.07.21-2.39,0-1.02,0-2.21-1.22-2.21-.06,0-.86,0-1.95.56l-.05,2.1Z"/>
          <path class="cls-1" d="M134.65,27.04c.22,0,.85.1,1.5.26.03-.58.05-1.12.05-2.02,0-1.5-.08-1.82-.45-1.82-.22,0-.4.03-.59.08l-.02-.24c.19-.08,1.41-.58,2.06-1.04l.19.08c-.21,1.06-.37,5.35-.37,8.21,0,.66,0,2.24.29,2.24.13,0,.75-.19.94-.26v.29c-.51.18-1.84.64-1.98.64-.24,0-.24-1.01-.24-1.27-1.02.53-1.6.83-2.4.83-1.09,0-2.4-.9-2.4-2.53,0-2.99,3.22-3.46,3.41-3.46ZM136.09,28.35c0-.51-1.87-.74-2.03-.74-1.01,0-1.94.85-1.94,1.99,0,1.78,1.06,2.77,2.34,2.77.67,0,1.2-.32,1.58-.56l.05-3.46Z"/>
          <path class="cls-1" d="M138.61,27.97l1.73-.96q.13-.06.16-.06c.06,0,.11.05.11.14l-.1,1.34c-.03.53-.1,1.47-.1,1.97,0,.75,0,2.05,1.33,2.05.59,0,1.2-.34,1.86-.66,0-.1,0-.59.02-.77l.05-1.6c.05-1.41-.13-1.49-.98-1.52l-.02-.29,2.08-.48c-.05.86-.19,3.03-.19,3.78,0,.88.05,1.28.14,1.6.34-.02.58-.08.88-.19v.35c-.51.14-1.34.42-1.79.58-.14-.45-.18-.75-.21-1.1-.8.4-1.97.98-2.66.98-.33,0-1.54-.19-1.46-2.32l.06-1.76c.02-.46.03-.96-.34-.96-.14,0-.27.06-.59.21v-.32Z"/>
          <path class="cls-1" d="M146.65,31.28c0,.24.74,1.36,1.87,1.36.22,0,1.11-.02,1.11-.83s-.91-1.28-1.25-1.46l-.59-.27c-.48-.24-1.12-.61-1.12-1.31s.77-1.66,2.11-1.66c.27,0,.61.03,1.25.11l.26,1.33h-.27c-.14-.54-1.01-1.11-1.5-1.11-.56,0-.93.37-.93.91,0,.45.25.66.9.96l.48.22c.53.26,1.57.75,1.57,1.86,0,.3-.11.82-.45,1.02-.94.59-1.46.66-1.94.66-.62,0-1.15-.18-1.63-.32.03-.16.06-.29.06-.45,0-.22-.11-.79-.19-1.04l.27.02Z"/>
          <path class="cls-1" d="M152.28,27.74c-.24-.03-.37-.05-.83-.05l.02-.19c.96-.59,1.33-1.01,1.97-1.86l-.08,1.41c.34.03.74.06,1.47.06.27,0,.38,0,.83-.02l-.02.48c-.27.03-.56.05-.83.05-.18,0-.98-.05-1.14-.05-.38,0-.37.1-.38.9l-.03,2.43c-.02.64-.02,1.62,1.01,1.62.43,0,1.04-.24,1.5-.45l.03.16c-.35.38-1.52.88-2.32.88-.55,0-1.23-.29-1.23-1.55v-.79l.03-3.04Z"/>
          <path class="cls-1" d="M158.26,26.75c.03.48.03.56.03,1.33l.94-.54c.16-.1.58-.34.99-.61.06.05.11.08.18.11.22.11.5.24.5.66,0,.45-.43.69-.85.74,0-.37-.19-.54-.48-.54-.37,0-.83.3-1.04.48q-.26.22-.27.85c0,.19-.05,1.07-.05,1.39,0,.4.03,1.6.16,1.89.08.18.21.18.45.18h.21l.93-.02-.02.34-3.62.1.02-.24c.8-.14.98-.18.98-3.17,0-1.15-.05-1.57-.61-1.57-.11,0-.37.03-.5.06l.03-.26,2.02-1.17Z"/>
          <path class="cls-1" d="M161.65,32.82c.32-.03.67-.08.75-.24.1-.19.14-2.08.14-2.46,0-1.49-.05-1.71-.18-1.86-.08-.08-.75-.05-.75-.18,0-.11.08-.14.14-.16.62-.19,1.3-.59,1.83-1.02.05,0,.1.02.14.03-.16.71-.26,2.62-.26,3.44,0,.34.02,1.71.13,2.1.06.19.16.21.53.24.4.02.43.03.54.05l.1.22-3.15.08.03-.24ZM163.42,23.1c.32,0,.59.27.59.61s-.26.61-.59.61-.61-.27-.61-.61.29-.61.61-.61Z"/>
          <path class="cls-1" d="M166.07,28.83c-.03-.13-.06-.26-.06-.37,0-.88,2.05-1.5,2.45-1.5.32,0,.83.38,1.02.56.21.21.48.5.48,1.63,0,.35-.02.69-.03,1.04l-.03.59c-.03.42-.03.48-.03.67,0,.11,0,1.06.43,1.06.32,0,.67-.16.82-.22v.32l-1.15.46c-.14.06-.3.11-.38.11-.26,0-.53-.42-.64-.8-.35.19-1.41.8-2.22.8-.96,0-.96-.85-.96-1.1,0-.77.18-1.01.54-1.2.93-.46,2.16-.62,2.62-.69l.03-.96c.03-.77-.06-.98-.3-1.23-.3-.29-.69-.46-.96-.46-.26,0-.74.16-.74.53,0,.1.03.21.08.34l-.96.43ZM167.37,32.66c.38,0,.99-.3,1.52-.56-.03-.37.03-1.2.05-1.47-1.42-.1-2.29.45-2.29,1.06,0,.4.22.98.72.98Z"/>
          <path class="cls-1" d="M173.64,29.36c-.02.75,0,2.64.11,2.99.11.34,1.03.43,1.18.45v.27c-.22,0-1.47-.08-2.06-.08-.21,0-1.01.02-1.46.06v-.24c.8-.14,1.06-.43,1.14-1.12.08-.51.21-3.52.21-5.63,0-.82,0-2.06-.21-2.35-.1-.14-.27-.19-.53-.19-.16,0-.24.02-.35.03v-.24c.8-.34,1.54-.66,2.1-1.06h.24c-.22.83-.29,2.43-.3,3.35l-.06,3.76Z"/>
          <path class="cls-1" d="M186.49,29.52h-.27c-.05-1.38-.34-1.44-2.9-1.44-.78,0-1.1.03-1.41.08l-.03,1.1c-.02.62-.02,2.24.14,3.14.3.08.69.24,2.03.24,2.47,0,3.14-.5,3.63-1.91h.24c-.19,1.2-.32,1.66-.66,2.37-.3-.03-1.17-.05-1.95-.05s-1.51-.03-1.52-.03c-1.49,0-3.2.06-4.21.11l.02-.27c.91-.19.94-.21,1.04-.86.11-.78.19-3.51.18-4.03l-.05-2.48c-.05-2.15-.11-2.15-1.06-2.34l.02-.21h5.01c.54,0,1.7-.03,2.54-.06-.08,1.1-.19,1.76-.38,2.03l-.21-.06c0-.16.06-.58.06-.66,0-.86-1.58-.88-2.32-.88-1.07,0-1.78.08-2.4.16-.06.58-.14,1.25-.14,2.18,0,.67,0,1.76.02,2.03.19.02.64.02,1.15.02.82,0,1.81-.02,2.27-.06.58-.06.66-.06.94-1.06h.21v2.95Z"/>
          <path class="cls-1" d="M190.73,30.45c-.02,1.22-.02,1.34.03,1.76.03.3.05.46,1.02.58l-.02.24c-.14-.02-.35-.03-.59-.03-.24-.02-.5-.02-.72-.02h-1.71l-.02-.26c.88-.16.91-.34.96-.66.1-.61.11-1.89.11-2.32,0-1.7-.08-1.7-1.02-1.79,0-.05,0-.1-.02-.14.54-.14,1.47-.59,1.49-.61.02-.02.29-.16.35-.16.18,0,.18.42.18.98,1.02-.58,1.78-.9,2.48-.9,1.62,0,1.62,1.23,1.62,2.4v1.86c0,.45,0,1.1.1,1.2.1.1.7.19.8.24l.02.24c-.19-.03-.53-.08-1.36-.08-.66,0-1.26.05-1.57.08v-.22c.56-.11.77-.26.88-.45.18-.37.21-2.07.21-2.39,0-1.02,0-2.21-1.22-2.21-.06,0-.86,0-1.95.56l-.05,2.1Z"/>
          <path class="cls-1" d="M199.14,26.93c.77,0,1.25.32,1.44.46.32-.06.77-.11,1.18-.11.3,0,.42,0,.56.03-.02.29-.08.56-.21.85-.3-.13-.61-.22-1.12-.22.21.29.43.88.43,1.42,0,1.57-1.18,2.13-2.32,2.67-.58.26-1.38.62-1.38.88,0,.45.75.48,1.15.48,2,0,3.28,0,3.28,1.52s-2.13,2.56-3.94,2.56-2.11-1.11-2.11-1.62c0-.99.91-1.52,1.42-1.82-.26-.14-.83-.48-.82-1.2.35-.27.69-.4,1.23-.61l.51-.19v-.03c-.58-.14-2.1-.54-2.1-2.35,0-1.58,1.42-2.72,2.77-2.72ZM198.87,36.85c.96,0,2.71-.42,2.71-1.54,0-.38-.26-.94-.99-1.01-.22-.03-1.36,0-1.62,0-.32,0-.69,0-.99-.1-.56.18-1.26.64-1.26,1.3s.8,1.34,2.16,1.34ZM199.3,31.58c.5-.26,1.2-.59,1.2-1.82,0-1.17-.71-2.37-1.84-2.37-.83,0-1.5.7-1.5,1.73,0,1.63,1.52,2.22,2.14,2.46Z"/>
          <path class="cls-1" d="M203.17,32.82c.32-.03.67-.08.75-.24.1-.19.14-2.08.14-2.46,0-1.49-.05-1.71-.18-1.86-.08-.08-.75-.05-.75-.18,0-.11.08-.14.14-.16.62-.19,1.3-.59,1.82-1.02.05,0,.1.02.14.03-.16.71-.26,2.62-.26,3.44,0,.34.02,1.71.13,2.1.06.19.16.21.53.24.4.02.43.03.54.05l.1.22-3.15.08.03-.24ZM204.93,23.1c.32,0,.59.27.59.61s-.25.61-.59.61-.61-.27-.61-.61.29-.61.61-.61Z"/>
          <path class="cls-1" d="M208.9,30.45c-.02,1.22-.02,1.34.03,1.76.03.3.05.46,1.02.58l-.02.24c-.14-.02-.35-.03-.59-.03-.24-.02-.5-.02-.72-.02h-1.71l-.02-.26c.88-.16.91-.34.96-.66.1-.61.11-1.89.11-2.32,0-1.7-.08-1.7-1.03-1.79,0-.05,0-.1-.02-.14.54-.14,1.47-.59,1.49-.61.02-.02.29-.16.35-.16.18,0,.18.42.18.98,1.02-.58,1.78-.9,2.48-.9,1.62,0,1.62,1.23,1.62,2.4v1.86c0,.45,0,1.1.1,1.2.1.1.7.19.8.24l.02.24c-.19-.03-.53-.08-1.36-.08-.66,0-1.26.05-1.57.08v-.22c.56-.11.77-.26.88-.45.18-.37.21-2.07.21-2.39,0-1.02,0-2.21-1.22-2.21-.06,0-.86,0-1.95.56l-.05,2.1Z"/>
          <path class="cls-1" d="M215.75,29.81c.05.91.11,1.36.56,1.95.61.79,1.23.79,1.46.79.42,0,.94-.11,1.63-.61l.14.19c-.45.32-1.36.98-2.42.98-1.6,0-2.37-1.46-2.37-2.79,0-2.5,2.03-3.26,2.45-3.26.58,0,1.55.21,2.08,1.42.05.11.1.19.35.19l.02.29-3.91.85ZM216.79,29.28c.06-.03.83-.21,1.02-.24.56-.13.62-.14.62-.26,0-.18-.5-1.23-1.54-1.23-.9,0-1.09,1.34-1.14,1.95l1.03-.22Z"/>
          <path class="cls-1" d="M221.59,29.81c.05.91.11,1.36.56,1.95.61.79,1.23.79,1.46.79.42,0,.94-.11,1.63-.61l.14.19c-.45.32-1.36.98-2.42.98-1.6,0-2.37-1.46-2.37-2.79,0-2.5,2.03-3.26,2.45-3.26.58,0,1.55.21,2.08,1.42.05.11.1.19.35.19l.02.29-3.91.85ZM222.63,29.28c.06-.03.83-.21,1.02-.24.56-.13.62-.14.62-.26,0-.18-.5-1.23-1.54-1.23-.9,0-1.09,1.34-1.14,1.95l1.03-.22Z"/>
          <path class="cls-1" d="M228.29,26.75c.03.48.03.56.03,1.33l.94-.54c.16-.1.58-.34.99-.61.06.05.11.08.17.11.22.11.5.24.5.66,0,.45-.43.69-.85.74,0-.37-.19-.54-.48-.54-.37,0-.83.3-1.04.48q-.26.22-.27.85c0,.19-.05,1.07-.05,1.39,0,.4.03,1.6.16,1.89.08.18.21.18.45.18h.21l.93-.02-.02.34-3.62.1.02-.24c.8-.14.98-.18.98-3.17,0-1.15-.05-1.57-.61-1.57-.11,0-.37.03-.5.06l.03-.26,2.02-1.17Z"/>
          <path class="cls-1" d="M231.68,32.82c.32-.03.67-.08.75-.24.1-.19.14-2.08.14-2.46,0-1.49-.05-1.71-.18-1.86-.08-.08-.75-.05-.75-.18,0-.11.08-.14.14-.16.62-.19,1.3-.59,1.83-1.02.05,0,.1.02.14.03-.16.71-.26,2.62-.26,3.44,0,.34.02,1.71.13,2.1.06.19.16.21.53.24.4.02.43.03.54.05l.1.22-3.15.08.03-.24ZM233.44,23.1c.32,0,.59.27.59.61s-.26.61-.59.61-.61-.27-.61-.61.29-.61.61-.61Z"/>
          <path class="cls-1" d="M237.41,30.45c-.02,1.22-.02,1.34.03,1.76.03.3.05.46,1.03.58l-.02.24c-.15-.02-.35-.03-.59-.03-.24-.02-.5-.02-.72-.02h-1.71l-.02-.26c.88-.16.91-.34.96-.66.1-.61.11-1.89.11-2.32,0-1.7-.08-1.7-1.02-1.79,0-.05,0-.1-.02-.14.54-.14,1.47-.59,1.49-.61.01-.02.29-.16.35-.16.18,0,.18.42.18.98,1.02-.58,1.78-.9,2.48-.9,1.62,0,1.62,1.23,1.62,2.4v1.86c0,.45,0,1.1.1,1.2s.7.19.8.24l.02.24c-.19-.03-.53-.08-1.36-.08-.66,0-1.26.05-1.57.08v-.22c.56-.11.77-.26.88-.45.18-.37.21-2.07.21-2.39,0-1.02,0-2.21-1.22-2.21-.06,0-.86,0-1.95.56l-.05,2.1Z"/>
          <path class="cls-1" d="M245.83,26.93c.77,0,1.25.32,1.44.46.32-.06.77-.11,1.18-.11.3,0,.42,0,.56.03-.01.29-.08.56-.21.85-.3-.13-.61-.22-1.12-.22.21.29.43.88.43,1.42,0,1.57-1.18,2.13-2.32,2.67-.58.26-1.38.62-1.38.88,0,.45.75.48,1.15.48,2,0,3.28,0,3.28,1.52s-2.13,2.56-3.94,2.56-2.11-1.11-2.11-1.62c0-.99.91-1.52,1.42-1.82-.26-.14-.83-.48-.82-1.2.35-.27.69-.4,1.23-.61l.51-.19v-.03c-.58-.14-2.1-.54-2.1-2.35,0-1.58,1.42-2.72,2.77-2.72ZM245.56,36.85c.96,0,2.71-.42,2.71-1.54,0-.38-.26-.94-.99-1.01-.22-.03-1.36,0-1.62,0-.32,0-.69,0-.99-.1-.56.18-1.26.64-1.26,1.3s.8,1.34,2.16,1.34ZM245.99,31.58c.5-.26,1.2-.59,1.2-1.82,0-1.17-.71-2.37-1.84-2.37-.83,0-1.5.7-1.5,1.73,0,1.63,1.52,2.22,2.14,2.46Z"/>
        </g>
        <path id="University_of_Toronto_Line" class="cls-1" d="M265.28,47.08c0,3.09,2.38,5.51,5.43,5.51s5.75-2.53,5.75-5.51c0-2.66-2.1-5.4-5.59-5.4-2.98,0-5.59,2.53-5.59,5.4ZM267.15,46.23c0-1.84,1.11-3.71,3.21-3.71,2.64,0,4.22,2.83,4.22,5.57,0,1.75-1.21,3.65-3.16,3.65-2.68,0-4.28-2.8-4.28-5.51ZM263.64,41.6h-.34l-.02.04c-.05.07-.15.2-.71.23l-2.13.03h-2.99l-2.33-.03c-.56-.03-.66-.16-.71-.23l-.03-.04h-.39l-.02.06c-.05.11-.78,1.98-.8,2.1l-.02.06.5.29.04-.1c.33-.87.69-1.29,2.55-1.29.59,0,1.09.04,1.43.07.11,1.42.13,2.8.13,3.84s-.03,3.94-.14,4.57c-.04.23-.11.38-1.02.54l-.65.08-.26.03.11.59.88-.06h.25s1.71-.06,1.71-.06h.27s.94,0,.94,0l.72.03.76.03v-.08s.07-.52.07-.52l-.47-.05h-.12c-.45-.07-.78-.18-.91-.3-.12-.13-.32-.81-.32-3.85l.05-2.17.06-2.47c0-.21,0-.22.98-.22h.04s.58,0,.58,0h.13c1.72,0,1.85.36,2.14,1.14l.1.25.49-.29-.12-.56c-.16-.83-.31-1.52-.35-1.6l-.03-.06h-.05ZM248.08,41.75s.86.06,1.11.08c.26.02,1.07.03,2.21.03h.08v.56h-.08c-.58,0-1.2.12-1.28.83-.07.41-.14,3.72-.14,5.13,0,.96,0,3.15.06,4v.1s-.68.01-.68.01l-.02-.03-7.6-7.91c0,.25-.02.62-.02.62l-.06,4.35c-.02,1.71-.02,1.93,1.98,2.29h.07v.62s-.82-.06-.83-.06l-1.18-.05-2.45.11v-.55s.67-.14.68-.15c.38-.08.61-.12.68-.72.08-.59.16-2.66.16-3.34l.03-1.83c.05-2.99-.17-3.15-1.63-3.42h-.07s0-.52,0-.52v-.1s.74.06.74.06l.79.02,1.17-.02.03.03s7.16,7.47,7.3,7.62c0-.29-.02-2.83-.02-2.83-.05-4.2.27-4.25-1.77-4.36h-.09s.11-.53.11-.53c.06-.04.74-.03.74-.03ZM231.67,41.68c3.5,0,5.59,2.75,5.59,5.4,0,2.98-2.63,5.51-5.75,5.51s-5.43-2.42-5.43-5.51c0-2.88,2.61-5.4,5.59-5.4ZM232.24,51.74c1.95,0,3.16-1.9,3.16-3.65,0-2.74-1.58-5.57-4.22-5.57-2.11,0-3.21,1.87-3.21,3.71,0,2.71,1.6,5.51,4.28,5.51ZM219.16,41.75c2.22,0,3.78,1.18,3.78,2.87,0,1.37-1.2,2.3-2.36,2.63,2.13,2.99,2.52,3.46,3.37,4.23.03.03.7.67,1.54.72h.08s-.04.57-.04.57h-.08c-1.84,0-2.76-.69-3.27-1.08-1.61-1.24-3.21-3.67-3.5-4.19-.09,0-1.11-.04-1.27-.04v1.88c0,.72.02,1.75.18,2.06.11.2.96.45,1.41.58l.06.02.04.56-.11-.02c-.63-.1-1.63-.18-2.33-.18-.36,0-2,.1-2.36.13h-.07s-.13-.47-.13-.47l.1-.02c.22-.04,1.08-.25,1.29-.62.16-.33.15-2.18.15-2.97v-2.72c0-3.16-.13-3.17-1.41-3.24h-.09s.04-.62.04-.62h.16s.94.06.94.06l.98.02c.24,0,.86-.05,1.45-.1h0l1.45-.05ZM217.44,46.69c.31.04.77.04,1.05.04.95,0,2.54-.26,2.54-1.98,0-.91-.67-2.26-2.52-2.26-1.03,0-1.03.03-1.05,1.8,0,0-.02,2.25-.02,2.4ZM206.58,41.68c3.5,0,5.59,2.75,5.59,5.4,0,2.98-2.63,5.51-5.75,5.51s-5.43-2.42-5.43-5.51c0-2.88,2.61-5.4,5.59-5.4ZM207.14,51.74c1.95,0,3.15-1.9,3.15-3.65,0-2.74-1.58-5.57-4.22-5.57-2.11,0-3.21,1.87-3.21,3.71,0,2.71,1.6,5.51,4.27,5.51ZM199.36,41.6h-.34l-.03.04c-.05.07-.15.2-.7.23l-2.13.03h-2.99l-2.33-.03c-.56-.03-.65-.16-.71-.23l-.03-.04h-.4l-.02.06c-.04.11-.77,1.98-.8,2.1v.06s.48.29.48.29l.04-.1c.34-.87.7-1.29,2.55-1.29.59,0,1.09.04,1.43.07.11,1.42.13,2.8.13,3.84s-.03,3.94-.13,4.57c-.04.23-.11.38-1.02.54,0,0-.66.08-.66.08l-.26.03.12.59.88-.06h.24s1.71-.06,1.71-.06h.27s.95,0,.95,0l.72.03.76.03v-.08s.08-.52.08-.52l-.48-.05h-.11c-.45-.07-.78-.18-.91-.3-.12-.13-.31-.81-.31-3.85l.05-2.17.05-2.47c0-.21,0-.22.98-.22h.03s.58,0,.58,0h.13c1.72,0,1.86.36,2.14,1.14l.1.25.49-.29-.12-.56c-.17-.83-.31-1.52-.35-1.6l-.03-.06h-.06ZM179.65,41.75c-1.54.15-1.89.15-3.6.15l-1.81-.02-1.86-.05-.62.04-.48.05v.08s0,.37,0,.37h.08c.47.03.91.07,1.1.35.27.41.3.84.3,4.54,0,1.75-.15,3.72-.21,4.01-.09.41-.67.55-1.1.62h-.07s-.03.57-.03.57h.1c1.05-.09,2.19-.11,2.49-.11l.93.02s1.71.08,1.71.08v-.61h-.12c-1.22-.13-1.63-.33-1.75-.49-.13-.16-.18-.79-.18-1.45,0-.19,0-.39.01-.58,0,0,.04-1.56.05-1.93.13,0,.87-.05.87-.05.95,0,2.15.21,2.46.35.16.05.31.39.37.86v.08h.54v-.08c.1-1.09.09-2.16.07-2.98v-.09h-.56v.08c-.14.77-.19,1.09-2.26,1.09-.62,0-.82-.02-1.41-.09,0,0-.02,0-.04,0-.02-.19-.03-.38-.03-.6,0-.24,0-.49.01-.75,0,0,.03-2.18.03-2.52.6-.07,1.12-.09,1.27-.09,1.15,0,2.17.21,2.58.53.33.25.46.66.55,1.03l.02.07.59-.04v-.09c-.02-.17.02-.74.05-1.25l.06-1.11h-.1ZM163.52,41.68c3.5,0,5.59,2.75,5.59,5.4,0,2.98-2.64,5.51-5.75,5.51s-5.43-2.42-5.43-5.51c0-2.88,2.61-5.4,5.59-5.4ZM164.08,51.74c1.95,0,3.15-1.9,3.15-3.65,0-2.74-1.57-5.57-4.21-5.57-2.11,0-3.22,1.87-3.22,3.71,0,2.71,1.6,5.51,4.28,5.51ZM144.23,41.89v.52h.12c.53.03,1.26.06,1.26.48,0,.13-.23.74-2.23,3.62-.87-1.03-2.78-3.46-2.78-3.78,0-.12,0-.25,1.21-.27h.09v-.62l-1.01.02-1.95.03-2.11-.03v.56h.09c.53,0,.84.07,1.09.24.65.45,2.92,3.33,3,3.46,0,0,.91,1.17,1,1.28.05.75.11,1.58.11,2.6,0,1.57,0,1.9-1.48,1.95h-.08s-.04.53-.04.53h.09c.22.03.9-.03,1.56-.07l1.13-.07.86.04h.17s1.16.07,1.16.07v-.09s0-.44,0-.44h-.08c-1.45-.13-1.47-.32-1.49-.6,0,0,0-.11,0-.11-.03-.65-.05-1.37-.05-2.16,0-.59,0-1.22.03-1.88.03-.04,2.09-3.15,2.09-3.15.66-1.01.5-1.56,1.93-1.59h.08v-.61h-.08c-.19-.02-.23,0-.74.04l-.68.03-.81-.04-.57-.03s-.8-.03-.8-.03h-.09v.09ZM134.83,41.6h-.34l-.02.04c-.05.07-.15.2-.7.23,0,0-2.14.03-2.14.03h-2.99l-2.33-.03c-.56-.03-.65-.16-.71-.23l-.03-.04h-.39l-.02.06c-.05.11-.77,1.98-.8,2.1l-.02.06.5.29.04-.1c.33-.87.69-1.29,2.55-1.29.59,0,1.09.04,1.43.07.12,1.42.13,2.8.13,3.84s-.03,3.94-.13,4.57c-.04.23-.11.38-1.02.54,0,0-.66.08-.66.08l-.26.03.11.59.88-.06h.24s1.71-.06,1.71-.06h.27s.95,0,.95,0l.72.03.77.03v-.08s.08-.52.08-.52l-.48-.05h-.11c-.45-.07-.78-.18-.91-.3-.11-.13-.32-.81-.32-3.85l.05-2.17.06-2.47c0-.21,0-.22.97-.22h.04s.58,0,.58,0h.12c1.72,0,1.85.36,2.15,1.14l.09.25.49-.29-.12-.56c-.16-.83-.31-1.52-.35-1.6l-.02-.06h-.06ZM117.07,41.92v.52h.08c1.39.05,1.62.34,1.73.62.19.46.23,3.45.23,4.56v.18c0,.91,0,3.03-.28,3.51-.09.16-.45.45-1.82.55h-.08v.54l1.68-.06h1.54l2.57.08v-.1s-.04-.5-.04-.5h-.08c-1.12,0-1.49-.02-1.62-.46-.07-.23-.1-1.23-.1-2.97,0-4.1.02-5.19.25-5.58.28-.46,1.27-.4,1.56-.37h.1s0-.61,0-.61h-1.26s-1.78.05-1.78.05l-1.17-.03-.5-.02-.93-.03h-.09s0,.09,0,.09ZM107.66,44.73c0,1.79,1.55,2.42,2.67,2.88l.1.04c1.93.78,2.81,1.13,2.81,2.45,0,.78-.59,1.62-1.87,1.62-1.14,0-1.97-.48-2.48-.89-.6-.5-.76-1.25-.82-1.5l-.02-.07h-.64l.03.11c.35,1.16.47,1.68.45,2.99v.08l.52.04.03-.06c.02-.06.11-.26.23-.26s.5.1.65.13l.07.02.16.04c.27.08.63.19,1.31.19,2.6,0,3.99-1.56,3.99-3.03,0-2.07-2.06-2.88-3.42-3.41-1.29-.49-2.27-.95-2.27-1.99s.8-1.72,1.98-1.72c1.07,0,1.83.59,2.01.79.43.39.53.86.64,1.31v.07s.09.02.09.02h.47l-.14-1.38c0-.5.1-1.03.16-1.24l.02-.09-.48-.07s-.29.19-.34.23c-.97-.25-1.46-.33-2.14-.33-2.23,0-3.78,1.24-3.78,3.01ZM100.14,41.75c2.22,0,3.78,1.18,3.78,2.87,0,1.37-1.2,2.3-2.36,2.63,2.14,2.99,2.53,3.46,3.38,4.23.03.03.7.67,1.54.72h.09s-.04.56-.04.56h-.08c-1.84,0-2.76-.69-3.27-1.08-1.62-1.24-3.21-3.67-3.51-4.19-.08,0-1.11-.04-1.27-.04v1.4s0,.38,0,.48c0,.72.02,1.75.18,2.06.12.2.96.45,1.41.58l.06.02.04.56-.11-.02c-.64-.1-1.63-.18-2.33-.18-.37,0-2,.1-2.36.13h-.07s-.12-.47-.12-.47l.09-.02c.21-.04,1.08-.25,1.29-.62.16-.33.15-2.18.15-2.97v-2.72c0-3.16-.14-3.17-1.41-3.24h-.09s.04-.62.04-.62h.16s.93.06.94.06l.98.02c.24,0,.86-.05,1.45-.1h0l1.45-.05ZM98.42,46.69c.32.04.77.04,1.05.04.95,0,2.55-.26,2.55-1.98,0-.91-.67-2.26-2.52-2.26-1.03,0-1.03.03-1.06,1.8,0,0-.02,2.25-.02,2.4ZM91.89,41.8c-1.31.08-3.36.1-4.73.1-.83,0-2.9-.05-3.67-.08h-.09s0,.53,0,.53h.07c.9.17.96.19,1.02.39.1.25.21,1.2.21,4.39,0,1.36-.11,3.51-.24,4.24-.07.36-.52.47-1.23.55h-.09s.08.6.08.6h.08c1.43-.16,3.16-.16,4.19-.16l4.25.05.04-.07c.22-.35.56-.88.8-2.57l.02-.09-.51-.04-.02.06c-.36.97-1.08,1.96-3.67,1.96-.91,0-1.3-.12-1.81-.31-.05-.3-.1-.74-.12-2.03,0,0-.02-1.57-.03-1.93.68-.09,1.31-.09,1.59-.09,2.08,0,2.23.16,2.52,1.43l.02.07h.5v-.09c-.03-1.39-.03-1.72.05-3.17v-.09s-.56,0-.56,0l-.02.06c-.21.77-.37.92-.67.97-1.52.19-3,.13-3.36.11,0-.13-.05-1.39-.05-1.39,0-.67.06-1.72.18-2.46.56-.1,1.6-.19,2.05-.19,1.18,0,1.87.15,2.18.48.26.27.26.66.23,1.11v.08s.6.08.6.08v-.1c0-.11.07-.53.13-.84l.06-.39c.08-.55.08-.81.08-1.07v-.09h-.09ZM68.87,41.92l.03.46h.07c1.43.19,1.48.19,2.64,2.54,0,0,2.39,4.83,2.39,4.83,0,0,.02.04.02.04.4.84,1.02,2.1,1.23,2.83v.06h.54l.02-.06c.36-1.05.62-1.78,1.46-3.42l2.58-5.01c.59-1.18.86-1.48,2.01-1.71h.07v-.59h-.09c-.66.03-1.3.03-1.96,0,0,0-2.03-.05-2.03-.05v.08s-.04.54-.04.54h.09c.53,0,1.24.06,1.24.63,0,.31-.23.83-.38,1.16l-.04.09c-.53,1.18-.86,1.82-1.22,2.51l-1.18,2.39s-.17.38-.27.6c-1.16-1.85-3.27-6.8-3.28-7.09,0-.13.03-.14.9-.25l.27-.04v-.58h-1.63s-.88,0-.88,0c-.61,0-1.85-.03-2.49-.08h-.11s0,.09,0,.09ZM61.69,41.92v.52h.09c1.39.05,1.62.34,1.73.62.2.46.24,3.45.24,4.56v.18c0,.91,0,3.03-.28,3.51-.09.16-.45.45-1.82.55h-.08v.54l1.68-.06h1.54l2.57.08v-.1s-.04-.5-.04-.5h-.08c-1.12,0-1.48-.02-1.62-.46-.07-.23-.1-1.23-.1-2.97,0-4.1.02-5.19.25-5.58.28-.46,1.26-.4,1.56-.37h.1s0-.61,0-.61h-1.26s-1.78.05-1.78.05l-1.17-.03-.5-.02-.93-.03h-.09s0,.09,0,.09ZM56.35,41.75s.86.06,1.12.08c.26.02,1.07.03,2.2.03h.09v.56h-.09c-.59,0-1.19.12-1.28.83-.07.41-.14,3.72-.14,5.13,0,.96,0,3.15.05,4v.1s-.67.01-.67.01l-.03-.03-7.59-7.91c0,.25-.02.62-.02.62l-.05,4.35c-.03,1.71-.03,1.93,1.98,2.29h.07v.62s-.82-.06-.83-.06l-1.18-.05-2.46.11v-.55s.67-.14.69-.15c.38-.08.61-.12.68-.72.08-.59.16-2.66.16-3.34l.02-1.83c.06-2.99-.17-3.15-1.63-3.42h-.07s0-.52,0-.52l-.02-.1.75.06.78.02,1.17-.02.03.03s7.16,7.47,7.3,7.62c.01-.29-.02-2.83-.02-2.83-.05-4.2.26-4.25-1.77-4.36h-.1s.11-.53.11-.53c.05-.04.73-.03.73-.03ZM38.32,41.83h.09v.61h-.08c-1.64.15-1.78.17-1.78,3.82v1.96c0,1.13,0,3.5,2.99,3.5,3.29,0,3.53-2.12,3.53-5.62v-.93c0-.7-.09-2.11-.42-2.44-.23-.23-.76-.26-1.29-.26h-.09v-.62s.63.02.63.02l1.43.03,1.85-.04h.24s-.04.58-.04.58h-.08c-1.23.07-1.25.38-1.27,1.12v.07s-.03,1.52-.03,1.52c-.08,5.04-.32,7.47-4.9,7.47-2.89,0-4.42-1.25-4.42-3.62l.13-3.43c0-1.6-.15-2.82-.36-2.95-.16-.11-.39-.11-1.09-.11h-.08l-.04-.58h.08c.21-.04,1.68-.06,2.4-.06h.61c.67-.03,1.59-.05,1.99-.03Z"/>
        <path id="Shield__x26__Scroll" class="cls-1" d="M27.02,49.32l-.37-.79-.5-1.05c-.4-.77-1.02-1.22-1.76-1.3,1.67-2.93,2.88-6.45,2.88-10.54v-12.87c0-.08-.07-.15-.15-.15H1.66c-.08,0-.15.07-.15.15v12.87c0,4.09,1.21,7.62,2.88,10.54-.74.08-1.36.53-1.75,1.3l-.5,1.05-.37.79c-.33.68-.68,2.09.69,3.81,1.11,1.39,3.44,2.89,6.25,3.99l.13.05c.24.09.47.19.69.28-.23.23-.55.49-.8.69l-.23.18c-.06.05-.11.09-.15.14,0,0-.01,0-.02,0-.02.02-.03.04-.05.06-.23.25-.37.55-.37,1.06v2.47c0,1.01,1.41,1.37,2.73,1.37h7.51c1.32,0,2.73-.36,2.73-1.37v-2.47c0-.51-.13-.81-.37-1.06-.02-.02-.03-.04-.05-.06,0,0-.01,0-.02,0-.05-.04-.1-.09-.16-.14l-.22-.18c-.25-.2-.58-.47-.81-.7.22-.09.45-.18.69-.28l.13-.05c2.8-1.11,5.14-2.6,6.24-3.99,1.37-1.72,1.02-3.12.69-3.81ZM1.81,32.79h25.16v2.84c0,12.71-11.8,19.93-12.58,20.39-.78-.47-12.58-7.68-12.58-20.39v-2.84ZM25.38,47.15c.33.54.33,1.26.02,2.01-.05.13-.12.25-.2.38l-.91-1.31s-.09-.07-.15-.06c-.06,0-.1.05-.12.1-.07.23-.27.43-.56.55-.29.12-.59.12-.85.04.56-.74,1.1-1.54,1.6-2.39.05,0,.1,0,.15.01,0,0,0,0,0,0,.39.03.77.29,1,.67ZM17.31,59.81l.16.16h-6.15l.16-.16c.36-.33.66-.62.66-1.39v-1.75c0-1.71-1.47-2.38-3.17-3.16-.59-.27-1.21-.55-1.82-.9-.56-.32-1.34-.83-2.06-1.43l1.35-1.95c3.58,4.61,7.81,7.07,7.88,7.11.05.03.1.03.15,0,.07-.04,4.3-2.5,7.88-7.11l1.35,1.96c-.72.6-1.5,1.11-2.06,1.43-.61.35-1.23.63-1.82.9-1.7.78-3.17,1.45-3.17,3.16v1.75c0,.77.31,1.06.67,1.39ZM4.86,50.98c-.42-.37-.81-.77-1.1-1.17.17-.25.68-.99.85-1.22.13.21.32.4.59.51.29.12.62.15.9.09l-1.24,1.8ZM22.68,49.18c.29.06.61.04.91-.09.27-.11.46-.3.59-.51.16.24.67.98.84,1.22-.29.4-.68.8-1.1,1.17l-1.24-1.8ZM1.81,22.92h25.16v9.58H1.81v-9.58ZM3.4,47.15c.23-.39.61-.64,1-.67,0,0,0,0,.01,0,.05,0,.09,0,.14,0,.5.85,1.04,1.65,1.6,2.39-.25.09-.56.08-.84-.04-.28-.12-.49-.32-.56-.55-.01-.05-.06-.09-.12-.1-.06,0-.11.02-.14.06l-.91,1.31c-.08-.13-.15-.25-.2-.38-.31-.75-.31-1.46.02-2.01ZM8.93,56.89l-.13-.05c-2.76-1.09-5.04-2.55-6.12-3.9-1.2-1.51-1.02-2.73-.66-3.49l.37-.79.5-1.04s.01-.02.02-.02c-.1.42-.1.98.19,1.69.56,1.33,2.45,2.76,3.89,3.58.62.35,1.24.64,1.84.91,1.68.77,3,1.37,3,2.89v1.75c0,.17-.02.31-.05.43-.04-.19-.13-.37-.26-.52-.57-.63-1.51-1.01-2.6-1.44ZM8.44,58.79s.01-.02.02-.03c0,0,0,0,0-.02.06-.06.13-.13.21-.19l.22-.18c.3-.24.67-.54.91-.8.62.27,1.15.56,1.5.95.26.29.27.77.1.94h0s-.09.08-.13.13l-.37.38h-.26c-1.23.01-2.04-.41-2.22-.84-.05-.12-.04-.24.02-.34ZM20.57,59.37c0,.07.01.14.01.22v2.47c0,.79-1.31,1.07-2.43,1.07h-7.51c-1.12,0-2.43-.28-2.43-1.07v-2.47c0-.08,0-.15.01-.22.29.46,1.12.91,2.42.9h7.51c1.3,0,2.13-.44,2.42-.9ZM19.88,58.37l.22.18c.08.06.15.13.21.19,0,0,0,0,.01.01,0,.01.01.02.02.03.07.11.07.22.02.34-.17.43-1,.85-2.22.84h-.26l-.37-.38s-.09-.09-.13-.13h0c-.18-.17-.17-.64.1-.94.35-.39.87-.68,1.5-.95.24.25.61.55.91.8ZM26.1,52.94c-1.08,1.35-3.36,2.81-6.12,3.9l-.13.05c-1.09.43-2.03.8-2.6,1.44-.13.15-.22.33-.26.52-.03-.12-.05-.26-.05-.43v-1.75c0-1.52,1.32-2.12,3-2.89.6-.28,1.22-.56,1.85-.91,1.44-.82,3.33-2.25,3.89-3.58.3-.7.29-1.27.2-1.69,0,0,0,.02.01.02l.5,1.04.37.79c.37.76.55,1.98-.65,3.49Z"/>
        <path id="Text" class="cls-2" d="M6.19,53.2c.03-.05.06-.11.09-.16-.21-.13-.41-.26-.61-.41-.03.05-.07.12-.09.18.05.04.1.07.15.1-.21.44-.41.87-.62,1.31-.05-.03-.1-.06-.15-.09-.03.05-.06.12-.08.17.33.23.68.44,1.03.64.1-.13.19-.25.3-.38,0,0,0-.01,0-.02-.05-.05-.1-.1-.15-.14-.08.09-.17.2-.26.24-.11-.04-.31-.15-.4-.24,0-.11.46-.99.61-1.3.05,0,.14.07.19.11h0ZM4.58,53.31c.08-.15.16-.3.24-.45-.04-.04-.08-.07-.13-.11-.03.04-.05.08-.08.12-.02.01-.23-.16-.27-.2.09-.17.19-.37.29-.56.09.07.29.21.34.31.03.07-.06.21-.07.29,0,.05.11.08.15.11.07-.14.15-.31.21-.46-.31-.24-.62-.49-.92-.74-.03.05-.06.11-.09.16.05.04.09.08.13.12-.23.45-.41.82-.65,1.27-.05-.03-.09-.07-.14-.1-.03.05-.06.1-.09.15.3.28.6.52.93.77.09-.13.18-.26.27-.39,0,0,0,0,0-.02-.05-.05-.09-.1-.14-.14-.03.05-.17.24-.21.24-.07,0-.32-.23-.37-.3,0-.1.21-.45.27-.55.08.07.2.14.26.23-.01.05-.04.11-.06.16.04.04.09.07.13.1h0ZM10.01,54.93c-.45-.25-.92-.45-1.38-.67-.08.15-.16.3-.24.45.06.03.12.07.19.11.06-.08.12-.17.18-.25.09,0,.24.06.34.11-.2.44-.41.9-.61,1.34-.07-.03-.14-.05-.21-.08-.03.05-.05.11-.08.16.24.11.48.21.72.32.03-.05.05-.11.07-.16-.07-.03-.14-.07-.21-.1.2-.44.42-.91.62-1.34.1.05.24.12.28.2-.03.09-.07.18-.1.27.02.04.15.07.2.1.08-.15.15-.29.22-.44h0ZM8.41,54.17c-.19-.1-.39-.2-.58-.29-.03.05-.05.1-.08.15.07.04.13.07.2.11-.21.44-.53,1.45-.99,1.15-.32-.21-.2-.47-.02-.85.1-.21.22-.45.32-.66.07.03.13.07.2.1.02-.05.05-.11.08-.16-.21-.11-.43-.23-.64-.34-.03.05-.06.11-.08.16.05.02.09.05.14.07,0,.09-.15.35-.2.44-.22.45-.43.81-.23,1.13.05.08.13.14.21.21.12.09.29.14.4.15.53.05.77-.67,1.06-1.29.05.02.1.04.15.07.02-.05.05-.11.08-.16h0ZM3.98,51.54s.08.06.11.1c.02-.06.05-.12.08-.17-.15-.15-.3-.3-.46-.44-.02.06-.06.11-.09.17.05.05.11.11.16.16-.15.17-.71.78-.75.82,0,0,0,0,0,0-.02-.04.2-1.3.23-1.41.05.06.1.11.15.17.03-.05.06-.11.1-.16-.16-.2-.32-.4-.46-.62-.04.05-.08.1-.11.15.03.05.06.1.08.14-.04.16-.28,1.74-.3,1.91.05.07.1.14.15.21.31-.22,1-.91,1.11-1.03h0ZM20.33,55.11s0,0,0,0c.01-.27.05-.52.08-.79,0,0,0,0,.01-.01.1.22.19.41.3.63-.12.06-.26.12-.38.18h0ZM21.77,54.92c0,.07.07.22.04.28-.03.06-.43.27-.51.28-.09-.17-.15-.36-.23-.53.09-.05.37-.2.42-.19.03.04.05.09.08.14.06-.03.11-.06.17-.09-.07-.17-.15-.34-.22-.5-.06.03-.11.05-.17.08.02.05.03.11.04.16-.04.06-.32.2-.41.24-.11-.21-.19-.42-.29-.64.14-.06.36-.21.49-.23.06.04.13.15.18.22.05-.03.11-.07.16-.1,0-.04-.18-.34-.21-.41-.34.18-.75.39-1.09.55-.05.62-.11,1.26-.16,1.87-.05.03-.1.06-.15.09.02.05.05.11.07.16.19-.08.38-.18.57-.25-.02-.05-.05-.11-.07-.16-.07.02-.13.05-.19.08,0-.2.02-.46.02-.66.15-.07.32-.15.46-.22.09.16.16.38.25.55-.06.04-.12.06-.18.09.03.05.05.11.08.16.37-.17.81-.39,1.17-.58-.04-.15-.09-.29-.13-.44-.07.02-.13.04-.19.06h0ZM23.12,52.78s.08-.06.12-.1c-.03-.05-.05-.11-.08-.16-.18.12-.36.24-.54.37.03.05.05.11.08.16.06-.04.12-.08.18-.12.06.26.13,1.01.14,1.19,0,.07.01.14.02.21,0,0,0,0,0,0-.04.01-.18-.18-.22-.22l-.45-.51c-.07-.08-.14-.15-.21-.23.07-.04.14-.08.2-.12-.02-.05-.04-.11-.06-.17-.23.13-.46.26-.69.39.02.06.05.11.07.17.05-.02.1-.05.15-.07.09.1.19.2.28.3.21.22.42.44.63.65.09.09.18.18.27.27.08-.04.15-.09.23-.13-.03-.43-.06-.87-.08-1.31-.01-.18-.02-.4-.04-.57h0ZM18,61.71c0-.24,0-.48,0-.72.1,0,.21-.01.29.02.19.08.3.36.15.57-.09.12-.24.14-.44.13h0ZM18.83,62.28c-.07-.14-.18-.43-.33-.48,0,0,0-.01,0-.02.32-.09.52-.57.21-.81-.24-.19-.75-.15-1.18-.14,0,.06,0,.11,0,.17h0c.06,0,.12.01.18.01v1.43c-.06,0-.12,0-.17.01,0,.06,0,.11,0,.17h0s.69,0,.69,0c0-.06,0-.12,0-.17-.07,0-.13,0-.2,0,0-.18,0-.37,0-.55.08,0,.17-.01.23.01.17.07.27.57.41.71.03.03.38,0,.45,0v-.18c-.05,0-.11,0-.17-.01-.05-.03-.07-.1-.1-.15h0ZM14.66,62.21c-.04.15-.16.22-.33.25-.08.01-.21,0-.23-.04-.03-.03-.02-.1-.02-.15,0-.08-.01-.44.01-.48.31,0,.65.09.57.43h0ZM14.09,60.99c.2,0,.35,0,.44.12.03.05.06.13.05.21-.04.23-.22.3-.49.28,0-.2,0-.41,0-.62h0ZM14.58,61.66h-.01v-.02c.32-.13.48-.54.12-.74-.24-.14-.75-.08-1.11-.08v.17c.06,0,.12,0,.19,0v1.44c-.06,0-.13,0-.19.01,0,.05,0,.11,0,.17.41,0,.91.05,1.18-.1.19-.11.36-.4.18-.65-.09-.13-.19-.14-.35-.21h0ZM12.23,61.71c0-.24,0-.48,0-.72.1,0,.21-.01.29.02.19.08.3.36.15.57-.09.12-.24.14-.44.13h0ZM13.05,62.28c-.07-.14-.19-.43-.33-.48,0,0,0-.01,0-.02.32-.09.52-.57.21-.81-.24-.19-.75-.15-1.18-.14,0,.06,0,.11,0,.17h0c.06,0,.12.01.18.01v1.43c-.06,0-.12,0-.17.01,0,.06,0,.11,0,.17h0s.69,0,.69,0c0-.06,0-.12,0-.17-.07,0-.13,0-.2,0,0-.18,0-.37,0-.55.08,0,.17-.01.23.01.17.07.27.57.41.71.03.03.38,0,.45,0v-.18c-.05,0-.11,0-.16-.01-.06-.03-.07-.1-.1-.15h0ZM10.28,61.93c.08-.25.16-.49.25-.74,0,0,.01,0,.02,0l.24.73h-.5ZM10.72,60.8c-.06-.02-.2-.01-.26,0-.2.54-.41,1.08-.61,1.62-.04.02-.11.02-.16.02v.17h.63v-.18c-.07,0-.14,0-.2,0,.03-.11.07-.21.1-.32.2,0,.41,0,.61,0,.05.08.1.22.11.33-.06,0-.13,0-.19,0v.17h.69v-.18c-.05,0-.11,0-.16,0-.19-.55-.38-1.09-.57-1.64h0ZM24.77,53.39c-.38.31-.79-.17-.89-.63-.05-.22-.05-.44.08-.61.04-.04.07-.07.11-.11.1-.06.18-.09.26-.09.46.02.9,1.06.45,1.43h0ZM24.92,51.91c-.25-.23-.54-.27-.93-.03-.06.05-.12.11-.18.16-.17.18-.24.4-.26.63,0,.09,0,.2.03.3.02.12.1.3.16.39.25.35.53.45.94.29.67-.26.73-1.27.24-1.74h0ZM16.32,62.47c-.47.08-.66-.53-.56-.97.05-.21.14-.41.32-.48.05-.01.09-.02.14-.04.12,0,.2,0,.27.05.41.25.4,1.34-.17,1.44h0ZM16.22,60.79c-.08.02-.15.03-.23.04-.23.07-.39.23-.5.42-.04.08-.07.18-.1.27-.03.11-.03.28,0,.4.08.43.3.66.74.72.72.12,1.18-.7.93-1.36-.13-.32-.38-.51-.84-.5h0Z"/>
        <path class="cls-1" d="M1.68,32.64l25.37.03v2.84c0,12.71-11.93,20.19-12.71,20.65-.78-.46-12.68-7.75-12.68-20.46l.03-3.06ZM19.16,43.49c-2.32-2.81-5.63-1.41-5.66-1.39-.63.12-1.16.4-1.51.59l-.3.14s-.41.05-.41.05l-.7.09c-.37.08-.84.34-1.44.67l-.42.23c-.7.38-.87.69-.91.78-.15.08-.25.19-.28.33,0,.03,0,.05,0,.08,0,.12.05.23.13.32.13.41.49.33.51.33.02,0,.13-.03.13-.03.18-.06.35,0,.44.23v.05c-.04.08-.17.18-.24.2-.05.02-.09.05-.08.1.1.35.59.22.8.2h.06s.2-.04.2-.04c.27-.05.77-.07,1.02-.01.15.04.34.12.5.22-.03.06-.04.17-.1.19l-.2.04c-.31.05-.82.07-.99.48-.16.39-.06.71,0,.83l.12.15c.08.03.25-.1.4-.19.34-.2.28-.29.28-.33.02-.12.1-.17.12-.17,0,0,.07.03.07.03.2.09.71.24.98.09-.02.1-.1.4-.27.49-.14.07-.31.07-.46.06-.15,0-.26,0-.34.06-.12.1-.32.4-.37.47-.02.03-.02.07,0,.1l.03.05s.05.05.09.05h.96s.13,0,.13,0c.27,0,.61-.03.8-.19l.15-.12.49-.39.47-.41.22-.18s.08-.12.11-.2c.2.13.64.37.84.46-.08,0-.34.03-.59.13-.28.11-.43.25-.67.55-.01.02,0,.08-.03.07-.01.03-.03.03-.01.06.07.13.47.35.61.38.12.03.27-.01.43-.06l.27-.06c.1-.01,1.27-.04,2.07-.04l-.44.41c-.42.28-1.07.68-1.78,1.26-.75.62-1.31,1.45-1.31,2.03,0,.08-.09.18-.07.25.04.15.16.33.47.37,1.52.16,2.39-.77,3.12-1.56l.19-.2c.51-.54.88-1.19,1.13-1.61.1-.18.21-.36.25-.39.72-.5,1.59-1.8,1.79-3.24.15-1.09-.12-2.09-.78-2.89ZM25.01,34.57h-.56l-.55-.35h0s-.06-.03-.09-.03h-.72c-.14,0-.26-.09-.42-.2-.25-.18-.58-.42-1.19-.42-.68,0-1.02.27-1.18.48-.17-.22-.5-.48-1.18-.48-.61,0-.94.24-1.19.42-.16.12-.28.2-.42.2h-.72s-.07.01-.1.04l-.55.35h-.56c-.08,0-.14.07-.14.14v4.95c0,.08.06.14.14.14h3.85c.09.08.29.24.6.29.15.03.4.02.53,0,.3-.05.5-.21.58-.29h3.85c.08,0,.14-.06.14-.14v-4.95c0-.08-.06-.14-.14-.14ZM12.99,34.55h-.56l-.55-.35s-.06-.04-.1-.04h-.72c-.14,0-.26-.09-.42-.2-.25-.18-.58-.42-1.19-.42-.68,0-1.02.27-1.18.47-.16-.22-.5-.47-1.18-.47-.6,0-.94.24-1.18.42-.16.12-.28.2-.42.2h-.72s-.07.02-.1.04l-.54.35h-.56c-.08,0-.15.06-.15.14v4.95c0,.08.07.14.15.14h3.85c.09.08.29.24.6.29.15.03.4.02.53,0,.3-.05.5-.21.58-.29h3.85c.08,0,.15-.06.15-.14v-4.95c0-.08-.07-.14-.15-.14Z"/>
        <g id="Beaver">
          <path class="cls-1" d="M19.22,43.43c-2.36-2.85-5.73-1.43-5.76-1.42-.63.12-1.17.41-1.53.6l-.31.15-.41.05-.71.09c-.37.08-.85.34-1.47.68l-.43.23c-.72.38-.88.7-.92.79-.15.08-.25.2-.28.33,0,.03,0,.05,0,.08,0,.12.05.24.14.33.13.41.53.45.55.45.02,0,.14-.03.14-.03.18-.06.3-.08.39.15v.05c-.04.08-.19.15-.25.17-.05.02-.08.07-.06.12.1.36.6.3.82.28h.06s.21-.04.21-.04c.27-.05.77-.14,1.03-.09.16.03.34.12.51.23-.03.06-.08.1-.15.13l-.21.04c-.31.05-.79.13-.96.56-.16.4-.06.72,0,.84l.15.19c.08.04.28-.06.43-.15.34-.2.36-.32.36-.37.02-.12.1-.17.12-.18,0,0,.07.03.07.03.2.09.6.26.88.11-.02.1-.07.24-.24.33-.14.07-.32.07-.47.07-.15,0-.27,0-.34.06-.12.1-.37.51-.42.59-.02.03-.02.07,0,.11l.03.05s.05.05.09.05h.97s.13,0,.13,0c.27,0,.65.02.84-.14l.15-.12.52-.42.52-.42.23-.18s.08-.11.1-.19c.2.13.41.24.62.33-.08,0-.24.01-.49.12-.29.11-.52.34-.67.65,0,.02,0,.04,0,.06,0,.03-.01.06,0,.09.08.14.48.35.62.38.12.03.27-.02.44-.06l.28-.06c.1-.01,1.14,0,1.94,0l-.44.31c-.42.29-1.06.72-1.78,1.31-.76.63-1.31,1.55-1.31,2.14,0,.08,0,.15.03.21.05.15.17.34.48.37,1.54.17,2.46-.82,3.19-1.62l.19-.2c.52-.55.9-1.2,1.15-1.63.11-.18.22-.37.25-.4.73-.51,1.62-1.83,1.82-3.28.15-1.1-.12-2.12-.8-2.93ZM11.56,47.64c-.17.17-.58,0-.75-.08l-.15-.05c-.13,0-.29.14-.32.36,0,.03-.07.08-.15.14-.02-.03-.05-.09-.06-.18-.02-.14,0-.31-.03-.33-.05-.03-.23.3-.12.63-.06.03-.11.05-.15.06-.03-.04-.1-.18-.1-.38,0-.11.02-.23.07-.36.13-.32.52-.38.8-.43l.24-.05c.13-.05.21-.13.25-.21.12.09.22.18.25.23.07.11.18.44.23.65,0,0-.01,0-.02,0ZM14.47,48.95l-.3.07c-.13.04-.27.07-.34.06-.01,0-.02,0-.04-.01.04-.07.12-.2.25-.29.22-.15.51-.24.45-.27-.1-.05-.36-.02-.54.05-.23.09-.35.26-.42.38-.07-.04-.13-.09-.17-.12.13-.25.31-.43.54-.52.33-.13.44-.1.44-.1.12.03,1,.17,1.18.17,0,0,0,0,.01,0,.04.02.07.05.11.07.4.2.85.26,1.07.29-.02.06-.05.15-.09.23-.4,0-2-.02-2.15,0ZM19.81,46.33c-.18,1.34-1.02,2.65-1.73,3.14-.07.05-.15.18-.32.46-.25.43-.63,1.07-1.12,1.6l-.19.2c-.74.8-1.58,1.71-3.02,1.55-.16-.02-.26-.09-.3-.22-.13-.42.34-1.4,1.22-2.13.71-.58,1.34-1.01,1.76-1.3l.53-.38s.08-.08.11-.13c.01,0,.02-.02.02-.04.13-.21.16-.45.17-.46,0-.03,0-.06-.02-.08-.02-.02-.05-.04-.07-.04,0,0-.62-.03-1.1-.27-.36-.18-.61-.49-.78-.96-.23-.65.12-1.09.45-1.51.25-.32.5-.62.44-.99,0-.06-.06-.1-.12-.09-.05,0-.09.05-.09.1,0,0,0,0,0,.01,0,.03,0,.05,0,.07,0,.25-.19.49-.41.76-.26.33-.57.72-.57,1.23,0,.15.03.31.09.48.1.29.24.53.41.71-.36-.1-.9-.28-1.37-.59-.02-.01-.04-.01-.06-.01.06-.42,0-1.05-.03-1.29,0-.06-.06-.1-.11-.09-.06,0-.1.06-.09.12.08.62.09,1.36-.05,1.48l-.22.17-.53.43-.51.42-.16.12c-.12.11-.48.1-.69.09h-.14s-.16,0-.34,0c.05-.11.08-.22.04-.25-.06-.04-.25.14-.35.25h-.2c.11-.18.25-.38.31-.43l.21-.02c.17,0,.38,0,.56-.09.31-.16.35-.44.36-.53.03-.13-.19-.8-.3-.97-.13-.19-.66-.57-1.07-.65-.3-.06-.81.03-1.11.08l-.17.03h-.08c-.13.02-.41.04-.53-.06.09-.04.18-.11.23-.22v-.21c-.16-.43-.5-.32-.64-.28l-.07.02s-.23-.03-.35-.29l.19-.11c.05-.03.07-.09.04-.14-.03-.05-.09-.07-.14-.04l-.2.11s-.03-.1-.02-.14c.02-.09.09-.16.2-.21.03-.01.05-.04.06-.06,0,0,.12-.32.84-.71l.43-.24c.6-.33,1.07-.58,1.41-.66l1.14-.14.35-.16c.35-.18.87-.46,1.5-.58.05-.02,3.28-1.38,5.54,1.35.63.77.89,1.72.75,2.77Z"/>
          <path class="cls-1" d="M10.38,43.5c-.1-.05-.22-.06-.33-.02-.2.07-.27.3-.15.35.11.05.17-.06.22-.08.02,0,.06-.03.13,0,.07.03.07.08.07.09,0,.02,0,.13.1.15.09.02.29-.33-.04-.48Z"/>
          <path class="cls-1" d="M8.62,44.86c-.14.3.23.68.36.62.12-.06-.17-.32-.09-.49.09-.19.72-.46.71-.56-.01-.11-.85.15-.98.43Z"/>
          <path class="cls-1" d="M16.21,50.36c-.29-.01-.57-.05-.59.09-.02.13.28.17.59.18.21,0,.57-.04.55-.16-.02-.12-.36-.11-.55-.11Z"/>
          <path class="cls-1" d="M15.49,51.03c-.35-.01-.68-.05-.71.09-.02.13.34.17.71.18.25,0,.69-.04.67-.16-.03-.12-.43-.11-.67-.11Z"/>
          <path class="cls-1" d="M14.86,51.71c-.33-.01-.64-.04-.67.08-.02.13.32.16.67.18.24,0,.65-.04.62-.15-.02-.11-.4-.1-.62-.11Z"/>
          <path class="cls-1" d="M14.28,52.42c-.24,0-.48-.04-.5.07-.01.12.24.14.5.15.17,0,.48-.03.46-.13-.02-.1-.3-.09-.46-.09Z"/>
          <path class="cls-1" d="M8.81,44.49l.08-.03c.08-.03.12-.11.1-.19-.03-.08-.11-.12-.19-.1l-.08.03c-.08.03-.12.11-.1.19.02.08.11.12.19.1Z"/>
          <path class="cls-1" d="M13.39,42.91s-.08-.05-.12-.04l-.82.27c-.08.03-.1.14-.06.21.03.07.13.13.21.1l.77-.42s.05-.09.03-.13Z"/>
          <path class="cls-1" d="M13.46,43.76s.07-.08.05-.12c-.01-.04-.08-.07-.11-.06l-.63.09c-.08.02-.12.12-.1.2.02.08.1.16.19.14l.61-.25Z"/>
          <path class="cls-1" d="M13.43,44.35l-.5-.02c-.07,0-.12.09-.12.16,0,.07.07.15.15.15l.5-.1s.08-.06.07-.11c-.01-.04-.07-.08-.1-.07Z"/>
          <path class="cls-1" d="M13.33,45.07l-.37-.09c-.07,0-.12.07-.12.13,0,.07.05.15.12.15l.39-.03s.08-.05.07-.09c0-.04-.05-.08-.08-.08Z"/>
          <path class="cls-1" d="M16.73,42.48c-.08-.02-.16.03-.18.11-.02.08.03.16.11.18,0,0,.43.13.76.27.06.03.13,0,.16-.05.03-.06,0-.13-.05-.16-.37-.19-.79-.34-.81-.34Z"/>
          <path class="cls-1" d="M16.9,43.17c-.07-.02-.15.03-.16.1-.02.07.03.14.1.16,0,0,.32.09.58.19.06.02.12,0,.15-.05.03-.05,0-.12-.05-.14-.33-.18-.6-.26-.61-.26Z"/>
          <path class="cls-1" d="M16.93,43.82c-.06,0-.12.02-.13.08-.01.06.02.12.08.13,0,0,.3.09.4.13.05.02.11,0,.13-.04.03-.05,0-.11-.04-.13-.3-.16-.38-.16-.44-.17Z"/>
          <path class="cls-1" d="M16.89,44.4s-.11.02-.12.07c-.01.05.02.1.07.12,0,0,.18.04.26.07.05.02.1,0,.12-.04.02-.04,0-.1-.04-.12-.09-.05-.25-.1-.3-.1Z"/>
          <path class="cls-1" d="M18.86,44.01c-.3-.29-.46-.39-.47-.4-.07-.04-.16-.02-.2.05-.04.07-.02.16.05.21,0,0,.17.08.45.31.05.04.12.05.17,0,.05-.05.05-.12,0-.17Z"/>
          <path class="cls-1" d="M18.27,44.3c-.07-.04-.15-.01-.18.05-.04.06-.01.14.05.18,0,0,.1.03.32.2.05.04.11.04.15,0,.04-.04.04-.11,0-.15-.28-.25-.32-.27-.34-.28Z"/>
          <path class="cls-1" d="M18.08,44.86c-.05-.02-.12-.01-.15.04-.03.05-.01.12.04.15,0,0,.11.07.2.14.04.04.1.04.14,0,.04-.04.04-.1,0-.14-.04-.04-.16-.16-.22-.19Z"/>
          <path class="cls-1" d="M17.85,45.32s-.1-.02-.14.02c-.03.04-.02.11.02.14,0,0,.04.02.1.07.04.03.09.04.12.01.04-.03.04-.09.01-.12-.07-.08-.08-.1-.12-.12Z"/>
          <path class="cls-1" d="M19.25,45.43s.09.06.13.04c.05-.03.06-.09.03-.13-.03-.05-.08-.16-.13-.2-.05-.04-.11-.04-.15,0-.04.04-.04.11,0,.15,0,0,.06.05.12.14Z"/>
          <path class="cls-1" d="M18.96,45.54s-.1-.04-.14,0c-.04.04-.04.1,0,.14.04.04.06.05.06.06.04.04.08.05.12.03.04-.02.05-.08.03-.12-.02-.04-.04-.09-.08-.11Z"/>
        </g>
        <g id="Right_Book">
          <path class="cls-1" d="M25.14,34.47h-.57l-.57-.37h0s-.06-.04-.09-.04h-.74c-.14,0-.26-.09-.43-.21-.25-.19-.6-.44-1.22-.44-.7,0-1.05.28-1.22.49-.17-.23-.51-.49-1.21-.49-.62,0-.97.25-1.22.44-.17.12-.29.21-.43.21h-.74s-.07.01-.1.04l-.56.37h-.58c-.08,0-.15.07-.15.15v5.13c0,.08.06.15.15.15h3.95c.09.08.3.24.62.3.15.03.41.02.55,0,.31-.06.51-.21.6-.3h3.95c.08,0,.15-.07.15-.15v-5.13c0-.08-.06-.15-.15-.15ZM20.46,34.22s.16-.5,1.06-.5c.52,0,.8.2,1.04.38.19.14.37.27.61.27h.59v4.18h-.6c-.2,0-.41-.09-.66-.2-.31-.13-.66-.29-1.07-.29-.45,0-.8.26-.97.42v-4.26ZM16.86,34.36h.59c.24,0,.42-.13.61-.27.24-.18.52-.38,1.04-.38.9,0,1.06.52,1.07.54,0,0,0,3.83,0,4.22-.17-.16-.51-.42-.97-.42-.41,0-.76.15-1.07.29-.25.11-.46.2-.66.2h-.6v-4.18ZM16.23,34.71c.06-.04.21-.13.33-.22v4.2c0,.08.07.15.15.15h.75c.26,0,.51-.11.78-.22.3-.13.6-.26.95-.26.49,0,.86.42.86.43.03.03.07.05.11.05h.15s0,0,0,0c0,0,0,0,0,0h.15s.08-.02.11-.06c0,0,.37-.43.86-.43.35,0,.66.13.95.26.26.12.52.22.78.22h.75c.08,0,.15-.07.15-.15v-4.2c.13.08.28.18.33.22v4.26h-3.34s-.08.02-.11.04c0,0-.23.23-.55.27h-.15c-.33-.03-.56-.27-.56-.27-.03-.03-.07-.04-.11-.04h-3.34v-4.26ZM24.99,39.6h-3.86s-.09.02-.12.05c0,0-.17.19-.48.25-.1.02-.32.03-.44,0-.32-.06-.49-.25-.5-.26-.03-.03-.07-.05-.11-.05h-3.87v-4.83h.3v4.35c0,.08.07.15.15.15h3.43c.1.09.35.28.7.32,0,0,.21,0,.21,0,.34-.04.58-.23.68-.32h3.43c.08,0,.15-.07.15-.15v-4.35h.3v4.83Z"/>
          <path class="cls-1" d="M17.5,35.12c.07,0,.34-.02.67-.17l.24-.12.46-.19c.27-.07.55-.04.65-.02-.04,0-.06-.04-.05-.08,0-.04.05-.06.08-.05,0,0-.35-.07-.7.02l-.49.2-.24.12c-.31.14-.55.15-.62.16-.04,0-.06.03-.06.07,0,.04.03.06.07.06Z"/>
          <path class="cls-1" d="M17.5,36c.08,0,.34-.02.67-.17l.25-.12.46-.19c.27-.07.56-.04.65-.02.03,0,.07-.02.08-.05,0-.04-.02-.07-.05-.08,0,0-.35-.07-.7.02l-.49.2-.24.12c-.31.14-.55.15-.62.16-.04,0-.06.03-.06.07,0,.04.03.06.07.06Z"/>
          <path class="cls-1" d="M17.5,36.88c.07,0,.34-.02.67-.17l.24-.12.46-.19c.27-.07.55-.04.65-.02.03,0,.07-.02.08-.05,0-.04-.02-.07-.05-.08,0,0-.35-.07-.7.02l-.49.2-.24.12c-.31.14-.55.15-.62.16-.04,0-.06.03-.06.07,0,.04.03.06.07.06Z"/>
          <path class="cls-1" d="M18.17,37.59l.25-.12.46-.19c.27-.07.55-.04.65-.02-.04,0-.06-.04-.05-.08,0-.04.04-.06.08-.05,0,0-.35-.07-.7.02l-.49.19-.24.12c-.31.14-.55.16-.62.16-.04,0-.06.03-.06.07,0,.04.03.06.07.06.08,0,.34-.02.67-.17Z"/>
          <path class="cls-1" d="M21.07,34.63c.09-.02.37-.05.65.02l.46.19.25.12c.33.15.6.17.67.17.03,0,.07-.03.07-.06,0-.04-.03-.07-.06-.07-.07,0-.31-.02-.62-.16l-.24-.12-.49-.2c-.35-.09-.7-.02-.7-.02-.04,0-.06.04-.05.08,0,.04.04.06.08.05Z"/>
          <path class="cls-1" d="M21.07,35.51c.09-.02.37-.05.65.02l.46.19.25.12c.33.14.6.17.67.17.04,0,.07-.03.07-.06,0-.04-.03-.07-.06-.07-.07,0-.31-.02-.62-.16l-.24-.12-.48-.2c-.35-.09-.7-.02-.7-.02-.04,0-.06.04-.05.08,0,.04.04.06.08.05Z"/>
          <path class="cls-1" d="M21.07,36.39c.09-.02.38-.05.65.02l.46.19.25.12c.33.14.6.17.67.17.03,0,.07-.03.07-.06,0-.04-.03-.07-.06-.07-.07,0-.31-.02-.62-.16l-.24-.12-.49-.2c-.28-.07-.58-.05-.7-.02-.04,0-.06.04-.05.08,0,.04.04.06.08.05Z"/>
          <path class="cls-1" d="M22.17,37.48l.25.12c.33.15.6.17.67.17.03,0,.07-.03.07-.06,0-.04-.03-.07-.06-.07-.07,0-.31-.02-.62-.16l-.24-.12-.48-.19c-.28-.07-.58-.04-.7-.02-.04,0-.06.04-.05.08,0,.04.04.06.08.05.09-.02.38-.05.65.02l.46.19Z"/>
        </g>
        <g id="Left_Book">
          <path class="cls-1" d="M5.52,35.12c.07,0,.34-.02.67-.17l.25-.12.46-.19c.27-.07.55-.04.64-.02-.03,0-.06-.04-.05-.08,0-.04.04-.06.08-.05,0,0-.35-.07-.7.02l-.49.2-.24.12c-.31.14-.55.15-.62.16-.04,0-.07.03-.06.07,0,.04.03.06.07.06Z"/>
          <path class="cls-1" d="M5.52,36c.07,0,.34-.02.67-.17l.25-.12.46-.19c.27-.07.55-.04.64-.02.04,0,.07-.02.08-.05,0-.04-.02-.07-.05-.08,0,0-.35-.07-.7.02l-.49.2-.24.12c-.31.14-.55.15-.62.16-.04,0-.07.03-.06.07,0,.04.03.06.07.06Z"/>
          <path class="cls-1" d="M5.52,36.88c.07,0,.34-.02.67-.17l.25-.12.46-.19c.27-.07.55-.04.64-.02.04,0,.07-.02.08-.05,0-.04-.02-.07-.05-.08,0,0-.35-.07-.7.02l-.49.2-.24.12c-.31.14-.55.15-.62.16-.04,0-.07.03-.06.07,0,.04.03.06.07.06Z"/>
          <path class="cls-1" d="M5.52,37.76c.07,0,.34-.02.67-.17l.25-.12.46-.19c.27-.07.55-.04.64-.02-.03,0-.06-.04-.05-.08,0-.04.04-.06.08-.05,0,0-.35-.07-.7.02l-.49.19-.24.12c-.3.14-.55.16-.62.16-.04,0-.07.03-.06.07,0,.04.03.06.07.06Z"/>
          <path class="cls-1" d="M9.14,34.55s-.02.07-.05.08c.09-.02.38-.05.64.02l.46.19.24.12c.33.15.6.17.67.17.04,0,.07-.03.07-.06,0-.04-.03-.07-.06-.07-.07,0-.31-.02-.62-.16l-.24-.12-.49-.2c-.35-.09-.7-.02-.7-.02.04,0,.07.02.08.05Z"/>
          <path class="cls-1" d="M9.09,35.51c.09-.02.37-.05.64.02l.46.19.24.12c.33.14.59.17.67.17.04,0,.07-.03.07-.06,0-.04-.03-.07-.06-.07-.07,0-.31-.02-.62-.16l-.24-.12-.49-.2c-.36-.09-.7-.02-.7-.02-.03,0-.06.04-.05.08,0,.04.04.06.08.05Z"/>
          <path class="cls-1" d="M9.73,36.41l.46.19.24.12c.33.14.59.17.67.17.04,0,.07-.03.07-.06,0-.04-.03-.07-.06-.07-.07,0-.31-.02-.62-.16l-.24-.12-.49-.2c-.35-.09-.7-.02-.7-.02-.03,0-.06.04-.05.08,0,.04.04.06.08.05.09-.02.38-.05.64.02Z"/>
          <path class="cls-1" d="M10.19,37.48l.24.12c.33.15.59.17.67.17.04,0,.07-.03.07-.06,0-.04-.03-.07-.06-.07-.07,0-.31-.02-.62-.16l-.24-.12-.49-.19c-.35-.09-.7-.02-.7-.02.04,0,.07.02.08.05,0,.04-.02.07-.05.08.09-.02.38-.05.64.02l.46.19Z"/>
          <path class="cls-1" d="M13.14,34.48h-.57l-.56-.36s-.06-.04-.1-.04h-.74c-.15,0-.27-.09-.43-.21-.25-.19-.6-.44-1.22-.44-.7,0-1.05.27-1.21.49-.17-.23-.51-.49-1.21-.49-.62,0-.97.25-1.22.44-.17.12-.28.21-.43.21h-.74s-.08.02-.1.04l-.55.36h-.57c-.08,0-.15.07-.15.15v5.13c0,.08.07.15.15.15h3.95c.09.09.3.25.62.3.15.03.42.02.55,0,.31-.06.51-.22.6-.3h3.95c.08,0,.15-.07.15-.15v-5.13c0-.08-.07-.15-.15-.15ZM8.46,34.23s.16-.5,1.06-.5c.52,0,.8.2,1.04.38.19.14.36.27.61.27h.59v4.18h-.6c-.2,0-.41-.09-.66-.2-.31-.13-.66-.28-1.07-.28-.45,0-.8.26-.97.42v-4.26ZM4.86,34.38h.59c.24,0,.42-.13.6-.27.24-.18.52-.38,1.04-.38.9,0,1.06.51,1.07.54,0,0,0,3.83,0,4.22-.17-.16-.52-.42-.97-.42-.41,0-.76.15-1.07.28-.25.11-.46.2-.66.2h-.6v-4.18ZM4.23,34.72c.06-.04.2-.13.33-.21v4.2c0,.08.07.15.15.15h.75c.26,0,.51-.11.78-.22.3-.13.6-.26.95-.26.49,0,.85.43.86.43.03.03.07.05.11.05h.15s0,0,0,0h.15s.08-.02.11-.05c0,0,.37-.43.86-.43.35,0,.65.13.95.26.27.12.52.22.78.22h.75c.08,0,.15-.07.15-.15v-4.2c.13.08.28.18.33.21v4.26h-3.34s-.08.02-.11.05c0,0-.23.23-.55.27h-.15c-.33-.03-.56-.27-.57-.27-.03-.03-.07-.05-.11-.05h-3.34v-4.26ZM12.99,39.61h-3.87s-.09.02-.11.05c0,0-.17.2-.48.25-.1.02-.32.02-.44,0-.32-.06-.5-.25-.5-.26-.03-.03-.07-.05-.11-.05h-3.87v-4.83h.31v4.35c0,.08.07.15.15.15h3.43c.1.09.35.28.7.32,0,0,.21,0,.21,0,.34-.04.58-.23.68-.31h3.43c.08,0,.15-.07.15-.15v-4.35h.31v4.83Z"/>
        </g>
        <g id="Crown">
          <path class="cls-1" d="M14.3,29.69c-1.89,0-3.9.45-3.9,1.29,0,.38.42.69,1.06.9.07.03.26.08.27.04,0,0-.23-.12-.23-.12-.58-.26-.8-.59-.8-.83,0-.47,1.54-1,3.6-1s3.6.53,3.6,1c0,.24-.21.56-.77.83,0,0-.22.09-.23.11-.02.04.25-.04.25-.04.63-.21,1.05-.52,1.05-.9,0-.84-2.01-1.29-3.9-1.29Z"/>
          <path class="cls-1" d="M18.77,28.24c-.18.22-.55.86-.59,1.06,0,0,0,.02,0,.02,0,0-.01,0-.02,0-.16-.09-.35-.19-.62-.29-.82-.31-1.99-.48-3.21-.48h-.01c-1.22,0-2.39.18-3.21.48-.26.1-.46.2-.62.29,0,0-.02,0-.02,0,0,0,0-.01,0-.02-.04-.2-.41-.84-.59-1.06-.05-.06-.12,0-.09.06.29.56.38,1.03.41,1.21.02.09.03.15.1.19.05.02.1.02.14-.01.17-.11.4-.24.76-.38.78-.29,1.92-.46,3.1-.46h.01c1.19,0,2.32.17,3.11.46.36.14.59.27.76.38.04.03.09.03.14.01.08-.03.09-.1.1-.19.03-.18.12-.65.41-1.21.03-.06-.04-.12-.09-.06Z"/>
          <path class="cls-1" d="M14.59,29.26c0-.15-.12-.27-.26-.27s-.27.12-.27.27.12.27.27.27.26-.12.26-.27Z"/>
          <path class="cls-1" d="M12.72,29.41c0-.15-.12-.27-.27-.27s-.27.12-.27.27.12.26.27.26.27-.12.27-.26Z"/>
          <path class="cls-1" d="M10.81,30.23c.13-.07.18-.23.1-.36-.07-.13-.23-.17-.36-.1-.13.07-.17.23-.1.36.07.13.23.17.36.1Z"/>
          <path class="cls-1" d="M11.68,29.63c0-.08-.06-.14-.14-.14s-.14.06-.14.14.06.14.14.14.14-.06.14-.14Z"/>
          <path class="cls-1" d="M13.52,29.31c0-.08-.06-.14-.14-.14-.07,0-.14.06-.14.14s.06.14.14.14c.08,0,.14-.06.14-.14Z"/>
          <path class="cls-1" d="M16.46,29.41c0-.15-.12-.27-.27-.27s-.27.12-.27.27.12.26.27.26.27-.12.27-.26Z"/>
          <path class="cls-1" d="M18.09,29.76c-.13-.07-.29-.02-.36.1-.07.13-.03.29.1.36.13.07.29.03.36-.1.07-.13.02-.29-.1-.36Z"/>
          <path class="cls-1" d="M17.24,29.63c0-.08-.06-.14-.14-.14s-.14.06-.14.14.06.14.14.14.14-.06.14-.14Z"/>
          <path class="cls-1" d="M15.4,29.31c0-.08-.06-.14-.14-.14s-.14.06-.14.14.06.14.14.14c.08,0,.14-.06.14-.14Z"/>
          <path class="cls-1" d="M14.32,26.03c-.15,0-.27.12-.27.27s.12.27.27.27.27-.12.27-.27-.12-.27-.27-.27Z"/>
          <path class="cls-1" d="M14.32,25.27c-.15,0-.27.12-.27.27s.12.27.27.27.27-.12.27-.27-.12-.27-.27-.27Z"/>
          <path class="cls-1" d="M14.32,24.52c-.15,0-.27.12-.27.27s.12.27.27.27.27-.12.27-.27-.12-.27-.27-.27Z"/>
          <path class="cls-1" d="M13.02,25.13c.15,0,.27-.12.27-.27s-.12-.27-.27-.27-.27.12-.27.27.12.27.27.27Z"/>
          <path class="cls-1" d="M12.13,24.84c.15,0,.27-.12.27-.27s-.12-.27-.27-.27-.27.12-.27.27.12.27.27.27Z"/>
          <path class="cls-1" d="M11.22,24.64c.15,0,.27-.12.27-.27s-.12-.27-.27-.27-.27.12-.27.27.12.27.27.27Z"/>
          <path class="cls-1" d="M10.3,24.77c.15,0,.27-.12.27-.27s-.12-.27-.27-.27-.27.12-.27.27.12.27.27.27Z"/>
          <path class="cls-1" d="M9.5,25.27c.15,0,.27-.12.27-.27s-.12-.27-.27-.27-.27.12-.27.27.12.27.27.27Z"/>
          <path class="cls-1" d="M9.03,26.08c.15,0,.27-.12.27-.27s-.12-.27-.27-.27-.27.12-.27.27.12.27.27.27Z"/>
          <path class="cls-1" d="M9.31,26.76c0-.15-.12-.27-.27-.27s-.27.12-.27.27.12.27.27.27.27-.12.27-.27Z"/>
          <path class="cls-1" d="M9.38,27.37c-.15,0-.27.12-.27.27s.12.27.27.27.27-.12.27-.27-.12-.27-.27-.27Z"/>
          <path class="cls-1" d="M17.42,31.23c0-.65-2.04-.83-3.12-.83s-3.12.17-3.12.83,2.04.83,3.12.83,3.12-.17,3.12-.83ZM14.3,31.76c-1.86,0-2.82-.37-2.82-.53s.96-.53,2.82-.53,2.82.37,2.82.53-.96.53-2.82.53Z"/>
          <path class="cls-1" d="M13.89,23.95h.28v.3c0,.08.07.15.15.15s.15-.07.15-.15v-.3h.28c.08,0,.15-.07.15-.15s-.07-.15-.15-.15h-.28v-.27c0-.08-.07-.15-.15-.15s-.15.07-.15.15v.27h-.28c-.08,0-.15.07-.15.15s.07.15.15.15Z"/>
          <path class="cls-1" d="M10.38,28.35h0s0,.02,0,.02h0c.13.26.47.48.9.34.22-.07.44-.11.57-.37.07-.13.12-.3-.02-.49-.04-.05-.15-.11-.2-.08-.04.02-.07.1-.02.16.07.08.03.22-.09.29-.08.04-.18,0-.19-.03,0-.02.16-.12.01-.24-.11-.08-.4-.37,0-.55.31-.14.54.27.57.33.03.06.07.03.05-.02-.06-.3-.31-.39-.38-.72-.05-.24.12-.44.22-.53.03-.03.09-.04.14-.02.12.05.34.16.39.4.07.33-.13.51-.07.81.01.06.05.07.06,0,0-.06.06-.54.4-.52.43.02.27.39.21.51-.09.17.1.2.1.21.01.03-.06.12-.16.11-.13-.01-.23-.13-.19-.23.02-.07-.04-.14-.08-.14-.06,0-.14.09-.15.15-.06.23.05.37.16.46.22.18.55.16.73.14.61-.06.64-.43.64-.43-.12.05-.4.15-.4.15-.01,0-.02,0-.03,0-.05,0-.09-.04-.09-.09v-.58c0-.05.04-.09.09-.09,0,0,.03,0,.04,0l.41.17-.12-.33s0-.03,0-.04c0-.05.04-.09.09-.09h.7c.05,0,.09.04.09.09,0,.01,0,.03,0,.04l-.12.33.42-.17s.04,0,.04,0c.05,0,.09.04.09.09v.58c0,.05-.04.09-.09.09-.01,0-.02,0-.03,0,0,0-.28-.1-.41-.15,0,0,.04.37.65.43.18.02.52.04.74-.14.11-.1.23-.24.16-.46-.02-.06-.09-.16-.15-.15-.04,0-.1.07-.08.14.03.1-.06.22-.19.23-.1.01-.17-.08-.16-.11,0,0,.19-.04.1-.21-.07-.12-.23-.49.21-.51.34-.01.39.46.4.52,0,.06.05.06.06,0,.06-.3-.14-.48-.07-.81.05-.23.27-.35.39-.4.05-.02.1,0,.14.02.09.09.26.28.21.53-.06.33-.32.42-.38.72-.01.06.02.08.05.02.03-.06.27-.47.57-.33.39.18.1.46,0,.55-.15.12.02.23.01.24,0,.04-.1.08-.19.03-.12-.06-.16-.21-.09-.29.05-.06.02-.14-.02-.16-.05-.03-.16.03-.2.08-.15.19-.1.36-.03.49.13.25.36.3.58.37.43.14.77-.08.9-.34h0s0-.01,0-.01h0c.28-.39.95-1.29.95-2.12s-.71-1.43-1.66-1.43c-.42,0-.81.14-1.19.28-.42.15-.81.29-1.22.25v-.83c0-.08-.07-.15-.15-.15s-.15.07-.15.15v2.19h-1.06v-2.19c0-.08-.07-.15-.15-.15s-.15.07-.15.15v.83c-.4.04-.8-.1-1.21-.25-.38-.14-.77-.28-1.19-.28-.95,0-1.66.61-1.66,1.43s.66,1.73.95,2.11ZM16.47,25.38c.37-.14.72-.27,1.09-.27.78,0,1.37.48,1.37,1.13,0,.21-.06.44-.14.66-.04-.15-.1-.3-.21-.45-.25-.32-.65-.49-1.2-.48-.25-.26-.73-.44-1.23-.45-.04,0-.08,0-.12,0,.15-.05.3-.1.45-.15ZM15.15,25.65c.1,0,.19,0,.28,0-.1.04-.19.09-.28.15v-.15ZM15.16,26.2c.28-.34.73-.38.98-.38.5,0,.92.21,1.06.4.03.04.08.06.12.06.48-.02.82.11,1.01.36.22.28.21.67.15.85h0c-.05.09-.1.17-.14.24.05-.53-.29-.89-.65-1.07,0,0-.1-.05-.14,0-.07.11.64.6.46,1.23-.11.37-.31.5-.47.55-.02,0-.03,0-.06,0,.08-.07.12-.16.12-.25,0-.03,0-.05,0-.08,0,0,0,0,0-.02.1-.1.21-.26.21-.45,0-.02,0-.04,0-.05-.01-.13-.09-.32-.37-.45-.03-.02-.06-.02-.1-.03,0-.02.01-.04.02-.05,0-.05.01-.1.01-.14,0-.34-.24-.61-.4-.73,0,0-.12-.09-.25-.05-.19.05-.61.25-.69.65,0,.02,0,.04,0,.06-.03,0-.07,0-.1,0-.21,0-.35.08-.43.17,0-.07-.08-.13-.2-.1.08-.11.21-.26.37-.37.2-.16.43-.25.43-.28,0-.04-.09-.07-.19-.06-.12,0-.25.06-.3.08-.18.09-.32.21-.44.32v-.38s0,0,.01,0ZM13.16,27c-.08-.08-.21-.16-.43-.17-.04,0-.07,0-.1,0,0-.02,0-.04,0-.06-.08-.4-.5-.6-.69-.65-.13-.04-.25.05-.25.05-.16.12-.4.39-.4.73,0,.04,0,.09.01.14,0,.02,0,.04.02.05-.03,0-.07.02-.1.03-.28.13-.35.32-.37.45,0,.02,0,.04,0,.05,0,.19.11.34.21.45,0,0,0,.01,0,.02,0,.03-.01.06-.01.08,0,.09.05.18.12.25-.02,0-.04,0-.06,0-.16-.05-.36-.19-.47-.55-.19-.63.53-1.13.45-1.23-.03-.05-.14,0-.14,0-.35.18-.69.54-.65,1.07-.05-.07-.09-.15-.14-.23,0,0,0,0,0-.01-.05-.18-.06-.57.15-.85.2-.26.54-.38,1.01-.36.05,0,.09-.02.12-.06.14-.19.56-.39,1.06-.4.25,0,.7.04.98.38,0,0,0,0,0,0v.38c-.11-.12-.26-.24-.44-.32-.05-.02-.18-.07-.3-.08-.1,0-.19.02-.19.06,0,.04.23.12.43.28.15.12.29.27.37.37-.13-.03-.21.03-.21.1ZM13.5,25.65v.15c-.08-.06-.17-.11-.27-.15.09,0,.18,0,.27,0ZM11.09,25.11c.36,0,.71.13,1.09.27.15.05.3.11.45.15-.04,0-.08,0-.13,0-.5,0-.98.2-1.23.45-.55,0-.95.15-1.2.48-.11.14-.17.29-.21.45-.08-.22-.14-.45-.14-.66,0-.64.59-1.13,1.37-1.13Z"/>
          <path class="cls-1" d="M15.63,25.13c.15,0,.27-.12.27-.27s-.12-.27-.27-.27-.27.12-.27.27.12.27.27.27Z"/>
          <path class="cls-1" d="M16.52,24.84c.15,0,.27-.12.27-.27s-.12-.27-.27-.27-.27.12-.27.27.12.27.27.27Z"/>
          <path class="cls-1" d="M17.43,24.64c.15,0,.27-.12.27-.27s-.12-.27-.27-.27-.27.12-.27.27.12.27.27.27Z"/>
          <path class="cls-1" d="M18.35,24.77c.15,0,.27-.12.27-.27s-.12-.27-.27-.27-.27.12-.27.27.12.27.27.27Z"/>
          <path class="cls-1" d="M19.15,25.27c.15,0,.27-.12.27-.27s-.12-.27-.27-.27-.27.12-.27.27.12.27.27.27Z"/>
          <path class="cls-1" d="M19.62,26.08c.15,0,.27-.12.27-.27s-.12-.27-.27-.27-.27.12-.27.27.12.27.27.27Z"/>
          <path class="cls-1" d="M19.61,26.49c-.15,0-.27.12-.27.27s.12.27.27.27.27-.12.27-.27-.12-.27-.27-.27Z"/>
          <path class="cls-1" d="M19.28,27.37c-.15,0-.27.12-.27.27s.12.27.27.27.27-.12.27-.27-.12-.27-.27-.27Z"/>
          <polygon class="cls-1" points="14.33 27 14.32 27 14.32 27 14.33 27"/>
        </g>
        <path id="Tree" class="cls-1" d="M23.03,11.55s.04-.09.04-.15c0-.11-.04-.23-.16-.35-.31-.32-.81,0-1.06.15-.02-.08-.06-.17-.14-.23.02-.04.03-.09.02-.14-.02-.19-.21-.28-.32-.32h-.02c.23.01.59.01.68-.32v-.19s.25.02.25.02c.33.07.84.18,1.02-.17.02-.05.03-.1.03-.14,0-.12-.07-.24-.12-.32,0,0-.01-.02-.03-.05.15-.07.54-.27.54-.66,0-.09-.02-.2-.08-.32-.18-.4-.58-.28-.8-.22l-.08.02v-.02s0-.08,0-.13c0-.09-.02-.19-.09-.28-.05-.06-.12-.11-.21-.14.09-.11.16-.24.16-.4,0-.08-.02-.16-.05-.25-.05-.13-.14-.22-.26-.26-.26-.1-.59.04-.78.12-.01-.03-.03-.07-.05-.11.02-.05.03-.11.03-.17,0-.12-.03-.22-.07-.31.14-.09.35-.26.4-.48,0-.03,0-.06,0-.08,0-.1-.04-.2-.11-.28-.28-.34-.7-.2-.89-.13,0,0-.01,0-.03,0-.06-.12-.15-.26-.37-.31-.26-.06-.52.17-.72.34,0,0-.05.04-.09.07-.01-.01-.03-.03-.03-.03l-.29-.19c-.26-.05-.55.37-.62.48,0,0,0,0-.01,0-.04-.08-.1-.13-.15-.16.02-.02.04-.03.04-.03.14-.13.36-.32.37-.57h0c0-.15-.06-.27-.17-.39-.15-.15-.31-.22-.48-.22-.3,0-.53.26-.69.42,0,0-.01.01-.02.02-.02-.05-.04-.1-.07-.15.02-.05.02-.11.02-.17,0-.07-.01-.13-.03-.19-.02-.04-.05-.07-.08-.1.17-.14.39-.36.39-.6,0-.06-.01-.13-.05-.19-.15-.27-.34-.32-.47-.35,0,0,0-.01,0-.01,0-.06.01-.14.01-.23,0-.22-.06-.49-.38-.57-.39-.1-.64.24-.78.43,0,0-.02.02-.04.04-.08-.08-.23-.21-.45-.19-.1-.16-.25-.26-.45-.29-.37-.05-.51.4-.61.69,0,0-.04.1-.05.15-.02,0-.05-.01-.05-.01-.1-.03-.26-.07-.42.02-.15.09-.2.22-.2.36,0,.23.14.5.24.7,0,0,.02.04.04.09-.17.03-.31.09-.39.21-.04.06-.06.12-.08.19-.02-.02-.04-.05-.06-.07.05-.25.16-1.05-.02-1.27-.05-.07-.13-.11-.22-.11-.03,0-.06.02-.09.03,0-.29-.07-.7-.37-.8-.23-.07-.36,0-.44.07-.18-.23-.54-.66-.94-.47-.18.08-.24.24-.24.41,0,.21.09.45.15.6,0,0,0,.02.01.03-.14.01-.36.06-.42.32-.01.04-.02.08-.02.11,0,0,0,.02,0,.03-.23-.16-.53-.27-.86-.04-.17.12-.22.28-.22.44,0,.27.15.54.23.69-.13.06-.32.16-.34.41,0,.03,0,.05,0,.08,0,.47.51.62.8.7,0,0,.02,0,.05.02,0,0,0,0,0,0-.03.04-.17.12-.24.13,0,0-.1-.07-.1-.07-.24-.15-.73-.47-1.15-.02-.1.1-.13.21-.13.31,0,.23.18.44.28.56,0,0,.09.11.09.11-.01,0-.05.09-.05.09l-.09.3s0,.05,0,.08c0,0-.04.03-.07.04,0-.06-.01-.14-.01-.14-.02-.27-.04-.65-.34-.74-.19-.06-.3.06-.38.14,0,0,0-.02,0-.02-.05-.29-.12-.79-.49-.79-.2,0-.31.19-.38.34,0,0-.01.02-.03.04-.01-.02-.03-.03-.03-.03-.12-.14-.33-.41-.63-.28-.25.11-.32.34-.32.55,0,.14.03.28.05.38,0,0,0,.04.01.08-.02,0-.04.02-.04.02-.12.06-.28.14-.35.3-.02.05-.02.09-.02.14,0,.3.37.53.65.68-.07.05-.14.1-.19.16-.17-.09-.37-.13-.55-.06-.21.08-.25.27-.25.42,0,.02,0,.04,0,.06-.18-.05-.49-.09-.67.28-.05.12-.08.22-.08.31,0,.11.03.19.06.25.12.24.4.36.6.42-.04.06-.09.12-.1.21l.1.32c.2.23.48.11.69.03.24-.1.33-.12.39-.04,0,.03-.07.13-.14.22-.05-.01-.1-.02-.16,0-.2.04-.28.17-.32.29-.18-.15-.47-.4-.78-.33-.24.05-.3.23-.3.39,0,.07.01.14.02.19h0s-.04,0-.04,0c-.18-.04-.42-.09-.61.03-.1.07-.17.18-.2.33,0,.04,0,.08,0,.12,0,.41.44.55.66.61-.05.07-.12.18-.12.3,0,.09.03.19.14.28.36.33.72.09.89-.03h.02s.02.11.03.16c0,0,0,.06.01.09-.03.01-.07.02-.07.02-.15.04-.35.1-.44.27-.03.05-.04.12-.04.18,0,.06.01.12.03.19.14.4.56.38.75.37,0,0,.03,0,.06,0,0,.02,0,.03,0,.03.01.11.03.27.17.41.36.33.86-.08,1.07-.25,0,0,0,0,0,0,.04.03.08.06.12.09.03.09.08.16.12.21h0s-.04.04-.04.04c-.13.12-.39.37-.39.66,0,.1.03.21.11.32.18.27.59.08.91-.08,0,0,.19-.08.22-.09,0,0,0,0,0,0,0,.02,0,.04,0,.04.03.12.1.39.5.31.47-.1.6-.46.7-.72.03-.08.06-.14.09-.2.04.04.17.2.17.2l.2-.03c.27-.17.48-.8.54-1.03.57.27,1.1,1.09,1.19,1.3.05.14.27.48.58.98.19.3.41.65.45.75-.12.81-.5,1.42-1.06,1.71l-.24.12c-.53.26-1.32.66-1.69.97-.04,0-.08,0-.12,0-.31,0-.5.09-.59.15-.21-.11-.44-.17-.64-.17-.58,0-.84.27-.97.51-.19.36-.13.83.03,1.05.22.31.54.46.95.46.29,0,.46-.08.56-.15.11.06.3.13.57.13.32,0,.51-.08.61-.14.17.1.35.16.54.16.27,0,.43-.08.52-.15.11.06.28.13.53.13.29,0,.47-.08.57-.14.17.1.35.15.54.15.27,0,.43-.08.52-.15.1.06.28.13.53.13.29,0,.47-.07.57-.13.16.09.35.15.54.15.27,0,.43-.08.52-.15.1.06.28.13.53.13.29,0,.47-.08.57-.14.17.09.35.15.54.15.27,0,.43-.08.52-.15.11.06.28.13.53.13.32,0,.51-.1.6-.16.21.11.45.17.66.17.46,0,.81-.18.98-.53.18-.36.12-.82-.04-1.04-.24-.31-.54-.46-.95-.46-.29,0-.46.08-.56.15-.09-.04-.23-.1-.42-.12-.17-.34-.43-.46-1.34-.84l-.12-.05c-.97-.41-1.19-.8-1.36-1.11l-.03-.04c-.16-.28-.49-1.99.2-3.04.39-.6.88-.87,1.15-.98.05.29.13.69.28.85l.24.12s.07-.04.13-.07c.02.04.04.09.04.09.12.29.28.69.6.73.26.03.37-.07.43-.17.14.14.33.34.58.33.24,0,.35-.15.41-.23.15.05.51.17.73-.16.06-.09.08-.17.08-.24,0-.19-.17-.33-.25-.4,0,0,0,0-.02-.01.05-.05.13-.13.13-.25.09,0,.18-.02.27-.07.14-.09.16-.22.17-.31,0,0,.01,0,.02,0,.15.02.45.05.57-.23.03-.07.04-.13.05-.18.13-.06.19-.17.22-.26h0c.19.09.46.21.66.12.21-.1.24-.34.25-.48h0c.17.03.44.09.65-.06.11-.08.18-.21.21-.38,0-.04,0-.07,0-.11,0-.51-.58-.61-.82-.65ZM21.65,11.05c-.02.06-.07.1-.12.1.04-.03.08-.06.12-.1ZM21.44,10.85s-.09.08-.09.08l-.13.12-.05.12c-.05.18-.17.54-.85.67-.01-.02-.03-.04-.04-.06-.1-.15-.21-.33-.24-.57-.04-.34,0-.59.04-.75.54-.06.92.01,1.07.21.01.02.15.1.15.1.04.01.13.05.14.08ZM18.29,10.87l.09.22.04.06c-.2.15-.51.06-.71,0l-.27-.02c-.11.05-.13.16-.14.24l-.02.08c-.11.02-.63-.1-.8-.2.12-.16.24-.29.36-.37,0,0,0,0,0,0,.15-.07.33-.16.49-.21.36-.12.85-.34.81-.42-.04-.09-.54.02-.9.14-.29.1-.73.26-.93.34.11-.35.31-.76.46-.79.06.11.16.13.19.12l.27-.2c.36-.35.49-.39.53-.37l.04.05.14.14c.11.05.2-.02.32-.1.07-.04.23-.15.28-.13.07.03.08.06.1.11l.12.16h.3c.12-.03.4-.09.44,0,.08.2,0,.28-.23.39-.11.05-.22.11-.22.24l.05.19.03.12c-.02.06-.07.09-.14.1-.03,0-.05,0-.08.01-.08,0-.18,0-.31-.02l-.28.02s-.06-.02-.08.02c-.03.04,0,.04.02.09ZM16.28,12.77c-.13.15-.26.3-.37.44,0-.05,0-.08,0-.13.02-.33.03-.71.15-1.02.08-.21.17-.4.27-.56.1.06.23.11.37.14,0,.09-.05.11-.13.15l-.27.19c-.19.24-.14.58-.02.78ZM15.65,10.2c.03-.14.06-.29.11-.45.08-.26.6-1.17.48-1.22-.12-.05-.63.84-.71,1.13-.03.09-.05.17-.08.26-.11-.22-.22-.5-.22-.71,0-.09.02-.17.07-.22.04-.05.07-.05.11-.05l.12-.02c.06-.03.08-.08.08-.13,0-.06-.03-.12-.05-.19-.06-.13-.16-.38-.16-.58,0-.06,0-.12.03-.17.03-.07.1-.12.19-.16,0,0,.05.03.05.03.1.07.19.07.25,0l.06-.18c.02-.14.08-.57.26-.57l.08.03s.11.07.2.02l.08-.06c.3-.27.39-.25.4-.24.05.03.07.21.07.3.01.14.02.25.11.31l.21.05h.11c.11.28-.1.5-.33.67-.06.05-.13.1-.1.2,0,0,.13.13.13.13l.09.06c.03.13-.36.35-.49.42l-.22.19s-.06.02-.05.07c0,.05.03.03.08.05l.17.09h.06c.07.33-.8.78-1.19.93ZM16.16,10.29c-.1.24-.16.47-.19.58-.06.03-.13.06-.18.09,0,0-.05.02-.09.04,0,0,0-.03,0-.03-.01-.19-.02-.34-.05-.46.11-.04.3-.12.51-.22ZM15.33,10.15s.02-.02.03-.03c0,0,.01,0,.02,0,0,.02-.01.05-.02.07-.01,0-.02-.02-.03-.03ZM15.5,10.57h0s0,.03-.01.03c0,0,0-.02.01-.03ZM15.2,10.1c-.07,0-.15,0-.2.02h0c-.03-.22-.13-.68-.34-.85-.19-.16-.43,0-.56.08-.12-.26-.38-.62-.67-.69-.01-.02-.03-.03-.05-.04-.12-.1-.24-.22-.22-.41.01-.09.11-.13.2-.17.15-.07.14-.19.13-.35-.03-.36,0-.59.18-.63.25-.06.45.19.65.45l.22.21c.13.04.23-.07.29-.15.09-.11.11-.11.13-.1.12.06.17.21.19.28-.03.09-.05.17-.05.27,0,.24.09.48.16.64-.06.02-.13.05-.19.13-.1.11-.14.26-.14.42,0,.31.15.67.27.89ZM14.81,11.94c.05.24.07.47.07.66,0,.07,0,.14,0,.2,0,.18-.12.61-.2.89-.02-.04-.48-.8-.48-.8-.23-.39-.29-.75-.3-1.02,0,0,0,0,.01,0,.38.15.54.12.83.07h.07ZM14.99,11.28c-.06-.04-.13-.11-.2-.2-.03-.04-.17-.21-.37-.36-.34-.25-.8-.51-.84-.43-.04.08.36.36.65.61.2.18.33.39.41.56,0,.02.02.03.02.05.02.05.04.1.06.14h-.04c-.27.05-.37.07-.67-.05l-.12-.07s.02-.21.02-.21c0-.04.02-.06-.02-.09-.04-.03-.04-.01-.09,0l-.28.06c-.15.06-.39.17-.53.11-.02,0-.07-.03-.1-.14-.08-.22,0-.29.06-.36.05-.04.12-.11.1-.22-.02-.13-.15-.16-.31-.18-.28-.05-.45-.1-.45-.24,0-.08.12-.21.2-.26.03-.02.05-.06.06-.1,0-.04,0-.08-.03-.11-.01-.01-.25-.34-.02-.51.21-.16.35-.04.38,0,.04.05.11.07.16.04.06-.02.1-.08.1-.14,0,0,0-.21.15-.24.13-.03.45.35.55.64.01.04.06.09.1.11.09.03.17-.02.27-.08.05-.03.18-.12.22-.11.13.11.25.59.25.73,0,.05.04.12.07.15.08.07.18.05.27.03h.13s-.04.31-.19.86ZM12.61,11.3s0,0,0,.01v.1c-.02.19-.3.41-.42.49-.06-.06-.12-.09-.18-.12-.03-.08-.12-.39-.18-.76-.11-.68-.14-.92-.23-.9-.08.03-.13.24-.05.9.02.15.04.29.07.41-.02-.02-.05-.04-.07-.06l-.22-.03s-.02.02-.04.03c-.05-.3-.18-.56-.33-.71,0-.02,0-.04-.01-.06-.02-.05-.02-.15,0-.18.02,0,.19-.23.19-.23.02-.1-.05-.17-.13-.25-.14-.14-.26-.27-.21-.41,0-.02.02-.03.09-.06l.13-.07c.07-.06.07-.15.06-.27-.02-.27,0-.53.24-.64h.07c.12.05.27.32.33.49,0,.03.02.05.05.07.08.07.17.03.24,0,.13-.06.24-.09.34.01-.14.12-.19.26-.19.4s.05.27.11.38c-.1.09-.22.24-.22.42,0,.4.42.48.66.53-.06.08-.1.17-.1.3,0,.06.01.13.04.21ZM12.45,12.35s.03,0,.03,0c.3.09.92.26,1.12,1.43.09.51.12.85.12,1.08,0,.15-.01.24-.02.29-.3-.22-1.12-.97-1.12-1.89,0-.01,0-.12,0-.15,0-.33-.05-.57-.12-.77ZM10.63,10.57c-.06.02-.1.09-.15.15-.11-.23-.27-.41-.52-.47-.18-.04-.27.12-.33.23-.15-.1-.39-.25-.63-.2-.05.01-.09.04-.13.06-.23-.09-.42-.09-.58-.06,0-.04-.01-.08-.02-.11,0,0-.16-.18-.16-.18-.15-.1-.28-.19-.24-.36.03-.12.13-.17.27-.21h0s.09,0,.12-.03l.25-.11.05-.13c.03-.1.05-.14.08-.15.09.18.23.34.42.46.03.22.15.38.35.47.33.14.84.05,1.12-.07.07.12.16.22.23.29h0s-.1.11-.1.11c-.04.05-.06.15-.06.24,0,.02,0,.04,0,.06ZM7.67,11.37l-.05-.16s-.02-.05-.02-.06c-.04-.09-.07-.16-.02-.24.05-.08.14-.09.24-.08h.11s.1-.08.1-.08c.12-.09.32-.25.64-.17-.03.08-.05.15-.05.22,0,.18.1.31.19.41l-.55.92c-.12-.07-.35-.22-.45-.41l-.13-.35ZM9.45,9.13c-.11.11-.16.12-.17.12,0,0,0,0-.01,0-.34-.19-.46-.57-.46-.88h0s-.04-.2-.04-.2c0,0-.01-.04-.01-.05,0,.02.07.01.07.01h.14s.12-.03.12-.03c.17-.04.5-.1.93.04-.03.18-.28.73-.55,1.01ZM11.93,8.79s0,0,0,0c.04.02.02.06.04.1,0-.01-.02-.05-.04-.1ZM11.58,6.17s-.03-.18,0-.21c.06-.02.18.08.23.12.02.02.02.03.04.04l.17.04c.17,0,.5.03.76.52-.19.06-.45.16-.69.29-.2.12-.37.23-.5.32-.25-.47-.11-.72-.04-.84l.05-.11v-.17ZM11.6,7.76s0,0,0-.01h0ZM15.67,5.78s.1-.05.1-.05c.06-.04.16-.1.23-.08.08.03.1.07.12.15l.02.08c.06.12.19.39.13.79,0,0,0-.01-.02-.01-.12-.06-.76-.26-1.24-.29.14-.35.5-.52.67-.58ZM14.83,6.05s0,0,0,0l-.02-.03s.02.02.03.03ZM17.77,7.32c.12-.08.29-.21.35-.39.02-.05.02-.1.02-.14,0-.1-.04-.17-.07-.23.08-.04.14-.07.21-.11.08.06.17.23.2.29.02.04.15.15.15.15.12.03.23-.04.36-.11.22-.13.39-.21.53-.1.13.1.14.19.14.24-.21.12-.36.38-.42.5-.29-.03-.56.02-.81.17-.13-.04-.55.08-.76.44-.06.09-.1.22-.12.35-.03-.03-.08-.09-.13-.14.25-.21.39-.44.39-.67,0-.08-.02-.16-.05-.23ZM19.73,7.79l-.04.13v.09s0,.09,0,.14c0,.2-.05.49-.34.73-.27-.1-.51-.24-.66-.46l-.11-.25c-.03-.1-.05-.21-.04-.34.4-.24.75-.15.87-.11.02,0,.02.02.05.01l.2-.04s.1-.03.1-.03c-.02,0-.05.12-.05.12ZM18.26,7.74s0-.03,0-.04c0,.01,0,.03,0,.04h0ZM17.93,8.17s0,0,0,0c.06-.1.14-.16.21-.21l-.21.22ZM18.02,9.1s-.04-.04-.05-.05c-.07-.11-.1-.23-.11-.35l.16.41ZM17.13,9.24c-.02-.08-.06-.11-.1-.15.19-.1.43-.26.52-.46.01.19.06.39.17.57-.23.03-.49.26-.68.45,0,0,0,0-.02.02,0-.01.02-.02.03-.03.07-.1.1-.21.1-.31,0-.03,0-.06,0-.09ZM19.37,10.34s.02.04.02.05h0s-.02-.05-.02-.05ZM19.4,10.4s0-.01,0-.02c.02,0,.04-.02.04-.02,0,0,0,0,0,0l-.03.07s0-.03,0-.03ZM22.52,8.09l.02.24c.08.19.28.13.44.08.26-.08.38-.09.45.05.13.29,0,.44-.32.59l-.17.14c-.05.12.02.24.08.33.03.05.09.14.08.17-.08.15-.45.07-.69.02-.23-.05-.38-.08-.48,0-.13.1-.12.22-.11.29v.08c-.04.12-.2.12-.45.09-.12-.01-.23-.02-.28.06-.23-.1-.55-.13-.96-.09-.01-.02-.02-.04-.04-.06-.05-.05-.14-.08-.25-.1.02-.05.03-.1.03-.15,0-.02,0-.05,0-.08.39.02,1.21.05,1.42-.43.02-.05.03-.09.03-.14,0-.1-.04-.2-.09-.28.41,0,1.05-.02,1.08-.44,0-.02,0-.04,0-.06,0-.25-.14-.38-.26-.45.04-.03.08-.05.11-.08.04-.02.07-.05.12-.08.18.02.25.06.26.08.03.03.03.1.02.18ZM21.67,7.07c.13-.06.43-.19.58-.13.03.01.06.03.09.1.08.2-.02.34-.21.49-.02,0-.04.02-.06.04-.04.03-.08.05-.12.08-.15.1-.29.19-.33.32-.02.06-.05.08,0,.12l.14.1c.13.04.22.09.2.26,0,.06-.12.17-.87.16-.18,0-.27,0-.31.1-.03.09.01.15.07.23.04.06.14.2.12.27-.13.3-.91.26-1.17.25h-.11c-.06-.04-.13-.07-.2-.08.04-.1.07-.2.06-.29.12-.1.2-.2.26-.31h0s.13-.08.23-.14c.44-.27.89-.78.81-.82-.08-.04-.6.33-.88.51.02-.15.02-.28,0-.35,0-.03.02-.09.02-.09.04-.1.11-.3-.03-.44-.13-.13-.29-.08-.39-.04.08-.12.18-.25.28-.28.1-.03.17.02.27.1l.19.11c.14.04.24-.08.35-.22.17-.21.33-.38.54-.35.05.01.08.06.11.16.02.07.05.17.16.18l.18-.05ZM20.85,5.24s-.03,0-.03,0c.02,0,.03-.01.03,0ZM19.68,5.34s-.02.02-.02.02c.02-.02.02-.02.02-.02ZM18.81,5.87h.08s.13-.13.13-.13c.04-.08.25-.32.32-.34,0,.01.12.1.12.1l.23.14.3-.17c.12-.1.34-.3.45-.27.12.03.15.09.18.17l.14.16.24-.03c.22-.08.43-.13.57.04.05.05.04.09.04.12-.03.14-.26.3-.36.35-.03.02-.06.05-.07.09-.01.04,0,.08,0,.11.04.08.08.19.08.27-.39-.06-.65.26-.81.45,0,0-.05.06-.09.09-.03-.02-.05-.03-.05-.03-.08-.06-.2-.15-.35-.16,0-.1-.06-.21-.17-.33.06-.04.13-.09.21-.14.26-.16.55-.34.5-.4-.05-.06-.38.07-.66.19-.14.06-.25.14-.32.19-.26-.08-.52.07-.69.16,0,0-.07.04-.12.06-.05-.1-.12-.21-.2-.29.16-.13.26-.26.28-.4ZM18.54,5.48s.02-.01.03-.03c0,0,0,0,0,0s0,0-.03.02ZM17.61,5.03l.27-.19c.12-.13.3-.32.48-.33.09,0,.17.04.26.13.06.06.09.11.08.17,0,.13-.16.27-.27.36l-.18.26c0,.12.09.18.15.23.07.05.11.08.1.19,0,.07-.09.17-.27.3-.02,0-.04.02-.05.03-.09.06-.21.12-.35.18-.04.02-.1.07-.11.12-.02.08.02.14.06.19.05.06.08.11.05.18-.04.12-.2.23-.29.27-.04,0-.09-.01-.13-.02,0,0-.02,0-.04,0,0-.04,0-.07,0-.07-.01-.18-.03-.43-.23-.54-.09-.05-.18-.04-.28-.01.06-.08.13-.17.21-.25.23-.26.49-.51.44-.58-.07-.09-.4.14-.67.4-.11.11-.21.22-.28.32-.01-.2-.06-.39-.16-.57,0-.02-.02-.05-.02-.05-.01-.05-.04-.14-.11-.22.09-.1.17-.08.26-.06l.09.02c.12,0,.16-.11.22-.25.06-.17.18-.5.37-.57h.08s.06.09.08.14c.04.1.09.25.24.25ZM15.97,2.79l.18.12c.13.03.21-.08.3-.2.15-.2.29-.36.47-.32.17.04.17.2.14.47-.01.12-.02.21.05.27l.15.06c.09.02.2.04.3.21.08.14-.24.42-.42.53-.05.03-.08.1-.06.16.02.06.07.11.14.11.04,0,.05.02.06.03.02.03.02.08.02.12h-.19c-.32.12-.46.52-.54.75,0,0,0,.02-.02.04-.08-.02-.2-.03-.32.03.08-.17.15-.35.15-.5,0-.05,0-.09-.02-.13-.06-.15-.18-.2-.3-.23.12-.16.28-.39.28-.69,0-.15-.04-.31-.15-.47-.1-.15-.23-.14-.35-.11,0-.05.02-.08.02-.13,0-.08,0-.15-.02-.23.04.02.08.05.13.1ZM15.81,3.2s0,0,0,.01c0,.03-.01.06-.02.1,0-.03,0-.08.02-.11ZM14.08,4.47c.07-.09.21-.11.32-.12.05,0,.12-.04.14-.09.06-.1,0-.21-.1-.41-.11-.21-.3-.57-.15-.66.05-.03.11-.02.19,0h.29c.09-.06.12-.16.17-.33.06-.18.16-.5.29-.48.11.01.18.06.24.15.12.2.09.53.04.66-.02.06,0,.14.04.18.09.07.18.02.24,0,.03-.02.12-.06.15-.06.22.34.03.66-.2.93-.07.08-.13.15-.08.25.05.1.15.1.23.1.11,0,.17,0,.19.05.03.08-.1.42-.3.73-.07.03-.13.07-.17.09-.15.06-.37.16-.57.34.05-.21.17-.67.21-1.07.04-.4.05-.72-.07-.71-.05,0-.1.38-.19.78-.09.4-.2.82-.23.93-.03,0-.06,0-.1,0,0,0-.08,0-.14-.01h0c.06-.13.17-.36.17-.61,0-.2-.08-.41-.31-.58-.13-.09-.25-.06-.34,0,0-.03.02-.06.03-.08ZM13.66,4.85l.19.17c.11.02.18-.05.24-.12l.12-.1c.27.18.22.45.05.81l-.06.22c.04.22.29.22.46.22h.17c-.06.11-.11.21-.14.34-.12.03-.22.09-.29.17-.1.12-.13.27-.13.42-.11-.1-.25-.18-.4-.21-.03-.09-.07-.23-.11-.4-.08-.36-.17-.79-.27-.77-.06.02-.05.42,0,.78.02.15.05.29.08.4-.09.03-.16.07-.21.13-.03-.09-.07-.16-.12-.21-.06-.06-.12-.08-.17-.09-.04-.1-.09-.18-.14-.25.07-.06.09-.11.09-.13.01-.08-.03-.13-.12-.24-.24-.28-.34-.45-.31-.53.03-.07.05-.07.14-.06.07.01.17.03.24-.05.07-.07.06-.17.05-.33-.02-.26-.04-.53.11-.57.21-.05.43.24.55.4ZM12.71,5.16s0,0,0,0c0,.02,0,.04,0,.04,0-.03,0-.04,0-.04ZM11.56,2.97s.02.04.02.04c0-.03-.02-.04-.02-.04h0ZM11.4,3.3c.02-.07.05-.09.21-.1.08,0,.18-.01.23-.1.06-.08.02-.17-.04-.33-.08-.19-.22-.56-.06-.63.21-.09.49.26.61.42l.15.15c.05.02.15.03.23-.11.03-.05.05-.08.17-.04.15.05.18.47.15.76,0,.06.03.13.09.15.06.03.13,0,.17-.04.04-.05.11-.1.14-.1.05.09.02.56-.02.88-.12-.06-.25-.09-.38-.05-.1.03-.16.08-.21.14-.16-.08-.3-.07-.4-.03-.02-.33-.07-.9-.52-.96-.21-.03-.34.12-.42.26-.06-.07-.11-.17-.09-.26ZM10.2,4.91c.01-.1.1-.14.22-.19.07-.03.15-.06.17-.15l-.07-.23c-.17-.3-.31-.62-.11-.77.26-.19.49-.04.78.29.1.11.16.18.26.17.12,0,.18-.11.24-.23.05-.08.12-.22.18-.21.24.04.26.57.27.77,0,.14,0,.22.11.26.08.03.15-.01.19-.04.07-.05.14-.09.27-.02-.01.07-.02.13-.02.2,0,.1,0,.2.02.28,0,0,0,.03,0,.06-.14-.01-.3,0-.41.23-.02.05-.03.1-.03.15,0,.16.1.33.21.48-.11-.05-.2-.08-.29-.09-.03-.11-.11-.33-.25-.57-.12-.2-.48-.6-.57-.5-.09.1.18.43.28.59.08.12.13.24.18.34-.11-.06-.25-.11-.39-.04-.22.09-.19.34-.17.5-.37-.06-.43-.11-.43-.13,0-.04.04-.08.11-.14l.18-.28c0-.17-.16-.21-.35-.27-.33-.1-.61-.2-.58-.46ZM9.47,5.92c.23-.25.48-.11.77.07l.26.12s.04,0,.06,0c.03.25.34.33.65.38-.08.21-.12.54.15,1.01,0,0,0,0,0,0h0c-.07.07-.09.17-.06.28.05.21.27.43.54.54.33.13.66.14.93.05h.06s.03-.03.03-.03c0,0,.02,0,.03-.01.02.19.12.33.21.43-.07.06-.12.13-.15.21-.09-.04-.21-.06-.33-.03-.24-.31-.53-.22-.67-.16-.07-.17-.22-.44-.43-.54h-.31s-.09.04-.12.07c-.13-.27-.31-.45-.54-.5-.02,0-.04,0-.06,0,.02-.08.03-.17,0-.26-.05-.17-.23-.18-.4-.19-.32-.02-.42-.06-.42-.24l.06-.16.08-.27-.16-.27c-.2-.23-.27-.35-.16-.47ZM9.3,7.27s0-.02,0-.03c0,0,0,0,0,.03ZM6.63,7.16c.02-.05.12-.1.19-.14l.17-.11c.07-.08.05-.17.02-.31-.07-.33-.07-.53.1-.6.08-.03.15.04.28.19l.22.19c.17.04.26-.13.32-.25.03-.05.09-.16.12-.18.12,0,.18.38.2.54.03.2.05.32.17.36.15.05.26-.08.32-.15.05-.06.08-.09.1-.09.1.03.12.31.13.47.01.18.02.32.12.39.05.04.19.11.39-.03.16.15.41.17.56.18,0,0,.09.01.13.02,0,0,0,0,0,0,0,.07-.03.15-.05.19-.52-.18-.93-.09-1.12-.05l-.09.02h-.11s-.3.12-.3.12c0,0-.01.02-.02.03-.15-.11-.34-.27-.49-.46-.24-.3-.35-.66-.44-.62-.18.07.05.55.18.73.18.26.54.59.76.72h0c0,.14.02.27.05.41-.19.07-.24.26-.27.36,0,0,0,.01,0,.02-.03,0-.07.01-.07.01,0,0-.01,0-.02,0-.04-.05-.07-.2-.09-.27-.03-.15-.06-.28-.16-.35-.13-.09-.3-.03-.45.03,0,0-.15.04-.17.05-.04-.04-.09-.07-.09-.09,0,0,0-.02.02-.02-.08-.1-.21-.26-.21-.26,0,0,0,0-.01-.01.07-.07.22-.16.28-.16.07,0,.15-.05.16-.11.03-.12-.07-.17-.19-.23-.6-.28-.69-.45-.66-.53ZM6.49,9.99c-.21.09-.31.11-.36.05l-.04-.09c.01-.09.12-.18.16-.21.05-.04.07-.1.06-.16-.01-.06-.06-.1-.12-.11-.14-.02-.52-.12-.62-.33-.04-.08-.04-.18.02-.29.08-.17.2-.17.41-.11h.21c.1-.05.09-.17.08-.25-.02-.17,0-.22.05-.25.15-.06.37.05.5.18l.22.29.09.12c.12.1.28.04.44-.02,0,0,.18-.05.19-.05,0,0,0,0,0,.01,0,.04.03.15.03.15.02.09.05.19.09.28-.14.06-.27.17-.32.37-.01.05-.02.09-.02.13,0,.3.26.47.39.55,0,0,.02.01.03.02,0,.03.01.06.01.08,0,.02,0,.04,0,.05-.07.04-.12.08-.15.11-.12.01-.37,0-.51.24,0,0,0,0,0,.01-.06-.07-.13-.13-.21-.19.11-.15.24-.36.11-.54-.21-.27-.51-.15-.73-.05ZM6.08,12.26l-.22.1c-.19.13-.35.21-.52.05-.05-.05-.07-.07.05-.23.05-.07.15-.19.06-.3l-.22-.1c-.33-.09-.51-.18-.47-.39.02-.1.06-.12.07-.13.08-.06.25-.02.38,0h.3c.14-.07.11-.23.09-.34-.04-.22-.01-.23.05-.24.17-.04.4.16.53.28.12.1.18.16.28.14.12-.02.15-.14.17-.21.03-.11.05-.15.11-.16.11-.02.36.2.55.48,0,0,.01,0,.02.01,0,.02.02.05.03.06.01.03.05.16.05.16l.09.24c-.13-.05-.27-.08-.41-.1-.31-.05-1.23,0-1.23.12,0,.11.82.11,1.08.15.06,0,.12.02.19.03-.11.08-.14.22-.14.36,0,.04,0,.08,0,.12,0,0,0,.04,0,.08-.01,0-.03-.02-.03-.02-.17-.12-.45-.3-.72-.15-.04-.01-.08-.02-.13-.02ZM6.41,13.89h.03s-.03,0-.03,0ZM7.87,13.7s-.05.09-.07.13l-.04-.03s-.06-.08-.1-.06l-.2.1c-.14.11-.51.42-.68.26-.06-.05-.07-.12-.08-.22l-.09-.24s-.29-.06-.29-.06c-.27.01-.4,0-.46-.17-.01-.04-.03-.1,0-.13.03-.06.16-.1.25-.13l.25-.14v-.33s-.01-.17-.01-.17c.1-.06.25.02.42.14.13.09.27.18.4.09.12-.09.11-.25.1-.41,0-.07-.01-.2,0-.23.1-.06.33-.1.47,0,0,0,.01,0,.02,0,.13.12.26.21.35.26-.05.15,0,.36.17.51.05.05.14.11.26.16-.08.06-.14.12-.15.2,0,.01,0,.02,0,.03,0,.05.02.08.04.12-.17,0-.39.04-.57.28ZM10.25,14.52s-.01-.02-.01-.02c-.04-.08-.08-.18-.19-.2-.05-.01-.11-.01-.19.05-.12.1-.18.25-.24.41-.09.24-.17.47-.48.53-.13.03-.13.02-.16-.09-.02-.09-.08-.29-.3-.27l-.34.13c-.12.06-.46.22-.54.18-.13-.19,0-.36.24-.6l.13-.14c.07-.13-.02-.24-.07-.3-.07-.09-.12-.15,0-.31.13-.18.29-.17.47-.14.1.02.19.03.27-.05.03-.04.04-.07.04-.11,0-.09-.08-.17-.11-.2,0,0-.06-.07-.07-.08.02,0,.05-.03.05-.03.24-.13.58.06.72.14.06.04.12.06.18.04.04-.02.08-.05.09-.09.03-.08,0-.14-.05-.23l-.08-.18c.05-.05.13-.06.18-.05.07,0,.13,0,.18.01-.04.07-.08.14-.08.22,0,.04,0,.07.03.11.05.09.13.15.22.2-.37.11-.57.26-.84.46-.16.12-.49.41-.47.48.02.08.94-.46,1.32-.61.12-.05.33-.1.49-.14,0,.01-.02.03-.02.04-.11.4-.27.73-.38.85ZM10.19,13.1s.08-.09.08-.09l.09-.25c-.02-.14-.16-.14-.29-.14-.07,0-.14,0-.21,0h0s-.02,0-.03,0c-.21-.02-.41-.09-.48-.29,0,.04.1-.06.1-.06.07-.07.2-.19.1-.33l-.22-.08c-.27-.04-.36-.09-.36-.21,0-.03.06-.06.11-.09.08-.04.19-.1.19-.23l-.14-.22c-.18-.17-.25-.27-.15-.43.04-.07.08-.08.11-.09.15-.03.38.13.47.19l.09.05c.15.06.23-.1.27-.18,0,0,.03-.05.05-.09.29.09.36.36.38.52,0,.07.06.13.13.14.07,0,.14-.04.16-.1.04-.11.1-.24.14-.26.08.08.3.42.27.84,0,.07.04.13.11.15.06.02.14-.01.17-.07.03-.06.09-.12.11-.13.06.04.19.27.22.87v.08c-.06.03-.32-.06-.55-.22,0,0-.01,0-.01,0-.01,0-.03-.02-.04-.02-.16-.1-.35-.23-.54-.38,0,0-.48-.35-.54-.24-.06.1.38.49.38.49.19.15.39.28.55.38.01,0,.03.02.04.03.17.17.32.36.34.45-.56.19-.94.2-1.05.03ZM9.7,19.96v.02s0-.01,0-.02c0,0,0,0,0,0ZM9.92,21.31c-.31,0-.5-.13-.5-.13-.06-.05-.15-.03-.2.02,0,0-.12.13-.44.13s-.55-.11-.71-.34c-.09-.13-.14-.48,0-.74.12-.23.36-.35.7-.35.26,0,.63.13.78.34l.63.92s.08.06.11.1c-.08.03-.2.06-.37.06ZM14.3,21.31c-.28,0-.44-.12-.45-.13-.06-.05-.16-.04-.21.02,0,0-.11.12-.39.12-.25,0-.5-.13-.65-.34l-.63-.93s-.06-.07-.09-.1c.07-.02.17-.05.3-.05.28,0,.45.12.45.13.06.05.16.04.21-.02,0,0,.11-.12.39-.12.25,0,.5.13.65.34l.63.92s.07.07.1.11c-.07.02-.17.05-.31.05ZM12.96,19.63c-.11.03-.2.07-.26.11-.1-.06-.28-.13-.53-.13-.02,0-.03,0-.04,0,.27-.16.64-.15.83-.12,0,.05,0,.1,0,.14ZM14.04,19.95l.03.05s-.03-.03-.04-.04c0,0,0,0,.01,0ZM14.87,19.74c-.11-.06-.28-.13-.53-.13-.07,0-.13,0-.18.01.08-.16.22-.34.42-.34.09,0,.15.03.21.08.09.09.12.25.13.35-.02.01-.04.02-.05.03ZM18.62,21.31c-.28,0-.45-.12-.45-.13-.06-.05-.16-.04-.21.02,0,0-.11.12-.39.12-.25,0-.5-.13-.65-.34l-.63-.93s-.06-.06-.09-.09c.07-.03.18-.05.33-.05.28,0,.45.12.45.13.06.05.16.04.21-.02,0,0,.11-.12.39-.12.25,0,.5.13.65.34,0,0,.64.93.64.93.03.03.06.06.09.09-.07.03-.18.05-.33.05ZM15.98,14.38c-.78,1.2-.39,3.02-.2,3.35l.02.04c.19.33.45.79,1.51,1.24l.12.05c.7.29.96.41,1.1.56-.2.03-.34.08-.41.13-.16-.1-.35-.16-.54-.16-.12,0-.21.02-.29.04-.04-.08-.07-.16-.08-.18-.17-.33-.47-.46-.76-.58-.38-.16-.77-.33-1.01-.95-.13-.33-.19-.77-.21-1.18-.02-.29-.11-1.21-.18-1.21-.08,0-.13.94-.12,1.23.03.43.09.9.23,1.26.29.74.78.95,1.17,1.12.3.12.53.22.64.51v.05c-.1-.05-.25-.1-.45-.1-.3,0-.48.08-.58.14-.17-.1-.36-.16-.55-.16-.07,0-.13,0-.18.01-.02-.14-.07-.32-.21-.46-.11-.11-.25-.17-.42-.17-.34,0-.62.26-.79.72,0,0,0,.02,0,.03,0,0-.01,0-.02.01-.16-.09-.33-.14-.51-.15,0-.06,0-.12,0-.19,0,0,0,0,0-.01,0-.02,0-.04,0-.06.01-.11.04-.23.1-.34.05-.09.11-.2.18-.32.35-.6.37-1.17.29-1.17-.08,0-.36.69-.55,1.02-.07.12-.13.23-.18.33-.05.1-.09.22-.11.33-.33-.04-1.05-.05-1.37.53,0,0,0,.01,0,.02,0,0,0,0,0,0-.16-.09-.35-.15-.54-.15-.27,0-.43.08-.52.15-.01,0-.03-.01-.05-.02.39-.27,1.02-.59,1.46-.81l.24-.12c.66-.34,1.1-1.04,1.23-1.97.01-.08,0-.12-.5-.92-.23-.36-.51-.81-.56-.93-.1-.25-.72-1.25-1.46-1.51.14-.03.29-.07.46-.13.09-.03.16-.1.17-.19,0-.02,0-.04,0-.05,0-.07-.03-.16-.08-.24.1.02.2.03.28-.01.08-.04.17-.14.16-.35,0-.14-.02-.3-.05-.45,0,0,0,0,.01,0,.08.01.41.25.38,1.16-.04,1.33,1.35,2.27,1.44,2.29.05.01.13-.01.17-.05.1-.1.14-.32.14-.6,0-.34-.06-.76-.12-1.13-.23-1.34-1.03-1.57-1.33-1.66l-.08-.02c.12-.1.27-.24.36-.42.02,0,.03.03.05.04.23.1.5,0,.7-.08v.03c0,.27-.01.82.35,1.43l.42.71.22.36c.03.06.1.08.17.06.24-.06.42-1.35.42-1.36,0-.06,0-.13,0-.21,0-.3-.05-.71-.2-1.08,0,0,0,0,0,0,.02.02.04.04.07.05.08.02.16-.02.18-.1.07-.25.12-.45.15-.6,0,.05,0,.09,0,.12l.06.31c.09.11.19.06.46-.08.09-.05.21-.1.33-.15-.17.24-.34.53-.47.88-.13.35-.15.75-.17,1.11,0,.25-.02.5-.07.63,0,.02,0,.04,0,.05,0,.05.03.1.08.13.06.04.15.02.19-.04.16-.23.53-.7.88-1.05-.07.15-.13.3-.14.38,0,0,0,.02,0,.03,0,.05.02.09.06.12.05.03.11.04.16,0,.01,0,.23-.12.58-.09h0s0,.01,0,.01c-.29.11-.89.4-1.36,1.12ZM16.92,12.98c.07-.16.16-.36.25-.54.05-.08.15-.15.32-.23.05-.02.44-.26.39-.36-.06-.1-.46.06-.52.09-.19.09-.42.23-.44.24-.13.08-.28.21-.43.35-.04-.1-.06-.25.03-.36l.16-.11c.14-.06.26-.14.29-.36.2.03.37.04.44,0,.13-.07.16-.2.17-.28.02,0,.04.01.04.01.23.06.67.18.99-.11.07-.06.1-.12.1-.19,0-.03-.03-.06-.04-.09.08,0,.18.02.27.01,0,.02.01.04.01.07v.02c0,.06-.07.11-.16.18l-.17.18s-.01.05-.01.08c0,.09.06.15.09.19.04.04.07.08.07.15,0,0,0,.02,0,.03-.02.17-.2.23-.52.26l-.31.1s-.05.08-.05.12c0,.09.07.17.1.2l.06.09s-.05.05-.05.05c-.06.05-.3.09-.42.12l-.21.06c-.18-.01-.34,0-.46.03ZM20.58,14.89c-.08.12-.19.1-.38.04l-.13-.03c-.1,0-.16.07-.2.12-.05.06-.09.12-.2.12-.11,0-.27-.15-.36-.25l-.2-.14c-.13-.02-.19.09-.21.14-.03.07-.05.11-.19.09-.15-.02-.29-.38-.36-.55-.08-.18-.11-.27-.2-.31-.13-.05-.21.05-.25.09-.12-.12-.2-.54-.25-.88.22.08.56.23.76.37.17.12.47.38.55.3.08-.07-.19-.41-.38-.54-.2-.14-.4-.27-.59-.36.57-.21.94-.17,1-.13,0,0-.02.06-.02.06l-.02.15c.02.15.16.16.47.2.14.02.44.05.5.1h0s-.01.05-.05.11c-.02.05-.06.11-.06.17,0,.03,0,.05.02.08.04.1.15.13.32.18.09.03.27.08.3.12,0,0-.05.05-.05.05-.05.05-.12.12-.12.22,0,.01,0,.03,0,.05l.16.19c.1.08.14.12.14.16,0,.02-.01.05-.03.08ZM20.09,13.69s.04,0,.04,0c0,0,0,0,0,0-.01,0-.04-.01-.04-.01ZM21.52,13.43c-.02.06-.08.07-.26.05l-.26.04-.09.21c0,.07-.01.08-.03.1-.07.04-.17.03-.28,0l-.11-.02c-.08-.03-.16-.06-.24-.08,0,0-.05-.01-.09-.03.03-.06.07-.13.07-.23,0-.06-.02-.13-.07-.19-.1-.13-.33-.16-.69-.2,0,0-.12-.02-.2-.03,0-.03.01-.06.01-.1,0-.08-.02-.16-.11-.23-.13-.1-.45-.13-.84-.05-.02-.05-.06-.13-.08-.18.02,0,.03,0,.03,0,.17-.02.43-.05.61-.2.46.26,1.02.23,1.29.11.02-.01.04-.02.06-.03.05.06.1.13.18.16l.34-.02c.1-.02.31-.07.36-.03.12.1.11.13.07.22l-.04.26c.03.09.1.12.18.16.2.09.24.13.17.29ZM21.96,13.06s.04.02.07.03c-.03,0-.04-.02-.07-.03ZM22.99,12.69s0,0,0,0c0-.02,0-.04,0-.04,0,.01,0,.02,0,.02h0ZM23.55,12.26c-.01.09-.04.15-.09.18-.1.07-.3.03-.42,0h-.25c-.08.06-.09.16-.1.26-.01.12-.03.22-.08.24-.08.04-.31-.07-.42-.12-.14-.06-.24-.11-.33-.02,0,0-.06.14-.06.14-.01.06-.03.09-.04.11-.09-.11-.23-.17-.29-.2,0,0,0-.02,0-.02.02-.05.06-.13.06-.22,0-.1-.05-.23-.21-.36-.16-.13-.41-.08-.61-.03l-.18.03s-.07-.09-.1-.16c.08-.02.15-.04.21-.06.06,0,.12-.02.19-.02.27-.02,1.31.16,1.31.03,0-.11-.61-.23-1.03-.27.22-.2.3-.42.33-.54,0,0,.02-.04.02-.05,0,0,.03-.02.05-.03.04.02.06.07.09.17.02.08.04.16.12.19.09.04.15,0,.28-.09.16-.1.55-.35.69-.2.11.11.08.19.04.27-.05.14-.03.23.07.28l.15.03c.46.07.63.19.6.43Z"/>
      </g>
    </g>
  </g>
</svg>