0
SECTION
2
HEADER
9
$INSUNITS
70
4
9
$ACADVER
1
AC1014
9
$HANDSEED
5
FFFF
0
ENDSEC
0
SECTION
2
TABLES
0
TABLE
2
VPORT
5
8
100
AcDbSymbolTable
0
ENDTAB
0
TABLE
2
LTYPE
5
5
100
AcDbSymbolTable
0
LTYPE
5
14
100
AcDbSymbolTableRecord
100
AcDbLinetypeTableRecord
2
BYBLOCK
70
0
0
LTYPE
5
15
100
AcDbSymbolTableRecord
100
AcDbLinetypeTableRecord
2
BYLAYER
70
0
0
LTYPE
5
16
100
AcDbSymbolTableRecord
100
AcDbLinetypeTableRecord
2
DASHED
70
0
3
Dashed __ __ __ __ __ __ __ __ __ __ __ __ __ _
72
65
73
2
40
0.75
49
0.5
74
0
49
-0.25
74
0
0
ENDTAB
0
TABLE
2
LAYER
5
2
100
AcDbSymbolTable
70
2
0
LAYER
5
50
100
AcDbSymbolTableRecord
100
AcDbLayerTableRecord
2
0
70
0
62
7
6
CONTINUOUS
0
ENDTAB
0
TABLE
2
STYLE
5
3
100
AcDbSymbolTable
70
1
0
STYLE
5
11
100
AcDbSymbolTableRecord
100
AcDbTextStyleTableRecord
2
STANDARD
70
0
0
ENDTAB
0
TABLE
2
VIEW
5
6
100
AcDbSymbolTable
70
0
0
ENDTAB
0
TABLE
2
UCS
5
7
100
AcDbSymbolTable
70
0
0
ENDTAB
0
TABLE
2
APPID
5
9
100
AcDbSymbolTable
70
2
0
APPID
5
12
100
AcDbSymbolTableRecord
100
AcDbRegAppTableRecord
2
ACAD
70
0
0
ENDTAB
0
TABLE
2
DIMSTYLE
5
A
100
AcDbSymbolTable
70
1
0
ENDTAB
0
TABLE
2
BLOCK_RECORD
5
1
100
AcDbSymbolTable
70
1
0
BLOCK_RECORD
5
1F
100
AcDbSymbolTableRecord
100
AcDbBlockTableRecord
2
*MODEL_SPACE
0
BLOCK_RECORD
5
1B
100
AcDbSymbolTableRecord
100
AcDbBlockTableRecord
2
*PAPER_SPACE
0
ENDTAB
0
ENDSEC
0
SECTION
2
BLOCKS
0
BLOCK
5
20
100
AcDbEntity
100
AcDbBlockBegin
2
*MODEL_SPACE
0
ENDBLK
5
21
100
AcDbEntity
100
AcDbBlockEnd
0
BLOCK
5
1C
100
AcDbEntity
100
AcDbBlockBegin
2
*PAPER_SPACE
0
ENDBLK
5
1D
100
AcDbEntity
100
AcDbBlockEnd
0
ENDSEC
0
SECTION
2
ENTITIES
0
LWPOLYLINE
5
100
100
AcDbEntity
8
0
100
AcDbPolyline
90
188
70
1
43
0.0
10
203.97436209596123
20
60
10
203.97436209596123
20
63
10
192.94872098817279
20
63
10
192.94872098817279
20
60
10
181.92307988038431
20
60
10
181.92307988038431
20
63
10
170.89743877259588
20
63
10
170.89743877259588
20
60
10
159.87179766480745
20
60
10
159.87179766480745
20
63
10
148.84615655701893
20
63
10
148.84615655701893
20
60
10
137.8205154492305
20
60
10
137.8205154492305
20
63
10
126.79487434144207
20
63
10
126.79487434144207
20
60
10
115.76923323365357
20
60
10
115.76923323365357
20
63
10
104.74359212586513
20
63
10
104.74359212586513
20
60
10
93.717951018076704
20
60
10
93.717951018076704
20
63
10
82.69230991028823
20
63
10
82.69230991028823
20
60
10
71.666668802499771
20
60
10
71.666668802499771
20
63
10
60.64102769471134
20
63
10
60.64102769471134
20
60
10
49.615386586922874
20
60
10
49.615386586922874
20
63
10
38.589745479134407
20
63
10
38.589745479134407
20
60
10
27.564104371345977
20
60
10
27.564104371345977
20
63
10
16.538463263557546
20
63
10
16.538463263557546
20
60
10
5.5128221557691148
20
60
10
5.5128221557691148
20
63
10
-5.5128189520193871
20
63
10
-5.5128189520193871
20
60
10
-16.538460059807818
20
60
10
-16.538460059807818
20
63
10
-27.56410116759632
20
63
10
-27.56410116759632
20
60
10
-38.589742275384751
20
60
10
-38.589742275384751
20
63
10
-49.615383383173182
20
63
10
-49.615383383173182
20
60
10
-60.641024490961613
20
60
10
-60.641024490961613
20
63
10
-71.666665598750114
20
63
10
-71.666665598750114
20
60
10
-82.692306706538545
20
60
10
-82.692306706538545
20
63
10
-93.717947814327047
20
63
10
-93.717947814327047
20
60
10
-104.74358892211548
20
60
10
-104.74358892211548
20
63
10
-115.76923002990391
20
63
10
-115.76923002990391
20
60
10
-126.79487113769234
20
60
10
-126.79487113769234
20
63
10
-137.82051224548084
20
63
10
-137.82051224548084
20
60
10
-148.84615335326927
20
60
10
-148.84615335326927
20
63
10
-159.87179446105779
20
63
10
-159.87179446105779
20
60
10
-170.89743556884622
20
60
10
-170.89743556884622
20
63
10
-181.92307667663465
20
63
10
-181.92307667663465
20
60
10
-192.94871778442308
20
60
10
-192.94871778442308
20
63
10
-203.97435889221157
20
63
10
-203.97435889221157
20
60
10
-215
20
60
10
-215
20
53.333333333333201
10
-212.00000000000003
20
53.333333333333201
10
-212.00000000000003
20
46.666666666666558
10
-215
20
46.666666666666558
10
-215
20
39.999999999999908
10
-212.00000000000003
20
39.999999999999908
10
-212.00000000000003
20
33.333333333333258
10
-215
20
33.333333333333258
10
-215
20
26.666666666666604
10
-212.00000000000003
20
26.666666666666604
10
-212.00000000000003
20
19.99999999999995
10
-215
20
19.99999999999995
10
-215
20
13.333333333333302
10
-212.00000000000003
20
13.333333333333302
10
-212.00000000000003
20
6.6666666666666501
10
-215
20
6.6666666666666501
10
-215
20
0
10
-204.05128205128204
20
0
10
-204.05128205128207
20
3.0000000000000004
10
-193.10256410256412
20
3.0000000000000004
10
-193.10256410256412
20
0
10
-182.15384615384613
20
0
10
-182.15384615384613
20
3.0000000000000004
10
-171.20512820512823
20
3.0000000000000004
10
-171.20512820512823
20
0
10
-160.25641025641025
20
0
10
-160.25641025641025
20
3.0000000000000004
10
-149.30769230769232
20
3.0000000000000004
10
-149.30769230769232
20
0
10
-138.35897435897434
20
0
10
-138.35897435897434
20
3.0000000000000004
10
-127.41025641025638
20
3.0000000000000004
10
-127.41025641025638
20
0
10
-116.46153846153845
20
0
10
-116.46153846153845
20
3.0000000000000004
10
-105.5128205128205
20
3.0000000000000004
10
-105.5128205128205
20
0
10
-94.564102564102569
20
0
10
-94.564102564102569
20
3.0000000000000009
10
-83.615384615384599
20
3.0000000000000004
10
-83.615384615384599
20
0
10
-72.666666666666657
20
0
10
-72.666666666666657
20
3.0000000000000004
10
-61.717948717948694
20
3.0000000000000004
10
-61.717948717948694
20
0
10
-50.769230769230731
20
0
10
-50.769230769230731
20
3.0000000000000004
10
-39.820512820512803
20
3.0000000000000004
10
-39.820512820512803
20
0
10
-28.87179487179484
20
0
10
-28.87179487179484
20
3.0000000000000004
10
-17.923076923076913
20
3.0000000000000004
10
-17.923076923076913
20
0
10
-6.9743589743589496
20
0
10
-6.9743589743589496
20
3.0000000000000009
10
3.974358974358978
20
3.0000000000000004
10
3.974358974358978
20
0
10
14.923076923076941
20
0
10
14.923076923076941
20
3.0000000000000004
10
25.871794871794869
20
3.0000000000000004
10
25.871794871794869
20
0
10
36.820512820512867
20
0
10
36.820512820512867
20
3.0000000000000004
10
47.769230769230795
20
3.0000000000000004
10
47.769230769230795
20
0
10
58.717948717948758
20
0
10
58.717948717948758
20
3.0000000000000004
10
69.666666666666686
20
3.0000000000000004
10
69.666666666666686
20
0
10
80.615384615384642
20
0
10
80.615384615384642
20
3.0000000000000009
10
91.564102564102569
20
3.0000000000000004
10
91.564102564102569
20
0
10
102.51282051282061
20
0
10
102.51282051282061
20
3.0000000000000004
10
113.46153846153854
20
3.0000000000000004
10
113.46153846153854
20
0
10
124.41025641025639
20
0
10
124.41025641025639
20
3.0000000000000004
10
135.35897435897431
20
3.0000000000000004
10
135.35897435897431
20
0
10
146.30769230769232
20
0
10
146.30769230769232
20
3.0000000000000004
10
157.25641025641025
20
3.0000000000000004
10
157.25641025641025
20
0
10
168.20512820512823
20
0
10
168.20512820512823
20
3.0000000000000009
10
179.15384615384619
20
3.0000000000000004
10
179.15384615384619
20
0
10
190.10256410256409
20
0
10
190.10256410256409
20
3.0000000000000004
10
201.05128205128204
20
3.0000000000000004
10
201.05128205128204
20
0
10
212
20
-1.4210854715202004e-13
10
212
20
6.666666666666524
10
215
20
6.666666666666524
10
215
20
13.33333333333319
10
212
20
13.33333333333319
10
212
20
19.999999999999854
10
215
20
19.999999999999854
10
215
20
26.666666666666522
10
212
20
26.666666666666522
10
212
20
33.333333333333194
10
215
20
33.333333333333194
10
215
20
39.999999999999851
10
212
20
39.999999999999851
10
212
20
46.666666666666515
10
215
20
46.666666666666515
10
215
20
53.333333333333186
10
212
20
53.333333333333186
10
212
20
59.999999999999858
0
ENDSEC
0
SECTION
2
OBJECTS
0
DICTIONARY
5
C
100
AcDbDictionary
3
ACAD_GROUP
350
D
3
ACAD_MLINESTYLE
350
17
0
DICTIONARY
5
D
100
AcDbDictionary
0
DICTIONARY
5
1A
330
C
100
AcDbDictionary
0
DICTIONARY
5
17
100
AcDbDictionary
0
ENDSEC
0
EOF
