0
SECTION
2
HEADER
9
$INSUNITS
70
4
9
$ACADVER
1
AC1014
9
$HANDSEED
5
FFFF
0
ENDSEC
0
SECTION
2
TABLES
0
TABLE
2
VPORT
5
8
100
AcDbSymbolTable
0
ENDTAB
0
TABLE
2
LTYPE
5
5
100
AcDbSymbolTable
0
LTYPE
5
14
100
AcDbSymbolTableRecord
100
AcDbLinetypeTableRecord
2
BYBLOCK
70
0
0
LTYPE
5
15
100
AcDbSymbolTableRecord
100
AcDbLinetypeTableRecord
2
BYLAYER
70
0
0
LTYPE
5
16
100
AcDbSymbolTableRecord
100
AcDbLinetypeTableRecord
2
DASHED
70
0
3
Dashed __ __ __ __ __ __ __ __ __ __ __ __ __ _
72
65
73
2
40
0.75
49
0.5
74
0
49
-0.25
74
0
0
ENDTAB
0
TABLE
2
LAYER
5
2
100
AcDbSymbolTable
70
2
0
LAYER
5
50
100
AcDbSymbolTableRecord
100
AcDbLayerTableRecord
2
0
70
0
62
7
6
CONTINUOUS
0
ENDTAB
0
TABLE
2
STYLE
5
3
100
AcDbSymbolTable
70
1
0
STYLE
5
11
100
AcDbSymbolTableRecord
100
AcDbTextStyleTableRecord
2
STANDARD
70
0
0
ENDTAB
0
TABLE
2
VIEW
5
6
100
AcDbSymbolTable
70
0
0
ENDTAB
0
TABLE
2
UCS
5
7
100
AcDbSymbolTable
70
0
0
ENDTAB
0
TABLE
2
APPID
5
9
100
AcDbSymbolTable
70
2
0
APPID
5
12
100
AcDbSymbolTableRecord
100
AcDbRegAppTableRecord
2
ACAD
70
0
0
ENDTAB
0
TABLE
2
DIMSTYLE
5
A
100
AcDbSymbolTable
70
1
0
ENDTAB
0
TABLE
2
BLOCK_RECORD
5
1
100
AcDbSymbolTable
70
1
0
BLOCK_RECORD
5
1F
100
AcDbSymbolTableRecord
100
AcDbBlockTableRecord
2
*MODEL_SPACE
0
BLOCK_RECORD
5
1B
100
AcDbSymbolTableRecord
100
AcDbBlockTableRecord
2
*PAPER_SPACE
0
ENDTAB
0
ENDSEC
0
SECTION
2
BLOCKS
0
BLOCK
5
20
100
AcDbEntity
100
AcDbBlockBegin
2
*MODEL_SPACE
0
ENDBLK
5
21
100
AcDbEntity
100
AcDbBlockEnd
0
BLOCK
5
1C
100
AcDbEntity
100
AcDbBlockBegin
2
*PAPER_SPACE
0
ENDBLK
5
1D
100
AcDbEntity
100
AcDbBlockEnd
0
ENDSEC
0
SECTION
2
ENTITIES
0
LWPOLYLINE
5
100
100
AcDbEntity
8
0
100
AcDbPolyline
90
4
70
1
43
0.0
10
-205.99999999999997
20
-44.05263157894737
10
-202.99999999999997
20
-44.05263157894737
10
-202.99999999999997
20
-55.736842105263165
10
-205.99999999999997
20
-55.736842105263165
0
LWPOLYLINE
5
101
100
AcDbEntity
8
0
100
AcDbPolyline
90
4
70
1
43
0.0
10
-205.99999999999997
20
-195.9473684210526
10
-205.99999999999997
20
-184.26315789473682
10
-202.99999999999997
20
-184.26315789473682
10
-202.99999999999997
20
-195.94736842105263
0
LWPOLYLINE
5
102
100
AcDbEntity
8
0
100
AcDbPolyline
90
4
70
1
43
0.0
10
-205.99999999999997
20
-90.78947368421052
10
-202.99999999999997
20
-90.78947368421052
10
-202.99999999999997
20
-102.4736842105263
10
-205.99999999999997
20
-102.4736842105263
0
LWPOLYLINE
5
103
100
AcDbEntity
8
0
100
AcDbPolyline
90
4
70
1
43
0.0
10
-205.99999999999997
20
-172.57894736842104
10
-205.99999999999997
20
-160.89473684210526
10
-202.99999999999997
20
-160.89473684210526
10
-202.99999999999997
20
-172.57894736842104
0
LWPOLYLINE
5
104
100
AcDbEntity
8
0
100
AcDbPolyline
90
4
70
1
43
0.0
10
-205.99999999999997
20
-137.52631578947364
10
-202.99999999999997
20
-137.52631578947364
10
-202.99999999999997
20
-149.21052631578945
10
-205.99999999999997
20
-149.21052631578945
0
LWPOLYLINE
5
105
100
AcDbEntity
8
0
100
AcDbPolyline
90
4
70
1
43
0.0
10
-205.99999999999997
20
-125.84210526315788
10
-205.99999999999997
20
-114.15789473684208
10
-202.99999999999997
20
-114.15789473684208
10
-202.99999999999997
20
-125.84210526315788
0
LWPOLYLINE
5
106
100
AcDbEntity
8
0
100
AcDbPolyline
90
4
70
1
43
0.0
10
-205.99999999999997
20
-67.421052631578931
10
-202.99999999999997
20
-67.421052631578931
10
-202.99999999999997
20
-79.105263157894711
10
-205.99999999999997
20
-79.105263157894711
0
LWPOLYLINE
5
107
100
AcDbEntity
8
0
100
AcDbPolyline
90
4
70
1
43
0.0
10
-205.99999999999997
20
-32.368421052631575
10
-205.99999999999997
20
-20.68421052631578
10
-202.99999999999997
20
-20.68421052631578
10
-202.99999999999997
20
-32.368421052631575
0
LWPOLYLINE
5
108
100
AcDbEntity
8
0
100
AcDbPolyline
90
4
70
1
43
0.0
10
-205.99999999999997
20
-219.31578947368419
10
-205.99999999999997
20
-207.63157894736838
10
-202.99999999999997
20
-207.63157894736844
10
-202.99999999999997
20
-219.31578947368419
0
LWPOLYLINE
5
109
100
AcDbEntity
8
0
100
AcDbPolyline
90
4
70
1
43
0.0
10
205.99999999999997
20
-207.94736842105266
10
202.99999999999997
20
-207.94736842105266
10
202.99999999999997
20
-196.42105263157896
10
205.99999999999997
20
-196.42105263157896
0
LWPOLYLINE
5
110
100
AcDbEntity
8
0
100
AcDbPolyline
90
4
70
1
43
0.0
10
202.99999999999997
20
-46.578947368421062
10
202.99999999999997
20
-35.052631578947349
10
205.99999999999997
20
-35.052631578947349
10
205.99999999999997
20
-46.578947368421062
0
LWPOLYLINE
5
111
100
AcDbEntity
8
0
100
AcDbPolyline
90
4
70
1
43
0.0
10
205.99999999999997
20
-161.84210526315786
10
202.99999999999997
20
-161.84210526315786
10
202.99999999999997
20
-150.31578947368419
10
205.99999999999997
20
-150.31578947368419
0
LWPOLYLINE
5
112
100
AcDbEntity
8
0
100
AcDbPolyline
90
4
70
1
43
0.0
10
202.99999999999997
20
-69.631578947368411
10
202.99999999999997
20
-58.10526315789474
10
205.99999999999997
20
-58.10526315789474
10
205.99999999999997
20
-69.631578947368411
0
LWPOLYLINE
5
113
100
AcDbEntity
8
0
100
AcDbPolyline
90
4
70
1
43
0.0
10
205.99999999999997
20
-115.73684210526315
10
202.99999999999997
20
-115.73684210526315
10
202.99999999999997
20
-104.21052631578947
10
205.99999999999997
20
-104.21052631578947
0
LWPOLYLINE
5
114
100
AcDbEntity
8
0
100
AcDbPolyline
90
4
70
1
43
0.0
10
202.99999999999997
20
-92.68421052631578
10
202.99999999999997
20
-81.157894736842096
10
205.99999999999997
20
-81.157894736842096
10
205.99999999999997
20
-92.68421052631578
0
LWPOLYLINE
5
115
100
AcDbEntity
8
0
100
AcDbPolyline
90
4
70
1
43
0.0
10
205.99999999999997
20
-138.78947368421052
10
202.99999999999997
20
-138.78947368421052
10
202.99999999999997
20
-127.26315789473685
10
205.99999999999997
20
-127.26315789473685
0
LWPOLYLINE
5
116
100
AcDbEntity
8
0
100
AcDbPolyline
90
4
70
1
43
0.0
10
202.99999999999997
20
-184.89473684210532
10
202.99999999999997
20
-173.36842105263159
10
205.99999999999997
20
-173.36842105263159
10
205.99999999999997
20
-184.89473684210532
0
LWPOLYLINE
5
117
100
AcDbEntity
8
0
100
AcDbPolyline
90
6
70
1
43
0.0
10
202.99999999999997
20
-12.000000000000002
10
195.51282051282044
20
-12.000000000000002
10
195.51282051282044
20
-9.0000000000000018
10
205.99999999999994
20
-9.0000000000000018
10
205.99999999999997
20
-23.526315789473671
10
202.99999999999997
20
-23.526315789473671
0
LWPOLYLINE
5
118
100
AcDbEntity
8
0
100
AcDbPolyline
90
4
70
1
43
0.0
10
-182.17948717948715
20
-230.99999999999997
10
-182.17948717948715
20
-227.99999999999997
10
-171.76923076923075
20
-227.99999999999997
10
-171.76923076923075
20
-230.99999999999997
0
LWPOLYLINE
5
119
100
AcDbEntity
8
0
100
AcDbPolyline
90
4
70
1
43
0.0
10
171.76923076923075
20
-227.99999999999997
10
182.17948717948715
20
-227.99999999999997
10
182.17948717948715
20
-230.99999999999997
10
171.76923076923075
20
-230.99999999999997
0
LWPOLYLINE
5
120
100
AcDbEntity
8
0
100
AcDbPolyline
90
4
70
1
43
0.0
10
-140.53846153846152
20
-230.99999999999997
10
-140.53846153846152
20
-227.99999999999997
10
-130.12820512820511
20
-227.99999999999997
10
-130.12820512820511
20
-230.99999999999997
0
LWPOLYLINE
5
121
100
AcDbEntity
8
0
100
AcDbPolyline
90
4
70
1
43
0.0
10
150.94871794871793
20
-227.99999999999997
10
161.35897435897434
20
-227.99999999999997
10
161.35897435897434
20
-230.99999999999997
10
150.94871794871793
20
-230.99999999999997
0
LWPOLYLINE
5
122
100
AcDbEntity
8
0
100
AcDbPolyline
90
4
70
1
43
0.0
10
-98.897435897435884
20
-230.99999999999997
10
-98.897435897435884
20
-227.99999999999997
10
-88.487179487179475
20
-227.99999999999997
10
-88.487179487179475
20
-230.99999999999997
0
LWPOLYLINE
5
123
100
AcDbEntity
8
0
100
AcDbPolyline
90
4
70
1
43
0.0
10
130.12820512820511
20
-227.99999999999997
10
140.53846153846152
20
-227.99999999999997
10
140.53846153846152
20
-230.99999999999997
10
130.12820512820511
20
-230.99999999999997
0
LWPOLYLINE
5
124
100
AcDbEntity
8
0
100
AcDbPolyline
90
4
70
1
43
0.0
10
-57.256410256410248
20
-230.99999999999997
10
-57.256410256410248
20
-227.99999999999997
10
-46.84615384615384
20
-227.99999999999997
10
-46.84615384615384
20
-230.99999999999997
0
LWPOLYLINE
5
125
100
AcDbEntity
8
0
100
AcDbPolyline
90
4
70
1
43
0.0
10
109.30769230769229
20
-227.99999999999997
10
119.7179487179487
20
-227.99999999999997
10
119.7179487179487
20
-230.99999999999997
10
109.30769230769229
20
-230.99999999999997
0
LWPOLYLINE
5
126
100
AcDbEntity
8
0
100
AcDbPolyline
90
4
70
1
43
0.0
10
-15.615384615384613
20
-230.99999999999997
10
-15.615384615384613
20
-227.99999999999997
10
-5.2051282051282044
20
-227.99999999999997
10
-5.2051282051282044
20
-230.99999999999997
0
LWPOLYLINE
5
127
100
AcDbEntity
8
0
100
AcDbPolyline
90
4
70
1
43
0.0
10
88.487179487179475
20
-227.99999999999997
10
98.897435897435884
20
-227.99999999999997
10
98.897435897435884
20
-230.99999999999997
10
88.487179487179475
20
-230.99999999999997
0
LWPOLYLINE
5
128
100
AcDbEntity
8
0
100
AcDbPolyline
90
4
70
1
43
0.0
10
26.025641025641022
20
-230.99999999999997
10
26.025641025641022
20
-227.99999999999997
10
36.435897435897431
20
-227.99999999999997
10
36.435897435897431
20
-230.99999999999997
0
LWPOLYLINE
5
129
100
AcDbEntity
8
0
100
AcDbPolyline
90
4
70
1
43
0.0
10
67.666666666666657
20
-227.99999999999997
10
78.076923076923066
20
-227.99999999999997
10
78.076923076923066
20
-230.99999999999997
10
67.666666666666657
20
-230.99999999999997
0
LWPOLYLINE
5
130
100
AcDbEntity
8
0
100
AcDbPolyline
90
4
70
1
43
0.0
10
46.84615384615384
20
-230.99999999999997
10
46.84615384615384
20
-227.99999999999997
10
57.256410256410248
20
-227.99999999999997
10
57.256410256410248
20
-230.99999999999997
0
LWPOLYLINE
5
131
100
AcDbEntity
8
0
100
AcDbPolyline
90
4
70
1
43
0.0
10
5.2051282051282044
20
-227.99999999999997
10
15.615384615384613
20
-227.99999999999997
10
15.615384615384613
20
-230.99999999999997
10
5.2051282051282044
20
-230.99999999999997
0
LWPOLYLINE
5
132
100
AcDbEntity
8
0
100
AcDbPolyline
90
4
70
1
43
0.0
10
-36.435897435897431
20
-230.99999999999997
10
-36.435897435897431
20
-227.99999999999997
10
-26.025641025641022
20
-227.99999999999997
10
-26.025641025641022
20
-230.99999999999997
0
LWPOLYLINE
5
133
100
AcDbEntity
8
0
100
AcDbPolyline
90
4
70
1
43
0.0
10
-78.076923076923066
20
-227.99999999999997
10
-67.666666666666657
20
-227.99999999999997
10
-67.666666666666657
20
-230.99999999999997
10
-78.076923076923066
20
-230.99999999999997
0
LWPOLYLINE
5
134
100
AcDbEntity
8
0
100
AcDbPolyline
90
4
70
1
43
0.0
10
-119.7179487179487
20
-230.99999999999997
10
-119.7179487179487
20
-227.99999999999997
10
-109.30769230769229
20
-227.99999999999997
10
-109.30769230769229
20
-230.99999999999997
0
LWPOLYLINE
5
135
100
AcDbEntity
8
0
100
AcDbPolyline
90
4
70
1
43
0.0
10
-161.35897435897434
20
-227.99999999999997
10
-150.94871794871793
20
-227.99999999999997
10
-150.94871794871793
20
-230.99999999999997
10
-161.35897435897434
20
-230.99999999999997
0
LWPOLYLINE
5
136
100
AcDbEntity
8
0
100
AcDbPolyline
90
4
70
1
43
0.0
10
-202.99999999999997
20
-230.99999999999997
10
-202.99999999999997
20
-227.99999999999997
10
-192.58974358974356
20
-227.99999999999997
10
-192.58974358974356
20
-230.99999999999997
0
LWPOLYLINE
5
137
100
AcDbEntity
8
0
100
AcDbPolyline
90
6
70
1
43
0.0
10
192.58974358974356
20
-227.99999999999997
10
202.99999999999997
20
-227.99999999999997
10
202.99999999999997
20
-219.4736842105263
10
205.99999999999997
20
-219.4736842105263
10
205.99999999999997
20
-230.99999999999997
10
192.58974358974356
20
-230.99999999999997
0
LWPOLYLINE
5
138
100
AcDbEntity
8
0
100
AcDbPolyline
90
4
70
1
43
0.0
10
185.02564102564099
20
-9.0000000000000018
10
185.02564102564099
20
-12.000000000000002
10
174.53846153846149
20
-12.000000000000002
10
174.53846153846149
20
-9.0000000000000018
0
LWPOLYLINE
5
139
100
AcDbEntity
8
0
100
AcDbPolyline
90
4
70
1
43
0.0
10
-171.53846153846155
20
-12.000000000000002
10
-182.02564102564099
20
-12.000000000000002
10
-182.02564102564097
20
-9.0000000000000018
10
-171.53846153846155
20
-9.0000000000000018
0
LWPOLYLINE
5
140
100
AcDbEntity
8
0
100
AcDbPolyline
90
4
70
1
43
0.0
10
143.07692307692307
20
-9.0000000000000018
10
143.07692307692307
20
-12.000000000000002
10
132.58974358974356
20
-12.000000000000002
10
132.58974358974356
20
-9.0000000000000018
0
LWPOLYLINE
5
141
100
AcDbEntity
8
0
100
AcDbPolyline
90
4
70
1
43
0.0
10
-150.56410256410254
20
-12.000000000000002
10
-161.05128205128204
20
-12.000000000000002
10
-161.05128205128204
20
-9.0000000000000018
10
-150.56410256410254
20
-9.0000000000000018
0
LWPOLYLINE
5
142
100
AcDbEntity
8
0
100
AcDbPolyline
90
4
70
1
43
0.0
10
101.12820512820512
20
-9.0000000000000018
10
101.12820512820512
20
-12.000000000000002
10
90.641025641025621
20
-12.000000000000002
10
90.641025641025621
20
-9.0000000000000018
0
LWPOLYLINE
5
143
100
AcDbEntity
8
0
100
AcDbPolyline
90
4
70
1
43
0.0
10
-129.58974358974356
20
-12.000000000000002
10
-140.07692307692307
20
-12.000000000000002
10
-140.07692307692309
20
-9.0000000000000018
10
-129.58974358974359
20
-9.0000000000000018
0
LWPOLYLINE
5
144
100
AcDbEntity
8
0
100
AcDbPolyline
90
4
70
1
43
0.0
10
59.179487179487182
20
-9.0000000000000018
10
59.179487179487182
20
-12.000000000000002
10
48.692307692307679
20
-12.000000000000002
10
48.692307692307679
20
-9.0000000000000018
0
LWPOLYLINE
5
145
100
AcDbEntity
8
0
100
AcDbPolyline
90
4
70
1
43
0.0
10
-108.61538461538458
20
-12.000000000000002
10
-119.10256410256409
20
-12.000000000000002
10
-119.10256410256409
20
-9.0000000000000018
10
-108.61538461538458
20
-9.0000000000000018
0
LWPOLYLINE
5
146
100
AcDbEntity
8
0
100
AcDbPolyline
90
4
70
1
43
0.0
10
17.230769230769241
20
-9.0000000000000018
10
17.230769230769241
20
-12.000000000000002
10
6.7435897435897374
20
-12.000000000000002
10
6.7435897435897374
20
-9.0000000000000018
0
LWPOLYLINE
5
147
100
AcDbEntity
8
0
100
AcDbPolyline
90
4
70
1
43
0.0
10
-87.641025641025607
20
-12.000000000000002
10
-98.12820512820511
20
-12.000000000000002
10
-98.12820512820511
20
-9.0000000000000018
10
-87.641025641025607
20
-9.0000000000000018
0
LWPOLYLINE
5
148
100
AcDbEntity
8
0
100
AcDbPolyline
90
4
70
1
43
0.0
10
-24.717948717948701
20
-9.0000000000000018
10
-24.717948717948701
20
-12.000000000000002
10
-35.205128205128204
20
-12.000000000000002
10
-35.205128205128204
20
-9.0000000000000018
0
LWPOLYLINE
5
149
100
AcDbEntity
8
0
100
AcDbPolyline
90
4
70
1
43
0.0
10
-66.666666666666643
20
-12.000000000000002
10
-77.153846153846146
20
-12.000000000000002
10
-77.153846153846146
20
-9.0000000000000018
10
-66.666666666666643
20
-9.0000000000000018
0
LWPOLYLINE
5
150
100
AcDbEntity
8
0
100
AcDbPolyline
90
4
70
1
43
0.0
10
-45.692307692307672
20
-9.0000000000000018
10
-45.692307692307672
20
-12.000000000000002
10
-56.179487179487175
20
-12.000000000000002
10
-56.179487179487175
20
-9.0000000000000018
0
LWPOLYLINE
5
151
100
AcDbEntity
8
0
100
AcDbPolyline
90
4
70
1
43
0.0
10
-3.7435897435897303
20
-12.000000000000002
10
-14.230769230769234
20
-12.000000000000002
10
-14.230769230769234
20
-9.0000000000000018
10
-3.7435897435897303
20
-9.0000000000000018
0
LWPOLYLINE
5
152
100
AcDbEntity
8
0
100
AcDbPolyline
90
4
70
1
43
0.0
10
38.205128205128212
20
-9.0000000000000018
10
38.205128205128212
20
-12.000000000000002
10
27.717948717948708
20
-12.000000000000002
10
27.717948717948708
20
-9.0000000000000018
0
LWPOLYLINE
5
153
100
AcDbEntity
8
0
100
AcDbPolyline
90
4
70
1
43
0.0
10
80.15384615384616
20
-12.000000000000002
10
69.666666666666657
20
-12.000000000000002
10
69.666666666666657
20
-9.0000000000000018
10
80.15384615384616
20
-9.0000000000000018
0
LWPOLYLINE
5
154
100
AcDbEntity
8
0
100
AcDbPolyline
90
4
70
1
43
0.0
10
122.10256410256406
20
-9.0000000000000018
10
122.10256410256406
20
-12.000000000000002
10
111.61538461538458
20
-12.000000000000002
10
111.61538461538458
20
-9.0000000000000018
0
LWPOLYLINE
5
155
100
AcDbEntity
8
0
100
AcDbPolyline
90
4
70
1
43
0.0
10
164.05128205128207
20
-12.000000000000002
10
153.56410256410257
20
-12.000000000000002
10
153.56410256410257
20
-9.0000000000000018
10
164.05128205128207
20
-9.0000000000000018
0
LWPOLYLINE
5
156
100
AcDbEntity
8
0
100
AcDbPolyline
90
4
70
1
43
0.0
10
-192.51282051282047
20
-12.000000000000002
10
-202.99999999999997
20
-12.000000000000002
10
-202.99999999999997
20
-9.0000000000000018
10
-192.51282051282047
20
-9.0000000000000018
0
LWPOLYLINE
5
157
100
AcDbEntity
8
0
100
AcDbPolyline
90
228
70
1
43
0.0
10
-201.05128205128207
20
0
10
-201.0512820512821
20
-3.0000000000000004
10
-212
20
-3.0000000000000004
10
-212
20
-12.631578947368425
10
-215
20
-12.631578947368425
10
-215
20
-25.26315789473685
10
-212
20
-25.26315789473685
10
-212
20
-37.894736842105274
10
-215
20
-37.894736842105274
10
-215
20
-50.526315789473699
10
-212
20
-50.526315789473699
10
-212
20
-63.157894736842124
10
-215
20
-63.157894736842124
10
-215
20
-75.789473684210549
10
-212
20
-75.789473684210549
10
-212
20
-88.421052631578959
10
-215
20
-88.421052631578959
10
-215
20
-101.05263157894737
10
-212
20
-101.05263157894737
10
-212
20
-113.68421052631578
10
-215
20
-113.68421052631578
10
-215
20
-126.31578947368422
10
-212
20
-126.31578947368422
10
-212
20
-138.94736842105263
10
-215
20
-138.94736842105263
10
-215
20
-151.57894736842107
10
-212
20
-151.57894736842107
10
-212
20
-164.21052631578948
10
-215
20
-164.21052631578948
10
-215
20
-176.84210526315786
10
-212
20
-176.84210526315792
10
-212
20
-189.47368421052633
10
-215
20
-189.4736842105263
10
-215
20
-202.10526315789474
10
-212
20
-202.10526315789474
10
-212
20
-214.73684210526315
10
-215
20
-214.73684210526315
10
-215
20
-227.36842105263156
10
-212
20
-227.36842105263156
10
-212.00000000000003
20
-237
10
-201.0512820512821
20
-237
10
-201.0512820512821
20
-240
10
-190.10256410256409
20
-240
10
-190.10256410256409
20
-237
10
-179.15384615384619
20
-237
10
-179.15384615384619
20
-240
10
-168.20512820512823
20
-240
10
-168.20512820512823
20
-237
10
-157.25641025641033
20
-237
10
-157.25641025641033
20
-240
10
-146.30769230769232
20
-240
10
-146.30769230769232
20
-237
10
-135.35897435897439
20
-237
10
-135.35897435897439
20
-240
10
-124.41025641025639
20
-240
10
-124.41025641025639
20
-237
10
-113.46153846153847
20
-237
10
-113.46153846153847
20
-240
10
-102.51282051282054
20
-240
10
-102.51282051282054
20
-237
10
-91.564102564102612
20
-237
10
-91.564102564102612
20
-240
10
-80.615384615384613
20
-240
10
-80.615384615384613
20
-237
10
-69.666666666666686
20
-237
10
-69.666666666666686
20
-240
10
-58.717948717948723
20
-240
10
-58.717948717948723
20
-237
10
-47.769230769230795
20
-237
10
-47.769230769230795
20
-240
10
-36.820512820512832
20
-240
10
-36.820512820512832
20
-237
10
-25.871794871794904
20
-237
10
-25.871794871794904
20
-240
10
-14.923076923076906
20
-240
10
-14.923076923076906
20
-237
10
-3.974358974358978
20
-237
10
-3.974358974358978
20
-240
10
6.9743589743589851
20
-240
10
6.9743589743589851
20
-237
10
17.923076923076913
20
-237
10
17.923076923076913
20
-240
10
28.871794871794876
20
-240
10
28.871794871794876
20
-237
10
39.820512820512803
20
-237
10
39.820512820512803
20
-240
10
50.769230769230731
20
-240
10
50.769230769230731
20
-237
10
61.717948717948694
20
-237
10
61.717948717948694
20
-240
10
72.666666666666643
20
-240
10
72.666666666666657
20
-237
10
83.615384615384585
20
-237
10
83.615384615384599
20
-240
10
94.564102564102541
20
-240
10
94.564102564102541
20
-237
10
105.51282051282051
20
-237
10
105.51282051282051
20
-240
10
116.46153846153844
20
-240
10
116.46153846153844
20
-237
10
127.41025641025644
20
-237
10
127.41025641025641
20
-240
10
138.35897435897436
20
-240
10
138.35897435897436
20
-237
10
149.30769230769229
20
-237
10
149.30769230769229
20
-240
10
160.25641025641025
20
-240
10
160.25641025641022
20
-237
10
171.20512820512823
20
-237
10
171.20512820512823
20
-240
10
182.15384615384613
20
-240
10
182.15384615384613
20
-237
10
193.10256410256409
20
-237
10
193.10256410256412
20
-240
10
204.05128205128204
20
-240
10
204.05128205128207
20
-237
10
212
20
-237.00000000000003
10
212
20
-224.68421056522774
10
215
20
-224.68421052415405
10
215
20
-212.36842104830811
10
212
20
-212.3684210893818
10
212
20
-200.05263161353579
10
215
20
-200.05263157246208
10
215
20
-187.73684209661613
10
212
20
-187.73684213768985
10
212
20
-175.42105266184382
10
215
20
-175.42105262077013
10
215
20
-163.10526314492409
10
212
20
-163.10526318599784
10
212
20
-150.78947371015184
10
215
20
-150.78947366907815
10
215
20
-138.47368419323215
10
212
20
-138.47368423430584
10
212
20
-126.15789475845986
10
215
20
-126.15789471738616
10
215
20
-113.84210524154015
10
212
20
-113.84210528261389
10
212
20
-101.5263158067679
10
215
20
-101.52631576569418
10
215
20
-89.21052628984819
10
212
20
-89.210526330921908
10
212
20
-76.894736855075905
10
215
20
-76.894736814002215
10
215
20
-64.578947338156226
10
212
20
-64.57894737922993
10
212
20
-52.263157903383942
10
215
20
-52.263157862310237
10
215
20
-39.947368386464248
10
212
20
-39.947368427537953
10
212
20
-27.631578951691967
10
215
20
-27.631578910618263
10
215
20
-15.315789434772274
10
212
20
-15.315789475845985
10
212
20
-3.0000000000000004
10
204.05128205128207
20
-3.0000000000000004
10
204.05128205128207
20
0
10
193.10256410256409
20
0
10
193.10256410256409
20
-3.0000000000000004
10
182.15384615384613
20
-3.0000000000000004
10
182.15384615384613
20
0
10
171.20512820512823
20
0
10
171.20512820512823
20
-3.0000000000000004
10
160.25641025641028
20
-3.0000000000000004
10
160.25641025641028
20
0
10
149.30769230769229
20
0
10
149.30769230769229
20
-3.0000000000000004
10
138.35897435897436
20
-3.0000000000000004
10
138.35897435897436
20
0
10
127.41025641025637
20
0
10
127.41025641025637
20
-3.0000000000000004
10
116.46153846153844
20
-3.0000000000000004
10
116.46153846153844
20
0
10
105.51282051282051
20
0
10
105.51282051282051
20
-3.0000000000000004
10
94.564102564102583
20
-3.0000000000000004
10
94.564102564102583
20
0
10
83.615384615384585
20
0
10
83.615384615384585
20
-3.0000000000000004
10
72.666666666666657
20
-3.0000000000000004
10
72.666666666666657
20
0
10
61.717948717948694
20
0
10
61.717948717948694
20
-3.0000000000000004
10
50.769230769230766
20
-3.0000000000000004
10
50.769230769230766
20
0
10
39.820512820512803
20
0
10
39.820512820512803
20
-3.0000000000000004
10
28.871794871794876
20
-3.0000000000000004
10
28.871794871794876
20
0
10
17.923076923076877
20
0
10
17.923076923076877
20
-3.0000000000000004
10
6.9743589743589496
20
-3.0000000000000004
10
6.9743589743589496
20
0
10
-3.9743589743590135
20
0
10
-3.9743589743590135
20
-3.0000000000000004
10
-14.923076923076941
20
-3.0000000000000004
10
-14.923076923076941
20
0
10
-25.871794871794904
20
0
10
-25.871794871794904
20
-3.0000000000000004
10
-36.820512820512832
20
-3.0000000000000004
10
-36.820512820512832
20
0
10
-47.769230769230759
20
0
10
-47.769230769230759
20
-3.0000000000000004
10
-58.717948717948723
20
-3.0000000000000004
10
-58.717948717948723
20
0
10
-69.666666666666671
20
0
10
-69.666666666666686
20
-3.0000000000000004
10
-80.615384615384613
20
-3.0000000000000004
10
-80.615384615384627
20
0
10
-91.564102564102569
20
0
10
-91.564102564102569
20
-3.0000000000000004
10
-102.51282051282054
20
-3.0000000000000004
10
-102.51282051282054
20
0
10
-113.46153846153847
20
0
10
-113.46153846153847
20
-3.0000000000000004
10
-124.41025641025647
20
-3.0000000000000004
10
-124.41025641025644
20
0
10
-135.35897435897439
20
0
10
-135.35897435897439
20
-3.0000000000000004
10
-146.30769230769232
20
-3.0000000000000004
10
-146.30769230769232
20
0
10
-157.25641025641028
20
0
10
-157.25641025641025
20
-3.0000000000000004
10
-168.20512820512823
20
-3.0000000000000004
10
-168.20512820512823
20
0
10
-179.15384615384619
20
0
10
-179.15384615384619
20
-3.0000000000000004
10
-190.10256410256409
20
-3.0000000000000004
10
-190.10256410256414
20
0
0
ENDSEC
0
SECTION
2
OBJECTS
0
DICTIONARY
5
C
100
AcDbDictionary
3
ACAD_GROUP
350
D
3
ACAD_MLINESTYLE
350
17
0
DICTIONARY
5
D
100
AcDbDictionary
0
DICTIONARY
5
1A
330
C
100
AcDbDictionary
0
DICTIONARY
5
17
100
AcDbDictionary
0
ENDSEC
0
EOF
