0
SECTION
2
HEADER
9
$INSUNITS
70
4
9
$ACADVER
1
AC1014
9
$HANDSEED
5
FFFF
0
ENDSEC
0
SECTION
2
TABLES
0
TABLE
2
VPORT
5
8
100
AcDbSymbolTable
0
ENDTAB
0
TABLE
2
LTYPE
5
5
100
AcDbSymbolTable
0
LTYPE
5
14
100
AcDbSymbolTableRecord
100
AcDbLinetypeTableRecord
2
BYBLOCK
70
0
0
LTYPE
5
15
100
AcDbSymbolTableRecord
100
AcDbLinetypeTableRecord
2
BYLAYER
70
0
0
LTYPE
5
16
100
AcDbSymbolTableRecord
100
AcDbLinetypeTableRecord
2
DASHED
70
0
3
Dashed __ __ __ __ __ __ __ __ __ __ __ __ __ _
72
65
73
2
40
0.75
49
0.5
74
0
49
-0.25
74
0
0
ENDTAB
0
TABLE
2
LAYER
5
2
100
AcDbSymbolTable
70
2
0
LAYER
5
50
100
AcDbSymbolTableRecord
100
AcDbLayerTableRecord
2
0
70
0
62
7
6
CONTINUOUS
0
ENDTAB
0
TABLE
2
STYLE
5
3
100
AcDbSymbolTable
70
1
0
STYLE
5
11
100
AcDbSymbolTableRecord
100
AcDbTextStyleTableRecord
2
STANDARD
70
0
0
ENDTAB
0
TABLE
2
VIEW
5
6
100
AcDbSymbolTable
70
0
0
ENDTAB
0
TABLE
2
UCS
5
7
100
AcDbSymbolTable
70
0
0
ENDTAB
0
TABLE
2
APPID
5
9
100
AcDbSymbolTable
70
2
0
APPID
5
12
100
AcDbSymbolTableRecord
100
AcDbRegAppTableRecord
2
ACAD
70
0
0
ENDTAB
0
TABLE
2
DIMSTYLE
5
A
100
AcDbSymbolTable
70
1
0
ENDTAB
0
TABLE
2
BLOCK_RECORD
5
1
100
AcDbSymbolTable
70
1
0
BLOCK_RECORD
5
1F
100
AcDbSymbolTableRecord
100
AcDbBlockTableRecord
2
*MODEL_SPACE
0
BLOCK_RECORD
5
1B
100
AcDbSymbolTableRecord
100
AcDbBlockTableRecord
2
*PAPER_SPACE
0
ENDTAB
0
ENDSEC
0
SECTION
2
BLOCKS
0
BLOCK
5
20
100
AcDbEntity
100
AcDbBlockBegin
2
*MODEL_SPACE
0
ENDBLK
5
21
100
AcDbEntity
100
AcDbBlockEnd
0
BLOCK
5
1C
100
AcDbEntity
100
AcDbBlockBegin
2
*PAPER_SPACE
0
ENDBLK
5
1D
100
AcDbEntity
100
AcDbBlockEnd
0
ENDSEC
0
SECTION
2
ENTITIES
0
LWPOLYLINE
5
100
100
AcDbEntity
8
0
100
AcDbPolyline
90
188
70
1
43
0.0
10
203.97435897435898
20
60
10
203.97435897435898
20
63
10
192.94871794871796
20
63
10
192.94871794871796
20
60
10
181.92307692307693
20
60
10
181.92307692307693
20
63
10
170.89743589743591
20
63
10
170.89743589743591
20
60
10
159.87179487179489
20
60
10
159.87179487179489
20
63
10
148.84615384615387
20
63
10
148.84615384615387
20
60
10
137.82051282051285
20
60
10
137.82051282051285
20
63
10
126.79487179487182
20
63
10
126.79487179487182
20
60
10
115.7692307692308
20
60
10
115.7692307692308
20
63
10
104.74358974358975
20
63
10
104.74358974358975
20
60
10
93.71794871794873
20
60
10
93.71794871794873
20
63
10
82.692307692307665
20
63
10
82.692307692307665
20
60
10
71.666666666666643
20
60
10
71.666666666666643
20
63
10
60.641025641025621
20
63
10
60.641025641025621
20
60
10
49.615384615384599
20
60
10
49.615384615384599
20
63
10
38.589743589743577
20
63
10
38.589743589743577
20
60
10
27.564102564102555
20
60
10
27.564102564102555
20
63
10
16.538461538461533
20
63
10
16.538461538461533
20
60
10
5.512820512820511
20
60
10
5.512820512820511
20
63
10
-5.512820512820511
20
63
10
-5.512820512820511
20
60
10
-16.538461538461533
20
60
10
-16.538461538461533
20
63
10
-27.564102564102591
20
63
10
-27.564102564102591
20
60
10
-38.589743589743613
20
60
10
-38.589743589743613
20
63
10
-49.615384615384635
20
63
10
-49.615384615384635
20
60
10
-60.641025641025657
20
60
10
-60.641025641025657
20
63
10
-71.666666666666686
20
63
10
-71.666666666666686
20
60
10
-82.692307692307708
20
60
10
-82.692307692307708
20
63
10
-93.717948717948758
20
63
10
-93.717948717948758
20
60
10
-104.74358974358978
20
60
10
-104.74358974358978
20
63
10
-115.7692307692308
20
63
10
-115.7692307692308
20
60
10
-126.79487179487182
20
60
10
-126.79487179487182
20
63
10
-137.82051282051285
20
63
10
-137.82051282051285
20
60
10
-148.84615384615387
20
60
10
-148.84615384615387
20
63
10
-159.87179487179489
20
63
10
-159.87179487179489
20
60
10
-170.89743589743591
20
60
10
-170.89743589743591
20
63
10
-181.92307692307693
20
63
10
-181.92307692307693
20
60
10
-192.94871794871796
20
60
10
-192.94871794871796
20
63
10
-203.97435897435898
20
63
10
-203.97435897435898
20
60
10
-212
20
60
10
-212
20
53.333333333333329
10
-215
20
53.333333333333329
10
-215
20
46.666666666666657
10
-212
20
46.666666666666657
10
-212
20
39.999999999999993
10
-215
20
39.999999999999993
10
-215
20
33.333333333333336
10
-212
20
33.333333333333336
10
-212
20
26.666666666666664
10
-215
20
26.666666666666664
10
-215
20
19.999999999999996
10
-212
20
19.999999999999996
10
-212
20
13.333333333333332
10
-215
20
13.333333333333332
10
-215
20
6.6666666666666661
10
-212
20
6.6666666666666661
10
-212
20
0
10
-201.05128205128207
20
0
10
-201.0512820512821
20
3.0000000000000004
10
-190.10256410256414
20
3.0000000000000004
10
-190.10256410256414
20
0
10
-179.15384615384619
20
0
10
-179.15384615384619
20
3.0000000000000004
10
-168.20512820512823
20
3.0000000000000004
10
-168.20512820512823
20
0
10
-157.25641025641028
20
0
10
-157.25641025641028
20
3.0000000000000004
10
-146.30769230769235
20
3.0000000000000004
10
-146.30769230769235
20
0
10
-135.35897435897436
20
0
10
-135.35897435897436
20
3.0000000000000004
10
-124.41025641025641
20
3.0000000000000004
10
-124.41025641025641
20
0
10
-113.46153846153848
20
0
10
-113.46153846153848
20
3.0000000000000004
10
-102.51282051282053
20
3.0000000000000004
10
-102.51282051282053
20
0
10
-91.564102564102598
20
0
10
-91.564102564102598
20
3.0000000000000004
10
-80.615384615384627
20
3.0000000000000004
10
-80.615384615384627
20
0
10
-69.666666666666686
20
0
10
-69.666666666666686
20
3.0000000000000004
10
-58.717948717948723
20
3.0000000000000004
10
-58.717948717948723
20
0
10
-47.769230769230759
20
0
10
-47.769230769230759
20
3.0000000000000004
10
-36.820512820512832
20
3.0000000000000004
10
-36.820512820512832
20
0
10
-25.871794871794869
20
0
10
-25.871794871794869
20
3.0000000000000004
10
-14.923076923076941
20
3.0000000000000004
10
-14.923076923076941
20
0
10
-3.974358974358978
20
0
10
-3.974358974358978
20
3.0000000000000004
10
6.9743589743589496
20
3.0000000000000004
10
6.9743589743589496
20
0
10
17.923076923076913
20
0
10
17.923076923076913
20
3.0000000000000004
10
28.87179487179484
20
3.0000000000000004
10
28.87179487179484
20
0
10
39.820512820512839
20
0
10
39.820512820512839
20
3.0000000000000004
10
50.769230769230766
20
3.0000000000000004
10
50.769230769230766
20
0
10
61.71794871794873
20
0
10
61.71794871794873
20
3.0000000000000004
10
72.666666666666657
20
3.0000000000000004
10
72.666666666666657
20
0
10
83.615384615384613
20
0
10
83.615384615384613
20
3.0000000000000004
10
94.564102564102541
20
3.0000000000000004
10
94.564102564102541
20
0
10
105.51282051282058
20
0
10
105.51282051282058
20
3.0000000000000004
10
116.46153846153851
20
3.0000000000000004
10
116.46153846153851
20
0
10
127.41025641025637
20
0
10
127.41025641025637
20
3.0000000000000004
10
138.35897435897431
20
3.0000000000000004
10
138.35897435897431
20
0
10
149.30769230769229
20
0
10
149.30769230769229
20
3.0000000000000004
10
160.25641025641022
20
3.0000000000000004
10
160.25641025641022
20
0
10
171.20512820512823
20
0
10
171.20512820512823
20
3.0000000000000004
10
182.15384615384613
20
3.0000000000000004
10
182.15384615384613
20
0
10
193.10256410256409
20
0
10
193.10256410256409
20
3.0000000000000004
10
204.05128205128199
20
3.0000000000000004
10
204.05128205128199
20
0
10
215
20
0
10
215
20
6.6666666666666679
10
212.00000000000003
20
6.6666666666666679
10
212.00000000000003
20
13.333333333333332
10
215
20
13.333333333333332
10
215
20
20
10
212.00000000000003
20
20
10
212.00000000000003
20
26.666666666666671
10
215
20
26.666666666666671
10
215
20
33.333333333333329
10
212.00000000000003
20
33.333333333333329
10
212.00000000000003
20
40
10
215
20
40
10
215
20
46.666666666666671
10
212.00000000000003
20
46.666666666666671
10
212.00000000000003
20
53.333333333333329
10
215
20
53.333333333333329
10
215
20
60
0
ENDSEC
0
SECTION
2
OBJECTS
0
DICTIONARY
5
C
100
AcDbDictionary
3
ACAD_GROUP
350
D
3
ACAD_MLINESTYLE
350
17
0
DICTIONARY
5
D
100
AcDbDictionary
0
DICTIONARY
5
1A
330
C
100
AcDbDictionary
0
DICTIONARY
5
17
100
AcDbDictionary
0
ENDSEC
0
EOF
