0
SECTION
2
HEADER
9
$INSUNITS
70
4
9
$ACADVER
1
AC1014
9
$HANDSEED
5
FFFF
0
ENDSEC
0
SECTION
2
TABLES
0
TABLE
2
VPORT
5
8
100
AcDbSymbolTable
0
ENDTAB
0
TABLE
2
LTYPE
5
5
100
AcDbSymbolTable
0
LTYPE
5
14
100
AcDbSymbolTableRecord
100
AcDbLinetypeTableRecord
2
BYBLOCK
70
0
0
LTYPE
5
15
100
AcDbSymbolTableRecord
100
AcDbLinetypeTableRecord
2
BYLAYER
70
0
0
LTYPE
5
16
100
AcDbSymbolTableRecord
100
AcDbLinetypeTableRecord
2
DASHED
70
0
3
Dashed __ __ __ __ __ __ __ __ __ __ __ __ __ _
72
65
73
2
40
0.75
49
0.5
74
0
49
-0.25
74
0
0
ENDTAB
0
TABLE
2
LAYER
5
2
100
AcDbSymbolTable
70
2
0
LAYER
5
50
100
AcDbSymbolTableRecord
100
AcDbLayerTableRecord
2
0
70
0
62
7
6
CONTINUOUS
0
ENDTAB
0
TABLE
2
STYLE
5
3
100
AcDbSymbolTable
70
1
0
STYLE
5
11
100
AcDbSymbolTableRecord
100
AcDbTextStyleTableRecord
2
STANDARD
70
0
0
ENDTAB
0
TABLE
2
VIEW
5
6
100
AcDbSymbolTable
70
0
0
ENDTAB
0
TABLE
2
UCS
5
7
100
AcDbSymbolTable
70
0
0
ENDTAB
0
TABLE
2
APPID
5
9
100
AcDbSymbolTable
70
2
0
APPID
5
12
100
AcDbSymbolTableRecord
100
AcDbRegAppTableRecord
2
ACAD
70
0
0
ENDTAB
0
TABLE
2
DIMSTYLE
5
A
100
AcDbSymbolTable
70
1
0
ENDTAB
0
TABLE
2
BLOCK_RECORD
5
1
100
AcDbSymbolTable
70
1
0
BLOCK_RECORD
5
1F
100
AcDbSymbolTableRecord
100
AcDbBlockTableRecord
2
*MODEL_SPACE
0
BLOCK_RECORD
5
1B
100
AcDbSymbolTableRecord
100
AcDbBlockTableRecord
2
*PAPER_SPACE
0
ENDTAB
0
ENDSEC
0
SECTION
2
BLOCKS
0
BLOCK
5
20
100
AcDbEntity
100
AcDbBlockBegin
2
*MODEL_SPACE
0
ENDBLK
5
21
100
AcDbEntity
100
AcDbBlockEnd
0
BLOCK
5
1C
100
AcDbEntity
100
AcDbBlockBegin
2
*PAPER_SPACE
0
ENDBLK
5
1D
100
AcDbEntity
100
AcDbBlockEnd
0
ENDSEC
0
SECTION
2
ENTITIES
0
LWPOLYLINE
5
100
100
AcDbEntity
8
0
100
AcDbPolyline
90
4
70
1
43
0.0
10
-205.99999999999994
20
-217.94117647847702
10
-205.99999999999994
20
-204.88235295695409
10
-202.99999999999994
20
-204.88235295695415
10
-202.99999999999997
20
-217.94117647847708
0
LWPOLYLINE
5
101
100
AcDbEntity
8
0
100
AcDbPolyline
90
4
70
1
43
0.0
10
-205.99999999999994
20
-22.058823655633514
10
-202.99999999999994
20
-22.058823655633514
10
-202.99999999999997
20
-35.117647177156385
10
-205.99999999999997
20
-35.117647177156393
0
LWPOLYLINE
5
102
100
AcDbEntity
8
0
100
AcDbPolyline
90
4
70
1
43
0.0
10
-205.99999999999994
20
-87.352941263247999
10
-205.99999999999994
20
-74.294117741725088
10
-202.99999999999994
20
-74.294117741725088
10
-202.99999999999997
20
-87.352941263247999
0
LWPOLYLINE
5
103
100
AcDbEntity
8
0
100
AcDbPolyline
90
4
70
1
43
0.0
10
-205.99999999999994
20
-126.52941182781673
10
-202.99999999999994
20
-126.52941182781673
10
-202.99999999999997
20
-139.58823534933964
10
-205.99999999999997
20
-139.58823534933964
0
LWPOLYLINE
5
104
100
AcDbEntity
8
0
100
AcDbPolyline
90
4
70
1
43
0.0
10
-205.99999999999994
20
-165.70588239238543
10
-205.99999999999994
20
-152.64705887086254
10
-202.99999999999994
20
-152.64705887086254
10
-202.99999999999997
20
-165.70588239238543
0
LWPOLYLINE
5
105
100
AcDbEntity
8
0
100
AcDbPolyline
90
4
70
1
43
0.0
10
-205.99999999999994
20
-100.41176478477091
10
-202.99999999999994
20
-100.41176478477091
10
-202.99999999999997
20
-113.47058830629382
10
-205.99999999999997
20
-113.47058830629381
0
LWPOLYLINE
5
106
100
AcDbEntity
8
0
100
AcDbPolyline
90
4
70
1
43
0.0
10
-205.99999999999994
20
-191.82352943543125
10
-205.99999999999994
20
-178.76470591390839
10
-202.99999999999994
20
-178.76470591390839
10
-202.99999999999997
20
-191.82352943543125
0
LWPOLYLINE
5
107
100
AcDbEntity
8
0
100
AcDbPolyline
90
4
70
1
43
0.0
10
-205.99999999999994
20
-48.176470698679339
10
-202.99999999999994
20
-48.176470698679339
10
-202.99999999999997
20
-61.235294220202206
10
-205.99999999999997
20
-61.235294220202221
0
LWPOLYLINE
5
108
100
AcDbEntity
8
0
100
AcDbPolyline
90
4
70
1
43
0.0
10
205.99999999999972
20
-22.058823529411885
10
205.99999999999972
20
-35.117647058823628
10
202.99999999999972
20
-35.117647058823636
10
202.99999999999977
20
-22.058823529411889
0
LWPOLYLINE
5
109
100
AcDbEntity
8
0
100
AcDbPolyline
90
4
70
1
43
0.0
10
205.99999999999972
20
-217.94117647058815
10
202.99999999999972
20
-217.94117647058815
10
202.99999999999977
20
-204.88235294117641
10
205.99999999999977
20
-204.88235294117646
0
LWPOLYLINE
5
110
100
AcDbEntity
8
0
100
AcDbPolyline
90
4
70
1
43
0.0
10
205.99999999999972
20
-152.64705882352945
10
205.99999999999972
20
-165.70588235294122
10
202.99999999999972
20
-165.70588235294122
10
202.99999999999977
20
-152.64705882352945
0
LWPOLYLINE
5
111
100
AcDbEntity
8
0
100
AcDbPolyline
90
4
70
1
43
0.0
10
205.99999999999972
20
-113.47058823529417
10
202.99999999999972
20
-113.47058823529417
10
202.99999999999977
20
-100.41176470588243
10
205.99999999999977
20
-100.41176470588243
0
LWPOLYLINE
5
112
100
AcDbEntity
8
0
100
AcDbPolyline
90
4
70
1
43
0.0
10
205.99999999999972
20
-74.294117647058911
10
205.99999999999972
20
-87.352941176470665
10
202.99999999999972
20
-87.352941176470665
10
202.99999999999977
20
-74.294117647058911
0
LWPOLYLINE
5
113
100
AcDbEntity
8
0
100
AcDbPolyline
90
4
70
1
43
0.0
10
205.99999999999972
20
-139.58823529411771
10
202.99999999999972
20
-139.58823529411771
10
202.99999999999977
20
-126.52941176470594
10
205.99999999999977
20
-126.52941176470594
0
LWPOLYLINE
5
114
100
AcDbEntity
8
0
100
AcDbPolyline
90
4
70
1
43
0.0
10
205.99999999999972
20
-48.176470588235397
10
205.99999999999972
20
-61.235294117647157
10
202.99999999999972
20
-61.235294117647172
10
202.99999999999977
20
-48.176470588235404
0
LWPOLYLINE
5
115
100
AcDbEntity
8
0
100
AcDbPolyline
90
4
70
1
43
0.0
10
205.99999999999972
20
-191.82352941176472
10
202.99999999999972
20
-191.82352941176472
10
202.99999999999977
20
-178.76470588235296
10
205.99999999999977
20
-178.76470588235296
0
LWPOLYLINE
5
116
100
AcDbEntity
8
0
100
AcDbPolyline
90
4
70
1
43
0.0
10
183.72972972972948
20
-9.0000000000001243
10
194.86486486486461
20
-9.0000000000001243
10
194.86486486486461
20
-12.000000000000128
10
183.72972972972948
20
-12.000000000000128
0
LWPOLYLINE
5
117
100
AcDbEntity
8
0
100
AcDbPolyline
90
4
70
1
43
0.0
10
-194.86486486486481
20
-12.000000000000128
10
-194.86486486486481
20
-9.0000000000001243
10
-183.72972972972971
20
-9.0000000000001243
10
-183.72972972972971
20
-12.000000000000128
0
LWPOLYLINE
5
118
100
AcDbEntity
8
0
100
AcDbPolyline
90
4
70
1
43
0.0
10
-150.32432432432427
20
-9.0000000000001243
10
-139.18918918918916
20
-9.0000000000001243
10
-139.18918918918919
20
-12.000000000000128
10
-150.32432432432429
20
-12.000000000000128
0
LWPOLYLINE
5
119
100
AcDbEntity
8
0
100
AcDbPolyline
90
4
70
1
43
0.0
10
-105.78378378378378
20
-12.000000000000128
10
-105.78378378378375
20
-9.0000000000001243
10
-94.648648648648646
20
-9.0000000000001243
10
-94.648648648648702
20
-12.000000000000128
0
LWPOLYLINE
5
120
100
AcDbEntity
8
0
100
AcDbPolyline
90
4
70
1
43
0.0
10
-61.243243243243313
20
-9.0000000000001243
10
-50.108108108108226
20
-9.0000000000001243
10
-50.108108108108212
20
-12.000000000000128
10
-61.243243243243306
20
-12.000000000000128
0
LWPOLYLINE
5
121
100
AcDbEntity
8
0
100
AcDbPolyline
90
4
70
1
43
0.0
10
-16.702702702702787
20
-12.000000000000128
10
-16.702702702702787
20
-9.0000000000001243
10
-5.567567567567691
20
-9.0000000000001243
10
-5.5675675675676892
20
-12.000000000000128
0
LWPOLYLINE
5
122
100
AcDbEntity
8
0
100
AcDbPolyline
90
4
70
1
43
0.0
10
27.837837837837736
20
-9.0000000000001243
10
38.972972972972826
20
-9.0000000000001243
10
38.972972972972833
20
-12.000000000000128
10
27.837837837837736
20
-12.000000000000128
0
LWPOLYLINE
5
123
100
AcDbEntity
8
0
100
AcDbPolyline
90
4
70
1
43
0.0
10
50.108108108107963
20
-12.000000000000128
10
50.108108108107963
20
-9.0000000000001243
10
61.243243243243093
20
-9.0000000000001243
10
61.2432432432431
20
-12.000000000000128
0
LWPOLYLINE
5
124
100
AcDbEntity
8
0
100
AcDbPolyline
90
4
70
1
43
0.0
10
72.378378378378216
20
-9.0000000000001243
10
83.513513513513345
20
-9.0000000000001243
10
83.513513513513317
20
-12.000000000000128
10
72.378378378378216
20
-12.000000000000128
0
LWPOLYLINE
5
125
100
AcDbEntity
8
0
100
AcDbPolyline
90
4
70
1
43
0.0
10
5.5675675675674761
20
-12.000000000000128
10
5.5675675675674761
20
-9.0000000000001243
10
16.702702702702574
20
-9.0000000000001243
10
16.702702702702574
20
-12.000000000000128
0
LWPOLYLINE
5
126
100
AcDbEntity
8
0
100
AcDbPolyline
90
4
70
1
43
0.0
10
94.648648648648475
20
-9.0000000000001243
10
105.7837837837836
20
-9.0000000000001243
10
105.78378378378358
20
-12.000000000000128
10
94.648648648648475
20
-12.000000000000128
0
LWPOLYLINE
5
127
100
AcDbEntity
8
0
100
AcDbPolyline
90
4
70
1
43
0.0
10
-38.972972972973047
20
-12.000000000000128
10
-38.972972972973047
20
-9.0000000000001243
10
-27.837837837837949
20
-9.0000000000001243
10
-27.837837837837949
20
-12.000000000000128
0
LWPOLYLINE
5
128
100
AcDbEntity
8
0
100
AcDbPolyline
90
4
70
1
43
0.0
10
116.91891891891872
20
-9.0000000000001243
10
128.05405405405386
20
-9.0000000000001243
10
128.05405405405384
20
-12.000000000000128
10
116.91891891891873
20
-12.000000000000128
0
LWPOLYLINE
5
129
100
AcDbEntity
8
0
100
AcDbPolyline
90
4
70
1
43
0.0
10
-83.51351351351353
20
-12.000000000000128
10
-83.513513513513487
20
-9.0000000000001243
10
-72.3783783783784
20
-9.0000000000001243
10
-72.378378378378443
20
-12.000000000000128
0
LWPOLYLINE
5
130
100
AcDbEntity
8
0
100
AcDbPolyline
90
4
70
1
43
0.0
10
139.18918918918899
20
-9.0000000000001243
10
150.32432432432412
20
-9.0000000000001243
10
150.3243243243241
20
-12.000000000000128
10
139.18918918918897
20
-12.000000000000128
0
LWPOLYLINE
5
131
100
AcDbEntity
8
0
100
AcDbPolyline
90
4
70
1
43
0.0
10
-128.05405405405401
20
-12.000000000000128
10
-128.05405405405401
20
-9.0000000000001243
10
-116.91891891891892
20
-9.0000000000001243
10
-116.91891891891892
20
-12.000000000000128
0
LWPOLYLINE
5
132
100
AcDbEntity
8
0
100
AcDbPolyline
90
4
70
1
43
0.0
10
161.45945945945923
20
-9.0000000000001243
10
172.59459459459435
20
-9.0000000000001243
10
172.59459459459435
20
-12.000000000000128
10
161.45945945945923
20
-12.000000000000128
0
LWPOLYLINE
5
133
100
AcDbEntity
8
0
100
AcDbPolyline
90
4
70
1
43
0.0
10
-172.59459459459453
20
-12.000000000000128
10
-172.59459459459453
20
-9.0000000000001243
10
-161.45945945945942
20
-9.0000000000001243
10
-161.45945945945942
20
-12.000000000000128
0
LWPOLYLINE
5
134
100
AcDbEntity
8
0
100
AcDbPolyline
90
4
70
1
43
0.0
10
194.86486486486461
20
-230.99999999999997
10
183.72972972972948
20
-230.99999999999997
10
183.72972972972948
20
-227.99999999999997
10
194.86486486486461
20
-227.99999999999994
0
LWPOLYLINE
5
135
100
AcDbEntity
8
0
100
AcDbPolyline
90
4
70
1
43
0.0
10
-194.86486486486481
20
-230.99999999999997
10
-194.86486486486481
20
-227.99999999999997
10
-183.72972972972971
20
-227.99999999999994
10
-183.72972972972971
20
-230.99999999999994
0
LWPOLYLINE
5
136
100
AcDbEntity
8
0
100
AcDbPolyline
90
4
70
1
43
0.0
10
-139.18918918918919
20
-230.99999999999997
10
-150.32432432432429
20
-230.99999999999997
10
-150.32432432432427
20
-227.99999999999997
10
-139.18918918918916
20
-227.99999999999994
0
LWPOLYLINE
5
137
100
AcDbEntity
8
0
100
AcDbPolyline
90
4
70
1
43
0.0
10
-105.78378378378378
20
-230.99999999999997
10
-105.78378378378375
20
-227.99999999999997
10
-94.648648648648646
20
-227.99999999999994
10
-94.648648648648702
20
-230.99999999999994
0
LWPOLYLINE
5
138
100
AcDbEntity
8
0
100
AcDbPolyline
90
4
70
1
43
0.0
10
-50.108108108108212
20
-230.99999999999997
10
-61.243243243243306
20
-230.99999999999997
10
-61.243243243243313
20
-227.99999999999997
10
-50.108108108108226
20
-227.99999999999994
0
LWPOLYLINE
5
139
100
AcDbEntity
8
0
100
AcDbPolyline
90
4
70
1
43
0.0
10
-16.702702702702787
20
-230.99999999999997
10
-16.702702702702787
20
-227.99999999999997
10
-5.567567567567691
20
-227.99999999999994
10
-5.5675675675676892
20
-230.99999999999994
0
LWPOLYLINE
5
140
100
AcDbEntity
8
0
100
AcDbPolyline
90
4
70
1
43
0.0
10
38.972972972972833
20
-230.99999999999997
10
27.837837837837736
20
-230.99999999999997
10
27.837837837837736
20
-227.99999999999997
10
38.972972972972826
20
-227.99999999999994
0
LWPOLYLINE
5
141
100
AcDbEntity
8
0
100
AcDbPolyline
90
4
70
1
43
0.0
10
50.108108108107963
20
-230.99999999999997
10
50.108108108107963
20
-227.99999999999997
10
61.243243243243093
20
-227.99999999999994
10
61.2432432432431
20
-230.99999999999994
0
LWPOLYLINE
5
142
100
AcDbEntity
8
0
100
AcDbPolyline
90
4
70
1
43
0.0
10
83.513513513513345
20
-230.99999999999997
10
72.378378378378187
20
-230.99999999999997
10
72.378378378378216
20
-227.99999999999997
10
83.513513513513345
20
-227.99999999999994
0
LWPOLYLINE
5
143
100
AcDbEntity
8
0
100
AcDbPolyline
90
4
70
1
43
0.0
10
5.5675675675674761
20
-230.99999999999997
10
5.5675675675674761
20
-227.99999999999997
10
16.702702702702574
20
-227.99999999999994
10
16.702702702702574
20
-230.99999999999994
0
LWPOLYLINE
5
144
100
AcDbEntity
8
0
100
AcDbPolyline
90
4
70
1
43
0.0
10
105.7837837837836
20
-230.99999999999997
10
94.648648648648432
20
-230.99999999999997
10
94.648648648648475
20
-227.99999999999997
10
105.7837837837836
20
-227.99999999999994
0
LWPOLYLINE
5
145
100
AcDbEntity
8
0
100
AcDbPolyline
90
4
70
1
43
0.0
10
-38.972972972973047
20
-230.99999999999997
10
-38.972972972973047
20
-227.99999999999997
10
-27.837837837837949
20
-227.99999999999994
10
-27.837837837837949
20
-230.99999999999994
0
LWPOLYLINE
5
146
100
AcDbEntity
8
0
100
AcDbPolyline
90
4
70
1
43
0.0
10
128.05405405405389
20
-230.99999999999997
10
116.91891891891871
20
-230.99999999999997
10
116.91891891891872
20
-227.99999999999997
10
128.05405405405386
20
-227.99999999999994
0
LWPOLYLINE
5
147
100
AcDbEntity
8
0
100
AcDbPolyline
90
4
70
1
43
0.0
10
-83.51351351351353
20
-230.99999999999997
10
-83.513513513513487
20
-227.99999999999997
10
-72.3783783783784
20
-227.99999999999994
10
-72.378378378378443
20
-230.99999999999994
0
LWPOLYLINE
5
148
100
AcDbEntity
8
0
100
AcDbPolyline
90
4
70
1
43
0.0
10
150.3243243243241
20
-230.99999999999997
10
139.18918918918897
20
-230.99999999999997
10
139.18918918918899
20
-227.99999999999997
10
150.32432432432412
20
-227.99999999999994
0
LWPOLYLINE
5
149
100
AcDbEntity
8
0
100
AcDbPolyline
90
4
70
1
43
0.0
10
-128.05405405405401
20
-230.99999999999997
10
-128.05405405405401
20
-227.99999999999997
10
-116.91891891891892
20
-227.99999999999994
10
-116.91891891891892
20
-230.99999999999994
0
LWPOLYLINE
5
150
100
AcDbEntity
8
0
100
AcDbPolyline
90
4
70
1
43
0.0
10
172.59459459459435
20
-230.99999999999997
10
161.45945945945923
20
-230.99999999999997
10
161.45945945945923
20
-227.99999999999997
10
172.59459459459435
20
-227.99999999999994
0
LWPOLYLINE
5
151
100
AcDbEntity
8
0
100
AcDbPolyline
90
4
70
1
43
0.0
10
-172.59459459459453
20
-230.99999999999997
10
-172.59459459459453
20
-227.99999999999997
10
-161.45945945945942
20
-227.99999999999994
10
-161.45945945945942
20
-230.99999999999994
0
LWPOLYLINE
5
152
100
AcDbEntity
8
0
100
AcDbPolyline
90
4
70
1
43
0.0
10
200.77315305370342
20
-206.88700000000037
10
-34.226846946295559
20
-206.88700000000037
10
-34.226846946295566
20
-142.8870000000004
10
200.77315305370342
20
-142.88700000000046
0
LWPOLYLINE
5
153
100
AcDbEntity
8
0
100
AcDbPolyline
90
4
70
1
43
0.0
10
-41.607846946295759
20
-211.06342830084867
10
-138.63584694629571
20
-211.06342830084867
10
-138.63584694629571
20
-171.05842830084873
10
-41.607846946295766
20
-171.0584283008487
0
LWPOLYLINE
5
154
100
AcDbEntity
8
0
100
AcDbPolyline
90
8
70
1
43
0.0
10
200.99999999999949
20
-23.40705629452502
10
201.00000000000011
20
-130.40705629452498
42
-0.41421356237309437
10
193.50000000000023
20
-137.90705629452501
10
-77.499999999999005
20
-137.90705629452671
42
-0.4142135623730992
10
-84.999999999999091
20
-130.4070562945268
10
-84.999999999999659
20
-23.4070562945268
42
-0.41421356237309709
10
-77.499999999999744
20
-15.907056294526761
10
193.49999999999943
20
-15.907056294525116
42
-0.41421356237309814
0
LWPOLYLINE
5
155
100
AcDbEntity
8
0
100
AcDbPolyline
90
12
70
1
43
0.0
10
-99.148315081148581
20
-154.08892830084881
10
-194.74831508114841
20
-154.08892830084881
42
-0.41421356237309337
10
-197.74831508114843
20
-151.08892830084881
10
-197.74831508114843
20
-19.928928300848838
42
-0.41421356237308787
10
-194.74831508114846
20
-16.92892830084886
10
-99.14831508114861
20
-16.928928300848863
42
-0.41421356237309764
10
-96.14831508114861
20
-19.928928300848845
10
-96.148315081148596
20
-75.986267593048936
10
-91.296812148935885
20
-75.986267593048936
10
-91.296812148935913
20
-90.986267593048922
10
-96.148315081148581
20
-90.986267593048922
10
-96.148315081148581
20
-151.08892830084883
42
-0.41421356237309159
0
LWPOLYLINE
5
156
100
AcDbEntity
8
0
100
AcDbPolyline
90
228
70
1
43
0.0
10
214.99999999999974
20
-25.26315789473696
10
211.99999999999974
20
-25.263157894736953
10
211.99999999999974
20
-12.631578947368533
10
214.99999999999974
20
-12.631578947368542
10
214.99999999999972
20
-1.2434497875801753e-13
10
203.97435897435872
20
-1.2434497875801756e-13
10
203.97435897435878
20
-3.0000000000001297
10
192.94871794871773
20
-3.0000000000001297
10
192.94871794871773
20
-1.2434497875801753e-13
10
181.92307692307674
20
-1.2434497875801756e-13
10
181.92307692307674
20
-3.0000000000001297
10
170.89743589743568
20
-3.0000000000001297
10
170.89743589743568
20
-1.2434497875801753e-13
10
159.87179487179469
20
-1.2434497875801756e-13
10
159.87179487179469
20
-3.0000000000001297
10
148.84615384615367
20
-3.0000000000001297
10
148.84615384615367
20
-1.2434497875801753e-13
10
137.82051282051265
20
-1.2434497875801756e-13
10
137.82051282051268
20
-3.0000000000001297
10
126.79487179487165
20
-3.0000000000001297
10
126.79487179487165
20
-1.2434497875801753e-13
10
115.76923076923063
20
-1.2434497875801756e-13
10
115.76923076923063
20
-3.0000000000001297
10
104.74358974358961
20
-3.0000000000001297
10
104.74358974358961
20
-1.2434497875801753e-13
10
93.717948717948545
20
-1.2434497875801756e-13
10
93.717948717948559
20
-3.0000000000001297
10
82.692307692307537
20
-3.0000000000001297
10
82.692307692307537
20
-1.2434497875801753e-13
10
71.666666666666529
20
-1.2434497875801756e-13
10
71.666666666666544
20
-3.0000000000001297
10
60.641025641025522
20
-3.0000000000001297
10
60.641025641025522
20
-1.2434497875801753e-13
10
49.615384615384514
20
-1.2434497875801756e-13
10
49.6153846153845
20
-3.0000000000001297
10
38.589743589743492
20
-3.0000000000001297
10
38.589743589743485
20
-1.2434497875801753e-13
10
27.564102564102431
20
-1.2434497875801756e-13
10
27.564102564102431
20
-3.0000000000001297
10
16.538461538461416
20
-3.0000000000001297
10
16.538461538461419
20
-1.2434497875801753e-13
10
5.5128205128204026
20
-1.2434497875801756e-13
10
5.5128205128204009
20
-3.0000000000001297
10
-5.512820512820614
20
-3.0000000000001297
10
-5.512820512820614
20
-1.2434497875801753e-13
10
-16.538461538461632
20
-1.2434497875801756e-13
10
-16.538461538461632
20
-3.0000000000001297
10
-27.564102564102644
20
-3.0000000000001297
10
-27.564102564102644
20
-1.2434497875801753e-13
10
-38.589743589743655
20
-1.2434497875801756e-13
10
-38.589743589743662
20
-3.0000000000001297
10
-49.615384615384677
20
-3.0000000000001297
10
-49.615384615384677
20
-1.2434497875801753e-13
10
-60.641025641025692
20
-1.2434497875801756e-13
10
-60.64102564102572
20
-3.0000000000001297
10
-71.666666666666728
20
-3.0000000000001297
10
-71.666666666666714
20
-1.2434497875801753e-13
10
-82.692307692307764
20
-1.2434497875801756e-13
10
-82.69230769230775
20
-3.0000000000001297
10
-93.717948717948772
20
-3.0000000000001297
10
-93.717948717948772
20
-1.2434497875801753e-13
10
-104.74358974358979
20
-1.2434497875801756e-13
10
-104.74358974358978
20
-3.0000000000001297
10
-115.7692307692308
20
-3.0000000000001297
10
-115.76923076923083
20
-1.2434497875801753e-13
10
-126.79487179487185
20
-1.2434497875801756e-13
10
-126.79487179487182
20
-3.0000000000001297
10
-137.82051282051285
20
-3.0000000000001297
10
-137.82051282051287
20
-1.2434497875801753e-13
10
-148.8461538461539
20
-1.2434497875801756e-13
10
-148.84615384615387
20
-3.0000000000001297
10
-159.87179487179489
20
-3.0000000000001297
10
-159.87179487179492
20
-1.2434497875801753e-13
10
-170.89743589743591
20
-1.2434497875801756e-13
10
-170.89743589743591
20
-3.0000000000001297
10
-181.92307692307693
20
-3.0000000000001297
10
-181.92307692307693
20
-1.2434497875801753e-13
10
-192.94871794871796
20
-1.2434497875801756e-13
10
-192.94871794871796
20
-3.0000000000001297
10
-203.97435897435898
20
-3.0000000000001297
10
-203.97435897435898
20
-1.2434497875801753e-13
10
-215
20
-1.2434497875801756e-13
10
-214.99999999999997
20
-12.631578947368542
10
-211.99999999999994
20
-12.631578947368542
10
-211.99999999999994
20
-25.26315789473696
10
-214.99999999999997
20
-25.26315789473696
10
-214.99999999999997
20
-37.894736842105381
10
-211.99999999999994
20
-37.894736842105374
10
-211.99999999999994
20
-50.526315789473799
10
-214.99999999999997
20
-50.526315789473799
10
-214.99999999999997
20
-63.157894736842209
10
-211.99999999999994
20
-63.157894736842209
10
-211.99999999999994
20
-75.789473684210634
10
-214.99999999999997
20
-75.789473684210634
10
-214.99999999999997
20
-88.421052631579016
10
-211.99999999999994
20
-88.421052631579016
10
-211.99999999999994
20
-101.05263157894743
10
-214.99999999999997
20
-101.05263157894743
10
-214.99999999999997
20
-113.68421052631587
10
-211.99999999999994
20
-113.68421052631584
10
-211.99999999999994
20
-126.31578947368426
10
-214.99999999999997
20
-126.31578947368426
10
-214.99999999999997
20
-138.94736842105269
10
-211.99999999999994
20
-138.94736842105269
10
-211.99999999999994
20
-151.57894736842113
10
-214.99999999999997
20
-151.5789473684211
10
-214.99999999999997
20
-164.21052631578948
10
-211.99999999999994
20
-164.21052631578948
10
-211.99999999999994
20
-176.84210526315792
10
-214.99999999999997
20
-176.84210526315792
10
-214.99999999999997
20
-189.47368421052633
10
-211.99999999999994
20
-189.47368421052633
10
-211.99999999999994
20
-202.10526315789477
10
-214.99999999999997
20
-202.10526315789477
10
-214.99999999999997
20
-214.73684210526318
10
-211.99999999999994
20
-214.73684210526312
10
-211.99999999999994
20
-227.36842105263153
10
-214.99999999999997
20
-227.36842105263153
10
-214.99999999999997
20
-239.99999999999997
10
-203.97435889221146
20
-239.99999999999997
10
-203.97435889221151
20
-236.99999999999994
10
-192.94871778442308
20
-237
10
-192.94871778442308
20
-240
10
-181.92307667663465
20
-239.99999999999997
10
-181.92307667663465
20
-236.99999999999994
10
-170.89743556884622
20
-237
10
-170.89743556884622
20
-240
10
-159.8717944610577
20
-239.99999999999997
10
-159.87179446105773
20
-236.99999999999994
10
-148.8461533532693
20
-237
10
-148.8461533532693
20
-240
10
-137.82051224548078
20
-239.99999999999997
10
-137.82051224548081
20
-236.99999999999994
10
-126.79487113769238
20
-237
10
-126.79487113769238
20
-240
10
-115.76923002990395
20
-239.99999999999997
10
-115.76923002990395
20
-236.99999999999994
10
-104.74358892211552
20
-237
10
-104.74358892211552
20
-240
10
-93.717947814327005
20
-239.99999999999997
10
-93.717947814327033
20
-236.99999999999994
10
-82.692306706538602
20
-237
10
-82.692306706538602
20
-240
10
-71.666665598750171
20
-239.99999999999997
10
-71.666665598750185
20
-236.99999999999994
10
-60.641024490961762
20
-237
10
-60.641024490961762
20
-240
10
-49.615383383173267
20
-239.99999999999997
10
-49.61538338317326
20
-236.99999999999994
10
-38.589742275384836
20
-237
10
-38.589742275384836
20
-240
10
-27.564101167596338
20
-239.99999999999997
10
-27.564101167596338
20
-236.99999999999994
10
-16.538460059807914
20
-237
10
-16.538460059807917
20
-240
10
-5.5128189520194919
20
-239.99999999999997
10
-5.5128189520194901
20
-236.99999999999994
10
5.5128221557689336
20
-237
10
5.5128221557689336
20
-240
10
16.538463263557432
20
-239.99999999999997
10
16.538463263557432
20
-236.99999999999994
10
27.564104371345852
20
-237
10
27.564104371345852
20
-240
10
38.589745479134272
20
-239.99999999999997
10
38.58974547913428
20
-236.99999999999994
10
49.615386586922703
20
-237
10
49.615386586922703
20
-240
10
60.641027694711198
20
-239.99999999999997
10
60.641027694711191
20
-236.99999999999994
10
71.666668802499643
20
-237
10
71.666668802499629
20
-240
10
82.692309910288088
20
-239.99999999999997
10
82.692309910288074
20
-236.99999999999994
10
93.717951018076548
20
-237
10
93.717951018076548
20
-240
10
104.74359212586498
20
-239.99999999999997
10
104.74359212586495
20
-236.99999999999994
10
115.76923323365342
20
-237
10
115.76923323365347
20
-240
10
126.7948743414419
20
-239.99999999999997
10
126.79487434144185
20
-236.99999999999994
10
137.82051544923033
20
-237
10
137.82051544923033
20
-240
10
148.84615655701876
20
-239.99999999999997
10
148.84615655701876
20
-236.99999999999994
10
159.87179766480722
20
-237
10
159.87179766480725
20
-240
10
170.89743877259565
20
-239.99999999999997
10
170.89743877259565
20
-236.99999999999994
10
181.92307988038408
20
-237
10
181.92307988038408
20
-240
10
192.94872098817257
20
-239.99999999999997
10
192.94872098817257
20
-236.99999999999994
10
203.974362095961
20
-237
10
203.974362095961
20
-240
10
214.99999999999974
20
-239.99999999999997
10
214.99999999999974
20
-227.36842105263153
10
211.99999999999974
20
-227.36842105263153
10
211.99999999999974
20
-214.73684210526312
10
214.99999999999974
20
-214.73684210526312
10
214.99999999999974
20
-202.10526315789468
10
211.99999999999974
20
-202.10526315789477
10
211.99999999999974
20
-189.47368421052633
10
214.99999999999974
20
-189.47368421052633
10
214.99999999999974
20
-176.84210526315792
10
211.99999999999974
20
-176.84210526315792
10
211.99999999999974
20
-164.21052631578948
10
214.99999999999974
20
-164.21052631578948
10
214.99999999999974
20
-151.5789473684211
10
211.99999999999974
20
-151.5789473684211
10
211.99999999999974
20
-138.94736842105266
10
214.99999999999974
20
-138.94736842105269
10
214.99999999999974
20
-126.31578947368426
10
211.99999999999974
20
-126.31578947368426
10
211.99999999999974
20
-113.68421052631584
10
214.99999999999974
20
-113.68421052631584
10
214.99999999999974
20
-101.05263157894741
10
211.99999999999974
20
-101.05263157894743
10
211.99999999999974
20
-88.421052631579016
10
214.99999999999974
20
-88.421052631579016
10
214.99999999999974
20
-75.789473684210634
10
211.99999999999974
20
-75.789473684210606
10
211.99999999999974
20
-63.157894736842195
10
214.99999999999974
20
-63.157894736842209
10
214.99999999999974
20
-50.526315789473799
10
211.99999999999974
20
-50.526315789473777
10
211.99999999999974
20
-37.89473684210536
10
214.99999999999974
20
-37.894736842105374
0
ENDSEC
0
SECTION
2
OBJECTS
0
DICTIONARY
5
C
100
AcDbDictionary
3
ACAD_GROUP
350
D
3
ACAD_MLINESTYLE
350
17
0
DICTIONARY
5
D
100
AcDbDictionary
0
DICTIONARY
5
1A
330
C
100
AcDbDictionary
0
DICTIONARY
5
17
100
AcDbDictionary
0
ENDSEC
0
EOF
