0
SECTION
2
HEADER
9
$INSUNITS
70
4
9
$ACADVER
1
AC1014
9
$HANDSEED
5
FFFF
0
ENDSEC
0
SECTION
2
TABLES
0
TABLE
2
VPORT
5
8
100
AcDbSymbolTable
0
ENDTAB
0
TABLE
2
LTYPE
5
5
100
AcDbSymbolTable
0
LTYPE
5
14
100
AcDbSymbolTableRecord
100
AcDbLinetypeTableRecord
2
BYBLOCK
70
0
0
LTYPE
5
15
100
AcDbSymbolTableRecord
100
AcDbLinetypeTableRecord
2
BYLAYER
70
0
0
LTYPE
5
16
100
AcDbSymbolTableRecord
100
AcDbLinetypeTableRecord
2
DASHED
70
0
3
Dashed __ __ __ __ __ __ __ __ __ __ __ __ __ _
72
65
73
2
40
0.75
49
0.5
74
0
49
-0.25
74
0
0
ENDTAB
0
TABLE
2
LAYER
5
2
100
AcDbSymbolTable
70
2
0
LAYER
5
50
100
AcDbSymbolTableRecord
100
AcDbLayerTableRecord
2
0
70
0
62
7
6
CONTINUOUS
0
ENDTAB
0
TABLE
2
STYLE
5
3
100
AcDbSymbolTable
70
1
0
STYLE
5
11
100
AcDbSymbolTableRecord
100
AcDbTextStyleTableRecord
2
STANDARD
70
0
0
ENDTAB
0
TABLE
2
VIEW
5
6
100
AcDbSymbolTable
70
0
0
ENDTAB
0
TABLE
2
UCS
5
7
100
AcDbSymbolTable
70
0
0
ENDTAB
0
TABLE
2
APPID
5
9
100
AcDbSymbolTable
70
2
0
APPID
5
12
100
AcDbSymbolTableRecord
100
AcDbRegAppTableRecord
2
ACAD
70
0
0
ENDTAB
0
TABLE
2
DIMSTYLE
5
A
100
AcDbSymbolTable
70
1
0
ENDTAB
0
TABLE
2
BLOCK_RECORD
5
1
100
AcDbSymbolTable
70
1
0
BLOCK_RECORD
5
1F
100
AcDbSymbolTableRecord
100
AcDbBlockTableRecord
2
*MODEL_SPACE
0
BLOCK_RECORD
5
1B
100
AcDbSymbolTableRecord
100
AcDbBlockTableRecord
2
*PAPER_SPACE
0
ENDTAB
0
ENDSEC
0
SECTION
2
BLOCKS
0
BLOCK
5
20
100
AcDbEntity
100
AcDbBlockBegin
2
*MODEL_SPACE
0
ENDBLK
5
21
100
AcDbEntity
100
AcDbBlockEnd
0
BLOCK
5
1C
100
AcDbEntity
100
AcDbBlockBegin
2
*PAPER_SPACE
0
ENDBLK
5
1D
100
AcDbEntity
100
AcDbBlockEnd
0
ENDSEC
0
SECTION
2
ENTITIES
0
LWPOLYLINE
5
100
100
AcDbEntity
8
0
100
AcDbPolyline
90
4
70
1
43
0.0
10
-205.99999999999983
20
-217.9411764784769
10
-205.99999999999983
20
-204.88235295695401
10
-202.99999999999983
20
-204.88235295695404
10
-202.99999999999986
20
-217.94117647847696
0
LWPOLYLINE
5
101
100
AcDbEntity
8
0
100
AcDbPolyline
90
4
70
1
43
0.0
10
-205.99999999999983
20
-22.05882365563339
10
-202.99999999999983
20
-22.05882365563339
10
-202.99999999999986
20
-35.117647177156265
10
-205.99999999999989
20
-35.117647177156272
0
LWPOLYLINE
5
102
100
AcDbEntity
8
0
100
AcDbPolyline
90
4
70
1
43
0.0
10
-205.99999999999983
20
-87.352941263247871
10
-205.99999999999983
20
-74.294117741724961
10
-202.99999999999983
20
-74.294117741724961
10
-202.99999999999986
20
-87.352941263247871
0
LWPOLYLINE
5
103
100
AcDbEntity
8
0
100
AcDbPolyline
90
4
70
1
43
0.0
10
-205.99999999999983
20
-126.5294118278166
10
-202.99999999999983
20
-126.5294118278166
10
-202.99999999999986
20
-139.58823534933953
10
-205.99999999999989
20
-139.58823534933953
0
LWPOLYLINE
5
104
100
AcDbEntity
8
0
100
AcDbPolyline
90
4
70
1
43
0.0
10
-205.99999999999983
20
-165.70588239238529
10
-205.99999999999983
20
-152.64705887086239
10
-202.99999999999983
20
-152.64705887086239
10
-202.99999999999986
20
-165.70588239238529
0
LWPOLYLINE
5
105
100
AcDbEntity
8
0
100
AcDbPolyline
90
4
70
1
43
0.0
10
-205.99999999999983
20
-100.41176478477078
10
-202.99999999999983
20
-100.41176478477078
10
-202.99999999999986
20
-113.47058830629368
10
-205.99999999999989
20
-113.47058830629368
0
LWPOLYLINE
5
106
100
AcDbEntity
8
0
100
AcDbPolyline
90
4
70
1
43
0.0
10
-205.99999999999983
20
-191.82352943543111
10
-205.99999999999983
20
-178.76470591390824
10
-202.99999999999983
20
-178.76470591390824
10
-202.99999999999986
20
-191.82352943543111
0
LWPOLYLINE
5
107
100
AcDbEntity
8
0
100
AcDbPolyline
90
4
70
1
43
0.0
10
-205.99999999999983
20
-48.176470698679211
10
-202.99999999999983
20
-48.176470698679211
10
-202.99999999999986
20
-61.235294220202086
10
-205.99999999999989
20
-61.235294220202093
0
LWPOLYLINE
5
108
100
AcDbEntity
8
0
100
AcDbPolyline
90
4
70
1
43
0.0
10
205.99999999999983
20
-22.058823529411761
10
205.99999999999983
20
-35.117647058823508
10
202.99999999999983
20
-35.117647058823508
10
202.99999999999986
20
-22.058823529411768
0
LWPOLYLINE
5
109
100
AcDbEntity
8
0
100
AcDbPolyline
90
4
70
1
43
0.0
10
205.99999999999983
20
-217.94117647058806
10
202.99999999999983
20
-217.94117647058806
10
202.99999999999986
20
-204.88235294117629
10
205.99999999999989
20
-204.88235294117632
0
LWPOLYLINE
5
110
100
AcDbEntity
8
0
100
AcDbPolyline
90
4
70
1
43
0.0
10
205.99999999999983
20
-152.64705882352933
10
205.99999999999983
20
-165.70588235294107
10
202.99999999999983
20
-165.70588235294107
10
202.99999999999986
20
-152.64705882352931
0
LWPOLYLINE
5
111
100
AcDbEntity
8
0
100
AcDbPolyline
90
4
70
1
43
0.0
10
205.99999999999983
20
-113.47058823529406
10
202.99999999999983
20
-113.47058823529406
10
202.99999999999986
20
-100.41176470588229
10
205.99999999999989
20
-100.41176470588232
0
LWPOLYLINE
5
112
100
AcDbEntity
8
0
100
AcDbPolyline
90
4
70
1
43
0.0
10
205.99999999999983
20
-74.294117647058783
10
205.99999999999983
20
-87.352941176470551
10
202.99999999999983
20
-87.352941176470551
10
202.99999999999986
20
-74.294117647058783
0
LWPOLYLINE
5
113
100
AcDbEntity
8
0
100
AcDbPolyline
90
4
70
1
43
0.0
10
205.99999999999983
20
-139.58823529411757
10
202.99999999999983
20
-139.58823529411757
10
202.99999999999986
20
-126.52941176470584
10
205.99999999999989
20
-126.52941176470583
0
LWPOLYLINE
5
114
100
AcDbEntity
8
0
100
AcDbPolyline
90
4
70
1
43
0.0
10
205.99999999999983
20
-48.176470588235276
10
205.99999999999983
20
-61.235294117647037
10
202.99999999999983
20
-61.235294117647044
10
202.99999999999986
20
-48.176470588235283
0
LWPOLYLINE
5
115
100
AcDbEntity
8
0
100
AcDbPolyline
90
4
70
1
43
0.0
10
205.99999999999983
20
-191.82352941176458
10
202.99999999999983
20
-191.82352941176458
10
202.99999999999986
20
-178.76470588235281
10
205.99999999999989
20
-178.76470588235281
0
LWPOLYLINE
5
116
100
AcDbEntity
8
0
100
AcDbPolyline
90
4
70
1
43
0.0
10
183.7297297297296
20
-9
10
194.86486486486473
20
-9
10
194.86486486486473
20
-12.000000000000004
10
183.7297297297296
20
-12.000000000000004
0
LWPOLYLINE
5
117
100
AcDbEntity
8
0
100
AcDbPolyline
90
4
70
1
43
0.0
10
-194.8648648648647
20
-12.000000000000004
10
-194.8648648648647
20
-9
10
-183.7297297297296
20
-9
10
-183.7297297297296
20
-12.000000000000004
0
LWPOLYLINE
5
118
100
AcDbEntity
8
0
100
AcDbPolyline
90
4
70
1
43
0.0
10
-150.32432432432418
20
-9
10
-139.18918918918908
20
-9
10
-139.18918918918908
20
-12.000000000000004
10
-150.32432432432418
20
-12.000000000000004
0
LWPOLYLINE
5
119
100
AcDbEntity
8
0
100
AcDbPolyline
90
4
70
1
43
0.0
10
-105.78378378378368
20
-12.000000000000004
10
-105.78378378378363
20
-9
10
-94.648648648648532
20
-9
10
-94.648648648648589
20
-12.000000000000004
0
LWPOLYLINE
5
120
100
AcDbEntity
8
0
100
AcDbPolyline
90
4
70
1
43
0.0
10
-61.243243243243207
20
-9
10
-50.108108108108112
20
-9
10
-50.108108108108105
20
-12.000000000000004
10
-61.243243243243199
20
-12.000000000000004
0
LWPOLYLINE
5
121
100
AcDbEntity
8
0
100
AcDbPolyline
90
4
70
1
43
0.0
10
-16.70270270270268
20
-12.000000000000004
10
-16.70270270270268
20
-9
10
-5.5675675675675844
20
-9
10
-5.5675675675675826
20
-12.000000000000004
0
LWPOLYLINE
5
122
100
AcDbEntity
8
0
100
AcDbPolyline
90
4
70
1
43
0.0
10
27.837837837837842
20
-9
10
38.972972972972933
20
-9
10
38.97297297297294
20
-12.000000000000004
10
27.837837837837842
20
-12.000000000000004
0
LWPOLYLINE
5
123
100
AcDbEntity
8
0
100
AcDbPolyline
90
4
70
1
43
0.0
10
50.10810810810807
20
-12.000000000000004
10
50.10810810810807
20
-9
10
61.243243243243199
20
-9
10
61.243243243243207
20
-12.000000000000004
0
LWPOLYLINE
5
124
100
AcDbEntity
8
0
100
AcDbPolyline
90
4
70
1
43
0.0
10
72.378378378378315
20
-9
10
83.513513513513459
20
-9
10
83.513513513513416
20
-12.000000000000004
10
72.378378378378329
20
-12.000000000000004
0
LWPOLYLINE
5
125
100
AcDbEntity
8
0
100
AcDbPolyline
90
4
70
1
43
0.0
10
5.5675675675675826
20
-12.000000000000004
10
5.5675675675675826
20
-9
10
16.70270270270268
20
-9
10
16.70270270270268
20
-12.000000000000004
0
LWPOLYLINE
5
126
100
AcDbEntity
8
0
100
AcDbPolyline
90
4
70
1
43
0.0
10
94.648648648648575
20
-9
10
105.78378378378372
20
-9
10
105.78378378378368
20
-12.000000000000004
10
94.648648648648575
20
-12.000000000000004
0
LWPOLYLINE
5
127
100
AcDbEntity
8
0
100
AcDbPolyline
90
4
70
1
43
0.0
10
-38.97297297297294
20
-12.000000000000004
10
-38.97297297297294
20
-9
10
-27.837837837837842
20
-9
10
-27.837837837837842
20
-12.000000000000004
0
LWPOLYLINE
5
128
100
AcDbEntity
8
0
100
AcDbPolyline
90
4
70
1
43
0.0
10
116.91891891891883
20
-9
10
128.05405405405398
20
-9
10
128.05405405405395
20
-12.000000000000004
10
116.91891891891885
20
-12.000000000000004
0
LWPOLYLINE
5
129
100
AcDbEntity
8
0
100
AcDbPolyline
90
4
70
1
43
0.0
10
-83.513513513513416
20
-12.000000000000004
10
-83.513513513513388
20
-9
10
-72.378378378378287
20
-9
10
-72.378378378378329
20
-12.000000000000004
0
LWPOLYLINE
5
130
100
AcDbEntity
8
0
100
AcDbPolyline
90
4
70
1
43
0.0
10
139.18918918918908
20
-9
10
150.32432432432421
20
-9
10
150.32432432432421
20
-12.000000000000004
10
139.18918918918908
20
-12.000000000000004
0
LWPOLYLINE
5
131
100
AcDbEntity
8
0
100
AcDbPolyline
90
4
70
1
43
0.0
10
-128.05405405405392
20
-12.000000000000004
10
-128.05405405405392
20
-9
10
-116.91891891891882
20
-9
10
-116.91891891891882
20
-12.000000000000004
0
LWPOLYLINE
5
132
100
AcDbEntity
8
0
100
AcDbPolyline
90
4
70
1
43
0.0
10
161.45945945945931
20
-9
10
172.59459459459447
20
-9
10
172.59459459459447
20
-12.000000000000004
10
161.45945945945931
20
-12.000000000000004
0
LWPOLYLINE
5
133
100
AcDbEntity
8
0
100
AcDbPolyline
90
4
70
1
43
0.0
10
-172.59459459459441
20
-12.000000000000004
10
-172.59459459459441
20
-9
10
-161.45945945945931
20
-9
10
-161.45945945945931
20
-12.000000000000004
0
LWPOLYLINE
5
134
100
AcDbEntity
8
0
100
AcDbPolyline
90
4
70
1
43
0.0
10
194.86486486486473
20
-230.99999999999983
10
183.7297297297296
20
-230.99999999999983
10
183.7297297297296
20
-227.99999999999983
10
194.86486486486473
20
-227.99999999999983
0
LWPOLYLINE
5
135
100
AcDbEntity
8
0
100
AcDbPolyline
90
4
70
1
43
0.0
10
-194.8648648648647
20
-230.99999999999983
10
-194.8648648648647
20
-227.99999999999983
10
-183.7297297297296
20
-227.99999999999983
10
-183.7297297297296
20
-230.99999999999983
0
LWPOLYLINE
5
136
100
AcDbEntity
8
0
100
AcDbPolyline
90
4
70
1
43
0.0
10
-139.18918918918908
20
-230.99999999999983
10
-150.32432432432418
20
-230.99999999999983
10
-150.32432432432418
20
-227.99999999999983
10
-139.18918918918908
20
-227.99999999999983
0
LWPOLYLINE
5
137
100
AcDbEntity
8
0
100
AcDbPolyline
90
4
70
1
43
0.0
10
-105.78378378378368
20
-230.99999999999983
10
-105.78378378378363
20
-227.99999999999983
10
-94.648648648648532
20
-227.99999999999983
10
-94.648648648648589
20
-230.99999999999983
0
LWPOLYLINE
5
138
100
AcDbEntity
8
0
100
AcDbPolyline
90
4
70
1
43
0.0
10
-50.108108108108105
20
-230.99999999999983
10
-61.243243243243199
20
-230.99999999999983
10
-61.243243243243207
20
-227.99999999999983
10
-50.108108108108112
20
-227.99999999999983
0
LWPOLYLINE
5
139
100
AcDbEntity
8
0
100
AcDbPolyline
90
4
70
1
43
0.0
10
-16.70270270270268
20
-230.99999999999983
10
-16.70270270270268
20
-227.99999999999983
10
-5.5675675675675844
20
-227.99999999999983
10
-5.5675675675675826
20
-230.99999999999983
0
LWPOLYLINE
5
140
100
AcDbEntity
8
0
100
AcDbPolyline
90
4
70
1
43
0.0
10
38.97297297297294
20
-230.99999999999983
10
27.837837837837842
20
-230.99999999999983
10
27.837837837837842
20
-227.99999999999983
10
38.972972972972933
20
-227.99999999999983
0
LWPOLYLINE
5
141
100
AcDbEntity
8
0
100
AcDbPolyline
90
4
70
1
43
0.0
10
50.10810810810807
20
-230.99999999999983
10
50.10810810810807
20
-227.99999999999983
10
61.243243243243199
20
-227.99999999999983
10
61.243243243243207
20
-230.99999999999983
0
LWPOLYLINE
5
142
100
AcDbEntity
8
0
100
AcDbPolyline
90
4
70
1
43
0.0
10
83.513513513513459
20
-230.99999999999983
10
72.378378378378287
20
-230.99999999999983
10
72.378378378378315
20
-227.99999999999983
10
83.513513513513459
20
-227.99999999999983
0
LWPOLYLINE
5
143
100
AcDbEntity
8
0
100
AcDbPolyline
90
4
70
1
43
0.0
10
5.5675675675675826
20
-230.99999999999983
10
5.5675675675675826
20
-227.99999999999983
10
16.70270270270268
20
-227.99999999999983
10
16.70270270270268
20
-230.99999999999983
0
LWPOLYLINE
5
144
100
AcDbEntity
8
0
100
AcDbPolyline
90
4
70
1
43
0.0
10
105.78378378378372
20
-230.99999999999983
10
94.648648648648532
20
-230.99999999999983
10
94.648648648648575
20
-227.99999999999983
10
105.78378378378372
20
-227.99999999999983
0
LWPOLYLINE
5
145
100
AcDbEntity
8
0
100
AcDbPolyline
90
4
70
1
43
0.0
10
-38.97297297297294
20
-230.99999999999983
10
-38.97297297297294
20
-227.99999999999983
10
-27.837837837837842
20
-227.99999999999983
10
-27.837837837837842
20
-230.99999999999983
0
LWPOLYLINE
5
146
100
AcDbEntity
8
0
100
AcDbPolyline
90
4
70
1
43
0.0
10
128.05405405405398
20
-230.99999999999983
10
116.91891891891882
20
-230.99999999999983
10
116.91891891891883
20
-227.99999999999983
10
128.05405405405398
20
-227.99999999999983
0
LWPOLYLINE
5
147
100
AcDbEntity
8
0
100
AcDbPolyline
90
4
70
1
43
0.0
10
-83.513513513513416
20
-230.99999999999983
10
-83.513513513513388
20
-227.99999999999983
10
-72.378378378378287
20
-227.99999999999983
10
-72.378378378378329
20
-230.99999999999983
0
LWPOLYLINE
5
148
100
AcDbEntity
8
0
100
AcDbPolyline
90
4
70
1
43
0.0
10
150.32432432432421
20
-230.99999999999983
10
139.18918918918908
20
-230.99999999999983
10
139.18918918918908
20
-227.99999999999983
10
150.32432432432421
20
-227.99999999999983
0
LWPOLYLINE
5
149
100
AcDbEntity
8
0
100
AcDbPolyline
90
4
70
1
43
0.0
10
-128.05405405405392
20
-230.99999999999983
10
-128.05405405405392
20
-227.99999999999983
10
-116.91891891891882
20
-227.99999999999983
10
-116.91891891891882
20
-230.99999999999983
0
LWPOLYLINE
5
150
100
AcDbEntity
8
0
100
AcDbPolyline
90
4
70
1
43
0.0
10
172.59459459459447
20
-230.99999999999983
10
161.45945945945931
20
-230.99999999999983
10
161.45945945945931
20
-227.99999999999983
10
172.59459459459447
20
-227.99999999999983
0
LWPOLYLINE
5
151
100
AcDbEntity
8
0
100
AcDbPolyline
90
4
70
1
43
0.0
10
-172.59459459459441
20
-230.99999999999983
10
-172.59459459459441
20
-227.99999999999983
10
-161.45945945945931
20
-227.99999999999983
10
-161.45945945945931
20
-230.99999999999983
0
LWPOLYLINE
5
152
100
AcDbEntity
8
0
100
AcDbPolyline
90
4
70
1
43
0.0
10
200.77315305370354
20
-214.162000000001
10
-34.226846946295417
20
-214.162000000001
10
-34.226846946295446
20
-150.16200000000103
10
200.77315305370351
20
-150.16200000000106
0
LWPOLYLINE
5
153
100
AcDbEntity
8
0
100
AcDbPolyline
90
4
70
1
43
0.0
10
-41.607846946295652
20
-211.06342830084853
10
-138.63584694629563
20
-211.06342830084853
10
-138.63584694629563
20
-171.05842830084862
10
-41.607846946295659
20
-171.05842830084862
0
LWPOLYLINE
5
154
100
AcDbEntity
8
0
100
AcDbPolyline
90
8
70
1
43
0.0
10
200.99999999999963
20
-23.407000000000387
10
201.00000000000026
20
-130.40700000000035
42
-0.41421356237309576
10
193.50000000000034
20
-137.90700000000038
10
-77.499999999998892
20
-137.90700000000209
42
-0.41421356237309781
10
-84.999999999998977
20
-130.40700000000217
10
-84.999999999999545
20
-23.407000000002149
42
-0.4142135623730947
10
-77.499999999999631
20
-15.907000000002128
10
193.4999999999996
20
-15.907000000000483
42
-0.41421356237309814
0
LWPOLYLINE
5
155
100
AcDbEntity
8
0
100
AcDbPolyline
90
12
70
1
43
0.0
10
-99.148315081148468
20
-154.08892830084869
10
-194.74831508114832
20
-154.08892830084869
42
-0.41421356237308815
10
-197.74831508114832
20
-151.08892830084869
10
-197.74831508114841
20
-19.928928300848714
42
-0.41421356237309659
10
-194.74831508114835
20
-16.928928300848732
10
-99.14831508114851
20
-16.928928300848739
42
-0.41421356237309764
10
-96.148315081148496
20
-19.928928300848721
10
-96.148315081148482
20
-75.986267593048808
10
-91.296812148935786
20
-75.986267593048808
10
-91.2968121489358
20
-90.986267593048794
10
-96.148315081148468
20
-90.986267593048794
10
-96.148315081148468
20
-151.08892830084869
42
-0.41421356237309337
0
LWPOLYLINE
5
156
100
AcDbEntity
8
0
100
AcDbPolyline
90
228
70
1
43
0.0
10
214.99999999999986
20
-25.263157894736835
10
211.99999999999986
20
-25.263157894736828
10
211.99999999999986
20
-12.631578947368409
10
214.99999999999986
20
-12.631578947368418
10
214.99999999999983
20
0
10
203.97435897435884
20
0
10
203.97435897435886
20
-3.0000000000000053
10
192.94871794871784
20
-3.0000000000000053
10
192.94871794871784
20
0
10
181.92307692307682
20
0
10
181.92307692307682
20
-3.0000000000000053
10
170.8974358974358
20
-3.0000000000000053
10
170.8974358974358
20
0
10
159.87179487179478
20
0
10
159.8717948717948
20
-3.0000000000000053
10
148.84615384615378
20
-3.0000000000000053
10
148.84615384615378
20
0
10
137.82051282051276
20
0
10
137.82051282051276
20
-3.0000000000000053
10
126.79487179487175
20
-3.0000000000000053
10
126.79487179487175
20
0
10
115.76923076923073
20
0
10
115.76923076923073
20
-3.0000000000000053
10
104.74358974358971
20
-3.0000000000000053
10
104.74358974358971
20
0
10
93.717948717948644
20
0
10
93.717948717948673
20
-3.0000000000000053
10
82.692307692307651
20
-3.0000000000000053
10
82.692307692307651
20
0
10
71.666666666666629
20
0
10
71.666666666666643
20
-3.0000000000000053
10
60.641025641025628
20
-3.0000000000000053
10
60.641025641025628
20
0
10
49.615384615384613
20
0
10
49.615384615384606
20
-3.0000000000000053
10
38.589743589743591
20
-3.0000000000000053
10
38.589743589743591
20
0
10
27.564102564102537
20
0
10
27.564102564102537
20
-3.0000000000000053
10
16.538461538461522
20
-3.0000000000000053
10
16.538461538461526
20
0
10
5.5128205128205092
20
0
10
5.5128205128205074
20
-3.0000000000000053
10
-5.5128205128205074
20
-3.0000000000000053
10
-5.5128205128205074
20
0
10
-16.538461538461526
20
0
10
-16.538461538461526
20
-3.0000000000000053
10
-27.564102564102537
20
-3.0000000000000053
10
-27.564102564102537
20
0
10
-38.589743589743549
20
0
10
-38.589743589743556
20
-3.0000000000000053
10
-49.615384615384571
20
-3.0000000000000053
10
-49.615384615384571
20
0
10
-60.641025641025585
20
0
10
-60.641025641025614
20
-3.0000000000000053
10
-71.666666666666629
20
-3.0000000000000053
10
-71.6666666666666
20
0
10
-82.692307692307665
20
0
10
-82.692307692307651
20
-3.0000000000000053
10
-93.717948717948673
20
-3.0000000000000053
10
-93.717948717948673
20
0
10
-104.74358974358969
20
0
10
-104.74358974358967
20
-3.0000000000000053
10
-115.76923076923069
20
-3.0000000000000053
10
-115.76923076923073
20
0
10
-126.79487179487175
20
0
10
-126.79487179487171
20
-3.0000000000000053
10
-137.82051282051273
20
-3.0000000000000053
10
-137.82051282051276
20
0
10
-148.84615384615381
20
0
10
-148.84615384615375
20
-3.0000000000000053
10
-159.87179487179478
20
-3.0000000000000053
10
-159.8717948717948
20
0
10
-170.8974358974358
20
0
10
-170.8974358974358
20
-3.0000000000000053
10
-181.92307692307682
20
-3.0000000000000053
10
-181.92307692307682
20
0
10
-192.94871794871784
20
0
10
-192.94871794871784
20
-3.0000000000000053
10
-203.97435897435886
20
-3.0000000000000053
10
-203.97435897435886
20
0
10
-214.99999999999989
20
0
10
-214.99999999999986
20
-12.631578947368418
10
-211.99999999999986
20
-12.631578947368418
10
-211.99999999999986
20
-25.263157894736835
10
-214.99999999999986
20
-25.263157894736835
10
-214.99999999999986
20
-37.89473684210526
10
-211.99999999999986
20
-37.894736842105253
10
-211.99999999999986
20
-50.526315789473671
10
-214.99999999999986
20
-50.526315789473671
10
-214.99999999999986
20
-63.157894736842088
10
-211.99999999999986
20
-63.157894736842088
10
-211.99999999999986
20
-75.789473684210506
10
-214.99999999999986
20
-75.789473684210506
10
-214.99999999999986
20
-88.421052631578888
10
-211.99999999999986
20
-88.421052631578888
10
-211.99999999999986
20
-101.05263157894731
10
-214.99999999999986
20
-101.05263157894731
10
-214.99999999999986
20
-113.68421052631574
10
-211.99999999999986
20
-113.68421052631572
10
-211.99999999999986
20
-126.31578947368413
10
-214.99999999999986
20
-126.31578947368413
10
-214.99999999999986
20
-138.94736842105257
10
-211.99999999999986
20
-138.94736842105257
10
-211.99999999999986
20
-151.57894736842098
10
-214.99999999999986
20
-151.57894736842098
10
-214.99999999999986
20
-164.21052631578934
10
-211.99999999999986
20
-164.21052631578934
10
-211.99999999999986
20
-176.84210526315778
10
-214.99999999999986
20
-176.84210526315778
10
-214.99999999999986
20
-189.47368421052619
10
-211.99999999999986
20
-189.47368421052619
10
-211.99999999999986
20
-202.10526315789463
10
-214.99999999999986
20
-202.10526315789463
10
-214.99999999999986
20
-214.73684210526304
10
-211.99999999999986
20
-214.73684210526301
10
-211.99999999999986
20
-227.36842105263145
10
-214.99999999999986
20
-227.36842105263145
10
-214.99999999999986
20
-239.99999999999986
10
-203.97435889221134
20
-239.99999999999986
10
-203.9743588922114
20
-236.99999999999986
10
-192.94871778442297
20
-236.99999999999986
10
-192.94871778442297
20
-239.99999999999986
10
-181.92307667663454
20
-239.99999999999986
10
-181.92307667663454
20
-236.99999999999986
10
-170.89743556884611
20
-236.99999999999986
10
-170.89743556884611
20
-239.99999999999986
10
-159.87179446105759
20
-239.99999999999986
10
-159.87179446105762
20
-236.99999999999986
10
-148.84615335326919
20
-236.99999999999986
10
-148.84615335326919
20
-239.99999999999986
10
-137.82051224548067
20
-239.99999999999986
10
-137.8205122454807
20
-236.99999999999986
10
-126.79487113769227
20
-236.99999999999986
10
-126.79487113769227
20
-239.99999999999986
10
-115.76923002990384
20
-239.99999999999986
10
-115.76923002990384
20
-236.99999999999986
10
-104.74358892211541
20
-236.99999999999986
10
-104.74358892211541
20
-239.99999999999986
10
-93.717947814326905
20
-239.99999999999986
10
-93.717947814326919
20
-236.99999999999986
10
-82.692306706538488
20
-236.99999999999986
10
-82.692306706538488
20
-239.99999999999986
10
-71.666665598750072
20
-239.99999999999986
10
-71.666665598750086
20
-236.99999999999986
10
-60.641024490961655
20
-236.99999999999986
10
-60.641024490961655
20
-239.99999999999986
10
-49.615383383173167
20
-239.99999999999986
10
-49.615383383173153
20
-236.99999999999986
10
-38.589742275384737
20
-236.99999999999986
10
-38.589742275384729
20
-239.99999999999986
10
-27.564101167596231
20
-239.99999999999986
10
-27.564101167596231
20
-236.99999999999986
10
-16.538460059807807
20
-236.99999999999986
10
-16.538460059807811
20
-239.99999999999986
10
-5.5128189520193853
20
-239.99999999999986
10
-5.5128189520193835
20
-236.99999999999986
10
5.5128221557690402
20
-236.99999999999986
10
5.5128221557690402
20
-239.99999999999986
10
16.538463263557539
20
-239.99999999999986
10
16.538463263557539
20
-236.99999999999986
10
27.564104371345959
20
-236.99999999999986
10
27.564104371345959
20
-239.99999999999986
10
38.589745479134379
20
-239.99999999999986
10
38.589745479134386
20
-236.99999999999986
10
49.61538658692281
20
-236.99999999999986
10
49.61538658692281
20
-239.99999999999986
10
60.641027694711305
20
-239.99999999999986
10
60.641027694711298
20
-236.99999999999986
10
71.666668802499757
20
-236.99999999999986
10
71.666668802499743
20
-239.99999999999986
10
82.692309910288202
20
-239.99999999999986
10
82.692309910288188
20
-236.99999999999986
10
93.717951018076647
20
-236.99999999999986
10
93.717951018076647
20
-239.99999999999986
10
104.74359212586508
20
-239.99999999999986
10
104.74359212586506
20
-236.99999999999986
10
115.76923323365352
20
-236.99999999999986
10
115.76923323365357
20
-239.99999999999986
10
126.794874341442
20
-239.99999999999986
10
126.79487434144195
20
-236.99999999999986
10
137.82051544923041
20
-236.99999999999986
10
137.82051544923041
20
-239.99999999999986
10
148.84615655701884
20
-239.99999999999986
10
148.84615655701887
20
-236.99999999999986
10
159.87179766480733
20
-236.99999999999986
10
159.87179766480733
20
-239.99999999999986
10
170.89743877259576
20
-239.99999999999986
10
170.89743877259576
20
-236.99999999999986
10
181.92307988038419
20
-236.99999999999986
10
181.92307988038419
20
-239.99999999999986
10
192.94872098817268
20
-239.99999999999986
10
192.94872098817268
20
-236.99999999999986
10
203.97436209596111
20
-236.99999999999986
10
203.97436209596111
20
-239.99999999999986
10
214.99999999999986
20
-239.99999999999986
10
214.99999999999986
20
-227.36842105263145
10
211.99999999999986
20
-227.36842105263145
10
211.99999999999986
20
-214.73684210526301
10
214.99999999999986
20
-214.73684210526301
10
214.99999999999986
20
-202.10526315789457
10
211.99999999999986
20
-202.10526315789463
10
211.99999999999986
20
-189.47368421052619
10
214.99999999999986
20
-189.47368421052619
10
214.99999999999986
20
-176.84210526315778
10
211.99999999999986
20
-176.84210526315778
10
211.99999999999986
20
-164.21052631578934
10
214.99999999999986
20
-164.21052631578934
10
214.99999999999986
20
-151.57894736842096
10
211.99999999999986
20
-151.57894736842098
10
211.99999999999986
20
-138.94736842105254
10
214.99999999999986
20
-138.94736842105257
10
214.99999999999986
20
-126.31578947368413
10
211.99999999999986
20
-126.31578947368413
10
211.99999999999986
20
-113.68421052631572
10
214.99999999999986
20
-113.68421052631572
10
214.99999999999986
20
-101.05263157894728
10
211.99999999999986
20
-101.05263157894731
10
211.99999999999986
20
-88.421052631578888
10
214.99999999999986
20
-88.421052631578888
10
214.99999999999986
20
-75.789473684210506
10
211.99999999999986
20
-75.789473684210492
10
211.99999999999986
20
-63.157894736842067
10
214.99999999999986
20
-63.157894736842088
10
214.99999999999986
20
-50.526315789473671
10
211.99999999999986
20
-50.526315789473657
10
211.99999999999986
20
-37.894736842105239
10
214.99999999999986
20
-37.894736842105253
0
ENDSEC
0
SECTION
2
OBJECTS
0
DICTIONARY
5
C
100
AcDbDictionary
3
ACAD_GROUP
350
D
3
ACAD_MLINESTYLE
350
17
0
DICTIONARY
5
D
100
AcDbDictionary
0
DICTIONARY
5
1A
330
C
100
AcDbDictionary
0
DICTIONARY
5
17
100
AcDbDictionary
0
ENDSEC
0
EOF
