0
SECTION
2
HEADER
9
$INSUNITS
70
4
9
$ACADVER
1
AC1014
9
$HANDSEED
5
FFFF
0
ENDSEC
0
SECTION
2
TABLES
0
TABLE
2
VPORT
5
8
100
AcDbSymbolTable
0
ENDTAB
0
TABLE
2
LTYPE
5
5
100
AcDbSymbolTable
0
LTYPE
5
14
100
AcDbSymbolTableRecord
100
AcDbLinetypeTableRecord
2
BYBLOCK
70
0
0
LTYPE
5
15
100
AcDbSymbolTableRecord
100
AcDbLinetypeTableRecord
2
BYLAYER
70
0
0
LTYPE
5
16
100
AcDbSymbolTableRecord
100
AcDbLinetypeTableRecord
2
DASHED
70
0
3
Dashed __ __ __ __ __ __ __ __ __ __ __ __ __ _
72
65
73
2
40
0.75
49
0.5
74
0
49
-0.25
74
0
0
ENDTAB
0
TABLE
2
LAYER
5
2
100
AcDbSymbolTable
70
2
0
LAYER
5
50
100
AcDbSymbolTableRecord
100
AcDbLayerTableRecord
2
0
70
0
62
7
6
CONTINUOUS
0
ENDTAB
0
TABLE
2
STYLE
5
3
100
AcDbSymbolTable
70
1
0
STYLE
5
11
100
AcDbSymbolTableRecord
100
AcDbTextStyleTableRecord
2
STANDARD
70
0
0
ENDTAB
0
TABLE
2
VIEW
5
6
100
AcDbSymbolTable
70
0
0
ENDTAB
0
TABLE
2
UCS
5
7
100
AcDbSymbolTable
70
0
0
ENDTAB
0
TABLE
2
APPID
5
9
100
AcDbSymbolTable
70
2
0
APPID
5
12
100
AcDbSymbolTableRecord
100
AcDbRegAppTableRecord
2
ACAD
70
0
0
ENDTAB
0
TABLE
2
DIMSTYLE
5
A
100
AcDbSymbolTable
70
1
0
ENDTAB
0
TABLE
2
BLOCK_RECORD
5
1
100
AcDbSymbolTable
70
1
0
BLOCK_RECORD
5
1F
100
AcDbSymbolTableRecord
100
AcDbBlockTableRecord
2
*MODEL_SPACE
0
BLOCK_RECORD
5
1B
100
AcDbSymbolTableRecord
100
AcDbBlockTableRecord
2
*PAPER_SPACE
0
ENDTAB
0
ENDSEC
0
SECTION
2
BLOCKS
0
BLOCK
5
20
100
AcDbEntity
100
AcDbBlockBegin
2
*MODEL_SPACE
0
ENDBLK
5
21
100
AcDbEntity
100
AcDbBlockEnd
0
BLOCK
5
1C
100
AcDbEntity
100
AcDbBlockBegin
2
*PAPER_SPACE
0
ENDBLK
5
1D
100
AcDbEntity
100
AcDbBlockEnd
0
ENDSEC
0
SECTION
2
ENTITIES
0
LWPOLYLINE
5
100
100
AcDbEntity
8
0
100
AcDbPolyline
90
4
70
1
43
0.0
10
633.00000000000011
20
69.599999999999994
10
633.00000000000011
20
84
10
636.00000000000011
20
84
10
636.00000000000011
20
69.599999999999966
0
LWPOLYLINE
5
101
100
AcDbEntity
8
0
100
AcDbPolyline
90
4
70
1
43
0.0
10
636.00000000000011
20
127.19999999999997
10
633.00000000000011
20
127.19999999999997
10
633.00000000000011
20
141.59999999999999
10
636.00000000000011
20
141.59999999999999
0
LWPOLYLINE
5
102
100
AcDbEntity
8
0
100
AcDbPolyline
90
4
70
1
43
0.0
10
633.00000000000011
20
155.99999999999997
10
633.00000000000011
20
170.39999999999998
10
636.00000000000011
20
170.39999999999998
10
636.00000000000011
20
155.99999999999997
0
LWPOLYLINE
5
103
100
AcDbEntity
8
0
100
AcDbPolyline
90
4
70
1
43
0.0
10
636.00000000000011
20
98.399999999999977
10
633.00000000000011
20
98.399999999999977
10
633.00000000000011
20
112.8
10
636.00000000000011
20
112.8
0
LWPOLYLINE
5
104
100
AcDbEntity
8
0
100
AcDbPolyline
90
4
70
1
43
0.0
10
633.00000000000011
20
184.79999999999995
10
633.00000000000011
20
199.19999999999999
10
636.00000000000011
20
199.19999999999999
10
636.00000000000011
20
184.79999999999995
0
LWPOLYLINE
5
105
100
AcDbEntity
8
0
100
AcDbPolyline
90
4
70
1
43
0.0
10
636.00000000000011
20
40.800000000000018
10
633.00000000000011
20
40.800000000000018
10
633.00000000000011
20
55.199999999999996
10
636.00000000000011
20
55.199999999999996
0
LWPOLYLINE
5
106
100
AcDbEntity
8
0
100
AcDbPolyline
90
228
70
1
43
0.0
10
633.97436209596117
20
3.0000000000000071
10
633.97436209596117
20
0
10
645.00000000000011
20
0
10
645.00000000000011
20
12.631579135593611
10
642.00000000000023
20
12.631579135593611
10
642.00000000000023
20
25.263158271187223
10
645.00000000000011
20
25.263158271187223
10
645.00000000000011
20
37.894737406780834
10
642.00000000000023
20
37.894737406780834
10
642.00000000000023
20
50.526316542374445
10
645.00000000000011
20
50.526316542374445
10
645.00000000000011
20
63.157895677968057
10
642.00000000000023
20
63.157895677968057
10
642.00000000000023
20
75.789474813561668
10
645.00000000000011
20
75.789474813561668
10
645.00000000000011
20
88.421053949155322
10
642.00000000000023
20
88.421053949155322
10
642.00000000000023
20
101.05263308474892
10
645.00000000000011
20
101.05263308474892
10
645.00000000000011
20
113.68421222034254
10
642.00000000000023
20
113.68421222034254
10
642.00000000000023
20
126.31579135593614
10
645.00000000000011
20
126.31579135593614
10
645.00000000000011
20
138.94737049152977
10
642.00000000000023
20
138.94737049152977
10
642.00000000000023
20
151.57894962712336
10
645.00000000000011
20
151.57894962712336
10
645.00000000000011
20
164.21052876271702
10
642.00000000000023
20
164.21052876271702
10
642.00000000000023
20
176.84210789831064
10
645.00000000000011
20
176.84210789831064
10
645.00000000000011
20
189.47368703390424
10
642.00000000000023
20
189.47368703390424
10
642.00000000000023
20
202.10526616949784
10
645.00000000000011
20
202.10526616949784
10
645.00000000000011
20
214.73684530509146
10
642.00000000000023
20
214.73684530509146
10
642.00000000000023
20
227.36842444068509
10
645.00000000000011
20
227.36842444068509
10
645.00000000000011
20
240
10
633.97435897435912
20
240
10
633.97435897435912
20
237.00000000000003
10
622.94871794871813
20
237.00000000000003
10
622.94871794871813
20
240
10
611.92307692307713
20
240
10
611.92307692307713
20
237.00000000000003
10
600.89743589743603
20
237.00000000000003
10
600.89743589743603
20
240
10
589.87179487179503
20
240
10
589.87179487179503
20
237.00000000000003
10
578.84615384615404
20
237.00000000000003
10
578.84615384615404
20
240
10
567.82051282051293
20
240
10
567.82051282051293
20
237.00000000000003
10
556.79487179487194
20
237.00000000000003
10
556.79487179487194
20
240
10
545.76923076923094
20
240
10
545.76923076923094
20
237.00000000000003
10
534.74358974358995
20
237.00000000000003
10
534.74358974358995
20
240
10
523.71794871794884
20
240
10
523.71794871794884
20
237.00000000000003
10
512.69230769230785
20
237.00000000000003
10
512.69230769230785
20
240
10
501.66666666666674
20
240
10
501.66666666666674
20
237.00000000000003
10
490.64102564102569
20
237.00000000000003
10
490.64102564102569
20
240
10
479.61538461538464
20
240
10
479.61538461538464
20
237.00000000000003
10
468.58974358974365
20
237.00000000000003
10
468.58974358974365
20
240
10
457.56410256410265
20
240
10
457.56410256410265
20
237.00000000000003
10
446.5384615384616
20
237.00000000000003
10
446.5384615384616
20
240
10
435.51282051282055
20
240
10
435.51282051282055
20
237.00000000000003
10
424.48717948717956
20
237.00000000000003
10
424.48717948717956
20
240
10
413.46153846153857
20
240
10
413.46153846153857
20
237.00000000000003
10
402.43589743589752
20
237.00000000000003
10
402.43589743589752
20
240
10
391.41025641025647
20
240
10
391.41025641025647
20
237.00000000000003
10
380.38461538461547
20
237.00000000000003
10
380.38461538461547
20
240
10
369.35897435897448
20
240
10
369.35897435897448
20
237.00000000000003
10
358.33333333333343
20
237.00000000000003
10
358.33333333333343
20
240
10
347.30769230769238
20
240
10
347.30769230769238
20
237.00000000000003
10
336.28205128205138
20
237.00000000000003
10
336.28205128205138
20
240
10
325.25641025641039
20
240
10
325.25641025641039
20
237.00000000000003
10
314.23076923076928
20
237.00000000000003
10
314.23076923076928
20
240
10
303.20512820512829
20
240
10
303.20512820512829
20
237.00000000000003
10
292.17948717948724
20
237.00000000000003
10
292.17948717948724
20
240
10
281.15384615384619
20
240
10
281.15384615384619
20
237.00000000000003
10
270.1282051282052
20
237.00000000000003
10
270.12820512820514
20
240
10
259.10256410256414
20
240
10
259.10256410256414
20
237.00000000000003
10
248.07692307692309
20
237.00000000000003
10
248.07692307692309
20
240
10
237.05128205128207
20
240
10
237.05128205128207
20
237.00000000000003
10
226.02564102564105
20
237.00000000000003
10
226.02564102564105
20
240
10
215.00000000000003
20
240
10
215.00000000000003
20
227.36842105263156
10
218.00000000000006
20
227.36842105263156
10
218.00000000000006
20
214.73684210526315
10
215.00000000000003
20
214.73684210526315
10
215.00000000000003
20
202.10526315789474
10
218.00000000000006
20
202.10526315789474
10
218.00000000000006
20
189.4736842105263
10
215.00000000000003
20
189.4736842105263
10
215.00000000000003
20
176.84210526315786
10
218.00000000000006
20
176.84210526315786
10
218.00000000000006
20
164.21052631578945
10
215.00000000000003
20
164.21052631578945
10
215.00000000000003
20
151.57894736842107
10
218.00000000000006
20
151.57894736842107
10
218.00000000000006
20
138.94736842105263
10
215.00000000000003
20
138.94736842105263
10
215.00000000000003
20
126.31578947368422
10
218.00000000000006
20
126.31578947368422
10
218.00000000000006
20
113.68421052631578
10
215.00000000000003
20
113.68421052631578
10
215.00000000000003
20
101.05263157894737
10
218.00000000000006
20
101.05263157894737
10
218.00000000000006
20
88.421052631578931
10
215.00000000000003
20
88.421052631578931
10
215.00000000000003
20
75.789473684210549
10
218.00000000000006
20
75.789473684210549
10
218.00000000000006
20
63.157894736842124
10
215.00000000000003
20
63.157894736842124
10
215.00000000000003
20
50.526315789473699
10
218.00000000000006
20
50.526315789473699
10
218.00000000000006
20
37.894736842105274
10
215.00000000000003
20
37.894736842105274
10
215.00000000000003
20
25.26315789473685
10
218.00000000000006
20
25.26315789473685
10
218.00000000000006
20
12.631578947368425
10
215.00000000000003
20
12.631578947368425
10
215.00000000000003
20
0
10
226.02564110778849
20
0
10
226.02564110778849
20
3.0000000000000071
10
237.05128221557692
20
3.0000000000000071
10
237.05128221557692
20
0
10
248.07692332336535
20
0
10
248.07692332336535
20
3.0000000000000071
10
259.10256443115378
20
3.0000000000000071
10
259.10256443115378
20
0
10
270.12820553894232
20
0
10
270.12820553894232
20
3.0000000000000071
10
281.1538466467307
20
3.0000000000000071
10
281.1538466467307
20
0
10
292.17948775451924
20
0
10
292.17948775451924
20
3.0000000000000071
10
303.20512886230767
20
3.0000000000000071
10
303.20512886230767
20
0
10
314.23076997009605
20
0
10
314.23076997009605
20
3.0000000000000071
10
325.25641107788442
20
3.0000000000000071
10
325.25641107788442
20
0
10
336.28205218567302
20
0
10
336.28205218567302
20
3.0000000000000071
10
347.30769329346145
20
3.0000000000000071
10
347.30769329346145
20
0
10
358.33333440124989
20
0
10
358.33333440124989
20
3.0000000000000071
10
369.35897550903832
20
3.0000000000000071
10
369.35897550903832
20
0
10
380.38461661682675
20
0
10
380.38461661682675
20
3.0000000000000071
10
391.41025772461518
20
3.0000000000000071
10
391.41025772461518
20
0
10
402.43589883240372
20
0
10
402.43589883240372
20
3.0000000000000071
10
413.46153994019221
20
3.0000000000000071
10
413.46153994019221
20
0
10
424.48718104798058
20
0
10
424.48718104798058
20
3.0000000000000071
10
435.51282215576907
20
3.0000000000000071
10
435.51282215576907
20
0
10
446.53846326355745
20
0
10
446.53846326355745
20
3.0000000000000071
10
457.56410437134593
20
3.0000000000000071
10
457.56410437134593
20
0
10
468.58974547913442
20
0
10
468.58974547913442
20
3.0000000000000071
10
479.61538658692285
20
3.0000000000000071
10
479.61538658692285
20
0
10
490.64102769471134
20
0
10
490.64102769471134
20
3.0000000000000071
10
501.66666880249977
20
3.0000000000000071
10
501.66666880249977
20
0
10
512.69230991028826
20
0
10
512.69230991028826
20
3.0000000000000071
10
523.71795101807675
20
3.0000000000000071
10
523.71795101807675
20
0
10
534.74359212586512
20
0
10
534.74359212586512
20
3.0000000000000071
10
545.76923323365361
20
3.0000000000000071
10
545.76923323365361
20
0
10
556.79487434144198
20
0
10
556.79487434144198
20
3.0000000000000071
10
567.82051544923047
20
3.0000000000000071
10
567.82051544923047
20
0
10
578.84615655701896
20
0
10
578.84615655701896
20
3.0000000000000071
10
589.87179766480733
20
3.0000000000000071
10
589.87179766480733
20
0
10
600.89743877259582
20
0
10
600.89743877259582
20
3.0000000000000071
10
611.92307988038431
20
3.0000000000000071
10
611.92307988038431
20
0
10
622.94872098817268
20
0
10
622.94872098817279
20
3.0000000000000071
0
LWPOLYLINE
5
107
100
AcDbEntity
8
0
100
AcDbPolyline
90
4
70
1
43
0.0
10
612.45714285714291
20
230.99999999999997
10
612.4571428571428
20
227.99999999999997
10
600.68571428571431
20
227.99999999999997
10
600.68571428571443
20
230.99999999999997
0
LWPOLYLINE
5
108
100
AcDbEntity
8
0
100
AcDbPolyline
90
4
70
1
43
0.0
10
259.31428571428575
20
227.99999999999997
10
247.5428571428572
20
227.99999999999997
10
247.5428571428572
20
230.99999999999997
10
259.31428571428575
20
230.99999999999997
0
LWPOLYLINE
5
109
100
AcDbEntity
8
0
100
AcDbPolyline
90
4
70
1
43
0.0
10
565.37142857142862
20
230.99999999999997
10
565.37142857142851
20
227.99999999999997
10
553.60000000000002
20
227.99999999999997
10
553.60000000000002
20
230.99999999999997
0
LWPOLYLINE
5
110
100
AcDbEntity
8
0
100
AcDbPolyline
90
4
70
1
43
0.0
10
282.85714285714289
20
227.99999999999997
10
271.08571428571435
20
227.99999999999997
10
271.08571428571435
20
230.99999999999997
10
282.85714285714289
20
230.99999999999997
0
LWPOLYLINE
5
111
100
AcDbEntity
8
0
100
AcDbPolyline
90
4
70
1
43
0.0
10
518.28571428571433
20
230.99999999999997
10
518.28571428571433
20
227.99999999999997
10
506.51428571428585
20
227.99999999999997
10
506.51428571428585
20
230.99999999999997
0
LWPOLYLINE
5
112
100
AcDbEntity
8
0
100
AcDbPolyline
90
4
70
1
43
0.0
10
306.40000000000009
20
227.99999999999997
10
294.62857142857149
20
227.99999999999997
10
294.62857142857149
20
230.99999999999997
10
306.40000000000009
20
230.99999999999997
0
LWPOLYLINE
5
113
100
AcDbEntity
8
0
100
AcDbPolyline
90
4
70
1
43
0.0
10
471.20000000000005
20
230.99999999999997
10
471.20000000000005
20
227.99999999999997
10
459.4285714285715
20
227.99999999999997
10
459.4285714285715
20
230.99999999999997
0
LWPOLYLINE
5
114
100
AcDbEntity
8
0
100
AcDbPolyline
90
4
70
1
43
0.0
10
329.94285714285724
20
227.99999999999997
10
318.17142857142863
20
227.99999999999997
10
318.17142857142863
20
230.99999999999997
10
329.94285714285724
20
230.99999999999997
0
LWPOLYLINE
5
115
100
AcDbEntity
8
0
100
AcDbPolyline
90
4
70
1
43
0.0
10
424.11428571428576
20
230.99999999999997
10
424.11428571428576
20
227.99999999999997
10
412.34285714285716
20
227.99999999999997
10
412.34285714285716
20
230.99999999999997
0
LWPOLYLINE
5
116
100
AcDbEntity
8
0
100
AcDbPolyline
90
4
70
1
43
0.0
10
353.48571428571432
20
227.99999999999997
10
341.71428571428578
20
227.99999999999997
10
341.71428571428578
20
230.99999999999997
10
353.48571428571432
20
230.99999999999997
0
LWPOLYLINE
5
117
100
AcDbEntity
8
0
100
AcDbPolyline
90
4
70
1
43
0.0
10
377.02857142857158
20
230.99999999999997
10
377.02857142857158
20
227.99999999999997
10
365.25714285714292
20
227.99999999999997
10
365.25714285714292
20
230.99999999999997
0
LWPOLYLINE
5
118
100
AcDbEntity
8
0
100
AcDbPolyline
90
4
70
1
43
0.0
10
400.57142857142867
20
227.99999999999997
10
388.80000000000007
20
227.99999999999997
10
388.80000000000007
20
230.99999999999997
10
400.57142857142867
20
230.99999999999997
0
LWPOLYLINE
5
119
100
AcDbEntity
8
0
100
AcDbPolyline
90
4
70
1
43
0.0
10
447.65714285714296
20
230.99999999999997
10
447.65714285714296
20
227.99999999999997
10
435.88571428571441
20
227.99999999999997
10
435.88571428571441
20
230.99999999999997
0
LWPOLYLINE
5
120
100
AcDbEntity
8
0
100
AcDbPolyline
90
4
70
1
43
0.0
10
494.74285714285719
20
227.99999999999997
10
482.97142857142865
20
227.99999999999997
10
482.97142857142865
20
230.99999999999997
10
494.74285714285719
20
230.99999999999997
0
LWPOLYLINE
5
121
100
AcDbEntity
8
0
100
AcDbPolyline
90
4
70
1
43
0.0
10
541.82857142857142
20
230.99999999999997
10
541.82857142857142
20
227.99999999999997
10
530.05714285714294
20
227.99999999999997
10
530.05714285714294
20
230.99999999999997
0
LWPOLYLINE
5
122
100
AcDbEntity
8
0
100
AcDbPolyline
90
4
70
1
43
0.0
10
588.91428571428582
20
227.99999999999997
10
577.14285714285722
20
227.99999999999997
10
577.14285714285722
20
230.99999999999997
10
588.91428571428582
20
230.99999999999997
0
LWPOLYLINE
5
123
100
AcDbEntity
8
0
100
AcDbPolyline
90
7
70
1
43
0.0
10
636.00000000000011
20
227.99999999999997
10
636.00000000000011
20
213.59999999999997
10
633.00000000000011
20
213.59999999999997
10
633.00000000000011
20
227.99999999999997
10
624.22857142857151
20
227.99999999999997
10
624.22857142857151
20
230.99999999999997
10
636.00000000000011
20
230.99999999999997
0
LWPOLYLINE
5
124
100
AcDbEntity
8
0
100
AcDbPolyline
90
6
70
1
43
0.0
10
227.00000000000006
20
227.99999999999997
10
227.00000000000006
20
213.59999999999999
10
224.00000000000006
20
213.59999999999999
10
224.00000000000006
20
230.99999999999997
10
235.77142857142863
20
230.99999999999997
10
235.77142857142863
20
227.99999999999997
0
LWPOLYLINE
5
125
100
AcDbEntity
8
0
100
AcDbPolyline
90
4
70
1
43
0.0
10
247.5428571428572
20
9.0000000000000107
10
247.5428571428572
20
12
10
259.31428571428575
20
12
10
259.31428571428575
20
9.0000000000000107
0
LWPOLYLINE
5
126
100
AcDbEntity
8
0
100
AcDbPolyline
90
4
70
1
43
0.0
10
600.68571428571443
20
12
10
612.45714285714291
20
12
10
612.45714285714291
20
9.0000000000000107
10
600.68571428571443
20
9.0000000000000107
0
LWPOLYLINE
5
127
100
AcDbEntity
8
0
100
AcDbPolyline
90
4
70
1
43
0.0
10
294.62857142857155
20
9.0000000000000107
10
294.62857142857155
20
12
10
306.40000000000009
20
12
10
306.40000000000009
20
9.0000000000000107
0
LWPOLYLINE
5
128
100
AcDbEntity
8
0
100
AcDbPolyline
90
4
70
1
43
0.0
10
577.14285714285722
20
12
10
588.91428571428582
20
12
10
588.91428571428582
20
9.0000000000000107
10
577.14285714285722
20
9.0000000000000107
0
LWPOLYLINE
5
129
100
AcDbEntity
8
0
100
AcDbPolyline
90
4
70
1
43
0.0
10
341.71428571428578
20
9.0000000000000107
10
341.71428571428578
20
12
10
353.48571428571432
20
12
10
353.48571428571432
20
9.0000000000000107
0
LWPOLYLINE
5
130
100
AcDbEntity
8
0
100
AcDbPolyline
90
4
70
1
43
0.0
10
553.60000000000002
20
12
10
565.37142857142862
20
12
10
565.37142857142862
20
9.0000000000000107
10
553.60000000000002
20
9.0000000000000107
0
LWPOLYLINE
5
131
100
AcDbEntity
8
0
100
AcDbPolyline
90
4
70
1
43
0.0
10
388.80000000000007
20
9.0000000000000107
10
388.80000000000007
20
12
10
400.57142857142867
20
12
10
400.57142857142867
20
9.0000000000000107
0
LWPOLYLINE
5
132
100
AcDbEntity
8
0
100
AcDbPolyline
90
4
70
1
43
0.0
10
530.05714285714294
20
12
10
541.82857142857154
20
12
10
541.82857142857154
20
9.0000000000000107
10
530.05714285714294
20
9.0000000000000107
0
LWPOLYLINE
5
133
100
AcDbEntity
8
0
100
AcDbPolyline
90
4
70
1
43
0.0
10
435.88571428571441
20
9.0000000000000107
10
435.88571428571441
20
12
10
447.65714285714296
20
12
10
447.65714285714296
20
9.0000000000000107
0
LWPOLYLINE
5
134
100
AcDbEntity
8
0
100
AcDbPolyline
90
4
70
1
43
0.0
10
506.51428571428585
20
12
10
518.28571428571433
20
12
10
518.28571428571433
20
9.0000000000000107
10
506.51428571428585
20
9.0000000000000107
0
LWPOLYLINE
5
135
100
AcDbEntity
8
0
100
AcDbPolyline
90
4
70
1
43
0.0
10
482.97142857142859
20
9.0000000000000107
10
482.97142857142859
20
12
10
494.74285714285719
20
12
10
494.74285714285719
20
9.0000000000000107
0
LWPOLYLINE
5
136
100
AcDbEntity
8
0
100
AcDbPolyline
90
4
70
1
43
0.0
10
459.4285714285715
20
12
10
471.20000000000005
20
12
10
471.20000000000005
20
9.0000000000000107
10
459.4285714285715
20
9.0000000000000107
0
LWPOLYLINE
5
137
100
AcDbEntity
8
0
100
AcDbPolyline
90
4
70
1
43
0.0
10
412.34285714285716
20
9.0000000000000107
10
412.34285714285716
20
12
10
424.11428571428576
20
12
10
424.11428571428576
20
9.0000000000000107
0
LWPOLYLINE
5
138
100
AcDbEntity
8
0
100
AcDbPolyline
90
4
70
1
43
0.0
10
365.25714285714292
20
12
10
377.02857142857147
20
12
10
377.02857142857147
20
9.0000000000000107
10
365.25714285714292
20
9.0000000000000107
0
LWPOLYLINE
5
139
100
AcDbEntity
8
0
100
AcDbPolyline
90
4
70
1
43
0.0
10
318.17142857142863
20
9.0000000000000107
10
318.17142857142863
20
12
10
329.94285714285724
20
12
10
329.94285714285724
20
9.0000000000000107
0
LWPOLYLINE
5
140
100
AcDbEntity
8
0
100
AcDbPolyline
90
4
70
1
43
0.0
10
271.0857142857144
20
12
10
282.85714285714289
20
12
10
282.85714285714289
20
9.0000000000000107
10
271.0857142857144
20
9.0000000000000107
0
LWPOLYLINE
5
141
100
AcDbEntity
8
0
100
AcDbPolyline
90
6
70
1
43
0.0
10
633.00000000000011
20
11.999999999999993
10
633.00000000000011
20
26.400000000000006
10
636.00000000000011
20
26.400000000000006
10
636.00000000000011
20
9.0000000000000107
10
624.22857142857151
20
9.0000000000000107
10
624.22857142857151
20
12
0
LWPOLYLINE
5
142
100
AcDbEntity
8
0
100
AcDbPolyline
90
4
70
1
43
0.0
10
224.00000000000006
20
199.19999999999999
10
227.00000000000006
20
199.19999999999999
10
227.00000000000006
20
184.80000000000001
10
224.00000000000006
20
184.80000000000001
0
LWPOLYLINE
5
143
100
AcDbEntity
8
0
100
AcDbPolyline
90
4
70
1
43
0.0
10
227.00000000000006
20
55.199999999999996
10
227.00000000000006
20
40.799999999999983
10
224.00000000000006
20
40.79999999999999
10
224.00000000000006
20
55.199999999999989
0
LWPOLYLINE
5
144
100
AcDbEntity
8
0
100
AcDbPolyline
90
4
70
1
43
0.0
10
224.00000000000006
20
141.59999999999999
10
227.00000000000006
20
141.59999999999999
10
227.00000000000006
20
127.19999999999999
10
224.00000000000006
20
127.19999999999999
0
LWPOLYLINE
5
145
100
AcDbEntity
8
0
100
AcDbPolyline
90
4
70
1
43
0.0
10
227.00000000000006
20
83.999999999999986
10
227.00000000000006
20
69.599999999999994
10
224.00000000000006
20
69.599999999999994
10
224.00000000000006
20
83.999999999999986
0
LWPOLYLINE
5
146
100
AcDbEntity
8
0
100
AcDbPolyline
90
4
70
1
43
0.0
10
224.00000000000006
20
112.80000000000001
10
227.00000000000006
20
112.80000000000001
10
227.00000000000006
20
98.400000000000006
10
224.00000000000006
20
98.400000000000006
0
LWPOLYLINE
5
147
100
AcDbEntity
8
0
100
AcDbPolyline
90
4
70
1
43
0.0
10
227.00000000000006
20
170.39999999999998
10
227.00000000000006
20
155.99999999999997
10
224.00000000000006
20
155.99999999999997
10
224.00000000000006
20
170.39999999999998
0
LWPOLYLINE
5
148
100
AcDbEntity
8
0
100
AcDbPolyline
90
7
70
1
43
0.0
10
227.00000000000006
20
26.400000000000006
10
227.00000000000006
20
11.999999999999993
10
235.7714285714286
20
12
10
235.7714285714286
20
9.0000000000000107
10
224.00000000000006
20
9.0000000000000107
10
224.00000000000003
20
12.000000000000002
10
224.00000000000006
20
26.399999999999991
0
ENDSEC
0
SECTION
2
OBJECTS
0
DICTIONARY
5
C
100
AcDbDictionary
3
ACAD_GROUP
350
D
3
ACAD_MLINESTYLE
350
17
0
DICTIONARY
5
D
100
AcDbDictionary
0
DICTIONARY
5
1A
330
C
100
AcDbDictionary
0
DICTIONARY
5
17
100
AcDbDictionary
0
ENDSEC
0
EOF
