0
SECTION
2
HEADER
9
$INSUNITS
70
4
9
$ACADVER
1
AC1014
9
$HANDSEED
5
FFFF
0
ENDSEC
0
SECTION
2
TABLES
0
TABLE
2
VPORT
5
8
100
AcDbSymbolTable
0
ENDTAB
0
TABLE
2
LTYPE
5
5
100
AcDbSymbolTable
0
LTYPE
5
14
100
AcDbSymbolTableRecord
100
AcDbLinetypeTableRecord
2
BYBLOCK
70
0
0
LTYPE
5
15
100
AcDbSymbolTableRecord
100
AcDbLinetypeTableRecord
2
BYLAYER
70
0
0
LTYPE
5
16
100
AcDbSymbolTableRecord
100
AcDbLinetypeTableRecord
2
DASHED
70
0
3
Dashed __ __ __ __ __ __ __ __ __ __ __ __ __ _
72
65
73
2
40
0.75
49
0.5
74
0
49
-0.25
74
0
0
ENDTAB
0
TABLE
2
LAYER
5
2
100
AcDbSymbolTable
70
2
0
LAYER
5
50
100
AcDbSymbolTableRecord
100
AcDbLayerTableRecord
2
0
70
0
62
7
6
CONTINUOUS
0
ENDTAB
0
TABLE
2
STYLE
5
3
100
AcDbSymbolTable
70
1
0
STYLE
5
11
100
AcDbSymbolTableRecord
100
AcDbTextStyleTableRecord
2
STANDARD
70
0
0
ENDTAB
0
TABLE
2
VIEW
5
6
100
AcDbSymbolTable
70
0
0
ENDTAB
0
TABLE
2
UCS
5
7
100
AcDbSymbolTable
70
0
0
ENDTAB
0
TABLE
2
APPID
5
9
100
AcDbSymbolTable
70
2
0
APPID
5
12
100
AcDbSymbolTableRecord
100
AcDbRegAppTableRecord
2
ACAD
70
0
0
ENDTAB
0
TABLE
2
DIMSTYLE
5
A
100
AcDbSymbolTable
70
1
0
ENDTAB
0
TABLE
2
BLOCK_RECORD
5
1
100
AcDbSymbolTable
70
1
0
BLOCK_RECORD
5
1F
100
AcDbSymbolTableRecord
100
AcDbBlockTableRecord
2
*MODEL_SPACE
0
BLOCK_RECORD
5
1B
100
AcDbSymbolTableRecord
100
AcDbBlockTableRecord
2
*PAPER_SPACE
0
ENDTAB
0
ENDSEC
0
SECTION
2
BLOCKS
0
BLOCK
5
20
100
AcDbEntity
100
AcDbBlockBegin
2
*MODEL_SPACE
0
ENDBLK
5
21
100
AcDbEntity
100
AcDbBlockEnd
0
BLOCK
5
1C
100
AcDbEntity
100
AcDbBlockBegin
2
*PAPER_SPACE
0
ENDBLK
5
1D
100
AcDbEntity
100
AcDbBlockEnd
0
ENDSEC
0
SECTION
2
ENTITIES
0
LWPOLYLINE
5
100
100
AcDbEntity
8
0
100
AcDbPolyline
90
180
70
1
43
0.0
10
-218
20
24.428571428571431
10
-215.00000000000003
20
24.428571428571431
10
-215.00000000000003
20
35.142857142857139
10
-218
20
35.142857142857139
10
-218
20
45.857142857142854
10
-215.00000000000003
20
45.857142857142854
10
-215.00000000000003
20
56.571428571428569
10
-218
20
56.571428571428569
10
-218
20
67.285714285714278
10
-215.00000000000003
20
67.285714285714278
10
-215.00000000000006
20
78
10
-226.0256379861863
20
78
10
-226.0256379861863
20
75
10
-237.05127917612216
20
75
10
-237.05127917612216
20
78
10
-248.07692036605803
20
78
10
-248.07692036605803
20
75.000000000000014
10
-259.10256155599393
20
75.000000000000014
10
-259.10256155599393
20
78
10
-270.1282027459298
20
78
10
-270.1282027459298
20
75.000000000000014
10
-281.15384393586567
20
75.000000000000014
10
-281.15384393586567
20
78
10
-292.17948512580159
20
78
10
-292.17948512580159
20
75.000000000000014
10
-303.2051263157374
20
75.000000000000014
10
-303.2051263157374
20
78
10
-314.23076750567333
20
78
10
-314.23076750567333
20
75.000000000000014
10
-325.25640869560914
20
75.000000000000014
10
-325.25640869560914
20
78
10
-336.28204988554506
20
78.000000000000014
10
-336.28204988554506
20
75.000000000000014
10
-347.30769107548093
20
75.000000000000014
10
-347.30769107548093
20
78.000000000000014
10
-358.33333226541686
20
78.000000000000014
10
-358.33333226541686
20
75.000000000000014
10
-369.35897345535267
20
75.000000000000014
10
-369.35897345535267
20
78.000000000000014
10
-380.38461464528859
20
78.000000000000014
10
-380.38461464528859
20
75.000000000000014
10
-391.41025583522446
20
75.000000000000014
10
-391.41025583522446
20
78.000000000000014
10
-402.43589702516033
20
78.000000000000028
10
-402.43589702516033
20
75.000000000000028
10
-413.46153821509625
20
75.000000000000028
10
-413.46153821509625
20
78.000000000000028
10
-424.48717940503207
20
78.000000000000028
10
-424.48717940503207
20
75.000000000000028
10
-435.51282059496799
20
75.000000000000028
10
-435.51282059496799
20
78.000000000000028
10
-446.5384617849038
20
78.000000000000028
10
-446.5384617849038
20
75.000000000000028
10
-457.56410297483973
20
75.000000000000028
10
-457.56410297483973
20
78.000000000000028
10
-468.5897441647756
20
78.000000000000028
10
-468.5897441647756
20
75.000000000000028
10
-479.61538535471152
20
75.000000000000028
10
-479.61538535471152
20
78.000000000000028
10
-490.64102654464733
20
78.000000000000028
10
-490.64102654464733
20
75.000000000000028
10
-501.66666773458331
20
75.000000000000028
10
-501.66666773458331
20
78.000000000000028
10
-512.69230892451912
20
78.000000000000028
10
-512.69230892451912
20
75.000000000000028
10
-523.71795011445499
20
75.000000000000028
10
-523.71795011445499
20
78.000000000000028
10
-534.74359130439086
20
78.000000000000028
10
-534.74359130439086
20
75.000000000000028
10
-545.76923249432673
20
75.000000000000043
10
-545.76923249432673
20
78.000000000000043
10
-556.79487368426271
20
78.000000000000043
10
-556.79487368426271
20
75.000000000000043
10
-567.82051487419847
20
75.000000000000043
10
-567.82051487419858
20
78.000000000000043
10
-578.84615606413445
20
78.000000000000043
10
-578.84615606413445
20
75.000000000000043
10
-589.8717972540702
20
75.000000000000043
10
-589.8717972540702
20
78.000000000000043
10
-600.89743844400618
20
78.000000000000043
10
-600.89743844400618
20
75.000000000000043
10
-611.92307963394205
20
75.000000000000057
10
-611.92307963394205
20
78.000000000000043
10
-622.94872082387792
20
78.000000000000057
10
-622.94872082387792
20
75.000000000000057
10
-633.97436201381379
20
75.000000000000057
10
-633.97436201381379
20
78.000000000000057
10
-645.00000000000011
20
78.000000000000057
10
-645.00000000000011
20
67.285714285714334
10
-642.00000000000023
20
67.285714285714334
10
-642.00000000000023
20
56.571428571428619
10
-645.00000000000011
20
56.571428571428619
10
-645.00000000000011
20
45.857142857142904
10
-642.00000000000023
20
45.857142857142904
10
-642.00000000000023
20
35.142857142857196
10
-645.00000000000011
20
35.142857142857196
10
-645.00000000000011
20
24.428571428571484
10
-642.00000000000023
20
24.42857142857148
10
-642.00000000000023
20
13.71428571428577
10
-645.00000000000011
20
13.71428571428577
10
-645.00000000000011
20
3.0000000000000537
10
-633.97436209596117
20
3.0000000000000515
10
-633.97436209596117
20
5.1070259132757201e-14
10
-622.94872098817268
20
4.9960036108132044e-14
10
-622.94872098817268
20
3.0000000000000506
10
-611.92307988038431
20
3.0000000000000493
10
-611.92307988038431
20
4.8849813083506888e-14
10
-600.89743877259582
20
4.7462034302725442e-14
10
-600.89743877259582
20
3.000000000000048
10
-589.87179766480733
20
3.0000000000000466
10
-589.87179766480733
20
4.6074255521943996e-14
10
-578.84615655701896
20
4.4408920985006262e-14
10
-578.84615655701896
20
3.0000000000000449
10
-567.82051544923047
20
3.0000000000000435
10
-567.82051544923047
20
4.3298697960381105e-14
10
-556.7948743414421
20
4.163336342344337e-14
10
-556.7948743414421
20
3.0000000000000422
10
-545.76923323365361
20
3.0000000000000409
10
-545.76923323365361
20
4.0523140398818214e-14
10
-534.74359212586512
20
3.9135361618036768e-14
10
-534.74359212586512
20
3.0000000000000391
10
-523.71795101807663
20
3.0000000000000382
10
-523.71795101807663
20
3.7747582837255322e-14
10
-512.69230991028826
20
3.6359804056473877e-14
10
-512.69230991028826
20
3.0000000000000373
10
-501.66666880249977
20
3.0000000000000355
10
-501.66666880249977
20
3.4972025275692431e-14
10
-490.64102769471134
20
3.3861802251067274e-14
10
-490.64102769471134
20
3.0000000000000342
10
-479.61538658692285
20
3.0000000000000329
10
-479.61538658692285
20
3.219646771412954e-14
10
-468.58974547913442
20
3.1086244689504383e-14
10
-468.58974547913442
20
3.0000000000000315
10
-457.56410437134599
20
3.0000000000000302
10
-457.56410437134599
20
2.9976021664879227e-14
10
-446.53846326355745
20
2.8310687127941492e-14
10
-446.53846326355745
20
3.0000000000000289
10
-435.51282215576907
20
3.0000000000000271
10
-435.51282215576907
20
2.6645352591003757e-14
10
-424.48718104798058
20
2.581268532253489e-14
10
-424.48718104798058
20
3.0000000000000258
10
-413.46153994019221
20
3.0000000000000249
10
-413.46153994019221
20
2.4424906541753444e-14
10
-402.43589883240367
20
2.3037127760971998e-14
10
-402.43589883240367
20
3.000000000000024
10
-391.41025772461524
20
3.0000000000000222
10
-391.41025772461524
20
2.1649348980190553e-14
10
-380.38461661682675
20
2.0261570199409107e-14
10
-380.38461661682675
20
3.0000000000000204
10
-369.35897550903832
20
3.0000000000000195
10
-369.35897550903832
20
1.8873791418627661e-14
10
-358.33333440124989
20
1.7763568394002505e-14
10
-358.33333440124989
20
3.0000000000000182
10
-347.30769329346145
20
3.0000000000000169
10
-347.30769329346145
20
1.6653345369377348e-14
10
-336.28205218567297
20
1.4710455076283324e-14
10
-336.28205218567297
20
3.0000000000000151
10
-325.25641107788454
20
3.0000000000000138
10
-325.25641107788454
20
1.3322676295501878e-14
10
-314.23076997009611
20
1.1934897514720433e-14
10
-314.23076997009611
20
3.0000000000000124
10
-303.20512886230767
20
3.0000000000000115
10
-303.20512886230767
20
1.1102230246251565e-14
10
-292.17948775451919
20
9.4368957093138306e-15
10
-292.17948775451919
20
3.0000000000000098
10
-281.1538466467307
20
3.000000000000008
10
-281.1538466467307
20
7.7715611723760958e-15
10
-270.12820553894221
20
6.6613381477509392e-15
10
-270.12820553894221
20
3.0000000000000071
10
-259.10256443115378
20
3.0000000000000062
10
-259.10256443115378
20
5.5511151231257827e-15
10
-248.07692332336535
20
3.8857805861880479e-15
10
-248.07692332336535
20
3.0000000000000044
10
-237.05128221557692
20
3.0000000000000031
10
-237.05128221557692
20
2.7755575615628914e-15
10
-226.02564110778843
20
1.3877787807814457e-15
10
-226.02564110778843
20
3.0000000000000018
10
-215
20
3.0000000000000004
10
-215.00000000000003
20
13.714285714285717
10
-218
20
13.714285714285717
0
ENDSEC
0
SECTION
2
OBJECTS
0
DICTIONARY
5
C
100
AcDbDictionary
3
ACAD_GROUP
350
D
3
ACAD_MLINESTYLE
350
17
0
DICTIONARY
5
D
100
AcDbDictionary
0
DICTIONARY
5
1A
330
C
100
AcDbDictionary
0
DICTIONARY
5
17
100
AcDbDictionary
0
ENDSEC
0
EOF
