0
SECTION
2
HEADER
9
$INSUNITS
70
4
9
$ACADVER
1
AC1014
9
$HANDSEED
5
FFFF
0
ENDSEC
0
SECTION
2
TABLES
0
TABLE
2
VPORT
5
8
100
AcDbSymbolTable
0
ENDTAB
0
TABLE
2
LTYPE
5
5
100
AcDbSymbolTable
0
LTYPE
5
14
100
AcDbSymbolTableRecord
100
AcDbLinetypeTableRecord
2
BYBLOCK
70
0
0
LTYPE
5
15
100
AcDbSymbolTableRecord
100
AcDbLinetypeTableRecord
2
BYLAYER
70
0
0
LTYPE
5
16
100
AcDbSymbolTableRecord
100
AcDbLinetypeTableRecord
2
DASHED
70
0
3
Dashed __ __ __ __ __ __ __ __ __ __ __ __ __ _
72
65
73
2
40
0.75
49
0.5
74
0
49
-0.25
74
0
0
ENDTAB
0
TABLE
2
LAYER
5
2
100
AcDbSymbolTable
70
2
0
LAYER
5
50
100
AcDbSymbolTableRecord
100
AcDbLayerTableRecord
2
0
70
0
62
7
6
CONTINUOUS
0
ENDTAB
0
TABLE
2
STYLE
5
3
100
AcDbSymbolTable
70
1
0
STYLE
5
11
100
AcDbSymbolTableRecord
100
AcDbTextStyleTableRecord
2
STANDARD
70
0
0
ENDTAB
0
TABLE
2
VIEW
5
6
100
AcDbSymbolTable
70
0
0
ENDTAB
0
TABLE
2
UCS
5
7
100
AcDbSymbolTable
70
0
0
ENDTAB
0
TABLE
2
APPID
5
9
100
AcDbSymbolTable
70
2
0
APPID
5
12
100
AcDbSymbolTableRecord
100
AcDbRegAppTableRecord
2
ACAD
70
0
0
ENDTAB
0
TABLE
2
DIMSTYLE
5
A
100
AcDbSymbolTable
70
1
0
ENDTAB
0
TABLE
2
BLOCK_RECORD
5
1
100
AcDbSymbolTable
70
1
0
BLOCK_RECORD
5
1F
100
AcDbSymbolTableRecord
100
AcDbBlockTableRecord
2
*MODEL_SPACE
0
BLOCK_RECORD
5
1B
100
AcDbSymbolTableRecord
100
AcDbBlockTableRecord
2
*PAPER_SPACE
0
ENDTAB
0
ENDSEC
0
SECTION
2
BLOCKS
0
BLOCK
5
20
100
AcDbEntity
100
AcDbBlockBegin
2
*MODEL_SPACE
0
ENDBLK
5
21
100
AcDbEntity
100
AcDbBlockEnd
0
BLOCK
5
1C
100
AcDbEntity
100
AcDbBlockBegin
2
*PAPER_SPACE
0
ENDBLK
5
1D
100
AcDbEntity
100
AcDbBlockEnd
0
ENDSEC
0
SECTION
2
ENTITIES
0
LWPOLYLINE
5
100
100
AcDbEntity
8
0
100
AcDbPolyline
90
164
70
1
43
0.0
10
-636.00000000000011
20
22.285714285714342
10
-633.00000000000011
20
22.285714285714342
10
-633.00000000000011
20
11.142857142857194
10
-636.00000000000011
20
11.142857142857194
10
-636.00000000000011
20
5.1070259132757201e-14
10
-624.22857142857151
20
5.0237591864288333e-14
10
-624.22857142857151
20
3.0000000000000506
10
-612.45714285714291
20
3.0000000000000493
10
-612.45714285714291
20
4.8849813083506888e-14
10
-600.68571428571443
20
4.7184478546569153e-14
10
-600.68571428571443
20
3.0000000000000471
10
-588.91428571428582
20
3.0000000000000462
10
-588.91428571428582
20
4.5519144009631418e-14
10
-577.14285714285722
20
4.4408920985006262e-14
10
-577.14285714285722
20
3.0000000000000449
10
-565.37142857142862
20
3.0000000000000431
10
-565.37142857142862
20
4.2743586448068527e-14
10
-553.60000000000002
20
4.163336342344337e-14
10
-553.60000000000002
20
3.0000000000000417
10
-541.82857142857142
20
3.0000000000000404
10
-541.82857142857142
20
3.9968028886505635e-14
10
-530.05714285714294
20
3.858025010572419e-14
10
-530.05714285714294
20
3.0000000000000391
10
-518.28571428571433
20
3.0000000000000373
10
-518.28571428571433
20
3.7192471324942744e-14
10
-506.51428571428585
20
3.5804692544161298e-14
10
-506.51428571428585
20
3.000000000000036
10
-494.74285714285719
20
3.0000000000000346
10
-494.74285714285719
20
3.4416913763379853e-14
10
-482.97142857142859
20
3.2751579226442118e-14
10
-482.97142857142859
20
3.0000000000000329
10
-471.20000000000005
20
3.0000000000000315
10
-471.20000000000005
20
3.1086244689504383e-14
10
-459.4285714285715
20
2.9976021664879227e-14
10
-459.4285714285715
20
3.0000000000000302
10
-447.65714285714296
20
3.0000000000000289
10
-447.65714285714296
20
2.8310687127941492e-14
10
-435.88571428571436
20
2.7200464103316335e-14
10
-435.88571428571436
20
3.0000000000000271
10
-424.11428571428581
20
3.0000000000000258
10
-424.11428571428581
20
2.55351295663786e-14
10
-412.34285714285716
20
2.4147350785597155e-14
10
-412.34285714285716
20
3.0000000000000249
10
-400.57142857142867
20
3.0000000000000226
10
-400.57142857142867
20
2.2759572004815709e-14
10
-388.80000000000007
20
2.1371793224034263e-14
10
-388.80000000000007
20
3.0000000000000213
10
-377.02857142857158
20
3.0000000000000204
10
-377.02857142857158
20
1.9984014443252818e-14
10
-365.25714285714287
20
1.8596235662471372e-14
10
-365.25714285714287
20
3.0000000000000195
10
-353.48571428571432
20
3.0000000000000169
10
-353.48571428571432
20
1.6653345369377348e-14
10
-341.71428571428578
20
1.5543122344752192e-14
10
-341.71428571428578
20
3.000000000000016
10
-329.94285714285724
20
3.0000000000000142
10
-329.94285714285724
20
1.3877787807814457e-14
10
-318.17142857142863
20
1.27675647831893e-14
10
-318.17142857142863
20
3.0000000000000124
10
-306.40000000000009
20
3.0000000000000115
10
-306.40000000000009
20
1.1102230246251565e-14
10
-294.62857142857155
20
9.7144514654701197e-15
10
-294.62857142857155
20
3.0000000000000107
10
-282.857142857143
20
3.000000000000008
10
-282.857142857143
20
8.3266726846886741e-15
10
-271.0857142857144
20
6.9388939039072284e-15
10
-271.0857142857144
20
3.0000000000000071
10
-259.3142857142858
20
3.0000000000000062
10
-259.3142857142858
20
5.5511151231257827e-15
10
-247.5428571428572
20
4.163336342344337e-15
10
-247.5428571428572
20
3.0000000000000049
10
-235.77142857142866
20
3.0000000000000027
10
-235.77142857142866
20
2.2204460492503131e-15
10
-224.00000000000006
20
1.1021821192326219e-15
10
-224.00000000000006
20
11.142857142857142
10
-227.00000000000003
20
11.142857142857142
10
-227.00000000000003
20
22.285714285714285
10
-224.00000000000006
20
22.285714285714285
10
-224.00000000000006
20
33.428571428571431
10
-227.00000000000003
20
33.428571428571431
10
-227.00000000000003
20
44.571428571428569
10
-224.00000000000006
20
44.571428571428569
10
-224.00000000000006
20
55.714285714285708
10
-227.00000000000003
20
55.714285714285708
10
-227.00000000000003
20
66.857142857142847
10
-224.00000000000006
20
66.857142857142847
10
-224.00000000000006
20
78
10
-235.77142558949339
20
78
10
-235.77142558949339
20
74.999999999999986
10
-247.54285424862593
20
75
10
-247.54285424862593
20
78
10
-259.31428290775847
20
78
10
-259.31428290775847
20
75
10
-271.08571156689101
20
75
10
-271.08571156689101
20
78
10
-282.8571402260236
20
78
10
-282.8571402260236
20
75
10
-294.62856888515614
20
75
10
-294.62856888515614
20
78
10
-306.39999754428868
20
78
10
-306.39999754428868
20
75
10
-318.17142620342122
20
75.000000000000014
10
-318.17142620342122
20
78.000000000000014
10
-329.94285486255376
20
78.000000000000014
10
-329.94285486255376
20
75.000000000000014
10
-341.7142835216863
20
75.000000000000014
10
-341.7142835216863
20
78.000000000000014
10
-353.48571218081884
20
78.000000000000014
10
-353.48571218081884
20
75.000000000000014
10
-365.25714083995138
20
75.000000000000014
10
-365.25714083995138
20
78.000000000000014
10
-377.02856949908403
20
78.000000000000014
10
-377.02856949908403
20
75.000000000000014
10
-388.79999815821657
20
75.000000000000014
10
-388.79999815821657
20
78.000000000000028
10
-400.57142681734911
20
78.000000000000028
10
-400.57142681734911
20
75.000000000000014
10
-412.34285547648165
20
75.000000000000014
10
-412.34285547648165
20
78.000000000000028
10
-424.11428413561424
20
78.000000000000028
10
-424.11428413561424
20
75.000000000000014
10
-435.88571279474678
20
75.000000000000014
10
-435.88571279474678
20
78.000000000000028
10
-447.65714145387932
20
78.000000000000028
10
-447.65714145387932
20
75.000000000000014
10
-459.42857011301186
20
75.000000000000014
10
-459.42857011301186
20
78.000000000000028
10
-471.1999987721444
20
78.000000000000028
10
-471.1999987721444
20
75.000000000000028
10
-482.97142743127694
20
75.000000000000028
10
-482.97142743127694
20
78.000000000000028
10
-494.74285609040948
20
78.000000000000028
10
-494.74285609040948
20
75.000000000000028
10
-506.51428474954201
20
75.000000000000028
10
-506.51428474954201
20
78.000000000000028
10
-518.28571340867461
20
78.000000000000028
10
-518.28571340867461
20
75.000000000000028
10
-530.05714206780704
20
75.000000000000028
10
-530.05714206780704
20
78.000000000000043
10
-541.82857072693969
20
78.000000000000043
10
-541.82857072693969
20
75.000000000000028
10
-553.59999938607223
20
75.000000000000028
10
-553.59999938607223
20
78.000000000000043
10
-565.37142804520477
20
78.000000000000043
10
-565.37142804520477
20
75.000000000000028
10
-577.14285670433731
20
75.000000000000028
10
-577.14285670433731
20
78.000000000000043
10
-588.91428536346984
20
78.000000000000043
10
-588.91428536346984
20
75.000000000000028
10
-600.6857140226025
20
75.000000000000028
10
-600.68571402260238
20
78.000000000000057
10
-612.45714268173504
20
78.000000000000057
10
-612.45714268173504
20
75.000000000000043
10
-624.22857134086757
20
75.000000000000043
10
-624.22857134086757
20
78.000000000000057
10
-636.00000000000011
20
78.000000000000057
10
-636.00000000000011
20
66.857142857142904
10
-633.00000000000011
20
66.857142857142904
10
-633.00000000000011
20
55.714285714285765
10
-636.00000000000011
20
55.714285714285765
10
-636.00000000000011
20
44.571428571428626
10
-633.00000000000011
20
44.571428571428626
10
-633.00000000000011
20
33.428571428571487
10
-636.00000000000011
20
33.428571428571487
0
ENDSEC
0
SECTION
2
OBJECTS
0
DICTIONARY
5
C
100
AcDbDictionary
3
ACAD_GROUP
350
D
3
ACAD_MLINESTYLE
350
17
0
DICTIONARY
5
D
100
AcDbDictionary
0
DICTIONARY
5
1A
330
C
100
AcDbDictionary
0
DICTIONARY
5
17
100
AcDbDictionary
0
ENDSEC
0
EOF
