0
SECTION
2
HEADER
9
$INSUNITS
70
4
9
$ACADVER
1
AC1014
9
$HANDSEED
5
FFFF
0
ENDSEC
0
SECTION
2
TABLES
0
TABLE
2
VPORT
5
8
100
AcDbSymbolTable
0
ENDTAB
0
TABLE
2
LTYPE
5
5
100
AcDbSymbolTable
0
LTYPE
5
14
100
AcDbSymbolTableRecord
100
AcDbLinetypeTableRecord
2
BYBLOCK
70
0
0
LTYPE
5
15
100
AcDbSymbolTableRecord
100
AcDbLinetypeTableRecord
2
BYLAYER
70
0
0
LTYPE
5
16
100
AcDbSymbolTableRecord
100
AcDbLinetypeTableRecord
2
DASHED
70
0
3
Dashed __ __ __ __ __ __ __ __ __ __ __ __ __ _
72
65
73
2
40
0.75
49
0.5
74
0
49
-0.25
74
0
0
ENDTAB
0
TABLE
2
LAYER
5
2
100
AcDbSymbolTable
70
2
0
LAYER
5
50
100
AcDbSymbolTableRecord
100
AcDbLayerTableRecord
2
0
70
0
62
7
6
CONTINUOUS
0
ENDTAB
0
TABLE
2
STYLE
5
3
100
AcDbSymbolTable
70
1
0
STYLE
5
11
100
AcDbSymbolTableRecord
100
AcDbTextStyleTableRecord
2
STANDARD
70
0
0
ENDTAB
0
TABLE
2
VIEW
5
6
100
AcDbSymbolTable
70
0
0
ENDTAB
0
TABLE
2
UCS
5
7
100
AcDbSymbolTable
70
0
0
ENDTAB
0
TABLE
2
APPID
5
9
100
AcDbSymbolTable
70
2
0
APPID
5
12
100
AcDbSymbolTableRecord
100
AcDbRegAppTableRecord
2
ACAD
70
0
0
ENDTAB
0
TABLE
2
DIMSTYLE
5
A
100
AcDbSymbolTable
70
1
0
ENDTAB
0
TABLE
2
BLOCK_RECORD
5
1
100
AcDbSymbolTable
70
1
0
BLOCK_RECORD
5
1F
100
AcDbSymbolTableRecord
100
AcDbBlockTableRecord
2
*MODEL_SPACE
0
BLOCK_RECORD
5
1B
100
AcDbSymbolTableRecord
100
AcDbBlockTableRecord
2
*PAPER_SPACE
0
ENDTAB
0
ENDSEC
0
SECTION
2
BLOCKS
0
BLOCK
5
20
100
AcDbEntity
100
AcDbBlockBegin
2
*MODEL_SPACE
0
ENDBLK
5
21
100
AcDbEntity
100
AcDbBlockEnd
0
BLOCK
5
1C
100
AcDbEntity
100
AcDbBlockBegin
2
*PAPER_SPACE
0
ENDBLK
5
1D
100
AcDbEntity
100
AcDbBlockEnd
0
ENDSEC
0
SECTION
2
ENTITIES
0
LWPOLYLINE
5
100
100
AcDbEntity
8
0
100
AcDbPolyline
90
198
70
1
43
0.0
10
-224.00000000000006
20
26.399999999999991
10
-224.00000000000003
20
12.000000000000002
10
-223.99999693036085
20
9.0000000000000107
10
-235.77142558949339
20
9.0000000000000107
10
-235.77142558949339
20
12
10
-247.54285424862593
20
12
10
-247.54285424862593
20
9.0000000000000107
10
-259.31428290775847
20
9.0000000000000107
10
-259.31428290775847
20
12
10
-271.08571156689101
20
12
10
-271.08571156689101
20
9.0000000000000107
10
-282.85714022602355
20
9.0000000000000107
10
-282.85714022602355
20
12
10
-294.62856888515614
20
12
10
-294.62856888515614
20
9.0000000000000107
10
-306.39999754428868
20
9.0000000000000107
10
-306.39999754428868
20
12
10
-318.17142620342122
20
12
10
-318.17142620342122
20
9.0000000000000107
10
-329.94285486255376
20
9.0000000000000107
10
-329.94285486255376
20
12
10
-341.7142835216863
20
12
10
-341.7142835216863
20
9.0000000000000107
10
-353.48571218081884
20
9.0000000000000107
10
-353.48571218081884
20
12
10
-365.25714083995138
20
12
10
-365.25714083995138
20
9.0000000000000107
10
-377.02856949908391
20
9.0000000000000107
10
-377.02856949908391
20
12
10
-388.79999815821657
20
12
10
-388.79999815821657
20
9.0000000000000107
10
-400.57142681734911
20
9.0000000000000107
10
-400.57142681734911
20
12
10
-412.34285547648165
20
12
10
-412.34285547648165
20
9.0000000000000107
10
-424.11428413561418
20
9.0000000000000107
10
-424.11428413561418
20
12
10
-435.88571279474678
20
12
10
-435.88571279474678
20
9.0000000000000107
10
-447.65714145387932
20
9.0000000000000107
10
-447.65714145387932
20
12
10
-459.42857011301186
20
12
10
-459.42857011301186
20
9.0000000000000107
10
-471.1999987721444
20
9.0000000000000107
10
-471.1999987721444
20
12
10
-482.97142743127694
20
12
10
-482.97142743127694
20
9.0000000000000107
10
-494.74285609040948
20
9.0000000000000107
10
-494.74285609040948
20
12
10
-506.51428474954201
20
12
10
-506.51428474954201
20
9.0000000000000107
10
-518.28571340867461
20
9.0000000000000107
10
-518.28571340867461
20
12
10
-530.05714206780715
20
12
10
-530.05714206780715
20
9.0000000000000107
10
-541.82857072693969
20
9.0000000000000107
10
-541.82857072693969
20
12
10
-553.59999938607223
20
12
10
-553.59999938607223
20
9.0000000000000107
10
-565.37142804520477
20
9.0000000000000107
10
-565.37142804520477
20
12
10
-577.14285670433731
20
12
10
-577.14285670433731
20
9.0000000000000107
10
-588.91428536346984
20
9.0000000000000107
10
-588.91428536346984
20
12
10
-600.6857140226025
20
12
10
-600.6857140226025
20
9.0000000000000107
10
-612.45714268173504
20
9.0000000000000107
10
-612.45714268173504
20
12
10
-624.22857134086757
20
12
10
-624.22857134086757
20
9.0000000000000107
10
-636.00000000000011
20
9.0000000000000107
10
-636.00000000000011
20
26.400000000000006
10
-633.00000000000011
20
26.400000000000006
10
-633.00000000000011
20
40.800000000000018
10
-636.00000000000011
20
40.800000000000018
10
-636.00000000000011
20
55.199999999999996
10
-633.00000000000011
20
55.199999999999996
10
-633.00000000000011
20
69.599999999999994
10
-636.00000000000011
20
69.599999999999966
10
-636.00000000000011
20
84
10
-633.00000000000011
20
84
10
-633.00000000000011
20
98.399999999999977
10
-636.00000000000011
20
98.399999999999977
10
-636.00000000000011
20
112.8
10
-633.00000000000011
20
112.8
10
-633.00000000000011
20
127.19999999999997
10
-636.00000000000011
20
127.19999999999997
10
-636.00000000000011
20
141.59999999999999
10
-633.00000000000011
20
141.59999999999999
10
-633.00000000000011
20
155.99999999999997
10
-636.00000000000011
20
155.99999999999997
10
-636.00000000000011
20
170.39999999999998
10
-633.00000000000011
20
170.39999999999998
10
-633.00000000000011
20
184.79999999999995
10
-636.00000000000011
20
184.79999999999995
10
-636.00000000000011
20
199.19999999999999
10
-633.00000000000011
20
199.19999999999999
10
-633.00000000000011
20
213.59999999999997
10
-636.00000000000011
20
213.59999999999997
10
-636.00000000000011
20
227.99999999999997
10
-636.00000306963921
20
230.99999999999997
10
-624.22857441050667
20
230.99999999999997
10
-624.22857441050667
20
227.99999999999997
10
-612.45714575137413
20
227.99999999999997
10
-612.45714575137413
20
230.99999999999997
10
-600.68571709224159
20
230.99999999999997
10
-600.68571709224159
20
227.99999999999997
10
-588.91428843310905
20
227.99999999999997
10
-588.91428843310905
20
230.99999999999997
10
-577.14285977397651
20
230.99999999999997
10
-577.14285977397651
20
227.99999999999997
10
-565.37143111484397
20
227.99999999999997
10
-565.37143111484397
20
230.99999999999997
10
-553.60000245571143
20
230.99999999999997
10
-553.60000245571143
20
227.99999999999997
10
-541.82857379657878
20
227.99999999999997
10
-541.82857379657878
20
230.99999999999997
10
-530.05714513744624
20
230.99999999999997
10
-530.05714513744624
20
227.99999999999997
10
-518.2857164783137
20
227.99999999999997
10
-518.2857164783137
20
230.99999999999997
10
-506.51428781918122
20
230.99999999999997
10
-506.51428781918122
20
227.99999999999997
10
-494.74285916004868
20
227.99999999999997
10
-494.74285916004868
20
230.99999999999997
10
-482.97143050091614
20
230.99999999999997
10
-482.97143050091614
20
227.99999999999997
10
-471.20000184178355
20
227.99999999999997
10
-471.20000184178355
20
230.99999999999997
10
-459.42857318265101
20
230.99999999999997
10
-459.42857318265101
20
227.99999999999997
10
-447.65714452351847
20
227.99999999999997
10
-447.65714452351847
20
230.99999999999997
10
-435.88571586438593
20
230.99999999999997
10
-435.88571586438593
20
227.99999999999997
10
-424.11428720525339
20
227.99999999999997
10
-424.11428720525339
20
230.99999999999997
10
-412.34285854612085
20
230.99999999999997
10
-412.34285854612085
20
227.99999999999997
10
-400.57142988698831
20
227.99999999999997
10
-400.57142988698831
20
230.99999999999997
10
-388.80000122785577
20
230.99999999999997
10
-388.80000122785577
20
227.99999999999997
10
-377.02857256872323
20
227.99999999999997
10
-377.02857256872323
20
230.99999999999997
10
-365.2571439095907
20
230.99999999999997
10
-365.2571439095907
20
227.99999999999997
10
-353.48571525045804
20
227.99999999999997
10
-353.48571525045804
20
230.99999999999997
10
-341.7142865913255
20
230.99999999999997
10
-341.7142865913255
20
227.99999999999997
10
-329.94285793219296
20
227.99999999999997
10
-329.94285793219296
20
230.99999999999997
10
-318.17142927306043
20
230.99999999999997
10
-318.17142927306043
20
227.99999999999997
10
-306.40000061392789
20
227.99999999999997
10
-306.40000061392789
20
230.99999999999997
10
-294.62857195479535
20
230.99999999999997
10
-294.62857195479535
20
227.99999999999997
10
-282.85714329566281
20
227.99999999999997
10
-282.85714329566281
20
230.99999999999997
10
-271.08571463653027
20
230.99999999999997
10
-271.08571463653027
20
227.99999999999997
10
-259.31428597739773
20
227.99999999999997
10
-259.31428597739773
20
230.99999999999997
10
-247.54285731826513
20
230.99999999999997
10
-247.54285731826513
20
227.99999999999997
10
-235.7714286591326
20
227.99999999999997
10
-235.7714286591326
20
230.99999999999997
10
-224.00000000000006
20
230.99999999999997
10
-224.00000000000006
20
213.59999999999999
10
-227.00000000000006
20
213.59999999999999
10
-227.00000000000006
20
199.19999999999999
10
-224.00000000000006
20
199.19999999999999
10
-224.00000000000006
20
184.80000000000001
10
-227.00000000000006
20
184.80000000000001
10
-227.00000000000006
20
170.39999999999998
10
-224.00000000000006
20
170.39999999999998
10
-224.00000000000006
20
155.99999999999997
10
-227.00000000000006
20
155.99999999999997
10
-227.00000000000006
20
141.59999999999999
10
-224.00000000000006
20
141.59999999999999
10
-224.00000000000006
20
127.19999999999999
10
-227.00000000000006
20
127.19999999999999
10
-227.00000000000006
20
112.80000000000001
10
-224.00000000000006
20
112.80000000000001
10
-224.00000000000006
20
98.400000000000006
10
-227.00000000000006
20
98.400000000000006
10
-227.00000000000006
20
83.999999999999986
10
-224.00000000000006
20
83.999999999999986
10
-224.00000000000006
20
69.599999999999994
10
-227.00000000000006
20
69.599999999999994
10
-227.00000000000006
20
55.199999999999996
10
-224.00000000000006
20
55.199999999999989
10
-224.00000000000006
20
40.79999999999999
10
-227.00000000000006
20
40.799999999999983
10
-227.00000000000006
20
26.400000000000006
0
LWPOLYLINE
5
101
100
AcDbEntity
8
0
100
AcDbPolyline
90
228
70
1
43
0.0
10
-215.00000000000003
20
224.68421052631581
10
-218.00000000000006
20
224.68421052631581
10
-218.00000000000006
20
237.00000000000003
10
-226.02564102564102
20
237
10
-226.02564102564102
20
240
10
-237.0512820512821
20
240
10
-237.0512820512821
20
237
10
-248.07692307692315
20
237
10
-248.07692307692315
20
240
10
-259.10256410256414
20
240
10
-259.10256410256414
20
237
10
-270.1282051282052
20
237
10
-270.1282051282052
20
240
10
-281.15384615384619
20
240
10
-281.15384615384619
20
237
10
-292.17948717948724
20
237
10
-292.17948717948724
20
240
10
-303.20512820512823
20
240
10
-303.20512820512823
20
237
10
-314.23076923076928
20
237
10
-314.23076923076928
20
240
10
-325.25641025641039
20
240
10
-325.25641025641039
20
237
10
-336.28205128205138
20
237
10
-336.28205128205138
20
240
10
-347.30769230769238
20
240
10
-347.30769230769238
20
237
10
-358.33333333333343
20
237
10
-358.33333333333343
20
240
10
-369.35897435897448
20
240
10
-369.35897435897448
20
237
10
-380.38461538461547
20
237
10
-380.38461538461547
20
240
10
-391.41025641025647
20
240
10
-391.41025641025647
20
237
10
-402.43589743589752
20
237
10
-402.43589743589752
20
240
10
-413.46153846153857
20
240
10
-413.46153846153857
20
237
10
-424.48717948717956
20
237
10
-424.48717948717956
20
240
10
-435.51282051282055
20
240
10
-435.51282051282055
20
237
10
-446.5384615384616
20
237
10
-446.5384615384616
20
240
10
-457.56410256410265
20
240
10
-457.56410256410265
20
237
10
-468.58974358974365
20
237
10
-468.58974358974365
20
240
10
-479.61538461538464
20
240
10
-479.61538461538464
20
237
10
-490.64102564102575
20
237
10
-490.64102564102575
20
240
10
-501.6666666666668
20
240
10
-501.6666666666668
20
237
10
-512.69230769230785
20
237
10
-512.69230769230785
20
240
10
-523.71794871794884
20
240
10
-523.71794871794884
20
237
10
-534.74358974358984
20
237
10
-534.74358974358984
20
240
10
-545.76923076923083
20
240
10
-545.76923076923083
20
237
10
-556.79487179487194
20
237
10
-556.79487179487194
20
240
10
-567.82051282051293
20
240
10
-567.82051282051293
20
237
10
-578.84615384615392
20
237
10
-578.84615384615404
20
240
10
-589.87179487179503
20
240
10
-589.87179487179503
20
237
10
-600.89743589743603
20
237
10
-600.89743589743603
20
240
10
-611.92307692307713
20
240
10
-611.92307692307713
20
237
10
-622.94871794871813
20
237
10
-622.94871794871813
20
240
10
-633.97435897435912
20
240
10
-633.97435897435912
20
237
10
-642.00000000000023
20
237.00000000000003
10
-642.00000000000023
20
224.68421052631578
10
-645.00000000000011
20
224.68421052631578
10
-645.00000000000011
20
212.36842105263153
10
-642.00000000000023
20
212.36842105263153
10
-642.00000000000023
20
200.05263157894734
10
-645.00000000000011
20
200.05263157894734
10
-645.00000000000011
20
187.73684210526312
10
-642.00000000000023
20
187.73684210526312
10
-642.00000000000023
20
175.42105263157893
10
-645.00000000000011
20
175.42105263157893
10
-645.00000000000011
20
163.10526315789471
10
-642.00000000000023
20
163.10526315789471
10
-642.00000000000023
20
150.78947368421052
10
-645.00000000000011
20
150.78947368421052
10
-645.00000000000011
20
138.4736842105263
10
-642.00000000000023
20
138.4736842105263
10
-642.00000000000023
20
126.1578947368421
10
-645.00000000000011
20
126.1578947368421
10
-645.00000000000011
20
113.84210526315786
10
-642.00000000000023
20
113.84210526315786
10
-642.00000000000023
20
101.52631578947367
10
-645.00000000000011
20
101.52631578947367
10
-645.00000000000011
20
89.210526315789451
10
-642.00000000000023
20
89.210526315789451
10
-642.00000000000023
20
76.894736842105246
10
-645.00000000000011
20
76.894736842105246
10
-645.00000000000011
20
64.578947368421055
10
-642.00000000000023
20
64.578947368421055
10
-642.00000000000023
20
52.263157894736842
10
-645.00000000000011
20
52.263157894736842
10
-645.00000000000011
20
39.94736842105263
10
-642.00000000000023
20
39.94736842105263
10
-642.00000000000023
20
27.631578947368425
10
-645.00000000000011
20
27.631578947368425
10
-645.00000000000011
20
15.315789473684216
10
-642.00000000000023
20
15.315789473684216
10
-642.00000000000023
20
3.0000000000000071
10
-633.97436201381379
20
3.0000000000000004
10
-633.97436201381379
20
0
10
-622.94872082387792
20
0
10
-622.94872082387781
20
3.0000000000000004
10
-611.92307963394205
20
3.0000000000000004
10
-611.92307963394205
20
0
10
-600.89743844400607
20
0
10
-600.89743844400607
20
3.0000000000000004
10
-589.8717972540702
20
3.0000000000000004
10
-589.8717972540702
20
0
10
-578.84615606413445
20
0
10
-578.84615606413433
20
3.0000000000000004
10
-567.82051487419847
20
3.0000000000000004
10
-567.82051487419858
20
0
10
-556.7948736842626
20
0
10
-556.7948736842626
20
3.0000000000000004
10
-545.76923249432673
20
3.0000000000000004
10
-545.76923249432673
20
0
10
-534.74359130439086
20
0
10
-534.74359130439086
20
3.0000000000000004
10
-523.71795011445499
20
3.0000000000000004
10
-523.71795011445499
20
0
10
-512.69230892451912
20
0
10
-512.69230892451912
20
3.0000000000000004
10
-501.66666773458326
20
3.0000000000000004
10
-501.66666773458326
20
0
10
-490.64102654464739
20
0
10
-490.64102654464739
20
3.0000000000000004
10
-479.61538535471152
20
3.0000000000000004
10
-479.61538535471152
20
0
10
-468.58974416477565
20
0
10
-468.58974416477565
20
3.0000000000000004
10
-457.56410297483967
20
3.0000000000000004
10
-457.56410297483967
20
0
10
-446.5384617849038
20
0
10
-446.5384617849038
20
3.0000000000000004
10
-435.51282059496799
20
3.0000000000000004
10
-435.51282059496799
20
0
10
-424.48717940503218
20
0
10
-424.48717940503218
20
3.0000000000000004
10
-413.4615382150962
20
3.0000000000000004
10
-413.4615382150962
20
0
10
-402.43589702516033
20
0
10
-402.43589702516033
20
3.0000000000000004
10
-391.41025583522446
20
3.0000000000000004
10
-391.41025583522446
20
0
10
-380.38461464528859
20
0
10
-380.38461464528859
20
3.0000000000000004
10
-369.35897345535267
20
3.0000000000000004
10
-369.35897345535267
20
0
10
-358.33333226541686
20
0
10
-358.33333226541686
20
3.0000000000000004
10
-347.30769107548099
20
3.0000000000000004
10
-347.30769107548099
20
0
10
-336.28204988554506
20
0
10
-336.28204988554506
20
3.0000000000000004
10
-325.25640869560914
20
3.0000000000000004
10
-325.25640869560914
20
0
10
-314.23076750567333
20
0
10
-314.23076750567333
20
3.0000000000000004
10
-303.2051263157374
20
3.0000000000000004
10
-303.2051263157374
20
0
10
-292.17948512580159
20
0
10
-292.17948512580159
20
3.0000000000000004
10
-281.15384393586567
20
3.0000000000000004
10
-281.15384393586567
20
0
10
-270.1282027459298
20
0
10
-270.1282027459298
20
3.0000000000000004
10
-259.10256155599393
20
3.0000000000000004
10
-259.10256155599393
20
0
10
-248.07692036605803
20
0
10
-248.07692036605803
20
3.0000000000000004
10
-237.05127917612216
20
3.0000000000000004
10
-237.05127917612216
20
0
10
-226.0256379861863
20
0
10
-226.0256379861863
20
3.0000000000000004
10
-218.00000000000006
20
3.0000000000000071
10
-218.00000000000006
20
15.315789473684234
10
-215.00000000000003
20
15.315789473684234
10
-215.00000000000003
20
27.63157894736846
10
-218.00000000000006
20
27.63157894736846
10
-218.00000000000006
20
39.947368421052651
10
-215.00000000000003
20
39.947368421052651
10
-215.00000000000003
20
52.263157894736878
10
-218.00000000000006
20
52.263157894736878
10
-218.00000000000006
20
64.578947368421069
10
-215.00000000000003
20
64.578947368421069
10
-215.00000000000003
20
76.89473684210526
10
-218.00000000000006
20
76.89473684210526
10
-218.00000000000006
20
89.21052631578948
10
-215.00000000000003
20
89.21052631578948
10
-215.00000000000003
20
101.5263157894737
10
-218.00000000000006
20
101.5263157894737
10
-218.00000000000006
20
113.84210526315792
10
-215.00000000000003
20
113.84210526315792
10
-215.00000000000003
20
126.15789473684211
10
-218.00000000000006
20
126.15789473684211
10
-218.00000000000006
20
138.47368421052633
10
-215.00000000000003
20
138.47368421052633
10
-215.00000000000003
20
150.78947368421052
10
-218.00000000000006
20
150.78947368421052
10
-218.00000000000006
20
163.10526315789474
10
-215.00000000000003
20
163.10526315789474
10
-215.00000000000003
20
175.42105263157896
10
-218.00000000000006
20
175.42105263157896
10
-218.00000000000006
20
187.73684210526318
10
-215.00000000000003
20
187.73684210526318
10
-215.00000000000003
20
200.0526315789474
10
-218.00000000000006
20
200.0526315789474
10
-218.00000000000006
20
212.36842105263162
10
-215.00000000000003
20
212.36842105263162
0
ENDSEC
0
SECTION
2
OBJECTS
0
DICTIONARY
5
C
100
AcDbDictionary
3
ACAD_GROUP
350
D
3
ACAD_MLINESTYLE
350
17
0
DICTIONARY
5
D
100
AcDbDictionary
0
DICTIONARY
5
1A
330
C
100
AcDbDictionary
0
DICTIONARY
5
17
100
AcDbDictionary
0
ENDSEC
0
EOF
