0
SECTION
2
HEADER
9
$INSUNITS
70
4
9
$ACADVER
1
AC1014
9
$HANDSEED
5
FFFF
0
ENDSEC
0
SECTION
2
TABLES
0
TABLE
2
VPORT
5
8
100
AcDbSymbolTable
0
ENDTAB
0
TABLE
2
LTYPE
5
5
100
AcDbSymbolTable
0
LTYPE
5
14
100
AcDbSymbolTableRecord
100
AcDbLinetypeTableRecord
2
BYBLOCK
70
0
0
LTYPE
5
15
100
AcDbSymbolTableRecord
100
AcDbLinetypeTableRecord
2
BYLAYER
70
0
0
LTYPE
5
16
100
AcDbSymbolTableRecord
100
AcDbLinetypeTableRecord
2
DASHED
70
0
3
Dashed __ __ __ __ __ __ __ __ __ __ __ __ __ _
72
65
73
2
40
0.75
49
0.5
74
0
49
-0.25
74
0
0
ENDTAB
0
TABLE
2
LAYER
5
2
100
AcDbSymbolTable
70
2
0
LAYER
5
50
100
AcDbSymbolTableRecord
100
AcDbLayerTableRecord
2
0
70
0
62
7
6
CONTINUOUS
0
ENDTAB
0
TABLE
2
STYLE
5
3
100
AcDbSymbolTable
70
1
0
STYLE
5
11
100
AcDbSymbolTableRecord
100
AcDbTextStyleTableRecord
2
STANDARD
70
0
0
ENDTAB
0
TABLE
2
VIEW
5
6
100
AcDbSymbolTable
70
0
0
ENDTAB
0
TABLE
2
UCS
5
7
100
AcDbSymbolTable
70
0
0
ENDTAB
0
TABLE
2
APPID
5
9
100
AcDbSymbolTable
70
2
0
APPID
5
12
100
AcDbSymbolTableRecord
100
AcDbRegAppTableRecord
2
ACAD
70
0
0
ENDTAB
0
TABLE
2
DIMSTYLE
5
A
100
AcDbSymbolTable
70
1
0
ENDTAB
0
TABLE
2
BLOCK_RECORD
5
1
100
AcDbSymbolTable
70
1
0
BLOCK_RECORD
5
1F
100
AcDbSymbolTableRecord
100
AcDbBlockTableRecord
2
*MODEL_SPACE
0
BLOCK_RECORD
5
1B
100
AcDbSymbolTableRecord
100
AcDbBlockTableRecord
2
*PAPER_SPACE
0
ENDTAB
0
ENDSEC
0
SECTION
2
BLOCKS
0
BLOCK
5
20
100
AcDbEntity
100
AcDbBlockBegin
2
*MODEL_SPACE
0
ENDBLK
5
21
100
AcDbEntity
100
AcDbBlockEnd
0
BLOCK
5
1C
100
AcDbEntity
100
AcDbBlockBegin
2
*PAPER_SPACE
0
ENDBLK
5
1D
100
AcDbEntity
100
AcDbBlockEnd
0
ENDSEC
0
SECTION
2
ENTITIES
0
LWPOLYLINE
5
100
100
AcDbEntity
8
0
100
AcDbPolyline
90
100
70
1
43
0.0
10
13.714285714285687
20
3.0000000000000071
10
13.714285714285687
20
0
10
24.428571428571402
20
0
10
24.428571428571399
20
3.0000000000000071
10
35.14285714285711
20
3.0000000000000071
10
35.142857142857117
20
0
10
45.857142857142826
20
0
10
45.857142857142826
20
3.0000000000000071
10
56.571428571428548
20
3.0000000000000071
10
56.571428571428541
20
0
10
67.285714285714263
20
0
10
67.285714285714263
20
3.0000000000000071
10
77.999999999999972
20
3.0000000000000071
10
77.999999999999972
20
15.315789473684216
10
74.999999999999972
20
15.315789473684234
10
74.999999999999972
20
27.631578947368425
10
77.999999999999972
20
27.631578947368425
10
77.999999999999972
20
39.94736842105263
10
74.999999999999972
20
39.94736842105263
10
74.999999999999972
20
52.263157894736842
10
77.999999999999972
20
52.263157894736842
10
77.999999999999972
20
64.578947368421055
10
74.999999999999972
20
64.578947368421055
10
74.999999999999972
20
76.89473684210526
10
77.999999999999972
20
76.89473684210526
10
77.999999999999972
20
89.21052631578948
10
74.999999999999972
20
89.21052631578948
10
74.999999999999972
20
101.52631578947367
10
77.999999999999972
20
101.52631578947367
10
77.999999999999972
20
113.8421052631579
10
74.999999999999972
20
113.8421052631579
10
74.999999999999972
20
126.1578947368421
10
77.999999999999972
20
126.1578947368421
10
77.999999999999972
20
138.47368421052633
10
74.999999999999972
20
138.47368421052633
10
74.999999999999972
20
150.78947368421052
10
77.999999999999972
20
150.78947368421052
10
77.999999999999972
20
163.10526315789471
10
74.999999999999972
20
163.10526315789471
10
74.999999999999972
20
175.4210526315789
10
77.999999999999972
20
175.4210526315789
10
77.999999999999972
20
187.73684210526315
10
74.999999999999972
20
187.73684210526315
10
74.999999999999972
20
200.05263157894734
10
77.999999999999972
20
200.05263157894734
10
77.999999999999972
20
212.36842105263153
10
74.999999999999972
20
212.36842105263153
10
74.999999999999972
20
224.68421052631572
10
77.999999999999972
20
224.68421052631572
10
77.999999999999972
20
237
10
67.285714285714263
20
237
10
67.285714285714263
20
240
10
56.571428571428541
20
240
10
56.571428571428541
20
237
10
45.857142857142826
20
237
10
45.857142857142826
20
240
10
35.14285714285711
20
240
10
35.14285714285711
20
237
10
24.428571428571399
20
237
10
24.428571428571399
20
240
10
13.714285714285687
20
240
10
13.714285714285687
20
237
10
2.9999999999999716
20
237
10
2.9999999999999738
20
227.36842444068509
10
-2.6090241078691179e-14
20
227.36842444068509
10
-2.6254124875309361e-14
20
214.73684530509146
10
2.9999999999999738
20
214.73684530509146
10
2.9999999999999738
20
202.10526616949784
10
-2.6090241078691179e-14
20
202.10526616949784
10
-2.6254124875309361e-14
20
189.47368703390424
10
2.9999999999999738
20
189.47368703390424
10
2.9999999999999738
20
176.84210789831064
10
-2.6090241078691179e-14
20
176.84210789831064
10
-2.6254124875309361e-14
20
164.21052876271699
10
2.9999999999999738
20
164.21052876271699
10
2.9999999999999738
20
151.57894962712336
10
-2.6090241078691179e-14
20
151.57894962712336
10
-2.6254124875309361e-14
20
138.94737049152977
10
2.9999999999999738
20
138.94737049152977
10
2.9999999999999738
20
126.31579135593614
10
-2.6090241078691179e-14
20
126.31579135593614
10
-2.6254124875309361e-14
20
113.68421222034254
10
2.9999999999999738
20
113.68421222034254
10
2.9999999999999738
20
101.05263308474892
10
-2.6090241078691179e-14
20
101.05263308474892
10
-2.6254124875309361e-14
20
88.421053949155294
10
2.9999999999999738
20
88.421053949155294
10
2.9999999999999738
20
75.789474813561668
10
-2.6090241078691179e-14
20
75.789474813561668
10
-2.6254124875309361e-14
20
63.157895677968057
10
2.9999999999999738
20
63.157895677968057
10
2.9999999999999738
20
50.526316542374445
10
-2.6090241078691179e-14
20
50.526316542374445
10
-2.6254124875309361e-14
20
37.894737406780834
10
2.9999999999999738
20
37.894737406780834
10
2.9999999999999738
20
25.263158271187223
10
-2.6090241078691179e-14
20
25.263158271187223
10
-2.6254124875309361e-14
20
12.631579135593611
10
2.9999999999999738
20
12.631579135593611
10
2.9999999999999738
20
3.0000000000000071
0
ENDSEC
0
SECTION
2
OBJECTS
0
DICTIONARY
5
C
100
AcDbDictionary
3
ACAD_GROUP
350
D
3
ACAD_MLINESTYLE
350
17
0
DICTIONARY
5
D
100
AcDbDictionary
0
DICTIONARY
5
1A
330
C
100
AcDbDictionary
0
DICTIONARY
5
17
100
AcDbDictionary
0
ENDSEC
0
EOF
