0
SECTION
2
HEADER
9
$INSUNITS
70
4
9
$ACADVER
1
AC1014
9
$HANDSEED
5
FFFF
0
ENDSEC
0
SECTION
2
TABLES
0
TABLE
2
VPORT
5
8
100
AcDbSymbolTable
0
ENDTAB
0
TABLE
2
LTYPE
5
5
100
AcDbSymbolTable
0
LTYPE
5
14
100
AcDbSymbolTableRecord
100
AcDbLinetypeTableRecord
2
BYBLOCK
70
0
0
LTYPE
5
15
100
AcDbSymbolTableRecord
100
AcDbLinetypeTableRecord
2
BYLAYER
70
0
0
LTYPE
5
16
100
AcDbSymbolTableRecord
100
AcDbLinetypeTableRecord
2
DASHED
70
0
3
Dashed __ __ __ __ __ __ __ __ __ __ __ __ __ _
72
65
73
2
40
0.75
49
0.5
74
0
49
-0.25
74
0
0
ENDTAB
0
TABLE
2
LAYER
5
2
100
AcDbSymbolTable
70
2
0
LAYER
5
50
100
AcDbSymbolTableRecord
100
AcDbLayerTableRecord
2
0
70
0
62
7
6
CONTINUOUS
0
ENDTAB
0
TABLE
2
STYLE
5
3
100
AcDbSymbolTable
70
1
0
STYLE
5
11
100
AcDbSymbolTableRecord
100
AcDbTextStyleTableRecord
2
STANDARD
70
0
0
ENDTAB
0
TABLE
2
VIEW
5
6
100
AcDbSymbolTable
70
0
0
ENDTAB
0
TABLE
2
UCS
5
7
100
AcDbSymbolTable
70
0
0
ENDTAB
0
TABLE
2
APPID
5
9
100
AcDbSymbolTable
70
2
0
APPID
5
12
100
AcDbSymbolTableRecord
100
AcDbRegAppTableRecord
2
ACAD
70
0
0
ENDTAB
0
TABLE
2
DIMSTYLE
5
A
100
AcDbSymbolTable
70
1
0
ENDTAB
0
TABLE
2
BLOCK_RECORD
5
1
100
AcDbSymbolTable
70
1
0
BLOCK_RECORD
5
1F
100
AcDbSymbolTableRecord
100
AcDbBlockTableRecord
2
*MODEL_SPACE
0
BLOCK_RECORD
5
1B
100
AcDbSymbolTableRecord
100
AcDbBlockTableRecord
2
*PAPER_SPACE
0
ENDTAB
0
ENDSEC
0
SECTION
2
BLOCKS
0
BLOCK
5
20
100
AcDbEntity
100
AcDbBlockBegin
2
*MODEL_SPACE
0
ENDBLK
5
21
100
AcDbEntity
100
AcDbBlockEnd
0
BLOCK
5
1C
100
AcDbEntity
100
AcDbBlockBegin
2
*PAPER_SPACE
0
ENDBLK
5
1D
100
AcDbEntity
100
AcDbBlockEnd
0
ENDSEC
0
SECTION
2
ENTITIES
0
LWPOLYLINE
5
100
100
AcDbEntity
8
0
100
AcDbPolyline
90
84
70
1
43
0.0
10
-11.142857142857117
20
9.0000000000000107
10
-11.142857142857117
20
12
10
2.6645352591003757e-14
20
12
10
2.6321865276275561e-14
20
26.399999999999999
10
-2.9999999999999738
20
26.399999999999999
10
-2.9999999999999738
20
40.79999999999999
10
2.6090241078691179e-14
20
40.79999999999999
10
2.6321865276275561e-14
20
55.199999999999996
10
-2.9999999999999738
20
55.199999999999996
10
-2.9999999999999738
20
69.599999999999994
10
2.6090241078691179e-14
20
69.599999999999994
10
2.6321865276275561e-14
20
83.999999999999986
10
-2.9999999999999738
20
83.999999999999986
10
-2.9999999999999738
20
98.399999999999977
10
2.6090241078691179e-14
20
98.399999999999977
10
2.6321865276275561e-14
20
112.8
10
-2.9999999999999738
20
112.8
10
-2.9999999999999738
20
127.2
10
2.6090241078691179e-14
20
127.2
10
2.6321865276275561e-14
20
141.59999999999999
10
-2.9999999999999738
20
141.59999999999999
10
-2.9999999999999738
20
155.99999999999997
10
2.6090241078691179e-14
20
156
10
2.6321865276275561e-14
20
170.39999999999998
10
-2.9999999999999738
20
170.39999999999995
10
-2.9999999999999738
20
184.79999999999995
10
2.6090241078691179e-14
20
184.79999999999995
10
2.6321865276275561e-14
20
199.20000000000002
10
-2.9999999999999738
20
199.20000000000002
10
-2.9999999999999738
20
213.59999999999999
10
2.6090241078691179e-14
20
213.59999999999999
10
2.6329906181668095e-14
20
227.99999999999997
10
-11.142857142857119
20
227.99999999999997
10
-11.142857142857119
20
230.99999999999997
10
-22.28571428571426
20
230.99999999999997
10
-22.28571428571426
20
227.99999999999997
10
-33.428571428571402
20
227.99999999999997
10
-33.428571428571402
20
230.99999999999997
10
-44.571428571428548
20
230.99999999999997
10
-44.571428571428548
20
227.99999999999997
10
-55.714285714285687
20
227.99999999999997
10
-55.714285714285687
20
230.99999999999997
10
-66.857142857142833
20
230.99999999999997
10
-66.857142857142833
20
227.99999999999997
10
-77.999999999999972
20
227.99999999999997
10
-77.999999999999972
20
213.59999999999999
10
-74.999999999999986
20
213.59999999999999
10
-74.999999999999986
20
199.20000000000002
10
-77.999999999999972
20
199.20000000000002
10
-77.999999999999972
20
184.79999999999995
10
-74.999999999999986
20
184.79999999999995
10
-74.999999999999986
20
170.39999999999995
10
-77.999999999999972
20
170.39999999999998
10
-77.999999999999972
20
156
10
-74.999999999999986
20
155.99999999999997
10
-74.999999999999986
20
141.59999999999999
10
-77.999999999999972
20
141.59999999999999
10
-77.999999999999972
20
127.2
10
-74.999999999999986
20
127.2
10
-74.999999999999986
20
112.8
10
-77.999999999999972
20
112.8
10
-77.999999999999972
20
98.399999999999977
10
-74.999999999999986
20
98.399999999999977
10
-74.999999999999986
20
83.999999999999986
10
-77.999999999999972
20
83.999999999999986
10
-77.999999999999972
20
69.599999999999994
10
-74.999999999999986
20
69.599999999999994
10
-74.999999999999986
20
55.199999999999996
10
-77.999999999999972
20
55.199999999999996
10
-77.999999999999972
20
40.79999999999999
10
-74.999999999999986
20
40.79999999999999
10
-74.999999999999986
20
26.399999999999999
10
-77.999999999999972
20
26.399999999999999
10
-77.999999999999972
20
12
10
-66.857142857142847
20
12
10
-66.857142857142833
20
9.0000000000000107
10
-55.714285714285687
20
9.0000000000000107
10
-55.714285714285687
20
12
10
-44.571428571428555
20
12
10
-44.571428571428548
20
9.0000000000000107
10
-33.428571428571402
20
9.0000000000000107
10
-33.428571428571402
20
12
10
-22.28571428571427
20
12
10
-22.28571428571426
20
9.0000000000000107
0
ENDSEC
0
SECTION
2
OBJECTS
0
DICTIONARY
5
C
100
AcDbDictionary
3
ACAD_GROUP
350
D
3
ACAD_MLINESTYLE
350
17
0
DICTIONARY
5
D
100
AcDbDictionary
0
DICTIONARY
5
1A
330
C
100
AcDbDictionary
0
DICTIONARY
5
17
100
AcDbDictionary
0
ENDSEC
0
EOF
