0
SECTION
2
HEADER
9
$INSUNITS
70
4
9
$ACADVER
1
AC1014
9
$HANDSEED
5
FFFF
0
ENDSEC
0
SECTION
2
TABLES
0
TABLE
2
VPORT
5
8
100
AcDbSymbolTable
0
ENDTAB
0
TABLE
2
LTYPE
5
5
100
AcDbSymbolTable
0
LTYPE
5
14
100
AcDbSymbolTableRecord
100
AcDbLinetypeTableRecord
2
BYBLOCK
70
0
0
LTYPE
5
15
100
AcDbSymbolTableRecord
100
AcDbLinetypeTableRecord
2
BYLAYER
70
0
0
LTYPE
5
16
100
AcDbSymbolTableRecord
100
AcDbLinetypeTableRecord
2
DASHED
70
0
3
Dashed __ __ __ __ __ __ __ __ __ __ __ __ __ _
72
65
73
2
40
0.75
49
0.5
74
0
49
-0.25
74
0
0
ENDTAB
0
TABLE
2
LAYER
5
2
100
AcDbSymbolTable
70
2
0
LAYER
5
50
100
AcDbSymbolTableRecord
100
AcDbLayerTableRecord
2
0
70
0
62
7
6
CONTINUOUS
0
ENDTAB
0
TABLE
2
STYLE
5
3
100
AcDbSymbolTable
70
1
0
STYLE
5
11
100
AcDbSymbolTableRecord
100
AcDbTextStyleTableRecord
2
STANDARD
70
0
0
ENDTAB
0
TABLE
2
VIEW
5
6
100
AcDbSymbolTable
70
0
0
ENDTAB
0
TABLE
2
UCS
5
7
100
AcDbSymbolTable
70
0
0
ENDTAB
0
TABLE
2
APPID
5
9
100
AcDbSymbolTable
70
2
0
APPID
5
12
100
AcDbSymbolTableRecord
100
AcDbRegAppTableRecord
2
ACAD
70
0
0
ENDTAB
0
TABLE
2
DIMSTYLE
5
A
100
AcDbSymbolTable
70
1
0
ENDTAB
0
TABLE
2
BLOCK_RECORD
5
1
100
AcDbSymbolTable
70
1
0
BLOCK_RECORD
5
1F
100
AcDbSymbolTableRecord
100
AcDbBlockTableRecord
2
*MODEL_SPACE
0
BLOCK_RECORD
5
1B
100
AcDbSymbolTableRecord
100
AcDbBlockTableRecord
2
*PAPER_SPACE
0
ENDTAB
0
ENDSEC
0
SECTION
2
BLOCKS
0
BLOCK
5
20
100
AcDbEntity
100
AcDbBlockBegin
2
*MODEL_SPACE
0
ENDBLK
5
21
100
AcDbEntity
100
AcDbBlockEnd
0
BLOCK
5
1C
100
AcDbEntity
100
AcDbBlockBegin
2
*PAPER_SPACE
0
ENDBLK
5
1D
100
AcDbEntity
100
AcDbBlockEnd
0
ENDSEC
0
SECTION
2
ENTITIES
0
LWPOLYLINE
5
100
100
AcDbEntity
8
0
100
AcDbPolyline
90
164
70
1
43
0.0
10
636.00000000000011
20
11.142857142857194
10
633.00000000000011
20
11.142857142857194
10
633.00000000000011
20
22.285714285714342
10
636.00000000000011
20
22.285714285714342
10
636.00000000000011
20
33.428571428571487
10
633.00000000000011
20
33.428571428571487
10
633.00000000000011
20
44.571428571428626
10
636.00000000000011
20
44.571428571428626
10
636.00000000000011
20
55.714285714285765
10
633.00000000000011
20
55.714285714285765
10
633.00000000000011
20
66.857142857142904
10
636.00000000000011
20
66.857142857142904
10
636.00000000000011
20
78.000000000000057
10
624.22857441050667
20
78.000000000000057
10
624.22857441050667
20
75.000000000000057
10
612.45714575137413
20
75.000000000000043
10
612.45714575137413
20
78.000000000000043
10
600.68571709224159
20
78.000000000000043
10
600.68571709224159
20
75.000000000000043
10
588.91428843310905
20
75.000000000000043
10
588.91428843310905
20
78.000000000000043
10
577.14285977397651
20
78.000000000000043
10
577.14285977397651
20
75.000000000000043
10
565.37143111484397
20
75.000000000000043
10
565.37143111484397
20
78.000000000000043
10
553.60000245571132
20
78.000000000000043
10
553.60000245571132
20
75.000000000000043
10
541.82857379657878
20
75.000000000000028
10
541.82857379657878
20
78.000000000000028
10
530.05714513744624
20
78.000000000000028
10
530.05714513744624
20
75.000000000000028
10
518.2857164783137
20
75.000000000000028
10
518.2857164783137
20
78.000000000000028
10
506.51428781918122
20
78.000000000000028
10
506.51428781918122
20
75.000000000000028
10
494.74285916004868
20
75.000000000000028
10
494.74285916004868
20
78.000000000000028
10
482.97143050091609
20
78.000000000000028
10
482.97143050091609
20
75.000000000000028
10
471.20000184178355
20
75.000000000000028
10
471.20000184178355
20
78.000000000000028
10
459.42857318265101
20
78.000000000000028
10
459.42857318265101
20
75.000000000000028
10
447.65714452351847
20
75.000000000000028
10
447.65714452351847
20
78.000000000000028
10
435.88571586438593
20
78.000000000000028
10
435.88571586438593
20
75.000000000000028
10
424.11428720525339
20
75.000000000000028
10
424.11428720525339
20
78.000000000000028
10
412.34285854612085
20
78.000000000000028
10
412.34285854612085
20
75.000000000000028
10
400.57142988698831
20
75.000000000000014
10
400.57142988698831
20
78.000000000000014
10
388.80000122785577
20
78.000000000000014
10
388.80000122785577
20
75.000000000000014
10
377.02857256872323
20
75.000000000000014
10
377.02857256872323
20
78.000000000000014
10
365.2571439095907
20
78.000000000000014
10
365.2571439095907
20
75.000000000000014
10
353.48571525045816
20
75.000000000000014
10
353.48571525045816
20
78.000000000000014
10
341.7142865913255
20
78.000000000000014
10
341.7142865913255
20
75.000000000000014
10
329.94285793219296
20
75.000000000000014
10
329.94285793219296
20
78
10
318.17142927306043
20
78
10
318.17142927306043
20
75.000000000000014
10
306.40000061392789
20
75.000000000000014
10
306.40000061392789
20
78
10
294.62857195479535
20
78
10
294.62857195479535
20
75.000000000000014
10
282.85714329566281
20
75.000000000000014
10
282.85714329566281
20
78
10
271.08571463653027
20
78
10
271.08571463653027
20
75.000000000000014
10
259.31428597739773
20
75.000000000000014
10
259.31428597739773
20
78
10
247.54285731826513
20
78
10
247.54285731826513
20
75
10
235.7714286591326
20
75
10
235.7714286591326
20
78
10
224.00000000000006
20
78
10
224.00000000000006
20
66.857142857142847
10
227.00000000000003
20
66.857142857142847
10
227.00000000000003
20
55.714285714285708
10
224.00000000000006
20
55.714285714285708
10
224.00000000000006
20
44.571428571428569
10
227.00000000000003
20
44.571428571428569
10
227.00000000000003
20
33.428571428571431
10
224.00000000000006
20
33.428571428571431
10
224.00000000000006
20
22.285714285714285
10
227.00000000000003
20
22.285714285714285
10
227.00000000000003
20
11.142857142857146
10
224.00000000000006
20
11.142857142857146
10
224.00000000000006
20
0
10
235.77142857142863
20
2.4980018054066022e-15
10
235.77142857142863
20
3.0000000000000027
10
247.5428571428572
20
3.0000000000000036
10
247.5428571428572
20
3.8857805861880479e-15
10
259.3142857142858
20
5.5511151231257827e-15
10
259.31428571428575
20
3.0000000000000062
10
271.0857142857144
20
3.0000000000000071
10
271.0857142857144
20
6.6613381477509392e-15
10
282.85714285714289
20
8.3266726846886741e-15
10
282.85714285714289
20
3.000000000000008
10
294.62857142857149
20
3.0000000000000098
10
294.62857142857149
20
9.4368957093138306e-15
10
306.40000000000009
20
1.1102230246251565e-14
10
306.40000000000009
20
3.0000000000000115
10
318.17142857142863
20
3.0000000000000124
10
318.17142857142863
20
1.27675647831893e-14
10
329.94285714285724
20
1.4155343563970746e-14
10
329.94285714285724
20
3.0000000000000151
10
341.71428571428578
20
3.000000000000016
10
341.71428571428578
20
1.5543122344752192e-14
10
353.48571428571432
20
1.6930901125533637e-14
10
353.48571428571432
20
3.0000000000000169
10
365.25714285714292
20
3.0000000000000182
10
365.25714285714292
20
1.8318679906315083e-14
10
377.02857142857158
20
1.9984014443252818e-14
10
377.02857142857158
20
3.0000000000000204
10
388.80000000000007
20
3.0000000000000213
10
388.80000000000007
20
2.1094237467877974e-14
10
400.57142857142867
20
2.2759572004815709e-14
10
400.57142857142867
20
3.0000000000000226
10
412.34285714285716
20
3.0000000000000244
10
412.34285714285716
20
2.3869795029440866e-14
10
424.11428571428581
20
2.55351295663786e-14
10
424.11428571428581
20
3.0000000000000258
10
435.88571428571436
20
3.0000000000000271
10
435.88571428571436
20
2.6645352591003757e-14
10
447.65714285714296
20
2.8588242884097781e-14
10
447.65714285714296
20
3.0000000000000293
10
459.4285714285715
20
3.0000000000000302
10
459.4285714285715
20
2.9976021664879227e-14
10
471.20000000000005
20
3.1363800445660672e-14
10
471.20000000000005
20
3.0000000000000315
10
482.97142857142859
20
3.0000000000000329
10
482.97142857142859
20
3.2751579226442118e-14
10
494.74285714285725
20
3.4139358007223564e-14
10
494.74285714285725
20
3.0000000000000346
10
506.51428571428585
20
3.000000000000036
10
506.51428571428585
20
3.5527136788005009e-14
10
518.28571428571433
20
3.7192471324942744e-14
10
518.28571428571433
20
3.0000000000000373
10
530.05714285714294
20
3.0000000000000386
10
530.05714285714294
20
3.8302694349567901e-14
10
541.82857142857154
20
3.9968028886505635e-14
10
541.82857142857154
20
3.0000000000000404
10
553.60000000000002
20
3.0000000000000417
10
553.60000000000002
20
4.1078251911130792e-14
10
565.37142857142862
20
4.3021142204224816e-14
10
565.37142857142862
20
3.0000000000000435
10
577.14285714285711
20
3.0000000000000449
10
577.14285714285711
20
4.4408920985006262e-14
10
588.91428571428582
20
4.5796699765787707e-14
10
588.91428571428582
20
3.0000000000000462
10
600.68571428571431
20
3.0000000000000471
10
600.68571428571431
20
4.7184478546569153e-14
10
612.45714285714291
20
4.8572257327350599e-14
10
612.45714285714291
20
3.0000000000000493
10
624.22857142857151
20
3.0000000000000506
10
624.22857142857151
20
4.9960036108132044e-14
10
636.00000000000011
20
5.1557630244103586e-14
0
ENDSEC
0
SECTION
2
OBJECTS
0
DICTIONARY
5
C
100
AcDbDictionary
3
ACAD_GROUP
350
D
3
ACAD_MLINESTYLE
350
17
0
DICTIONARY
5
D
100
AcDbDictionary
0
DICTIONARY
5
1A
330
C
100
AcDbDictionary
0
DICTIONARY
5
17
100
AcDbDictionary
0
ENDSEC
0
EOF
