0
SECTION
2
HEADER
9
$INSUNITS
70
4
9
$ACADVER
1
AC1014
9
$HANDSEED
5
FFFF
0
ENDSEC
0
SECTION
2
TABLES
0
TABLE
2
VPORT
5
8
100
AcDbSymbolTable
0
ENDTAB
0
TABLE
2
LTYPE
5
5
100
AcDbSymbolTable
0
LTYPE
5
14
100
AcDbSymbolTableRecord
100
AcDbLinetypeTableRecord
2
BYBLOCK
70
0
0
LTYPE
5
15
100
AcDbSymbolTableRecord
100
AcDbLinetypeTableRecord
2
BYLAYER
70
0
0
LTYPE
5
16
100
AcDbSymbolTableRecord
100
AcDbLinetypeTableRecord
2
DASHED
70
0
3
Dashed __ __ __ __ __ __ __ __ __ __ __ __ __ _
72
65
73
2
40
0.75
49
0.5
74
0
49
-0.25
74
0
0
ENDTAB
0
TABLE
2
LAYER
5
2
100
AcDbSymbolTable
70
2
0
LAYER
5
50
100
AcDbSymbolTableRecord
100
AcDbLayerTableRecord
2
0
70
0
62
7
6
CONTINUOUS
0
ENDTAB
0
TABLE
2
STYLE
5
3
100
AcDbSymbolTable
70
1
0
STYLE
5
11
100
AcDbSymbolTableRecord
100
AcDbTextStyleTableRecord
2
STANDARD
70
0
0
ENDTAB
0
TABLE
2
VIEW
5
6
100
AcDbSymbolTable
70
0
0
ENDTAB
0
TABLE
2
UCS
5
7
100
AcDbSymbolTable
70
0
0
ENDTAB
0
TABLE
2
APPID
5
9
100
AcDbSymbolTable
70
2
0
APPID
5
12
100
AcDbSymbolTableRecord
100
AcDbRegAppTableRecord
2
ACAD
70
0
0
ENDTAB
0
TABLE
2
DIMSTYLE
5
A
100
AcDbSymbolTable
70
1
0
ENDTAB
0
TABLE
2
BLOCK_RECORD
5
1
100
AcDbSymbolTable
70
1
0
BLOCK_RECORD
5
1F
100
AcDbSymbolTableRecord
100
AcDbBlockTableRecord
2
*MODEL_SPACE
0
BLOCK_RECORD
5
1B
100
AcDbSymbolTableRecord
100
AcDbBlockTableRecord
2
*PAPER_SPACE
0
ENDTAB
0
ENDSEC
0
SECTION
2
BLOCKS
0
BLOCK
5
20
100
AcDbEntity
100
AcDbBlockBegin
2
*MODEL_SPACE
0
ENDBLK
5
21
100
AcDbEntity
100
AcDbBlockEnd
0
BLOCK
5
1C
100
AcDbEntity
100
AcDbBlockBegin
2
*PAPER_SPACE
0
ENDBLK
5
1D
100
AcDbEntity
100
AcDbBlockEnd
0
ENDSEC
0
SECTION
2
ENTITIES
0
LWPOLYLINE
5
100
100
AcDbEntity
8
0
100
AcDbPolyline
90
180
70
1
43
0.0
10
218.00000000000006
20
13.714285591670476
10
215.00000000000003
20
13.714285591670476
10
215.00000000000003
20
3.0000000000000004
10
226.02564102564105
20
3.0000000000000018
10
226.02564102564105
20
1.1102230246251565e-15
10
237.05128205128207
20
2.7755575615628914e-15
10
237.05128205128207
20
3.0000000000000027
10
248.07692307692309
20
3.0000000000000036
10
248.07692307692309
20
3.8857805861880479e-15
10
259.10256410256414
20
5.2735593669694936e-15
10
259.10256410256414
20
3.0000000000000049
10
270.12820512820514
20
3.0000000000000067
10
270.12820512820514
20
6.6613381477509392e-15
10
281.15384615384619
20
8.3266726846886741e-15
10
281.15384615384619
20
3.000000000000008
10
292.17948717948718
20
3.0000000000000093
10
292.17948717948718
20
9.9920072216264089e-15
10
303.20512820512829
20
1.1102230246251565e-14
10
303.20512820512829
20
3.0000000000000111
10
314.23076923076928
20
3.000000000000012
10
314.23076923076928
20
1.2212453270876722e-14
10
325.25641025641039
20
1.3600232051658168e-14
10
325.25641025641039
20
3.0000000000000138
10
336.28205128205138
20
3.0000000000000151
10
336.28205128205138
20
1.4988010832439613e-14
10
347.30769230769238
20
1.6375789613221059e-14
10
347.30769230769238
20
3.000000000000016
10
358.33333333333343
20
3.0000000000000178
10
358.33333333333343
20
1.7763568394002505e-14
10
369.35897435897448
20
1.8873791418627661e-14
10
369.35897435897448
20
3.0000000000000187
10
380.38461538461547
20
3.0000000000000204
10
380.38461538461547
20
1.9984014443252818e-14
10
391.41025641025647
20
2.1649348980190553e-14
10
391.41025641025647
20
3.0000000000000213
10
402.43589743589752
20
3.0000000000000226
10
402.43589743589752
20
2.3314683517128287e-14
10
413.46153846153857
20
2.4424906541753444e-14
10
413.46153846153857
20
3.0000000000000244
10
424.48717948717956
20
3.0000000000000258
10
424.48717948717956
20
2.55351295663786e-14
10
435.51282051282055
20
2.6922908347160046e-14
10
435.51282051282055
20
3.0000000000000271
10
446.5384615384616
20
3.0000000000000284
10
446.5384615384616
20
2.8310687127941492e-14
10
457.56410256410265
20
2.9698465908722937e-14
10
457.56410256410265
20
3.0000000000000293
10
468.58974358974365
20
3.0000000000000311
10
468.58974358974365
20
3.1086244689504383e-14
10
479.61538461538464
20
3.2474023470285829e-14
10
479.61538461538464
20
3.0000000000000329
10
490.64102564102569
20
3.0000000000000338
10
490.64102564102569
20
3.3861802251067274e-14
10
501.6666666666668
20
3.4972025275692431e-14
10
501.6666666666668
20
3.0000000000000346
10
512.69230769230785
20
3.000000000000036
10
512.69230769230785
20
3.6637359812630166e-14
10
523.71794871794884
20
3.8025138593411612e-14
10
523.71794871794884
20
3.0000000000000382
10
534.74358974358984
20
3.0000000000000391
10
534.74358974358984
20
3.9412917374193057e-14
10
545.76923076923094
20
4.0800696154974503e-14
10
545.76923076923094
20
3.0000000000000404
10
556.79487179487194
20
3.0000000000000417
10
556.79487179487194
20
4.2188474935755949e-14
10
567.82051282051293
20
4.3298697960381105e-14
10
567.82051282051293
20
3.0000000000000431
10
578.84615384615404
20
3.0000000000000449
10
578.84615384615404
20
4.4408920985006262e-14
10
589.87179487179503
20
4.6074255521943996e-14
10
589.87179487179503
20
3.0000000000000462
10
600.89743589743603
20
3.0000000000000471
10
600.89743589743603
20
4.7739590058881731e-14
10
611.92307692307713
20
4.8849813083506888e-14
10
611.92307692307713
20
3.0000000000000488
10
622.94871794871813
20
3.0000000000000497
10
622.94871794871813
20
4.9960036108132044e-14
10
633.97435897435912
20
5.134781488891349e-14
10
633.97435897435912
20
3.0000000000000515
10
645.00000000000011
20
3.0000000000000524
10
645.00000000000011
20
13.714285714285769
10
642.00000000000023
20
13.714285714285769
10
642.00000000000023
20
24.428571428571484
10
645.00000000000011
20
24.42857142857148
10
645.00000000000011
20
35.142857142857196
10
642.00000000000023
20
35.142857142857196
10
642.00000000000023
20
45.857142857142904
10
645.00000000000011
20
45.857142857142904
10
645.00000000000011
20
56.571428571428619
10
642.00000000000023
20
56.571428571428619
10
642.00000000000023
20
67.285714285714334
10
645.00000000000011
20
67.285714285714334
10
645.00000000000011
20
78.000000000000057
10
633.97435897435912
20
78.000000000000057
10
633.97435897435912
20
75.000000000000057
10
622.94871794871813
20
75.000000000000057
10
622.94871794871813
20
78.000000000000057
10
611.92307692307713
20
78.000000000000057
10
611.92307692307713
20
75.000000000000057
10
600.89743589743603
20
75.000000000000057
10
600.89743589743603
20
78.000000000000043
10
589.87179487179503
20
78.000000000000043
10
589.87179487179503
20
75.000000000000057
10
578.84615384615404
20
75.000000000000057
10
578.84615384615404
20
78.000000000000043
10
567.82051282051293
20
78.000000000000043
10
567.82051282051293
20
75.000000000000057
10
556.79487179487194
20
75.000000000000057
10
556.79487179487194
20
78.000000000000043
10
545.76923076923083
20
78.000000000000043
10
545.76923076923083
20
75.000000000000057
10
534.74358974358984
20
75.000000000000043
10
534.74358974358984
20
78.000000000000043
10
523.71794871794884
20
78.000000000000028
10
523.71794871794884
20
75.000000000000043
10
512.69230769230785
20
75.000000000000043
10
512.69230769230785
20
78.000000000000028
10
501.6666666666668
20
78.000000000000028
10
501.6666666666668
20
75.000000000000043
10
490.64102564102575
20
75.000000000000043
10
490.64102564102575
20
78.000000000000028
10
479.61538461538464
20
78.000000000000028
10
479.61538461538464
20
75.000000000000043
10
468.58974358974365
20
75.000000000000028
10
468.58974358974365
20
78.000000000000028
10
457.56410256410265
20
78.000000000000028
10
457.56410256410265
20
75.000000000000028
10
446.5384615384616
20
75.000000000000028
10
446.5384615384616
20
78.000000000000028
10
435.51282051282055
20
78.000000000000028
10
435.51282051282055
20
75.000000000000028
10
424.48717948717956
20
75.000000000000028
10
424.48717948717956
20
78.000000000000028
10
413.46153846153857
20
78.000000000000028
10
413.46153846153857
20
75.000000000000028
10
402.43589743589752
20
75.000000000000028
10
402.43589743589752
20
78.000000000000028
10
391.41025641025647
20
78.000000000000028
10
391.41025641025647
20
75.000000000000028
10
380.38461538461547
20
75.000000000000028
10
380.38461538461547
20
78.000000000000014
10
369.35897435897448
20
78.000000000000014
10
369.35897435897448
20
75.000000000000028
10
358.33333333333343
20
75.000000000000028
10
358.33333333333343
20
78.000000000000014
10
347.30769230769238
20
78.000000000000014
10
347.30769230769238
20
75.000000000000028
10
336.28205128205138
20
75.000000000000028
10
336.28205128205138
20
78.000000000000014
10
325.25641025641028
20
78.000000000000014
10
325.25641025641028
20
75.000000000000028
10
314.23076923076928
20
75.000000000000014
10
314.23076923076928
20
78
10
303.20512820512823
20
78
10
303.20512820512823
20
75.000000000000014
10
292.17948717948724
20
75.000000000000014
10
292.17948717948724
20
78
10
281.15384615384619
20
78
10
281.15384615384619
20
75.000000000000014
10
270.1282051282052
20
75.000000000000014
10
270.1282051282052
20
78
10
259.10256410256414
20
78
10
259.10256410256414
20
75.000000000000014
10
248.07692307692315
20
75.000000000000014
10
248.07692307692315
20
78
10
237.0512820512821
20
78
10
237.0512820512821
20
75.000000000000014
10
226.02564102564111
20
75.000000000000014
10
226.02564102564111
20
78
10
215.00000000000003
20
78
10
215.00000000000003
20
67.285714265278585
10
218.00000000000006
20
67.285714265278585
10
218.00000000000006
20
56.57142853055695
10
215.00000000000003
20
56.57142853055695
10
215.00000000000003
20
45.857142795835337
10
218.00000000000006
20
45.857142795835337
10
218.00000000000006
20
35.142857061113716
10
215.00000000000003
20
35.142857061113716
10
215.00000000000003
20
24.428571326392088
10
218.00000000000006
20
24.428571326392088
0
ENDSEC
0
SECTION
2
OBJECTS
0
DICTIONARY
5
C
100
AcDbDictionary
3
ACAD_GROUP
350
D
3
ACAD_MLINESTYLE
350
17
0
DICTIONARY
5
D
100
AcDbDictionary
0
DICTIONARY
5
1A
330
C
100
AcDbDictionary
0
DICTIONARY
5
17
100
AcDbDictionary
0
ENDSEC
0
EOF
