0
SECTION
2
HEADER
9
$INSUNITS
70
4
9
$ACADVER
1
AC1014
9
$HANDSEED
5
FFFF
0
ENDSEC
0
SECTION
2
TABLES
0
TABLE
2
VPORT
5
8
100
AcDbSymbolTable
0
ENDTAB
0
TABLE
2
LTYPE
5
5
100
AcDbSymbolTable
0
LTYPE
5
14
100
AcDbSymbolTableRecord
100
AcDbLinetypeTableRecord
2
BYBLOCK
70
0
0
LTYPE
5
15
100
AcDbSymbolTableRecord
100
AcDbLinetypeTableRecord
2
BYLAYER
70
0
0
LTYPE
5
16
100
AcDbSymbolTableRecord
100
AcDbLinetypeTableRecord
2
DASHED
70
0
3
Dashed __ __ __ __ __ __ __ __ __ __ __ __ __ _
72
65
73
2
40
0.75
49
0.5
74
0
49
-0.25
74
0
0
ENDTAB
0
TABLE
2
LAYER
5
2
100
AcDbSymbolTable
70
2
0
LAYER
5
50
100
AcDbSymbolTableRecord
100
AcDbLayerTableRecord
2
0
70
0
62
7
6
CONTINUOUS
0
ENDTAB
0
TABLE
2
STYLE
5
3
100
AcDbSymbolTable
70
1
0
STYLE
5
11
100
AcDbSymbolTableRecord
100
AcDbTextStyleTableRecord
2
STANDARD
70
0
0
ENDTAB
0
TABLE
2
VIEW
5
6
100
AcDbSymbolTable
70
0
0
ENDTAB
0
TABLE
2
UCS
5
7
100
AcDbSymbolTable
70
0
0
ENDTAB
0
TABLE
2
APPID
5
9
100
AcDbSymbolTable
70
2
0
APPID
5
12
100
AcDbSymbolTableRecord
100
AcDbRegAppTableRecord
2
ACAD
70
0
0
ENDTAB
0
TABLE
2
DIMSTYLE
5
A
100
AcDbSymbolTable
70
1
0
ENDTAB
0
TABLE
2
BLOCK_RECORD
5
1
100
AcDbSymbolTable
70
1
0
BLOCK_RECORD
5
1F
100
AcDbSymbolTableRecord
100
AcDbBlockTableRecord
2
*MODEL_SPACE
0
BLOCK_RECORD
5
1B
100
AcDbSymbolTableRecord
100
AcDbBlockTableRecord
2
*PAPER_SPACE
0
ENDTAB
0
ENDSEC
0
SECTION
2
BLOCKS
0
BLOCK
5
20
100
AcDbEntity
100
AcDbBlockBegin
2
*MODEL_SPACE
0
ENDBLK
5
21
100
AcDbEntity
100
AcDbBlockEnd
0
BLOCK
5
1C
100
AcDbEntity
100
AcDbBlockBegin
2
*PAPER_SPACE
0
ENDBLK
5
1D
100
AcDbEntity
100
AcDbBlockEnd
0
ENDSEC
0
SECTION
2
ENTITIES
0
LWPOLYLINE
5
100
100
AcDbEntity
8
0
100
AcDbPolyline
90
184
70
1
43
0.0
10
-194.86486486486484
20
60
10
-202.99999999999997
20
60
10
-202.99999999999997
20
53.333333333333329
10
-205.99999999999997
20
53.333333333333329
10
-205.99999999999997
20
46.666666666666657
10
-202.99999999999997
20
46.666666666666657
10
-202.99999999999997
20
39.999999999999993
10
-205.99999999999997
20
39.999999999999993
10
-205.99999999999997
20
33.333333333333336
10
-202.99999999999997
20
33.333333333333336
10
-202.99999999999997
20
26.666666666666664
10
-205.99999999999997
20
26.666666666666664
10
-205.99999999999997
20
19.999999999999996
10
-202.99999999999997
20
19.999999999999996
10
-202.99999999999997
20
13.333333333333332
10
-205.99999999999997
20
13.333333333333332
10
-205.99999999999997
20
6.6666666666666661
10
-202.99999999999997
20
6.6666666666666661
10
-202.99999999999997
20
0
10
-192.51282051282047
20
0
10
-192.51282051282047
20
3.0000000000000004
10
-182.02564102564099
20
3.0000000000000004
10
-182.02564102564097
20
0
10
-171.53846153846155
20
0
10
-171.53846153846155
20
3.0000000000000004
10
-161.05128205128204
20
3.0000000000000004
10
-161.05128205128204
20
0
10
-150.56410256410254
20
0
10
-150.56410256410254
20
3.0000000000000004
10
-140.07692307692307
20
3.0000000000000004
10
-140.07692307692309
20
0
10
-129.58974358974359
20
0
10
-129.58974358974356
20
3.0000000000000004
10
-119.10256410256409
20
3.0000000000000004
10
-119.10256410256409
20
0
10
-108.61538461538461
20
0
10
-108.61538461538461
20
3.0000000000000004
10
-98.12820512820511
20
3.0000000000000004
10
-98.12820512820511
20
0
10
-87.641025641025649
20
0
10
-87.641025641025649
20
3.0000000000000004
10
-77.153846153846146
20
3.0000000000000004
10
-77.153846153846146
20
0
10
-66.666666666666686
20
0
10
-66.666666666666686
20
3.0000000000000004
10
-56.179487179487175
20
3.0000000000000004
10
-56.179487179487175
20
0
10
-45.692307692307708
20
0
10
-45.692307692307708
20
3.0000000000000004
10
-35.205128205128204
20
3.0000000000000004
10
-35.205128205128204
20
0
10
-24.717948717948701
20
0
10
-24.717948717948701
20
3.0000000000000004
10
-14.230769230769198
20
3.0000000000000004
10
-14.230769230769198
20
0
10
-3.7435897435897658
20
0
10
-3.7435897435897658
20
3.0000000000000004
10
6.7435897435897374
20
3.0000000000000004
10
6.7435897435897374
20
0
10
17.230769230769241
20
0
10
17.230769230769241
20
3.0000000000000004
10
27.717948717948744
20
3.0000000000000004
10
27.717948717948744
20
0
10
38.205128205128176
20
0
10
38.205128205128176
20
3.0000000000000004
10
48.692307692307679
20
3.0000000000000004
10
48.692307692307679
20
0
10
59.179487179487182
20
0
10
59.179487179487182
20
3.0000000000000004
10
69.666666666666686
20
3.0000000000000004
10
69.666666666666686
20
0
10
80.153846153846118
20
0
10
80.153846153846118
20
3.0000000000000004
10
90.641025641025621
20
3.0000000000000004
10
90.641025641025621
20
0
10
101.12820512820512
20
0
10
101.12820512820512
20
3.0000000000000004
10
111.61538461538463
20
3.0000000000000004
10
111.61538461538463
20
0
10
122.10256410256406
20
0
10
122.10256410256406
20
3.0000000000000004
10
132.58974358974356
20
3.0000000000000004
10
132.58974358974356
20
0
10
143.07692307692307
20
0
10
143.07692307692307
20
3.0000000000000004
10
153.56410256410257
20
3.0000000000000004
10
153.56410256410257
20
0
10
164.05128205128207
20
0
10
164.05128205128207
20
3.0000000000000004
10
174.53846153846158
20
3.0000000000000004
10
174.53846153846158
20
0
10
185.02564102564099
20
0
10
185.02564102564099
20
3.0000000000000004
10
195.5128205128205
20
3.0000000000000004
10
195.5128205128205
20
0
10
205.99999999999997
20
0
10
205.99999999999997
20
6.6666666666666679
10
202.99999999999997
20
6.6666666666666679
10
202.99999999999997
20
13.333333333333332
10
205.99999999999997
20
13.333333333333332
10
205.99999999999997
20
20
10
202.99999999999997
20
20
10
202.99999999999997
20
26.666666666666671
10
205.99999999999997
20
26.666666666666671
10
205.99999999999997
20
33.333333333333329
10
202.99999999999997
20
33.333333333333329
10
202.99999999999997
20
40
10
205.99999999999997
20
40
10
205.99999999999997
20
46.666666666666671
10
202.99999999999997
20
46.666666666666671
10
202.99999999999997
20
53.333333333333329
10
205.99999999999997
20
53.333333333333329
10
205.99999999999997
20
60
10
194.86486486486487
20
60
10
194.86486486486487
20
63
10
183.72972972972971
20
63
10
183.72972972972971
20
60
10
172.59459459459461
20
60
10
172.59459459459461
20
63
10
161.45945945945942
20
63
10
161.45945945945942
20
60
10
150.32432432432432
20
60
10
150.32432432432432
20
63
10
139.18918918918916
20
63
10
139.18918918918916
20
60
10
128.05405405405406
20
60
10
128.05405405405406
20
63
10
116.91891891891888
20
63
10
116.91891891891888
20
60
10
105.78378378378378
20
60
10
105.78378378378378
20
63
10
94.648648648648617
20
63
10
94.648648648648617
20
60
10
83.513513513513516
20
60
10
83.513513513513516
20
63
10
72.378378378378329
20
63
10
72.378378378378329
20
60
10
61.243243243243235
20
60
10
61.243243243243235
20
63
10
50.108108108108098
20
63
10
50.108108108108098
20
60
10
38.972972972972997
20
60
10
38.972972972972997
20
63
10
27.837837837837824
20
63
10
27.837837837837824
20
60
10
16.702702702702723
20
60
10
16.702702702702723
20
63
10
5.5675675675675507
20
63
10
5.5675675675675507
20
60
10
-5.5675675675675507
20
60
10
-5.5675675675675507
20
63
10
-16.702702702702723
20
63
10
-16.702702702702723
20
60
10
-27.837837837837824
20
60
10
-27.837837837837824
20
63
10
-38.972972972972997
20
63
10
-38.972972972972997
20
60
10
-50.108108108108112
20
60
10
-50.108108108108112
20
63
10
-61.243243243243235
20
63
10
-61.243243243243235
20
60
10
-72.378378378378372
20
60
10
-72.378378378378372
20
63
10
-83.513513513513487
20
63
10
-83.513513513513487
20
60
10
-94.648648648648631
20
60
10
-94.648648648648631
20
63
10
-105.78378378378376
20
63
10
-105.78378378378376
20
60
10
-116.91891891891891
20
60
10
-116.91891891891891
20
63
10
-128.05405405405403
20
63
10
-128.05405405405403
20
60
10
-139.18918918918916
20
60
10
-139.18918918918916
20
63
10
-150.32432432432429
20
63
10
-150.32432432432429
20
60
10
-161.45945945945942
20
60
10
-161.45945945945942
20
63
10
-172.59459459459458
20
63
10
-172.59459459459458
20
60
10
-183.72972972972971
20
60
10
-183.72972972972971
20
63
10
-194.86486486486484
20
63
0
ENDSEC
0
SECTION
2
OBJECTS
0
DICTIONARY
5
C
100
AcDbDictionary
3
ACAD_GROUP
350
D
3
ACAD_MLINESTYLE
350
17
0
DICTIONARY
5
D
100
AcDbDictionary
0
DICTIONARY
5
1A
330
C
100
AcDbDictionary
0
DICTIONARY
5
17
100
AcDbDictionary
0
ENDSEC
0
EOF
