0
SECTION
2
HEADER
9
$INSUNITS
70
4
9
$ACADVER
1
AC1014
9
$HANDSEED
5
FFFF
0
ENDSEC
0
SECTION
2
TABLES
0
TABLE
2
VPORT
5
8
100
AcDbSymbolTable
0
ENDTAB
0
TABLE
2
LTYPE
5
5
100
AcDbSymbolTable
0
LTYPE
5
14
100
AcDbSymbolTableRecord
100
AcDbLinetypeTableRecord
2
BYBLOCK
70
0
0
LTYPE
5
15
100
AcDbSymbolTableRecord
100
AcDbLinetypeTableRecord
2
BYLAYER
70
0
0
LTYPE
5
16
100
AcDbSymbolTableRecord
100
AcDbLinetypeTableRecord
2
DASHED
70
0
3
Dashed __ __ __ __ __ __ __ __ __ __ __ __ __ _
72
65
73
2
40
0.75
49
0.5
74
0
49
-0.25
74
0
0
ENDTAB
0
TABLE
2
LAYER
5
2
100
AcDbSymbolTable
70
2
0
LAYER
5
50
100
AcDbSymbolTableRecord
100
AcDbLayerTableRecord
2
0
70
0
62
7
6
CONTINUOUS
0
ENDTAB
0
TABLE
2
STYLE
5
3
100
AcDbSymbolTable
70
1
0
STYLE
5
11
100
AcDbSymbolTableRecord
100
AcDbTextStyleTableRecord
2
STANDARD
70
0
0
ENDTAB
0
TABLE
2
VIEW
5
6
100
AcDbSymbolTable
70
0
0
ENDTAB
0
TABLE
2
UCS
5
7
100
AcDbSymbolTable
70
0
0
ENDTAB
0
TABLE
2
APPID
5
9
100
AcDbSymbolTable
70
2
0
APPID
5
12
100
AcDbSymbolTableRecord
100
AcDbRegAppTableRecord
2
ACAD
70
0
0
ENDTAB
0
TABLE
2
DIMSTYLE
5
A
100
AcDbSymbolTable
70
1
0
ENDTAB
0
TABLE
2
BLOCK_RECORD
5
1
100
AcDbSymbolTable
70
1
0
BLOCK_RECORD
5
1F
100
AcDbSymbolTableRecord
100
AcDbBlockTableRecord
2
*MODEL_SPACE
0
BLOCK_RECORD
5
1B
100
AcDbSymbolTableRecord
100
AcDbBlockTableRecord
2
*PAPER_SPACE
0
ENDTAB
0
ENDSEC
0
SECTION
2
BLOCKS
0
BLOCK
5
20
100
AcDbEntity
100
AcDbBlockBegin
2
*MODEL_SPACE
0
ENDBLK
5
21
100
AcDbEntity
100
AcDbBlockEnd
0
BLOCK
5
1C
100
AcDbEntity
100
AcDbBlockBegin
2
*PAPER_SPACE
0
ENDBLK
5
1D
100
AcDbEntity
100
AcDbBlockEnd
0
ENDSEC
0
SECTION
2
ENTITIES
0
LWPOLYLINE
5
100
100
AcDbEntity
8
0
100
AcDbPolyline
90
104
70
1
43
0.0
10
-22.058823529411775
20
60
10
-22.058823529411775
20
63
10
-35.117647058823529
20
63
10
-35.117647058823529
20
60
10
-48.176470588235304
20
60
10
-48.176470588235304
20
63
10
-61.235294117647058
20
63
10
-61.235294117647058
20
60
10
-74.29411764705884
20
60
10
-74.29411764705884
20
63
10
-87.352941176470594
20
63
10
-87.352941176470594
20
60
10
-100.41176470588235
20
60
10
-100.41176470588235
20
63
10
-113.47058823529412
20
63
10
-113.47058823529412
20
60
10
-126.52941176470588
20
60
10
-126.52941176470588
20
63
10
-139.58823529411765
20
63
10
-139.58823529411765
20
60
10
-152.64705882352939
20
60
10
-152.64705882352939
20
63
10
-165.70588235294116
20
63
10
-165.70588235294116
20
60
10
-178.76470588235293
20
60
10
-178.76470588235293
20
63
10
-191.8235294117647
20
63
10
-191.8235294117647
20
60
10
-204.88235294117644
20
60
10
-204.88235294117644
20
63
10
-217.94117647058823
20
63
10
-217.94117647058823
20
60
10
-230.99999999999997
20
60
10
-230.99999999999997
20
53.333333333333329
10
-227.99999999999997
20
53.333333333333329
10
-227.99999999999997
20
46.666666666666671
10
-230.99999999999997
20
46.666666666666671
10
-230.99999999999997
20
40
10
-227.99999999999997
20
40
10
-227.99999999999997
20
33.333333333333329
10
-230.99999999999997
20
33.333333333333329
10
-230.99999999999997
20
26.666666666666671
10
-227.99999999999997
20
26.666666666666671
10
-227.99999999999997
20
20
10
-230.99999999999997
20
20
10
-230.99999999999997
20
13.333333333333332
10
-227.99999999999997
20
13.333333333333332
10
-227.99999999999997
20
6.6666666666666679
10
-230.99999999999997
20
6.6666666666666679
10
-230.99999999999997
20
3.0000000000000004
10
-219.31578947368419
20
3.0000000000000004
10
-219.31578947368419
20
0
10
-207.63157894736838
20
0
10
-207.63157894736838
20
3.0000000000000004
10
-195.94736842105263
20
3.0000000000000004
10
-195.94736842105263
20
0
10
-184.26315789473682
20
0
10
-184.26315789473682
20
3.0000000000000004
10
-172.57894736842104
20
3.0000000000000004
10
-172.57894736842104
20
0
10
-160.89473684210526
20
0
10
-160.89473684210526
20
3.0000000000000004
10
-149.21052631578945
20
3.0000000000000004
10
-149.21052631578945
20
0
10
-137.52631578947367
20
0
10
-137.52631578947367
20
3.0000000000000004
10
-125.84210526315788
20
3.0000000000000004
10
-125.84210526315788
20
0
10
-114.15789473684211
20
0
10
-114.15789473684211
20
3.0000000000000004
10
-102.4736842105263
20
3.0000000000000004
10
-102.4736842105263
20
0
10
-90.78947368421052
20
0
10
-90.78947368421052
20
3.0000000000000004
10
-79.105263157894711
20
3.0000000000000004
10
-79.105263157894711
20
0
10
-67.421052631578959
20
0
10
-67.421052631578959
20
3.0000000000000004
10
-55.736842105263165
20
3.0000000000000004
10
-55.736842105263165
20
0
10
-44.05263157894737
20
0
10
-44.05263157894737
20
3.0000000000000004
10
-32.368421052631575
20
3.0000000000000004
10
-32.368421052631575
20
0
10
-20.68421052631578
20
0
10
-20.68421052631578
20
3.0000000000000004
10
-8.9999999999999858
20
3.0000000000000004
10
-9.0000000000000018
20
6.6666666666666679
10
-11.999999999999993
20
6.6666666666666679
10
-11.999999999999993
20
13.333333333333332
10
-9.0000000000000018
20
13.333333333333332
10
-9.0000000000000018
20
20
10
-11.999999999999993
20
20
10
-11.999999999999993
20
26.666666666666671
10
-9.0000000000000018
20
26.666666666666671
10
-9.0000000000000018
20
33.333333333333329
10
-11.999999999999993
20
33.333333333333329
10
-11.999999999999993
20
40
10
-9.0000000000000018
20
40
10
-9.0000000000000018
20
46.666666666666671
10
-11.999999999999993
20
46.666666666666671
10
-11.999999999999993
20
53.333333333333329
10
-9.0000000000000018
20
53.333333333333329
10
-9.0000000000000018
20
60
0
ENDSEC
0
SECTION
2
OBJECTS
0
DICTIONARY
5
C
100
AcDbDictionary
3
ACAD_GROUP
350
D
3
ACAD_MLINESTYLE
350
17
0
DICTIONARY
5
D
100
AcDbDictionary
0
DICTIONARY
5
1A
330
C
100
AcDbDictionary
0
DICTIONARY
5
17
100
AcDbDictionary
0
ENDSEC
0
EOF
