0
SECTION
2
HEADER
9
$INSUNITS
70
4
9
$ACADVER
1
AC1014
9
$HANDSEED
5
FFFF
0
ENDSEC
0
SECTION
2
TABLES
0
TABLE
2
VPORT
5
8
100
AcDbSymbolTable
0
ENDTAB
0
TABLE
2
LTYPE
5
5
100
AcDbSymbolTable
0
LTYPE
5
14
100
AcDbSymbolTableRecord
100
AcDbLinetypeTableRecord
2
BYBLOCK
70
0
0
LTYPE
5
15
100
AcDbSymbolTableRecord
100
AcDbLinetypeTableRecord
2
BYLAYER
70
0
0
LTYPE
5
16
100
AcDbSymbolTableRecord
100
AcDbLinetypeTableRecord
2
DASHED
70
0
3
Dashed __ __ __ __ __ __ __ __ __ __ __ __ __ _
72
65
73
2
40
0.75
49
0.5
74
0
49
-0.25
74
0
0
ENDTAB
0
TABLE
2
LAYER
5
2
100
AcDbSymbolTable
70
2
0
LAYER
5
50
100
AcDbSymbolTableRecord
100
AcDbLayerTableRecord
2
0
70
0
62
7
6
CONTINUOUS
0
ENDTAB
0
TABLE
2
STYLE
5
3
100
AcDbSymbolTable
70
1
0
STYLE
5
11
100
AcDbSymbolTableRecord
100
AcDbTextStyleTableRecord
2
STANDARD
70
0
0
ENDTAB
0
TABLE
2
VIEW
5
6
100
AcDbSymbolTable
70
0
0
ENDTAB
0
TABLE
2
UCS
5
7
100
AcDbSymbolTable
70
0
0
ENDTAB
0
TABLE
2
APPID
5
9
100
AcDbSymbolTable
70
2
0
APPID
5
12
100
AcDbSymbolTableRecord
100
AcDbRegAppTableRecord
2
ACAD
70
0
0
ENDTAB
0
TABLE
2
DIMSTYLE
5
A
100
AcDbSymbolTable
70
1
0
ENDTAB
0
TABLE
2
BLOCK_RECORD
5
1
100
AcDbSymbolTable
70
1
0
BLOCK_RECORD
5
1F
100
AcDbSymbolTableRecord
100
AcDbBlockTableRecord
2
*MODEL_SPACE
0
BLOCK_RECORD
5
1B
100
AcDbSymbolTableRecord
100
AcDbBlockTableRecord
2
*PAPER_SPACE
0
ENDTAB
0
ENDSEC
0
SECTION
2
BLOCKS
0
BLOCK
5
20
100
AcDbEntity
100
AcDbBlockBegin
2
*MODEL_SPACE
0
ENDBLK
5
21
100
AcDbEntity
100
AcDbBlockEnd
0
BLOCK
5
1C
100
AcDbEntity
100
AcDbBlockBegin
2
*PAPER_SPACE
0
ENDBLK
5
1D
100
AcDbEntity
100
AcDbBlockEnd
0
ENDSEC
0
SECTION
2
ENTITIES
0
LWPOLYLINE
5
100
100
AcDbEntity
8
0
100
AcDbPolyline
90
108
70
1
43
0.0
10
-12.631578947368425
20
60
10
-12.631578947368425
20
63
10
-25.26315789473685
20
63
10
-25.26315789473685
20
60
10
-37.894736842105274
20
60
10
-37.894736842105274
20
63
10
-50.526315789473699
20
63
10
-50.526315789473699
20
60
10
-63.157894736842124
20
60
10
-63.157894736842124
20
63
10
-75.78947368421052
20
63
10
-75.78947368421052
20
60
10
-88.421052631578931
20
60
10
-88.421052631578931
20
63
10
-101.05263157894737
20
63
10
-101.05263157894737
20
60
10
-113.68421052631578
20
60
10
-113.68421052631578
20
63
10
-126.31578947368422
20
63
10
-126.31578947368422
20
60
10
-138.94736842105263
20
60
10
-138.94736842105263
20
63
10
-151.57894736842104
20
63
10
-151.57894736842104
20
60
10
-164.21052631578945
20
60
10
-164.21052631578945
20
63
10
-176.84210526315786
20
63
10
-176.84210526315786
20
60
10
-189.4736842105263
20
60
10
-189.4736842105263
20
63
10
-202.10526315789474
20
63
10
-202.10526315789474
20
60
10
-214.73684210526315
20
60
10
-214.73684210526315
20
63
10
-227.36842105263156
20
63
10
-227.36842105263156
20
60
10
-240
20
60
10
-240
20
53.333333333333186
10
-237.00000000000003
20
53.333333333333186
10
-237.00000000000003
20
46.666666666666529
10
-240
20
46.666666666666529
10
-240
20
39.999999999999858
10
-237.00000000000003
20
39.999999999999858
10
-237.00000000000003
20
33.333333333333186
10
-240
20
33.333333333333186
10
-240
20
26.666666666666529
10
-237.00000000000003
20
26.666666666666529
10
-237.00000000000003
20
19.999999999999858
10
-240
20
19.999999999999858
10
-240
20
13.33333333333319
10
-237.00000000000003
20
13.33333333333319
10
-237.00000000000003
20
6.6666666666665257
10
-240
20
6.6666666666665257
10
-240
20
0
10
-227.36842105263156
20
0
10
-227.36842105263156
20
3.0000000000000004
10
-214.73684210526315
20
3.0000000000000004
10
-214.73684210526315
20
0
10
-202.10526315789474
20
0
10
-202.10526315789474
20
3.0000000000000004
10
-189.4736842105263
20
3.0000000000000004
10
-189.4736842105263
20
0
10
-176.84210526315786
20
0
10
-176.84210526315786
20
3.0000000000000004
10
-164.21052631578945
20
3.0000000000000004
10
-164.21052631578945
20
0
10
-151.57894736842107
20
0
10
-151.57894736842107
20
3.0000000000000004
10
-138.94736842105263
20
3.0000000000000004
10
-138.94736842105263
20
0
10
-126.31578947368422
20
0
10
-126.31578947368422
20
3.0000000000000004
10
-113.68421052631578
20
3.0000000000000004
10
-113.68421052631578
20
0
10
-101.05263157894737
20
0
10
-101.05263157894737
20
3.0000000000000004
10
-88.421052631578931
20
3.0000000000000004
10
-88.421052631578931
20
0
10
-75.789473684210549
20
0
10
-75.789473684210549
20
3.0000000000000004
10
-63.157894736842124
20
3.0000000000000004
10
-63.157894736842124
20
0
10
-50.526315789473699
20
0
10
-50.526315789473699
20
3.0000000000000004
10
-37.894736842105274
20
3.0000000000000004
10
-37.894736842105274
20
0
10
-25.26315789473685
20
0
10
-25.26315789473685
20
3.0000000000000004
10
-12.631578947368425
20
3.0000000000000004
10
-12.631578947368425
20
0
10
0
20
0
10
0
20
6.6666666666666679
10
-3.0000000000000071
20
6.6666666666666679
10
-3.0000000000000071
20
13.333333333333332
10
0
20
13.333333333333332
10
0
20
20
10
-3.0000000000000071
20
20
10
-3.0000000000000071
20
26.666666666666671
10
0
20
26.666666666666671
10
0
20
33.333333333333329
10
-3.0000000000000071
20
33.333333333333329
10
-3.0000000000000071
20
40
10
0
20
40
10
0
20
46.666666666666671
10
-3.0000000000000071
20
46.666666666666671
10
-3.0000000000000071
20
53.333333333333329
10
0
20
53.333333333333329
10
2.4651903288156619e-30
20
60
0
ENDSEC
0
SECTION
2
OBJECTS
0
DICTIONARY
5
C
100
AcDbDictionary
3
ACAD_GROUP
350
D
3
ACAD_MLINESTYLE
350
17
0
DICTIONARY
5
D
100
AcDbDictionary
0
DICTIONARY
5
1A
330
C
100
AcDbDictionary
0
DICTIONARY
5
17
100
AcDbDictionary
0
ENDSEC
0
EOF
