0
SECTION
2
HEADER
9
$INSUNITS
70
4
9
$ACADVER
1
AC1014
9
$HANDSEED
5
FFFF
0
ENDSEC
0
SECTION
2
TABLES
0
TABLE
2
VPORT
5
8
100
AcDbSymbolTable
0
ENDTAB
0
TABLE
2
LTYPE
5
5
100
AcDbSymbolTable
0
LTYPE
5
14
100
AcDbSymbolTableRecord
100
AcDbLinetypeTableRecord
2
BYBLOCK
70
0
0
LTYPE
5
15
100
AcDbSymbolTableRecord
100
AcDbLinetypeTableRecord
2
BYLAYER
70
0
0
LTYPE
5
16
100
AcDbSymbolTableRecord
100
AcDbLinetypeTableRecord
2
DASHED
70
0
3
Dashed __ __ __ __ __ __ __ __ __ __ __ __ __ _
72
65
73
2
40
0.75
49
0.5
74
0
49
-0.25
74
0
0
ENDTAB
0
TABLE
2
LAYER
5
2
100
AcDbSymbolTable
70
2
0
LAYER
5
50
100
AcDbSymbolTableRecord
100
AcDbLayerTableRecord
2
0
70
0
62
7
6
CONTINUOUS
0
ENDTAB
0
TABLE
2
STYLE
5
3
100
AcDbSymbolTable
70
1
0
STYLE
5
11
100
AcDbSymbolTableRecord
100
AcDbTextStyleTableRecord
2
STANDARD
70
0
0
ENDTAB
0
TABLE
2
VIEW
5
6
100
AcDbSymbolTable
70
0
0
ENDTAB
0
TABLE
2
UCS
5
7
100
AcDbSymbolTable
70
0
0
ENDTAB
0
TABLE
2
APPID
5
9
100
AcDbSymbolTable
70
2
0
APPID
5
12
100
AcDbSymbolTableRecord
100
AcDbRegAppTableRecord
2
ACAD
70
0
0
ENDTAB
0
TABLE
2
DIMSTYLE
5
A
100
AcDbSymbolTable
70
1
0
ENDTAB
0
TABLE
2
BLOCK_RECORD
5
1
100
AcDbSymbolTable
70
1
0
BLOCK_RECORD
5
1F
100
AcDbSymbolTableRecord
100
AcDbBlockTableRecord
2
*MODEL_SPACE
0
BLOCK_RECORD
5
1B
100
AcDbSymbolTableRecord
100
AcDbBlockTableRecord
2
*PAPER_SPACE
0
ENDTAB
0
ENDSEC
0
SECTION
2
BLOCKS
0
BLOCK
5
20
100
AcDbEntity
100
AcDbBlockBegin
2
*MODEL_SPACE
0
ENDBLK
5
21
100
AcDbEntity
100
AcDbBlockEnd
0
BLOCK
5
1C
100
AcDbEntity
100
AcDbBlockBegin
2
*PAPER_SPACE
0
ENDBLK
5
1D
100
AcDbEntity
100
AcDbBlockEnd
0
ENDSEC
0
SECTION
2
ENTITIES
0
LWPOLYLINE
5
100
100
AcDbEntity
8
0
100
AcDbPolyline
90
104
70
1
43
0.0
10
217.94117647847708
20
60
10
217.94117647847708
20
63
10
204.88235295695415
20
63
10
204.88235295695415
20
60
10
191.82352943543123
20
60
10
191.82352943543123
20
63
10
178.76470591390836
20
63
10
178.76470591390836
20
60
10
165.70588239238538
20
60
10
165.70588239238538
20
63
10
152.64705887086251
20
63
10
152.64705887086251
20
60
10
139.58823534933958
20
60
10
139.58823534933958
20
63
10
126.52941182781667
20
63
10
126.52941182781667
20
60
10
113.47058830629376
20
60
10
113.47058830629376
20
63
10
100.41176478477084
20
63
10
100.41176478477084
20
60
10
87.352941263247914
20
60
10
87.352941263247914
20
63
10
74.294117741725017
20
63
10
74.294117741725017
20
60
10
61.235294220202121
20
60
10
61.235294220202121
20
63
10
48.176470698679204
20
63
10
48.176470698679204
20
60
10
35.117647177156321
20
60
10
35.117647177156321
20
63
10
22.058823655633368
20
63
10
22.058823655633368
20
60
10
12.000000000000002
20
60
10
12.000000000000002
20
53.333333333333329
10
9.0000000000000018
20
53.333333333333329
10
9.0000000000000018
20
46.666666666666657
10
12.000000000000002
20
46.666666666666657
10
12.000000000000002
20
39.999999999999993
10
9.0000000000000018
20
39.999999999999993
10
9.0000000000000018
20
33.333333333333336
10
12.000000000000002
20
33.333333333333336
10
12.000000000000002
20
26.666666666666664
10
9.0000000000000018
20
26.666666666666664
10
9.0000000000000018
20
19.999999999999996
10
12.000000000000002
20
19.999999999999996
10
12.000000000000002
20
13.333333333333332
10
9.0000000000000018
20
13.333333333333332
10
9.0000000000000018
20
6.6666666666666661
10
12.000000000000002
20
6.6666666666666661
10
12.000000000000002
20
0
10
23.526315789473671
20
0
10
23.526315789473671
20
3.0000000000000004
10
35.052631578947363
20
3.0000000000000004
10
35.052631578947349
20
0
10
46.578947368421026
20
0
10
46.578947368421041
20
3.0000000000000004
10
58.105263157894726
20
3.0000000000000004
10
58.105263157894704
20
0
10
69.631578947368411
20
0
10
69.631578947368411
20
3.0000000000000004
10
81.157894736842096
20
3.0000000000000004
10
81.157894736842096
20
0
10
92.68421052631578
20
0
10
92.68421052631578
20
3.0000000000000004
10
104.21052631578945
20
3.0000000000000004
10
104.21052631578945
20
0
10
115.73684210526315
20
0
10
115.73684210526315
20
3.0000000000000004
10
127.26315789473682
20
3.0000000000000004
10
127.26315789473682
20
0
10
138.78947368421052
20
0
10
138.78947368421052
20
3.0000000000000004
10
150.31578947368419
20
3.0000000000000004
10
150.31578947368419
20
0
10
161.84210526315786
20
0
10
161.84210526315786
20
3.0000000000000004
10
173.36842105263156
20
3.0000000000000004
10
173.36842105263156
20
0
10
184.89473684210526
20
0
10
184.89473684210526
20
3.0000000000000004
10
196.42105263157899
20
3.0000000000000004
10
196.42105263157899
20
0
10
207.94736842105263
20
0
10
207.94736842105263
20
3.0000000000000004
10
219.47368421052633
20
3.0000000000000004
10
219.47368421052633
20
0
10
230.99999999999997
20
0
10
230.99999999999997
20
6.6666666666666679
10
227.99999999999997
20
6.6666666666666679
10
227.99999999999997
20
13.333333333333332
10
230.99999999999997
20
13.333333333333332
10
230.99999999999997
20
20
10
227.99999999999997
20
20
10
227.99999999999997
20
26.666666666666671
10
230.99999999999997
20
26.666666666666671
10
230.99999999999997
20
33.333333333333329
10
227.99999999999997
20
33.333333333333329
10
227.99999999999997
20
40
10
230.99999999999997
20
40
10
230.99999999999997
20
46.666666666666671
10
227.99999999999997
20
46.666666666666671
10
227.99999999999997
20
53.333333333333329
10
230.99999999999997
20
53.333333333333329
10
230.99999999999997
20
60
0
ENDSEC
0
SECTION
2
OBJECTS
0
DICTIONARY
5
C
100
AcDbDictionary
3
ACAD_GROUP
350
D
3
ACAD_MLINESTYLE
350
17
0
DICTIONARY
5
D
100
AcDbDictionary
0
DICTIONARY
5
1A
330
C
100
AcDbDictionary
0
DICTIONARY
5
17
100
AcDbDictionary
0
ENDSEC
0
EOF
