%TF.GenerationSoftware,KiCad,Pcbnew,9.0.7*%
%TF.CreationDate,2026-04-10T20:37:10-04:00*%
%TF.ProjectId,capybara_rocket,63617079-6261-4726-915f-726f636b6574,A*%
%TF.SameCoordinates,Original*%
%TF.FileFunction,Copper,L3,Inr*%
%TF.FilePolarity,Positive*%
%FSLAX46Y46*%
G04 Gerber Fmt 4.6, Leading zero omitted, Abs format (unit mm)*
G04 Created by KiCad (PCBNEW 9.0.7) date 2026-04-10 20:37:10*
%MOMM*%
%LPD*%
G01*
G04 APERTURE LIST*
G04 Aperture macros list*
%AMRoundRect*
0 Rectangle with rounded corners*
0 $1 Rounding radius*
0 $2 $3 $4 $5 $6 $7 $8 $9 X,Y pos of 4 corners*
0 Add a 4 corners polygon primitive as box body*
4,1,4,$2,$3,$4,$5,$6,$7,$8,$9,$2,$3,0*
0 Add four circle primitives for the rounded corners*
1,1,$1+$1,$2,$3*
1,1,$1+$1,$4,$5*
1,1,$1+$1,$6,$7*
1,1,$1+$1,$8,$9*
0 Add four rect primitives between the rounded corners*
20,1,$1+$1,$2,$3,$4,$5,0*
20,1,$1+$1,$4,$5,$6,$7,0*
20,1,$1+$1,$6,$7,$8,$9,0*
20,1,$1+$1,$8,$9,$2,$3,0*%
G04 Aperture macros list end*
%TA.AperFunction,ComponentPad*%
%ADD10C,1.700000*%
%TD*%
%TA.AperFunction,ComponentPad*%
%ADD11R,1.300000X1.300000*%
%TD*%
%TA.AperFunction,ComponentPad*%
%ADD12C,1.300000*%
%TD*%
%TA.AperFunction,ComponentPad*%
%ADD13R,2.000000X2.000000*%
%TD*%
%TA.AperFunction,ComponentPad*%
%ADD14RoundRect,0.250000X-0.550000X0.550000X-0.550000X-0.550000X0.550000X-0.550000X0.550000X0.550000X0*%
%TD*%
%TA.AperFunction,ComponentPad*%
%ADD15C,1.600000*%
%TD*%
%TA.AperFunction,ComponentPad*%
%ADD16C,1.778000*%
%TD*%
%TA.AperFunction,ComponentPad*%
%ADD17C,2.000000*%
%TD*%
%TA.AperFunction,ComponentPad*%
%ADD18C,1.800000*%
%TD*%
%TA.AperFunction,ComponentPad*%
%ADD19C,0.910000*%
%TD*%
%TA.AperFunction,ViaPad*%
%ADD20C,0.600000*%
%TD*%
%TA.AperFunction,Conductor*%
%ADD21C,0.200000*%
%TD*%
G04 APERTURE END LIST*
D10*
%TO.N,GND*%
%TO.C,J11*%
X86240000Y-113970000D03*
%TO.N,3.3V*%
X88780000Y-113970000D03*
%TO.N,SDA*%
X91320000Y-113970000D03*
%TO.N,SCL*%
X93860000Y-113970000D03*
%TD*%
D11*
%TO.N,GND*%
%TO.C,J4*%
X178400000Y-79400000D03*
D12*
%TO.N,1.2V B*%
X178400000Y-81400000D03*
%TD*%
D13*
%TO.N,1.2V B*%
%TO.C,TP1*%
X228200000Y-113500000D03*
%TD*%
D11*
%TO.N,GND*%
%TO.C,J6*%
X85600000Y-121800000D03*
D12*
%TO.N,NC_REL*%
X83600000Y-121800000D03*
%TO.N,5.5V*%
X81600000Y-121800000D03*
%TD*%
D11*
%TO.N,GND*%
%TO.C,J8*%
X133000000Y-127600000D03*
D12*
%TO.N,SDA*%
X131000000Y-127600000D03*
%TO.N,SCL*%
X129000000Y-127600000D03*
%TO.N,3.3V*%
X127000000Y-127600000D03*
%TD*%
D14*
%TO.N,CS*%
%TO.C,U4*%
X105400000Y-75590000D03*
D15*
%TO.N,MISO*%
X102860000Y-75590000D03*
%TO.N,GND*%
X100320000Y-75590000D03*
X97780000Y-75590000D03*
%TO.N,MOSI*%
X97780000Y-83210000D03*
%TO.N,SCLK*%
X100320000Y-83210000D03*
%TO.N,3.3V*%
X102860000Y-83210000D03*
X105400000Y-83210000D03*
%TD*%
%TO.N,Net-(U5-FB)*%
%TO.C,R11*%
X200000000Y-86000000D03*
%TO.N,3.3V*%
X200000000Y-93620000D03*
%TD*%
D13*
%TO.N,5.5V*%
%TO.C,TP5*%
X228200000Y-89500000D03*
%TD*%
D11*
%TO.N,GND*%
%TO.C,J1*%
X178400000Y-126200000D03*
D12*
%TO.N,3.6V B*%
X178400000Y-128200000D03*
%TD*%
D11*
%TO.N,GND*%
%TO.C,J14*%
X115800000Y-72400000D03*
D12*
%TO.N,G_CAM_IN*%
X117800000Y-72400000D03*
%TO.N,G_CAM_OUT*%
X119800000Y-72400000D03*
%TO.N,5.5V*%
X121800000Y-72400000D03*
%TD*%
D15*
%TO.N,Net-(U6-FB)*%
%TO.C,R12*%
X217200000Y-109535000D03*
%TO.N,3.3V MCU*%
X217200000Y-101915000D03*
%TD*%
D16*
%TO.N,3.3V*%
%TO.C,U2*%
X116600000Y-99540000D03*
%TO.N,unconnected-(U2-3VO-PadJP1_2)*%
X119140000Y-99540000D03*
%TO.N,GND*%
X121680000Y-99540000D03*
%TO.N,SCL*%
X124220000Y-99540000D03*
%TO.N,SDA*%
X126760000Y-99540000D03*
%TO.N,unconnected-(U2-~{INT}-PadJP1_6)*%
X129300000Y-99540000D03*
%TO.N,unconnected-(U2-BT-PadJP2_1)*%
X116600000Y-81760000D03*
%TO.N,unconnected-(U2-P0-PadJP2_2)*%
X119140000Y-81760000D03*
%TO.N,unconnected-(U2-P1-PadJP2_3)*%
X121680000Y-81760000D03*
%TO.N,unconnected-(U2-~{RST}-PadJP2_4)*%
X124220000Y-81760000D03*
%TO.N,unconnected-(U2-DI-PadJP2_5)*%
X126760000Y-81760000D03*
%TO.N,unconnected-(U2-CS-PadJP2_6)*%
X129300000Y-81760000D03*
%TD*%
D13*
%TO.N,3.6V+*%
%TO.C,TP7*%
X228200000Y-104500000D03*
%TD*%
D14*
%TO.N,X1*%
%TO.C,U1*%
X134010000Y-69395000D03*
D15*
%TO.N,X2*%
X131470000Y-69395000D03*
%TO.N,Net-(U1-VBAT)*%
X128930000Y-69395000D03*
%TO.N,GND*%
X126390000Y-69395000D03*
%TO.N,SDA*%
X126390000Y-77015000D03*
%TO.N,SCL*%
X128930000Y-77015000D03*
%TO.N,unconnected-(U1-SQW{slash}OUT-Pad7)*%
X131470000Y-77015000D03*
%TO.N,5.5V*%
X134010000Y-77015000D03*
%TD*%
D14*
%TO.N,GND*%
%TO.C,U3*%
X105400000Y-116800000D03*
D15*
%TO.N,Net-(U3-THRES)*%
X102860000Y-116800000D03*
%TO.N,Net-(BZ1-+)*%
X100320000Y-116800000D03*
%TO.N,3.3V BZ*%
X97780000Y-116800000D03*
%TO.N,Net-(U3-CONT)*%
X97780000Y-124420000D03*
%TO.N,Net-(U3-THRES)*%
X100320000Y-124420000D03*
%TO.N,unconnected-(U3-DISCH-Pad7)*%
X102860000Y-124420000D03*
%TO.N,3.3V BZ*%
X105400000Y-124420000D03*
%TD*%
D10*
%TO.N,GND*%
%TO.C,U17*%
X186800000Y-106350000D03*
%TO.N,unconnected-(U17-DTR-PadJP5_2)*%
X184260000Y-106350000D03*
%TO.N,unconnected-(U17-RES1-PadJP5_3)*%
X181720000Y-106350000D03*
%TO.N,unconnected-(U17-DIO11-PadJP5_4)*%
X179180000Y-106350000D03*
%TO.N,unconnected-(U17-RSSI-PadJP5_5)*%
X176640000Y-106350000D03*
%TO.N,unconnected-(U17-RESET-PadJP5_6)*%
X174100000Y-106350000D03*
%TO.N,unconnected-(U17-DIO12-PadJP5_7)*%
X171560000Y-106350000D03*
%TO.N,XBEE_TX*%
X169020000Y-106350000D03*
%TO.N,XBEE_RX*%
X166480000Y-106350000D03*
%TO.N,3.3V*%
X163940000Y-106350000D03*
%TO.N,GND*%
X161400000Y-106350000D03*
%TO.N,unconnected-(U17-DIO0-PadJP6_1)*%
X161400000Y-93650000D03*
%TO.N,unconnected-(U17-DIO1-PadJP6_2)*%
X163940000Y-93650000D03*
%TO.N,unconnected-(U17-DIO2-PadJP6_3)*%
X166480000Y-93650000D03*
%TO.N,unconnected-(U17-DIO3-PadJP6_4)*%
X169020000Y-93650000D03*
%TO.N,unconnected-(U17-RTS-PadJP6_5)*%
X171560000Y-93650000D03*
%TO.N,unconnected-(U17-DIO5-PadJP6_6)*%
X174100000Y-93650000D03*
%TO.N,unconnected-(U17-RES2-PadJP6_7)*%
X176640000Y-93650000D03*
%TO.N,unconnected-(U17-DIO9-PadJP6_8)*%
X179180000Y-93650000D03*
%TO.N,unconnected-(U17-CTS-PadJP6_9)*%
X181720000Y-93650000D03*
%TO.N,unconnected-(U17-DIO4-PadJP6_10)*%
X184260000Y-93650000D03*
%TO.N,unconnected-(U17-5V-PadJP6_11)*%
X186800000Y-93650000D03*
%TD*%
D15*
%TO.N,GND*%
%TO.C,R9*%
X204600000Y-93620000D03*
%TO.N,Net-(U5-FB)*%
X204600000Y-86000000D03*
%TD*%
D11*
%TO.N,GND*%
%TO.C,J15*%
X121800000Y-127600000D03*
D12*
%TO.N,PG_CAM_IN*%
X119800000Y-127600000D03*
%TO.N,PG_CAM_OUT*%
X117800000Y-127600000D03*
%TO.N,5.5V*%
X115800000Y-127600000D03*
%TD*%
D11*
%TO.N,GND*%
%TO.C,J5*%
X92600000Y-121800000D03*
D12*
%TO.N,Net-(J5-Pad2)*%
X90600000Y-121800000D03*
%TD*%
D11*
%TO.N,GND*%
%TO.C,J3*%
X178400000Y-118600000D03*
D12*
%TO.N,3.6V B*%
X178400000Y-120600000D03*
%TD*%
D13*
%TO.N,GND*%
%TO.C,TP10*%
X228200000Y-86500000D03*
%TD*%
%TO.N,3.3V*%
%TO.C,TP8*%
X228200000Y-98500000D03*
%TD*%
D11*
%TO.N,GND*%
%TO.C,J10*%
X194050000Y-120460000D03*
D12*
%TO.N,ELEVATOR*%
X196050000Y-120460000D03*
%TO.N,5.5V*%
X198050000Y-120460000D03*
%TD*%
D13*
%TO.N,Net-(BZ1-+)*%
%TO.C,BZ1*%
X158400000Y-121200000D03*
D17*
%TO.N,GND*%
X166000000Y-121200000D03*
%TD*%
D11*
%TO.N,GND*%
%TO.C,J2*%
X178400000Y-71800000D03*
D12*
%TO.N,1.2V B*%
X178400000Y-73800000D03*
%TD*%
D18*
%TO.N,unconnected-(U15-VCC-PadCN2_1)*%
%TO.C,U15*%
X140920000Y-121336000D03*
%TO.N,unconnected-(U15-SWCLK-PadCN2_2)*%
X138380000Y-123876000D03*
%TO.N,unconnected-(U15-GND_SWD-PadCN2_3)*%
X138380000Y-121336000D03*
%TO.N,unconnected-(U15-SWDIO-PadCN2_4)*%
X138380000Y-118796000D03*
%TO.N,3.3V MCU*%
X138380000Y-116256000D03*
%TO.N,GND*%
X138380000Y-113716000D03*
%TO.N,unconnected-(U15-~{RST}_CN3-PadCN3_3)*%
X138380000Y-111176000D03*
%TO.N,unconnected-(U15-5V-PadCN3_4)*%
X138380000Y-108636000D03*
%TO.N,unconnected-(U15-PA2(A7)-PadCN3_5)*%
X138380000Y-106096000D03*
%TO.N,MOSI*%
X138380000Y-103556000D03*
%TO.N,MISO*%
X138380000Y-101016000D03*
%TO.N,SCLK*%
X138380000Y-98476000D03*
%TO.N,CS*%
X138380000Y-95936000D03*
%TO.N,unconnected-(U15-PA3(A2)-PadCN3_10)*%
X138380000Y-93396000D03*
%TO.N,INV_PWM_1*%
X138380000Y-90856000D03*
%TO.N,INV_PWM_2*%
X138380000Y-88316000D03*
%TO.N,unconnected-(U15-AREF-PadCN3_13)*%
X138380000Y-85776000D03*
%TO.N,unconnected-(U15-3V3-PadCN3_14)*%
X138380000Y-83236000D03*
%TO.N,unconnected-(U15-T_SWO(PB3{slash}PB8(D13))-PadCN3_15)*%
X138380000Y-80696000D03*
%TO.N,XBEE_TX*%
X153620000Y-116256000D03*
%TO.N,XBEE_RX*%
X153620000Y-113716000D03*
%TO.N,unconnected-(U15-~{RST}_CN4-PadCN4_3)*%
X153620000Y-111176000D03*
%TO.N,GND*%
X153620000Y-108636000D03*
%TO.N,NC_REL*%
X153620000Y-106096000D03*
%TO.N,EGG_REL*%
X153620000Y-103556000D03*
%TO.N,SDA*%
X153620000Y-101016000D03*
%TO.N,SCL*%
X153620000Y-98476000D03*
%TO.N,G_CAM_IN*%
X153620000Y-95936000D03*
%TO.N,G_CAM_OUT*%
X153620000Y-93396000D03*
%TO.N,PG_CAM_OUT*%
X153620000Y-90856000D03*
%TO.N,PG_CAM_IN*%
X153620000Y-88316000D03*
%TO.N,CC_REL*%
X153620000Y-85776000D03*
%TO.N,AILERON*%
X153620000Y-83236000D03*
%TO.N,ELEVATOR*%
X153620000Y-80696000D03*
%TD*%
D11*
%TO.N,GND*%
%TO.C,J9*%
X81600000Y-78200000D03*
D12*
%TO.N,EGG_REL*%
X83600000Y-78200000D03*
%TO.N,5.5V*%
X85600000Y-78200000D03*
%TD*%
D15*
%TO.N,GND*%
%TO.C,R10*%
X212600000Y-101915000D03*
%TO.N,Net-(U6-FB)*%
X212600000Y-109535000D03*
%TD*%
D13*
%TO.N,1.2V*%
%TO.C,TP2*%
X228200000Y-107500000D03*
%TD*%
D11*
%TO.N,GND*%
%TO.C,J13*%
X76600000Y-121800000D03*
D12*
%TO.N,AILERON*%
X74600000Y-121800000D03*
%TO.N,5.5V*%
X72600000Y-121800000D03*
%TD*%
D11*
%TO.N,DC_PWM_1*%
%TO.C,J16*%
X90600000Y-78200000D03*
D12*
%TO.N,DC_PWM_2*%
X92600000Y-78200000D03*
%TD*%
D11*
%TO.N,GND*%
%TO.C,J12*%
X72600000Y-78200000D03*
D12*
%TO.N,AILERON*%
X74600000Y-78200000D03*
%TO.N,5.5V*%
X76600000Y-78200000D03*
%TD*%
D13*
%TO.N,3.6V-*%
%TO.C,TP3*%
X228200000Y-101500000D03*
%TD*%
D10*
%TO.N,3.3V*%
%TO.C,U7*%
X114060000Y-118240000D03*
%TO.N,unconnected-(U7-3Vo-Pad2)*%
X116600000Y-118240000D03*
%TO.N,GND*%
X119140000Y-118240000D03*
%TO.N,SCL*%
X121680000Y-118240000D03*
%TO.N,unconnected-(U7-SDO-Pad5)*%
X124220000Y-118240000D03*
%TO.N,SDA*%
X126760000Y-118240000D03*
%TO.N,unconnected-(U7-CS-Pad7)*%
X129300000Y-118240000D03*
%TO.N,unconnected-(U7-INT-Pad8)*%
X131840000Y-118240000D03*
%TD*%
D19*
%TO.N,X1*%
%TO.C,Y1*%
X149472500Y-70565000D03*
%TO.N,X2*%
X149472500Y-71835000D03*
%TD*%
D13*
%TO.N,3.6V B*%
%TO.C,TP6*%
X228200000Y-110500000D03*
%TD*%
D11*
%TO.N,GND*%
%TO.C,J7*%
X198050000Y-127800000D03*
D12*
%TO.N,CC_REL*%
X196050000Y-127800000D03*
%TO.N,5.5V*%
X194050000Y-127800000D03*
%TD*%
D13*
%TO.N,3.3V BZ*%
%TO.C,TP9*%
X228200000Y-92500000D03*
%TD*%
%TO.N,3.3V MCU*%
%TO.C,TP4*%
X228200000Y-95500000D03*
%TD*%
D20*
%TO.N,Net-(U1-VBAT)*%
X157780000Y-75000000D03*
%TO.N,3.3V*%
X163940000Y-113600000D03*
X190200000Y-96200000D03*
X169695000Y-119600000D03*
X161400000Y-79000000D03*
X218000000Y-89600000D03*
X214900000Y-87837500D03*
X223000000Y-99250000D03*
X157300000Y-70400000D03*
X220800000Y-89600000D03*
X192780000Y-93620000D03*
X161400000Y-75000000D03*
%TO.N,CS*%
X126760000Y-92494000D03*
X115400000Y-83800000D03*
%TO.N,MOSI*%
X133110000Y-88316000D03*
%TO.N,MISO*%
X126760000Y-93396000D03*
X109000000Y-82400000D03*
%TO.N,SCLK*%
X133110000Y-85776000D03*
%TO.N,GND*%
X187200000Y-116650000D03*
X213362859Y-93437500D03*
X203000000Y-114375600D03*
X216200000Y-78364600D03*
X223200000Y-112750000D03*
X214200000Y-81150600D03*
X206100000Y-76364600D03*
X223200000Y-103750000D03*
X187200000Y-70815000D03*
X136200000Y-69395000D03*
X223200000Y-94750000D03*
X216650000Y-120697500D03*
X208500000Y-79002100D03*
X223200000Y-106750000D03*
X93600000Y-82499874D03*
X165400000Y-74600000D03*
X203837141Y-102097500D03*
X187200000Y-122950000D03*
X223200000Y-91750000D03*
X112800000Y-122600000D03*
X223200000Y-100750000D03*
X210900000Y-129060000D03*
X223200000Y-97750000D03*
X200700000Y-112297500D03*
X170965000Y-119600000D03*
X207780000Y-71402100D03*
X187200000Y-77115000D03*
X223200000Y-109750000D03*
X215337500Y-130497500D03*
X95000000Y-111037500D03*
X223200000Y-88750000D03*
X216500000Y-83237500D03*
%TO.N,5.5V*%
X111000000Y-119000000D03*
X216300000Y-116897500D03*
X212700000Y-127697500D03*
X89600000Y-83000000D03*
X111000000Y-113400000D03*
X194050000Y-131600000D03*
X225400000Y-85800000D03*
%TO.N,EGG_REL*%
X105200000Y-81200000D03*
X126760000Y-94298000D03*
%TO.N,AILERON*%
X148800000Y-83236000D03*
%TO.N,SCL*%
X155500000Y-73400000D03*
X169695000Y-114800000D03*
%TO.N,SDA*%
X153700000Y-78156000D03*
X121680000Y-101200000D03*
X170965000Y-114800000D03*
X153700000Y-73400000D03*
X156200000Y-79600000D03*
X126760000Y-95200000D03*
%TO.N,ELEVATOR*%
X156800000Y-80696000D03*
%TO.N,CC_REL*%
X156800000Y-85776000D03*
%TO.N,PG_CAM_OUT*%
X152000000Y-117526000D03*
%TO.N,PG_CAM_IN*%
X151200000Y-117526000D03*
%TO.N,NC_REL*%
X128200000Y-110600000D03*
X122800000Y-110600000D03*
%TO.N,3.3V MCU*%
X172830000Y-110000000D03*
X202300000Y-107697500D03*
X162600000Y-118000000D03*
X190000000Y-107697500D03*
%TO.N,3.3V BZ*%
X164800000Y-117000000D03*
X172800000Y-113400000D03*
X197400000Y-92200000D03*
X192780000Y-98400000D03*
X217600000Y-75800000D03*
X217600000Y-72800000D03*
%TO.N,INV_PWM_2*%
X93200103Y-85200000D03*
%TO.N,INV_PWM_1*%
X92400100Y-85200000D03*
%TO.N,3.6V B*%
X201200000Y-129800000D03*
X205600000Y-131600000D03*
X184800000Y-125295000D03*
%TO.N,1.2V B*%
X184800000Y-79460000D03*
X205200000Y-115600000D03*
X220400000Y-115600000D03*
X202400000Y-115600000D03*
%TO.N,3.6V-*%
X220800000Y-97200000D03*
X211700000Y-122744950D03*
X208900000Y-86637500D03*
X220800000Y-99600000D03*
X207300000Y-103313100D03*
X208300000Y-111335000D03*
X209900000Y-92221900D03*
X172235000Y-119600000D03*
X208300000Y-108897500D03*
X208300000Y-106897500D03*
X203400000Y-130400000D03*
X208900000Y-84200000D03*
X208900000Y-88637500D03*
X211700000Y-126497500D03*
%TO.N,1.2V*%
X206300000Y-75106700D03*
X190800000Y-83270000D03*
X192000000Y-73600000D03*
X223000000Y-108250000D03*
X210500000Y-77697500D03*
X220800000Y-91000000D03*
%TO.N,3.6V+*%
X193400000Y-116400000D03*
X216300000Y-114800000D03*
X190400000Y-129105000D03*
%TD*%
D21*
%TO.N,Net-(BZ1-+)*%
X148943043Y-121200000D02*
X158400000Y-121200000D01*
X140141043Y-130002000D02*
X148943043Y-121200000D01*
X116400000Y-130000000D02*
X119632900Y-130000000D01*
X100320000Y-116800000D02*
X106720000Y-123200000D01*
X119632900Y-130000000D02*
X119634900Y-130002000D01*
X106720000Y-123200000D02*
X109600000Y-123200000D01*
X119634900Y-130002000D02*
X140141043Y-130002000D01*
X109600000Y-123200000D02*
X116400000Y-130000000D01*
%TO.N,CS*%
X109590000Y-75590000D02*
X105400000Y-75590000D01*
X114800000Y-80800000D02*
X109590000Y-75590000D01*
X115400000Y-83800000D02*
X114800000Y-83200000D01*
X134938000Y-92494000D02*
X138380000Y-95936000D01*
X114800000Y-83200000D02*
X114800000Y-80800000D01*
X126760000Y-92494000D02*
X134938000Y-92494000D01*
%TO.N,MOSI*%
X99878000Y-85308000D02*
X130102000Y-85308000D01*
X130102000Y-85308000D02*
X133110000Y-88316000D01*
X97780000Y-83210000D02*
X99878000Y-85308000D01*
%TO.N,MISO*%
X126760000Y-93396000D02*
X130760000Y-93396000D01*
X109000000Y-82400000D02*
X107967100Y-82400000D01*
X107967100Y-82400000D02*
X102860000Y-77292900D01*
X102860000Y-77292900D02*
X102860000Y-75590000D01*
X130760000Y-93396000D02*
X138380000Y-101016000D01*
%TO.N,SCLK*%
X100320000Y-83210000D02*
X102017000Y-84907000D01*
X102017000Y-84907000D02*
X132241000Y-84907000D01*
X132241000Y-84907000D02*
X133110000Y-85776000D01*
%TO.N,XBEE_RX*%
X153620000Y-113716000D02*
X161086900Y-113716000D01*
X161086900Y-113716000D02*
X166480000Y-108322900D01*
X166480000Y-108322900D02*
X166480000Y-106350000D01*
%TO.N,XBEE_TX*%
X153620000Y-116256000D02*
X159114000Y-116256000D01*
X159114000Y-116256000D02*
X169020000Y-106350000D01*
%TO.N,EGG_REL*%
X136200000Y-100869000D02*
X136200000Y-99403100D01*
X83600000Y-78200000D02*
X86001000Y-80601000D01*
X153620000Y-103556000D02*
X152350000Y-102286000D01*
X152350000Y-102286000D02*
X137617000Y-102286000D01*
X126760000Y-94298000D02*
X131094900Y-94298000D01*
X86001000Y-80601000D02*
X104601000Y-80601000D01*
X131094900Y-94298000D02*
X136200000Y-99403100D01*
X104601000Y-80601000D02*
X105200000Y-81200000D01*
X137617000Y-102286000D02*
X136200000Y-100869000D01*
%TO.N,AILERON*%
X109506000Y-84506000D02*
X105200000Y-80200000D01*
X98400000Y-80200000D02*
X94400000Y-76200000D01*
X74600000Y-121800000D02*
X71200000Y-118400000D01*
X71200000Y-118400000D02*
X71200000Y-81600000D01*
X94400000Y-76200000D02*
X76600000Y-76200000D01*
X148800000Y-83236000D02*
X147530000Y-84506000D01*
X147530000Y-84506000D02*
X109506000Y-84506000D01*
X105200000Y-80200000D02*
X98400000Y-80200000D01*
X76600000Y-76200000D02*
X74600000Y-78200000D01*
X71200000Y-81600000D02*
X74600000Y-78200000D01*
%TO.N,SCL*%
X97631000Y-110199000D02*
X113561000Y-110199000D01*
X113561000Y-110199000D02*
X124220000Y-99540000D01*
X129000000Y-127600000D02*
X129000000Y-125560000D01*
X130115000Y-78200000D02*
X145865800Y-78200000D01*
X155500000Y-73400000D02*
X155500000Y-96596000D01*
X128930000Y-77015000D02*
X130115000Y-78200000D01*
X151198000Y-96054000D02*
X153620000Y-98476000D01*
X151198000Y-83532200D02*
X151198000Y-96054000D01*
X93860000Y-113970000D02*
X97631000Y-110199000D01*
X121680000Y-118240000D02*
X124220000Y-115700000D01*
X145865800Y-78200000D02*
X151198000Y-83532200D01*
X124220000Y-115700000D02*
X124220000Y-99540000D01*
X155500000Y-96596000D02*
X153620000Y-98476000D01*
X129000000Y-125560000D02*
X121680000Y-118240000D01*
%TO.N,SDA*%
X91320000Y-112767919D02*
X94289919Y-109798000D01*
X91320000Y-113970000D02*
X91320000Y-112767919D01*
X127976000Y-78601000D02*
X145699700Y-78601000D01*
X156000000Y-79800000D02*
X156000000Y-98636000D01*
X121680000Y-101512900D02*
X121680000Y-101200000D01*
X131000000Y-122480000D02*
X126760000Y-118240000D01*
X145699700Y-78601000D02*
X150797000Y-83698300D01*
X150797000Y-98193000D02*
X153620000Y-101016000D01*
X126760000Y-99540000D02*
X126760000Y-95200000D01*
X156000000Y-98636000D02*
X153620000Y-101016000D01*
X153700000Y-73400000D02*
X153700000Y-78156000D01*
X113394900Y-109798000D02*
X121680000Y-101512900D01*
X94289919Y-109798000D02*
X113394900Y-109798000D01*
X156200000Y-79600000D02*
X156000000Y-79800000D01*
X150797000Y-83698300D02*
X150797000Y-98193000D01*
X126390000Y-77015000D02*
X127976000Y-78601000D01*
X131000000Y-127600000D02*
X131000000Y-122480000D01*
X126760000Y-118240000D02*
X126760000Y-99540000D01*
%TO.N,ELEVATOR*%
X185000000Y-88600000D02*
X164704000Y-88600000D01*
X164704000Y-88600000D02*
X156800000Y-80696000D01*
X191801000Y-116211000D02*
X191801000Y-95401000D01*
X191801000Y-95401000D02*
X185000000Y-88600000D01*
X196050000Y-120460000D02*
X191801000Y-116211000D01*
%TO.N,CC_REL*%
X191400000Y-95567100D02*
X191400000Y-123150000D01*
X156800000Y-85776000D02*
X161312900Y-85776000D01*
X184833900Y-89001000D02*
X191400000Y-95567100D01*
X191400000Y-123150000D02*
X196050000Y-127800000D01*
X161312900Y-85776000D02*
X164537900Y-89001000D01*
X164537900Y-89001000D02*
X184833900Y-89001000D01*
%TO.N,PG_CAM_OUT*%
X119801000Y-129601000D02*
X117800000Y-127600000D01*
X152000000Y-117526000D02*
X152000000Y-117575943D01*
X152000000Y-117575943D02*
X139974943Y-129601000D01*
X139974943Y-129601000D02*
X119801000Y-129601000D01*
%TO.N,PG_CAM_IN*%
X151200000Y-117526000D02*
X151200000Y-117808843D01*
X121400000Y-129200000D02*
X119800000Y-127600000D01*
X151200000Y-117808843D02*
X139808843Y-129200000D01*
X139808843Y-129200000D02*
X121400000Y-129200000D01*
%TO.N,G_CAM_OUT*%
X142800000Y-74000000D02*
X152000000Y-83200000D01*
X152000000Y-83200000D02*
X152000000Y-91776000D01*
X121400000Y-74000000D02*
X142800000Y-74000000D01*
X119800000Y-72400000D02*
X121400000Y-74000000D01*
X152000000Y-91776000D02*
X153620000Y-93396000D01*
%TO.N,G_CAM_IN*%
X151599000Y-93915000D02*
X153620000Y-95936000D01*
X142633900Y-74401000D02*
X151599000Y-83366100D01*
X119801000Y-74401000D02*
X142633900Y-74401000D01*
X151599000Y-83366100D02*
X151599000Y-93915000D01*
X117800000Y-72400000D02*
X119801000Y-74401000D01*
%TO.N,NC_REL*%
X112600000Y-110600000D02*
X122800000Y-110600000D01*
X128200000Y-110600000D02*
X136000000Y-110600000D01*
X94600000Y-116600000D02*
X100600000Y-110600000D01*
X153620000Y-106096000D02*
X149810000Y-109906000D01*
X88800000Y-116600000D02*
X94600000Y-116600000D01*
X136000000Y-110600000D02*
X136625000Y-109975000D01*
X83600000Y-121800000D02*
X88800000Y-116600000D01*
X149810000Y-109906000D02*
X136625000Y-109906000D01*
X100600000Y-110600000D02*
X112600000Y-110600000D01*
%TO.N,X1*%
X149472500Y-70565000D02*
X135180000Y-70565000D01*
X135180000Y-70565000D02*
X134010000Y-69395000D01*
%TO.N,X2*%
X133910000Y-71835000D02*
X149472500Y-71835000D01*
X131470000Y-69395000D02*
X133910000Y-71835000D01*
%TO.N,INV_PWM_2*%
X93200103Y-85200000D02*
X93200103Y-85482843D01*
X136241000Y-90455000D02*
X138380000Y-88316000D01*
X98172260Y-90455000D02*
X136241000Y-90455000D01*
X93200103Y-85482843D02*
X98172260Y-90455000D01*
%TO.N,INV_PWM_1*%
X92400100Y-85200000D02*
X92400100Y-85249940D01*
X98006160Y-90856000D02*
X138380000Y-90856000D01*
X92400100Y-85249940D02*
X98006160Y-90856000D01*
%TD*%
M02*
