%TF.GenerationSoftware,KiCad,Pcbnew,9.0.7*%
%TF.CreationDate,2026-04-17T18:48:13-04:00*%
%TF.ProjectId,capybara_rocket,63617079-6261-4726-915f-726f636b6574,A*%
%TF.SameCoordinates,Original*%
%TF.FileFunction,Copper,L3,Inr*%
%TF.FilePolarity,Positive*%
%FSLAX46Y46*%
G04 Gerber Fmt 4.6, Leading zero omitted, Abs format (unit mm)*
G04 Created by KiCad (PCBNEW 9.0.7) date 2026-04-17 18:48:13*
%MOMM*%
%LPD*%
G01*
G04 APERTURE LIST*
G04 Aperture macros list*
%AMRoundRect*
0 Rectangle with rounded corners*
0 $1 Rounding radius*
0 $2 $3 $4 $5 $6 $7 $8 $9 X,Y pos of 4 corners*
0 Add a 4 corners polygon primitive as box body*
4,1,4,$2,$3,$4,$5,$6,$7,$8,$9,$2,$3,0*
0 Add four circle primitives for the rounded corners*
1,1,$1+$1,$2,$3*
1,1,$1+$1,$4,$5*
1,1,$1+$1,$6,$7*
1,1,$1+$1,$8,$9*
0 Add four rect primitives between the rounded corners*
20,1,$1+$1,$2,$3,$4,$5,0*
20,1,$1+$1,$4,$5,$6,$7,0*
20,1,$1+$1,$6,$7,$8,$9,0*
20,1,$1+$1,$8,$9,$2,$3,0*%
G04 Aperture macros list end*
%TA.AperFunction,ComponentPad*%
%ADD10C,1.700000*%
%TD*%
%TA.AperFunction,ComponentPad*%
%ADD11R,1.300000X1.300000*%
%TD*%
%TA.AperFunction,ComponentPad*%
%ADD12C,1.300000*%
%TD*%
%TA.AperFunction,ComponentPad*%
%ADD13R,2.000000X2.000000*%
%TD*%
%TA.AperFunction,ComponentPad*%
%ADD14RoundRect,0.250000X-0.550000X0.550000X-0.550000X-0.550000X0.550000X-0.550000X0.550000X0.550000X0*%
%TD*%
%TA.AperFunction,ComponentPad*%
%ADD15C,1.600000*%
%TD*%
%TA.AperFunction,ComponentPad*%
%ADD16C,1.778000*%
%TD*%
%TA.AperFunction,ComponentPad*%
%ADD17C,2.000000*%
%TD*%
%TA.AperFunction,ComponentPad*%
%ADD18C,1.800000*%
%TD*%
%TA.AperFunction,ComponentPad*%
%ADD19C,0.910000*%
%TD*%
%TA.AperFunction,ViaPad*%
%ADD20C,0.600000*%
%TD*%
%TA.AperFunction,Conductor*%
%ADD21C,0.500000*%
%TD*%
%TA.AperFunction,Conductor*%
%ADD22C,0.200000*%
%TD*%
G04 APERTURE END LIST*
D10*
%TO.N,GND*%
%TO.C,J11*%
X86240000Y-113970000D03*
%TO.N,3.3V*%
X88780000Y-113970000D03*
%TO.N,SDA*%
X91320000Y-113970000D03*
%TO.N,SCL*%
X93860000Y-113970000D03*
%TD*%
D11*
%TO.N,1.2V BT*%
%TO.C,J4*%
X178400000Y-79400000D03*
D12*
%TO.N,1.2V B*%
X178400000Y-81400000D03*
%TD*%
D13*
%TO.N,1.2V*%
%TO.C,TP2*%
X228200000Y-107500000D03*
%TD*%
D11*
%TO.N,GND*%
%TO.C,J6*%
X85600000Y-121800000D03*
D12*
%TO.N,5.5V*%
X83600000Y-121800000D03*
%TO.N,NC_REL*%
X81600000Y-121800000D03*
%TD*%
D11*
%TO.N,GND*%
%TO.C,J8*%
X133000000Y-127600000D03*
D12*
%TO.N,3.3V*%
X131000000Y-127600000D03*
%TO.N,SDA*%
X129000000Y-127600000D03*
%TO.N,SCL*%
X127000000Y-127600000D03*
%TD*%
D14*
%TO.N,CS*%
%TO.C,U4*%
X105400000Y-75590000D03*
D15*
%TO.N,MISO*%
X102860000Y-75590000D03*
%TO.N,3.3V*%
X100320000Y-75590000D03*
%TO.N,GND*%
X97780000Y-75590000D03*
%TO.N,MOSI*%
X97780000Y-83210000D03*
%TO.N,SCLK*%
X100320000Y-83210000D03*
%TO.N,3.3V*%
X102860000Y-83210000D03*
X105400000Y-83210000D03*
%TD*%
%TO.N,Net-(U5-FB)*%
%TO.C,R11*%
X200000000Y-86000000D03*
%TO.N,3.3V*%
X200000000Y-93620000D03*
%TD*%
D13*
%TO.N,5.5V*%
%TO.C,TP5*%
X228200000Y-89500000D03*
%TD*%
D11*
%TO.N,GND*%
%TO.C,J1*%
X178400000Y-126200000D03*
D12*
%TO.N,3.6V BT*%
X178400000Y-128200000D03*
%TD*%
D11*
%TO.N,GND*%
%TO.C,J14*%
X115800000Y-72400000D03*
D12*
%TO.N,5.5V*%
X117800000Y-72400000D03*
%TO.N,G_CAM_IN*%
X119800000Y-72400000D03*
%TO.N,G_CAM_OUT*%
X121800000Y-72400000D03*
%TD*%
D15*
%TO.N,Net-(U6-FB)*%
%TO.C,R12*%
X217200000Y-109535000D03*
%TO.N,3.3V MCU*%
X217200000Y-101915000D03*
%TD*%
D16*
%TO.N,3.3V*%
%TO.C,U2*%
X116600000Y-99540000D03*
%TO.N,unconnected-(U2-3VO-PadJP1_2)*%
X119140000Y-99540000D03*
%TO.N,GND*%
X121680000Y-99540000D03*
%TO.N,SCL*%
X124220000Y-99540000D03*
%TO.N,SDA*%
X126760000Y-99540000D03*
%TO.N,IMU_INT*%
X129300000Y-99540000D03*
%TO.N,unconnected-(U2-BT-PadJP2_1)*%
X116600000Y-81760000D03*
%TO.N,GND*%
X119140000Y-81760000D03*
X121680000Y-81760000D03*
%TO.N,3.3V*%
X124220000Y-81760000D03*
%TO.N,GND*%
X126760000Y-81760000D03*
%TO.N,3.3V*%
X129300000Y-81760000D03*
%TD*%
D13*
%TO.N,3.6V+*%
%TO.C,TP7*%
X228200000Y-104500000D03*
%TD*%
D14*
%TO.N,X1*%
%TO.C,U1*%
X134010000Y-69395000D03*
D15*
%TO.N,X2*%
X131470000Y-69395000D03*
%TO.N,Net-(U1-VBAT)*%
X128930000Y-69395000D03*
%TO.N,GND*%
X126390000Y-69395000D03*
%TO.N,SDA*%
X126390000Y-77015000D03*
%TO.N,SCL*%
X128930000Y-77015000D03*
%TO.N,unconnected-(U1-SQW{slash}OUT-Pad7)*%
X131470000Y-77015000D03*
%TO.N,5.5V*%
X134010000Y-77015000D03*
%TD*%
D14*
%TO.N,GND*%
%TO.C,U3*%
X105400000Y-116800000D03*
D15*
%TO.N,Net-(U3-THRES)*%
X102860000Y-116800000D03*
%TO.N,Net-(BZ1-+)*%
X100320000Y-116800000D03*
%TO.N,3.3V BZ*%
X97780000Y-116800000D03*
%TO.N,Net-(U3-CONT)*%
X97780000Y-124420000D03*
%TO.N,Net-(U3-THRES)*%
X100320000Y-124420000D03*
%TO.N,unconnected-(U3-DISCH-Pad7)*%
X102860000Y-124420000D03*
%TO.N,3.3V BZ*%
X105400000Y-124420000D03*
%TD*%
D10*
%TO.N,GND*%
%TO.C,U17*%
X186800000Y-106350000D03*
%TO.N,unconnected-(U17-DTR-PadJP5_2)*%
X184260000Y-106350000D03*
%TO.N,unconnected-(U17-RES1-PadJP5_3)*%
X181720000Y-106350000D03*
%TO.N,unconnected-(U17-DIO11-PadJP5_4)*%
X179180000Y-106350000D03*
%TO.N,unconnected-(U17-RSSI-PadJP5_5)*%
X176640000Y-106350000D03*
%TO.N,unconnected-(U17-RESET-PadJP5_6)*%
X174100000Y-106350000D03*
%TO.N,unconnected-(U17-DIO12-PadJP5_7)*%
X171560000Y-106350000D03*
%TO.N,XBEE_TX*%
X169020000Y-106350000D03*
%TO.N,XBEE_RX*%
X166480000Y-106350000D03*
%TO.N,3.3V*%
X163940000Y-106350000D03*
%TO.N,GND*%
X161400000Y-106350000D03*
%TO.N,unconnected-(U17-DIO0-PadJP6_1)*%
X161400000Y-93650000D03*
%TO.N,unconnected-(U17-DIO1-PadJP6_2)*%
X163940000Y-93650000D03*
%TO.N,unconnected-(U17-DIO2-PadJP6_3)*%
X166480000Y-93650000D03*
%TO.N,unconnected-(U17-DIO3-PadJP6_4)*%
X169020000Y-93650000D03*
%TO.N,unconnected-(U17-RTS-PadJP6_5)*%
X171560000Y-93650000D03*
%TO.N,unconnected-(U17-DIO5-PadJP6_6)*%
X174100000Y-93650000D03*
%TO.N,unconnected-(U17-RES2-PadJP6_7)*%
X176640000Y-93650000D03*
%TO.N,unconnected-(U17-DIO9-PadJP6_8)*%
X179180000Y-93650000D03*
%TO.N,unconnected-(U17-CTS-PadJP6_9)*%
X181720000Y-93650000D03*
%TO.N,unconnected-(U17-DIO4-PadJP6_10)*%
X184260000Y-93650000D03*
%TO.N,unconnected-(U17-5V-PadJP6_11)*%
X186800000Y-93650000D03*
%TD*%
D15*
%TO.N,GND*%
%TO.C,R9*%
X204600000Y-93620000D03*
%TO.N,Net-(U5-FB)*%
X204600000Y-86000000D03*
%TD*%
D11*
%TO.N,GND*%
%TO.C,J15*%
X121800000Y-127600000D03*
D12*
%TO.N,5.5V*%
X119800000Y-127600000D03*
%TO.N,PG_CAM_IN*%
X117800000Y-127600000D03*
%TO.N,PG_CAM_OUT*%
X115800000Y-127600000D03*
%TD*%
D11*
%TO.N,GND*%
%TO.C,J5*%
X92600000Y-121800000D03*
D12*
%TO.N,Net-(J5-Pad2)*%
X90600000Y-121800000D03*
%TD*%
D11*
%TO.N,3.6V BT*%
%TO.C,J3*%
X178400000Y-118600000D03*
D12*
%TO.N,3.6V B*%
X178400000Y-120600000D03*
%TD*%
D13*
%TO.N,GND*%
%TO.C,TP10*%
X228200000Y-86500000D03*
%TD*%
%TO.N,3.3V*%
%TO.C,TP8*%
X228200000Y-98500000D03*
%TD*%
D11*
%TO.N,GND*%
%TO.C,J10*%
X194050000Y-120460000D03*
D12*
%TO.N,5.5V*%
X196050000Y-120460000D03*
%TO.N,ELEVATOR*%
X198050000Y-120460000D03*
%TD*%
D13*
%TO.N,Net-(BZ1-+)*%
%TO.C,BZ1*%
X158400000Y-121200000D03*
D17*
%TO.N,GND*%
X166000000Y-121200000D03*
%TD*%
D11*
%TO.N,GND*%
%TO.C,J2*%
X178400000Y-71800000D03*
D12*
%TO.N,1.2V BT*%
X178400000Y-73800000D03*
%TD*%
D18*
%TO.N,unconnected-(U15-VCC-PadCN2_1)*%
%TO.C,U15*%
X140920000Y-121336000D03*
%TO.N,unconnected-(U15-SWCLK-PadCN2_2)*%
X138380000Y-123876000D03*
%TO.N,unconnected-(U15-GND_SWD-PadCN2_3)*%
X138380000Y-121336000D03*
%TO.N,unconnected-(U15-SWDIO-PadCN2_4)*%
X138380000Y-118796000D03*
%TO.N,unconnected-(U15-VIN-PadCN3_1)*%
X138380000Y-116256000D03*
%TO.N,GND*%
X138380000Y-113716000D03*
%TO.N,unconnected-(U15-~{RST}_CN3-PadCN3_3)*%
X138380000Y-111176000D03*
%TO.N,unconnected-(U15-5V-PadCN3_4)*%
X138380000Y-108636000D03*
%TO.N,unconnected-(U15-PA2(A7)-PadCN3_5)*%
X138380000Y-106096000D03*
%TO.N,MOSI*%
X138380000Y-103556000D03*
%TO.N,MISO*%
X138380000Y-101016000D03*
%TO.N,SCLK*%
X138380000Y-98476000D03*
%TO.N,CS*%
X138380000Y-95936000D03*
%TO.N,unconnected-(U15-PA3(A2)-PadCN3_10)*%
X138380000Y-93396000D03*
%TO.N,INV_PWM_1*%
X138380000Y-90856000D03*
%TO.N,INV_PWM_2*%
X138380000Y-88316000D03*
%TO.N,unconnected-(U15-AREF-PadCN3_13)*%
X138380000Y-85776000D03*
%TO.N,3.3V MCU*%
X138380000Y-83236000D03*
%TO.N,IMU_INT*%
X138380000Y-80696000D03*
%TO.N,XBEE_TX*%
X153620000Y-116256000D03*
%TO.N,XBEE_RX*%
X153620000Y-113716000D03*
%TO.N,unconnected-(U15-~{RST}_CN4-PadCN4_3)*%
X153620000Y-111176000D03*
%TO.N,GND*%
X153620000Y-108636000D03*
%TO.N,NC_REL*%
X153620000Y-106096000D03*
%TO.N,EGG_REL*%
X153620000Y-103556000D03*
%TO.N,SDA*%
X153620000Y-101016000D03*
%TO.N,SCL*%
X153620000Y-98476000D03*
%TO.N,G_CAM_IN*%
X153620000Y-95936000D03*
%TO.N,G_CAM_OUT*%
X153620000Y-93396000D03*
%TO.N,PG_CAM_OUT*%
X153620000Y-90856000D03*
%TO.N,PG_CAM_IN*%
X153620000Y-88316000D03*
%TO.N,CC_REL*%
X153620000Y-85776000D03*
%TO.N,AILERON*%
X153620000Y-83236000D03*
%TO.N,ELEVATOR*%
X153620000Y-80696000D03*
%TD*%
D11*
%TO.N,GND*%
%TO.C,J9*%
X81600000Y-78200000D03*
D12*
%TO.N,5.5V*%
X83600000Y-78200000D03*
%TO.N,EGG_REL*%
X85600000Y-78200000D03*
%TD*%
D15*
%TO.N,GND*%
%TO.C,R10*%
X212600000Y-101915000D03*
%TO.N,Net-(U6-FB)*%
X212600000Y-109535000D03*
%TD*%
D13*
%TO.N,1.2V B*%
%TO.C,TP1*%
X228200000Y-113500000D03*
%TD*%
D11*
%TO.N,GND*%
%TO.C,J13*%
X76600000Y-121800000D03*
D12*
%TO.N,5.5V*%
X74600000Y-121800000D03*
%TO.N,AILERON*%
X72600000Y-121800000D03*
%TD*%
D11*
%TO.N,DC_PWM_1*%
%TO.C,J16*%
X90600000Y-78200000D03*
D12*
%TO.N,DC_PWM_2*%
X92600000Y-78200000D03*
%TD*%
D11*
%TO.N,GND*%
%TO.C,J12*%
X72600000Y-78200000D03*
D12*
%TO.N,5.5V*%
X74600000Y-78200000D03*
%TO.N,AILERON*%
X76600000Y-78200000D03*
%TD*%
D13*
%TO.N,3.6V-*%
%TO.C,TP3*%
X228200000Y-101500000D03*
%TD*%
D10*
%TO.N,3.3V*%
%TO.C,U7*%
X114060000Y-118240000D03*
%TO.N,unconnected-(U7-3Vo-Pad2)*%
X116600000Y-118240000D03*
%TO.N,GND*%
X119140000Y-118240000D03*
%TO.N,SCL*%
X121680000Y-118240000D03*
%TO.N,unconnected-(U7-SDO-Pad5)*%
X124220000Y-118240000D03*
%TO.N,SDA*%
X126760000Y-118240000D03*
%TO.N,unconnected-(U7-CS-Pad7)*%
X129300000Y-118240000D03*
%TO.N,unconnected-(U7-INT-Pad8)*%
X131840000Y-118240000D03*
%TD*%
D19*
%TO.N,X1*%
%TO.C,Y1*%
X149472500Y-70565000D03*
%TO.N,X2*%
X149472500Y-71835000D03*
%TD*%
D13*
%TO.N,3.6V B*%
%TO.C,TP6*%
X228200000Y-110500000D03*
%TD*%
D11*
%TO.N,GND*%
%TO.C,J7*%
X198050000Y-127800000D03*
D12*
%TO.N,5.5V*%
X196050000Y-127800000D03*
%TO.N,CC_REL*%
X194050000Y-127800000D03*
%TD*%
D13*
%TO.N,3.3V BZ*%
%TO.C,TP9*%
X228200000Y-92500000D03*
%TD*%
%TO.N,3.3V MCU*%
%TO.C,TP4*%
X228200000Y-95500000D03*
%TD*%
D20*
%TO.N,Net-(U1-VBAT)*%
X157780000Y-75000000D03*
%TO.N,3.3V*%
X163940000Y-113600000D03*
X214800000Y-86335000D03*
X190200000Y-96200000D03*
X169695000Y-119600000D03*
X161400000Y-79000000D03*
X223000000Y-99250000D03*
X157300000Y-70400000D03*
X124220000Y-91600000D03*
X220800000Y-89600000D03*
X192780000Y-93620000D03*
X161400000Y-75000000D03*
%TO.N,CS*%
X126760000Y-92494000D03*
X115082588Y-83876235D03*
%TO.N,MOSI*%
X133110000Y-86776000D03*
%TO.N,MISO*%
X126760000Y-93396000D03*
X109400000Y-82800000D03*
%TO.N,SCLK*%
X133110000Y-85776000D03*
%TO.N,GND*%
X186600000Y-116850000D03*
X186900000Y-76665000D03*
X216500000Y-82372500D03*
X80400000Y-83000000D03*
X203000000Y-114375600D03*
X216200000Y-78364600D03*
X223200000Y-112750000D03*
X206100000Y-76364600D03*
X223200000Y-103750000D03*
X186600000Y-71015000D03*
X136200000Y-69395000D03*
X214200000Y-81150600D03*
X223200000Y-94750000D03*
X216650000Y-120697500D03*
X208500000Y-79002100D03*
X203837141Y-103200000D03*
X223200000Y-106750000D03*
X89162500Y-83900000D03*
X165400000Y-74600000D03*
X108500000Y-81800000D03*
X186900000Y-122500000D03*
X223200000Y-91750000D03*
X112800000Y-122600000D03*
X223200000Y-100750000D03*
X210900000Y-129060000D03*
X223200000Y-97750000D03*
X213362859Y-92335000D03*
X200700000Y-113162500D03*
X170965000Y-119600000D03*
X207780000Y-71402100D03*
X223200000Y-109750000D03*
X215337500Y-130497500D03*
X95000000Y-111037500D03*
X223200000Y-88750000D03*
%TO.N,5.5V*%
X111000000Y-118800000D03*
X216300000Y-116897500D03*
X212700000Y-127697500D03*
X84962500Y-80800000D03*
X111000000Y-113400000D03*
X196050000Y-131600000D03*
X225400000Y-85800000D03*
%TO.N,EGG_REL*%
X115082588Y-89800000D03*
X126760000Y-94298000D03*
%TO.N,AILERON*%
X148800000Y-83236000D03*
%TO.N,SCL*%
X155500000Y-73400000D03*
X169695000Y-114800000D03*
%TO.N,SDA*%
X153700000Y-78156000D03*
X121680000Y-101200000D03*
X170965000Y-114800000D03*
X153700000Y-73400000D03*
X156200000Y-79600000D03*
X126760000Y-95200000D03*
%TO.N,ELEVATOR*%
X156800000Y-80696000D03*
%TO.N,CC_REL*%
X156800000Y-85776000D03*
%TO.N,PG_CAM_OUT*%
X152000000Y-117526000D03*
%TO.N,PG_CAM_IN*%
X151200000Y-117526000D03*
%TO.N,NC_REL*%
X128200000Y-109906000D03*
X122800000Y-109906000D03*
%TO.N,3.3V MCU*%
X172830000Y-110000000D03*
X202400000Y-109200000D03*
X162600000Y-118000000D03*
X190000000Y-107697500D03*
%TO.N,3.3V BZ*%
X164800000Y-117000000D03*
X172800000Y-113400000D03*
X197400000Y-92200000D03*
X192780000Y-98400000D03*
X217600000Y-75800000D03*
X217600000Y-72800000D03*
%TO.N,DC_PWM_2*%
X94899874Y-83500126D03*
%TO.N,INV_PWM_2*%
X87600000Y-83900000D03*
%TO.N,INV_PWM_1*%
X86800000Y-83900000D03*
%TO.N,3.6V B*%
X201200000Y-129800000D03*
X205600000Y-131600000D03*
X186900000Y-124000000D03*
X184800000Y-125295000D03*
%TO.N,1.2V B*%
X184800000Y-79460000D03*
X205200000Y-115600000D03*
X220400000Y-115600000D03*
X202400000Y-115600000D03*
X186900000Y-78165000D03*
%TO.N,3.6V-*%
X210000000Y-90703800D03*
X207200000Y-104831200D03*
X211700000Y-122744950D03*
X208900000Y-86637500D03*
X208300000Y-111335000D03*
X172235000Y-119600000D03*
X208300000Y-108897500D03*
X208300000Y-106897500D03*
X203400000Y-130400000D03*
X208900000Y-84200000D03*
X208900000Y-88637500D03*
X211700000Y-126497500D03*
%TO.N,1.2V*%
X206300000Y-75106700D03*
X190800000Y-83270000D03*
X192000000Y-73600000D03*
X223000000Y-108250000D03*
X210500000Y-77697500D03*
X220800000Y-91000000D03*
%TO.N,3.6V+*%
X193400000Y-116400000D03*
X216300000Y-114800000D03*
X190400000Y-129105000D03*
%TO.N,DC_PWM_1*%
X94899874Y-82499874D03*
%TD*%
D21*
%TO.N,DC_PWM_2*%
X92600000Y-78200000D02*
X95620874Y-81220874D01*
X95620874Y-82798522D02*
X94919270Y-83500126D01*
X95620874Y-81220874D02*
X95620874Y-82798522D01*
X94919270Y-83500126D02*
X94899874Y-83500126D01*
%TO.N,DC_PWM_1*%
X94899874Y-82499874D02*
X90600000Y-78200000D01*
D22*
%TO.N,Net-(BZ1-+)*%
X100320000Y-116800000D02*
X106720000Y-123200000D01*
X106720000Y-123200000D02*
X109600000Y-123200000D01*
X119675327Y-130000000D02*
X119677327Y-130002000D01*
X109600000Y-123200000D02*
X116400000Y-130000000D01*
X140098617Y-130002000D02*
X148900617Y-121200000D01*
X148900617Y-121200000D02*
X158400000Y-121200000D01*
X116400000Y-130000000D02*
X119675327Y-130000000D01*
X119677327Y-130002000D02*
X140098617Y-130002000D01*
%TO.N,CS*%
X133824674Y-95936000D02*
X130382674Y-92494000D01*
X138380000Y-95936000D02*
X133824674Y-95936000D01*
X115082588Y-81082588D02*
X109590000Y-75590000D01*
X115082588Y-83876235D02*
X115082588Y-81082588D01*
X109590000Y-75590000D02*
X105400000Y-75590000D01*
X130382674Y-92494000D02*
X126760000Y-92494000D01*
%TO.N,MOSI*%
X130042000Y-85248000D02*
X99818000Y-85248000D01*
X133110000Y-86776000D02*
X133110000Y-86710000D01*
X99818000Y-85248000D02*
X97780000Y-83210000D01*
X133110000Y-86710000D02*
X131648000Y-85248000D01*
X131648000Y-85248000D02*
X130000000Y-85248000D01*
%TO.N,MISO*%
X108324673Y-82800000D02*
X102860000Y-77335327D01*
X109400000Y-82800000D02*
X108324673Y-82800000D01*
X102860000Y-77335327D02*
X102860000Y-75590000D01*
X126760000Y-93396000D02*
X130760000Y-93396000D01*
X130760000Y-93396000D02*
X138380000Y-101016000D01*
%TO.N,SCLK*%
X101987000Y-84877000D02*
X100320000Y-83210000D01*
X132211000Y-84877000D02*
X101987000Y-84877000D01*
X133110000Y-85776000D02*
X132211000Y-84877000D01*
%TO.N,XBEE_RX*%
X153620000Y-113716000D02*
X161129326Y-113716000D01*
X161129326Y-113716000D02*
X166480000Y-108365326D01*
X166480000Y-108365326D02*
X166480000Y-106350000D01*
%TO.N,XBEE_TX*%
X153620000Y-116256000D02*
X159114000Y-116256000D01*
X159114000Y-116256000D02*
X169020000Y-106350000D01*
%TO.N,EGG_REL*%
X126760000Y-94298000D02*
X131137326Y-94298000D01*
X114768588Y-90114000D02*
X97514000Y-90114000D01*
X131137326Y-94298000D02*
X136200000Y-99360674D01*
X152350000Y-102286000D02*
X153620000Y-103556000D01*
X136200000Y-99360674D02*
X136200000Y-100869000D01*
X97514000Y-90114000D02*
X85600000Y-78200000D01*
X115082588Y-89800000D02*
X114768588Y-90114000D01*
X137617000Y-102286000D02*
X152350000Y-102286000D01*
X136200000Y-100869000D02*
X137617000Y-102286000D01*
%TO.N,AILERON*%
X109506000Y-84506000D02*
X105200000Y-80200000D01*
X78600000Y-76200000D02*
X76600000Y-78200000D01*
X98400000Y-80200000D02*
X94400000Y-76200000D01*
X76600000Y-78200000D02*
X76600000Y-117800000D01*
X94400000Y-76200000D02*
X78600000Y-76200000D01*
X76600000Y-117800000D02*
X72600000Y-121800000D01*
X148800000Y-83236000D02*
X147530000Y-84506000D01*
X147530000Y-84506000D02*
X109506000Y-84506000D01*
X105200000Y-80200000D02*
X98400000Y-80200000D01*
%TO.N,SCL*%
X97631000Y-110199000D02*
X113561000Y-110199000D01*
X128930000Y-77015000D02*
X130115000Y-78200000D01*
X145865800Y-78200000D02*
X151228000Y-83562200D01*
X113561000Y-110199000D02*
X124220000Y-99540000D01*
X127000000Y-123560000D02*
X121680000Y-118240000D01*
X155500000Y-73400000D02*
X155500000Y-96596000D01*
X93860000Y-113970000D02*
X97631000Y-110199000D01*
X121680000Y-118240000D02*
X124220000Y-115700000D01*
X130115000Y-78200000D02*
X145865800Y-78200000D01*
X127000000Y-127600000D02*
X127000000Y-123560000D01*
X151228000Y-96084000D02*
X153620000Y-98476000D01*
X124220000Y-115700000D02*
X124220000Y-99540000D01*
X151228000Y-83562200D02*
X151228000Y-96084000D01*
X155500000Y-96596000D02*
X153620000Y-98476000D01*
%TO.N,SDA*%
X150857000Y-83758300D02*
X150857000Y-98253000D01*
X129000000Y-120480000D02*
X126760000Y-118240000D01*
X155871000Y-79929000D02*
X155871000Y-98765000D01*
X91320000Y-113970000D02*
X91320000Y-112767919D01*
X127976000Y-78601000D02*
X145699700Y-78601000D01*
X156200000Y-79600000D02*
X155871000Y-79929000D01*
X155871000Y-98765000D02*
X153620000Y-101016000D01*
X150857000Y-98253000D02*
X153620000Y-101016000D01*
X126760000Y-99540000D02*
X126760000Y-95200000D01*
X91320000Y-112767919D02*
X94259919Y-109828000D01*
X129000000Y-127600000D02*
X129000000Y-120480000D01*
X153700000Y-73400000D02*
X153700000Y-78156000D01*
X121680000Y-101512900D02*
X121680000Y-101200000D01*
X126390000Y-77015000D02*
X127976000Y-78601000D01*
X94259919Y-109828000D02*
X113364900Y-109828000D01*
X113364900Y-109828000D02*
X121680000Y-101512900D01*
X145699700Y-78601000D02*
X150857000Y-83758300D01*
X126760000Y-118240000D02*
X126760000Y-99540000D01*
%TO.N,ELEVATOR*%
X164734000Y-88630000D02*
X184987574Y-88630000D01*
X198050000Y-119540762D02*
X198050000Y-120460000D01*
X191771000Y-95413427D02*
X191771000Y-113261762D01*
X191771000Y-113261762D02*
X198050000Y-119540762D01*
X184987574Y-88630000D02*
X191771000Y-95413427D01*
X156800000Y-80696000D02*
X164734000Y-88630000D01*
%TO.N,CC_REL*%
X161312900Y-85776000D02*
X156800000Y-85776000D01*
X194050000Y-127800000D02*
X191400000Y-125150000D01*
X184833900Y-89001000D02*
X164537900Y-89001000D01*
X164537900Y-89001000D02*
X161312900Y-85776000D01*
X191400000Y-125150000D02*
X191400000Y-95567100D01*
X191400000Y-95567100D02*
X184833900Y-89001000D01*
%TO.N,PG_CAM_OUT*%
X117829000Y-129629000D02*
X119829000Y-129629000D01*
X115800000Y-127600000D02*
X117829000Y-129629000D01*
X139944943Y-129631000D02*
X152000000Y-117575943D01*
X119831000Y-129631000D02*
X139944943Y-129631000D01*
X152000000Y-117575943D02*
X152000000Y-117526000D01*
X119829000Y-129629000D02*
X119831000Y-129631000D01*
%TO.N,PG_CAM_IN*%
X119458000Y-129258000D02*
X121458000Y-129258000D01*
X121458000Y-129258000D02*
X121460000Y-129260000D01*
X117800000Y-127600000D02*
X119458000Y-129258000D01*
X121460000Y-129260000D02*
X139791269Y-129260000D01*
X139791269Y-129260000D02*
X151200000Y-117851269D01*
X151200000Y-117851269D02*
X151200000Y-117526000D01*
%TO.N,G_CAM_OUT*%
X142786574Y-74029000D02*
X151970000Y-83212427D01*
X123429000Y-74029000D02*
X142786574Y-74029000D01*
X151970000Y-83212427D02*
X151970000Y-91746000D01*
X121800000Y-72400000D02*
X123429000Y-74029000D01*
X151970000Y-91746000D02*
X153620000Y-93396000D01*
%TO.N,G_CAM_IN*%
X119800000Y-72400000D02*
X121800000Y-74400000D01*
X121800000Y-74400000D02*
X142632900Y-74400000D01*
X142632900Y-74400000D02*
X151599000Y-83366100D01*
X151599000Y-93915000D02*
X153620000Y-95936000D01*
X151599000Y-83366100D02*
X151599000Y-93915000D01*
%TO.N,NC_REL*%
X128200000Y-109906000D02*
X149810000Y-109906000D01*
X122800000Y-109906000D02*
X114378674Y-109906000D01*
X95200000Y-116000000D02*
X87400000Y-116000000D01*
X149810000Y-109906000D02*
X153620000Y-106096000D01*
X114378674Y-109906000D02*
X113714673Y-110570000D01*
X87400000Y-116000000D02*
X81600000Y-121800000D01*
X100630000Y-110570000D02*
X95200000Y-116000000D01*
X113714673Y-110570000D02*
X100630000Y-110570000D01*
%TO.N,X1*%
X149472500Y-70565000D02*
X135180000Y-70565000D01*
X135180000Y-70565000D02*
X134010000Y-69395000D01*
%TO.N,X2*%
X133910000Y-71835000D02*
X149472500Y-71835000D01*
X131470000Y-69395000D02*
X133910000Y-71835000D01*
%TO.N,INV_PWM_2*%
X138380000Y-88316000D02*
X136211000Y-90485000D01*
X136211000Y-90485000D02*
X94185000Y-90485000D01*
X87600000Y-83900000D02*
X94185000Y-90485000D01*
%TO.N,INV_PWM_1*%
X136364674Y-90856000D02*
X136420673Y-90800000D01*
X136420673Y-90800000D02*
X138324000Y-90800000D01*
X93748484Y-90856000D02*
X136364674Y-90856000D01*
X86800000Y-83900000D02*
X86800000Y-83907516D01*
X138324000Y-90800000D02*
X138380000Y-90856000D01*
X86800000Y-83907516D02*
X93748484Y-90856000D01*
%TD*%
M02*
