%TF.GenerationSoftware,KiCad,Pcbnew,9.0.7*%
%TF.CreationDate,2026-04-18T02:39:07-04:00*%
%TF.ProjectId,capybara_rocket,63617079-6261-4726-915f-726f636b6574,A*%
%TF.SameCoordinates,Original*%
%TF.FileFunction,Paste,Top*%
%TF.FilePolarity,Positive*%
%FSLAX46Y46*%
G04 Gerber Fmt 4.6, Leading zero omitted, Abs format (unit mm)*
G04 Created by KiCad (PCBNEW 9.0.7) date 2026-04-18 02:39:07*
%MOMM*%
%LPD*%
G01*
G04 APERTURE LIST*
G04 Aperture macros list*
%AMRoundRect*
0 Rectangle with rounded corners*
0 $1 Rounding radius*
0 $2 $3 $4 $5 $6 $7 $8 $9 X,Y pos of 4 corners*
0 Add a 4 corners polygon primitive as box body*
4,1,4,$2,$3,$4,$5,$6,$7,$8,$9,$2,$3,0*
0 Add four circle primitives for the rounded corners*
1,1,$1+$1,$2,$3*
1,1,$1+$1,$4,$5*
1,1,$1+$1,$6,$7*
1,1,$1+$1,$8,$9*
0 Add four rect primitives between the rounded corners*
20,1,$1+$1,$2,$3,$4,$5,0*
20,1,$1+$1,$4,$5,$6,$7,0*
20,1,$1+$1,$6,$7,$8,$9,0*
20,1,$1+$1,$8,$9,$2,$3,0*%
G04 Aperture macros list end*
%ADD10C,0.750000*%
%ADD11C,0.025400*%
%ADD12R,0.800000X0.800000*%
%ADD13RoundRect,0.250000X-0.337500X-0.475000X0.337500X-0.475000X0.337500X0.475000X-0.337500X0.475000X0*%
%ADD14RoundRect,0.237500X-0.237500X0.250000X-0.237500X-0.250000X0.237500X-0.250000X0.237500X0.250000X0*%
%ADD15RoundRect,0.250000X0.337500X0.475000X-0.337500X0.475000X-0.337500X-0.475000X0.337500X-0.475000X0*%
%ADD16RoundRect,0.150000X0.512500X0.150000X-0.512500X0.150000X-0.512500X-0.150000X0.512500X-0.150000X0*%
%ADD17RoundRect,0.250000X0.475000X-0.337500X0.475000X0.337500X-0.475000X0.337500X-0.475000X-0.337500X0*%
%ADD18RoundRect,0.237500X0.237500X-0.250000X0.237500X0.250000X-0.237500X0.250000X-0.237500X-0.250000X0*%
%ADD19RoundRect,0.250000X-0.650000X0.412500X-0.650000X-0.412500X0.650000X-0.412500X0.650000X0.412500X0*%
%ADD20RoundRect,0.237500X-0.250000X-0.237500X0.250000X-0.237500X0.250000X0.237500X-0.250000X0.237500X0*%
%ADD21R,2.850000X6.600000*%
%ADD22R,0.558800X1.320800*%
%ADD23R,2.540000X3.170000*%
%ADD24RoundRect,0.237500X0.237500X-0.300000X0.237500X0.300000X-0.237500X0.300000X-0.237500X-0.300000X0*%
%ADD25RoundRect,0.250000X0.650000X-0.412500X0.650000X0.412500X-0.650000X0.412500X-0.650000X-0.412500X0*%
%ADD26RoundRect,0.250000X0.412500X0.650000X-0.412500X0.650000X-0.412500X-0.650000X0.412500X-0.650000X0*%
%ADD27RoundRect,0.250000X-0.475000X0.337500X-0.475000X-0.337500X0.475000X-0.337500X0.475000X0.337500X0*%
%ADD28R,2.006600X5.994400*%
%ADD29R,0.711200X0.228600*%
%ADD30RoundRect,0.250000X-0.350000X-0.450000X0.350000X-0.450000X0.350000X0.450000X-0.350000X0.450000X0*%
%ADD31R,1.070000X3.270000*%
%ADD32RoundRect,0.150000X-0.825000X-0.150000X0.825000X-0.150000X0.825000X0.150000X-0.825000X0.150000X0*%
%ADD33R,0.457200X1.003300*%
%ADD34RoundRect,0.155000X-0.212500X-0.155000X0.212500X-0.155000X0.212500X0.155000X-0.212500X0.155000X0*%
%ADD35RoundRect,0.237500X0.250000X0.237500X-0.250000X0.237500X-0.250000X-0.237500X0.250000X-0.237500X0*%
%ADD36RoundRect,0.250000X0.400000X0.625000X-0.400000X0.625000X-0.400000X-0.625000X0.400000X-0.625000X0*%
%ADD37R,2.400000X1.500000*%
%ADD38R,0.431800X1.397000*%
%ADD39RoundRect,0.237500X-0.237500X0.300000X-0.237500X-0.300000X0.237500X-0.300000X0.237500X0.300000X0*%
%ADD40RoundRect,0.150000X-0.150000X0.825000X-0.150000X-0.825000X0.150000X-0.825000X0.150000X0.825000X0*%
G04 APERTURE END LIST*
D10*
%TO.C,J11*%
X75640000Y-87300000D02*
G75*
G02*
X71440000Y-87300000I-2100000J0D01*
G01*
X71440000Y-87300000D02*
G75*
G02*
X75640000Y-87300000I2100000J0D01*
G01*
X75640000Y-112700000D02*
G75*
G02*
X71440000Y-112700000I-2100000J0D01*
G01*
X71440000Y-112700000D02*
G75*
G02*
X75640000Y-112700000I2100000J0D01*
G01*
X108660000Y-87300000D02*
G75*
G02*
X104460000Y-87300000I-2100000J0D01*
G01*
X104460000Y-87300000D02*
G75*
G02*
X108660000Y-87300000I2100000J0D01*
G01*
X108660000Y-112700000D02*
G75*
G02*
X104460000Y-112700000I-2100000J0D01*
G01*
X104460000Y-112700000D02*
G75*
G02*
X108660000Y-112700000I2100000J0D01*
G01*
%TO.C,U2*%
X114890000Y-81760000D02*
G75*
G02*
X110690000Y-81760000I-2100000J0D01*
G01*
X110690000Y-81760000D02*
G75*
G02*
X114890000Y-81760000I2100000J0D01*
G01*
X114890000Y-99540000D02*
G75*
G02*
X110690000Y-99540000I-2100000J0D01*
G01*
X110690000Y-99540000D02*
G75*
G02*
X114890000Y-99540000I2100000J0D01*
G01*
X135210000Y-81760000D02*
G75*
G02*
X131010000Y-81760000I-2100000J0D01*
G01*
X131010000Y-81760000D02*
G75*
G02*
X135210000Y-81760000I2100000J0D01*
G01*
X135210000Y-99540000D02*
G75*
G02*
X131010000Y-99540000I-2100000J0D01*
G01*
X131010000Y-99540000D02*
G75*
G02*
X135210000Y-99540000I2100000J0D01*
G01*
%TO.C,U17*%
X162300000Y-88800000D02*
G75*
G02*
X158100000Y-88800000I-2100000J0D01*
G01*
X158100000Y-88800000D02*
G75*
G02*
X162300000Y-88800000I2100000J0D01*
G01*
X162300000Y-111200000D02*
G75*
G02*
X158100000Y-111200000I-2100000J0D01*
G01*
X158100000Y-111200000D02*
G75*
G02*
X162300000Y-111200000I2100000J0D01*
G01*
X190100000Y-88800000D02*
G75*
G02*
X185900000Y-88800000I-2100000J0D01*
G01*
X185900000Y-88800000D02*
G75*
G02*
X190100000Y-88800000I2100000J0D01*
G01*
X190100000Y-111200000D02*
G75*
G02*
X185900000Y-111200000I-2100000J0D01*
G01*
X185900000Y-111200000D02*
G75*
G02*
X190100000Y-111200000I2100000J0D01*
G01*
D11*
%TO.C,U5*%
X212287500Y-89295700D02*
X211014300Y-89295700D01*
X211014300Y-87743100D01*
X212287500Y-87743100D01*
X212287500Y-89295700D01*
G36*
X212287500Y-89295700D02*
G01*
X211014300Y-89295700D01*
X211014300Y-87743100D01*
X212287500Y-87743100D01*
X212287500Y-89295700D01*
G37*
X213760700Y-89295700D02*
X212487500Y-89295700D01*
X212487500Y-87743100D01*
X213760700Y-87743100D01*
X213760700Y-89295700D01*
G36*
X213760700Y-89295700D02*
G01*
X212487500Y-89295700D01*
X212487500Y-87743100D01*
X213760700Y-87743100D01*
X213760700Y-89295700D01*
G37*
D10*
%TO.C,U7*%
X114890000Y-105540000D02*
G75*
G02*
X110690000Y-105540000I-2100000J0D01*
G01*
X110690000Y-105540000D02*
G75*
G02*
X114890000Y-105540000I2100000J0D01*
G01*
X135210000Y-105540000D02*
G75*
G02*
X131010000Y-105540000I-2100000J0D01*
G01*
X131010000Y-105540000D02*
G75*
G02*
X135210000Y-105540000I2100000J0D01*
G01*
D11*
%TO.C,U6*%
X204712500Y-107791900D02*
X203439300Y-107791900D01*
X203439300Y-106239300D01*
X204712500Y-106239300D01*
X204712500Y-107791900D01*
G36*
X204712500Y-107791900D02*
G01*
X203439300Y-107791900D01*
X203439300Y-106239300D01*
X204712500Y-106239300D01*
X204712500Y-107791900D01*
G37*
X206185700Y-107791900D02*
X204912500Y-107791900D01*
X204912500Y-106239300D01*
X206185700Y-106239300D01*
X206185700Y-107791900D01*
G36*
X206185700Y-107791900D02*
G01*
X204912500Y-107791900D01*
X204912500Y-106239300D01*
X206185700Y-106239300D01*
X206185700Y-107791900D01*
G37*
%TD*%
D12*
%TO.C,D9*%
X224200000Y-91750000D03*
X225800000Y-91750000D03*
%TD*%
D13*
%TO.C,C8*%
X128962500Y-123000000D03*
X131037500Y-123000000D03*
%TD*%
D14*
%TO.C,R7*%
X202300000Y-86000000D03*
X202300000Y-87825000D03*
%TD*%
D15*
%TO.C,C4*%
X120177500Y-97040000D03*
X118102500Y-97040000D03*
%TD*%
D16*
%TO.C,U14*%
X185337500Y-77315000D03*
X185337500Y-75415000D03*
X183062500Y-76365000D03*
%TD*%
D17*
%TO.C,C29*%
X188400000Y-73165000D03*
X188400000Y-71090000D03*
%TD*%
D18*
%TO.C,R2*%
X100320000Y-114312500D03*
X100320000Y-112487500D03*
%TD*%
D19*
%TO.C,C7*%
X204487381Y-111250600D03*
X204487381Y-114375600D03*
%TD*%
D18*
%TO.C,R25*%
X155500000Y-72225000D03*
X155500000Y-70400000D03*
%TD*%
D20*
%TO.C,R18*%
X224087500Y-90250000D03*
X225912500Y-90250000D03*
%TD*%
D21*
%TO.C,L1*%
X210475000Y-95935000D03*
X217125000Y-95935000D03*
%TD*%
D17*
%TO.C,C27*%
X188400000Y-77240000D03*
X188400000Y-75165000D03*
%TD*%
D20*
%TO.C,R5*%
X208300000Y-105097500D03*
X210125000Y-105097500D03*
%TD*%
D16*
%TO.C,U16*%
X185337500Y-72915000D03*
X185337500Y-71965000D03*
X185337500Y-71015000D03*
X183062500Y-71015000D03*
X183062500Y-72915000D03*
%TD*%
D22*
%TO.C,U13*%
X207549999Y-77697500D03*
X208500000Y-77697500D03*
X209450001Y-77697500D03*
X209450001Y-75106700D03*
X208500000Y-75106700D03*
X207549999Y-75106700D03*
%TD*%
D23*
%TO.C,BT1*%
X173020000Y-77200000D03*
X157780000Y-77200000D03*
%TD*%
D20*
%TO.C,R15*%
X224087500Y-108250000D03*
X225912500Y-108250000D03*
%TD*%
D24*
%TO.C,C14*%
X214900000Y-103640000D03*
X214900000Y-101915000D03*
%TD*%
D12*
%TO.C,D6*%
X224200000Y-109750000D03*
X225800000Y-109750000D03*
%TD*%
D20*
%TO.C,R17*%
X224087500Y-96250000D03*
X225912500Y-96250000D03*
%TD*%
D25*
%TO.C,C28*%
X204500000Y-76364600D03*
X204500000Y-73239600D03*
%TD*%
D12*
%TO.C,D1*%
X224200000Y-112750000D03*
X225800000Y-112750000D03*
%TD*%
%TO.C,D8*%
X224200000Y-97750000D03*
X225800000Y-97750000D03*
%TD*%
D26*
%TO.C,C21*%
X84962500Y-83000000D03*
X81837500Y-83000000D03*
%TD*%
D15*
%TO.C,C16*%
X170965000Y-125200000D03*
X168890000Y-125200000D03*
%TD*%
D17*
%TO.C,C20*%
X188400000Y-123075000D03*
X188400000Y-121000000D03*
%TD*%
D27*
%TO.C,C17*%
X216500000Y-83697500D03*
X216500000Y-85772500D03*
%TD*%
D12*
%TO.C,D5*%
X224200000Y-88750000D03*
X225800000Y-88750000D03*
%TD*%
D25*
%TO.C,C22*%
X209300000Y-129060000D03*
X209300000Y-125935000D03*
%TD*%
D15*
%TO.C,C9*%
X117637500Y-115740000D03*
X115562500Y-115740000D03*
%TD*%
D21*
%TO.C,L2*%
X206725000Y-99600000D03*
X200075000Y-99600000D03*
%TD*%
D20*
%TO.C,R20*%
X224087500Y-105250000D03*
X225912500Y-105250000D03*
%TD*%
D17*
%TO.C,C10*%
X108500000Y-80432500D03*
X108500000Y-78357500D03*
%TD*%
D28*
%TO.C,L3*%
X204341000Y-120497500D03*
X208659000Y-120497500D03*
%TD*%
D29*
%TO.C,U8*%
X90799900Y-82499874D03*
X90799900Y-83000000D03*
X90799900Y-83500126D03*
X92400100Y-83500126D03*
X92400100Y-83000000D03*
X92400100Y-82499874D03*
%TD*%
D30*
%TO.C,R27*%
X207780000Y-72802100D03*
X209780000Y-72802100D03*
%TD*%
D20*
%TO.C,R23*%
X213387500Y-116897500D03*
X215212500Y-116897500D03*
%TD*%
D31*
%TO.C,R6*%
X167395000Y-129600000D03*
X173505000Y-129600000D03*
%TD*%
D16*
%TO.C,U10*%
X185337500Y-123150000D03*
X185337500Y-121250000D03*
X183062500Y-122200000D03*
%TD*%
D26*
%TO.C,C3*%
X111325000Y-122600000D03*
X108200000Y-122600000D03*
%TD*%
D20*
%TO.C,R19*%
X224087500Y-111250000D03*
X225912500Y-111250000D03*
%TD*%
D12*
%TO.C,D7*%
X224200000Y-103750000D03*
X225800000Y-103750000D03*
%TD*%
D32*
%TO.C,Q2*%
X183325000Y-79460000D03*
X183325000Y-80730000D03*
X183325000Y-82000000D03*
X183325000Y-83270000D03*
X188275000Y-83270000D03*
X188275000Y-82000000D03*
X188275000Y-80730000D03*
X188275000Y-79460000D03*
%TD*%
D30*
%TO.C,R26*%
X211480000Y-72802100D03*
X213480000Y-72802100D03*
%TD*%
D15*
%TO.C,C11*%
X88547500Y-111470000D03*
X86472500Y-111470000D03*
%TD*%
D17*
%TO.C,C18*%
X200700000Y-111837500D03*
X200700000Y-109762500D03*
%TD*%
D14*
%TO.C,R24*%
X153700000Y-70400000D03*
X153700000Y-72225000D03*
%TD*%
D19*
%TO.C,C1*%
X108200000Y-116800000D03*
X108200000Y-119925000D03*
%TD*%
D20*
%TO.C,R22*%
X224087500Y-93250000D03*
X225912500Y-93250000D03*
%TD*%
D25*
%TO.C,C6*%
X212712619Y-84275600D03*
X212712619Y-81150600D03*
%TD*%
D17*
%TO.C,C15*%
X210125000Y-109535000D03*
X210125000Y-107460000D03*
%TD*%
D32*
%TO.C,Q1*%
X183325000Y-125295000D03*
X183325000Y-126565000D03*
X183325000Y-127835000D03*
X183325000Y-129105000D03*
X188275000Y-129105000D03*
X188275000Y-127835000D03*
X188275000Y-126565000D03*
X188275000Y-125295000D03*
%TD*%
D12*
%TO.C,D2*%
X224200000Y-106750000D03*
X225800000Y-106750000D03*
%TD*%
D33*
%TO.C,U11*%
X212725001Y-125450050D03*
X213374999Y-125450050D03*
X214025001Y-125450050D03*
X214674999Y-125450050D03*
X214674999Y-122744950D03*
X214025001Y-122744950D03*
X213374999Y-122744950D03*
X212725001Y-122744950D03*
%TD*%
D34*
%TO.C,C26*%
X213732500Y-127297500D03*
X214867500Y-127297500D03*
%TD*%
D20*
%TO.C,R21*%
X224087500Y-99250000D03*
X225912500Y-99250000D03*
%TD*%
D13*
%TO.C,C24*%
X213262500Y-129097500D03*
X215337500Y-129097500D03*
%TD*%
D18*
%TO.C,R8*%
X214900000Y-109535000D03*
X214900000Y-107710000D03*
%TD*%
D12*
%TO.C,D4*%
X224200000Y-94750000D03*
X225800000Y-94750000D03*
%TD*%
D27*
%TO.C,C13*%
X207075000Y-86000000D03*
X207075000Y-88075000D03*
%TD*%
D35*
%TO.C,R4*%
X208900000Y-90437500D03*
X207075000Y-90437500D03*
%TD*%
D17*
%TO.C,C2*%
X137800000Y-72237500D03*
X137800000Y-70162500D03*
%TD*%
D15*
%TO.C,C19*%
X91237500Y-85200000D03*
X89162500Y-85200000D03*
%TD*%
D12*
%TO.C,D3*%
X224200000Y-100750000D03*
X225800000Y-100750000D03*
%TD*%
D36*
%TO.C,R13*%
X216650000Y-119297500D03*
X213550000Y-119297500D03*
%TD*%
D20*
%TO.C,R14*%
X224087500Y-114250000D03*
X225912500Y-114250000D03*
%TD*%
D16*
%TO.C,U12*%
X185337500Y-118750000D03*
X185337500Y-117800000D03*
X185337500Y-116850000D03*
X183062500Y-116850000D03*
X183062500Y-118750000D03*
%TD*%
D37*
%TO.C,L4*%
X199300000Y-77152100D03*
X199300000Y-71652100D03*
%TD*%
D25*
%TO.C,C5*%
X96600000Y-114162500D03*
X96600000Y-111037500D03*
%TD*%
D18*
%TO.C,R1*%
X98700000Y-114312500D03*
X98700000Y-112487500D03*
%TD*%
D35*
%TO.C,R3*%
X92512500Y-117400000D03*
X90687500Y-117400000D03*
%TD*%
D25*
%TO.C,C25*%
X214700000Y-78364600D03*
X214700000Y-75239600D03*
%TD*%
D38*
%TO.C,U5*%
X210761900Y-90703800D03*
X211412141Y-90703800D03*
X212062381Y-90703800D03*
X212712619Y-90703800D03*
X213362859Y-90703800D03*
X214013100Y-90703800D03*
X214013100Y-86335000D03*
X213362859Y-86335000D03*
X212712619Y-86335000D03*
X212062381Y-86335000D03*
X211412141Y-86335000D03*
X210761900Y-86335000D03*
%TD*%
D20*
%TO.C,R16*%
X224087500Y-102250000D03*
X225912500Y-102250000D03*
%TD*%
D39*
%TO.C,C12*%
X202300000Y-91895000D03*
X202300000Y-93620000D03*
%TD*%
D38*
%TO.C,U6*%
X206438100Y-104831200D03*
X205787859Y-104831200D03*
X205137619Y-104831200D03*
X204487381Y-104831200D03*
X203837141Y-104831200D03*
X203186900Y-104831200D03*
X203186900Y-109200000D03*
X203837141Y-109200000D03*
X204487381Y-109200000D03*
X205137619Y-109200000D03*
X205787859Y-109200000D03*
X206438100Y-109200000D03*
%TD*%
D40*
%TO.C,U9*%
X173505000Y-116325000D03*
X172235000Y-116325000D03*
X170965000Y-116325000D03*
X169695000Y-116325000D03*
X169695000Y-121275000D03*
X170965000Y-121275000D03*
X172235000Y-121275000D03*
X173505000Y-121275000D03*
%TD*%
D17*
%TO.C,C23*%
X188400000Y-119000000D03*
X188400000Y-116925000D03*
%TD*%
M02*
