%TF.GenerationSoftware,KiCad,Pcbnew,9.0.7*%
%TF.CreationDate,2026-04-17T00:56:38-04:00*%
%TF.ProjectId,capybara_rocket,63617079-6261-4726-915f-726f636b6574,A*%
%TF.SameCoordinates,Original*%
%TF.FileFunction,Paste,Bot*%
%TF.FilePolarity,Positive*%
%FSLAX46Y46*%
G04 Gerber Fmt 4.6, Leading zero omitted, Abs format (unit mm)*
G04 Created by KiCad (PCBNEW 9.0.7) date 2026-04-17 00:56:38*
%MOMM*%
%LPD*%
G01*
G04 APERTURE LIST*
%ADD10C,0.010000*%
G04 APERTURE END LIST*
D10*
%TO.C,REF\u002A\u002A*%
X109590000Y-125385000D02*
X109515000Y-125400000D01*
X109410000Y-125425000D01*
X109295000Y-125460000D01*
X109180000Y-125500000D01*
X109040000Y-125560000D01*
X108940000Y-125610000D01*
X108860000Y-125655000D01*
X108755000Y-125720000D01*
X108670000Y-125780000D01*
X108585000Y-125845000D01*
X108525000Y-125895000D01*
X108470000Y-125945000D01*
X108385000Y-126025000D01*
X108295000Y-126125000D01*
X108240000Y-126190000D01*
X108175000Y-126275000D01*
X108130000Y-126340000D01*
X108070000Y-126435000D01*
X108015000Y-126530000D01*
X107965000Y-126630000D01*
X107920000Y-126730000D01*
X107890000Y-126810000D01*
X107860000Y-126890000D01*
X107825000Y-127010000D01*
X107800000Y-127115000D01*
X107785000Y-127190000D01*
X106375000Y-127190000D01*
X106390000Y-127070000D01*
X106415000Y-126925000D01*
X106440000Y-126795000D01*
X106485000Y-126620000D01*
X106535000Y-126455000D01*
X106590000Y-126300000D01*
X106650000Y-126150000D01*
X106720000Y-126000000D01*
X106810000Y-125825000D01*
X106905000Y-125665000D01*
X106995000Y-125530000D01*
X107055000Y-125445000D01*
X107115000Y-125365000D01*
X107170000Y-125295000D01*
X107230000Y-125225000D01*
X107300000Y-125145000D01*
X107345000Y-125095000D01*
X107390000Y-125050000D01*
X107475000Y-124965000D01*
X107550000Y-124895000D01*
X107625000Y-124830000D01*
X107695000Y-124770000D01*
X107760000Y-124720000D01*
X107825000Y-124670000D01*
X107915000Y-124605000D01*
X108005000Y-124545000D01*
X108105000Y-124480000D01*
X108220000Y-124415000D01*
X108340000Y-124350000D01*
X108440000Y-124300000D01*
X108530000Y-124260000D01*
X108625000Y-124220000D01*
X108690000Y-124195000D01*
X108785000Y-124160000D01*
X108855000Y-124135000D01*
X108950000Y-124105000D01*
X109060000Y-124075000D01*
X109160000Y-124050000D01*
X109275000Y-124025000D01*
X109385000Y-124005000D01*
X109485000Y-123990000D01*
X109560000Y-123980000D01*
X109590000Y-123975000D01*
X109590000Y-125385000D01*
G36*
X109590000Y-125385000D02*
G01*
X109515000Y-125400000D01*
X109410000Y-125425000D01*
X109295000Y-125460000D01*
X109180000Y-125500000D01*
X109040000Y-125560000D01*
X108940000Y-125610000D01*
X108860000Y-125655000D01*
X108755000Y-125720000D01*
X108670000Y-125780000D01*
X108585000Y-125845000D01*
X108525000Y-125895000D01*
X108470000Y-125945000D01*
X108385000Y-126025000D01*
X108295000Y-126125000D01*
X108240000Y-126190000D01*
X108175000Y-126275000D01*
X108130000Y-126340000D01*
X108070000Y-126435000D01*
X108015000Y-126530000D01*
X107965000Y-126630000D01*
X107920000Y-126730000D01*
X107890000Y-126810000D01*
X107860000Y-126890000D01*
X107825000Y-127010000D01*
X107800000Y-127115000D01*
X107785000Y-127190000D01*
X106375000Y-127190000D01*
X106390000Y-127070000D01*
X106415000Y-126925000D01*
X106440000Y-126795000D01*
X106485000Y-126620000D01*
X106535000Y-126455000D01*
X106590000Y-126300000D01*
X106650000Y-126150000D01*
X106720000Y-126000000D01*
X106810000Y-125825000D01*
X106905000Y-125665000D01*
X106995000Y-125530000D01*
X107055000Y-125445000D01*
X107115000Y-125365000D01*
X107170000Y-125295000D01*
X107230000Y-125225000D01*
X107300000Y-125145000D01*
X107345000Y-125095000D01*
X107390000Y-125050000D01*
X107475000Y-124965000D01*
X107550000Y-124895000D01*
X107625000Y-124830000D01*
X107695000Y-124770000D01*
X107760000Y-124720000D01*
X107825000Y-124670000D01*
X107915000Y-124605000D01*
X108005000Y-124545000D01*
X108105000Y-124480000D01*
X108220000Y-124415000D01*
X108340000Y-124350000D01*
X108440000Y-124300000D01*
X108530000Y-124260000D01*
X108625000Y-124220000D01*
X108690000Y-124195000D01*
X108785000Y-124160000D01*
X108855000Y-124135000D01*
X108950000Y-124105000D01*
X109060000Y-124075000D01*
X109160000Y-124050000D01*
X109275000Y-124025000D01*
X109385000Y-124005000D01*
X109485000Y-123990000D01*
X109560000Y-123980000D01*
X109590000Y-123975000D01*
X109590000Y-125385000D01*
G37*
X107800000Y-128065000D02*
X107825000Y-128170000D01*
X107860000Y-128285000D01*
X107900000Y-128400000D01*
X107960000Y-128540000D01*
X108010000Y-128640000D01*
X108055000Y-128720000D01*
X108120000Y-128825000D01*
X108180000Y-128910000D01*
X108245000Y-128995000D01*
X108295000Y-129055000D01*
X108345000Y-129110000D01*
X108425000Y-129195000D01*
X108525000Y-129285000D01*
X108590000Y-129340000D01*
X108675000Y-129405000D01*
X108740000Y-129450000D01*
X108835000Y-129510000D01*
X108930000Y-129565000D01*
X109030000Y-129615000D01*
X109130000Y-129660000D01*
X109210000Y-129690000D01*
X109290000Y-129720000D01*
X109410000Y-129755000D01*
X109515000Y-129780000D01*
X109590000Y-129795000D01*
X109590000Y-131205000D01*
X109470000Y-131190000D01*
X109325000Y-131165000D01*
X109195000Y-131140000D01*
X109020000Y-131095000D01*
X108855000Y-131045000D01*
X108700000Y-130990000D01*
X108550000Y-130930000D01*
X108400000Y-130860000D01*
X108225000Y-130770000D01*
X108065000Y-130675000D01*
X107930000Y-130585000D01*
X107845000Y-130525000D01*
X107765000Y-130465000D01*
X107695000Y-130410000D01*
X107625000Y-130350000D01*
X107545000Y-130280000D01*
X107495000Y-130235000D01*
X107450000Y-130190000D01*
X107365000Y-130105000D01*
X107295000Y-130030000D01*
X107230000Y-129955000D01*
X107170000Y-129885000D01*
X107120000Y-129820000D01*
X107070000Y-129755000D01*
X107005000Y-129665000D01*
X106945000Y-129575000D01*
X106880000Y-129475000D01*
X106815000Y-129360000D01*
X106750000Y-129240000D01*
X106700000Y-129140000D01*
X106660000Y-129050000D01*
X106620000Y-128955000D01*
X106595000Y-128890000D01*
X106560000Y-128795000D01*
X106535000Y-128725000D01*
X106505000Y-128630000D01*
X106475000Y-128520000D01*
X106450000Y-128420000D01*
X106425000Y-128305000D01*
X106405000Y-128195000D01*
X106390000Y-128095000D01*
X106380000Y-128020000D01*
X106375000Y-127990000D01*
X107785000Y-127990000D01*
X107800000Y-128065000D01*
G36*
X107800000Y-128065000D02*
G01*
X107825000Y-128170000D01*
X107860000Y-128285000D01*
X107900000Y-128400000D01*
X107960000Y-128540000D01*
X108010000Y-128640000D01*
X108055000Y-128720000D01*
X108120000Y-128825000D01*
X108180000Y-128910000D01*
X108245000Y-128995000D01*
X108295000Y-129055000D01*
X108345000Y-129110000D01*
X108425000Y-129195000D01*
X108525000Y-129285000D01*
X108590000Y-129340000D01*
X108675000Y-129405000D01*
X108740000Y-129450000D01*
X108835000Y-129510000D01*
X108930000Y-129565000D01*
X109030000Y-129615000D01*
X109130000Y-129660000D01*
X109210000Y-129690000D01*
X109290000Y-129720000D01*
X109410000Y-129755000D01*
X109515000Y-129780000D01*
X109590000Y-129795000D01*
X109590000Y-131205000D01*
X109470000Y-131190000D01*
X109325000Y-131165000D01*
X109195000Y-131140000D01*
X109020000Y-131095000D01*
X108855000Y-131045000D01*
X108700000Y-130990000D01*
X108550000Y-130930000D01*
X108400000Y-130860000D01*
X108225000Y-130770000D01*
X108065000Y-130675000D01*
X107930000Y-130585000D01*
X107845000Y-130525000D01*
X107765000Y-130465000D01*
X107695000Y-130410000D01*
X107625000Y-130350000D01*
X107545000Y-130280000D01*
X107495000Y-130235000D01*
X107450000Y-130190000D01*
X107365000Y-130105000D01*
X107295000Y-130030000D01*
X107230000Y-129955000D01*
X107170000Y-129885000D01*
X107120000Y-129820000D01*
X107070000Y-129755000D01*
X107005000Y-129665000D01*
X106945000Y-129575000D01*
X106880000Y-129475000D01*
X106815000Y-129360000D01*
X106750000Y-129240000D01*
X106700000Y-129140000D01*
X106660000Y-129050000D01*
X106620000Y-128955000D01*
X106595000Y-128890000D01*
X106560000Y-128795000D01*
X106535000Y-128725000D01*
X106505000Y-128630000D01*
X106475000Y-128520000D01*
X106450000Y-128420000D01*
X106425000Y-128305000D01*
X106405000Y-128195000D01*
X106390000Y-128095000D01*
X106380000Y-128020000D01*
X106375000Y-127990000D01*
X107785000Y-127990000D01*
X107800000Y-128065000D01*
G37*
X110510000Y-123990000D02*
X110655000Y-124015000D01*
X110785000Y-124040000D01*
X110960000Y-124085000D01*
X111125000Y-124135000D01*
X111280000Y-124190000D01*
X111430000Y-124250000D01*
X111580000Y-124320000D01*
X111755000Y-124410000D01*
X111915000Y-124505000D01*
X112050000Y-124595000D01*
X112135000Y-124655000D01*
X112215000Y-124715000D01*
X112285000Y-124770000D01*
X112355000Y-124830000D01*
X112435000Y-124900000D01*
X112485000Y-124945000D01*
X112530000Y-124990000D01*
X112615000Y-125075000D01*
X112685000Y-125150000D01*
X112750000Y-125225000D01*
X112810000Y-125295000D01*
X112860000Y-125360000D01*
X112910000Y-125425000D01*
X112975000Y-125515000D01*
X113035000Y-125605000D01*
X113100000Y-125705000D01*
X113165000Y-125820000D01*
X113230000Y-125940000D01*
X113280000Y-126040000D01*
X113320000Y-126130000D01*
X113360000Y-126225000D01*
X113385000Y-126290000D01*
X113420000Y-126385000D01*
X113445000Y-126455000D01*
X113475000Y-126550000D01*
X113505000Y-126660000D01*
X113530000Y-126760000D01*
X113555000Y-126875000D01*
X113575000Y-126985000D01*
X113590000Y-127085000D01*
X113600000Y-127160000D01*
X113605000Y-127190000D01*
X112195000Y-127190000D01*
X112180000Y-127115000D01*
X112155000Y-127010000D01*
X112120000Y-126895000D01*
X112080000Y-126780000D01*
X112020000Y-126640000D01*
X111970000Y-126540000D01*
X111925000Y-126460000D01*
X111860000Y-126355000D01*
X111800000Y-126270000D01*
X111735000Y-126185000D01*
X111685000Y-126125000D01*
X111635000Y-126070000D01*
X111555000Y-125985000D01*
X111455000Y-125895000D01*
X111390000Y-125840000D01*
X111305000Y-125775000D01*
X111240000Y-125730000D01*
X111145000Y-125670000D01*
X111050000Y-125615000D01*
X110950000Y-125565000D01*
X110850000Y-125520000D01*
X110770000Y-125490000D01*
X110690000Y-125460000D01*
X110570000Y-125425000D01*
X110465000Y-125400000D01*
X110390000Y-125385000D01*
X110390000Y-123975000D01*
X110510000Y-123990000D01*
G36*
X110510000Y-123990000D02*
G01*
X110655000Y-124015000D01*
X110785000Y-124040000D01*
X110960000Y-124085000D01*
X111125000Y-124135000D01*
X111280000Y-124190000D01*
X111430000Y-124250000D01*
X111580000Y-124320000D01*
X111755000Y-124410000D01*
X111915000Y-124505000D01*
X112050000Y-124595000D01*
X112135000Y-124655000D01*
X112215000Y-124715000D01*
X112285000Y-124770000D01*
X112355000Y-124830000D01*
X112435000Y-124900000D01*
X112485000Y-124945000D01*
X112530000Y-124990000D01*
X112615000Y-125075000D01*
X112685000Y-125150000D01*
X112750000Y-125225000D01*
X112810000Y-125295000D01*
X112860000Y-125360000D01*
X112910000Y-125425000D01*
X112975000Y-125515000D01*
X113035000Y-125605000D01*
X113100000Y-125705000D01*
X113165000Y-125820000D01*
X113230000Y-125940000D01*
X113280000Y-126040000D01*
X113320000Y-126130000D01*
X113360000Y-126225000D01*
X113385000Y-126290000D01*
X113420000Y-126385000D01*
X113445000Y-126455000D01*
X113475000Y-126550000D01*
X113505000Y-126660000D01*
X113530000Y-126760000D01*
X113555000Y-126875000D01*
X113575000Y-126985000D01*
X113590000Y-127085000D01*
X113600000Y-127160000D01*
X113605000Y-127190000D01*
X112195000Y-127190000D01*
X112180000Y-127115000D01*
X112155000Y-127010000D01*
X112120000Y-126895000D01*
X112080000Y-126780000D01*
X112020000Y-126640000D01*
X111970000Y-126540000D01*
X111925000Y-126460000D01*
X111860000Y-126355000D01*
X111800000Y-126270000D01*
X111735000Y-126185000D01*
X111685000Y-126125000D01*
X111635000Y-126070000D01*
X111555000Y-125985000D01*
X111455000Y-125895000D01*
X111390000Y-125840000D01*
X111305000Y-125775000D01*
X111240000Y-125730000D01*
X111145000Y-125670000D01*
X111050000Y-125615000D01*
X110950000Y-125565000D01*
X110850000Y-125520000D01*
X110770000Y-125490000D01*
X110690000Y-125460000D01*
X110570000Y-125425000D01*
X110465000Y-125400000D01*
X110390000Y-125385000D01*
X110390000Y-123975000D01*
X110510000Y-123990000D01*
G37*
X113590000Y-128110000D02*
X113565000Y-128255000D01*
X113540000Y-128385000D01*
X113495000Y-128560000D01*
X113445000Y-128725000D01*
X113390000Y-128880000D01*
X113330000Y-129030000D01*
X113260000Y-129180000D01*
X113170000Y-129355000D01*
X113075000Y-129515000D01*
X112985000Y-129650000D01*
X112925000Y-129735000D01*
X112865000Y-129815000D01*
X112810000Y-129885000D01*
X112750000Y-129955000D01*
X112680000Y-130035000D01*
X112635000Y-130085000D01*
X112590000Y-130130000D01*
X112505000Y-130215000D01*
X112430000Y-130285000D01*
X112355000Y-130350000D01*
X112285000Y-130410000D01*
X112220000Y-130460000D01*
X112155000Y-130510000D01*
X112065000Y-130575000D01*
X111975000Y-130635000D01*
X111875000Y-130700000D01*
X111760000Y-130765000D01*
X111640000Y-130830000D01*
X111540000Y-130880000D01*
X111450000Y-130920000D01*
X111355000Y-130960000D01*
X111290000Y-130985000D01*
X111195000Y-131020000D01*
X111125000Y-131045000D01*
X111030000Y-131075000D01*
X110920000Y-131105000D01*
X110820000Y-131130000D01*
X110705000Y-131155000D01*
X110595000Y-131175000D01*
X110495000Y-131190000D01*
X110420000Y-131200000D01*
X110390000Y-131205000D01*
X110390000Y-129795000D01*
X110465000Y-129780000D01*
X110570000Y-129755000D01*
X110685000Y-129720000D01*
X110800000Y-129680000D01*
X110940000Y-129620000D01*
X111040000Y-129570000D01*
X111120000Y-129525000D01*
X111225000Y-129460000D01*
X111310000Y-129400000D01*
X111395000Y-129335000D01*
X111455000Y-129285000D01*
X111510000Y-129235000D01*
X111595000Y-129155000D01*
X111685000Y-129055000D01*
X111740000Y-128990000D01*
X111805000Y-128905000D01*
X111850000Y-128840000D01*
X111910000Y-128745000D01*
X111965000Y-128650000D01*
X112015000Y-128550000D01*
X112060000Y-128450000D01*
X112090000Y-128370000D01*
X112120000Y-128290000D01*
X112155000Y-128170000D01*
X112180000Y-128065000D01*
X112195000Y-127990000D01*
X113605000Y-127990000D01*
X113590000Y-128110000D01*
G36*
X113590000Y-128110000D02*
G01*
X113565000Y-128255000D01*
X113540000Y-128385000D01*
X113495000Y-128560000D01*
X113445000Y-128725000D01*
X113390000Y-128880000D01*
X113330000Y-129030000D01*
X113260000Y-129180000D01*
X113170000Y-129355000D01*
X113075000Y-129515000D01*
X112985000Y-129650000D01*
X112925000Y-129735000D01*
X112865000Y-129815000D01*
X112810000Y-129885000D01*
X112750000Y-129955000D01*
X112680000Y-130035000D01*
X112635000Y-130085000D01*
X112590000Y-130130000D01*
X112505000Y-130215000D01*
X112430000Y-130285000D01*
X112355000Y-130350000D01*
X112285000Y-130410000D01*
X112220000Y-130460000D01*
X112155000Y-130510000D01*
X112065000Y-130575000D01*
X111975000Y-130635000D01*
X111875000Y-130700000D01*
X111760000Y-130765000D01*
X111640000Y-130830000D01*
X111540000Y-130880000D01*
X111450000Y-130920000D01*
X111355000Y-130960000D01*
X111290000Y-130985000D01*
X111195000Y-131020000D01*
X111125000Y-131045000D01*
X111030000Y-131075000D01*
X110920000Y-131105000D01*
X110820000Y-131130000D01*
X110705000Y-131155000D01*
X110595000Y-131175000D01*
X110495000Y-131190000D01*
X110420000Y-131200000D01*
X110390000Y-131205000D01*
X110390000Y-129795000D01*
X110465000Y-129780000D01*
X110570000Y-129755000D01*
X110685000Y-129720000D01*
X110800000Y-129680000D01*
X110940000Y-129620000D01*
X111040000Y-129570000D01*
X111120000Y-129525000D01*
X111225000Y-129460000D01*
X111310000Y-129400000D01*
X111395000Y-129335000D01*
X111455000Y-129285000D01*
X111510000Y-129235000D01*
X111595000Y-129155000D01*
X111685000Y-129055000D01*
X111740000Y-128990000D01*
X111805000Y-128905000D01*
X111850000Y-128840000D01*
X111910000Y-128745000D01*
X111965000Y-128650000D01*
X112015000Y-128550000D01*
X112060000Y-128450000D01*
X112090000Y-128370000D01*
X112120000Y-128290000D01*
X112155000Y-128170000D01*
X112180000Y-128065000D01*
X112195000Y-127990000D01*
X113605000Y-127990000D01*
X113590000Y-128110000D01*
G37*
X224590000Y-125385000D02*
X224515000Y-125400000D01*
X224410000Y-125425000D01*
X224295000Y-125460000D01*
X224180000Y-125500000D01*
X224040000Y-125560000D01*
X223940000Y-125610000D01*
X223860000Y-125655000D01*
X223755000Y-125720000D01*
X223670000Y-125780000D01*
X223585000Y-125845000D01*
X223525000Y-125895000D01*
X223470000Y-125945000D01*
X223385000Y-126025000D01*
X223295000Y-126125000D01*
X223240000Y-126190000D01*
X223175000Y-126275000D01*
X223130000Y-126340000D01*
X223070000Y-126435000D01*
X223015000Y-126530000D01*
X222965000Y-126630000D01*
X222920000Y-126730000D01*
X222890000Y-126810000D01*
X222860000Y-126890000D01*
X222825000Y-127010000D01*
X222800000Y-127115000D01*
X222785000Y-127190000D01*
X221375000Y-127190000D01*
X221390000Y-127070000D01*
X221415000Y-126925000D01*
X221440000Y-126795000D01*
X221485000Y-126620000D01*
X221535000Y-126455000D01*
X221590000Y-126300000D01*
X221650000Y-126150000D01*
X221720000Y-126000000D01*
X221810000Y-125825000D01*
X221905000Y-125665000D01*
X221995000Y-125530000D01*
X222055000Y-125445000D01*
X222115000Y-125365000D01*
X222170000Y-125295000D01*
X222230000Y-125225000D01*
X222300000Y-125145000D01*
X222345000Y-125095000D01*
X222390000Y-125050000D01*
X222475000Y-124965000D01*
X222550000Y-124895000D01*
X222625000Y-124830000D01*
X222695000Y-124770000D01*
X222760000Y-124720000D01*
X222825000Y-124670000D01*
X222915000Y-124605000D01*
X223005000Y-124545000D01*
X223105000Y-124480000D01*
X223220000Y-124415000D01*
X223340000Y-124350000D01*
X223440000Y-124300000D01*
X223530000Y-124260000D01*
X223625000Y-124220000D01*
X223690000Y-124195000D01*
X223785000Y-124160000D01*
X223855000Y-124135000D01*
X223950000Y-124105000D01*
X224060000Y-124075000D01*
X224160000Y-124050000D01*
X224275000Y-124025000D01*
X224385000Y-124005000D01*
X224485000Y-123990000D01*
X224560000Y-123980000D01*
X224590000Y-123975000D01*
X224590000Y-125385000D01*
G36*
X224590000Y-125385000D02*
G01*
X224515000Y-125400000D01*
X224410000Y-125425000D01*
X224295000Y-125460000D01*
X224180000Y-125500000D01*
X224040000Y-125560000D01*
X223940000Y-125610000D01*
X223860000Y-125655000D01*
X223755000Y-125720000D01*
X223670000Y-125780000D01*
X223585000Y-125845000D01*
X223525000Y-125895000D01*
X223470000Y-125945000D01*
X223385000Y-126025000D01*
X223295000Y-126125000D01*
X223240000Y-126190000D01*
X223175000Y-126275000D01*
X223130000Y-126340000D01*
X223070000Y-126435000D01*
X223015000Y-126530000D01*
X222965000Y-126630000D01*
X222920000Y-126730000D01*
X222890000Y-126810000D01*
X222860000Y-126890000D01*
X222825000Y-127010000D01*
X222800000Y-127115000D01*
X222785000Y-127190000D01*
X221375000Y-127190000D01*
X221390000Y-127070000D01*
X221415000Y-126925000D01*
X221440000Y-126795000D01*
X221485000Y-126620000D01*
X221535000Y-126455000D01*
X221590000Y-126300000D01*
X221650000Y-126150000D01*
X221720000Y-126000000D01*
X221810000Y-125825000D01*
X221905000Y-125665000D01*
X221995000Y-125530000D01*
X222055000Y-125445000D01*
X222115000Y-125365000D01*
X222170000Y-125295000D01*
X222230000Y-125225000D01*
X222300000Y-125145000D01*
X222345000Y-125095000D01*
X222390000Y-125050000D01*
X222475000Y-124965000D01*
X222550000Y-124895000D01*
X222625000Y-124830000D01*
X222695000Y-124770000D01*
X222760000Y-124720000D01*
X222825000Y-124670000D01*
X222915000Y-124605000D01*
X223005000Y-124545000D01*
X223105000Y-124480000D01*
X223220000Y-124415000D01*
X223340000Y-124350000D01*
X223440000Y-124300000D01*
X223530000Y-124260000D01*
X223625000Y-124220000D01*
X223690000Y-124195000D01*
X223785000Y-124160000D01*
X223855000Y-124135000D01*
X223950000Y-124105000D01*
X224060000Y-124075000D01*
X224160000Y-124050000D01*
X224275000Y-124025000D01*
X224385000Y-124005000D01*
X224485000Y-123990000D01*
X224560000Y-123980000D01*
X224590000Y-123975000D01*
X224590000Y-125385000D01*
G37*
X222800000Y-128065000D02*
X222825000Y-128170000D01*
X222860000Y-128285000D01*
X222900000Y-128400000D01*
X222960000Y-128540000D01*
X223010000Y-128640000D01*
X223055000Y-128720000D01*
X223120000Y-128825000D01*
X223180000Y-128910000D01*
X223245000Y-128995000D01*
X223295000Y-129055000D01*
X223345000Y-129110000D01*
X223425000Y-129195000D01*
X223525000Y-129285000D01*
X223590000Y-129340000D01*
X223675000Y-129405000D01*
X223740000Y-129450000D01*
X223835000Y-129510000D01*
X223930000Y-129565000D01*
X224030000Y-129615000D01*
X224130000Y-129660000D01*
X224210000Y-129690000D01*
X224290000Y-129720000D01*
X224410000Y-129755000D01*
X224515000Y-129780000D01*
X224590000Y-129795000D01*
X224590000Y-131205000D01*
X224470000Y-131190000D01*
X224325000Y-131165000D01*
X224195000Y-131140000D01*
X224020000Y-131095000D01*
X223855000Y-131045000D01*
X223700000Y-130990000D01*
X223550000Y-130930000D01*
X223400000Y-130860000D01*
X223225000Y-130770000D01*
X223065000Y-130675000D01*
X222930000Y-130585000D01*
X222845000Y-130525000D01*
X222765000Y-130465000D01*
X222695000Y-130410000D01*
X222625000Y-130350000D01*
X222545000Y-130280000D01*
X222495000Y-130235000D01*
X222450000Y-130190000D01*
X222365000Y-130105000D01*
X222295000Y-130030000D01*
X222230000Y-129955000D01*
X222170000Y-129885000D01*
X222120000Y-129820000D01*
X222070000Y-129755000D01*
X222005000Y-129665000D01*
X221945000Y-129575000D01*
X221880000Y-129475000D01*
X221815000Y-129360000D01*
X221750000Y-129240000D01*
X221700000Y-129140000D01*
X221660000Y-129050000D01*
X221620000Y-128955000D01*
X221595000Y-128890000D01*
X221560000Y-128795000D01*
X221535000Y-128725000D01*
X221505000Y-128630000D01*
X221475000Y-128520000D01*
X221450000Y-128420000D01*
X221425000Y-128305000D01*
X221405000Y-128195000D01*
X221390000Y-128095000D01*
X221380000Y-128020000D01*
X221375000Y-127990000D01*
X222785000Y-127990000D01*
X222800000Y-128065000D01*
G36*
X222800000Y-128065000D02*
G01*
X222825000Y-128170000D01*
X222860000Y-128285000D01*
X222900000Y-128400000D01*
X222960000Y-128540000D01*
X223010000Y-128640000D01*
X223055000Y-128720000D01*
X223120000Y-128825000D01*
X223180000Y-128910000D01*
X223245000Y-128995000D01*
X223295000Y-129055000D01*
X223345000Y-129110000D01*
X223425000Y-129195000D01*
X223525000Y-129285000D01*
X223590000Y-129340000D01*
X223675000Y-129405000D01*
X223740000Y-129450000D01*
X223835000Y-129510000D01*
X223930000Y-129565000D01*
X224030000Y-129615000D01*
X224130000Y-129660000D01*
X224210000Y-129690000D01*
X224290000Y-129720000D01*
X224410000Y-129755000D01*
X224515000Y-129780000D01*
X224590000Y-129795000D01*
X224590000Y-131205000D01*
X224470000Y-131190000D01*
X224325000Y-131165000D01*
X224195000Y-131140000D01*
X224020000Y-131095000D01*
X223855000Y-131045000D01*
X223700000Y-130990000D01*
X223550000Y-130930000D01*
X223400000Y-130860000D01*
X223225000Y-130770000D01*
X223065000Y-130675000D01*
X222930000Y-130585000D01*
X222845000Y-130525000D01*
X222765000Y-130465000D01*
X222695000Y-130410000D01*
X222625000Y-130350000D01*
X222545000Y-130280000D01*
X222495000Y-130235000D01*
X222450000Y-130190000D01*
X222365000Y-130105000D01*
X222295000Y-130030000D01*
X222230000Y-129955000D01*
X222170000Y-129885000D01*
X222120000Y-129820000D01*
X222070000Y-129755000D01*
X222005000Y-129665000D01*
X221945000Y-129575000D01*
X221880000Y-129475000D01*
X221815000Y-129360000D01*
X221750000Y-129240000D01*
X221700000Y-129140000D01*
X221660000Y-129050000D01*
X221620000Y-128955000D01*
X221595000Y-128890000D01*
X221560000Y-128795000D01*
X221535000Y-128725000D01*
X221505000Y-128630000D01*
X221475000Y-128520000D01*
X221450000Y-128420000D01*
X221425000Y-128305000D01*
X221405000Y-128195000D01*
X221390000Y-128095000D01*
X221380000Y-128020000D01*
X221375000Y-127990000D01*
X222785000Y-127990000D01*
X222800000Y-128065000D01*
G37*
X225510000Y-123990000D02*
X225655000Y-124015000D01*
X225785000Y-124040000D01*
X225960000Y-124085000D01*
X226125000Y-124135000D01*
X226280000Y-124190000D01*
X226430000Y-124250000D01*
X226580000Y-124320000D01*
X226755000Y-124410000D01*
X226915000Y-124505000D01*
X227050000Y-124595000D01*
X227135000Y-124655000D01*
X227215000Y-124715000D01*
X227285000Y-124770000D01*
X227355000Y-124830000D01*
X227435000Y-124900000D01*
X227485000Y-124945000D01*
X227530000Y-124990000D01*
X227615000Y-125075000D01*
X227685000Y-125150000D01*
X227750000Y-125225000D01*
X227810000Y-125295000D01*
X227860000Y-125360000D01*
X227910000Y-125425000D01*
X227975000Y-125515000D01*
X228035000Y-125605000D01*
X228100000Y-125705000D01*
X228165000Y-125820000D01*
X228230000Y-125940000D01*
X228280000Y-126040000D01*
X228320000Y-126130000D01*
X228360000Y-126225000D01*
X228385000Y-126290000D01*
X228420000Y-126385000D01*
X228445000Y-126455000D01*
X228475000Y-126550000D01*
X228505000Y-126660000D01*
X228530000Y-126760000D01*
X228555000Y-126875000D01*
X228575000Y-126985000D01*
X228590000Y-127085000D01*
X228600000Y-127160000D01*
X228605000Y-127190000D01*
X227195000Y-127190000D01*
X227180000Y-127115000D01*
X227155000Y-127010000D01*
X227120000Y-126895000D01*
X227080000Y-126780000D01*
X227020000Y-126640000D01*
X226970000Y-126540000D01*
X226925000Y-126460000D01*
X226860000Y-126355000D01*
X226800000Y-126270000D01*
X226735000Y-126185000D01*
X226685000Y-126125000D01*
X226635000Y-126070000D01*
X226555000Y-125985000D01*
X226455000Y-125895000D01*
X226390000Y-125840000D01*
X226305000Y-125775000D01*
X226240000Y-125730000D01*
X226145000Y-125670000D01*
X226050000Y-125615000D01*
X225950000Y-125565000D01*
X225850000Y-125520000D01*
X225770000Y-125490000D01*
X225690000Y-125460000D01*
X225570000Y-125425000D01*
X225465000Y-125400000D01*
X225390000Y-125385000D01*
X225390000Y-123975000D01*
X225510000Y-123990000D01*
G36*
X225510000Y-123990000D02*
G01*
X225655000Y-124015000D01*
X225785000Y-124040000D01*
X225960000Y-124085000D01*
X226125000Y-124135000D01*
X226280000Y-124190000D01*
X226430000Y-124250000D01*
X226580000Y-124320000D01*
X226755000Y-124410000D01*
X226915000Y-124505000D01*
X227050000Y-124595000D01*
X227135000Y-124655000D01*
X227215000Y-124715000D01*
X227285000Y-124770000D01*
X227355000Y-124830000D01*
X227435000Y-124900000D01*
X227485000Y-124945000D01*
X227530000Y-124990000D01*
X227615000Y-125075000D01*
X227685000Y-125150000D01*
X227750000Y-125225000D01*
X227810000Y-125295000D01*
X227860000Y-125360000D01*
X227910000Y-125425000D01*
X227975000Y-125515000D01*
X228035000Y-125605000D01*
X228100000Y-125705000D01*
X228165000Y-125820000D01*
X228230000Y-125940000D01*
X228280000Y-126040000D01*
X228320000Y-126130000D01*
X228360000Y-126225000D01*
X228385000Y-126290000D01*
X228420000Y-126385000D01*
X228445000Y-126455000D01*
X228475000Y-126550000D01*
X228505000Y-126660000D01*
X228530000Y-126760000D01*
X228555000Y-126875000D01*
X228575000Y-126985000D01*
X228590000Y-127085000D01*
X228600000Y-127160000D01*
X228605000Y-127190000D01*
X227195000Y-127190000D01*
X227180000Y-127115000D01*
X227155000Y-127010000D01*
X227120000Y-126895000D01*
X227080000Y-126780000D01*
X227020000Y-126640000D01*
X226970000Y-126540000D01*
X226925000Y-126460000D01*
X226860000Y-126355000D01*
X226800000Y-126270000D01*
X226735000Y-126185000D01*
X226685000Y-126125000D01*
X226635000Y-126070000D01*
X226555000Y-125985000D01*
X226455000Y-125895000D01*
X226390000Y-125840000D01*
X226305000Y-125775000D01*
X226240000Y-125730000D01*
X226145000Y-125670000D01*
X226050000Y-125615000D01*
X225950000Y-125565000D01*
X225850000Y-125520000D01*
X225770000Y-125490000D01*
X225690000Y-125460000D01*
X225570000Y-125425000D01*
X225465000Y-125400000D01*
X225390000Y-125385000D01*
X225390000Y-123975000D01*
X225510000Y-123990000D01*
G37*
X228590000Y-128110000D02*
X228565000Y-128255000D01*
X228540000Y-128385000D01*
X228495000Y-128560000D01*
X228445000Y-128725000D01*
X228390000Y-128880000D01*
X228330000Y-129030000D01*
X228260000Y-129180000D01*
X228170000Y-129355000D01*
X228075000Y-129515000D01*
X227985000Y-129650000D01*
X227925000Y-129735000D01*
X227865000Y-129815000D01*
X227810000Y-129885000D01*
X227750000Y-129955000D01*
X227680000Y-130035000D01*
X227635000Y-130085000D01*
X227590000Y-130130000D01*
X227505000Y-130215000D01*
X227430000Y-130285000D01*
X227355000Y-130350000D01*
X227285000Y-130410000D01*
X227220000Y-130460000D01*
X227155000Y-130510000D01*
X227065000Y-130575000D01*
X226975000Y-130635000D01*
X226875000Y-130700000D01*
X226760000Y-130765000D01*
X226640000Y-130830000D01*
X226540000Y-130880000D01*
X226450000Y-130920000D01*
X226355000Y-130960000D01*
X226290000Y-130985000D01*
X226195000Y-131020000D01*
X226125000Y-131045000D01*
X226030000Y-131075000D01*
X225920000Y-131105000D01*
X225820000Y-131130000D01*
X225705000Y-131155000D01*
X225595000Y-131175000D01*
X225495000Y-131190000D01*
X225420000Y-131200000D01*
X225390000Y-131205000D01*
X225390000Y-129795000D01*
X225465000Y-129780000D01*
X225570000Y-129755000D01*
X225685000Y-129720000D01*
X225800000Y-129680000D01*
X225940000Y-129620000D01*
X226040000Y-129570000D01*
X226120000Y-129525000D01*
X226225000Y-129460000D01*
X226310000Y-129400000D01*
X226395000Y-129335000D01*
X226455000Y-129285000D01*
X226510000Y-129235000D01*
X226595000Y-129155000D01*
X226685000Y-129055000D01*
X226740000Y-128990000D01*
X226805000Y-128905000D01*
X226850000Y-128840000D01*
X226910000Y-128745000D01*
X226965000Y-128650000D01*
X227015000Y-128550000D01*
X227060000Y-128450000D01*
X227090000Y-128370000D01*
X227120000Y-128290000D01*
X227155000Y-128170000D01*
X227180000Y-128065000D01*
X227195000Y-127990000D01*
X228605000Y-127990000D01*
X228590000Y-128110000D01*
G36*
X228590000Y-128110000D02*
G01*
X228565000Y-128255000D01*
X228540000Y-128385000D01*
X228495000Y-128560000D01*
X228445000Y-128725000D01*
X228390000Y-128880000D01*
X228330000Y-129030000D01*
X228260000Y-129180000D01*
X228170000Y-129355000D01*
X228075000Y-129515000D01*
X227985000Y-129650000D01*
X227925000Y-129735000D01*
X227865000Y-129815000D01*
X227810000Y-129885000D01*
X227750000Y-129955000D01*
X227680000Y-130035000D01*
X227635000Y-130085000D01*
X227590000Y-130130000D01*
X227505000Y-130215000D01*
X227430000Y-130285000D01*
X227355000Y-130350000D01*
X227285000Y-130410000D01*
X227220000Y-130460000D01*
X227155000Y-130510000D01*
X227065000Y-130575000D01*
X226975000Y-130635000D01*
X226875000Y-130700000D01*
X226760000Y-130765000D01*
X226640000Y-130830000D01*
X226540000Y-130880000D01*
X226450000Y-130920000D01*
X226355000Y-130960000D01*
X226290000Y-130985000D01*
X226195000Y-131020000D01*
X226125000Y-131045000D01*
X226030000Y-131075000D01*
X225920000Y-131105000D01*
X225820000Y-131130000D01*
X225705000Y-131155000D01*
X225595000Y-131175000D01*
X225495000Y-131190000D01*
X225420000Y-131200000D01*
X225390000Y-131205000D01*
X225390000Y-129795000D01*
X225465000Y-129780000D01*
X225570000Y-129755000D01*
X225685000Y-129720000D01*
X225800000Y-129680000D01*
X225940000Y-129620000D01*
X226040000Y-129570000D01*
X226120000Y-129525000D01*
X226225000Y-129460000D01*
X226310000Y-129400000D01*
X226395000Y-129335000D01*
X226455000Y-129285000D01*
X226510000Y-129235000D01*
X226595000Y-129155000D01*
X226685000Y-129055000D01*
X226740000Y-128990000D01*
X226805000Y-128905000D01*
X226850000Y-128840000D01*
X226910000Y-128745000D01*
X226965000Y-128650000D01*
X227015000Y-128550000D01*
X227060000Y-128450000D01*
X227090000Y-128370000D01*
X227120000Y-128290000D01*
X227155000Y-128170000D01*
X227180000Y-128065000D01*
X227195000Y-127990000D01*
X228605000Y-127990000D01*
X228590000Y-128110000D01*
G37*
X109590000Y-70385000D02*
X109515000Y-70400000D01*
X109410000Y-70425000D01*
X109295000Y-70460000D01*
X109180000Y-70500000D01*
X109040000Y-70560000D01*
X108940000Y-70610000D01*
X108860000Y-70655000D01*
X108755000Y-70720000D01*
X108670000Y-70780000D01*
X108585000Y-70845000D01*
X108525000Y-70895000D01*
X108470000Y-70945000D01*
X108385000Y-71025000D01*
X108295000Y-71125000D01*
X108240000Y-71190000D01*
X108175000Y-71275000D01*
X108130000Y-71340000D01*
X108070000Y-71435000D01*
X108015000Y-71530000D01*
X107965000Y-71630000D01*
X107920000Y-71730000D01*
X107890000Y-71810000D01*
X107860000Y-71890000D01*
X107825000Y-72010000D01*
X107800000Y-72115000D01*
X107785000Y-72190000D01*
X106375000Y-72190000D01*
X106390000Y-72070000D01*
X106415000Y-71925000D01*
X106440000Y-71795000D01*
X106485000Y-71620000D01*
X106535000Y-71455000D01*
X106590000Y-71300000D01*
X106650000Y-71150000D01*
X106720000Y-71000000D01*
X106810000Y-70825000D01*
X106905000Y-70665000D01*
X106995000Y-70530000D01*
X107055000Y-70445000D01*
X107115000Y-70365000D01*
X107170000Y-70295000D01*
X107230000Y-70225000D01*
X107300000Y-70145000D01*
X107345000Y-70095000D01*
X107390000Y-70050000D01*
X107475000Y-69965000D01*
X107550000Y-69895000D01*
X107625000Y-69830000D01*
X107695000Y-69770000D01*
X107760000Y-69720000D01*
X107825000Y-69670000D01*
X107915000Y-69605000D01*
X108005000Y-69545000D01*
X108105000Y-69480000D01*
X108220000Y-69415000D01*
X108340000Y-69350000D01*
X108440000Y-69300000D01*
X108530000Y-69260000D01*
X108625000Y-69220000D01*
X108690000Y-69195000D01*
X108785000Y-69160000D01*
X108855000Y-69135000D01*
X108950000Y-69105000D01*
X109060000Y-69075000D01*
X109160000Y-69050000D01*
X109275000Y-69025000D01*
X109385000Y-69005000D01*
X109485000Y-68990000D01*
X109560000Y-68980000D01*
X109590000Y-68975000D01*
X109590000Y-70385000D01*
G36*
X109590000Y-70385000D02*
G01*
X109515000Y-70400000D01*
X109410000Y-70425000D01*
X109295000Y-70460000D01*
X109180000Y-70500000D01*
X109040000Y-70560000D01*
X108940000Y-70610000D01*
X108860000Y-70655000D01*
X108755000Y-70720000D01*
X108670000Y-70780000D01*
X108585000Y-70845000D01*
X108525000Y-70895000D01*
X108470000Y-70945000D01*
X108385000Y-71025000D01*
X108295000Y-71125000D01*
X108240000Y-71190000D01*
X108175000Y-71275000D01*
X108130000Y-71340000D01*
X108070000Y-71435000D01*
X108015000Y-71530000D01*
X107965000Y-71630000D01*
X107920000Y-71730000D01*
X107890000Y-71810000D01*
X107860000Y-71890000D01*
X107825000Y-72010000D01*
X107800000Y-72115000D01*
X107785000Y-72190000D01*
X106375000Y-72190000D01*
X106390000Y-72070000D01*
X106415000Y-71925000D01*
X106440000Y-71795000D01*
X106485000Y-71620000D01*
X106535000Y-71455000D01*
X106590000Y-71300000D01*
X106650000Y-71150000D01*
X106720000Y-71000000D01*
X106810000Y-70825000D01*
X106905000Y-70665000D01*
X106995000Y-70530000D01*
X107055000Y-70445000D01*
X107115000Y-70365000D01*
X107170000Y-70295000D01*
X107230000Y-70225000D01*
X107300000Y-70145000D01*
X107345000Y-70095000D01*
X107390000Y-70050000D01*
X107475000Y-69965000D01*
X107550000Y-69895000D01*
X107625000Y-69830000D01*
X107695000Y-69770000D01*
X107760000Y-69720000D01*
X107825000Y-69670000D01*
X107915000Y-69605000D01*
X108005000Y-69545000D01*
X108105000Y-69480000D01*
X108220000Y-69415000D01*
X108340000Y-69350000D01*
X108440000Y-69300000D01*
X108530000Y-69260000D01*
X108625000Y-69220000D01*
X108690000Y-69195000D01*
X108785000Y-69160000D01*
X108855000Y-69135000D01*
X108950000Y-69105000D01*
X109060000Y-69075000D01*
X109160000Y-69050000D01*
X109275000Y-69025000D01*
X109385000Y-69005000D01*
X109485000Y-68990000D01*
X109560000Y-68980000D01*
X109590000Y-68975000D01*
X109590000Y-70385000D01*
G37*
X107800000Y-73065000D02*
X107825000Y-73170000D01*
X107860000Y-73285000D01*
X107900000Y-73400000D01*
X107960000Y-73540000D01*
X108010000Y-73640000D01*
X108055000Y-73720000D01*
X108120000Y-73825000D01*
X108180000Y-73910000D01*
X108245000Y-73995000D01*
X108295000Y-74055000D01*
X108345000Y-74110000D01*
X108425000Y-74195000D01*
X108525000Y-74285000D01*
X108590000Y-74340000D01*
X108675000Y-74405000D01*
X108740000Y-74450000D01*
X108835000Y-74510000D01*
X108930000Y-74565000D01*
X109030000Y-74615000D01*
X109130000Y-74660000D01*
X109210000Y-74690000D01*
X109290000Y-74720000D01*
X109410000Y-74755000D01*
X109515000Y-74780000D01*
X109590000Y-74795000D01*
X109590000Y-76205000D01*
X109470000Y-76190000D01*
X109325000Y-76165000D01*
X109195000Y-76140000D01*
X109020000Y-76095000D01*
X108855000Y-76045000D01*
X108700000Y-75990000D01*
X108550000Y-75930000D01*
X108400000Y-75860000D01*
X108225000Y-75770000D01*
X108065000Y-75675000D01*
X107930000Y-75585000D01*
X107845000Y-75525000D01*
X107765000Y-75465000D01*
X107695000Y-75410000D01*
X107625000Y-75350000D01*
X107545000Y-75280000D01*
X107495000Y-75235000D01*
X107450000Y-75190000D01*
X107365000Y-75105000D01*
X107295000Y-75030000D01*
X107230000Y-74955000D01*
X107170000Y-74885000D01*
X107120000Y-74820000D01*
X107070000Y-74755000D01*
X107005000Y-74665000D01*
X106945000Y-74575000D01*
X106880000Y-74475000D01*
X106815000Y-74360000D01*
X106750000Y-74240000D01*
X106700000Y-74140000D01*
X106660000Y-74050000D01*
X106620000Y-73955000D01*
X106595000Y-73890000D01*
X106560000Y-73795000D01*
X106535000Y-73725000D01*
X106505000Y-73630000D01*
X106475000Y-73520000D01*
X106450000Y-73420000D01*
X106425000Y-73305000D01*
X106405000Y-73195000D01*
X106390000Y-73095000D01*
X106380000Y-73020000D01*
X106375000Y-72990000D01*
X107785000Y-72990000D01*
X107800000Y-73065000D01*
G36*
X107800000Y-73065000D02*
G01*
X107825000Y-73170000D01*
X107860000Y-73285000D01*
X107900000Y-73400000D01*
X107960000Y-73540000D01*
X108010000Y-73640000D01*
X108055000Y-73720000D01*
X108120000Y-73825000D01*
X108180000Y-73910000D01*
X108245000Y-73995000D01*
X108295000Y-74055000D01*
X108345000Y-74110000D01*
X108425000Y-74195000D01*
X108525000Y-74285000D01*
X108590000Y-74340000D01*
X108675000Y-74405000D01*
X108740000Y-74450000D01*
X108835000Y-74510000D01*
X108930000Y-74565000D01*
X109030000Y-74615000D01*
X109130000Y-74660000D01*
X109210000Y-74690000D01*
X109290000Y-74720000D01*
X109410000Y-74755000D01*
X109515000Y-74780000D01*
X109590000Y-74795000D01*
X109590000Y-76205000D01*
X109470000Y-76190000D01*
X109325000Y-76165000D01*
X109195000Y-76140000D01*
X109020000Y-76095000D01*
X108855000Y-76045000D01*
X108700000Y-75990000D01*
X108550000Y-75930000D01*
X108400000Y-75860000D01*
X108225000Y-75770000D01*
X108065000Y-75675000D01*
X107930000Y-75585000D01*
X107845000Y-75525000D01*
X107765000Y-75465000D01*
X107695000Y-75410000D01*
X107625000Y-75350000D01*
X107545000Y-75280000D01*
X107495000Y-75235000D01*
X107450000Y-75190000D01*
X107365000Y-75105000D01*
X107295000Y-75030000D01*
X107230000Y-74955000D01*
X107170000Y-74885000D01*
X107120000Y-74820000D01*
X107070000Y-74755000D01*
X107005000Y-74665000D01*
X106945000Y-74575000D01*
X106880000Y-74475000D01*
X106815000Y-74360000D01*
X106750000Y-74240000D01*
X106700000Y-74140000D01*
X106660000Y-74050000D01*
X106620000Y-73955000D01*
X106595000Y-73890000D01*
X106560000Y-73795000D01*
X106535000Y-73725000D01*
X106505000Y-73630000D01*
X106475000Y-73520000D01*
X106450000Y-73420000D01*
X106425000Y-73305000D01*
X106405000Y-73195000D01*
X106390000Y-73095000D01*
X106380000Y-73020000D01*
X106375000Y-72990000D01*
X107785000Y-72990000D01*
X107800000Y-73065000D01*
G37*
X110510000Y-68990000D02*
X110655000Y-69015000D01*
X110785000Y-69040000D01*
X110960000Y-69085000D01*
X111125000Y-69135000D01*
X111280000Y-69190000D01*
X111430000Y-69250000D01*
X111580000Y-69320000D01*
X111755000Y-69410000D01*
X111915000Y-69505000D01*
X112050000Y-69595000D01*
X112135000Y-69655000D01*
X112215000Y-69715000D01*
X112285000Y-69770000D01*
X112355000Y-69830000D01*
X112435000Y-69900000D01*
X112485000Y-69945000D01*
X112530000Y-69990000D01*
X112615000Y-70075000D01*
X112685000Y-70150000D01*
X112750000Y-70225000D01*
X112810000Y-70295000D01*
X112860000Y-70360000D01*
X112910000Y-70425000D01*
X112975000Y-70515000D01*
X113035000Y-70605000D01*
X113100000Y-70705000D01*
X113165000Y-70820000D01*
X113230000Y-70940000D01*
X113280000Y-71040000D01*
X113320000Y-71130000D01*
X113360000Y-71225000D01*
X113385000Y-71290000D01*
X113420000Y-71385000D01*
X113445000Y-71455000D01*
X113475000Y-71550000D01*
X113505000Y-71660000D01*
X113530000Y-71760000D01*
X113555000Y-71875000D01*
X113575000Y-71985000D01*
X113590000Y-72085000D01*
X113600000Y-72160000D01*
X113605000Y-72190000D01*
X112195000Y-72190000D01*
X112180000Y-72115000D01*
X112155000Y-72010000D01*
X112120000Y-71895000D01*
X112080000Y-71780000D01*
X112020000Y-71640000D01*
X111970000Y-71540000D01*
X111925000Y-71460000D01*
X111860000Y-71355000D01*
X111800000Y-71270000D01*
X111735000Y-71185000D01*
X111685000Y-71125000D01*
X111635000Y-71070000D01*
X111555000Y-70985000D01*
X111455000Y-70895000D01*
X111390000Y-70840000D01*
X111305000Y-70775000D01*
X111240000Y-70730000D01*
X111145000Y-70670000D01*
X111050000Y-70615000D01*
X110950000Y-70565000D01*
X110850000Y-70520000D01*
X110770000Y-70490000D01*
X110690000Y-70460000D01*
X110570000Y-70425000D01*
X110465000Y-70400000D01*
X110390000Y-70385000D01*
X110390000Y-68975000D01*
X110510000Y-68990000D01*
G36*
X110510000Y-68990000D02*
G01*
X110655000Y-69015000D01*
X110785000Y-69040000D01*
X110960000Y-69085000D01*
X111125000Y-69135000D01*
X111280000Y-69190000D01*
X111430000Y-69250000D01*
X111580000Y-69320000D01*
X111755000Y-69410000D01*
X111915000Y-69505000D01*
X112050000Y-69595000D01*
X112135000Y-69655000D01*
X112215000Y-69715000D01*
X112285000Y-69770000D01*
X112355000Y-69830000D01*
X112435000Y-69900000D01*
X112485000Y-69945000D01*
X112530000Y-69990000D01*
X112615000Y-70075000D01*
X112685000Y-70150000D01*
X112750000Y-70225000D01*
X112810000Y-70295000D01*
X112860000Y-70360000D01*
X112910000Y-70425000D01*
X112975000Y-70515000D01*
X113035000Y-70605000D01*
X113100000Y-70705000D01*
X113165000Y-70820000D01*
X113230000Y-70940000D01*
X113280000Y-71040000D01*
X113320000Y-71130000D01*
X113360000Y-71225000D01*
X113385000Y-71290000D01*
X113420000Y-71385000D01*
X113445000Y-71455000D01*
X113475000Y-71550000D01*
X113505000Y-71660000D01*
X113530000Y-71760000D01*
X113555000Y-71875000D01*
X113575000Y-71985000D01*
X113590000Y-72085000D01*
X113600000Y-72160000D01*
X113605000Y-72190000D01*
X112195000Y-72190000D01*
X112180000Y-72115000D01*
X112155000Y-72010000D01*
X112120000Y-71895000D01*
X112080000Y-71780000D01*
X112020000Y-71640000D01*
X111970000Y-71540000D01*
X111925000Y-71460000D01*
X111860000Y-71355000D01*
X111800000Y-71270000D01*
X111735000Y-71185000D01*
X111685000Y-71125000D01*
X111635000Y-71070000D01*
X111555000Y-70985000D01*
X111455000Y-70895000D01*
X111390000Y-70840000D01*
X111305000Y-70775000D01*
X111240000Y-70730000D01*
X111145000Y-70670000D01*
X111050000Y-70615000D01*
X110950000Y-70565000D01*
X110850000Y-70520000D01*
X110770000Y-70490000D01*
X110690000Y-70460000D01*
X110570000Y-70425000D01*
X110465000Y-70400000D01*
X110390000Y-70385000D01*
X110390000Y-68975000D01*
X110510000Y-68990000D01*
G37*
X113590000Y-73110000D02*
X113565000Y-73255000D01*
X113540000Y-73385000D01*
X113495000Y-73560000D01*
X113445000Y-73725000D01*
X113390000Y-73880000D01*
X113330000Y-74030000D01*
X113260000Y-74180000D01*
X113170000Y-74355000D01*
X113075000Y-74515000D01*
X112985000Y-74650000D01*
X112925000Y-74735000D01*
X112865000Y-74815000D01*
X112810000Y-74885000D01*
X112750000Y-74955000D01*
X112680000Y-75035000D01*
X112635000Y-75085000D01*
X112590000Y-75130000D01*
X112505000Y-75215000D01*
X112430000Y-75285000D01*
X112355000Y-75350000D01*
X112285000Y-75410000D01*
X112220000Y-75460000D01*
X112155000Y-75510000D01*
X112065000Y-75575000D01*
X111975000Y-75635000D01*
X111875000Y-75700000D01*
X111760000Y-75765000D01*
X111640000Y-75830000D01*
X111540000Y-75880000D01*
X111450000Y-75920000D01*
X111355000Y-75960000D01*
X111290000Y-75985000D01*
X111195000Y-76020000D01*
X111125000Y-76045000D01*
X111030000Y-76075000D01*
X110920000Y-76105000D01*
X110820000Y-76130000D01*
X110705000Y-76155000D01*
X110595000Y-76175000D01*
X110495000Y-76190000D01*
X110420000Y-76200000D01*
X110390000Y-76205000D01*
X110390000Y-74795000D01*
X110465000Y-74780000D01*
X110570000Y-74755000D01*
X110685000Y-74720000D01*
X110800000Y-74680000D01*
X110940000Y-74620000D01*
X111040000Y-74570000D01*
X111120000Y-74525000D01*
X111225000Y-74460000D01*
X111310000Y-74400000D01*
X111395000Y-74335000D01*
X111455000Y-74285000D01*
X111510000Y-74235000D01*
X111595000Y-74155000D01*
X111685000Y-74055000D01*
X111740000Y-73990000D01*
X111805000Y-73905000D01*
X111850000Y-73840000D01*
X111910000Y-73745000D01*
X111965000Y-73650000D01*
X112015000Y-73550000D01*
X112060000Y-73450000D01*
X112090000Y-73370000D01*
X112120000Y-73290000D01*
X112155000Y-73170000D01*
X112180000Y-73065000D01*
X112195000Y-72990000D01*
X113605000Y-72990000D01*
X113590000Y-73110000D01*
G36*
X113590000Y-73110000D02*
G01*
X113565000Y-73255000D01*
X113540000Y-73385000D01*
X113495000Y-73560000D01*
X113445000Y-73725000D01*
X113390000Y-73880000D01*
X113330000Y-74030000D01*
X113260000Y-74180000D01*
X113170000Y-74355000D01*
X113075000Y-74515000D01*
X112985000Y-74650000D01*
X112925000Y-74735000D01*
X112865000Y-74815000D01*
X112810000Y-74885000D01*
X112750000Y-74955000D01*
X112680000Y-75035000D01*
X112635000Y-75085000D01*
X112590000Y-75130000D01*
X112505000Y-75215000D01*
X112430000Y-75285000D01*
X112355000Y-75350000D01*
X112285000Y-75410000D01*
X112220000Y-75460000D01*
X112155000Y-75510000D01*
X112065000Y-75575000D01*
X111975000Y-75635000D01*
X111875000Y-75700000D01*
X111760000Y-75765000D01*
X111640000Y-75830000D01*
X111540000Y-75880000D01*
X111450000Y-75920000D01*
X111355000Y-75960000D01*
X111290000Y-75985000D01*
X111195000Y-76020000D01*
X111125000Y-76045000D01*
X111030000Y-76075000D01*
X110920000Y-76105000D01*
X110820000Y-76130000D01*
X110705000Y-76155000D01*
X110595000Y-76175000D01*
X110495000Y-76190000D01*
X110420000Y-76200000D01*
X110390000Y-76205000D01*
X110390000Y-74795000D01*
X110465000Y-74780000D01*
X110570000Y-74755000D01*
X110685000Y-74720000D01*
X110800000Y-74680000D01*
X110940000Y-74620000D01*
X111040000Y-74570000D01*
X111120000Y-74525000D01*
X111225000Y-74460000D01*
X111310000Y-74400000D01*
X111395000Y-74335000D01*
X111455000Y-74285000D01*
X111510000Y-74235000D01*
X111595000Y-74155000D01*
X111685000Y-74055000D01*
X111740000Y-73990000D01*
X111805000Y-73905000D01*
X111850000Y-73840000D01*
X111910000Y-73745000D01*
X111965000Y-73650000D01*
X112015000Y-73550000D01*
X112060000Y-73450000D01*
X112090000Y-73370000D01*
X112120000Y-73290000D01*
X112155000Y-73170000D01*
X112180000Y-73065000D01*
X112195000Y-72990000D01*
X113605000Y-72990000D01*
X113590000Y-73110000D01*
G37*
X224590000Y-70385000D02*
X224515000Y-70400000D01*
X224410000Y-70425000D01*
X224295000Y-70460000D01*
X224180000Y-70500000D01*
X224040000Y-70560000D01*
X223940000Y-70610000D01*
X223860000Y-70655000D01*
X223755000Y-70720000D01*
X223670000Y-70780000D01*
X223585000Y-70845000D01*
X223525000Y-70895000D01*
X223470000Y-70945000D01*
X223385000Y-71025000D01*
X223295000Y-71125000D01*
X223240000Y-71190000D01*
X223175000Y-71275000D01*
X223130000Y-71340000D01*
X223070000Y-71435000D01*
X223015000Y-71530000D01*
X222965000Y-71630000D01*
X222920000Y-71730000D01*
X222890000Y-71810000D01*
X222860000Y-71890000D01*
X222825000Y-72010000D01*
X222800000Y-72115000D01*
X222785000Y-72190000D01*
X221375000Y-72190000D01*
X221390000Y-72070000D01*
X221415000Y-71925000D01*
X221440000Y-71795000D01*
X221485000Y-71620000D01*
X221535000Y-71455000D01*
X221590000Y-71300000D01*
X221650000Y-71150000D01*
X221720000Y-71000000D01*
X221810000Y-70825000D01*
X221905000Y-70665000D01*
X221995000Y-70530000D01*
X222055000Y-70445000D01*
X222115000Y-70365000D01*
X222170000Y-70295000D01*
X222230000Y-70225000D01*
X222300000Y-70145000D01*
X222345000Y-70095000D01*
X222390000Y-70050000D01*
X222475000Y-69965000D01*
X222550000Y-69895000D01*
X222625000Y-69830000D01*
X222695000Y-69770000D01*
X222760000Y-69720000D01*
X222825000Y-69670000D01*
X222915000Y-69605000D01*
X223005000Y-69545000D01*
X223105000Y-69480000D01*
X223220000Y-69415000D01*
X223340000Y-69350000D01*
X223440000Y-69300000D01*
X223530000Y-69260000D01*
X223625000Y-69220000D01*
X223690000Y-69195000D01*
X223785000Y-69160000D01*
X223855000Y-69135000D01*
X223950000Y-69105000D01*
X224060000Y-69075000D01*
X224160000Y-69050000D01*
X224275000Y-69025000D01*
X224385000Y-69005000D01*
X224485000Y-68990000D01*
X224560000Y-68980000D01*
X224590000Y-68975000D01*
X224590000Y-70385000D01*
G36*
X224590000Y-70385000D02*
G01*
X224515000Y-70400000D01*
X224410000Y-70425000D01*
X224295000Y-70460000D01*
X224180000Y-70500000D01*
X224040000Y-70560000D01*
X223940000Y-70610000D01*
X223860000Y-70655000D01*
X223755000Y-70720000D01*
X223670000Y-70780000D01*
X223585000Y-70845000D01*
X223525000Y-70895000D01*
X223470000Y-70945000D01*
X223385000Y-71025000D01*
X223295000Y-71125000D01*
X223240000Y-71190000D01*
X223175000Y-71275000D01*
X223130000Y-71340000D01*
X223070000Y-71435000D01*
X223015000Y-71530000D01*
X222965000Y-71630000D01*
X222920000Y-71730000D01*
X222890000Y-71810000D01*
X222860000Y-71890000D01*
X222825000Y-72010000D01*
X222800000Y-72115000D01*
X222785000Y-72190000D01*
X221375000Y-72190000D01*
X221390000Y-72070000D01*
X221415000Y-71925000D01*
X221440000Y-71795000D01*
X221485000Y-71620000D01*
X221535000Y-71455000D01*
X221590000Y-71300000D01*
X221650000Y-71150000D01*
X221720000Y-71000000D01*
X221810000Y-70825000D01*
X221905000Y-70665000D01*
X221995000Y-70530000D01*
X222055000Y-70445000D01*
X222115000Y-70365000D01*
X222170000Y-70295000D01*
X222230000Y-70225000D01*
X222300000Y-70145000D01*
X222345000Y-70095000D01*
X222390000Y-70050000D01*
X222475000Y-69965000D01*
X222550000Y-69895000D01*
X222625000Y-69830000D01*
X222695000Y-69770000D01*
X222760000Y-69720000D01*
X222825000Y-69670000D01*
X222915000Y-69605000D01*
X223005000Y-69545000D01*
X223105000Y-69480000D01*
X223220000Y-69415000D01*
X223340000Y-69350000D01*
X223440000Y-69300000D01*
X223530000Y-69260000D01*
X223625000Y-69220000D01*
X223690000Y-69195000D01*
X223785000Y-69160000D01*
X223855000Y-69135000D01*
X223950000Y-69105000D01*
X224060000Y-69075000D01*
X224160000Y-69050000D01*
X224275000Y-69025000D01*
X224385000Y-69005000D01*
X224485000Y-68990000D01*
X224560000Y-68980000D01*
X224590000Y-68975000D01*
X224590000Y-70385000D01*
G37*
X222800000Y-73065000D02*
X222825000Y-73170000D01*
X222860000Y-73285000D01*
X222900000Y-73400000D01*
X222960000Y-73540000D01*
X223010000Y-73640000D01*
X223055000Y-73720000D01*
X223120000Y-73825000D01*
X223180000Y-73910000D01*
X223245000Y-73995000D01*
X223295000Y-74055000D01*
X223345000Y-74110000D01*
X223425000Y-74195000D01*
X223525000Y-74285000D01*
X223590000Y-74340000D01*
X223675000Y-74405000D01*
X223740000Y-74450000D01*
X223835000Y-74510000D01*
X223930000Y-74565000D01*
X224030000Y-74615000D01*
X224130000Y-74660000D01*
X224210000Y-74690000D01*
X224290000Y-74720000D01*
X224410000Y-74755000D01*
X224515000Y-74780000D01*
X224590000Y-74795000D01*
X224590000Y-76205000D01*
X224470000Y-76190000D01*
X224325000Y-76165000D01*
X224195000Y-76140000D01*
X224020000Y-76095000D01*
X223855000Y-76045000D01*
X223700000Y-75990000D01*
X223550000Y-75930000D01*
X223400000Y-75860000D01*
X223225000Y-75770000D01*
X223065000Y-75675000D01*
X222930000Y-75585000D01*
X222845000Y-75525000D01*
X222765000Y-75465000D01*
X222695000Y-75410000D01*
X222625000Y-75350000D01*
X222545000Y-75280000D01*
X222495000Y-75235000D01*
X222450000Y-75190000D01*
X222365000Y-75105000D01*
X222295000Y-75030000D01*
X222230000Y-74955000D01*
X222170000Y-74885000D01*
X222120000Y-74820000D01*
X222070000Y-74755000D01*
X222005000Y-74665000D01*
X221945000Y-74575000D01*
X221880000Y-74475000D01*
X221815000Y-74360000D01*
X221750000Y-74240000D01*
X221700000Y-74140000D01*
X221660000Y-74050000D01*
X221620000Y-73955000D01*
X221595000Y-73890000D01*
X221560000Y-73795000D01*
X221535000Y-73725000D01*
X221505000Y-73630000D01*
X221475000Y-73520000D01*
X221450000Y-73420000D01*
X221425000Y-73305000D01*
X221405000Y-73195000D01*
X221390000Y-73095000D01*
X221380000Y-73020000D01*
X221375000Y-72990000D01*
X222785000Y-72990000D01*
X222800000Y-73065000D01*
G36*
X222800000Y-73065000D02*
G01*
X222825000Y-73170000D01*
X222860000Y-73285000D01*
X222900000Y-73400000D01*
X222960000Y-73540000D01*
X223010000Y-73640000D01*
X223055000Y-73720000D01*
X223120000Y-73825000D01*
X223180000Y-73910000D01*
X223245000Y-73995000D01*
X223295000Y-74055000D01*
X223345000Y-74110000D01*
X223425000Y-74195000D01*
X223525000Y-74285000D01*
X223590000Y-74340000D01*
X223675000Y-74405000D01*
X223740000Y-74450000D01*
X223835000Y-74510000D01*
X223930000Y-74565000D01*
X224030000Y-74615000D01*
X224130000Y-74660000D01*
X224210000Y-74690000D01*
X224290000Y-74720000D01*
X224410000Y-74755000D01*
X224515000Y-74780000D01*
X224590000Y-74795000D01*
X224590000Y-76205000D01*
X224470000Y-76190000D01*
X224325000Y-76165000D01*
X224195000Y-76140000D01*
X224020000Y-76095000D01*
X223855000Y-76045000D01*
X223700000Y-75990000D01*
X223550000Y-75930000D01*
X223400000Y-75860000D01*
X223225000Y-75770000D01*
X223065000Y-75675000D01*
X222930000Y-75585000D01*
X222845000Y-75525000D01*
X222765000Y-75465000D01*
X222695000Y-75410000D01*
X222625000Y-75350000D01*
X222545000Y-75280000D01*
X222495000Y-75235000D01*
X222450000Y-75190000D01*
X222365000Y-75105000D01*
X222295000Y-75030000D01*
X222230000Y-74955000D01*
X222170000Y-74885000D01*
X222120000Y-74820000D01*
X222070000Y-74755000D01*
X222005000Y-74665000D01*
X221945000Y-74575000D01*
X221880000Y-74475000D01*
X221815000Y-74360000D01*
X221750000Y-74240000D01*
X221700000Y-74140000D01*
X221660000Y-74050000D01*
X221620000Y-73955000D01*
X221595000Y-73890000D01*
X221560000Y-73795000D01*
X221535000Y-73725000D01*
X221505000Y-73630000D01*
X221475000Y-73520000D01*
X221450000Y-73420000D01*
X221425000Y-73305000D01*
X221405000Y-73195000D01*
X221390000Y-73095000D01*
X221380000Y-73020000D01*
X221375000Y-72990000D01*
X222785000Y-72990000D01*
X222800000Y-73065000D01*
G37*
X225510000Y-68990000D02*
X225655000Y-69015000D01*
X225785000Y-69040000D01*
X225960000Y-69085000D01*
X226125000Y-69135000D01*
X226280000Y-69190000D01*
X226430000Y-69250000D01*
X226580000Y-69320000D01*
X226755000Y-69410000D01*
X226915000Y-69505000D01*
X227050000Y-69595000D01*
X227135000Y-69655000D01*
X227215000Y-69715000D01*
X227285000Y-69770000D01*
X227355000Y-69830000D01*
X227435000Y-69900000D01*
X227485000Y-69945000D01*
X227530000Y-69990000D01*
X227615000Y-70075000D01*
X227685000Y-70150000D01*
X227750000Y-70225000D01*
X227810000Y-70295000D01*
X227860000Y-70360000D01*
X227910000Y-70425000D01*
X227975000Y-70515000D01*
X228035000Y-70605000D01*
X228100000Y-70705000D01*
X228165000Y-70820000D01*
X228230000Y-70940000D01*
X228280000Y-71040000D01*
X228320000Y-71130000D01*
X228360000Y-71225000D01*
X228385000Y-71290000D01*
X228420000Y-71385000D01*
X228445000Y-71455000D01*
X228475000Y-71550000D01*
X228505000Y-71660000D01*
X228530000Y-71760000D01*
X228555000Y-71875000D01*
X228575000Y-71985000D01*
X228590000Y-72085000D01*
X228600000Y-72160000D01*
X228605000Y-72190000D01*
X227195000Y-72190000D01*
X227180000Y-72115000D01*
X227155000Y-72010000D01*
X227120000Y-71895000D01*
X227080000Y-71780000D01*
X227020000Y-71640000D01*
X226970000Y-71540000D01*
X226925000Y-71460000D01*
X226860000Y-71355000D01*
X226800000Y-71270000D01*
X226735000Y-71185000D01*
X226685000Y-71125000D01*
X226635000Y-71070000D01*
X226555000Y-70985000D01*
X226455000Y-70895000D01*
X226390000Y-70840000D01*
X226305000Y-70775000D01*
X226240000Y-70730000D01*
X226145000Y-70670000D01*
X226050000Y-70615000D01*
X225950000Y-70565000D01*
X225850000Y-70520000D01*
X225770000Y-70490000D01*
X225690000Y-70460000D01*
X225570000Y-70425000D01*
X225465000Y-70400000D01*
X225390000Y-70385000D01*
X225390000Y-68975000D01*
X225510000Y-68990000D01*
G36*
X225510000Y-68990000D02*
G01*
X225655000Y-69015000D01*
X225785000Y-69040000D01*
X225960000Y-69085000D01*
X226125000Y-69135000D01*
X226280000Y-69190000D01*
X226430000Y-69250000D01*
X226580000Y-69320000D01*
X226755000Y-69410000D01*
X226915000Y-69505000D01*
X227050000Y-69595000D01*
X227135000Y-69655000D01*
X227215000Y-69715000D01*
X227285000Y-69770000D01*
X227355000Y-69830000D01*
X227435000Y-69900000D01*
X227485000Y-69945000D01*
X227530000Y-69990000D01*
X227615000Y-70075000D01*
X227685000Y-70150000D01*
X227750000Y-70225000D01*
X227810000Y-70295000D01*
X227860000Y-70360000D01*
X227910000Y-70425000D01*
X227975000Y-70515000D01*
X228035000Y-70605000D01*
X228100000Y-70705000D01*
X228165000Y-70820000D01*
X228230000Y-70940000D01*
X228280000Y-71040000D01*
X228320000Y-71130000D01*
X228360000Y-71225000D01*
X228385000Y-71290000D01*
X228420000Y-71385000D01*
X228445000Y-71455000D01*
X228475000Y-71550000D01*
X228505000Y-71660000D01*
X228530000Y-71760000D01*
X228555000Y-71875000D01*
X228575000Y-71985000D01*
X228590000Y-72085000D01*
X228600000Y-72160000D01*
X228605000Y-72190000D01*
X227195000Y-72190000D01*
X227180000Y-72115000D01*
X227155000Y-72010000D01*
X227120000Y-71895000D01*
X227080000Y-71780000D01*
X227020000Y-71640000D01*
X226970000Y-71540000D01*
X226925000Y-71460000D01*
X226860000Y-71355000D01*
X226800000Y-71270000D01*
X226735000Y-71185000D01*
X226685000Y-71125000D01*
X226635000Y-71070000D01*
X226555000Y-70985000D01*
X226455000Y-70895000D01*
X226390000Y-70840000D01*
X226305000Y-70775000D01*
X226240000Y-70730000D01*
X226145000Y-70670000D01*
X226050000Y-70615000D01*
X225950000Y-70565000D01*
X225850000Y-70520000D01*
X225770000Y-70490000D01*
X225690000Y-70460000D01*
X225570000Y-70425000D01*
X225465000Y-70400000D01*
X225390000Y-70385000D01*
X225390000Y-68975000D01*
X225510000Y-68990000D01*
G37*
X228590000Y-73110000D02*
X228565000Y-73255000D01*
X228540000Y-73385000D01*
X228495000Y-73560000D01*
X228445000Y-73725000D01*
X228390000Y-73880000D01*
X228330000Y-74030000D01*
X228260000Y-74180000D01*
X228170000Y-74355000D01*
X228075000Y-74515000D01*
X227985000Y-74650000D01*
X227925000Y-74735000D01*
X227865000Y-74815000D01*
X227810000Y-74885000D01*
X227750000Y-74955000D01*
X227680000Y-75035000D01*
X227635000Y-75085000D01*
X227590000Y-75130000D01*
X227505000Y-75215000D01*
X227430000Y-75285000D01*
X227355000Y-75350000D01*
X227285000Y-75410000D01*
X227220000Y-75460000D01*
X227155000Y-75510000D01*
X227065000Y-75575000D01*
X226975000Y-75635000D01*
X226875000Y-75700000D01*
X226760000Y-75765000D01*
X226640000Y-75830000D01*
X226540000Y-75880000D01*
X226450000Y-75920000D01*
X226355000Y-75960000D01*
X226290000Y-75985000D01*
X226195000Y-76020000D01*
X226125000Y-76045000D01*
X226030000Y-76075000D01*
X225920000Y-76105000D01*
X225820000Y-76130000D01*
X225705000Y-76155000D01*
X225595000Y-76175000D01*
X225495000Y-76190000D01*
X225420000Y-76200000D01*
X225390000Y-76205000D01*
X225390000Y-74795000D01*
X225465000Y-74780000D01*
X225570000Y-74755000D01*
X225685000Y-74720000D01*
X225800000Y-74680000D01*
X225940000Y-74620000D01*
X226040000Y-74570000D01*
X226120000Y-74525000D01*
X226225000Y-74460000D01*
X226310000Y-74400000D01*
X226395000Y-74335000D01*
X226455000Y-74285000D01*
X226510000Y-74235000D01*
X226595000Y-74155000D01*
X226685000Y-74055000D01*
X226740000Y-73990000D01*
X226805000Y-73905000D01*
X226850000Y-73840000D01*
X226910000Y-73745000D01*
X226965000Y-73650000D01*
X227015000Y-73550000D01*
X227060000Y-73450000D01*
X227090000Y-73370000D01*
X227120000Y-73290000D01*
X227155000Y-73170000D01*
X227180000Y-73065000D01*
X227195000Y-72990000D01*
X228605000Y-72990000D01*
X228590000Y-73110000D01*
G36*
X228590000Y-73110000D02*
G01*
X228565000Y-73255000D01*
X228540000Y-73385000D01*
X228495000Y-73560000D01*
X228445000Y-73725000D01*
X228390000Y-73880000D01*
X228330000Y-74030000D01*
X228260000Y-74180000D01*
X228170000Y-74355000D01*
X228075000Y-74515000D01*
X227985000Y-74650000D01*
X227925000Y-74735000D01*
X227865000Y-74815000D01*
X227810000Y-74885000D01*
X227750000Y-74955000D01*
X227680000Y-75035000D01*
X227635000Y-75085000D01*
X227590000Y-75130000D01*
X227505000Y-75215000D01*
X227430000Y-75285000D01*
X227355000Y-75350000D01*
X227285000Y-75410000D01*
X227220000Y-75460000D01*
X227155000Y-75510000D01*
X227065000Y-75575000D01*
X226975000Y-75635000D01*
X226875000Y-75700000D01*
X226760000Y-75765000D01*
X226640000Y-75830000D01*
X226540000Y-75880000D01*
X226450000Y-75920000D01*
X226355000Y-75960000D01*
X226290000Y-75985000D01*
X226195000Y-76020000D01*
X226125000Y-76045000D01*
X226030000Y-76075000D01*
X225920000Y-76105000D01*
X225820000Y-76130000D01*
X225705000Y-76155000D01*
X225595000Y-76175000D01*
X225495000Y-76190000D01*
X225420000Y-76200000D01*
X225390000Y-76205000D01*
X225390000Y-74795000D01*
X225465000Y-74780000D01*
X225570000Y-74755000D01*
X225685000Y-74720000D01*
X225800000Y-74680000D01*
X225940000Y-74620000D01*
X226040000Y-74570000D01*
X226120000Y-74525000D01*
X226225000Y-74460000D01*
X226310000Y-74400000D01*
X226395000Y-74335000D01*
X226455000Y-74285000D01*
X226510000Y-74235000D01*
X226595000Y-74155000D01*
X226685000Y-74055000D01*
X226740000Y-73990000D01*
X226805000Y-73905000D01*
X226850000Y-73840000D01*
X226910000Y-73745000D01*
X226965000Y-73650000D01*
X227015000Y-73550000D01*
X227060000Y-73450000D01*
X227090000Y-73370000D01*
X227120000Y-73290000D01*
X227155000Y-73170000D01*
X227180000Y-73065000D01*
X227195000Y-72990000D01*
X228605000Y-72990000D01*
X228590000Y-73110000D01*
G37*
%TD*%
M02*
