%TF.GenerationSoftware,KiCad,Pcbnew,9.0.7*%
%TF.CreationDate,2026-04-17T00:56:38-04:00*%
%TF.ProjectId,capybara_rocket,63617079-6261-4726-915f-726f636b6574,A*%
%TF.SameCoordinates,Original*%
%TF.FileFunction,Copper,L1,Top*%
%TF.FilePolarity,Positive*%
%FSLAX46Y46*%
G04 Gerber Fmt 4.6, Leading zero omitted, Abs format (unit mm)*
G04 Created by KiCad (PCBNEW 9.0.7) date 2026-04-17 00:56:38*
%MOMM*%
%LPD*%
G01*
G04 APERTURE LIST*
G04 Aperture macros list*
%AMRoundRect*
0 Rectangle with rounded corners*
0 $1 Rounding radius*
0 $2 $3 $4 $5 $6 $7 $8 $9 X,Y pos of 4 corners*
0 Add a 4 corners polygon primitive as box body*
4,1,4,$2,$3,$4,$5,$6,$7,$8,$9,$2,$3,0*
0 Add four circle primitives for the rounded corners*
1,1,$1+$1,$2,$3*
1,1,$1+$1,$4,$5*
1,1,$1+$1,$6,$7*
1,1,$1+$1,$8,$9*
0 Add four rect primitives between the rounded corners*
20,1,$1+$1,$2,$3,$4,$5,0*
20,1,$1+$1,$4,$5,$6,$7,0*
20,1,$1+$1,$6,$7,$8,$9,0*
20,1,$1+$1,$8,$9,$2,$3,0*%
G04 Aperture macros list end*
%TA.AperFunction,SMDPad,CuDef*%
%ADD10R,0.800000X0.800000*%
%TD*%
%TA.AperFunction,SMDPad,CuDef*%
%ADD11RoundRect,0.250000X-0.337500X-0.475000X0.337500X-0.475000X0.337500X0.475000X-0.337500X0.475000X0*%
%TD*%
%TA.AperFunction,SMDPad,CuDef*%
%ADD12RoundRect,0.237500X-0.237500X0.250000X-0.237500X-0.250000X0.237500X-0.250000X0.237500X0.250000X0*%
%TD*%
%TA.AperFunction,SMDPad,CuDef*%
%ADD13RoundRect,0.250000X0.337500X0.475000X-0.337500X0.475000X-0.337500X-0.475000X0.337500X-0.475000X0*%
%TD*%
%TA.AperFunction,SMDPad,CuDef*%
%ADD14RoundRect,0.150000X0.512500X0.150000X-0.512500X0.150000X-0.512500X-0.150000X0.512500X-0.150000X0*%
%TD*%
%TA.AperFunction,SMDPad,CuDef*%
%ADD15RoundRect,0.250000X0.475000X-0.337500X0.475000X0.337500X-0.475000X0.337500X-0.475000X-0.337500X0*%
%TD*%
%TA.AperFunction,WasherPad*%
%ADD16C,5.300000*%
%TD*%
%TA.AperFunction,ComponentPad*%
%ADD17C,1.700000*%
%TD*%
%TA.AperFunction,ComponentPad*%
%ADD18R,1.300000X1.300000*%
%TD*%
%TA.AperFunction,ComponentPad*%
%ADD19C,1.300000*%
%TD*%
%TA.AperFunction,SMDPad,CuDef*%
%ADD20RoundRect,0.237500X0.237500X-0.250000X0.237500X0.250000X-0.237500X0.250000X-0.237500X-0.250000X0*%
%TD*%
%TA.AperFunction,ComponentPad*%
%ADD21R,2.000000X2.000000*%
%TD*%
%TA.AperFunction,SMDPad,CuDef*%
%ADD22RoundRect,0.250000X-0.650000X0.412500X-0.650000X-0.412500X0.650000X-0.412500X0.650000X0.412500X0*%
%TD*%
%TA.AperFunction,SMDPad,CuDef*%
%ADD23RoundRect,0.237500X-0.250000X-0.237500X0.250000X-0.237500X0.250000X0.237500X-0.250000X0.237500X0*%
%TD*%
%TA.AperFunction,SMDPad,CuDef*%
%ADD24R,2.850000X6.600000*%
%TD*%
%TA.AperFunction,ComponentPad*%
%ADD25RoundRect,0.250000X-0.550000X0.550000X-0.550000X-0.550000X0.550000X-0.550000X0.550000X0.550000X0*%
%TD*%
%TA.AperFunction,ComponentPad*%
%ADD26C,1.600000*%
%TD*%
%TA.AperFunction,SMDPad,CuDef*%
%ADD27R,0.558800X1.320800*%
%TD*%
%TA.AperFunction,SMDPad,CuDef*%
%ADD28R,3.960000X3.960000*%
%TD*%
%TA.AperFunction,SMDPad,CuDef*%
%ADD29R,2.540000X3.170000*%
%TD*%
%TA.AperFunction,SMDPad,CuDef*%
%ADD30RoundRect,0.237500X0.237500X-0.300000X0.237500X0.300000X-0.237500X0.300000X-0.237500X-0.300000X0*%
%TD*%
%TA.AperFunction,SMDPad,CuDef*%
%ADD31RoundRect,0.250000X0.650000X-0.412500X0.650000X0.412500X-0.650000X0.412500X-0.650000X-0.412500X0*%
%TD*%
%TA.AperFunction,SMDPad,CuDef*%
%ADD32RoundRect,0.250000X0.412500X0.650000X-0.412500X0.650000X-0.412500X-0.650000X0.412500X-0.650000X0*%
%TD*%
%TA.AperFunction,SMDPad,CuDef*%
%ADD33RoundRect,0.250000X-0.475000X0.337500X-0.475000X-0.337500X0.475000X-0.337500X0.475000X0.337500X0*%
%TD*%
%TA.AperFunction,ComponentPad*%
%ADD34C,1.778000*%
%TD*%
%TA.AperFunction,SMDPad,CuDef*%
%ADD35R,2.006600X5.994400*%
%TD*%
%TA.AperFunction,SMDPad,CuDef*%
%ADD36R,0.711200X0.228600*%
%TD*%
%TA.AperFunction,SMDPad,CuDef*%
%ADD37RoundRect,0.250000X-0.350000X-0.450000X0.350000X-0.450000X0.350000X0.450000X-0.350000X0.450000X0*%
%TD*%
%TA.AperFunction,SMDPad,CuDef*%
%ADD38R,1.070000X3.270000*%
%TD*%
%TA.AperFunction,SMDPad,CuDef*%
%ADD39RoundRect,0.150000X-0.825000X-0.150000X0.825000X-0.150000X0.825000X0.150000X-0.825000X0.150000X0*%
%TD*%
%TA.AperFunction,ComponentPad*%
%ADD40C,2.000000*%
%TD*%
%TA.AperFunction,SMDPad,CuDef*%
%ADD41R,0.457200X1.003300*%
%TD*%
%TA.AperFunction,ComponentPad*%
%ADD42C,1.800000*%
%TD*%
%TA.AperFunction,SMDPad,CuDef*%
%ADD43RoundRect,0.155000X-0.212500X-0.155000X0.212500X-0.155000X0.212500X0.155000X-0.212500X0.155000X0*%
%TD*%
%TA.AperFunction,SMDPad,CuDef*%
%ADD44RoundRect,0.237500X0.250000X0.237500X-0.250000X0.237500X-0.250000X-0.237500X0.250000X-0.237500X0*%
%TD*%
%TA.AperFunction,SMDPad,CuDef*%
%ADD45RoundRect,0.250000X0.400000X0.625000X-0.400000X0.625000X-0.400000X-0.625000X0.400000X-0.625000X0*%
%TD*%
%TA.AperFunction,SMDPad,CuDef*%
%ADD46R,2.400000X1.500000*%
%TD*%
%TA.AperFunction,SMDPad,CuDef*%
%ADD47R,0.431800X1.397000*%
%TD*%
%TA.AperFunction,SMDPad,CuDef*%
%ADD48R,2.946400X1.752600*%
%TD*%
%TA.AperFunction,ComponentPad*%
%ADD49C,0.910000*%
%TD*%
%TA.AperFunction,SMDPad,CuDef*%
%ADD50RoundRect,0.237500X-0.237500X0.300000X-0.237500X-0.300000X0.237500X-0.300000X0.237500X0.300000X0*%
%TD*%
%TA.AperFunction,SMDPad,CuDef*%
%ADD51RoundRect,0.150000X-0.150000X0.825000X-0.150000X-0.825000X0.150000X-0.825000X0.150000X0.825000X0*%
%TD*%
%TA.AperFunction,ViaPad*%
%ADD52C,0.600000*%
%TD*%
%TA.AperFunction,Conductor*%
%ADD53C,0.500000*%
%TD*%
%TA.AperFunction,Conductor*%
%ADD54C,0.200000*%
%TD*%
%TA.AperFunction,Conductor*%
%ADD55C,0.800000*%
%TD*%
%TA.AperFunction,Conductor*%
%ADD56C,0.450000*%
%TD*%
%TA.AperFunction,Conductor*%
%ADD57C,0.300000*%
%TD*%
G04 APERTURE END LIST*
D10*
%TO.P,D9,1,K*%
%TO.N,GND*%
X224200000Y-91750000D03*
%TO.P,D9,2,A*%
%TO.N,Net-(D9-A)*%
X225800000Y-91750000D03*
%TD*%
D11*
%TO.P,C8,1*%
%TO.N,3.3V*%
X128962500Y-123000000D03*
%TO.P,C8,2*%
%TO.N,GND*%
X131037500Y-123000000D03*
%TD*%
D12*
%TO.P,R7,1*%
%TO.N,Net-(U5-FB)*%
X202300000Y-86000000D03*
%TO.P,R7,2*%
%TO.N,Net-(C12-Pad1)*%
X202300000Y-87825000D03*
%TD*%
D13*
%TO.P,C4,1*%
%TO.N,GND*%
X120177500Y-97040000D03*
%TO.P,C4,2*%
%TO.N,3.3V*%
X118102500Y-97040000D03*
%TD*%
D14*
%TO.P,U14,1,GND*%
%TO.N,GND*%
X185337500Y-77315000D03*
%TO.P,U14,2,~{RESET}*%
%TO.N,Net-(U14-~{RESET})*%
X185337500Y-75415000D03*
%TO.P,U14,3,VDD*%
%TO.N,1.2V B*%
X183062500Y-76365000D03*
%TD*%
D15*
%TO.P,C29,1*%
%TO.N,GND*%
X188400000Y-73165000D03*
%TO.P,C29,2*%
%TO.N,1.2V B*%
X188400000Y-71090000D03*
%TD*%
D16*
%TO.P,J11,*%
%TO.N,*%
X106560000Y-112700000D03*
X106560000Y-87300000D03*
X73540000Y-112700000D03*
X73540000Y-87300000D03*
D17*
%TO.P,J11,1,1*%
%TO.N,GND*%
X86240000Y-113970000D03*
%TO.P,J11,2,2*%
%TO.N,3.3V*%
X88780000Y-113970000D03*
%TO.P,J11,3,3*%
%TO.N,SDA*%
X91320000Y-113970000D03*
%TO.P,J11,4,4*%
%TO.N,SCL*%
X93860000Y-113970000D03*
%TD*%
D18*
%TO.P,J4,1,1*%
%TO.N,1.2V BT*%
X178400000Y-79400000D03*
D19*
%TO.P,J4,2,2*%
%TO.N,1.2V B*%
X178400000Y-81400000D03*
%TD*%
D20*
%TO.P,R2,1*%
%TO.N,Net-(BZ1-+)*%
X100320000Y-114312500D03*
%TO.P,R2,2*%
%TO.N,Net-(U3-THRES)*%
X100320000Y-112487500D03*
%TD*%
D21*
%TO.P,TP2,1,1*%
%TO.N,1.2V*%
X228200000Y-107500000D03*
%TD*%
D18*
%TO.P,J6,1,1*%
%TO.N,GND*%
X85600000Y-121800000D03*
D19*
%TO.P,J6,2,2*%
%TO.N,5.5V*%
X83600000Y-121800000D03*
%TO.P,J6,3,3*%
%TO.N,NC_REL*%
X81600000Y-121800000D03*
%TD*%
D22*
%TO.P,C7,1*%
%TO.N,3.6V-*%
X204487381Y-111250600D03*
%TO.P,C7,2*%
%TO.N,GND*%
X204487381Y-114375600D03*
%TD*%
D20*
%TO.P,R25,1*%
%TO.N,SCL*%
X155500000Y-72225000D03*
%TO.P,R25,2*%
%TO.N,3.3V*%
X155500000Y-70400000D03*
%TD*%
D23*
%TO.P,R18,1*%
%TO.N,Net-(D5-A)*%
X224087500Y-90250000D03*
%TO.P,R18,2*%
%TO.N,5.5V*%
X225912500Y-90250000D03*
%TD*%
D24*
%TO.P,L1,1,1*%
%TO.N,Net-(U5-SW1)*%
X210475000Y-95935000D03*
%TO.P,L1,2,2*%
%TO.N,Net-(U5-SW2)*%
X217125000Y-95935000D03*
%TD*%
D18*
%TO.P,J8,1,1*%
%TO.N,GND*%
X133000000Y-127600000D03*
D19*
%TO.P,J8,2,2*%
%TO.N,3.3V*%
X131000000Y-127600000D03*
%TO.P,J8,3,3*%
%TO.N,SDA*%
X129000000Y-127600000D03*
%TO.P,J8,4,4*%
%TO.N,SCL*%
X127000000Y-127600000D03*
%TD*%
D15*
%TO.P,C27,1*%
%TO.N,1.2V B*%
X188400000Y-77240000D03*
%TO.P,C27,2*%
%TO.N,GND*%
X188400000Y-75165000D03*
%TD*%
D25*
%TO.P,U4,1,\u002ACS*%
%TO.N,CS*%
X105400000Y-75590000D03*
D26*
%TO.P,U4,2,SO*%
%TO.N,MISO*%
X102860000Y-75590000D03*
%TO.P,U4,3,\u002AWP*%
%TO.N,3.3V*%
X100320000Y-75590000D03*
%TO.P,U4,4,VSS*%
%TO.N,GND*%
X97780000Y-75590000D03*
%TO.P,U4,5,SI*%
%TO.N,MOSI*%
X97780000Y-83210000D03*
%TO.P,U4,6,SCK*%
%TO.N,SCLK*%
X100320000Y-83210000D03*
%TO.P,U4,7,\u002AHOLD*%
%TO.N,3.3V*%
X102860000Y-83210000D03*
%TO.P,U4,8,VCC*%
X105400000Y-83210000D03*
%TD*%
D23*
%TO.P,R5,1*%
%TO.N,Net-(U6-VC)*%
X208300000Y-105097500D03*
%TO.P,R5,2*%
%TO.N,Net-(C15-Pad2)*%
X210125000Y-105097500D03*
%TD*%
D14*
%TO.P,U16,1,NC*%
%TO.N,unconnected-(U16-NC-Pad1)*%
X185337500Y-72915000D03*
%TO.P,U16,2,A*%
%TO.N,Net-(U14-~{RESET})*%
X185337500Y-71965000D03*
%TO.P,U16,3,GND*%
%TO.N,GND*%
X185337500Y-71015000D03*
%TO.P,U16,4,Y*%
%TO.N,Net-(U16-Y)*%
X183062500Y-71015000D03*
%TO.P,U16,5,VCC*%
%TO.N,1.2V B*%
X183062500Y-72915000D03*
%TD*%
D27*
%TO.P,U13,1,SW*%
%TO.N,Net-(U13-SW)*%
X207549999Y-77697500D03*
%TO.P,U13,2,GND*%
%TO.N,GND*%
X208500000Y-77697500D03*
%TO.P,U13,3,EN*%
%TO.N,1.2V*%
X209450001Y-77697500D03*
%TO.P,U13,4,VFB*%
%TO.N,Net-(U13-VFB)*%
X209450001Y-75106700D03*
%TO.P,U13,5,VOUT*%
%TO.N,3.3V BZ*%
X208500000Y-75106700D03*
%TO.P,U13,6,VIN*%
%TO.N,1.2V*%
X207549999Y-75106700D03*
%TD*%
D28*
%TO.P,BT1,N*%
%TO.N,GND*%
X165400000Y-77200000D03*
D29*
%TO.P,BT1,P1*%
%TO.N,Net-(U1-VBAT)*%
X173020000Y-77200000D03*
%TO.P,BT1,P2*%
X157780000Y-77200000D03*
%TD*%
D26*
%TO.P,R11,1*%
%TO.N,Net-(U5-FB)*%
X200000000Y-86000000D03*
%TO.P,R11,2*%
%TO.N,3.3V*%
X200000000Y-93620000D03*
%TD*%
D23*
%TO.P,R15,1*%
%TO.N,Net-(D2-A)*%
X224087500Y-108250000D03*
%TO.P,R15,2*%
%TO.N,1.2V*%
X225912500Y-108250000D03*
%TD*%
D21*
%TO.P,TP5,1,1*%
%TO.N,5.5V*%
X228200000Y-89500000D03*
%TD*%
D30*
%TO.P,C14,1*%
%TO.N,Net-(C14-Pad1)*%
X214900000Y-103640000D03*
%TO.P,C14,2*%
%TO.N,3.3V MCU*%
X214900000Y-101915000D03*
%TD*%
D10*
%TO.P,D6,1,K*%
%TO.N,GND*%
X224200000Y-109750000D03*
%TO.P,D6,2,A*%
%TO.N,Net-(D6-A)*%
X225800000Y-109750000D03*
%TD*%
D18*
%TO.P,J1,1,1*%
%TO.N,GND*%
X178400000Y-126200000D03*
D19*
%TO.P,J1,2,2*%
%TO.N,3.6V BT*%
X178400000Y-128200000D03*
%TD*%
D23*
%TO.P,R17,1*%
%TO.N,Net-(D4-A)*%
X224087500Y-96250000D03*
%TO.P,R17,2*%
%TO.N,3.3V MCU*%
X225912500Y-96250000D03*
%TD*%
D31*
%TO.P,C28,1*%
%TO.N,GND*%
X204500000Y-76364600D03*
%TO.P,C28,2*%
%TO.N,1.2V*%
X204500000Y-73239600D03*
%TD*%
D10*
%TO.P,D1,1,K*%
%TO.N,GND*%
X224200000Y-112750000D03*
%TO.P,D1,2,A*%
%TO.N,Net-(D1-A)*%
X225800000Y-112750000D03*
%TD*%
%TO.P,D8,1,K*%
%TO.N,GND*%
X224200000Y-97750000D03*
%TO.P,D8,2,A*%
%TO.N,Net-(D8-A)*%
X225800000Y-97750000D03*
%TD*%
D32*
%TO.P,C21,1*%
%TO.N,5.5V*%
X84962500Y-83000000D03*
%TO.P,C21,2*%
%TO.N,GND*%
X81837500Y-83000000D03*
%TD*%
D13*
%TO.P,C16,1*%
%TO.N,GND*%
X170965000Y-125200000D03*
%TO.P,C16,2*%
%TO.N,3.3V*%
X168890000Y-125200000D03*
%TD*%
D15*
%TO.P,C20,1*%
%TO.N,3.6V B*%
X188400000Y-123075000D03*
%TO.P,C20,2*%
%TO.N,GND*%
X188400000Y-121000000D03*
%TD*%
D33*
%TO.P,C17,1*%
%TO.N,GND*%
X216500000Y-83697500D03*
%TO.P,C17,2*%
%TO.N,3.3V*%
X216500000Y-85772500D03*
%TD*%
D10*
%TO.P,D5,1,K*%
%TO.N,GND*%
X224200000Y-88750000D03*
%TO.P,D5,2,A*%
%TO.N,Net-(D5-A)*%
X225800000Y-88750000D03*
%TD*%
D31*
%TO.P,C22,1*%
%TO.N,GND*%
X209300000Y-129060000D03*
%TO.P,C22,2*%
%TO.N,3.6V-*%
X209300000Y-125935000D03*
%TD*%
D13*
%TO.P,C9,1*%
%TO.N,GND*%
X117637500Y-115740000D03*
%TO.P,C9,2*%
%TO.N,3.3V*%
X115562500Y-115740000D03*
%TD*%
D18*
%TO.P,J14,1,1*%
%TO.N,GND*%
X115800000Y-72400000D03*
D19*
%TO.P,J14,2,2*%
%TO.N,5.5V*%
X117800000Y-72400000D03*
%TO.P,J14,3,3*%
%TO.N,G_CAM_IN*%
X119800000Y-72400000D03*
%TO.P,J14,4,4*%
%TO.N,G_CAM_OUT*%
X121800000Y-72400000D03*
%TD*%
D24*
%TO.P,L2,1,1*%
%TO.N,Net-(U6-SW1)*%
X206725000Y-99600000D03*
%TO.P,L2,2,2*%
%TO.N,Net-(U6-SW2)*%
X200075000Y-99600000D03*
%TD*%
D23*
%TO.P,R20,1*%
%TO.N,Net-(D7-A)*%
X224087500Y-105250000D03*
%TO.P,R20,2*%
%TO.N,3.6V+*%
X225912500Y-105250000D03*
%TD*%
D26*
%TO.P,R12,1*%
%TO.N,Net-(U6-FB)*%
X217200000Y-109535000D03*
%TO.P,R12,2*%
%TO.N,3.3V MCU*%
X217200000Y-101915000D03*
%TD*%
D16*
%TO.P,U2,*%
%TO.N,*%
X112790000Y-81760000D03*
X112790000Y-99540000D03*
X133110000Y-81760000D03*
X133110000Y-99540000D03*
D34*
%TO.P,U2,JP1_1,VIN*%
%TO.N,3.3V*%
X116600000Y-99540000D03*
%TO.P,U2,JP1_2,3VO*%
%TO.N,unconnected-(U2-3VO-PadJP1_2)*%
X119140000Y-99540000D03*
%TO.P,U2,JP1_3,GND*%
%TO.N,GND*%
X121680000Y-99540000D03*
%TO.P,U2,JP1_4,SCL*%
%TO.N,SCL*%
X124220000Y-99540000D03*
%TO.P,U2,JP1_5,SDA*%
%TO.N,SDA*%
X126760000Y-99540000D03*
%TO.P,U2,JP1_6,~{INT}*%
%TO.N,IMU_INT*%
X129300000Y-99540000D03*
%TO.P,U2,JP2_1,BT*%
%TO.N,unconnected-(U2-BT-PadJP2_1)*%
X116600000Y-81760000D03*
%TO.P,U2,JP2_2,P0*%
%TO.N,GND*%
X119140000Y-81760000D03*
%TO.P,U2,JP2_3,P1*%
X121680000Y-81760000D03*
%TO.P,U2,JP2_4,~{RST}*%
%TO.N,3.3V*%
X124220000Y-81760000D03*
%TO.P,U2,JP2_5,DI*%
%TO.N,GND*%
X126760000Y-81760000D03*
%TO.P,U2,JP2_6,CS*%
%TO.N,3.3V*%
X129300000Y-81760000D03*
%TD*%
D15*
%TO.P,C10,1*%
%TO.N,GND*%
X108500000Y-80432500D03*
%TO.P,C10,2*%
%TO.N,3.3V*%
X108500000Y-78357500D03*
%TD*%
D35*
%TO.P,L3,1,1*%
%TO.N,3.6V-*%
X204341000Y-120497500D03*
%TO.P,L3,2,2*%
%TO.N,Net-(U11-SW)*%
X208659000Y-120497500D03*
%TD*%
D21*
%TO.P,TP7,1,1*%
%TO.N,3.6V+*%
X228200000Y-104500000D03*
%TD*%
D36*
%TO.P,U8,1,IN1*%
%TO.N,INV_PWM_1*%
X90799900Y-82499874D03*
%TO.P,U8,2,IN2*%
%TO.N,INV_PWM_2*%
X90799900Y-83000000D03*
%TO.P,U8,3,GND*%
%TO.N,GND*%
X90799900Y-83500126D03*
%TO.P,U8,4,OUT2*%
%TO.N,DC_PWM_2*%
X92400100Y-83500126D03*
%TO.P,U8,5,VM*%
%TO.N,5.5V*%
X92400100Y-83000000D03*
%TO.P,U8,6,OUT1*%
%TO.N,DC_PWM_1*%
X92400100Y-82499874D03*
%TD*%
D37*
%TO.P,R27,1*%
%TO.N,GND*%
X207780000Y-72802100D03*
%TO.P,R27,2*%
%TO.N,Net-(U13-VFB)*%
X209780000Y-72802100D03*
%TD*%
D23*
%TO.P,R23,1*%
%TO.N,Net-(U11-FB)*%
X213387500Y-116897500D03*
%TO.P,R23,2*%
%TO.N,5.5V*%
X215212500Y-116897500D03*
%TD*%
D38*
%TO.P,R6,1*%
%TO.N,3.6V-*%
X167395000Y-129600000D03*
%TO.P,R6,2*%
%TO.N,3.6V+*%
X173505000Y-129600000D03*
%TD*%
D14*
%TO.P,U10,1,GND*%
%TO.N,GND*%
X185337500Y-123150000D03*
%TO.P,U10,2,~{RESET}*%
%TO.N,Net-(U10-~{RESET})*%
X185337500Y-121250000D03*
%TO.P,U10,3,VDD*%
%TO.N,3.6V B*%
X183062500Y-122200000D03*
%TD*%
D32*
%TO.P,C3,1*%
%TO.N,GND*%
X111325000Y-122600000D03*
%TO.P,C3,2*%
%TO.N,Net-(U3-THRES)*%
X108200000Y-122600000D03*
%TD*%
D23*
%TO.P,R19,1*%
%TO.N,Net-(D6-A)*%
X224087500Y-111250000D03*
%TO.P,R19,2*%
%TO.N,3.6V B*%
X225912500Y-111250000D03*
%TD*%
D25*
%TO.P,U1,1,X1*%
%TO.N,X1*%
X134010000Y-69395000D03*
D26*
%TO.P,U1,2,X2*%
%TO.N,X2*%
X131470000Y-69395000D03*
%TO.P,U1,3,VBAT*%
%TO.N,Net-(U1-VBAT)*%
X128930000Y-69395000D03*
%TO.P,U1,4,GND*%
%TO.N,GND*%
X126390000Y-69395000D03*
%TO.P,U1,5,SDA*%
%TO.N,SDA*%
X126390000Y-77015000D03*
%TO.P,U1,6,SCL*%
%TO.N,SCL*%
X128930000Y-77015000D03*
%TO.P,U1,7,SQW/OUT*%
%TO.N,unconnected-(U1-SQW{slash}OUT-Pad7)*%
X131470000Y-77015000D03*
%TO.P,U1,8,VCC*%
%TO.N,5.5V*%
X134010000Y-77015000D03*
%TD*%
D25*
%TO.P,U3,1,GND*%
%TO.N,GND*%
X105400000Y-116800000D03*
D26*
%TO.P,U3,2,TRIG*%
%TO.N,Net-(U3-THRES)*%
X102860000Y-116800000D03*
%TO.P,U3,3,OUT*%
%TO.N,Net-(BZ1-+)*%
X100320000Y-116800000D03*
%TO.P,U3,4,~{RST}*%
%TO.N,3.3V BZ*%
X97780000Y-116800000D03*
%TO.P,U3,5,CONT*%
%TO.N,Net-(U3-CONT)*%
X97780000Y-124420000D03*
%TO.P,U3,6,THRES*%
%TO.N,Net-(U3-THRES)*%
X100320000Y-124420000D03*
%TO.P,U3,7,DISCH*%
%TO.N,unconnected-(U3-DISCH-Pad7)*%
X102860000Y-124420000D03*
%TO.P,U3,8,VCC*%
%TO.N,3.3V BZ*%
X105400000Y-124420000D03*
%TD*%
D10*
%TO.P,D7,1,K*%
%TO.N,GND*%
X224200000Y-103750000D03*
%TO.P,D7,2,A*%
%TO.N,Net-(D7-A)*%
X225800000Y-103750000D03*
%TD*%
D39*
%TO.P,Q2,1*%
%TO.N,1.2V B*%
X183325000Y-79460000D03*
%TO.P,Q2,2*%
X183325000Y-80730000D03*
%TO.P,Q2,3*%
X183325000Y-82000000D03*
%TO.P,Q2,4*%
%TO.N,Net-(U16-Y)*%
X183325000Y-83270000D03*
%TO.P,Q2,5*%
%TO.N,1.2V*%
X188275000Y-83270000D03*
%TO.P,Q2,6*%
X188275000Y-82000000D03*
%TO.P,Q2,7*%
X188275000Y-80730000D03*
%TO.P,Q2,8*%
X188275000Y-79460000D03*
%TD*%
D16*
%TO.P,U17,*%
%TO.N,*%
X188000000Y-88800000D03*
X160200000Y-88800000D03*
X188000000Y-111200000D03*
X160200000Y-111200000D03*
D17*
%TO.P,U17,JP5_1,GND*%
%TO.N,GND*%
X186800000Y-106350000D03*
%TO.P,U17,JP5_2,DTR*%
%TO.N,unconnected-(U17-DTR-PadJP5_2)*%
X184260000Y-106350000D03*
%TO.P,U17,JP5_3,RES1*%
%TO.N,unconnected-(U17-RES1-PadJP5_3)*%
X181720000Y-106350000D03*
%TO.P,U17,JP5_4,DIO11*%
%TO.N,unconnected-(U17-DIO11-PadJP5_4)*%
X179180000Y-106350000D03*
%TO.P,U17,JP5_5,RSSI*%
%TO.N,unconnected-(U17-RSSI-PadJP5_5)*%
X176640000Y-106350000D03*
%TO.P,U17,JP5_6,RESET*%
%TO.N,unconnected-(U17-RESET-PadJP5_6)*%
X174100000Y-106350000D03*
%TO.P,U17,JP5_7,DIO12*%
%TO.N,unconnected-(U17-DIO12-PadJP5_7)*%
X171560000Y-106350000D03*
%TO.P,U17,JP5_8,DIN*%
%TO.N,XBEE_TX*%
X169020000Y-106350000D03*
%TO.P,U17,JP5_9,DOUT*%
%TO.N,XBEE_RX*%
X166480000Y-106350000D03*
%TO.P,U17,JP5_10,3.3V*%
%TO.N,3.3V*%
X163940000Y-106350000D03*
%TO.P,U17,JP5_11,GND*%
%TO.N,GND*%
X161400000Y-106350000D03*
%TO.P,U17,JP6_1,DIO0*%
%TO.N,unconnected-(U17-DIO0-PadJP6_1)*%
X161400000Y-93650000D03*
%TO.P,U17,JP6_2,DIO1*%
%TO.N,unconnected-(U17-DIO1-PadJP6_2)*%
X163940000Y-93650000D03*
%TO.P,U17,JP6_3,DIO2*%
%TO.N,unconnected-(U17-DIO2-PadJP6_3)*%
X166480000Y-93650000D03*
%TO.P,U17,JP6_4,DIO3*%
%TO.N,unconnected-(U17-DIO3-PadJP6_4)*%
X169020000Y-93650000D03*
%TO.P,U17,JP6_5,RTS*%
%TO.N,unconnected-(U17-RTS-PadJP6_5)*%
X171560000Y-93650000D03*
%TO.P,U17,JP6_6,DIO5*%
%TO.N,unconnected-(U17-DIO5-PadJP6_6)*%
X174100000Y-93650000D03*
%TO.P,U17,JP6_7,RES2*%
%TO.N,unconnected-(U17-RES2-PadJP6_7)*%
X176640000Y-93650000D03*
%TO.P,U17,JP6_8,DIO9*%
%TO.N,unconnected-(U17-DIO9-PadJP6_8)*%
X179180000Y-93650000D03*
%TO.P,U17,JP6_9,CTS*%
%TO.N,unconnected-(U17-CTS-PadJP6_9)*%
X181720000Y-93650000D03*
%TO.P,U17,JP6_10,DIO4*%
%TO.N,unconnected-(U17-DIO4-PadJP6_10)*%
X184260000Y-93650000D03*
%TO.P,U17,JP6_11,5V*%
%TO.N,unconnected-(U17-5V-PadJP6_11)*%
X186800000Y-93650000D03*
%TD*%
D26*
%TO.P,R9,1*%
%TO.N,GND*%
X204600000Y-93620000D03*
%TO.P,R9,2*%
%TO.N,Net-(U5-FB)*%
X204600000Y-86000000D03*
%TD*%
D37*
%TO.P,R26,1*%
%TO.N,Net-(U13-VFB)*%
X211480000Y-72802100D03*
%TO.P,R26,2*%
%TO.N,3.3V BZ*%
X213480000Y-72802100D03*
%TD*%
D18*
%TO.P,J15,1,1*%
%TO.N,GND*%
X121800000Y-127600000D03*
D19*
%TO.P,J15,2,2*%
%TO.N,5.5V*%
X119800000Y-127600000D03*
%TO.P,J15,3,3*%
%TO.N,PG_CAM_IN*%
X117800000Y-127600000D03*
%TO.P,J15,4,4*%
%TO.N,PG_CAM_OUT*%
X115800000Y-127600000D03*
%TD*%
D18*
%TO.P,J5,1,1*%
%TO.N,GND*%
X92600000Y-121800000D03*
D19*
%TO.P,J5,2,2*%
%TO.N,Net-(J5-Pad2)*%
X90600000Y-121800000D03*
%TD*%
D13*
%TO.P,C11,1*%
%TO.N,3.3V*%
X88547500Y-111470000D03*
%TO.P,C11,2*%
%TO.N,GND*%
X86472500Y-111470000D03*
%TD*%
D15*
%TO.P,C18,1*%
%TO.N,GND*%
X200700000Y-111837500D03*
%TO.P,C18,2*%
%TO.N,3.3V MCU*%
X200700000Y-109762500D03*
%TD*%
D12*
%TO.P,R24,1*%
%TO.N,3.3V*%
X153700000Y-70400000D03*
%TO.P,R24,2*%
%TO.N,SDA*%
X153700000Y-72225000D03*
%TD*%
D22*
%TO.P,C1,1*%
%TO.N,GND*%
X108200000Y-116800000D03*
%TO.P,C1,2*%
%TO.N,Net-(U3-THRES)*%
X108200000Y-119925000D03*
%TD*%
D23*
%TO.P,R22,1*%
%TO.N,Net-(D9-A)*%
X224087500Y-93250000D03*
%TO.P,R22,2*%
%TO.N,3.3V BZ*%
X225912500Y-93250000D03*
%TD*%
D18*
%TO.P,J3,1,1*%
%TO.N,3.6V BT*%
X178400000Y-118600000D03*
D19*
%TO.P,J3,2,2*%
%TO.N,3.6V B*%
X178400000Y-120600000D03*
%TD*%
D21*
%TO.P,TP10,1,1*%
%TO.N,GND*%
X228200000Y-86500000D03*
%TD*%
%TO.P,TP8,1,1*%
%TO.N,3.3V*%
X228200000Y-98500000D03*
%TD*%
D31*
%TO.P,C6,1*%
%TO.N,3.6V-*%
X212712619Y-84275600D03*
%TO.P,C6,2*%
%TO.N,GND*%
X212712619Y-81150600D03*
%TD*%
D15*
%TO.P,C15,1*%
%TO.N,Net-(U6-FB)*%
X210125000Y-109535000D03*
%TO.P,C15,2*%
%TO.N,Net-(C15-Pad2)*%
X210125000Y-107460000D03*
%TD*%
D18*
%TO.P,J10,1,1*%
%TO.N,GND*%
X194050000Y-120460000D03*
D19*
%TO.P,J10,2,2*%
%TO.N,5.5V*%
X196050000Y-120460000D03*
%TO.P,J10,3,3*%
%TO.N,ELEVATOR*%
X198050000Y-120460000D03*
%TD*%
D39*
%TO.P,Q1,1*%
%TO.N,3.6V B*%
X183325000Y-125295000D03*
%TO.P,Q1,2*%
X183325000Y-126565000D03*
%TO.P,Q1,3*%
X183325000Y-127835000D03*
%TO.P,Q1,4*%
%TO.N,Net-(U12-Y)*%
X183325000Y-129105000D03*
%TO.P,Q1,5*%
%TO.N,3.6V+*%
X188275000Y-129105000D03*
%TO.P,Q1,6*%
X188275000Y-127835000D03*
%TO.P,Q1,7*%
X188275000Y-126565000D03*
%TO.P,Q1,8*%
X188275000Y-125295000D03*
%TD*%
D21*
%TO.P,BZ1,1,+*%
%TO.N,Net-(BZ1-+)*%
X158400000Y-121200000D03*
D40*
%TO.P,BZ1,2,-*%
%TO.N,GND*%
X166000000Y-121200000D03*
%TD*%
D10*
%TO.P,D2,1,K*%
%TO.N,GND*%
X224200000Y-106750000D03*
%TO.P,D2,2,A*%
%TO.N,Net-(D2-A)*%
X225800000Y-106750000D03*
%TD*%
D41*
%TO.P,U11,1,IN*%
%TO.N,3.6V-*%
X212725001Y-125450050D03*
%TO.P,U11,2,OUT*%
%TO.N,5.5V*%
X213374999Y-125450050D03*
%TO.P,U11,3,SW*%
%TO.N,Net-(U11-SW)*%
X214025001Y-125450050D03*
%TO.P,U11,4,PGND*%
%TO.N,GND*%
X214674999Y-125450050D03*
%TO.P,U11,5,FTY*%
%TO.N,unconnected-(U11-FTY-Pad5)*%
X214674999Y-122744950D03*
%TO.P,U11,6,AGND*%
%TO.N,GND*%
X214025001Y-122744950D03*
%TO.P,U11,7,FB*%
%TO.N,Net-(U11-FB)*%
X213374999Y-122744950D03*
%TO.P,U11,8,EN*%
%TO.N,3.6V-*%
X212725001Y-122744950D03*
%TD*%
D18*
%TO.P,J2,1,1*%
%TO.N,GND*%
X178400000Y-71800000D03*
D19*
%TO.P,J2,2,2*%
%TO.N,1.2V BT*%
X178400000Y-73800000D03*
%TD*%
D42*
%TO.P,U15,CN2_1,VCC*%
%TO.N,unconnected-(U15-VCC-PadCN2_1)*%
X140920000Y-121336000D03*
%TO.P,U15,CN2_2,SWCLK*%
%TO.N,unconnected-(U15-SWCLK-PadCN2_2)*%
X138380000Y-123876000D03*
%TO.P,U15,CN2_3,GND_SWD*%
%TO.N,unconnected-(U15-GND_SWD-PadCN2_3)*%
X138380000Y-121336000D03*
%TO.P,U15,CN2_4,SWDIO*%
%TO.N,unconnected-(U15-SWDIO-PadCN2_4)*%
X138380000Y-118796000D03*
%TO.P,U15,CN3_1,VIN*%
%TO.N,unconnected-(U15-VIN-PadCN3_1)*%
X138380000Y-116256000D03*
%TO.P,U15,CN3_2,GND_CN3*%
%TO.N,GND*%
X138380000Y-113716000D03*
%TO.P,U15,CN3_3,~{RST}_CN3*%
%TO.N,unconnected-(U15-~{RST}_CN3-PadCN3_3)*%
X138380000Y-111176000D03*
%TO.P,U15,CN3_4,5V*%
%TO.N,unconnected-(U15-5V-PadCN3_4)*%
X138380000Y-108636000D03*
%TO.P,U15,CN3_5,PA2(A7)*%
%TO.N,unconnected-(U15-PA2(A7)-PadCN3_5)*%
X138380000Y-106096000D03*
%TO.P,U15,CN3_6,SPI_MOSI(PA7(A6))*%
%TO.N,MOSI*%
X138380000Y-103556000D03*
%TO.P,U15,CN3_7,SPI_MISO(PA6/PA15(A5))*%
%TO.N,MISO*%
X138380000Y-101016000D03*
%TO.P,U15,CN3_8,SPI_SCK(PA5/PB7(A4))*%
%TO.N,SCLK*%
X138380000Y-98476000D03*
%TO.P,U15,CN3_9,SPI_CS(PA4(A3))*%
%TO.N,CS*%
X138380000Y-95936000D03*
%TO.P,U15,CN3_10,PA3(A2)*%
%TO.N,unconnected-(U15-PA3(A2)-PadCN3_10)*%
X138380000Y-93396000D03*
%TO.P,U15,CN3_11,PWM_1(PA1(A1))*%
%TO.N,INV_PWM_1*%
X138380000Y-90856000D03*
%TO.P,U15,CN3_12,PWM_2(PA0(A0))*%
%TO.N,INV_PWM_2*%
X138380000Y-88316000D03*
%TO.P,U15,CN3_13,AREF*%
%TO.N,unconnected-(U15-AREF-PadCN3_13)*%
X138380000Y-85776000D03*
%TO.P,U15,CN3_14,3V3*%
%TO.N,3.3V MCU*%
X138380000Y-83236000D03*
%TO.P,U15,CN3_15,T_SWO(PB3/PB8(D13))*%
%TO.N,IMU_INT*%
X138380000Y-80696000D03*
%TO.P,U15,CN4_1,XBEE_TX(PA9(D1))*%
%TO.N,XBEE_TX*%
X153620000Y-116256000D03*
%TO.P,U15,CN4_2,XBEE_RX(PA10(D0))*%
%TO.N,XBEE_RX*%
X153620000Y-113716000D03*
%TO.P,U15,CN4_3,~{RST}_CN4*%
%TO.N,unconnected-(U15-~{RST}_CN4-PadCN4_3)*%
X153620000Y-111176000D03*
%TO.P,U15,CN4_4,GND_CN4*%
%TO.N,GND*%
X153620000Y-108636000D03*
%TO.P,U15,CN4_5,NC_REL(PA12(D2))*%
%TO.N,NC_REL*%
X153620000Y-106096000D03*
%TO.P,U15,CN4_6,EGG_REL(PB0(D3))*%
%TO.N,EGG_REL*%
X153620000Y-103556000D03*
%TO.P,U15,CN4_7,I2C_SDA(PB7(D4))*%
%TO.N,SDA*%
X153620000Y-101016000D03*
%TO.P,U15,CN4_8,I2C_SCL(PA15(D5))*%
%TO.N,SCL*%
X153620000Y-98476000D03*
%TO.P,U15,CN4_9,G_CAM_IN(PB6(D6))*%
%TO.N,G_CAM_IN*%
X153620000Y-95936000D03*
%TO.P,U15,CN4_10,G_CAM_OUT(PF0(D7))*%
%TO.N,G_CAM_OUT*%
X153620000Y-93396000D03*
%TO.P,U15,CN4_11,PG_CAM_OUT(PF1(D8))*%
%TO.N,PG_CAM_OUT*%
X153620000Y-90856000D03*
%TO.P,U15,CN4_12,PG_CAM_IN(PA8(D9))*%
%TO.N,PG_CAM_IN*%
X153620000Y-88316000D03*
%TO.P,U15,CN4_13,CC_REL(PA11(D10))*%
%TO.N,CC_REL*%
X153620000Y-85776000D03*
%TO.P,U15,CN4_14,AILERON(PB5(D11))*%
%TO.N,AILERON*%
X153620000Y-83236000D03*
%TO.P,U15,CN4_15,ELEVATOR(PB4(D12))*%
%TO.N,ELEVATOR*%
X153620000Y-80696000D03*
%TD*%
D18*
%TO.P,J9,1,1*%
%TO.N,GND*%
X81600000Y-78200000D03*
D19*
%TO.P,J9,2,2*%
%TO.N,5.5V*%
X83600000Y-78200000D03*
%TO.P,J9,3,3*%
%TO.N,EGG_REL*%
X85600000Y-78200000D03*
%TD*%
D26*
%TO.P,R10,1*%
%TO.N,GND*%
X212600000Y-101915000D03*
%TO.P,R10,2*%
%TO.N,Net-(U6-FB)*%
X212600000Y-109535000D03*
%TD*%
D43*
%TO.P,C26,1*%
%TO.N,5.5V*%
X213732500Y-127297500D03*
%TO.P,C26,2*%
%TO.N,GND*%
X214867500Y-127297500D03*
%TD*%
D23*
%TO.P,R21,1*%
%TO.N,Net-(D8-A)*%
X224087500Y-99250000D03*
%TO.P,R21,2*%
%TO.N,3.3V*%
X225912500Y-99250000D03*
%TD*%
D21*
%TO.P,TP1,1,1*%
%TO.N,1.2V B*%
X228200000Y-113500000D03*
%TD*%
D11*
%TO.P,C24,1*%
%TO.N,5.5V*%
X213262500Y-129097500D03*
%TO.P,C24,2*%
%TO.N,GND*%
X215337500Y-129097500D03*
%TD*%
D18*
%TO.P,J13,1,1*%
%TO.N,GND*%
X76600000Y-121800000D03*
D19*
%TO.P,J13,2,2*%
%TO.N,5.5V*%
X74600000Y-121800000D03*
%TO.P,J13,3,3*%
%TO.N,AILERON*%
X72600000Y-121800000D03*
%TD*%
D20*
%TO.P,R8,1*%
%TO.N,Net-(U6-FB)*%
X214900000Y-109535000D03*
%TO.P,R8,2*%
%TO.N,Net-(C14-Pad1)*%
X214900000Y-107710000D03*
%TD*%
D10*
%TO.P,D4,1,K*%
%TO.N,GND*%
X224200000Y-94750000D03*
%TO.P,D4,2,A*%
%TO.N,Net-(D4-A)*%
X225800000Y-94750000D03*
%TD*%
D33*
%TO.P,C13,1*%
%TO.N,Net-(U5-FB)*%
X207075000Y-86000000D03*
%TO.P,C13,2*%
%TO.N,Net-(C13-Pad2)*%
X207075000Y-88075000D03*
%TD*%
D44*
%TO.P,R4,1*%
%TO.N,Net-(U5-VC)*%
X208900000Y-90437500D03*
%TO.P,R4,2*%
%TO.N,Net-(C13-Pad2)*%
X207075000Y-90437500D03*
%TD*%
D15*
%TO.P,C2,1*%
%TO.N,5.5V*%
X137800000Y-72237500D03*
%TO.P,C2,2*%
%TO.N,GND*%
X137800000Y-70162500D03*
%TD*%
D13*
%TO.P,C19,1*%
%TO.N,5.5V*%
X91237500Y-85200000D03*
%TO.P,C19,2*%
%TO.N,GND*%
X89162500Y-85200000D03*
%TD*%
D10*
%TO.P,D3,1,K*%
%TO.N,GND*%
X224200000Y-100750000D03*
%TO.P,D3,2,A*%
%TO.N,Net-(D3-A)*%
X225800000Y-100750000D03*
%TD*%
D18*
%TO.P,J16,1,1*%
%TO.N,DC_PWM_1*%
X90600000Y-78200000D03*
D19*
%TO.P,J16,2,2*%
%TO.N,DC_PWM_2*%
X92600000Y-78200000D03*
%TD*%
D45*
%TO.P,R13,1*%
%TO.N,GND*%
X216650000Y-119297500D03*
%TO.P,R13,2*%
%TO.N,Net-(U11-FB)*%
X213550000Y-119297500D03*
%TD*%
D23*
%TO.P,R14,1*%
%TO.N,Net-(D1-A)*%
X224087500Y-114250000D03*
%TO.P,R14,2*%
%TO.N,1.2V B*%
X225912500Y-114250000D03*
%TD*%
D14*
%TO.P,U12,1,NC*%
%TO.N,unconnected-(U12-NC-Pad1)*%
X185337500Y-118750000D03*
%TO.P,U12,2,A*%
%TO.N,Net-(U10-~{RESET})*%
X185337500Y-117800000D03*
%TO.P,U12,3,GND*%
%TO.N,GND*%
X185337500Y-116850000D03*
%TO.P,U12,4,Y*%
%TO.N,Net-(U12-Y)*%
X183062500Y-116850000D03*
%TO.P,U12,5,VCC*%
%TO.N,3.6V B*%
X183062500Y-118750000D03*
%TD*%
D46*
%TO.P,L4,1*%
%TO.N,Net-(U13-SW)*%
X199300000Y-77152100D03*
%TO.P,L4,2*%
%TO.N,1.2V*%
X199300000Y-71652100D03*
%TD*%
D31*
%TO.P,C5,1*%
%TO.N,Net-(U3-CONT)*%
X96600000Y-114162500D03*
%TO.P,C5,2*%
%TO.N,GND*%
X96600000Y-111037500D03*
%TD*%
D20*
%TO.P,R1,1*%
%TO.N,3.3V BZ*%
X98700000Y-114312500D03*
%TO.P,R1,2*%
%TO.N,Net-(U3-THRES)*%
X98700000Y-112487500D03*
%TD*%
D18*
%TO.P,J12,1,1*%
%TO.N,GND*%
X72600000Y-78200000D03*
D19*
%TO.P,J12,2,2*%
%TO.N,5.5V*%
X74600000Y-78200000D03*
%TO.P,J12,3,3*%
%TO.N,AILERON*%
X76600000Y-78200000D03*
%TD*%
D44*
%TO.P,R3,1*%
%TO.N,Net-(J5-Pad2)*%
X92512500Y-117400000D03*
%TO.P,R3,2*%
%TO.N,3.3V*%
X90687500Y-117400000D03*
%TD*%
D31*
%TO.P,C25,1*%
%TO.N,GND*%
X214700000Y-78364600D03*
%TO.P,C25,2*%
%TO.N,3.3V BZ*%
X214700000Y-75239600D03*
%TD*%
D47*
%TO.P,U5,1,RT*%
%TO.N,3.6V-*%
X210761900Y-90703800D03*
%TO.P,U5,2,SGND*%
%TO.N,GND*%
X211412141Y-90703800D03*
%TO.P,U5,3,MODE/SYNC*%
X212062381Y-90703800D03*
%TO.P,U5,4,SW1*%
%TO.N,Net-(U5-SW1)*%
X212712619Y-90703800D03*
%TO.P,U5,5,PGND*%
%TO.N,GND*%
X213362859Y-90703800D03*
%TO.P,U5,6,SW2*%
%TO.N,Net-(U5-SW2)*%
X214013100Y-90703800D03*
%TO.P,U5,7,VOUT*%
%TO.N,3.3V*%
X214013100Y-86335000D03*
%TO.P,U5,8,VIN_2*%
%TO.N,3.6V-*%
X213362859Y-86335000D03*
%TO.P,U5,9,VIN*%
X212712619Y-86335000D03*
%TO.P,U5,10,\u002ASHDN*%
X212062381Y-86335000D03*
%TO.P,U5,11,FB*%
%TO.N,Net-(U5-FB)*%
X211412141Y-86335000D03*
%TO.P,U5,12,VC*%
%TO.N,Net-(U5-VC)*%
X210761900Y-86335000D03*
D48*
%TO.P,U5,13,EPAD*%
%TO.N,GND*%
X212387500Y-88519400D03*
%TD*%
D23*
%TO.P,R16,1*%
%TO.N,Net-(D3-A)*%
X224087500Y-102250000D03*
%TO.P,R16,2*%
%TO.N,3.6V-*%
X225912500Y-102250000D03*
%TD*%
D21*
%TO.P,TP3,1,1*%
%TO.N,3.6V-*%
X228200000Y-101500000D03*
%TD*%
D16*
%TO.P,U7,*%
%TO.N,*%
X112790000Y-105540000D03*
X133110000Y-105540000D03*
D17*
%TO.P,U7,1,VIN*%
%TO.N,3.3V*%
X114060000Y-118240000D03*
%TO.P,U7,2,3Vo*%
%TO.N,unconnected-(U7-3Vo-Pad2)*%
X116600000Y-118240000D03*
%TO.P,U7,3,GND*%
%TO.N,GND*%
X119140000Y-118240000D03*
%TO.P,U7,4,SCL*%
%TO.N,SCL*%
X121680000Y-118240000D03*
%TO.P,U7,5,SDO*%
%TO.N,unconnected-(U7-SDO-Pad5)*%
X124220000Y-118240000D03*
%TO.P,U7,6,SDA*%
%TO.N,SDA*%
X126760000Y-118240000D03*
%TO.P,U7,7,CS*%
%TO.N,unconnected-(U7-CS-Pad7)*%
X129300000Y-118240000D03*
%TO.P,U7,8,INT*%
%TO.N,unconnected-(U7-INT-Pad8)*%
X131840000Y-118240000D03*
%TD*%
D49*
%TO.P,Y1,1*%
%TO.N,X1*%
X149472500Y-70565000D03*
%TO.P,Y1,2*%
%TO.N,X2*%
X149472500Y-71835000D03*
%TD*%
D50*
%TO.P,C12,1*%
%TO.N,Net-(C12-Pad1)*%
X202300000Y-91895000D03*
%TO.P,C12,2*%
%TO.N,3.3V*%
X202300000Y-93620000D03*
%TD*%
D47*
%TO.P,U6,1,RT*%
%TO.N,3.6V-*%
X206438100Y-104831200D03*
%TO.P,U6,2,SGND*%
%TO.N,GND*%
X205787859Y-104831200D03*
%TO.P,U6,3,MODE/SYNC*%
X205137619Y-104831200D03*
%TO.P,U6,4,SW1*%
%TO.N,Net-(U6-SW1)*%
X204487381Y-104831200D03*
%TO.P,U6,5,PGND*%
%TO.N,GND*%
X203837141Y-104831200D03*
%TO.P,U6,6,SW2*%
%TO.N,Net-(U6-SW2)*%
X203186900Y-104831200D03*
%TO.P,U6,7,VOUT*%
%TO.N,3.3V MCU*%
X203186900Y-109200000D03*
%TO.P,U6,8,VIN_2*%
%TO.N,3.6V-*%
X203837141Y-109200000D03*
%TO.P,U6,9,VIN*%
X204487381Y-109200000D03*
%TO.P,U6,10,\u002ASHDN*%
X205137619Y-109200000D03*
%TO.P,U6,11,FB*%
%TO.N,Net-(U6-FB)*%
X205787859Y-109200000D03*
%TO.P,U6,12,VC*%
%TO.N,Net-(U6-VC)*%
X206438100Y-109200000D03*
D48*
%TO.P,U6,13,EPAD*%
%TO.N,GND*%
X204812500Y-107015600D03*
%TD*%
D51*
%TO.P,U9,1,A1*%
%TO.N,GND*%
X173505000Y-116325000D03*
%TO.P,U9,2,A0*%
X172235000Y-116325000D03*
%TO.P,U9,3,SDA*%
%TO.N,SDA*%
X170965000Y-116325000D03*
%TO.P,U9,4,SCL*%
%TO.N,SCL*%
X169695000Y-116325000D03*
%TO.P,U9,5,VS*%
%TO.N,3.3V*%
X169695000Y-121275000D03*
%TO.P,U9,6,GND*%
%TO.N,GND*%
X170965000Y-121275000D03*
%TO.P,U9,7,VIN-*%
%TO.N,3.6V-*%
X172235000Y-121275000D03*
%TO.P,U9,8,VIN+*%
%TO.N,3.6V+*%
X173505000Y-121275000D03*
%TD*%
D21*
%TO.P,TP6,1,1*%
%TO.N,3.6V B*%
X228200000Y-110500000D03*
%TD*%
D15*
%TO.P,C23,1*%
%TO.N,GND*%
X188400000Y-119000000D03*
%TO.P,C23,2*%
%TO.N,3.6V B*%
X188400000Y-116925000D03*
%TD*%
D18*
%TO.P,J7,1,1*%
%TO.N,GND*%
X198050000Y-127800000D03*
D19*
%TO.P,J7,2,2*%
%TO.N,5.5V*%
X196050000Y-127800000D03*
%TO.P,J7,3,3*%
%TO.N,CC_REL*%
X194050000Y-127800000D03*
%TD*%
D21*
%TO.P,TP9,1,1*%
%TO.N,3.3V BZ*%
X228200000Y-92500000D03*
%TD*%
%TO.P,TP4,1,1*%
%TO.N,3.3V MCU*%
X228200000Y-95500000D03*
%TD*%
D52*
%TO.N,MOSI*%
X133110000Y-86776000D03*
%TO.N,Net-(U1-VBAT)*%
X157780000Y-75000000D03*
%TO.N,3.3V*%
X163940000Y-113600000D03*
X190200000Y-96200000D03*
X107250000Y-78357500D03*
X169695000Y-119600000D03*
X161400000Y-79000000D03*
X223000000Y-99250000D03*
X157300000Y-70400000D03*
X124220000Y-91600000D03*
X220800000Y-89600000D03*
X192780000Y-93620000D03*
X161400000Y-75000000D03*
%TO.N,CS*%
X126760000Y-92494000D03*
X115082588Y-83876235D03*
%TO.N,MISO*%
X126760000Y-93396000D03*
X109400000Y-82800000D03*
%TO.N,SCLK*%
X133110000Y-85776000D03*
%TO.N,GND*%
X186600000Y-116850000D03*
X186900000Y-76665000D03*
X216500000Y-82372500D03*
X80400000Y-83000000D03*
X203000000Y-114375600D03*
X216200000Y-78364600D03*
X223200000Y-112750000D03*
X206100000Y-76364600D03*
X223200000Y-103750000D03*
X186600000Y-71015000D03*
X136200000Y-69395000D03*
X214200000Y-81150600D03*
X223200000Y-94750000D03*
X216650000Y-120697500D03*
X208500000Y-79002100D03*
X203837141Y-103200000D03*
X223200000Y-106750000D03*
X89162500Y-83900000D03*
X165400000Y-74600000D03*
X108500000Y-81800000D03*
X186900000Y-122500000D03*
X223200000Y-91750000D03*
X112800000Y-122600000D03*
X223200000Y-100750000D03*
X210900000Y-129060000D03*
X223200000Y-97750000D03*
X213362859Y-92335000D03*
X200700000Y-113162500D03*
X170965000Y-119600000D03*
X207780000Y-71402100D03*
X223200000Y-109750000D03*
X215337500Y-130497500D03*
X95000000Y-111037500D03*
X223200000Y-88750000D03*
%TO.N,5.5V*%
X111000000Y-118800000D03*
X216300000Y-116897500D03*
X212700000Y-127697500D03*
X84962500Y-80800000D03*
X111000000Y-113400000D03*
X196050000Y-131600000D03*
X225400000Y-85800000D03*
%TO.N,EGG_REL*%
X115082588Y-89800000D03*
X126760000Y-94298000D03*
%TO.N,AILERON*%
X148800000Y-83236000D03*
%TO.N,SCL*%
X155500000Y-73400000D03*
X169695000Y-114800000D03*
%TO.N,SDA*%
X153700000Y-78156000D03*
X121680000Y-101200000D03*
X170965000Y-114800000D03*
X153700000Y-73400000D03*
X156200000Y-79600000D03*
X126760000Y-95200000D03*
%TO.N,ELEVATOR*%
X156800000Y-80696000D03*
%TO.N,CC_REL*%
X156800000Y-85776000D03*
%TO.N,PG_CAM_OUT*%
X152000000Y-117526000D03*
%TO.N,PG_CAM_IN*%
X151200000Y-117526000D03*
%TO.N,NC_REL*%
X128200000Y-109906000D03*
X122800000Y-109906000D03*
%TO.N,3.3V MCU*%
X172830000Y-110000000D03*
X202400000Y-109200000D03*
X162600000Y-118000000D03*
X190000000Y-107697500D03*
%TO.N,3.3V BZ*%
X164800000Y-117000000D03*
X172800000Y-113400000D03*
X197400000Y-92200000D03*
X192780000Y-98400000D03*
X217600000Y-75800000D03*
X217600000Y-72800000D03*
%TO.N,DC_PWM_1*%
X95000000Y-82499874D03*
%TO.N,DC_PWM_2*%
X95000000Y-83500126D03*
%TO.N,INV_PWM_2*%
X87600000Y-83900000D03*
%TO.N,INV_PWM_1*%
X86800000Y-83900000D03*
%TO.N,3.6V B*%
X201200000Y-129800000D03*
X205600000Y-131600000D03*
X186900000Y-124000000D03*
X184800000Y-125295000D03*
%TO.N,1.2V B*%
X184800000Y-79460000D03*
X205200000Y-115600000D03*
X220400000Y-115600000D03*
X202400000Y-115600000D03*
X186900000Y-78165000D03*
%TO.N,3.6V-*%
X210000000Y-90703800D03*
X207200000Y-104831200D03*
X211700000Y-122744950D03*
X208900000Y-86637500D03*
X208300000Y-111335000D03*
X172235000Y-119600000D03*
X208300000Y-108897500D03*
X208300000Y-106897500D03*
X203400000Y-130400000D03*
X208900000Y-84200000D03*
X208900000Y-88637500D03*
X211700000Y-126497500D03*
%TO.N,1.2V*%
X206300000Y-75106700D03*
X190800000Y-83270000D03*
X192000000Y-73600000D03*
X223000000Y-108250000D03*
X210500000Y-77697500D03*
X220800000Y-91000000D03*
%TO.N,3.6V+*%
X193400000Y-116400000D03*
X216300000Y-114800000D03*
X190400000Y-129105000D03*
%TO.N,3.3V*%
X214800000Y-86335000D03*
%TD*%
D53*
%TO.N,Net-(U1-VBAT)*%
X157780000Y-77200000D02*
X157780000Y-75000000D01*
X170020000Y-80200000D02*
X173020000Y-77200000D01*
X157780000Y-77200000D02*
X160780000Y-80200000D01*
X160780000Y-80200000D02*
X170020000Y-80200000D01*
D54*
%TO.N,Net-(BZ1-+)*%
X100320000Y-114312500D02*
X100320000Y-116800000D01*
%TO.N,Net-(U3-THRES)*%
X108200000Y-122600000D02*
X108200000Y-119925000D01*
X108200000Y-122600000D02*
X102140000Y-122600000D01*
X102860000Y-115027500D02*
X102860000Y-116800000D01*
X102140000Y-122600000D02*
X100320000Y-124420000D01*
X100320000Y-112487500D02*
X102860000Y-115027500D01*
X105985000Y-119925000D02*
X102860000Y-116800000D01*
X108200000Y-119925000D02*
X105985000Y-119925000D01*
X98700000Y-112487500D02*
X100320000Y-112487500D01*
%TO.N,Net-(U3-CONT)*%
X96600000Y-123240000D02*
X97780000Y-124420000D01*
X96600000Y-114162500D02*
X96600000Y-123240000D01*
D53*
%TO.N,3.3V*%
X168890000Y-125200000D02*
X168890000Y-122080000D01*
X123542500Y-91600000D02*
X124220000Y-91600000D01*
X88780000Y-111702500D02*
X88547500Y-111470000D01*
X131000000Y-125037500D02*
X128962500Y-123000000D01*
X200000000Y-93620000D02*
X202300000Y-93620000D01*
X222200000Y-98450000D02*
X223000000Y-99250000D01*
X227450000Y-99250000D02*
X228200000Y-98500000D01*
X115562500Y-115740000D02*
X115562500Y-116737500D01*
X118102500Y-98037500D02*
X116600000Y-99540000D01*
X157300000Y-70400000D02*
X155500000Y-70400000D01*
X115562500Y-116737500D02*
X114060000Y-118240000D01*
X88780000Y-115492500D02*
X90687500Y-117400000D01*
X168890000Y-122080000D02*
X169695000Y-121275000D01*
X100320000Y-75590000D02*
X100320000Y-80670000D01*
X161400000Y-79000000D02*
X161400000Y-75000000D01*
X118102500Y-97040000D02*
X118102500Y-98037500D01*
X155500000Y-70400000D02*
X153700000Y-70400000D01*
X100320000Y-80670000D02*
X102860000Y-83210000D01*
X131000000Y-127600000D02*
X131000000Y-125037500D01*
X192780000Y-93620000D02*
X190200000Y-96200000D01*
X220800000Y-89600000D02*
X222200000Y-91000000D01*
X169695000Y-121275000D02*
X169695000Y-119600000D01*
X222200000Y-91000000D02*
X222200000Y-98450000D01*
X225912500Y-99250000D02*
X227450000Y-99250000D01*
X88780000Y-113970000D02*
X88780000Y-115492500D01*
X163940000Y-106350000D02*
X163940000Y-113600000D01*
X107250000Y-78357500D02*
X108500000Y-78357500D01*
X88780000Y-113970000D02*
X88780000Y-111702500D01*
X118102500Y-97040000D02*
X123542500Y-91600000D01*
%TO.N,GND*%
X211412141Y-89494759D02*
X211412141Y-90703800D01*
D55*
X165400000Y-77200000D02*
X165400000Y-74600000D01*
D53*
X204812500Y-107015600D02*
X205787859Y-106040241D01*
D55*
X207780000Y-72802100D02*
X207780000Y-71402100D01*
X223200000Y-97750000D02*
X224200000Y-97750000D01*
X186600000Y-71015000D02*
X185337500Y-71015000D01*
X188400000Y-75165000D02*
X188400000Y-73165000D01*
X133000000Y-124962500D02*
X131037500Y-123000000D01*
D53*
X203837141Y-104831200D02*
X203837141Y-103200000D01*
X213362859Y-90703800D02*
X213362859Y-89494759D01*
D55*
X86240000Y-113970000D02*
X86240000Y-111702500D01*
X120177500Y-98037500D02*
X121680000Y-99540000D01*
X185337500Y-77315000D02*
X186250000Y-77315000D01*
X185337500Y-123150000D02*
X186250000Y-123150000D01*
X186250000Y-77315000D02*
X186900000Y-76665000D01*
X89162500Y-85200000D02*
X89162500Y-83900000D01*
X172235000Y-118330000D02*
X172235000Y-116325000D01*
D53*
X205787859Y-106040241D02*
X205787859Y-104831200D01*
D55*
X186900000Y-122500000D02*
X188400000Y-121000000D01*
X215337500Y-129097500D02*
X215337500Y-130497500D01*
D56*
X214674999Y-125450050D02*
X214674999Y-127104999D01*
D55*
X81837500Y-83000000D02*
X80400000Y-83000000D01*
X170965000Y-119600000D02*
X172235000Y-118330000D01*
X206100000Y-76364600D02*
X204500000Y-76364600D01*
X223200000Y-112750000D02*
X224200000Y-112750000D01*
D53*
X203837141Y-106040241D02*
X204812500Y-107015600D01*
X215337500Y-129097500D02*
X215337500Y-127767500D01*
D55*
X117637500Y-116737500D02*
X119140000Y-118240000D01*
X223200000Y-94750000D02*
X224200000Y-94750000D01*
X223200000Y-91750000D02*
X224200000Y-91750000D01*
X108500000Y-81800000D02*
X108500000Y-80432500D01*
X117637500Y-115740000D02*
X117637500Y-116737500D01*
X200700000Y-113162500D02*
X200700000Y-111837500D01*
D53*
X215337500Y-127767500D02*
X214867500Y-127297500D01*
D55*
X170965000Y-119600000D02*
X170965000Y-121275000D01*
D53*
X211412141Y-90703800D02*
X212062381Y-90703800D01*
D54*
X90799900Y-83500126D02*
X89562374Y-83500126D01*
D55*
X133000000Y-127600000D02*
X133000000Y-124962500D01*
X216200000Y-78364600D02*
X214700000Y-78364600D01*
D54*
X89562374Y-83500126D02*
X89162500Y-83900000D01*
D55*
X105400000Y-116800000D02*
X108200000Y-116800000D01*
X137032500Y-69395000D02*
X137800000Y-70162500D01*
X86240000Y-111702500D02*
X86472500Y-111470000D01*
X223200000Y-106750000D02*
X224200000Y-106750000D01*
X186900000Y-76665000D02*
X188400000Y-75165000D01*
X136200000Y-69395000D02*
X137032500Y-69395000D01*
X224200000Y-88750000D02*
X223200000Y-88750000D01*
D53*
X170965000Y-125200000D02*
X170965000Y-121275000D01*
X213362859Y-90703800D02*
X213362859Y-92335000D01*
D55*
X210900000Y-129060000D02*
X209300000Y-129060000D01*
X186600000Y-116850000D02*
X185337500Y-116850000D01*
D53*
X203837141Y-104831200D02*
X203837141Y-106040241D01*
D55*
X223200000Y-100750000D02*
X224200000Y-100750000D01*
X216650000Y-120697500D02*
X216650000Y-119297500D01*
D56*
X214674999Y-127104999D02*
X214867500Y-127297500D01*
D55*
X95000000Y-111037500D02*
X96600000Y-111037500D01*
X214200000Y-81150600D02*
X212712619Y-81150600D01*
D53*
X213362859Y-89494759D02*
X212387500Y-88519400D01*
D55*
X120177500Y-97040000D02*
X120177500Y-98037500D01*
X223200000Y-103750000D02*
X224200000Y-103750000D01*
X186250000Y-123150000D02*
X186900000Y-122500000D01*
X188400000Y-121000000D02*
X188400000Y-119000000D01*
X208500000Y-79002100D02*
X208500000Y-77697500D01*
X203000000Y-114375600D02*
X204487381Y-114375600D01*
X216500000Y-82372500D02*
X216500000Y-83697500D01*
X112800000Y-122600000D02*
X111325000Y-122600000D01*
X223200000Y-109750000D02*
X224200000Y-109750000D01*
X172235000Y-116325000D02*
X173505000Y-116325000D01*
D53*
X212387500Y-88519400D02*
X211412141Y-89494759D01*
X205787859Y-104831200D02*
X205137619Y-104831200D01*
D55*
%TO.N,5.5V*%
X225912500Y-90250000D02*
X227450000Y-90250000D01*
X222400000Y-85800000D02*
X225400000Y-85800000D01*
X215212500Y-116897500D02*
X216300000Y-116897500D01*
X219800000Y-113400000D02*
X219800000Y-88400000D01*
X216300000Y-116897500D02*
X219797500Y-113400000D01*
X137800000Y-73225000D02*
X137800000Y-72237500D01*
X219800000Y-88400000D02*
X222400000Y-85800000D01*
X134010000Y-77015000D02*
X137800000Y-73225000D01*
X196050000Y-131600000D02*
X196050000Y-127800000D01*
X219797500Y-113400000D02*
X219800000Y-113400000D01*
X227450000Y-90250000D02*
X228200000Y-89500000D01*
X111000000Y-118800000D02*
X111000000Y-113400000D01*
D54*
%TO.N,SCL*%
X169695000Y-116325000D02*
X169695000Y-114800000D01*
X155500000Y-72225000D02*
X155500000Y-73400000D01*
%TO.N,SDA*%
X153700000Y-72225000D02*
X153700000Y-73400000D01*
X170965000Y-116325000D02*
X170965000Y-114800000D01*
D53*
%TO.N,3.3V MCU*%
X200897500Y-107697500D02*
X202400000Y-109200000D01*
X227450000Y-96250000D02*
X228200000Y-95500000D01*
X217200000Y-101915000D02*
X214900000Y-101915000D01*
X170600000Y-110000000D02*
X172830000Y-110000000D01*
X162600000Y-118000000D02*
X170600000Y-110000000D01*
X190000000Y-107697500D02*
X200897500Y-107697500D01*
X225912500Y-96250000D02*
X227450000Y-96250000D01*
%TO.N,3.3V BZ*%
X98700000Y-114312500D02*
X98700000Y-115880000D01*
X192780000Y-98400000D02*
X192780000Y-96820000D01*
X225912500Y-93250000D02*
X227450000Y-93250000D01*
X98700000Y-115880000D02*
X97780000Y-116800000D01*
X168400000Y-113400000D02*
X172800000Y-113400000D01*
X227450000Y-93250000D02*
X228200000Y-92500000D01*
X192780000Y-96820000D02*
X197400000Y-92200000D01*
X164800000Y-117000000D02*
X168400000Y-113400000D01*
D54*
%TO.N,Net-(J5-Pad2)*%
X92512500Y-119887500D02*
X90600000Y-121800000D01*
X92512500Y-117400000D02*
X92512500Y-119887500D01*
%TO.N,DC_PWM_1*%
X95000000Y-82499874D02*
X92400100Y-82499874D01*
%TO.N,DC_PWM_2*%
X95000000Y-83500126D02*
X92400100Y-83500126D01*
%TO.N,Net-(C12-Pad1)*%
X202300000Y-91895000D02*
X202300000Y-87825000D01*
%TO.N,Net-(C13-Pad2)*%
X207075000Y-90437500D02*
X207075000Y-88075000D01*
%TO.N,Net-(C14-Pad1)*%
X214900000Y-103640000D02*
X214900000Y-107710000D01*
%TO.N,Net-(C15-Pad2)*%
X210125000Y-105097500D02*
X210125000Y-107460000D01*
%TO.N,INV_PWM_2*%
X87600000Y-83900000D02*
X88500000Y-83000000D01*
X88500000Y-83000000D02*
X90799900Y-83000000D01*
%TO.N,INV_PWM_1*%
X88192610Y-82499874D02*
X90799900Y-82499874D01*
X86800000Y-83900000D02*
X86800000Y-83892484D01*
X86800000Y-83892484D02*
X88192610Y-82499874D01*
D53*
%TO.N,3.6V B*%
X203000000Y-131600000D02*
X205600000Y-131600000D01*
X183325000Y-125295000D02*
X183325000Y-127835000D01*
X183325000Y-125295000D02*
X184800000Y-125295000D01*
X183062500Y-122200000D02*
X183062500Y-118750000D01*
X178400000Y-120600000D02*
X180000000Y-122200000D01*
X180000000Y-122200000D02*
X183062500Y-122200000D01*
X188400000Y-123075000D02*
X189600000Y-121875000D01*
X189600000Y-121875000D02*
X189600000Y-118125000D01*
X189600000Y-118125000D02*
X188400000Y-116925000D01*
X188400000Y-123075000D02*
X187825000Y-123075000D01*
X187825000Y-123075000D02*
X186900000Y-124000000D01*
X201200000Y-129800000D02*
X203000000Y-131600000D01*
X227450000Y-111250000D02*
X228200000Y-110500000D01*
X225912500Y-111250000D02*
X227450000Y-111250000D01*
X183062500Y-125032500D02*
X183325000Y-125295000D01*
X183062500Y-122200000D02*
X183062500Y-125032500D01*
D57*
%TO.N,1.2V B*%
X183325000Y-79460000D02*
X181740000Y-79460000D01*
X226100000Y-115600000D02*
X228200000Y-113500000D01*
X202400000Y-115600000D02*
X205200000Y-115600000D01*
X189600000Y-72290000D02*
X188400000Y-71090000D01*
X188400000Y-77240000D02*
X187825000Y-77240000D01*
X227450000Y-114250000D02*
X228200000Y-113500000D01*
X183062500Y-76365000D02*
X183062500Y-72915000D01*
X189600000Y-76040000D02*
X189600000Y-72290000D01*
X188400000Y-77240000D02*
X189600000Y-76040000D01*
X183325000Y-79460000D02*
X183325000Y-82000000D01*
X179800000Y-81400000D02*
X178400000Y-81400000D01*
X187825000Y-77240000D02*
X186900000Y-78165000D01*
X181740000Y-79460000D02*
X179800000Y-81400000D01*
X183062500Y-79197500D02*
X183325000Y-79460000D01*
X220400000Y-115600000D02*
X226100000Y-115600000D01*
X183062500Y-76365000D02*
X183062500Y-79197500D01*
X225912500Y-114250000D02*
X227450000Y-114250000D01*
X183325000Y-79460000D02*
X184800000Y-79460000D01*
D53*
%TO.N,3.6V-*%
X225912500Y-102250000D02*
X227450000Y-102250000D01*
X227450000Y-102250000D02*
X228200000Y-101500000D01*
X208300000Y-106897500D02*
X208300000Y-108897500D01*
X172235000Y-121275000D02*
X172235000Y-126365000D01*
X212725001Y-122744950D02*
X211700000Y-122744950D01*
X208900000Y-88637500D02*
X208900000Y-86637500D01*
X207200000Y-104831200D02*
X206458859Y-104831200D01*
X169000000Y-129600000D02*
X167395000Y-129600000D01*
X172235000Y-126365000D02*
X169000000Y-129600000D01*
X172235000Y-121275000D02*
X172235000Y-119600000D01*
X210000000Y-90703800D02*
X210741141Y-90703800D01*
D54*
%TO.N,Net-(U5-FB)*%
X202300000Y-86000000D02*
X200000000Y-86000000D01*
X211000000Y-85135000D02*
X209000000Y-85135000D01*
X211412141Y-85547141D02*
X211000000Y-85135000D01*
X211412141Y-86335000D02*
X211412141Y-85547141D01*
X204600000Y-86000000D02*
X202300000Y-86000000D01*
X208135000Y-86000000D02*
X207075000Y-86000000D01*
X209000000Y-85135000D02*
X208135000Y-86000000D01*
X207075000Y-86000000D02*
X204600000Y-86000000D01*
D57*
%TO.N,1.2V*%
X210500000Y-77697500D02*
X209450001Y-77697500D01*
X188275000Y-83270000D02*
X188275000Y-79460000D01*
X225912500Y-108250000D02*
X227450000Y-108250000D01*
X221500000Y-106750000D02*
X221500000Y-91700000D01*
X227450000Y-108250000D02*
X228200000Y-107500000D01*
X190800000Y-83270000D02*
X188275000Y-83270000D01*
X223000000Y-108250000D02*
X221500000Y-106750000D01*
X221500000Y-91700000D02*
X220800000Y-91000000D01*
D54*
%TO.N,Net-(D1-A)*%
X224300000Y-114250000D02*
X225800000Y-112750000D01*
X224087500Y-114250000D02*
X224300000Y-114250000D01*
%TO.N,Net-(D2-A)*%
X224300000Y-108250000D02*
X225800000Y-106750000D01*
X224087500Y-108250000D02*
X224300000Y-108250000D01*
%TO.N,Net-(D3-A)*%
X224087500Y-102250000D02*
X224300000Y-102250000D01*
X224300000Y-102250000D02*
X225800000Y-100750000D01*
%TO.N,Net-(D4-A)*%
X224300000Y-96250000D02*
X225800000Y-94750000D01*
X224087500Y-96250000D02*
X224300000Y-96250000D01*
%TO.N,Net-(D5-A)*%
X224300000Y-90250000D02*
X225800000Y-88750000D01*
X224087500Y-90250000D02*
X224300000Y-90250000D01*
%TO.N,Net-(D6-A)*%
X224087500Y-111250000D02*
X224300000Y-111250000D01*
X224300000Y-111250000D02*
X225800000Y-109750000D01*
D53*
%TO.N,3.6V+*%
X174105000Y-130200000D02*
X187180000Y-130200000D01*
X173505000Y-129600000D02*
X174105000Y-130200000D01*
X227450000Y-105250000D02*
X228200000Y-104500000D01*
X173505000Y-129600000D02*
X173505000Y-121275000D01*
X206200000Y-116400000D02*
X207800000Y-114800000D01*
X225912500Y-105250000D02*
X227450000Y-105250000D01*
X188275000Y-129105000D02*
X188275000Y-125295000D01*
X188275000Y-129105000D02*
X190400000Y-129105000D01*
X193400000Y-116400000D02*
X206200000Y-116400000D01*
X207800000Y-114800000D02*
X216300000Y-114800000D01*
X187180000Y-130200000D02*
X188275000Y-129105000D01*
D54*
%TO.N,Net-(U5-VC)*%
X209600000Y-89737500D02*
X208900000Y-90437500D01*
X210761900Y-86335000D02*
X209600000Y-87496900D01*
X209600000Y-87496900D02*
X209600000Y-89737500D01*
%TO.N,Net-(U6-FB)*%
X210125000Y-109535000D02*
X212600000Y-109535000D01*
X208200000Y-110400000D02*
X209065000Y-109535000D01*
X209065000Y-109535000D02*
X210125000Y-109535000D01*
X205787859Y-109987859D02*
X206200000Y-110400000D01*
X205787859Y-109200000D02*
X205787859Y-109987859D01*
X212600000Y-109535000D02*
X214900000Y-109535000D01*
X206200000Y-110400000D02*
X208200000Y-110400000D01*
X214900000Y-109535000D02*
X217200000Y-109535000D01*
%TO.N,Net-(D7-A)*%
X224300000Y-105250000D02*
X225800000Y-103750000D01*
X224087500Y-105250000D02*
X224300000Y-105250000D01*
%TO.N,Net-(D8-A)*%
X224300000Y-99250000D02*
X225800000Y-97750000D01*
X224087500Y-99250000D02*
X224300000Y-99250000D01*
%TO.N,Net-(D9-A)*%
X224300000Y-93250000D02*
X225800000Y-91750000D01*
X224087500Y-93250000D02*
X224300000Y-93250000D01*
%TO.N,Net-(U12-Y)*%
X184200000Y-117987500D02*
X183062500Y-116850000D01*
X185400000Y-128004999D02*
X185400000Y-125000000D01*
X185400000Y-125000000D02*
X184200000Y-123800000D01*
X183325000Y-129105000D02*
X184299999Y-129105000D01*
X184200000Y-123800000D02*
X184200000Y-117987500D01*
X184299999Y-129105000D02*
X185400000Y-128004999D01*
%TO.N,Net-(U16-Y)*%
X185371000Y-82229000D02*
X185371000Y-79171000D01*
X184330000Y-83270000D02*
X185371000Y-82229000D01*
X183325000Y-83270000D02*
X184330000Y-83270000D01*
X185371000Y-79171000D02*
X184200000Y-78000000D01*
X184200000Y-72152500D02*
X183062500Y-71015000D01*
X184200000Y-78000000D02*
X184200000Y-72152500D01*
%TO.N,Net-(U6-VC)*%
X207600000Y-108038100D02*
X207600000Y-105797500D01*
X207600000Y-105797500D02*
X208300000Y-105097500D01*
X206438100Y-109200000D02*
X207600000Y-108038100D01*
%TO.N,Net-(U10-~{RESET})*%
X185337500Y-121250000D02*
X186150000Y-121250000D01*
X186200000Y-117800000D02*
X185337500Y-117800000D01*
X186800000Y-118400000D02*
X186200000Y-117800000D01*
X186800000Y-120600000D02*
X186800000Y-118400000D01*
X186150000Y-121250000D02*
X186800000Y-120600000D01*
%TO.N,Net-(U14-~{RESET})*%
X185337500Y-75415000D02*
X186185000Y-75415000D01*
X186165000Y-71965000D02*
X185337500Y-71965000D01*
X186800000Y-72600000D02*
X186165000Y-71965000D01*
X186800000Y-74800000D02*
X186800000Y-72600000D01*
X186185000Y-75415000D02*
X186800000Y-74800000D01*
%TD*%
%TA.AperFunction,Conductor*%
%TO.N,3.3V BZ*%
G36*
X218443039Y-72121785D02*
G01*
X218488794Y-72174589D01*
X218500000Y-72226100D01*
X218500000Y-76278100D01*
X218480315Y-76345139D01*
X218427511Y-76390894D01*
X218376000Y-76402100D01*
X208344000Y-76402100D01*
X208276961Y-76382415D01*
X208231206Y-76329611D01*
X208220000Y-76278100D01*
X208220000Y-74576100D01*
X208239685Y-74509061D01*
X208292489Y-74463306D01*
X208344000Y-74452100D01*
X208656000Y-74452100D01*
X208723039Y-74471785D01*
X208768794Y-74524589D01*
X208780000Y-74576100D01*
X208780000Y-76002100D01*
X212880000Y-76002100D01*
X212880000Y-72226100D01*
X212899685Y-72159061D01*
X212952489Y-72113306D01*
X213004000Y-72102100D01*
X218376000Y-72102100D01*
X218443039Y-72121785D01*
G37*
%TD.AperFunction*%
%TD*%
%TA.AperFunction,Conductor*%
%TO.N,5.5V*%
G36*
X92665912Y-82894845D02*
G01*
X92681593Y-82894845D01*
X92694278Y-82904061D01*
X92709191Y-82908907D01*
X92718407Y-82921592D01*
X92731093Y-82930809D01*
X92735938Y-82945721D01*
X92745155Y-82958407D01*
X92750000Y-82989000D01*
X92750000Y-83011000D01*
X92731093Y-83069191D01*
X92681593Y-83105155D01*
X92651000Y-83110000D01*
X91870000Y-83110000D01*
X91870000Y-83110001D01*
X91870000Y-85871000D01*
X91851093Y-85929191D01*
X91801593Y-85965155D01*
X91771000Y-85970000D01*
X90699000Y-85970000D01*
X90640809Y-85951093D01*
X90604845Y-85901593D01*
X90600000Y-85871000D01*
X90600000Y-83929000D01*
X90618907Y-83870809D01*
X90668407Y-83834845D01*
X90699000Y-83830000D01*
X91449999Y-83830000D01*
X91450000Y-83830000D01*
X91450000Y-82890000D01*
X91870000Y-82890000D01*
X91870001Y-82890000D01*
X92651000Y-82890000D01*
X92665912Y-82894845D01*
G37*
%TD.AperFunction*%
%TD*%
%TA.AperFunction,Conductor*%
%TO.N,Net-(U13-VFB)*%
G36*
X212023039Y-72121785D02*
G01*
X212068794Y-72174589D01*
X212080000Y-72226100D01*
X212080000Y-75628100D01*
X212060315Y-75695139D01*
X212007511Y-75740894D01*
X211956000Y-75752100D01*
X209304000Y-75752100D01*
X209236961Y-75732415D01*
X209191206Y-75679611D01*
X209180000Y-75628100D01*
X209180000Y-72226100D01*
X209199685Y-72159061D01*
X209252489Y-72113306D01*
X209304000Y-72102100D01*
X211956000Y-72102100D01*
X212023039Y-72121785D01*
G37*
%TD.AperFunction*%
%TD*%
%TA.AperFunction,Conductor*%
%TO.N,GND*%
G36*
X216246533Y-119641104D02*
G01*
X216287462Y-119674328D01*
X216411901Y-119829877D01*
X216438409Y-119894523D01*
X216425759Y-119963238D01*
X216391740Y-120004797D01*
X214240000Y-121697498D01*
X214240000Y-123110583D01*
X214237042Y-123120656D01*
X214238294Y-123131079D01*
X214227367Y-123153602D01*
X214220315Y-123177622D01*
X214212381Y-123184496D01*
X214207799Y-123193943D01*
X214186428Y-123206985D01*
X214167511Y-123223377D01*
X214155539Y-123225835D01*
X214148159Y-123230340D01*
X214113117Y-123234549D01*
X213931117Y-123230316D01*
X213864553Y-123209078D01*
X213820038Y-123155225D01*
X213810000Y-123106350D01*
X213810000Y-121557097D01*
X213829685Y-121490058D01*
X213856536Y-121460271D01*
X216113173Y-119654961D01*
X216177818Y-119628454D01*
X216246533Y-119641104D01*
G37*
%TD.AperFunction*%
%TD*%
%TA.AperFunction,Conductor*%
%TO.N,3.3V*%
G36*
X218443039Y-84957185D02*
G01*
X218488794Y-85009989D01*
X218500000Y-85061500D01*
X218500000Y-88713500D01*
X218480315Y-88780539D01*
X218427511Y-88826294D01*
X218376000Y-88837500D01*
X216455739Y-88837500D01*
X216388700Y-88817815D01*
X216363000Y-88795813D01*
X214900000Y-87147500D01*
X213924000Y-87147500D01*
X213856961Y-87127815D01*
X213811206Y-87075011D01*
X213800000Y-87023500D01*
X213800000Y-85061500D01*
X213819685Y-84994461D01*
X213872489Y-84948706D01*
X213924000Y-84937500D01*
X218376000Y-84937500D01*
X218443039Y-84957185D01*
G37*
%TD.AperFunction*%
%TD*%
%TA.AperFunction,Conductor*%
%TO.N,5.5V*%
G36*
X91829191Y-81778907D02*
G01*
X91865155Y-81828407D01*
X91870000Y-81859000D01*
X91870000Y-82890000D01*
X91450000Y-82890000D01*
X91450000Y-82200000D01*
X91449999Y-82200000D01*
X85620001Y-82200000D01*
X85620000Y-82200000D01*
X85620000Y-82200001D01*
X85620000Y-83501000D01*
X85601093Y-83559191D01*
X85551593Y-83595155D01*
X85521000Y-83600000D01*
X84409000Y-83600000D01*
X84350809Y-83581093D01*
X84314845Y-83531593D01*
X84310000Y-83501000D01*
X84310000Y-81800000D01*
X85620000Y-81800000D01*
X85620000Y-81760000D01*
X85620001Y-81760000D01*
X91771000Y-81760000D01*
X91829191Y-81778907D01*
G37*
%TD.AperFunction*%
%TD*%
%TA.AperFunction,Conductor*%
%TO.N,Net-(U11-FB)*%
G36*
X213525437Y-116891847D02*
G01*
X213574838Y-116941257D01*
X213590000Y-117000673D01*
X213590000Y-123101850D01*
X213588681Y-123106339D01*
X213589668Y-123110912D01*
X213578930Y-123139547D01*
X213570315Y-123168889D01*
X213566780Y-123171952D01*
X213565137Y-123176334D01*
X213540615Y-123194623D01*
X213517511Y-123214644D01*
X213511840Y-123216086D01*
X213509131Y-123218107D01*
X213474630Y-123225549D01*
X213292839Y-123238232D01*
X213224592Y-123223261D01*
X213175273Y-123173770D01*
X213160209Y-123114340D01*
X213169818Y-117012774D01*
X213189608Y-116945767D01*
X213242484Y-116900096D01*
X213284979Y-116889287D01*
X213457166Y-116876988D01*
X213525437Y-116891847D01*
G37*
%TD.AperFunction*%
%TD*%
%TA.AperFunction,Conductor*%
%TO.N,5.5V*%
G36*
X85563039Y-80419685D02*
G01*
X85608794Y-80472489D01*
X85620000Y-80524000D01*
X85620000Y-81800000D01*
X84310000Y-81800000D01*
X84310000Y-80524000D01*
X84329685Y-80456961D01*
X84382489Y-80411206D01*
X84434000Y-80400000D01*
X85496000Y-80400000D01*
X85563039Y-80419685D01*
G37*
%TD.AperFunction*%
%TD*%
%TA.AperFunction,Conductor*%
%TO.N,Net-(U13-SW)*%
G36*
X203043039Y-76221785D02*
G01*
X203088794Y-76274589D01*
X203100000Y-76326100D01*
X203100000Y-77232100D01*
X207696000Y-77232100D01*
X207763039Y-77251785D01*
X207808794Y-77304589D01*
X207820000Y-77356100D01*
X207820000Y-78228100D01*
X207800315Y-78295139D01*
X207747511Y-78340894D01*
X207696000Y-78352100D01*
X195624000Y-78352100D01*
X195556961Y-78332415D01*
X195511206Y-78279611D01*
X195500000Y-78228100D01*
X195500000Y-76326100D01*
X195519685Y-76259061D01*
X195572489Y-76213306D01*
X195624000Y-76202100D01*
X202976000Y-76202100D01*
X203043039Y-76221785D01*
G37*
%TD.AperFunction*%
%TD*%
%TA.AperFunction,Conductor*%
%TO.N,3.6V-*%
G36*
X205293039Y-108407185D02*
G01*
X205338794Y-108459989D01*
X205350000Y-108511500D01*
X205350000Y-110597500D01*
X205963593Y-110597500D01*
X206020172Y-110611160D01*
X206037500Y-110620045D01*
X206046774Y-110629319D01*
X206087955Y-110646376D01*
X206146194Y-110670500D01*
X206146195Y-110670500D01*
X208253804Y-110670500D01*
X208253806Y-110670500D01*
X208312044Y-110646376D01*
X208353226Y-110629319D01*
X208362498Y-110620046D01*
X208379832Y-110611159D01*
X208395791Y-110608119D01*
X208410050Y-110600334D01*
X208436408Y-110597500D01*
X218176000Y-110597500D01*
X218243039Y-110617185D01*
X218288794Y-110669989D01*
X218300000Y-110721500D01*
X218300000Y-111973500D01*
X218280315Y-112040539D01*
X218227511Y-112086294D01*
X218176000Y-112097500D01*
X203754000Y-112097500D01*
X203686961Y-112077815D01*
X203641206Y-112025011D01*
X203630000Y-111973500D01*
X203630000Y-108511500D01*
X203649685Y-108444461D01*
X203702489Y-108398706D01*
X203754000Y-108387500D01*
X205226000Y-108387500D01*
X205293039Y-108407185D01*
G37*
%TD.AperFunction*%
%TD*%
%TA.AperFunction,Conductor*%
%TO.N,1.2V*%
G36*
X206743039Y-69021785D02*
G01*
X206788794Y-69074589D01*
X206800000Y-69126100D01*
X206800000Y-73802100D01*
X207696000Y-73802100D01*
X207763039Y-73821785D01*
X207808794Y-73874589D01*
X207820000Y-73926100D01*
X207820000Y-75628100D01*
X207800315Y-75695139D01*
X207747511Y-75740894D01*
X207696000Y-75752100D01*
X206548234Y-75752100D01*
X206481195Y-75732415D01*
X206464444Y-75719507D01*
X204700000Y-74102100D01*
X191624000Y-74102100D01*
X191556961Y-74082415D01*
X191511206Y-74029611D01*
X191500000Y-73978100D01*
X191500000Y-69126100D01*
X191519685Y-69059061D01*
X191572489Y-69013306D01*
X191624000Y-69002100D01*
X206676000Y-69002100D01*
X206743039Y-69021785D01*
G37*
%TD.AperFunction*%
%TD*%
%TA.AperFunction,Conductor*%
%TO.N,Net-(U6-SW2)*%
G36*
X201543039Y-96219685D02*
G01*
X201588794Y-96272489D01*
X201600000Y-96324000D01*
X201600000Y-103000000D01*
X202740000Y-104140000D01*
X202970000Y-104140000D01*
X203276000Y-104140000D01*
X203343039Y-104159685D01*
X203388794Y-104212489D01*
X203400000Y-104264000D01*
X203400000Y-105186000D01*
X203380315Y-105253039D01*
X203327511Y-105298794D01*
X203276000Y-105310000D01*
X199751677Y-105310000D01*
X199684638Y-105290315D01*
X199663617Y-105273301D01*
X198585940Y-104186252D01*
X198552721Y-104124784D01*
X198550000Y-104098951D01*
X198550000Y-96324000D01*
X198569685Y-96256961D01*
X198622489Y-96211206D01*
X198674000Y-96200000D01*
X201476000Y-96200000D01*
X201543039Y-96219685D01*
G37*
%TD.AperFunction*%
%TD*%
%TA.AperFunction,Conductor*%
%TO.N,Net-(U11-SW)*%
G36*
X209515677Y-116917185D02*
G01*
X209536319Y-116933819D01*
X209863681Y-117261181D01*
X209897166Y-117322504D01*
X209900000Y-117348862D01*
X209900000Y-121897500D01*
X211800000Y-123797500D01*
X213539200Y-123797500D01*
X213606239Y-123817185D01*
X213626199Y-123833142D01*
X214202999Y-124401068D01*
X214236958Y-124462129D01*
X214240000Y-124489426D01*
X214240000Y-125813500D01*
X214237449Y-125822185D01*
X214238738Y-125831147D01*
X214227759Y-125855187D01*
X214220315Y-125880539D01*
X214213474Y-125886466D01*
X214209713Y-125894703D01*
X214187478Y-125908992D01*
X214167511Y-125926294D01*
X214156996Y-125928581D01*
X214150935Y-125932477D01*
X214116000Y-125937500D01*
X213934000Y-125937500D01*
X213866961Y-125917815D01*
X213821206Y-125865011D01*
X213810000Y-125813500D01*
X213810000Y-124797501D01*
X213809999Y-124797499D01*
X213610000Y-124607500D01*
X207952705Y-124607500D01*
X207885666Y-124587815D01*
X207863425Y-124569553D01*
X207134720Y-123813522D01*
X207102369Y-123751593D01*
X207100000Y-123727469D01*
X207100000Y-117348862D01*
X207119685Y-117281823D01*
X207136319Y-117261181D01*
X207463681Y-116933819D01*
X207525004Y-116900334D01*
X207551362Y-116897500D01*
X209448638Y-116897500D01*
X209515677Y-116917185D01*
G37*
%TD.AperFunction*%
%TD*%
%TA.AperFunction,Conductor*%
%TO.N,3.6V-*%
G36*
X213513039Y-83457185D02*
G01*
X213558794Y-83509989D01*
X213570000Y-83561500D01*
X213570000Y-87348600D01*
X213550315Y-87415639D01*
X213497511Y-87461394D01*
X213446000Y-87472600D01*
X211974000Y-87472600D01*
X211906961Y-87452915D01*
X211861206Y-87400111D01*
X211850000Y-87348600D01*
X211850000Y-84937500D01*
X211236407Y-84937500D01*
X211179828Y-84923839D01*
X211162497Y-84914952D01*
X211153226Y-84905681D01*
X211112044Y-84888623D01*
X211107398Y-84886698D01*
X211107395Y-84886697D01*
X211053808Y-84864500D01*
X211053806Y-84864500D01*
X208946194Y-84864500D01*
X208937666Y-84868032D01*
X208917074Y-84876560D01*
X208917074Y-84876561D01*
X208893640Y-84886267D01*
X208846772Y-84905681D01*
X208836619Y-84912466D01*
X208835011Y-84910060D01*
X208789950Y-84934666D01*
X208763592Y-84937500D01*
X199024000Y-84937500D01*
X198956961Y-84917815D01*
X198911206Y-84865011D01*
X198900000Y-84813500D01*
X198900000Y-83561500D01*
X198919685Y-83494461D01*
X198972489Y-83448706D01*
X199024000Y-83437500D01*
X213446000Y-83437500D01*
X213513039Y-83457185D01*
G37*
%TD.AperFunction*%
%TD*%
%TA.AperFunction,Conductor*%
%TO.N,Net-(U6-SW1)*%
G36*
X208193039Y-96219685D02*
G01*
X208238794Y-96272489D01*
X208250000Y-96324000D01*
X208250000Y-102876000D01*
X208230315Y-102943039D01*
X208177511Y-102988794D01*
X208126000Y-103000000D01*
X205499999Y-103000000D01*
X204700000Y-103799999D01*
X204700000Y-105396000D01*
X204697449Y-105404685D01*
X204698738Y-105413647D01*
X204687759Y-105437687D01*
X204680315Y-105463039D01*
X204673474Y-105468966D01*
X204669713Y-105477203D01*
X204647478Y-105491492D01*
X204627511Y-105508794D01*
X204616996Y-105511081D01*
X204610935Y-105514977D01*
X204576000Y-105520000D01*
X204404000Y-105520000D01*
X204336961Y-105500315D01*
X204291206Y-105447511D01*
X204280000Y-105396000D01*
X204280000Y-103652161D01*
X204299685Y-103585122D01*
X204317285Y-103563525D01*
X205200000Y-102700000D01*
X205200000Y-96324000D01*
X205219685Y-96256961D01*
X205272489Y-96211206D01*
X205324000Y-96200000D01*
X208126000Y-96200000D01*
X208193039Y-96219685D01*
G37*
%TD.AperFunction*%
%TD*%
%TA.AperFunction,Conductor*%
%TO.N,3.3V MCU*%
G36*
X200811300Y-106717185D02*
G01*
X200837000Y-106739187D01*
X202300000Y-108387500D01*
X203276000Y-108387500D01*
X203343039Y-108407185D01*
X203388794Y-108459989D01*
X203400000Y-108511500D01*
X203400000Y-110473500D01*
X203380315Y-110540539D01*
X203327511Y-110586294D01*
X203276000Y-110597500D01*
X198824000Y-110597500D01*
X198756961Y-110577815D01*
X198711206Y-110525011D01*
X198700000Y-110473500D01*
X198700000Y-106821500D01*
X198719685Y-106754461D01*
X198772489Y-106708706D01*
X198824000Y-106697500D01*
X200744261Y-106697500D01*
X200811300Y-106717185D01*
G37*
%TD.AperFunction*%
%TD*%
%TA.AperFunction,Conductor*%
%TO.N,5.5V*%
G36*
X213533039Y-124987185D02*
G01*
X213578794Y-125039989D01*
X213590000Y-125091500D01*
X213590000Y-126127500D01*
X214168303Y-126772166D01*
X214198416Y-126835213D01*
X214200000Y-126854967D01*
X214200000Y-130946138D01*
X214191355Y-130975578D01*
X214184832Y-131005565D01*
X214181077Y-131010580D01*
X214180315Y-131013177D01*
X214163681Y-131033819D01*
X214136319Y-131061181D01*
X214074996Y-131094666D01*
X214048638Y-131097500D01*
X212451362Y-131097500D01*
X212384323Y-131077815D01*
X212363681Y-131061181D01*
X212336319Y-131033819D01*
X212302834Y-130972496D01*
X212300000Y-130946138D01*
X212300000Y-127342128D01*
X212319685Y-127275089D01*
X212328440Y-127263107D01*
X213160000Y-126257500D01*
X213160000Y-125091500D01*
X213162550Y-125082814D01*
X213161262Y-125073853D01*
X213172240Y-125049812D01*
X213179685Y-125024461D01*
X213186525Y-125018533D01*
X213190287Y-125010297D01*
X213212521Y-124996007D01*
X213232489Y-124978706D01*
X213243003Y-124976418D01*
X213249065Y-124972523D01*
X213284000Y-124967500D01*
X213466000Y-124967500D01*
X213533039Y-124987185D01*
G37*
%TD.AperFunction*%
%TD*%
%TA.AperFunction,Conductor*%
%TO.N,3.6V-*%
G36*
X205115677Y-116917185D02*
G01*
X205136319Y-116933819D01*
X205463681Y-117261181D01*
X205497166Y-117322504D01*
X205500000Y-117348862D01*
X205500000Y-123997500D01*
X206500000Y-124987500D01*
X212815423Y-124958080D01*
X212882553Y-124977452D01*
X212928553Y-125030043D01*
X212940000Y-125082079D01*
X212940000Y-126006138D01*
X212920315Y-126073177D01*
X212903681Y-126093819D01*
X212036319Y-126961181D01*
X211974996Y-126994666D01*
X211948638Y-126997500D01*
X207799999Y-126997500D01*
X207000000Y-127797499D01*
X207000000Y-130946138D01*
X206991355Y-130975578D01*
X206984832Y-131005565D01*
X206981077Y-131010580D01*
X206980315Y-131013177D01*
X206963681Y-131033819D01*
X206936319Y-131061181D01*
X206874996Y-131094666D01*
X206848638Y-131097500D01*
X203143539Y-131097500D01*
X203076500Y-131077815D01*
X203055858Y-131061181D01*
X202736319Y-130741642D01*
X202702834Y-130680319D01*
X202700000Y-130653961D01*
X202700000Y-117348862D01*
X202719685Y-117281823D01*
X202736319Y-117261181D01*
X203063681Y-116933819D01*
X203125004Y-116900334D01*
X203151362Y-116897500D01*
X205048638Y-116897500D01*
X205115677Y-116917185D01*
G37*
%TD.AperFunction*%
%TD*%
%TA.AperFunction,Conductor*%
%TO.N,Net-(U5-SW1)*%
G36*
X212863039Y-90034685D02*
G01*
X212908794Y-90087489D01*
X212920000Y-90139000D01*
X212920000Y-91882838D01*
X212900315Y-91949877D01*
X212882712Y-91971477D01*
X212000000Y-92834999D01*
X212000000Y-99211000D01*
X211980315Y-99278039D01*
X211927511Y-99323794D01*
X211876000Y-99335000D01*
X209074000Y-99335000D01*
X209006961Y-99315315D01*
X208961206Y-99262511D01*
X208950000Y-99211000D01*
X208950000Y-92659000D01*
X208969685Y-92591961D01*
X209022489Y-92546206D01*
X209074000Y-92535000D01*
X211700000Y-92535000D01*
X212500000Y-91735000D01*
X212500000Y-90139000D01*
X212502550Y-90130314D01*
X212501262Y-90121353D01*
X212512240Y-90097312D01*
X212519685Y-90071961D01*
X212526525Y-90066033D01*
X212530287Y-90057797D01*
X212552521Y-90043507D01*
X212572489Y-90026206D01*
X212583003Y-90023918D01*
X212589065Y-90020023D01*
X212624000Y-90015000D01*
X212796000Y-90015000D01*
X212863039Y-90034685D01*
G37*
%TD.AperFunction*%
%TD*%
%TA.AperFunction,Conductor*%
%TO.N,Net-(U5-SW2)*%
G36*
X217515362Y-90244685D02*
G01*
X217536383Y-90261699D01*
X218614060Y-91348747D01*
X218647279Y-91410215D01*
X218650000Y-91436048D01*
X218650000Y-99211000D01*
X218630315Y-99278039D01*
X218577511Y-99323794D01*
X218526000Y-99335000D01*
X215724000Y-99335000D01*
X215656961Y-99315315D01*
X215611206Y-99262511D01*
X215600000Y-99211000D01*
X215600000Y-92535000D01*
X214460000Y-91395000D01*
X214230000Y-91395000D01*
X213924000Y-91395000D01*
X213856961Y-91375315D01*
X213811206Y-91322511D01*
X213800000Y-91271000D01*
X213800000Y-90349000D01*
X213819685Y-90281961D01*
X213872489Y-90236206D01*
X213924000Y-90225000D01*
X217448323Y-90225000D01*
X217515362Y-90244685D01*
G37*
%TD.AperFunction*%
%TD*%
M02*
