M48
; DRILL file {KiCad 9.0.7} date 2026-04-17T18:48:09-0400
; FORMAT={-:-/ absolute / inch / decimal}
; #@! TF.CreationDate,2026-04-17T18:48:09-04:00
; #@! TF.GenerationSoftware,Kicad,Pcbnew,9.0.7
; #@! TF.FileFunction,Plated,1,4,PTH
FMAT,2
INCH
; #@! TA.AperFunction,Plated,PTH,ViaDrill
T1C0.0118
; #@! TA.AperFunction,Plated,PTH,ComponentDrill
T2C0.0220
; #@! TA.AperFunction,Plated,PTH,ComponentDrill
T3C0.0315
; #@! TA.AperFunction,Plated,PTH,ComponentDrill
T4C0.0394
; #@! TA.AperFunction,Plated,PTH,ComponentDrill
T5C0.0472
%
G90
G05
T1
X3.1654Y-3.2677
X3.345Y-3.1811
X3.4173Y-3.3031
X3.4488Y-3.3031
X3.5103Y-3.3031
X3.7362Y-3.248
X3.7362Y-3.2874
X3.7402Y-4.3716
X4.2717Y-3.2205
X4.3071Y-3.2598
X4.3701Y-4.4646
X4.3701Y-4.6772
X4.4409Y-4.8268
X4.5308Y-3.3022
X4.5308Y-3.5354
X4.7906Y-3.9843
X4.8346Y-4.327
X4.8906Y-3.6063
X4.9906Y-3.6415
X4.9906Y-3.677
X4.9906Y-3.7125
X4.9906Y-3.748
X5.0472Y-4.327
X5.2406Y-3.377
X5.2406Y-3.4164
X5.3622Y-2.7321
X5.8583Y-3.277
X5.9528Y-4.627
X5.9843Y-4.627
X6.0512Y-2.8898
X6.0512Y-3.077
X6.122Y-2.8898
X6.1496Y-3.1339
X6.1732Y-3.177
X6.1732Y-3.377
X6.1929Y-2.7717
X6.2118Y-2.9528
X6.3543Y-2.9528
X6.3543Y-3.1102
X6.4016Y-4.6457
X6.4543Y-4.4724
X6.4882Y-4.6063
X6.5118Y-2.937
X6.6809Y-4.5197
X6.6809Y-4.7087
X6.7309Y-4.5197
X6.7309Y-4.7087
X6.7809Y-4.7087
X6.8031Y-4.4646
X6.8043Y-4.3307
X7.2756Y-3.1283
X7.2756Y-4.9329
X7.3465Y-2.7959
X7.3465Y-4.6004
X7.3583Y-3.0183
X7.3583Y-3.0774
X7.3583Y-4.8228
X7.3583Y-4.8819
X7.4803Y-4.2401
X7.4882Y-3.7874
X7.4961Y-5.0829
X7.5118Y-3.2783
X7.5591Y-2.8976
X7.5898Y-3.6858
X7.5898Y-3.874
X7.6142Y-4.5827
X7.7185Y-5.1811
X7.7717Y-3.6299
X7.9016Y-4.4552
X7.9213Y-5.1102
X7.9685Y-4.2992
X7.9685Y-4.5512
X7.9921Y-4.503
X8.0079Y-5.1339
X8.0251Y-4.063
X8.0787Y-4.5512
X8.0945Y-5.1811
X8.1142Y-3.0065
X8.122Y-2.957
X8.1575Y-4.1272
X8.1803Y-2.8111
X8.2008Y-4.2086
X8.2008Y-4.2873
X8.2008Y-4.3833
X8.2087Y-3.1103
X8.2244Y-3.315
X8.2244Y-3.4109
X8.2244Y-3.4897
X8.2677Y-3.571
X8.2874Y-3.059
X8.3031Y-5.0811
X8.3346Y-4.8325
X8.3346Y-4.9802
X8.374Y-5.0275
X8.4001Y-3.6352
X8.4331Y-3.1949
X8.4567Y-3.399
X8.4779Y-5.1377
X8.5118Y-3.0852
X8.5157Y-4.5197
X8.5157Y-4.6023
X8.5236Y-3.243
X8.5295Y-4.7519
X8.5669Y-2.8661
X8.5669Y-2.9843
X8.6772Y-4.5512
X8.6929Y-3.5276
X8.6929Y-3.5827
X8.7795Y-3.9075
X8.7795Y-4.2618
X8.7874Y-3.4941
X8.7874Y-3.6122
X8.7874Y-3.7303
X8.7874Y-3.8484
X8.7874Y-3.9665
X8.7874Y-4.0846
X8.7874Y-4.2028
X8.7874Y-4.3209
X8.7874Y-4.439
X8.874Y-3.378
T2
X5.8847Y-2.7781
X5.8847Y-2.8281
T3
X2.8583Y-3.0787
X2.8583Y-4.7953
X2.937Y-3.0787
X2.937Y-4.7953
X3.0157Y-3.0787
X3.0157Y-4.7953
X3.2126Y-3.0787
X3.2126Y-4.7953
X3.2913Y-3.0787
X3.2913Y-4.7953
X3.3701Y-3.0787
X3.3701Y-4.7953
X3.5669Y-3.0787
X3.5669Y-4.7953
X3.6457Y-3.0787
X3.6457Y-4.7953
X3.8496Y-2.976
X3.8496Y-3.276
X3.8496Y-4.5984
X3.8496Y-4.8984
X3.9496Y-2.976
X3.9496Y-3.276
X3.9496Y-4.5984
X3.9496Y-4.8984
X4.0496Y-2.976
X4.0496Y-3.276
X4.0496Y-4.5984
X4.0496Y-4.8984
X4.1496Y-2.976
X4.1496Y-3.276
X4.1496Y-4.5984
X4.1496Y-4.8984
X4.5591Y-2.8504
X4.5591Y-5.0236
X4.6378Y-2.8504
X4.6378Y-5.0236
X4.7165Y-2.8504
X4.7165Y-5.0236
X4.7953Y-2.8504
X4.7953Y-5.0236
X4.976Y-2.7321
X4.976Y-3.0321
X5.0Y-5.0236
X5.076Y-2.7321
X5.076Y-3.0321
X5.0787Y-5.0236
X5.1575Y-5.0236
X5.176Y-2.7321
X5.176Y-3.0321
X5.2362Y-5.0236
X5.276Y-2.7321
X5.276Y-3.0321
X7.0236Y-2.8268
X7.0236Y-2.9055
X7.0236Y-3.126
X7.0236Y-3.2047
X7.0236Y-4.6693
X7.0236Y-4.748
X7.0236Y-4.9685
X7.0236Y-5.0472
X7.6398Y-4.7425
X7.6398Y-5.0315
X7.7185Y-4.7425
X7.7185Y-5.0315
X7.7972Y-4.7425
X7.7972Y-5.0315
X7.874Y-3.3858
X7.874Y-3.6858
X8.0551Y-3.3858
X8.0551Y-3.6858
X8.3701Y-4.0124
X8.3701Y-4.3124
X8.5512Y-4.0124
X8.5512Y-4.3124
T4
X3.3953Y-4.487
X3.4953Y-4.487
X3.5953Y-4.487
X3.6953Y-4.487
X4.4906Y-4.6551
X4.5906Y-3.2189
X4.5906Y-3.9189
X4.5906Y-4.6551
X4.6906Y-3.2189
X4.6906Y-3.9189
X4.6906Y-4.6551
X4.7906Y-3.2189
X4.7906Y-3.9189
X4.7906Y-4.6551
X4.8906Y-3.2189
X4.8906Y-3.9189
X4.8906Y-4.6551
X4.9906Y-3.2189
X4.9906Y-3.9189
X4.9906Y-4.6551
X5.0906Y-3.2189
X5.0906Y-3.9189
X5.0906Y-4.6551
X5.1906Y-4.6551
X6.2362Y-4.7717
X6.3543Y-3.687
X6.3543Y-4.187
X6.4543Y-3.687
X6.4543Y-4.187
X6.5354Y-4.7717
X6.5543Y-3.687
X6.5543Y-4.187
X6.6543Y-3.687
X6.6543Y-4.187
X6.7543Y-3.687
X6.7543Y-4.187
X6.8543Y-3.687
X6.8543Y-4.187
X6.9543Y-3.687
X6.9543Y-4.187
X7.0543Y-3.687
X7.0543Y-4.187
X7.1543Y-3.687
X7.1543Y-4.187
X7.2543Y-3.687
X7.2543Y-4.187
X7.3543Y-3.687
X7.3543Y-4.187
X8.9843Y-3.4055
X8.9843Y-3.5236
X8.9843Y-3.6417
X8.9843Y-3.7598
X8.9843Y-3.878
X8.9843Y-3.9961
X8.9843Y-4.1142
X8.9843Y-4.2323
X8.9843Y-4.3504
X8.9843Y-4.4685
T5
X5.448Y-3.177
X5.448Y-3.277
X5.448Y-3.377
X5.448Y-3.477
X5.448Y-3.577
X5.448Y-3.677
X5.448Y-3.777
X5.448Y-3.877
X5.448Y-3.977
X5.448Y-4.077
X5.448Y-4.177
X5.448Y-4.277
X5.448Y-4.377
X5.448Y-4.477
X5.448Y-4.577
X5.448Y-4.677
X5.448Y-4.777
X5.448Y-4.877
X5.548Y-4.777
X6.048Y-3.177
X6.048Y-3.277
X6.048Y-3.377
X6.048Y-3.477
X6.048Y-3.577
X6.048Y-3.677
X6.048Y-3.777
X6.048Y-3.877
X6.048Y-3.977
X6.048Y-4.077
X6.048Y-4.177
X6.048Y-4.277
X6.048Y-4.377
X6.048Y-4.477
X6.048Y-4.577
M30
