%TF.GenerationSoftware,KiCad,Pcbnew,9.0.7*%
%TF.CreationDate,2026-04-10T20:37:10-04:00*%
%TF.ProjectId,capybara_rocket,63617079-6261-4726-915f-726f636b6574,A*%
%TF.SameCoordinates,Original*%
%TF.FileFunction,Copper,L1,Top*%
%TF.FilePolarity,Positive*%
%FSLAX46Y46*%
G04 Gerber Fmt 4.6, Leading zero omitted, Abs format (unit mm)*
G04 Created by KiCad (PCBNEW 9.0.7) date 2026-04-10 20:37:10*
%MOMM*%
%LPD*%
G01*
G04 APERTURE LIST*
G04 Aperture macros list*
%AMRoundRect*
0 Rectangle with rounded corners*
0 $1 Rounding radius*
0 $2 $3 $4 $5 $6 $7 $8 $9 X,Y pos of 4 corners*
0 Add a 4 corners polygon primitive as box body*
4,1,4,$2,$3,$4,$5,$6,$7,$8,$9,$2,$3,0*
0 Add four circle primitives for the rounded corners*
1,1,$1+$1,$2,$3*
1,1,$1+$1,$4,$5*
1,1,$1+$1,$6,$7*
1,1,$1+$1,$8,$9*
0 Add four rect primitives between the rounded corners*
20,1,$1+$1,$2,$3,$4,$5,0*
20,1,$1+$1,$4,$5,$6,$7,0*
20,1,$1+$1,$6,$7,$8,$9,0*
20,1,$1+$1,$8,$9,$2,$3,0*%
%AMFreePoly0*
4,1,87,2.650354,0.450354,2.650500,0.450000,2.650500,-1.550000,2.650354,-1.550354,2.650000,-1.550500,1.640000,-1.550500,1.639646,-1.550354,1.639556,-1.550231,1.573562,-1.423242,1.523576,-1.343264,1.465597,-1.255296,1.415606,-1.187309,1.309646,-1.065354,1.222656,-0.978364,1.116686,-0.888389,1.032711,-0.825408,0.971736,-0.784425,0.897752,-0.738435,0.857757,-0.718437,0.785773,-0.678446,
0.690810,-0.636462,0.690810,-0.636463,0.612819,-0.604467,0.480871,-0.562483,0.335911,-0.530492,0.140962,-0.503499,0.044989,-0.500500,-0.126970,-0.502499,-0.217937,-0.513495,-0.217937,-0.513496,-0.312937,-0.525496,-0.313000,-0.525500,-0.315939,-0.525500,-0.319879,-0.526485,-0.320000,-0.526500,-0.323939,-0.526500,-0.331879,-0.528485,-0.332000,-0.528500,-0.335939,-0.528500,-0.339879,-0.529485,
-0.340000,-0.529500,-0.342939,-0.529500,-0.354879,-0.532485,-0.355000,-0.532500,-0.358920,-0.532500,-0.361842,-0.533474,-0.361879,-0.533485,-0.369879,-0.535485,-0.370000,-0.535500,-0.373939,-0.535500,-0.381863,-0.537481,-0.384842,-0.538474,-0.384879,-0.538485,-0.396863,-0.541481,-0.399842,-0.542474,-0.399879,-0.542485,-0.411863,-0.545481,-0.414842,-0.546474,-0.414879,-0.546485,-0.422863,-0.548481,
-0.425868,-0.549482,-0.535850,-0.579477,-0.642821,-0.615467,-0.789774,-0.680446,-0.871764,-0.724441,-0.941746,-0.764430,-1.022713,-0.815409,-1.102692,-0.875394,-1.162675,-0.925379,-1.162675,-0.925380,-1.232654,-0.985362,-1.292646,-1.045354,-1.362616,-1.125320,-1.412600,-1.185300,-1.462593,-1.255291,-1.502583,-1.305278,-1.639564,-1.550244,-1.639864,-1.550481,-1.640000,-1.550500,-2.650000,-1.550500,
-2.650354,-1.550354,-2.650500,-1.550000,-2.650500,0.450000,-2.650354,0.450354,-2.650000,0.450500,2.650000,0.450500,2.650354,0.450354,2.650354,0.450354,$1*%
%AMFreePoly1*
4,1,86,-1.639646,1.550354,-1.639556,1.550231,-1.573562,1.423242,-1.523576,1.343265,-1.465597,1.255296,-1.415606,1.187309,-1.309646,1.065354,-1.222656,0.978364,-1.116686,0.888389,-1.032711,0.825408,-0.971736,0.784425,-0.897752,0.738435,-0.857757,0.718437,-0.785773,0.678446,-0.690810,0.636462,-0.690810,0.636463,-0.612819,0.604467,-0.480871,0.562483,-0.335911,0.530492,-0.140962,0.503499,
-0.044989,0.500500,0.126970,0.502499,0.217937,0.513495,0.217937,0.513496,0.312937,0.525496,0.313000,0.525500,0.315939,0.525500,0.319879,0.526485,0.320000,0.526500,0.323939,0.526500,0.331879,0.528485,0.332000,0.528500,0.335939,0.528500,0.339879,0.529485,0.340000,0.529500,0.342939,0.529500,0.354879,0.532485,0.355000,0.532500,0.358920,0.532500,0.361842,0.533474,
0.361879,0.533485,0.369879,0.535485,0.370000,0.535500,0.373939,0.535500,0.381863,0.537481,0.384842,0.538474,0.384879,0.538485,0.396863,0.541481,0.399842,0.542474,0.399879,0.542485,0.411863,0.545481,0.414842,0.546474,0.414879,0.546485,0.422863,0.548481,0.425868,0.549482,0.535850,0.579477,0.642821,0.615467,0.789774,0.680446,0.871764,0.724441,0.941746,0.764430,
1.022713,0.815409,1.102692,0.875394,1.162680,0.925384,1.232654,0.985362,1.292646,1.045354,1.362624,1.125329,1.412600,1.185300,1.462593,1.255291,1.502583,1.305278,1.639564,1.550244,1.639864,1.550481,1.640000,1.550500,2.650000,1.550500,2.650354,1.550354,2.650500,1.550000,2.650500,-0.450000,2.650354,-0.450354,2.650000,-0.450500,-2.650000,-0.450500,-2.650354,-0.450354,
-2.650500,-0.450000,-2.650500,1.550000,-2.650354,1.550354,-2.650000,1.550500,-1.640000,1.550500,-1.639646,1.550354,-1.639646,1.550354,$1*%
G04 Aperture macros list end*
%TA.AperFunction,SMDPad,CuDef*%
%ADD10R,0.800000X0.800000*%
%TD*%
%TA.AperFunction,SMDPad,CuDef*%
%ADD11RoundRect,0.250000X-0.337500X-0.475000X0.337500X-0.475000X0.337500X0.475000X-0.337500X0.475000X0*%
%TD*%
%TA.AperFunction,SMDPad,CuDef*%
%ADD12RoundRect,0.237500X-0.237500X0.250000X-0.237500X-0.250000X0.237500X-0.250000X0.237500X0.250000X0*%
%TD*%
%TA.AperFunction,SMDPad,CuDef*%
%ADD13RoundRect,0.250000X0.337500X0.475000X-0.337500X0.475000X-0.337500X-0.475000X0.337500X-0.475000X0*%
%TD*%
%TA.AperFunction,SMDPad,CuDef*%
%ADD14RoundRect,0.150000X0.512500X0.150000X-0.512500X0.150000X-0.512500X-0.150000X0.512500X-0.150000X0*%
%TD*%
%TA.AperFunction,WasherPad*%
%ADD15C,5.300000*%
%TD*%
%TA.AperFunction,ComponentPad*%
%ADD16C,1.700000*%
%TD*%
%TA.AperFunction,ComponentPad*%
%ADD17R,1.300000X1.300000*%
%TD*%
%TA.AperFunction,ComponentPad*%
%ADD18C,1.300000*%
%TD*%
%TA.AperFunction,SMDPad,CuDef*%
%ADD19RoundRect,0.237500X0.237500X-0.250000X0.237500X0.250000X-0.237500X0.250000X-0.237500X-0.250000X0*%
%TD*%
%TA.AperFunction,ComponentPad*%
%ADD20R,2.000000X2.000000*%
%TD*%
%TA.AperFunction,SMDPad,CuDef*%
%ADD21FreePoly0,270.000000*%
%TD*%
%TA.AperFunction,SMDPad,CuDef*%
%ADD22FreePoly1,270.000000*%
%TD*%
%TA.AperFunction,SMDPad,CuDef*%
%ADD23RoundRect,0.250000X-0.650000X0.412500X-0.650000X-0.412500X0.650000X-0.412500X0.650000X0.412500X0*%
%TD*%
%TA.AperFunction,SMDPad,CuDef*%
%ADD24RoundRect,0.237500X-0.250000X-0.237500X0.250000X-0.237500X0.250000X0.237500X-0.250000X0.237500X0*%
%TD*%
%TA.AperFunction,ComponentPad*%
%ADD25RoundRect,0.250000X-0.550000X0.550000X-0.550000X-0.550000X0.550000X-0.550000X0.550000X0.550000X0*%
%TD*%
%TA.AperFunction,ComponentPad*%
%ADD26C,1.600000*%
%TD*%
%TA.AperFunction,SMDPad,CuDef*%
%ADD27R,0.558800X1.320800*%
%TD*%
%TA.AperFunction,SMDPad,CuDef*%
%ADD28R,3.960000X3.960000*%
%TD*%
%TA.AperFunction,SMDPad,CuDef*%
%ADD29R,2.540000X3.170000*%
%TD*%
%TA.AperFunction,SMDPad,CuDef*%
%ADD30RoundRect,0.237500X0.237500X-0.300000X0.237500X0.300000X-0.237500X0.300000X-0.237500X-0.300000X0*%
%TD*%
%TA.AperFunction,SMDPad,CuDef*%
%ADD31RoundRect,0.250000X0.650000X-0.412500X0.650000X0.412500X-0.650000X0.412500X-0.650000X-0.412500X0*%
%TD*%
%TA.AperFunction,SMDPad,CuDef*%
%ADD32RoundRect,0.250000X-0.475000X0.337500X-0.475000X-0.337500X0.475000X-0.337500X0.475000X0.337500X0*%
%TD*%
%TA.AperFunction,ComponentPad*%
%ADD33C,1.778000*%
%TD*%
%TA.AperFunction,SMDPad,CuDef*%
%ADD34R,2.006600X5.994400*%
%TD*%
%TA.AperFunction,SMDPad,CuDef*%
%ADD35R,0.711200X0.228600*%
%TD*%
%TA.AperFunction,SMDPad,CuDef*%
%ADD36RoundRect,0.250000X-0.350000X-0.450000X0.350000X-0.450000X0.350000X0.450000X-0.350000X0.450000X0*%
%TD*%
%TA.AperFunction,SMDPad,CuDef*%
%ADD37R,1.070000X3.270000*%
%TD*%
%TA.AperFunction,SMDPad,CuDef*%
%ADD38RoundRect,0.250000X0.412500X0.650000X-0.412500X0.650000X-0.412500X-0.650000X0.412500X-0.650000X0*%
%TD*%
%TA.AperFunction,SMDPad,CuDef*%
%ADD39RoundRect,0.150000X-0.825000X-0.150000X0.825000X-0.150000X0.825000X0.150000X-0.825000X0.150000X0*%
%TD*%
%TA.AperFunction,SMDPad,CuDef*%
%ADD40RoundRect,0.250000X0.475000X-0.337500X0.475000X0.337500X-0.475000X0.337500X-0.475000X-0.337500X0*%
%TD*%
%TA.AperFunction,ComponentPad*%
%ADD41C,2.000000*%
%TD*%
%TA.AperFunction,SMDPad,CuDef*%
%ADD42R,0.457200X1.003300*%
%TD*%
%TA.AperFunction,ComponentPad*%
%ADD43C,1.800000*%
%TD*%
%TA.AperFunction,SMDPad,CuDef*%
%ADD44RoundRect,0.155000X-0.212500X-0.155000X0.212500X-0.155000X0.212500X0.155000X-0.212500X0.155000X0*%
%TD*%
%TA.AperFunction,SMDPad,CuDef*%
%ADD45RoundRect,0.237500X0.250000X0.237500X-0.250000X0.237500X-0.250000X-0.237500X0.250000X-0.237500X0*%
%TD*%
%TA.AperFunction,SMDPad,CuDef*%
%ADD46RoundRect,0.250000X0.400000X0.625000X-0.400000X0.625000X-0.400000X-0.625000X0.400000X-0.625000X0*%
%TD*%
%TA.AperFunction,SMDPad,CuDef*%
%ADD47R,2.400000X1.500000*%
%TD*%
%TA.AperFunction,SMDPad,CuDef*%
%ADD48R,0.431800X1.397000*%
%TD*%
%TA.AperFunction,SMDPad,CuDef*%
%ADD49R,2.946400X1.752600*%
%TD*%
%TA.AperFunction,ComponentPad*%
%ADD50C,0.910000*%
%TD*%
%TA.AperFunction,SMDPad,CuDef*%
%ADD51RoundRect,0.237500X-0.237500X0.300000X-0.237500X-0.300000X0.237500X-0.300000X0.237500X0.300000X0*%
%TD*%
%TA.AperFunction,SMDPad,CuDef*%
%ADD52RoundRect,0.150000X-0.150000X0.825000X-0.150000X-0.825000X0.150000X-0.825000X0.150000X0.825000X0*%
%TD*%
%TA.AperFunction,SMDPad,CuDef*%
%ADD53FreePoly0,90.000000*%
%TD*%
%TA.AperFunction,SMDPad,CuDef*%
%ADD54FreePoly1,90.000000*%
%TD*%
%TA.AperFunction,ViaPad*%
%ADD55C,0.600000*%
%TD*%
%TA.AperFunction,Conductor*%
%ADD56C,0.500000*%
%TD*%
%TA.AperFunction,Conductor*%
%ADD57C,0.200000*%
%TD*%
%TA.AperFunction,Conductor*%
%ADD58C,0.800000*%
%TD*%
%TA.AperFunction,Conductor*%
%ADD59C,0.450000*%
%TD*%
%TA.AperFunction,Conductor*%
%ADD60C,0.400000*%
%TD*%
%TA.AperFunction,Conductor*%
%ADD61C,0.300000*%
%TD*%
G04 APERTURE END LIST*
D10*
%TO.P,D9,1,K*%
%TO.N,GND*%
X224200000Y-91750000D03*
%TO.P,D9,2,A*%
%TO.N,Net-(D9-A)*%
X225800000Y-91750000D03*
%TD*%
D11*
%TO.P,C8,1*%
%TO.N,3.3V*%
X128962500Y-123000000D03*
%TO.P,C8,2*%
%TO.N,GND*%
X131037500Y-123000000D03*
%TD*%
D12*
%TO.P,R7,1*%
%TO.N,Net-(U5-FB)*%
X202300000Y-86000000D03*
%TO.P,R7,2*%
%TO.N,Net-(C11-Pad1)*%
X202300000Y-87825000D03*
%TD*%
D13*
%TO.P,C4,1*%
%TO.N,GND*%
X120177500Y-97040000D03*
%TO.P,C4,2*%
%TO.N,3.3V*%
X118102500Y-97040000D03*
%TD*%
D14*
%TO.P,U14,1,GND*%
%TO.N,GND*%
X185937500Y-77115000D03*
%TO.P,U14,2,~{RESET}*%
%TO.N,Net-(U14-~{RESET})*%
X185937500Y-75215000D03*
%TO.P,U14,3,VDD*%
%TO.N,1.2V B*%
X183662500Y-76165000D03*
%TD*%
D15*
%TO.P,J11,*%
%TO.N,*%
X106560000Y-112700000D03*
X106560000Y-87300000D03*
X73540000Y-112700000D03*
X73540000Y-87300000D03*
D16*
%TO.P,J11,1,1*%
%TO.N,GND*%
X86240000Y-113970000D03*
%TO.P,J11,2,2*%
%TO.N,3.3V*%
X88780000Y-113970000D03*
%TO.P,J11,3,3*%
%TO.N,SDA*%
X91320000Y-113970000D03*
%TO.P,J11,4,4*%
%TO.N,SCL*%
X93860000Y-113970000D03*
%TD*%
D17*
%TO.P,J4,1,1*%
%TO.N,GND*%
X178400000Y-79400000D03*
D18*
%TO.P,J4,2,2*%
%TO.N,1.2V B*%
X178400000Y-81400000D03*
%TD*%
D19*
%TO.P,R2,1*%
%TO.N,Net-(BZ1-+)*%
X100320000Y-114312500D03*
%TO.P,R2,2*%
%TO.N,Net-(U3-THRES)*%
X100320000Y-112487500D03*
%TD*%
D20*
%TO.P,TP1,1,1*%
%TO.N,1.2V B*%
X228200000Y-113500000D03*
%TD*%
D21*
%TO.P,L2,1*%
%TO.N,Net-(U6-SW1)*%
X203800000Y-98497500D03*
D22*
%TO.P,L2,2*%
%TO.N,Net-(U6-SW2)*%
X199200000Y-98497500D03*
%TD*%
D17*
%TO.P,J6,1,1*%
%TO.N,GND*%
X85600000Y-121800000D03*
D18*
%TO.P,J6,2,2*%
%TO.N,NC_REL*%
X83600000Y-121800000D03*
%TO.P,J6,3,3*%
%TO.N,5.5V*%
X81600000Y-121800000D03*
%TD*%
D23*
%TO.P,C7,1*%
%TO.N,3.6V-*%
X204487381Y-111250600D03*
%TO.P,C7,2*%
%TO.N,GND*%
X204487381Y-114375600D03*
%TD*%
D19*
%TO.P,R25,1*%
%TO.N,SCL*%
X155500000Y-72225000D03*
%TO.P,R25,2*%
%TO.N,3.3V*%
X155500000Y-70400000D03*
%TD*%
D24*
%TO.P,R18,1*%
%TO.N,Net-(D5-A)*%
X224087500Y-90250000D03*
%TO.P,R18,2*%
%TO.N,5.5V*%
X225912500Y-90250000D03*
%TD*%
D17*
%TO.P,J8,1,1*%
%TO.N,GND*%
X133000000Y-127600000D03*
D18*
%TO.P,J8,2,2*%
%TO.N,SDA*%
X131000000Y-127600000D03*
%TO.P,J8,3,3*%
%TO.N,SCL*%
X129000000Y-127600000D03*
%TO.P,J8,4,4*%
%TO.N,3.3V*%
X127000000Y-127600000D03*
%TD*%
D25*
%TO.P,U4,1,\u002ACS*%
%TO.N,CS*%
X105400000Y-75590000D03*
D26*
%TO.P,U4,2,SO*%
%TO.N,MISO*%
X102860000Y-75590000D03*
%TO.P,U4,3,\u002AWP*%
%TO.N,GND*%
X100320000Y-75590000D03*
%TO.P,U4,4,VSS*%
X97780000Y-75590000D03*
%TO.P,U4,5,SI*%
%TO.N,MOSI*%
X97780000Y-83210000D03*
%TO.P,U4,6,SCK*%
%TO.N,SCLK*%
X100320000Y-83210000D03*
%TO.P,U4,7,\u002AHOLD*%
%TO.N,3.3V*%
X102860000Y-83210000D03*
%TO.P,U4,8,VCC*%
X105400000Y-83210000D03*
%TD*%
D24*
%TO.P,R5,1*%
%TO.N,Net-(U6-VC)*%
X208300000Y-105097500D03*
%TO.P,R5,2*%
%TO.N,Net-(C14-Pad2)*%
X210125000Y-105097500D03*
%TD*%
D14*
%TO.P,U16,1,NC*%
%TO.N,unconnected-(U16-NC-Pad1)*%
X185937500Y-72715000D03*
%TO.P,U16,2,A*%
%TO.N,Net-(U14-~{RESET})*%
X185937500Y-71765000D03*
%TO.P,U16,3,GND*%
%TO.N,GND*%
X185937500Y-70815000D03*
%TO.P,U16,4,Y*%
%TO.N,Net-(U16-Y)*%
X183662500Y-70815000D03*
%TO.P,U16,5,VCC*%
%TO.N,1.2V B*%
X183662500Y-72715000D03*
%TD*%
D27*
%TO.P,U13,1,SW*%
%TO.N,Net-(U13-SW)*%
X207549999Y-77697500D03*
%TO.P,U13,2,GND*%
%TO.N,GND*%
X208500000Y-77697500D03*
%TO.P,U13,3,EN*%
%TO.N,1.2V*%
X209450001Y-77697500D03*
%TO.P,U13,4,VFB*%
%TO.N,Net-(U13-VFB)*%
X209450001Y-75106700D03*
%TO.P,U13,5,VOUT*%
%TO.N,3.3V BZ*%
X208500000Y-75106700D03*
%TO.P,U13,6,VIN*%
%TO.N,1.2V*%
X207549999Y-75106700D03*
%TD*%
D28*
%TO.P,BT1,N*%
%TO.N,GND*%
X165400000Y-77200000D03*
D29*
%TO.P,BT1,P1*%
%TO.N,Net-(U1-VBAT)*%
X173020000Y-77200000D03*
%TO.P,BT1,P2*%
X157780000Y-77200000D03*
%TD*%
D26*
%TO.P,R11,1*%
%TO.N,Net-(U5-FB)*%
X200000000Y-86000000D03*
%TO.P,R11,2*%
%TO.N,3.3V*%
X200000000Y-93620000D03*
%TD*%
D10*
%TO.P,D1,1,K*%
%TO.N,GND*%
X224200000Y-112750000D03*
%TO.P,D1,2,A*%
%TO.N,Net-(D1-A)*%
X225800000Y-112750000D03*
%TD*%
D24*
%TO.P,R15,1*%
%TO.N,Net-(D2-A)*%
X224087500Y-108250000D03*
%TO.P,R15,2*%
%TO.N,1.2V*%
X225912500Y-108250000D03*
%TD*%
D20*
%TO.P,TP5,1,1*%
%TO.N,5.5V*%
X228200000Y-89500000D03*
%TD*%
D30*
%TO.P,C13,1*%
%TO.N,Net-(C13-Pad1)*%
X214900000Y-103640000D03*
%TO.P,C13,2*%
%TO.N,3.3V MCU*%
X214900000Y-101915000D03*
%TD*%
D10*
%TO.P,D6,1,K*%
%TO.N,GND*%
X224200000Y-109750000D03*
%TO.P,D6,2,A*%
%TO.N,Net-(D6-A)*%
X225800000Y-109750000D03*
%TD*%
D17*
%TO.P,J1,1,1*%
%TO.N,GND*%
X178400000Y-126200000D03*
D18*
%TO.P,J1,2,2*%
%TO.N,3.6V B*%
X178400000Y-128200000D03*
%TD*%
D24*
%TO.P,R17,1*%
%TO.N,Net-(D4-A)*%
X224087500Y-96250000D03*
%TO.P,R17,2*%
%TO.N,3.3V MCU*%
X225912500Y-96250000D03*
%TD*%
D31*
%TO.P,C22,1*%
%TO.N,GND*%
X204500000Y-76364600D03*
%TO.P,C22,2*%
%TO.N,1.2V*%
X204500000Y-73239600D03*
%TD*%
D10*
%TO.P,D8,1,K*%
%TO.N,GND*%
X224200000Y-97750000D03*
%TO.P,D8,2,A*%
%TO.N,Net-(D8-A)*%
X225800000Y-97750000D03*
%TD*%
D13*
%TO.P,C15,1*%
%TO.N,GND*%
X170965000Y-125200000D03*
%TO.P,C15,2*%
%TO.N,3.3V*%
X168890000Y-125200000D03*
%TD*%
D32*
%TO.P,C16,1*%
%TO.N,GND*%
X216500000Y-84562500D03*
%TO.P,C16,2*%
%TO.N,3.3V*%
X216500000Y-86637500D03*
%TD*%
D10*
%TO.P,D5,1,K*%
%TO.N,GND*%
X224200000Y-88750000D03*
%TO.P,D5,2,A*%
%TO.N,Net-(D5-A)*%
X225800000Y-88750000D03*
%TD*%
D31*
%TO.P,C18,1*%
%TO.N,GND*%
X209300000Y-129060000D03*
%TO.P,C18,2*%
%TO.N,3.6V-*%
X209300000Y-125935000D03*
%TD*%
D13*
%TO.P,C9,1*%
%TO.N,GND*%
X117637500Y-115740000D03*
%TO.P,C9,2*%
%TO.N,3.3V*%
X115562500Y-115740000D03*
%TD*%
D17*
%TO.P,J14,1,1*%
%TO.N,GND*%
X115800000Y-72400000D03*
D18*
%TO.P,J14,2,2*%
%TO.N,G_CAM_IN*%
X117800000Y-72400000D03*
%TO.P,J14,3,3*%
%TO.N,G_CAM_OUT*%
X119800000Y-72400000D03*
%TO.P,J14,4,4*%
%TO.N,5.5V*%
X121800000Y-72400000D03*
%TD*%
D24*
%TO.P,R20,1*%
%TO.N,Net-(D7-A)*%
X224087500Y-105250000D03*
%TO.P,R20,2*%
%TO.N,3.6V+*%
X225912500Y-105250000D03*
%TD*%
D26*
%TO.P,R12,1*%
%TO.N,Net-(U6-FB)*%
X217200000Y-109535000D03*
%TO.P,R12,2*%
%TO.N,3.3V MCU*%
X217200000Y-101915000D03*
%TD*%
D15*
%TO.P,U2,*%
%TO.N,*%
X112790000Y-81760000D03*
X112790000Y-99540000D03*
X133110000Y-81760000D03*
X133110000Y-99540000D03*
D33*
%TO.P,U2,JP1_1,VIN*%
%TO.N,3.3V*%
X116600000Y-99540000D03*
%TO.P,U2,JP1_2,3VO*%
%TO.N,unconnected-(U2-3VO-PadJP1_2)*%
X119140000Y-99540000D03*
%TO.P,U2,JP1_3,GND*%
%TO.N,GND*%
X121680000Y-99540000D03*
%TO.P,U2,JP1_4,SCL*%
%TO.N,SCL*%
X124220000Y-99540000D03*
%TO.P,U2,JP1_5,SDA*%
%TO.N,SDA*%
X126760000Y-99540000D03*
%TO.P,U2,JP1_6,~{INT}*%
%TO.N,unconnected-(U2-~{INT}-PadJP1_6)*%
X129300000Y-99540000D03*
%TO.P,U2,JP2_1,BT*%
%TO.N,unconnected-(U2-BT-PadJP2_1)*%
X116600000Y-81760000D03*
%TO.P,U2,JP2_2,P0*%
%TO.N,unconnected-(U2-P0-PadJP2_2)*%
X119140000Y-81760000D03*
%TO.P,U2,JP2_3,P1*%
%TO.N,unconnected-(U2-P1-PadJP2_3)*%
X121680000Y-81760000D03*
%TO.P,U2,JP2_4,~{RST}*%
%TO.N,unconnected-(U2-~{RST}-PadJP2_4)*%
X124220000Y-81760000D03*
%TO.P,U2,JP2_5,DI*%
%TO.N,unconnected-(U2-DI-PadJP2_5)*%
X126760000Y-81760000D03*
%TO.P,U2,JP2_6,CS*%
%TO.N,unconnected-(U2-CS-PadJP2_6)*%
X129300000Y-81760000D03*
%TD*%
D34*
%TO.P,L3,1,1*%
%TO.N,3.6V-*%
X204341000Y-120497500D03*
%TO.P,L3,2,2*%
%TO.N,Net-(U11-SW)*%
X208659000Y-120497500D03*
%TD*%
D20*
%TO.P,TP7,1,1*%
%TO.N,3.6V+*%
X228200000Y-104500000D03*
%TD*%
D35*
%TO.P,U8,1,IN1*%
%TO.N,INV_PWM_1*%
X92400100Y-83500126D03*
%TO.P,U8,2,IN2*%
%TO.N,INV_PWM_2*%
X92400100Y-83000000D03*
%TO.P,U8,3,GND*%
%TO.N,GND*%
X92400100Y-82499874D03*
%TO.P,U8,4,OUT2*%
%TO.N,DC_PWM_2*%
X90799900Y-82499874D03*
%TO.P,U8,5,VM*%
%TO.N,5.5V*%
X90799900Y-83000000D03*
%TO.P,U8,6,OUT1*%
%TO.N,DC_PWM_1*%
X90799900Y-83500126D03*
%TD*%
D36*
%TO.P,R27,1*%
%TO.N,GND*%
X207780000Y-72802100D03*
%TO.P,R27,2*%
%TO.N,Net-(U13-VFB)*%
X209780000Y-72802100D03*
%TD*%
D24*
%TO.P,R23,1*%
%TO.N,Net-(U11-FB)*%
X213387500Y-116897500D03*
%TO.P,R23,2*%
%TO.N,5.5V*%
X215212500Y-116897500D03*
%TD*%
D37*
%TO.P,R6,1*%
%TO.N,3.6V-*%
X167395000Y-129600000D03*
%TO.P,R6,2*%
%TO.N,3.6V+*%
X173505000Y-129600000D03*
%TD*%
D14*
%TO.P,U10,1,GND*%
%TO.N,GND*%
X185937500Y-122950000D03*
%TO.P,U10,2,~{RESET}*%
%TO.N,Net-(U10-~{RESET})*%
X185937500Y-121050000D03*
%TO.P,U10,3,VDD*%
%TO.N,3.6V B*%
X183662500Y-122000000D03*
%TD*%
D38*
%TO.P,C3,1*%
%TO.N,GND*%
X111325000Y-122600000D03*
%TO.P,C3,2*%
%TO.N,Net-(U3-THRES)*%
X108200000Y-122600000D03*
%TD*%
D24*
%TO.P,R19,1*%
%TO.N,Net-(D6-A)*%
X224087500Y-111250000D03*
%TO.P,R19,2*%
%TO.N,3.6V B*%
X225912500Y-111250000D03*
%TD*%
D25*
%TO.P,U1,1,X1*%
%TO.N,X1*%
X134010000Y-69395000D03*
D26*
%TO.P,U1,2,X2*%
%TO.N,X2*%
X131470000Y-69395000D03*
%TO.P,U1,3,VBAT*%
%TO.N,Net-(U1-VBAT)*%
X128930000Y-69395000D03*
%TO.P,U1,4,GND*%
%TO.N,GND*%
X126390000Y-69395000D03*
%TO.P,U1,5,SDA*%
%TO.N,SDA*%
X126390000Y-77015000D03*
%TO.P,U1,6,SCL*%
%TO.N,SCL*%
X128930000Y-77015000D03*
%TO.P,U1,7,SQW/OUT*%
%TO.N,unconnected-(U1-SQW{slash}OUT-Pad7)*%
X131470000Y-77015000D03*
%TO.P,U1,8,VCC*%
%TO.N,5.5V*%
X134010000Y-77015000D03*
%TD*%
D25*
%TO.P,U3,1,GND*%
%TO.N,GND*%
X105400000Y-116800000D03*
D26*
%TO.P,U3,2,TRIG*%
%TO.N,Net-(U3-THRES)*%
X102860000Y-116800000D03*
%TO.P,U3,3,OUT*%
%TO.N,Net-(BZ1-+)*%
X100320000Y-116800000D03*
%TO.P,U3,4,~{RST}*%
%TO.N,3.3V BZ*%
X97780000Y-116800000D03*
%TO.P,U3,5,CONT*%
%TO.N,Net-(U3-CONT)*%
X97780000Y-124420000D03*
%TO.P,U3,6,THRES*%
%TO.N,Net-(U3-THRES)*%
X100320000Y-124420000D03*
%TO.P,U3,7,DISCH*%
%TO.N,unconnected-(U3-DISCH-Pad7)*%
X102860000Y-124420000D03*
%TO.P,U3,8,VCC*%
%TO.N,3.3V BZ*%
X105400000Y-124420000D03*
%TD*%
D10*
%TO.P,D7,1,K*%
%TO.N,GND*%
X224200000Y-103750000D03*
%TO.P,D7,2,A*%
%TO.N,Net-(D7-A)*%
X225800000Y-103750000D03*
%TD*%
D39*
%TO.P,Q2,1*%
%TO.N,1.2V B*%
X183325000Y-79460000D03*
%TO.P,Q2,2*%
%TO.N,unconnected-(Q2-Pad2)*%
X183325000Y-80730000D03*
%TO.P,Q2,3*%
%TO.N,unconnected-(Q2-Pad3)*%
X183325000Y-82000000D03*
%TO.P,Q2,4*%
%TO.N,Net-(U16-Y)*%
X183325000Y-83270000D03*
%TO.P,Q2,5*%
%TO.N,1.2V*%
X188275000Y-83270000D03*
%TO.P,Q2,6*%
%TO.N,unconnected-(Q2-Pad6)*%
X188275000Y-82000000D03*
%TO.P,Q2,7*%
%TO.N,unconnected-(Q2-Pad7)*%
X188275000Y-80730000D03*
%TO.P,Q2,8*%
%TO.N,unconnected-(Q2-Pad8)*%
X188275000Y-79460000D03*
%TD*%
D15*
%TO.P,U17,*%
%TO.N,*%
X188000000Y-88800000D03*
X160200000Y-88800000D03*
X188000000Y-111200000D03*
X160200000Y-111200000D03*
D16*
%TO.P,U17,JP5_1,GND*%
%TO.N,GND*%
X186800000Y-106350000D03*
%TO.P,U17,JP5_2,DTR*%
%TO.N,unconnected-(U17-DTR-PadJP5_2)*%
X184260000Y-106350000D03*
%TO.P,U17,JP5_3,RES1*%
%TO.N,unconnected-(U17-RES1-PadJP5_3)*%
X181720000Y-106350000D03*
%TO.P,U17,JP5_4,DIO11*%
%TO.N,unconnected-(U17-DIO11-PadJP5_4)*%
X179180000Y-106350000D03*
%TO.P,U17,JP5_5,RSSI*%
%TO.N,unconnected-(U17-RSSI-PadJP5_5)*%
X176640000Y-106350000D03*
%TO.P,U17,JP5_6,RESET*%
%TO.N,unconnected-(U17-RESET-PadJP5_6)*%
X174100000Y-106350000D03*
%TO.P,U17,JP5_7,DIO12*%
%TO.N,unconnected-(U17-DIO12-PadJP5_7)*%
X171560000Y-106350000D03*
%TO.P,U17,JP5_8,DIN*%
%TO.N,XBEE_TX*%
X169020000Y-106350000D03*
%TO.P,U17,JP5_9,DOUT*%
%TO.N,XBEE_RX*%
X166480000Y-106350000D03*
%TO.P,U17,JP5_10,3.3V*%
%TO.N,3.3V*%
X163940000Y-106350000D03*
%TO.P,U17,JP5_11,GND*%
%TO.N,GND*%
X161400000Y-106350000D03*
%TO.P,U17,JP6_1,DIO0*%
%TO.N,unconnected-(U17-DIO0-PadJP6_1)*%
X161400000Y-93650000D03*
%TO.P,U17,JP6_2,DIO1*%
%TO.N,unconnected-(U17-DIO1-PadJP6_2)*%
X163940000Y-93650000D03*
%TO.P,U17,JP6_3,DIO2*%
%TO.N,unconnected-(U17-DIO2-PadJP6_3)*%
X166480000Y-93650000D03*
%TO.P,U17,JP6_4,DIO3*%
%TO.N,unconnected-(U17-DIO3-PadJP6_4)*%
X169020000Y-93650000D03*
%TO.P,U17,JP6_5,RTS*%
%TO.N,unconnected-(U17-RTS-PadJP6_5)*%
X171560000Y-93650000D03*
%TO.P,U17,JP6_6,DIO5*%
%TO.N,unconnected-(U17-DIO5-PadJP6_6)*%
X174100000Y-93650000D03*
%TO.P,U17,JP6_7,RES2*%
%TO.N,unconnected-(U17-RES2-PadJP6_7)*%
X176640000Y-93650000D03*
%TO.P,U17,JP6_8,DIO9*%
%TO.N,unconnected-(U17-DIO9-PadJP6_8)*%
X179180000Y-93650000D03*
%TO.P,U17,JP6_9,CTS*%
%TO.N,unconnected-(U17-CTS-PadJP6_9)*%
X181720000Y-93650000D03*
%TO.P,U17,JP6_10,DIO4*%
%TO.N,unconnected-(U17-DIO4-PadJP6_10)*%
X184260000Y-93650000D03*
%TO.P,U17,JP6_11,5V*%
%TO.N,unconnected-(U17-5V-PadJP6_11)*%
X186800000Y-93650000D03*
%TD*%
D26*
%TO.P,R9,1*%
%TO.N,GND*%
X204600000Y-93620000D03*
%TO.P,R9,2*%
%TO.N,Net-(U5-FB)*%
X204600000Y-86000000D03*
%TD*%
D36*
%TO.P,R26,1*%
%TO.N,Net-(U13-VFB)*%
X211480000Y-72802100D03*
%TO.P,R26,2*%
%TO.N,3.3V BZ*%
X213480000Y-72802100D03*
%TD*%
D24*
%TO.P,R14,1*%
%TO.N,Net-(D1-A)*%
X224087500Y-114250000D03*
%TO.P,R14,2*%
%TO.N,1.2V B*%
X225912500Y-114250000D03*
%TD*%
D17*
%TO.P,J15,1,1*%
%TO.N,GND*%
X121800000Y-127600000D03*
D18*
%TO.P,J15,2,2*%
%TO.N,PG_CAM_IN*%
X119800000Y-127600000D03*
%TO.P,J15,3,3*%
%TO.N,PG_CAM_OUT*%
X117800000Y-127600000D03*
%TO.P,J15,4,4*%
%TO.N,5.5V*%
X115800000Y-127600000D03*
%TD*%
D17*
%TO.P,J5,1,1*%
%TO.N,GND*%
X92600000Y-121800000D03*
D18*
%TO.P,J5,2,2*%
%TO.N,Net-(J5-Pad2)*%
X90600000Y-121800000D03*
%TD*%
D13*
%TO.P,C10,1*%
%TO.N,3.3V*%
X88547500Y-111470000D03*
%TO.P,C10,2*%
%TO.N,GND*%
X86472500Y-111470000D03*
%TD*%
D40*
%TO.P,C17,1*%
%TO.N,GND*%
X200700000Y-110972500D03*
%TO.P,C17,2*%
%TO.N,3.3V MCU*%
X200700000Y-108897500D03*
%TD*%
D12*
%TO.P,R24,1*%
%TO.N,3.3V*%
X153700000Y-70400000D03*
%TO.P,R24,2*%
%TO.N,SDA*%
X153700000Y-72225000D03*
%TD*%
D23*
%TO.P,C1,1*%
%TO.N,GND*%
X108200000Y-116800000D03*
%TO.P,C1,2*%
%TO.N,Net-(U3-THRES)*%
X108200000Y-119925000D03*
%TD*%
D24*
%TO.P,R22,1*%
%TO.N,Net-(D9-A)*%
X224087500Y-93250000D03*
%TO.P,R22,2*%
%TO.N,3.3V BZ*%
X225912500Y-93250000D03*
%TD*%
D17*
%TO.P,J3,1,1*%
%TO.N,GND*%
X178400000Y-118600000D03*
D18*
%TO.P,J3,2,2*%
%TO.N,3.6V B*%
X178400000Y-120600000D03*
%TD*%
D20*
%TO.P,TP10,1,1*%
%TO.N,GND*%
X228200000Y-86500000D03*
%TD*%
%TO.P,TP8,1,1*%
%TO.N,3.3V*%
X228200000Y-98500000D03*
%TD*%
D31*
%TO.P,C6,1*%
%TO.N,3.6V-*%
X212712619Y-84275600D03*
%TO.P,C6,2*%
%TO.N,GND*%
X212712619Y-81150600D03*
%TD*%
D40*
%TO.P,C14,1*%
%TO.N,Net-(U6-FB)*%
X210125000Y-109535000D03*
%TO.P,C14,2*%
%TO.N,Net-(C14-Pad2)*%
X210125000Y-107460000D03*
%TD*%
D17*
%TO.P,J10,1,1*%
%TO.N,GND*%
X194050000Y-120460000D03*
D18*
%TO.P,J10,2,2*%
%TO.N,ELEVATOR*%
X196050000Y-120460000D03*
%TO.P,J10,3,3*%
%TO.N,5.5V*%
X198050000Y-120460000D03*
%TD*%
D10*
%TO.P,D2,1,K*%
%TO.N,GND*%
X224200000Y-106750000D03*
%TO.P,D2,2,A*%
%TO.N,Net-(D2-A)*%
X225800000Y-106750000D03*
%TD*%
D39*
%TO.P,Q1,1*%
%TO.N,3.6V B*%
X183325000Y-125295000D03*
%TO.P,Q1,2*%
%TO.N,unconnected-(Q1-Pad2)*%
X183325000Y-126565000D03*
%TO.P,Q1,3*%
%TO.N,unconnected-(Q1-Pad3)*%
X183325000Y-127835000D03*
%TO.P,Q1,4*%
%TO.N,Net-(U12-Y)*%
X183325000Y-129105000D03*
%TO.P,Q1,5*%
%TO.N,3.6V+*%
X188275000Y-129105000D03*
%TO.P,Q1,6*%
%TO.N,unconnected-(Q1-Pad6)*%
X188275000Y-127835000D03*
%TO.P,Q1,7*%
%TO.N,unconnected-(Q1-Pad7)*%
X188275000Y-126565000D03*
%TO.P,Q1,8*%
%TO.N,unconnected-(Q1-Pad8)*%
X188275000Y-125295000D03*
%TD*%
D20*
%TO.P,BZ1,1,+*%
%TO.N,Net-(BZ1-+)*%
X158400000Y-121200000D03*
D41*
%TO.P,BZ1,2,-*%
%TO.N,GND*%
X166000000Y-121200000D03*
%TD*%
D42*
%TO.P,U11,1,IN*%
%TO.N,3.6V-*%
X212725001Y-125450050D03*
%TO.P,U11,2,OUT*%
%TO.N,5.5V*%
X213374999Y-125450050D03*
%TO.P,U11,3,SW*%
%TO.N,Net-(U11-SW)*%
X214025001Y-125450050D03*
%TO.P,U11,4,PGND*%
%TO.N,GND*%
X214674999Y-125450050D03*
%TO.P,U11,5,FTY*%
%TO.N,unconnected-(U11-FTY-Pad5)*%
X214674999Y-122744950D03*
%TO.P,U11,6,AGND*%
%TO.N,GND*%
X214025001Y-122744950D03*
%TO.P,U11,7,FB*%
%TO.N,Net-(U11-FB)*%
X213374999Y-122744950D03*
%TO.P,U11,8,EN*%
%TO.N,3.6V-*%
X212725001Y-122744950D03*
%TD*%
D17*
%TO.P,J2,1,1*%
%TO.N,GND*%
X178400000Y-71800000D03*
D18*
%TO.P,J2,2,2*%
%TO.N,1.2V B*%
X178400000Y-73800000D03*
%TD*%
D43*
%TO.P,U15,CN2_1,VCC*%
%TO.N,unconnected-(U15-VCC-PadCN2_1)*%
X140920000Y-121336000D03*
%TO.P,U15,CN2_2,SWCLK*%
%TO.N,unconnected-(U15-SWCLK-PadCN2_2)*%
X138380000Y-123876000D03*
%TO.P,U15,CN2_3,GND_SWD*%
%TO.N,unconnected-(U15-GND_SWD-PadCN2_3)*%
X138380000Y-121336000D03*
%TO.P,U15,CN2_4,SWDIO*%
%TO.N,unconnected-(U15-SWDIO-PadCN2_4)*%
X138380000Y-118796000D03*
%TO.P,U15,CN3_1,VIN*%
%TO.N,3.3V MCU*%
X138380000Y-116256000D03*
%TO.P,U15,CN3_2,GND_CN3*%
%TO.N,GND*%
X138380000Y-113716000D03*
%TO.P,U15,CN3_3,~{RST}_CN3*%
%TO.N,unconnected-(U15-~{RST}_CN3-PadCN3_3)*%
X138380000Y-111176000D03*
%TO.P,U15,CN3_4,5V*%
%TO.N,unconnected-(U15-5V-PadCN3_4)*%
X138380000Y-108636000D03*
%TO.P,U15,CN3_5,PA2(A7)*%
%TO.N,unconnected-(U15-PA2(A7)-PadCN3_5)*%
X138380000Y-106096000D03*
%TO.P,U15,CN3_6,SPI_MOSI(PA7(A6))*%
%TO.N,MOSI*%
X138380000Y-103556000D03*
%TO.P,U15,CN3_7,SPI_MISO(PA6/PA15(A5))*%
%TO.N,MISO*%
X138380000Y-101016000D03*
%TO.P,U15,CN3_8,SPI_SCK(PA5/PB7(A4))*%
%TO.N,SCLK*%
X138380000Y-98476000D03*
%TO.P,U15,CN3_9,SPI_CS(PA4(A3))*%
%TO.N,CS*%
X138380000Y-95936000D03*
%TO.P,U15,CN3_10,PA3(A2)*%
%TO.N,unconnected-(U15-PA3(A2)-PadCN3_10)*%
X138380000Y-93396000D03*
%TO.P,U15,CN3_11,PWM_1(PA1(A1))*%
%TO.N,INV_PWM_1*%
X138380000Y-90856000D03*
%TO.P,U15,CN3_12,PWM_2(PA0(A0))*%
%TO.N,INV_PWM_2*%
X138380000Y-88316000D03*
%TO.P,U15,CN3_13,AREF*%
%TO.N,unconnected-(U15-AREF-PadCN3_13)*%
X138380000Y-85776000D03*
%TO.P,U15,CN3_14,3V3*%
%TO.N,unconnected-(U15-3V3-PadCN3_14)*%
X138380000Y-83236000D03*
%TO.P,U15,CN3_15,T_SWO(PB3/PB8(D13))*%
%TO.N,unconnected-(U15-T_SWO(PB3{slash}PB8(D13))-PadCN3_15)*%
X138380000Y-80696000D03*
%TO.P,U15,CN4_1,XBEE_TX(PA9(D1))*%
%TO.N,XBEE_TX*%
X153620000Y-116256000D03*
%TO.P,U15,CN4_2,XBEE_RX(PA10(D0))*%
%TO.N,XBEE_RX*%
X153620000Y-113716000D03*
%TO.P,U15,CN4_3,~{RST}_CN4*%
%TO.N,unconnected-(U15-~{RST}_CN4-PadCN4_3)*%
X153620000Y-111176000D03*
%TO.P,U15,CN4_4,GND_CN4*%
%TO.N,GND*%
X153620000Y-108636000D03*
%TO.P,U15,CN4_5,NC_REL(PA12(D2))*%
%TO.N,NC_REL*%
X153620000Y-106096000D03*
%TO.P,U15,CN4_6,EGG_REL(PB0(D3))*%
%TO.N,EGG_REL*%
X153620000Y-103556000D03*
%TO.P,U15,CN4_7,I2C_SDA(PB7(D4))*%
%TO.N,SDA*%
X153620000Y-101016000D03*
%TO.P,U15,CN4_8,I2C_SCL(PA15(D5))*%
%TO.N,SCL*%
X153620000Y-98476000D03*
%TO.P,U15,CN4_9,G_CAM_IN(PB6(D6))*%
%TO.N,G_CAM_IN*%
X153620000Y-95936000D03*
%TO.P,U15,CN4_10,G_CAM_OUT(PF0(D7))*%
%TO.N,G_CAM_OUT*%
X153620000Y-93396000D03*
%TO.P,U15,CN4_11,PG_CAM_OUT(PF1(D8))*%
%TO.N,PG_CAM_OUT*%
X153620000Y-90856000D03*
%TO.P,U15,CN4_12,PG_CAM_IN(PA8(D9))*%
%TO.N,PG_CAM_IN*%
X153620000Y-88316000D03*
%TO.P,U15,CN4_13,CC_REL(PA11(D10))*%
%TO.N,CC_REL*%
X153620000Y-85776000D03*
%TO.P,U15,CN4_14,AILERON(PB5(D11))*%
%TO.N,AILERON*%
X153620000Y-83236000D03*
%TO.P,U15,CN4_15,ELEVATOR(PB4(D12))*%
%TO.N,ELEVATOR*%
X153620000Y-80696000D03*
%TD*%
D17*
%TO.P,J9,1,1*%
%TO.N,GND*%
X81600000Y-78200000D03*
D18*
%TO.P,J9,2,2*%
%TO.N,EGG_REL*%
X83600000Y-78200000D03*
%TO.P,J9,3,3*%
%TO.N,5.5V*%
X85600000Y-78200000D03*
%TD*%
D26*
%TO.P,R10,1*%
%TO.N,GND*%
X212600000Y-101915000D03*
%TO.P,R10,2*%
%TO.N,Net-(U6-FB)*%
X212600000Y-109535000D03*
%TD*%
D44*
%TO.P,C21,1*%
%TO.N,5.5V*%
X213732500Y-127297500D03*
%TO.P,C21,2*%
%TO.N,GND*%
X214867500Y-127297500D03*
%TD*%
D24*
%TO.P,R21,1*%
%TO.N,Net-(D8-A)*%
X224087500Y-99250000D03*
%TO.P,R21,2*%
%TO.N,3.3V*%
X225912500Y-99250000D03*
%TD*%
D20*
%TO.P,TP2,1,1*%
%TO.N,1.2V*%
X228200000Y-107500000D03*
%TD*%
D11*
%TO.P,C19,1*%
%TO.N,5.5V*%
X213262500Y-129097500D03*
%TO.P,C19,2*%
%TO.N,GND*%
X215337500Y-129097500D03*
%TD*%
D17*
%TO.P,J13,1,1*%
%TO.N,GND*%
X76600000Y-121800000D03*
D18*
%TO.P,J13,2,2*%
%TO.N,AILERON*%
X74600000Y-121800000D03*
%TO.P,J13,3,3*%
%TO.N,5.5V*%
X72600000Y-121800000D03*
%TD*%
D19*
%TO.P,R8,1*%
%TO.N,Net-(U6-FB)*%
X214900000Y-109535000D03*
%TO.P,R8,2*%
%TO.N,Net-(C13-Pad1)*%
X214900000Y-107710000D03*
%TD*%
D10*
%TO.P,D4,1,K*%
%TO.N,GND*%
X224200000Y-94750000D03*
%TO.P,D4,2,A*%
%TO.N,Net-(D4-A)*%
X225800000Y-94750000D03*
%TD*%
D32*
%TO.P,C12,1*%
%TO.N,Net-(U5-FB)*%
X207075000Y-86000000D03*
%TO.P,C12,2*%
%TO.N,Net-(C12-Pad2)*%
X207075000Y-88075000D03*
%TD*%
D45*
%TO.P,R4,1*%
%TO.N,Net-(U5-VC)*%
X208900000Y-90437500D03*
%TO.P,R4,2*%
%TO.N,Net-(C12-Pad2)*%
X207075000Y-90437500D03*
%TD*%
D40*
%TO.P,C2,1*%
%TO.N,5.5V*%
X137800000Y-72237500D03*
%TO.P,C2,2*%
%TO.N,GND*%
X137800000Y-70162500D03*
%TD*%
D10*
%TO.P,D3,1,K*%
%TO.N,GND*%
X224200000Y-100750000D03*
%TO.P,D3,2,A*%
%TO.N,Net-(D3-A)*%
X225800000Y-100750000D03*
%TD*%
D17*
%TO.P,J16,1,1*%
%TO.N,DC_PWM_1*%
X90600000Y-78200000D03*
D18*
%TO.P,J16,2,2*%
%TO.N,DC_PWM_2*%
X92600000Y-78200000D03*
%TD*%
D46*
%TO.P,R13,1*%
%TO.N,GND*%
X216650000Y-119297500D03*
%TO.P,R13,2*%
%TO.N,Net-(U11-FB)*%
X213550000Y-119297500D03*
%TD*%
D14*
%TO.P,U12,1,NC*%
%TO.N,unconnected-(U12-NC-Pad1)*%
X185937500Y-118550000D03*
%TO.P,U12,2,A*%
%TO.N,Net-(U10-~{RESET})*%
X185937500Y-117600000D03*
%TO.P,U12,3,GND*%
%TO.N,GND*%
X185937500Y-116650000D03*
%TO.P,U12,4,Y*%
%TO.N,Net-(U12-Y)*%
X183662500Y-116650000D03*
%TO.P,U12,5,VCC*%
%TO.N,3.6V B*%
X183662500Y-118550000D03*
%TD*%
D47*
%TO.P,L4,1*%
%TO.N,Net-(U13-SW)*%
X199300000Y-77152100D03*
%TO.P,L4,2*%
%TO.N,1.2V*%
X199300000Y-71652100D03*
%TD*%
D31*
%TO.P,C5,1*%
%TO.N,Net-(U3-CONT)*%
X96600000Y-114162500D03*
%TO.P,C5,2*%
%TO.N,GND*%
X96600000Y-111037500D03*
%TD*%
D19*
%TO.P,R1,1*%
%TO.N,3.3V BZ*%
X98700000Y-114312500D03*
%TO.P,R1,2*%
%TO.N,Net-(U3-THRES)*%
X98700000Y-112487500D03*
%TD*%
D17*
%TO.P,J12,1,1*%
%TO.N,GND*%
X72600000Y-78200000D03*
D18*
%TO.P,J12,2,2*%
%TO.N,AILERON*%
X74600000Y-78200000D03*
%TO.P,J12,3,3*%
%TO.N,5.5V*%
X76600000Y-78200000D03*
%TD*%
D45*
%TO.P,R3,1*%
%TO.N,Net-(J5-Pad2)*%
X92512500Y-117400000D03*
%TO.P,R3,2*%
%TO.N,3.3V*%
X90687500Y-117400000D03*
%TD*%
D31*
%TO.P,C20,1*%
%TO.N,GND*%
X214700000Y-78364600D03*
%TO.P,C20,2*%
%TO.N,3.3V BZ*%
X214700000Y-75239600D03*
%TD*%
D48*
%TO.P,U5,1,RT*%
%TO.N,3.6V-*%
X210761900Y-92221900D03*
%TO.P,U5,2,SGND*%
%TO.N,GND*%
X211412141Y-92221900D03*
%TO.P,U5,3,MODE/SYNC*%
%TO.N,unconnected-(U5-MODE{slash}SYNC-Pad3)*%
X212062381Y-92221900D03*
%TO.P,U5,4,SW1*%
%TO.N,Net-(U5-SW1)*%
X212712619Y-92221900D03*
%TO.P,U5,5,PGND*%
%TO.N,GND*%
X213362859Y-92221900D03*
%TO.P,U5,6,SW2*%
%TO.N,Net-(U5-SW2)*%
X214013100Y-92221900D03*
%TO.P,U5,7,VOUT*%
%TO.N,3.3V*%
X214013100Y-87853100D03*
%TO.P,U5,8,VIN_2*%
%TO.N,3.6V-*%
X213362859Y-87853100D03*
%TO.P,U5,9,VIN*%
X212712619Y-87853100D03*
%TO.P,U5,10,\u002ASHDN*%
X212062381Y-87853100D03*
%TO.P,U5,11,FB*%
%TO.N,Net-(U5-FB)*%
X211412141Y-87853100D03*
%TO.P,U5,12,VC*%
%TO.N,Net-(U5-VC)*%
X210761900Y-87853100D03*
D49*
%TO.P,U5,13,EPAD*%
%TO.N,unconnected-(U5-EPAD-Pad13)*%
X212387500Y-90037500D03*
%TD*%
D24*
%TO.P,R16,1*%
%TO.N,Net-(D3-A)*%
X224087500Y-102250000D03*
%TO.P,R16,2*%
%TO.N,3.6V-*%
X225912500Y-102250000D03*
%TD*%
D20*
%TO.P,TP3,1,1*%
%TO.N,3.6V-*%
X228200000Y-101500000D03*
%TD*%
D15*
%TO.P,U7,*%
%TO.N,*%
X112790000Y-105540000D03*
X133110000Y-105540000D03*
D16*
%TO.P,U7,1,VIN*%
%TO.N,3.3V*%
X114060000Y-118240000D03*
%TO.P,U7,2,3Vo*%
%TO.N,unconnected-(U7-3Vo-Pad2)*%
X116600000Y-118240000D03*
%TO.P,U7,3,GND*%
%TO.N,GND*%
X119140000Y-118240000D03*
%TO.P,U7,4,SCL*%
%TO.N,SCL*%
X121680000Y-118240000D03*
%TO.P,U7,5,SDO*%
%TO.N,unconnected-(U7-SDO-Pad5)*%
X124220000Y-118240000D03*
%TO.P,U7,6,SDA*%
%TO.N,SDA*%
X126760000Y-118240000D03*
%TO.P,U7,7,CS*%
%TO.N,unconnected-(U7-CS-Pad7)*%
X129300000Y-118240000D03*
%TO.P,U7,8,INT*%
%TO.N,unconnected-(U7-INT-Pad8)*%
X131840000Y-118240000D03*
%TD*%
D50*
%TO.P,Y1,1*%
%TO.N,X1*%
X149472500Y-70565000D03*
%TO.P,Y1,2*%
%TO.N,X2*%
X149472500Y-71835000D03*
%TD*%
D51*
%TO.P,C11,1*%
%TO.N,Net-(C11-Pad1)*%
X202300000Y-91895000D03*
%TO.P,C11,2*%
%TO.N,3.3V*%
X202300000Y-93620000D03*
%TD*%
D48*
%TO.P,U6,1,RT*%
%TO.N,3.6V-*%
X206438100Y-103313100D03*
%TO.P,U6,2,SGND*%
%TO.N,GND*%
X205787859Y-103313100D03*
%TO.P,U6,3,MODE/SYNC*%
%TO.N,unconnected-(U6-MODE{slash}SYNC-Pad3)*%
X205137619Y-103313100D03*
%TO.P,U6,4,SW1*%
%TO.N,Net-(U6-SW1)*%
X204487381Y-103313100D03*
%TO.P,U6,5,PGND*%
%TO.N,GND*%
X203837141Y-103313100D03*
%TO.P,U6,6,SW2*%
%TO.N,Net-(U6-SW2)*%
X203186900Y-103313100D03*
%TO.P,U6,7,VOUT*%
%TO.N,3.3V MCU*%
X203186900Y-107681900D03*
%TO.P,U6,8,VIN_2*%
%TO.N,3.6V-*%
X203837141Y-107681900D03*
%TO.P,U6,9,VIN*%
X204487381Y-107681900D03*
%TO.P,U6,10,\u002ASHDN*%
X205137619Y-107681900D03*
%TO.P,U6,11,FB*%
%TO.N,Net-(U6-FB)*%
X205787859Y-107681900D03*
%TO.P,U6,12,VC*%
%TO.N,Net-(U6-VC)*%
X206438100Y-107681900D03*
D49*
%TO.P,U6,13,EPAD*%
%TO.N,unconnected-(U6-EPAD-Pad13)*%
X204812500Y-105497500D03*
%TD*%
D52*
%TO.P,U9,1,A1*%
%TO.N,unconnected-(U9-A1-Pad1)*%
X173505000Y-116325000D03*
%TO.P,U9,2,A0*%
%TO.N,unconnected-(U9-A0-Pad2)*%
X172235000Y-116325000D03*
%TO.P,U9,3,SDA*%
%TO.N,SDA*%
X170965000Y-116325000D03*
%TO.P,U9,4,SCL*%
%TO.N,SCL*%
X169695000Y-116325000D03*
%TO.P,U9,5,VS*%
%TO.N,3.3V*%
X169695000Y-121275000D03*
%TO.P,U9,6,GND*%
%TO.N,GND*%
X170965000Y-121275000D03*
%TO.P,U9,7,VIN-*%
%TO.N,3.6V-*%
X172235000Y-121275000D03*
%TO.P,U9,8,VIN+*%
%TO.N,3.6V+*%
X173505000Y-121275000D03*
%TD*%
D53*
%TO.P,L1,1*%
%TO.N,Net-(U5-SW1)*%
X213400000Y-97037500D03*
D54*
%TO.P,L1,2*%
%TO.N,Net-(U5-SW2)*%
X218000000Y-97037500D03*
%TD*%
D20*
%TO.P,TP6,1,1*%
%TO.N,3.6V B*%
X228200000Y-110500000D03*
%TD*%
D17*
%TO.P,J7,1,1*%
%TO.N,GND*%
X198050000Y-127800000D03*
D18*
%TO.P,J7,2,2*%
%TO.N,CC_REL*%
X196050000Y-127800000D03*
%TO.P,J7,3,3*%
%TO.N,5.5V*%
X194050000Y-127800000D03*
%TD*%
D20*
%TO.P,TP9,1,1*%
%TO.N,3.3V BZ*%
X228200000Y-92500000D03*
%TD*%
%TO.P,TP4,1,1*%
%TO.N,3.3V MCU*%
X228200000Y-95500000D03*
%TD*%
D55*
%TO.N,Net-(U1-VBAT)*%
X157780000Y-75000000D03*
%TO.N,3.3V*%
X163940000Y-113600000D03*
X190200000Y-96200000D03*
X169695000Y-119600000D03*
X161400000Y-79000000D03*
X218000000Y-89600000D03*
X214900000Y-87837500D03*
X223000000Y-99250000D03*
X157300000Y-70400000D03*
X220800000Y-89600000D03*
X192780000Y-93620000D03*
X161400000Y-75000000D03*
%TO.N,CS*%
X126760000Y-92494000D03*
X115400000Y-83800000D03*
%TO.N,MOSI*%
X133110000Y-88316000D03*
%TO.N,MISO*%
X126760000Y-93396000D03*
X109000000Y-82400000D03*
%TO.N,SCLK*%
X133110000Y-85776000D03*
%TO.N,GND*%
X187200000Y-116650000D03*
X213362859Y-93437500D03*
X203000000Y-114375600D03*
X216200000Y-78364600D03*
X223200000Y-112750000D03*
X214200000Y-81150600D03*
X206100000Y-76364600D03*
X223200000Y-103750000D03*
X187200000Y-70815000D03*
X136200000Y-69395000D03*
X223200000Y-94750000D03*
X216650000Y-120697500D03*
X208500000Y-79002100D03*
X223200000Y-106750000D03*
X93600000Y-82499874D03*
X165400000Y-74600000D03*
X203837141Y-102097500D03*
X187200000Y-122950000D03*
X223200000Y-91750000D03*
X112800000Y-122600000D03*
X223200000Y-100750000D03*
X210900000Y-129060000D03*
X223200000Y-97750000D03*
X200700000Y-112297500D03*
X170965000Y-119600000D03*
X207780000Y-71402100D03*
X187200000Y-77115000D03*
X223200000Y-109750000D03*
X215337500Y-130497500D03*
X95000000Y-111037500D03*
X223200000Y-88750000D03*
X216500000Y-83237500D03*
%TO.N,5.5V*%
X111000000Y-119000000D03*
X216300000Y-116897500D03*
X212700000Y-127697500D03*
X89600000Y-83000000D03*
X111000000Y-113400000D03*
X194050000Y-131600000D03*
X225400000Y-85800000D03*
%TO.N,EGG_REL*%
X105200000Y-81200000D03*
X126760000Y-94298000D03*
%TO.N,AILERON*%
X148800000Y-83236000D03*
%TO.N,SCL*%
X155500000Y-73400000D03*
X169695000Y-114800000D03*
%TO.N,SDA*%
X153700000Y-78156000D03*
X121680000Y-101200000D03*
X170965000Y-114800000D03*
X153700000Y-73400000D03*
X156200000Y-79600000D03*
X126760000Y-95200000D03*
%TO.N,ELEVATOR*%
X156800000Y-80696000D03*
%TO.N,CC_REL*%
X156800000Y-85776000D03*
%TO.N,PG_CAM_OUT*%
X152000000Y-117526000D03*
%TO.N,PG_CAM_IN*%
X151200000Y-117526000D03*
%TO.N,NC_REL*%
X128200000Y-110600000D03*
X122800000Y-110600000D03*
%TO.N,3.3V MCU*%
X172830000Y-110000000D03*
X202300000Y-107697500D03*
X162600000Y-118000000D03*
X190000000Y-107697500D03*
%TO.N,3.3V BZ*%
X164800000Y-117000000D03*
X172800000Y-113400000D03*
X197400000Y-92200000D03*
X192780000Y-98400000D03*
X217600000Y-75800000D03*
X217600000Y-72800000D03*
%TO.N,INV_PWM_2*%
X93200103Y-85200000D03*
%TO.N,INV_PWM_1*%
X92400100Y-85200000D03*
%TO.N,3.6V B*%
X201200000Y-129800000D03*
X205600000Y-131600000D03*
X184800000Y-125295000D03*
%TO.N,1.2V B*%
X184800000Y-79460000D03*
X205200000Y-115600000D03*
X220400000Y-115600000D03*
X202400000Y-115600000D03*
%TO.N,3.6V-*%
X220800000Y-97200000D03*
X211700000Y-122744950D03*
X208900000Y-86637500D03*
X220800000Y-99600000D03*
X207300000Y-103313100D03*
X208300000Y-111335000D03*
X209900000Y-92221900D03*
X172235000Y-119600000D03*
X208300000Y-108897500D03*
X208300000Y-106897500D03*
X203400000Y-130400000D03*
X208900000Y-84200000D03*
X208900000Y-88637500D03*
X211700000Y-126497500D03*
%TO.N,1.2V*%
X206300000Y-75106700D03*
X190800000Y-83270000D03*
X192000000Y-73600000D03*
X223000000Y-108250000D03*
X210500000Y-77697500D03*
X220800000Y-91000000D03*
%TO.N,3.6V+*%
X193400000Y-116400000D03*
X216300000Y-114800000D03*
X190400000Y-129105000D03*
%TD*%
D56*
%TO.N,Net-(U1-VBAT)*%
X157780000Y-77200000D02*
X157780000Y-75000000D01*
X170020000Y-80200000D02*
X173020000Y-77200000D01*
X157780000Y-77200000D02*
X160780000Y-80200000D01*
X160780000Y-80200000D02*
X170020000Y-80200000D01*
D57*
%TO.N,Net-(BZ1-+)*%
X100320000Y-114312500D02*
X100320000Y-116800000D01*
%TO.N,Net-(U3-THRES)*%
X108200000Y-122600000D02*
X108200000Y-119925000D01*
X108200000Y-122600000D02*
X102140000Y-122600000D01*
X102860000Y-115027500D02*
X102860000Y-116800000D01*
X102140000Y-122600000D02*
X100320000Y-124420000D01*
X100320000Y-112487500D02*
X102860000Y-115027500D01*
X105985000Y-119925000D02*
X102860000Y-116800000D01*
X108200000Y-119925000D02*
X105985000Y-119925000D01*
X98700000Y-112487500D02*
X100320000Y-112487500D01*
%TO.N,Net-(U3-CONT)*%
X96600000Y-123240000D02*
X97780000Y-124420000D01*
X96600000Y-114162500D02*
X96600000Y-123240000D01*
D56*
%TO.N,3.3V*%
X168890000Y-125200000D02*
X168890000Y-122080000D01*
X88780000Y-111702500D02*
X88547500Y-111470000D01*
X200000000Y-93620000D02*
X202300000Y-93620000D01*
X222200000Y-98450000D02*
X223000000Y-99250000D01*
X227450000Y-99250000D02*
X228200000Y-98500000D01*
X115562500Y-115740000D02*
X115562500Y-116737500D01*
X118102500Y-98037500D02*
X116600000Y-99540000D01*
X157300000Y-70400000D02*
X155500000Y-70400000D01*
X115562500Y-116737500D02*
X114060000Y-118240000D01*
X88780000Y-115492500D02*
X90687500Y-117400000D01*
X168890000Y-122080000D02*
X169695000Y-121275000D01*
X161400000Y-79000000D02*
X161400000Y-75000000D01*
X118102500Y-97040000D02*
X118102500Y-98037500D01*
X155500000Y-70400000D02*
X153700000Y-70400000D01*
X192780000Y-93620000D02*
X190200000Y-96200000D01*
X220800000Y-89600000D02*
X222200000Y-91000000D01*
X169695000Y-121275000D02*
X169695000Y-119600000D01*
X222200000Y-91000000D02*
X222200000Y-98450000D01*
X127000000Y-127600000D02*
X127000000Y-124962500D01*
X225912500Y-99250000D02*
X227450000Y-99250000D01*
X88780000Y-113970000D02*
X88780000Y-115492500D01*
X127000000Y-124962500D02*
X128962500Y-123000000D01*
X163940000Y-106350000D02*
X163940000Y-113600000D01*
X88780000Y-113970000D02*
X88780000Y-111702500D01*
D58*
%TO.N,GND*%
X165400000Y-77200000D02*
X165400000Y-74600000D01*
D59*
X211412141Y-93120400D02*
X211412141Y-92221900D01*
D58*
X207780000Y-72802100D02*
X207780000Y-71402100D01*
D59*
X212600000Y-101915000D02*
X206287459Y-101915000D01*
D58*
X223200000Y-97750000D02*
X224200000Y-97750000D01*
X187200000Y-122950000D02*
X185937500Y-122950000D01*
X133000000Y-124962500D02*
X131037500Y-123000000D01*
X86240000Y-113970000D02*
X86240000Y-111702500D01*
X187200000Y-116650000D02*
X185937500Y-116650000D01*
X120177500Y-98037500D02*
X121680000Y-99540000D01*
D59*
X206287459Y-101915000D02*
X205787859Y-102414600D01*
D58*
X215337500Y-129097500D02*
X215337500Y-130497500D01*
D59*
X214674999Y-125450050D02*
X214674999Y-127104999D01*
D58*
X214200000Y-81150600D02*
X212712619Y-81150600D01*
X206100000Y-76364600D02*
X204500000Y-76364600D01*
X223200000Y-112750000D02*
X224200000Y-112750000D01*
D59*
X205787859Y-102414600D02*
X205787859Y-103313100D01*
D56*
X215337500Y-129097500D02*
X215337500Y-127767500D01*
D58*
X117637500Y-116737500D02*
X119140000Y-118240000D01*
X223200000Y-94750000D02*
X224200000Y-94750000D01*
X223200000Y-91750000D02*
X224200000Y-91750000D01*
X117637500Y-115740000D02*
X117637500Y-116737500D01*
X200700000Y-112297500D02*
X200700000Y-110972500D01*
D56*
X215337500Y-127767500D02*
X214867500Y-127297500D01*
D58*
X170965000Y-119600000D02*
X170965000Y-121275000D01*
D60*
X203837141Y-102097500D02*
X203837141Y-103313100D01*
D58*
X133000000Y-127600000D02*
X133000000Y-124962500D01*
X216200000Y-78364600D02*
X214700000Y-78364600D01*
D56*
X105400000Y-116800000D02*
X108200000Y-116800000D01*
D58*
X187200000Y-77115000D02*
X185937500Y-77115000D01*
D59*
X210912541Y-93620000D02*
X211412141Y-93120400D01*
D58*
X137032500Y-69395000D02*
X137800000Y-70162500D01*
X86240000Y-111702500D02*
X86472500Y-111470000D01*
X223200000Y-106750000D02*
X224200000Y-106750000D01*
X187200000Y-70815000D02*
X185937500Y-70815000D01*
X136200000Y-69395000D02*
X137032500Y-69395000D01*
X224200000Y-88750000D02*
X223200000Y-88750000D01*
D56*
X170965000Y-125200000D02*
X170965000Y-121275000D01*
D58*
X210900000Y-129060000D02*
X209300000Y-129060000D01*
D60*
X213362859Y-93437500D02*
X213362859Y-92221900D01*
D58*
X223200000Y-100750000D02*
X224200000Y-100750000D01*
X216650000Y-120697500D02*
X216650000Y-119297500D01*
D59*
X214674999Y-127104999D02*
X214867500Y-127297500D01*
D58*
X216500000Y-83237500D02*
X216500000Y-84562500D01*
X95000000Y-111037500D02*
X96600000Y-111037500D01*
X120177500Y-97040000D02*
X120177500Y-98037500D01*
X223200000Y-103750000D02*
X224200000Y-103750000D01*
D59*
X204600000Y-93620000D02*
X210912541Y-93620000D01*
D57*
X92400100Y-82499874D02*
X93600000Y-82499874D01*
D58*
X208500000Y-79002100D02*
X208500000Y-77697500D01*
X203000000Y-114375600D02*
X204487381Y-114375600D01*
X112800000Y-122600000D02*
X111325000Y-122600000D01*
X223200000Y-109750000D02*
X224200000Y-109750000D01*
%TO.N,5.5V*%
X222400000Y-85800000D02*
X225400000Y-85800000D01*
X215212500Y-116897500D02*
X216300000Y-116897500D01*
X219800000Y-113400000D02*
X219800000Y-88400000D01*
X227450000Y-90250000D02*
X228200000Y-89500000D01*
X216300000Y-116897500D02*
X219797500Y-113400000D01*
X225912500Y-90250000D02*
X227450000Y-90250000D01*
X137800000Y-73225000D02*
X137800000Y-72237500D01*
X219800000Y-88400000D02*
X222400000Y-85800000D01*
X134010000Y-77015000D02*
X137800000Y-73225000D01*
X219797500Y-113400000D02*
X219800000Y-113400000D01*
X194050000Y-131600000D02*
X194050000Y-127800000D01*
D57*
X90799900Y-83000000D02*
X89600000Y-83000000D01*
D58*
X111000000Y-119000000D02*
X111000000Y-113400000D01*
D57*
%TO.N,SCL*%
X169695000Y-116325000D02*
X169695000Y-114800000D01*
X155500000Y-72225000D02*
X155500000Y-73400000D01*
%TO.N,SDA*%
X153700000Y-72225000D02*
X153700000Y-73400000D01*
X170965000Y-116325000D02*
X170965000Y-114800000D01*
D56*
%TO.N,3.3V MCU*%
X202300000Y-107697500D02*
X190000000Y-107697500D01*
X227450000Y-96250000D02*
X228200000Y-95500000D01*
X217200000Y-101915000D02*
X214900000Y-101915000D01*
X170600000Y-110000000D02*
X172830000Y-110000000D01*
X162600000Y-118000000D02*
X170600000Y-110000000D01*
X225912500Y-96250000D02*
X227450000Y-96250000D01*
%TO.N,3.3V BZ*%
X98700000Y-114312500D02*
X98700000Y-115880000D01*
X192780000Y-98400000D02*
X192780000Y-96820000D01*
X225912500Y-93250000D02*
X227450000Y-93250000D01*
X98700000Y-115880000D02*
X97780000Y-116800000D01*
X168400000Y-113400000D02*
X172800000Y-113400000D01*
X227450000Y-93250000D02*
X228200000Y-92500000D01*
X192780000Y-96820000D02*
X197400000Y-92200000D01*
X164800000Y-117000000D02*
X168400000Y-113400000D01*
D57*
%TO.N,Net-(J5-Pad2)*%
X92512500Y-119887500D02*
X90600000Y-121800000D01*
X92512500Y-117400000D02*
X92512500Y-119887500D01*
%TO.N,DC_PWM_1*%
X89400000Y-84000000D02*
X88600000Y-83200000D01*
X88600000Y-83200000D02*
X88600000Y-80200000D01*
X90300026Y-84000000D02*
X89400000Y-84000000D01*
X90799900Y-83500126D02*
X90300026Y-84000000D01*
X88600000Y-80200000D02*
X90600000Y-78200000D01*
%TO.N,DC_PWM_2*%
X92600000Y-80699774D02*
X90799900Y-82499874D01*
X92600000Y-78200000D02*
X92600000Y-80699774D01*
%TO.N,INV_PWM_2*%
X92400100Y-83000000D02*
X92800000Y-83000000D01*
X93200103Y-83400103D02*
X93200103Y-85200000D01*
X92800000Y-83000000D02*
X93200103Y-83400103D01*
%TO.N,INV_PWM_1*%
X92400100Y-83500126D02*
X92400100Y-85200000D01*
D56*
%TO.N,3.6V B*%
X203000000Y-131600000D02*
X205600000Y-131600000D01*
X183325000Y-125295000D02*
X184800000Y-125295000D01*
X183662500Y-122000000D02*
X183662500Y-118550000D01*
X179800000Y-122000000D02*
X178400000Y-120600000D01*
X201200000Y-129800000D02*
X203000000Y-131600000D01*
X227450000Y-111250000D02*
X228200000Y-110500000D01*
X183662500Y-124957500D02*
X183325000Y-125295000D01*
X225912500Y-111250000D02*
X227450000Y-111250000D01*
X183662500Y-122000000D02*
X179800000Y-122000000D01*
X183662500Y-122000000D02*
X183662500Y-124957500D01*
D61*
%TO.N,1.2V B*%
X183325000Y-79460000D02*
X181740000Y-79460000D01*
X226100000Y-115600000D02*
X228200000Y-113500000D01*
X183662500Y-79122500D02*
X183325000Y-79460000D01*
X202400000Y-115600000D02*
X205200000Y-115600000D01*
X183662500Y-76165000D02*
X183662500Y-79122500D01*
X179800000Y-81400000D02*
X178400000Y-81400000D01*
X227450000Y-114250000D02*
X228200000Y-113500000D01*
X181740000Y-79460000D02*
X179800000Y-81400000D01*
X183662500Y-72715000D02*
X183662500Y-76165000D01*
X220400000Y-115600000D02*
X226100000Y-115600000D01*
X225912500Y-114250000D02*
X227450000Y-114250000D01*
X183325000Y-79460000D02*
X184800000Y-79460000D01*
D56*
%TO.N,3.6V-*%
X225912500Y-102250000D02*
X227450000Y-102250000D01*
X227450000Y-102250000D02*
X228200000Y-101500000D01*
X220800000Y-97200000D02*
X220800000Y-99600000D01*
X208300000Y-106897500D02*
X208300000Y-108897500D01*
X172235000Y-121275000D02*
X172235000Y-126365000D01*
X212725001Y-122744950D02*
X211700000Y-122744950D01*
D59*
X210761900Y-92221900D02*
X209900000Y-92221900D01*
D56*
X208900000Y-88637500D02*
X208900000Y-86637500D01*
X169000000Y-129600000D02*
X167395000Y-129600000D01*
X172235000Y-126365000D02*
X169000000Y-129600000D01*
X172235000Y-121275000D02*
X172235000Y-119600000D01*
D59*
X206438100Y-103313100D02*
X207300000Y-103313100D01*
D57*
%TO.N,Net-(C11-Pad1)*%
X202300000Y-91895000D02*
X202300000Y-87825000D01*
%TO.N,Net-(C12-Pad2)*%
X207075000Y-90437500D02*
X207075000Y-88075000D01*
%TO.N,Net-(C13-Pad1)*%
X214900000Y-103640000D02*
X214900000Y-107710000D01*
%TO.N,Net-(U5-FB)*%
X202300000Y-86000000D02*
X200000000Y-86000000D01*
X211412141Y-86986941D02*
X210425200Y-86000000D01*
X204600000Y-86000000D02*
X202300000Y-86000000D01*
X210425200Y-86000000D02*
X207075000Y-86000000D01*
X207075000Y-86000000D02*
X204600000Y-86000000D01*
X211412141Y-87853100D02*
X211412141Y-86986941D01*
%TO.N,Net-(C14-Pad2)*%
X210125000Y-105097500D02*
X210125000Y-107460000D01*
D61*
%TO.N,1.2V*%
X210500000Y-77697500D02*
X209450001Y-77697500D01*
X221500000Y-106750000D02*
X221500000Y-91700000D01*
X227450000Y-108250000D02*
X228200000Y-107500000D01*
X190800000Y-83270000D02*
X188275000Y-83270000D01*
X223000000Y-108250000D02*
X221500000Y-106750000D01*
X221500000Y-91700000D02*
X220800000Y-91000000D01*
X225912500Y-108250000D02*
X227450000Y-108250000D01*
D57*
%TO.N,Net-(D1-A)*%
X224300000Y-114250000D02*
X225800000Y-112750000D01*
X224087500Y-114250000D02*
X224300000Y-114250000D01*
%TO.N,Net-(D2-A)*%
X224300000Y-108250000D02*
X225800000Y-106750000D01*
X224087500Y-108250000D02*
X224300000Y-108250000D01*
%TO.N,Net-(D3-A)*%
X224087500Y-102250000D02*
X224300000Y-102250000D01*
X224300000Y-102250000D02*
X225800000Y-100750000D01*
%TO.N,Net-(D4-A)*%
X224300000Y-96250000D02*
X225800000Y-94750000D01*
X224087500Y-96250000D02*
X224300000Y-96250000D01*
%TO.N,Net-(D5-A)*%
X224300000Y-90250000D02*
X225800000Y-88750000D01*
X224087500Y-90250000D02*
X224300000Y-90250000D01*
%TO.N,Net-(D6-A)*%
X224087500Y-111250000D02*
X224300000Y-111250000D01*
X224300000Y-111250000D02*
X225800000Y-109750000D01*
D56*
%TO.N,3.6V+*%
X174105000Y-130200000D02*
X187180000Y-130200000D01*
X173505000Y-129600000D02*
X174105000Y-130200000D01*
X227450000Y-105250000D02*
X228200000Y-104500000D01*
X173505000Y-129600000D02*
X173505000Y-121275000D01*
X206200000Y-116400000D02*
X207800000Y-114800000D01*
X225912500Y-105250000D02*
X227450000Y-105250000D01*
X188275000Y-129105000D02*
X190400000Y-129105000D01*
X193400000Y-116400000D02*
X206200000Y-116400000D01*
X207800000Y-114800000D02*
X216300000Y-114800000D01*
X187180000Y-130200000D02*
X188275000Y-129105000D01*
D57*
%TO.N,Net-(U5-VC)*%
X208900000Y-89715000D02*
X210761900Y-87853100D01*
X208900000Y-90437500D02*
X208900000Y-89715000D01*
%TO.N,Net-(U6-FB)*%
X210125000Y-109535000D02*
X212600000Y-109535000D01*
X206774800Y-109535000D02*
X210125000Y-109535000D01*
X205787859Y-107681900D02*
X205787859Y-108548059D01*
X212600000Y-109535000D02*
X214900000Y-109535000D01*
X205787859Y-108548059D02*
X206774800Y-109535000D01*
X214900000Y-109535000D02*
X217200000Y-109535000D01*
%TO.N,Net-(D7-A)*%
X224300000Y-105250000D02*
X225800000Y-103750000D01*
X224087500Y-105250000D02*
X224300000Y-105250000D01*
%TO.N,Net-(D8-A)*%
X224300000Y-99250000D02*
X225800000Y-97750000D01*
X224087500Y-99250000D02*
X224300000Y-99250000D01*
%TO.N,Net-(D9-A)*%
X224300000Y-93250000D02*
X225800000Y-91750000D01*
X224087500Y-93250000D02*
X224300000Y-93250000D01*
%TO.N,Net-(U12-Y)*%
X185401000Y-124601000D02*
X184800000Y-124000000D01*
X184800000Y-124000000D02*
X184800000Y-117787500D01*
X184800000Y-117787500D02*
X183662500Y-116650000D01*
X184299999Y-129105000D02*
X185401000Y-128003999D01*
X183325000Y-129105000D02*
X184299999Y-129105000D01*
X185401000Y-128003999D02*
X185401000Y-124601000D01*
%TO.N,Net-(U16-Y)*%
X183325000Y-83270000D02*
X184299999Y-83270000D01*
X185401000Y-82168999D02*
X185401000Y-78801000D01*
X184800000Y-71952500D02*
X183662500Y-70815000D01*
X185401000Y-78801000D02*
X184800000Y-78200000D01*
X184800000Y-78200000D02*
X184800000Y-71952500D01*
X184299999Y-83270000D02*
X185401000Y-82168999D01*
%TO.N,Net-(U6-VC)*%
X208300000Y-105097500D02*
X208300000Y-105820000D01*
X208300000Y-105820000D02*
X206438100Y-107681900D01*
%TO.N,Net-(U10-~{RESET})*%
X185937500Y-121050000D02*
X186750000Y-121050000D01*
X186800000Y-117600000D02*
X185937500Y-117600000D01*
X187400000Y-118200000D02*
X186800000Y-117600000D01*
X187400000Y-120400000D02*
X187400000Y-118200000D01*
X186750000Y-121050000D02*
X187400000Y-120400000D01*
%TO.N,Net-(U14-~{RESET})*%
X186750000Y-75215000D02*
X187400000Y-74565000D01*
X187400000Y-72365000D02*
X186800000Y-71765000D01*
X187400000Y-74565000D02*
X187400000Y-72365000D01*
X186800000Y-71765000D02*
X185937500Y-71765000D01*
X185937500Y-75215000D02*
X186750000Y-75215000D01*
%TD*%
%TA.AperFunction,Conductor*%
%TO.N,3.3V BZ*%
G36*
X218443039Y-72121785D02*
G01*
X218488794Y-72174589D01*
X218500000Y-72226100D01*
X218500000Y-76278100D01*
X218480315Y-76345139D01*
X218427511Y-76390894D01*
X218376000Y-76402100D01*
X208344000Y-76402100D01*
X208276961Y-76382415D01*
X208231206Y-76329611D01*
X208220000Y-76278100D01*
X208220000Y-74576100D01*
X208239685Y-74509061D01*
X208292489Y-74463306D01*
X208344000Y-74452100D01*
X208656000Y-74452100D01*
X208723039Y-74471785D01*
X208768794Y-74524589D01*
X208780000Y-74576100D01*
X208780000Y-76002100D01*
X212880000Y-76002100D01*
X212880000Y-72226100D01*
X212899685Y-72159061D01*
X212952489Y-72113306D01*
X213004000Y-72102100D01*
X218376000Y-72102100D01*
X218443039Y-72121785D01*
G37*
%TD.AperFunction*%
%TD*%
%TA.AperFunction,Conductor*%
%TO.N,Net-(U13-VFB)*%
G36*
X212023039Y-72121785D02*
G01*
X212068794Y-72174589D01*
X212080000Y-72226100D01*
X212080000Y-75628100D01*
X212060315Y-75695139D01*
X212007511Y-75740894D01*
X211956000Y-75752100D01*
X209304000Y-75752100D01*
X209236961Y-75732415D01*
X209191206Y-75679611D01*
X209180000Y-75628100D01*
X209180000Y-72226100D01*
X209199685Y-72159061D01*
X209252489Y-72113306D01*
X209304000Y-72102100D01*
X211956000Y-72102100D01*
X212023039Y-72121785D01*
G37*
%TD.AperFunction*%
%TD*%
%TA.AperFunction,Conductor*%
%TO.N,GND*%
G36*
X216246533Y-119641104D02*
G01*
X216287462Y-119674328D01*
X216411901Y-119829877D01*
X216438409Y-119894523D01*
X216425759Y-119963238D01*
X216391740Y-120004797D01*
X214240000Y-121697498D01*
X214240000Y-123110583D01*
X214237042Y-123120656D01*
X214238294Y-123131079D01*
X214227367Y-123153602D01*
X214220315Y-123177622D01*
X214212381Y-123184496D01*
X214207799Y-123193943D01*
X214186428Y-123206985D01*
X214167511Y-123223377D01*
X214155539Y-123225835D01*
X214148159Y-123230340D01*
X214113117Y-123234549D01*
X213931117Y-123230316D01*
X213864553Y-123209078D01*
X213820038Y-123155225D01*
X213810000Y-123106350D01*
X213810000Y-121557097D01*
X213829685Y-121490058D01*
X213856536Y-121460271D01*
X216113173Y-119654961D01*
X216177818Y-119628454D01*
X216246533Y-119641104D01*
G37*
%TD.AperFunction*%
%TD*%
%TA.AperFunction,Conductor*%
%TO.N,Net-(U11-FB)*%
G36*
X213525437Y-116891847D02*
G01*
X213574838Y-116941257D01*
X213590000Y-117000673D01*
X213590000Y-123101850D01*
X213588681Y-123106339D01*
X213589668Y-123110912D01*
X213578930Y-123139547D01*
X213570315Y-123168889D01*
X213566780Y-123171952D01*
X213565137Y-123176334D01*
X213540615Y-123194623D01*
X213517511Y-123214644D01*
X213511840Y-123216086D01*
X213509131Y-123218107D01*
X213474630Y-123225549D01*
X213292839Y-123238232D01*
X213224592Y-123223261D01*
X213175273Y-123173770D01*
X213160209Y-123114340D01*
X213169818Y-117012774D01*
X213189608Y-116945767D01*
X213242484Y-116900096D01*
X213284979Y-116889287D01*
X213457166Y-116876988D01*
X213525437Y-116891847D01*
G37*
%TD.AperFunction*%
%TD*%
%TA.AperFunction,Conductor*%
%TO.N,Net-(U5-SW1)*%
G36*
X212863039Y-91547185D02*
G01*
X212908794Y-91599989D01*
X212920000Y-91651500D01*
X212920000Y-93256074D01*
X212915775Y-93288167D01*
X212892359Y-93375557D01*
X212892359Y-93499440D01*
X212892358Y-93499440D01*
X212915775Y-93586830D01*
X212920000Y-93618924D01*
X212920000Y-93937500D01*
X213320000Y-94337500D01*
X214876000Y-94337500D01*
X214943039Y-94357185D01*
X214988794Y-94409989D01*
X215000000Y-94461500D01*
X215000000Y-99613500D01*
X214980315Y-99680539D01*
X214927511Y-99726294D01*
X214876000Y-99737500D01*
X213024000Y-99737500D01*
X212956961Y-99717815D01*
X212911206Y-99665011D01*
X212900000Y-99613500D01*
X212900000Y-94537500D01*
X212536319Y-94173819D01*
X212502834Y-94112496D01*
X212500000Y-94086138D01*
X212500000Y-91651500D01*
X212502550Y-91642814D01*
X212501262Y-91633853D01*
X212512240Y-91609812D01*
X212519685Y-91584461D01*
X212526525Y-91578533D01*
X212530287Y-91570297D01*
X212552521Y-91556007D01*
X212572489Y-91538706D01*
X212583003Y-91536418D01*
X212589065Y-91532523D01*
X212624000Y-91527500D01*
X212796000Y-91527500D01*
X212863039Y-91547185D01*
G37*
%TD.AperFunction*%
%TD*%
%TA.AperFunction,Conductor*%
%TO.N,Net-(U13-SW)*%
G36*
X203043039Y-76221785D02*
G01*
X203088794Y-76274589D01*
X203100000Y-76326100D01*
X203100000Y-77232100D01*
X207696000Y-77232100D01*
X207763039Y-77251785D01*
X207808794Y-77304589D01*
X207820000Y-77356100D01*
X207820000Y-78228100D01*
X207800315Y-78295139D01*
X207747511Y-78340894D01*
X207696000Y-78352100D01*
X195624000Y-78352100D01*
X195556961Y-78332415D01*
X195511206Y-78279611D01*
X195500000Y-78228100D01*
X195500000Y-76326100D01*
X195519685Y-76259061D01*
X195572489Y-76213306D01*
X195624000Y-76202100D01*
X202976000Y-76202100D01*
X203043039Y-76221785D01*
G37*
%TD.AperFunction*%
%TD*%
%TA.AperFunction,Conductor*%
%TO.N,Net-(U6-SW2)*%
G36*
X200743039Y-95817185D02*
G01*
X200788794Y-95869989D01*
X200800000Y-95921500D01*
X200800000Y-101197500D01*
X202220000Y-102617500D01*
X203276000Y-102617500D01*
X203343039Y-102637185D01*
X203388794Y-102689989D01*
X203400000Y-102741500D01*
X203400000Y-103573500D01*
X203380315Y-103640539D01*
X203327511Y-103686294D01*
X203276000Y-103697500D01*
X199651362Y-103697500D01*
X199584323Y-103677815D01*
X199563681Y-103661181D01*
X198736319Y-102833819D01*
X198702834Y-102772496D01*
X198700000Y-102746138D01*
X198700000Y-95921500D01*
X198719685Y-95854461D01*
X198772489Y-95808706D01*
X198824000Y-95797500D01*
X200676000Y-95797500D01*
X200743039Y-95817185D01*
G37*
%TD.AperFunction*%
%TD*%
%TA.AperFunction,Conductor*%
%TO.N,3.6V-*%
G36*
X205293039Y-107007185D02*
G01*
X205338794Y-107059989D01*
X205350000Y-107111500D01*
X205350000Y-110597500D01*
X218176000Y-110597500D01*
X218243039Y-110617185D01*
X218288794Y-110669989D01*
X218300000Y-110721500D01*
X218300000Y-111973500D01*
X218280315Y-112040539D01*
X218227511Y-112086294D01*
X218176000Y-112097500D01*
X203754000Y-112097500D01*
X203686961Y-112077815D01*
X203641206Y-112025011D01*
X203630000Y-111973500D01*
X203630000Y-107111500D01*
X203649685Y-107044461D01*
X203702489Y-106998706D01*
X203754000Y-106987500D01*
X205226000Y-106987500D01*
X205293039Y-107007185D01*
G37*
%TD.AperFunction*%
%TD*%
%TA.AperFunction,Conductor*%
%TO.N,1.2V*%
G36*
X206743039Y-69021785D02*
G01*
X206788794Y-69074589D01*
X206800000Y-69126100D01*
X206800000Y-73802100D01*
X207696000Y-73802100D01*
X207763039Y-73821785D01*
X207808794Y-73874589D01*
X207820000Y-73926100D01*
X207820000Y-75628100D01*
X207800315Y-75695139D01*
X207747511Y-75740894D01*
X207696000Y-75752100D01*
X206548234Y-75752100D01*
X206481195Y-75732415D01*
X206464444Y-75719507D01*
X204700000Y-74102100D01*
X191624000Y-74102100D01*
X191556961Y-74082415D01*
X191511206Y-74029611D01*
X191500000Y-73978100D01*
X191500000Y-69126100D01*
X191519685Y-69059061D01*
X191572489Y-69013306D01*
X191624000Y-69002100D01*
X206676000Y-69002100D01*
X206743039Y-69021785D01*
G37*
%TD.AperFunction*%
%TD*%
%TA.AperFunction,Conductor*%
%TO.N,Net-(U11-SW)*%
G36*
X209515677Y-116917185D02*
G01*
X209536319Y-116933819D01*
X209863681Y-117261181D01*
X209897166Y-117322504D01*
X209900000Y-117348862D01*
X209900000Y-121897500D01*
X211800000Y-123797500D01*
X213539200Y-123797500D01*
X213606239Y-123817185D01*
X213626199Y-123833142D01*
X214202999Y-124401068D01*
X214236958Y-124462129D01*
X214240000Y-124489426D01*
X214240000Y-125813500D01*
X214237449Y-125822185D01*
X214238738Y-125831147D01*
X214227759Y-125855187D01*
X214220315Y-125880539D01*
X214213474Y-125886466D01*
X214209713Y-125894703D01*
X214187478Y-125908992D01*
X214167511Y-125926294D01*
X214156996Y-125928581D01*
X214150935Y-125932477D01*
X214116000Y-125937500D01*
X213934000Y-125937500D01*
X213866961Y-125917815D01*
X213821206Y-125865011D01*
X213810000Y-125813500D01*
X213810000Y-124797501D01*
X213809999Y-124797499D01*
X213610000Y-124607500D01*
X207952705Y-124607500D01*
X207885666Y-124587815D01*
X207863425Y-124569553D01*
X207134720Y-123813522D01*
X207102369Y-123751593D01*
X207100000Y-123727469D01*
X207100000Y-117348862D01*
X207119685Y-117281823D01*
X207136319Y-117261181D01*
X207463681Y-116933819D01*
X207525004Y-116900334D01*
X207551362Y-116897500D01*
X209448638Y-116897500D01*
X209515677Y-116917185D01*
G37*
%TD.AperFunction*%
%TD*%
%TA.AperFunction,Conductor*%
%TO.N,3.6V-*%
G36*
X213513039Y-83457185D02*
G01*
X213558794Y-83509989D01*
X213570000Y-83561500D01*
X213570000Y-88423500D01*
X213550315Y-88490539D01*
X213497511Y-88536294D01*
X213446000Y-88547500D01*
X211974000Y-88547500D01*
X211906961Y-88527815D01*
X211861206Y-88475011D01*
X211850000Y-88423500D01*
X211850000Y-84937500D01*
X199024000Y-84937500D01*
X198956961Y-84917815D01*
X198911206Y-84865011D01*
X198900000Y-84813500D01*
X198900000Y-83561500D01*
X198919685Y-83494461D01*
X198972489Y-83448706D01*
X199024000Y-83437500D01*
X213446000Y-83437500D01*
X213513039Y-83457185D01*
G37*
%TD.AperFunction*%
%TD*%
%TA.AperFunction,Conductor*%
%TO.N,3.3V MCU*%
G36*
X200815919Y-105517185D02*
G01*
X200836266Y-105533525D01*
X202300000Y-106987500D01*
X203276000Y-106987500D01*
X203343039Y-107007185D01*
X203388794Y-107059989D01*
X203400000Y-107111500D01*
X203400000Y-109546138D01*
X203391355Y-109575578D01*
X203384832Y-109605565D01*
X203381077Y-109610580D01*
X203380315Y-109613177D01*
X203363681Y-109633819D01*
X203236319Y-109761181D01*
X203174996Y-109794666D01*
X203148638Y-109797500D01*
X198824000Y-109797500D01*
X198756961Y-109777815D01*
X198711206Y-109725011D01*
X198700000Y-109673500D01*
X198700000Y-105621500D01*
X198719685Y-105554461D01*
X198772489Y-105508706D01*
X198824000Y-105497500D01*
X200748880Y-105497500D01*
X200815919Y-105517185D01*
G37*
%TD.AperFunction*%
%TD*%
%TA.AperFunction,Conductor*%
%TO.N,5.5V*%
G36*
X213533039Y-124987185D02*
G01*
X213578794Y-125039989D01*
X213590000Y-125091500D01*
X213590000Y-126127500D01*
X214168303Y-126772166D01*
X214198416Y-126835213D01*
X214200000Y-126854967D01*
X214200000Y-130946138D01*
X214191355Y-130975578D01*
X214184832Y-131005565D01*
X214181077Y-131010580D01*
X214180315Y-131013177D01*
X214163681Y-131033819D01*
X214136319Y-131061181D01*
X214074996Y-131094666D01*
X214048638Y-131097500D01*
X212451362Y-131097500D01*
X212384323Y-131077815D01*
X212363681Y-131061181D01*
X212336319Y-131033819D01*
X212302834Y-130972496D01*
X212300000Y-130946138D01*
X212300000Y-127342128D01*
X212319685Y-127275089D01*
X212328440Y-127263107D01*
X213160000Y-126257500D01*
X213160000Y-125091500D01*
X213162550Y-125082814D01*
X213161262Y-125073853D01*
X213172240Y-125049812D01*
X213179685Y-125024461D01*
X213186525Y-125018533D01*
X213190287Y-125010297D01*
X213212521Y-124996007D01*
X213232489Y-124978706D01*
X213243003Y-124976418D01*
X213249065Y-124972523D01*
X213284000Y-124967500D01*
X213466000Y-124967500D01*
X213533039Y-124987185D01*
G37*
%TD.AperFunction*%
%TD*%
%TA.AperFunction,Conductor*%
%TO.N,3.6V-*%
G36*
X205115677Y-116917185D02*
G01*
X205136319Y-116933819D01*
X205463681Y-117261181D01*
X205497166Y-117322504D01*
X205500000Y-117348862D01*
X205500000Y-123997500D01*
X206500000Y-124987500D01*
X212815423Y-124958080D01*
X212882553Y-124977452D01*
X212928553Y-125030043D01*
X212940000Y-125082079D01*
X212940000Y-126006138D01*
X212920315Y-126073177D01*
X212903681Y-126093819D01*
X212036319Y-126961181D01*
X211974996Y-126994666D01*
X211948638Y-126997500D01*
X207799999Y-126997500D01*
X207000000Y-127797499D01*
X207000000Y-130946138D01*
X206991355Y-130975578D01*
X206984832Y-131005565D01*
X206981077Y-131010580D01*
X206980315Y-131013177D01*
X206963681Y-131033819D01*
X206936319Y-131061181D01*
X206874996Y-131094666D01*
X206848638Y-131097500D01*
X203143539Y-131097500D01*
X203076500Y-131077815D01*
X203055858Y-131061181D01*
X202736319Y-130741642D01*
X202702834Y-130680319D01*
X202700000Y-130653961D01*
X202700000Y-117348862D01*
X202719685Y-117281823D01*
X202736319Y-117261181D01*
X203063681Y-116933819D01*
X203125004Y-116900334D01*
X203151362Y-116897500D01*
X205048638Y-116897500D01*
X205115677Y-116917185D01*
G37*
%TD.AperFunction*%
%TD*%
%TA.AperFunction,Conductor*%
%TO.N,Net-(U5-SW2)*%
G36*
X217615677Y-91857185D02*
G01*
X217636319Y-91873819D01*
X218463681Y-92701181D01*
X218497166Y-92762504D01*
X218500000Y-92788862D01*
X218500000Y-99613500D01*
X218480315Y-99680539D01*
X218427511Y-99726294D01*
X218376000Y-99737500D01*
X216524000Y-99737500D01*
X216456961Y-99717815D01*
X216411206Y-99665011D01*
X216400000Y-99613500D01*
X216400000Y-94337500D01*
X214980000Y-92917500D01*
X213924000Y-92917500D01*
X213856961Y-92897815D01*
X213811206Y-92845011D01*
X213800000Y-92793500D01*
X213800000Y-91961500D01*
X213819685Y-91894461D01*
X213872489Y-91848706D01*
X213924000Y-91837500D01*
X217548638Y-91837500D01*
X217615677Y-91857185D01*
G37*
%TD.AperFunction*%
%TD*%
%TA.AperFunction,Conductor*%
%TO.N,3.3V*%
G36*
X218443039Y-85757185D02*
G01*
X218488794Y-85809989D01*
X218500000Y-85861500D01*
X218500000Y-89913500D01*
X218480315Y-89980539D01*
X218427511Y-90026294D01*
X218376000Y-90037500D01*
X216451120Y-90037500D01*
X216384081Y-90017815D01*
X216363732Y-90001474D01*
X216342656Y-89980539D01*
X214900000Y-88547500D01*
X213924000Y-88547500D01*
X213856961Y-88527815D01*
X213811206Y-88475011D01*
X213800000Y-88423500D01*
X213800000Y-85988862D01*
X213808644Y-85959421D01*
X213815168Y-85929435D01*
X213818922Y-85924419D01*
X213819685Y-85921823D01*
X213836319Y-85901181D01*
X213963681Y-85773819D01*
X214025004Y-85740334D01*
X214051362Y-85737500D01*
X218376000Y-85737500D01*
X218443039Y-85757185D01*
G37*
%TD.AperFunction*%
%TD*%
%TA.AperFunction,Conductor*%
%TO.N,Net-(U6-SW1)*%
G36*
X204243039Y-95817185D02*
G01*
X204288794Y-95869989D01*
X204300000Y-95921500D01*
X204300000Y-100997500D01*
X204663681Y-101361181D01*
X204697166Y-101422504D01*
X204700000Y-101448862D01*
X204700000Y-103883500D01*
X204697449Y-103892185D01*
X204698738Y-103901147D01*
X204687759Y-103925187D01*
X204680315Y-103950539D01*
X204673474Y-103956466D01*
X204669713Y-103964703D01*
X204647478Y-103978992D01*
X204627511Y-103996294D01*
X204616996Y-103998581D01*
X204610935Y-104002477D01*
X204576000Y-104007500D01*
X204404000Y-104007500D01*
X204336961Y-103987815D01*
X204291206Y-103935011D01*
X204280000Y-103883500D01*
X204280000Y-102278924D01*
X204284225Y-102246830D01*
X204307641Y-102159443D01*
X204307641Y-102035557D01*
X204284225Y-101948167D01*
X204280000Y-101916074D01*
X204280000Y-101597500D01*
X203880000Y-101197500D01*
X202324000Y-101197500D01*
X202256961Y-101177815D01*
X202211206Y-101125011D01*
X202200000Y-101073500D01*
X202200000Y-95921500D01*
X202219685Y-95854461D01*
X202272489Y-95808706D01*
X202324000Y-95797500D01*
X204176000Y-95797500D01*
X204243039Y-95817185D01*
G37*
%TD.AperFunction*%
%TD*%
M02*
