%TF.GenerationSoftware,KiCad,Pcbnew,9.0.7*%
%TF.CreationDate,2026-04-17T00:56:39-04:00*%
%TF.ProjectId,capybara_rocket,63617079-6261-4726-915f-726f636b6574,A*%
%TF.SameCoordinates,Original*%
%TF.FileFunction,Soldermask,Bot*%
%TF.FilePolarity,Negative*%
%FSLAX46Y46*%
G04 Gerber Fmt 4.6, Leading zero omitted, Abs format (unit mm)*
G04 Created by KiCad (PCBNEW 9.0.7) date 2026-04-17 00:56:39*
%MOMM*%
%LPD*%
G01*
G04 APERTURE LIST*
G04 Aperture macros list*
%AMRoundRect*
0 Rectangle with rounded corners*
0 $1 Rounding radius*
0 $2 $3 $4 $5 $6 $7 $8 $9 X,Y pos of 4 corners*
0 Add a 4 corners polygon primitive as box body*
4,1,4,$2,$3,$4,$5,$6,$7,$8,$9,$2,$3,0*
0 Add four circle primitives for the rounded corners*
1,1,$1+$1,$2,$3*
1,1,$1+$1,$4,$5*
1,1,$1+$1,$6,$7*
1,1,$1+$1,$8,$9*
0 Add four rect primitives between the rounded corners*
20,1,$1+$1,$2,$3,$4,$5,0*
20,1,$1+$1,$4,$5,$6,$7,0*
20,1,$1+$1,$6,$7,$8,$9,0*
20,1,$1+$1,$8,$9,$2,$3,0*%
G04 Aperture macros list end*
%ADD10C,1.700000*%
%ADD11R,1.300000X1.300000*%
%ADD12C,1.300000*%
%ADD13R,2.000000X2.000000*%
%ADD14RoundRect,0.250000X-0.550000X0.550000X-0.550000X-0.550000X0.550000X-0.550000X0.550000X0.550000X0*%
%ADD15C,1.600000*%
%ADD16C,1.982000*%
%ADD17C,2.000000*%
%ADD18C,2.004000*%
%ADD19C,1.114000*%
%ADD20C,4.400000*%
%ADD21C,7.400000*%
G04 APERTURE END LIST*
D10*
%TO.C,J11*%
X86240000Y-113970000D03*
X88780000Y-113970000D03*
X91320000Y-113970000D03*
X93860000Y-113970000D03*
%TD*%
D11*
%TO.C,J4*%
X178400000Y-79400000D03*
D12*
X178400000Y-81400000D03*
%TD*%
D13*
%TO.C,TP2*%
X228200000Y-107500000D03*
%TD*%
D11*
%TO.C,J6*%
X85600000Y-121800000D03*
D12*
X83600000Y-121800000D03*
X81600000Y-121800000D03*
%TD*%
D11*
%TO.C,J8*%
X133000000Y-127600000D03*
D12*
X131000000Y-127600000D03*
X129000000Y-127600000D03*
X127000000Y-127600000D03*
%TD*%
D14*
%TO.C,U4*%
X105400000Y-75590000D03*
D15*
X102860000Y-75590000D03*
X100320000Y-75590000D03*
X97780000Y-75590000D03*
X97780000Y-83210000D03*
X100320000Y-83210000D03*
X102860000Y-83210000D03*
X105400000Y-83210000D03*
%TD*%
%TO.C,R11*%
X200000000Y-86000000D03*
X200000000Y-93620000D03*
%TD*%
D13*
%TO.C,TP5*%
X228200000Y-89500000D03*
%TD*%
D11*
%TO.C,J1*%
X178400000Y-126200000D03*
D12*
X178400000Y-128200000D03*
%TD*%
D11*
%TO.C,J14*%
X115800000Y-72400000D03*
D12*
X117800000Y-72400000D03*
X119800000Y-72400000D03*
X121800000Y-72400000D03*
%TD*%
D15*
%TO.C,R12*%
X217200000Y-109535000D03*
X217200000Y-101915000D03*
%TD*%
D16*
%TO.C,U2*%
X116600000Y-99540000D03*
X119140000Y-99540000D03*
X121680000Y-99540000D03*
X124220000Y-99540000D03*
X126760000Y-99540000D03*
X129300000Y-99540000D03*
X116600000Y-81760000D03*
X119140000Y-81760000D03*
X121680000Y-81760000D03*
X124220000Y-81760000D03*
X126760000Y-81760000D03*
X129300000Y-81760000D03*
%TD*%
D13*
%TO.C,TP7*%
X228200000Y-104500000D03*
%TD*%
D14*
%TO.C,U1*%
X134010000Y-69395000D03*
D15*
X131470000Y-69395000D03*
X128930000Y-69395000D03*
X126390000Y-69395000D03*
X126390000Y-77015000D03*
X128930000Y-77015000D03*
X131470000Y-77015000D03*
X134010000Y-77015000D03*
%TD*%
D14*
%TO.C,U3*%
X105400000Y-116800000D03*
D15*
X102860000Y-116800000D03*
X100320000Y-116800000D03*
X97780000Y-116800000D03*
X97780000Y-124420000D03*
X100320000Y-124420000D03*
X102860000Y-124420000D03*
X105400000Y-124420000D03*
%TD*%
D10*
%TO.C,U17*%
X186800000Y-106350000D03*
X184260000Y-106350000D03*
X181720000Y-106350000D03*
X179180000Y-106350000D03*
X176640000Y-106350000D03*
X174100000Y-106350000D03*
X171560000Y-106350000D03*
X169020000Y-106350000D03*
X166480000Y-106350000D03*
X163940000Y-106350000D03*
X161400000Y-106350000D03*
X161400000Y-93650000D03*
X163940000Y-93650000D03*
X166480000Y-93650000D03*
X169020000Y-93650000D03*
X171560000Y-93650000D03*
X174100000Y-93650000D03*
X176640000Y-93650000D03*
X179180000Y-93650000D03*
X181720000Y-93650000D03*
X184260000Y-93650000D03*
X186800000Y-93650000D03*
%TD*%
D15*
%TO.C,R9*%
X204600000Y-93620000D03*
X204600000Y-86000000D03*
%TD*%
D11*
%TO.C,J15*%
X121800000Y-127600000D03*
D12*
X119800000Y-127600000D03*
X117800000Y-127600000D03*
X115800000Y-127600000D03*
%TD*%
D11*
%TO.C,J5*%
X92600000Y-121800000D03*
D12*
X90600000Y-121800000D03*
%TD*%
D11*
%TO.C,J3*%
X178400000Y-118600000D03*
D12*
X178400000Y-120600000D03*
%TD*%
D13*
%TO.C,TP10*%
X228200000Y-86500000D03*
%TD*%
%TO.C,TP8*%
X228200000Y-98500000D03*
%TD*%
D11*
%TO.C,J10*%
X194050000Y-120460000D03*
D12*
X196050000Y-120460000D03*
X198050000Y-120460000D03*
%TD*%
D13*
%TO.C,BZ1*%
X158400000Y-121200000D03*
D17*
X166000000Y-121200000D03*
%TD*%
D11*
%TO.C,J2*%
X178400000Y-71800000D03*
D12*
X178400000Y-73800000D03*
%TD*%
D18*
%TO.C,U15*%
X140920000Y-121336000D03*
X138380000Y-123876000D03*
X138380000Y-121336000D03*
X138380000Y-118796000D03*
X138380000Y-116256000D03*
X138380000Y-113716000D03*
X138380000Y-111176000D03*
X138380000Y-108636000D03*
X138380000Y-106096000D03*
X138380000Y-103556000D03*
X138380000Y-101016000D03*
X138380000Y-98476000D03*
X138380000Y-95936000D03*
X138380000Y-93396000D03*
X138380000Y-90856000D03*
X138380000Y-88316000D03*
X138380000Y-85776000D03*
X138380000Y-83236000D03*
X138380000Y-80696000D03*
X153620000Y-116256000D03*
X153620000Y-113716000D03*
X153620000Y-111176000D03*
X153620000Y-108636000D03*
X153620000Y-106096000D03*
X153620000Y-103556000D03*
X153620000Y-101016000D03*
X153620000Y-98476000D03*
X153620000Y-95936000D03*
X153620000Y-93396000D03*
X153620000Y-90856000D03*
X153620000Y-88316000D03*
X153620000Y-85776000D03*
X153620000Y-83236000D03*
X153620000Y-80696000D03*
%TD*%
D11*
%TO.C,J9*%
X81600000Y-78200000D03*
D12*
X83600000Y-78200000D03*
X85600000Y-78200000D03*
%TD*%
D15*
%TO.C,R10*%
X212600000Y-101915000D03*
X212600000Y-109535000D03*
%TD*%
D13*
%TO.C,TP1*%
X228200000Y-113500000D03*
%TD*%
D11*
%TO.C,J13*%
X76600000Y-121800000D03*
D12*
X74600000Y-121800000D03*
X72600000Y-121800000D03*
%TD*%
D11*
%TO.C,J16*%
X90600000Y-78200000D03*
D12*
X92600000Y-78200000D03*
%TD*%
D11*
%TO.C,J12*%
X72600000Y-78200000D03*
D12*
X74600000Y-78200000D03*
X76600000Y-78200000D03*
%TD*%
D13*
%TO.C,TP3*%
X228200000Y-101500000D03*
%TD*%
D10*
%TO.C,U7*%
X114060000Y-118240000D03*
X116600000Y-118240000D03*
X119140000Y-118240000D03*
X121680000Y-118240000D03*
X124220000Y-118240000D03*
X126760000Y-118240000D03*
X129300000Y-118240000D03*
X131840000Y-118240000D03*
%TD*%
D19*
%TO.C,Y1*%
X149472500Y-70565000D03*
X149472500Y-71835000D03*
%TD*%
D13*
%TO.C,TP6*%
X228200000Y-110500000D03*
%TD*%
D11*
%TO.C,J7*%
X198050000Y-127800000D03*
D12*
X196050000Y-127800000D03*
X194050000Y-127800000D03*
%TD*%
D13*
%TO.C,TP9*%
X228200000Y-92500000D03*
%TD*%
%TO.C,TP4*%
X228200000Y-95500000D03*
%TD*%
D20*
%TO.C,REF\u002A\u002A*%
X109990000Y-127590000D03*
D21*
X109990000Y-127590000D03*
%TD*%
D20*
%TO.C,REF\u002A\u002A*%
X224990000Y-127590000D03*
D21*
X224990000Y-127590000D03*
%TD*%
D20*
%TO.C,REF\u002A\u002A*%
X109990000Y-72590000D03*
D21*
X109990000Y-72590000D03*
%TD*%
D20*
%TO.C,REF\u002A\u002A*%
X224990000Y-72590000D03*
D21*
X224990000Y-72590000D03*
%TD*%
M02*
