%TF.GenerationSoftware,KiCad,Pcbnew,9.0.7*%
%TF.CreationDate,2026-04-10T20:37:11-04:00*%
%TF.ProjectId,capybara_rocket,63617079-6261-4726-915f-726f636b6574,A*%
%TF.SameCoordinates,Original*%
%TF.FileFunction,Paste,Top*%
%TF.FilePolarity,Positive*%
%FSLAX46Y46*%
G04 Gerber Fmt 4.6, Leading zero omitted, Abs format (unit mm)*
G04 Created by KiCad (PCBNEW 9.0.7) date 2026-04-10 20:37:11*
%MOMM*%
%LPD*%
G01*
G04 APERTURE LIST*
G04 Aperture macros list*
%AMRoundRect*
0 Rectangle with rounded corners*
0 $1 Rounding radius*
0 $2 $3 $4 $5 $6 $7 $8 $9 X,Y pos of 4 corners*
0 Add a 4 corners polygon primitive as box body*
4,1,4,$2,$3,$4,$5,$6,$7,$8,$9,$2,$3,0*
0 Add four circle primitives for the rounded corners*
1,1,$1+$1,$2,$3*
1,1,$1+$1,$4,$5*
1,1,$1+$1,$6,$7*
1,1,$1+$1,$8,$9*
0 Add four rect primitives between the rounded corners*
20,1,$1+$1,$2,$3,$4,$5,0*
20,1,$1+$1,$4,$5,$6,$7,0*
20,1,$1+$1,$6,$7,$8,$9,0*
20,1,$1+$1,$8,$9,$2,$3,0*%
G04 Aperture macros list end*
%ADD10C,0.750000*%
%ADD11C,0.001000*%
%ADD12C,0.025400*%
%ADD13R,0.800000X0.800000*%
%ADD14RoundRect,0.250000X-0.337500X-0.475000X0.337500X-0.475000X0.337500X0.475000X-0.337500X0.475000X0*%
%ADD15RoundRect,0.237500X-0.237500X0.250000X-0.237500X-0.250000X0.237500X-0.250000X0.237500X0.250000X0*%
%ADD16RoundRect,0.250000X0.337500X0.475000X-0.337500X0.475000X-0.337500X-0.475000X0.337500X-0.475000X0*%
%ADD17RoundRect,0.150000X0.512500X0.150000X-0.512500X0.150000X-0.512500X-0.150000X0.512500X-0.150000X0*%
%ADD18RoundRect,0.237500X0.237500X-0.250000X0.237500X0.250000X-0.237500X0.250000X-0.237500X-0.250000X0*%
%ADD19RoundRect,0.250000X-0.650000X0.412500X-0.650000X-0.412500X0.650000X-0.412500X0.650000X0.412500X0*%
%ADD20RoundRect,0.237500X-0.250000X-0.237500X0.250000X-0.237500X0.250000X0.237500X-0.250000X0.237500X0*%
%ADD21R,0.558800X1.320800*%
%ADD22R,2.540000X3.170000*%
%ADD23RoundRect,0.237500X0.237500X-0.300000X0.237500X0.300000X-0.237500X0.300000X-0.237500X-0.300000X0*%
%ADD24RoundRect,0.250000X0.650000X-0.412500X0.650000X0.412500X-0.650000X0.412500X-0.650000X-0.412500X0*%
%ADD25RoundRect,0.250000X-0.475000X0.337500X-0.475000X-0.337500X0.475000X-0.337500X0.475000X0.337500X0*%
%ADD26R,2.006600X5.994400*%
%ADD27R,0.711200X0.228600*%
%ADD28RoundRect,0.250000X-0.350000X-0.450000X0.350000X-0.450000X0.350000X0.450000X-0.350000X0.450000X0*%
%ADD29R,1.070000X3.270000*%
%ADD30RoundRect,0.250000X0.412500X0.650000X-0.412500X0.650000X-0.412500X-0.650000X0.412500X-0.650000X0*%
%ADD31RoundRect,0.150000X-0.825000X-0.150000X0.825000X-0.150000X0.825000X0.150000X-0.825000X0.150000X0*%
%ADD32RoundRect,0.250000X0.475000X-0.337500X0.475000X0.337500X-0.475000X0.337500X-0.475000X-0.337500X0*%
%ADD33R,0.457200X1.003300*%
%ADD34RoundRect,0.155000X-0.212500X-0.155000X0.212500X-0.155000X0.212500X0.155000X-0.212500X0.155000X0*%
%ADD35RoundRect,0.237500X0.250000X0.237500X-0.250000X0.237500X-0.250000X-0.237500X0.250000X-0.237500X0*%
%ADD36RoundRect,0.250000X0.400000X0.625000X-0.400000X0.625000X-0.400000X-0.625000X0.400000X-0.625000X0*%
%ADD37R,2.400000X1.500000*%
%ADD38R,0.431800X1.397000*%
%ADD39RoundRect,0.237500X-0.237500X0.300000X-0.237500X-0.300000X0.237500X-0.300000X0.237500X0.300000X0*%
%ADD40RoundRect,0.150000X-0.150000X0.825000X-0.150000X-0.825000X0.150000X-0.825000X0.150000X0.825000X0*%
G04 APERTURE END LIST*
D10*
%TO.C,J11*%
X75640000Y-87300000D02*
G75*
G02*
X71440000Y-87300000I-2100000J0D01*
G01*
X71440000Y-87300000D02*
G75*
G02*
X75640000Y-87300000I2100000J0D01*
G01*
X75640000Y-112700000D02*
G75*
G02*
X71440000Y-112700000I-2100000J0D01*
G01*
X71440000Y-112700000D02*
G75*
G02*
X75640000Y-112700000I2100000J0D01*
G01*
X108660000Y-87300000D02*
G75*
G02*
X104460000Y-87300000I-2100000J0D01*
G01*
X104460000Y-87300000D02*
G75*
G02*
X108660000Y-87300000I2100000J0D01*
G01*
X108660000Y-112700000D02*
G75*
G02*
X104460000Y-112700000I-2100000J0D01*
G01*
X104460000Y-112700000D02*
G75*
G02*
X108660000Y-112700000I2100000J0D01*
G01*
D11*
%TO.C,L2*%
X200750000Y-96857500D02*
X200623000Y-96923500D01*
X200543000Y-96973500D01*
X200455000Y-97031500D01*
X200387000Y-97081500D01*
X200265000Y-97187500D01*
X200178000Y-97274500D01*
X200088000Y-97380500D01*
X200025000Y-97464500D01*
X199984000Y-97525500D01*
X199938000Y-97599500D01*
X199918000Y-97639500D01*
X199878000Y-97711500D01*
X199836000Y-97806500D01*
X199804000Y-97884500D01*
X199762000Y-98016500D01*
X199730000Y-98161500D01*
X199703000Y-98356500D01*
X199700000Y-98452500D01*
X199702000Y-98624500D01*
X199713000Y-98715500D01*
X199725000Y-98810500D01*
X199725000Y-98813500D01*
X199726000Y-98817500D01*
X199726000Y-98821500D01*
X199727000Y-98825500D01*
X199728000Y-98829500D01*
X199728000Y-98833500D01*
X199729000Y-98837500D01*
X199729000Y-98840500D01*
X199730000Y-98844500D01*
X199731000Y-98848500D01*
X199732000Y-98852500D01*
X199732000Y-98856500D01*
X199733000Y-98859500D01*
X199734000Y-98863500D01*
X199735000Y-98867500D01*
X199735000Y-98871500D01*
X199736000Y-98875500D01*
X199737000Y-98879500D01*
X199738000Y-98882500D01*
X199739000Y-98886500D01*
X199740000Y-98890500D01*
X199741000Y-98894500D01*
X199742000Y-98897500D01*
X199743000Y-98901500D01*
X199744000Y-98905500D01*
X199745000Y-98909500D01*
X199746000Y-98912500D01*
X199747000Y-98916500D01*
X199748000Y-98920500D01*
X199749000Y-98923500D01*
X199779000Y-99033500D01*
X199815000Y-99140500D01*
X199880000Y-99287500D01*
X199924000Y-99369500D01*
X199964000Y-99439500D01*
X200015000Y-99520500D01*
X200075000Y-99600500D01*
X200125000Y-99660500D01*
X200185000Y-99730500D01*
X200245000Y-99790500D01*
X200325000Y-99860500D01*
X200385000Y-99910500D01*
X200455000Y-99960500D01*
X200505000Y-100000500D01*
X200750000Y-100137500D01*
X200750000Y-101147500D01*
X198750000Y-101147500D01*
X198750000Y-95847500D01*
X200750000Y-95847500D01*
X200750000Y-96857500D01*
G36*
X200750000Y-96857500D02*
G01*
X200623000Y-96923500D01*
X200543000Y-96973500D01*
X200455000Y-97031500D01*
X200387000Y-97081500D01*
X200265000Y-97187500D01*
X200178000Y-97274500D01*
X200088000Y-97380500D01*
X200025000Y-97464500D01*
X199984000Y-97525500D01*
X199938000Y-97599500D01*
X199918000Y-97639500D01*
X199878000Y-97711500D01*
X199836000Y-97806500D01*
X199804000Y-97884500D01*
X199762000Y-98016500D01*
X199730000Y-98161500D01*
X199703000Y-98356500D01*
X199700000Y-98452500D01*
X199702000Y-98624500D01*
X199713000Y-98715500D01*
X199725000Y-98810500D01*
X199725000Y-98813500D01*
X199726000Y-98817500D01*
X199726000Y-98821500D01*
X199727000Y-98825500D01*
X199728000Y-98829500D01*
X199728000Y-98833500D01*
X199729000Y-98837500D01*
X199729000Y-98840500D01*
X199730000Y-98844500D01*
X199731000Y-98848500D01*
X199732000Y-98852500D01*
X199732000Y-98856500D01*
X199733000Y-98859500D01*
X199734000Y-98863500D01*
X199735000Y-98867500D01*
X199735000Y-98871500D01*
X199736000Y-98875500D01*
X199737000Y-98879500D01*
X199738000Y-98882500D01*
X199739000Y-98886500D01*
X199740000Y-98890500D01*
X199741000Y-98894500D01*
X199742000Y-98897500D01*
X199743000Y-98901500D01*
X199744000Y-98905500D01*
X199745000Y-98909500D01*
X199746000Y-98912500D01*
X199747000Y-98916500D01*
X199748000Y-98920500D01*
X199749000Y-98923500D01*
X199779000Y-99033500D01*
X199815000Y-99140500D01*
X199880000Y-99287500D01*
X199924000Y-99369500D01*
X199964000Y-99439500D01*
X200015000Y-99520500D01*
X200075000Y-99600500D01*
X200125000Y-99660500D01*
X200185000Y-99730500D01*
X200245000Y-99790500D01*
X200325000Y-99860500D01*
X200385000Y-99910500D01*
X200455000Y-99960500D01*
X200505000Y-100000500D01*
X200750000Y-100137500D01*
X200750000Y-101147500D01*
X198750000Y-101147500D01*
X198750000Y-95847500D01*
X200750000Y-95847500D01*
X200750000Y-96857500D01*
G37*
X204250000Y-101147500D02*
X202250000Y-101147500D01*
X202250000Y-100137500D01*
X202377000Y-100071500D01*
X202457000Y-100021500D01*
X202545000Y-99963500D01*
X202613000Y-99913500D01*
X202735000Y-99807500D01*
X202822000Y-99720500D01*
X202912000Y-99614500D01*
X202975000Y-99530500D01*
X203016000Y-99469500D01*
X203062000Y-99395500D01*
X203082000Y-99355500D01*
X203122000Y-99283500D01*
X203164000Y-99188500D01*
X203196000Y-99110500D01*
X203238000Y-98978500D01*
X203270000Y-98833500D01*
X203297000Y-98638500D01*
X203300000Y-98542500D01*
X203298000Y-98370500D01*
X203287000Y-98279500D01*
X203275000Y-98184500D01*
X203275000Y-98181500D01*
X203274000Y-98177500D01*
X203274000Y-98173500D01*
X203273000Y-98169500D01*
X203272000Y-98165500D01*
X203272000Y-98161500D01*
X203271000Y-98157500D01*
X203271000Y-98154500D01*
X203270000Y-98150500D01*
X203269000Y-98146500D01*
X203268000Y-98142500D01*
X203268000Y-98138500D01*
X203267000Y-98135500D01*
X203266000Y-98131500D01*
X203265000Y-98127500D01*
X203265000Y-98123500D01*
X203264000Y-98119500D01*
X203263000Y-98115500D01*
X203262000Y-98112500D01*
X203261000Y-98108500D01*
X203260000Y-98104500D01*
X203259000Y-98100500D01*
X203258000Y-98097500D01*
X203257000Y-98093500D01*
X203256000Y-98089500D01*
X203255000Y-98085500D01*
X203254000Y-98082500D01*
X203253000Y-98078500D01*
X203252000Y-98074500D01*
X203251000Y-98071500D01*
X203221000Y-97961500D01*
X203185000Y-97854500D01*
X203120000Y-97707500D01*
X203076000Y-97625500D01*
X203036000Y-97555500D01*
X202985000Y-97474500D01*
X202925000Y-97394500D01*
X202875000Y-97334500D01*
X202815000Y-97264500D01*
X202755000Y-97204500D01*
X202675000Y-97134500D01*
X202615000Y-97084500D01*
X202545000Y-97034500D01*
X202495000Y-96994500D01*
X202250000Y-96857500D01*
X202250000Y-95847500D01*
X204250000Y-95847500D01*
X204250000Y-101147500D01*
G36*
X204250000Y-101147500D02*
G01*
X202250000Y-101147500D01*
X202250000Y-100137500D01*
X202377000Y-100071500D01*
X202457000Y-100021500D01*
X202545000Y-99963500D01*
X202613000Y-99913500D01*
X202735000Y-99807500D01*
X202822000Y-99720500D01*
X202912000Y-99614500D01*
X202975000Y-99530500D01*
X203016000Y-99469500D01*
X203062000Y-99395500D01*
X203082000Y-99355500D01*
X203122000Y-99283500D01*
X203164000Y-99188500D01*
X203196000Y-99110500D01*
X203238000Y-98978500D01*
X203270000Y-98833500D01*
X203297000Y-98638500D01*
X203300000Y-98542500D01*
X203298000Y-98370500D01*
X203287000Y-98279500D01*
X203275000Y-98184500D01*
X203275000Y-98181500D01*
X203274000Y-98177500D01*
X203274000Y-98173500D01*
X203273000Y-98169500D01*
X203272000Y-98165500D01*
X203272000Y-98161500D01*
X203271000Y-98157500D01*
X203271000Y-98154500D01*
X203270000Y-98150500D01*
X203269000Y-98146500D01*
X203268000Y-98142500D01*
X203268000Y-98138500D01*
X203267000Y-98135500D01*
X203266000Y-98131500D01*
X203265000Y-98127500D01*
X203265000Y-98123500D01*
X203264000Y-98119500D01*
X203263000Y-98115500D01*
X203262000Y-98112500D01*
X203261000Y-98108500D01*
X203260000Y-98104500D01*
X203259000Y-98100500D01*
X203258000Y-98097500D01*
X203257000Y-98093500D01*
X203256000Y-98089500D01*
X203255000Y-98085500D01*
X203254000Y-98082500D01*
X203253000Y-98078500D01*
X203252000Y-98074500D01*
X203251000Y-98071500D01*
X203221000Y-97961500D01*
X203185000Y-97854500D01*
X203120000Y-97707500D01*
X203076000Y-97625500D01*
X203036000Y-97555500D01*
X202985000Y-97474500D01*
X202925000Y-97394500D01*
X202875000Y-97334500D01*
X202815000Y-97264500D01*
X202755000Y-97204500D01*
X202675000Y-97134500D01*
X202615000Y-97084500D01*
X202545000Y-97034500D01*
X202495000Y-96994500D01*
X202250000Y-96857500D01*
X202250000Y-95847500D01*
X204250000Y-95847500D01*
X204250000Y-101147500D01*
G37*
D10*
%TO.C,U2*%
X114890000Y-81760000D02*
G75*
G02*
X110690000Y-81760000I-2100000J0D01*
G01*
X110690000Y-81760000D02*
G75*
G02*
X114890000Y-81760000I2100000J0D01*
G01*
X114890000Y-99540000D02*
G75*
G02*
X110690000Y-99540000I-2100000J0D01*
G01*
X110690000Y-99540000D02*
G75*
G02*
X114890000Y-99540000I2100000J0D01*
G01*
X135210000Y-81760000D02*
G75*
G02*
X131010000Y-81760000I-2100000J0D01*
G01*
X131010000Y-81760000D02*
G75*
G02*
X135210000Y-81760000I2100000J0D01*
G01*
X135210000Y-99540000D02*
G75*
G02*
X131010000Y-99540000I-2100000J0D01*
G01*
X131010000Y-99540000D02*
G75*
G02*
X135210000Y-99540000I2100000J0D01*
G01*
%TO.C,U17*%
X162300000Y-88800000D02*
G75*
G02*
X158100000Y-88800000I-2100000J0D01*
G01*
X158100000Y-88800000D02*
G75*
G02*
X162300000Y-88800000I2100000J0D01*
G01*
X162300000Y-111200000D02*
G75*
G02*
X158100000Y-111200000I-2100000J0D01*
G01*
X158100000Y-111200000D02*
G75*
G02*
X162300000Y-111200000I2100000J0D01*
G01*
X190100000Y-88800000D02*
G75*
G02*
X185900000Y-88800000I-2100000J0D01*
G01*
X185900000Y-88800000D02*
G75*
G02*
X190100000Y-88800000I2100000J0D01*
G01*
X190100000Y-111200000D02*
G75*
G02*
X185900000Y-111200000I-2100000J0D01*
G01*
X185900000Y-111200000D02*
G75*
G02*
X190100000Y-111200000I2100000J0D01*
G01*
D12*
%TO.C,U5*%
X212287500Y-90813800D02*
X211014300Y-90813800D01*
X211014300Y-89261200D01*
X212287500Y-89261200D01*
X212287500Y-90813800D01*
G36*
X212287500Y-90813800D02*
G01*
X211014300Y-90813800D01*
X211014300Y-89261200D01*
X212287500Y-89261200D01*
X212287500Y-90813800D01*
G37*
X213760700Y-90813800D02*
X212487500Y-90813800D01*
X212487500Y-89261200D01*
X213760700Y-89261200D01*
X213760700Y-90813800D01*
G36*
X213760700Y-90813800D02*
G01*
X212487500Y-90813800D01*
X212487500Y-89261200D01*
X213760700Y-89261200D01*
X213760700Y-90813800D01*
G37*
D10*
%TO.C,U7*%
X114890000Y-105540000D02*
G75*
G02*
X110690000Y-105540000I-2100000J0D01*
G01*
X110690000Y-105540000D02*
G75*
G02*
X114890000Y-105540000I2100000J0D01*
G01*
X135210000Y-105540000D02*
G75*
G02*
X131010000Y-105540000I-2100000J0D01*
G01*
X131010000Y-105540000D02*
G75*
G02*
X135210000Y-105540000I2100000J0D01*
G01*
D12*
%TO.C,U6*%
X204712500Y-106273800D02*
X203439300Y-106273800D01*
X203439300Y-104721200D01*
X204712500Y-104721200D01*
X204712500Y-106273800D01*
G36*
X204712500Y-106273800D02*
G01*
X203439300Y-106273800D01*
X203439300Y-104721200D01*
X204712500Y-104721200D01*
X204712500Y-106273800D01*
G37*
X206185700Y-106273800D02*
X204912500Y-106273800D01*
X204912500Y-104721200D01*
X206185700Y-104721200D01*
X206185700Y-106273800D01*
G36*
X206185700Y-106273800D02*
G01*
X204912500Y-106273800D01*
X204912500Y-104721200D01*
X206185700Y-104721200D01*
X206185700Y-106273800D01*
G37*
D11*
%TO.C,L1*%
X214950000Y-95397500D02*
X214823000Y-95463500D01*
X214743000Y-95513500D01*
X214655000Y-95571500D01*
X214587000Y-95621500D01*
X214465000Y-95727500D01*
X214378000Y-95814500D01*
X214288000Y-95920500D01*
X214225000Y-96004500D01*
X214184000Y-96065500D01*
X214138000Y-96139500D01*
X214118000Y-96179500D01*
X214078000Y-96251500D01*
X214036000Y-96346500D01*
X214004000Y-96424500D01*
X213962000Y-96556500D01*
X213930000Y-96701500D01*
X213903000Y-96896500D01*
X213900000Y-96992500D01*
X213902000Y-97164500D01*
X213913000Y-97255500D01*
X213925000Y-97350500D01*
X213925000Y-97353500D01*
X213926000Y-97357500D01*
X213926000Y-97361500D01*
X213927000Y-97365500D01*
X213928000Y-97369500D01*
X213928000Y-97373500D01*
X213929000Y-97377500D01*
X213929000Y-97380500D01*
X213930000Y-97384500D01*
X213931000Y-97388500D01*
X213932000Y-97392500D01*
X213932000Y-97396500D01*
X213933000Y-97399500D01*
X213934000Y-97403500D01*
X213935000Y-97407500D01*
X213935000Y-97411500D01*
X213936000Y-97415500D01*
X213937000Y-97419500D01*
X213938000Y-97422500D01*
X213939000Y-97426500D01*
X213940000Y-97430500D01*
X213941000Y-97434500D01*
X213942000Y-97437500D01*
X213943000Y-97441500D01*
X213944000Y-97445500D01*
X213945000Y-97449500D01*
X213946000Y-97452500D01*
X213947000Y-97456500D01*
X213948000Y-97460500D01*
X213949000Y-97463500D01*
X213979000Y-97573500D01*
X214015000Y-97680500D01*
X214080000Y-97827500D01*
X214124000Y-97909500D01*
X214164000Y-97979500D01*
X214215000Y-98060500D01*
X214275000Y-98140500D01*
X214325000Y-98200500D01*
X214385000Y-98270500D01*
X214445000Y-98330500D01*
X214525000Y-98400500D01*
X214585000Y-98450500D01*
X214655000Y-98500500D01*
X214705000Y-98540500D01*
X214950000Y-98677500D01*
X214950000Y-99687500D01*
X212950000Y-99687500D01*
X212950000Y-94387500D01*
X214950000Y-94387500D01*
X214950000Y-95397500D01*
G36*
X214950000Y-95397500D02*
G01*
X214823000Y-95463500D01*
X214743000Y-95513500D01*
X214655000Y-95571500D01*
X214587000Y-95621500D01*
X214465000Y-95727500D01*
X214378000Y-95814500D01*
X214288000Y-95920500D01*
X214225000Y-96004500D01*
X214184000Y-96065500D01*
X214138000Y-96139500D01*
X214118000Y-96179500D01*
X214078000Y-96251500D01*
X214036000Y-96346500D01*
X214004000Y-96424500D01*
X213962000Y-96556500D01*
X213930000Y-96701500D01*
X213903000Y-96896500D01*
X213900000Y-96992500D01*
X213902000Y-97164500D01*
X213913000Y-97255500D01*
X213925000Y-97350500D01*
X213925000Y-97353500D01*
X213926000Y-97357500D01*
X213926000Y-97361500D01*
X213927000Y-97365500D01*
X213928000Y-97369500D01*
X213928000Y-97373500D01*
X213929000Y-97377500D01*
X213929000Y-97380500D01*
X213930000Y-97384500D01*
X213931000Y-97388500D01*
X213932000Y-97392500D01*
X213932000Y-97396500D01*
X213933000Y-97399500D01*
X213934000Y-97403500D01*
X213935000Y-97407500D01*
X213935000Y-97411500D01*
X213936000Y-97415500D01*
X213937000Y-97419500D01*
X213938000Y-97422500D01*
X213939000Y-97426500D01*
X213940000Y-97430500D01*
X213941000Y-97434500D01*
X213942000Y-97437500D01*
X213943000Y-97441500D01*
X213944000Y-97445500D01*
X213945000Y-97449500D01*
X213946000Y-97452500D01*
X213947000Y-97456500D01*
X213948000Y-97460500D01*
X213949000Y-97463500D01*
X213979000Y-97573500D01*
X214015000Y-97680500D01*
X214080000Y-97827500D01*
X214124000Y-97909500D01*
X214164000Y-97979500D01*
X214215000Y-98060500D01*
X214275000Y-98140500D01*
X214325000Y-98200500D01*
X214385000Y-98270500D01*
X214445000Y-98330500D01*
X214525000Y-98400500D01*
X214585000Y-98450500D01*
X214655000Y-98500500D01*
X214705000Y-98540500D01*
X214950000Y-98677500D01*
X214950000Y-99687500D01*
X212950000Y-99687500D01*
X212950000Y-94387500D01*
X214950000Y-94387500D01*
X214950000Y-95397500D01*
G37*
X218450000Y-99687500D02*
X216450000Y-99687500D01*
X216450000Y-98677500D01*
X216577000Y-98611500D01*
X216657000Y-98561500D01*
X216745000Y-98503500D01*
X216813000Y-98453500D01*
X216935000Y-98347500D01*
X217022000Y-98260500D01*
X217112000Y-98154500D01*
X217175000Y-98070500D01*
X217216000Y-98009500D01*
X217262000Y-97935500D01*
X217282000Y-97895500D01*
X217322000Y-97823500D01*
X217364000Y-97728500D01*
X217396000Y-97650500D01*
X217438000Y-97518500D01*
X217470000Y-97373500D01*
X217497000Y-97178500D01*
X217500000Y-97082500D01*
X217498000Y-96910500D01*
X217487000Y-96819500D01*
X217475000Y-96724500D01*
X217475000Y-96721500D01*
X217474000Y-96717500D01*
X217474000Y-96713500D01*
X217473000Y-96709500D01*
X217472000Y-96705500D01*
X217472000Y-96701500D01*
X217471000Y-96697500D01*
X217471000Y-96694500D01*
X217470000Y-96690500D01*
X217469000Y-96686500D01*
X217468000Y-96682500D01*
X217468000Y-96678500D01*
X217467000Y-96675500D01*
X217466000Y-96671500D01*
X217465000Y-96667500D01*
X217465000Y-96663500D01*
X217464000Y-96659500D01*
X217463000Y-96655500D01*
X217462000Y-96652500D01*
X217461000Y-96648500D01*
X217460000Y-96644500D01*
X217459000Y-96640500D01*
X217458000Y-96637500D01*
X217457000Y-96633500D01*
X217456000Y-96629500D01*
X217455000Y-96625500D01*
X217454000Y-96622500D01*
X217453000Y-96618500D01*
X217452000Y-96614500D01*
X217451000Y-96611500D01*
X217421000Y-96501500D01*
X217385000Y-96394500D01*
X217320000Y-96247500D01*
X217276000Y-96165500D01*
X217236000Y-96095500D01*
X217185000Y-96014500D01*
X217125000Y-95934500D01*
X217075000Y-95874500D01*
X217015000Y-95804500D01*
X216955000Y-95744500D01*
X216875000Y-95674500D01*
X216815000Y-95624500D01*
X216745000Y-95574500D01*
X216695000Y-95534500D01*
X216450000Y-95397500D01*
X216450000Y-94387500D01*
X218450000Y-94387500D01*
X218450000Y-99687500D01*
G36*
X218450000Y-99687500D02*
G01*
X216450000Y-99687500D01*
X216450000Y-98677500D01*
X216577000Y-98611500D01*
X216657000Y-98561500D01*
X216745000Y-98503500D01*
X216813000Y-98453500D01*
X216935000Y-98347500D01*
X217022000Y-98260500D01*
X217112000Y-98154500D01*
X217175000Y-98070500D01*
X217216000Y-98009500D01*
X217262000Y-97935500D01*
X217282000Y-97895500D01*
X217322000Y-97823500D01*
X217364000Y-97728500D01*
X217396000Y-97650500D01*
X217438000Y-97518500D01*
X217470000Y-97373500D01*
X217497000Y-97178500D01*
X217500000Y-97082500D01*
X217498000Y-96910500D01*
X217487000Y-96819500D01*
X217475000Y-96724500D01*
X217475000Y-96721500D01*
X217474000Y-96717500D01*
X217474000Y-96713500D01*
X217473000Y-96709500D01*
X217472000Y-96705500D01*
X217472000Y-96701500D01*
X217471000Y-96697500D01*
X217471000Y-96694500D01*
X217470000Y-96690500D01*
X217469000Y-96686500D01*
X217468000Y-96682500D01*
X217468000Y-96678500D01*
X217467000Y-96675500D01*
X217466000Y-96671500D01*
X217465000Y-96667500D01*
X217465000Y-96663500D01*
X217464000Y-96659500D01*
X217463000Y-96655500D01*
X217462000Y-96652500D01*
X217461000Y-96648500D01*
X217460000Y-96644500D01*
X217459000Y-96640500D01*
X217458000Y-96637500D01*
X217457000Y-96633500D01*
X217456000Y-96629500D01*
X217455000Y-96625500D01*
X217454000Y-96622500D01*
X217453000Y-96618500D01*
X217452000Y-96614500D01*
X217451000Y-96611500D01*
X217421000Y-96501500D01*
X217385000Y-96394500D01*
X217320000Y-96247500D01*
X217276000Y-96165500D01*
X217236000Y-96095500D01*
X217185000Y-96014500D01*
X217125000Y-95934500D01*
X217075000Y-95874500D01*
X217015000Y-95804500D01*
X216955000Y-95744500D01*
X216875000Y-95674500D01*
X216815000Y-95624500D01*
X216745000Y-95574500D01*
X216695000Y-95534500D01*
X216450000Y-95397500D01*
X216450000Y-94387500D01*
X218450000Y-94387500D01*
X218450000Y-99687500D01*
G37*
%TD*%
D13*
%TO.C,D9*%
X224200000Y-91750000D03*
X225800000Y-91750000D03*
%TD*%
D14*
%TO.C,C8*%
X128962500Y-123000000D03*
X131037500Y-123000000D03*
%TD*%
D15*
%TO.C,R7*%
X202300000Y-86000000D03*
X202300000Y-87825000D03*
%TD*%
D16*
%TO.C,C4*%
X120177500Y-97040000D03*
X118102500Y-97040000D03*
%TD*%
D17*
%TO.C,U14*%
X185937500Y-77115000D03*
X185937500Y-75215000D03*
X183662500Y-76165000D03*
%TD*%
D18*
%TO.C,R2*%
X100320000Y-114312500D03*
X100320000Y-112487500D03*
%TD*%
D19*
%TO.C,C7*%
X204487381Y-111250600D03*
X204487381Y-114375600D03*
%TD*%
D18*
%TO.C,R25*%
X155500000Y-72225000D03*
X155500000Y-70400000D03*
%TD*%
D20*
%TO.C,R18*%
X224087500Y-90250000D03*
X225912500Y-90250000D03*
%TD*%
%TO.C,R5*%
X208300000Y-105097500D03*
X210125000Y-105097500D03*
%TD*%
D17*
%TO.C,U16*%
X185937500Y-72715000D03*
X185937500Y-71765000D03*
X185937500Y-70815000D03*
X183662500Y-70815000D03*
X183662500Y-72715000D03*
%TD*%
D21*
%TO.C,U13*%
X207549999Y-77697500D03*
X208500000Y-77697500D03*
X209450001Y-77697500D03*
X209450001Y-75106700D03*
X208500000Y-75106700D03*
X207549999Y-75106700D03*
%TD*%
D22*
%TO.C,BT1*%
X173020000Y-77200000D03*
X157780000Y-77200000D03*
%TD*%
D13*
%TO.C,D1*%
X224200000Y-112750000D03*
X225800000Y-112750000D03*
%TD*%
D20*
%TO.C,R15*%
X224087500Y-108250000D03*
X225912500Y-108250000D03*
%TD*%
D23*
%TO.C,C13*%
X214900000Y-103640000D03*
X214900000Y-101915000D03*
%TD*%
D13*
%TO.C,D6*%
X224200000Y-109750000D03*
X225800000Y-109750000D03*
%TD*%
D20*
%TO.C,R17*%
X224087500Y-96250000D03*
X225912500Y-96250000D03*
%TD*%
D24*
%TO.C,C22*%
X204500000Y-76364600D03*
X204500000Y-73239600D03*
%TD*%
D13*
%TO.C,D8*%
X224200000Y-97750000D03*
X225800000Y-97750000D03*
%TD*%
D16*
%TO.C,C15*%
X170965000Y-125200000D03*
X168890000Y-125200000D03*
%TD*%
D25*
%TO.C,C16*%
X216500000Y-84562500D03*
X216500000Y-86637500D03*
%TD*%
D13*
%TO.C,D5*%
X224200000Y-88750000D03*
X225800000Y-88750000D03*
%TD*%
D24*
%TO.C,C18*%
X209300000Y-129060000D03*
X209300000Y-125935000D03*
%TD*%
D16*
%TO.C,C9*%
X117637500Y-115740000D03*
X115562500Y-115740000D03*
%TD*%
D20*
%TO.C,R20*%
X224087500Y-105250000D03*
X225912500Y-105250000D03*
%TD*%
D26*
%TO.C,L3*%
X204341000Y-120497500D03*
X208659000Y-120497500D03*
%TD*%
D27*
%TO.C,U8*%
X92400100Y-83500126D03*
X92400100Y-83000000D03*
X92400100Y-82499874D03*
X90799900Y-82499874D03*
X90799900Y-83000000D03*
X90799900Y-83500126D03*
%TD*%
D28*
%TO.C,R27*%
X207780000Y-72802100D03*
X209780000Y-72802100D03*
%TD*%
D20*
%TO.C,R23*%
X213387500Y-116897500D03*
X215212500Y-116897500D03*
%TD*%
D29*
%TO.C,R6*%
X167395000Y-129600000D03*
X173505000Y-129600000D03*
%TD*%
D17*
%TO.C,U10*%
X185937500Y-122950000D03*
X185937500Y-121050000D03*
X183662500Y-122000000D03*
%TD*%
D30*
%TO.C,C3*%
X111325000Y-122600000D03*
X108200000Y-122600000D03*
%TD*%
D20*
%TO.C,R19*%
X224087500Y-111250000D03*
X225912500Y-111250000D03*
%TD*%
D13*
%TO.C,D7*%
X224200000Y-103750000D03*
X225800000Y-103750000D03*
%TD*%
D31*
%TO.C,Q2*%
X183325000Y-79460000D03*
X183325000Y-80730000D03*
X183325000Y-82000000D03*
X183325000Y-83270000D03*
X188275000Y-83270000D03*
X188275000Y-82000000D03*
X188275000Y-80730000D03*
X188275000Y-79460000D03*
%TD*%
D28*
%TO.C,R26*%
X211480000Y-72802100D03*
X213480000Y-72802100D03*
%TD*%
D20*
%TO.C,R14*%
X224087500Y-114250000D03*
X225912500Y-114250000D03*
%TD*%
D16*
%TO.C,C10*%
X88547500Y-111470000D03*
X86472500Y-111470000D03*
%TD*%
D32*
%TO.C,C17*%
X200700000Y-110972500D03*
X200700000Y-108897500D03*
%TD*%
D15*
%TO.C,R24*%
X153700000Y-70400000D03*
X153700000Y-72225000D03*
%TD*%
D19*
%TO.C,C1*%
X108200000Y-116800000D03*
X108200000Y-119925000D03*
%TD*%
D20*
%TO.C,R22*%
X224087500Y-93250000D03*
X225912500Y-93250000D03*
%TD*%
D24*
%TO.C,C6*%
X212712619Y-84275600D03*
X212712619Y-81150600D03*
%TD*%
D32*
%TO.C,C14*%
X210125000Y-109535000D03*
X210125000Y-107460000D03*
%TD*%
D13*
%TO.C,D2*%
X224200000Y-106750000D03*
X225800000Y-106750000D03*
%TD*%
D31*
%TO.C,Q1*%
X183325000Y-125295000D03*
X183325000Y-126565000D03*
X183325000Y-127835000D03*
X183325000Y-129105000D03*
X188275000Y-129105000D03*
X188275000Y-127835000D03*
X188275000Y-126565000D03*
X188275000Y-125295000D03*
%TD*%
D33*
%TO.C,U11*%
X212725001Y-125450050D03*
X213374999Y-125450050D03*
X214025001Y-125450050D03*
X214674999Y-125450050D03*
X214674999Y-122744950D03*
X214025001Y-122744950D03*
X213374999Y-122744950D03*
X212725001Y-122744950D03*
%TD*%
D34*
%TO.C,C21*%
X213732500Y-127297500D03*
X214867500Y-127297500D03*
%TD*%
D20*
%TO.C,R21*%
X224087500Y-99250000D03*
X225912500Y-99250000D03*
%TD*%
D14*
%TO.C,C19*%
X213262500Y-129097500D03*
X215337500Y-129097500D03*
%TD*%
D18*
%TO.C,R8*%
X214900000Y-109535000D03*
X214900000Y-107710000D03*
%TD*%
D13*
%TO.C,D4*%
X224200000Y-94750000D03*
X225800000Y-94750000D03*
%TD*%
D25*
%TO.C,C12*%
X207075000Y-86000000D03*
X207075000Y-88075000D03*
%TD*%
D35*
%TO.C,R4*%
X208900000Y-90437500D03*
X207075000Y-90437500D03*
%TD*%
D32*
%TO.C,C2*%
X137800000Y-72237500D03*
X137800000Y-70162500D03*
%TD*%
D13*
%TO.C,D3*%
X224200000Y-100750000D03*
X225800000Y-100750000D03*
%TD*%
D36*
%TO.C,R13*%
X216650000Y-119297500D03*
X213550000Y-119297500D03*
%TD*%
D17*
%TO.C,U12*%
X185937500Y-118550000D03*
X185937500Y-117600000D03*
X185937500Y-116650000D03*
X183662500Y-116650000D03*
X183662500Y-118550000D03*
%TD*%
D37*
%TO.C,L4*%
X199300000Y-77152100D03*
X199300000Y-71652100D03*
%TD*%
D24*
%TO.C,C5*%
X96600000Y-114162500D03*
X96600000Y-111037500D03*
%TD*%
D18*
%TO.C,R1*%
X98700000Y-114312500D03*
X98700000Y-112487500D03*
%TD*%
D35*
%TO.C,R3*%
X92512500Y-117400000D03*
X90687500Y-117400000D03*
%TD*%
D24*
%TO.C,C20*%
X214700000Y-78364600D03*
X214700000Y-75239600D03*
%TD*%
D38*
%TO.C,U5*%
X210761900Y-92221900D03*
X211412141Y-92221900D03*
X212062381Y-92221900D03*
X212712619Y-92221900D03*
X213362859Y-92221900D03*
X214013100Y-92221900D03*
X214013100Y-87853100D03*
X213362859Y-87853100D03*
X212712619Y-87853100D03*
X212062381Y-87853100D03*
X211412141Y-87853100D03*
X210761900Y-87853100D03*
%TD*%
D20*
%TO.C,R16*%
X224087500Y-102250000D03*
X225912500Y-102250000D03*
%TD*%
D39*
%TO.C,C11*%
X202300000Y-91895000D03*
X202300000Y-93620000D03*
%TD*%
D38*
%TO.C,U6*%
X206438100Y-103313100D03*
X205787859Y-103313100D03*
X205137619Y-103313100D03*
X204487381Y-103313100D03*
X203837141Y-103313100D03*
X203186900Y-103313100D03*
X203186900Y-107681900D03*
X203837141Y-107681900D03*
X204487381Y-107681900D03*
X205137619Y-107681900D03*
X205787859Y-107681900D03*
X206438100Y-107681900D03*
%TD*%
D40*
%TO.C,U9*%
X173505000Y-116325000D03*
X172235000Y-116325000D03*
X170965000Y-116325000D03*
X169695000Y-116325000D03*
X169695000Y-121275000D03*
X170965000Y-121275000D03*
X172235000Y-121275000D03*
X173505000Y-121275000D03*
%TD*%
M02*
