%TF.GenerationSoftware,KiCad,Pcbnew,9.0.7*%
%TF.CreationDate,2026-04-17T19:01:18-04:00*%
%TF.ProjectId,capybara_rocket,63617079-6261-4726-915f-726f636b6574,A*%
%TF.SameCoordinates,Original*%
%TF.FileFunction,Copper,L4,Bot*%
%TF.FilePolarity,Positive*%
%FSLAX46Y46*%
G04 Gerber Fmt 4.6, Leading zero omitted, Abs format (unit mm)*
G04 Created by KiCad (PCBNEW 9.0.7) date 2026-04-17 19:01:18*
%MOMM*%
%LPD*%
G01*
G04 APERTURE LIST*
G04 Aperture macros list*
%AMRoundRect*
0 Rectangle with rounded corners*
0 $1 Rounding radius*
0 $2 $3 $4 $5 $6 $7 $8 $9 X,Y pos of 4 corners*
0 Add a 4 corners polygon primitive as box body*
4,1,4,$2,$3,$4,$5,$6,$7,$8,$9,$2,$3,0*
0 Add four circle primitives for the rounded corners*
1,1,$1+$1,$2,$3*
1,1,$1+$1,$4,$5*
1,1,$1+$1,$6,$7*
1,1,$1+$1,$8,$9*
0 Add four rect primitives between the rounded corners*
20,1,$1+$1,$2,$3,$4,$5,0*
20,1,$1+$1,$4,$5,$6,$7,0*
20,1,$1+$1,$6,$7,$8,$9,0*
20,1,$1+$1,$8,$9,$2,$3,0*%
G04 Aperture macros list end*
%TA.AperFunction,ComponentPad*%
%ADD10C,1.700000*%
%TD*%
%TA.AperFunction,ComponentPad*%
%ADD11R,1.300000X1.300000*%
%TD*%
%TA.AperFunction,ComponentPad*%
%ADD12C,1.300000*%
%TD*%
%TA.AperFunction,ComponentPad*%
%ADD13R,2.000000X2.000000*%
%TD*%
%TA.AperFunction,ComponentPad*%
%ADD14RoundRect,0.250000X-0.550000X0.550000X-0.550000X-0.550000X0.550000X-0.550000X0.550000X0.550000X0*%
%TD*%
%TA.AperFunction,ComponentPad*%
%ADD15C,1.600000*%
%TD*%
%TA.AperFunction,ComponentPad*%
%ADD16C,1.778000*%
%TD*%
%TA.AperFunction,ComponentPad*%
%ADD17C,2.000000*%
%TD*%
%TA.AperFunction,ComponentPad*%
%ADD18C,1.800000*%
%TD*%
%TA.AperFunction,ComponentPad*%
%ADD19C,0.910000*%
%TD*%
%TA.AperFunction,SMDPad,CuDef*%
%ADD20C,7.400000*%
%TD*%
%TA.AperFunction,ViaPad*%
%ADD21C,0.600000*%
%TD*%
%TA.AperFunction,Conductor*%
%ADD22C,0.500000*%
%TD*%
%TA.AperFunction,Conductor*%
%ADD23C,0.200000*%
%TD*%
%TA.AperFunction,Conductor*%
%ADD24C,0.800000*%
%TD*%
%TA.AperFunction,Conductor*%
%ADD25C,0.300000*%
%TD*%
G04 APERTURE END LIST*
D10*
%TO.P,J11,1,1*%
%TO.N,GND*%
X86240000Y-113970000D03*
%TO.P,J11,2,2*%
%TO.N,3.3V*%
X88780000Y-113970000D03*
%TO.P,J11,3,3*%
%TO.N,SDA*%
X91320000Y-113970000D03*
%TO.P,J11,4,4*%
%TO.N,SCL*%
X93860000Y-113970000D03*
%TD*%
D11*
%TO.P,J4,1,1*%
%TO.N,1.2V BT*%
X178400000Y-79400000D03*
D12*
%TO.P,J4,2,2*%
%TO.N,1.2V B*%
X178400000Y-81400000D03*
%TD*%
D13*
%TO.P,TP2,1,1*%
%TO.N,1.2V*%
X228200000Y-107500000D03*
%TD*%
D11*
%TO.P,J6,1,1*%
%TO.N,GND*%
X85600000Y-121800000D03*
D12*
%TO.P,J6,2,2*%
%TO.N,5.5V*%
X83600000Y-121800000D03*
%TO.P,J6,3,3*%
%TO.N,NC_REL*%
X81600000Y-121800000D03*
%TD*%
D11*
%TO.P,J8,1,1*%
%TO.N,GND*%
X133000000Y-127600000D03*
D12*
%TO.P,J8,2,2*%
%TO.N,3.3V*%
X131000000Y-127600000D03*
%TO.P,J8,3,3*%
%TO.N,SDA*%
X129000000Y-127600000D03*
%TO.P,J8,4,4*%
%TO.N,SCL*%
X127000000Y-127600000D03*
%TD*%
D14*
%TO.P,U4,1,\u002ACS*%
%TO.N,CS*%
X105400000Y-75590000D03*
D15*
%TO.P,U4,2,SO*%
%TO.N,MISO*%
X102860000Y-75590000D03*
%TO.P,U4,3,\u002AWP*%
%TO.N,3.3V*%
X100320000Y-75590000D03*
%TO.P,U4,4,VSS*%
%TO.N,GND*%
X97780000Y-75590000D03*
%TO.P,U4,5,SI*%
%TO.N,MOSI*%
X97780000Y-83210000D03*
%TO.P,U4,6,SCK*%
%TO.N,SCLK*%
X100320000Y-83210000D03*
%TO.P,U4,7,\u002AHOLD*%
%TO.N,3.3V*%
X102860000Y-83210000D03*
%TO.P,U4,8,VCC*%
X105400000Y-83210000D03*
%TD*%
%TO.P,R11,1*%
%TO.N,Net-(U5-FB)*%
X200000000Y-86000000D03*
%TO.P,R11,2*%
%TO.N,3.3V*%
X200000000Y-93620000D03*
%TD*%
D13*
%TO.P,TP5,1,1*%
%TO.N,5.5V*%
X228200000Y-89500000D03*
%TD*%
D11*
%TO.P,J1,1,1*%
%TO.N,GND*%
X178400000Y-126200000D03*
D12*
%TO.P,J1,2,2*%
%TO.N,3.6V BT*%
X178400000Y-128200000D03*
%TD*%
D11*
%TO.P,J14,1,1*%
%TO.N,GND*%
X115800000Y-72400000D03*
D12*
%TO.P,J14,2,2*%
%TO.N,5.5V*%
X117800000Y-72400000D03*
%TO.P,J14,3,3*%
%TO.N,G_CAM_IN*%
X119800000Y-72400000D03*
%TO.P,J14,4,4*%
%TO.N,G_CAM_OUT*%
X121800000Y-72400000D03*
%TD*%
D15*
%TO.P,R12,1*%
%TO.N,Net-(U6-FB)*%
X217200000Y-109535000D03*
%TO.P,R12,2*%
%TO.N,3.3V MCU*%
X217200000Y-101915000D03*
%TD*%
D16*
%TO.P,U2,JP1_1,VIN*%
%TO.N,3.3V*%
X116600000Y-99540000D03*
%TO.P,U2,JP1_2,3VO*%
%TO.N,unconnected-(U2-3VO-PadJP1_2)*%
X119140000Y-99540000D03*
%TO.P,U2,JP1_3,GND*%
%TO.N,GND*%
X121680000Y-99540000D03*
%TO.P,U2,JP1_4,SCL*%
%TO.N,SCL*%
X124220000Y-99540000D03*
%TO.P,U2,JP1_5,SDA*%
%TO.N,SDA*%
X126760000Y-99540000D03*
%TO.P,U2,JP1_6,~{INT}*%
%TO.N,IMU_INT*%
X129300000Y-99540000D03*
%TO.P,U2,JP2_1,BT*%
%TO.N,unconnected-(U2-BT-PadJP2_1)*%
X116600000Y-81760000D03*
%TO.P,U2,JP2_2,P0*%
%TO.N,GND*%
X119140000Y-81760000D03*
%TO.P,U2,JP2_3,P1*%
X121680000Y-81760000D03*
%TO.P,U2,JP2_4,~{RST}*%
%TO.N,3.3V*%
X124220000Y-81760000D03*
%TO.P,U2,JP2_5,DI*%
%TO.N,GND*%
X126760000Y-81760000D03*
%TO.P,U2,JP2_6,CS*%
%TO.N,3.3V*%
X129300000Y-81760000D03*
%TD*%
D13*
%TO.P,TP7,1,1*%
%TO.N,3.6V+*%
X228200000Y-104500000D03*
%TD*%
D14*
%TO.P,U1,1,X1*%
%TO.N,X1*%
X134010000Y-69395000D03*
D15*
%TO.P,U1,2,X2*%
%TO.N,X2*%
X131470000Y-69395000D03*
%TO.P,U1,3,VBAT*%
%TO.N,Net-(U1-VBAT)*%
X128930000Y-69395000D03*
%TO.P,U1,4,GND*%
%TO.N,GND*%
X126390000Y-69395000D03*
%TO.P,U1,5,SDA*%
%TO.N,SDA*%
X126390000Y-77015000D03*
%TO.P,U1,6,SCL*%
%TO.N,SCL*%
X128930000Y-77015000D03*
%TO.P,U1,7,SQW/OUT*%
%TO.N,unconnected-(U1-SQW{slash}OUT-Pad7)*%
X131470000Y-77015000D03*
%TO.P,U1,8,VCC*%
%TO.N,5.5V*%
X134010000Y-77015000D03*
%TD*%
D14*
%TO.P,U3,1,GND*%
%TO.N,GND*%
X105400000Y-116800000D03*
D15*
%TO.P,U3,2,TRIG*%
%TO.N,Net-(U3-THRES)*%
X102860000Y-116800000D03*
%TO.P,U3,3,OUT*%
%TO.N,Net-(BZ1-+)*%
X100320000Y-116800000D03*
%TO.P,U3,4,~{RST}*%
%TO.N,3.3V BZ*%
X97780000Y-116800000D03*
%TO.P,U3,5,CONT*%
%TO.N,Net-(U3-CONT)*%
X97780000Y-124420000D03*
%TO.P,U3,6,THRES*%
%TO.N,Net-(U3-THRES)*%
X100320000Y-124420000D03*
%TO.P,U3,7,DISCH*%
%TO.N,unconnected-(U3-DISCH-Pad7)*%
X102860000Y-124420000D03*
%TO.P,U3,8,VCC*%
%TO.N,3.3V BZ*%
X105400000Y-124420000D03*
%TD*%
D10*
%TO.P,U17,JP5_1,GND*%
%TO.N,GND*%
X186800000Y-106350000D03*
%TO.P,U17,JP5_2,DTR*%
%TO.N,unconnected-(U17-DTR-PadJP5_2)*%
X184260000Y-106350000D03*
%TO.P,U17,JP5_3,RES1*%
%TO.N,unconnected-(U17-RES1-PadJP5_3)*%
X181720000Y-106350000D03*
%TO.P,U17,JP5_4,DIO11*%
%TO.N,unconnected-(U17-DIO11-PadJP5_4)*%
X179180000Y-106350000D03*
%TO.P,U17,JP5_5,RSSI*%
%TO.N,unconnected-(U17-RSSI-PadJP5_5)*%
X176640000Y-106350000D03*
%TO.P,U17,JP5_6,RESET*%
%TO.N,unconnected-(U17-RESET-PadJP5_6)*%
X174100000Y-106350000D03*
%TO.P,U17,JP5_7,DIO12*%
%TO.N,unconnected-(U17-DIO12-PadJP5_7)*%
X171560000Y-106350000D03*
%TO.P,U17,JP5_8,DIN*%
%TO.N,XBEE_TX*%
X169020000Y-106350000D03*
%TO.P,U17,JP5_9,DOUT*%
%TO.N,XBEE_RX*%
X166480000Y-106350000D03*
%TO.P,U17,JP5_10,3.3V*%
%TO.N,3.3V*%
X163940000Y-106350000D03*
%TO.P,U17,JP5_11,GND*%
%TO.N,GND*%
X161400000Y-106350000D03*
%TO.P,U17,JP6_1,DIO0*%
%TO.N,unconnected-(U17-DIO0-PadJP6_1)*%
X161400000Y-93650000D03*
%TO.P,U17,JP6_2,DIO1*%
%TO.N,unconnected-(U17-DIO1-PadJP6_2)*%
X163940000Y-93650000D03*
%TO.P,U17,JP6_3,DIO2*%
%TO.N,unconnected-(U17-DIO2-PadJP6_3)*%
X166480000Y-93650000D03*
%TO.P,U17,JP6_4,DIO3*%
%TO.N,unconnected-(U17-DIO3-PadJP6_4)*%
X169020000Y-93650000D03*
%TO.P,U17,JP6_5,RTS*%
%TO.N,unconnected-(U17-RTS-PadJP6_5)*%
X171560000Y-93650000D03*
%TO.P,U17,JP6_6,DIO5*%
%TO.N,unconnected-(U17-DIO5-PadJP6_6)*%
X174100000Y-93650000D03*
%TO.P,U17,JP6_7,RES2*%
%TO.N,unconnected-(U17-RES2-PadJP6_7)*%
X176640000Y-93650000D03*
%TO.P,U17,JP6_8,DIO9*%
%TO.N,unconnected-(U17-DIO9-PadJP6_8)*%
X179180000Y-93650000D03*
%TO.P,U17,JP6_9,CTS*%
%TO.N,unconnected-(U17-CTS-PadJP6_9)*%
X181720000Y-93650000D03*
%TO.P,U17,JP6_10,DIO4*%
%TO.N,unconnected-(U17-DIO4-PadJP6_10)*%
X184260000Y-93650000D03*
%TO.P,U17,JP6_11,5V*%
%TO.N,unconnected-(U17-5V-PadJP6_11)*%
X186800000Y-93650000D03*
%TD*%
D15*
%TO.P,R9,1*%
%TO.N,GND*%
X204600000Y-93620000D03*
%TO.P,R9,2*%
%TO.N,Net-(U5-FB)*%
X204600000Y-86000000D03*
%TD*%
D11*
%TO.P,J15,1,1*%
%TO.N,GND*%
X121800000Y-127600000D03*
D12*
%TO.P,J15,2,2*%
%TO.N,5.5V*%
X119800000Y-127600000D03*
%TO.P,J15,3,3*%
%TO.N,PG_CAM_IN*%
X117800000Y-127600000D03*
%TO.P,J15,4,4*%
%TO.N,PG_CAM_OUT*%
X115800000Y-127600000D03*
%TD*%
D11*
%TO.P,J5,1,1*%
%TO.N,GND*%
X92600000Y-121800000D03*
D12*
%TO.P,J5,2,2*%
%TO.N,Net-(J5-Pad2)*%
X90600000Y-121800000D03*
%TD*%
D11*
%TO.P,J3,1,1*%
%TO.N,3.6V BT*%
X178400000Y-118600000D03*
D12*
%TO.P,J3,2,2*%
%TO.N,3.6V B*%
X178400000Y-120600000D03*
%TD*%
D13*
%TO.P,TP10,1,1*%
%TO.N,GND*%
X228200000Y-86500000D03*
%TD*%
%TO.P,TP8,1,1*%
%TO.N,3.3V*%
X228200000Y-98500000D03*
%TD*%
D11*
%TO.P,J10,1,1*%
%TO.N,GND*%
X194050000Y-120460000D03*
D12*
%TO.P,J10,2,2*%
%TO.N,5.5V*%
X196050000Y-120460000D03*
%TO.P,J10,3,3*%
%TO.N,ELEVATOR*%
X198050000Y-120460000D03*
%TD*%
D13*
%TO.P,BZ1,1,+*%
%TO.N,Net-(BZ1-+)*%
X158400000Y-121200000D03*
D17*
%TO.P,BZ1,2,-*%
%TO.N,GND*%
X166000000Y-121200000D03*
%TD*%
D11*
%TO.P,J2,1,1*%
%TO.N,GND*%
X178400000Y-71800000D03*
D12*
%TO.P,J2,2,2*%
%TO.N,1.2V BT*%
X178400000Y-73800000D03*
%TD*%
D18*
%TO.P,U15,CN2_1,VCC*%
%TO.N,unconnected-(U15-VCC-PadCN2_1)*%
X140920000Y-121336000D03*
%TO.P,U15,CN2_2,SWCLK*%
%TO.N,unconnected-(U15-SWCLK-PadCN2_2)*%
X138380000Y-123876000D03*
%TO.P,U15,CN2_3,GND_SWD*%
%TO.N,unconnected-(U15-GND_SWD-PadCN2_3)*%
X138380000Y-121336000D03*
%TO.P,U15,CN2_4,SWDIO*%
%TO.N,unconnected-(U15-SWDIO-PadCN2_4)*%
X138380000Y-118796000D03*
%TO.P,U15,CN3_1,VIN*%
%TO.N,unconnected-(U15-VIN-PadCN3_1)*%
X138380000Y-116256000D03*
%TO.P,U15,CN3_2,GND_CN3*%
%TO.N,GND*%
X138380000Y-113716000D03*
%TO.P,U15,CN3_3,~{RST}_CN3*%
%TO.N,unconnected-(U15-~{RST}_CN3-PadCN3_3)*%
X138380000Y-111176000D03*
%TO.P,U15,CN3_4,5V*%
%TO.N,unconnected-(U15-5V-PadCN3_4)*%
X138380000Y-108636000D03*
%TO.P,U15,CN3_5,PA2(A7)*%
%TO.N,unconnected-(U15-PA2(A7)-PadCN3_5)*%
X138380000Y-106096000D03*
%TO.P,U15,CN3_6,SPI_MOSI(PA7(A6))*%
%TO.N,MOSI*%
X138380000Y-103556000D03*
%TO.P,U15,CN3_7,SPI_MISO(PA6/PA15(A5))*%
%TO.N,MISO*%
X138380000Y-101016000D03*
%TO.P,U15,CN3_8,SPI_SCK(PA5/PB7(A4))*%
%TO.N,SCLK*%
X138380000Y-98476000D03*
%TO.P,U15,CN3_9,SPI_CS(PA4(A3))*%
%TO.N,CS*%
X138380000Y-95936000D03*
%TO.P,U15,CN3_10,PA3(A2)*%
%TO.N,unconnected-(U15-PA3(A2)-PadCN3_10)*%
X138380000Y-93396000D03*
%TO.P,U15,CN3_11,PWM_1(PA1(A1))*%
%TO.N,INV_PWM_1*%
X138380000Y-90856000D03*
%TO.P,U15,CN3_12,PWM_2(PA0(A0))*%
%TO.N,INV_PWM_2*%
X138380000Y-88316000D03*
%TO.P,U15,CN3_13,AREF*%
%TO.N,unconnected-(U15-AREF-PadCN3_13)*%
X138380000Y-85776000D03*
%TO.P,U15,CN3_14,3V3*%
%TO.N,3.3V MCU*%
X138380000Y-83236000D03*
%TO.P,U15,CN3_15,IMU_INT(PB3/PB8(D13))*%
%TO.N,IMU_INT*%
X138380000Y-80696000D03*
%TO.P,U15,CN4_1,XBEE_TX(PA9(D1))*%
%TO.N,XBEE_TX*%
X153620000Y-116256000D03*
%TO.P,U15,CN4_2,XBEE_RX(PA10(D0))*%
%TO.N,XBEE_RX*%
X153620000Y-113716000D03*
%TO.P,U15,CN4_3,~{RST}_CN4*%
%TO.N,unconnected-(U15-~{RST}_CN4-PadCN4_3)*%
X153620000Y-111176000D03*
%TO.P,U15,CN4_4,GND_CN4*%
%TO.N,GND*%
X153620000Y-108636000D03*
%TO.P,U15,CN4_5,NC_REL(PA12(D2))*%
%TO.N,NC_REL*%
X153620000Y-106096000D03*
%TO.P,U15,CN4_6,EGG_REL(PB0(D3))*%
%TO.N,EGG_REL*%
X153620000Y-103556000D03*
%TO.P,U15,CN4_7,I2C_SDA(PB7(D4))*%
%TO.N,SDA*%
X153620000Y-101016000D03*
%TO.P,U15,CN4_8,I2C_SCL(PA15(D5))*%
%TO.N,SCL*%
X153620000Y-98476000D03*
%TO.P,U15,CN4_9,G_CAM_IN(PB6(D6))*%
%TO.N,G_CAM_IN*%
X153620000Y-95936000D03*
%TO.P,U15,CN4_10,G_CAM_OUT(PF0(D7))*%
%TO.N,G_CAM_OUT*%
X153620000Y-93396000D03*
%TO.P,U15,CN4_11,PG_CAM_OUT(PF1(D8))*%
%TO.N,PG_CAM_OUT*%
X153620000Y-90856000D03*
%TO.P,U15,CN4_12,PG_CAM_IN(PA8(D9))*%
%TO.N,PG_CAM_IN*%
X153620000Y-88316000D03*
%TO.P,U15,CN4_13,CC_REL(PA11(D10))*%
%TO.N,CC_REL*%
X153620000Y-85776000D03*
%TO.P,U15,CN4_14,AILERON(PB5(D11))*%
%TO.N,AILERON*%
X153620000Y-83236000D03*
%TO.P,U15,CN4_15,ELEVATOR(PB4(D12))*%
%TO.N,ELEVATOR*%
X153620000Y-80696000D03*
%TD*%
D11*
%TO.P,J9,1,1*%
%TO.N,GND*%
X81600000Y-78200000D03*
D12*
%TO.P,J9,2,2*%
%TO.N,5.5V*%
X83600000Y-78200000D03*
%TO.P,J9,3,3*%
%TO.N,EGG_REL*%
X85600000Y-78200000D03*
%TD*%
D15*
%TO.P,R10,1*%
%TO.N,GND*%
X212600000Y-101915000D03*
%TO.P,R10,2*%
%TO.N,Net-(U6-FB)*%
X212600000Y-109535000D03*
%TD*%
D13*
%TO.P,TP1,1,1*%
%TO.N,1.2V B*%
X228200000Y-113500000D03*
%TD*%
D11*
%TO.P,J13,1,1*%
%TO.N,GND*%
X76600000Y-121800000D03*
D12*
%TO.P,J13,2,2*%
%TO.N,5.5V*%
X74600000Y-121800000D03*
%TO.P,J13,3,3*%
%TO.N,AILERON*%
X72600000Y-121800000D03*
%TD*%
D11*
%TO.P,J16,1,1*%
%TO.N,DC_PWM_1*%
X90600000Y-78200000D03*
D12*
%TO.P,J16,2,2*%
%TO.N,DC_PWM_2*%
X92600000Y-78200000D03*
%TD*%
D11*
%TO.P,J12,1,1*%
%TO.N,GND*%
X72600000Y-78200000D03*
D12*
%TO.P,J12,2,2*%
%TO.N,5.5V*%
X74600000Y-78200000D03*
%TO.P,J12,3,3*%
%TO.N,AILERON*%
X76600000Y-78200000D03*
%TD*%
D13*
%TO.P,TP3,1,1*%
%TO.N,3.6V-*%
X228200000Y-101500000D03*
%TD*%
D10*
%TO.P,U7,1,VIN*%
%TO.N,3.3V*%
X114060000Y-118240000D03*
%TO.P,U7,2,3Vo*%
%TO.N,unconnected-(U7-3Vo-Pad2)*%
X116600000Y-118240000D03*
%TO.P,U7,3,GND*%
%TO.N,GND*%
X119140000Y-118240000D03*
%TO.P,U7,4,SCL*%
%TO.N,SCL*%
X121680000Y-118240000D03*
%TO.P,U7,5,SDO*%
%TO.N,unconnected-(U7-SDO-Pad5)*%
X124220000Y-118240000D03*
%TO.P,U7,6,SDA*%
%TO.N,SDA*%
X126760000Y-118240000D03*
%TO.P,U7,7,CS*%
%TO.N,unconnected-(U7-CS-Pad7)*%
X129300000Y-118240000D03*
%TO.P,U7,8,INT*%
%TO.N,unconnected-(U7-INT-Pad8)*%
X131840000Y-118240000D03*
%TD*%
D19*
%TO.P,Y1,1*%
%TO.N,X1*%
X149472500Y-70565000D03*
%TO.P,Y1,2*%
%TO.N,X2*%
X149472500Y-71835000D03*
%TD*%
D13*
%TO.P,TP6,1,1*%
%TO.N,3.6V B*%
X228200000Y-110500000D03*
%TD*%
D11*
%TO.P,J7,1,1*%
%TO.N,GND*%
X198050000Y-127800000D03*
D12*
%TO.P,J7,2,2*%
%TO.N,5.5V*%
X196050000Y-127800000D03*
%TO.P,J7,3,3*%
%TO.N,CC_REL*%
X194050000Y-127800000D03*
%TD*%
D13*
%TO.P,TP9,1,1*%
%TO.N,3.3V BZ*%
X228200000Y-92500000D03*
%TD*%
%TO.P,TP4,1,1*%
%TO.N,3.3V MCU*%
X228200000Y-95500000D03*
%TD*%
D20*
%TO.P,REF\u002A\u002A,1*%
%TO.N,N/C*%
X109990000Y-127590000D03*
%TD*%
%TO.P,REF\u002A\u002A,1*%
%TO.N,N/C*%
X224990000Y-127590000D03*
%TD*%
%TO.P,REF\u002A\u002A,1*%
%TO.N,N/C*%
X109990000Y-72590000D03*
%TD*%
%TO.P,REF\u002A\u002A,1*%
%TO.N,N/C*%
X224990000Y-72590000D03*
%TD*%
D21*
%TO.N,Net-(U1-VBAT)*%
X157780000Y-75000000D03*
%TO.N,3.3V*%
X163940000Y-113600000D03*
X214800000Y-86335000D03*
X190200000Y-96200000D03*
X169695000Y-119600000D03*
X161400000Y-79000000D03*
X223000000Y-99250000D03*
X157300000Y-70400000D03*
X124220000Y-91600000D03*
X220800000Y-89600000D03*
X192780000Y-93620000D03*
X161400000Y-75000000D03*
%TO.N,CS*%
X126760000Y-92494000D03*
X115082588Y-83876235D03*
%TO.N,MOSI*%
X133110000Y-86776000D03*
%TO.N,MISO*%
X126760000Y-93396000D03*
X109400000Y-82800000D03*
%TO.N,SCLK*%
X133110000Y-85776000D03*
%TO.N,GND*%
X186600000Y-116850000D03*
X186900000Y-76665000D03*
X216500000Y-82372500D03*
X80400000Y-83000000D03*
X203000000Y-114375600D03*
X216200000Y-78364600D03*
X223200000Y-112750000D03*
X206100000Y-76364600D03*
X223200000Y-103750000D03*
X186600000Y-71015000D03*
X136200000Y-69395000D03*
X214200000Y-81150600D03*
X223200000Y-94750000D03*
X216650000Y-120697500D03*
X208500000Y-79002100D03*
X203837141Y-103200000D03*
X223200000Y-106750000D03*
X89162500Y-83900000D03*
X165400000Y-74600000D03*
X108500000Y-81800000D03*
X186900000Y-122500000D03*
X223200000Y-91750000D03*
X112800000Y-122600000D03*
X223200000Y-100750000D03*
X210900000Y-129060000D03*
X223200000Y-97750000D03*
X213362859Y-92335000D03*
X200700000Y-113162500D03*
X170965000Y-119600000D03*
X207780000Y-71402100D03*
X223200000Y-109750000D03*
X215337500Y-130497500D03*
X95000000Y-111037500D03*
X223200000Y-88750000D03*
%TO.N,5.5V*%
X111000000Y-118800000D03*
X216300000Y-116897500D03*
X212700000Y-127697500D03*
X84962500Y-80800000D03*
X111000000Y-113400000D03*
X196050000Y-131600000D03*
X225400000Y-85800000D03*
%TO.N,EGG_REL*%
X115082588Y-89800000D03*
X126760000Y-94298000D03*
%TO.N,AILERON*%
X148800000Y-83236000D03*
%TO.N,SCL*%
X155500000Y-73400000D03*
X169695000Y-114800000D03*
%TO.N,SDA*%
X153700000Y-78156000D03*
X121680000Y-101200000D03*
X170965000Y-114800000D03*
X153700000Y-73400000D03*
X156200000Y-79600000D03*
X126760000Y-95200000D03*
%TO.N,ELEVATOR*%
X156800000Y-80696000D03*
%TO.N,CC_REL*%
X156800000Y-85776000D03*
%TO.N,PG_CAM_OUT*%
X152000000Y-117526000D03*
%TO.N,PG_CAM_IN*%
X151200000Y-117526000D03*
%TO.N,NC_REL*%
X128200000Y-109906000D03*
X122800000Y-109906000D03*
%TO.N,3.3V MCU*%
X172830000Y-110000000D03*
X202400000Y-109200000D03*
X162600000Y-118000000D03*
X190000000Y-107697500D03*
%TO.N,3.3V BZ*%
X164800000Y-117000000D03*
X172800000Y-113400000D03*
X197400000Y-92200000D03*
X192780000Y-98400000D03*
X217600000Y-75800000D03*
X217600000Y-72800000D03*
%TO.N,DC_PWM_1*%
X94899874Y-82499874D03*
%TO.N,DC_PWM_2*%
X94899874Y-83500126D03*
%TO.N,INV_PWM_2*%
X87600000Y-83900000D03*
%TO.N,INV_PWM_1*%
X86800000Y-83900000D03*
%TO.N,3.6V B*%
X201200000Y-129800000D03*
X205600000Y-131600000D03*
X186900000Y-124000000D03*
X184800000Y-125295000D03*
%TO.N,1.2V B*%
X184800000Y-79460000D03*
X205200000Y-115600000D03*
X220400000Y-115600000D03*
X202400000Y-115600000D03*
X186900000Y-78165000D03*
%TO.N,3.6V-*%
X210000000Y-90703800D03*
X207200000Y-104831200D03*
X211700000Y-122744950D03*
X208900000Y-86637500D03*
X208300000Y-111335000D03*
X172235000Y-119600000D03*
X208300000Y-108897500D03*
X208300000Y-106897500D03*
X203400000Y-130400000D03*
X208900000Y-84200000D03*
X208900000Y-88637500D03*
X211700000Y-126497500D03*
%TO.N,1.2V*%
X206300000Y-75106700D03*
X190800000Y-83270000D03*
X192000000Y-73600000D03*
X223000000Y-108250000D03*
X210500000Y-77697500D03*
X220800000Y-91000000D03*
%TO.N,3.6V+*%
X193400000Y-116400000D03*
X216300000Y-114800000D03*
X190400000Y-129105000D03*
%TD*%
D22*
%TO.N,Net-(U1-VBAT)*%
X134535000Y-75000000D02*
X128930000Y-69395000D01*
X157780000Y-75000000D02*
X134535000Y-75000000D01*
%TO.N,3.3V*%
X163940000Y-106350000D02*
X174090000Y-96200000D01*
X174090000Y-96200000D02*
X190200000Y-96200000D01*
X131000000Y-127600000D02*
X129400000Y-126000000D01*
X169695000Y-119305000D02*
X172200000Y-116800000D01*
X161400000Y-74500000D02*
X157300000Y-70400000D01*
X101600000Y-115000000D02*
X110820000Y-115000000D01*
X132600000Y-126000000D02*
X131000000Y-127600000D01*
X223000000Y-99250000D02*
X223750000Y-98500000D01*
X124220000Y-91600000D02*
X124220000Y-81760000D01*
X158000000Y-126000000D02*
X132600000Y-126000000D01*
X161400000Y-75000000D02*
X161400000Y-74500000D01*
X129400000Y-126000000D02*
X121820000Y-126000000D01*
X114060000Y-118240000D02*
X116600000Y-115700000D01*
X209497500Y-87637500D02*
X205982500Y-87637500D01*
X200000000Y-93620000D02*
X205982500Y-87637500D01*
X90550000Y-112200000D02*
X98800000Y-112200000D01*
X172200000Y-114610000D02*
X163940000Y-106350000D01*
X163940000Y-106350000D02*
X158000000Y-100410000D01*
X98800000Y-112200000D02*
X101600000Y-115000000D01*
X169695000Y-119600000D02*
X169695000Y-119305000D01*
X172200000Y-116800000D02*
X172200000Y-114610000D01*
X210800000Y-86335000D02*
X209497500Y-87637500D01*
X105400000Y-83210000D02*
X116600000Y-94410000D01*
X163940000Y-113600000D02*
X163940000Y-120060000D01*
X88780000Y-113970000D02*
X90550000Y-112200000D01*
X124220000Y-81760000D02*
X125780000Y-80200000D01*
X102860000Y-83210000D02*
X105400000Y-83210000D01*
X200000000Y-93620000D02*
X192780000Y-93620000D01*
X121820000Y-126000000D02*
X114060000Y-118240000D01*
X116600000Y-94410000D02*
X116600000Y-99540000D01*
X127740000Y-80200000D02*
X129300000Y-81760000D01*
X214800000Y-86335000D02*
X210800000Y-86335000D01*
X163940000Y-120060000D02*
X158000000Y-126000000D01*
X158000000Y-82400000D02*
X161400000Y-79000000D01*
X125780000Y-80200000D02*
X127740000Y-80200000D01*
X220800000Y-89600000D02*
X217535000Y-86335000D01*
X110820000Y-115000000D02*
X114060000Y-118240000D01*
X158000000Y-100410000D02*
X158000000Y-82400000D01*
X217535000Y-86335000D02*
X214800000Y-86335000D01*
X223750000Y-98500000D02*
X228200000Y-98500000D01*
X116600000Y-115700000D02*
X116600000Y-99540000D01*
D23*
%TO.N,CS*%
X115082588Y-87957914D02*
X115082588Y-83876235D01*
X119618674Y-92494000D02*
X115082588Y-87957914D01*
X126760000Y-92494000D02*
X119618674Y-92494000D01*
%TO.N,MOSI*%
X136229000Y-89895000D02*
X136229000Y-101405000D01*
X136229000Y-101405000D02*
X138380000Y-103556000D01*
X133110000Y-86776000D02*
X136229000Y-89895000D01*
%TO.N,MISO*%
X109400000Y-82800000D02*
X119996000Y-93396000D01*
X119996000Y-93396000D02*
X126760000Y-93396000D01*
%TO.N,SCLK*%
X136600000Y-89266000D02*
X136600000Y-96696000D01*
X133110000Y-85776000D02*
X136600000Y-89266000D01*
X136600000Y-96696000D02*
X138380000Y-98476000D01*
D24*
%TO.N,5.5V*%
X111400000Y-79600000D02*
X85000000Y-79600000D01*
X167015000Y-77015000D02*
X181400000Y-91400000D01*
X74600000Y-118800000D02*
X76600000Y-116800000D01*
X76600000Y-83200000D02*
X74600000Y-81200000D01*
X181400000Y-91400000D02*
X187800000Y-91400000D01*
X194800000Y-115000000D02*
X196050000Y-116250000D01*
X74600000Y-121800000D02*
X74600000Y-118800000D01*
X218100000Y-118697500D02*
X216300000Y-116897500D01*
X204000000Y-131600000D02*
X196050000Y-131600000D01*
X74600000Y-81200000D02*
X74600000Y-78200000D01*
X76600000Y-116800000D02*
X76600000Y-83200000D01*
X187800000Y-91400000D02*
X194800000Y-98400000D01*
X83600000Y-113600000D02*
X87600000Y-109600000D01*
X218100000Y-123097500D02*
X218100000Y-118697500D01*
X212700000Y-127697500D02*
X213500000Y-127697500D01*
X134010000Y-77015000D02*
X127995000Y-71000000D01*
X117800000Y-73200000D02*
X111400000Y-79600000D01*
X107200000Y-109600000D02*
X111000000Y-113400000D01*
X85000000Y-79600000D02*
X83600000Y-78200000D01*
X213500000Y-127697500D02*
X218100000Y-123097500D01*
X225400000Y-86700000D02*
X228200000Y-89500000D01*
X134010000Y-77015000D02*
X167015000Y-77015000D01*
X87600000Y-109600000D02*
X107200000Y-109600000D01*
X83600000Y-113600000D02*
X83600000Y-121800000D01*
X207902500Y-127697500D02*
X204000000Y-131600000D01*
X225400000Y-85800000D02*
X225400000Y-86700000D01*
X212700000Y-127697500D02*
X207902500Y-127697500D01*
X111000000Y-118800000D02*
X119800000Y-127600000D01*
X117800000Y-72400000D02*
X117800000Y-73200000D01*
X119200000Y-71000000D02*
X117800000Y-72400000D01*
X196050000Y-116250000D02*
X196050000Y-120460000D01*
X194800000Y-98400000D02*
X194800000Y-115000000D01*
X127995000Y-71000000D02*
X119200000Y-71000000D01*
D23*
%TO.N,EGG_REL*%
X120373326Y-94298000D02*
X115875326Y-89800000D01*
X126760000Y-94298000D02*
X120373326Y-94298000D01*
X115875326Y-89800000D02*
X115082588Y-89800000D01*
%TO.N,AILERON*%
X153620000Y-83236000D02*
X148800000Y-83236000D01*
%TO.N,SCL*%
X131200000Y-92560000D02*
X131200000Y-79285000D01*
X124220000Y-99540000D02*
X131200000Y-92560000D01*
X155600000Y-100456000D02*
X153620000Y-98476000D01*
X169695000Y-114800000D02*
X167928674Y-114800000D01*
X167928674Y-114800000D02*
X155600000Y-102471326D01*
X131200000Y-79285000D02*
X128930000Y-77015000D01*
X155600000Y-102471326D02*
X155600000Y-100456000D01*
%TO.N,SDA*%
X121680000Y-101200000D02*
X125100000Y-101200000D01*
X128035326Y-95200000D02*
X130829000Y-92406326D01*
X170965000Y-114800000D02*
X170365000Y-115400000D01*
X125100000Y-101200000D02*
X126760000Y-99540000D01*
X126760000Y-95200000D02*
X128035326Y-95200000D01*
X130829000Y-81454000D02*
X126390000Y-77015000D01*
X130829000Y-92406326D02*
X130829000Y-81454000D01*
X170365000Y-115400000D02*
X168004000Y-115400000D01*
X156200000Y-79600000D02*
X155104000Y-79600000D01*
X153700000Y-78196000D02*
X153700000Y-78156000D01*
X155104000Y-79600000D02*
X153700000Y-78196000D01*
X168004000Y-115400000D02*
X153620000Y-101016000D01*
%TO.N,ELEVATOR*%
X156800000Y-80696000D02*
X153620000Y-80696000D01*
%TO.N,CC_REL*%
X156800000Y-85776000D02*
X153620000Y-85776000D01*
%TO.N,PG_CAM_OUT*%
X152001000Y-115999000D02*
X152001000Y-92475000D01*
X152001000Y-92475000D02*
X153620000Y-90856000D01*
X152000000Y-117526000D02*
X152000000Y-116000000D01*
X152000000Y-116000000D02*
X152001000Y-115999000D01*
%TO.N,PG_CAM_IN*%
X151600000Y-117000000D02*
X151200000Y-117400000D01*
X151600000Y-90336000D02*
X151600000Y-117000000D01*
X153620000Y-88316000D02*
X151600000Y-90336000D01*
X151200000Y-117400000D02*
X151200000Y-117526000D01*
%TO.N,NC_REL*%
X128200000Y-109906000D02*
X122800000Y-109906000D01*
D22*
%TO.N,3.3V MCU*%
X217200000Y-101915000D02*
X211217500Y-107897500D01*
X146000000Y-114400000D02*
X146000000Y-90856000D01*
X188102500Y-107697500D02*
X190000000Y-107697500D01*
X202400000Y-109200000D02*
X206400000Y-109200000D01*
X172830000Y-110000000D02*
X185800000Y-110000000D01*
X223615000Y-95500000D02*
X228200000Y-95500000D01*
X146000000Y-90856000D02*
X138380000Y-83236000D01*
X161800000Y-118800000D02*
X150400000Y-118800000D01*
X150400000Y-118800000D02*
X146000000Y-114400000D01*
X185800000Y-110000000D02*
X188102500Y-107697500D01*
X162600000Y-118000000D02*
X161800000Y-118800000D01*
X207702500Y-107897500D02*
X211217500Y-107897500D01*
X217200000Y-101915000D02*
X223615000Y-95500000D01*
X206400000Y-109200000D02*
X207702500Y-107897500D01*
%TO.N,3.3V BZ*%
X112000000Y-123200000D02*
X114400000Y-125600000D01*
X114400000Y-128400000D02*
X115600000Y-129600000D01*
X172800000Y-113400000D02*
X189000000Y-113400000D01*
X224400000Y-88700000D02*
X228200000Y-92500000D01*
X197400000Y-92200000D02*
X197400000Y-77600000D01*
X189000000Y-113400000D02*
X192780000Y-109620000D01*
X97780000Y-116800000D02*
X105400000Y-124420000D01*
X106620000Y-123200000D02*
X112000000Y-123200000D01*
X197400000Y-77600000D02*
X202200000Y-72800000D01*
X133901000Y-129600000D02*
X136800000Y-126701000D01*
X105400000Y-124420000D02*
X106620000Y-123200000D01*
X164800000Y-120191364D02*
X164800000Y-117000000D01*
X114400000Y-125600000D02*
X114400000Y-128400000D01*
X192780000Y-109620000D02*
X192780000Y-98400000D01*
X224400000Y-82600000D02*
X224400000Y-88700000D01*
X136800000Y-126701000D02*
X158290364Y-126701000D01*
X115600000Y-129600000D02*
X133901000Y-129600000D01*
X217600000Y-75800000D02*
X224400000Y-82600000D01*
X158290364Y-126701000D02*
X164800000Y-120191364D01*
X202200000Y-72800000D02*
X217600000Y-72800000D01*
%TO.N,3.6V B*%
X220200000Y-118500000D02*
X228200000Y-110500000D01*
X186095000Y-124000000D02*
X184800000Y-125295000D01*
X184800000Y-125295000D02*
X189553000Y-130048000D01*
X200952000Y-130048000D02*
X201200000Y-129800000D01*
X218000000Y-131600000D02*
X220200000Y-129400000D01*
X186900000Y-124000000D02*
X186095000Y-124000000D01*
X205600000Y-131600000D02*
X218000000Y-131600000D01*
X189553000Y-130048000D02*
X200952000Y-130048000D01*
X220200000Y-129400000D02*
X220200000Y-118500000D01*
D25*
%TO.N,1.2V B*%
X202400000Y-115600000D02*
X196462074Y-115600000D01*
X191200000Y-93737926D02*
X191200000Y-85860000D01*
X191200000Y-85860000D02*
X184800000Y-79460000D01*
X186095000Y-78165000D02*
X184800000Y-79460000D01*
X186900000Y-78165000D02*
X186095000Y-78165000D01*
X195600000Y-98137926D02*
X191200000Y-93737926D01*
X196462074Y-115600000D02*
X195600000Y-114737926D01*
X220400000Y-115600000D02*
X205200000Y-115600000D01*
X195600000Y-114737926D02*
X195600000Y-98137926D01*
D22*
%TO.N,3.6V-*%
X208300000Y-111335000D02*
X212865000Y-111335000D01*
X178549000Y-130749000D02*
X172235000Y-124435000D01*
X208300000Y-106897500D02*
X208300000Y-105931200D01*
X208900000Y-86637500D02*
X208900000Y-84200000D01*
X210000000Y-102031200D02*
X210000000Y-90703800D01*
X222700000Y-101500000D02*
X228200000Y-101500000D01*
X207200000Y-104831200D02*
X210000000Y-102031200D01*
X203400000Y-116235000D02*
X208300000Y-111335000D01*
X203051000Y-130749000D02*
X178549000Y-130749000D01*
X208300000Y-105931200D02*
X207200000Y-104831200D01*
X208900000Y-88637500D02*
X208900000Y-89603800D01*
X203400000Y-130400000D02*
X203051000Y-130749000D01*
X208300000Y-108897500D02*
X208300000Y-111335000D01*
X172235000Y-124435000D02*
X172235000Y-119600000D01*
X208900000Y-89603800D02*
X210000000Y-90703800D01*
X211700000Y-122744950D02*
X211700000Y-126497500D01*
X203400000Y-130400000D02*
X203400000Y-116235000D01*
X212865000Y-111335000D02*
X222700000Y-101500000D01*
D23*
%TO.N,IMU_INT*%
X129200000Y-99440000D02*
X129200000Y-95084674D01*
X129200000Y-95084674D02*
X131571000Y-92713673D01*
X129300000Y-99540000D02*
X129200000Y-99440000D01*
X137104000Y-80696000D02*
X138380000Y-80696000D01*
X131571000Y-92713673D02*
X131571000Y-86229000D01*
X131571000Y-86229000D02*
X137104000Y-80696000D01*
D22*
%TO.N,3.6V BT*%
X177000000Y-120000000D02*
X178400000Y-118600000D01*
X178400000Y-128200000D02*
X177000000Y-126800000D01*
X177000000Y-126800000D02*
X177000000Y-120000000D01*
D25*
%TO.N,1.2V*%
X210500000Y-77697500D02*
X208890800Y-77697500D01*
X212600000Y-79800000D02*
X210500000Y-77700000D01*
X190800000Y-83270000D02*
X192000000Y-82070000D01*
X217800000Y-79800000D02*
X212600000Y-79800000D01*
X223750000Y-107500000D02*
X223000000Y-108250000D01*
X220800000Y-91000000D02*
X221800000Y-90000000D01*
X221800000Y-83800000D02*
X217800000Y-79800000D01*
X192000000Y-82070000D02*
X192000000Y-73600000D01*
X221800000Y-90000000D02*
X221800000Y-83800000D01*
X228200000Y-107500000D02*
X223750000Y-107500000D01*
X208890800Y-77697500D02*
X206300000Y-75106700D01*
X210500000Y-77700000D02*
X210500000Y-77697500D01*
%TO.N,1.2V BT*%
X178400000Y-79400000D02*
X178400000Y-73800000D01*
D22*
%TO.N,3.6V+*%
X193400000Y-116400000D02*
X190400000Y-119400000D01*
X224100000Y-104500000D02*
X228200000Y-104500000D01*
X190400000Y-119400000D02*
X190400000Y-129105000D01*
X216300000Y-112300000D02*
X224100000Y-104500000D01*
X216300000Y-114800000D02*
X216300000Y-112300000D01*
%TD*%
%TA.AperFunction,Conductor*%
%TO.N,5.5V*%
G36*
X87506390Y-76419685D02*
G01*
X87552145Y-76472489D01*
X87563351Y-76524000D01*
X87563351Y-81076000D01*
X87543666Y-81143039D01*
X87490862Y-81188794D01*
X87439351Y-81200000D01*
X70687351Y-81200000D01*
X70620312Y-81180315D01*
X70574557Y-81127511D01*
X70563351Y-81076000D01*
X70563351Y-77502135D01*
X71449500Y-77502135D01*
X71449500Y-78897870D01*
X71449501Y-78897876D01*
X71455908Y-78957483D01*
X71506202Y-79092328D01*
X71506206Y-79092335D01*
X71592452Y-79207544D01*
X71592455Y-79207547D01*
X71707664Y-79293793D01*
X71707671Y-79293797D01*
X71842517Y-79344091D01*
X71842516Y-79344091D01*
X71849444Y-79344835D01*
X71902127Y-79350500D01*
X73297872Y-79350499D01*
X73357483Y-79344091D01*
X73492331Y-79293796D01*
X73607546Y-79207546D01*
X73693796Y-79092331D01*
X73744091Y-78957483D01*
X73750500Y-78897873D01*
X73750499Y-78109448D01*
X75449500Y-78109448D01*
X75449500Y-78290551D01*
X75477829Y-78469410D01*
X75533787Y-78641636D01*
X75533788Y-78641639D01*
X75616006Y-78802997D01*
X75722441Y-78949494D01*
X75722445Y-78949499D01*
X75850500Y-79077554D01*
X75850505Y-79077558D01*
X75978287Y-79170396D01*
X75997006Y-79183996D01*
X76102484Y-79237740D01*
X76158360Y-79266211D01*
X76158363Y-79266212D01*
X76243251Y-79293793D01*
X76330591Y-79322171D01*
X76413429Y-79335291D01*
X76509449Y-79350500D01*
X76509454Y-79350500D01*
X76690551Y-79350500D01*
X76777259Y-79336765D01*
X76869409Y-79322171D01*
X77041639Y-79266211D01*
X77202994Y-79183996D01*
X77349501Y-79077553D01*
X77477553Y-78949501D01*
X77583996Y-78802994D01*
X77666211Y-78641639D01*
X77722171Y-78469409D01*
X77736765Y-78377259D01*
X77750500Y-78290551D01*
X77750500Y-78109448D01*
X77734019Y-78005397D01*
X77722171Y-77930591D01*
X77666211Y-77758361D01*
X77666211Y-77758360D01*
X77583995Y-77597005D01*
X77565604Y-77571692D01*
X77515068Y-77502135D01*
X80449500Y-77502135D01*
X80449500Y-78897870D01*
X80449501Y-78897876D01*
X80455908Y-78957483D01*
X80506202Y-79092328D01*
X80506206Y-79092335D01*
X80592452Y-79207544D01*
X80592455Y-79207547D01*
X80707664Y-79293793D01*
X80707671Y-79293797D01*
X80842517Y-79344091D01*
X80842516Y-79344091D01*
X80849444Y-79344835D01*
X80902127Y-79350500D01*
X82297872Y-79350499D01*
X82357483Y-79344091D01*
X82492331Y-79293796D01*
X82607546Y-79207546D01*
X82693796Y-79092331D01*
X82744091Y-78957483D01*
X82750500Y-78897873D01*
X82750499Y-78109448D01*
X84449500Y-78109448D01*
X84449500Y-78290551D01*
X84477829Y-78469410D01*
X84533787Y-78641636D01*
X84533788Y-78641639D01*
X84616006Y-78802997D01*
X84722441Y-78949494D01*
X84722445Y-78949499D01*
X84850500Y-79077554D01*
X84850505Y-79077558D01*
X84978287Y-79170396D01*
X84997006Y-79183996D01*
X85102484Y-79237740D01*
X85158360Y-79266211D01*
X85158363Y-79266212D01*
X85243251Y-79293793D01*
X85330591Y-79322171D01*
X85413429Y-79335291D01*
X85509449Y-79350500D01*
X85509454Y-79350500D01*
X85690551Y-79350500D01*
X85777259Y-79336765D01*
X85869409Y-79322171D01*
X86041639Y-79266211D01*
X86202994Y-79183996D01*
X86349501Y-79077553D01*
X86477553Y-78949501D01*
X86583996Y-78802994D01*
X86666211Y-78641639D01*
X86722171Y-78469409D01*
X86736765Y-78377259D01*
X86750500Y-78290551D01*
X86750500Y-78109448D01*
X86734019Y-78005397D01*
X86722171Y-77930591D01*
X86666211Y-77758361D01*
X86666211Y-77758360D01*
X86637740Y-77702484D01*
X86583996Y-77597006D01*
X86515069Y-77502135D01*
X86477558Y-77450505D01*
X86477554Y-77450500D01*
X86349499Y-77322445D01*
X86349494Y-77322441D01*
X86202997Y-77216006D01*
X86202996Y-77216005D01*
X86202994Y-77216004D01*
X86151300Y-77189664D01*
X86041639Y-77133788D01*
X86041636Y-77133787D01*
X85869410Y-77077829D01*
X85690551Y-77049500D01*
X85690546Y-77049500D01*
X85509454Y-77049500D01*
X85509449Y-77049500D01*
X85330589Y-77077829D01*
X85158363Y-77133787D01*
X85158360Y-77133788D01*
X84997002Y-77216006D01*
X84850505Y-77322441D01*
X84850500Y-77322445D01*
X84722445Y-77450500D01*
X84722441Y-77450505D01*
X84616006Y-77597002D01*
X84533788Y-77758360D01*
X84533787Y-77758363D01*
X84477829Y-77930589D01*
X84449500Y-78109448D01*
X82750499Y-78109448D01*
X82750499Y-77502128D01*
X82744091Y-77442517D01*
X82693796Y-77307669D01*
X82693795Y-77307668D01*
X82693793Y-77307664D01*
X82607547Y-77192455D01*
X82607544Y-77192452D01*
X82492335Y-77106206D01*
X82492328Y-77106202D01*
X82357482Y-77055908D01*
X82357483Y-77055908D01*
X82297883Y-77049501D01*
X82297881Y-77049500D01*
X82297873Y-77049500D01*
X82297864Y-77049500D01*
X80902129Y-77049500D01*
X80902123Y-77049501D01*
X80842516Y-77055908D01*
X80707671Y-77106202D01*
X80707664Y-77106206D01*
X80592455Y-77192452D01*
X80592452Y-77192455D01*
X80506206Y-77307664D01*
X80506202Y-77307671D01*
X80455908Y-77442517D01*
X80449501Y-77502116D01*
X80449501Y-77502123D01*
X80449500Y-77502135D01*
X77515068Y-77502135D01*
X77477553Y-77450499D01*
X77349501Y-77322447D01*
X77349499Y-77322445D01*
X77349494Y-77322441D01*
X77202997Y-77216006D01*
X77202996Y-77216005D01*
X77202994Y-77216004D01*
X77151300Y-77189664D01*
X77041639Y-77133788D01*
X77041636Y-77133787D01*
X76869410Y-77077829D01*
X76690551Y-77049500D01*
X76690546Y-77049500D01*
X76509454Y-77049500D01*
X76509449Y-77049500D01*
X76330589Y-77077829D01*
X76158363Y-77133787D01*
X76158360Y-77133788D01*
X75997002Y-77216006D01*
X75850505Y-77322441D01*
X75850500Y-77322445D01*
X75722445Y-77450500D01*
X75722441Y-77450505D01*
X75616006Y-77597002D01*
X75533788Y-77758360D01*
X75533787Y-77758363D01*
X75477829Y-77930589D01*
X75449500Y-78109448D01*
X73750499Y-78109448D01*
X73750499Y-77502128D01*
X73744091Y-77442517D01*
X73693796Y-77307669D01*
X73693795Y-77307668D01*
X73693793Y-77307664D01*
X73607547Y-77192455D01*
X73607544Y-77192452D01*
X73492335Y-77106206D01*
X73492328Y-77106202D01*
X73357482Y-77055908D01*
X73357483Y-77055908D01*
X73297883Y-77049501D01*
X73297881Y-77049500D01*
X73297873Y-77049500D01*
X73297864Y-77049500D01*
X71902129Y-77049500D01*
X71902123Y-77049501D01*
X71842516Y-77055908D01*
X71707671Y-77106202D01*
X71707664Y-77106206D01*
X71592455Y-77192452D01*
X71592452Y-77192455D01*
X71506206Y-77307664D01*
X71506202Y-77307671D01*
X71455908Y-77442517D01*
X71449501Y-77502116D01*
X71449501Y-77502123D01*
X71449500Y-77502135D01*
X70563351Y-77502135D01*
X70563351Y-76524000D01*
X70583036Y-76456961D01*
X70635840Y-76411206D01*
X70687351Y-76400000D01*
X87439351Y-76400000D01*
X87506390Y-76419685D01*
G37*
%TD.AperFunction*%
%TD*%
%TA.AperFunction,Conductor*%
%TO.N,5.5V*%
G36*
X200143039Y-118619685D02*
G01*
X200188794Y-118672489D01*
X200200000Y-118724000D01*
X200200000Y-129173500D01*
X200180315Y-129240539D01*
X200127511Y-129286294D01*
X200076000Y-129297500D01*
X192124000Y-129297500D01*
X192056961Y-129277815D01*
X192011206Y-129225011D01*
X192000000Y-129173500D01*
X192000000Y-127709448D01*
X192899500Y-127709448D01*
X192899500Y-127890551D01*
X192927829Y-128069410D01*
X192983787Y-128241636D01*
X192983788Y-128241639D01*
X193066006Y-128402997D01*
X193172441Y-128549494D01*
X193172445Y-128549499D01*
X193300500Y-128677554D01*
X193300505Y-128677558D01*
X193428287Y-128770396D01*
X193447006Y-128783996D01*
X193552484Y-128837740D01*
X193608360Y-128866211D01*
X193608363Y-128866212D01*
X193693251Y-128893793D01*
X193780591Y-128922171D01*
X193863429Y-128935291D01*
X193959449Y-128950500D01*
X193959454Y-128950500D01*
X194140551Y-128950500D01*
X194227259Y-128936765D01*
X194319409Y-128922171D01*
X194491639Y-128866211D01*
X194652994Y-128783996D01*
X194799501Y-128677553D01*
X194927553Y-128549501D01*
X195033996Y-128402994D01*
X195116211Y-128241639D01*
X195172171Y-128069409D01*
X195186765Y-127977259D01*
X195200500Y-127890551D01*
X195200500Y-127709448D01*
X195184019Y-127605397D01*
X195172171Y-127530591D01*
X195116211Y-127358361D01*
X195116211Y-127358360D01*
X195033995Y-127197005D01*
X195015604Y-127171692D01*
X194965068Y-127102135D01*
X196899500Y-127102135D01*
X196899500Y-128497870D01*
X196899501Y-128497876D01*
X196905908Y-128557483D01*
X196956202Y-128692328D01*
X196956206Y-128692335D01*
X197042452Y-128807544D01*
X197042455Y-128807547D01*
X197157664Y-128893793D01*
X197157671Y-128893797D01*
X197292517Y-128944091D01*
X197292516Y-128944091D01*
X197299444Y-128944835D01*
X197352127Y-128950500D01*
X198747872Y-128950499D01*
X198807483Y-128944091D01*
X198942331Y-128893796D01*
X199057546Y-128807546D01*
X199143796Y-128692331D01*
X199194091Y-128557483D01*
X199200500Y-128497873D01*
X199200499Y-127102128D01*
X199194091Y-127042517D01*
X199143796Y-126907669D01*
X199143795Y-126907668D01*
X199143793Y-126907664D01*
X199057547Y-126792455D01*
X199057544Y-126792452D01*
X198942335Y-126706206D01*
X198942328Y-126706202D01*
X198807482Y-126655908D01*
X198807483Y-126655908D01*
X198747883Y-126649501D01*
X198747881Y-126649500D01*
X198747873Y-126649500D01*
X198747864Y-126649500D01*
X197352129Y-126649500D01*
X197352123Y-126649501D01*
X197292516Y-126655908D01*
X197157671Y-126706202D01*
X197157664Y-126706206D01*
X197042455Y-126792452D01*
X197042452Y-126792455D01*
X196956206Y-126907664D01*
X196956202Y-126907671D01*
X196905908Y-127042517D01*
X196899501Y-127102116D01*
X196899501Y-127102123D01*
X196899500Y-127102135D01*
X194965068Y-127102135D01*
X194927553Y-127050499D01*
X194799501Y-126922447D01*
X194799499Y-126922445D01*
X194799494Y-126922441D01*
X194652997Y-126816006D01*
X194652996Y-126816005D01*
X194652994Y-126816004D01*
X194601300Y-126789664D01*
X194491639Y-126733788D01*
X194491636Y-126733787D01*
X194319410Y-126677829D01*
X194140551Y-126649500D01*
X194140546Y-126649500D01*
X193959454Y-126649500D01*
X193959449Y-126649500D01*
X193780589Y-126677829D01*
X193608363Y-126733787D01*
X193608360Y-126733788D01*
X193447002Y-126816006D01*
X193300505Y-126922441D01*
X193300500Y-126922445D01*
X193172445Y-127050500D01*
X193172441Y-127050505D01*
X193066006Y-127197002D01*
X192983788Y-127358360D01*
X192983787Y-127358363D01*
X192927829Y-127530589D01*
X192899500Y-127709448D01*
X192000000Y-127709448D01*
X192000000Y-119762135D01*
X192899500Y-119762135D01*
X192899500Y-121157870D01*
X192899501Y-121157876D01*
X192905908Y-121217483D01*
X192956202Y-121352328D01*
X192956206Y-121352335D01*
X193042452Y-121467544D01*
X193042455Y-121467547D01*
X193157664Y-121553793D01*
X193157671Y-121553797D01*
X193292517Y-121604091D01*
X193292516Y-121604091D01*
X193299444Y-121604835D01*
X193352127Y-121610500D01*
X194747872Y-121610499D01*
X194807483Y-121604091D01*
X194942331Y-121553796D01*
X195057546Y-121467546D01*
X195143796Y-121352331D01*
X195194091Y-121217483D01*
X195200500Y-121157873D01*
X195200499Y-120369448D01*
X196899500Y-120369448D01*
X196899500Y-120550551D01*
X196927829Y-120729410D01*
X196983787Y-120901636D01*
X196983788Y-120901639D01*
X197066006Y-121062997D01*
X197172441Y-121209494D01*
X197172445Y-121209499D01*
X197300500Y-121337554D01*
X197300505Y-121337558D01*
X197428287Y-121430396D01*
X197447006Y-121443996D01*
X197552484Y-121497740D01*
X197608360Y-121526211D01*
X197608363Y-121526212D01*
X197693251Y-121553793D01*
X197780591Y-121582171D01*
X197863429Y-121595291D01*
X197959449Y-121610500D01*
X197959454Y-121610500D01*
X198140551Y-121610500D01*
X198227259Y-121596765D01*
X198319409Y-121582171D01*
X198491639Y-121526211D01*
X198652994Y-121443996D01*
X198799501Y-121337553D01*
X198927553Y-121209501D01*
X199033996Y-121062994D01*
X199116211Y-120901639D01*
X199172171Y-120729409D01*
X199186765Y-120637259D01*
X199200500Y-120550551D01*
X199200500Y-120369448D01*
X199184019Y-120265397D01*
X199172171Y-120190591D01*
X199116211Y-120018361D01*
X199116211Y-120018360D01*
X199087740Y-119962484D01*
X199033996Y-119857006D01*
X198965069Y-119762135D01*
X198927558Y-119710505D01*
X198927554Y-119710500D01*
X198799499Y-119582445D01*
X198799494Y-119582441D01*
X198652997Y-119476006D01*
X198652996Y-119476005D01*
X198652994Y-119476004D01*
X198601300Y-119449664D01*
X198491639Y-119393788D01*
X198491636Y-119393787D01*
X198319410Y-119337829D01*
X198140551Y-119309500D01*
X198140546Y-119309500D01*
X197959454Y-119309500D01*
X197959449Y-119309500D01*
X197780589Y-119337829D01*
X197608363Y-119393787D01*
X197608360Y-119393788D01*
X197447002Y-119476006D01*
X197300505Y-119582441D01*
X197300500Y-119582445D01*
X197172445Y-119710500D01*
X197172441Y-119710505D01*
X197066006Y-119857002D01*
X196983788Y-120018360D01*
X196983787Y-120018363D01*
X196927829Y-120190589D01*
X196899500Y-120369448D01*
X195200499Y-120369448D01*
X195200499Y-119762128D01*
X195194091Y-119702517D01*
X195162908Y-119618912D01*
X195143797Y-119567671D01*
X195143793Y-119567664D01*
X195057547Y-119452455D01*
X195057544Y-119452452D01*
X194942335Y-119366206D01*
X194942328Y-119366202D01*
X194807482Y-119315908D01*
X194807483Y-119315908D01*
X194747883Y-119309501D01*
X194747881Y-119309500D01*
X194747873Y-119309500D01*
X194747864Y-119309500D01*
X193352129Y-119309500D01*
X193352123Y-119309501D01*
X193292516Y-119315908D01*
X193157671Y-119366202D01*
X193157664Y-119366206D01*
X193042455Y-119452452D01*
X193042452Y-119452455D01*
X192956206Y-119567664D01*
X192956202Y-119567671D01*
X192905908Y-119702517D01*
X192900213Y-119755494D01*
X192899501Y-119762123D01*
X192899500Y-119762135D01*
X192000000Y-119762135D01*
X192000000Y-118912729D01*
X192019685Y-118845690D01*
X192036316Y-118825051D01*
X192225049Y-118636319D01*
X192286372Y-118602834D01*
X192312730Y-118600000D01*
X200076000Y-118600000D01*
X200143039Y-118619685D01*
G37*
%TD.AperFunction*%
%TD*%
%TA.AperFunction,Conductor*%
%TO.N,5.5V*%
G36*
X87503505Y-118819685D02*
G01*
X87549260Y-118872489D01*
X87560466Y-118924000D01*
X87560466Y-123476000D01*
X87540781Y-123543039D01*
X87487977Y-123588794D01*
X87436466Y-123600000D01*
X70684466Y-123600000D01*
X70617427Y-123580315D01*
X70571672Y-123527511D01*
X70560466Y-123476000D01*
X70560466Y-121709448D01*
X71449500Y-121709448D01*
X71449500Y-121890551D01*
X71477829Y-122069410D01*
X71533787Y-122241636D01*
X71533788Y-122241639D01*
X71616006Y-122402997D01*
X71722441Y-122549494D01*
X71722445Y-122549499D01*
X71850500Y-122677554D01*
X71850505Y-122677558D01*
X71978287Y-122770396D01*
X71997006Y-122783996D01*
X72102484Y-122837740D01*
X72158360Y-122866211D01*
X72158363Y-122866212D01*
X72243251Y-122893793D01*
X72330591Y-122922171D01*
X72413429Y-122935291D01*
X72509449Y-122950500D01*
X72509454Y-122950500D01*
X72690551Y-122950500D01*
X72777259Y-122936765D01*
X72869409Y-122922171D01*
X73041639Y-122866211D01*
X73202994Y-122783996D01*
X73349501Y-122677553D01*
X73477553Y-122549501D01*
X73583996Y-122402994D01*
X73666211Y-122241639D01*
X73722171Y-122069409D01*
X73736765Y-121977259D01*
X73750500Y-121890551D01*
X73750500Y-121709448D01*
X73734019Y-121605397D01*
X73722171Y-121530591D01*
X73666211Y-121358361D01*
X73666211Y-121358360D01*
X73583995Y-121197005D01*
X73565604Y-121171692D01*
X73515068Y-121102135D01*
X75449500Y-121102135D01*
X75449500Y-122497870D01*
X75449501Y-122497876D01*
X75455908Y-122557483D01*
X75506202Y-122692328D01*
X75506206Y-122692335D01*
X75592452Y-122807544D01*
X75592455Y-122807547D01*
X75707664Y-122893793D01*
X75707671Y-122893797D01*
X75842517Y-122944091D01*
X75842516Y-122944091D01*
X75849444Y-122944835D01*
X75902127Y-122950500D01*
X77297872Y-122950499D01*
X77357483Y-122944091D01*
X77492331Y-122893796D01*
X77607546Y-122807546D01*
X77693796Y-122692331D01*
X77744091Y-122557483D01*
X77750500Y-122497873D01*
X77750499Y-121709448D01*
X80449500Y-121709448D01*
X80449500Y-121890551D01*
X80477829Y-122069410D01*
X80533787Y-122241636D01*
X80533788Y-122241639D01*
X80616006Y-122402997D01*
X80722441Y-122549494D01*
X80722445Y-122549499D01*
X80850500Y-122677554D01*
X80850505Y-122677558D01*
X80978287Y-122770396D01*
X80997006Y-122783996D01*
X81102484Y-122837740D01*
X81158360Y-122866211D01*
X81158363Y-122866212D01*
X81243251Y-122893793D01*
X81330591Y-122922171D01*
X81413429Y-122935291D01*
X81509449Y-122950500D01*
X81509454Y-122950500D01*
X81690551Y-122950500D01*
X81777259Y-122936765D01*
X81869409Y-122922171D01*
X82041639Y-122866211D01*
X82202994Y-122783996D01*
X82349501Y-122677553D01*
X82477553Y-122549501D01*
X82583996Y-122402994D01*
X82666211Y-122241639D01*
X82722171Y-122069409D01*
X82736765Y-121977259D01*
X82750500Y-121890551D01*
X82750500Y-121709448D01*
X82734019Y-121605397D01*
X82722171Y-121530591D01*
X82666211Y-121358361D01*
X82666211Y-121358360D01*
X82583995Y-121197005D01*
X82565604Y-121171692D01*
X82515068Y-121102135D01*
X84449500Y-121102135D01*
X84449500Y-122497870D01*
X84449501Y-122497876D01*
X84455908Y-122557483D01*
X84506202Y-122692328D01*
X84506206Y-122692335D01*
X84592452Y-122807544D01*
X84592455Y-122807547D01*
X84707664Y-122893793D01*
X84707671Y-122893797D01*
X84842517Y-122944091D01*
X84842516Y-122944091D01*
X84849444Y-122944835D01*
X84902127Y-122950500D01*
X86297872Y-122950499D01*
X86357483Y-122944091D01*
X86492331Y-122893796D01*
X86607546Y-122807546D01*
X86693796Y-122692331D01*
X86744091Y-122557483D01*
X86750500Y-122497873D01*
X86750499Y-121102128D01*
X86744091Y-121042517D01*
X86693796Y-120907669D01*
X86693795Y-120907668D01*
X86693793Y-120907664D01*
X86607547Y-120792455D01*
X86607544Y-120792452D01*
X86492335Y-120706206D01*
X86492328Y-120706202D01*
X86357482Y-120655908D01*
X86357483Y-120655908D01*
X86297883Y-120649501D01*
X86297881Y-120649500D01*
X86297873Y-120649500D01*
X86297864Y-120649500D01*
X84902129Y-120649500D01*
X84902123Y-120649501D01*
X84842516Y-120655908D01*
X84707671Y-120706202D01*
X84707664Y-120706206D01*
X84592455Y-120792452D01*
X84592452Y-120792455D01*
X84506206Y-120907664D01*
X84506202Y-120907671D01*
X84455908Y-121042517D01*
X84449501Y-121102116D01*
X84449501Y-121102123D01*
X84449500Y-121102135D01*
X82515068Y-121102135D01*
X82477553Y-121050499D01*
X82349501Y-120922447D01*
X82349499Y-120922445D01*
X82349494Y-120922441D01*
X82202997Y-120816006D01*
X82202996Y-120816005D01*
X82202994Y-120816004D01*
X82151300Y-120789664D01*
X82041639Y-120733788D01*
X82041636Y-120733787D01*
X81869410Y-120677829D01*
X81690551Y-120649500D01*
X81690546Y-120649500D01*
X81509454Y-120649500D01*
X81509449Y-120649500D01*
X81330589Y-120677829D01*
X81158363Y-120733787D01*
X81158360Y-120733788D01*
X80997002Y-120816006D01*
X80850505Y-120922441D01*
X80850500Y-120922445D01*
X80722445Y-121050500D01*
X80722441Y-121050505D01*
X80616006Y-121197002D01*
X80533788Y-121358360D01*
X80533787Y-121358363D01*
X80477829Y-121530589D01*
X80449500Y-121709448D01*
X77750499Y-121709448D01*
X77750499Y-121102128D01*
X77744091Y-121042517D01*
X77693796Y-120907669D01*
X77693795Y-120907668D01*
X77693793Y-120907664D01*
X77607547Y-120792455D01*
X77607544Y-120792452D01*
X77492335Y-120706206D01*
X77492328Y-120706202D01*
X77357482Y-120655908D01*
X77357483Y-120655908D01*
X77297883Y-120649501D01*
X77297881Y-120649500D01*
X77297873Y-120649500D01*
X77297864Y-120649500D01*
X75902129Y-120649500D01*
X75902123Y-120649501D01*
X75842516Y-120655908D01*
X75707671Y-120706202D01*
X75707664Y-120706206D01*
X75592455Y-120792452D01*
X75592452Y-120792455D01*
X75506206Y-120907664D01*
X75506202Y-120907671D01*
X75455908Y-121042517D01*
X75449501Y-121102116D01*
X75449501Y-121102123D01*
X75449500Y-121102135D01*
X73515068Y-121102135D01*
X73477553Y-121050499D01*
X73349501Y-120922447D01*
X73349499Y-120922445D01*
X73349494Y-120922441D01*
X73202997Y-120816006D01*
X73202996Y-120816005D01*
X73202994Y-120816004D01*
X73151300Y-120789664D01*
X73041639Y-120733788D01*
X73041636Y-120733787D01*
X72869410Y-120677829D01*
X72690551Y-120649500D01*
X72690546Y-120649500D01*
X72509454Y-120649500D01*
X72509449Y-120649500D01*
X72330589Y-120677829D01*
X72158363Y-120733787D01*
X72158360Y-120733788D01*
X71997002Y-120816006D01*
X71850505Y-120922441D01*
X71850500Y-120922445D01*
X71722445Y-121050500D01*
X71722441Y-121050505D01*
X71616006Y-121197002D01*
X71533788Y-121358360D01*
X71533787Y-121358363D01*
X71477829Y-121530589D01*
X71449500Y-121709448D01*
X70560466Y-121709448D01*
X70560466Y-118924000D01*
X70580151Y-118856961D01*
X70632955Y-118811206D01*
X70684466Y-118800000D01*
X87436466Y-118800000D01*
X87503505Y-118819685D01*
G37*
%TD.AperFunction*%
%TD*%
M02*
