999
DXF File generated by ImageToStl.com - Free Image and 3D model conversion tools
0
SECTION
2
HEADER
9
$ACADVER
1
AC1009
9
$EXTMIN
10
0
20
0
9
$EXTMAX
10
668.856192
20
235.000000
0
ENDSEC
0
SECTION
2
ENTITIES
0
LINE
8
0
10
571.000000
20
181.503178
11
550.424253
21
185.486060
0
LINE
8
0
10
550.424253
20
185.486060
11
507.581581
21
192.591559
0
LINE
8
0
10
507.581581
20
192.591559
11
463.325478
21
198.438861
0
LINE
8
0
10
463.325478
20
198.438861
11
418.665708
21
202.894552
0
LINE
8
0
10
418.665708
20
202.894552
11
396.500000
21
204.558850
0
LINE
8
0
10
396.500000
20
204.558850
11
390.817325
21
204.931916
0
LINE
8
0
10
390.817325
20
204.931916
11
381.705121
21
205.534000
0
LINE
8
0
10
381.705121
20
205.534000
11
375.160942
21
206.057425
0
LINE
8
0
10
375.160942
20
206.057425
11
370.661384
21
206.638272
0
LINE
8
0
10
370.661384
20
206.638272
11
366.600762
21
207.914888
0
LINE
8
0
10
366.600762
20
207.914888
11
363.457659
21
211.088120
0
LINE
8
0
10
363.457659
20
211.088120
11
361.681757
21
213.611383
0
LINE
8
0
10
361.681757
20
213.611383
11
359.765674
21
216.123665
0
LINE
8
0
10
359.765674
20
216.123665
11
357.402918
21
218.784715
0
LINE
8
0
10
357.402918
20
218.784715
11
356.431258
21
219.537098
0
LINE
8
0
10
356.431258
20
219.537098
11
356.194005
21
219.533919
0
LINE
8
0
10
356.194005
20
219.533919
11
355.605851
21
218.862078
0
LINE
8
0
10
355.605851
20
218.862078
11
353.084167
21
215.761554
0
LINE
8
0
10
353.084167
20
215.761554
11
351.461225
21
213.714754
0
LINE
8
0
10
351.461225
20
213.714754
11
347.422449
21
208.583014
0
LINE
8
0
10
347.422449
20
208.583014
11
276.961225
21
208.471407
0
LINE
8
0
10
276.961225
20
208.471407
11
261.435561
21
208.425324
0
LINE
8
0
10
261.435561
20
208.425324
11
239.759123
21
208.282415
0
LINE
8
0
10
239.759123
20
208.282415
11
226.686014
21
208.142405
0
LINE
8
0
10
226.686014
20
208.142405
11
214.957701
21
207.970167
0
LINE
8
0
10
214.957701
20
207.970167
11
204.782054
21
207.768753
0
LINE
8
0
10
204.782054
20
207.768753
11
196.366943
21
207.541217
0
LINE
8
0
10
196.366943
20
207.541217
11
189.920240
21
207.290610
0
LINE
8
0
10
189.920240
20
207.290610
11
187.500000
21
207.157609
0
LINE
8
0
10
187.500000
20
207.157609
11
177.834460
21
206.532418
0
LINE
8
0
10
177.834460
20
206.532418
11
159.298695
21
205.249970
0
LINE
8
0
10
159.298695
20
205.249970
11
133.367576
21
203.235497
0
LINE
8
0
10
133.367576
20
203.235497
11
101.964016
21
200.350261
0
LINE
8
0
10
101.964016
20
200.350261
11
73.732014
21
197.195687
0
LINE
8
0
10
73.732014
20
197.195687
11
60.651003
21
195.503218
0
LINE
8
0
10
60.651003
20
195.503218
11
55.744783
21
194.837165
0
LINE
8
0
10
55.744783
20
194.837165
11
47.711137
21
193.749975
0
LINE
8
0
10
47.711137
20
193.749975
11
41.788918
21
192.958867
0
LINE
8
0
10
41.788918
20
192.958867
11
37.665770
21
192.427274
0
LINE
8
0
10
37.665770
20
192.427274
11
35.029333
21
192.118629
0
LINE
8
0
10
35.029333
20
192.118629
11
33.567251
21
191.996363
0
LINE
8
0
10
33.567251
20
191.996363
11
32.892761
21
192.082435
0
LINE
8
0
10
32.892761
20
192.082435
11
33.000000
21
192.266135
0
LINE
8
0
10
33.000000
20
192.266135
11
33.273926
21
192.447268
0
LINE
8
0
10
33.273926
20
192.447268
11
34.735840
21
193.168725
0
LINE
8
0
10
34.735840
20
193.168725
11
38.660156
21
194.900944
0
LINE
8
0
10
38.660156
20
194.900944
11
42.000000
21
196.296263
0
LINE
8
0
10
42.000000
20
196.296263
11
44.099163
21
197.086616
0
LINE
8
0
10
44.099163
20
197.086616
11
49.480023
21
198.746767
0
LINE
8
0
10
49.480023
20
198.746767
11
56.330272
21
200.497144
0
LINE
8
0
10
56.330272
20
200.497144
11
64.521126
21
202.318910
0
LINE
8
0
10
64.521126
20
202.318910
11
73.923799
21
204.193225
0
LINE
8
0
10
73.923799
20
204.193225
11
84.409506
21
206.101251
0
LINE
8
0
10
84.409506
20
206.101251
11
101.887036
21
208.985285
0
LINE
8
0
10
101.887036
20
208.985285
11
127.779030
21
212.772820
0
LINE
8
0
10
127.779030
20
212.772820
11
155.685021
21
216.356093
0
LINE
8
0
10
155.685021
20
216.356093
11
199.066506
21
221.018331
0
LINE
8
0
10
199.066506
20
221.018331
11
227.500000
21
223.431587
0
LINE
8
0
10
227.500000
20
223.431587
11
235.560786
21
224.020696
0
LINE
8
0
10
235.560786
20
224.020696
11
250.468180
21
225.027612
0
LINE
8
0
10
250.468180
20
225.027612
11
271.094631
21
226.151364
0
LINE
8
0
10
271.094631
20
226.151364
11
291.720800
21
226.877789
0
LINE
8
0
10
291.720800
20
226.877789
11
306.627693
21
227.178345
0
LINE
8
0
10
306.627693
20
227.178345
11
323.268864
21
227.357827
0
LINE
8
0
10
323.268864
20
227.357827
11
342.338077
21
227.438440
0
LINE
8
0
10
342.338077
20
227.438440
11
353.000000
21
227.448610
0
LINE
8
0
10
353.000000
20
227.448610
11
369.073762
21
227.401814
0
LINE
8
0
10
369.073762
20
227.401814
11
399.775916
21
227.004694
0
LINE
8
0
10
399.775916
20
227.004694
11
428.873149
21
226.182035
0
LINE
8
0
10
428.873149
20
226.182035
11
456.752145
21
224.908835
0
LINE
8
0
10
456.752145
20
224.908835
11
497.132325
21
222.099583
0
LINE
8
0
10
497.132325
20
222.099583
11
550.317816
21
216.543678
0
LINE
8
0
10
550.317816
20
216.543678
11
577.500000
21
212.933658
0
LINE
8
0
10
577.500000
20
212.933658
11
583.650686
21
212.039328
0
LINE
8
0
10
583.650686
20
212.039328
11
597.378313
21
209.916386
0
LINE
8
0
10
597.378313
20
209.916386
11
619.679536
21
206.226709
0
LINE
8
0
10
619.679536
20
206.226709
11
641.063130
21
202.459426
0
LINE
8
0
10
641.063130
20
202.459426
11
653.159419
21
200.198517
0
LINE
8
0
10
653.159419
20
200.198517
11
662.373401
21
198.343707
0
LINE
8
0
10
662.373401
20
198.343707
11
666.796954
21
197.325120
0
LINE
8
0
10
666.796954
20
197.325120
11
668.329754
21
196.864758
0
LINE
8
0
10
668.329754
20
196.864758
11
668.624887
21
196.708446
0
LINE
8
0
10
668.624887
20
196.708446
11
668.463143
21
196.635640
0
LINE
8
0
10
668.463143
20
196.635640
11
667.104980
21
196.201980
0
LINE
8
0
10
667.104980
20
196.201980
11
664.513682
21
195.425760
0
LINE
8
0
10
664.513682
20
195.425760
11
660.864972
21
194.356786
0
LINE
8
0
10
660.864972
20
194.356786
11
653.793647
21
192.313364
0
LINE
8
0
10
653.793647
20
192.313364
11
642.304334
21
189.029020
0
LINE
8
0
10
642.304334
20
189.029020
11
629.748351
21
185.470171
0
LINE
8
0
10
629.748351
20
185.470171
11
617.531467
21
182.035268
0
LINE
8
0
10
617.531467
20
182.035268
11
607.059452
21
179.122758
0
LINE
8
0
10
607.059452
20
179.122758
11
601.196169
21
177.520889
0
LINE
8
0
10
601.196169
20
177.520889
11
598.564756
21
176.823750
0
LINE
8
0
10
598.564756
20
176.823750
11
597.698178
21
176.605089
0
LINE
8
0
10
597.698178
20
176.605089
11
596.937030
21
176.652297
0
LINE
8
0
10
596.937030
20
176.652297
11
592.659107
21
177.331492
0
LINE
8
0
10
592.659107
20
177.331492
11
585.437041
21
178.656464
0
LINE
8
0
10
585.437041
20
178.656464
11
576.146867
21
180.466492
0
LINE
8
0
10
576.146867
20
180.466492
11
571.000000
21
181.503178
0
LINE
8
0
10
468.000000
20
129.500000
11
468.000000
21
170.000000
0
LINE
8
0
10
468.000000
20
170.000000
11
478.892857
21
170.000000
0
LINE
8
0
10
478.892857
20
170.000000
11
489.785715
21
170.000000
0
LINE
8
0
10
489.785715
20
170.000000
11
502.891422
21
146.693092
0
LINE
8
0
10
502.891422
20
146.693092
11
505.554078
21
141.971567
0
LINE
8
0
10
505.554078
20
141.971567
11
510.457665
21
133.352359
0
LINE
8
0
10
510.457665
20
133.352359
11
514.400408
21
126.522037
0
LINE
8
0
10
514.400408
20
126.522037
11
516.904054
21
122.309116
0
LINE
8
0
10
516.904054
20
122.309116
11
517.466761
21
121.443092
0
LINE
8
0
10
517.466761
20
121.443092
11
517.904965
21
121.028905
0
LINE
8
0
10
517.904965
20
121.028905
11
518.508122
21
122.144373
0
LINE
8
0
10
518.508122
20
122.144373
11
518.767476
21
125.397157
0
LINE
8
0
10
518.767476
20
125.397157
11
518.870411
21
129.056872
0
LINE
8
0
10
518.870411
20
129.056872
11
518.931025
21
134.121488
0
LINE
8
0
10
518.931025
20
134.121488
11
518.961022
21
140.772673
0
LINE
8
0
10
518.961022
20
140.772673
11
518.968197
21
144.750000
0
LINE
8
0
10
518.968197
20
144.750000
11
519.000000
21
170.000000
0
LINE
8
0
10
519.000000
20
170.000000
11
528.500000
21
170.000000
0
LINE
8
0
10
528.500000
20
170.000000
11
538.000000
21
170.000000
0
LINE
8
0
10
538.000000
20
170.000000
11
538.000000
21
129.466168
0
LINE
8
0
10
538.000000
20
129.466168
11
538.000000
21
88.932337
0
LINE
8
0
10
538.000000
20
88.932337
11
527.395554
21
89.216168
0
LINE
8
0
10
527.395554
20
89.216168
11
516.791108
21
89.500000
0
LINE
8
0
10
516.791108
20
89.500000
11
502.645554
21
114.819782
0
LINE
8
0
10
502.645554
20
114.819782
11
488.500000
21
140.139565
0
LINE
8
0
10
488.500000
20
140.139565
11
488.233118
21
114.569782
0
LINE
8
0
10
488.233118
20
114.569782
11
487.966235
21
89.000000
0
LINE
8
0
10
487.966235
20
89.000000
11
477.983118
21
89.000000
0
LINE
8
0
10
477.983118
20
89.000000
11
468.000000
21
89.000000
0
LINE
8
0
10
468.000000
20
89.000000
11
468.000000
21
129.500000
0
LINE
8
0
10
182.286112
20
92.215888
11
182.495032
21
92.743685
0
LINE
8
0
10
182.495032
20
92.743685
11
183.312870
21
94.871675
0
LINE
8
0
10
183.312870
20
94.871675
11
184.611845
21
98.290981
0
LINE
8
0
10
184.611845
20
98.290981
11
186.329319
21
102.835351
0
LINE
8
0
10
186.329319
20
102.835351
11
189.553201
21
111.397718
0
LINE
8
0
10
189.553201
20
111.397718
11
194.731852
21
125.200231
0
LINE
8
0
10
194.731852
20
125.200231
11
197.557451
21
132.750000
0
LINE
8
0
10
197.557451
20
132.750000
11
211.487331
21
170.000000
0
LINE
8
0
10
211.487331
20
170.000000
11
222.063524
21
170.000000
0
LINE
8
0
10
222.063524
20
170.000000
11
232.639718
21
170.000000
0
LINE
8
0
10
232.639718
20
170.000000
11
246.494146
21
132.750000
0
LINE
8
0
10
246.494146
20
132.750000
11
249.304540
21
125.200928
0
LINE
8
0
10
249.304540
20
125.200928
11
254.455887
21
111.403564
0
LINE
8
0
10
254.455887
20
111.403564
11
257.663262
21
102.847797
0
LINE
8
0
10
257.663262
20
102.847797
11
259.372222
21
98.308868
0
LINE
8
0
10
259.372222
20
98.308868
11
260.665045
21
94.895673
0
LINE
8
0
10
260.665045
20
94.895673
11
261.479416
21
92.774323
0
LINE
8
0
10
261.479416
20
92.774323
11
261.687707
21
92.250000
0
LINE
8
0
10
261.687707
20
92.250000
11
263.026840
21
89.000000
0
LINE
8
0
10
263.026840
20
89.000000
11
252.248677
21
89.000000
0
LINE
8
0
10
252.248677
20
89.000000
11
241.470514
21
89.000000
0
LINE
8
0
10
241.470514
20
89.000000
11
238.985257
21
96.250000
0
LINE
8
0
10
238.985257
20
96.250000
11
236.500000
21
103.500000
0
LINE
8
0
10
236.500000
20
103.500000
11
222.026499
21
103.500000
0
LINE
8
0
10
222.026499
20
103.500000
11
207.552998
21
103.500000
0
LINE
8
0
10
207.552998
20
103.500000
11
204.863605
21
96.500000
0
LINE
8
0
10
204.863605
20
96.500000
11
202.174212
21
89.500000
0
LINE
8
0
10
202.174212
20
89.500000
11
191.559433
21
89.215888
0
LINE
8
0
10
191.559433
20
89.215888
11
180.944654
21
88.931775
0
LINE
8
0
10
180.944654
20
88.931775
11
182.286112
21
92.215888
0
LINE
8
0
10
377.484835
20
90.750000
11
377.627735
21
91.120224
0
LINE
8
0
10
377.627735
20
91.120224
11
378.316208
21
92.939603
0
LINE
8
0
10
378.316208
20
92.939603
11
379.491943
21
96.065109
0
LINE
8
0
10
379.491943
20
96.065109
11
381.095378
21
100.337808
0
LINE
8
0
10
381.095378
20
100.337808
11
384.172178
21
108.550171
0
LINE
8
0
10
384.172178
20
108.550171
11
389.215616
21
122.031763
0
LINE
8
0
10
389.215616
20
122.031763
11
392.006623
21
129.500000
0
LINE
8
0
10
392.006623
20
129.500000
11
394.797750
21
136.968903
0
LINE
8
0
10
394.797750
20
136.968903
11
399.842078
21
150.455420
0
LINE
8
0
10
399.842078
20
150.455420
11
402.920017
21
158.674093
0
LINE
8
0
10
402.920017
20
158.674093
11
404.524393
21
162.951995
0
LINE
8
0
10
404.524393
20
162.951995
11
405.701184
21
166.083344
0
LINE
8
0
10
405.701184
20
166.083344
11
406.390804
21
167.909073
0
LINE
8
0
10
406.390804
20
167.909073
11
406.534305
21
168.282619
0
LINE
8
0
10
406.534305
20
168.282619
11
406.814037
21
168.810941
0
LINE
8
0
10
406.814037
20
168.810941
11
407.908414
21
169.517550
0
LINE
8
0
10
407.908414
20
169.517550
11
410.297711
21
169.834649
0
LINE
8
0
10
410.297711
20
169.834649
11
414.679972
21
169.854879
0
LINE
8
0
10
414.679972
20
169.854879
11
417.836604
21
169.782619
0
LINE
8
0
10
417.836604
20
169.782619
11
428.434195
21
169.500000
0
LINE
8
0
10
428.434195
20
169.500000
11
442.727583
21
131.500000
0
LINE
8
0
10
442.727583
20
131.500000
11
445.611027
21
123.820679
0
LINE
8
0
10
445.611027
20
123.820679
11
450.807277
21
109.906372
0
LINE
8
0
10
450.807277
20
109.906372
11
453.964663
21
101.384470
0
LINE
8
0
10
453.964663
20
101.384470
11
455.602781
21
96.924088
0
LINE
8
0
10
455.602781
20
96.924088
11
456.796196
21
93.633017
0
LINE
8
0
10
456.796196
20
93.633017
11
457.483830
21
91.676346
0
LINE
8
0
10
457.483830
20
91.676346
11
457.618893
21
91.250000
0
LINE
8
0
10
457.618893
20
91.250000
11
457.789983
21
90.513443
0
LINE
8
0
10
457.789983
20
90.513443
11
457.487032
21
89.558681
0
LINE
8
0
10
457.487032
20
89.558681
11
455.570386
21
89.124271
0
LINE
8
0
10
455.570386
20
89.124271
11
451.135817
21
89.005269
0
LINE
8
0
10
451.135817
20
89.005269
11
447.691741
21
89.000000
0
LINE
8
0
10
447.691741
20
89.000000
11
437.166667
21
89.000000
0
LINE
8
0
10
437.166667
20
89.000000
11
434.751226
21
96.250000
0
LINE
8
0
10
434.751226
20
96.250000
11
432.335786
21
103.500000
0
LINE
8
0
10
432.335786
20
103.500000
11
417.778866
21
103.776098
0
LINE
8
0
10
417.778866
20
103.776098
11
403.221946
21
104.052195
0
LINE
8
0
10
403.221946
20
104.052195
11
400.477025
21
96.526098
0
LINE
8
0
10
400.477025
20
96.526098
11
397.732104
21
89.000000
0
LINE
8
0
10
397.732104
20
89.000000
11
387.259063
21
89.000000
0
LINE
8
0
10
387.259063
20
89.000000
11
384.064127
21
89.009580
0
LINE
8
0
10
384.064127
20
89.009580
11
379.790731
21
89.131901
0
LINE
8
0
10
379.790731
20
89.131901
11
377.772372
21
89.493273
0
LINE
8
0
10
377.772372
20
89.493273
11
377.328733
21
90.215501
0
LINE
8
0
10
377.328733
20
90.215501
11
377.484835
21
90.750000
0
LINE
8
0
10
128.000000
20
88.390498
11
124.556224
21
89.312675
0
LINE
8
0
10
124.556224
20
89.312675
11
118.163670
21
91.958469
0
LINE
8
0
10
118.163670
20
91.958469
11
112.486248
21
95.599734
0
LINE
8
0
10
112.486248
20
95.599734
11
107.590121
21
100.148734
0
LINE
8
0
10
107.590121
20
100.148734
11
103.541448
21
105.517731
0
LINE
8
0
10
103.541448
20
105.517731
11
100.406391
21
111.618989
0
LINE
8
0
10
100.406391
20
111.618989
11
98.251111
21
118.364771
0
LINE
8
0
10
98.251111
20
118.364771
11
97.141769
21
125.667339
0
LINE
8
0
10
97.141769
20
125.667339
11
97.000000
21
129.500000
0
LINE
8
0
10
97.000000
20
129.500000
11
97.404670
21
135.748387
0
LINE
8
0
10
97.404670
20
135.748387
11
100.504898
21
147.392633
0
LINE
8
0
10
100.504898
20
147.392633
11
106.354899
21
157.379910
0
LINE
8
0
10
106.354899
20
157.379910
11
114.588981
21
165.085898
0
LINE
8
0
10
114.588981
20
165.085898
11
119.485772
21
167.888308
0
LINE
8
0
10
119.485772
20
167.888308
11
123.264436
21
169.414847
0
LINE
8
0
10
123.264436
20
169.414847
11
131.175215
21
171.236532
0
LINE
8
0
10
131.175215
20
171.236532
11
139.279600
21
171.508785
0
LINE
8
0
10
139.279600
20
171.508785
11
147.244399
21
170.342518
0
LINE
8
0
10
147.244399
20
170.342518
11
154.736420
21
167.848638
0
LINE
8
0
10
154.736420
20
167.848638
11
161.422471
21
164.138059
0
LINE
8
0
10
161.422471
20
164.138059
11
166.969358
21
159.321688
0
LINE
8
0
10
166.969358
20
159.321688
11
171.043889
21
153.510437
0
LINE
8
0
10
171.043889
20
153.510437
11
172.424898
21
150.266391
0
LINE
8
0
10
172.424898
20
150.266391
11
173.345215
21
147.514494
0
LINE
8
0
10
173.345215
20
147.514494
11
174.004747
21
143.982434
0
LINE
8
0
10
174.004747
20
143.982434
11
172.415633
21
142.414486
0
LINE
8
0
10
172.415633
20
142.414486
11
167.769264
21
142.012811
0
LINE
8
0
10
167.769264
20
142.012811
11
164.046917
21
142.000000
0
LINE
8
0
10
164.046917
20
142.000000
11
154.093835
21
142.000000
0
LINE
8
0
10
154.093835
20
142.000000
11
152.423631
21
145.519694
0
LINE
8
0
10
152.423631
20
145.519694
11
151.368244
21
147.437991
0
LINE
8
0
10
151.368244
20
147.437991
11
148.729480
21
150.451024
0
LINE
8
0
10
148.729480
20
150.451024
11
145.239550
21
152.450287
0
LINE
8
0
10
145.239550
20
152.450287
11
140.721843
21
153.536956
0
LINE
8
0
10
140.721843
20
153.536956
11
138.022382
21
153.769685
0
LINE
8
0
10
138.022382
20
153.769685
11
134.861197
21
153.784539
0
LINE
8
0
10
134.861197
20
153.784539
11
129.628362
21
152.855566
0
LINE
8
0
10
129.628362
20
152.855566
11
125.508333
21
150.449883
0
LINE
8
0
10
125.508333
20
150.449883
11
122.093225
21
146.329324
0
LINE
8
0
10
122.093225
20
146.329324
11
120.522552
21
143.551540
0
LINE
8
0
10
120.522552
20
143.551540
11
118.939928
21
140.181799
0
LINE
8
0
10
118.939928
20
140.181799
11
117.762385
21
135.704453
0
LINE
8
0
10
117.762385
20
135.704453
11
117.521925
21
131.928095
0
LINE
8
0
10
117.521925
20
131.928095
11
117.500000
21
129.500000
0
LINE
8
0
10
117.500000
20
129.500000
11
117.521925
21
127.071905
0
LINE
8
0
10
117.521925
20
127.071905
11
117.762385
21
123.295547
0
LINE
8
0
10
117.762385
20
123.295547
11
118.939928
21
118.818201
0
LINE
8
0
10
118.939928
20
118.818201
11
120.522552
21
115.448460
0
LINE
8
0
10
120.522552
20
115.448460
11
121.988463
21
112.877034
0
LINE
8
0
10
121.988463
20
112.877034
11
125.279407
21
108.902812
0
LINE
8
0
10
125.279407
20
108.902812
11
129.220327
21
106.377074
0
LINE
8
0
10
129.220327
20
106.377074
11
134.016593
21
105.168198
0
LINE
8
0
10
134.016593
20
105.168198
11
136.799660
21
105.016450
0
LINE
8
0
10
136.799660
20
105.016450
11
139.769407
21
105.187153
0
LINE
8
0
10
139.769407
20
105.187153
11
144.916436
21
106.601254
0
LINE
8
0
10
144.916436
20
106.601254
11
148.977287
21
109.425058
0
LINE
8
0
10
148.977287
20
109.425058
11
151.916486
21
113.633899
0
LINE
8
0
10
151.916486
20
113.633899
11
152.954380
21
116.250000
0
LINE
8
0
10
152.954380
20
116.250000
11
154.155104
21
120.000000
0
LINE
8
0
10
154.155104
20
120.000000
11
164.209221
21
120.000000
0
LINE
8
0
10
164.209221
20
120.000000
11
174.263338
21
120.000000
0
LINE
8
0
10
174.263338
20
120.000000
11
173.735880
21
116.067502
0
LINE
8
0
10
173.735880
20
116.067502
11
173.341241
21
114.057387
0
LINE
8
0
10
173.341241
20
114.057387
11
171.807743
21
109.379119
0
LINE
8
0
10
171.807743
20
109.379119
11
168.315039
21
102.186136
0
LINE
8
0
10
168.315039
20
102.186136
11
165.711225
21
98.416714
0
LINE
8
0
10
165.711225
20
98.416714
11
163.381672
21
96.169011
0
LINE
8
0
10
163.381672
20
96.169011
11
156.814805
21
92.081944
0
LINE
8
0
10
156.814805
20
92.081944
11
148.746728
21
88.944695
0
LINE
8
0
10
148.746728
20
88.944695
11
140.428411
21
87.243699
0
LINE
8
0
10
140.428411
20
87.243699
11
136.566341
21
87.083808
0
LINE
8
0
10
136.566341
20
87.083808
11
134.941754
21
87.212842
0
LINE
8
0
10
134.941754
20
87.212842
11
130.377500
21
87.909063
0
LINE
8
0
10
130.377500
20
87.909063
11
128.000000
21
88.390498
0
LINE
8
0
10
273.000000
20
129.500000
11
273.000000
21
170.000000
0
LINE
8
0
10
273.000000
20
170.000000
11
283.500000
21
170.000000
0
LINE
8
0
10
283.500000
20
170.000000
11
294.000000
21
170.000000
0
LINE
8
0
10
294.000000
20
170.000000
11
294.000000
21
138.000000
0
LINE
8
0
10
294.000000
20
138.000000
11
294.000000
21
106.000000
0
LINE
8
0
10
294.000000
20
106.000000
11
313.000000
21
106.000000
0
LINE
8
0
10
313.000000
20
106.000000
11
332.000000
21
106.000000
0
LINE
8
0
10
332.000000
20
106.000000
11
332.000000
21
97.500000
0
LINE
8
0
10
332.000000
20
97.500000
11
332.000000
21
89.000000
0
LINE
8
0
10
332.000000
20
89.000000
11
302.500000
21
89.000000
0
LINE
8
0
10
302.500000
20
89.000000
11
273.000000
21
89.000000
0
LINE
8
0
10
273.000000
20
89.000000
11
273.000000
21
129.500000
0
LINE
8
0
10
346.000000
20
129.500000
11
346.000000
21
170.000000
0
LINE
8
0
10
346.000000
20
170.000000
11
356.500000
21
170.000000
0
LINE
8
0
10
356.500000
20
170.000000
11
367.000000
21
170.000000
0
LINE
8
0
10
367.000000
20
170.000000
11
367.000000
21
129.500000
0
LINE
8
0
10
367.000000
20
129.500000
11
367.000000
21
89.000000
0
LINE
8
0
10
367.000000
20
89.000000
11
356.500000
21
89.000000
0
LINE
8
0
10
356.500000
20
89.000000
11
346.000000
21
89.000000
0
LINE
8
0
10
346.000000
20
89.000000
11
346.000000
21
129.500000
0
LINE
8
0
10
180.251192
20
6.536612
11
179.288207
21
7.451053
0
LINE
8
0
10
179.288207
20
7.451053
11
177.656732
21
10.312373
0
LINE
8
0
10
177.656732
20
10.312373
11
176.315054
21
15.922089
0
LINE
8
0
10
176.315054
20
15.922089
11
176.444862
21
19.557780
0
LINE
8
0
10
176.444862
20
19.557780
11
177.503449
21
22.645704
0
LINE
8
0
10
177.503449
20
22.645704
11
179.195196
21
25.521022
0
LINE
8
0
10
179.195196
20
25.521022
11
180.505433
21
26.993587
0
LINE
8
0
10
180.505433
20
26.993587
11
182.662046
21
27.893701
0
LINE
8
0
10
182.662046
20
27.893701
11
185.015156
21
27.850435
0
LINE
8
0
10
185.015156
20
27.850435
11
186.668915
21
27.694722
0
LINE
8
0
10
186.668915
20
27.694722
11
192.000000
21
27.144506
0
LINE
8
0
10
192.000000
20
27.144506
11
192.000000
21
32.572253
0
LINE
8
0
10
192.000000
20
32.572253
11
192.013982
21
34.172427
0
LINE
8
0
10
192.013982
20
34.172427
11
192.170240
21
36.381898
0
LINE
8
0
10
192.170240
20
36.381898
11
192.947384
21
37.821441
0
LINE
8
0
10
192.947384
20
37.821441
11
194.000000
21
38.000000
0
LINE
8
0
10
194.000000
20
38.000000
11
194.636955
21
37.940430
0
LINE
8
0
10
194.636955
20
37.940430
11
195.476207
21
36.954102
0
LINE
8
0
10
195.476207
20
36.954102
11
195.873224
21
33.678711
0
LINE
8
0
10
195.873224
20
33.678711
11
195.979892
21
28.902222
0
LINE
8
0
10
195.979892
20
28.902222
11
195.998624
21
24.294556
0
LINE
8
0
10
195.998624
20
24.294556
11
196.000000
21
21.500000
0
LINE
8
0
10
196.000000
20
21.500000
11
195.998376
21
18.744852
0
LINE
8
0
10
195.998376
20
18.744852
11
195.978349
21
14.186577
0
LINE
8
0
10
195.978349
20
14.186577
11
195.871183
21
9.426376
0
LINE
8
0
10
195.871183
20
9.426376
11
195.485825
21
6.108950
0
LINE
8
0
10
195.485825
20
6.108950
11
194.685774
21
5.069378
0
LINE
8
0
10
194.685774
20
5.069378
11
194.083333
21
5.000000
0
LINE
8
0
10
194.083333
20
5.000000
11
192.595052
21
5.367188
0
LINE
8
0
10
192.595052
20
5.367188
11
191.708333
21
6.250000
0
LINE
8
0
10
191.708333
20
6.250000
11
191.424062
21
6.812500
0
LINE
8
0
10
191.424062
20
6.812500
11
190.599271
21
6.812500
0
LINE
8
0
10
190.599271
20
6.812500
11
189.925000
21
6.250000
0
LINE
8
0
10
189.925000
20
6.250000
11
188.015709
21
5.307433
0
LINE
8
0
10
188.015709
20
5.307433
11
182.623116
21
5.467203
0
LINE
8
0
10
182.623116
20
5.467203
11
180.251192
21
6.536612
0
LINE
8
0
10
573.060585
20
6.750000
11
571.540510
21
8.502950
0
LINE
8
0
10
571.540510
20
8.502950
11
569.790947
21
13.543528
0
LINE
8
0
10
569.790947
20
13.543528
11
569.767163
21
19.399634
0
LINE
8
0
10
569.767163
20
19.399634
11
571.475157
21
24.594420
0
LINE
8
0
10
571.475157
20
24.594420
11
572.980445
21
26.482303
0
LINE
8
0
10
572.980445
20
26.482303
11
574.181497
21
27.342639
0
LINE
8
0
10
574.181497
20
27.342639
11
577.426519
21
27.901336
0
LINE
8
0
10
577.426519
20
27.901336
11
579.984663
21
27.688222
0
LINE
8
0
10
579.984663
20
27.688222
11
585.000000
21
27.094230
0
LINE
8
0
10
585.000000
20
27.094230
11
585.000000
21
32.547115
0
LINE
8
0
10
585.000000
20
32.547115
11
585.013935
21
34.155587
0
LINE
8
0
10
585.013935
20
34.155587
11
585.169942
21
36.375760
0
LINE
8
0
10
585.169942
20
36.375760
11
585.946906
21
37.821049
0
LINE
8
0
10
585.946906
20
37.821049
11
587.000000
21
38.000000
0
LINE
8
0
10
587.000000
20
38.000000
11
587.636955
21
37.940430
0
LINE
8
0
10
587.636955
20
37.940430
11
588.476207
21
36.954102
0
LINE
8
0
10
588.476207
20
36.954102
11
588.873224
21
33.678711
0
LINE
8
0
10
588.873224
20
33.678711
11
588.979892
21
28.902222
0
LINE
8
0
10
588.979892
20
28.902222
11
588.998624
21
24.294556
0
LINE
8
0
10
588.998624
20
24.294556
11
589.000000
21
21.500000
0
LINE
8
0
10
589.000000
20
21.500000
11
588.998376
21
18.744852
0
LINE
8
0
10
588.998376
20
18.744852
11
588.978349
21
14.186577
0
LINE
8
0
10
588.978349
20
14.186577
11
588.871183
21
9.426376
0
LINE
8
0
10
588.871183
20
9.426376
11
588.485825
21
6.108950
0
LINE
8
0
10
588.485825
20
6.108950
11
587.685774
21
5.069378
0
LINE
8
0
10
587.685774
20
5.069378
11
587.083333
21
5.000000
0
LINE
8
0
10
587.083333
20
5.000000
11
585.595052
21
5.367188
0
LINE
8
0
10
585.595052
20
5.367188
11
584.708333
21
6.250000
0
LINE
8
0
10
584.708333
20
6.250000
11
584.424062
21
6.812500
0
LINE
8
0
10
584.424062
20
6.812500
11
583.599271
21
6.812500
0
LINE
8
0
10
583.599271
20
6.812500
11
582.925000
21
6.250000
0
LINE
8
0
10
582.925000
20
6.250000
11
582.053527
21
5.668619
0
LINE
8
0
10
582.053527
20
5.668619
11
579.623232
21
5.076886
0
LINE
8
0
10
579.623232
20
5.076886
11
575.391690
21
5.559465
0
LINE
8
0
10
575.391690
20
5.559465
11
573.060585
21
6.750000
0
LINE
8
0
10
412.508125
20
2.678300
11
413.031219
21
3.808960
0
LINE
8
0
10
413.031219
20
3.808960
11
413.441924
21
5.514998
0
LINE
8
0
10
413.441924
20
5.514998
11
413.040082
21
6.403768
0
LINE
8
0
10
413.040082
20
6.403768
11
411.867412
21
6.383000
0
LINE
8
0
10
411.867412
20
6.383000
11
411.005053
21
6.002704
0
LINE
8
0
10
411.005053
20
6.002704
11
408.996771
21
5.244926
0
LINE
8
0
10
408.996771
20
5.244926
11
404.961341
21
5.367384
0
LINE
8
0
10
404.961341
20
5.367384
11
401.412434
21
7.383219
0
LINE
8
0
10
401.412434
20
7.383219
11
398.964067
21
10.943662
0
LINE
8
0
10
398.964067
20
10.943662
11
398.344465
21
13.194119
0
LINE
8
0
10
398.344465
20
13.194119
11
398.047993
21
16.337058
0
LINE
8
0
10
398.047993
20
16.337058
11
398.734221
21
21.715652
0
LINE
8
0
10
398.734221
20
21.715652
11
400.972772
21
25.617443
0
LINE
8
0
10
400.972772
20
25.617443
11
404.579761
21
27.721917
0
LINE
8
0
10
404.579761
20
27.721917
11
406.838955
21
28.000000
0
LINE
8
0
10
406.838955
20
28.000000
11
408.403849
21
27.901367
0
LINE
8
0
10
408.403849
20
27.901367
11
411.113757
21
27.235352
0
LINE
8
0
10
411.113757
20
27.235352
11
411.925000
21
26.750000
0
LINE
8
0
10
411.925000
20
26.750000
11
412.599271
21
26.187500
0
LINE
8
0
10
412.599271
20
26.187500
11
413.424062
21
26.187500
0
LINE
8
0
10
413.424062
20
26.187500
11
413.708333
21
26.750000
0
LINE
8
0
10
413.708333
20
26.750000
11
414.595052
21
27.632812
0
LINE
8
0
10
414.595052
20
27.632812
11
416.083333
21
28.000000
0
LINE
8
0
10
416.083333
20
28.000000
11
416.678466
21
27.941020
0
LINE
8
0
10
416.678466
20
27.941020
11
417.474639
21
27.121898
0
LINE
8
0
10
417.474639
20
27.121898
11
417.864471
21
24.596151
0
LINE
8
0
10
417.864471
20
24.596151
11
417.990897
21
19.437689
0
LINE
8
0
10
417.990897
20
19.437689
11
418.000000
21
15.581787
0
LINE
8
0
10
418.000000
20
15.581787
11
417.952105
21
10.635215
0
LINE
8
0
10
417.952105
20
10.635215
11
417.731775
21
4.592908
0
LINE
8
0
10
417.731775
20
4.592908
11
417.514942
21
2.152993
0
LINE
8
0
10
417.514942
20
2.152993
11
417.393011
21
1.581787
0
LINE
8
0
10
417.393011
20
1.581787
11
416.938905
21
0.943367
0
LINE
8
0
10
416.938905
20
0.943367
11
415.140813
21
0.116732
0
LINE
8
0
10
415.140813
20
0.116732
11
413.952314
21
0.000000
0
LINE
8
0
10
413.952314
20
0.000000
11
412.375828
21
0.052691
0
LINE
8
0
10
412.375828
20
0.052691
11
411.777433
21
1.162435
0
LINE
8
0
10
411.777433
20
1.162435
11
412.508125
21
2.678300
0
LINE
8
0
10
90.360323
20
6.460173
11
88.611391
21
8.172551
0
LINE
8
0
10
88.611391
20
8.172551
11
86.475065
21
13.062960
0
LINE
8
0
10
86.475065
20
13.062960
11
86.208529
21
18.747340
0
LINE
8
0
10
86.208529
20
18.747340
11
87.877065
21
23.833416
0
LINE
8
0
10
87.877065
20
23.833416
11
89.457386
21
25.717004
0
LINE
8
0
10
89.457386
20
25.717004
11
90.684417
21
26.558350
0
LINE
8
0
10
90.684417
20
26.558350
11
93.799176
21
27.690255
0
LINE
8
0
10
93.799176
20
27.690255
11
99.035102
21
27.902909
0
LINE
8
0
10
99.035102
20
27.902909
11
102.055391
21
26.970356
0
LINE
8
0
10
102.055391
20
26.970356
11
104.174024
21
25.233742
0
LINE
8
0
10
104.174024
20
25.233742
11
106.576393
21
19.849790
0
LINE
8
0
10
106.576393
20
19.849790
11
106.541159
21
13.521861
0
LINE
8
0
10
106.541159
20
13.521861
11
104.079038
21
8.174346
0
LINE
8
0
10
104.079038
20
8.174346
11
101.941243
21
6.469615
0
LINE
8
0
10
101.941243
20
6.469615
11
98.975664
21
5.412514
0
LINE
8
0
10
98.975664
20
5.412514
11
92.787169
21
5.407468
0
LINE
8
0
10
92.787169
20
5.407468
11
90.360323
21
6.460173
0
LINE
8
0
10
210.302360
20
6.011793
11
208.311631
21
7.354858
0
LINE
8
0
10
208.311631
20
7.354858
11
205.731294
21
12.093215
0
LINE
8
0
10
205.731294
20
12.093215
11
205.158216
21
18.107978
0
LINE
8
0
10
205.158216
20
18.107978
11
206.759313
21
23.647273
0
LINE
8
0
10
206.759313
20
23.647273
11
208.427339
21
25.691158
0
LINE
8
0
10
208.427339
20
25.691158
11
209.889967
21
26.740509
0
LINE
8
0
10
209.889967
20
26.740509
11
213.288245
21
27.868775
0
LINE
8
0
10
213.288245
20
27.868775
11
215.381450
21
28.000000
0
LINE
8
0
10
215.381450
20
28.000000
11
217.284838
21
27.857294
0
LINE
8
0
10
217.284838
20
27.857294
11
220.476268
21
26.724944
0
LINE
8
0
10
220.476268
20
26.724944
11
222.825568
21
24.484015
0
LINE
8
0
10
222.825568
20
24.484015
11
224.306735
21
21.159310
0
LINE
8
0
10
224.306735
20
21.159310
11
224.713642
21
19.098293
0
LINE
8
0
10
224.713642
20
19.098293
11
225.263338
21
15.000000
0
LINE
8
0
10
225.263338
20
15.000000
11
217.163893
21
15.000000
0
LINE
8
0
10
217.163893
20
15.000000
11
214.527878
21
14.994204
0
LINE
8
0
10
214.527878
20
14.994204
11
211.142570
21
14.872338
0
LINE
8
0
10
211.142570
20
14.872338
11
209.730278
21
14.435667
0
LINE
8
0
10
209.730278
20
14.435667
11
209.639864
21
13.482865
0
LINE
8
0
10
209.639864
20
13.482865
11
209.886880
21
12.750000
0
LINE
8
0
10
209.886880
20
12.750000
11
211.224992
21
10.729902
0
LINE
8
0
10
211.224992
20
10.729902
11
213.287250
21
9.032644
0
LINE
8
0
10
213.287250
20
9.032644
11
214.767995
21
8.304382
0
LINE
8
0
10
214.767995
20
8.304382
11
217.437355
21
8.398686
0
LINE
8
0
10
217.437355
20
8.398686
11
219.394734
21
9.248411
0
LINE
8
0
10
219.394734
20
9.248411
11
220.885487
21
9.848692
0
LINE
8
0
10
220.885487
20
9.848692
11
223.038040
21
10.127032
0
LINE
8
0
10
223.038040
20
10.127032
11
223.865959
21
9.374999
0
LINE
8
0
10
223.865959
20
9.374999
11
223.106011
21
7.831701
0
LINE
8
0
10
223.106011
20
7.831701
11
222.048325
21
6.838048
0
LINE
8
0
10
222.048325
20
6.838048
11
219.726308
21
5.672937
0
LINE
8
0
10
219.726308
20
5.672937
11
213.387199
21
5.227020
0
LINE
8
0
10
213.387199
20
5.227020
11
210.302360
21
6.011793
0
LINE
8
0
10
546.150243
20
7.527032
11
544.489847
21
9.302337
0
LINE
8
0
10
544.489847
20
9.302337
11
542.513347
21
13.719174
0
LINE
8
0
10
542.513347
20
13.719174
11
542.349758
21
18.670011
0
LINE
8
0
10
542.349758
20
18.670011
11
544.023701
21
23.409688
0
LINE
8
0
10
544.023701
20
23.409688
11
545.557441
21
25.467479
0
LINE
8
0
10
545.557441
20
25.467479
11
546.903311
21
26.697172
0
LINE
8
0
10
546.903311
20
26.697172
11
550.077960
21
27.882289
0
LINE
8
0
10
550.077960
20
27.882289
11
552.341467
21
28.000000
0
LINE
8
0
10
552.341467
20
28.000000
11
554.469196
21
27.889248
0
LINE
8
0
10
554.469196
20
27.889248
11
557.815608
21
26.954963
0
LINE
8
0
10
557.815608
20
26.954963
11
560.071427
21
24.963043
0
LINE
8
0
10
560.071427
20
24.963043
11
561.382420
21
21.784776
0
LINE
8
0
10
561.382420
20
21.784776
11
561.729159
21
19.710539
0
LINE
8
0
10
561.729159
20
19.710539
11
562.260105
21
15.000000
0
LINE
8
0
10
562.260105
20
15.000000
11
554.630052
21
15.000000
0
LINE
8
0
10
554.630052
20
15.000000
11
551.818537
21
14.945313
0
LINE
8
0
10
551.818537
20
14.945313
11
548.129673
21
14.449110
0
LINE
8
0
10
548.129673
20
14.449110
11
546.876613
21
13.306687
0
LINE
8
0
10
546.876613
20
13.306687
11
547.887657
21
11.361502
0
LINE
8
0
10
547.887657
20
11.361502
11
549.188561
21
10.038955
0
LINE
8
0
10
549.188561
20
10.038955
11
551.194011
21
8.647137
0
LINE
8
0
10
551.194011
20
8.647137
11
555.475310
21
8.365815
0
LINE
8
0
10
555.475310
20
8.365815
11
557.670301
21
9.481623
0
LINE
8
0
10
557.670301
20
9.481623
11
558.811438
21
10.202328
0
LINE
8
0
10
558.811438
20
10.202328
11
560.277011
21
10.230041
0
LINE
8
0
10
560.277011
20
10.230041
11
560.963570
21
9.543896
0
LINE
8
0
10
560.963570
20
9.543896
11
561.420820
21
8.771531
0
LINE
8
0
10
561.420820
20
8.771531
11
560.572755
21
7.399634
0
LINE
8
0
10
560.572755
20
7.399634
11
559.120423
21
6.562273
0
LINE
8
0
10
559.120423
20
6.562273
11
557.402133
21
5.808099
0
LINE
8
0
10
557.402133
20
5.808099
11
553.943544
21
5.057377
0
LINE
8
0
10
553.943544
20
5.057377
11
550.595832
21
5.306389
0
LINE
8
0
10
550.595832
20
5.306389
11
547.527264
21
6.542621
0
LINE
8
0
10
547.527264
20
6.542621
11
546.150243
21
7.527032
0
LINE
8
0
10
473.189075
20
7.494358
11
471.548693
21
9.259671
0
LINE
8
0
10
471.548693
20
9.259671
11
469.591232
21
13.698979
0
LINE
8
0
10
469.591232
20
13.698979
11
469.420683
21
18.690992
0
LINE
8
0
10
469.420683
20
18.690992
11
471.064058
21
23.445060
0
LINE
8
0
10
471.064058
20
23.445060
11
472.574409
21
25.485787
0
LINE
8
0
10
472.574409
20
25.485787
11
473.911351
21
26.704557
0
LINE
8
0
10
473.911351
20
26.704557
11
477.081709
21
27.882462
0
LINE
8
0
10
477.081709
20
27.882462
11
479.341467
21
28.000000
0
LINE
8
0
10
479.341467
20
28.000000
11
481.469196
21
27.889248
0
LINE
8
0
10
481.469196
20
27.889248
11
484.815608
21
26.954963
0
LINE
8
0
10
484.815608
20
26.954963
11
487.071427
21
24.963043
0
LINE
8
0
10
487.071427
20
24.963043
11
488.382420
21
21.784776
0
LINE
8
0
10
488.382420
20
21.784776
11
488.729159
21
19.710539
0
LINE
8
0
10
488.729159
20
19.710539
11
489.260105
21
15.000000
0
LINE
8
0
10
489.260105
20
15.000000
11
481.630052
21
15.000000
0
LINE
8
0
10
481.630052
20
15.000000
11
478.818537
21
14.945313
0
LINE
8
0
10
478.818537
20
14.945313
11
475.129673
21
14.449110
0
LINE
8
0
10
475.129673
20
14.449110
11
473.876613
21
13.306687
0
LINE
8
0
10
473.876613
20
13.306687
11
474.887657
21
11.361502
0
LINE
8
0
10
474.887657
20
11.361502
11
476.188561
21
10.038955
0
LINE
8
0
10
476.188561
20
10.038955
11
478.194011
21
8.647137
0
LINE
8
0
10
478.194011
20
8.647137
11
482.475310
21
8.365815
0
LINE
8
0
10
482.475310
20
8.365815
11
484.670301
21
9.481623
0
LINE
8
0
10
484.670301
20
9.481623
11
485.811438
21
10.202328
0
LINE
8
0
10
485.811438
20
10.202328
11
487.277011
21
10.230041
0
LINE
8
0
10
487.277011
20
10.230041
11
487.963570
21
9.543896
0
LINE
8
0
10
487.963570
20
9.543896
11
488.420820
21
8.771531
0
LINE
8
0
10
488.420820
20
8.771531
11
487.572755
21
7.399634
0
LINE
8
0
10
487.572755
20
7.399634
11
486.120423
21
6.562273
0
LINE
8
0
10
486.120423
20
6.562273
11
482.678554
21
5.311004
0
LINE
8
0
10
482.678554
20
5.311004
11
477.610308
21
5.301481
0
LINE
8
0
10
477.610308
20
5.301481
11
474.553877
21
6.521359
0
LINE
8
0
10
474.553877
20
6.521359
11
473.189075
21
7.494358
0
LINE
8
0
10
291.110071
20
6.395507
11
289.420504
21
7.649722
0
LINE
8
0
10
289.420504
20
7.649722
11
287.009844
21
11.298614
0
LINE
8
0
10
287.009844
20
11.298614
11
286.015873
21
15.889048
0
LINE
8
0
10
286.015873
20
15.889048
11
286.589056
21
20.726132
0
LINE
8
0
10
286.589056
20
20.726132
11
287.510350
21
23.020016
0
LINE
8
0
10
287.510350
20
23.020016
11
289.064869
21
25.350796
0
LINE
8
0
10
289.064869
20
25.350796
11
293.501408
21
27.739430
0
LINE
8
0
10
293.501408
20
27.739430
11
296.759945
21
28.000000
0
LINE
8
0
10
296.759945
20
28.000000
11
298.532342
21
27.850028
0
LINE
8
0
10
298.532342
20
27.850028
11
301.564174
21
26.678239
0
LINE
8
0
10
301.564174
20
26.678239
11
303.849510
21
24.406173
0
LINE
8
0
10
303.849510
20
24.406173
11
305.313291
21
21.108453
0
LINE
8
0
10
305.313291
20
21.108453
11
305.713642
21
19.098293
0
LINE
8
0
10
305.713642
20
19.098293
11
306.263338
21
15.000000
0
LINE
8
0
10
306.263338
20
15.000000
11
298.163893
21
15.000000
0
LINE
8
0
10
298.163893
20
15.000000
11
295.527878
21
14.994204
0
LINE
8
0
10
295.527878
20
14.994204
11
292.142570
21
14.872338
0
LINE
8
0
10
292.142570
20
14.872338
11
290.730278
21
14.435667
0
LINE
8
0
10
290.730278
20
14.435667
11
290.639864
21
13.482865
0
LINE
8
0
10
290.639864
20
13.482865
11
290.886880
21
12.750000
0
LINE
8
0
10
290.886880
20
12.750000
11
292.224992
21
10.729902
0
LINE
8
0
10
292.224992
20
10.729902
11
294.287250
21
9.032644
0
LINE
8
0
10
294.287250
20
9.032644
11
295.767995
21
8.304382
0
LINE
8
0
10
295.767995
20
8.304382
11
298.437355
21
8.398686
0
LINE
8
0
10
298.437355
20
8.398686
11
300.394734
21
9.248411
0
LINE
8
0
10
300.394734
20
9.248411
11
301.885487
21
9.848692
0
LINE
8
0
10
301.885487
20
9.848692
11
304.038040
21
10.127032
0
LINE
8
0
10
304.038040
20
10.127032
11
304.865959
21
9.374999
0
LINE
8
0
10
304.865959
20
9.374999
11
304.106011
21
7.831701
0
LINE
8
0
10
304.106011
20
7.831701
11
303.048325
21
6.838048
0
LINE
8
0
10
303.048325
20
6.838048
11
301.916112
21
6.123743
0
LINE
8
0
10
301.916112
20
6.123743
11
299.019288
21
5.247977
0
LINE
8
0
10
299.019288
20
5.247977
11
294.064359
21
5.352446
0
LINE
8
0
10
294.064359
20
5.352446
11
291.110071
21
6.395507
0
LINE
8
0
10
499.923077
20
7.923077
11
498.402306
21
9.635871
0
LINE
8
0
10
498.402306
20
9.635871
11
497.102051
21
13.382747
0
LINE
8
0
10
497.102051
20
13.382747
11
497.000000
21
16.346352
0
LINE
8
0
10
497.000000
20
16.346352
11
497.109417
21
19.216631
0
LINE
8
0
10
497.109417
20
19.216631
11
498.299085
21
23.157965
0
LINE
8
0
10
498.299085
20
23.157965
11
499.588894
21
24.923275
0
LINE
8
0
10
499.588894
20
24.923275
11
501.104759
21
26.524094
0
LINE
8
0
10
501.104759
20
26.524094
11
504.408477
21
27.892622
0
LINE
8
0
10
504.408477
20
27.892622
11
507.016313
21
28.000000
0
LINE
8
0
10
507.016313
20
28.000000
11
509.555771
21
27.897379
0
LINE
8
0
10
509.555771
20
27.897379
11
512.685774
21
26.704066
0
LINE
8
0
10
512.685774
20
26.704066
11
513.927420
21
25.365141
0
LINE
8
0
10
513.927420
20
25.365141
11
514.793296
21
23.997376
0
LINE
8
0
10
514.793296
20
23.997376
11
515.856838
21
20.661910
0
LINE
8
0
10
515.856838
20
20.661910
11
516.000000
21
18.865141
0
LINE
8
0
10
516.000000
20
18.865141
11
516.000000
21
15.000000
0
LINE
8
0
10
516.000000
20
15.000000
11
508.500000
21
15.000000
0
LINE
8
0
10
508.500000
20
15.000000
11
505.774133
21
14.963792
0
LINE
8
0
10
505.774133
20
14.963792
11
502.283887
21
14.584601
0
LINE
8
0
10
502.283887
20
14.584601
11
501.188140
21
13.597442
0
LINE
8
0
10
501.188140
20
13.597442
11
502.221905
21
11.763586
0
LINE
8
0
10
502.221905
20
11.763586
11
503.454545
21
10.454545
0
LINE
8
0
10
503.454545
20
10.454545
11
505.498426
21
8.818826
0
LINE
8
0
10
505.498426
20
8.818826
11
509.505312
21
8.344324
0
LINE
8
0
10
509.505312
20
8.344324
11
511.670301
21
9.481623
0
LINE
8
0
10
511.670301
20
9.481623
11
512.803257
21
10.195014
0
LINE
8
0
10
512.803257
20
10.195014
11
514.267844
21
10.235364
0
LINE
8
0
10
514.267844
20
10.235364
11
514.940479
21
9.571718
0
LINE
8
0
10
514.940479
20
9.571718
11
515.324952
21
8.772891
0
LINE
8
0
10
515.324952
20
8.772891
11
514.652443
21
7.203179
0
LINE
8
0
10
514.652443
20
7.203179
11
512.434836
21
5.893309
0
LINE
8
0
10
512.434836
20
5.893309
11
509.124338
21
5.110386
0
LINE
8
0
10
509.124338
20
5.110386
11
507.200571
21
5.000000
0
LINE
8
0
10
507.200571
20
5.000000
11
504.924032
21
5.128271
0
LINE
8
0
10
504.924032
20
5.128271
11
501.556269
21
6.480966
0
LINE
8
0
10
501.556269
20
6.480966
11
499.923077
21
7.923077
0
LINE
8
0
10
59.881475
20
6.503088
11
58.567245
21
7.405587
0
LINE
8
0
10
58.567245
20
7.405587
11
56.395800
21
10.047859
0
LINE
8
0
10
56.395800
20
10.047859
11
54.886345
21
13.679853
0
LINE
8
0
10
54.886345
20
13.679853
11
54.102039
21
18.149595
0
LINE
8
0
10
54.102039
20
18.149595
11
54.001554
21
20.651129
0
LINE
8
0
10
54.001554
20
20.651129
11
54.112123
21
23.359126
0
LINE
8
0
10
54.112123
20
23.359126
11
55.002501
21
27.994387
0
LINE
8
0
10
55.002501
20
27.994387
11
56.808220
21
31.635080
0
LINE
8
0
10
56.808220
20
31.635080
11
59.556902
21
34.336898
0
LINE
8
0
10
59.556902
20
34.336898
11
61.293485
21
35.353133
0
LINE
8
0
10
61.293485
20
35.353133
11
63.131105
21
36.095034
0
LINE
8
0
10
63.131105
20
36.095034
11
66.802536
21
36.676473
0
LINE
8
0
10
66.802536
20
36.676473
11
70.353399
21
36.074348
0
LINE
8
0
10
70.353399
20
36.074348
11
73.645104
21
34.312158
0
LINE
8
0
10
73.645104
20
34.312158
11
75.150463
21
33.003383
0
LINE
8
0
10
75.150463
20
33.003383
11
76.331997
21
31.717242
0
LINE
8
0
10
76.331997
20
31.717242
11
77.724082
21
29.530125
0
LINE
8
0
10
77.724082
20
29.530125
11
77.815776
21
27.955258
0
LINE
8
0
10
77.815776
20
27.955258
11
76.600183
21
27.111074
0
LINE
8
0
10
76.600183
20
27.111074
11
75.500000
21
27.000000
0
LINE
8
0
10
75.500000
20
27.000000
11
74.507140
21
27.102156
0
LINE
8
0
10
74.507140
20
27.102156
11
73.189880
21
27.810849
0
LINE
8
0
10
73.189880
20
27.810849
11
73.000000
21
28.345012
0
LINE
8
0
10
73.000000
20
28.345012
11
72.404832
21
30.024169
0
LINE
8
0
10
72.404832
20
30.024169
11
68.680935
21
32.589930
0
LINE
8
0
10
68.680935
20
32.589930
11
66.243839
21
33.000000
0
LINE
8
0
10
66.243839
20
33.000000
11
64.482984
21
32.821498
0
LINE
8
0
10
64.482984
20
32.821498
11
61.733072
21
31.353779
0
LINE
8
0
10
61.733072
20
31.353779
11
59.960733
21
28.316868
0
LINE
8
0
10
59.960733
20
28.316868
11
59.104173
21
23.604882
0
LINE
8
0
10
59.104173
20
23.604882
11
59.000000
21
20.587648
0
LINE
8
0
10
59.000000
20
20.587648
11
59.067459
21
17.848069
0
LINE
8
0
10
59.067459
20
17.848069
11
59.650920
21
13.595718
0
LINE
8
0
10
59.650920
20
13.595718
11
60.929753
21
10.763597
0
LINE
8
0
10
60.929753
20
10.763597
11
63.020734
21
9.093092
0
LINE
8
0
10
63.020734
20
9.093092
11
64.407273
21
8.612629
0
LINE
8
0
10
64.407273
20
8.612629
11
67.060450
21
8.433752
0
LINE
8
0
10
67.060450
20
8.433752
11
71.668387
21
10.510425
0
LINE
8
0
10
71.668387
20
10.510425
11
72.993182
21
12.482067
0
LINE
8
0
10
72.993182
20
12.482067
11
73.532295
21
13.527849
0
LINE
8
0
10
73.532295
20
13.527849
11
75.067397
21
14.824024
0
LINE
8
0
10
75.067397
20
14.824024
11
75.975249
21
15.000000
0
LINE
8
0
10
75.975249
20
15.000000
11
77.323532
21
14.806142
0
LINE
8
0
10
77.323532
20
14.806142
11
77.889360
21
13.509829
0
LINE
8
0
10
77.889360
20
13.509829
11
77.343173
21
11.715284
0
LINE
8
0
10
77.343173
20
11.715284
11
76.805315
21
10.472058
0
LINE
8
0
10
76.805315
20
10.472058
11
75.655547
21
8.723323
0
LINE
8
0
10
75.655547
20
8.723323
11
71.967739
21
6.168070
0
LINE
8
0
10
71.967739
20
6.168070
11
67.176261
21
5.044375
0
LINE
8
0
10
67.176261
20
5.044375
11
62.177941
21
5.562563
0
LINE
8
0
10
62.177941
20
5.562563
11
59.881475
21
6.503088
0
LINE
8
0
10
344.000000
20
20.500000
11
344.000000
21
36.000000
0
LINE
8
0
10
344.000000
20
36.000000
11
354.000000
21
36.000000
0
LINE
8
0
10
354.000000
20
36.000000
11
356.570352
21
35.984570
0
LINE
8
0
10
356.570352
20
35.984570
11
360.415430
21
35.850586
0
LINE
8
0
10
360.415430
20
35.850586
11
362.715820
21
35.555664
0
LINE
8
0
10
362.715820
20
35.555664
11
363.690898
21
35.071680
0
LINE
8
0
10
363.690898
20
35.071680
11
363.750000
21
34.750000
0
LINE
8
0
10
363.750000
20
34.750000
11
363.154772
21
34.180110
0
LINE
8
0
10
363.154772
20
34.180110
11
359.240498
21
33.296242
0
LINE
8
0
10
359.240498
20
33.296242
11
356.000000
21
33.000000
0
LINE
8
0
10
356.000000
20
33.000000
11
348.500000
21
32.500000
0
LINE
8
0
10
348.500000
20
32.500000
11
348.500000
21
28.000000
0
LINE
8
0
10
348.500000
20
28.000000
11
348.500000
21
23.500000
0
LINE
8
0
10
348.500000
20
23.500000
11
354.750000
21
23.202283
0
LINE
8
0
10
354.750000
20
23.202283
11
356.494749
21
23.103221
0
LINE
8
0
10
356.494749
20
23.103221
11
358.987021
21
22.828453
0
LINE
8
0
10
358.987021
20
22.828453
11
360.746472
21
22.058004
0
LINE
8
0
10
360.746472
20
22.058004
11
361.000000
21
21.175857
0
LINE
8
0
10
361.000000
20
21.175857
11
360.834839
21
20.324781
0
LINE
8
0
10
360.834839
20
20.324781
11
359.000865
21
19.709002
0
LINE
8
0
10
359.000865
20
19.709002
11
356.990263
21
19.829538
0
LINE
8
0
10
356.990263
20
19.829538
11
353.426871
21
19.916003
0
LINE
8
0
10
353.426871
20
19.916003
11
350.490263
21
19.586912
0
LINE
8
0
10
350.490263
20
19.586912
11
349.157541
21
19.103279
0
LINE
8
0
10
349.157541
20
19.103279
11
348.198173
21
17.572727
0
LINE
8
0
10
348.198173
20
17.572727
11
348.015263
21
15.483282
0
LINE
8
0
10
348.015263
20
15.483282
11
348.000000
21
13.980948
0
LINE
8
0
10
348.000000
20
13.980948
11
348.000000
21
9.000000
0
LINE
8
0
10
348.000000
20
9.000000
11
356.000000
21
9.000000
0
LINE
8
0
10
356.000000
20
9.000000
11
358.449219
21
8.989258
0
LINE
8
0
10
358.449219
20
8.989258
11
361.753906
21
8.850586
0
LINE
8
0
10
361.753906
20
8.850586
11
363.781250
21
8.085938
0
LINE
8
0
10
363.781250
20
8.085938
11
364.000000
21
7.000000
0
LINE
8
0
10
364.000000
20
7.000000
11
363.953125
21
6.378125
0
LINE
8
0
10
363.953125
20
6.378125
11
363.296875
21
5.546875
0
LINE
8
0
10
363.296875
20
5.546875
11
361.265625
21
5.140625
0
LINE
8
0
10
361.265625
20
5.140625
11
357.109375
21
5.009375
0
LINE
8
0
10
357.109375
20
5.009375
11
354.000000
21
5.000000
0
LINE
8
0
10
354.000000
20
5.000000
11
344.000000
21
5.000000
0
LINE
8
0
10
344.000000
20
5.000000
11
344.000000
21
20.500000
0
LINE
8
0
10
115.000000
20
16.500000
11
115.000000
21
28.000000
0
LINE
8
0
10
115.000000
20
28.000000
11
117.500000
21
28.000000
0
LINE
8
0
10
117.500000
20
28.000000
11
118.470703
21
27.918318
0
LINE
8
0
10
118.470703
20
27.918318
11
119.802734
21
27.366759
0
LINE
8
0
10
119.802734
20
27.366759
11
120.000000
21
26.964816
0
LINE
8
0
10
120.000000
20
26.964816
11
120.114728
21
26.563428
0
LINE
8
0
10
120.114728
20
26.563428
11
121.069531
21
26.563428
0
LINE
8
0
10
121.069531
20
26.563428
11
121.934259
21
26.964816
0
LINE
8
0
10
121.934259
20
26.964816
11
124.331108
21
27.695915
0
LINE
8
0
10
124.331108
20
27.695915
11
127.377555
21
28.000000
0
LINE
8
0
10
127.377555
20
28.000000
11
129.207149
21
27.867718
0
LINE
8
0
10
129.207149
20
27.867718
11
131.837789
21
26.598268
0
LINE
8
0
10
131.837789
20
26.598268
11
133.323528
21
23.519638
0
LINE
8
0
10
133.323528
20
23.519638
11
133.936161
21
18.068634
0
LINE
8
0
10
133.936161
20
18.068634
11
134.000000
21
14.277494
0
LINE
8
0
10
134.000000
20
14.277494
11
133.990199
21
11.406602
0
LINE
8
0
10
133.990199
20
11.406602
11
133.856637
21
7.557982
0
LINE
8
0
10
133.856637
20
7.557982
11
133.448562
21
5.665024
0
LINE
8
0
10
133.448562
20
5.665024
11
132.618894
21
5.045464
0
LINE
8
0
10
132.618894
20
5.045464
11
132.000000
21
5.000000
0
LINE
8
0
10
132.000000
20
5.000000
11
130.913489
21
5.219777
0
LINE
8
0
10
130.913489
20
5.219777
11
130.149056
21
7.262144
0
LINE
8
0
10
130.149056
20
7.262144
11
130.010686
21
10.594823
0
LINE
8
0
10
130.010686
20
10.594823
11
130.000000
21
13.065741
0
LINE
8
0
10
130.000000
20
13.065741
11
129.918318
21
16.350143
0
LINE
8
0
10
129.918318
20
16.350143
11
129.366759
21
21.678268
0
LINE
8
0
10
129.366759
20
21.678268
11
128.964816
21
23.065741
0
LINE
8
0
10
128.964816
20
23.065741
11
127.806227
21
24.329521
0
LINE
8
0
10
127.806227
20
24.329521
11
124.134440
21
24.799073
0
LINE
8
0
10
124.134440
20
24.799073
11
121.934259
21
23.964816
0
LINE
8
0
10
121.934259
20
23.964816
11
120.918419
21
23.122874
0
LINE
8
0
10
120.918419
20
23.122874
11
120.166005
21
20.335406
0
LINE
8
0
10
120.166005
20
20.335406
11
120.013734
21
16.608252
0
LINE
8
0
10
120.013734
20
16.608252
11
120.000000
21
13.964816
0
LINE
8
0
10
120.000000
20
13.964816
11
119.994328
21
11.025541
0
LINE
8
0
10
119.994328
20
11.025541
11
119.863090
21
7.219003
0
LINE
8
0
10
119.863090
20
7.219003
11
119.381191
21
5.490951
0
LINE
8
0
10
119.381191
20
5.490951
11
118.319670
21
5.020340
0
LINE
8
0
10
118.319670
20
5.020340
11
117.500000
21
5.000000
0
LINE
8
0
10
117.500000
20
5.000000
11
115.000000
21
5.000000
0
LINE
8
0
10
115.000000
20
5.000000
11
115.000000
21
16.500000
0
LINE
8
0
10
442.000000
20
16.500000
11
442.009440
21
20.056641
0
LINE
8
0
10
442.009440
20
20.056641
11
442.137695
21
24.826172
0
LINE
8
0
10
442.137695
20
24.826172
11
442.528971
21
27.173828
0
LINE
8
0
10
442.528971
20
27.173828
11
443.323893
21
27.943359
0
LINE
8
0
10
443.323893
20
27.943359
11
443.916667
21
28.000000
0
LINE
8
0
10
443.916667
20
28.000000
11
445.393897
21
27.632812
0
LINE
8
0
10
445.393897
20
27.632812
11
446.254045
21
26.750000
0
LINE
8
0
10
446.254045
20
26.750000
11
446.531767
21
26.197754
0
LINE
8
0
10
446.531767
20
26.197754
11
447.467148
21
26.226200
0
LINE
8
0
10
447.467148
20
26.226200
11
448.263474
21
26.811109
0
LINE
8
0
10
448.263474
20
26.811109
11
449.221934
21
27.316189
0
LINE
8
0
10
449.221934
20
27.316189
11
452.302768
21
27.839318
0
LINE
8
0
10
452.302768
20
27.839318
11
454.152708
21
27.811109
0
LINE
8
0
10
454.152708
20
27.811109
11
456.080897
21
27.554121
0
LINE
8
0
10
456.080897
20
27.554121
11
458.812672
21
26.173551
0
LINE
8
0
10
458.812672
20
26.173551
11
460.316880
21
23.077952
0
LINE
8
0
10
460.316880
20
23.077952
11
460.919809
21
17.595839
0
LINE
8
0
10
460.919809
20
17.595839
11
460.985258
21
13.750000
0
LINE
8
0
10
460.985258
20
13.750000
11
460.984272
21
10.884614
0
LINE
8
0
10
460.984272
20
10.884614
11
460.858524
21
7.171124
0
LINE
8
0
10
460.858524
20
7.171124
11
460.378866
21
5.482362
0
LINE
8
0
10
460.378866
20
5.482362
11
459.318648
21
5.020347
0
LINE
8
0
10
459.318648
20
5.020347
11
458.500000
21
5.000000
0
LINE
8
0
10
458.500000
20
5.000000
11
457.681330
21
5.020469
0
LINE
8
0
10
457.681330
20
5.020469
11
456.620339
21
5.485156
0
LINE
8
0
10
456.620339
20
5.485156
11
456.137828
21
7.183594
0
LINE
8
0
10
456.137828
20
7.183594
11
456.005815
21
10.918281
0
LINE
8
0
10
456.005815
20
10.918281
11
456.000000
21
13.800000
0
LINE
8
0
10
456.000000
20
13.800000
11
455.959373
21
16.949203
0
LINE
8
0
10
455.959373
20
16.949203
11
455.556217
21
21.427352
0
LINE
8
0
10
455.556217
20
21.427352
11
454.550203
21
23.906411
0
LINE
8
0
10
454.550203
20
23.906411
11
452.732949
21
24.899886
0
LINE
8
0
10
452.732949
20
24.899886
11
451.454988
21
25.000000
0
LINE
8
0
10
451.454988
20
25.000000
11
450.045971
21
24.855603
0
LINE
8
0
10
450.045971
20
24.855603
11
447.931104
21
23.596470
0
LINE
8
0
10
447.931104
20
23.596470
11
446.647257
21
20.812543
0
LINE
8
0
10
446.647257
20
20.812543
11
446.066591
21
16.226608
0
LINE
8
0
10
446.066591
20
16.226608
11
446.000000
21
13.171259
0
LINE
8
0
10
446.000000
20
13.171259
11
445.989401
21
10.665512
0
LINE
8
0
10
445.989401
20
10.665512
11
445.851507
21
7.287905
0
LINE
8
0
10
445.851507
20
7.287905
11
445.087411
21
5.221426
0
LINE
8
0
10
445.087411
20
5.221426
11
444.000000
21
5.000000
0
LINE
8
0
10
444.000000
20
5.000000
11
443.373132
21
5.049805
0
LINE
8
0
10
443.373132
20
5.049805
11
442.539232
21
5.782227
0
LINE
8
0
10
442.539232
20
5.782227
11
442.136039
21
8.100586
0
LINE
8
0
10
442.136039
20
8.100586
11
442.008662
21
12.895508
0
LINE
8
0
10
442.008662
20
12.895508
11
442.000000
21
16.500000
0
LINE
8
0
10
233.000000
20
16.500000
11
233.009440
21
20.056641
0
LINE
8
0
10
233.009440
20
20.056641
11
233.137695
21
24.826172
0
LINE
8
0
10
233.137695
20
24.826172
11
233.528971
21
27.173828
0
LINE
8
0
10
233.528971
20
27.173828
11
234.323893
21
27.943359
0
LINE
8
0
10
234.323893
20
27.943359
11
234.916667
21
28.000000
0
LINE
8
0
10
234.916667
20
28.000000
11
236.404948
21
27.632812
0
LINE
8
0
10
236.404948
20
27.632812
11
237.291667
21
26.750000
0
LINE
8
0
10
237.291667
20
26.750000
11
237.575938
21
26.187500
0
LINE
8
0
10
237.575938
20
26.187500
11
238.400729
21
26.187500
0
LINE
8
0
10
238.400729
20
26.187500
11
239.075000
21
26.750000
0
LINE
8
0
10
239.075000
20
26.750000
11
240.046593
21
27.346464
0
LINE
8
0
10
240.046593
20
27.346464
11
243.001174
21
27.960780
0
LINE
8
0
10
243.001174
20
27.960780
11
246.424300
21
27.835754
0
LINE
8
0
10
246.424300
20
27.835754
11
249.259991
21
27.009954
0
LINE
8
0
10
249.259991
20
27.009954
11
250.127555
21
26.346317
0
LINE
8
0
10
250.127555
20
26.346317
11
250.744060
21
25.041141
0
LINE
8
0
10
250.744060
20
25.041141
11
251.317037
21
21.281500
0
LINE
8
0
10
251.317037
20
21.281500
11
251.480117
21
17.445833
0
LINE
8
0
10
251.480117
20
17.445833
11
251.500000
21
15.096317
0
LINE
8
0
10
251.500000
20
15.096317
11
251.491702
21
12.044150
0
LINE
8
0
10
251.491702
20
12.044150
11
251.356252
21
8.000822
0
LINE
8
0
10
251.356252
20
8.000822
11
250.908858
21
6.029132
0
LINE
8
0
10
250.908858
20
6.029132
11
249.965350
21
5.317437
0
LINE
8
0
10
249.965350
20
5.317437
11
249.250000
21
5.180449
0
LINE
8
0
10
249.250000
20
5.180449
11
248.525058
21
5.104801
0
LINE
8
0
10
248.525058
20
5.104801
11
247.576460
21
5.474698
0
LINE
8
0
10
247.576460
20
5.474698
11
247.134938
21
7.152479
0
LINE
8
0
10
247.134938
20
7.152479
11
247.006928
21
10.873694
0
LINE
8
0
10
247.006928
20
10.873694
11
247.000000
21
13.730449
0
LINE
8
0
10
247.000000
20
13.730449
11
246.959615
21
16.903396
0
LINE
8
0
10
246.959615
20
16.903396
11
246.557768
21
21.411576
0
LINE
8
0
10
246.557768
20
21.411576
11
245.552788
21
23.903466
0
LINE
8
0
10
245.552788
20
23.903466
11
243.734638
21
24.899863
0
LINE
8
0
10
243.734638
20
24.899863
11
242.454988
21
25.000000
0
LINE
8
0
10
242.454988
20
25.000000
11
241.045971
21
24.855603
0
LINE
8
0
10
241.045971
20
24.855603
11
238.931104
21
23.596470
0
LINE
8
0
10
238.931104
20
23.596470
11
237.647257
21
20.812543
0
LINE
8
0
10
237.647257
20
20.812543
11
237.066591
21
16.226608
0
LINE
8
0
10
237.066591
20
16.226608
11
237.000000
21
13.171259
0
LINE
8
0
10
237.000000
20
13.171259
11
236.989401
21
10.665512
0
LINE
8
0
10
236.989401
20
10.665512
11
236.851507
21
7.287905
0
LINE
8
0
10
236.851507
20
7.287905
11
236.087411
21
5.221426
0
LINE
8
0
10
236.087411
20
5.221426
11
235.000000
21
5.000000
0
LINE
8
0
10
235.000000
20
5.000000
11
234.373132
21
5.049805
0
LINE
8
0
10
234.373132
20
5.049805
11
233.539232
21
5.782227
0
LINE
8
0
10
233.539232
20
5.782227
11
233.136039
21
8.100586
0
LINE
8
0
10
233.136039
20
8.100586
11
233.008662
21
12.895508
0
LINE
8
0
10
233.008662
20
12.895508
11
233.000000
21
16.500000
0
LINE
8
0
10
372.000000
20
16.500000
11
372.009440
21
20.056641
0
LINE
8
0
10
372.009440
20
20.056641
11
372.137695
21
24.826172
0
LINE
8
0
10
372.137695
20
24.826172
11
372.528971
21
27.173828
0
LINE
8
0
10
372.528971
20
27.173828
11
373.323893
21
27.943359
0
LINE
8
0
10
373.323893
20
27.943359
11
373.916667
21
28.000000
0
LINE
8
0
10
373.916667
20
28.000000
11
375.404948
21
27.632812
0
LINE
8
0
10
375.404948
20
27.632812
11
376.291667
21
26.750000
0
LINE
8
0
10
376.291667
20
26.750000
11
376.575938
21
26.187500
0
LINE
8
0
10
376.575938
20
26.187500
11
377.400729
21
26.187500
0
LINE
8
0
10
377.400729
20
26.187500
11
378.075000
21
26.750000
0
LINE
8
0
10
378.075000
20
26.750000
11
378.978974
21
27.318979
0
LINE
8
0
10
378.978974
20
27.318979
11
381.676381
21
27.917573
0
LINE
8
0
10
381.676381
20
27.917573
11
384.819757
21
27.819986
0
LINE
8
0
10
384.819757
20
27.819986
11
387.521128
21
27.053786
0
LINE
8
0
10
387.521128
20
27.053786
11
388.428571
21
26.428571
0
LINE
8
0
10
388.428571
20
26.428571
11
389.187757
21
25.199824
0
LINE
8
0
10
389.187757
20
25.199824
11
389.823821
21
21.626767
0
LINE
8
0
10
389.823821
20
21.626767
11
389.982416
21
17.581403
0
LINE
8
0
10
389.982416
20
17.581403
11
390.000000
21
14.928571
0
LINE
8
0
10
390.000000
20
14.928571
11
389.990249
21
11.860943
0
LINE
8
0
10
389.990249
20
11.860943
11
389.858467
21
7.744747
0
LINE
8
0
10
389.858467
20
7.744747
11
389.457475
21
5.716044
0
LINE
8
0
10
389.457475
20
5.716044
11
388.643871
21
5.049331
0
LINE
8
0
10
388.643871
20
5.049331
11
388.037526
21
5.000000
0
LINE
8
0
10
388.037526
20
5.000000
11
387.438822
21
5.051600
0
LINE
8
0
10
387.438822
20
5.051600
11
386.609774
21
5.699111
0
LINE
8
0
10
386.609774
20
5.699111
11
386.143529
21
7.593950
0
LINE
8
0
10
386.143529
20
7.593950
11
385.886079
21
11.362011
0
LINE
8
0
10
385.886079
20
11.362011
11
385.787526
21
14.144093
0
LINE
8
0
10
385.787526
20
14.144093
11
385.623522
21
17.631597
0
LINE
8
0
10
385.623522
20
17.631597
11
384.930403
21
22.420195
0
LINE
8
0
10
384.930403
20
22.420195
11
383.498323
21
24.693916
0
LINE
8
0
10
383.498323
20
24.693916
11
381.024707
21
24.933159
0
LINE
8
0
10
381.024707
20
24.933159
11
379.302769
21
24.439977
0
LINE
8
0
10
379.302769
20
24.439977
11
377.693125
21
23.715607
0
LINE
8
0
10
377.693125
20
23.715607
11
376.585760
21
21.205056
0
LINE
8
0
10
376.585760
20
21.205056
11
376.313286
21
17.241655
0
LINE
8
0
10
376.313286
20
17.241655
11
376.212474
21
14.228378
0
LINE
8
0
10
376.212474
20
14.228378
11
376.113919
21
11.418630
0
LINE
8
0
10
376.113919
20
11.418630
11
375.856770
21
7.614763
0
LINE
8
0
10
375.856770
20
7.614763
11
375.390827
21
5.703697
0
LINE
8
0
10
375.390827
20
5.703697
11
374.561599
21
5.051787
0
LINE
8
0
10
374.561599
20
5.051787
11
373.962474
21
5.000000
0
LINE
8
0
10
373.962474
20
5.000000
11
373.350959
21
5.052811
0
LINE
8
0
10
373.350959
20
5.052811
11
372.534612
21
5.801554
0
LINE
8
0
10
372.534612
20
5.801554
11
372.136785
21
8.132798
0
LINE
8
0
10
372.136785
20
8.132798
11
372.009012
21
12.916553
0
LINE
8
0
10
372.009012
20
12.916553
11
372.000000
21
16.500000
0
LINE
8
0
10
262.711715
20
7.391370
11
261.609157
21
8.619956
0
LINE
8
0
10
261.609157
20
8.619956
11
260.010889
21
11.668143
0
LINE
8
0
10
260.010889
20
11.668143
11
259.241419
21
17.179274
0
LINE
8
0
10
259.241419
20
17.179274
11
259.899914
21
21.060281
0
LINE
8
0
10
259.899914
20
21.060281
11
260.512973
21
22.743648
0
LINE
8
0
10
260.512973
20
22.743648
11
262.194025
21
25.376218
0
LINE
8
0
10
262.194025
20
25.376218
11
264.545880
21
27.076330
0
LINE
8
0
10
264.545880
20
27.076330
11
267.645604
21
27.899691
0
LINE
8
0
10
267.645604
20
27.899691
11
269.500000
21
28.000000
0
LINE
8
0
10
269.500000
20
28.000000
11
272.697408
21
27.647907
0
LINE
8
0
10
272.697408
20
27.647907
11
277.228081
21
25.057253
0
LINE
8
0
10
277.228081
20
25.057253
11
278.297746
21
22.969420
0
LINE
8
0
10
278.297746
20
22.969420
11
278.447787
21
21.854991
0
LINE
8
0
10
278.447787
20
21.854991
11
277.852834
21
20.474369
0
LINE
8
0
10
277.852834
20
20.474369
11
276.439945
21
20.277138
0
LINE
8
0
10
276.439945
20
20.277138
11
274.659652
21
21.326190
0
LINE
8
0
10
274.659652
20
21.326190
11
273.772519
21
22.337725
0
LINE
8
0
10
273.772519
20
22.337725
11
272.154666
21
24.061627
0
LINE
8
0
10
272.154666
20
24.061627
11
268.846850
21
25.119737
0
LINE
8
0
10
268.846850
20
25.119737
11
265.991936
21
23.334850
0
LINE
8
0
10
265.991936
20
23.334850
11
264.248779
21
19.118881
0
LINE
8
0
10
264.248779
20
19.118881
11
264.000000
21
16.227963
0
LINE
8
0
10
264.000000
20
16.227963
11
264.093570
21
13.611811
0
LINE
8
0
10
264.093570
20
13.611811
11
265.114149
21
10.548355
0
LINE
8
0
10
265.114149
20
10.548355
11
266.222506
21
9.556704
0
LINE
8
0
10
266.222506
20
9.556704
11
268.189717
21
8.415906
0
LINE
8
0
10
268.189717
20
8.415906
11
271.366785
21
8.650407
0
LINE
8
0
10
271.366785
20
8.650407
11
273.061493
21
10.061493
0
LINE
8
0
10
273.061493
20
10.061493
11
274.041016
21
10.847014
0
LINE
8
0
10
274.041016
20
10.847014
11
276.291861
21
11.768770
0
LINE
8
0
10
276.291861
20
11.768770
11
277.311493
21
11.801935
0
LINE
8
0
10
277.311493
20
11.801935
11
278.471891
21
11.552775
0
LINE
8
0
10
278.471891
20
11.552775
11
278.530372
21
10.652652
0
LINE
8
0
10
278.530372
20
10.652652
11
277.329634
21
9.273663
0
LINE
8
0
10
277.329634
20
9.273663
11
276.326923
21
8.240442
0
LINE
8
0
10
276.326923
20
8.240442
11
274.736361
21
6.862208
0
LINE
8
0
10
274.736361
20
6.862208
11
271.271597
21
5.184374
0
LINE
8
0
10
271.271597
20
5.184374
11
267.679588
21
4.960369
0
LINE
8
0
10
267.679588
20
4.960369
11
264.261466
21
6.208972
0
LINE
8
0
10
264.261466
20
6.208972
11
262.711715
21
7.391370
0
LINE
8
0
10
145.666667
20
5.666667
11
145.532747
21
5.991081
0
LINE
8
0
10
145.532747
20
5.991081
11
145.294596
21
7.638346
0
LINE
8
0
10
145.294596
20
7.638346
11
145.052604
21
11.990104
0
LINE
8
0
10
145.052604
20
11.990104
11
145.000000
21
15.666667
0
LINE
8
0
10
145.000000
20
15.666667
11
144.985840
21
18.258247
0
LINE
8
0
10
144.985840
20
18.258247
11
144.848703
21
21.972656
0
LINE
8
0
10
144.848703
20
21.972656
11
144.513463
21
24.058594
0
LINE
8
0
10
144.513463
20
24.058594
11
143.916504
21
24.911892
0
LINE
8
0
10
143.916504
20
24.911892
11
143.500000
21
25.000000
0
LINE
8
0
10
143.500000
20
25.000000
11
142.440625
21
25.440625
0
LINE
8
0
10
142.440625
20
25.440625
11
142.000000
21
26.500000
0
LINE
8
0
10
142.000000
20
26.500000
11
142.417285
21
27.559375
0
LINE
8
0
10
142.417285
20
27.559375
11
143.420545
21
28.000000
0
LINE
8
0
10
143.420545
20
28.000000
11
144.031218
21
28.252260
0
LINE
8
0
10
144.031218
20
28.252260
11
145.150705
21
29.975531
0
LINE
8
0
10
145.150705
20
29.975531
11
145.531838
21
31.250000
0
LINE
8
0
10
145.531838
20
31.250000
11
146.473140
21
34.059375
0
LINE
8
0
10
146.473140
20
34.059375
11
147.766281
21
36.250000
0
LINE
8
0
10
147.766281
20
36.250000
11
148.682766
21
36.987322
0
LINE
8
0
10
148.682766
20
36.987322
11
151.232745
21
37.875598
0
LINE
8
0
10
151.232745
20
37.875598
11
153.911558
21
37.956935
0
LINE
8
0
10
153.911558
20
37.956935
11
155.726592
21
37.201193
0
LINE
8
0
10
155.726592
20
37.201193
11
156.000000
21
36.500000
0
LINE
8
0
10
156.000000
20
36.500000
11
155.471250
21
35.440625
0
LINE
8
0
10
155.471250
20
35.440625
11
154.200000
21
35.000000
0
LINE
8
0
10
154.200000
20
35.000000
11
152.504041
21
34.653453
0
LINE
8
0
10
152.504041
20
34.653453
11
150.309680
21
32.197858
0
LINE
8
0
10
150.309680
20
32.197858
11
150.000000
21
30.300000
0
LINE
8
0
10
150.000000
20
30.300000
11
150.117527
21
29.186875
0
LINE
8
0
10
150.117527
20
29.186875
11
151.290082
21
28.108125
0
LINE
8
0
10
151.290082
20
28.108125
11
152.500000
21
28.000000
0
LINE
8
0
10
152.500000
20
28.000000
11
153.546875
21
27.896875
0
LINE
8
0
10
153.546875
20
27.896875
11
154.828125
21
27.128125
0
LINE
8
0
10
154.828125
20
27.128125
11
155.000000
21
26.500000
0
LINE
8
0
10
155.000000
20
26.500000
11
154.828125
21
25.871875
0
LINE
8
0
10
154.828125
20
25.871875
11
153.546875
21
25.103125
0
LINE
8
0
10
153.546875
20
25.103125
11
152.500000
21
25.000000
0
LINE
8
0
10
152.500000
20
25.000000
11
150.000000
21
25.000000
0
LINE
8
0
10
150.000000
20
25.000000
11
150.000000
21
15.000000
0
LINE
8
0
10
150.000000
20
15.000000
11
149.989128
21
11.977628
0
LINE
8
0
10
149.989128
20
11.977628
11
149.856445
21
7.867543
0
LINE
8
0
10
149.856445
20
7.867543
11
149.474284
21
5.783026
0
LINE
8
0
10
149.474284
20
5.783026
11
148.720768
21
5.059304
0
LINE
8
0
10
148.720768
20
5.059304
11
148.166667
21
5.000000
0
LINE
8
0
10
148.166667
20
5.000000
11
146.676042
21
5.195833
0
LINE
8
0
10
146.676042
20
5.195833
11
145.666667
21
5.666667
0
LINE
8
0
10
525.000000
20
16.500000
11
525.008662
21
20.104492
0
LINE
8
0
10
525.008662
20
20.104492
11
525.136039
21
24.899414
0
LINE
8
0
10
525.136039
20
24.899414
11
525.539232
21
27.217773
0
LINE
8
0
10
525.539232
20
27.217773
11
526.373132
21
27.950195
0
LINE
8
0
10
526.373132
20
27.950195
11
527.000000
21
28.000000
0
LINE
8
0
10
527.000000
20
28.000000
11
528.412500
21
27.647500
0
LINE
8
0
10
528.412500
20
27.647500
11
529.000000
21
26.800000
0
LINE
8
0
10
529.000000
20
26.800000
11
529.056250
21
26.275000
0
LINE
8
0
10
529.056250
20
26.275000
11
529.618750
21
26.275000
0
LINE
8
0
10
529.618750
20
26.275000
11
530.200000
21
26.800000
0
LINE
8
0
10
530.200000
20
26.800000
11
531.955198
21
27.845963
0
LINE
8
0
10
531.955198
20
27.845963
11
534.695436
21
27.790013
0
LINE
8
0
10
534.695436
20
27.790013
11
535.833318
21
26.774358
0
LINE
8
0
10
535.833318
20
26.774358
11
536.000000
21
26.000000
0
LINE
8
0
10
536.000000
20
26.000000
11
535.870313
21
25.088315
0
LINE
8
0
10
535.870313
20
25.088315
11
534.748438
21
24.112772
0
LINE
8
0
10
534.748438
20
24.112772
11
533.700000
21
24.000000
0
LINE
8
0
10
533.700000
20
24.000000
11
532.380946
21
23.903547
0
LINE
8
0
10
532.380946
20
23.903547
11
530.503042
21
22.950033
0
LINE
8
0
10
530.503042
20
22.950033
11
529.461200
21
20.578180
0
LINE
8
0
10
529.461200
20
20.578180
11
529.042367
21
16.302953
0
LINE
8
0
10
529.042367
20
16.302953
11
529.000000
21
13.300000
0
LINE
8
0
10
529.000000
20
13.300000
11
528.989505
21
10.751758
0
LINE
8
0
10
528.989505
20
10.751758
11
528.852174
21
7.319336
0
LINE
8
0
10
528.852174
20
7.319336
11
528.088479
21
5.223437
0
LINE
8
0
10
528.088479
20
5.223437
11
527.000000
21
5.000000
0
LINE
8
0
10
527.000000
20
5.000000
11
526.373132
21
5.049805
0
LINE
8
0
10
526.373132
20
5.049805
11
525.539232
21
5.782227
0
LINE
8
0
10
525.539232
20
5.782227
11
525.136039
21
8.100586
0
LINE
8
0
10
525.136039
20
8.100586
11
525.008662
21
12.895508
0
LINE
8
0
10
525.008662
20
12.895508
11
525.000000
21
16.500000
0
LINE
8
0
10
428.000000
20
16.500000
11
428.008662
21
20.104492
0
LINE
8
0
10
428.008662
20
20.104492
11
428.136039
21
24.899414
0
LINE
8
0
10
428.136039
20
24.899414
11
428.539232
21
27.217773
0
LINE
8
0
10
428.539232
20
27.217773
11
429.373132
21
27.950195
0
LINE
8
0
10
429.373132
20
27.950195
11
430.000000
21
28.000000
0
LINE
8
0
10
430.000000
20
28.000000
11
430.626868
21
27.950195
0
LINE
8
0
10
430.626868
20
27.950195
11
431.460768
21
27.217773
0
LINE
8
0
10
431.460768
20
27.217773
11
431.863961
21
24.899414
0
LINE
8
0
10
431.863961
20
24.899414
11
431.991338
21
20.104492
0
LINE
8
0
10
431.991338
20
20.104492
11
432.000000
21
16.500000
0
LINE
8
0
10
432.000000
20
16.500000
11
431.991338
21
12.895508
0
LINE
8
0
10
431.991338
20
12.895508
11
431.863961
21
8.100586
0
LINE
8
0
10
431.863961
20
8.100586
11
431.460768
21
5.782227
0
LINE
8
0
10
431.460768
20
5.782227
11
430.626868
21
5.049805
0
LINE
8
0
10
430.626868
20
5.049805
11
430.000000
21
5.000000
0
LINE
8
0
10
430.000000
20
5.000000
11
429.373132
21
5.049805
0
LINE
8
0
10
429.373132
20
5.049805
11
428.539232
21
5.782227
0
LINE
8
0
10
428.539232
20
5.782227
11
428.136039
21
8.100586
0
LINE
8
0
10
428.136039
20
8.100586
11
428.008662
21
12.895508
0
LINE
8
0
10
428.008662
20
12.895508
11
428.000000
21
16.500000
0
LINE
8
0
10
163.000000
20
16.500000
11
163.008662
21
20.104492
0
LINE
8
0
10
163.008662
20
20.104492
11
163.136039
21
24.899414
0
LINE
8
0
10
163.136039
20
24.899414
11
163.539232
21
27.217773
0
LINE
8
0
10
163.539232
20
27.217773
11
164.373132
21
27.950195
0
LINE
8
0
10
164.373132
20
27.950195
11
165.000000
21
28.000000
0
LINE
8
0
10
165.000000
20
28.000000
11
165.626868
21
27.950195
0
LINE
8
0
10
165.626868
20
27.950195
11
166.460768
21
27.217773
0
LINE
8
0
10
166.460768
20
27.217773
11
166.863961
21
24.899414
0
LINE
8
0
10
166.863961
20
24.899414
11
166.991338
21
20.104492
0
LINE
8
0
10
166.991338
20
20.104492
11
167.000000
21
16.500000
0
LINE
8
0
10
167.000000
20
16.500000
11
166.991338
21
12.895508
0
LINE
8
0
10
166.991338
20
12.895508
11
166.863961
21
8.100586
0
LINE
8
0
10
166.863961
20
8.100586
11
166.460768
21
5.782227
0
LINE
8
0
10
166.460768
20
5.782227
11
165.626868
21
5.049805
0
LINE
8
0
10
165.626868
20
5.049805
11
165.000000
21
5.000000
0
LINE
8
0
10
165.000000
20
5.000000
11
164.373132
21
5.049805
0
LINE
8
0
10
164.373132
20
5.049805
11
163.539232
21
5.782227
0
LINE
8
0
10
163.539232
20
5.782227
11
163.136039
21
8.100586
0
LINE
8
0
10
163.136039
20
8.100586
11
163.008662
21
12.895508
0
LINE
8
0
10
163.008662
20
12.895508
11
163.000000
21
16.500000
0
LINE
8
0
10
582.923077
20
91.923077
11
581.726072
21
93.277829
0
LINE
8
0
10
581.726072
20
93.277829
11
580.323938
21
95.956000
0
LINE
8
0
10
580.323938
20
95.956000
11
580.243334
21
98.624621
0
LINE
8
0
10
580.243334
20
98.624621
11
581.483091
21
101.322361
0
LINE
8
0
10
581.483091
20
101.322361
11
582.597740
21
102.694236
0
LINE
8
0
10
582.597740
20
102.694236
11
585.195480
21
105.500000
0
LINE
8
0
10
585.195480
20
105.500000
11
583.097740
21
102.615141
0
LINE
8
0
10
583.097740
20
102.615141
11
582.194900
21
101.208871
0
LINE
8
0
10
582.194900
20
101.208871
11
581.201060
21
98.520269
0
LINE
8
0
10
581.201060
20
98.520269
11
581.290008
21
95.987320
0
LINE
8
0
10
581.290008
20
95.987320
11
582.462150
21
93.598504
0
LINE
8
0
10
582.462150
20
93.598504
11
583.454545
21
92.454545
0
LINE
8
0
10
583.454545
20
92.454545
11
584.598271
21
91.464126
0
LINE
8
0
10
584.598271
20
91.464126
11
586.986943
21
90.290534
0
LINE
8
0
10
586.986943
20
90.290534
11
589.484300
21
90.194283
0
LINE
8
0
10
589.484300
20
90.194283
11
592.058809
21
91.176589
0
LINE
8
0
10
592.058809
20
91.176589
11
593.365141
21
92.072580
0
LINE
8
0
10
593.365141
20
92.072580
11
594.958506
21
93.784412
0
LINE
8
0
10
594.958506
20
93.784412
11
596.022483
21
97.794309
0
LINE
8
0
10
596.022483
20
97.794309
11
594.570453
21
101.733184
0
LINE
8
0
10
594.570453
20
101.733184
11
590.979607
21
104.577842
0
LINE
8
0
10
590.979607
20
104.577842
11
588.500000
21
105.270091
0
LINE
8
0
10
588.500000
20
105.270091
11
585.500000
21
105.700336
0
LINE
8
0
10
585.500000
20
105.700336
11
588.795455
21
105.850168
0
LINE
8
0
10
588.795455
20
105.850168
11
590.352398
21
105.784932
0
LINE
8
0
10
590.352398
20
105.784932
11
593.017137
21
104.906842
0
LINE
8
0
10
593.017137
20
104.906842
11
595.792580
21
102.160902
0
LINE
8
0
10
595.792580
20
102.160902
11
596.936104
21
97.065220
0
LINE
8
0
10
596.936104
20
97.065220
11
595.645426
21
93.194865
0
LINE
8
0
10
595.645426
20
93.194865
11
593.663170
21
91.031731
0
LINE
8
0
10
593.663170
20
91.031731
11
592.315741
21
90.163343
0
LINE
8
0
10
592.315741
20
90.163343
11
589.801194
21
89.208281
0
LINE
8
0
10
589.801194
20
89.208281
11
585.211675
21
90.068136
0
LINE
8
0
10
585.211675
20
90.068136
11
582.923077
21
91.923077
0
LINE
8
0
10
585.000000
20
98.000000
11
585.010560
21
99.288980
0
LINE
8
0
10
585.010560
20
99.288980
11
585.205992
21
100.975479
0
LINE
8
0
10
585.205992
20
100.975479
11
586.489683
21
101.922153
0
LINE
8
0
10
586.489683
20
101.922153
11
588.437320
21
102.000000
0
LINE
8
0
10
588.437320
20
102.000000
11
589.559556
21
101.989568
0
LINE
8
0
10
589.559556
20
101.989568
11
591.010542
21
101.762178
0
LINE
8
0
10
591.010542
20
101.762178
11
591.653576
21
100.939567
0
LINE
8
0
10
591.653576
20
100.939567
11
591.788692
21
99.137913
0
LINE
8
0
10
591.788692
20
99.137913
11
591.759542
21
97.750000
0
LINE
8
0
10
591.759542
20
97.750000
11
591.683640
21
96.237891
0
LINE
8
0
10
591.683640
20
96.237891
11
591.411562
21
94.905859
0
LINE
8
0
10
591.411562
20
94.905859
11
591.248897
21
95.250000
0
LINE
8
0
10
591.248897
20
95.250000
11
590.381755
21
96.484064
0
LINE
8
0
10
590.381755
20
96.484064
11
588.217345
21
96.907176
0
LINE
8
0
10
588.217345
20
96.907176
11
587.162809
21
96.180529
0
LINE
8
0
10
587.162809
20
96.180529
11
587.000000
21
95.500000
0
LINE
8
0
10
587.000000
20
95.500000
11
586.706250
21
94.440625
0
LINE
8
0
10
586.706250
20
94.440625
11
586.000000
21
94.000000
0
LINE
8
0
10
586.000000
20
94.000000
11
585.611719
21
94.315625
0
LINE
8
0
10
585.611719
20
94.315625
11
585.078906
21
96.446875
0
LINE
8
0
10
585.078906
20
96.446875
11
585.000000
21
98.000000
0
LINE
8
0
10
231.036855
20
119.750000
11
230.953774
21
120.326704
0
LINE
8
0
10
230.953774
20
120.326704
11
230.275428
21
122.941668
0
LINE
8
0
10
230.275428
20
122.941668
11
228.344128
21
129.380325
0
LINE
8
0
10
228.344128
20
129.380325
11
225.090038
21
139.476633
0
LINE
8
0
10
225.090038
20
139.476633
11
222.995788
21
145.527855
0
LINE
8
0
10
222.995788
20
145.527855
11
222.131214
21
147.700035
0
LINE
8
0
10
222.131214
20
147.700035
11
221.931740
21
148.000000
0
LINE
8
0
10
221.931740
20
148.000000
11
221.601501
21
147.704102
0
LINE
8
0
10
221.601501
20
147.704102
11
220.656676
21
145.706055
0
LINE
8
0
10
220.656676
20
145.706055
11
220.158462
21
144.250000
0
LINE
8
0
10
220.158462
20
144.250000
11
219.856230
21
143.277295
0
LINE
8
0
10
219.856230
20
143.277295
11
218.927744
21
140.314697
0
LINE
8
0
10
218.927744
20
140.314697
11
217.005982
21
134.219922
0
LINE
8
0
10
217.005982
20
134.219922
11
215.590694
21
129.750000
0
LINE
8
0
10
215.590694
20
129.750000
11
212.181039
21
119.000000
0
LINE
8
0
10
212.181039
20
119.000000
11
221.590519
21
119.000000
0
LINE
8
0
10
221.590519
20
119.000000
11
225.246952
21
119.059180
0
LINE
8
0
10
225.246952
20
119.059180
11
229.403626
21
119.331421
0
LINE
8
0
10
229.403626
20
119.331421
11
230.837403
21
119.599341
0
LINE
8
0
10
230.837403
20
119.599341
11
231.036855
21
119.750000
0
LINE
8
0
10
427.000000
20
119.595950
11
422.736366
21
133.714797
0
LINE
8
0
10
422.736366
20
133.714797
11
417.933800
21
147.378880
0
LINE
8
0
10
417.933800
20
147.378880
11
417.688897
21
147.282364
0
LINE
8
0
10
417.688897
20
147.282364
11
416.770757
21
145.576426
0
LINE
8
0
10
416.770757
20
145.576426
11
415.418220
21
142.195078
0
LINE
8
0
10
415.418220
20
142.195078
11
413.795350
21
137.548477
0
LINE
8
0
10
413.795350
20
137.548477
11
412.933810
21
134.878880
0
LINE
8
0
10
412.933810
20
134.878880
11
411.262694
21
129.585479
0
LINE
8
0
10
411.262694
20
129.585479
11
409.239100
21
123.240594
0
LINE
8
0
10
409.239100
20
123.240594
11
408.435944
21
120.774164
0
LINE
8
0
10
408.435944
20
120.774164
11
408.255701
21
120.250000
0
LINE
8
0
10
408.255701
20
120.250000
11
408.248122
21
119.924727
0
LINE
8
0
10
408.248122
20
119.924727
11
409.073881
21
119.438835
0
LINE
8
0
10
409.073881
20
119.438835
11
411.213632
21
119.146114
0
LINE
8
0
10
411.213632
20
119.146114
11
414.898697
21
119.014916
0
LINE
8
0
10
414.898697
20
119.014916
11
417.393011
21
119.000000
0
LINE
8
0
10
417.393011
20
119.000000
11
421.123225
21
119.047024
0
LINE
8
0
10
421.123225
20
119.047024
11
425.353490
21
119.263347
0
LINE
8
0
10
425.353490
20
119.263347
11
426.803920
21
119.476236
0
LINE
8
0
10
426.803920
20
119.476236
11
427.000000
21
119.595950
0
LINE
8
0
10
189.777494
20
9.556704
11
190.895805
21
10.558141
0
LINE
8
0
10
190.895805
20
10.558141
11
191.909748
21
13.719066
0
LINE
8
0
10
191.909748
20
13.719066
11
192.000000
21
16.485275
0
LINE
8
0
10
192.000000
20
16.485275
11
191.921864
21
18.567719
0
LINE
8
0
10
191.921864
20
18.567719
11
191.276123
21
21.806800
0
LINE
8
0
10
191.276123
20
21.806800
11
189.931863
21
23.882336
0
LINE
8
0
10
189.931863
20
23.882336
11
187.834010
21
24.879358
0
LINE
8
0
10
187.834010
20
24.879358
11
186.485275
21
25.000000
0
LINE
8
0
10
186.485275
20
25.000000
11
185.319857
21
24.836407
0
LINE
8
0
10
185.319857
20
24.836407
11
183.326654
21
23.597873
0
LINE
8
0
10
183.326654
20
23.597873
11
181.881748
21
21.300231
0
LINE
8
0
10
181.881748
20
21.300231
11
181.102878
21
18.130705
0
LINE
8
0
10
181.102878
20
18.130705
11
181.000000
21
16.277494
0
LINE
8
0
10
181.000000
20
16.277494
11
181.118918
21
14.248150
0
LINE
8
0
10
181.118918
20
14.248150
11
182.106754
21
11.147581
0
LINE
8
0
10
182.106754
20
11.147581
11
183.000000
21
10.000000
0
LINE
8
0
10
183.000000
20
10.000000
11
184.661345
21
8.625996
0
LINE
8
0
10
184.661345
20
8.625996
11
187.817806
21
8.419541
0
LINE
8
0
10
187.817806
20
8.419541
11
189.777494
21
9.556704
0
LINE
8
0
10
582.777494
20
9.556704
11
583.895805
21
10.558141
0
LINE
8
0
10
583.895805
20
10.558141
11
584.909748
21
13.719066
0
LINE
8
0
10
584.909748
20
13.719066
11
585.000000
21
16.485275
0
LINE
8
0
10
585.000000
20
16.485275
11
584.921864
21
18.567719
0
LINE
8
0
10
584.921864
20
18.567719
11
584.276123
21
21.806800
0
LINE
8
0
10
584.276123
20
21.806800
11
582.931863
21
23.882336
0
LINE
8
0
10
582.931863
20
23.882336
11
580.834010
21
24.879358
0
LINE
8
0
10
580.834010
20
24.879358
11
579.485275
21
25.000000
0
LINE
8
0
10
579.485275
20
25.000000
11
578.319857
21
24.836407
0
LINE
8
0
10
578.319857
20
24.836407
11
576.326654
21
23.597873
0
LINE
8
0
10
576.326654
20
23.597873
11
574.881748
21
21.300231
0
LINE
8
0
10
574.881748
20
21.300231
11
574.102878
21
18.130705
0
LINE
8
0
10
574.102878
20
18.130705
11
574.000000
21
16.277494
0
LINE
8
0
10
574.000000
20
16.277494
11
574.118918
21
14.248150
0
LINE
8
0
10
574.118918
20
14.248150
11
575.106754
21
11.147581
0
LINE
8
0
10
575.106754
20
11.147581
11
576.000000
21
10.000000
0
LINE
8
0
10
576.000000
20
10.000000
11
577.661345
21
8.625996
0
LINE
8
0
10
577.661345
20
8.625996
11
580.817806
21
8.419541
0
LINE
8
0
10
580.817806
20
8.419541
11
582.777494
21
9.556704
0
LINE
8
0
10
412.000000
20
10.000000
11
412.850783
21
11.192334
0
LINE
8
0
10
412.850783
20
11.192334
11
413.876343
21
14.587368
0
LINE
8
0
10
413.876343
20
14.587368
11
413.978867
21
18.501342
0
LINE
8
0
10
413.978867
20
18.501342
11
413.132322
21
21.940402
0
LINE
8
0
10
413.132322
20
21.940402
11
412.345012
21
23.171259
0
LINE
8
0
10
412.345012
20
23.171259
11
410.748528
21
24.475075
0
LINE
8
0
10
410.748528
20
24.475075
11
407.433881
21
24.926159
0
LINE
8
0
10
407.433881
20
24.926159
11
404.537359
21
22.906511
0
LINE
8
0
10
404.537359
20
22.906511
11
402.755391
21
18.901727
0
LINE
8
0
10
402.755391
20
18.901727
11
402.500000
21
16.306659
0
LINE
8
0
10
402.500000
20
16.306659
11
402.609315
21
14.038837
0
LINE
8
0
10
402.609315
20
14.038837
11
403.713238
21
11.048473
0
LINE
8
0
10
403.713238
20
11.048473
11
404.860784
21
9.911647
0
LINE
8
0
10
404.860784
20
9.911647
11
406.891452
21
8.548344
0
LINE
8
0
10
406.891452
20
8.548344
11
410.252332
21
8.589938
0
LINE
8
0
10
410.252332
20
8.589938
11
412.000000
21
10.000000
0
LINE
8
0
10
99.976241
20
9.779678
11
100.942801
21
10.900587
0
LINE
8
0
10
100.942801
20
10.900587
11
102.128361
21
14.210607
0
LINE
8
0
10
102.128361
20
14.210607
11
102.284580
21
18.127680
0
LINE
8
0
10
102.284580
20
18.127680
11
101.372348
21
21.671140
0
LINE
8
0
10
101.372348
20
21.671140
11
100.503341
21
22.996308
0
LINE
8
0
10
100.503341
20
22.996308
11
98.592403
21
24.490606
0
LINE
8
0
10
98.592403
20
24.490606
11
94.667003
21
24.680368
0
LINE
8
0
10
94.667003
20
24.680368
11
91.492127
21
21.912889
0
LINE
8
0
10
91.492127
20
21.912889
11
90.134042
21
17.117612
0
LINE
8
0
10
90.134042
20
17.117612
11
90.469503
21
14.250000
0
LINE
8
0
10
90.469503
20
14.250000
11
91.133601
21
12.230855
0
LINE
8
0
10
91.133601
20
12.230855
11
93.052289
21
9.377930
0
LINE
8
0
10
93.052289
20
9.377930
11
95.570115
21
8.193982
0
LINE
8
0
10
95.570115
20
8.193982
11
98.461251
21
8.785198
0
LINE
8
0
10
98.461251
20
8.785198
11
99.976241
21
9.779678
0
LINE
8
0
10
220.000000
20
20.300000
11
219.647500
21
22.276875
0
LINE
8
0
10
219.647500
20
22.276875
11
218.800000
21
23.800000
0
LINE
8
0
10
218.800000
20
23.800000
11
217.601864
21
24.622340
0
LINE
8
0
10
217.601864
20
24.622340
11
214.760507
21
24.914547
0
LINE
8
0
10
214.760507
20
24.914547
11
212.031304
21
23.713875
0
LINE
8
0
10
212.031304
20
23.713875
11
210.260981
21
21.392828
0
LINE
8
0
10
210.260981
20
21.392828
11
210.000000
21
19.928571
0
LINE
8
0
10
210.000000
20
19.928571
11
210.180556
21
18.932143
0
LINE
8
0
10
210.180556
20
18.932143
11
211.540799
21
18.175781
0
LINE
8
0
10
211.540799
20
18.175781
11
213.558738
21
18.015290
0
LINE
8
0
10
213.558738
20
18.015290
11
215.000000
21
18.000000
0
LINE
8
0
10
215.000000
20
18.000000
11
216.521399
21
18.012969
0
LINE
8
0
10
216.521399
20
18.012969
11
218.581861
21
18.175781
0
LINE
8
0
10
218.581861
20
18.175781
11
219.858696
21
19.057500
0
LINE
8
0
10
219.858696
20
19.057500
11
220.000000
21
20.300000
0
LINE
8
0
10
557.527179
20
19.043976
11
557.730409
21
19.801967
0
LINE
8
0
10
557.730409
20
19.801967
11
557.117163
21
21.696971
0
LINE
8
0
10
557.117163
20
21.696971
11
554.611083
21
24.315282
0
LINE
8
0
10
554.611083
20
24.315282
11
552.631935
21
25.000000
0
LINE
8
0
10
552.631935
20
25.000000
11
550.494941
21
24.441969
0
LINE
8
0
10
550.494941
20
24.441969
11
547.916359
21
22.189210
0
LINE
8
0
10
547.916359
20
22.189210
11
547.226415
21
20.375336
0
LINE
8
0
10
547.226415
20
20.375336
11
547.347334
21
19.537245
0
LINE
8
0
10
547.347334
20
19.537245
11
547.938697
21
18.932271
0
LINE
8
0
10
547.938697
20
18.932271
11
550.592203
21
18.145044
0
LINE
8
0
10
550.592203
20
18.145044
11
554.024130
21
17.978748
0
LINE
8
0
10
554.024130
20
17.978748
11
556.815332
21
18.502150
0
LINE
8
0
10
556.815332
20
18.502150
11
557.527179
21
19.043976
0
LINE
8
0
10
484.527179
20
19.043976
11
484.740465
21
19.819062
0
LINE
8
0
10
484.740465
20
19.819062
11
484.124757
21
21.723137
0
LINE
8
0
10
484.124757
20
21.723137
11
481.558006
21
24.323655
0
LINE
8
0
10
481.558006
20
24.323655
11
479.500000
21
25.000000
0
LINE
8
0
10
479.500000
20
25.000000
11
477.441994
21
24.323655
0
LINE
8
0
10
477.441994
20
24.323655
11
474.875243
21
21.723137
0
LINE
8
0
10
474.875243
20
21.723137
11
474.259535
21
19.819062
0
LINE
8
0
10
474.259535
20
19.819062
11
474.472821
21
19.043976
0
LINE
8
0
10
474.472821
20
19.043976
11
475.069110
21
18.638620
0
LINE
8
0
10
475.069110
20
18.638620
11
477.747653
21
18.082376
0
LINE
8
0
10
477.747653
20
18.082376
11
479.500000
21
18.000000
0
LINE
8
0
10
479.500000
20
18.000000
11
481.252347
21
18.082376
0
LINE
8
0
10
481.252347
20
18.082376
11
483.930890
21
18.638620
0
LINE
8
0
10
483.930890
20
18.638620
11
484.527179
21
19.043976
0
LINE
8
0
10
301.000000
20
20.300000
11
300.647500
21
22.276875
0
LINE
8
0
10
300.647500
20
22.276875
11
299.800000
21
23.800000
0
LINE
8
0
10
299.800000
20
23.800000
11
298.601864
21
24.622340
0
LINE
8
0
10
298.601864
20
24.622340
11
295.760507
21
24.914547
0
LINE
8
0
10
295.760507
20
24.914547
11
293.031304
21
23.713875
0
LINE
8
0
10
293.031304
20
23.713875
11
291.260981
21
21.392828
0
LINE
8
0
10
291.260981
20
21.392828
11
291.000000
21
19.928571
0
LINE
8
0
10
291.000000
20
19.928571
11
291.180556
21
18.932143
0
LINE
8
0
10
291.180556
20
18.932143
11
292.540799
21
18.175781
0
LINE
8
0
10
292.540799
20
18.175781
11
294.558738
21
18.015290
0
LINE
8
0
10
294.558738
20
18.015290
11
296.000000
21
18.000000
0
LINE
8
0
10
296.000000
20
18.000000
11
297.521399
21
18.012969
0
LINE
8
0
10
297.521399
20
18.012969
11
299.581861
21
18.175781
0
LINE
8
0
10
299.581861
20
18.175781
11
300.858696
21
19.057500
0
LINE
8
0
10
300.858696
20
19.057500
11
301.000000
21
20.300000
0
LINE
8
0
10
511.790955
20
20.128622
11
511.543999
21
21.839689
0
LINE
8
0
10
511.543999
20
21.839689
11
508.567319
21
24.555485
0
LINE
8
0
10
508.567319
20
24.555485
11
506.451624
21
25.000000
0
LINE
8
0
10
506.451624
20
25.000000
11
504.408293
21
24.318393
0
LINE
8
0
10
504.408293
20
24.318393
11
501.878683
21
21.696713
0
LINE
8
0
10
501.878683
20
21.696713
11
501.284619
21
19.775721
0
LINE
8
0
10
501.284619
20
19.775721
11
501.504397
21
18.992885
0
LINE
8
0
10
501.504397
20
18.992885
11
502.246504
21
18.452216
0
LINE
8
0
10
502.246504
20
18.452216
11
505.144618
21
18.060647
0
LINE
8
0
10
505.144618
20
18.060647
11
508.664118
21
18.449235
0
LINE
8
0
10
508.664118
20
18.449235
11
511.288427
21
19.450533
0
LINE
8
0
10
511.288427
20
19.450533
11
511.790955
21
20.128622
0
ENDSEC
0
EOF
