999
DXF File generated by ImageToStl.com - Free Image and 3D model conversion tools
0
SECTION
2
HEADER
9
$ACADVER
1
AC1009
9
$EXTMIN
10
0
20
0
9
$EXTMAX
10
386.000000
20
109.799624
0
ENDSEC
0
SECTION
2
ENTITIES
0
LINE
8
0
10
306.000000
20
24.727579
11
306.000000
21
42.799624
0
LINE
8
0
10
306.000000
20
42.799624
11
319.032119
21
42.799624
0
LINE
8
0
10
319.032119
20
42.799624
11
322.795905
21
42.775949
0
LINE
8
0
10
322.795905
20
42.775949
11
329.073112
21
42.526177
0
LINE
8
0
10
329.073112
20
42.526177
11
333.844721
21
41.872338
0
LINE
8
0
10
333.844721
20
41.872338
11
337.304601
21
40.653432
0
LINE
8
0
10
337.304601
20
40.653432
11
339.646620
21
38.708456
0
LINE
8
0
10
339.646620
20
38.708456
11
341.064647
21
35.876409
0
LINE
8
0
10
341.064647
20
35.876409
11
341.752550
21
31.996287
0
LINE
8
0
10
341.752550
20
31.996287
11
341.904197
21
26.907091
0
LINE
8
0
10
341.904197
20
26.907091
11
341.839509
21
23.858776
0
LINE
8
0
10
341.839509
20
23.858776
11
341.721268
21
20.361248
0
LINE
8
0
10
341.721268
20
20.361248
11
341.409206
21
15.579471
0
LINE
8
0
10
341.409206
20
15.579471
11
340.283490
21
11.861658
0
LINE
8
0
10
340.283490
20
11.861658
11
338.730075
21
10.069857
0
LINE
8
0
10
338.730075
20
10.069857
11
336.886346
21
8.473228
0
LINE
8
0
10
336.886346
20
8.473228
11
332.397169
21
7.372299
0
LINE
8
0
10
332.397169
20
7.372299
11
327.896304
21
7.146190
0
LINE
8
0
10
327.896304
20
7.146190
11
323.596043
21
7.034743
0
LINE
8
0
10
323.596043
20
7.034743
11
320.980075
21
6.977579
0
LINE
8
0
10
320.980075
20
6.977579
11
306.000000
21
6.655533
0
LINE
8
0
10
306.000000
20
6.655533
11
306.000000
21
24.727579
0
LINE
8
0
10
57.499613
20
62.185537
11
55.680277
21
63.056378
0
LINE
8
0
10
55.680277
20
63.056378
11
53.211738
21
65.094202
0
LINE
8
0
10
53.211738
20
65.094202
11
51.967915
21
68.425274
0
LINE
8
0
10
51.967915
20
68.425274
11
51.546255
21
74.127664
0
LINE
8
0
10
51.546255
20
74.127664
11
51.517940
21
78.205001
0
LINE
8
0
10
51.517940
20
78.205001
11
51.559334
21
81.342602
0
LINE
8
0
10
51.559334
20
81.342602
11
51.909594
21
86.633902
0
LINE
8
0
10
51.909594
20
86.633902
11
52.730307
21
90.721990
0
LINE
8
0
10
52.730307
20
90.721990
11
54.158061
21
93.737253
0
LINE
8
0
10
54.158061
20
93.737253
11
56.329443
21
95.810079
0
LINE
8
0
10
56.329443
20
95.810079
11
59.381041
21
97.070857
0
LINE
8
0
10
59.381041
20
97.070857
11
63.449442
21
97.649974
0
LINE
8
0
10
63.449442
20
97.649974
11
68.671235
21
97.677819
0
LINE
8
0
10
68.671235
20
97.677819
11
71.757336
21
97.525760
0
LINE
8
0
10
71.757336
20
97.525760
11
76.238708
21
97.131260
0
LINE
8
0
10
76.238708
20
97.131260
11
82.436966
21
95.421421
0
LINE
8
0
10
82.436966
20
95.421421
11
85.691179
21
91.616246
0
LINE
8
0
10
85.691179
20
91.616246
11
86.735396
21
86.761037
0
LINE
8
0
10
86.735396
20
86.761037
11
86.975237
21
82.327218
0
LINE
8
0
10
86.975237
20
82.327218
11
87.000000
21
79.702405
0
LINE
8
0
10
87.000000
20
79.702405
11
86.923256
21
75.831630
0
LINE
8
0
10
86.923256
20
75.831630
11
86.248222
21
69.815470
0
LINE
8
0
10
86.248222
20
69.815470
11
84.742054
21
65.731800
0
LINE
8
0
10
84.742054
20
65.731800
11
82.241864
21
63.138984
0
LINE
8
0
10
82.241864
20
63.138984
11
80.568108
21
62.263634
0
LINE
8
0
10
80.568108
20
62.263634
11
78.486416
21
61.659617
0
LINE
8
0
10
78.486416
20
61.659617
11
72.432173
21
60.956869
0
LINE
8
0
10
72.432173
20
60.956869
11
65.461509
21
60.933271
0
LINE
8
0
10
65.461509
20
60.933271
11
59.500087
21
61.595340
0
LINE
8
0
10
59.500087
20
61.595340
11
57.499613
21
62.185537
0
LINE
8
0
10
196.500000
20
61.649304
11
194.376718
21
62.462544
0
LINE
8
0
10
194.376718
20
62.462544
11
191.370296
21
64.676575
0
LINE
8
0
10
191.370296
20
64.676575
11
189.719053
21
68.335003
0
LINE
8
0
10
189.719053
20
68.335003
11
189.064978
21
74.231022
0
LINE
8
0
10
189.064978
20
74.231022
11
189.000000
21
78.266001
0
LINE
8
0
10
189.000000
20
78.266001
11
189.073430
21
82.355033
0
LINE
8
0
10
189.073430
20
82.355033
11
189.730473
21
88.638333
0
LINE
8
0
10
189.730473
20
88.638333
11
191.222439
21
92.829827
0
LINE
8
0
10
191.222439
20
92.829827
11
193.734938
21
95.450969
0
LINE
8
0
10
193.734938
20
95.450969
11
195.431892
21
96.335613
0
LINE
8
0
10
195.431892
20
96.335613
11
197.212764
21
96.911326
0
LINE
8
0
10
197.212764
20
96.911326
11
201.879551
21
97.617080
0
LINE
8
0
10
201.879551
20
97.617080
11
210.354865
21
97.538148
0
LINE
8
0
10
210.354865
20
97.538148
11
215.987128
21
96.708964
0
LINE
8
0
10
215.987128
20
96.708964
11
218.491691
21
96.064523
0
LINE
8
0
10
218.491691
20
96.064523
11
221.954281
21
94.134884
0
LINE
8
0
10
221.954281
20
94.134884
11
223.766581
21
90.532410
0
LINE
8
0
10
223.766581
20
90.532410
11
224.422702
21
84.274916
0
LINE
8
0
10
224.422702
20
84.274916
11
224.471604
21
79.843603
0
LINE
8
0
10
224.471604
20
79.843603
11
224.396171
21
75.561744
0
LINE
8
0
10
224.396171
20
75.561744
11
223.773577
21
69.200712
0
LINE
8
0
10
223.773577
20
69.200712
11
222.311001
21
65.199299
0
LINE
8
0
10
222.311001
20
65.199299
11
219.755230
21
62.864751
0
LINE
8
0
10
219.755230
20
62.864751
11
217.988269
21
62.106066
0
LINE
8
0
10
217.988269
20
62.106066
11
216.149482
21
61.680025
0
LINE
8
0
10
216.149482
20
61.680025
11
210.471921
21
61.117106
0
LINE
8
0
10
210.471921
20
61.117106
11
203.826076
21
60.975840
0
LINE
8
0
10
203.826076
20
60.975840
11
198.249993
21
61.299547
0
LINE
8
0
10
198.249993
20
61.299547
11
196.500000
21
61.649304
0
LINE
8
0
10
93.000000
20
79.345314
11
93.000000
21
97.891004
0
LINE
8
0
10
93.000000
20
97.891004
11
99.672938
21
97.595314
0
LINE
8
0
10
99.672938
20
97.595314
11
106.345876
21
97.299624
0
LINE
8
0
10
106.345876
20
97.299624
11
111.809591
21
84.049624
0
LINE
8
0
10
111.809591
20
84.049624
11
113.979445
21
78.905363
0
LINE
8
0
10
113.979445
20
78.905363
11
116.607932
21
73.073109
0
LINE
8
0
10
116.607932
20
73.073109
11
117.651928
21
71.074780
0
LINE
8
0
10
117.651928
20
71.074780
11
117.886652
21
70.805533
0
LINE
8
0
10
117.886652
20
70.805533
11
118.121003
21
71.082136
0
LINE
8
0
10
118.121003
20
71.082136
11
119.162242
21
73.121538
0
LINE
8
0
10
119.162242
20
73.121538
11
121.782683
21
79.065564
0
LINE
8
0
10
121.782683
20
79.065564
11
123.945444
21
84.305533
0
LINE
8
0
10
123.945444
20
84.305533
11
129.390888
21
97.799624
0
LINE
8
0
10
129.390888
20
97.799624
11
136.195444
21
97.799624
0
LINE
8
0
10
136.195444
20
97.799624
11
143.000000
21
97.799624
0
LINE
8
0
10
143.000000
20
97.799624
11
143.000000
21
79.299624
0
LINE
8
0
10
143.000000
20
79.299624
11
143.000000
21
60.799624
0
LINE
8
0
10
143.000000
20
60.799624
11
139.026046
21
60.799624
0
LINE
8
0
10
139.026046
20
60.799624
11
135.052092
21
60.799624
0
LINE
8
0
10
135.052092
20
60.799624
11
134.776046
21
76.049624
0
LINE
8
0
10
134.776046
20
76.049624
11
134.500000
21
91.299624
0
LINE
8
0
10
134.500000
20
91.299624
11
128.037177
21
76.049624
0
LINE
8
0
10
128.037177
20
76.049624
11
121.574355
21
60.799624
0
LINE
8
0
10
121.574355
20
60.799624
11
117.954888
21
60.799624
0
LINE
8
0
10
117.954888
20
60.799624
11
114.335421
21
60.799624
0
LINE
8
0
10
114.335421
20
60.799624
11
108.020180
21
75.331786
0
LINE
8
0
10
108.020180
20
75.331786
11
106.739285
21
78.258614
0
LINE
8
0
10
106.739285
20
78.258614
11
104.392354
21
83.506283
0
LINE
8
0
10
104.392354
20
83.506283
11
102.521059
21
87.538389
0
LINE
8
0
10
102.521059
20
87.538389
11
101.352388
21
89.865839
0
LINE
8
0
10
101.352388
20
89.865839
11
101.102470
21
90.237477
0
LINE
8
0
10
101.102470
20
90.237477
11
100.988421
21
90.008284
0
LINE
8
0
10
100.988421
20
90.008284
11
100.824794
21
87.891309
0
LINE
8
0
10
100.824794
20
87.891309
11
100.754258
21
83.960245
0
LINE
8
0
10
100.754258
20
83.960245
11
100.785370
21
78.691931
0
LINE
8
0
10
100.785370
20
78.691931
11
100.841717
21
75.705315
0
LINE
8
0
10
100.841717
20
75.705315
11
101.183434
21
60.799624
0
LINE
8
0
10
101.183434
20
60.799624
11
97.091717
21
60.799624
0
LINE
8
0
10
97.091717
20
60.799624
11
93.000000
21
60.799624
0
LINE
8
0
10
93.000000
20
60.799624
11
93.000000
21
79.345314
0
LINE
8
0
10
151.000000
20
79.299624
11
151.000000
21
97.799624
0
LINE
8
0
10
151.000000
20
97.799624
11
160.750000
21
97.756073
0
LINE
8
0
10
160.750000
20
97.756073
11
165.018163
21
97.686882
0
LINE
8
0
10
165.018163
20
97.686882
11
171.895975
21
97.232269
0
LINE
8
0
10
171.895975
20
97.232269
11
176.839833
21
96.303928
0
LINE
8
0
10
176.839833
20
96.303928
11
180.182616
21
94.839350
0
LINE
8
0
10
180.182616
20
94.839350
11
181.357630
21
93.886439
0
LINE
8
0
10
181.357630
20
93.886439
11
182.442676
21
92.527017
0
LINE
8
0
10
182.442676
20
92.527017
11
183.291079
21
89.739232
0
LINE
8
0
10
183.291079
20
89.739232
11
183.480891
21
86.772296
0
LINE
8
0
10
183.480891
20
86.772296
11
183.500000
21
84.799624
0
LINE
8
0
10
183.500000
20
84.799624
11
183.481315
21
82.797011
0
LINE
8
0
10
183.481315
20
82.797011
11
183.289374
21
79.811834
0
LINE
8
0
10
183.289374
20
79.811834
11
182.402741
21
77.017423
0
LINE
8
0
10
182.402741
20
77.017423
11
181.247387
21
75.602566
0
LINE
8
0
10
181.247387
20
75.602566
11
179.719404
21
74.399239
0
LINE
8
0
10
179.719404
20
74.399239
11
176.079397
21
73.423501
0
LINE
8
0
10
176.079397
20
73.423501
11
171.624138
21
73.091783
0
LINE
8
0
10
171.624138
20
73.091783
11
168.497387
21
72.961369
0
LINE
8
0
10
168.497387
20
72.961369
11
158.000000
21
72.572785
0
LINE
8
0
10
158.000000
20
72.572785
11
158.000000
21
66.686204
0
LINE
8
0
10
158.000000
20
66.686204
11
158.000000
21
60.799624
0
LINE
8
0
10
158.000000
20
60.799624
11
154.500000
21
60.799624
0
LINE
8
0
10
154.500000
20
60.799624
11
151.000000
21
60.799624
0
LINE
8
0
10
151.000000
20
60.799624
11
151.000000
21
79.299624
0
LINE
8
0
10
219.000000
20
24.845314
11
219.000000
21
42.891004
0
LINE
8
0
10
219.000000
20
42.891004
11
225.693240
21
42.595314
0
LINE
8
0
10
225.693240
20
42.595314
11
232.386479
21
42.299624
0
LINE
8
0
10
232.386479
20
42.299624
11
240.943240
21
27.611469
0
LINE
8
0
10
240.943240
20
27.611469
11
249.500000
21
12.923314
0
LINE
8
0
10
249.500000
20
12.923314
11
249.776046
21
27.861469
0
LINE
8
0
10
249.776046
20
27.861469
11
250.052092
21
42.799624
0
LINE
8
0
10
250.052092
20
42.799624
11
254.026046
21
42.799624
0
LINE
8
0
10
254.026046
20
42.799624
11
258.000000
21
42.799624
0
LINE
8
0
10
258.000000
20
42.799624
11
258.000000
21
24.799624
0
LINE
8
0
10
258.000000
20
24.799624
11
258.000000
21
6.799624
0
LINE
8
0
10
258.000000
20
6.799624
11
251.142017
21
6.799624
0
LINE
8
0
10
251.142017
20
6.799624
11
244.284035
21
6.799624
0
LINE
8
0
10
244.284035
20
6.799624
11
235.392017
21
22.049624
0
LINE
8
0
10
235.392017
20
22.049624
11
226.500000
21
37.299624
0
LINE
8
0
10
226.500000
20
37.299624
11
226.223954
21
22.049624
0
LINE
8
0
10
226.223954
20
22.049624
11
225.947908
21
6.799624
0
LINE
8
0
10
225.947908
20
6.799624
11
222.473954
21
6.799624
0
LINE
8
0
10
222.473954
20
6.799624
11
219.000000
21
6.799624
0
LINE
8
0
10
219.000000
20
6.799624
11
219.000000
21
24.845314
0
LINE
8
0
10
347.244310
20
12.549624
11
347.775235
21
13.949599
0
LINE
8
0
10
347.775235
20
13.949599
11
349.246275
21
17.815371
0
LINE
8
0
10
349.246275
20
17.815371
11
352.059258
21
25.186538
0
LINE
8
0
10
352.059258
20
25.186538
11
354.014880
21
30.299624
0
LINE
8
0
10
354.014880
20
30.299624
11
358.609246
21
42.299624
0
LINE
8
0
10
358.609246
20
42.299624
11
364.629394
21
42.592793
0
LINE
8
0
10
364.629394
20
42.592793
11
370.649541
21
42.885962
0
LINE
8
0
10
370.649541
20
42.885962
11
377.710298
21
24.842793
0
LINE
8
0
10
377.710298
20
24.842793
11
384.771055
21
6.799624
0
LINE
8
0
10
384.771055
20
6.799624
11
380.834501
21
6.799624
0
LINE
8
0
10
380.834501
20
6.799624
11
378.677346
21
6.902179
0
LINE
8
0
10
378.677346
20
6.902179
11
376.336345
21
8.419791
0
LINE
8
0
10
376.336345
20
8.419791
11
375.435553
21
10.299624
0
LINE
8
0
10
375.435553
20
10.299624
11
373.973160
21
13.799624
0
LINE
8
0
10
373.973160
20
13.799624
11
364.935553
21
13.799624
0
LINE
8
0
10
364.935553
20
13.799624
11
355.897947
21
13.799624
0
LINE
8
0
10
355.897947
20
13.799624
11
354.435553
21
10.299624
0
LINE
8
0
10
354.435553
20
10.299624
11
353.534234
21
8.418358
0
LINE
8
0
10
353.534234
20
8.418358
11
351.187785
21
6.901702
0
LINE
8
0
10
351.187785
20
6.901702
11
349.020632
21
6.799624
0
LINE
8
0
10
349.020632
20
6.799624
11
345.068105
21
6.799624
0
LINE
8
0
10
345.068105
20
6.799624
11
347.244310
21
12.549624
0
LINE
8
0
10
175.166667
20
7.663742
11
175.366200
21
8.187071
0
LINE
8
0
10
175.366200
20
8.187071
11
176.465944
21
11.082873
0
LINE
8
0
10
176.465944
20
11.082873
11
178.313196
21
15.952014
0
LINE
8
0
10
178.313196
20
15.952014
11
180.683885
21
22.203868
0
LINE
8
0
10
180.683885
20
22.203868
11
181.995497
21
25.663742
0
LINE
8
0
10
181.995497
20
25.663742
11
188.490994
21
42.799624
0
LINE
8
0
10
188.490994
20
42.799624
11
194.495497
21
42.798011
0
LINE
8
0
10
194.495497
20
42.798011
11
200.500000
21
42.796399
0
LINE
8
0
10
200.500000
20
42.796399
11
207.250000
21
25.480008
0
LINE
8
0
10
207.250000
20
25.480008
11
208.605933
21
21.987591
0
LINE
8
0
10
208.605933
20
21.987591
11
211.017212
21
15.698750
0
LINE
8
0
10
211.017212
20
15.698750
11
212.843140
21
10.830046
0
LINE
8
0
10
212.843140
20
10.830046
11
213.862231
21
7.972049
0
LINE
8
0
10
213.862231
20
7.972049
11
214.000000
21
7.481620
0
LINE
8
0
10
214.000000
20
7.481620
11
213.700226
21
7.216814
0
LINE
8
0
10
213.700226
20
7.216814
11
211.676012
21
6.853438
0
LINE
8
0
10
211.676012
20
6.853438
11
210.200888
21
6.799624
0
LINE
8
0
10
210.200888
20
6.799624
11
208.121639
21
6.901599
0
LINE
8
0
10
208.121639
20
6.901599
11
205.927237
21
8.418050
0
LINE
8
0
10
205.927237
20
8.418050
11
205.136160
21
10.299624
0
LINE
8
0
10
205.136160
20
10.299624
11
203.870544
21
13.799624
0
LINE
8
0
10
203.870544
20
13.799624
11
194.636160
21
13.799624
0
LINE
8
0
10
194.636160
20
13.799624
11
185.401777
21
13.799624
0
LINE
8
0
10
185.401777
20
13.799624
11
184.136160
21
10.299624
0
LINE
8
0
10
184.136160
20
10.299624
11
183.339096
21
8.398780
0
LINE
8
0
10
183.339096
20
8.398780
11
181.068988
21
6.895176
0
LINE
8
0
10
181.068988
20
6.895176
11
178.851939
21
6.799624
0
LINE
8
0
10
178.851939
20
6.799624
11
177.317892
21
6.867808
0
LINE
8
0
10
177.317892
20
6.867808
11
175.354333
21
7.328221
0
LINE
8
0
10
175.354333
20
7.328221
11
175.166667
21
7.663742
0
LINE
8
0
10
263.999868
20
12.049624
11
264.494313
21
13.359365
0
LINE
8
0
10
264.494313
20
13.359365
11
265.926216
21
17.122011
0
LINE
8
0
10
265.926216
20
17.122011
11
268.763823
21
24.531850
0
LINE
8
0
10
268.763823
20
24.531850
11
270.790456
21
29.799624
0
LINE
8
0
10
270.790456
20
29.799624
11
275.609246
21
42.299624
0
LINE
8
0
10
275.609246
20
42.299624
11
281.632950
21
42.592885
0
LINE
8
0
10
281.632950
20
42.592885
11
287.656654
21
42.886146
0
LINE
8
0
10
287.656654
20
42.886146
11
294.348612
21
25.592885
0
LINE
8
0
10
294.348612
20
25.592885
11
295.692471
21
22.103726
0
LINE
8
0
10
295.692471
20
22.103726
11
298.079953
21
15.812881
0
LINE
8
0
10
298.079953
20
15.812881
11
299.884693
21
10.932038
0
LINE
8
0
10
299.884693
20
10.932038
11
300.887775
21
8.053241
0
LINE
8
0
10
300.887775
20
8.053241
11
301.020284
21
7.549624
0
LINE
8
0
10
301.020284
20
7.549624
11
300.732210
21
7.258413
0
LINE
8
0
10
300.732210
20
7.258413
11
298.829371
21
6.858803
0
LINE
8
0
10
298.829371
20
6.858803
11
297.448973
21
6.799624
0
LINE
8
0
10
297.448973
20
6.799624
11
295.532576
21
6.915010
0
LINE
8
0
10
295.532576
20
6.915010
11
293.321983
21
8.458282
0
LINE
8
0
10
293.321983
20
8.458282
11
292.435553
21
10.299624
0
LINE
8
0
10
292.435553
20
10.299624
11
290.973160
21
13.799624
0
LINE
8
0
10
290.973160
20
13.799624
11
281.935553
21
13.799624
0
LINE
8
0
10
281.935553
20
13.799624
11
272.897947
21
13.799624
0
LINE
8
0
10
272.897947
20
13.799624
11
271.435553
21
10.299624
0
LINE
8
0
10
271.435553
20
10.299624
11
270.533580
21
8.416578
0
LINE
8
0
10
270.533580
20
8.416578
11
268.180299
21
6.901109
0
LINE
8
0
10
268.180299
20
6.901109
11
266.000615
21
6.799624
0
LINE
8
0
10
266.000615
20
6.799624
11
262.028071
21
6.799624
0
LINE
8
0
10
262.028071
20
6.799624
11
263.999868
21
12.049624
0
LINE
8
0
10
231.750000
20
61.836459
11
230.614275
21
63.029274
0
LINE
8
0
10
230.614275
20
63.029274
11
230.150696
21
66.171575
0
LINE
8
0
10
230.150696
20
66.171575
11
230.948704
21
67.267921
0
LINE
8
0
10
230.948704
20
67.267921
11
231.664243
21
67.408163
0
LINE
8
0
10
231.664243
20
67.408163
11
234.514011
21
67.130270
0
LINE
8
0
10
234.514011
20
67.130270
11
236.297242
21
66.746362
0
LINE
8
0
10
236.297242
20
66.746362
11
238.638978
21
66.323157
0
LINE
8
0
10
238.638978
20
66.323157
11
244.341782
21
66.183220
0
LINE
8
0
10
244.341782
20
66.183220
11
247.598538
21
66.469047
0
LINE
8
0
10
247.598538
20
66.469047
11
254.500000
21
67.299624
0
LINE
8
0
10
254.500000
20
67.299624
11
254.806466
21
70.984220
0
LINE
8
0
10
254.806466
20
70.984220
11
254.861517
21
72.568369
0
LINE
8
0
10
254.861517
20
72.568369
11
254.139321
21
74.792005
0
LINE
8
0
10
254.139321
20
74.792005
11
251.682600
21
76.084899
0
LINE
8
0
10
251.682600
20
76.084899
11
246.741603
21
76.841620
0
LINE
8
0
10
246.741603
20
76.841620
11
243.105204
21
77.142220
0
LINE
8
0
10
243.105204
20
77.142220
11
239.584960
21
77.502355
0
LINE
8
0
10
239.584960
20
77.502355
11
233.955629
21
78.622461
0
LINE
8
0
10
233.955629
20
78.622461
11
232.401937
21
79.271920
0
LINE
8
0
10
232.401937
20
79.271920
11
231.009539
21
80.608177
0
LINE
8
0
10
231.009539
20
80.608177
11
229.380639
21
84.620020
0
LINE
8
0
10
229.380639
20
84.620020
11
229.308105
21
89.414722
0
LINE
8
0
10
229.308105
20
89.414722
11
230.810143
21
93.788789
0
LINE
8
0
10
230.810143
20
93.788789
11
232.157316
21
95.441993
0
LINE
8
0
10
232.157316
20
95.441993
11
233.638345
21
96.384914
0
LINE
8
0
10
233.638345
20
96.384914
11
237.589007
21
97.202602
0
LINE
8
0
10
237.589007
20
97.202602
11
242.219428
21
97.487100
0
LINE
8
0
10
242.219428
20
97.487100
11
245.350636
21
97.586432
0
LINE
8
0
10
245.350636
20
97.586432
11
249.510744
21
97.638013
0
LINE
8
0
10
249.510744
20
97.638013
11
255.765789
21
97.295878
0
LINE
8
0
10
255.765789
20
97.295878
11
259.573476
21
96.278174
0
LINE
8
0
10
259.573476
20
96.278174
11
261.301252
21
94.486690
0
LINE
8
0
10
261.301252
20
94.486690
11
261.500000
21
93.270091
0
LINE
8
0
10
261.500000
20
93.270091
11
261.371365
21
92.304725
0
LINE
8
0
10
261.371365
20
92.304725
11
259.989094
21
91.533344
0
LINE
8
0
10
259.989094
20
91.533344
11
258.500000
21
91.595929
0
LINE
8
0
10
258.500000
20
91.595929
11
256.681440
21
91.727052
0
LINE
8
0
10
256.681440
20
91.727052
11
250.668802
21
91.993458
0
LINE
8
0
10
250.668802
20
91.993458
11
247.215283
21
92.095929
0
LINE
8
0
10
247.215283
20
92.095929
11
244.247482
21
92.130643
0
LINE
8
0
10
244.247482
20
92.130643
11
240.122721
21
91.816479
0
LINE
8
0
10
240.122721
20
91.816479
11
237.932594
21
90.759233
0
LINE
8
0
10
237.932594
20
90.759233
11
237.101317
21
88.680954
0
LINE
8
0
10
237.101317
20
88.680954
11
237.015313
21
87.172068
0
LINE
8
0
10
237.015313
20
87.172068
11
237.119131
21
86.011650
0
LINE
8
0
10
237.119131
20
86.011650
11
238.184385
21
84.259416
0
LINE
8
0
10
238.184385
20
84.259416
11
240.792948
21
83.085370
0
LINE
8
0
10
240.792948
20
83.085370
11
245.424606
21
82.273572
0
LINE
8
0
10
245.424606
20
82.273572
11
248.649028
21
81.936036
0
LINE
8
0
10
248.649028
20
81.936036
11
252.274223
21
81.525114
0
LINE
8
0
10
252.274223
20
81.525114
11
256.983367
21
80.739080
0
LINE
8
0
10
256.983367
20
80.739080
11
259.106904
21
80.197210
0
LINE
8
0
10
259.106904
20
80.197210
11
259.727587
21
79.945415
0
LINE
8
0
10
259.727587
20
79.945415
11
261.092539
21
78.740320
0
LINE
8
0
10
261.092539
20
78.740320
11
262.676979
21
74.645897
0
LINE
8
0
10
262.676979
20
74.645897
11
262.723054
21
69.534654
0
LINE
8
0
10
262.723054
20
69.534654
11
261.217472
21
64.881179
0
LINE
8
0
10
261.217472
20
64.881179
11
259.878656
21
63.186912
0
LINE
8
0
10
259.878656
20
63.186912
11
258.356730
21
62.209112
0
LINE
8
0
10
258.356730
20
62.209112
11
254.199786
21
61.394058
0
LINE
8
0
10
254.199786
20
61.394058
11
249.136041
21
61.127518
0
LINE
8
0
10
249.136041
20
61.127518
11
245.648213
21
61.036769
0
LINE
8
0
10
245.648213
20
61.036769
11
240.547575
21
61.005443
0
LINE
8
0
10
240.547575
20
61.005443
11
234.686183
21
61.261500
0
LINE
8
0
10
234.686183
20
61.261500
11
232.349695
21
61.612480
0
LINE
8
0
10
232.349695
20
61.612480
11
231.750000
21
61.836459
0
LINE
8
0
10
355.641259
20
62.040655
11
354.794355
21
62.851973
0
LINE
8
0
10
354.794355
20
62.851973
11
354.060626
21
64.602662
0
LINE
8
0
10
354.060626
20
64.602662
11
354.493352
21
66.124411
0
LINE
8
0
10
354.493352
20
66.124411
11
355.956151
21
66.937615
0
LINE
8
0
10
355.956151
20
66.937615
11
357.031208
21
66.928634
0
LINE
8
0
10
357.031208
20
66.928634
11
359.489225
21
66.673526
0
LINE
8
0
10
359.489225
20
66.673526
11
365.648306
21
66.527883
0
LINE
8
0
10
365.648306
20
66.527883
11
371.926070
21
66.801316
0
LINE
8
0
10
371.926070
20
66.801316
11
376.476062
21
67.413402
0
LINE
8
0
10
376.476062
20
67.413402
11
377.526127
21
67.821307
0
LINE
8
0
10
377.526127
20
67.821307
11
378.493668
21
69.166028
0
LINE
8
0
10
378.493668
20
69.166028
11
378.804999
21
72.900533
0
LINE
8
0
10
378.804999
20
72.900533
11
378.097574
21
74.675986
0
LINE
8
0
10
378.097574
20
74.675986
11
377.744466
21
75.005310
0
LINE
8
0
10
377.744466
20
75.005310
11
376.210730
21
75.629095
0
LINE
8
0
10
376.210730
20
75.629095
11
371.942689
21
76.455423
0
LINE
8
0
10
371.942689
20
76.455423
11
367.864545
21
76.916149
0
LINE
8
0
10
367.864545
20
76.916149
11
363.747466
21
77.362683
0
LINE
8
0
10
363.747466
20
77.362683
11
357.970353
21
78.605739
0
LINE
8
0
10
357.970353
20
78.605739
11
354.804468
21
80.769917
0
LINE
8
0
10
354.804468
20
80.769917
11
353.452016
21
84.400585
0
LINE
8
0
10
353.452016
20
84.400585
11
353.206516
21
86.936280
0
LINE
8
0
10
353.206516
20
86.936280
11
353.138206
21
88.555937
0
LINE
8
0
10
353.138206
20
88.555937
11
353.223045
21
90.959923
0
LINE
8
0
10
353.223045
20
90.959923
11
354.162717
21
93.355911
0
LINE
8
0
10
354.162717
20
93.355911
11
355.532039
21
94.829723
0
LINE
8
0
10
355.532039
20
94.829723
11
357.257876
21
96.177485
0
LINE
8
0
10
357.257876
20
96.177485
11
361.076887
21
97.191252
0
LINE
8
0
10
361.076887
20
97.191252
11
365.878705
21
97.482017
0
LINE
8
0
10
365.878705
20
97.482017
11
369.325523
21
97.585635
0
LINE
8
0
10
369.325523
20
97.585635
11
373.494205
21
97.637579
0
LINE
8
0
10
373.494205
20
97.637579
11
379.760093
21
97.296278
0
LINE
8
0
10
379.760093
20
97.296278
11
383.572413
21
96.279106
0
LINE
8
0
10
383.572413
20
96.279106
11
385.301244
21
94.487320
0
LINE
8
0
10
385.301244
20
94.487320
11
385.500000
21
93.270091
0
LINE
8
0
10
385.500000
20
93.270091
11
385.368904
21
92.307557
0
LINE
8
0
10
385.368904
20
92.307557
11
383.981713
21
91.509515
0
LINE
8
0
10
383.981713
20
91.509515
11
382.500000
21
91.544211
0
LINE
8
0
10
382.500000
20
91.544211
11
380.733216
21
91.688643
0
LINE
8
0
10
380.733216
20
91.688643
11
375.070194
21
92.152965
0
LINE
8
0
10
375.070194
20
92.152965
11
371.871455
21
92.415665
0
LINE
8
0
10
371.871455
20
92.415665
11
369.548474
21
92.593152
0
LINE
8
0
10
369.548474
20
92.593152
11
366.257978
21
92.698554
0
LINE
8
0
10
366.257978
20
92.698554
11
363.483952
21
92.044644
0
LINE
8
0
10
363.483952
20
92.044644
11
362.121455
21
90.921078
0
LINE
8
0
10
362.121455
20
90.921078
11
360.710537
21
89.229086
0
LINE
8
0
10
360.710537
20
89.229086
11
360.295714
21
86.165174
0
LINE
8
0
10
360.295714
20
86.165174
11
361.250000
21
84.484446
0
LINE
8
0
10
361.250000
20
84.484446
11
362.344980
21
83.637816
0
LINE
8
0
10
362.344980
20
83.637816
11
365.856886
21
82.660267
0
LINE
8
0
10
365.856886
20
82.660267
11
369.802222
21
82.118878
0
LINE
8
0
10
369.802222
20
82.118878
11
372.348108
21
81.859517
0
LINE
8
0
10
372.348108
20
81.859517
11
376.482395
21
81.418609
0
LINE
8
0
10
376.482395
20
81.418609
11
382.097778
21
80.255646
0
LINE
8
0
10
382.097778
20
80.255646
11
384.938532
21
78.153136
0
LINE
8
0
10
384.938532
20
78.153136
11
385.920207
21
74.433455
0
LINE
8
0
10
385.920207
20
74.433455
11
386.000000
21
71.755420
0
LINE
8
0
10
386.000000
20
71.755420
11
385.896134
21
68.978057
0
LINE
8
0
10
385.896134
20
68.978057
11
384.971641
21
65.062639
0
LINE
8
0
10
384.971641
20
65.062639
11
384.088639
21
63.660408
0
LINE
8
0
10
384.088639
20
63.660408
11
382.732588
21
62.350102
0
LINE
8
0
10
382.732588
20
62.350102
11
378.957224
21
61.374839
0
LINE
8
0
10
378.957224
20
61.374839
11
373.697808
21
61.086686
0
LINE
8
0
10
373.697808
20
61.086686
11
369.838639
21
60.974558
0
LINE
8
0
10
369.838639
20
60.974558
11
366.591853
21
60.905969
0
LINE
8
0
10
366.591853
20
60.905969
11
361.594712
21
60.924189
0
LINE
8
0
10
361.594712
20
60.924189
11
358.279988
21
61.173095
0
LINE
8
0
10
358.279988
20
61.173095
11
356.272286
21
61.680877
0
LINE
8
0
10
356.272286
20
61.680877
11
355.641259
21
62.040655
0
LINE
8
0
10
318.000000
20
79.299624
11
318.000000
21
97.799624
0
LINE
8
0
10
318.000000
20
97.799624
11
332.000000
21
97.799624
0
LINE
8
0
10
332.000000
20
97.799624
11
346.000000
21
97.799624
0
LINE
8
0
10
346.000000
20
97.799624
11
346.000000
21
94.799624
0
LINE
8
0
10
346.000000
20
94.799624
11
346.000000
21
91.799624
0
LINE
8
0
10
346.000000
20
91.799624
11
335.445209
21
91.799624
0
LINE
8
0
10
335.445209
20
91.799624
11
324.890418
21
91.799624
0
LINE
8
0
10
324.890418
20
91.799624
11
325.195209
21
87.049624
0
LINE
8
0
10
325.195209
20
87.049624
11
325.500000
21
82.299624
0
LINE
8
0
10
325.500000
20
82.299624
11
335.250000
21
82.013412
0
LINE
8
0
10
335.250000
20
82.013412
11
338.430270
21
81.913871
0
LINE
8
0
10
338.430270
20
81.913871
11
342.561478
21
81.660040
0
LINE
8
0
10
342.561478
20
81.660040
11
344.450949
21
81.127112
0
LINE
8
0
10
344.450949
20
81.127112
11
344.975530
21
80.067772
0
LINE
8
0
10
344.975530
20
80.067772
11
345.000000
21
79.263412
0
LINE
8
0
10
345.000000
20
79.263412
11
344.978894
21
78.452697
0
LINE
8
0
10
344.978894
20
78.452697
11
344.460431
21
77.405003
0
LINE
8
0
10
344.460431
20
77.405003
11
342.530052
21
76.931871
0
LINE
8
0
10
342.530052
20
76.931871
11
338.255460
21
76.804797
0
LINE
8
0
10
338.255460
20
76.804797
11
334.947740
21
76.799624
0
LINE
8
0
10
334.947740
20
76.799624
11
324.895481
21
76.799624
0
LINE
8
0
10
324.895481
20
76.799624
11
325.197740
21
71.549624
0
LINE
8
0
10
325.197740
20
71.549624
11
325.500000
21
66.299624
0
LINE
8
0
10
325.500000
20
66.299624
11
336.250000
21
66.015792
0
LINE
8
0
10
336.250000
20
66.015792
11
339.779376
21
65.917168
0
LINE
8
0
10
339.779376
20
65.917168
11
344.346461
21
65.667974
0
LINE
8
0
10
344.346461
20
65.667974
11
346.415689
21
65.138637
0
LINE
8
0
10
346.415689
20
65.138637
11
346.976295
21
64.076095
0
LINE
8
0
10
346.976295
20
64.076095
11
347.000000
21
63.265792
0
LINE
8
0
10
347.000000
20
63.265792
11
347.000000
21
60.799624
0
LINE
8
0
10
347.000000
20
60.799624
11
332.500000
21
60.799624
0
LINE
8
0
10
332.500000
20
60.799624
11
318.000000
21
60.799624
0
LINE
8
0
10
318.000000
20
60.799624
11
318.000000
21
79.299624
0
LINE
8
0
10
19.500000
20
61.744980
11
17.804774
21
62.554101
0
LINE
8
0
10
17.804774
20
62.554101
11
15.390845
21
64.723822
0
LINE
8
0
10
15.390845
20
64.723822
11
14.017230
21
68.312632
0
LINE
8
0
10
14.017230
20
68.312632
11
13.369869
21
74.141069
0
LINE
8
0
10
13.369869
20
74.141069
11
13.220389
21
78.151566
0
LINE
8
0
10
13.220389
20
78.151566
11
13.170296
21
81.134964
0
LINE
8
0
10
13.170296
20
81.134964
11
13.299885
21
86.134877
0
LINE
8
0
10
13.299885
20
86.134877
11
13.859407
21
89.979038
0
LINE
8
0
10
13.859407
20
89.979038
11
14.997143
21
92.827562
0
LINE
8
0
10
14.997143
20
92.827562
11
16.861374
21
94.840563
0
LINE
8
0
10
16.861374
20
94.840563
11
19.600381
21
96.178155
0
LINE
8
0
10
19.600381
20
96.178155
11
23.362444
21
97.000452
0
LINE
8
0
10
23.362444
20
97.000452
11
28.295845
21
97.467569
0
LINE
8
0
10
28.295845
20
97.467569
11
31.248134
21
97.617969
0
LINE
8
0
10
31.248134
20
97.617969
11
33.970092
21
97.716477
0
LINE
8
0
10
33.970092
20
97.716477
11
38.080852
21
97.726290
0
LINE
8
0
10
38.080852
20
97.726290
11
41.871411
21
97.174620
0
LINE
8
0
10
41.871411
20
97.174620
11
43.559301
21
96.352725
0
LINE
8
0
10
43.559301
20
96.352725
11
44.545412
21
95.560949
0
LINE
8
0
10
44.545412
20
95.560949
11
45.729108
21
93.783292
0
LINE
8
0
10
45.729108
20
93.783292
11
45.798216
21
92.990358
0
LINE
8
0
10
45.798216
20
92.990358
11
45.628825
21
92.496406
0
LINE
8
0
10
45.628825
20
92.496406
11
44.671296
21
91.837529
0
LINE
8
0
10
44.671296
20
91.837529
11
42.350342
21
91.550851
0
LINE
8
0
10
42.350342
20
91.550851
11
38.019852
21
91.556566
0
LINE
8
0
10
38.019852
20
91.556566
11
34.899120
21
91.644131
0
LINE
8
0
10
34.899120
20
91.644131
11
32.476288
21
91.716711
0
LINE
8
0
10
32.476288
20
91.716711
11
28.508720
21
91.751984
0
LINE
8
0
10
28.508720
20
91.751984
11
24.456716
21
91.267381
0
LINE
8
0
10
24.456716
20
91.267381
11
21.770987
21
88.882050
0
LINE
8
0
10
21.770987
20
88.882050
11
21.103978
21
85.175460
0
LINE
8
0
10
21.103978
20
85.175460
11
21.004978
21
81.528463
0
LINE
8
0
10
21.004978
20
81.528463
11
21.000000
21
79.299624
0
LINE
8
0
10
21.000000
20
79.299624
11
21.018685
21
76.894713
0
LINE
8
0
10
21.018685
20
76.894713
11
21.179341
21
73.122642
0
LINE
8
0
10
21.179341
20
73.122642
11
21.784427
21
69.648273
0
LINE
8
0
10
21.784427
20
69.648273
11
22.474017
21
68.468464
0
LINE
8
0
10
22.474017
20
68.468464
11
23.495356
21
67.777329
0
LINE
8
0
10
23.495356
20
67.777329
11
26.974170
21
66.689934
0
LINE
8
0
10
26.974170
20
66.689934
11
34.346847
21
65.980847
0
LINE
8
0
10
34.346847
20
65.980847
11
39.581475
21
66.266536
0
LINE
8
0
10
39.581475
20
66.266536
11
41.212358
21
66.458865
0
LINE
8
0
10
41.212358
20
66.458865
11
43.435811
21
66.599368
0
LINE
8
0
10
43.435811
20
66.599368
11
44.838117
21
66.053548
0
LINE
8
0
10
44.838117
20
66.053548
11
45.000000
21
65.071580
0
LINE
8
0
10
45.000000
20
65.071580
11
44.892725
21
63.847334
0
LINE
8
0
10
44.892725
20
63.847334
11
43.790065
21
62.129689
0
LINE
8
0
10
43.790065
20
62.129689
11
40.960005
21
61.209959
0
LINE
8
0
10
40.960005
20
61.209959
11
35.750641
21
60.876283
0
LINE
8
0
10
35.750641
20
60.876283
11
32.050000
21
60.863010
0
LINE
8
0
10
32.050000
20
60.863010
11
27.795820
21
60.952213
0
LINE
8
0
10
27.795820
20
60.952213
11
22.424341
21
61.277261
0
LINE
8
0
10
22.424341
20
61.277261
11
20.117085
21
61.579250
0
LINE
8
0
10
20.117085
20
61.579250
11
19.500000
21
61.744980
0
LINE
8
0
10
145.000000
20
7.078277
11
143.513083
21
8.018380
0
LINE
8
0
10
143.513083
20
8.018380
11
141.221019
21
10.812762
0
LINE
8
0
10
141.221019
20
10.812762
11
139.771368
21
15.019349
0
LINE
8
0
10
139.771368
20
15.019349
11
139.084193
21
20.870099
0
LINE
8
0
10
139.084193
20
20.870099
11
139.001554
21
24.484524
0
LINE
8
0
10
139.001554
20
24.484524
11
139.046881
21
28.237799
0
LINE
8
0
10
139.046881
20
28.237799
11
139.504714
21
33.769591
0
LINE
8
0
10
139.504714
20
33.769591
11
140.654383
21
37.287258
0
LINE
8
0
10
140.654383
20
37.287258
11
142.738613
21
39.533463
0
LINE
8
0
10
142.738613
20
39.533463
11
144.207039
21
40.411848
0
LINE
8
0
10
144.207039
20
40.411848
11
146.581198
21
41.286040
0
LINE
8
0
10
146.581198
20
41.286040
11
153.495948
21
42.443877
0
LINE
8
0
10
153.495948
20
42.443877
11
161.315596
21
42.739361
0
LINE
8
0
10
161.315596
20
42.739361
11
167.659729
21
42.082543
0
LINE
8
0
10
167.659729
20
42.082543
11
169.534599
21
41.368911
0
LINE
8
0
10
169.534599
20
41.368911
11
170.534120
21
40.568872
0
LINE
8
0
10
170.534120
20
40.568872
11
171.728126
21
38.783759
0
LINE
8
0
10
171.728126
20
38.783759
11
171.796991
21
37.986493
0
LINE
8
0
10
171.796991
20
37.986493
11
171.631870
21
37.493221
0
LINE
8
0
10
171.631870
20
37.493221
11
170.730175
21
36.834946
0
LINE
8
0
10
170.730175
20
36.834946
11
168.576560
21
36.549399
0
LINE
8
0
10
168.576560
20
36.549399
11
164.583044
21
36.558618
0
LINE
8
0
10
164.583044
20
36.558618
11
161.712579
21
36.649403
0
LINE
8
0
10
161.712579
20
36.649403
11
159.249887
21
36.727591
0
LINE
8
0
10
159.249887
20
36.727591
11
155.177877
21
36.747402
0
LINE
8
0
10
155.177877
20
36.747402
11
150.930860
21
36.217903
0
LINE
8
0
10
150.930860
20
36.217903
11
147.979211
21
33.858192
0
LINE
8
0
10
147.979211
20
33.858192
11
147.060368
21
28.756684
0
LINE
8
0
10
147.060368
20
28.756684
11
147.000000
21
24.887355
0
LINE
8
0
10
147.000000
20
24.887355
11
147.011641
21
22.614957
0
LINE
8
0
10
147.011641
20
22.614957
11
147.156014
21
18.856510
0
LINE
8
0
10
147.156014
20
18.856510
11
147.931519
21
14.934875
0
LINE
8
0
10
147.931519
20
14.934875
11
150.726303
21
12.209774
0
LINE
8
0
10
150.726303
20
12.209774
11
154.740818
21
11.460818
0
LINE
8
0
10
154.740818
20
11.460818
11
158.586916
21
11.328288
0
LINE
8
0
10
158.586916
20
11.328288
11
160.912136
21
11.322090
0
LINE
8
0
10
160.912136
20
11.322090
11
163.790757
21
11.315383
0
LINE
8
0
10
163.790757
20
11.315383
11
167.846587
21
11.190025
0
LINE
8
0
10
167.846587
20
11.190025
11
170.053690
21
10.850904
0
LINE
8
0
10
170.053690
20
10.850904
11
170.915845
21
10.220613
0
LINE
8
0
10
170.915845
20
10.220613
11
171.000000
21
9.772090
0
LINE
8
0
10
171.000000
20
9.772090
11
170.882971
21
8.657070
0
LINE
8
0
10
170.882971
20
8.657070
11
169.727361
21
7.070465
0
LINE
8
0
10
169.727361
20
7.070465
11
166.855497
21
6.192778
0
LINE
8
0
10
166.855497
20
6.192778
11
161.682362
21
5.845219
0
LINE
8
0
10
161.682362
20
5.845219
11
158.050000
21
5.814366
0
LINE
8
0
10
158.050000
20
5.814366
11
153.521844
21
5.908963
0
LINE
8
0
10
153.521844
20
5.908963
11
148.107100
21
6.347398
0
LINE
8
0
10
148.107100
20
6.347398
11
145.733833
21
6.806560
0
LINE
8
0
10
145.733833
20
6.806560
11
145.000000
21
7.078277
0
LINE
8
0
10
294.000000
20
76.299624
11
294.000000
21
91.799624
0
LINE
8
0
10
294.000000
20
91.799624
11
288.000000
21
91.799624
0
LINE
8
0
10
288.000000
20
91.799624
11
282.000000
21
91.799624
0
LINE
8
0
10
282.000000
20
91.799624
11
282.000000
21
94.799624
0
LINE
8
0
10
282.000000
20
94.799624
11
282.000000
21
97.799624
0
LINE
8
0
10
282.000000
20
97.799624
11
298.000000
21
97.799624
0
LINE
8
0
10
298.000000
20
97.799624
11
314.000000
21
97.799624
0
LINE
8
0
10
314.000000
20
97.799624
11
314.000000
21
94.799624
0
LINE
8
0
10
314.000000
20
94.799624
11
314.000000
21
91.799624
0
LINE
8
0
10
314.000000
20
91.799624
11
308.000000
21
91.799624
0
LINE
8
0
10
308.000000
20
91.799624
11
302.000000
21
91.799624
0
LINE
8
0
10
302.000000
20
91.799624
11
302.000000
21
76.299624
0
LINE
8
0
10
302.000000
20
76.299624
11
302.000000
21
60.799624
0
LINE
8
0
10
302.000000
20
60.799624
11
298.000000
21
60.799624
0
LINE
8
0
10
298.000000
20
60.799624
11
294.000000
21
60.799624
0
LINE
8
0
10
294.000000
20
60.799624
11
294.000000
21
76.299624
0
LINE
8
0
10
269.000000
20
79.299624
11
269.000000
21
97.799624
0
LINE
8
0
10
269.000000
20
97.799624
11
273.000000
21
97.799624
0
LINE
8
0
10
273.000000
20
97.799624
11
277.000000
21
97.799624
0
LINE
8
0
10
277.000000
20
97.799624
11
277.000000
21
79.299624
0
LINE
8
0
10
277.000000
20
79.299624
11
277.000000
21
60.799624
0
LINE
8
0
10
277.000000
20
60.799624
11
273.000000
21
60.799624
0
LINE
8
0
10
273.000000
20
60.799624
11
269.000000
21
60.799624
0
LINE
8
0
10
269.000000
20
60.799624
11
269.000000
21
79.299624
0
LINE
8
0
10
47.048228
20
30.835711
11
44.019858
21
32.284482
0
LINE
8
0
10
44.019858
20
32.284482
11
39.479617
21
34.596883
0
LINE
8
0
10
39.479617
20
34.596883
11
36.866952
21
36.186549
0
LINE
8
0
10
36.866952
20
36.186549
11
36.068551
21
37.122424
0
LINE
8
0
10
36.068551
20
37.122424
11
36.314290
21
37.366734
0
LINE
8
0
10
36.314290
20
37.366734
11
36.946155
21
37.370634
0
LINE
8
0
10
36.946155
20
37.370634
11
39.596452
21
36.661417
0
LINE
8
0
10
39.596452
20
36.661417
11
45.926825
21
34.290147
0
LINE
8
0
10
45.926825
20
34.290147
11
55.651006
21
30.046160
0
LINE
8
0
10
55.651006
20
30.046160
11
61.313420
21
27.183341
0
LINE
8
0
10
61.313420
20
27.183341
11
63.200335
21
25.912353
0
LINE
8
0
10
63.200335
20
25.912353
11
63.355085
21
25.565146
0
LINE
8
0
10
63.355085
20
25.565146
11
62.888125
21
25.119588
0
LINE
8
0
10
62.888125
20
25.119588
11
61.014883
21
25.043343
0
LINE
8
0
10
61.014883
20
25.043343
11
57.345758
21
26.229247
0
LINE
8
0
10
57.345758
20
26.229247
11
51.228608
21
28.888079
0
LINE
8
0
10
51.228608
20
28.888079
11
47.048228
21
30.835711
0
LINE
8
0
10
103.199497
20
26.765590
11
100.790755
21
27.902427
0
LINE
8
0
10
100.790755
20
27.902427
11
96.855270
21
29.771616
0
LINE
8
0
10
96.855270
20
29.771616
11
92.908348
21
31.717534
0
LINE
8
0
10
92.908348
20
31.717534
11
90.601216
21
33.140100
0
LINE
8
0
10
90.601216
20
33.140100
11
90.699057
21
33.822987
0
LINE
8
0
10
90.699057
20
33.822987
11
91.318252
21
34.091507
0
LINE
8
0
10
91.318252
20
34.091507
11
91.822627
21
34.097623
0
LINE
8
0
10
91.822627
20
34.097623
11
93.968281
21
33.534541
0
LINE
8
0
10
93.968281
20
33.534541
11
99.272709
21
31.526387
0
LINE
8
0
10
99.272709
20
31.526387
11
103.611381
21
29.625630
0
LINE
8
0
10
103.611381
20
29.625630
11
108.033819
21
27.605964
0
LINE
8
0
10
108.033819
20
27.605964
11
113.723598
21
25.050800
0
LINE
8
0
10
113.723598
20
25.050800
11
116.248487
21
23.949392
0
LINE
8
0
10
116.248487
20
23.949392
11
116.966116
21
23.652791
0
LINE
8
0
10
116.966116
20
23.652791
11
118.135202
21
23.130798
0
LINE
8
0
10
118.135202
20
23.130798
11
118.594186
21
22.260899
0
LINE
8
0
10
118.594186
20
22.260899
11
117.966116
21
21.757520
0
LINE
8
0
10
117.966116
20
21.757520
11
117.357679
21
21.353687
0
LINE
8
0
10
117.357679
20
21.353687
11
116.152904
21
21.064932
0
LINE
8
0
10
116.152904
20
21.064932
11
113.533968
21
21.953139
0
LINE
8
0
10
113.533968
20
21.953139
11
109.609231
21
23.741843
0
LINE
8
0
10
109.609231
20
23.741843
11
105.656882
21
25.605289
0
LINE
8
0
10
105.656882
20
25.605289
11
103.199497
21
26.765590
0
LINE
8
0
10
33.514053
20
23.344688
11
29.234144
21
25.339293
0
LINE
8
0
10
29.234144
20
25.339293
11
23.306478
21
28.265370
0
LINE
8
0
10
23.306478
20
28.265370
11
20.560986
21
29.978162
0
LINE
8
0
10
20.560986
20
29.978162
11
20.604834
21
30.722741
0
LINE
8
0
10
20.604834
20
30.722741
11
21.550000
21
30.808536
0
LINE
8
0
10
21.550000
20
30.808536
11
22.312720
21
30.684544
0
LINE
8
0
10
22.312720
20
30.684544
11
25.103372
21
29.772722
0
LINE
8
0
10
25.103372
20
29.772722
11
31.414624
21
27.216876
0
LINE
8
0
10
31.414624
20
27.216876
11
40.891087
21
22.911427
0
LINE
8
0
10
40.891087
20
22.911427
11
46.373100
21
20.109231
0
LINE
8
0
10
46.373100
20
20.109231
11
48.216051
21
18.915866
0
LINE
8
0
10
48.216051
20
18.915866
11
48.386458
21
18.615909
0
LINE
8
0
10
48.386458
20
18.615909
11
47.988227
21
18.170828
0
LINE
8
0
10
47.988227
20
18.170828
11
46.494427
21
17.992418
0
LINE
8
0
10
46.494427
20
17.992418
11
43.331119
21
18.998213
0
LINE
8
0
10
43.331119
20
18.998213
11
37.610634
21
21.470452
0
LINE
8
0
10
37.610634
20
21.470452
11
33.514053
21
23.344688
0
LINE
8
0
10
44.326944
20
39.576399
11
44.375623
21
39.847176
0
LINE
8
0
10
44.375623
20
39.847176
11
45.991494
21
41.005800
0
LINE
8
0
10
45.991494
20
41.005800
11
51.184768
21
43.802119
0
LINE
8
0
10
51.184768
20
43.802119
11
60.403714
21
48.150174
0
LINE
8
0
10
60.403714
20
48.150174
11
66.642949
21
50.745924
0
LINE
8
0
10
66.642949
20
50.745924
11
69.454206
21
51.675326
0
LINE
8
0
10
69.454206
20
51.675326
11
70.250000
21
51.802839
0
LINE
8
0
10
70.250000
20
51.802839
11
71.366948
21
51.715235
0
LINE
8
0
10
71.366948
20
51.715235
11
71.645481
21
50.957469
0
LINE
8
0
10
71.645481
20
50.957469
11
69.071924
21
49.261547
0
LINE
8
0
10
69.071924
20
49.261547
11
63.352344
21
46.433777
0
LINE
8
0
10
63.352344
20
46.433777
11
59.220942
21
44.534919
0
LINE
8
0
10
59.220942
20
44.534919
11
56.802917
21
43.438812
0
LINE
8
0
10
56.802917
20
43.438812
11
52.878879
21
41.666666
0
LINE
8
0
10
52.878879
20
41.666666
11
48.906911
21
39.936782
0
LINE
8
0
10
48.906911
20
39.936782
11
46.159268
21
39.022035
0
LINE
8
0
10
46.159268
20
39.022035
11
44.892728
21
39.221382
0
LINE
8
0
10
44.892728
20
39.221382
11
44.326944
21
39.576399
0
LINE
8
0
10
59.287333
20
32.600880
11
59.284931
21
32.926145
0
LINE
8
0
10
59.284931
20
32.926145
11
60.958739
21
34.202038
0
LINE
8
0
10
60.958739
20
34.202038
11
66.513213
21
37.160178
0
LINE
8
0
10
66.513213
20
37.160178
11
76.373111
21
41.600226
0
LINE
8
0
10
76.373111
20
41.600226
11
82.918693
21
44.090906
0
LINE
8
0
10
82.918693
20
44.090906
11
85.725196
21
44.832558
0
LINE
8
0
10
85.725196
20
44.832558
11
86.430729
21
44.823923
0
LINE
8
0
10
86.430729
20
44.823923
11
86.672535
21
44.583130
0
LINE
8
0
10
86.672535
20
44.583130
11
85.766622
21
43.615735
0
LINE
8
0
10
85.766622
20
43.615735
11
82.919241
21
41.948621
0
LINE
8
0
10
82.919241
20
41.948621
11
78.023872
21
39.519420
0
LINE
8
0
10
78.023872
20
39.519420
11
74.774903
21
37.999547
0
LINE
8
0
10
74.774903
20
37.999547
11
72.184308
21
36.803346
0
LINE
8
0
10
72.184308
20
36.803346
11
68.003362
21
34.876877
0
LINE
8
0
10
68.003362
20
34.876877
11
63.827329
21
33.010754
0
LINE
8
0
10
63.827329
20
33.010754
11
61.036039
21
32.037764
0
LINE
8
0
10
61.036039
20
32.037764
11
59.833299
21
32.243942
0
LINE
8
0
10
59.833299
20
32.243942
11
59.287333
21
32.600880
0
LINE
8
0
10
44.007525
20
11.549624
11
44.297600
21
11.925073
0
LINE
8
0
10
44.297600
20
11.925073
11
46.385101
21
13.218454
0
LINE
8
0
10
46.385101
20
13.218454
11
52.200425
21
16.052082
0
LINE
8
0
10
52.200425
20
16.052082
11
61.928383
21
20.202797
0
LINE
8
0
10
61.928383
20
20.202797
11
68.174936
21
22.515717
0
LINE
8
0
10
68.174936
20
22.515717
11
70.755272
21
23.214004
0
LINE
8
0
10
70.755272
20
23.214004
11
71.353368
21
23.217518
0
LINE
8
0
10
71.353368
20
23.217518
11
71.592285
21
22.973085
0
LINE
8
0
10
71.592285
20
22.973085
11
70.758206
21
22.032458
0
LINE
8
0
10
70.758206
20
22.032458
11
68.087291
21
20.437154
0
LINE
8
0
10
68.087291
20
20.437154
11
63.474404
21
18.124375
0
LINE
8
0
10
63.474404
20
18.124375
11
60.406866
21
16.679308
0
LINE
8
0
10
60.406866
20
16.679308
11
56.304403
21
14.807745
0
LINE
8
0
10
56.304403
20
14.807745
11
50.013667
21
12.167649
0
LINE
8
0
10
50.013667
20
12.167649
11
46.068696
21
10.933669
0
LINE
8
0
10
46.068696
20
10.933669
11
44.221708
21
11.028300
0
LINE
8
0
10
44.221708
20
11.028300
11
44.007525
21
11.549624
0
LINE
8
0
10
40.217505
20
27.151337
11
36.931982
21
28.664093
0
LINE
8
0
10
36.931982
20
28.664093
11
32.019276
21
31.068117
0
LINE
8
0
10
32.019276
20
31.068117
11
29.178097
21
32.724892
0
LINE
8
0
10
29.178097
20
32.724892
11
28.240937
21
33.732097
0
LINE
8
0
10
28.240937
20
33.732097
11
28.434017
21
34.022636
0
LINE
8
0
10
28.434017
20
34.022636
11
28.976863
21
34.134315
0
LINE
8
0
10
28.976863
20
34.134315
11
31.060306
21
33.755951
0
LINE
8
0
10
31.060306
20
33.755951
11
34.492281
21
32.568997
0
LINE
8
0
10
34.492281
20
32.568997
11
39.294627
21
30.565901
0
LINE
8
0
10
39.294627
20
30.565901
11
42.216513
21
29.255939
0
LINE
8
0
10
42.216513
20
29.255939
11
44.544558
21
28.190511
0
LINE
8
0
10
44.544558
20
28.190511
11
48.431965
21
26.386971
0
LINE
8
0
10
48.431965
20
26.386971
11
52.517310
21
24.392940
0
LINE
8
0
10
52.517310
20
24.392940
11
55.198309
21
22.762328
0
LINE
8
0
10
55.198309
20
22.762328
11
55.406146
21
21.888156
0
LINE
8
0
10
55.406146
20
21.888156
11
54.817217
21
21.592057
0
LINE
8
0
10
54.817217
20
21.592057
11
54.281518
21
21.620137
0
LINE
8
0
10
54.281518
20
21.620137
11
51.805628
21
22.361874
0
LINE
8
0
10
51.805628
20
22.361874
11
45.478785
21
24.846397
0
LINE
8
0
10
45.478785
20
24.846397
11
40.217505
21
27.151337
0
LINE
8
0
10
86.519455
20
20.666281
11
83.773364
21
22.002500
0
LINE
8
0
10
83.773364
20
22.002500
11
79.466875
21
24.242558
0
LINE
8
0
10
79.466875
20
24.242558
11
76.771251
21
25.887835
0
LINE
8
0
10
76.771251
20
25.887835
11
75.722419
21
26.916403
0
LINE
8
0
10
75.722419
20
26.916403
11
75.826779
21
27.192567
0
LINE
8
0
10
75.826779
20
27.192567
11
76.352004
21
27.213400
0
LINE
8
0
10
76.352004
20
27.213400
11
78.828962
21
26.545302
0
LINE
8
0
10
78.828962
20
26.545302
11
85.005914
21
24.242237
0
LINE
8
0
10
85.005914
20
24.242237
11
94.743357
21
20.068867
0
LINE
8
0
10
94.743357
20
20.068867
11
100.594803
21
17.216682
0
LINE
8
0
10
100.594803
20
17.216682
11
102.699754
21
15.921019
0
LINE
8
0
10
102.699754
20
15.921019
11
102.992475
21
15.549624
0
LINE
8
0
10
102.992475
20
15.549624
11
102.744042
21
15.017682
0
LINE
8
0
10
102.744042
20
15.017682
11
100.707271
21
14.954197
0
LINE
8
0
10
100.707271
20
14.954197
11
96.601135
21
16.229597
0
LINE
8
0
10
96.601135
20
16.229597
11
90.406243
21
18.849905
0
LINE
8
0
10
90.406243
20
18.849905
11
86.519455
21
20.666281
0
LINE
8
0
10
67.000000
20
29.663690
11
67.280383
21
30.039828
0
LINE
8
0
10
67.280383
20
30.039828
11
69.312047
21
31.336226
0
LINE
8
0
10
69.312047
20
31.336226
11
74.979775
21
34.177357
0
LINE
8
0
10
74.979775
20
34.177357
11
84.468211
21
38.340495
0
LINE
8
0
10
84.468211
20
38.340495
11
90.566779
21
40.661933
0
LINE
8
0
10
90.566779
20
40.661933
11
93.090831
21
41.364396
0
LINE
8
0
10
93.090831
20
41.364396
11
93.678958
21
41.369325
0
LINE
8
0
10
93.678958
20
41.369325
11
94.698631
21
40.826424
0
LINE
8
0
10
94.698631
20
40.826424
11
94.893128
21
40.387265
0
LINE
8
0
10
94.893128
20
40.387265
11
81.673765
21
34.229047
0
LINE
8
0
10
81.673765
20
34.229047
11
68.353950
21
28.799624
0
LINE
8
0
10
68.353950
20
28.799624
11
67.397723
21
29.053443
0
LINE
8
0
10
67.397723
20
29.053443
11
67.000000
21
29.663690
0
LINE
8
0
10
52.222459
20
7.640975
11
52.240809
21
7.952430
0
LINE
8
0
10
52.240809
20
7.952430
11
53.919394
21
9.221470
0
LINE
8
0
10
53.919394
20
9.221470
11
59.405181
21
12.209109
0
LINE
8
0
10
59.405181
20
12.209109
11
69.076621
21
16.728751
0
LINE
8
0
10
69.076621
20
16.728751
11
75.445461
21
19.280996
0
LINE
8
0
10
75.445461
20
19.280996
11
78.133250
21
20.052442
0
LINE
8
0
10
78.133250
20
20.052442
11
78.782353
21
20.052901
0
LINE
8
0
10
78.782353
20
20.052901
11
79.497203
21
19.460699
0
LINE
8
0
10
79.497203
20
19.460699
11
79.317217
21
18.765481
0
LINE
8
0
10
79.317217
20
18.765481
11
66.408375
21
12.542967
0
LINE
8
0
10
66.408375
20
12.542967
11
53.603950
21
6.814936
0
LINE
8
0
10
53.603950
20
6.814936
11
53.155258
21
7.063902
0
LINE
8
0
10
53.155258
20
7.063902
11
52.222459
21
7.640975
0
LINE
8
0
10
59.000000
20
4.591414
11
59.292656
21
4.980053
0
LINE
8
0
10
59.292656
20
4.980053
11
61.409709
21
6.302836
0
LINE
8
0
10
61.409709
20
6.302836
11
67.293641
21
9.174203
0
LINE
8
0
10
67.293641
20
9.174203
11
77.055695
21
13.324381
0
LINE
8
0
10
77.055695
20
13.324381
11
83.199188
21
15.566279
0
LINE
8
0
10
83.199188
20
15.566279
11
85.612881
21
16.169668
0
LINE
8
0
10
85.612881
20
16.169668
11
86.090938
21
16.108686
0
LINE
8
0
10
86.090938
20
16.108686
11
86.129649
21
15.786746
0
LINE
8
0
10
86.129649
20
15.786746
11
84.950727
21
14.703647
0
LINE
8
0
10
84.950727
20
14.703647
11
82.102025
21
13.038046
0
LINE
8
0
10
82.102025
20
13.038046
11
77.589953
21
10.793691
0
LINE
8
0
10
77.589953
20
10.793691
11
74.712156
21
9.455653
0
LINE
8
0
10
74.712156
20
9.455653
11
70.643502
21
7.624245
0
LINE
8
0
10
70.643502
20
7.624245
11
64.546565
21
5.083224
0
LINE
8
0
10
64.546565
20
5.083224
11
60.854924
21
3.940350
0
LINE
8
0
10
60.854924
20
3.940350
11
59.190343
21
4.078525
0
LINE
8
0
10
59.190343
20
4.078525
11
59.000000
21
4.591414
0
LINE
8
0
10
67.217074
20
0.639495
11
67.226404
21
0.957298
0
LINE
8
0
10
67.226404
20
0.957298
11
68.884686
21
2.237985
0
LINE
8
0
10
68.884686
20
2.237985
11
74.338943
21
5.239695
0
LINE
8
0
10
74.338943
20
5.239695
11
83.979169
21
9.769580
0
LINE
8
0
10
83.979169
20
9.769580
11
90.343407
21
12.321311
0
LINE
8
0
10
90.343407
20
12.321311
11
93.041666
21
13.087736
0
LINE
8
0
10
93.041666
20
13.087736
11
93.700983
21
13.084126
0
LINE
8
0
10
93.700983
20
13.084126
11
94.473301
21
12.480290
0
LINE
8
0
10
94.473301
20
12.480290
11
94.317217
21
11.800950
0
LINE
8
0
10
94.317217
20
11.800950
11
93.976444
21
11.592670
0
LINE
8
0
10
93.976444
20
11.592670
11
92.137847
21
10.655837
0
LINE
8
0
10
92.137847
20
10.655837
11
87.263785
21
8.312259
0
LINE
8
0
10
87.263785
20
8.312259
11
78.988933
21
4.450543
0
LINE
8
0
10
78.988933
20
4.450543
11
73.262446
21
1.847046
0
LINE
8
0
10
73.262446
20
1.847046
11
70.449649
21
0.613163
0
LINE
8
0
10
70.449649
20
0.613163
11
69.500000
21
0.219227
0
LINE
8
0
10
69.500000
20
0.219227
11
68.416890
21
0.178260
0
LINE
8
0
10
68.416890
20
0.178260
11
67.217074
21
0.639495
0
LINE
8
0
10
110.250000
20
30.491740
11
106.399168
21
32.284062
0
LINE
8
0
10
106.399168
20
32.284062
11
100.909840
21
35.066722
0
LINE
8
0
10
100.909840
20
35.066722
11
98.274054
21
36.844997
0
LINE
8
0
10
98.274054
20
36.844997
11
98.376326
21
37.696800
0
LINE
8
0
10
98.376326
20
37.696800
11
99.418144
21
37.799624
0
LINE
8
0
10
99.418144
20
37.799624
11
100.107417
21
37.672215
0
LINE
8
0
10
100.107417
20
37.672215
11
102.742913
21
36.748691
0
LINE
8
0
10
102.742913
20
36.748691
11
108.819028
21
34.170350
0
LINE
8
0
10
108.819028
20
34.170350
11
118.028598
21
29.845931
0
LINE
8
0
10
118.028598
20
29.845931
11
123.387997
21
27.054645
0
LINE
8
0
10
123.387997
20
27.054645
11
125.204388
21
25.887755
0
LINE
8
0
10
125.204388
20
25.887755
11
125.381720
21
25.608242
0
LINE
8
0
10
125.381720
20
25.608242
11
124.997394
21
25.180004
0
LINE
8
0
10
124.997394
20
25.180004
11
123.522645
21
25.024786
0
LINE
8
0
10
123.522645
20
25.024786
11
120.325451
21
26.056624
0
LINE
8
0
10
120.325451
20
26.056624
11
116.233430
21
27.791456
0
LINE
8
0
10
116.233430
20
27.791456
11
112.479039
21
29.476496
0
LINE
8
0
10
112.479039
20
29.476496
11
110.250000
21
30.491740
0
LINE
8
0
10
95.250000
20
23.541262
11
91.365331
21
25.347071
0
LINE
8
0
10
91.365331
20
25.347071
11
85.869942
21
28.124475
0
LINE
8
0
10
85.869942
20
28.124475
11
83.280117
21
29.875006
0
LINE
8
0
10
83.280117
20
29.875006
11
83.444223
21
30.701159
0
LINE
8
0
10
83.444223
20
30.701159
11
84.511612
21
30.799624
0
LINE
8
0
10
84.511612
20
30.799624
11
85.218508
21
30.672978
0
LINE
8
0
10
85.218508
20
30.672978
11
87.872527
21
29.754773
0
LINE
8
0
10
87.872527
20
29.754773
11
93.943590
21
27.189979
0
LINE
8
0
10
93.943590
20
27.189979
11
103.110234
21
22.883049
0
LINE
8
0
10
103.110234
20
22.883049
11
108.431220
21
20.095311
0
LINE
8
0
10
108.431220
20
20.095311
11
110.228009
21
18.922313
0
LINE
8
0
10
110.228009
20
18.922313
11
110.399135
21
18.636421
0
LINE
8
0
10
110.399135
20
18.636421
11
110.019529
21
18.205830
0
LINE
8
0
10
110.019529
20
18.205830
11
108.571751
21
18.042010
0
LINE
8
0
10
108.571751
20
18.042010
11
105.393646
21
19.070987
0
LINE
8
0
10
105.393646
20
19.070987
11
101.288206
21
20.815329
0
LINE
8
0
10
101.288206
20
20.815329
11
97.502869
21
22.515334
0
LINE
8
0
10
97.502869
20
22.515334
11
95.250000
21
23.541262
0
LINE
8
0
10
24.250942
20
20.601164
11
21.174951
21
22.032656
0
LINE
8
0
10
21.174951
20
22.032656
11
16.631089
21
24.289439
0
LINE
8
0
10
16.631089
20
24.289439
11
14.070618
21
25.835000
0
LINE
8
0
10
14.070618
20
25.835000
11
13.300618
21
26.785789
0
LINE
8
0
10
13.300618
20
26.785789
11
13.526756
21
27.074535
0
LINE
8
0
10
13.526756
20
27.074535
11
14.074060
21
27.194790
0
LINE
8
0
10
14.074060
20
27.194790
11
16.131219
21
26.835227
0
LINE
8
0
10
16.131219
20
26.835227
11
19.527038
21
25.656384
0
LINE
8
0
10
19.527038
20
25.656384
11
24.327830
21
23.635241
0
LINE
8
0
10
24.327830
20
23.635241
11
27.275814
21
22.301614
0
LINE
8
0
10
27.275814
20
22.301614
11
29.632329
21
21.212106
0
LINE
8
0
10
29.632329
20
21.212106
11
33.603490
21
19.341458
0
LINE
8
0
10
33.603490
20
19.341458
11
37.810693
21
17.239663
0
LINE
8
0
10
37.810693
20
17.239663
11
40.448873
21
15.564844
0
LINE
8
0
10
40.448873
20
15.564844
11
40.102346
21
14.917634
0
LINE
8
0
10
40.102346
20
14.917634
11
38.950000
21
14.890388
0
LINE
8
0
10
38.950000
20
14.890388
11
38.207841
21
15.023326
0
LINE
8
0
10
38.207841
20
15.023326
11
35.483316
21
15.904240
0
LINE
8
0
10
35.483316
20
15.904240
11
29.200342
21
18.411857
0
LINE
8
0
10
29.200342
20
18.411857
11
24.250942
21
20.601164
0
LINE
8
0
10
52.000000
20
36.617380
11
52.282512
21
36.978553
0
LINE
8
0
10
52.282512
20
36.978553
11
54.329052
21
38.254611
0
LINE
8
0
10
54.329052
20
38.254611
11
60.034869
21
41.085441
0
LINE
8
0
10
60.034869
20
41.085441
11
69.573383
21
45.262013
0
LINE
8
0
10
69.573383
20
45.262013
11
75.683848
21
47.605107
0
LINE
8
0
10
75.683848
20
47.605107
11
78.192842
21
48.323753
0
LINE
8
0
10
78.192842
20
48.323753
11
78.764388
21
48.336542
0
LINE
8
0
10
78.764388
20
48.336542
11
79.720546
21
47.805434
0
LINE
8
0
10
79.720546
20
47.805434
11
79.882302
21
47.348593
0
LINE
8
0
10
79.882302
20
47.348593
11
66.759442
21
41.204148
0
LINE
8
0
10
66.759442
20
41.204148
11
53.421104
21
35.799624
0
LINE
8
0
10
53.421104
20
35.799624
11
52.417449
21
36.039840
0
LINE
8
0
10
52.417449
20
36.039840
11
52.000000
21
36.617380
0
LINE
8
0
10
329.828654
20
12.889737
11
331.369772
21
13.590306
0
LINE
8
0
10
331.369772
20
13.590306
11
333.333132
21
15.840972
0
LINE
8
0
10
333.333132
20
15.840972
11
333.972301
21
17.639737
0
LINE
8
0
10
333.972301
20
17.639737
11
334.701129
21
21.194327
0
LINE
8
0
10
334.701129
20
21.194327
11
334.693714
21
28.438539
0
LINE
8
0
10
334.693714
20
28.438539
11
333.957589
21
32.012790
0
LINE
8
0
10
333.957589
20
32.012790
11
333.289106
21
33.942705
0
LINE
8
0
10
333.289106
20
33.942705
11
331.143082
21
36.088730
0
LINE
8
0
10
331.143082
20
36.088730
11
329.213166
21
36.757213
0
LINE
8
0
10
329.213166
20
36.757213
11
324.901680
21
37.487176
0
LINE
8
0
10
324.901680
20
37.487176
11
319.750000
21
37.794047
0
LINE
8
0
10
319.750000
20
37.794047
11
314.000000
21
37.799624
0
LINE
8
0
10
314.000000
20
37.799624
11
314.000000
21
24.799624
0
LINE
8
0
10
314.000000
20
24.799624
11
314.000000
21
11.799624
0
LINE
8
0
10
314.000000
20
11.799624
11
320.350777
21
11.799624
0
LINE
8
0
10
320.350777
20
11.799624
11
323.063412
21
11.885640
0
LINE
8
0
10
323.063412
20
11.885640
11
328.113344
21
12.466466
0
LINE
8
0
10
328.113344
20
12.466466
11
329.828654
21
12.889737
0
LINE
8
0
10
77.250000
20
68.543477
11
78.125991
21
69.712074
0
LINE
8
0
10
78.125991
20
69.712074
11
78.822885
21
72.964369
0
LINE
8
0
10
78.822885
20
72.964369
11
78.983386
21
76.796796
0
LINE
8
0
10
78.983386
20
76.796796
11
79.000000
21
79.383183
0
LINE
8
0
10
79.000000
20
79.383183
11
78.956985
21
83.278015
0
LINE
8
0
10
78.956985
20
83.278015
11
78.321095
21
88.456689
0
LINE
8
0
10
78.321095
20
88.456689
11
76.303691
21
90.957904
0
LINE
8
0
10
76.303691
20
90.957904
11
72.126729
21
91.746292
0
LINE
8
0
10
72.126729
20
91.746292
11
68.985275
21
91.799624
0
LINE
8
0
10
68.985275
20
91.799624
11
65.955617
21
91.724446
0
LINE
8
0
10
65.955617
20
91.724446
11
61.844953
21
90.795120
0
LINE
8
0
10
61.844953
20
90.795120
11
59.772475
21
88.098497
0
LINE
8
0
10
59.772475
20
88.098497
11
59.066163
21
82.760171
0
LINE
8
0
10
59.066163
20
82.760171
11
59.015313
21
78.827117
0
LINE
8
0
10
59.015313
20
78.827117
11
59.085955
21
75.414072
0
LINE
8
0
10
59.085955
20
75.414072
11
59.390319
21
71.190011
0
LINE
8
0
10
59.390319
20
71.190011
11
59.685528
21
69.440873
0
LINE
8
0
10
59.685528
20
69.440873
11
59.850545
21
69.007206
0
LINE
8
0
10
59.850545
20
69.007206
11
61.060145
21
67.898166
0
LINE
8
0
10
61.060145
20
67.898166
11
65.347567
21
66.553268
0
LINE
8
0
10
65.347567
20
66.553268
11
70.738226
21
66.409597
0
LINE
8
0
10
70.738226
20
66.409597
11
75.566850
21
67.511535
0
LINE
8
0
10
75.566850
20
67.511535
11
77.250000
21
68.543477
0
LINE
8
0
10
211.297621
20
66.865353
11
212.895341
21
67.415215
0
LINE
8
0
10
212.895341
20
67.415215
11
215.172342
21
69.093775
0
LINE
8
0
10
215.172342
20
69.093775
11
216.438003
21
72.040617
0
LINE
8
0
10
216.438003
20
72.040617
11
216.948218
21
76.851540
0
LINE
8
0
10
216.948218
20
76.851540
11
217.000000
21
80.142217
0
LINE
8
0
10
217.000000
20
80.142217
11
216.932689
21
83.599369
0
LINE
8
0
10
216.932689
20
83.599369
11
216.166091
21
88.355562
0
LINE
8
0
10
216.166091
20
88.355562
11
214.049953
21
90.826069
0
LINE
8
0
10
214.049953
20
90.826069
11
209.975985
21
91.721041
0
LINE
8
0
10
209.975985
20
91.721041
11
207.014725
21
91.799624
0
LINE
8
0
10
207.014725
20
91.799624
11
203.861352
21
91.711718
0
LINE
8
0
10
203.861352
20
91.711718
11
199.736200
21
90.983150
0
LINE
8
0
10
199.736200
20
90.983150
11
198.668840
21
90.325607
0
LINE
8
0
10
198.668840
20
90.325607
11
198.134089
21
89.601971
0
LINE
8
0
10
198.134089
20
89.601971
11
197.262138
21
87.342307
0
LINE
8
0
10
197.262138
20
87.342307
11
196.457377
21
82.547959
0
LINE
8
0
10
196.457377
20
82.547959
11
196.349620
21
75.286265
0
LINE
8
0
10
196.349620
20
75.286265
11
197.014426
21
70.649040
0
LINE
8
0
10
197.014426
20
70.649040
11
197.821979
21
68.568946
0
LINE
8
0
10
197.821979
20
68.568946
11
198.336919
21
67.957541
0
LINE
8
0
10
198.336919
20
67.957541
11
200.726782
21
66.689690
0
LINE
8
0
10
200.726782
20
66.689690
11
207.429882
21
66.124826
0
LINE
8
0
10
207.429882
20
66.124826
11
211.297621
21
66.865353
0
LINE
8
0
10
174.800000
20
79.999624
11
175.354528
21
80.857681
0
LINE
8
0
10
175.354528
20
80.857681
11
175.927769
21
83.504548
0
LINE
8
0
10
175.927769
20
83.504548
11
175.814202
21
86.632002
0
LINE
8
0
10
175.814202
20
86.632002
11
175.046963
21
89.327545
0
LINE
8
0
10
175.046963
20
89.327545
11
174.428571
21
90.228195
0
LINE
8
0
10
174.428571
20
90.228195
11
173.300809
21
90.957419
0
LINE
8
0
10
173.300809
20
90.957419
11
168.960118
21
91.715317
0
LINE
8
0
10
168.960118
20
91.715317
11
165.428571
21
91.799624
0
LINE
8
0
10
165.428571
20
91.799624
11
158.000000
21
91.799624
0
LINE
8
0
10
158.000000
20
91.799624
11
158.000000
21
85.299624
0
LINE
8
0
10
158.000000
20
85.299624
11
158.000000
21
78.799624
0
LINE
8
0
10
158.000000
20
78.799624
11
165.800000
21
78.799624
0
LINE
8
0
10
165.800000
20
78.799624
11
169.100721
21
78.884720
0
LINE
8
0
10
169.100721
20
78.884720
11
173.752163
21
79.504912
0
LINE
8
0
10
173.752163
20
79.504912
11
174.800000
21
79.999624
0
LINE
8
0
10
371.748637
20
20.049624
11
371.596626
21
20.458901
0
LINE
8
0
10
371.596626
20
20.458901
11
370.997414
21
22.075503
0
LINE
8
0
10
370.997414
20
22.075503
11
369.565689
21
25.941811
0
LINE
8
0
10
369.565689
20
25.941811
11
368.415434
21
29.049624
0
LINE
8
0
10
368.415434
20
29.049624
11
367.251315
21
32.058803
0
LINE
8
0
10
367.251315
20
32.058803
11
365.755816
21
35.471377
0
LINE
8
0
10
365.755816
20
35.471377
11
365.093841
21
36.641445
0
LINE
8
0
10
365.093841
20
36.641445
11
364.906537
21
36.799624
0
LINE
8
0
10
364.906537
20
36.799624
11
364.729664
21
36.621917
0
LINE
8
0
10
364.729664
20
36.621917
11
364.045390
21
35.332416
0
LINE
8
0
10
364.045390
20
35.332416
11
362.456441
21
31.723708
0
LINE
8
0
10
362.456441
20
31.723708
11
360.026377
21
25.636587
0
LINE
8
0
10
360.026377
20
25.636587
11
358.585730
21
21.656395
0
LINE
8
0
10
358.585730
20
21.656395
11
358.070943
21
19.942340
0
LINE
8
0
10
358.070943
20
19.942340
11
358.000000
21
19.499288
0
LINE
8
0
10
358.000000
20
19.499288
11
358.560786
21
19.227621
0
LINE
8
0
10
358.560786
20
19.227621
11
362.347478
21
18.854832
0
LINE
8
0
10
362.347478
20
18.854832
11
365.106989
21
18.799624
0
LINE
8
0
10
365.106989
20
18.799624
11
366.918753
21
18.815338
0
LINE
8
0
10
366.918753
20
18.815338
11
369.614027
21
18.950867
0
LINE
8
0
10
369.614027
20
18.950867
11
371.597059
21
19.463488
0
LINE
8
0
10
371.597059
20
19.463488
11
371.748637
21
20.049624
0
LINE
8
0
10
201.505167
20
20.549624
11
201.034989
21
21.742007
0
LINE
8
0
10
201.034989
20
21.742007
11
199.340862
21
26.137710
0
LINE
8
0
10
199.340862
20
26.137710
11
198.325574
21
28.799624
0
LINE
8
0
10
198.325574
20
28.799624
11
197.302393
21
31.389059
0
LINE
8
0
10
197.302393
20
31.389059
11
195.554965
21
35.295347
0
LINE
8
0
10
195.554965
20
35.295347
11
195.045945
21
36.131075
0
LINE
8
0
10
195.045945
20
36.131075
11
194.827097
21
36.148460
0
LINE
8
0
10
194.827097
20
36.148460
11
194.121193
21
35.338599
0
LINE
8
0
10
194.121193
20
35.338599
11
192.611496
21
32.412133
0
LINE
8
0
10
192.611496
20
32.412133
11
191.475331
21
29.631075
0
LINE
8
0
10
191.475331
20
29.631075
11
190.332607
21
26.646324
0
LINE
8
0
10
190.332607
20
26.646324
11
188.385853
21
21.807613
0
LINE
8
0
10
188.385853
20
21.807613
11
187.821598
21
20.549624
0
LINE
8
0
10
187.821598
20
20.549624
11
187.593587
21
20.017403
0
LINE
8
0
10
187.593587
20
20.017403
11
187.767974
21
19.296384
0
LINE
8
0
10
187.767974
20
19.296384
11
189.167260
21
18.933618
0
LINE
8
0
10
189.167260
20
18.933618
11
192.252670
21
18.809530
0
LINE
8
0
10
192.252670
20
18.809530
11
194.571805
21
18.799624
0
LINE
8
0
10
194.571805
20
18.799624
11
196.871678
21
18.810185
0
LINE
8
0
10
196.871678
20
18.810185
11
199.958005
21
18.937830
0
LINE
8
0
10
199.958005
20
18.937830
11
201.406386
21
19.303406
0
LINE
8
0
10
201.406386
20
19.303406
11
201.672756
21
20.021990
0
LINE
8
0
10
201.672756
20
20.021990
11
201.505167
21
20.549624
0
LINE
8
0
10
288.746532
20
20.049624
11
288.593657
21
20.458680
0
LINE
8
0
10
288.593657
20
20.458680
11
287.990419
21
22.073645
0
LINE
8
0
10
287.990419
20
22.073645
11
286.548384
21
25.935182
0
LINE
8
0
10
286.548384
20
25.935182
11
285.389544
21
29.038786
0
LINE
8
0
10
285.389544
20
29.038786
11
284.218883
21
32.044613
0
LINE
8
0
10
284.218883
20
32.044613
11
282.722470
21
35.456348
0
LINE
8
0
10
282.722470
20
35.456348
11
282.065719
21
36.628652
0
LINE
8
0
10
282.065719
20
36.628652
11
281.882751
21
36.788786
0
LINE
8
0
10
281.882751
20
36.788786
11
281.709031
21
36.612571
0
LINE
8
0
10
281.709031
20
36.612571
11
281.030301
21
35.323870
0
LINE
8
0
10
281.030301
20
35.323870
11
279.447876
21
31.713050
0
LINE
8
0
10
279.447876
20
31.713050
11
277.023468
21
25.622926
0
LINE
8
0
10
277.023468
20
25.622926
11
275.585036
21
21.645341
0
LINE
8
0
10
275.585036
20
21.645341
11
275.070868
21
19.937479
0
LINE
8
0
10
275.070868
20
19.937479
11
275.000000
21
19.499288
0
LINE
8
0
10
275.000000
20
19.499288
11
275.560786
21
19.227621
0
LINE
8
0
10
275.560786
20
19.227621
11
279.347478
21
18.854832
0
LINE
8
0
10
279.347478
20
18.854832
11
282.106989
21
18.799624
0
LINE
8
0
10
282.106989
20
18.799624
11
283.919052
21
18.815330
0
LINE
8
0
10
283.919052
20
18.815330
11
286.614285
21
18.950815
0
LINE
8
0
10
286.614285
20
18.950815
11
288.596130
21
19.463405
0
LINE
8
0
10
288.596130
20
19.463405
11
288.746532
21
20.049624
0
ENDSEC
0
EOF
