999
DXF File generated by ImageToStl.com - Free Image and 3D model conversion tools
0
SECTION
2
HEADER
9
$ACADVER
1
AC1009
9
$EXTMIN
10
0
20
0
9
$EXTMAX
10
561.000000
20
91.000000
0
ENDSEC
0
SECTION
2
ENTITIES
0
LINE
8
0
10
108.500000
20
6.206552
11
104.953870
21
7.860155
0
LINE
8
0
10
104.953870
20
7.860155
11
99.131972
21
13.010021
0
LINE
8
0
10
99.131972
20
13.010021
11
97.102368
21
16.288536
0
LINE
8
0
10
97.102368
20
16.288536
11
96.446408
21
17.760635
0
LINE
8
0
10
96.446408
20
17.760635
11
95.571415
21
21.240979
0
LINE
8
0
10
95.571415
20
21.240979
11
95.218787
21
25.449330
0
LINE
8
0
10
95.218787
20
25.449330
11
95.090807
21
29.553499
0
LINE
8
0
10
95.090807
20
29.553499
11
95.025196
21
35.031057
0
LINE
8
0
10
95.025196
20
35.031057
11
95.001967
21
42.168727
0
LINE
8
0
10
95.001967
20
42.168727
11
95.000000
21
46.449705
0
LINE
8
0
10
95.000000
20
46.449705
11
95.018704
21
52.599596
0
LINE
8
0
10
95.018704
20
52.599596
11
95.168962
21
62.802226
0
LINE
8
0
10
95.168962
20
62.802226
11
95.471079
21
70.242937
0
LINE
8
0
10
95.471079
20
70.242937
11
95.926726
21
74.962874
0
LINE
8
0
10
95.926726
20
74.962874
11
96.212645
21
76.315410
0
LINE
8
0
10
96.212645
20
76.315410
11
96.998822
21
78.345758
0
LINE
8
0
10
96.998822
20
78.345758
11
99.490136
21
82.295414
0
LINE
8
0
10
99.490136
20
82.295414
11
102.838300
21
85.720157
0
LINE
8
0
10
102.838300
20
85.720157
11
106.601193
21
88.167755
0
LINE
8
0
10
106.601193
20
88.167755
11
108.500000
21
88.883802
0
LINE
8
0
10
108.500000
20
88.883802
11
109.965351
21
89.148777
0
LINE
8
0
10
109.965351
20
89.148777
11
115.199046
21
89.570741
0
LINE
8
0
10
115.199046
20
89.570741
11
127.094649
21
89.934903
0
LINE
8
0
10
127.094649
20
89.934903
11
145.711458
21
89.922038
0
LINE
8
0
10
145.711458
20
89.922038
11
157.745423
21
89.541339
0
LINE
8
0
10
157.745423
20
89.541339
11
163.137245
21
89.112032
0
LINE
8
0
10
163.137245
20
89.112032
11
164.701426
21
88.844964
0
LINE
8
0
10
164.701426
20
88.844964
11
166.951532
21
88.068729
0
LINE
8
0
10
166.951532
20
88.068729
11
171.397715
21
85.418427
0
LINE
8
0
10
171.397715
20
85.418427
11
175.299280
21
81.748826
0
LINE
8
0
10
175.299280
20
81.748826
11
178.089136
21
77.593303
0
LINE
8
0
10
178.089136
20
77.593303
11
178.889957
21
75.500000
0
LINE
8
0
10
178.889957
20
75.500000
11
179.142630
21
74.068553
0
LINE
8
0
10
179.142630
20
74.068553
11
179.548897
21
68.849105
0
LINE
8
0
10
179.548897
20
68.849105
11
179.909396
21
56.898102
0
LINE
8
0
10
179.909396
20
56.898102
11
179.922081
21
38.224097
0
LINE
8
0
10
179.922081
20
38.224097
11
179.577805
21
26.293051
0
LINE
8
0
10
179.577805
20
26.293051
11
179.178614
21
21.096413
0
LINE
8
0
10
179.178614
20
21.096413
11
178.927876
21
19.679221
0
LINE
8
0
10
178.927876
20
19.679221
11
178.235671
21
17.844797
0
LINE
8
0
10
178.235671
20
17.844797
11
175.828033
21
13.897687
0
LINE
8
0
10
175.828033
20
13.897687
11
172.547807
21
10.142476
0
LINE
8
0
10
172.547807
20
10.142476
11
168.985052
21
7.254666
0
LINE
8
0
10
168.985052
20
7.254666
11
167.282119
21
6.347129
0
LINE
8
0
10
167.282119
20
6.347129
11
166.014033
21
6.051071
0
LINE
8
0
10
166.014033
20
6.051071
11
160.776153
21
5.569704
0
LINE
8
0
10
160.776153
20
5.569704
11
152.827991
21
5.238135
0
LINE
8
0
10
152.827991
20
5.238135
11
143.239939
21
5.058925
0
LINE
8
0
10
143.239939
20
5.058925
11
133.082391
21
5.034633
0
LINE
8
0
10
133.082391
20
5.034633
11
123.425741
21
5.167820
0
LINE
8
0
10
123.425741
20
5.167820
11
115.340382
21
5.461044
0
LINE
8
0
10
115.340382
20
5.461044
11
109.896707
21
5.916866
0
LINE
8
0
10
109.896707
20
5.916866
11
108.500000
21
6.206552
0
LINE
8
0
10
16.500000
20
6.198734
11
13.058694
21
7.763671
0
LINE
8
0
10
13.058694
20
7.763671
11
7.707172
21
12.301902
0
LINE
8
0
10
7.707172
20
12.301902
11
5.727361
21
15.334215
0
LINE
8
0
10
5.727361
20
15.334215
11
5.008106
21
16.761319
0
LINE
8
0
10
5.008106
20
16.761319
11
4.087160
21
20.058712
0
LINE
8
0
10
4.087160
20
20.058712
11
3.768689
21
24.277566
0
LINE
8
0
10
3.768689
20
24.277566
11
3.695237
21
28.568151
0
LINE
8
0
10
3.695237
20
28.568151
11
3.708982
21
34.443527
0
LINE
8
0
10
3.708982
20
34.443527
11
3.789449
21
42.248587
0
LINE
8
0
10
3.789449
20
42.248587
11
3.848303
21
46.982529
0
LINE
8
0
10
3.848303
20
46.982529
11
3.922112
21
52.384825
0
LINE
8
0
10
3.922112
20
52.384825
11
4.104537
21
61.353451
0
LINE
8
0
10
4.104537
20
61.353451
11
4.395156
21
68.186219
0
LINE
8
0
10
4.395156
20
68.186219
11
4.868113
21
73.257640
0
LINE
8
0
10
4.868113
20
73.257640
11
6.081615
21
78.381496
0
LINE
8
0
10
6.081615
20
78.381496
11
9.029789
21
82.544049
0
LINE
8
0
10
9.029789
20
82.544049
11
11.240769
21
84.324013
0
LINE
8
0
10
11.240769
20
84.324013
11
13.784825
21
86.182272
0
LINE
8
0
10
13.784825
20
86.182272
11
18.397444
21
88.590710
0
LINE
8
0
10
18.397444
20
88.590710
11
22.963405
21
89.506698
0
LINE
8
0
10
22.963405
20
89.506698
11
27.259305
21
89.814446
0
LINE
8
0
10
27.259305
20
89.814446
11
33.007874
21
89.955193
0
LINE
8
0
10
33.007874
20
89.955193
11
40.595790
21
89.993504
0
LINE
8
0
10
40.595790
20
89.993504
11
45.200340
21
89.994423
0
LINE
8
0
10
45.200340
20
89.994423
11
49.688368
21
89.986919
0
LINE
8
0
10
49.688368
20
89.986919
11
57.308770
21
89.921224
0
LINE
8
0
10
57.308770
20
89.921224
11
63.343183
21
89.760886
0
LINE
8
0
10
63.343183
20
89.760886
11
68.057468
21
89.473432
0
LINE
8
0
10
68.057468
20
89.473432
11
73.235228
21
88.732873
0
LINE
8
0
10
73.235228
20
88.732873
11
77.999827
21
86.997475
0
LINE
8
0
10
77.999827
20
86.997475
11
80.063565
21
85.736147
0
LINE
8
0
10
80.063565
20
85.736147
11
82.145444
21
84.190817
0
LINE
8
0
10
82.145444
20
84.190817
11
85.112892
21
80.726175
0
LINE
8
0
10
85.112892
20
80.726175
11
86.812536
21
75.817744
0
LINE
8
0
10
86.812536
20
75.817744
11
87.637107
21
68.331349
0
LINE
8
0
10
87.637107
20
68.331349
11
87.843968
21
63.266986
0
LINE
8
0
10
87.843968
20
63.266986
11
88.231658
21
50.000000
0
LINE
8
0
10
88.231658
20
50.000000
11
65.615829
21
50.000000
0
LINE
8
0
10
65.615829
20
50.000000
11
43.000000
21
50.000000
0
LINE
8
0
10
43.000000
20
50.000000
11
43.000000
21
30.500000
0
LINE
8
0
10
43.000000
20
30.500000
11
43.000000
21
11.000000
0
LINE
8
0
10
43.000000
20
11.000000
11
45.500000
21
11.000000
0
LINE
8
0
10
45.500000
20
11.000000
11
48.000000
21
11.000000
0
LINE
8
0
10
48.000000
20
11.000000
11
48.000000
21
28.000000
0
LINE
8
0
10
48.000000
20
28.000000
11
48.000000
21
45.000000
0
LINE
8
0
10
48.000000
20
45.000000
11
68.000000
21
45.000000
0
LINE
8
0
10
68.000000
20
45.000000
11
88.000000
21
45.000000
0
LINE
8
0
10
88.000000
20
45.000000
11
88.000000
21
32.711890
0
LINE
8
0
10
88.000000
20
32.711890
11
87.913682
21
27.680082
0
LINE
8
0
10
87.913682
20
27.680082
11
87.090170
21
19.943820
0
LINE
8
0
10
87.090170
20
19.943820
11
85.103335
21
14.501264
0
LINE
8
0
10
85.103335
20
14.501264
11
81.598593
21
10.381098
0
LINE
8
0
10
81.598593
20
10.381098
11
79.166199
21
8.513375
0
LINE
8
0
10
79.166199
20
8.513375
11
74.832398
21
5.500000
0
LINE
8
0
10
74.832398
20
5.500000
11
47.166199
21
5.306149
0
LINE
8
0
10
47.166199
20
5.306149
11
40.791551
21
5.279697
0
LINE
8
0
10
40.791551
20
5.279697
11
30.112703
21
5.348239
0
LINE
8
0
10
30.112703
20
5.348239
11
22.338281
21
5.574525
0
LINE
8
0
10
22.338281
20
5.574525
11
17.640881
21
5.953531
0
LINE
8
0
10
17.640881
20
5.953531
11
16.500000
21
6.198734
0
LINE
8
0
10
522.421401
20
32.842591
11
519.783376
21
34.318510
0
LINE
8
0
10
519.783376
20
34.318510
11
515.683954
21
38.190503
0
LINE
8
0
10
515.683954
20
38.190503
11
513.136297
21
43.323773
0
LINE
8
0
10
513.136297
20
43.323773
11
512.119916
21
49.759600
0
LINE
8
0
10
512.119916
20
49.759600
11
512.179552
21
53.478872
0
LINE
8
0
10
512.179552
20
53.478872
11
512.466203
21
56.080582
0
LINE
8
0
10
512.466203
20
56.080582
11
513.776952
21
60.644444
0
LINE
8
0
10
513.776952
20
60.644444
11
516.200424
21
64.564992
0
LINE
8
0
10
516.200424
20
64.564992
11
519.891968
21
68.093542
0
LINE
8
0
10
519.891968
20
68.093542
11
522.261814
21
69.789354
0
LINE
8
0
10
522.261814
20
69.789354
11
524.433752
21
70.966452
0
LINE
8
0
10
524.433752
20
70.966452
11
529.465501
21
72.381022
0
LINE
8
0
10
529.465501
20
72.381022
11
534.858274
21
72.527639
0
LINE
8
0
10
534.858274
20
72.527639
11
539.944703
21
71.388157
0
LINE
8
0
10
539.944703
20
71.388157
11
542.164486
21
70.330459
0
LINE
8
0
10
542.164486
20
70.330459
11
545.788453
21
68.192266
0
LINE
8
0
10
545.788453
20
68.192266
11
546.394227
21
71.221133
0
LINE
8
0
10
546.394227
20
71.221133
11
546.629437
21
73.018572
0
LINE
8
0
10
546.629437
20
73.018572
11
546.952201
21
78.828289
0
LINE
8
0
10
546.952201
20
78.828289
11
547.000000
21
82.125000
0
LINE
8
0
10
547.000000
20
82.125000
11
547.000000
21
90.000000
0
LINE
8
0
10
547.000000
20
90.000000
11
554.000000
21
90.000000
0
LINE
8
0
10
554.000000
20
90.000000
11
561.000000
21
90.000000
0
LINE
8
0
10
561.000000
20
90.000000
11
561.000000
21
60.500000
0
LINE
8
0
10
561.000000
20
60.500000
11
561.000000
21
31.000000
0
LINE
8
0
10
561.000000
20
31.000000
11
554.000000
21
31.000000
0
LINE
8
0
10
554.000000
20
31.000000
11
551.941761
21
31.013021
0
LINE
8
0
10
551.941761
20
31.013021
11
549.095170
21
31.157366
0
LINE
8
0
10
549.095170
20
31.157366
11
547.232955
21
31.870536
0
LINE
8
0
10
547.232955
20
31.870536
11
547.000000
21
32.833333
0
LINE
8
0
10
547.000000
20
32.833333
11
546.949063
21
33.818685
0
LINE
8
0
10
546.949063
20
33.818685
11
546.505571
21
35.027617
0
LINE
8
0
10
546.505571
20
35.027617
11
545.526595
21
35.238047
0
LINE
8
0
10
545.526595
20
35.238047
11
543.916148
21
34.470608
0
LINE
8
0
10
543.916148
20
34.470608
11
542.844125
21
33.726636
0
LINE
8
0
10
542.844125
20
33.726636
11
541.009037
21
32.701297
0
LINE
8
0
10
541.009037
20
32.701297
11
536.050723
21
31.405634
0
LINE
8
0
10
536.050723
20
31.405634
11
530.272121
21
31.155494
0
LINE
8
0
10
530.272121
20
31.155494
11
524.749904
21
31.997483
0
LINE
8
0
10
524.749904
20
31.997483
11
522.421401
21
32.842591
0
LINE
8
0
10
276.000000
20
33.186984
11
273.937547
21
34.437153
0
LINE
8
0
10
273.937547
20
34.437153
11
270.538112
21
37.706129
0
LINE
8
0
10
270.538112
20
37.706129
11
268.103900
21
42.003612
0
LINE
8
0
10
268.103900
20
42.003612
11
266.632424
21
47.333990
0
LINE
8
0
10
266.632424
20
47.333990
11
266.256936
21
50.387885
0
LINE
8
0
10
266.256936
20
50.387885
11
266.099667
21
53.638899
0
LINE
8
0
10
266.099667
20
53.638899
11
266.821647
21
58.377620
0
LINE
8
0
10
266.821647
20
58.377620
11
267.820026
21
60.647221
0
LINE
8
0
10
267.820026
20
60.647221
11
270.208852
21
64.324270
0
LINE
8
0
10
270.208852
20
64.324270
11
276.867671
21
70.270776
0
LINE
8
0
10
276.867671
20
70.270776
11
280.551897
21
72.017127
0
LINE
8
0
10
280.551897
20
72.017127
11
284.492361
21
72.716491
0
LINE
8
0
10
284.492361
20
72.716491
11
291.274382
21
72.330021
0
LINE
8
0
10
291.274382
20
72.330021
11
295.215416
21
71.227801
0
LINE
8
0
10
295.215416
20
71.227801
11
296.713247
21
70.452232
0
LINE
8
0
10
296.713247
20
70.452232
11
297.718231
21
69.876011
0
LINE
8
0
10
297.718231
20
69.876011
11
299.364717
21
69.352715
0
LINE
8
0
10
299.364717
20
69.352715
11
299.803426
21
69.470093
0
LINE
8
0
10
299.803426
20
69.470093
11
299.938116
21
69.799707
0
LINE
8
0
10
299.938116
20
69.799707
11
300.223470
21
71.526941
0
LINE
8
0
10
300.223470
20
71.526941
11
300.628092
21
76.136893
0
LINE
8
0
10
300.628092
20
76.136893
11
300.832970
21
80.049996
0
LINE
8
0
10
300.832970
20
80.049996
11
301.232615
21
90.000000
0
LINE
8
0
10
301.232615
20
90.000000
11
308.116307
21
90.000000
0
LINE
8
0
10
308.116307
20
90.000000
11
315.000000
21
90.000000
0
LINE
8
0
10
315.000000
20
90.000000
11
315.000000
21
61.000000
0
LINE
8
0
10
315.000000
20
61.000000
11
315.000000
21
32.000000
0
LINE
8
0
10
315.000000
20
32.000000
11
308.116631
21
32.000000
0
LINE
8
0
10
308.116631
20
32.000000
11
306.056269
21
32.013371
0
LINE
8
0
10
306.056269
20
32.013371
11
303.198770
21
32.169655
0
LINE
8
0
10
303.198770
20
32.169655
11
301.191377
21
32.974490
0
LINE
8
0
10
301.191377
20
32.974490
11
300.688523
21
34.083089
0
LINE
8
0
10
300.688523
20
34.083089
11
300.324786
21
35.250580
0
LINE
8
0
10
300.324786
20
35.250580
11
299.411248
21
35.493060
0
LINE
8
0
10
299.411248
20
35.493060
11
298.057630
21
34.618895
0
LINE
8
0
10
298.057630
20
34.618895
11
297.029051
21
33.863357
0
LINE
8
0
10
297.029051
20
33.863357
11
295.029592
21
32.712375
0
LINE
8
0
10
295.029592
20
32.712375
11
289.916122
21
31.305996
0
LINE
8
0
10
289.916122
20
31.305996
11
284.083599
21
31.118400
0
LINE
8
0
10
284.083599
20
31.118400
11
278.452439
21
32.179192
0
LINE
8
0
10
278.452439
20
32.179192
11
276.000000
21
33.186984
0
LINE
8
0
10
323.000000
20
51.500000
11
323.000000
21
72.000000
0
LINE
8
0
10
323.000000
20
72.000000
11
329.500000
21
72.000000
0
LINE
8
0
10
329.500000
20
72.000000
11
331.439456
21
71.987335
0
LINE
8
0
10
331.439456
20
71.987335
11
334.097700
21
71.840071
0
LINE
8
0
10
334.097700
20
71.840071
11
335.797514
21
71.084641
0
LINE
8
0
10
335.797514
20
71.084641
11
336.000000
21
70.046005
0
LINE
8
0
10
336.000000
20
70.046005
11
336.111346
21
69.000922
0
LINE
8
0
10
336.111346
20
69.000922
11
337.373347
21
68.854894
0
LINE
8
0
10
337.373347
20
68.854894
11
339.576941
21
69.764313
0
LINE
8
0
10
339.576941
20
69.764313
11
341.250000
21
70.536236
0
LINE
8
0
10
341.250000
20
70.536236
11
343.609772
21
71.486054
0
LINE
8
0
10
343.609772
20
71.486054
11
348.576576
21
72.793573
0
LINE
8
0
10
348.576576
20
72.793573
11
350.571861
21
72.990231
0
LINE
8
0
10
350.571861
20
72.990231
11
354.769906
21
72.561044
0
LINE
8
0
10
354.769906
20
72.561044
11
361.171868
21
70.649670
0
LINE
8
0
10
361.171868
20
70.649670
11
364.466673
21
68.881943
0
LINE
8
0
10
364.466673
20
68.881943
11
365.553899
21
67.940442
0
LINE
8
0
10
365.553899
20
67.940442
11
366.989583
21
66.566391
0
LINE
8
0
10
366.989583
20
66.566391
11
368.845650
21
66.550311
0
LINE
8
0
10
368.845650
20
66.550311
11
369.470328
21
67.906511
0
LINE
8
0
10
369.470328
20
67.906511
11
370.012665
21
68.809422
0
LINE
8
0
10
370.012665
20
68.809422
11
372.390420
21
70.565138
0
LINE
8
0
10
372.390420
20
70.565138
11
377.892195
21
72.539187
0
LINE
8
0
10
377.892195
20
72.539187
11
381.840921
21
73.000000
0
LINE
8
0
10
381.840921
20
73.000000
11
383.759977
21
72.791628
0
LINE
8
0
10
383.759977
20
72.791628
11
388.594029
21
71.343635
0
LINE
8
0
10
388.594029
20
71.343635
11
391.021656
21
70.250000
0
LINE
8
0
10
391.021656
20
70.250000
11
393.401649
21
68.920819
0
LINE
8
0
10
393.401649
20
68.920819
11
396.625694
21
65.839001
0
LINE
8
0
10
396.625694
20
65.839001
11
398.258643
21
60.776246
0
LINE
8
0
10
398.258643
20
60.776246
11
398.768966
21
54.656780
0
LINE
8
0
10
398.768966
20
54.656780
11
398.897480
21
49.072888
0
LINE
8
0
10
398.897480
20
49.072888
11
398.923922
21
45.750000
0
LINE
8
0
10
398.923922
20
45.750000
11
399.000000
21
31.000000
0
LINE
8
0
10
399.000000
20
31.000000
11
392.000000
21
31.000000
0
LINE
8
0
10
392.000000
20
31.000000
11
385.000000
21
31.000000
0
LINE
8
0
10
385.000000
20
31.000000
11
385.000000
21
45.076923
0
LINE
8
0
10
385.000000
20
45.076923
11
385.000000
21
59.153846
0
LINE
8
0
10
385.000000
20
59.153846
11
382.076923
21
62.076923
0
LINE
8
0
10
382.076923
20
62.076923
11
380.744466
21
63.286753
0
LINE
8
0
10
380.744466
20
63.286753
11
378.281440
21
64.670111
0
LINE
8
0
10
378.281440
20
64.670111
11
375.868200
21
64.671892
0
LINE
8
0
10
375.868200
20
64.671892
11
373.241472
21
63.292292
0
LINE
8
0
10
373.241472
20
63.292292
11
371.765777
21
62.084535
0
LINE
8
0
10
371.765777
20
62.084535
11
368.500000
21
59.169070
0
LINE
8
0
10
368.500000
20
59.169070
11
368.174416
21
45.084535
0
LINE
8
0
10
368.174416
20
45.084535
11
367.848832
21
31.000000
0
LINE
8
0
10
367.848832
20
31.000000
11
360.924416
21
31.000000
0
LINE
8
0
10
360.924416
20
31.000000
11
354.000000
21
31.000000
0
LINE
8
0
10
354.000000
20
31.000000
11
354.000000
21
44.777494
0
LINE
8
0
10
354.000000
20
44.777494
11
353.990602
21
47.428075
0
LINE
8
0
10
353.990602
20
47.428075
11
353.900449
21
51.927383
0
LINE
8
0
10
353.900449
20
51.927383
11
353.511979
21
56.929163
0
LINE
8
0
10
353.511979
20
56.929163
11
352.311723
21
61.057684
0
LINE
8
0
10
352.311723
20
61.057684
11
350.038958
21
63.289700
0
LINE
8
0
10
350.038958
20
63.289700
11
348.400586
21
64.037797
0
LINE
8
0
10
348.400586
20
64.037797
11
346.940461
21
64.388770
0
LINE
8
0
10
346.940461
20
64.388770
11
343.704883
21
64.187845
0
LINE
8
0
10
343.704883
20
64.187845
11
340.636767
21
63.008980
0
LINE
8
0
10
340.636767
20
63.008980
11
338.441590
21
61.123240
0
LINE
8
0
10
338.441590
20
61.123240
11
337.891815
21
60.000000
0
LINE
8
0
10
337.891815
20
60.000000
11
337.750681
21
59.227368
0
LINE
8
0
10
337.750681
20
59.227368
11
337.488268
21
56.333862
0
LINE
8
0
10
337.488268
20
56.333862
11
337.193023
21
49.591992
0
LINE
8
0
10
337.193023
20
49.591992
11
337.099680
21
44.250000
0
LINE
8
0
10
337.099680
20
44.250000
11
337.000000
21
31.000000
0
LINE
8
0
10
337.000000
20
31.000000
11
330.000000
21
31.000000
0
LINE
8
0
10
330.000000
20
31.000000
11
323.000000
21
31.000000
0
LINE
8
0
10
323.000000
20
31.000000
11
323.000000
21
51.500000
0
LINE
8
0
10
217.000000
20
60.500000
11
217.000000
21
90.000000
0
LINE
8
0
10
217.000000
20
90.000000
11
240.000000
21
90.000000
0
LINE
8
0
10
240.000000
20
90.000000
11
263.000000
21
90.000000
0
LINE
8
0
10
263.000000
20
90.000000
11
263.000000
21
85.000000
0
LINE
8
0
10
263.000000
20
85.000000
11
263.000000
21
80.000000
0
LINE
8
0
10
263.000000
20
80.000000
11
247.500000
21
80.000000
0
LINE
8
0
10
247.500000
20
80.000000
11
232.000000
21
80.000000
0
LINE
8
0
10
232.000000
20
80.000000
11
232.000000
21
73.500000
0
LINE
8
0
10
232.000000
20
73.500000
11
232.000000
21
67.000000
0
LINE
8
0
10
232.000000
20
67.000000
11
246.500000
21
67.000000
0
LINE
8
0
10
246.500000
20
67.000000
11
261.000000
21
67.000000
0
LINE
8
0
10
261.000000
20
67.000000
11
261.000000
21
62.000000
0
LINE
8
0
10
261.000000
20
62.000000
11
261.000000
21
57.000000
0
LINE
8
0
10
261.000000
20
57.000000
11
246.000000
21
57.000000
0
LINE
8
0
10
246.000000
20
57.000000
11
231.000000
21
57.000000
0
LINE
8
0
10
231.000000
20
57.000000
11
231.000000
21
49.000000
0
LINE
8
0
10
231.000000
20
49.000000
11
231.000000
21
41.000000
0
LINE
8
0
10
231.000000
20
41.000000
11
247.500000
21
41.000000
0
LINE
8
0
10
247.500000
20
41.000000
11
264.000000
21
41.000000
0
LINE
8
0
10
264.000000
20
41.000000
11
264.000000
21
36.000000
0
LINE
8
0
10
264.000000
20
36.000000
11
264.000000
21
31.000000
0
LINE
8
0
10
264.000000
20
31.000000
11
240.500000
21
31.000000
0
LINE
8
0
10
240.500000
20
31.000000
11
217.000000
21
31.000000
0
LINE
8
0
10
217.000000
20
31.000000
11
217.000000
21
60.500000
0
LINE
8
0
10
462.000000
20
51.500000
11
462.000000
21
72.000000
0
LINE
8
0
10
462.000000
20
72.000000
11
468.383369
21
72.000000
0
LINE
8
0
10
468.383369
20
72.000000
11
470.247938
21
71.985187
0
LINE
8
0
10
470.247938
20
71.985187
11
472.877037
21
71.825048
0
LINE
8
0
10
472.877037
20
71.825048
11
474.794680
21
71.050397
0
LINE
8
0
10
474.794680
20
71.050397
11
475.285626
21
70.015767
0
LINE
8
0
10
475.285626
20
70.015767
11
475.672674
21
68.947826
0
LINE
8
0
10
475.672674
20
68.947826
11
476.980354
21
68.827737
0
LINE
8
0
10
476.980354
20
68.827737
11
478.979583
21
69.813524
0
LINE
8
0
10
478.979583
20
69.813524
11
480.482697
21
70.646220
0
LINE
8
0
10
480.482697
20
70.646220
11
483.137740
21
71.993595
0
LINE
8
0
10
483.137740
20
71.993595
11
487.971521
21
72.932501
0
LINE
8
0
10
487.971521
20
72.932501
11
491.375627
21
72.762047
0
LINE
8
0
10
491.375627
20
72.762047
11
493.815591
21
72.527127
0
LINE
8
0
10
493.815591
20
72.527127
11
497.920187
21
71.815259
0
LINE
8
0
10
497.920187
20
71.815259
11
501.088420
21
70.617567
0
LINE
8
0
10
501.088420
20
70.617567
11
503.437185
21
68.738308
0
LINE
8
0
10
503.437185
20
68.738308
11
505.083380
21
65.981738
0
LINE
8
0
10
505.083380
20
65.981738
11
506.143899
21
62.152114
0
LINE
8
0
10
506.143899
20
62.152114
11
506.735640
21
57.053691
0
LINE
8
0
10
506.735640
20
57.053691
11
506.975497
21
50.490726
0
LINE
8
0
10
506.975497
20
50.490726
11
507.000000
21
46.598871
0
LINE
8
0
10
507.000000
20
46.598871
11
507.000000
21
31.000000
0
LINE
8
0
10
507.000000
20
31.000000
11
499.500000
21
31.000000
0
LINE
8
0
10
499.500000
20
31.000000
11
492.000000
21
31.000000
0
LINE
8
0
10
492.000000
20
31.000000
11
492.000000
21
45.928571
0
LINE
8
0
10
492.000000
20
45.928571
11
491.984787
21
50.019818
0
LINE
8
0
10
491.984787
20
50.019818
11
491.841697
21
56.067365
0
LINE
8
0
10
491.841697
20
56.067365
11
491.500862
21
59.786986
0
LINE
8
0
10
491.500862
20
59.786986
11
490.905250
21
61.801084
0
LINE
8
0
10
490.905250
20
61.801084
11
490.494080
21
62.363063
0
LINE
8
0
10
490.494080
20
62.363063
11
488.624918
21
63.787562
0
LINE
8
0
10
488.624918
20
63.787562
11
484.168667
21
64.601772
0
LINE
8
0
10
484.168667
20
64.601772
11
481.512457
21
64.004111
0
LINE
8
0
10
481.512457
20
64.004111
11
479.961969
21
63.325308
0
LINE
8
0
10
479.961969
20
63.325308
11
477.760471
21
60.930806
0
LINE
8
0
10
477.760471
20
60.930806
11
476.544262
21
56.347206
0
LINE
8
0
10
476.544262
20
56.347206
11
476.124210
21
50.890667
0
LINE
8
0
10
476.124210
20
50.890667
11
476.018318
21
46.064775
0
LINE
8
0
10
476.018318
20
46.064775
11
476.005577
21
43.250000
0
LINE
8
0
10
476.005577
20
43.250000
11
476.000000
21
31.000000
0
LINE
8
0
10
476.000000
20
31.000000
11
469.000000
21
31.000000
0
LINE
8
0
10
469.000000
20
31.000000
11
462.000000
21
31.000000
0
LINE
8
0
10
462.000000
20
31.000000
11
462.000000
21
51.500000
0
LINE
8
0
10
416.871046
20
32.005986
11
413.538164
21
34.275298
0
LINE
8
0
10
413.538164
20
34.275298
11
410.621046
21
37.038515
0
LINE
8
0
10
410.621046
20
37.038515
11
409.119733
21
39.099833
0
LINE
8
0
10
409.119733
20
39.099833
11
408.146956
21
43.954785
0
LINE
8
0
10
408.146956
20
43.954785
11
408.020117
21
48.745172
0
LINE
8
0
10
408.020117
20
48.745172
11
408.001004
21
53.305805
0
LINE
8
0
10
408.001004
20
53.305805
11
408.000000
21
56.076725
0
LINE
8
0
10
408.000000
20
56.076725
11
408.000000
21
72.000000
0
LINE
8
0
10
408.000000
20
72.000000
11
415.000000
21
72.000000
0
LINE
8
0
10
415.000000
20
72.000000
11
422.000000
21
72.000000
0
LINE
8
0
10
422.000000
20
72.000000
11
422.000000
21
57.122445
0
LINE
8
0
10
422.000000
20
57.122445
11
422.013505
21
52.846459
0
LINE
8
0
10
422.013505
20
52.846459
11
422.153347
21
46.738724
0
LINE
8
0
10
422.153347
20
46.738724
11
422.514308
21
43.196401
0
LINE
8
0
10
422.514308
20
43.196401
11
423.181195
21
41.387207
0
LINE
8
0
10
423.181195
20
41.387207
11
423.655864
21
40.872445
0
LINE
8
0
10
423.655864
20
40.872445
11
424.692348
21
40.343217
0
LINE
8
0
10
424.692348
20
40.343217
11
428.085728
21
39.743620
0
LINE
8
0
10
428.085728
20
39.743620
11
432.101205
21
39.753136
0
LINE
8
0
10
432.101205
20
39.753136
11
435.372637
21
40.368529
0
LINE
8
0
10
435.372637
20
40.368529
11
436.302416
21
40.902416
0
LINE
8
0
10
436.302416
20
40.902416
11
436.544264
21
41.414223
0
LINE
8
0
10
436.544264
20
41.414223
11
437.002247
21
43.923351
0
LINE
8
0
10
437.002247
20
43.923351
11
437.400819
21
48.146864
0
LINE
8
0
10
437.400819
20
48.146864
11
437.709820
21
53.765197
0
LINE
8
0
10
437.709820
20
53.765197
11
437.821308
21
56.997558
0
LINE
8
0
10
437.821308
20
56.997558
11
438.247501
21
72.000000
0
LINE
8
0
10
438.247501
20
72.000000
11
445.623751
21
72.000000
0
LINE
8
0
10
445.623751
20
72.000000
11
453.000000
21
72.000000
0
LINE
8
0
10
453.000000
20
72.000000
11
453.000000
21
51.500000
0
LINE
8
0
10
453.000000
20
51.500000
11
453.000000
21
31.000000
0
LINE
8
0
10
453.000000
20
31.000000
11
446.500000
21
31.000000
0
LINE
8
0
10
446.500000
20
31.000000
11
444.432350
21
31.008965
0
LINE
8
0
10
444.432350
20
31.008965
11
441.706084
21
31.155932
0
LINE
8
0
10
441.706084
20
31.155932
11
440.139697
21
32.075214
0
LINE
8
0
10
440.139697
20
32.075214
11
440.000000
21
33.446584
0
LINE
8
0
10
440.000000
20
33.446584
11
440.000000
21
35.893168
0
LINE
8
0
10
440.000000
20
35.893168
11
434.398454
21
32.946584
0
LINE
8
0
10
434.398454
20
32.946584
11
431.971449
21
31.794207
0
LINE
8
0
10
431.971449
20
31.794207
11
427.365723
21
30.378892
0
LINE
8
0
10
427.365723
20
30.378892
11
423.029802
21
30.146208
0
LINE
8
0
10
423.029802
20
30.146208
11
418.890196
21
31.092210
0
LINE
8
0
10
418.890196
20
31.092210
11
416.871046
21
32.005986
0
LINE
8
0
10
244.000000
20
7.895919
11
244.000000
21
15.791838
0
LINE
8
0
10
244.000000
20
15.791838
11
252.014695
21
16.501301
0
LINE
8
0
10
252.014695
20
16.501301
11
255.431761
21
16.720893
0
LINE
8
0
10
255.431761
20
16.720893
11
260.499506
21
16.430301
0
LINE
8
0
10
260.499506
20
16.430301
11
263.517076
21
15.024589
0
LINE
8
0
10
263.517076
20
15.024589
11
264.850481
21
12.333254
0
LINE
8
0
10
264.850481
20
12.333254
11
265.000000
21
10.452196
0
LINE
8
0
10
265.000000
20
10.452196
11
264.890460
21
8.640271
0
LINE
8
0
10
264.890460
20
8.640271
11
263.640129
21
6.570915
0
LINE
8
0
10
263.640129
20
6.570915
11
262.250000
21
5.900817
0
LINE
8
0
10
262.250000
20
5.900817
11
260.767861
21
5.518845
0
LINE
8
0
10
260.767861
20
5.518845
11
256.504635
21
5.132423
0
LINE
8
0
10
256.504635
20
5.132423
11
254.248637
21
5.175568
0
LINE
8
0
10
254.248637
20
5.175568
11
252.546962
21
5.272957
0
LINE
8
0
10
252.546962
20
5.272957
11
250.327916
21
5.257541
0
LINE
8
0
10
250.327916
20
5.257541
11
249.095431
21
4.309438
0
LINE
8
0
10
249.095431
20
4.309438
11
248.998637
21
2.750000
0
LINE
8
0
10
248.998637
20
2.750000
11
248.898518
21
1.363909
0
LINE
8
0
10
248.898518
20
1.363909
11
247.760028
21
0.110886
0
LINE
8
0
10
247.760028
20
0.110886
11
246.500000
21
0.000000
0
LINE
8
0
10
246.500000
20
0.000000
11
245.687556
21
0.021175
0
LINE
8
0
10
245.687556
20
0.021175
11
244.629869
21
0.453372
0
LINE
8
0
10
244.629869
20
0.453372
11
244.143546
21
1.989358
0
LINE
8
0
10
244.143546
20
1.989358
11
244.006704
21
5.329922
0
LINE
8
0
10
244.006704
20
5.329922
11
244.000000
21
7.895919
0
LINE
8
0
10
218.618238
20
6.289884
11
217.816091
21
7.100901
0
LINE
8
0
10
217.816091
20
7.100901
11
217.121484
21
9.631337
0
LINE
8
0
10
217.121484
20
9.631337
11
217.177108
21
11.539884
0
LINE
8
0
10
217.177108
20
11.539884
11
217.500000
21
15.500000
0
LINE
8
0
10
217.500000
20
15.500000
11
225.740462
21
15.790288
0
LINE
8
0
10
225.740462
20
15.790288
11
229.112970
21
15.819368
0
LINE
8
0
10
229.112970
20
15.819368
11
234.561367
21
15.402003
0
LINE
8
0
10
234.561367
20
15.402003
11
235.990462
21
15.005104
0
LINE
8
0
10
235.990462
20
15.005104
11
236.893749
21
14.257465
0
LINE
8
0
10
236.893749
20
14.257465
11
237.938647
21
11.905161
0
LINE
8
0
10
237.938647
20
11.905161
11
237.961972
21
9.125886
0
LINE
8
0
10
237.961972
20
9.125886
11
236.956515
21
6.778511
0
LINE
8
0
10
236.956515
20
6.778511
11
236.065741
21
6.035184
0
LINE
8
0
10
236.065741
20
6.035184
11
234.606973
21
5.556115
0
LINE
8
0
10
234.606973
20
5.556115
11
229.887416
21
5.053167
0
LINE
8
0
10
229.887416
20
5.053167
11
224.342522
21
5.134112
0
LINE
8
0
10
224.342522
20
5.134112
11
219.865121
21
5.771318
0
LINE
8
0
10
219.865121
20
5.771318
11
218.618238
21
6.289884
0
LINE
8
0
10
332.250000
20
5.705733
11
330.660938
21
6.241002
0
LINE
8
0
10
330.660938
20
6.241002
11
330.000000
21
6.919364
0
LINE
8
0
10
330.000000
20
6.919364
11
330.153076
21
7.066279
0
LINE
8
0
10
330.153076
20
7.066279
11
331.285400
21
7.272341
0
LINE
8
0
10
331.285400
20
7.272341
11
334.587891
21
7.343627
0
LINE
8
0
10
334.587891
20
7.343627
11
337.500000
21
7.218306
0
LINE
8
0
10
337.500000
20
7.218306
11
339.314670
21
7.118302
0
LINE
8
0
10
339.314670
20
7.118302
11
342.157340
21
7.070657
0
LINE
8
0
10
342.157340
20
7.070657
11
344.559099
21
7.389149
0
LINE
8
0
10
344.559099
20
7.389149
11
345.000000
21
7.868493
0
LINE
8
0
10
345.000000
20
7.868493
11
344.678674
21
8.326574
0
LINE
8
0
10
344.678674
20
8.326574
11
342.442271
21
8.974440
0
LINE
8
0
10
342.442271
20
8.974440
11
340.750000
21
9.099680
0
LINE
8
0
10
340.750000
20
9.099680
11
338.594599
21
9.197574
0
LINE
8
0
10
338.594599
20
9.197574
11
335.127429
21
9.662563
0
LINE
8
0
10
335.127429
20
9.662563
11
332.751647
21
10.498255
0
LINE
8
0
10
332.751647
20
10.498255
11
331.427108
21
11.718769
0
LINE
8
0
10
331.427108
20
11.718769
11
331.146511
21
12.477748
0
LINE
8
0
10
331.146511
20
12.477748
11
331.111244
21
13.512262
0
LINE
8
0
10
331.111244
20
13.512262
11
332.078364
21
15.194635
0
LINE
8
0
10
332.078364
20
15.194635
11
334.387268
21
16.340742
0
LINE
8
0
10
334.387268
20
16.340742
11
337.987855
21
16.925713
0
LINE
8
0
10
337.987855
20
16.925713
11
340.256871
21
17.000000
0
LINE
8
0
10
340.256871
20
17.000000
11
344.139662
21
16.787265
0
LINE
8
0
10
344.139662
20
16.787265
11
348.392480
21
15.784839
0
LINE
8
0
10
348.392480
20
15.784839
11
349.810836
21
14.767806
0
LINE
8
0
10
349.810836
20
14.767806
11
350.000000
21
14.182127
0
LINE
8
0
10
350.000000
20
14.182127
11
349.447656
21
13.923095
0
LINE
8
0
10
349.447656
20
13.923095
11
345.717969
21
13.735562
0
LINE
8
0
10
345.717969
20
13.735562
11
343.000000
21
13.830158
0
LINE
8
0
10
343.000000
20
13.830158
11
339.919148
21
13.935661
0
LINE
8
0
10
339.919148
20
13.935661
11
336.431383
21
13.578259
0
LINE
8
0
10
336.431383
20
13.578259
11
336.000000
21
13.112847
0
LINE
8
0
10
336.000000
20
13.112847
11
336.292945
21
12.677684
0
LINE
8
0
10
336.292945
20
12.677684
11
338.285085
21
12.083536
0
LINE
8
0
10
338.285085
20
12.083536
11
339.750000
21
11.994423
0
LINE
8
0
10
339.750000
20
11.994423
11
343.470984
21
11.692577
0
LINE
8
0
10
343.470984
20
11.692577
11
347.151221
21
10.974693
0
LINE
8
0
10
347.151221
20
10.974693
11
348.911407
21
10.393482
0
LINE
8
0
10
348.911407
20
10.393482
11
350.383360
21
9.040671
0
LINE
8
0
10
350.383360
20
9.040671
11
350.308767
21
8.072724
0
LINE
8
0
10
350.308767
20
8.072724
11
349.326330
21
6.569432
0
LINE
8
0
10
349.326330
20
6.569432
11
347.657546
21
5.606109
0
LINE
8
0
10
347.657546
20
5.606109
11
346.455046
21
5.398852
0
LINE
8
0
10
346.455046
20
5.398852
11
342.662539
21
5.177623
0
LINE
8
0
10
342.662539
20
5.177623
11
338.043240
21
5.207491
0
LINE
8
0
10
338.043240
20
5.207491
11
333.825009
21
5.480517
0
LINE
8
0
10
333.825009
20
5.480517
11
332.250000
21
5.705733
0
LINE
8
0
10
305.250000
20
6.031162
11
304.167067
21
6.634407
0
LINE
8
0
10
304.167067
20
6.634407
11
303.107772
21
8.711065
0
LINE
8
0
10
303.107772
20
8.711065
11
303.000000
21
10.442096
0
LINE
8
0
10
303.000000
20
10.442096
11
303.121222
21
12.264148
0
LINE
8
0
10
303.121222
20
12.264148
11
304.470042
21
14.564754
0
LINE
8
0
10
304.470042
20
14.564754
11
305.950340
21
15.474320
0
LINE
8
0
10
305.950340
20
15.474320
11
309.165106
21
16.562155
0
LINE
8
0
10
309.165106
20
16.562155
11
316.878360
21
16.602731
0
LINE
8
0
10
316.878360
20
16.602731
11
320.532119
21
15.551027
0
LINE
8
0
10
320.532119
20
15.551027
11
322.018746
21
14.838708
0
LINE
8
0
10
322.018746
20
14.838708
11
323.754795
21
13.497543
0
LINE
8
0
10
323.754795
20
13.497543
11
323.822968
21
12.527609
0
LINE
8
0
10
323.822968
20
12.527609
11
322.201340
21
12.240824
0
LINE
8
0
10
322.201340
20
12.240824
11
320.750000
21
12.451087
0
LINE
8
0
10
320.750000
20
12.451087
11
317.206250
21
13.087466
0
LINE
8
0
10
317.206250
20
13.087466
11
313.250000
21
13.665280
0
LINE
8
0
10
313.250000
20
13.665280
11
309.000000
21
14.201387
0
LINE
8
0
10
309.000000
20
14.201387
11
309.000000
21
10.469851
0
LINE
8
0
10
309.000000
20
10.469851
11
309.000000
21
6.738315
0
LINE
8
0
10
309.000000
20
6.738315
11
312.750000
21
7.372096
0
LINE
8
0
10
312.750000
20
7.372096
11
314.942202
21
7.744050
0
LINE
8
0
10
314.942202
20
7.744050
11
318.458543
21
8.338983
0
LINE
8
0
10
318.458543
20
8.338983
11
321.850645
21
8.852645
0
LINE
8
0
10
321.850645
20
8.852645
11
323.665328
21
8.812905
0
LINE
8
0
10
323.665328
20
8.812905
11
323.510450
21
7.920381
0
LINE
8
0
10
323.510450
20
7.920381
11
323.078095
21
7.145922
0
LINE
8
0
10
323.078095
20
7.145922
11
322.240793
21
6.010846
0
LINE
8
0
10
322.240793
20
6.010846
11
319.900827
21
5.196528
0
LINE
8
0
10
319.900827
20
5.196528
11
316.867022
21
5.058801
0
LINE
8
0
10
316.867022
20
5.058801
11
314.714816
21
5.063386
0
LINE
8
0
10
314.714816
20
5.063386
11
311.735899
21
5.159360
0
LINE
8
0
10
311.735899
20
5.159360
11
306.692927
21
5.675003
0
LINE
8
0
10
306.692927
20
5.675003
11
305.250000
21
6.031162
0
LINE
8
0
10
273.250000
20
5.662281
11
272.758792
21
6.163420
0
LINE
8
0
10
272.758792
20
6.163420
11
272.096681
21
8.505204
0
LINE
8
0
10
272.096681
20
8.505204
11
272.000000
21
10.083333
0
LINE
8
0
10
272.000000
20
10.083333
11
271.917221
21
11.882812
0
LINE
8
0
10
271.917221
20
11.882812
11
271.189162
21
13.783854
0
LINE
8
0
10
271.189162
20
13.783854
11
270.500000
21
14.000000
0
LINE
8
0
10
270.500000
20
14.000000
11
269.440625
21
14.440625
0
LINE
8
0
10
269.440625
20
14.440625
11
269.000000
21
15.500000
0
LINE
8
0
10
269.000000
20
15.500000
11
269.440625
21
16.559375
0
LINE
8
0
10
269.440625
20
16.559375
11
270.500000
21
17.000000
0
LINE
8
0
10
270.500000
20
17.000000
11
271.559375
21
17.293750
0
LINE
8
0
10
271.559375
20
17.293750
11
272.000000
21
18.000000
0
LINE
8
0
10
272.000000
20
18.000000
11
272.236719
21
18.388281
0
LINE
8
0
10
272.236719
20
18.388281
11
273.835156
21
18.921094
0
LINE
8
0
10
273.835156
20
18.921094
11
275.000000
21
19.000000
0
LINE
8
0
10
275.000000
20
19.000000
11
276.164844
21
18.921094
0
LINE
8
0
10
276.164844
20
18.921094
11
277.763281
21
18.388281
0
LINE
8
0
10
277.763281
20
18.388281
11
278.000000
21
18.000000
0
LINE
8
0
10
278.000000
20
18.000000
11
278.315625
21
17.611719
0
LINE
8
0
10
278.315625
20
17.611719
11
280.446875
21
17.078906
0
LINE
8
0
10
280.446875
20
17.078906
11
282.000000
21
17.000000
0
LINE
8
0
10
282.000000
20
17.000000
11
283.843750
21
16.917969
0
LINE
8
0
10
283.843750
20
16.917969
11
285.781250
21
16.191406
0
LINE
8
0
10
285.781250
20
16.191406
11
286.000000
21
15.500000
0
LINE
8
0
10
286.000000
20
15.500000
11
285.781250
21
14.808594
0
LINE
8
0
10
285.781250
20
14.808594
11
283.843750
21
14.082031
0
LINE
8
0
10
283.843750
20
14.082031
11
282.000000
21
14.000000
0
LINE
8
0
10
282.000000
20
14.000000
11
280.707031
21
13.989746
0
LINE
8
0
10
280.707031
20
13.989746
11
279.018415
21
13.793457
0
LINE
8
0
10
279.018415
20
13.793457
11
278.236049
21
13.108887
0
LINE
8
0
10
278.236049
20
13.108887
11
278.011719
21
11.631348
0
LINE
8
0
10
278.011719
20
11.631348
11
278.000000
21
10.500000
0
LINE
8
0
10
278.000000
20
10.500000
11
278.011719
21
9.368652
0
LINE
8
0
10
278.011719
20
9.368652
11
278.236049
21
7.891113
0
LINE
8
0
10
278.236049
20
7.891113
11
279.018415
21
7.206543
0
LINE
8
0
10
279.018415
20
7.206543
11
280.707031
21
7.010254
0
LINE
8
0
10
280.707031
20
7.010254
11
282.000000
21
7.000000
0
LINE
8
0
10
282.000000
20
7.000000
11
283.553125
21
6.921094
0
LINE
8
0
10
283.553125
20
6.921094
11
285.684375
21
6.388281
0
LINE
8
0
10
285.684375
20
6.388281
11
286.000000
21
6.000000
0
LINE
8
0
10
286.000000
20
6.000000
11
285.548333
21
5.657163
0
LINE
8
0
10
285.548333
20
5.657163
11
282.584152
21
5.200507
0
LINE
8
0
10
282.584152
20
5.200507
11
278.314733
21
5.087420
0
LINE
8
0
10
278.314733
20
5.087420
11
274.471146
21
5.363753
0
LINE
8
0
10
274.471146
20
5.363753
11
273.250000
21
5.662281
0
LINE
8
0
10
463.674030
20
5.468827
11
462.506883
21
7.584816
0
LINE
8
0
10
462.506883
20
7.584816
11
462.051528
21
10.321429
0
LINE
8
0
10
462.051528
20
10.321429
11
462.103056
21
13.500000
0
LINE
8
0
10
462.103056
20
13.500000
11
463.658482
21
9.750000
0
LINE
8
0
10
463.658482
20
9.750000
11
464.624082
21
7.675600
0
LINE
8
0
10
464.624082
20
7.675600
11
466.294329
21
6.256234
0
LINE
8
0
10
466.294329
20
6.256234
11
468.224693
21
6.016421
0
LINE
8
0
10
468.224693
20
6.016421
11
469.606954
21
6.000000
0
LINE
8
0
10
469.606954
20
6.000000
11
470.904611
21
6.015595
0
LINE
8
0
10
470.904611
20
6.015595
11
472.701531
21
6.190653
0
LINE
8
0
10
472.701531
20
6.190653
11
473.903000
21
7.064420
0
LINE
8
0
10
473.903000
20
7.064420
11
474.098540
21
8.250000
0
LINE
8
0
10
474.098540
20
8.250000
11
474.231836
21
10.426563
0
LINE
8
0
10
474.231836
20
10.426563
11
474.413940
21
12.500000
0
LINE
8
0
10
474.413940
20
12.500000
11
474.621324
21
14.867188
0
LINE
8
0
10
474.621324
20
14.867188
11
474.815400
21
17.750000
0
LINE
8
0
10
474.815400
20
17.750000
11
474.965983
21
19.011914
0
LINE
8
0
10
474.965983
20
19.011914
11
475.597153
21
20.743555
0
LINE
8
0
10
475.597153
20
20.743555
11
476.000000
21
21.000000
0
LINE
8
0
10
476.000000
20
21.000000
11
476.210449
21
20.847656
0
LINE
8
0
10
476.210449
20
20.847656
11
476.572754
21
19.699219
0
LINE
8
0
10
476.572754
20
19.699219
11
476.925781
21
16.218750
0
LINE
8
0
10
476.925781
20
16.218750
11
477.000000
21
13.000000
0
LINE
8
0
10
477.000000
20
13.000000
11
476.991295
21
10.466605
0
LINE
8
0
10
476.991295
20
10.466605
11
476.853640
21
7.116603
0
LINE
8
0
10
476.853640
20
7.116603
11
476.006449
21
5.172682
0
LINE
8
0
10
476.006449
20
5.172682
11
474.750000
21
4.988994
0
LINE
8
0
10
474.750000
20
4.988994
11
472.110496
21
4.807440
0
LINE
8
0
10
472.110496
20
4.807440
11
468.924030
21
4.386393
0
LINE
8
0
10
468.924030
20
4.386393
11
467.176541
21
4.202342
0
LINE
8
0
10
467.176541
20
4.202342
11
464.642434
21
4.724819
0
LINE
8
0
10
464.642434
20
4.724819
11
463.674030
21
5.468827
0
LINE
8
0
10
495.893006
20
6.206025
11
495.169570
21
7.034332
0
LINE
8
0
10
495.169570
20
7.034332
11
494.618437
21
9.702947
0
LINE
8
0
10
494.618437
20
9.702947
11
494.748042
21
11.750000
0
LINE
8
0
10
494.748042
20
11.750000
11
494.994364
21
13.366843
0
LINE
8
0
10
494.994364
20
13.366843
11
495.689491
21
15.459272
0
LINE
8
0
10
495.689491
20
15.459272
11
496.424816
21
15.894136
0
LINE
8
0
10
496.424816
20
15.894136
11
496.924602
21
14.508368
0
LINE
8
0
10
496.924602
20
14.508368
11
497.000000
21
13.081787
0
LINE
8
0
10
497.000000
20
13.081787
11
497.047411
21
11.490069
0
LINE
8
0
10
497.047411
20
11.490069
11
497.467334
21
9.121158
0
LINE
8
0
10
497.467334
20
9.121158
11
499.113164
21
7.298659
0
LINE
8
0
10
499.113164
20
7.298659
11
501.045716
21
7.000000
0
LINE
8
0
10
501.045716
20
7.000000
11
502.599280
21
7.124447
0
LINE
8
0
10
502.599280
20
7.124447
11
503.854370
21
8.267803
0
LINE
8
0
10
503.854370
20
8.267803
11
504.330636
21
10.125173
0
LINE
8
0
10
504.330636
20
10.125173
11
504.552271
21
11.500000
0
LINE
8
0
10
504.552271
20
11.500000
11
504.932184
21
13.518603
0
LINE
8
0
10
504.932184
20
13.518603
11
505.771896
21
15.690402
0
LINE
8
0
10
505.771896
20
15.690402
11
506.498849
21
15.448083
0
LINE
8
0
10
506.498849
20
15.448083
11
506.849913
21
12.879357
0
LINE
8
0
10
506.849913
20
12.879357
11
506.802260
21
10.750000
0
LINE
8
0
10
506.802260
20
10.750000
11
506.500000
21
5.500000
0
LINE
8
0
10
506.500000
20
5.500000
11
502.000000
21
5.206025
0
LINE
8
0
10
502.000000
20
5.206025
11
500.074572
21
5.184586
0
LINE
8
0
10
500.074572
20
5.184586
11
496.873436
21
5.708761
0
LINE
8
0
10
496.873436
20
5.708761
11
495.893006
21
6.206025
0
LINE
8
0
10
292.000000
20
10.500000
11
292.010476
21
12.229297
0
LINE
8
0
10
292.010476
20
12.229297
11
292.167791
21
14.525391
0
LINE
8
0
10
292.167791
20
14.525391
11
293.112216
21
15.871875
0
LINE
8
0
10
293.112216
20
15.871875
11
294.500000
21
16.000000
0
LINE
8
0
10
294.500000
20
16.000000
11
295.887784
21
15.871875
0
LINE
8
0
10
295.887784
20
15.871875
11
296.832209
21
14.525391
0
LINE
8
0
10
296.832209
20
14.525391
11
296.989524
21
12.229297
0
LINE
8
0
10
296.989524
20
12.229297
11
297.000000
21
10.500000
0
LINE
8
0
10
297.000000
20
10.500000
11
296.989524
21
8.770703
0
LINE
8
0
10
296.989524
20
8.770703
11
296.832209
21
6.474609
0
LINE
8
0
10
296.832209
20
6.474609
11
295.887784
21
5.128125
0
LINE
8
0
10
295.887784
20
5.128125
11
294.500000
21
5.000000
0
LINE
8
0
10
294.500000
20
5.000000
11
293.112216
21
5.128125
0
LINE
8
0
10
293.112216
20
5.128125
11
292.167791
21
6.474609
0
LINE
8
0
10
292.167791
20
6.474609
11
292.010476
21
8.770703
0
LINE
8
0
10
292.010476
20
8.770703
11
292.000000
21
10.500000
0
LINE
8
0
10
534.617400
20
5.765313
11
535.056092
21
6.425383
0
LINE
8
0
10
535.056092
20
6.425383
11
535.684049
21
9.347693
0
LINE
8
0
10
535.684049
20
9.347693
11
535.795971
21
11.250000
0
LINE
8
0
10
535.795971
20
11.250000
11
535.841593
21
14.361555
0
LINE
8
0
10
535.841593
20
14.361555
11
535.987880
21
18.456302
0
LINE
8
0
10
535.987880
20
18.456302
11
536.325460
21
20.387844
0
LINE
8
0
10
536.325460
20
20.387844
11
536.995817
21
20.965713
0
LINE
8
0
10
536.995817
20
20.965713
11
537.500000
21
21.000000
0
LINE
8
0
10
537.500000
20
21.000000
11
538.244141
21
20.656250
0
LINE
8
0
10
538.244141
20
20.656250
11
538.843994
21
18.363281
0
LINE
8
0
10
538.843994
20
18.363281
11
538.985107
21
15.194010
0
LINE
8
0
10
538.985107
20
15.194010
11
539.000000
21
13.000000
0
LINE
8
0
10
539.000000
20
13.000000
11
539.000000
21
5.000000
0
LINE
8
0
10
539.000000
20
5.000000
11
536.250000
21
5.015313
0
LINE
8
0
10
536.250000
20
5.015313
11
535.265456
21
5.078867
0
LINE
8
0
10
535.265456
20
5.078867
11
534.397308
21
5.477685
0
LINE
8
0
10
534.397308
20
5.477685
11
534.617400
21
5.765313
0
LINE
8
0
10
549.000000
20
11.000000
11
549.361654
21
11.388281
0
LINE
8
0
10
549.361654
20
11.388281
11
551.803711
21
11.921094
0
LINE
8
0
10
551.803711
20
11.921094
11
553.583333
21
12.000000
0
LINE
8
0
10
553.583333
20
12.000000
11
555.315503
21
12.098425
0
LINE
8
0
10
555.315503
20
12.098425
11
557.454131
21
12.746315
0
LINE
8
0
10
557.454131
20
12.746315
11
557.733071
21
13.685569
0
LINE
8
0
10
557.733071
20
13.685569
11
556.041838
21
14.544159
0
LINE
8
0
10
556.041838
20
14.544159
11
554.422881
21
14.826947
0
LINE
8
0
10
554.422881
20
14.826947
11
552.830157
21
15.073976
0
LINE
8
0
10
552.830157
20
15.073976
11
550.884203
21
15.749701
0
LINE
8
0
10
550.884203
20
15.749701
11
550.659319
21
16.453545
0
LINE
8
0
10
550.659319
20
16.453545
11
552.237595
21
16.928577
0
LINE
8
0
10
552.237595
20
16.928577
11
553.728571
21
17.000000
0
LINE
8
0
10
553.728571
20
17.000000
11
556.758319
21
16.647814
0
LINE
8
0
10
556.758319
20
16.647814
11
559.882766
21
14.908905
0
LINE
8
0
10
559.882766
20
14.908905
11
560.871654
21
13.045277
0
LINE
8
0
10
560.871654
20
13.045277
11
561.000000
21
11.928571
0
LINE
8
0
10
561.000000
20
11.928571
11
560.802083
21
10.914062
0
LINE
8
0
10
560.802083
20
10.914062
11
559.209635
21
10.164481
0
LINE
8
0
10
559.209635
20
10.164481
11
556.767795
21
10.013532
0
LINE
8
0
10
556.767795
20
10.013532
11
555.000000
21
10.000000
0
LINE
8
0
10
555.000000
20
10.000000
11
552.656250
21
10.078125
0
LINE
8
0
10
552.656250
20
10.078125
11
549.468750
21
10.609375
0
LINE
8
0
10
549.468750
20
10.609375
11
549.000000
21
11.000000
0
LINE
8
0
10
394.250000
20
5.662281
11
393.627996
21
6.372604
0
LINE
8
0
10
393.627996
20
6.372604
11
392.970205
21
9.591171
0
LINE
8
0
10
392.970205
20
9.591171
11
393.058989
21
13.617614
0
LINE
8
0
10
393.058989
20
13.617614
11
393.852294
21
16.544712
0
LINE
8
0
10
393.852294
20
16.544712
11
394.500000
21
17.000000
0
LINE
8
0
10
394.500000
20
17.000000
11
395.173455
21
16.799431
0
LINE
8
0
10
395.173455
20
16.799431
11
395.911985
21
15.116463
0
LINE
8
0
10
395.911985
20
15.116463
11
396.000000
21
13.581787
0
LINE
8
0
10
396.000000
20
13.581787
11
396.043902
21
11.880059
0
LINE
8
0
10
396.043902
20
11.880059
11
396.427149
21
9.327457
0
LINE
8
0
10
396.427149
20
9.327457
11
397.900797
21
7.333425
0
LINE
8
0
10
397.900797
20
7.333425
11
399.606989
21
7.000000
0
LINE
8
0
10
399.606989
20
7.000000
11
400.536150
21
6.921094
0
LINE
8
0
10
400.536150
20
6.921094
11
401.811176
21
6.388281
0
LINE
8
0
10
401.811176
20
6.388281
11
402.000000
21
6.000000
0
LINE
8
0
10
402.000000
20
6.000000
11
401.760333
21
5.655707
0
LINE
8
0
10
401.760333
20
5.655707
11
400.147897
21
5.203901
0
LINE
8
0
10
400.147897
20
5.203901
11
396.421009
21
5.184574
0
LINE
8
0
10
396.421009
20
5.184574
11
394.250000
21
5.662281
0
LINE
8
0
10
435.000000
20
10.000000
11
435.000000
21
16.000000
0
LINE
8
0
10
435.000000
20
16.000000
11
440.750000
21
15.858095
0
LINE
8
0
10
440.750000
20
15.858095
11
442.500831
21
15.811280
0
LINE
8
0
10
442.500831
20
15.811280
11
444.610353
21
15.711247
0
LINE
8
0
10
444.610353
20
15.711247
11
444.968925
21
15.557573
0
LINE
8
0
10
444.968925
20
15.557573
11
443.702832
21
15.296137
0
LINE
8
0
10
443.702832
20
15.296137
11
442.500000
21
15.108095
0
LINE
8
0
10
442.500000
20
15.108095
11
438.500000
21
14.500000
0
LINE
8
0
10
438.500000
20
14.500000
11
438.197740
21
9.250000
0
LINE
8
0
10
438.197740
20
9.250000
11
437.979026
21
6.836440
0
LINE
8
0
10
437.979026
20
6.836440
11
437.129956
21
4.289230
0
LINE
8
0
10
437.129956
20
4.289230
11
436.447740
21
4.000000
0
LINE
8
0
10
436.447740
20
4.000000
11
435.756290
21
4.294787
0
LINE
8
0
10
435.756290
20
4.294787
11
435.167298
21
6.093083
0
LINE
8
0
10
435.167298
20
6.093083
11
435.016976
21
8.429981
0
LINE
8
0
10
435.016976
20
8.429981
11
435.000000
21
10.000000
0
LINE
8
0
10
547.185129
20
5.839814
11
546.642897
21
6.496141
0
LINE
8
0
10
546.642897
20
6.496141
11
546.136631
21
9.158743
0
LINE
8
0
10
546.136631
20
9.158743
11
546.185129
21
11.099109
0
LINE
8
0
10
546.185129
20
11.099109
11
546.433415
21
13.421753
0
LINE
8
0
10
546.433415
20
13.421753
11
547.675367
21
15.485669
0
LINE
8
0
10
547.675367
20
15.485669
11
549.000000
21
15.776951
0
LINE
8
0
10
549.000000
20
15.776951
11
550.174140
21
15.872119
0
LINE
8
0
10
550.174140
20
15.872119
11
550.585322
21
15.540944
0
LINE
8
0
10
550.585322
20
15.540944
11
549.893309
21
15.057461
0
LINE
8
0
10
549.893309
20
15.057461
11
549.204264
21
14.384077
0
LINE
8
0
10
549.204264
20
14.384077
11
548.449871
21
11.981613
0
LINE
8
0
10
548.449871
20
11.981613
11
548.393309
21
10.280510
0
LINE
8
0
10
548.393309
20
10.280510
11
548.441039
21
9.078621
0
LINE
8
0
10
548.441039
20
9.078621
11
548.709882
21
7.475348
0
LINE
8
0
10
548.709882
20
7.475348
11
550.129763
21
6.446643
0
LINE
8
0
10
550.129763
20
6.446643
11
552.207664
21
6.192159
0
LINE
8
0
10
552.207664
20
6.192159
11
555.460125
21
6.314011
0
LINE
8
0
10
555.460125
20
6.314011
11
558.073366
21
7.039264
0
LINE
8
0
10
558.073366
20
7.039264
11
559.121962
21
7.552337
0
LINE
8
0
10
559.121962
20
7.552337
11
559.913130
21
7.463604
0
LINE
8
0
10
559.913130
20
7.463604
11
559.786698
21
6.847106
0
LINE
8
0
10
559.786698
20
6.847106
11
559.182296
21
6.299764
0
LINE
8
0
10
559.182296
20
6.299764
11
556.120111
21
5.484672
0
LINE
8
0
10
556.120111
20
5.484672
11
551.948445
21
5.151215
0
LINE
8
0
10
551.948445
20
5.151215
11
548.301337
21
5.430007
0
LINE
8
0
10
548.301337
20
5.430007
11
547.185129
21
5.839814
0
LINE
8
0
10
463.218278
20
10.990220
11
462.595534
21
12.881777
0
LINE
8
0
10
462.595534
20
12.881777
11
462.814726
21
14.992978
0
LINE
8
0
10
462.814726
20
14.992978
11
463.718278
21
15.806075
0
LINE
8
0
10
463.718278
20
15.806075
11
464.746023
21
16.310487
0
LINE
8
0
10
464.746023
20
16.310487
11
467.895481
21
16.839494
0
LINE
8
0
10
467.895481
20
16.839494
11
469.707334
21
16.812042
0
LINE
8
0
10
469.707334
20
16.812042
11
470.986270
21
16.729499
0
LINE
8
0
10
470.986270
20
16.729499
11
472.749067
21
16.776899
0
LINE
8
0
10
472.749067
20
16.776899
11
473.993802
21
17.656056
0
LINE
8
0
10
473.993802
20
17.656056
11
474.348162
21
18.996188
0
LINE
8
0
10
474.348162
20
18.996188
11
474.516309
21
19.777778
0
LINE
8
0
10
474.516309
20
19.777778
11
474.667802
21
19.276607
0
LINE
8
0
10
474.667802
20
19.276607
11
474.640829
21
18.027989
0
LINE
8
0
10
474.640829
20
18.027989
11
474.500000
21
14.555978
0
LINE
8
0
10
474.500000
20
14.555978
11
469.814631
21
14.849543
0
LINE
8
0
10
469.814631
20
14.849543
11
465.129262
21
15.143108
0
LINE
8
0
10
465.129262
20
15.143108
11
464.814631
21
11.321554
0
LINE
8
0
10
464.814631
20
11.321554
11
464.500000
21
7.500000
0
LINE
8
0
10
464.500000
20
7.500000
11
463.218278
21
10.990220
0
LINE
8
0
10
94.415084
20
44.000000
11
94.421819
21
47.527466
0
LINE
8
0
10
94.421819
20
47.527466
11
94.471639
21
52.739624
0
LINE
8
0
10
94.471639
20
52.739624
11
94.560902
21
55.241821
0
LINE
8
0
10
94.560902
20
55.241821
11
94.678781
21
54.730542
0
LINE
8
0
10
94.678781
20
54.730542
11
94.745068
21
53.250000
0
LINE
8
0
10
94.745068
20
53.250000
11
94.881186
21
44.000000
0
LINE
8
0
10
94.881186
20
44.000000
11
94.745068
21
34.750000
0
LINE
8
0
10
94.745068
20
34.750000
11
94.678781
21
33.269458
0
LINE
8
0
10
94.678781
20
33.269458
11
94.560902
21
32.758179
0
LINE
8
0
10
94.560902
20
32.758179
11
94.471639
21
35.260376
0
LINE
8
0
10
94.471639
20
35.260376
11
94.421819
21
40.472534
0
LINE
8
0
10
94.421819
20
40.472534
11
94.415084
21
44.000000
0
LINE
8
0
10
488.000000
20
4.943472
11
485.998378
21
5.356564
0
LINE
8
0
10
485.998378
20
5.356564
11
484.625396
21
6.792370
0
LINE
8
0
10
484.625396
20
6.792370
11
484.305396
21
9.043475
0
LINE
8
0
10
484.305396
20
9.043475
11
484.197740
21
10.750000
0
LINE
8
0
10
484.197740
20
10.750000
11
484.147081
21
12.919746
0
LINE
8
0
10
484.147081
20
12.919746
11
484.534188
21
15.629499
0
LINE
8
0
10
484.534188
20
15.629499
11
484.947740
21
16.000000
0
LINE
8
0
10
484.947740
20
16.000000
11
485.356313
21
15.694037
0
LINE
8
0
10
485.356313
20
15.694037
11
485.916970
21
13.628027
0
LINE
8
0
10
485.916970
20
13.628027
11
486.000000
21
12.122445
0
LINE
8
0
10
486.000000
20
12.122445
11
486.058761
21
10.654221
0
LINE
8
0
10
486.058761
20
10.654221
11
486.578642
21
8.407822
0
LINE
8
0
10
486.578642
20
8.407822
11
488.613327
21
6.450747
0
LINE
8
0
10
488.613327
20
6.450747
11
491.000000
21
5.844583
0
LINE
8
0
10
491.000000
20
5.844583
11
491.891797
21
5.666013
0
LINE
8
0
10
491.891797
20
5.666013
11
492.691016
21
5.185232
0
LINE
8
0
10
492.691016
20
5.185232
11
492.500000
21
4.942237
0
LINE
8
0
10
492.500000
20
4.942237
11
491.835547
21
4.770541
0
LINE
8
0
10
491.835547
20
4.770541
11
489.437891
21
4.771199
0
LINE
8
0
10
489.437891
20
4.771199
11
488.000000
21
4.943472
0
LINE
8
0
10
387.000000
20
4.943472
11
384.998378
21
5.356564
0
LINE
8
0
10
384.998378
20
5.356564
11
383.625396
21
6.792370
0
LINE
8
0
10
383.625396
20
6.792370
11
383.305396
21
9.043475
0
LINE
8
0
10
383.305396
20
9.043475
11
383.197740
21
10.750000
0
LINE
8
0
10
383.197740
20
10.750000
11
383.147081
21
12.919746
0
LINE
8
0
10
383.147081
20
12.919746
11
383.534188
21
15.629499
0
LINE
8
0
10
383.534188
20
15.629499
11
383.947740
21
16.000000
0
LINE
8
0
10
383.947740
20
16.000000
11
384.356313
21
15.694037
0
LINE
8
0
10
384.356313
20
15.694037
11
384.916970
21
13.628027
0
LINE
8
0
10
384.916970
20
13.628027
11
385.000000
21
12.122445
0
LINE
8
0
10
385.000000
20
12.122445
11
385.058761
21
10.654221
0
LINE
8
0
10
385.058761
20
10.654221
11
385.578642
21
8.407822
0
LINE
8
0
10
385.578642
20
8.407822
11
387.613327
21
6.450747
0
LINE
8
0
10
387.613327
20
6.450747
11
390.000000
21
5.844583
0
LINE
8
0
10
390.000000
20
5.844583
11
390.891797
21
5.666013
0
LINE
8
0
10
390.891797
20
5.666013
11
391.691016
21
5.185232
0
LINE
8
0
10
391.691016
20
5.185232
11
391.500000
21
4.942237
0
LINE
8
0
10
391.500000
20
4.942237
11
390.835547
21
4.770541
0
LINE
8
0
10
390.835547
20
4.770541
11
388.437891
21
4.771199
0
LINE
8
0
10
388.437891
20
4.771199
11
387.000000
21
4.943472
0
LINE
8
0
10
402.491545
20
6.750000
11
403.146428
21
9.087500
0
LINE
8
0
10
403.146428
20
9.087500
11
403.730203
21
12.250000
0
LINE
8
0
10
403.730203
20
12.250000
11
404.047433
21
13.982790
0
LINE
8
0
10
404.047433
20
13.982790
11
404.784656
21
15.774445
0
LINE
8
0
10
404.784656
20
15.774445
11
405.483587
21
15.422481
0
LINE
8
0
10
405.483587
20
15.422481
11
405.933855
21
13.032836
0
LINE
8
0
10
405.933855
20
13.032836
11
406.000000
21
11.106989
0
LINE
8
0
10
406.000000
20
11.106989
11
405.913744
21
8.816216
0
LINE
8
0
10
405.913744
20
8.816216
11
405.148062
21
6.153878
0
LINE
8
0
10
405.148062
20
6.153878
11
404.418213
21
5.606989
0
LINE
8
0
10
404.418213
20
5.606989
11
402.992745
21
5.128241
0
LINE
8
0
10
402.992745
20
5.128241
11
402.130519
21
5.639763
0
LINE
8
0
10
402.130519
20
5.639763
11
402.491545
21
6.750000
0
LINE
8
0
10
414.750000
20
5.080099
11
414.008429
21
5.858502
0
LINE
8
0
10
414.008429
20
5.858502
11
413.097296
21
8.673877
0
LINE
8
0
10
413.097296
20
8.673877
11
412.985309
21
12.063583
0
LINE
8
0
10
412.985309
20
12.063583
11
413.716226
21
14.703110
0
LINE
8
0
10
413.716226
20
14.703110
11
414.411448
21
15.327646
0
LINE
8
0
10
414.411448
20
15.327646
11
415.068609
21
15.465493
0
LINE
8
0
10
415.068609
20
15.465493
11
415.338702
21
14.375598
0
LINE
8
0
10
415.338702
20
14.375598
11
414.993710
21
12.978067
0
LINE
8
0
10
414.993710
20
12.978067
11
414.647908
21
11.478283
0
LINE
8
0
10
414.647908
20
11.478283
11
414.574118
21
8.917461
0
LINE
8
0
10
414.574118
20
8.917461
11
415.306355
21
6.988323
0
LINE
8
0
10
415.306355
20
6.988323
11
416.823354
21
5.746900
0
LINE
8
0
10
416.823354
20
5.746900
11
417.869492
21
5.401590
0
LINE
8
0
10
417.869492
20
5.401590
11
419.335025
21
5.070422
0
LINE
8
0
10
419.335025
20
5.070422
11
421.149921
21
4.580987
0
LINE
8
0
10
421.149921
20
4.580987
11
421.522852
21
4.285426
0
LINE
8
0
10
421.522852
20
4.285426
11
420.509332
21
4.139743
0
LINE
8
0
10
420.509332
20
4.139743
11
419.500000
21
4.109356
0
LINE
8
0
10
419.500000
20
4.109356
11
416.867188
21
4.374490
0
LINE
8
0
10
416.867188
20
4.374490
11
414.750000
21
5.080099
0
LINE
8
0
10
3.388540
20
55.500000
11
3.396338
21
57.972808
0
LINE
8
0
10
3.396338
20
57.972808
11
3.450434
21
61.591383
0
LINE
8
0
10
3.450434
20
61.591383
11
3.546182
21
63.270807
0
LINE
8
0
10
3.546182
20
63.270807
11
3.671970
21
62.807367
0
LINE
8
0
10
3.671970
20
62.807367
11
3.742498
21
61.708412
0
LINE
8
0
10
3.742498
20
61.708412
11
3.886260
21
55.088132
0
LINE
8
0
10
3.886260
20
55.088132
11
3.739318
21
48.708412
0
LINE
8
0
10
3.739318
20
48.708412
11
3.668280
21
47.726605
0
LINE
8
0
10
3.668280
20
47.726605
11
3.542317
21
47.471491
0
LINE
8
0
10
3.542317
20
47.471491
11
3.447429
21
49.308668
0
LINE
8
0
10
3.447429
20
49.308668
11
3.395125
21
53.015289
0
LINE
8
0
10
3.395125
20
53.015289
11
3.388540
21
55.500000
0
LINE
8
0
10
29.789188
20
4.741414
11
35.908478
21
4.887231
0
LINE
8
0
10
35.908478
20
4.887231
11
41.789188
21
4.737819
0
LINE
8
0
10
41.789188
20
4.737819
11
42.691448
21
4.665646
0
LINE
8
0
10
42.691448
20
4.665646
11
42.919783
21
4.537713
0
LINE
8
0
10
42.919783
20
4.537713
11
41.218508
21
4.441397
0
LINE
8
0
10
41.218508
20
4.441397
11
37.793988
21
4.388382
0
LINE
8
0
10
37.793988
20
4.388382
11
35.500000
21
4.381764
0
LINE
8
0
10
35.500000
20
4.381764
11
33.217816
21
4.389753
0
LINE
8
0
10
33.217816
20
4.389753
11
29.880618
21
4.444794
0
LINE
8
0
10
29.880618
20
4.444794
11
28.335798
21
4.542082
0
LINE
8
0
10
28.335798
20
4.542082
11
28.770744
21
4.669817
0
LINE
8
0
10
28.770744
20
4.669817
11
29.789188
21
4.741414
0
LINE
8
0
10
121.286513
20
4.740078
11
126.904699
21
4.888160
0
LINE
8
0
10
126.904699
20
4.888160
11
132.286513
21
4.735976
0
LINE
8
0
10
132.286513
20
4.735976
11
133.109281
21
4.662535
0
LINE
8
0
10
133.109281
20
4.662535
11
133.310935
21
4.532406
0
LINE
8
0
10
133.310935
20
4.532406
11
131.745638
21
4.434507
0
LINE
8
0
10
131.745638
20
4.434507
11
128.603260
21
4.380713
0
LINE
8
0
10
128.603260
20
4.380713
11
126.500000
21
4.374067
0
LINE
8
0
10
126.500000
20
4.374067
11
124.408436
21
4.382277
0
LINE
8
0
10
124.408436
20
4.382277
11
121.352571
21
4.438383
0
LINE
8
0
10
121.352571
20
4.438383
11
119.942282
21
4.537391
0
LINE
8
0
10
119.942282
20
4.537391
11
120.348636
21
4.667294
0
LINE
8
0
10
120.348636
20
4.667294
11
121.286513
21
4.740078
0
LINE
8
0
10
424.860454
20
5.892594
11
425.438578
21
6.550925
0
LINE
8
0
10
425.438578
20
6.550925
11
425.935873
21
9.237617
0
LINE
8
0
10
425.935873
20
9.237617
11
425.859980
21
11.292638
0
LINE
8
0
10
425.859980
20
11.292638
11
425.742658
21
13.449116
0
LINE
8
0
10
425.742658
20
13.449116
11
426.158783
21
15.086527
0
LINE
8
0
10
426.158783
20
15.086527
11
426.749526
21
14.792912
0
LINE
8
0
10
426.749526
20
14.792912
11
427.347046
21
13.986885
0
LINE
8
0
10
427.347046
20
13.986885
11
427.970068
21
11.406136
0
LINE
8
0
10
427.970068
20
11.406136
11
427.862881
21
8.434285
0
LINE
8
0
10
427.862881
20
8.434285
11
427.064458
21
6.151925
0
LINE
8
0
10
427.064458
20
6.151925
11
426.418213
21
5.606989
0
LINE
8
0
10
426.418213
20
5.606989
11
424.988935
21
5.140875
0
LINE
8
0
10
424.988935
20
5.140875
11
424.114336
21
5.301227
0
LINE
8
0
10
424.114336
20
5.301227
11
424.860454
21
5.892594
0
LINE
8
0
10
526.222506
20
5.556704
11
525.327670
21
6.472709
0
LINE
8
0
10
525.327670
20
6.472709
11
524.171625
21
9.224313
0
LINE
8
0
10
524.171625
20
9.224313
11
523.928847
21
12.327381
0
LINE
8
0
10
523.928847
20
12.327381
11
524.681454
21
14.732326
0
LINE
8
0
10
524.681454
20
14.732326
11
525.456689
21
15.345006
0
LINE
8
0
10
525.456689
20
15.345006
11
526.145436
21
15.529533
0
LINE
8
0
10
526.145436
20
15.529533
11
526.315673
21
14.699406
0
LINE
8
0
10
526.315673
20
14.699406
11
525.829773
21
13.525737
0
LINE
8
0
10
525.829773
20
13.525737
11
525.327197
21
12.116859
0
LINE
8
0
10
525.327197
20
12.116859
11
525.172963
21
9.477425
0
LINE
8
0
10
525.172963
20
9.477425
11
526.083521
21
7.246672
0
LINE
8
0
10
526.083521
20
7.246672
11
527.975149
21
5.629706
0
LINE
8
0
10
527.975149
20
5.629706
11
529.262702
21
5.115489
0
LINE
8
0
10
529.262702
20
5.115489
11
530.528557
21
4.706232
0
LINE
8
0
10
530.528557
20
4.706232
11
531.138353
21
4.189434
0
LINE
8
0
10
531.138353
20
4.189434
11
530.472506
21
4.090188
0
LINE
8
0
10
530.472506
20
4.090188
11
528.387728
21
4.483775
0
LINE
8
0
10
528.387728
20
4.483775
11
526.222506
21
5.556704
0
LINE
8
0
10
183.000000
20
85.500000
11
183.089113
21
86.732676
0
LINE
8
0
10
183.089113
20
86.732676
11
183.923590
21
87.834009
0
LINE
8
0
10
183.923590
20
87.834009
11
184.750000
21
87.809629
0
LINE
8
0
10
184.750000
20
87.809629
11
185.985937
21
86.992155
0
LINE
8
0
10
185.985937
20
86.992155
11
186.500000
21
85.500000
0
LINE
8
0
10
186.500000
20
85.500000
11
185.985937
21
84.007845
0
LINE
8
0
10
185.985937
20
84.007845
11
184.750000
21
83.190371
0
LINE
8
0
10
184.750000
20
83.190371
11
183.923590
21
83.165991
0
LINE
8
0
10
183.923590
20
83.165991
11
183.089113
21
84.267324
0
LINE
8
0
10
183.089113
20
84.267324
11
183.000000
21
85.500000
0
LINE
8
0
10
507.336206
20
53.000000
11
507.344212
21
54.430054
0
LINE
8
0
10
507.344212
20
54.430054
11
507.403435
21
56.543091
0
LINE
8
0
10
507.403435
20
56.543091
11
507.509545
21
57.557495
0
LINE
8
0
10
507.509545
20
57.557495
11
507.649671
21
57.350220
0
LINE
8
0
10
507.649671
20
57.350220
11
507.728468
21
56.750000
0
LINE
8
0
10
507.728468
20
56.750000
11
507.890277
21
53.000000
0
LINE
8
0
10
507.890277
20
53.000000
11
507.728468
21
49.250000
0
LINE
8
0
10
507.728468
20
49.250000
11
507.649671
21
48.649780
0
LINE
8
0
10
507.649671
20
48.649780
11
507.509545
21
48.442505
0
LINE
8
0
10
507.509545
20
48.442505
11
507.403435
21
49.456909
0
LINE
8
0
10
507.403435
20
49.456909
11
507.344212
21
51.569946
0
LINE
8
0
10
507.344212
20
51.569946
11
507.336206
21
53.000000
0
LINE
8
0
10
140.000000
20
48.000000
11
140.000000
21
84.000000
0
LINE
8
0
10
140.000000
20
84.000000
11
137.500000
21
84.000000
0
LINE
8
0
10
137.500000
20
84.000000
11
135.000000
21
84.000000
0
LINE
8
0
10
135.000000
20
84.000000
11
135.000000
21
48.000000
0
LINE
8
0
10
135.000000
20
48.000000
11
135.000000
21
12.000000
0
LINE
8
0
10
135.000000
20
12.000000
11
137.500000
21
12.000000
0
LINE
8
0
10
137.500000
20
12.000000
11
140.000000
21
12.000000
0
LINE
8
0
10
140.000000
20
12.000000
11
140.000000
21
48.000000
0
LINE
8
0
10
48.000000
20
70.500000
11
48.000000
21
85.000000
0
LINE
8
0
10
48.000000
20
85.000000
11
45.500000
21
85.000000
0
LINE
8
0
10
45.500000
20
85.000000
11
43.000000
21
85.000000
0
LINE
8
0
10
43.000000
20
85.000000
11
43.000000
21
70.500000
0
LINE
8
0
10
43.000000
20
70.500000
11
43.000000
21
56.000000
0
LINE
8
0
10
43.000000
20
56.000000
11
45.500000
21
56.000000
0
LINE
8
0
10
45.500000
20
56.000000
11
48.000000
21
56.000000
0
LINE
8
0
10
48.000000
20
56.000000
11
48.000000
21
70.500000
0
LINE
8
0
10
540.568108
20
38.464011
11
542.114277
21
39.297303
0
LINE
8
0
10
542.114277
20
39.297303
11
544.596896
21
41.827334
0
LINE
8
0
10
544.596896
20
41.827334
11
546.259878
21
45.493900
0
LINE
8
0
10
546.259878
20
45.493900
11
547.095208
21
50.279334
0
LINE
8
0
10
547.095208
20
50.279334
11
547.200000
21
53.086105
0
LINE
8
0
10
547.200000
20
53.086105
11
547.140235
21
55.421924
0
LINE
8
0
10
547.140235
20
55.421924
11
546.604559
21
59.108731
0
LINE
8
0
10
546.604559
20
59.108731
11
545.386114
21
61.760834
0
LINE
8
0
10
545.386114
20
61.760834
11
543.331410
21
63.712321
0
LINE
8
0
10
543.331410
20
63.712321
11
541.942497
21
64.529736
0
LINE
8
0
10
541.942497
20
64.529736
11
540.302259
21
65.205086
0
LINE
8
0
10
540.302259
20
65.205086
11
536.934098
21
65.615475
0
LINE
8
0
10
536.934098
20
65.615475
11
533.599616
21
64.808562
0
LINE
8
0
10
533.599616
20
64.808562
11
530.479531
21
62.828076
0
LINE
8
0
10
530.479531
20
62.828076
11
529.056361
21
61.411410
0
LINE
8
0
10
529.056361
20
61.411410
11
527.809275
21
59.809616
0
LINE
8
0
10
527.809275
20
59.809616
11
526.047067
21
56.365703
0
LINE
8
0
10
526.047067
20
56.365703
11
525.269746
21
52.644145
0
LINE
8
0
10
525.269746
20
52.644145
11
525.488037
21
48.696286
0
LINE
8
0
10
525.488037
20
48.696286
11
525.973887
21
46.653539
0
LINE
8
0
10
525.973887
20
46.653539
11
526.532579
21
44.898498
0
LINE
8
0
10
526.532579
20
44.898498
11
527.693176
21
42.231284
0
LINE
8
0
10
527.693176
20
42.231284
11
530.073383
21
39.664541
0
LINE
8
0
10
530.073383
20
39.664541
11
532.499613
21
38.385914
0
LINE
8
0
10
532.499613
20
38.385914
11
534.786616
21
37.449767
0
LINE
8
0
10
534.786616
20
37.449767
11
537.189196
21
37.233452
0
LINE
8
0
10
537.189196
20
37.233452
11
539.179861
21
37.891575
0
LINE
8
0
10
539.179861
20
37.891575
11
540.568108
21
38.464011
0
LINE
8
0
10
296.744784
20
39.587358
11
298.512067
21
41.238433
0
LINE
8
0
10
298.512067
20
41.238433
11
301.034674
21
46.401390
0
LINE
8
0
10
301.034674
20
46.401390
11
302.006266
21
52.731148
0
LINE
8
0
10
302.006266
20
52.731148
11
301.184761
21
58.650576
0
LINE
8
0
10
301.184761
20
58.650576
11
300.025946
21
60.963562
0
LINE
8
0
10
300.025946
20
60.963562
11
298.861140
21
62.388449
0
LINE
8
0
10
298.861140
20
62.388449
11
296.193191
21
64.474709
0
LINE
8
0
10
296.193191
20
64.474709
11
293.130481
21
65.523649
0
LINE
8
0
10
293.130481
20
65.523649
11
289.740635
21
65.512108
0
LINE
8
0
10
289.740635
20
65.512108
11
287.944170
21
65.101419
0
LINE
8
0
10
287.944170
20
65.101419
11
285.989988
21
64.382509
0
LINE
8
0
10
285.989988
20
64.382509
11
283.087285
21
62.326628
0
LINE
8
0
10
283.087285
20
62.326628
11
281.354480
21
59.131377
0
LINE
8
0
10
281.354480
20
59.131377
11
280.586393
21
54.418406
0
LINE
8
0
10
280.586393
20
54.418406
11
280.500000
21
51.374543
0
LINE
8
0
10
280.500000
20
51.374543
11
280.517720
21
49.233770
0
LINE
8
0
10
280.517720
20
49.233770
11
280.714362
21
46.088432
0
LINE
8
0
10
280.714362
20
46.088432
11
281.686729
21
43.123950
0
LINE
8
0
10
281.686729
20
43.123950
11
283.000000
21
41.471205
0
LINE
8
0
10
283.000000
20
41.471205
11
284.625780
21
39.908269
0
LINE
8
0
10
284.625780
20
39.908269
11
287.886681
21
37.929780
0
LINE
8
0
10
287.886681
20
37.929780
11
291.253088
21
37.468384
0
LINE
8
0
10
291.253088
20
37.468384
11
294.836664
21
38.508775
0
LINE
8
0
10
294.836664
20
38.508775
11
296.744784
21
39.587358
0
LINE
8
0
10
259.000000
20
10.500000
11
259.000000
21
14.000000
0
LINE
8
0
10
259.000000
20
14.000000
11
254.000000
21
14.000000
0
LINE
8
0
10
254.000000
20
14.000000
11
249.000000
21
14.000000
0
LINE
8
0
10
249.000000
20
14.000000
11
249.000000
21
10.500000
0
LINE
8
0
10
249.000000
20
10.500000
11
249.000000
21
7.000000
0
LINE
8
0
10
249.000000
20
7.000000
11
254.000000
21
7.000000
0
LINE
8
0
10
254.000000
20
7.000000
11
259.000000
21
7.000000
0
LINE
8
0
10
259.000000
20
7.000000
11
259.000000
21
10.500000
0
LINE
8
0
10
232.000000
20
10.500000
11
232.000000
21
14.000000
0
LINE
8
0
10
232.000000
20
14.000000
11
227.000000
21
14.000000
0
LINE
8
0
10
227.000000
20
14.000000
11
222.000000
21
14.000000
0
LINE
8
0
10
222.000000
20
14.000000
11
222.000000
21
10.500000
0
LINE
8
0
10
222.000000
20
10.500000
11
222.000000
21
7.000000
0
LINE
8
0
10
222.000000
20
7.000000
11
227.000000
21
7.000000
0
LINE
8
0
10
227.000000
20
7.000000
11
232.000000
21
7.000000
0
LINE
8
0
10
232.000000
20
7.000000
11
232.000000
21
10.500000
0
ENDSEC
0
EOF
