999
DXF File generated by ImageToStl.com - Free Image and 3D model conversion tools
0
SECTION
2
HEADER
9
$ACADVER
1
AC1009
9
$EXTMIN
10
0
20
0
9
$EXTMAX
10
1788.320500
20
703.997139
0
ENDSEC
0
SECTION
2
ENTITIES
0
LINE
8
0
10
938.500000
20
372.997685
11
935.927344
21
373.405236
0
LINE
8
0
10
935.927344
20
373.405236
11
929.000781
21
374.447347
0
LINE
8
0
10
929.000781
20
374.447347
11
925.500000
21
374.953553
0
LINE
8
0
10
925.500000
20
374.953553
11
921.959766
21
375.517238
0
LINE
8
0
10
921.959766
20
375.517238
11
914.766797
21
376.947479
0
LINE
8
0
10
914.766797
20
376.947479
11
912.000000
21
377.637876
0
LINE
8
0
10
912.000000
20
377.637876
11
906.793750
21
378.975061
0
LINE
8
0
10
906.793750
20
378.975061
11
902.000000
21
380.017686
0
LINE
8
0
10
902.000000
20
380.017686
11
892.071718
21
382.314129
0
LINE
8
0
10
892.071718
20
382.314129
11
882.230199
21
385.603961
0
LINE
8
0
10
882.230199
20
385.603961
11
879.698683
21
386.533673
0
LINE
8
0
10
879.698683
20
386.533673
11
875.702589
21
387.812071
0
LINE
8
0
10
875.702589
20
387.812071
11
874.730199
21
388.003300
0
LINE
8
0
10
874.730199
20
388.003300
11
873.126996
21
388.386564
0
LINE
8
0
10
873.126996
20
388.386564
11
871.000000
21
389.299378
0
LINE
8
0
10
871.000000
20
389.299378
11
869.555859
21
389.987599
0
LINE
8
0
10
869.555859
20
389.987599
11
865.026953
21
391.940092
0
LINE
8
0
10
865.026953
20
391.940092
11
862.500000
21
392.963882
0
LINE
8
0
10
862.500000
20
392.963882
11
859.973047
21
394.019883
0
LINE
8
0
10
859.973047
20
394.019883
11
855.444141
21
396.189882
0
LINE
8
0
10
855.444141
20
396.189882
11
854.000000
21
397.036608
0
LINE
8
0
10
854.000000
20
397.036608
11
851.500000
21
398.459871
0
LINE
8
0
10
851.500000
20
398.459871
11
849.000000
21
399.497139
0
LINE
8
0
10
849.000000
20
399.497139
11
846.454654
21
400.584539
0
LINE
8
0
10
846.454654
20
400.584539
11
843.845630
21
402.128335
0
LINE
8
0
10
843.845630
20
402.128335
11
842.759617
21
402.853956
0
LINE
8
0
10
842.759617
20
402.853956
11
840.971447
21
403.849679
0
LINE
8
0
10
840.971447
20
403.849679
11
840.489534
21
403.997139
0
LINE
8
0
10
840.489534
20
403.997139
11
839.918185
21
404.233858
0
LINE
8
0
10
839.918185
20
404.233858
11
837.526106
21
405.832295
0
LINE
8
0
10
837.526106
20
405.832295
11
836.000000
21
406.997139
0
LINE
8
0
10
836.000000
20
406.997139
11
834.484944
21
408.161983
0
LINE
8
0
10
834.484944
20
408.161983
11
832.167479
21
409.760420
0
LINE
8
0
10
832.167479
20
409.760420
11
831.650505
21
409.997139
0
LINE
8
0
10
831.650505
20
409.997139
11
830.977798
21
410.222491
0
LINE
8
0
10
830.977798
20
410.222491
11
828.534487
21
411.709964
0
LINE
8
0
10
828.534487
20
411.709964
11
825.581385
21
413.879025
0
LINE
8
0
10
825.581385
20
413.879025
11
823.263377
21
415.888754
0
LINE
8
0
10
823.263377
20
415.888754
11
822.700310
21
416.571081
0
LINE
8
0
10
822.700310
20
416.571081
11
821.810951
21
417.578234
0
LINE
8
0
10
821.810951
20
417.578234
11
820.795673
21
417.997139
0
LINE
8
0
10
820.795673
20
417.997139
11
820.259022
21
418.213311
0
LINE
8
0
10
820.259022
20
418.213311
11
818.178659
21
419.800465
0
LINE
8
0
10
818.178659
20
419.800465
11
813.240351
21
424.357132
0
LINE
8
0
10
813.240351
20
424.357132
11
805.222469
21
432.503378
0
LINE
8
0
10
805.222469
20
432.503378
11
799.767022
21
438.506864
0
LINE
8
0
10
799.767022
20
438.506864
11
797.095642
21
441.747525
0
LINE
8
0
10
797.095642
20
441.747525
11
796.189606
21
442.997139
0
LINE
8
0
10
796.189606
20
442.997139
11
793.802323
21
446.625310
0
LINE
8
0
10
793.802323
20
446.625310
11
789.969858
21
452.937365
0
LINE
8
0
10
789.969858
20
452.937365
11
786.119503
21
460.940865
0
LINE
8
0
10
786.119503
20
460.940865
11
784.462790
21
465.997139
0
LINE
8
0
10
784.462790
20
465.997139
11
784.204737
21
466.790889
0
LINE
8
0
10
784.204737
20
466.790889
11
783.774619
21
467.997139
0
LINE
8
0
10
783.774619
20
467.997139
11
783.528361
21
468.841578
0
LINE
8
0
10
783.528361
20
468.841578
11
783.028739
21
471.498081
0
LINE
8
0
10
783.028739
20
471.498081
11
782.317481
21
477.210454
0
LINE
8
0
10
782.317481
20
477.210454
11
781.597024
21
486.115801
0
LINE
8
0
10
781.597024
20
486.115801
11
781.358121
21
492.148080
0
LINE
8
0
10
781.358121
20
492.148080
11
781.398335
21
495.170189
0
LINE
8
0
10
781.398335
20
495.170189
11
781.489473
21
496.243132
0
LINE
8
0
10
781.489473
20
496.243132
11
782.360899
21
501.772047
0
LINE
8
0
10
782.360899
20
501.772047
11
785.011719
21
512.449948
0
LINE
8
0
10
785.011719
20
512.449948
11
788.902999
21
522.664765
0
LINE
8
0
10
788.902999
20
522.664765
11
794.070541
21
532.468685
0
LINE
8
0
10
794.070541
20
532.468685
11
800.550147
21
541.913897
0
LINE
8
0
10
800.550147
20
541.913897
11
808.377618
21
551.052590
0
LINE
8
0
10
808.377618
20
551.052590
11
817.588758
21
559.936951
0
LINE
8
0
10
817.588758
20
559.936951
11
828.219368
21
568.619169
0
LINE
8
0
10
828.219368
20
568.619169
11
834.078163
21
572.900782
0
LINE
8
0
10
834.078163
20
572.900782
11
840.146637
21
576.913372
0
LINE
8
0
10
840.146637
20
576.913372
11
854.381641
21
584.904414
0
LINE
8
0
10
854.381641
20
584.904414
11
870.384365
21
592.369597
0
LINE
8
0
10
870.384365
20
592.369597
11
886.919186
21
598.732509
0
LINE
8
0
10
886.919186
20
598.732509
11
895.000000
21
601.320485
0
LINE
8
0
10
895.000000
20
601.320485
11
898.198604
21
602.216656
0
LINE
8
0
10
898.198604
20
602.216656
11
906.584870
21
604.322365
0
LINE
8
0
10
906.584870
20
604.322365
11
921.496432
21
607.660689
0
LINE
8
0
10
921.496432
20
607.660689
11
930.938543
21
609.536571
0
LINE
8
0
10
930.938543
20
609.536571
11
934.848225
21
610.200021
0
LINE
8
0
10
934.848225
20
610.200021
11
943.711384
21
611.381029
0
LINE
8
0
10
943.711384
20
611.381029
11
958.844113
21
612.752461
0
LINE
8
0
10
958.844113
20
612.752461
11
980.291805
21
613.735236
0
LINE
8
0
10
980.291805
20
613.735236
11
995.530453
21
613.755479
0
LINE
8
0
10
995.530453
20
613.755479
11
1004.514662
21
613.392271
0
LINE
8
0
10
1004.514662
20
613.392271
11
1008.500000
21
613.090586
0
LINE
8
0
10
1008.500000
20
613.090586
11
1018.172569
21
612.134960
0
LINE
8
0
10
1018.172569
20
612.134960
11
1035.694001
21
609.902730
0
LINE
8
0
10
1035.694001
20
609.902730
11
1050.799804
21
607.237034
0
LINE
8
0
10
1050.799804
20
607.237034
11
1063.509154
21
604.131279
0
LINE
8
0
10
1063.509154
20
604.131279
11
1073.841227
21
600.578873
0
LINE
8
0
10
1073.841227
20
600.578873
11
1081.815198
21
596.573222
0
LINE
8
0
10
1081.815198
20
596.573222
11
1087.450243
21
592.107733
0
LINE
8
0
10
1087.450243
20
592.107733
11
1090.765539
21
587.175813
0
LINE
8
0
10
1090.765539
20
587.175813
11
1091.559272
21
584.532882
0
LINE
8
0
10
1091.559272
20
584.532882
11
1091.750401
21
581.848580
0
LINE
8
0
10
1091.750401
20
581.848580
11
1090.260634
21
576.415598
0
LINE
8
0
10
1090.260634
20
576.415598
11
1086.258254
21
570.873812
0
LINE
8
0
10
1086.258254
20
570.873812
11
1079.723359
21
565.195670
0
LINE
8
0
10
1079.723359
20
565.195670
11
1075.500000
21
562.296854
0
LINE
8
0
10
1075.500000
20
562.296854
11
1073.474785
21
560.977344
0
LINE
8
0
10
1073.474785
20
560.977344
11
1070.244803
21
558.781717
0
LINE
8
0
10
1070.244803
20
558.781717
11
1069.437864
21
558.176029
0
LINE
8
0
10
1069.437864
20
558.176029
11
1068.714734
21
557.680843
0
LINE
8
0
10
1068.714734
20
557.680843
11
1066.050672
21
556.231380
0
LINE
8
0
10
1066.050672
20
556.231380
11
1064.437864
21
555.455629
0
LINE
8
0
10
1064.437864
20
555.455629
11
1060.779632
21
553.565972
0
LINE
8
0
10
1060.779632
20
553.565972
11
1057.514075
21
551.569565
0
LINE
8
0
10
1057.514075
20
551.569565
11
1054.813631
21
549.790825
0
LINE
8
0
10
1054.813631
20
549.790825
11
1052.514075
21
548.424497
0
LINE
8
0
10
1052.514075
20
548.424497
11
1049.562182
21
546.812276
0
LINE
8
0
10
1049.562182
20
546.812276
11
1045.218524
21
544.168444
0
LINE
8
0
10
1045.218524
20
544.168444
11
1043.743114
21
543.085920
0
LINE
8
0
10
1043.743114
20
543.085920
11
1042.126519
21
541.896303
0
LINE
8
0
10
1042.126519
20
541.896303
11
1037.757322
21
539.259477
0
LINE
8
0
10
1037.757322
20
539.259477
11
1035.000000
21
537.809417
0
LINE
8
0
10
1035.000000
20
537.809417
11
1033.634766
21
537.070236
0
LINE
8
0
10
1033.634766
20
537.070236
11
1029.638672
21
534.725567
0
LINE
8
0
10
1029.638672
20
534.725567
11
1027.500000
21
533.408866
0
LINE
8
0
10
1027.500000
20
533.408866
11
1025.381055
21
532.136389
0
LINE
8
0
10
1025.381055
20
532.136389
11
1021.518164
21
530.090351
0
LINE
8
0
10
1021.518164
20
530.090351
11
1020.250000
21
529.568794
0
LINE
8
0
10
1020.250000
20
529.568794
11
1018.660938
21
528.815718
0
LINE
8
0
10
1018.660938
20
528.815718
11
1018.000000
21
527.997139
0
LINE
8
0
10
1018.000000
20
527.997139
11
1017.339062
21
527.180865
0
LINE
8
0
10
1017.339062
20
527.180865
11
1015.750000
21
526.433331
0
LINE
8
0
10
1015.750000
20
526.433331
11
1013.285781
21
525.317557
0
LINE
8
0
10
1013.285781
20
525.317557
11
1010.520745
21
523.615943
0
LINE
8
0
10
1010.520745
20
523.615943
11
1005.910142
21
520.540246
0
LINE
8
0
10
1005.910142
20
520.540246
11
1001.500000
21
518.057371
0
LINE
8
0
10
1001.500000
20
518.057371
11
1000.407813
21
517.463240
0
LINE
8
0
10
1000.407813
20
517.463240
11
997.210938
21
515.594006
0
LINE
8
0
10
997.210938
20
515.594006
11
995.500000
21
514.549132
0
LINE
8
0
10
995.500000
20
514.549132
11
993.453711
21
513.299487
0
LINE
8
0
10
993.453711
20
513.299487
11
987.992383
21
510.047541
0
LINE
8
0
10
987.992383
20
510.047541
11
985.250000
21
508.445773
0
LINE
8
0
10
985.250000
20
508.445773
11
982.823242
21
506.976337
0
LINE
8
0
10
982.823242
20
506.976337
11
979.493164
21
504.617953
0
LINE
8
0
10
979.493164
20
504.617953
11
979.000000
21
504.019481
0
LINE
8
0
10
979.000000
20
504.019481
11
978.783008
21
503.652556
0
LINE
8
0
10
978.783008
20
503.652556
11
977.317773
21
502.857682
0
LINE
8
0
10
977.317773
20
502.857682
11
976.250000
21
502.527636
0
LINE
8
0
10
976.250000
20
502.527636
11
973.867188
21
501.654396
0
LINE
8
0
10
973.867188
20
501.654396
11
972.000000
21
500.518669
0
LINE
8
0
10
972.000000
20
500.518669
11
971.023047
21
499.788049
0
LINE
8
0
10
971.023047
20
499.788049
11
967.559766
21
497.617629
0
LINE
8
0
10
967.559766
20
497.617629
11
965.500000
21
496.445153
0
LINE
8
0
10
965.500000
20
496.445153
11
963.519141
21
495.329811
0
LINE
8
0
10
963.519141
20
495.329811
11
960.588672
21
493.545187
0
LINE
8
0
10
960.588672
20
493.545187
11
960.000000
21
493.095711
0
LINE
8
0
10
960.000000
20
493.095711
11
959.509961
21
492.712786
0
LINE
8
0
10
959.509961
20
492.712786
11
957.245508
21
491.377535
0
LINE
8
0
10
957.245508
20
491.377535
11
955.750000
21
490.589668
0
LINE
8
0
10
955.750000
20
490.589668
11
954.293945
21
489.782553
0
LINE
8
0
10
954.293945
20
489.782553
11
952.295898
21
488.317318
0
LINE
8
0
10
952.295898
20
488.317318
11
952.000000
21
487.839668
0
LINE
8
0
10
952.000000
20
487.839668
11
951.588894
21
487.244632
0
LINE
8
0
10
951.588894
20
487.244632
11
950.600489
21
486.997139
0
LINE
8
0
10
950.600489
20
486.997139
11
949.672076
21
486.740694
0
LINE
8
0
10
949.672076
20
486.740694
11
946.326635
21
485.009053
0
LINE
8
0
10
946.326635
20
485.009053
11
944.321656
21
483.747139
0
LINE
8
0
10
944.321656
20
483.747139
11
942.192662
21
482.366991
0
LINE
8
0
10
942.192662
20
482.366991
11
938.009824
21
479.836981
0
LINE
8
0
10
938.009824
20
479.836981
11
936.471166
21
478.998733
0
LINE
8
0
10
936.471166
20
478.998733
11
935.278065
21
478.369307
0
LINE
8
0
10
935.278065
20
478.369307
11
933.428584
21
477.249363
0
LINE
8
0
10
933.428584
20
477.249363
11
933.000000
21
476.896786
0
LINE
8
0
10
933.000000
20
476.896786
11
932.312381
21
476.492948
0
LINE
8
0
10
932.312381
20
476.492948
11
928.713775
21
475.026864
0
LINE
8
0
10
928.713775
20
475.026864
11
926.246018
21
474.145192
0
LINE
8
0
10
926.246018
20
474.145192
11
920.350775
21
472.645231
0
LINE
8
0
10
920.350775
20
472.645231
11
911.941245
21
472.036701
0
LINE
8
0
10
911.941245
20
472.036701
11
908.056975
21
472.773547
0
LINE
8
0
10
908.056975
20
472.773547
11
907.000000
21
473.497139
0
LINE
8
0
10
907.000000
20
473.497139
11
905.495827
21
474.558450
0
LINE
8
0
10
905.495827
20
474.558450
11
903.627555
21
475.003728
0
LINE
8
0
10
903.627555
20
475.003728
11
901.285225
21
475.562015
0
LINE
8
0
10
901.285225
20
475.562015
11
898.641297
21
476.895025
0
LINE
8
0
10
898.641297
20
476.895025
11
896.630420
21
478.447580
0
LINE
8
0
10
896.630420
20
478.447580
11
893.655078
21
482.113709
0
LINE
8
0
10
893.655078
20
482.113709
11
892.189435
21
486.208040
0
LINE
8
0
10
892.189435
20
486.208040
11
892.370877
21
490.346785
0
LINE
8
0
10
892.370877
20
490.346785
11
893.122186
21
492.312880
0
LINE
8
0
10
893.122186
20
492.312880
11
894.631771
21
494.610951
0
LINE
8
0
10
894.631771
20
494.610951
11
897.792506
21
498.251670
0
LINE
8
0
10
897.792506
20
498.251670
11
899.558402
21
499.773648
0
LINE
8
0
10
899.558402
20
499.773648
11
900.097559
21
499.997139
0
LINE
8
0
10
900.097559
20
499.997139
11
900.382466
21
500.075573
0
LINE
8
0
10
900.382466
20
500.075573
11
901.673484
21
500.655759
0
LINE
8
0
10
901.673484
20
500.655759
11
904.947726
21
502.347906
0
LINE
8
0
10
904.947726
20
502.347906
11
907.660467
21
503.840027
0
LINE
8
0
10
907.660467
20
503.840027
11
914.253387
21
507.518333
0
LINE
8
0
10
914.253387
20
507.518333
11
920.500000
21
510.965523
0
LINE
8
0
10
920.500000
20
510.965523
11
926.353125
21
514.169368
0
LINE
8
0
10
926.353125
20
514.169368
11
932.000000
21
517.262609
0
LINE
8
0
10
932.000000
20
517.262609
11
937.940625
21
520.487046
0
LINE
8
0
10
937.940625
20
520.487046
11
944.500000
21
524.006320
0
LINE
8
0
10
944.500000
20
524.006320
11
949.101842
21
526.465768
0
LINE
8
0
10
949.101842
20
526.465768
11
955.962536
21
530.182039
0
LINE
8
0
10
955.962536
20
530.182039
11
962.320145
21
533.661697
0
LINE
8
0
10
962.320145
20
533.661697
11
966.500000
21
535.955218
0
LINE
8
0
10
966.500000
20
535.955218
11
969.579297
21
537.629160
0
LINE
8
0
10
969.579297
20
537.629160
11
977.837891
21
542.051919
0
LINE
8
0
10
977.837891
20
542.051919
11
982.000000
21
544.255996
0
LINE
8
0
10
982.000000
20
544.255996
11
985.947725
21
546.355552
0
LINE
8
0
10
985.947725
20
546.355552
11
991.322586
21
549.275083
0
LINE
8
0
10
991.322586
20
549.275083
11
993.929654
21
550.734416
0
LINE
8
0
10
993.929654
20
550.734416
11
994.783044
21
551.232137
0
LINE
8
0
10
994.783044
20
551.232137
11
996.608685
21
552.287684
0
LINE
8
0
10
996.608685
20
552.287684
11
1002.077846
21
555.301981
0
LINE
8
0
10
1002.077846
20
555.301981
11
1005.047745
21
556.889467
0
LINE
8
0
10
1005.047745
20
556.889467
11
1007.922442
21
558.461883
0
LINE
8
0
10
1007.922442
20
558.461883
11
1012.748754
21
561.374418
0
LINE
8
0
10
1012.748754
20
561.374418
11
1014.105926
21
562.355807
0
LINE
8
0
10
1014.105926
20
562.355807
11
1016.573799
21
564.178933
0
LINE
8
0
10
1016.573799
20
564.178933
11
1019.591225
21
566.065461
0
LINE
8
0
10
1019.591225
20
566.065461
11
1023.100235
21
568.065701
0
LINE
8
0
10
1023.100235
20
568.065701
11
1026.750000
21
570.162219
0
LINE
8
0
10
1026.750000
20
570.162219
11
1028.356110
21
571.061492
0
LINE
8
0
10
1028.356110
20
571.061492
11
1032.449621
21
573.211687
0
LINE
8
0
10
1032.449621
20
573.211687
11
1040.109909
21
576.976474
0
LINE
8
0
10
1040.109909
20
576.976474
11
1045.698732
21
579.581838
0
LINE
8
0
10
1045.698732
20
579.581838
11
1048.442420
21
581.247382
0
LINE
8
0
10
1048.442420
20
581.247382
11
1051.213997
21
584.318421
0
LINE
8
0
10
1051.213997
20
584.318421
11
1051.746727
21
586.214263
0
LINE
8
0
10
1051.746727
20
586.214263
11
1051.510848
21
586.979586
0
LINE
8
0
10
1051.510848
20
586.979586
11
1051.104665
21
587.346450
0
LINE
8
0
10
1051.104665
20
587.346450
11
1049.198258
21
588.244616
0
LINE
8
0
10
1049.198258
20
588.244616
11
1044.101135
21
589.879731
0
LINE
8
0
10
1044.101135
20
589.879731
11
1029.135917
21
593.372957
0
LINE
8
0
10
1029.135917
20
593.372957
11
1018.500000
21
595.154954
0
LINE
8
0
10
1018.500000
20
595.154954
11
1014.243800
21
595.619225
0
LINE
8
0
10
1014.243800
20
595.619225
11
1003.730803
21
596.237687
0
LINE
8
0
10
1003.730803
20
596.237687
11
984.847210
21
596.453573
0
LINE
8
0
10
984.847210
20
596.453573
11
965.246533
21
595.916712
0
LINE
8
0
10
965.246533
20
595.916712
11
953.458720
21
595.196958
0
LINE
8
0
10
953.458720
20
595.196958
11
943.868731
21
594.227170
0
LINE
8
0
10
943.868731
20
594.227170
11
938.724101
21
593.356082
0
LINE
8
0
10
938.724101
20
593.356082
11
936.505444
21
592.714829
0
LINE
8
0
10
936.505444
20
592.714829
11
935.806629
21
592.377629
0
LINE
8
0
10
935.806629
20
592.377629
11
935.009175
21
592.024729
0
LINE
8
0
10
935.009175
20
592.024729
11
932.201219
21
591.234353
0
LINE
8
0
10
932.201219
20
591.234353
11
930.536566
21
590.894225
0
LINE
8
0
10
930.536566
20
590.894225
11
927.741951
21
590.341567
0
LINE
8
0
10
927.741951
20
590.341567
11
921.086606
21
588.773906
0
LINE
8
0
10
921.086606
20
588.773906
11
914.191311
21
586.909296
0
LINE
8
0
10
914.191311
20
586.909296
11
908.473912
21
585.131147
0
LINE
8
0
10
908.473912
20
585.131147
11
906.500000
21
584.394312
0
LINE
8
0
10
906.500000
20
584.394312
11
902.124783
21
582.523177
0
LINE
8
0
10
902.124783
20
582.523177
11
897.222665
21
580.363055
0
LINE
8
0
10
897.222665
20
580.363055
11
895.096825
21
579.444414
0
LINE
8
0
10
895.096825
20
579.444414
11
891.766747
21
578.183825
0
LINE
8
0
10
891.766747
20
578.183825
11
890.972665
21
577.997139
0
LINE
8
0
10
890.972665
20
577.997139
11
890.285720
21
577.703389
0
LINE
8
0
10
890.285720
20
577.703389
11
890.000000
21
576.997139
0
LINE
8
0
10
890.000000
20
576.997139
11
889.520610
21
576.290889
0
LINE
8
0
10
889.520610
20
576.290889
11
888.368034
21
575.997139
0
LINE
8
0
10
888.368034
20
575.997139
11
887.570772
21
575.863961
0
LINE
8
0
10
887.570772
20
575.863961
11
885.140325
21
574.892585
0
LINE
8
0
10
885.140325
20
574.892585
11
880.120952
21
572.143184
0
LINE
8
0
10
880.120952
20
572.143184
11
872.869318
21
567.381563
0
LINE
8
0
10
872.869318
20
567.381563
11
868.682162
21
564.085705
0
LINE
8
0
10
868.682162
20
564.085705
11
867.202820
21
562.489806
0
LINE
8
0
10
867.202820
20
562.489806
11
867.000000
21
561.966303
0
LINE
8
0
10
867.000000
20
561.966303
11
866.820464
21
561.218549
0
LINE
8
0
10
866.820464
20
561.218549
11
865.559697
21
559.983303
0
LINE
8
0
10
865.559697
20
559.983303
11
864.595483
21
559.610460
0
LINE
8
0
10
864.595483
20
559.610460
11
863.580122
21
559.208655
0
LINE
8
0
10
863.580122
20
559.208655
11
861.023525
21
557.462171
0
LINE
8
0
10
861.023525
20
557.462171
11
856.253893
21
552.935151
0
LINE
8
0
10
856.253893
20
552.935151
11
849.213380
21
544.598530
0
LINE
8
0
10
849.213380
20
544.598530
11
842.880583
21
535.392224
0
LINE
8
0
10
842.880583
20
535.392224
11
840.486169
21
531.062790
0
LINE
8
0
10
840.486169
20
531.062790
11
838.407478
21
526.516328
0
LINE
8
0
10
838.407478
20
526.516328
11
835.584828
21
517.774218
0
LINE
8
0
10
835.584828
20
517.774218
11
834.428715
21
508.602573
0
LINE
8
0
10
834.428715
20
508.602573
11
834.803411
21
497.924648
0
LINE
8
0
10
834.803411
20
497.924648
11
835.522398
21
491.684347
0
LINE
8
0
10
835.522398
20
491.684347
11
836.388884
21
488.011386
0
LINE
8
0
10
836.388884
20
488.011386
11
840.307848
21
479.514515
0
LINE
8
0
10
840.307848
20
479.514515
11
846.568425
21
470.324247
0
LINE
8
0
10
846.568425
20
470.324247
11
854.482966
21
461.450023
0
LINE
8
0
10
854.482966
20
461.450023
11
858.845583
21
457.446878
0
LINE
8
0
10
858.845583
20
457.446878
11
860.559374
21
455.985245
0
LINE
8
0
10
860.559374
20
455.985245
11
863.327646
21
453.627775
0
LINE
8
0
10
863.327646
20
453.627775
11
866.325875
21
451.150548
0
LINE
8
0
10
866.325875
20
451.150548
11
869.552527
21
448.828885
0
LINE
8
0
10
869.552527
20
448.828885
11
873.830527
21
446.238244
0
LINE
8
0
10
873.830527
20
446.238244
11
877.022581
21
444.368034
0
LINE
8
0
10
877.022581
20
444.368034
11
883.801736
21
440.626966
0
LINE
8
0
10
883.801736
20
440.626966
11
898.259519
21
434.023641
0
LINE
8
0
10
898.259519
20
434.023641
11
913.752186
21
428.649101
0
LINE
8
0
10
913.752186
20
428.649101
11
930.082436
21
424.571792
0
LINE
8
0
10
930.082436
20
424.571792
11
938.500000
21
423.040988
0
LINE
8
0
10
938.500000
20
423.040988
11
945.059375
21
421.946246
0
LINE
8
0
10
945.059375
20
421.946246
11
951.000000
21
420.885749
0
LINE
8
0
10
951.000000
20
420.885749
11
952.563329
21
420.697794
0
LINE
8
0
10
952.563329
20
420.697794
11
958.180684
21
420.418589
0
LINE
8
0
10
958.180684
20
420.418589
11
970.954388
21
420.228566
0
LINE
8
0
10
970.954388
20
420.228566
11
985.938783
21
420.292315
0
LINE
8
0
10
985.938783
20
420.292315
11
995.486256
21
420.464263
0
LINE
8
0
10
995.486256
20
420.464263
11
1003.510829
21
420.731694
0
LINE
8
0
10
1003.510829
20
420.731694
11
1009.010330
21
421.087685
0
LINE
8
0
10
1009.010330
20
421.087685
11
1010.500000
21
421.296727
0
LINE
8
0
10
1010.500000
20
421.296727
11
1012.217187
21
421.637216
0
LINE
8
0
10
1012.217187
20
421.637216
11
1017.545312
21
422.573661
0
LINE
8
0
10
1017.545312
20
422.573661
11
1020.500000
21
423.054278
0
LINE
8
0
10
1020.500000
20
423.054278
11
1029.613160
21
424.704993
0
LINE
8
0
10
1029.613160
20
424.704993
11
1047.192591
21
429.136535
0
LINE
8
0
10
1047.192591
20
429.136535
11
1063.713867
21
434.958076
0
LINE
8
0
10
1063.713867
20
434.958076
11
1078.942226
21
442.029432
0
LINE
8
0
10
1078.942226
20
442.029432
11
1092.642908
21
450.210422
0
LINE
8
0
10
1092.642908
20
450.210422
11
1104.581150
21
459.360866
0
LINE
8
0
10
1104.581150
20
459.360866
11
1114.522191
21
469.340581
0
LINE
8
0
10
1114.522191
20
469.340581
11
1122.231268
21
480.009385
0
LINE
8
0
10
1122.231268
20
480.009385
11
1125.175458
21
485.558389
0
LINE
8
0
10
1125.175458
20
485.558389
11
1127.081099
21
490.666161
0
LINE
8
0
10
1127.081099
20
490.666161
11
1129.230882
21
502.770964
0
LINE
8
0
10
1129.230882
20
502.770964
11
1129.172964
21
515.692713
0
LINE
8
0
10
1129.172964
20
515.692713
11
1126.916499
21
527.388927
0
LINE
8
0
10
1126.916499
20
527.388927
11
1124.966672
21
532.139184
0
LINE
8
0
10
1124.966672
20
532.139184
11
1123.223678
21
535.871271
0
LINE
8
0
10
1123.223678
20
535.871271
11
1121.704150
21
539.729800
0
LINE
8
0
10
1121.704150
20
539.729800
11
1120.728388
21
541.816875
0
LINE
8
0
10
1120.728388
20
541.816875
11
1116.981506
21
547.661053
0
LINE
8
0
10
1116.981506
20
547.661053
11
1114.671878
21
550.698344
0
LINE
8
0
10
1114.671878
20
550.698344
11
1112.358771
21
553.716831
0
LINE
8
0
10
1112.358771
20
553.716831
11
1109.628294
21
558.517491
0
LINE
8
0
10
1109.628294
20
558.517491
11
1109.398060
21
562.095656
0
LINE
8
0
10
1109.398060
20
562.095656
11
1111.635182
21
564.962435
0
LINE
8
0
10
1111.635182
20
564.962435
11
1113.668724
21
566.288778
0
LINE
8
0
10
1113.668724
20
566.288778
11
1114.438143
21
566.736980
0
LINE
8
0
10
1114.438143
20
566.736980
11
1116.791142
21
568.163948
0
LINE
8
0
10
1116.791142
20
568.163948
11
1121.885973
21
571.333397
0
LINE
8
0
10
1121.885973
20
571.333397
11
1130.284826
21
576.647354
0
LINE
8
0
10
1130.284826
20
576.647354
11
1138.680298
21
582.041539
0
LINE
8
0
10
1138.680298
20
582.041539
11
1142.250000
21
584.372162
0
LINE
8
0
10
1142.250000
20
584.372162
11
1145.259180
21
586.446607
0
LINE
8
0
10
1145.259180
20
586.446607
11
1148.671753
21
589.124683
0
LINE
8
0
10
1148.671753
20
589.124683
11
1149.841821
21
590.319971
0
LINE
8
0
10
1149.841821
20
590.319971
11
1150.000000
21
590.663177
0
LINE
8
0
10
1150.000000
20
590.663177
11
1149.566473
21
591.287537
0
LINE
8
0
10
1149.566473
20
591.287537
11
1146.639093
21
593.016998
0
LINE
8
0
10
1146.639093
20
593.016998
11
1144.505798
21
593.909086
0
LINE
8
0
10
1144.505798
20
593.909086
11
1139.402859
21
596.107399
0
LINE
8
0
10
1139.402859
20
596.107399
11
1133.402908
21
599.651770
0
LINE
8
0
10
1133.402908
20
599.651770
11
1131.289374
21
601.682628
0
LINE
8
0
10
1131.289374
20
601.682628
11
1131.000000
21
602.470728
0
LINE
8
0
10
1131.000000
20
602.470728
11
1131.187495
21
603.444242
0
LINE
8
0
10
1131.187495
20
603.444242
11
1132.524284
21
605.348886
0
LINE
8
0
10
1132.524284
20
605.348886
11
1136.118118
21
607.524222
0
LINE
8
0
10
1136.118118
20
607.524222
11
1138.938561
21
608.072281
0
LINE
8
0
10
1138.938561
20
608.072281
11
1144.129875
21
608.132189
0
LINE
8
0
10
1144.129875
20
608.132189
11
1156.563037
21
608.043033
0
LINE
8
0
10
1156.563037
20
608.043033
11
1169.500618
21
607.729313
0
LINE
8
0
10
1169.500618
20
607.729313
11
1177.925316
21
607.385682
0
LINE
8
0
10
1177.925316
20
607.385682
11
1182.305894
21
607.120210
0
LINE
8
0
10
1182.305894
20
607.120210
11
1184.000000
21
606.979599
0
LINE
8
0
10
1184.000000
20
606.979599
11
1188.826708
21
606.420701
0
LINE
8
0
10
1188.826708
20
606.420701
11
1196.962114
21
604.829957
0
LINE
8
0
10
1196.962114
20
604.829957
11
1203.111670
21
602.594745
0
LINE
8
0
10
1203.111670
20
602.594745
11
1207.321169
21
599.698420
0
LINE
8
0
10
1207.321169
20
599.698420
11
1208.712709
21
597.997139
0
LINE
8
0
10
1208.712709
20
597.997139
11
1209.197721
21
597.298759
0
LINE
8
0
10
1209.197721
20
597.298759
11
1210.958686
21
594.954501
0
LINE
8
0
10
1210.958686
20
594.954501
11
1214.995910
21
589.814544
0
LINE
8
0
10
1214.995910
20
589.814544
11
1218.165575
21
585.885107
0
LINE
8
0
10
1218.165575
20
585.885107
11
1221.207535
21
581.986055
0
LINE
8
0
10
1221.207535
20
581.986055
11
1224.657284
21
576.985880
0
LINE
8
0
10
1224.657284
20
576.985880
11
1225.840098
21
574.779185
0
LINE
8
0
10
1225.840098
20
574.779185
11
1226.000000
21
574.158160
0
LINE
8
0
10
1226.000000
20
574.158160
11
1225.802047
21
572.885574
0
LINE
8
0
10
1225.802047
20
572.885574
11
1224.194139
21
570.845520
0
LINE
8
0
10
1224.194139
20
570.845520
11
1220.916263
21
569.456081
0
LINE
8
0
10
1220.916263
20
569.456081
11
1215.903660
21
568.689809
0
LINE
8
0
10
1215.903660
20
568.689809
11
1212.726600
21
568.531781
0
LINE
8
0
10
1212.726600
20
568.531781
11
1209.414006
21
568.517395
0
LINE
8
0
10
1209.414006
20
568.517395
11
1205.247088
21
568.726678
0
LINE
8
0
10
1205.247088
20
568.726678
11
1203.469225
21
568.990431
0
LINE
8
0
10
1203.469225
20
568.990431
11
1203.000000
21
569.151947
0
LINE
8
0
10
1203.000000
20
569.151947
11
1202.538883
21
569.379510
0
LINE
8
0
10
1202.538883
20
569.379510
11
1200.820995
21
570.131828
0
LINE
8
0
10
1200.820995
20
570.131828
11
1196.828998
21
571.766039
0
LINE
8
0
10
1196.828998
20
571.766039
11
1193.670648
21
573.008143
0
LINE
8
0
10
1193.670648
20
573.008143
11
1185.841296
21
576.039502
0
LINE
8
0
10
1185.841296
20
576.039502
11
1182.026744
21
573.018320
0
LINE
8
0
10
1182.026744
20
573.018320
11
1180.496685
21
571.845252
0
LINE
8
0
10
1180.496685
20
571.845252
11
1178.133781
21
570.235529
0
LINE
8
0
10
1178.133781
20
570.235529
11
1177.591968
21
569.997139
0
LINE
8
0
10
1177.591968
20
569.997139
11
1176.936071
21
569.661787
0
LINE
8
0
10
1176.936071
20
569.661787
11
1173.802816
21
567.397334
0
LINE
8
0
10
1173.802816
20
567.397334
11
1171.711372
21
565.747139
0
LINE
8
0
10
1171.711372
20
565.747139
11
1166.608119
21
561.879186
0
LINE
8
0
10
1166.608119
20
561.879186
11
1161.725500
21
558.547726
0
LINE
8
0
10
1161.725500
20
558.547726
11
1159.890677
21
557.330981
0
LINE
8
0
10
1159.890677
20
557.330981
11
1157.372871
21
555.276405
0
LINE
8
0
10
1157.372871
20
555.276405
11
1157.000000
21
554.691630
0
LINE
8
0
10
1157.000000
20
554.691630
11
1157.249229
21
554.024904
0
LINE
8
0
10
1157.249229
20
554.024904
11
1158.932145
21
551.416958
0
LINE
8
0
10
1158.932145
20
551.416958
11
1160.158552
21
549.796951
0
LINE
8
0
10
1160.158552
20
549.796951
11
1163.279260
21
545.709656
0
LINE
8
0
10
1163.279260
20
545.709656
11
1166.703593
21
540.693931
0
LINE
8
0
10
1166.703593
20
540.693931
11
1167.847346
21
538.548720
0
LINE
8
0
10
1167.847346
20
538.548720
11
1168.000000
21
537.952730
0
LINE
8
0
10
1168.000000
20
537.952730
11
1168.325178
21
537.277844
0
LINE
8
0
10
1168.325178
20
537.277844
11
1169.106989
21
536.997139
0
LINE
8
0
10
1169.106989
20
536.997139
11
1169.726787
21
536.574941
0
LINE
8
0
10
1169.726787
20
536.574941
11
1169.662445
21
535.559869
0
LINE
8
0
10
1169.662445
20
535.559869
11
1169.668439
21
534.543143
0
LINE
8
0
10
1169.668439
20
534.543143
11
1170.861091
21
530.680253
0
LINE
8
0
10
1170.861091
20
530.680253
11
1171.900854
21
528.309869
0
LINE
8
0
10
1171.900854
20
528.309869
11
1173.164362
21
525.382192
0
LINE
8
0
10
1173.164362
20
525.382192
11
1175.867855
21
517.756190
0
LINE
8
0
10
1175.867855
20
517.756190
11
1176.974858
21
513.997139
0
LINE
8
0
10
1176.974858
20
513.997139
11
1178.187689
21
508.987436
0
LINE
8
0
10
1178.187689
20
508.987436
11
1178.912568
21
501.874501
0
LINE
8
0
10
1178.912568
20
501.874501
11
1178.832254
21
495.093028
0
LINE
8
0
10
1178.832254
20
495.093028
11
1178.665715
21
490.497139
0
LINE
8
0
10
1178.665715
20
490.497139
11
1178.505492
21
486.878412
0
LINE
8
0
10
1178.505492
20
486.878412
11
1178.084515
21
480.576358
0
LINE
8
0
10
1178.084515
20
480.576358
11
1177.003057
21
472.843774
0
LINE
8
0
10
1177.003057
20
472.843774
11
1174.164861
21
464.014851
0
LINE
8
0
10
1174.164861
20
464.014851
11
1170.525469
21
457.062048
0
LINE
8
0
10
1170.525469
20
457.062048
11
1167.181139
21
451.651171
0
LINE
8
0
10
1167.181139
20
451.651171
11
1165.193821
21
448.589430
0
LINE
8
0
10
1165.193821
20
448.589430
11
1164.038361
21
446.920228
0
LINE
8
0
10
1164.038361
20
446.920228
11
1161.004342
21
442.980052
0
LINE
8
0
10
1161.004342
20
442.980052
11
1155.270036
21
436.234182
0
LINE
8
0
10
1155.270036
20
436.234182
11
1147.164046
21
427.552588
0
LINE
8
0
10
1147.164046
20
427.552588
11
1142.196481
21
422.836647
0
LINE
8
0
10
1142.196481
20
422.836647
11
1140.038736
21
421.216391
0
LINE
8
0
10
1140.038736
20
421.216391
11
1139.430948
21
420.997139
0
LINE
8
0
10
1139.430948
20
420.997139
11
1138.440133
21
420.771196
0
LINE
8
0
10
1138.440133
20
420.771196
11
1137.833333
21
420.227972
0
LINE
8
0
10
1137.833333
20
420.227972
11
1132.404332
21
415.213710
0
LINE
8
0
10
1132.404332
20
415.213710
11
1126.705061
21
410.997139
0
LINE
8
0
10
1126.705061
20
410.997139
11
1125.991135
21
410.705744
0
LINE
8
0
10
1125.991135
20
410.705744
11
1122.562143
21
408.738104
0
LINE
8
0
10
1122.562143
20
408.738104
11
1120.269417
21
407.304208
0
LINE
8
0
10
1120.269417
20
407.304208
11
1117.401713
21
405.550820
0
LINE
8
0
10
1117.401713
20
405.550820
11
1110.252932
21
401.536113
0
LINE
8
0
10
1110.252932
20
401.536113
11
1102.994909
21
397.766246
0
LINE
8
0
10
1102.994909
20
397.766246
11
1098.761215
21
395.765148
0
LINE
8
0
10
1098.761215
20
395.765148
11
1097.014149
21
395.083894
0
LINE
8
0
10
1097.014149
20
395.083894
11
1096.563093
21
394.990978
0
LINE
8
0
10
1096.563093
20
394.990978
11
1095.913595
21
394.863613
0
LINE
8
0
10
1095.913595
20
394.863613
11
1093.748728
21
394.016450
0
LINE
8
0
10
1093.748728
20
394.016450
11
1092.500000
21
393.400996
0
LINE
8
0
10
1092.500000
20
393.400996
11
1090.901172
21
392.629701
0
LINE
8
0
10
1090.901172
20
392.629701
11
1086.372266
21
390.730229
0
LINE
8
0
10
1086.372266
20
390.730229
11
1084.000000
21
389.836004
0
LINE
8
0
10
1084.000000
20
389.836004
11
1081.706641
21
388.993196
0
LINE
8
0
10
1081.706641
20
388.993196
11
1077.710547
21
387.440921
0
LINE
8
0
10
1077.710547
20
387.440921
11
1076.500000
21
386.922643
0
LINE
8
0
10
1076.500000
20
386.922643
11
1075.113532
21
386.406784
0
LINE
8
0
10
1075.113532
20
386.406784
11
1069.929531
21
384.870850
0
LINE
8
0
10
1069.929531
20
384.870850
11
1066.770498
21
384.039950
0
LINE
8
0
10
1066.770498
20
384.039950
11
1063.615035
21
383.200058
0
LINE
8
0
10
1063.615035
20
383.200058
11
1058.455141
21
381.603402
0
LINE
8
0
10
1058.455141
20
381.603402
11
1057.086240
21
381.043293
0
LINE
8
0
10
1057.086240
20
381.043293
11
1054.675592
21
380.304447
0
LINE
8
0
10
1054.675592
20
380.304447
11
1051.624758
21
379.997139
0
LINE
8
0
10
1051.624758
20
379.997139
11
1050.219784
21
379.926951
0
LINE
8
0
10
1050.219784
20
379.926951
11
1048.058445
21
379.453008
0
LINE
8
0
10
1048.058445
20
379.453008
11
1047.568285
21
379.107627
0
LINE
8
0
10
1047.568285
20
379.107627
11
1047.188411
21
378.748619
0
LINE
8
0
10
1047.188411
20
378.748619
11
1045.343761
21
378.061972
0
LINE
8
0
10
1045.343761
20
378.061972
11
1041.657365
21
377.339718
0
LINE
8
0
10
1041.657365
20
377.339718
11
1035.654962
21
376.488938
0
LINE
8
0
10
1035.654962
20
376.488938
11
1031.637053
21
375.986314
0
LINE
8
0
10
1031.637053
20
375.986314
11
1028.297031
21
375.523656
0
LINE
8
0
10
1028.297031
20
375.523656
11
1022.169688
21
374.399913
0
LINE
8
0
10
1022.169688
20
374.399913
11
1020.137053
21
373.877236
0
LINE
8
0
10
1020.137053
20
373.877236
11
1019.540819
21
373.749662
0
LINE
8
0
10
1019.540819
20
373.749662
11
1017.294262
21
373.506606
0
LINE
8
0
10
1017.294262
20
373.506606
11
1011.638711
21
373.176018
0
LINE
8
0
10
1011.638711
20
373.176018
11
1000.809932
21
372.809233
0
LINE
8
0
10
1000.809932
20
372.809233
11
987.590357
21
372.541748
0
LINE
8
0
10
987.590357
20
372.541748
11
973.471223
21
372.389630
0
LINE
8
0
10
973.471223
20
372.389630
11
959.943771
21
372.368944
0
LINE
8
0
10
959.943771
20
372.368944
11
948.499239
21
372.495758
0
LINE
8
0
10
948.499239
20
372.495758
11
942.179829
21
372.697329
0
LINE
8
0
10
942.179829
20
372.697329
11
939.394489
21
372.886172
0
LINE
8
0
10
939.394489
20
372.886172
11
938.500000
21
372.997685
0
LINE
8
0
10
1083.000000
20
131.614305
11
1078.702852
21
133.443061
0
LINE
8
0
10
1078.702852
20
133.443061
11
1071.577551
21
138.032492
0
LINE
8
0
10
1071.577551
20
138.032492
11
1068.218815
21
141.134916
0
LINE
8
0
10
1068.218815
20
141.134916
11
1065.721560
21
143.812709
0
LINE
8
0
10
1065.721560
20
143.812709
11
1062.265202
21
149.146207
0
LINE
8
0
10
1062.265202
20
149.146207
11
1060.736074
21
154.194013
0
LINE
8
0
10
1060.736074
20
154.194013
11
1060.088276
21
158.566213
0
LINE
8
0
10
1060.088276
20
158.566213
11
1059.653997
21
164.060160
0
LINE
8
0
10
1059.653997
20
164.060160
11
1059.361433
21
170.946841
0
LINE
8
0
10
1059.361433
20
170.946841
11
1059.245853
21
174.997139
0
LINE
8
0
10
1059.245853
20
174.997139
11
1059.133697
21
181.766933
0
LINE
8
0
10
1059.133697
20
181.766933
11
1059.354921
21
193.074910
0
LINE
8
0
10
1059.354921
20
193.074910
11
1060.198631
21
201.698030
0
LINE
8
0
10
1060.198631
20
201.698030
11
1061.698948
21
207.985045
0
LINE
8
0
10
1061.698948
20
207.985045
11
1062.705998
21
210.361498
0
LINE
8
0
10
1062.705998
20
210.361498
11
1063.830780
21
212.254963
0
LINE
8
0
10
1063.830780
20
212.254963
11
1067.059870
21
216.324905
0
LINE
8
0
10
1067.059870
20
216.324905
11
1073.263755
21
222.069869
0
LINE
8
0
10
1073.263755
20
222.069869
11
1077.459854
21
224.829618
0
LINE
8
0
10
1077.459854
20
224.829618
11
1080.472090
21
226.249400
0
LINE
8
0
10
1080.472090
20
226.249400
11
1085.141199
21
227.273657
0
LINE
8
0
10
1085.141199
20
227.273657
11
1089.829738
21
227.471701
0
LINE
8
0
10
1089.829738
20
227.471701
11
1093.026111
21
227.490123
0
LINE
8
0
10
1093.026111
20
227.490123
11
1097.768096
21
227.407725
0
LINE
8
0
10
1097.768096
20
227.407725
11
1105.191462
21
226.528335
0
LINE
8
0
10
1105.191462
20
226.528335
11
1110.998953
21
224.252750
0
LINE
8
0
10
1110.998953
20
224.252750
11
1116.548486
21
220.048891
0
LINE
8
0
10
1116.548486
20
220.048891
11
1119.650868
21
217.057583
0
LINE
8
0
10
1119.650868
20
217.057583
11
1121.856745
21
214.606403
0
LINE
8
0
10
1121.856745
20
214.606403
11
1124.907678
21
209.325385
0
LINE
8
0
10
1124.907678
20
209.325385
11
1126.099599
21
205.895141
0
LINE
8
0
10
1126.099599
20
205.895141
11
1127.186902
21
201.644626
0
LINE
8
0
10
1127.186902
20
201.644626
11
1127.882356
21
193.440760
0
LINE
8
0
10
1127.882356
20
193.440760
11
1127.912286
21
186.776881
0
LINE
8
0
10
1127.912286
20
186.776881
11
1127.846872
21
180.840345
0
LINE
8
0
10
1127.846872
20
180.840345
11
1127.793845
21
177.334697
0
LINE
8
0
10
1127.793845
20
177.334697
11
1127.718659
21
173.073883
0
LINE
8
0
10
1127.718659
20
173.073883
11
1127.525592
21
165.883518
0
LINE
8
0
10
1127.525592
20
165.883518
11
1127.227452
21
160.221324
0
LINE
8
0
10
1127.227452
20
160.221324
11
1126.766461
21
155.791084
0
LINE
8
0
10
1126.766461
20
155.791084
11
1125.643238
21
150.807668
0
LINE
8
0
10
1125.643238
20
150.807668
11
1123.036363
21
145.710275
0
LINE
8
0
10
1123.036363
20
145.710275
11
1121.127532
21
143.158162
0
LINE
8
0
10
1121.127532
20
143.158162
11
1119.449140
21
141.308557
0
LINE
8
0
10
1119.449140
20
141.308557
11
1114.711198
21
137.146477
0
LINE
8
0
10
1114.711198
20
137.146477
11
1112.235208
21
135.346632
0
LINE
8
0
10
1112.235208
20
135.346632
11
1110.329124
21
134.091219
0
LINE
8
0
10
1110.329124
20
134.091219
11
1107.317427
21
132.454247
0
LINE
8
0
10
1107.317427
20
132.454247
11
1104.093368
21
131.671884
0
LINE
8
0
10
1104.093368
20
131.671884
11
1099.121358
21
131.371499
0
LINE
8
0
10
1099.121358
20
131.371499
11
1095.500000
21
131.285601
0
LINE
8
0
10
1095.500000
20
131.285601
11
1091.110547
21
131.238622
0
LINE
8
0
10
1091.110547
20
131.238622
11
1085.722412
21
131.339709
0
LINE
8
0
10
1085.722412
20
131.339709
11
1083.525830
21
131.505741
0
LINE
8
0
10
1083.525830
20
131.505741
11
1083.000000
21
131.614305
0
LINE
8
0
10
949.000000
20
179.565879
11
949.000000
21
228.134619
0
LINE
8
0
10
949.000000
20
228.134619
11
971.250000
21
227.813744
0
LINE
8
0
10
971.250000
20
227.813744
11
975.759100
21
227.736598
0
LINE
8
0
10
975.759100
20
227.736598
11
983.457072
21
227.508233
0
LINE
8
0
10
983.457072
20
227.508233
11
989.618457
21
227.132541
0
LINE
8
0
10
989.618457
20
227.132541
11
994.511719
21
226.551249
0
LINE
8
0
10
994.511719
20
226.551249
11
1000.061143
21
225.166335
0
LINE
8
0
10
1000.061143
20
225.166335
11
1005.527599
21
222.056292
0
LINE
8
0
10
1005.527599
20
222.056292
11
1008.036536
21
219.828657
0
LINE
8
0
10
1008.036536
20
219.828657
11
1010.335048
21
217.303514
0
LINE
8
0
10
1010.335048
20
217.303514
11
1013.804738
21
211.646960
0
LINE
8
0
10
1013.804738
20
211.646960
11
1015.805386
21
205.446900
0
LINE
8
0
10
1015.805386
20
205.446900
11
1016.377881
21
199.021162
0
LINE
8
0
10
1016.377881
20
199.021162
11
1015.563107
21
192.687572
0
LINE
8
0
10
1015.563107
20
192.687572
11
1013.401950
21
186.763958
0
LINE
8
0
10
1013.401950
20
186.763958
11
1009.935298
21
181.568144
0
LINE
8
0
10
1009.935298
20
181.568144
11
1005.204037
21
177.417958
0
LINE
8
0
10
1005.204037
20
177.417958
11
1002.376954
21
175.834297
0
LINE
8
0
10
1002.376954
20
175.834297
11
1000.755114
21
175.034333
0
LINE
8
0
10
1000.755114
20
175.034333
11
998.732541
21
173.632716
0
LINE
8
0
10
998.732541
20
173.632716
11
998.199953
21
172.097177
0
LINE
8
0
10
998.199953
20
172.097177
11
998.991559
21
169.949716
0
LINE
8
0
10
998.991559
20
169.949716
11
999.832126
21
168.497139
0
LINE
8
0
10
999.832126
20
168.497139
11
1000.455731
21
167.418617
0
LINE
8
0
10
1000.455731
20
167.418617
11
1002.521165
21
163.635405
0
LINE
8
0
10
1002.521165
20
163.635405
11
1006.985871
21
155.203722
0
LINE
8
0
10
1006.985871
20
155.203722
11
1013.588511
21
142.479284
0
LINE
8
0
10
1013.588511
20
142.479284
11
1017.443427
21
134.877604
0
LINE
8
0
10
1017.443427
20
134.877604
11
1018.811959
21
132.042966
0
LINE
8
0
10
1018.811959
20
132.042966
11
1019.000000
21
131.557302
0
LINE
8
0
10
1019.000000
20
131.557302
11
1018.829671
21
131.444777
0
LINE
8
0
10
1018.829671
20
131.444777
11
1017.569724
21
131.244672
0
LINE
8
0
10
1017.569724
20
131.244672
11
1013.895015
21
131.041339
0
LINE
8
0
10
1013.895015
20
131.041339
11
1010.654686
21
130.997139
0
LINE
8
0
10
1010.654686
20
130.997139
11
1002.309371
21
130.997139
0
LINE
8
0
10
1002.309371
20
130.997139
11
992.120726
21
151.497139
0
LINE
8
0
10
992.120726
20
151.497139
11
981.932081
21
171.997139
0
LINE
8
0
10
981.932081
20
171.997139
11
973.073030
21
171.997139
0
LINE
8
0
10
973.073030
20
171.997139
11
970.631896
21
171.981576
0
LINE
8
0
10
970.631896
20
171.981576
11
967.062549
21
171.833538
0
LINE
8
0
10
967.062549
20
171.833538
11
964.286613
21
171.201524
0
LINE
8
0
10
964.286613
20
171.201524
11
963.606989
21
170.415352
0
LINE
8
0
10
963.606989
20
170.415352
11
963.485058
21
169.711480
0
LINE
8
0
10
963.485058
20
169.711480
11
963.268225
21
166.290217
0
LINE
8
0
10
963.268225
20
166.290217
11
963.104030
21
160.744807
0
LINE
8
0
10
963.104030
20
160.744807
11
963.012389
21
153.747906
0
LINE
8
0
10
963.012389
20
153.747906
11
963.000000
21
149.915352
0
LINE
8
0
10
963.000000
20
149.915352
11
963.000000
21
130.997139
0
LINE
8
0
10
963.000000
20
130.997139
11
956.000000
21
130.997139
0
LINE
8
0
10
956.000000
20
130.997139
11
949.000000
21
130.997139
0
LINE
8
0
10
949.000000
20
130.997139
11
949.000000
21
179.565879
0
LINE
8
0
10
1172.000000
20
179.540949
11
1172.000000
21
228.084758
0
LINE
8
0
10
1172.000000
20
228.084758
11
1179.215586
21
227.790949
0
LINE
8
0
10
1179.215586
20
227.790949
11
1181.896230
21
227.721191
0
LINE
8
0
10
1181.896230
20
227.721191
11
1185.410332
21
227.141988
0
LINE
8
0
10
1185.410332
20
227.141988
11
1187.352898
21
225.299221
0
LINE
8
0
10
1187.352898
20
225.299221
11
1188.757593
21
222.912615
0
LINE
8
0
10
1188.757593
20
222.912615
11
1190.523571
21
219.296232
0
LINE
8
0
10
1190.523571
20
219.296232
11
1192.885317
21
214.190101
0
LINE
8
0
10
1192.885317
20
214.190101
11
1194.362878
21
210.997139
0
LINE
8
0
10
1194.362878
20
210.997139
11
1199.789309
21
199.350264
0
LINE
8
0
10
1199.789309
20
199.350264
11
1205.328251
21
187.497139
0
LINE
8
0
10
1205.328251
20
187.497139
11
1207.610739
21
182.621387
0
LINE
8
0
10
1207.610739
20
182.621387
11
1210.548290
21
176.342017
0
LINE
8
0
10
1210.548290
20
176.342017
11
1211.852581
21
173.550713
0
LINE
8
0
10
1211.852581
20
173.550713
11
1212.223657
21
172.754941
0
LINE
8
0
10
1212.223657
20
172.754941
11
1212.882046
21
171.514942
0
LINE
8
0
10
1212.882046
20
171.514942
11
1214.167961
21
170.240651
0
LINE
8
0
10
1214.167961
20
170.240651
11
1215.497513
21
170.596673
0
LINE
8
0
10
1215.497513
20
170.596673
11
1216.972443
21
172.610252
0
LINE
8
0
10
1216.972443
20
172.610252
11
1217.796219
21
174.247139
0
LINE
8
0
10
1217.796219
20
174.247139
11
1219.186376
21
177.239926
0
LINE
8
0
10
1219.186376
20
177.239926
11
1221.545168
21
182.323698
0
LINE
8
0
10
1221.545168
20
182.323698
11
1224.139805
21
187.936862
0
LINE
8
0
10
1224.139805
20
187.936862
11
1226.146738
21
192.342046
0
LINE
8
0
10
1226.146738
20
192.342046
11
1226.924794
21
194.174850
0
LINE
8
0
10
1226.924794
20
194.174850
11
1227.000000
21
194.449287
0
LINE
8
0
10
1227.000000
20
194.449287
11
1227.099177
21
194.735744
0
LINE
8
0
10
1227.099177
20
194.735744
11
1227.832800
21
196.430497
0
LINE
8
0
10
1227.832800
20
196.430497
11
1229.972456
21
201.118196
0
LINE
8
0
10
1229.972456
20
201.118196
11
1231.859188
21
205.161130
0
LINE
8
0
10
1231.859188
20
205.161130
11
1233.965071
21
209.667573
0
LINE
8
0
10
1233.965071
20
209.667573
11
1237.112882
21
216.487525
0
LINE
8
0
10
1237.112882
20
216.487525
11
1238.838658
21
220.280686
0
LINE
8
0
10
1238.838658
20
220.280686
11
1239.495751
21
221.747139
0
LINE
8
0
10
1239.495751
20
221.747139
11
1242.273127
21
227.997139
0
LINE
8
0
10
1242.273127
20
227.997139
11
1249.636564
21
227.997139
0
LINE
8
0
10
1249.636564
20
227.997139
11
1257.000000
21
227.997139
0
LINE
8
0
10
1257.000000
20
227.997139
11
1257.000000
21
179.497139
0
LINE
8
0
10
1257.000000
20
179.497139
11
1257.000000
21
130.997139
0
LINE
8
0
10
1257.000000
20
130.997139
11
1250.014452
21
130.997139
0
LINE
8
0
10
1250.014452
20
130.997139
11
1243.028904
21
130.997139
0
LINE
8
0
10
1243.028904
20
130.997139
11
1242.764452
21
161.747139
0
LINE
8
0
10
1242.764452
20
161.747139
11
1242.694010
21
167.920016
0
LINE
8
0
10
1242.694010
20
167.920016
11
1242.471425
21
178.874040
0
LINE
8
0
10
1242.471425
20
178.874040
11
1242.170342
21
187.137162
0
LINE
8
0
10
1242.170342
20
187.137162
11
1241.914986
21
190.965645
0
LINE
8
0
10
1241.914986
20
190.965645
11
1241.739238
21
192.155022
0
LINE
8
0
10
1241.739238
20
192.155022
11
1241.651424
21
192.293843
0
LINE
8
0
10
1241.651424
20
192.293843
11
1241.318207
21
191.910182
0
LINE
8
0
10
1241.318207
20
191.910182
11
1239.811146
21
189.301651
0
LINE
8
0
10
1239.811146
20
189.301651
11
1237.424499
21
184.703018
0
LINE
8
0
10
1237.424499
20
184.703018
11
1234.447766
21
178.672096
0
LINE
8
0
10
1234.447766
20
178.672096
11
1232.828585
21
175.293843
0
LINE
8
0
10
1232.828585
20
175.293843
11
1229.535080
21
168.357740
0
LINE
8
0
10
1229.535080
20
168.357740
11
1225.116365
21
159.055925
0
LINE
8
0
10
1225.116365
20
159.055925
11
1223.019450
21
154.644577
0
LINE
8
0
10
1223.019450
20
154.644577
11
1222.354540
21
153.247139
0
LINE
8
0
10
1222.354540
20
153.247139
11
1221.531778
21
151.544541
0
LINE
8
0
10
1221.531778
20
151.544541
11
1220.234943
21
149.325274
0
LINE
8
0
10
1220.234943
20
149.325274
11
1218.900498
21
148.301832
0
LINE
8
0
10
1218.900498
20
148.301832
11
1216.925405
21
148.011723
0
LINE
8
0
10
1216.925405
20
148.011723
11
1215.509166
21
147.997139
0
LINE
8
0
10
1215.509166
20
147.997139
11
1212.321835
21
148.135172
0
LINE
8
0
10
1212.321835
20
148.135172
11
1208.501966
21
149.185582
0
LINE
8
0
10
1208.501966
20
149.185582
11
1208.000000
21
150.062054
0
LINE
8
0
10
1208.000000
20
150.062054
11
1207.832190
21
150.581566
0
LINE
8
0
10
1207.832190
20
150.581566
11
1206.606904
21
153.434030
0
LINE
8
0
10
1206.606904
20
153.434030
11
1203.130807
21
161.008399
0
LINE
8
0
10
1203.130807
20
161.008399
11
1197.078867
21
173.793296
0
LINE
8
0
10
1197.078867
20
173.793296
11
1192.844366
21
182.507789
0
LINE
8
0
10
1192.844366
20
182.507789
11
1190.752335
21
186.663252
0
LINE
8
0
10
1190.752335
20
186.663252
11
1190.042808
21
187.997139
0
LINE
8
0
10
1190.042808
20
187.997139
11
1189.227729
21
189.356123
0
LINE
8
0
10
1189.227729
20
189.356123
11
1187.768162
21
191.220967
0
LINE
8
0
10
1187.768162
20
191.220967
11
1187.303444
21
191.497139
0
LINE
8
0
10
1187.303444
20
191.497139
11
1187.220226
21
191.340202
0
LINE
8
0
10
1187.220226
20
191.340202
11
1187.053255
21
190.131236
0
LINE
8
0
10
1187.053255
20
190.131236
11
1186.809678
21
186.312691
0
LINE
8
0
10
1186.809678
20
186.312691
11
1186.520746
21
178.129829
0
LINE
8
0
10
1186.520746
20
178.129829
11
1186.304901
21
167.323726
0
LINE
8
0
10
1186.304901
20
167.323726
11
1186.235337
21
161.247139
0
LINE
8
0
10
1186.235337
20
161.247139
11
1185.970674
21
130.997139
0
LINE
8
0
10
1185.970674
20
130.997139
11
1178.985337
21
130.997139
0
LINE
8
0
10
1178.985337
20
130.997139
11
1172.000000
21
130.997139
0
LINE
8
0
10
1172.000000
20
130.997139
11
1172.000000
21
179.540949
0
LINE
8
0
10
1293.287021
20
133.202824
11
1293.454801
21
133.807967
0
LINE
8
0
10
1293.454801
20
133.807967
11
1294.150410
21
135.959067
0
LINE
8
0
10
1294.150410
20
135.959067
11
1295.854144
21
140.873695
0
LINE
8
0
10
1295.854144
20
140.873695
11
1298.686933
21
148.718080
0
LINE
8
0
10
1298.686933
20
148.718080
11
1300.672838
21
154.020574
0
LINE
8
0
10
1300.672838
20
154.020574
11
1301.690928
21
156.614949
0
LINE
8
0
10
1301.690928
20
156.614949
11
1302.060259
21
157.497139
0
LINE
8
0
10
1302.060259
20
157.497139
11
1302.376709
21
158.286690
0
LINE
8
0
10
1302.376709
20
158.286690
11
1303.733013
21
161.869698
0
LINE
8
0
10
1303.733013
20
161.869698
11
1305.840794
21
167.550362
0
LINE
8
0
10
1305.840794
20
167.550362
11
1308.444379
21
174.639619
0
LINE
8
0
10
1308.444379
20
174.639619
11
1309.852199
21
178.497139
0
LINE
8
0
10
1309.852199
20
178.497139
11
1312.972810
21
187.058076
0
LINE
8
0
10
1312.972810
20
187.058076
11
1318.015484
21
200.869209
0
LINE
8
0
10
1318.015484
20
200.869209
11
1321.024234
21
209.096162
0
LINE
8
0
10
1321.024234
20
209.096162
11
1322.269902
21
212.497139
0
LINE
8
0
10
1322.269902
20
212.497139
11
1327.767926
21
227.497139
0
LINE
8
0
10
1327.767926
20
227.497139
11
1333.679526
21
227.789550
0
LINE
8
0
10
1333.679526
20
227.789550
11
1339.591127
21
228.081961
0
LINE
8
0
10
1339.591127
20
228.081961
11
1341.188127
21
223.289550
0
LINE
8
0
10
1341.188127
20
223.289550
11
1341.431863
21
222.580869
0
LINE
8
0
10
1341.431863
20
222.580869
11
1342.367123
21
219.949463
0
LINE
8
0
10
1342.367123
20
219.949463
11
1343.840574
21
215.860976
0
LINE
8
0
10
1343.840574
20
215.860976
11
1345.781586
21
210.509381
0
LINE
8
0
10
1345.781586
20
210.509381
11
1349.415279
21
200.537977
0
LINE
8
0
10
1349.415279
20
200.537977
11
1355.237451
21
184.632306
0
LINE
8
0
10
1355.237451
20
184.632306
11
1358.408441
21
175.997139
0
LINE
8
0
10
1358.408441
20
175.997139
11
1361.551614
21
167.439375
0
LINE
8
0
10
1361.551614
20
167.439375
11
1367.168024
21
152.106270
0
LINE
8
0
10
1367.168024
20
152.106270
11
1370.538041
21
142.868581
0
LINE
8
0
10
1370.538041
20
142.868581
11
1372.261679
21
138.121864
0
LINE
8
0
10
1372.261679
20
138.121864
11
1373.491004
21
134.712697
0
LINE
8
0
10
1373.491004
20
134.712697
11
1374.160975
21
132.819496
0
LINE
8
0
10
1374.160975
20
132.819496
11
1374.265878
21
132.497139
0
LINE
8
0
10
1374.265878
20
132.497139
11
1373.886118
21
132.092177
0
LINE
8
0
10
1373.886118
20
132.092177
11
1370.891505
21
131.439334
0
LINE
8
0
10
1370.891505
20
131.439334
11
1366.334587
21
131.101152
0
LINE
8
0
10
1366.334587
20
131.101152
11
1361.916749
21
131.203895
0
LINE
8
0
10
1361.916749
20
131.203895
11
1360.291668
21
131.460071
0
LINE
8
0
10
1360.291668
20
131.460071
11
1359.390663
21
131.819973
0
LINE
8
0
10
1359.390663
20
131.819973
11
1358.179894
21
133.040944
0
LINE
8
0
10
1358.179894
20
133.040944
11
1358.004817
21
133.766191
0
LINE
8
0
10
1358.004817
20
133.766191
11
1357.798472
21
135.010356
0
LINE
8
0
10
1357.798472
20
135.010356
11
1356.395072
21
139.795517
0
LINE
8
0
10
1356.395072
20
139.795517
11
1355.370869
21
142.747139
0
LINE
8
0
10
1355.370869
20
142.747139
11
1352.732104
21
149.997139
0
LINE
8
0
10
1352.732104
20
149.997139
11
1333.501756
21
149.997139
0
LINE
8
0
10
1333.501756
20
149.997139
11
1314.271409
21
149.997139
0
LINE
8
0
10
1314.271409
20
149.997139
11
1311.239812
21
140.747139
0
LINE
8
0
10
1311.239812
20
140.747139
11
1308.208216
21
131.497139
0
LINE
8
0
10
1308.208216
20
131.497139
11
1300.479059
21
131.202824
0
LINE
8
0
10
1300.479059
20
131.202824
11
1297.963272
21
131.112898
0
LINE
8
0
10
1297.963272
20
131.112898
11
1294.719521
21
131.112619
0
LINE
8
0
10
1294.719521
20
131.112619
11
1293.323521
21
131.500826
0
LINE
8
0
10
1293.323521
20
131.500826
11
1293.132057
21
132.456388
0
LINE
8
0
10
1293.132057
20
132.456388
11
1293.287021
21
133.202824
0
LINE
8
0
10
643.000000
20
179.497139
11
643.000000
21
227.997139
0
LINE
8
0
10
643.000000
20
227.997139
11
674.000000
21
227.997139
0
LINE
8
0
10
674.000000
20
227.997139
11
705.000000
21
227.997139
0
LINE
8
0
10
705.000000
20
227.997139
11
705.000000
21
221.497139
0
LINE
8
0
10
705.000000
20
221.497139
11
705.000000
21
214.997139
0
LINE
8
0
10
705.000000
20
214.997139
11
681.500000
21
214.997139
0
LINE
8
0
10
681.500000
20
214.997139
11
658.000000
21
214.997139
0
LINE
8
0
10
658.000000
20
214.997139
11
658.000000
21
200.497139
0
LINE
8
0
10
658.000000
20
200.497139
11
658.000000
21
185.997139
0
LINE
8
0
10
658.000000
20
185.997139
11
678.000000
21
185.997139
0
LINE
8
0
10
678.000000
20
185.997139
11
698.000000
21
185.997139
0
LINE
8
0
10
698.000000
20
185.997139
11
698.000000
21
179.497139
0
LINE
8
0
10
698.000000
20
179.497139
11
698.000000
21
172.997139
0
LINE
8
0
10
698.000000
20
172.997139
11
678.000000
21
172.997139
0
LINE
8
0
10
678.000000
20
172.997139
11
658.000000
21
172.997139
0
LINE
8
0
10
658.000000
20
172.997139
11
658.000000
21
158.497139
0
LINE
8
0
10
658.000000
20
158.497139
11
658.000000
21
143.997139
0
LINE
8
0
10
658.000000
20
143.997139
11
681.500000
21
143.997139
0
LINE
8
0
10
681.500000
20
143.997139
11
705.000000
21
143.997139
0
LINE
8
0
10
705.000000
20
143.997139
11
705.000000
21
137.497139
0
LINE
8
0
10
705.000000
20
137.497139
11
705.000000
21
130.997139
0
LINE
8
0
10
705.000000
20
130.997139
11
674.000000
21
130.997139
0
LINE
8
0
10
674.000000
20
130.997139
11
643.000000
21
130.997139
0
LINE
8
0
10
643.000000
20
130.997139
11
643.000000
21
179.497139
0
LINE
8
0
10
435.000000
20
179.497139
11
435.000000
21
227.997139
0
LINE
8
0
10
435.000000
20
227.997139
11
465.500000
21
227.997139
0
LINE
8
0
10
465.500000
20
227.997139
11
496.000000
21
227.997139
0
LINE
8
0
10
496.000000
20
227.997139
11
496.000000
21
221.515569
0
LINE
8
0
10
496.000000
20
221.515569
11
496.000000
21
215.034000
0
LINE
8
0
10
496.000000
20
215.034000
11
472.750000
21
214.765569
0
LINE
8
0
10
472.750000
20
214.765569
11
449.500000
21
214.497139
0
LINE
8
0
10
449.500000
20
214.497139
11
449.448050
21
201.497139
0
LINE
8
0
10
449.448050
20
201.497139
11
449.460147
21
196.350850
0
LINE
8
0
10
449.460147
20
196.350850
11
449.585712
21
190.172798
0
LINE
8
0
10
449.585712
20
190.172798
11
449.723952
21
187.763570
0
LINE
8
0
10
449.723952
20
187.763570
11
449.805039
21
187.247139
0
LINE
8
0
10
449.805039
20
187.247139
11
450.149645
21
186.922281
0
LINE
8
0
10
450.149645
20
186.922281
11
452.401584
21
186.436610
0
LINE
8
0
10
452.401584
20
186.436610
11
457.159967
21
186.143634
0
LINE
8
0
10
457.159967
20
186.143634
11
464.932161
21
186.012115
0
LINE
8
0
10
464.932161
20
186.012115
11
470.106989
21
185.997139
0
LINE
8
0
10
470.106989
20
185.997139
11
490.000000
21
185.997139
0
LINE
8
0
10
490.000000
20
185.997139
11
490.000000
21
179.497139
0
LINE
8
0
10
490.000000
20
179.497139
11
490.000000
21
172.997139
0
LINE
8
0
10
490.000000
20
172.997139
11
469.721484
21
172.997139
0
LINE
8
0
10
469.721484
20
172.997139
11
449.442968
21
172.997139
0
LINE
8
0
10
449.442968
20
172.997139
11
449.471484
21
158.747139
0
LINE
8
0
10
449.471484
20
158.747139
11
449.500000
21
144.497139
0
LINE
8
0
10
449.500000
20
144.497139
11
472.750000
21
144.228709
0
LINE
8
0
10
472.750000
20
144.228709
11
496.000000
21
143.960278
0
LINE
8
0
10
496.000000
20
143.960278
11
496.000000
21
137.478709
0
LINE
8
0
10
496.000000
20
137.478709
11
496.000000
21
130.997139
0
LINE
8
0
10
496.000000
20
130.997139
11
465.500000
21
130.997139
0
LINE
8
0
10
465.500000
20
130.997139
11
435.000000
21
130.997139
0
LINE
8
0
10
435.000000
20
130.997139
11
435.000000
21
179.497139
0
LINE
8
0
10
1505.769678
20
176.747139
11
1505.721964
21
185.993477
0
LINE
8
0
10
1505.721964
20
185.993477
11
1505.673400
21
202.751778
0
LINE
8
0
10
1505.673400
20
202.751778
11
1505.677229
21
213.019655
0
LINE
8
0
10
1505.677229
20
213.019655
11
1505.698590
21
218.396278
0
LINE
8
0
10
1505.698590
20
218.396278
11
1505.734773
21
222.365919
0
LINE
8
0
10
1505.734773
20
222.365919
11
1505.785588
21
224.729652
0
LINE
8
0
10
1505.785588
20
224.729652
11
1505.816422
21
225.247139
0
LINE
8
0
10
1505.816422
20
225.247139
11
1506.132845
21
227.997139
0
LINE
8
0
10
1506.132845
20
227.997139
11
1536.566422
21
227.997139
0
LINE
8
0
10
1536.566422
20
227.997139
11
1567.000000
21
227.997139
0
LINE
8
0
10
1567.000000
20
227.997139
11
1567.000000
21
221.515569
0
LINE
8
0
10
1567.000000
20
221.515569
11
1567.000000
21
215.034000
0
LINE
8
0
10
1567.000000
20
215.034000
11
1543.750000
21
214.765569
0
LINE
8
0
10
1543.750000
20
214.765569
11
1520.500000
21
214.497139
0
LINE
8
0
10
1520.500000
20
214.497139
11
1520.500000
21
200.497139
0
LINE
8
0
10
1520.500000
20
200.497139
11
1520.500000
21
186.497139
0
LINE
8
0
10
1520.500000
20
186.497139
11
1540.250000
21
186.225999
0
LINE
8
0
10
1540.250000
20
186.225999
11
1560.000000
21
185.954859
0
LINE
8
0
10
1560.000000
20
185.954859
11
1560.000000
21
179.497139
0
LINE
8
0
10
1560.000000
20
179.497139
11
1560.000000
21
173.039419
0
LINE
8
0
10
1560.000000
20
173.039419
11
1540.250000
21
172.768279
0
LINE
8
0
10
1540.250000
20
172.768279
11
1520.500000
21
172.497139
0
LINE
8
0
10
1520.500000
20
172.497139
11
1520.222543
21
158.247139
0
LINE
8
0
10
1520.222543
20
158.247139
11
1519.945087
21
143.997139
0
LINE
8
0
10
1519.945087
20
143.997139
11
1543.472543
21
143.997139
0
LINE
8
0
10
1543.472543
20
143.997139
11
1567.000000
21
143.997139
0
LINE
8
0
10
1567.000000
20
143.997139
11
1567.000000
21
137.497139
0
LINE
8
0
10
1567.000000
20
137.497139
11
1567.000000
21
130.997139
0
LINE
8
0
10
1567.000000
20
130.997139
11
1536.519678
21
130.997139
0
LINE
8
0
10
1536.519678
20
130.997139
11
1506.039356
21
130.997139
0
LINE
8
0
10
1506.039356
20
130.997139
11
1505.769678
21
176.747139
0
LINE
8
0
10
766.358499
20
132.044579
11
764.458029
21
132.771401
0
LINE
8
0
10
764.458029
20
132.771401
11
760.148526
21
135.170870
0
LINE
8
0
10
760.148526
20
135.170870
11
753.672861
21
140.209878
0
LINE
8
0
10
753.672861
20
140.209878
11
750.328143
21
143.809831
0
LINE
8
0
10
750.328143
20
143.809831
11
748.414301
21
146.534925
0
LINE
8
0
10
748.414301
20
146.534925
11
745.781633
21
152.401502
0
LINE
8
0
10
745.781633
20
152.401502
11
744.689823
21
158.172604
0
LINE
8
0
10
744.689823
20
158.172604
11
744.304686
21
163.152384
0
LINE
8
0
10
744.304686
20
163.152384
11
744.145455
21
169.336387
0
LINE
8
0
10
744.145455
20
169.336387
11
744.170749
21
176.980314
0
LINE
8
0
10
744.170749
20
176.980314
11
744.239661
21
181.429657
0
LINE
8
0
10
744.239661
20
181.429657
11
744.331344
21
185.931172
0
LINE
8
0
10
744.331344
20
185.931172
11
744.571365
21
193.544720
0
LINE
8
0
10
744.571365
20
193.544720
11
744.943546
21
199.555051
0
LINE
8
0
10
744.943546
20
199.555051
11
745.515831
21
204.261474
0
LINE
8
0
10
745.515831
20
204.261474
11
746.898086
21
209.531018
0
LINE
8
0
10
746.898086
20
209.531018
11
750.075612
21
214.786947
0
LINE
8
0
10
750.075612
20
214.786947
11
752.389188
21
217.329729
0
LINE
8
0
10
752.389188
20
217.329729
11
757.102598
21
221.238091
0
LINE
8
0
10
757.102598
20
221.238091
11
762.542591
21
224.572114
0
LINE
8
0
10
762.542591
20
224.572114
11
765.934099
21
226.077712
0
LINE
8
0
10
765.934099
20
226.077712
11
770.829239
21
227.327306
0
LINE
8
0
10
770.829239
20
227.327306
11
775.036082
21
227.719010
0
LINE
8
0
10
775.036082
20
227.719010
11
777.698055
21
227.841898
0
LINE
8
0
10
777.698055
20
227.841898
11
780.658674
21
227.939306
0
LINE
8
0
10
780.658674
20
227.939306
11
784.954440
21
227.872109
0
LINE
8
0
10
784.954440
20
227.872109
11
788.223785
21
227.232292
0
LINE
8
0
10
788.223785
20
227.232292
11
791.835757
21
225.751931
0
LINE
8
0
10
791.835757
20
225.751931
11
794.198055
21
224.612819
0
LINE
8
0
10
794.198055
20
224.612819
11
797.505368
21
222.800923
0
LINE
8
0
10
797.505368
20
222.800923
11
803.049924
21
218.471087
0
LINE
8
0
10
803.049924
20
218.471087
11
807.366454
21
212.945465
0
LINE
8
0
10
807.366454
20
212.945465
11
810.693435
21
205.918780
0
LINE
8
0
10
810.693435
20
205.918780
11
812.060368
21
201.747139
0
LINE
8
0
10
812.060368
20
201.747139
11
812.860389
21
198.997139
0
LINE
8
0
10
812.860389
20
198.997139
11
805.476989
21
198.997139
0
LINE
8
0
10
805.476989
20
198.997139
11
798.093589
21
198.997139
0
LINE
8
0
10
798.093589
20
198.997139
11
796.201633
21
203.247139
0
LINE
8
0
10
796.201633
20
203.247139
11
793.881365
21
207.264754
0
LINE
8
0
10
793.881365
20
207.264754
11
789.241153
21
212.136072
0
LINE
8
0
10
789.241153
20
212.136072
11
785.893113
21
214.119590
0
LINE
8
0
10
785.893113
20
214.119590
11
784.276087
21
214.605123
0
LINE
8
0
10
784.276087
20
214.605123
11
780.435036
21
215.081672
0
LINE
8
0
10
780.435036
20
215.081672
11
773.382321
21
214.504216
0
LINE
8
0
10
773.382321
20
214.504216
11
767.357586
21
211.965572
0
LINE
8
0
10
767.357586
20
211.965572
11
762.587384
21
207.561205
0
LINE
8
0
10
762.587384
20
207.561205
11
760.743533
21
204.689207
0
LINE
8
0
10
760.743533
20
204.689207
11
760.040720
21
203.283612
0
LINE
8
0
10
760.040720
20
203.283612
11
759.106702
21
200.206640
0
LINE
8
0
10
759.106702
20
200.206640
11
758.655788
21
195.137195
0
LINE
8
0
10
758.655788
20
195.137195
11
758.529460
21
188.845050
0
LINE
8
0
10
758.529460
20
188.845050
11
758.505145
21
183.003830
0
LINE
8
0
10
758.505145
20
183.003830
11
758.502763
21
179.497139
0
LINE
8
0
10
758.502763
20
179.497139
11
758.504093
21
175.964291
0
LINE
8
0
10
758.504093
20
175.964291
11
758.526376
21
170.089230
0
LINE
8
0
10
758.526376
20
170.089230
11
758.652301
21
163.773660
0
LINE
8
0
10
758.652301
20
163.773660
11
759.114510
21
158.671212
0
LINE
8
0
10
759.114510
20
158.671212
11
760.082976
21
155.485477
0
LINE
8
0
10
760.082976
20
155.485477
11
760.814979
21
153.971951
0
LINE
8
0
10
760.814979
20
153.971951
11
762.459391
21
151.305830
0
LINE
8
0
10
762.459391
20
151.305830
11
766.788550
21
147.043933
0
LINE
8
0
10
766.788550
20
147.043933
11
772.221858
21
144.349491
0
LINE
8
0
10
772.221858
20
144.349491
11
778.419758
21
143.390893
0
LINE
8
0
10
778.419758
20
143.390893
11
781.699319
21
143.615157
0
LINE
8
0
10
781.699319
20
143.615157
11
784.030279
21
144.128577
0
LINE
8
0
10
784.030279
20
144.128577
11
788.446985
21
146.180862
0
LINE
8
0
10
788.446985
20
146.180862
11
792.400706
21
149.486664
0
LINE
8
0
10
792.400706
20
149.486664
11
795.728198
21
153.909493
0
LINE
8
0
10
795.728198
20
153.909493
11
797.106095
21
156.497139
0
LINE
8
0
10
797.106095
20
156.497139
11
798.031776
21
158.141972
0
LINE
8
0
10
798.031776
20
158.141972
11
800.048981
21
159.362469
0
LINE
8
0
10
800.048981
20
159.362469
11
802.579107
21
159.692194
0
LINE
8
0
10
802.579107
20
159.692194
11
804.396789
21
159.801161
0
LINE
8
0
10
804.396789
20
159.801161
11
807.299490
21
159.929668
0
LINE
8
0
10
807.299490
20
159.929668
11
810.963216
21
159.727548
0
LINE
8
0
10
810.963216
20
159.727548
11
812.230412
21
158.450717
0
LINE
8
0
10
812.230412
20
158.450717
11
811.651927
21
155.544140
0
LINE
8
0
10
811.651927
20
155.544140
11
810.842694
21
153.306247
0
LINE
8
0
10
810.842694
20
153.306247
11
809.402228
21
149.849002
0
LINE
8
0
10
809.402228
20
149.849002
11
805.957290
21
143.838043
0
LINE
8
0
10
805.957290
20
143.838043
11
801.681072
21
138.941009
0
LINE
8
0
10
801.681072
20
138.941009
11
796.478445
21
135.048961
0
LINE
8
0
10
796.478445
20
135.048961
11
793.500000
21
133.445762
0
LINE
8
0
10
793.500000
20
133.445762
11
791.254379
21
132.689713
0
LINE
8
0
10
791.254379
20
132.689713
11
784.363654
21
131.602413
0
LINE
8
0
10
784.363654
20
131.602413
11
776.161997
21
131.179002
0
LINE
8
0
10
776.161997
20
131.179002
11
768.915458
21
131.536464
0
LINE
8
0
10
768.915458
20
131.536464
11
766.358499
21
132.044579
0
LINE
8
0
10
788.000000
20
33.485634
11
788.000000
21
63.069563
0
LINE
8
0
10
788.000000
20
63.069563
11
797.688916
21
62.783351
0
LINE
8
0
10
797.688916
20
62.783351
11
807.377833
21
62.497139
0
LINE
8
0
10
807.377833
20
62.497139
11
810.187453
21
51.497139
0
LINE
8
0
10
810.187453
20
51.497139
11
812.944689
21
40.717451
0
LINE
8
0
10
812.944689
20
40.717451
11
815.628364
21
30.247139
0
LINE
8
0
10
815.628364
20
30.247139
11
816.551583
21
26.763167
0
LINE
8
0
10
816.551583
20
26.763167
11
818.015038
21
22.084587
0
LINE
8
0
10
818.015038
20
22.084587
11
819.093045
21
20.244832
0
LINE
8
0
10
819.093045
20
20.244832
11
819.935836
21
20.987510
0
LINE
8
0
10
819.935836
20
20.987510
11
820.315974
21
22.247139
0
LINE
8
0
10
820.315974
20
22.247139
11
820.480491
21
22.903218
0
LINE
8
0
10
820.480491
20
22.903218
11
821.077643
21
25.216743
0
LINE
8
0
10
821.077643
20
25.216743
11
822.446477
21
30.436787
0
LINE
8
0
10
822.446477
20
30.436787
11
823.521069
21
34.497139
0
LINE
8
0
10
823.521069
20
34.497139
11
825.376257
21
41.664200
0
LINE
8
0
10
825.376257
20
41.664200
11
827.867069
21
51.928014
0
LINE
8
0
10
827.867069
20
51.928014
11
829.174722
21
57.784657
0
LINE
8
0
10
829.174722
20
57.784657
11
829.681991
21
60.247139
0
LINE
8
0
10
829.681991
20
60.247139
11
830.226999
21
62.997139
0
LINE
8
0
10
830.226999
20
62.997139
11
840.113499
21
62.997139
0
LINE
8
0
10
840.113499
20
62.997139
11
850.000000
21
62.997139
0
LINE
8
0
10
850.000000
20
62.997139
11
850.000000
21
33.497139
0
LINE
8
0
10
850.000000
20
33.497139
11
850.000000
21
3.997139
0
LINE
8
0
10
850.000000
20
3.997139
11
844.000000
21
3.997139
0
LINE
8
0
10
844.000000
20
3.997139
11
838.000000
21
3.997139
0
LINE
8
0
10
838.000000
20
3.997139
11
838.000000
21
24.997139
0
LINE
8
0
10
838.000000
20
24.997139
11
837.981923
21
29.228901
0
LINE
8
0
10
837.981923
20
29.228901
11
837.848048
21
36.737718
0
LINE
8
0
10
837.848048
20
36.737718
11
837.607743
21
42.410236
0
LINE
8
0
10
837.607743
20
42.410236
11
837.289647
21
45.570426
0
LINE
8
0
10
837.289647
20
45.570426
11
837.110376
21
45.997139
0
LINE
8
0
10
837.110376
20
45.997139
11
836.708915
21
45.815470
0
LINE
8
0
10
836.708915
20
45.815470
11
835.716139
21
43.824806
0
LINE
8
0
10
835.716139
20
43.824806
11
834.594242
21
40.202667
0
LINE
8
0
10
834.594242
20
40.202667
11
833.566069
21
36.438209
0
LINE
8
0
10
833.566069
20
36.438209
11
832.251128
21
31.385035
0
LINE
8
0
10
832.251128
20
31.385035
11
830.595781
21
24.864040
0
LINE
8
0
10
830.595781
20
24.864040
11
829.623694
21
20.997139
0
LINE
8
0
10
829.623694
20
20.997139
11
825.484463
21
4.497139
0
LINE
8
0
10
825.484463
20
4.497139
11
818.992232
21
4.497139
0
LINE
8
0
10
818.992232
20
4.497139
11
812.500000
21
4.497139
0
LINE
8
0
10
812.500000
20
4.497139
11
808.347541
21
20.497139
0
LINE
8
0
10
808.347541
20
20.497139
11
806.683235
21
27.044991
0
LINE
8
0
10
806.683235
20
27.044991
11
804.615632
21
35.633003
0
LINE
8
0
10
804.615632
20
35.633003
11
803.753362
21
39.566841
0
LINE
8
0
10
803.753362
20
39.566841
11
803.536268
21
40.747139
0
LINE
8
0
10
803.536268
20
40.747139
11
803.230099
21
42.272148
0
LINE
8
0
10
803.230099
20
42.272148
11
802.436563
21
44.358219
0
LINE
8
0
10
802.436563
20
44.358219
11
801.623617
21
44.987137
0
LINE
8
0
10
801.623617
20
44.987137
11
801.057885
21
43.952633
0
LINE
8
0
10
801.057885
20
43.952633
11
800.951044
21
42.747139
0
LINE
8
0
10
800.951044
20
42.747139
11
800.937106
21
41.927779
0
LINE
8
0
10
800.937106
20
41.927779
11
800.889265
21
38.406441
0
LINE
8
0
10
800.889265
20
38.406441
11
800.782969
21
29.663741
0
LINE
8
0
10
800.782969
20
29.663741
11
800.701044
21
22.497139
0
LINE
8
0
10
800.701044
20
22.497139
11
800.500000
21
4.497139
0
LINE
8
0
10
800.500000
20
4.497139
11
794.250000
21
4.199422
0
LINE
8
0
10
794.250000
20
4.199422
11
788.000000
21
3.901704
0
LINE
8
0
10
788.000000
20
3.901704
11
788.000000
21
33.485634
0
LINE
8
0
10
217.000000
20
33.497139
11
217.000000
21
62.997139
0
LINE
8
0
10
217.000000
20
62.997139
11
235.532119
21
62.997139
0
LINE
8
0
10
235.532119
20
62.997139
11
239.150522
21
62.989327
0
LINE
8
0
10
239.150522
20
62.989327
11
245.268784
21
62.908656
0
LINE
8
0
10
245.268784
20
62.908656
11
252.088138
21
62.534158
0
LINE
8
0
10
252.088138
20
62.534158
11
258.006237
21
61.307195
0
LINE
8
0
10
258.006237
20
61.307195
11
262.010804
21
58.893231
0
LINE
8
0
10
262.010804
20
58.893231
11
263.879940
21
57.119958
0
LINE
8
0
10
263.879940
20
57.119958
11
265.724044
21
54.750214
0
LINE
8
0
10
265.724044
20
54.750214
11
267.760223
21
49.144397
0
LINE
8
0
10
267.760223
20
49.144397
11
267.612018
21
43.127355
0
LINE
8
0
10
267.612018
20
43.127355
11
265.301416
21
37.591748
0
LINE
8
0
10
265.301416
20
37.591748
11
263.342088
21
35.283438
0
LINE
8
0
10
263.342088
20
35.283438
11
262.232721
21
34.154693
0
LINE
8
0
10
262.232721
20
34.154693
11
260.856428
21
32.230821
0
LINE
8
0
10
260.856428
20
32.230821
11
260.618784
21
30.841757
0
LINE
8
0
10
260.618784
20
30.841757
11
261.538263
21
30.095485
0
LINE
8
0
10
261.538263
20
30.095485
11
262.437697
21
29.997139
0
LINE
8
0
10
262.437697
20
29.997139
11
263.192762
21
29.754894
0
LINE
8
0
10
263.192762
20
29.754894
11
264.566670
21
27.867981
0
LINE
8
0
10
264.566670
20
27.867981
11
265.722944
21
24.224616
0
LINE
8
0
10
265.722944
20
24.224616
11
266.618379
21
18.960930
0
LINE
8
0
10
266.618379
20
18.960930
11
266.954782
21
15.764008
0
LINE
8
0
10
266.954782
20
15.764008
11
267.297204
21
12.416052
0
LINE
8
0
10
267.297204
20
12.416052
11
267.895181
21
8.140655
0
LINE
8
0
10
267.895181
20
8.140655
11
268.278636
21
6.267405
0
LINE
8
0
10
268.278636
20
6.267405
11
268.447438
21
5.747139
0
LINE
8
0
10
268.447438
20
5.747139
11
268.635189
21
5.219823
0
LINE
8
0
10
268.635189
20
5.219823
11
268.428679
21
4.501406
0
LINE
8
0
10
268.428679
20
4.501406
11
267.098282
21
4.135637
0
LINE
8
0
10
267.098282
20
4.135637
11
264.226553
21
4.007746
0
LINE
8
0
10
264.226553
20
4.007746
11
262.082238
21
3.997139
0
LINE
8
0
10
262.082238
20
3.997139
11
259.837894
21
4.007997
0
LINE
8
0
10
259.837894
20
4.007997
11
256.800130
21
4.170003
0
LINE
8
0
10
256.800130
20
4.170003
11
254.683375
21
5.139442
0
LINE
8
0
10
254.683375
20
5.139442
11
253.975249
21
6.562239
0
LINE
8
0
10
253.975249
20
6.562239
11
253.596578
21
8.061572
0
LINE
8
0
10
253.596578
20
8.061572
11
253.076953
21
12.827173
0
LINE
8
0
10
253.076953
20
12.827173
11
253.000000
21
15.506475
0
LINE
8
0
10
253.000000
20
15.506475
11
252.905034
21
18.808982
0
LINE
8
0
10
252.905034
20
18.808982
11
251.857682
21
22.948683
0
LINE
8
0
10
251.857682
20
22.948683
11
250.713547
21
24.543771
0
LINE
8
0
10
250.713547
20
24.543771
11
249.222706
21
26.019357
0
LINE
8
0
10
249.222706
20
26.019357
11
246.032182
21
27.061115
0
LINE
8
0
10
246.032182
20
27.061115
11
241.940451
21
27.291779
0
LINE
8
0
10
241.940451
20
27.291779
11
238.963547
21
27.349535
0
LINE
8
0
10
238.963547
20
27.349535
11
229.500000
21
27.497139
0
LINE
8
0
10
229.500000
20
27.497139
11
229.353998
21
18.497139
0
LINE
8
0
10
229.353998
20
18.497139
11
229.314568
21
15.653459
0
LINE
8
0
10
229.314568
20
15.653459
11
229.257883
21
11.118182
0
LINE
8
0
10
229.257883
20
11.118182
11
229.146019
21
7.925625
0
LINE
8
0
10
229.146019
20
7.925625
11
228.877283
21
5.843721
0
LINE
8
0
10
228.877283
20
5.843721
11
227.957586
21
4.295688
0
LINE
8
0
10
227.957586
20
4.295688
11
225.233126
21
3.952955
0
LINE
8
0
10
225.233126
20
3.952955
11
223.000000
21
3.997139
0
LINE
8
0
10
223.000000
20
3.997139
11
217.000000
21
3.997139
0
LINE
8
0
10
217.000000
20
3.997139
11
217.000000
21
33.497139
0
LINE
8
0
10
360.589859
20
3.719763
11
357.836185
21
4.488910
0
LINE
8
0
10
357.836185
20
4.488910
11
355.302229
21
5.718681
0
LINE
8
0
10
355.302229
20
5.718681
11
353.979804
21
6.515380
0
LINE
8
0
10
353.979804
20
6.515380
11
352.421215
21
6.454352
0
LINE
8
0
10
352.421215
20
6.454352
11
351.682002
21
5.576929
0
LINE
8
0
10
351.682002
20
5.576929
11
350.823080
21
4.770048
0
LINE
8
0
10
350.823080
20
4.770048
11
347.672164
21
4.117712
0
LINE
8
0
10
347.672164
20
4.117712
11
344.969633
21
4.187262
0
LINE
8
0
10
344.969633
20
4.187262
11
339.500000
21
4.497139
0
LINE
8
0
10
339.500000
20
4.497139
11
339.234895
21
33.747139
0
LINE
8
0
10
339.234895
20
33.747139
11
338.969791
21
62.997139
0
LINE
8
0
10
338.969791
20
62.997139
11
345.484895
21
62.997139
0
LINE
8
0
10
345.484895
20
62.997139
11
352.000000
21
62.997139
0
LINE
8
0
10
352.000000
20
62.997139
11
352.000000
21
52.946248
0
LINE
8
0
10
352.000000
20
52.946248
11
352.000000
21
42.895356
0
LINE
8
0
10
352.000000
20
42.895356
11
355.344391
21
45.446248
0
LINE
8
0
10
355.344391
20
45.446248
11
357.323274
21
46.761050
0
LINE
8
0
10
357.323274
20
46.761050
11
360.542613
21
47.762662
0
LINE
8
0
10
360.542613
20
47.762662
11
363.638712
21
47.976608
0
LINE
8
0
10
363.638712
20
47.976608
11
365.672946
21
47.997139
0
LINE
8
0
10
365.672946
20
47.997139
11
367.752074
21
47.975457
0
LINE
8
0
10
367.752074
20
47.975457
11
370.947536
21
47.737582
0
LINE
8
0
10
370.947536
20
47.737582
11
374.572112
21
46.572409
0
LINE
8
0
10
374.572112
20
46.572409
11
377.172591
21
45.006209
0
LINE
8
0
10
377.172591
20
45.006209
11
379.330235
21
43.402654
0
LINE
8
0
10
379.330235
20
43.402654
11
382.563109
21
39.747336
0
LINE
8
0
10
382.563109
20
39.747336
11
384.506817
21
35.128318
0
LINE
8
0
10
384.506817
20
35.128318
11
385.346222
21
29.106292
0
LINE
8
0
10
385.346222
20
29.106292
11
385.409580
21
25.431869
0
LINE
8
0
10
385.409580
20
25.431869
11
385.305273
21
22.407271
0
LINE
8
0
10
385.305273
20
22.407271
11
384.621616
21
17.402274
0
LINE
8
0
10
384.621616
20
17.402274
11
383.158278
21
13.388258
0
LINE
8
0
10
383.158278
20
13.388258
11
380.739709
21
9.883684
0
LINE
8
0
10
380.739709
20
9.883684
11
379.117355
21
8.171957
0
LINE
8
0
10
379.117355
20
8.171957
11
377.499976
21
6.839914
0
LINE
8
0
10
377.499976
20
6.839914
11
373.471941
21
4.793817
0
LINE
8
0
10
373.471941
20
4.793817
11
368.645555
21
3.634027
0
LINE
8
0
10
368.645555
20
3.634027
11
363.332037
21
3.435331
0
LINE
8
0
10
363.332037
20
3.435331
11
360.589859
21
3.719763
0
LINE
8
0
10
711.947471
20
4.265900
11
709.001415
21
5.953371
0
LINE
8
0
10
709.001415
20
5.953371
11
704.012573
21
10.411226
0
LINE
8
0
10
704.012573
20
10.411226
11
702.099230
21
13.065945
0
LINE
8
0
10
702.099230
20
13.065945
11
701.058098
21
15.138243
0
LINE
8
0
10
701.058098
20
15.138243
11
700.221759
21
18.961723
0
LINE
8
0
10
700.221759
20
18.961723
11
700.025217
21
22.690613
0
LINE
8
0
10
700.025217
20
22.690613
11
700.003738
21
25.089855
0
LINE
8
0
10
700.003738
20
25.089855
11
700.115667
21
28.741633
0
LINE
8
0
10
700.115667
20
28.741633
11
701.080384
21
34.859025
0
LINE
8
0
10
701.080384
20
34.859025
11
703.164414
21
39.700357
0
LINE
8
0
10
703.164414
20
39.700357
11
706.525561
21
43.632216
0
LINE
8
0
10
706.525561
20
43.632216
11
708.734366
21
45.371650
0
LINE
8
0
10
708.734366
20
45.371650
11
711.058803
21
46.839850
0
LINE
8
0
10
711.058803
20
46.839850
11
715.768668
21
48.165200
0
LINE
8
0
10
715.768668
20
48.165200
11
719.161626
21
48.305868
0
LINE
8
0
10
719.161626
20
48.305868
11
722.197202
21
48.231567
0
LINE
8
0
10
722.197202
20
48.231567
11
726.628164
21
47.391123
0
LINE
8
0
10
726.628164
20
47.391123
11
728.221989
21
46.587342
0
LINE
8
0
10
728.221989
20
46.587342
11
729.742307
21
45.678337
0
LINE
8
0
10
729.742307
20
45.678337
11
731.871875
21
45.196081
0
LINE
8
0
10
731.871875
20
45.196081
11
733.017938
21
46.823135
0
LINE
8
0
10
733.017938
20
46.823135
11
733.458000
21
50.953465
0
LINE
8
0
10
733.458000
20
50.953465
11
733.500000
21
54.080474
0
LINE
8
0
10
733.500000
20
54.080474
11
733.500000
21
62.497139
0
LINE
8
0
10
733.500000
20
62.497139
11
739.750000
21
62.794856
0
LINE
8
0
10
739.750000
20
62.794856
11
746.000000
21
63.092574
0
LINE
8
0
10
746.000000
20
63.092574
11
746.000000
21
33.544856
0
LINE
8
0
10
746.000000
20
33.544856
11
746.000000
21
3.997139
0
LINE
8
0
10
746.000000
20
3.997139
11
740.000000
21
3.997139
0
LINE
8
0
10
740.000000
20
3.997139
11
738.402344
21
4.013741
0
LINE
8
0
10
738.402344
20
4.013741
11
736.050781
21
4.164131
0
LINE
8
0
10
736.050781
20
4.164131
11
734.281250
21
4.770576
0
LINE
8
0
10
734.281250
20
4.770576
11
734.000000
21
5.497139
0
LINE
8
0
10
734.000000
20
5.497139
11
733.871718
21
6.143341
0
LINE
8
0
10
733.871718
20
6.143341
11
732.969496
21
6.865446
0
LINE
8
0
10
732.969496
20
6.865446
11
730.622195
21
6.536322
0
LINE
8
0
10
730.622195
20
6.536322
11
728.877042
21
5.385863
0
LINE
8
0
10
728.877042
20
5.385863
11
727.634680
21
4.672049
0
LINE
8
0
10
727.634680
20
4.672049
11
723.437291
21
3.672514
0
LINE
8
0
10
723.437291
20
3.672514
11
718.241235
21
3.328773
0
LINE
8
0
10
718.241235
20
3.328773
11
713.588373
21
3.742826
0
LINE
8
0
10
713.588373
20
3.742826
11
711.947471
21
4.265900
0
LINE
8
0
10
866.967461
20
148.747139
11
866.956486
21
152.802583
0
LINE
8
0
10
866.956486
20
152.802583
11
866.912031
21
162.766792
0
LINE
8
0
10
866.912031
20
162.766792
11
866.804465
21
179.777803
0
LINE
8
0
10
866.804465
20
179.777803
11
866.717461
21
190.497139
0
LINE
8
0
10
866.717461
20
190.497139
11
866.500000
21
214.497139
0
LINE
8
0
10
866.500000
20
214.497139
11
853.250000
21
214.776164
0
LINE
8
0
10
853.250000
20
214.776164
11
840.000000
21
215.055189
0
LINE
8
0
10
840.000000
20
215.055189
11
840.000000
21
221.526164
0
LINE
8
0
10
840.000000
20
221.526164
11
840.000000
21
227.997139
0
LINE
8
0
10
840.000000
20
227.997139
11
874.000000
21
227.997139
0
LINE
8
0
10
874.000000
20
227.997139
11
908.000000
21
227.997139
0
LINE
8
0
10
908.000000
20
227.997139
11
908.000000
21
221.497139
0
LINE
8
0
10
908.000000
20
221.497139
11
908.000000
21
214.997139
0
LINE
8
0
10
908.000000
20
214.997139
11
894.478691
21
214.997139
0
LINE
8
0
10
894.478691
20
214.997139
11
880.957381
21
214.997139
0
LINE
8
0
10
880.957381
20
214.997139
11
881.000414
21
175.247139
0
LINE
8
0
10
881.000414
20
175.247139
11
881.008616
21
167.216280
0
LINE
8
0
10
881.008616
20
167.216280
11
881.020708
21
152.676826
0
LINE
8
0
10
881.020708
20
152.676826
11
881.025663
21
143.782515
0
LINE
8
0
10
881.025663
20
143.782515
11
881.026843
21
139.133247
0
LINE
8
0
10
881.026843
20
139.133247
11
881.026222
21
135.709175
0
LINE
8
0
10
881.026222
20
135.709175
11
881.023714
21
133.682564
0
LINE
8
0
10
881.023714
20
133.682564
11
881.021724
21
133.247139
0
LINE
8
0
10
881.021724
20
133.247139
11
880.842135
21
132.002476
0
LINE
8
0
10
880.842135
20
132.002476
11
879.110635
21
131.150865
0
LINE
8
0
10
879.110635
20
131.150865
11
876.191823
21
131.006989
0
LINE
8
0
10
876.191823
20
131.006989
11
874.000000
21
130.997139
0
LINE
8
0
10
874.000000
20
130.997139
11
867.000000
21
130.997139
0
LINE
8
0
10
867.000000
20
130.997139
11
866.967461
21
148.747139
0
LINE
8
0
10
1425.760972
20
172.747139
11
1425.500000
21
214.497139
0
LINE
8
0
10
1425.500000
20
214.497139
11
1412.339435
21
214.775541
0
LINE
8
0
10
1412.339435
20
214.775541
11
1399.178869
21
215.053944
0
LINE
8
0
10
1399.178869
20
215.053944
11
1399.221675
21
221.525541
0
LINE
8
0
10
1399.221675
20
221.525541
11
1399.264481
21
227.997139
0
LINE
8
0
10
1399.264481
20
227.997139
11
1433.132240
21
227.997139
0
LINE
8
0
10
1433.132240
20
227.997139
11
1467.000000
21
227.997139
0
LINE
8
0
10
1467.000000
20
227.997139
11
1467.000000
21
221.526164
0
LINE
8
0
10
1467.000000
20
221.526164
11
1467.000000
21
215.055189
0
LINE
8
0
10
1467.000000
20
215.055189
11
1453.750000
21
214.776164
0
LINE
8
0
10
1453.750000
20
214.776164
11
1440.500000
21
214.497139
0
LINE
8
0
10
1440.500000
20
214.497139
11
1440.239028
21
172.747139
0
LINE
8
0
10
1440.239028
20
172.747139
11
1439.978057
21
130.997139
0
LINE
8
0
10
1439.978057
20
130.997139
11
1433.000000
21
130.997139
0
LINE
8
0
10
1433.000000
20
130.997139
11
1426.021943
21
130.997139
0
LINE
8
0
10
1426.021943
20
130.997139
11
1425.760972
21
172.747139
0
LINE
8
0
10
544.000000
20
179.497139
11
544.000000
21
227.997139
0
LINE
8
0
10
544.000000
20
227.997139
11
551.000000
21
227.997139
0
LINE
8
0
10
551.000000
20
227.997139
11
558.000000
21
227.997139
0
LINE
8
0
10
558.000000
20
227.997139
11
558.000000
21
185.997139
0
LINE
8
0
10
558.000000
20
185.997139
11
558.000000
21
143.997139
0
LINE
8
0
10
558.000000
20
143.997139
11
581.500000
21
143.997139
0
LINE
8
0
10
581.500000
20
143.997139
11
605.000000
21
143.997139
0
LINE
8
0
10
605.000000
20
143.997139
11
605.000000
21
137.497139
0
LINE
8
0
10
605.000000
20
137.497139
11
605.000000
21
130.997139
0
LINE
8
0
10
605.000000
20
130.997139
11
574.500000
21
130.997139
0
LINE
8
0
10
574.500000
20
130.997139
11
544.000000
21
130.997139
0
LINE
8
0
10
544.000000
20
130.997139
11
544.000000
21
179.497139
0
LINE
8
0
10
1159.971019
20
3.918794
11
1156.982672
21
4.819679
0
LINE
8
0
10
1156.982672
20
4.819679
11
1151.939791
21
8.139471
0
LINE
8
0
10
1151.939791
20
8.139471
11
1148.202459
21
13.049012
0
LINE
8
0
10
1148.202459
20
13.049012
11
1145.843233
21
19.027168
0
LINE
8
0
10
1145.843233
20
19.027168
11
1144.934670
21
25.552805
0
LINE
8
0
10
1144.934670
20
25.552805
11
1145.549328
21
32.104788
0
LINE
8
0
10
1145.549328
20
32.104788
11
1147.759764
21
38.161983
0
LINE
8
0
10
1147.759764
20
38.161983
11
1151.638536
21
43.203255
0
LINE
8
0
10
1151.638536
20
43.203255
11
1154.226222
21
45.180066
0
LINE
8
0
10
1154.226222
20
45.180066
11
1157.451358
21
46.804398
0
LINE
8
0
10
1157.451358
20
46.804398
11
1165.067968
21
48.666881
0
LINE
8
0
10
1165.067968
20
48.666881
11
1173.233998
21
48.679560
0
LINE
8
0
10
1173.233998
20
48.679560
11
1180.742608
21
46.840562
0
LINE
8
0
10
1180.742608
20
46.840562
11
1183.873244
21
45.226098
0
LINE
8
0
10
1183.873244
20
45.226098
11
1186.749457
21
42.803703
0
LINE
8
0
10
1186.749457
20
42.803703
11
1191.003260
21
36.011855
0
LINE
8
0
10
1191.003260
20
36.011855
11
1192.989620
21
27.744665
0
LINE
8
0
10
1192.989620
20
27.744665
11
1192.385401
21
19.347014
0
LINE
8
0
10
1192.385401
20
19.347014
11
1191.010845
21
15.519541
0
LINE
8
0
10
1191.010845
20
15.519541
11
1188.599915
21
11.572223
0
LINE
8
0
10
1188.599915
20
11.572223
11
1183.873012
21
6.818927
0
LINE
8
0
10
1183.873012
20
6.818927
11
1180.315120
21
4.733288
0
LINE
8
0
10
1180.315120
20
4.733288
11
1178.500000
21
4.093806
0
LINE
8
0
10
1178.500000
20
4.093806
11
1174.545929
21
3.413294
0
LINE
8
0
10
1174.545929
20
3.413294
11
1164.600323
21
3.319355
0
LINE
8
0
10
1164.600323
20
3.319355
11
1159.971019
21
3.918794
0
LINE
8
0
10
1643.728459
20
4.323991
11
1641.151530
21
5.326791
0
LINE
8
0
10
1641.151530
20
5.326791
11
1636.669035
21
8.245657
0
LINE
8
0
10
1636.669035
20
8.245657
11
1633.138370
21
12.174931
0
LINE
8
0
10
1633.138370
20
12.174931
11
1630.627549
21
16.865877
0
LINE
8
0
10
1630.627549
20
16.865877
11
1629.204588
21
22.069760
0
LINE
8
0
10
1629.204588
20
22.069760
11
1628.937501
21
27.537845
0
LINE
8
0
10
1628.937501
20
27.537845
11
1629.894303
21
33.021397
0
LINE
8
0
10
1629.894303
20
33.021397
11
1632.143008
21
38.271680
0
LINE
8
0
10
1632.143008
20
38.271680
11
1633.773079
21
40.731616
0
LINE
8
0
10
1633.773079
20
40.731616
11
1635.755997
21
43.012372
0
LINE
8
0
10
1635.755997
20
43.012372
11
1640.468738
21
46.422991
0
LINE
8
0
10
1640.468738
20
46.422991
11
1646.306400
21
48.341499
0
LINE
8
0
10
1646.306400
20
48.341499
11
1653.423842
21
48.818787
0
LINE
8
0
10
1653.423842
20
48.818787
11
1657.510874
21
48.532878
0
LINE
8
0
10
1657.510874
20
48.532878
11
1661.936220
21
47.701129
0
LINE
8
0
10
1661.936220
20
47.701129
11
1669.280039
21
44.152003
0
LINE
8
0
10
1669.280039
20
44.152003
11
1674.398828
21
38.334057
0
LINE
8
0
10
1674.398828
20
38.334057
11
1677.033549
21
30.541708
0
LINE
8
0
10
1677.033549
20
30.541708
11
1677.338434
21
25.997139
0
LINE
8
0
10
1677.338434
20
25.997139
11
1677.223953
21
23.221294
0
LINE
8
0
10
1677.223953
20
23.221294
11
1676.433592
21
18.431752
0
LINE
8
0
10
1676.433592
20
18.431752
11
1674.772208
21
14.358063
0
LINE
8
0
10
1674.772208
20
14.358063
11
1672.092810
21
10.639809
0
LINE
8
0
10
1672.092810
20
10.639809
11
1670.325422
21
8.801341
0
LINE
8
0
10
1670.325422
20
8.801341
11
1667.949906
21
6.927047
0
LINE
8
0
10
1667.949906
20
6.927047
11
1661.906214
21
4.224622
0
LINE
8
0
10
1661.906214
20
4.224622
11
1654.777831
21
3.024626
0
LINE
8
0
10
1654.777831
20
3.024626
11
1647.331384
21
3.456112
0
LINE
8
0
10
1647.331384
20
3.456112
11
1643.728459
21
4.323991
0
LINE
8
0
10
409.000000
20
4.172088
11
406.497584
21
5.081245
0
LINE
8
0
10
406.497584
20
5.081245
11
402.119474
21
7.826567
0
LINE
8
0
10
402.119474
20
7.826567
11
398.635461
21
11.606259
0
LINE
8
0
10
398.635461
20
11.606259
11
396.115708
21
16.178346
0
LINE
8
0
10
396.115708
20
16.178346
11
394.630378
21
21.300856
0
LINE
8
0
10
394.630378
20
21.300856
11
394.249633
21
26.731814
0
LINE
8
0
10
394.249633
20
26.731814
11
395.043638
21
32.229248
0
LINE
8
0
10
395.043638
20
32.229248
11
397.082554
21
37.551183
0
LINE
8
0
10
397.082554
20
37.551183
11
398.590780
21
40.070723
0
LINE
8
0
10
398.590780
20
40.070723
11
400.516990
21
42.415287
0
LINE
8
0
10
400.516990
20
42.415287
11
405.545547
21
46.061621
0
LINE
8
0
10
405.545547
20
46.061621
11
411.916271
21
48.240272
0
LINE
8
0
10
411.916271
20
48.240272
11
419.357941
21
48.858487
0
LINE
8
0
10
419.357941
20
48.858487
11
423.395625
21
48.553447
0
LINE
8
0
10
423.395625
20
48.553447
11
425.929193
21
48.089511
0
LINE
8
0
10
425.929193
20
48.089511
11
430.576750
21
46.377762
0
LINE
8
0
10
430.576750
20
46.377762
11
434.594081
21
43.736407
0
LINE
8
0
10
434.594081
20
43.736407
11
437.896237
21
40.304123
0
LINE
8
0
10
437.896237
20
40.304123
11
440.398270
21
36.219587
0
LINE
8
0
10
440.398270
20
36.219587
11
442.015232
21
31.621475
0
LINE
8
0
10
442.015232
20
31.621475
11
442.662174
21
26.648464
0
LINE
8
0
10
442.662174
20
26.648464
11
442.254149
21
21.439232
0
LINE
8
0
10
442.254149
20
21.439232
11
441.627977
21
18.789369
0
LINE
8
0
10
441.627977
20
18.789369
11
440.830755
21
16.542638
0
LINE
8
0
10
440.830755
20
16.542638
11
438.540860
21
12.493444
0
LINE
8
0
10
438.540860
20
12.493444
11
433.596588
21
7.633010
0
LINE
8
0
10
433.596588
20
7.633010
11
424.828390
21
3.704871
0
LINE
8
0
10
424.828390
20
3.704871
11
414.469955
21
3.095408
0
LINE
8
0
10
414.469955
20
3.095408
11
409.000000
21
4.172088
0
LINE
8
0
10
295.500000
20
3.923908
11
291.796921
21
5.312714
0
LINE
8
0
10
291.796921
20
5.312714
11
285.204858
21
10.438042
0
LINE
8
0
10
285.204858
20
10.438042
11
282.864292
21
13.748168
0
LINE
8
0
10
282.864292
20
13.748168
11
281.671252
21
16.267460
0
LINE
8
0
10
281.671252
20
16.267460
11
280.737324
21
20.316639
0
LINE
8
0
10
280.737324
20
20.316639
11
280.531231
21
24.024075
0
LINE
8
0
10
280.531231
20
24.024075
11
280.513570
21
26.393057
0
LINE
8
0
10
280.513570
20
26.393057
11
280.534786
21
28.921881
0
LINE
8
0
10
280.534786
20
28.921881
11
280.746514
21
32.631941
0
LINE
8
0
10
280.746514
20
32.631941
11
281.834652
21
36.347045
0
LINE
8
0
10
281.834652
20
36.347045
11
283.343901
21
38.771889
0
LINE
8
0
10
283.343901
20
38.771889
11
284.994402
21
40.958855
0
LINE
8
0
10
284.994402
20
40.958855
11
288.526697
21
44.419244
0
LINE
8
0
10
288.526697
20
44.419244
11
292.571857
21
46.780954
0
LINE
8
0
10
292.571857
20
46.780954
11
297.375253
21
48.187243
0
LINE
8
0
10
297.375253
20
48.187243
11
300.137968
21
48.576871
0
LINE
8
0
10
300.137968
20
48.576871
11
303.309579
21
48.785241
0
LINE
8
0
10
303.309579
20
48.785241
11
309.150841
21
48.485491
0
LINE
8
0
10
309.150841
20
48.485491
11
314.286857
21
47.260123
0
LINE
8
0
10
314.286857
20
47.260123
11
318.674467
21
45.144776
0
LINE
8
0
10
318.674467
20
45.144776
11
322.270512
21
42.175093
0
LINE
8
0
10
322.270512
20
42.175093
11
325.031835
21
38.386714
0
LINE
8
0
10
325.031835
20
38.386714
11
326.915276
21
33.815282
0
LINE
8
0
10
326.915276
20
33.815282
11
327.877677
21
28.496436
0
LINE
8
0
10
327.877677
20
28.496436
11
328.000000
21
25.567872
0
LINE
8
0
10
328.000000
20
25.567872
11
327.889769
21
22.998152
0
LINE
8
0
10
327.889769
20
22.998152
11
327.025675
21
18.254136
0
LINE
8
0
10
327.025675
20
18.254136
11
324.209228
21
12.208312
0
LINE
8
0
10
324.209228
20
12.208312
11
317.864625
21
6.373513
0
LINE
8
0
10
317.864625
20
6.373513
11
308.907976
21
3.402358
0
LINE
8
0
10
308.907976
20
3.402358
11
303.568499
21
3.099500
0
LINE
8
0
10
303.568499
20
3.099500
11
299.107622
21
3.383894
0
LINE
8
0
10
299.107622
20
3.383894
11
295.500000
21
3.923908
0
LINE
8
0
10
1443.564292
20
4.120548
11
1441.479552
21
4.746165
0
LINE
8
0
10
1441.479552
20
4.746165
11
1437.622992
21
6.722092
0
LINE
8
0
10
1437.622992
20
6.722092
11
1434.268686
21
9.591536
0
LINE
8
0
10
1434.268686
20
9.591536
11
1431.518671
21
13.267211
0
LINE
8
0
10
1431.518671
20
13.267211
11
1430.402158
21
15.380109
0
LINE
8
0
10
1430.402158
20
15.380109
11
1428.859143
21
19.663930
0
LINE
8
0
10
1428.859143
20
19.663930
11
1428.207844
21
28.363495
0
LINE
8
0
10
1428.207844
20
28.363495
11
1430.619681
21
36.612478
0
LINE
8
0
10
1430.619681
20
36.612478
11
1435.874853
21
43.659106
0
LINE
8
0
10
1435.874853
20
43.659106
11
1439.500000
21
46.496606
0
LINE
8
0
10
1439.500000
20
46.496606
11
1441.396179
21
47.468036
0
LINE
8
0
10
1441.396179
20
47.468036
11
1445.304397
21
48.253394
0
LINE
8
0
10
1445.304397
20
48.253394
11
1449.353517
21
48.445114
0
LINE
8
0
10
1449.353517
20
48.445114
11
1452.000000
21
48.471248
0
LINE
8
0
10
1452.000000
20
48.471248
11
1454.971639
21
48.464995
0
LINE
8
0
10
1454.971639
20
48.464995
11
1459.233015
21
48.277641
0
LINE
8
0
10
1459.233015
20
48.277641
11
1463.414467
21
47.144150
0
LINE
8
0
10
1463.414467
20
47.144150
11
1466.279359
21
45.497139
0
LINE
8
0
10
1466.279359
20
45.497139
11
1468.518791
21
43.885297
0
LINE
8
0
10
1468.518791
20
43.885297
11
1472.143421
21
39.979589
0
LINE
8
0
10
1472.143421
20
39.979589
11
1474.597363
21
35.225939
0
LINE
8
0
10
1474.597363
20
35.225939
11
1475.842566
21
29.698058
0
LINE
8
0
10
1475.842566
20
29.698058
11
1476.000000
21
26.666814
0
LINE
8
0
10
1476.000000
20
26.666814
11
1475.917844
21
23.731147
0
LINE
8
0
10
1475.917844
20
23.731147
11
1475.226553
21
18.659859
0
LINE
8
0
10
1475.226553
20
18.659859
11
1473.756963
21
14.437947
0
LINE
8
0
10
1473.756963
20
14.437947
11
1471.418284
21
10.804582
0
LINE
8
0
10
1471.418284
20
10.804582
11
1469.894664
21
9.127098
0
LINE
8
0
10
1469.894664
20
9.127098
11
1467.613659
21
7.230756
0
LINE
8
0
10
1467.613659
20
7.230756
11
1461.913259
21
4.475293
0
LINE
8
0
10
1461.913259
20
4.475293
11
1455.058241
21
3.171856
0
LINE
8
0
10
1455.058241
20
3.171856
11
1447.484485
21
3.403324
0
LINE
8
0
10
1447.484485
20
3.403324
11
1443.564292
21
4.120548
0
LINE
8
0
10
1381.221789
20
4.442990
11
1378.415655
21
5.498570
0
LINE
8
0
10
1378.415655
20
5.498570
11
1373.614377
21
8.321451
0
LINE
8
0
10
1373.614377
20
8.321451
11
1369.934324
21
12.052834
0
LINE
8
0
10
1369.934324
20
12.052834
11
1367.423380
21
16.644165
0
LINE
8
0
10
1367.423380
20
16.644165
11
1366.621288
21
19.247139
0
LINE
8
0
10
1366.621288
20
19.247139
11
1365.961896
21
21.997139
0
LINE
8
0
10
1365.961896
20
21.997139
11
1372.505699
21
21.997139
0
LINE
8
0
10
1372.505699
20
21.997139
11
1374.503998
21
21.983892
0
LINE
8
0
10
1374.503998
20
21.983892
11
1377.265296
21
21.816812
0
LINE
8
0
10
1377.265296
20
21.816812
11
1379.279243
21
20.909188
0
LINE
8
0
10
1379.279243
20
20.909188
11
1379.950071
21
19.628462
0
LINE
8
0
10
1379.950071
20
19.628462
11
1380.719291
21
18.001197
0
LINE
8
0
10
1380.719291
20
18.001197
11
1382.927119
21
15.475690
0
LINE
8
0
10
1382.927119
20
15.475690
11
1386.146473
21
13.862583
0
LINE
8
0
10
1386.146473
20
13.862583
11
1390.520166
21
13.090318
0
LINE
8
0
10
1390.520166
20
13.090318
11
1393.184519
21
12.997139
0
LINE
8
0
10
1393.184519
20
12.997139
11
1396.254736
21
13.103833
0
LINE
8
0
10
1396.254736
20
13.103833
11
1401.333282
21
13.886542
0
LINE
8
0
10
1401.333282
20
13.886542
11
1403.035173
21
14.515328
0
LINE
8
0
10
1403.035173
20
14.515328
11
1404.993739
21
16.021456
0
LINE
8
0
10
1404.993739
20
16.021456
11
1406.943492
21
20.286285
0
LINE
8
0
10
1406.943492
20
20.286285
11
1406.659295
21
22.442618
0
LINE
8
0
10
1406.659295
20
22.442618
11
1406.126863
21
23.296922
0
LINE
8
0
10
1406.126863
20
23.296922
11
1403.906112
21
24.967253
0
LINE
8
0
10
1403.906112
20
24.967253
11
1400.296042
21
26.521177
0
LINE
8
0
10
1400.296042
20
26.521177
11
1395.478892
21
27.880252
0
LINE
8
0
10
1395.478892
20
27.880252
11
1392.674612
21
28.462207
0
LINE
8
0
10
1392.674612
20
28.462207
11
1389.507794
21
29.076162
0
LINE
8
0
10
1389.507794
20
29.076162
11
1383.996281
21
30.312017
0
LINE
8
0
10
1383.996281
20
30.312017
11
1377.591829
21
32.295427
0
LINE
8
0
10
1377.591829
20
32.295427
11
1371.990858
21
35.489276
0
LINE
8
0
10
1371.990858
20
35.489276
11
1368.995102
21
39.740194
0
LINE
8
0
10
1368.995102
20
39.740194
11
1368.217531
21
42.408403
0
LINE
8
0
10
1368.217531
20
42.408403
11
1367.862126
21
44.753004
0
LINE
8
0
10
1367.862126
20
44.753004
11
1367.936953
21
49.129744
0
LINE
8
0
10
1367.936953
20
49.129744
11
1369.015724
21
53.047523
0
LINE
8
0
10
1369.015724
20
53.047523
11
1371.046154
21
56.455529
0
LINE
8
0
10
1371.046154
20
56.455529
11
1373.975962
21
59.302947
0
LINE
8
0
10
1373.975962
20
59.302947
11
1377.752864
21
61.538966
0
LINE
8
0
10
1377.752864
20
61.538966
11
1382.324576
21
63.112772
0
LINE
8
0
10
1382.324576
20
63.112772
11
1387.638816
21
63.973552
0
LINE
8
0
10
1387.638816
20
63.973552
11
1390.558045
21
64.120678
0
LINE
8
0
10
1390.558045
20
64.120678
11
1393.952235
21
64.109000
0
LINE
8
0
10
1393.952235
20
64.109000
11
1399.729524
21
63.620891
0
LINE
8
0
10
1399.729524
20
63.620891
11
1406.658489
21
61.529067
0
LINE
8
0
10
1406.658489
20
61.529067
11
1410.734853
21
59.074251
0
LINE
8
0
10
1410.734853
20
59.074251
11
1413.691778
21
56.132395
0
LINE
8
0
10
1413.691778
20
56.132395
11
1417.078984
21
50.434176
0
LINE
8
0
10
1417.078984
20
50.434176
11
1417.863287
21
47.230977
0
LINE
8
0
10
1417.863287
20
47.230977
11
1417.613990
21
46.181579
0
LINE
8
0
10
1417.613990
20
46.181579
11
1416.927097
21
45.800232
0
LINE
8
0
10
1416.927097
20
45.800232
11
1413.540269
21
45.250008
0
LINE
8
0
10
1413.540269
20
45.250008
11
1411.257480
21
45.148900
0
LINE
8
0
10
1411.257480
20
45.148900
11
1409.418968
21
45.140307
0
LINE
8
0
10
1409.418968
20
45.140307
11
1406.913496
21
45.305298
0
LINE
8
0
10
1406.913496
20
45.305298
11
1404.964352
21
46.492384
0
LINE
8
0
10
1404.964352
20
46.492384
11
1404.000000
21
48.286748
0
LINE
8
0
10
1404.000000
20
48.286748
11
1403.193822
21
49.743700
0
LINE
8
0
10
1403.193822
20
49.743700
11
1401.094293
21
51.940729
0
LINE
8
0
10
1401.094293
20
51.940729
11
1398.113948
21
53.286335
0
LINE
8
0
10
1398.113948
20
53.286335
11
1393.975282
21
53.905807
0
LINE
8
0
10
1393.975282
20
53.905807
11
1391.384859
21
53.982397
0
LINE
8
0
10
1391.384859
20
53.982397
11
1388.324087
21
53.889050
0
LINE
8
0
10
1388.324087
20
53.889050
11
1384.194946
21
52.917952
0
LINE
8
0
10
1384.194946
20
52.917952
11
1382.634859
21
51.924559
0
LINE
8
0
10
1382.634859
20
51.924559
11
1381.605417
21
50.967082
0
LINE
8
0
10
1381.605417
20
50.967082
11
1380.336533
21
48.856791
0
LINE
8
0
10
1380.336533
20
48.856791
11
1380.136118
21
46.652537
0
LINE
8
0
10
1380.136118
20
46.652537
11
1381.022335
21
44.554102
0
LINE
8
0
10
1381.022335
20
44.554102
11
1381.878607
21
43.606998
0
LINE
8
0
10
1381.878607
20
43.606998
11
1382.878129
21
42.976467
0
LINE
8
0
10
1382.878129
20
42.976467
11
1386.771622
21
41.481156
0
LINE
8
0
10
1386.771622
20
41.481156
11
1396.033065
21
39.022829
0
LINE
8
0
10
1396.033065
20
39.022829
11
1403.465445
21
37.528360
0
LINE
8
0
10
1403.465445
20
37.528360
11
1406.360789
21
36.836306
0
LINE
8
0
10
1406.360789
20
36.836306
11
1411.700415
21
34.560297
0
LINE
8
0
10
1411.700415
20
34.560297
11
1416.029032
21
31.394636
0
LINE
8
0
10
1416.029032
20
31.394636
11
1418.855124
21
27.698783
0
LINE
8
0
10
1418.855124
20
27.698783
11
1419.551126
21
25.764365
0
LINE
8
0
10
1419.551126
20
25.764365
11
1419.811648
21
22.363778
0
LINE
8
0
10
1419.811648
20
22.363778
11
1419.527630
21
18.332825
0
LINE
8
0
10
1419.527630
20
18.332825
11
1418.984018
21
16.136052
0
LINE
8
0
10
1418.984018
20
16.136052
11
1416.747041
21
11.962466
0
LINE
8
0
10
1416.747041
20
11.962466
11
1413.246103
21
8.359072
0
LINE
8
0
10
1413.246103
20
8.359072
11
1408.804054
21
5.658169
0
LINE
8
0
10
1408.804054
20
5.658169
11
1406.331003
21
4.749994
0
LINE
8
0
10
1406.331003
20
4.749994
11
1403.648668
21
4.134623
0
LINE
8
0
10
1403.648668
20
4.134623
11
1397.012681
21
3.387688
0
LINE
8
0
10
1397.012681
20
3.387688
11
1389.855188
21
3.300175
0
LINE
8
0
10
1389.855188
20
3.300175
11
1383.584493
21
3.889304
0
LINE
8
0
10
1383.584493
20
3.889304
11
1381.221789
21
4.442990
0
LINE
8
0
10
598.122008
20
4.322268
11
596.201313
21
5.180332
0
LINE
8
0
10
596.201313
20
5.180332
11
593.146486
21
7.419100
0
LINE
8
0
10
593.146486
20
7.419100
11
591.126454
21
10.375148
0
LINE
8
0
10
591.126454
20
10.375148
11
590.124464
21
14.072987
0
LINE
8
0
10
590.124464
20
14.072987
11
590.000000
21
16.207739
0
LINE
8
0
10
590.000000
20
16.207739
11
590.112074
21
19.068491
0
LINE
8
0
10
590.112074
20
19.068491
11
591.123940
21
21.985992
0
LINE
8
0
10
591.123940
20
21.985992
11
592.756270
21
23.899990
0
LINE
8
0
10
592.756270
20
23.899990
11
593.961394
21
25.075195
0
LINE
8
0
10
593.961394
20
25.075195
11
596.210506
21
27.032896
0
LINE
8
0
10
596.210506
20
27.032896
11
600.592170
21
29.004512
0
LINE
8
0
10
600.592170
20
29.004512
11
603.711394
21
29.462400
0
LINE
8
0
10
603.711394
20
29.462400
11
607.124881
21
29.841635
0
LINE
8
0
10
607.124881
20
29.841635
11
612.078844
21
30.523295
0
LINE
8
0
10
612.078844
20
30.523295
11
616.281375
21
31.696621
0
LINE
8
0
10
616.281375
20
31.696621
11
618.061764
21
32.846069
0
LINE
8
0
10
618.061764
20
32.846069
11
619.258209
21
34.222612
0
LINE
8
0
10
619.258209
20
34.222612
11
619.088854
21
36.860450
0
LINE
8
0
10
619.088854
20
36.860450
11
616.223113
21
38.845849
0
LINE
8
0
10
616.223113
20
38.845849
11
611.524916
21
39.580274
0
LINE
8
0
10
611.524916
20
39.580274
11
608.758624
21
39.291329
0
LINE
8
0
10
608.758624
20
39.291329
11
606.412349
21
38.228205
0
LINE
8
0
10
606.412349
20
38.228205
11
604.521103
21
36.389003
0
LINE
8
0
10
604.521103
20
36.389003
11
603.513470
21
35.154405
0
LINE
8
0
10
603.513470
20
35.154405
11
601.406595
21
34.215897
0
LINE
8
0
10
601.406595
20
34.215897
11
599.066323
21
34.016219
0
LINE
8
0
10
599.066323
20
34.016219
11
597.476947
21
33.997139
0
LINE
8
0
10
597.476947
20
33.997139
11
595.847833
21
34.010696
0
LINE
8
0
10
595.847833
20
34.010696
11
593.610676
21
34.166645
0
LINE
8
0
10
593.610676
20
34.166645
11
592.173107
21
34.960109
0
LINE
8
0
10
592.173107
20
34.960109
11
592.000000
21
36.046799
0
LINE
8
0
10
592.000000
20
36.046799
11
592.534328
21
38.898218
0
LINE
8
0
10
592.534328
20
38.898218
11
596.329462
21
44.169662
0
LINE
8
0
10
596.329462
20
44.169662
11
599.270607
21
46.145676
0
LINE
8
0
10
599.270607
20
46.145676
11
601.730216
21
47.211715
0
LINE
8
0
10
601.730216
20
47.211715
11
605.909661
21
48.084906
0
LINE
8
0
10
605.909661
20
48.084906
11
609.694114
21
48.297405
0
LINE
8
0
10
609.694114
20
48.297405
11
612.058450
21
48.322154
0
LINE
8
0
10
612.058450
20
48.322154
11
614.616567
21
48.304855
0
LINE
8
0
10
614.616567
20
48.304855
11
618.504632
21
48.087877
0
LINE
8
0
10
618.504632
20
48.087877
11
622.786895
21
46.995548
0
LINE
8
0
10
622.786895
20
46.995548
11
625.791190
21
45.514271
0
LINE
8
0
10
625.791190
20
45.514271
11
627.831771
21
44.381025
0
LINE
8
0
10
627.831771
20
44.381025
11
630.451051
21
41.958131
0
LINE
8
0
10
630.451051
20
41.958131
11
631.453107
21
38.760292
0
LINE
8
0
10
631.453107
20
38.760292
11
631.813686
21
35.378644
0
LINE
8
0
10
631.813686
20
35.378644
11
632.022148
21
30.628652
0
LINE
8
0
10
632.022148
20
30.628652
11
632.158936
21
24.194427
0
LINE
8
0
10
632.158936
20
24.194427
11
632.225591
21
20.247011
0
LINE
8
0
10
632.225591
20
20.247011
11
632.500000
21
3.996884
0
LINE
8
0
10
632.500000
20
3.996884
11
626.817388
21
3.997011
0
LINE
8
0
10
626.817388
20
3.997011
11
625.188592
21
4.013633
0
LINE
8
0
10
625.188592
20
4.013633
11
622.848769
21
4.184076
0
LINE
8
0
10
622.848769
20
4.184076
11
621.037893
21
4.971297
0
LINE
8
0
10
621.037893
20
4.971297
11
620.500000
21
5.997139
0
LINE
8
0
10
620.500000
20
5.997139
11
620.181419
21
6.827550
0
LINE
8
0
10
620.181419
20
6.827550
11
619.365796
21
7.769682
0
LINE
8
0
10
619.365796
20
7.769682
11
618.143145
21
7.750975
0
LINE
8
0
10
618.143145
20
7.750975
11
616.310572
21
6.768323
0
LINE
8
0
10
616.310572
20
6.768323
11
615.102159
21
5.914548
0
LINE
8
0
10
615.102159
20
5.914548
11
613.573608
21
5.037906
0
LINE
8
0
10
613.573608
20
5.037906
11
609.461755
21
3.814263
0
LINE
8
0
10
609.461755
20
3.814263
11
604.671083
21
3.365027
0
LINE
8
0
10
604.671083
20
3.365027
11
600.074606
21
3.772064
0
LINE
8
0
10
600.074606
20
3.772064
11
598.122008
21
4.322268
0
LINE
8
0
10
1031.156629
20
4.098866
11
1029.250045
21
4.814677
0
LINE
8
0
10
1029.250045
20
4.814677
11
1026.209385
21
6.880592
0
LINE
8
0
10
1026.209385
20
6.880592
11
1024.186959
21
9.809284
0
LINE
8
0
10
1024.186959
20
9.809284
11
1023.168638
21
13.621213
0
LINE
8
0
10
1023.168638
20
13.621213
11
1023.031601
21
15.864786
0
LINE
8
0
10
1023.031601
20
15.864786
11
1023.120309
21
18.875025
0
LINE
8
0
10
1023.120309
20
18.875025
11
1024.737053
21
22.818486
0
LINE
8
0
10
1024.737053
20
22.818486
11
1026.783325
21
25.015758
0
LINE
8
0
10
1026.783325
20
25.015758
11
1028.961087
21
27.008707
0
LINE
8
0
10
1028.961087
20
27.008707
11
1033.294042
21
28.974932
0
LINE
8
0
10
1033.294042
20
28.974932
11
1036.533325
21
29.440152
0
LINE
8
0
10
1036.533325
20
29.440152
11
1040.096894
21
29.838597
0
LINE
8
0
10
1040.096894
20
29.838597
11
1045.228216
21
30.556085
0
LINE
8
0
10
1045.228216
20
30.556085
11
1049.420283
21
31.801400
0
LINE
8
0
10
1049.420283
20
31.801400
11
1051.033096
21
33.030235
0
LINE
8
0
10
1051.033096
20
33.030235
11
1051.821410
21
33.964653
0
LINE
8
0
10
1051.821410
20
33.964653
11
1052.419201
21
35.699149
0
LINE
8
0
10
1052.419201
20
35.699149
11
1051.734199
21
37.205444
0
LINE
8
0
10
1051.734199
20
37.205444
11
1049.793187
21
38.424640
0
LINE
8
0
10
1049.793187
20
38.424640
11
1048.360048
21
38.908170
0
LINE
8
0
10
1048.360048
20
38.908170
11
1044.542006
21
39.510673
0
LINE
8
0
10
1044.542006
20
39.510673
11
1039.663903
21
38.783147
0
LINE
8
0
10
1039.663903
20
38.783147
11
1037.532365
21
37.334727
0
LINE
8
0
10
1037.532365
20
37.334727
11
1036.945355
21
36.353412
0
LINE
8
0
10
1036.945355
20
36.353412
11
1036.283337
21
35.090225
0
LINE
8
0
10
1036.283337
20
35.090225
11
1034.354410
21
34.183291
0
LINE
8
0
10
1034.354410
20
34.183291
11
1031.770746
21
34.011369
0
LINE
8
0
10
1031.770746
20
34.011369
11
1029.916343
21
33.997139
0
LINE
8
0
10
1029.916343
20
33.997139
11
1023.783184
21
33.997139
0
LINE
8
0
10
1023.783184
20
33.997139
11
1024.458081
21
36.686144
0
LINE
8
0
10
1024.458081
20
36.686144
11
1025.598219
21
39.648396
0
LINE
8
0
10
1025.598219
20
39.648396
11
1029.696695
21
44.865501
0
LINE
8
0
10
1029.696695
20
44.865501
11
1032.278643
21
46.641231
0
LINE
8
0
10
1032.278643
20
46.641231
11
1034.528086
21
47.439573
0
LINE
8
0
10
1034.528086
20
47.439573
11
1041.037757
21
48.278565
0
LINE
8
0
10
1041.037757
20
48.278565
11
1048.603221
21
48.137589
0
LINE
8
0
10
1048.603221
20
48.137589
11
1055.274170
21
47.052985
0
LINE
8
0
10
1055.274170
20
47.052985
11
1057.664731
21
46.168180
0
LINE
8
0
10
1057.664731
20
46.168180
11
1059.296957
21
45.272180
0
LINE
8
0
10
1059.296957
20
45.272180
11
1062.026957
21
43.451995
0
LINE
8
0
10
1062.026957
20
43.451995
11
1062.788485
21
42.751999
0
LINE
8
0
10
1062.788485
20
42.751999
11
1063.054367
21
42.188512
0
LINE
8
0
10
1063.054367
20
42.188512
11
1063.498734
21
39.739352
0
LINE
8
0
10
1063.498734
20
39.739352
11
1063.820614
21
35.603845
0
LINE
8
0
10
1063.820614
20
35.603845
11
1064.012856
21
29.873871
0
LINE
8
0
10
1064.012856
20
29.873871
11
1064.058128
21
26.439672
0
LINE
8
0
10
1064.058128
20
26.439672
11
1064.106456
21
22.773689
0
LINE
8
0
10
1064.106456
20
22.773689
11
1064.317928
21
16.712911
0
LINE
8
0
10
1064.317928
20
16.712911
11
1064.692512
21
12.226986
0
LINE
8
0
10
1064.692512
20
12.226986
11
1065.242239
21
9.171836
0
LINE
8
0
10
1065.242239
20
9.171836
11
1065.586540
21
8.135776
0
LINE
8
0
10
1065.586540
20
8.135776
11
1066.135360
21
6.792449
0
LINE
8
0
10
1066.135360
20
6.792449
11
1066.888469
21
4.788668
0
LINE
8
0
10
1066.888469
20
4.788668
11
1067.000000
21
4.375015
0
LINE
8
0
10
1067.000000
20
4.375015
11
1066.479722
21
4.228293
0
LINE
8
0
10
1066.479722
20
4.228293
11
1062.966559
21
4.026956
0
LINE
8
0
10
1062.966559
20
4.026956
11
1060.406380
21
3.997139
0
LINE
8
0
10
1060.406380
20
3.997139
11
1058.467673
21
4.011508
0
LINE
8
0
10
1058.467673
20
4.011508
11
1055.746943
21
4.169869
0
LINE
8
0
10
1055.746943
20
4.169869
11
1053.785264
21
4.948508
0
LINE
8
0
10
1053.785264
20
4.948508
11
1053.289749
21
5.997139
0
LINE
8
0
10
1053.289749
20
5.997139
11
1052.606569
21
7.293182
0
LINE
8
0
10
1052.606569
20
7.293182
11
1050.435446
21
7.825384
0
LINE
8
0
10
1050.435446
20
7.825384
11
1049.461878
21
6.935456
0
LINE
8
0
10
1049.461878
20
6.935456
11
1048.394193
21
5.900864
0
LINE
8
0
10
1048.394193
20
5.900864
11
1044.408652
21
4.289957
0
LINE
8
0
10
1044.408652
20
4.289957
11
1039.028286
21
3.456213
0
LINE
8
0
10
1039.028286
20
3.456213
11
1033.539581
21
3.598987
0
LINE
8
0
10
1033.539581
20
3.598987
11
1031.156629
21
4.098866
0
LINE
8
0
10
875.221789
20
4.466863
11
871.376609
21
6.090501
0
LINE
8
0
10
871.376609
20
6.090501
11
866.243285
21
9.469840
0
LINE
8
0
10
866.243285
20
9.469840
11
864.278819
21
11.614488
0
LINE
8
0
10
864.278819
20
11.614488
11
864.000000
21
12.464697
0
LINE
8
0
10
864.000000
20
12.464697
11
863.632812
21
13.551672
0
LINE
8
0
10
863.632812
20
13.551672
11
862.750000
21
14.247139
0
LINE
8
0
10
862.750000
20
14.247139
11
862.439805
21
14.492790
0
LINE
8
0
10
862.439805
20
14.492790
11
861.961914
21
15.842842
0
LINE
8
0
10
861.961914
20
15.842842
11
861.659961
21
18.459769
0
LINE
8
0
10
861.659961
20
18.459769
11
861.517070
21
22.489821
0
LINE
8
0
10
861.517070
20
22.489821
11
861.500000
21
25.080472
0
LINE
8
0
10
861.500000
20
25.080472
11
861.511181
21
28.405218
0
LINE
8
0
10
861.511181
20
28.405218
11
861.692416
21
33.027692
0
LINE
8
0
10
861.692416
20
33.027692
11
862.820366
21
37.135282
0
LINE
8
0
10
862.820366
20
37.135282
11
864.500000
21
39.732921
0
LINE
8
0
10
864.500000
20
39.732921
11
865.822656
21
41.427504
0
LINE
8
0
10
865.822656
20
41.427504
11
868.486719
21
44.021385
0
LINE
8
0
10
868.486719
20
44.021385
11
869.500000
21
44.601202
0
LINE
8
0
10
869.500000
20
44.601202
11
871.366282
21
45.444759
0
LINE
8
0
10
871.366282
20
45.444759
11
873.044791
21
46.584695
0
LINE
8
0
10
873.044791
20
46.584695
11
874.235627
21
47.305823
0
LINE
8
0
10
874.235627
20
47.305823
11
877.996115
21
48.321248
0
LINE
8
0
10
877.996115
20
48.321248
11
885.264466
21
48.632272
0
LINE
8
0
10
885.264466
20
48.632272
11
889.780010
21
47.918741
0
LINE
8
0
10
889.780010
20
47.918741
11
894.360116
21
46.304908
0
LINE
8
0
10
894.360116
20
46.304908
11
900.348779
21
43.165881
0
LINE
8
0
10
900.348779
20
43.165881
11
902.842547
21
41.108861
0
LINE
8
0
10
902.842547
20
41.108861
11
903.405570
21
40.223355
0
LINE
8
0
10
903.405570
20
40.223355
11
904.279560
21
38.269840
0
LINE
8
0
10
904.279560
20
38.269840
11
905.501240
21
35.997139
0
LINE
8
0
10
905.501240
20
35.997139
11
906.072896
21
34.653134
0
LINE
8
0
10
906.072896
20
34.653134
11
906.863599
21
30.800395
0
LINE
8
0
10
906.863599
20
30.800395
11
906.985258
21
28.766191
0
LINE
8
0
10
906.985258
20
28.766191
11
906.975934
21
26.854963
0
LINE
8
0
10
906.975934
20
26.854963
11
906.130245
21
24.409091
0
LINE
8
0
10
906.130245
20
24.409091
11
903.813720
21
23.478878
0
LINE
8
0
10
903.813720
20
23.478878
11
901.011821
21
23.146292
0
LINE
8
0
10
901.011821
20
23.146292
11
896.919853
21
22.954767
0
LINE
8
0
10
896.919853
20
22.954767
11
891.294364
21
22.828030
0
LINE
8
0
10
891.294364
20
22.828030
11
887.830469
21
22.765122
0
LINE
8
0
10
887.830469
20
22.765122
11
882.079762
21
22.606040
0
LINE
8
0
10
882.079762
20
22.606040
11
875.368189
21
22.234890
0
LINE
8
0
10
875.368189
20
22.234890
11
872.905327
21
21.945301
0
LINE
8
0
10
872.905327
20
21.945301
11
872.466402
21
21.799738
0
LINE
8
0
10
872.466402
20
21.799738
11
872.251847
21
21.095318
0
LINE
8
0
10
872.251847
20
21.095318
11
873.186242
21
18.758277
0
LINE
8
0
10
873.186242
20
18.758277
11
875.324372
21
15.981410
0
LINE
8
0
10
875.324372
20
15.981410
11
877.929117
21
13.722044
0
LINE
8
0
10
877.929117
20
13.722044
11
879.176118
21
13.085589
0
LINE
8
0
10
879.176118
20
13.085589
11
882.530251
21
12.222813
0
LINE
8
0
10
882.530251
20
12.222813
11
887.430932
21
12.410123
0
LINE
8
0
10
887.430932
20
12.410123
11
891.208516
21
13.581921
0
LINE
8
0
10
891.208516
20
13.581921
11
893.404083
21
14.497139
0
LINE
8
0
10
893.404083
20
14.497139
11
897.136577
21
15.940122
0
LINE
8
0
10
897.136577
20
15.940122
11
902.750580
21
16.934137
0
LINE
8
0
10
902.750580
20
16.934137
11
905.482720
21
15.606646
0
LINE
8
0
10
905.482720
20
15.606646
11
905.341835
21
13.232704
0
LINE
8
0
10
905.341835
20
13.232704
11
904.088655
21
11.050291
0
LINE
8
0
10
904.088655
20
11.050291
11
903.091007
21
9.790460
0
LINE
8
0
10
903.091007
20
9.790460
11
901.662654
21
8.523927
0
LINE
8
0
10
901.662654
20
8.523927
11
900.384748
21
7.997139
0
LINE
8
0
10
900.384748
20
7.997139
11
899.410945
21
7.614203
0
LINE
8
0
10
899.410945
20
7.614203
11
898.713735
21
6.693527
0
LINE
8
0
10
898.713735
20
6.693527
11
898.122699
21
6.073599
0
LINE
8
0
10
898.122699
20
6.073599
11
895.175000
21
4.816770
0
LINE
8
0
10
895.175000
20
4.816770
11
888.321777
21
3.367491
0
LINE
8
0
10
888.321777
20
3.367491
11
883.673710
21
3.064035
0
LINE
8
0
10
883.673710
20
3.064035
11
879.469303
21
3.503710
0
LINE
8
0
10
879.469303
20
3.503710
11
875.221789
21
4.466863
0
LINE
8
0
10
969.000000
20
33.447235
11
969.000000
21
62.997139
0
LINE
8
0
10
969.000000
20
62.997139
11
975.000000
21
62.997139
0
LINE
8
0
10
975.000000
20
62.997139
11
981.000000
21
62.997139
0
LINE
8
0
10
981.000000
20
62.997139
11
981.000000
21
54.163806
0
LINE
8
0
10
981.000000
20
54.163806
11
981.051558
21
50.682430
0
LINE
8
0
10
981.051558
20
50.682430
11
981.288739
21
46.555649
0
LINE
8
0
10
981.288739
20
46.555649
11
981.522155
21
44.988607
0
LINE
8
0
10
981.522155
20
44.988607
11
981.653412
21
44.677060
0
LINE
8
0
10
981.653412
20
44.677060
11
982.176868
21
44.590066
0
LINE
8
0
10
982.176868
20
44.590066
11
984.346481
21
45.367648
0
LINE
8
0
10
984.346481
20
45.367648
11
985.725413
21
46.136452
0
LINE
8
0
10
985.725413
20
46.136452
11
987.766050
21
47.127759
0
LINE
8
0
10
987.766050
20
47.127759
11
992.758450
21
48.265704
0
LINE
8
0
10
992.758450
20
48.265704
11
998.202925
21
48.275985
0
LINE
8
0
10
998.202925
20
48.275985
11
1003.184167
21
47.156872
0
LINE
8
0
10
1003.184167
20
47.156872
11
1005.215041
21
46.173253
0
LINE
8
0
10
1005.215041
20
46.173253
11
1007.005832
21
44.945123
0
LINE
8
0
10
1007.005832
20
44.945123
11
1009.411892
21
41.945173
0
LINE
8
0
10
1009.411892
20
41.945173
11
1010.565648
21
36.821068
0
LINE
8
0
10
1010.565648
20
36.821068
11
1010.836570
21
30.573937
0
LINE
8
0
10
1010.836570
20
30.573937
11
1010.822750
21
24.870862
0
LINE
8
0
10
1010.822750
20
24.870862
11
1010.775231
21
21.479120
0
LINE
8
0
10
1010.775231
20
21.479120
11
1010.500000
21
4.497139
0
LINE
8
0
10
1010.500000
20
4.497139
11
1005.000000
21
4.497139
0
LINE
8
0
10
1005.000000
20
4.497139
11
999.500000
21
4.497139
0
LINE
8
0
10
999.500000
20
4.497139
11
999.000000
21
20.329852
0
LINE
8
0
10
999.000000
20
20.329852
11
998.894678
21
23.498538
0
LINE
8
0
10
998.894678
20
23.498538
11
998.656886
21
28.720277
0
LINE
8
0
10
998.656886
20
28.720277
11
998.309234
21
32.615962
0
LINE
8
0
10
998.309234
20
32.615962
11
997.763325
21
35.379342
0
LINE
8
0
10
997.763325
20
35.379342
11
996.379363
21
37.825163
0
LINE
8
0
10
996.379363
20
37.825163
11
993.015152
21
38.931502
0
LINE
8
0
10
993.015152
20
38.931502
11
990.483184
21
38.997139
0
LINE
8
0
10
990.483184
20
38.997139
11
988.389302
21
38.870522
0
LINE
8
0
10
988.389302
20
38.870522
11
985.285344
21
37.650701
0
LINE
8
0
10
985.285344
20
37.650701
11
983.924314
21
36.419576
0
LINE
8
0
10
983.924314
20
36.419576
11
982.571129
21
34.642597
0
LINE
8
0
10
982.571129
20
34.642597
11
981.530520
21
30.055536
0
LINE
8
0
10
981.530520
20
30.055536
11
981.249095
21
25.680675
0
LINE
8
0
10
981.249095
20
25.680675
11
981.085315
21
21.611964
0
LINE
8
0
10
981.085315
20
21.611964
11
981.000000
21
19.169576
0
LINE
8
0
10
981.000000
20
19.169576
11
980.500000
21
4.497139
0
LINE
8
0
10
980.500000
20
4.497139
11
974.750000
21
4.197235
0
LINE
8
0
10
974.750000
20
4.197235
11
969.000000
21
3.897331
0
LINE
8
0
10
969.000000
20
3.897331
11
969.000000
21
33.447235
0
LINE
8
0
10
1689.666667
20
4.663806
11
1689.532747
21
5.233142
0
LINE
8
0
10
1689.532747
20
5.233142
11
1689.294596
21
8.692126
0
LINE
8
0
10
1689.294596
20
8.692126
11
1689.114258
21
14.643298
0
LINE
8
0
10
1689.114258
20
14.643298
11
1689.013607
21
22.364782
0
LINE
8
0
10
1689.013607
20
22.364782
11
1689.000000
21
26.663806
0
LINE
8
0
10
1689.000000
20
26.663806
11
1689.000000
21
47.997139
0
LINE
8
0
10
1689.000000
20
47.997139
11
1695.000000
21
47.997139
0
LINE
8
0
10
1695.000000
20
47.997139
11
1696.597656
21
47.980537
0
LINE
8
0
10
1696.597656
20
47.980537
11
1698.949219
21
47.830147
0
LINE
8
0
10
1698.949219
20
47.830147
11
1700.718750
21
47.223701
0
LINE
8
0
10
1700.718750
20
47.223701
11
1701.000000
21
46.497139
0
LINE
8
0
10
1701.000000
20
46.497139
11
1701.134335
21
45.841473
0
LINE
8
0
10
1701.134335
20
45.841473
11
1702.105757
21
45.124017
0
LINE
8
0
10
1702.105757
20
45.124017
11
1704.803490
21
45.512402
0
LINE
8
0
10
1704.803490
20
45.512402
11
1707.027494
21
46.732056
0
LINE
8
0
10
1707.027494
20
46.732056
11
1708.512365
21
47.525672
0
LINE
8
0
10
1708.512365
20
47.525672
11
1712.750191
21
48.280284
0
LINE
8
0
10
1712.750191
20
48.280284
11
1715.799357
21
48.294026
0
LINE
8
0
10
1715.799357
20
48.294026
11
1718.496472
21
48.153213
0
LINE
8
0
10
1718.496472
20
48.153213
11
1722.885456
21
47.451831
0
LINE
8
0
10
1722.885456
20
47.451831
11
1726.203223
21
46.079456
0
LINE
8
0
10
1726.203223
20
46.079456
11
1728.772710
21
43.902510
0
LINE
8
0
10
1728.772710
20
43.902510
11
1729.877766
21
42.470578
0
LINE
8
0
10
1729.877766
20
42.470578
11
1730.559341
21
41.401508
0
LINE
8
0
10
1730.559341
20
41.401508
11
1731.448439
21
38.984901
0
LINE
8
0
10
1731.448439
20
38.984901
11
1731.829523
21
34.851412
0
LINE
8
0
10
1731.829523
20
34.851412
11
1731.871504
21
29.653241
0
LINE
8
0
10
1731.871504
20
29.653241
11
1731.818273
21
24.810271
0
LINE
8
0
10
1731.818273
20
24.810271
11
1731.774269
21
21.899840
0
LINE
8
0
10
1731.774269
20
21.899840
11
1731.500000
21
4.497139
0
LINE
8
0
10
1731.500000
20
4.497139
11
1725.500000
21
4.497139
0
LINE
8
0
10
1725.500000
20
4.497139
11
1719.500000
21
4.497139
0
LINE
8
0
10
1719.500000
20
4.497139
11
1719.222870
21
19.948377
0
LINE
8
0
10
1719.222870
20
19.948377
11
1719.159380
21
23.106497
0
LINE
8
0
10
1719.159380
20
23.106497
11
1718.984307
21
28.340545
0
LINE
8
0
10
1718.984307
20
28.340545
11
1718.683669
21
32.283035
0
LINE
8
0
10
1718.683669
20
32.283035
11
1718.183741
21
35.115606
0
LINE
8
0
10
1718.183741
20
35.115606
11
1716.898900
21
37.680702
0
LINE
8
0
10
1716.898900
20
37.680702
11
1713.800143
21
38.911415
0
LINE
8
0
10
1713.800143
20
38.911415
11
1711.491035
21
38.997139
0
LINE
8
0
10
1711.491035
20
38.997139
11
1709.398027
21
38.866194
0
LINE
8
0
10
1709.398027
20
38.866194
11
1706.100128
21
37.684709
0
LINE
8
0
10
1706.100128
20
37.684709
11
1704.646023
21
36.544888
0
LINE
8
0
10
1704.646023
20
36.544888
11
1703.775652
21
35.706409
0
LINE
8
0
10
1703.775652
20
35.706409
11
1702.650629
21
33.886296
0
LINE
8
0
10
1702.650629
20
33.886296
11
1702.142313
21
30.524445
0
LINE
8
0
10
1702.142313
20
30.524445
11
1702.018344
21
26.016135
0
LINE
8
0
10
1702.018344
20
26.016135
11
1702.000762
21
21.684511
0
LINE
8
0
10
1702.000762
20
21.684511
11
1702.000000
21
19.044888
0
LINE
8
0
10
1702.000000
20
19.044888
11
1702.000000
21
3.997139
0
LINE
8
0
10
1702.000000
20
3.997139
11
1696.166667
21
3.997139
0
LINE
8
0
10
1696.166667
20
3.997139
11
1693.849089
21
4.049743
0
LINE
8
0
10
1693.849089
20
4.049743
11
1690.385807
21
4.404951
0
LINE
8
0
10
1690.385807
20
4.404951
11
1689.666667
21
4.663806
0
LINE
8
0
10
1522.096399
20
5.261881
11
1519.783038
21
6.962599
0
LINE
8
0
10
1519.783038
20
6.962599
11
1517.596399
21
9.316941
0
LINE
8
0
10
1517.596399
20
9.316941
11
1516.955079
21
10.276532
0
LINE
8
0
10
1516.955079
20
10.276532
11
1516.068261
21
12.701222
0
LINE
8
0
10
1516.068261
20
12.701222
11
1515.570085
21
17.000574
0
LINE
8
0
10
1515.570085
20
17.000574
11
1515.351070
21
22.322058
0
LINE
8
0
10
1515.351070
20
22.322058
11
1515.239558
21
27.205954
0
LINE
8
0
10
1515.239558
20
27.205954
11
1515.186326
21
30.116311
0
LINE
8
0
10
1515.186326
20
30.116311
11
1514.872653
21
48.095879
0
LINE
8
0
10
1514.872653
20
48.095879
11
1521.186326
21
47.796509
0
LINE
8
0
10
1521.186326
20
47.796509
11
1527.500000
21
47.497139
0
LINE
8
0
10
1527.500000
20
47.497139
11
1528.000000
21
31.208294
0
LINE
8
0
10
1528.000000
20
31.208294
11
1528.099950
21
28.003646
0
LINE
8
0
10
1528.099950
20
28.003646
11
1528.304871
21
22.769999
0
LINE
8
0
10
1528.304871
20
22.769999
11
1528.592248
21
18.925073
0
LINE
8
0
10
1528.592248
20
18.925073
11
1529.052998
21
16.254289
0
LINE
8
0
10
1529.052998
20
16.254289
11
1530.268074
21
13.980247
0
LINE
8
0
10
1530.268074
20
13.980247
11
1533.343525
21
13.054977
0
LINE
8
0
10
1533.343525
20
13.054977
11
1535.709531
21
13.012452
0
LINE
8
0
10
1535.709531
20
13.012452
11
1537.881415
21
13.129649
0
LINE
8
0
10
1537.881415
20
13.129649
11
1541.027000
21
14.399286
0
LINE
8
0
10
1541.027000
20
14.399286
11
1542.459531
21
15.736921
0
LINE
8
0
10
1542.459531
20
15.736921
11
1543.388106
21
16.765126
0
LINE
8
0
10
1543.388106
20
16.765126
11
1544.587649
21
18.870827
0
LINE
8
0
10
1544.587649
20
18.870827
11
1545.145525
21
22.624325
0
LINE
8
0
10
1545.145525
20
22.624325
11
1545.312578
21
27.662875
0
LINE
8
0
10
1545.312578
20
27.662875
11
1545.370389
21
32.525643
0
LINE
8
0
10
1545.370389
20
32.525643
11
1545.396454
21
35.497139
0
LINE
8
0
10
1545.396454
20
35.497139
11
1545.500000
21
47.497139
0
LINE
8
0
10
1545.500000
20
47.497139
11
1551.769637
21
47.795366
0
LINE
8
0
10
1551.769637
20
47.795366
11
1558.039273
21
48.093593
0
LINE
8
0
10
1558.039273
20
48.093593
11
1557.769637
21
26.295366
0
LINE
8
0
10
1557.769637
20
26.295366
11
1557.500000
21
4.497139
0
LINE
8
0
10
1557.500000
20
4.497139
11
1551.750000
21
4.197235
0
LINE
8
0
10
1551.750000
20
4.197235
11
1550.002057
21
4.117711
0
LINE
8
0
10
1550.002057
20
4.117711
11
1547.633411
21
4.139738
0
LINE
8
0
10
1547.633411
20
4.139738
11
1546.163316
21
4.849233
0
LINE
8
0
10
1546.163316
20
4.849233
11
1546.000000
21
5.947235
0
LINE
8
0
10
1546.000000
20
5.947235
11
1545.945258
21
6.789982
0
LINE
8
0
10
1545.945258
20
6.789982
11
1545.438118
21
7.757685
0
LINE
8
0
10
1545.438118
20
7.757685
11
1544.246994
21
7.769912
0
LINE
8
0
10
1544.246994
20
7.769912
11
1542.187352
21
6.828556
0
LINE
8
0
10
1542.187352
20
6.828556
11
1540.774170
21
6.000877
0
LINE
8
0
10
1540.774170
20
6.000877
11
1539.036449
21
5.217651
0
LINE
8
0
10
1539.036449
20
5.217651
11
1534.223360
21
4.210679
0
LINE
8
0
10
1534.223360
20
4.210679
11
1528.727986
21
3.993252
0
LINE
8
0
10
1528.727986
20
3.993252
11
1523.871816
21
4.617654
0
LINE
8
0
10
1523.871816
20
4.617654
11
1522.096399
21
5.261881
0
LINE
8
0
10
1205.230498
20
25.747139
11
1205.500000
21
47.497139
0
LINE
8
0
10
1205.500000
20
47.497139
11
1211.250000
21
47.797043
0
LINE
8
0
10
1211.250000
20
47.797043
11
1213.097729
21
47.885253
0
LINE
8
0
10
1213.097729
20
47.885253
11
1215.519324
21
47.864799
0
LINE
8
0
10
1215.519324
20
47.864799
11
1216.885559
21
46.982513
0
LINE
8
0
10
1216.885559
20
46.982513
11
1217.000000
21
45.547043
0
LINE
8
0
10
1217.000000
20
45.547043
11
1217.042590
21
44.510992
0
LINE
8
0
10
1217.042590
20
44.510992
11
1217.423589
21
43.312283
0
LINE
8
0
10
1217.423589
20
43.312283
11
1218.288509
21
43.274154
0
LINE
8
0
10
1218.288509
20
43.274154
11
1219.744750
21
44.391870
0
LINE
8
0
10
1219.744750
20
44.391870
11
1220.728179
21
45.382690
0
LINE
8
0
10
1220.728179
20
45.382690
11
1222.653043
21
46.859280
0
LINE
8
0
10
1222.653043
20
46.859280
11
1227.973752
21
48.524024
0
LINE
8
0
10
1227.973752
20
48.524024
11
1234.239743
21
48.478274
0
LINE
8
0
10
1234.239743
20
48.478274
11
1240.231783
21
46.730932
0
LINE
8
0
10
1240.231783
20
46.730932
11
1242.744061
21
45.221946
0
LINE
8
0
10
1242.744061
20
45.221946
11
1244.302726
21
43.864849
0
LINE
8
0
10
1244.302726
20
43.864849
11
1246.468217
21
40.398836
0
LINE
8
0
10
1246.468217
20
40.398836
11
1247.575253
21
34.880247
0
LINE
8
0
10
1247.575253
20
34.880247
11
1247.862989
21
28.636225
0
LINE
8
0
10
1247.862989
20
28.636225
11
1247.855709
21
23.175770
0
LINE
8
0
10
1247.855709
20
23.175770
11
1247.804187
21
19.997139
0
LINE
8
0
10
1247.804187
20
19.997139
11
1247.500000
21
4.497139
0
LINE
8
0
10
1247.500000
20
4.497139
11
1241.250000
21
4.199422
0
LINE
8
0
10
1241.250000
20
4.199422
11
1235.000000
21
3.901704
0
LINE
8
0
10
1235.000000
20
3.901704
11
1235.000000
21
19.449422
0
LINE
8
0
10
1235.000000
20
19.449422
11
1234.997627
21
21.968861
0
LINE
8
0
10
1234.997627
20
21.968861
11
1234.972119
21
26.190466
0
LINE
8
0
10
1234.972119
20
26.190466
11
1234.849308
21
30.766064
0
LINE
8
0
10
1234.849308
20
30.766064
11
1234.436346
21
34.389331
0
LINE
8
0
10
1234.436346
20
34.389331
11
1233.610913
21
36.301172
0
LINE
8
0
10
1233.610913
20
36.301172
11
1233.000000
21
36.997139
0
LINE
8
0
10
1233.000000
20
36.997139
11
1232.026480
21
37.739754
0
LINE
8
0
10
1232.026480
20
37.739754
11
1229.384888
21
38.722661
0
LINE
8
0
10
1229.384888
20
38.722661
11
1224.719595
21
38.850501
0
LINE
8
0
10
1224.719595
20
38.850501
11
1221.944609
21
37.967495
0
LINE
8
0
10
1221.944609
20
37.967495
11
1220.588771
21
37.065284
0
LINE
8
0
10
1220.588771
20
37.065284
11
1218.630042
21
34.344231
0
LINE
8
0
10
1218.630042
20
34.344231
11
1217.514468
21
29.737033
0
LINE
8
0
10
1217.514468
20
29.737033
11
1217.049125
21
22.446929
0
LINE
8
0
10
1217.049125
20
22.446929
11
1217.000000
21
17.546799
0
LINE
8
0
10
1217.000000
20
17.546799
11
1217.000000
21
3.997139
0
LINE
8
0
10
1217.000000
20
3.997139
11
1210.980498
21
3.997139
0
LINE
8
0
10
1210.980498
20
3.997139
11
1204.960995
21
3.997139
0
LINE
8
0
10
1204.960995
20
3.997139
11
1205.230498
21
25.747139
0
LINE
8
0
10
645.912970
20
4.247139
11
645.643662
21
25.060396
0
LINE
8
0
10
645.643662
20
25.060396
11
645.844771
21
46.247139
0
LINE
8
0
10
645.844771
20
46.247139
11
646.266066
21
47.107667
0
LINE
8
0
10
646.266066
20
47.107667
11
648.850555
21
47.919398
0
LINE
8
0
10
648.850555
20
47.919398
11
651.416631
21
47.997139
0
LINE
8
0
10
651.416631
20
47.997139
11
653.519720
21
47.906655
0
LINE
8
0
10
653.519720
20
47.906655
11
656.892472
21
47.295666
0
LINE
8
0
10
656.892472
20
47.295666
11
657.746724
21
46.850415
0
LINE
8
0
10
657.746724
20
46.850415
11
658.597382
21
46.393794
0
LINE
8
0
10
658.597382
20
46.393794
11
662.043330
21
46.661668
0
LINE
8
0
10
662.043330
20
46.661668
11
664.985969
21
47.413166
0
LINE
8
0
10
664.985969
20
47.413166
11
667.719225
21
48.034567
0
LINE
8
0
10
667.719225
20
48.034567
11
673.096566
21
48.422497
0
LINE
8
0
10
673.096566
20
48.422497
11
678.128291
21
47.703015
0
LINE
8
0
10
678.128291
20
47.703015
11
682.542337
21
45.915022
0
LINE
8
0
10
682.542337
20
45.915022
11
684.432711
21
44.632492
0
LINE
8
0
10
684.432711
20
44.632492
11
686.087764
21
43.101112
0
LINE
8
0
10
686.087764
20
43.101112
11
687.315771
21
39.631842
0
LINE
8
0
10
687.315771
20
39.631842
11
687.727981
21
34.907907
0
LINE
8
0
10
687.727981
20
34.907907
11
687.922698
21
31.403569
0
LINE
8
0
10
687.922698
20
31.403569
11
688.107400
21
26.537557
0
LINE
8
0
10
688.107400
20
26.537557
11
688.148588
21
16.463974
0
LINE
8
0
10
688.148588
20
16.463974
11
688.000000
21
12.497139
0
LINE
8
0
10
688.000000
20
12.497139
11
687.500000
21
4.497139
0
LINE
8
0
10
687.500000
20
4.497139
11
681.750000
21
4.197235
0
LINE
8
0
10
681.750000
20
4.197235
11
676.000000
21
3.897331
0
LINE
8
0
10
676.000000
20
3.897331
11
676.000000
21
17.882135
0
LINE
8
0
10
676.000000
20
17.882135
11
675.958760
21
22.584436
0
LINE
8
0
10
675.958760
20
22.584436
11
675.601791
21
29.859980
0
LINE
8
0
10
675.601791
20
29.859980
11
674.818731
21
34.665657
0
LINE
8
0
10
674.818731
20
34.665657
11
673.537451
21
37.444120
0
LINE
8
0
10
673.537451
20
37.444120
11
672.687439
21
38.211474
0
LINE
8
0
10
672.687439
20
38.211474
11
671.936934
21
38.505850
0
LINE
8
0
10
671.936934
20
38.505850
11
669.349782
21
38.916303
0
LINE
8
0
10
669.349782
20
38.916303
11
667.831787
21
38.981826
0
LINE
8
0
10
667.831787
20
38.981826
11
664.923661
21
38.850244
0
LINE
8
0
10
664.923661
20
38.850244
11
660.916357
21
37.243981
0
LINE
8
0
10
660.916357
20
37.243981
11
659.202590
21
34.244187
0
LINE
8
0
10
659.202590
20
34.244187
11
658.536551
21
31.094334
0
LINE
8
0
10
658.536551
20
31.094334
11
658.165433
21
26.840818
0
LINE
8
0
10
658.165433
20
26.840818
11
658.015301
21
21.326210
0
LINE
8
0
10
658.015301
20
21.326210
11
658.000000
21
18.046799
0
LINE
8
0
10
658.000000
20
18.046799
11
658.000000
21
3.997139
0
LINE
8
0
10
658.000000
20
3.997139
11
652.000000
21
3.997139
0
LINE
8
0
10
652.000000
20
3.997139
11
649.663445
21
4.016866
0
LINE
8
0
10
649.663445
20
4.016866
11
646.420200
21
4.150069
0
LINE
8
0
10
646.420200
20
4.150069
11
645.912970
21
4.247139
0
LINE
8
0
10
1756.216821
20
3.995662
11
1752.610184
21
5.142948
0
LINE
8
0
10
1752.610184
20
5.142948
11
1746.847425
21
9.345450
0
LINE
8
0
10
1746.847425
20
9.345450
11
1744.791916
21
12.327294
0
LINE
8
0
10
1744.791916
20
12.327294
11
1743.926798
21
14.001123
0
LINE
8
0
10
1743.926798
20
14.001123
11
1743.203937
21
16.251381
0
LINE
8
0
10
1743.203937
20
16.251381
11
1744.081656
21
17.365056
0
LINE
8
0
10
1744.081656
20
17.365056
11
1746.868856
21
17.734088
0
LINE
8
0
10
1746.868856
20
17.734088
11
1749.075042
21
17.761845
0
LINE
8
0
10
1749.075042
20
17.761845
11
1750.891527
21
17.746553
0
LINE
8
0
10
1750.891527
20
17.746553
11
1753.454838
21
17.569823
0
LINE
8
0
10
1753.454838
20
17.569823
11
1755.457977
21
16.667365
0
LINE
8
0
10
1755.457977
20
16.667365
11
1756.212878
21
15.429267
0
LINE
8
0
10
1756.212878
20
15.429267
11
1757.062825
21
14.167685
0
LINE
8
0
10
1757.062825
20
14.167685
11
1759.957085
21
12.223746
0
LINE
8
0
10
1759.957085
20
12.223746
11
1763.958273
21
11.178903
0
LINE
8
0
10
1763.958273
20
11.178903
11
1768.483712
21
11.185312
0
LINE
8
0
10
1768.483712
20
11.185312
11
1770.760939
21
11.630286
0
LINE
8
0
10
1770.760939
20
11.630286
11
1772.411948
21
12.696568
0
LINE
8
0
10
1772.411948
20
12.696568
11
1773.832652
21
15.533783
0
LINE
8
0
10
1773.832652
20
15.533783
11
1773.741067
21
17.396471
0
LINE
8
0
10
1773.741067
20
17.396471
11
1773.297555
21
18.099584
0
LINE
8
0
10
1773.297555
20
18.099584
11
1772.892185
21
18.342832
0
LINE
8
0
10
1772.892185
20
18.342832
11
1770.972659
21
19.063114
0
LINE
8
0
10
1770.972659
20
19.063114
11
1766.023271
21
20.514838
0
LINE
8
0
10
1766.023271
20
20.514838
11
1761.889505
21
21.564391
0
LINE
8
0
10
1761.889505
20
21.564391
11
1757.624417
21
22.659355
0
LINE
8
0
10
1757.624417
20
22.659355
11
1751.367613
21
24.831057
0
LINE
8
0
10
1751.367613
20
24.831057
11
1747.619235
21
27.326458
0
LINE
8
0
10
1747.619235
20
27.326458
11
1745.751999
21
30.563157
0
LINE
8
0
10
1745.751999
20
30.563157
11
1745.327784
21
32.589994
0
LINE
8
0
10
1745.327784
20
32.589994
11
1745.196829
21
34.560468
0
LINE
8
0
10
1745.196829
20
34.560468
11
1745.782558
21
38.198838
0
LINE
8
0
10
1745.782558
20
38.198838
11
1747.510910
21
41.457214
0
LINE
8
0
10
1747.510910
20
41.457214
11
1750.396805
21
44.363728
0
LINE
8
0
10
1750.396805
20
44.363728
11
1752.278495
21
45.693828
0
LINE
8
0
10
1752.278495
20
45.693828
11
1754.781962
21
47.112104
0
LINE
8
0
10
1754.781962
20
47.112104
11
1758.665579
21
48.160740
0
LINE
8
0
10
1758.665579
20
48.160740
11
1762.456722
21
48.378505
0
LINE
8
0
10
1762.456722
20
48.378505
11
1765.000000
21
48.404155
0
LINE
8
0
10
1765.000000
20
48.404155
11
1768.634474
21
48.303687
0
LINE
8
0
10
1768.634474
20
48.303687
11
1774.643773
21
47.404853
0
LINE
8
0
10
1774.643773
20
47.404853
11
1779.122587
21
45.512516
0
LINE
8
0
10
1779.122587
20
45.512516
11
1782.249768
21
42.551109
0
LINE
8
0
10
1782.249768
20
42.551109
11
1783.362389
21
40.645890
0
LINE
8
0
10
1783.362389
20
40.645890
11
1784.166301
21
38.884187
0
LINE
8
0
10
1784.166301
20
38.884187
11
1784.824649
21
36.533616
0
LINE
8
0
10
1784.824649
20
36.533616
11
1783.941042
21
35.389455
0
LINE
8
0
10
1783.941042
20
35.389455
11
1781.184296
21
35.022861
0
LINE
8
0
10
1781.184296
20
35.022861
11
1779.000000
21
34.997139
0
LINE
8
0
10
1779.000000
20
34.997139
11
1776.543750
21
35.074148
0
LINE
8
0
10
1776.543750
20
35.074148
11
1773.431250
21
35.629951
0
LINE
8
0
10
1773.431250
20
35.629951
11
1773.000000
21
36.068568
0
LINE
8
0
10
1773.000000
20
36.068568
11
1772.861599
21
36.903399
0
LINE
8
0
10
1772.861599
20
36.903399
11
1771.813702
21
38.331020
0
LINE
8
0
10
1771.813702
20
38.331020
11
1768.610661
21
39.709517
0
LINE
8
0
10
1768.610661
20
39.709517
11
1765.618482
21
39.997139
0
LINE
8
0
10
1765.618482
20
39.997139
11
1762.209714
21
39.718605
0
LINE
8
0
10
1762.209714
20
39.718605
11
1757.852173
21
38.523608
0
LINE
8
0
10
1757.852173
20
38.523608
11
1756.228000
21
37.458298
0
LINE
8
0
10
1756.228000
20
37.458298
11
1756.000000
21
36.909204
0
LINE
8
0
10
1756.000000
20
36.909204
11
1756.228909
21
36.298469
0
LINE
8
0
10
1756.228909
20
36.298469
11
1757.768273
21
34.740609
0
LINE
8
0
10
1757.768273
20
34.740609
11
1761.321626
21
32.545070
0
LINE
8
0
10
1761.321626
20
32.545070
11
1763.384859
21
31.939493
0
LINE
8
0
10
1763.384859
20
31.939493
11
1765.308578
21
31.744366
0
LINE
8
0
10
1765.308578
20
31.744366
11
1770.415879
21
30.619234
0
LINE
8
0
10
1770.415879
20
30.619234
11
1775.980322
21
28.893466
0
LINE
8
0
10
1775.980322
20
28.893466
11
1780.534702
21
27.022104
0
LINE
8
0
10
1780.534702
20
27.022104
11
1781.974617
21
26.174027
0
LINE
8
0
10
1781.974617
20
26.174027
11
1784.028702
21
24.203964
0
LINE
8
0
10
1784.028702
20
24.203964
11
1786.204059
21
19.319666
0
LINE
8
0
10
1786.204059
20
19.319666
11
1785.848812
21
13.887236
0
LINE
8
0
10
1785.848812
20
13.887236
11
1783.018736
21
8.759592
0
LINE
8
0
10
1783.018736
20
8.759592
11
1780.693068
21
6.576601
0
LINE
8
0
10
1780.693068
20
6.576601
11
1778.671983
21
5.264913
0
LINE
8
0
10
1778.671983
20
5.264913
11
1775.018467
21
4.130044
0
LINE
8
0
10
1775.018467
20
4.130044
11
1771.348065
21
3.718361
0
LINE
8
0
10
1771.348065
20
3.718361
11
1768.931555
21
3.561934
0
LINE
8
0
10
1768.931555
20
3.561934
11
1765.319771
21
3.449271
0
LINE
8
0
10
1765.319771
20
3.449271
11
1758.545202
21
3.680367
0
LINE
8
0
10
1758.545202
20
3.680367
11
1756.216821
21
3.995662
0
LINE
8
0
10
524.521470
20
4.129445
11
521.062270
21
5.443388
0
LINE
8
0
10
521.062270
20
5.443388
11
515.206161
21
10.794315
0
LINE
8
0
10
515.206161
20
10.794315
11
512.861224
21
14.783812
0
LINE
8
0
10
512.861224
20
14.783812
11
511.780908
21
17.344337
0
LINE
8
0
10
511.780908
20
17.344337
11
511.090913
21
21.229552
0
LINE
8
0
10
511.090913
20
21.229552
11
511.130378
21
24.783297
0
LINE
8
0
10
511.130378
20
24.783297
11
511.268871
21
27.089418
0
LINE
8
0
10
511.268871
20
27.089418
11
511.794474
21
31.425639
0
LINE
8
0
10
511.794474
20
31.425639
11
514.136038
21
38.562661
0
LINE
8
0
10
514.136038
20
38.562661
11
518.259470
21
43.729377
0
LINE
8
0
10
518.259470
20
43.729377
11
524.238436
21
47.018092
0
LINE
8
0
10
524.238436
20
47.018092
11
527.946765
21
47.987043
0
LINE
8
0
10
527.946765
20
47.987043
11
532.837821
21
48.587168
0
LINE
8
0
10
532.837821
20
48.587168
11
541.519313
21
47.722856
0
LINE
8
0
10
541.519313
20
47.722856
11
548.383332
21
44.281271
0
LINE
8
0
10
548.383332
20
44.281271
11
553.009901
21
38.472988
0
LINE
8
0
10
553.009901
20
38.472988
11
554.352899
21
34.747139
0
LINE
8
0
10
554.352899
20
34.747139
11
555.038104
21
31.997139
0
LINE
8
0
10
555.038104
20
31.997139
11
548.538104
21
31.997139
0
LINE
8
0
10
548.538104
20
31.997139
11
546.499663
21
32.008172
0
LINE
8
0
10
546.499663
20
32.008172
11
543.749857
21
32.169571
0
LINE
8
0
10
543.749857
20
32.169571
11
541.910217
21
33.125683
0
LINE
8
0
10
541.910217
20
33.125683
11
541.404024
21
34.523517
0
LINE
8
0
10
541.404024
20
34.523517
11
540.493970
21
36.558368
0
LINE
8
0
10
540.493970
20
36.558368
11
537.803772
21
38.416562
0
LINE
8
0
10
537.803772
20
38.416562
11
534.989142
21
38.934787
0
LINE
8
0
10
534.989142
20
38.934787
11
533.240055
21
38.997139
0
LINE
8
0
10
533.240055
20
38.997139
11
531.171276
21
38.843897
0
LINE
8
0
10
531.171276
20
38.843897
11
527.943647
21
37.541805
0
LINE
8
0
10
527.943647
20
37.541805
11
525.799610
21
34.742989
0
LINE
8
0
10
525.799610
20
34.742989
11
524.583584
21
30.244357
0
LINE
8
0
10
524.583584
20
30.244357
11
524.274956
21
27.294142
0
LINE
8
0
10
524.274956
20
27.294142
11
524.148413
21
24.422028
0
LINE
8
0
10
524.148413
20
24.422028
11
524.446822
21
19.863375
0
LINE
8
0
10
524.446822
20
19.863375
11
525.576076
21
16.610338
0
LINE
8
0
10
525.576076
20
16.610338
11
527.650794
21
14.332732
0
LINE
8
0
10
527.650794
20
14.332732
11
529.078521
21
13.456534
0
LINE
8
0
10
529.078521
20
13.456534
11
530.854311
21
12.708762
0
LINE
8
0
10
530.854311
20
12.708762
11
534.314347
21
12.220873
0
LINE
8
0
10
534.314347
20
12.220873
11
537.471801
21
13.030247
0
LINE
8
0
10
537.471801
20
13.030247
11
540.110042
21
15.081355
0
LINE
8
0
10
540.110042
20
15.081355
11
541.166762
21
16.555206
0
LINE
8
0
10
541.166762
20
16.555206
11
542.431944
21
18.487018
0
LINE
8
0
10
542.431944
20
18.487018
11
544.613464
21
19.779346
0
LINE
8
0
10
544.613464
20
19.779346
11
547.211355
21
19.984772
0
LINE
8
0
10
547.211355
20
19.984772
11
549.098776
21
19.997139
0
LINE
8
0
10
549.098776
20
19.997139
11
551.390111
21
19.936791
0
LINE
8
0
10
551.390111
20
19.936791
11
554.534357
21
19.529291
0
LINE
8
0
10
554.534357
20
19.529291
11
555.000000
21
19.232330
0
LINE
8
0
10
555.000000
20
19.232330
11
554.801122
21
18.286716
0
LINE
8
0
10
554.801122
20
18.286716
11
553.429458
21
15.409794
0
LINE
8
0
10
553.429458
20
15.409794
11
550.034000
21
10.351732
0
LINE
8
0
10
550.034000
20
10.351732
11
547.731460
21
7.823562
0
LINE
8
0
10
547.731460
20
7.823562
11
545.660046
21
6.313917
0
LINE
8
0
10
545.660046
20
6.313917
11
540.580600
21
4.156948
0
LINE
8
0
10
540.580600
20
4.156948
11
534.552772
21
3.197555
0
LINE
8
0
10
534.552772
20
3.197555
11
527.937090
21
3.493120
0
LINE
8
0
10
527.937090
20
3.493120
11
524.521470
21
4.129445
0
LINE
8
0
10
1300.573917
20
3.730385
11
1298.973837
21
4.116984
0
LINE
8
0
10
1298.973837
20
4.116984
11
1295.759536
21
5.728694
0
LINE
8
0
10
1295.759536
20
5.728694
11
1291.337997
21
9.875048
0
LINE
8
0
10
1291.337997
20
9.875048
11
1288.995451
21
13.505984
0
LINE
8
0
10
1288.995451
20
13.505984
11
1287.863625
21
16.041182
0
LINE
8
0
10
1287.863625
20
16.041182
11
1286.818099
21
21.512871
0
LINE
8
0
10
1286.818099
20
21.512871
11
1286.749885
21
25.258003
0
LINE
8
0
10
1286.749885
20
25.258003
11
1286.952606
21
29.085012
0
LINE
8
0
10
1286.952606
20
29.085012
11
1288.352120
21
35.648966
0
LINE
8
0
10
1288.352120
20
35.648966
11
1291.141827
21
40.880967
0
LINE
8
0
10
1291.141827
20
40.880967
11
1295.399448
21
44.926776
0
LINE
8
0
10
1295.399448
20
44.926776
11
1298.103013
21
46.550409
0
LINE
8
0
10
1298.103013
20
46.550409
11
1300.414542
21
47.432708
0
LINE
8
0
10
1300.414542
20
47.432708
11
1306.482416
21
48.362229
0
LINE
8
0
10
1306.482416
20
48.362229
11
1313.258821
21
48.206333
0
LINE
8
0
10
1313.258821
20
48.206333
11
1319.282289
21
46.998643
0
LINE
8
0
10
1319.282289
20
46.998643
11
1321.554962
21
46.010882
0
LINE
8
0
10
1321.554962
20
46.010882
11
1324.799559
21
43.815833
0
LINE
8
0
10
1324.799559
20
43.815833
11
1328.697980
21
38.726949
0
LINE
8
0
10
1328.697980
20
38.726949
11
1329.556118
21
35.566408
0
LINE
8
0
10
1329.556118
20
35.566408
11
1330.123365
21
31.997139
0
LINE
8
0
10
1330.123365
20
31.997139
11
1324.160458
21
31.997139
0
LINE
8
0
10
1324.160458
20
31.997139
11
1322.245010
21
32.008986
0
LINE
8
0
10
1322.245010
20
32.008986
11
1319.616911
21
32.213926
0
LINE
8
0
10
1319.616911
20
32.213926
11
1317.418389
21
33.525248
0
LINE
8
0
10
1317.418389
20
33.525248
11
1316.132501
21
35.497139
0
LINE
8
0
10
1316.132501
20
35.497139
11
1314.908692
21
37.349715
0
LINE
8
0
10
1314.908692
20
37.349715
11
1312.203733
21
38.885498
0
LINE
8
0
10
1312.203733
20
38.885498
11
1309.967984
21
38.997139
0
LINE
8
0
10
1309.967984
20
38.997139
11
1308.053321
21
38.935670
0
LINE
8
0
10
1308.053321
20
38.935670
11
1305.078520
21
38.361270
0
LINE
8
0
10
1305.078520
20
38.361270
11
1302.956515
21
37.001253
0
LINE
8
0
10
1302.956515
20
37.001253
11
1301.343421
21
34.635222
0
LINE
8
0
10
1301.343421
20
34.635222
11
1300.620253
21
33.006076
0
LINE
8
0
10
1300.620253
20
33.006076
11
1299.684226
21
30.028480
0
LINE
8
0
10
1299.684226
20
30.028480
11
1299.191738
21
24.078545
0
LINE
8
0
10
1299.191738
20
24.078545
11
1300.414308
21
18.684336
0
LINE
8
0
10
1300.414308
20
18.684336
11
1303.202698
21
14.504314
0
LINE
8
0
10
1303.202698
20
14.504314
11
1305.137439
21
13.075391
0
LINE
8
0
10
1305.137439
20
13.075391
11
1306.709223
21
12.451523
0
LINE
8
0
10
1306.709223
20
12.451523
11
1310.180686
21
12.292857
0
LINE
8
0
10
1310.180686
20
12.292857
11
1313.550733
21
13.408052
0
LINE
8
0
10
1313.550733
20
13.408052
11
1316.173031
21
15.583227
0
LINE
8
0
10
1316.173031
20
15.583227
11
1317.001794
21
17.001469
0
LINE
8
0
10
1317.001794
20
17.001469
11
1317.817200
21
18.649373
0
LINE
8
0
10
1317.817200
20
18.649373
11
1319.609535
21
19.786684
0
LINE
8
0
10
1319.609535
20
19.786684
11
1321.902071
21
19.983124
0
LINE
8
0
10
1321.902071
20
19.983124
11
1323.562303
21
19.997139
0
LINE
8
0
10
1323.562303
20
19.997139
11
1325.674449
21
19.921706
0
LINE
8
0
10
1325.674449
20
19.921706
11
1328.823633
21
19.412347
0
LINE
8
0
10
1328.823633
20
19.412347
11
1329.472795
21
19.041157
0
LINE
8
0
10
1329.472795
20
19.041157
11
1329.661518
21
18.261011
0
LINE
8
0
10
1329.661518
20
18.261011
11
1329.075311
21
15.837784
0
LINE
8
0
10
1329.075311
20
15.837784
11
1326.391398
21
11.200275
0
LINE
8
0
10
1326.391398
20
11.200275
11
1323.869242
21
8.338229
0
LINE
8
0
10
1323.869242
20
8.338229
11
1321.872339
21
6.730912
0
LINE
8
0
10
1321.872339
20
6.730912
11
1317.119404
21
4.405259
0
LINE
8
0
10
1317.119404
20
4.405259
11
1311.320738
21
3.258276
0
LINE
8
0
10
1311.320738
20
3.258276
11
1304.436078
21
3.281998
0
LINE
8
0
10
1304.436078
20
3.281998
11
1300.573917
21
3.730385
0
LINE
8
0
10
927.000000
20
4.102961
11
925.201410
21
4.821143
0
LINE
8
0
10
925.201410
20
4.821143
11
921.555223
21
7.228069
0
LINE
8
0
10
921.555223
20
7.228069
11
918.269968
21
10.504015
0
LINE
8
0
10
918.269968
20
10.504015
11
915.857171
21
14.138903
0
LINE
8
0
10
915.857171
20
14.138903
11
915.137797
21
15.931552
0
LINE
8
0
10
915.137797
20
15.931552
11
914.444283
21
19.021196
0
LINE
8
0
10
914.444283
20
19.021196
11
914.035364
21
25.960551
0
LINE
8
0
10
914.035364
20
25.960551
11
914.816996
21
32.904220
0
LINE
8
0
10
914.816996
20
32.904220
11
916.652868
21
38.641272
0
LINE
8
0
10
916.652868
20
38.641272
11
917.923546
21
40.678901
0
LINE
8
0
10
917.923546
20
40.678901
11
920.296981
21
42.974191
0
LINE
8
0
10
920.296981
20
42.974191
11
923.494584
21
45.428901
0
LINE
8
0
10
923.494584
20
45.428901
11
925.783095
21
46.792825
0
LINE
8
0
10
925.783095
20
46.792825
11
929.577370
21
47.786180
0
LINE
8
0
10
929.577370
20
47.786180
11
933.501886
21
47.980375
0
LINE
8
0
10
933.501886
20
47.980375
11
936.179385
21
47.997139
0
LINE
8
0
10
936.179385
20
47.997139
11
940.781881
21
47.826679
0
LINE
8
0
10
940.781881
20
47.826679
11
948.073574
21
46.403340
0
LINE
8
0
10
948.073574
20
46.403340
11
953.033438
21
43.404208
0
LINE
8
0
10
953.033438
20
43.404208
11
955.924556
21
38.670203
0
LINE
8
0
10
955.924556
20
38.670203
11
956.676549
21
35.602910
0
LINE
8
0
10
956.676549
20
35.602910
11
957.261685
21
31.997139
0
LINE
8
0
10
957.261685
20
31.997139
11
951.380842
21
32.035659
0
LINE
8
0
10
951.380842
20
32.035659
11
949.534822
21
32.062089
0
LINE
8
0
10
949.534822
20
32.062089
11
946.956218
21
32.285316
0
LINE
8
0
10
946.956218
20
32.285316
11
944.740984
21
33.511654
0
LINE
8
0
10
944.740984
20
33.511654
11
943.486334
21
35.285659
0
LINE
8
0
10
943.486334
20
35.285659
11
942.292223
21
36.936729
0
LINE
8
0
10
942.292223
20
36.936729
11
939.417569
21
38.527830
0
LINE
8
0
10
939.417569
20
38.527830
11
937.118137
21
38.810412
0
LINE
8
0
10
937.118137
20
38.810412
11
935.172764
21
38.820474
0
LINE
8
0
10
935.172764
20
38.820474
11
931.940952
21
37.974375
0
LINE
8
0
10
931.940952
20
37.974375
11
929.492634
21
35.892464
0
LINE
8
0
10
929.492634
20
35.892464
11
927.713714
21
32.477717
0
LINE
8
0
10
927.713714
20
32.477717
11
927.039622
21
30.240210
0
LINE
8
0
10
927.039622
20
30.240210
11
926.583010
21
27.980425
0
LINE
8
0
10
926.583010
20
27.980425
11
926.388670
21
23.703838
0
LINE
8
0
10
926.388670
20
23.703838
11
927.136672
21
19.834861
0
LINE
8
0
10
927.136672
20
19.834861
11
928.807612
21
16.473858
0
LINE
8
0
10
928.807612
20
16.473858
11
929.983120
21
15.015209
0
LINE
8
0
10
929.983120
20
15.015209
11
931.524583
21
13.533963
0
LINE
8
0
10
931.524583
20
13.533963
11
934.360377
21
12.325944
0
LINE
8
0
10
934.360377
20
12.325944
11
936.147627
21
12.389191
0
LINE
8
0
10
936.147627
20
12.389191
11
938.887180
21
12.693497
0
LINE
8
0
10
938.887180
20
12.693497
11
940.766179
21
12.885356
0
LINE
8
0
10
940.766179
20
12.885356
11
941.389509
21
13.204931
0
LINE
8
0
10
941.389509
20
13.204931
11
942.953427
21
15.129334
0
LINE
8
0
10
942.953427
20
15.129334
11
943.701391
21
16.497139
0
LINE
8
0
10
943.701391
20
16.497139
11
944.762114
21
18.486759
0
LINE
8
0
10
944.762114
20
18.486759
11
946.782255
21
19.791433
0
LINE
8
0
10
946.782255
20
19.791433
11
949.383848
21
19.987015
0
LINE
8
0
10
949.383848
20
19.987015
11
951.310212
21
19.997139
0
LINE
8
0
10
951.310212
20
19.997139
11
957.250000
21
19.997139
0
LINE
8
0
10
957.250000
20
19.997139
11
956.648169
21
16.987984
0
LINE
8
0
10
956.648169
20
16.987984
11
955.571869
21
13.920914
0
LINE
8
0
10
955.571869
20
13.920914
11
951.124455
21
8.059139
0
LINE
8
0
10
951.124455
20
8.059139
11
948.140839
21
5.775165
0
LINE
8
0
10
948.140839
20
5.775165
11
946.330019
21
4.933652
0
LINE
8
0
10
946.330019
20
4.933652
11
941.203297
21
3.730103
0
LINE
8
0
10
941.203297
20
3.730103
11
935.125963
21
3.249397
0
LINE
8
0
10
935.125963
20
3.249397
11
929.365416
21
3.591782
0
LINE
8
0
10
929.365416
20
3.591782
11
927.000000
21
4.102961
0
LINE
8
0
10
1084.235455
20
5.033682
11
1083.052868
21
5.677167
0
LINE
8
0
10
1083.052868
20
5.677167
11
1081.363808
21
8.003647
0
LINE
8
0
10
1081.363808
20
8.003647
11
1080.421211
21
12.446885
0
LINE
8
0
10
1080.421211
20
12.446885
11
1080.039050
21
19.883780
0
LINE
8
0
10
1080.039050
20
19.883780
11
1080.000000
21
24.998880
0
LINE
8
0
10
1080.000000
20
24.998880
11
1080.000000
21
38.870422
0
LINE
8
0
10
1080.000000
20
38.870422
11
1076.750000
21
39.183780
0
LINE
8
0
10
1076.750000
20
39.183780
11
1074.981793
21
39.457930
0
LINE
8
0
10
1074.981793
20
39.457930
11
1073.448231
21
41.208147
0
LINE
8
0
10
1073.448231
20
41.208147
11
1073.189635
21
43.247139
0
LINE
8
0
10
1073.189635
20
43.247139
11
1073.093433
21
45.264389
0
LINE
8
0
10
1073.093433
20
45.264389
11
1074.014759
21
46.888306
0
LINE
8
0
10
1074.014759
20
46.888306
11
1075.317190
21
46.997139
0
LINE
8
0
10
1075.317190
20
46.997139
11
1076.477484
21
47.082902
0
LINE
8
0
10
1076.477484
20
47.082902
11
1078.239882
21
47.847160
0
LINE
8
0
10
1078.239882
20
47.847160
11
1079.371779
21
49.575412
0
LINE
8
0
10
1079.371779
20
49.575412
11
1080.009678
21
52.476078
0
LINE
8
0
10
1080.009678
20
52.476078
11
1080.186036
21
54.431198
0
LINE
8
0
10
1080.186036
20
54.431198
11
1080.297290
21
56.022938
0
LINE
8
0
10
1080.297290
20
56.022938
11
1080.619461
21
58.101679
0
LINE
8
0
10
1080.619461
20
58.101679
11
1081.359338
21
59.086581
0
LINE
8
0
10
1081.359338
20
59.086581
11
1082.858702
21
59.432617
0
LINE
8
0
10
1082.858702
20
59.432617
11
1084.000000
21
59.508238
0
LINE
8
0
10
1084.000000
20
59.508238
11
1086.471747
21
59.609629
0
LINE
8
0
10
1086.471747
20
59.609629
11
1089.788388
21
59.314181
0
LINE
8
0
10
1089.788388
20
59.314181
11
1091.423033
21
57.946990
0
LINE
8
0
10
1091.423033
20
57.946990
11
1091.960250
21
55.019132
0
LINE
8
0
10
1091.960250
20
55.019132
11
1092.000000
21
52.817165
0
LINE
8
0
10
1092.000000
20
52.817165
11
1092.010458
21
50.962196
0
LINE
8
0
10
1092.010458
20
50.962196
11
1092.157632
21
48.494806
0
LINE
8
0
10
1092.157632
20
48.494806
11
1093.011587
21
47.084222
0
LINE
8
0
10
1093.011587
20
47.084222
11
1094.250000
21
47.036264
0
LINE
8
0
10
1094.250000
20
47.036264
11
1095.880404
21
47.143193
0
LINE
8
0
10
1095.880404
20
47.143193
11
1098.186684
21
47.076091
0
LINE
8
0
10
1098.186684
20
47.076091
11
1099.779114
21
46.051101
0
LINE
8
0
10
1099.779114
20
46.051101
11
1100.000000
21
44.578926
0
LINE
8
0
10
1100.000000
20
44.578926
11
1099.949048
21
43.092314
0
LINE
8
0
10
1099.949048
20
43.092314
11
1099.487352
21
40.904493
0
LINE
8
0
10
1099.487352
20
40.904493
11
1098.425745
21
39.618259
0
LINE
8
0
10
1098.425745
20
39.618259
11
1096.620003
21
39.058871
0
LINE
8
0
10
1096.620003
20
39.058871
11
1095.393011
21
38.997139
0
LINE
8
0
10
1095.393011
20
38.997139
11
1092.000000
21
38.997139
0
LINE
8
0
10
1092.000000
20
38.997139
11
1092.000000
21
26.697139
0
LINE
8
0
10
1092.000000
20
26.697139
11
1092.006568
21
24.334261
0
LINE
8
0
10
1092.006568
20
24.334261
11
1092.075609
21
20.388193
0
LINE
8
0
10
1092.075609
20
20.388193
11
1092.401393
21
16.185192
0
LINE
8
0
10
1092.401393
20
16.185192
11
1093.481488
21
13.131846
0
LINE
8
0
10
1093.481488
20
13.131846
11
1095.622072
21
12.081774
0
LINE
8
0
10
1095.622072
20
12.081774
11
1097.200000
21
11.997139
0
LINE
8
0
10
1097.200000
20
11.997139
11
1098.734375
21
11.894460
0
LINE
8
0
10
1098.734375
20
11.894460
11
1099.799609
21
10.895018
0
LINE
8
0
10
1099.799609
20
10.895018
11
1099.986328
21
9.235420
0
LINE
8
0
10
1099.986328
20
9.235420
11
1100.000000
21
7.997139
0
LINE
8
0
10
1100.000000
20
7.997139
11
1100.000000
21
3.997139
0
LINE
8
0
10
1100.000000
20
3.997139
11
1093.250000
21
4.060525
0
LINE
8
0
10
1093.250000
20
4.060525
11
1090.450415
21
4.156924
0
LINE
8
0
10
1090.450415
20
4.156924
11
1085.647353
21
4.675433
0
LINE
8
0
10
1085.647353
20
4.675433
11
1084.235455
21
5.033682
0
LINE
8
0
10
1579.500000
20
4.702971
11
1577.915537
21
5.216698
0
LINE
8
0
10
1577.915537
20
5.216698
11
1575.706637
21
7.224150
0
LINE
8
0
10
1575.706637
20
7.224150
11
1574.526013
21
11.436510
0
LINE
8
0
10
1574.526013
20
11.436510
11
1574.133615
21
16.691169
0
LINE
8
0
10
1574.133615
20
16.691169
11
1574.036005
21
21.444711
0
LINE
8
0
10
1574.036005
20
21.444711
11
1574.022236
21
24.247139
0
LINE
8
0
10
1574.022236
20
24.247139
11
1574.000000
21
38.997139
0
LINE
8
0
10
1574.000000
20
38.997139
11
1571.000000
21
38.997139
0
LINE
8
0
10
1571.000000
20
38.997139
11
1569.335938
21
39.090889
0
LINE
8
0
10
1569.335938
20
39.090889
11
1568.202148
21
40.071358
0
LINE
8
0
10
1568.202148
20
40.071358
11
1568.012695
21
41.740629
0
LINE
8
0
10
1568.012695
20
41.740629
11
1568.000000
21
42.997139
0
LINE
8
0
10
1568.000000
20
42.997139
11
1568.012928
21
44.249524
0
LINE
8
0
10
1568.012928
20
44.249524
11
1568.201729
21
45.916607
0
LINE
8
0
10
1568.201729
20
45.916607
11
1569.319162
21
46.901369
0
LINE
8
0
10
1569.319162
20
46.901369
11
1570.952283
21
46.997139
0
LINE
8
0
10
1570.952283
20
46.997139
11
1572.651802
21
47.103500
0
LINE
8
0
10
1572.651802
20
47.103500
11
1573.815150
21
48.550220
0
LINE
8
0
10
1573.815150
20
48.550220
11
1574.097894
21
51.201923
0
LINE
8
0
10
1574.097894
20
51.201923
11
1574.202283
21
53.247139
0
LINE
8
0
10
1574.202283
20
53.247139
11
1574.500000
21
59.497139
0
LINE
8
0
10
1574.500000
20
59.497139
11
1580.204534
21
59.660407
0
LINE
8
0
10
1580.204534
20
59.660407
11
1585.909068
21
59.823675
0
LINE
8
0
10
1585.909068
20
59.823675
11
1586.204534
21
53.660407
0
LINE
8
0
10
1586.204534
20
53.660407
11
1586.500000
21
47.497139
0
LINE
8
0
10
1586.500000
20
47.497139
11
1590.306565
21
47.183401
0
LINE
8
0
10
1590.306565
20
47.183401
11
1591.539692
21
47.071387
0
LINE
8
0
10
1591.539692
20
47.071387
11
1593.131556
21
46.734711
0
LINE
8
0
10
1593.131556
20
46.734711
11
1593.814133
21
45.954623
0
LINE
8
0
10
1593.814133
20
45.954623
11
1593.895299
21
44.379264
0
LINE
8
0
10
1593.895299
20
44.379264
11
1593.806565
21
43.183401
0
LINE
8
0
10
1593.806565
20
43.183401
11
1593.547757
21
41.134706
0
LINE
8
0
10
1593.547757
20
41.134706
11
1591.833901
21
39.446173
0
LINE
8
0
10
1591.833901
20
39.446173
11
1589.750000
21
39.186774
0
LINE
8
0
10
1589.750000
20
39.186774
11
1586.000000
21
38.876408
0
LINE
8
0
10
1586.000000
20
38.876408
11
1586.000000
21
27.008202
0
LINE
8
0
10
1586.000000
20
27.008202
11
1586.042921
21
22.657638
0
LINE
8
0
10
1586.042921
20
22.657638
11
1586.499772
21
16.586836
0
LINE
8
0
10
1586.499772
20
16.586836
11
1587.703488
21
13.343670
0
LINE
8
0
10
1587.703488
20
13.343670
11
1589.956696
21
12.112780
0
LINE
8
0
10
1589.956696
20
12.112780
11
1591.571429
21
11.997139
0
LINE
8
0
10
1591.571429
20
11.997139
11
1592.864955
21
11.873977
0
LINE
8
0
10
1592.864955
20
11.873977
11
1593.925223
21
10.127654
0
LINE
8
0
10
1593.925223
20
10.127654
11
1594.000000
21
7.997139
0
LINE
8
0
10
1594.000000
20
7.997139
11
1594.000000
21
3.997139
0
LINE
8
0
10
1594.000000
20
3.997139
11
1587.750000
21
4.113140
0
LINE
8
0
10
1587.750000
20
4.113140
11
1585.165430
21
4.195570
0
LINE
8
0
10
1585.165430
20
4.195570
11
1580.769727
21
4.509838
0
LINE
8
0
10
1580.769727
20
4.509838
11
1579.500000
21
4.702971
0
LINE
8
0
10
460.315372
20
5.004118
11
459.063517
21
5.644093
0
LINE
8
0
10
459.063517
20
5.644093
11
457.317672
21
7.794273
0
LINE
8
0
10
457.317672
20
7.794273
11
456.386037
21
11.988380
0
LINE
8
0
10
456.386037
20
11.988380
11
456.079948
21
17.113148
0
LINE
8
0
10
456.079948
20
17.113148
11
456.007656
21
21.720648
0
LINE
8
0
10
456.007656
20
21.720648
11
456.000000
21
24.431398
0
LINE
8
0
10
456.000000
20
24.431398
11
456.000000
21
38.997139
0
LINE
8
0
10
456.000000
20
38.997139
11
453.079455
21
38.997139
0
LINE
8
0
10
453.079455
20
38.997139
11
451.562437
21
39.115372
0
LINE
8
0
10
451.562437
20
39.115372
11
449.937204
21
40.513900
0
LINE
8
0
10
449.937204
20
40.513900
11
449.478292
21
42.095976
0
LINE
8
0
10
449.478292
20
42.095976
11
449.261244
21
43.306927
0
LINE
8
0
10
449.261244
20
43.306927
11
449.314008
21
45.123643
0
LINE
8
0
10
449.314008
20
45.123643
11
450.117928
21
46.280199
0
LINE
8
0
10
450.117928
20
46.280199
11
451.795415
21
46.952700
0
LINE
8
0
10
451.795415
20
46.952700
11
453.000000
21
47.162463
0
LINE
8
0
10
453.000000
20
47.162463
11
454.368251
21
47.510273
0
LINE
8
0
10
454.368251
20
47.510273
11
455.452344
21
49.164067
0
LINE
8
0
10
455.452344
20
49.164067
11
455.833615
21
51.663363
0
LINE
8
0
10
455.833615
20
51.663363
11
456.000000
21
53.497139
0
LINE
8
0
10
456.000000
20
53.497139
11
456.500000
21
59.497139
0
LINE
8
0
10
456.500000
20
59.497139
11
462.000000
21
59.497139
0
LINE
8
0
10
462.000000
20
59.497139
11
467.500000
21
59.497139
0
LINE
8
0
10
467.500000
20
59.497139
11
468.000000
21
53.497139
0
LINE
8
0
10
468.000000
20
53.497139
11
468.171423
21
51.532399
0
LINE
8
0
10
468.171423
20
51.532399
11
468.558578
21
48.969646
0
LINE
8
0
10
468.558578
20
48.969646
11
469.900141
21
47.463674
0
LINE
8
0
10
469.900141
20
47.463674
11
471.807339
21
47.179504
0
LINE
8
0
10
471.807339
20
47.179504
11
473.061594
21
46.987823
0
LINE
8
0
10
473.061594
20
46.987823
11
474.863871
21
46.214285
0
LINE
8
0
10
474.863871
20
46.214285
11
475.772921
21
44.847726
0
LINE
8
0
10
475.772921
20
44.847726
11
475.846846
21
42.800799
0
LINE
8
0
10
475.846846
20
42.800799
11
475.588795
21
41.494903
0
LINE
8
0
10
475.588795
20
41.494903
11
475.133012
21
40.233348
0
LINE
8
0
10
475.133012
20
40.233348
11
473.264143
21
39.096988
0
LINE
8
0
10
473.264143
20
39.096988
11
471.480948
21
38.997139
0
LINE
8
0
10
471.480948
20
38.997139
11
468.000000
21
38.997139
0
LINE
8
0
10
468.000000
20
38.997139
11
468.000000
21
26.697139
0
LINE
8
0
10
468.000000
20
26.697139
11
468.030875
21
22.319981
0
LINE
8
0
10
468.030875
20
22.319981
11
468.387322
21
16.313032
0
LINE
8
0
10
468.387322
20
16.313032
11
469.379911
21
13.208550
0
LINE
8
0
10
469.379911
20
13.208550
11
471.300500
21
12.093706
0
LINE
8
0
10
471.300500
20
12.093706
11
472.700000
21
11.997139
0
LINE
8
0
10
472.700000
20
11.997139
11
474.079911
21
11.866474
0
LINE
8
0
10
474.079911
20
11.866474
11
475.087940
21
10.563419
0
LINE
8
0
10
475.087940
20
10.563419
11
475.352659
21
8.380754
0
LINE
8
0
10
475.352659
20
8.380754
11
475.440123
21
6.747139
0
LINE
8
0
10
475.440123
20
6.747139
11
475.468228
21
5.842864
0
LINE
8
0
10
475.468228
20
5.842864
11
475.184618
21
4.676997
0
LINE
8
0
10
475.184618
20
4.676997
11
473.953712
21
4.160786
0
LINE
8
0
10
473.953712
20
4.160786
11
471.182470
21
4.045522
0
LINE
8
0
10
471.182470
20
4.045522
11
469.033898
21
4.060525
0
LINE
8
0
10
469.033898
20
4.060525
11
466.324527
21
4.154591
0
LINE
8
0
10
466.324527
20
4.154591
11
461.679187
21
4.657349
0
LINE
8
0
10
461.679187
20
4.657349
11
460.315372
21
5.004118
0
LINE
8
0
10
1488.651802
20
4.751518
11
1488.598325
21
4.986883
0
LINE
8
0
10
1488.598325
20
4.986883
11
1488.495962
21
6.299081
0
LINE
8
0
10
1488.495962
20
6.299081
11
1488.357974
21
10.143822
0
LINE
8
0
10
1488.357974
20
10.143822
11
1488.214453
21
18.136590
0
LINE
8
0
10
1488.214453
20
18.136590
11
1488.133134
21
28.516570
0
LINE
8
0
10
1488.133134
20
28.516570
11
1488.121240
21
34.298790
0
LINE
8
0
10
1488.121240
20
34.298790
11
1488.115341
21
62.997139
0
LINE
8
0
10
1488.115341
20
62.997139
11
1494.572775
21
62.997139
0
LINE
8
0
10
1494.572775
20
62.997139
11
1501.030209
21
62.997139
0
LINE
8
0
10
1501.030209
20
62.997139
11
1500.765105
21
33.747139
0
LINE
8
0
10
1500.765105
20
33.747139
11
1500.500000
21
4.497139
0
LINE
8
0
10
1500.500000
20
4.497139
11
1494.838232
21
4.199868
0
LINE
8
0
10
1494.838232
20
4.199868
11
1492.598475
21
4.151428
0
LINE
8
0
10
1492.598475
20
4.151428
11
1489.302267
21
4.445354
0
LINE
8
0
10
1489.302267
20
4.445354
11
1488.651802
21
4.751518
0
LINE
8
0
10
1110.000000
20
25.949422
11
1110.000000
21
47.997139
0
LINE
8
0
10
1110.000000
20
47.997139
11
1116.000000
21
47.997139
0
LINE
8
0
10
1116.000000
20
47.997139
11
1117.903906
21
47.987699
0
LINE
8
0
10
1117.903906
20
47.987699
11
1120.417969
21
47.836006
0
LINE
8
0
10
1120.417969
20
47.836006
11
1121.868750
21
46.895576
0
LINE
8
0
10
1121.868750
20
46.895576
11
1122.000000
21
45.497139
0
LINE
8
0
10
1122.000000
20
45.497139
11
1122.051128
21
44.498434
0
LINE
8
0
10
1122.051128
20
44.498434
11
1122.469458
21
43.306132
0
LINE
8
0
10
1122.469458
20
43.306132
11
1123.329902
21
43.184381
0
LINE
8
0
10
1123.329902
20
43.184381
11
1124.657276
21
44.129670
0
LINE
8
0
10
1124.657276
20
44.129670
11
1125.503817
21
45.001356
0
LINE
8
0
10
1125.503817
20
45.001356
11
1127.732765
21
46.580122
0
LINE
8
0
10
1127.732765
20
46.580122
11
1132.577371
21
48.410116
0
LINE
8
0
10
1132.577371
20
48.410116
11
1135.452166
21
48.817478
0
LINE
8
0
10
1135.452166
20
48.817478
11
1136.434465
21
48.660661
0
LINE
8
0
10
1136.434465
20
48.660661
11
1136.947885
21
48.072180
0
LINE
8
0
10
1136.947885
20
48.072180
11
1137.627742
21
44.943004
0
LINE
8
0
10
1137.627742
20
44.943004
11
1137.752553
21
42.593893
0
LINE
8
0
10
1137.752553
20
42.593893
11
1137.845807
21
36.997139
0
LINE
8
0
10
1137.845807
20
36.997139
11
1133.969956
21
36.997139
0
LINE
8
0
10
1133.969956
20
36.997139
11
1130.419170
21
36.682441
0
LINE
8
0
10
1130.419170
20
36.682441
11
1125.421577
21
34.208848
0
LINE
8
0
10
1125.421577
20
34.208848
11
1124.034025
21
32.079283
0
LINE
8
0
10
1124.034025
20
32.079283
11
1123.808409
21
31.290914
0
LINE
8
0
10
1123.808409
20
31.290914
11
1123.382372
21
28.459808
0
LINE
8
0
10
1123.382372
20
28.459808
11
1122.887362
21
22.007476
0
LINE
8
0
10
1122.887362
20
22.007476
11
1122.716436
21
16.959002
0
LINE
8
0
10
1122.716436
20
16.959002
11
1122.500000
21
4.497139
0
LINE
8
0
10
1122.500000
20
4.497139
11
1116.250000
21
4.199422
0
LINE
8
0
10
1116.250000
20
4.199422
11
1110.000000
21
3.901704
0
LINE
8
0
10
1110.000000
20
3.901704
11
1110.000000
21
25.949422
0
LINE
8
0
10
1262.466488
20
5.223874
11
1262.369716
21
5.908351
0
LINE
8
0
10
1262.369716
20
5.908351
11
1262.228751
21
9.473429
0
LINE
8
0
10
1262.228751
20
9.473429
11
1262.164396
21
15.370571
0
LINE
8
0
10
1262.164396
20
15.370571
11
1262.184458
21
22.884456
0
LINE
8
0
10
1262.184458
20
22.884456
11
1262.228584
21
27.024139
0
LINE
8
0
10
1262.228584
20
27.024139
11
1262.500000
21
47.497139
0
LINE
8
0
10
1262.500000
20
47.497139
11
1268.633289
21
47.791827
0
LINE
8
0
10
1268.633289
20
47.791827
11
1274.766578
21
48.086515
0
LINE
8
0
10
1274.766578
20
48.086515
11
1274.633289
21
26.291827
0
LINE
8
0
10
1274.633289
20
26.291827
11
1274.500000
21
4.497139
0
LINE
8
0
10
1274.500000
20
4.497139
11
1268.737904
21
4.196874
0
LINE
8
0
10
1268.737904
20
4.196874
11
1266.083868
21
4.135011
0
LINE
8
0
10
1266.083868
20
4.135011
11
1263.023884
21
4.636111
0
LINE
8
0
10
1263.023884
20
4.636111
11
1262.466488
21
5.223874
0
LINE
8
0
10
487.000000
20
25.947235
11
487.000000
21
47.997139
0
LINE
8
0
10
487.000000
20
47.997139
11
493.019502
21
47.997139
0
LINE
8
0
10
493.019502
20
47.997139
11
499.039005
21
47.997139
0
LINE
8
0
10
499.039005
20
47.997139
11
498.769502
21
26.247139
0
LINE
8
0
10
498.769502
20
26.247139
11
498.500000
21
4.497139
0
LINE
8
0
10
498.500000
20
4.497139
11
492.750000
21
4.197235
0
LINE
8
0
10
492.750000
20
4.197235
11
487.000000
21
3.897331
0
LINE
8
0
10
487.000000
20
3.897331
11
487.000000
21
25.947235
0
LINE
8
0
10
1605.447199
20
5.274139
11
1605.354302
21
5.948519
0
LINE
8
0
10
1605.354302
20
5.948519
11
1605.220227
21
9.495640
0
LINE
8
0
10
1605.220227
20
9.495640
11
1605.161090
21
15.379185
0
LINE
8
0
10
1605.161090
20
15.379185
11
1605.184064
21
22.885482
0
LINE
8
0
10
1605.184064
20
22.885482
11
1605.228584
21
27.024139
0
LINE
8
0
10
1605.228584
20
27.024139
11
1605.500000
21
47.497139
0
LINE
8
0
10
1605.500000
20
47.497139
11
1611.250000
21
47.797043
0
LINE
8
0
10
1611.250000
20
47.797043
11
1617.000000
21
48.096947
0
LINE
8
0
10
1617.000000
20
48.096947
11
1617.000000
21
26.047043
0
LINE
8
0
10
1617.000000
20
26.047043
11
1617.000000
21
3.997139
0
LINE
8
0
10
1617.000000
20
3.997139
11
1611.468615
21
3.997139
0
LINE
8
0
10
1611.468615
20
3.997139
11
1609.068201
21
4.080932
0
LINE
8
0
10
1609.068201
20
4.080932
11
1606.019958
21
4.727392
0
LINE
8
0
10
1606.019958
20
4.727392
11
1605.447199
21
5.274139
0
LINE
8
0
10
1103.628899
20
146.520050
11
1106.597662
21
148.955654
0
LINE
8
0
10
1106.597662
20
148.955654
11
1111.145331
21
155.033778
0
LINE
8
0
10
1111.145331
20
155.033778
11
1112.343663
21
158.167649
0
LINE
8
0
10
1112.343663
20
158.167649
11
1112.532226
21
159.332746
0
LINE
8
0
10
1112.532226
20
159.332746
11
1112.817519
21
163.394373
0
LINE
8
0
10
1112.817519
20
163.394373
11
1113.025606
21
172.512685
0
LINE
8
0
10
1113.025606
20
172.512685
11
1112.919894
21
186.671142
0
LINE
8
0
10
1112.919894
20
186.671142
11
1112.575934
21
195.750862
0
LINE
8
0
10
1112.575934
20
195.750862
11
1112.230319
21
199.768384
0
LINE
8
0
10
1112.230319
20
199.768384
11
1112.024564
21
200.905916
0
LINE
8
0
10
1112.024564
20
200.905916
11
1111.324436
21
203.000939
0
LINE
8
0
10
1111.324436
20
203.000939
11
1109.274373
21
206.761797
0
LINE
8
0
10
1109.274373
20
206.761797
11
1104.861750
21
211.203931
0
LINE
8
0
10
1104.861750
20
211.203931
11
1097.285114
21
214.535061
0
LINE
8
0
10
1097.285114
20
214.535061
11
1091.002431
21
214.795204
0
LINE
8
0
10
1091.002431
20
214.795204
11
1086.815155
21
213.776644
0
LINE
8
0
10
1086.815155
20
213.776644
11
1084.779270
21
212.884531
0
LINE
8
0
10
1084.779270
20
212.884531
11
1081.585721
21
211.008233
0
LINE
8
0
10
1081.585721
20
211.008233
11
1077.144577
21
206.165997
0
LINE
8
0
10
1077.144577
20
206.165997
11
1075.244796
21
200.654854
0
LINE
8
0
10
1075.244796
20
200.654854
11
1074.530392
21
195.644808
0
LINE
8
0
10
1074.530392
20
195.644808
11
1074.177197
21
189.291622
0
LINE
8
0
10
1074.177197
20
189.291622
11
1074.116226
21
181.360112
0
LINE
8
0
10
1074.116226
20
181.360112
11
1074.173766
21
176.728992
0
LINE
8
0
10
1074.173766
20
176.728992
11
1074.230411
21
173.502156
0
LINE
8
0
10
1074.230411
20
173.502156
11
1074.345594
21
168.130717
0
LINE
8
0
10
1074.345594
20
168.130717
11
1074.574578
21
162.342046
0
LINE
8
0
10
1074.574578
20
162.342046
11
1075.574605
21
156.046446
0
LINE
8
0
10
1075.574605
20
156.046446
11
1076.940202
21
153.236354
0
LINE
8
0
10
1076.940202
20
153.236354
11
1078.351275
21
151.081677
0
LINE
8
0
10
1078.351275
20
151.081677
11
1081.744174
21
147.642258
0
LINE
8
0
10
1081.744174
20
147.642258
11
1085.919475
21
145.351016
0
LINE
8
0
10
1085.919475
20
145.351016
11
1090.902851
21
144.193859
0
LINE
8
0
10
1090.902851
20
144.193859
11
1093.705591
21
144.036161
0
LINE
8
0
10
1093.705591
20
144.036161
11
1096.952917
21
144.123609
0
LINE
8
0
10
1096.952917
20
144.123609
11
1101.514919
21
145.265517
0
LINE
8
0
10
1101.514919
20
145.265517
11
1103.628899
21
146.520050
0
LINE
8
0
10
992.578599
20
185.893470
11
996.128259
21
188.046450
0
LINE
8
0
10
996.128259
20
188.046450
11
998.935154
21
190.621508
0
LINE
8
0
10
998.935154
20
190.621508
11
1000.123723
21
192.363390
0
LINE
8
0
10
1000.123723
20
192.363390
11
1000.879335
21
195.297992
0
LINE
8
0
10
1000.879335
20
195.297992
11
1000.857136
21
198.335000
0
LINE
8
0
10
1000.857136
20
198.335000
11
1000.729109
21
200.400394
0
LINE
8
0
10
1000.729109
20
200.400394
11
1000.514983
21
202.883492
0
LINE
8
0
10
1000.514983
20
202.883492
11
999.747908
21
206.504706
0
LINE
8
0
10
999.747908
20
206.504706
11
998.049963
21
209.051136
0
LINE
8
0
10
998.049963
20
209.051136
11
994.846215
21
211.385015
0
LINE
8
0
10
994.846215
20
211.385015
11
992.500000
21
212.741694
0
LINE
8
0
10
992.500000
20
212.741694
11
991.612028
21
213.110589
0
LINE
8
0
10
991.612028
20
213.110589
11
988.747749
21
213.774390
0
LINE
8
0
10
988.747749
20
213.774390
11
982.595856
21
214.541015
0
LINE
8
0
10
982.595856
20
214.541015
11
973.352811
21
215.012084
0
LINE
8
0
10
973.352811
20
215.012084
11
967.659324
21
214.849156
0
LINE
8
0
10
967.659324
20
214.849156
11
965.318937
21
214.450609
0
LINE
8
0
10
965.318937
20
214.450609
11
964.758399
21
214.155537
0
LINE
8
0
10
964.758399
20
214.155537
11
964.572665
21
213.671433
0
LINE
8
0
10
964.572665
20
213.671433
11
964.267659
21
211.200533
0
LINE
8
0
10
964.267659
20
211.200533
11
963.981434
21
204.847918
0
LINE
8
0
10
963.981434
20
204.847918
11
963.933881
21
194.547374
0
LINE
8
0
10
963.933881
20
194.547374
11
964.160740
21
188.040260
0
LINE
8
0
10
964.160740
20
188.040260
11
964.442116
21
185.392790
0
LINE
8
0
10
964.442116
20
185.392790
11
964.622871
21
184.798330
0
LINE
8
0
10
964.622871
20
184.798330
11
964.960953
21
184.637836
0
LINE
8
0
10
964.960953
20
184.637836
11
966.902903
21
184.354945
0
LINE
8
0
10
966.902903
20
184.354945
11
972.230556
21
184.073792
0
LINE
8
0
10
972.230556
20
184.073792
11
976.809017
21
184.019101
0
LINE
8
0
10
976.809017
20
184.019101
11
979.999568
21
184.044743
0
LINE
8
0
10
979.999568
20
184.044743
11
984.999366
21
184.234920
0
LINE
8
0
10
984.999366
20
184.234920
11
990.054235
21
184.987278
0
LINE
8
0
10
990.054235
20
184.987278
11
992.578599
21
185.893470
0
LINE
8
0
10
1347.000000
20
165.314796
11
1346.926334
21
165.983085
0
LINE
8
0
10
1346.926334
20
165.983085
11
1346.381414
21
168.310565
0
LINE
8
0
10
1346.381414
20
168.310565
11
1344.792125
21
173.525376
0
LINE
8
0
10
1344.792125
20
173.525376
11
1343.390702
21
177.564796
0
LINE
8
0
10
1343.390702
20
177.564796
11
1341.853131
21
181.855871
0
LINE
8
0
10
1341.853131
20
181.855871
11
1339.637529
21
188.228354
0
LINE
8
0
10
1339.637529
20
188.228354
11
1338.476238
21
191.695129
0
LINE
8
0
10
1338.476238
20
191.695129
11
1338.055968
21
193.004078
0
LINE
8
0
10
1338.055968
20
193.004078
11
1337.284538
21
195.331928
0
LINE
8
0
10
1337.284538
20
195.331928
11
1335.679993
21
199.546424
0
LINE
8
0
10
1335.679993
20
199.546424
11
1335.044505
21
200.913981
0
LINE
8
0
10
1335.044505
20
200.913981
11
1334.501330
21
201.855569
0
LINE
8
0
10
1334.501330
20
201.855569
11
1333.555385
21
202.407775
0
LINE
8
0
10
1333.555385
20
202.407775
11
1332.395223
21
200.538617
0
LINE
8
0
10
1332.395223
20
200.538617
11
1331.094744
21
197.080866
0
LINE
8
0
10
1331.094744
20
197.080866
11
1329.909926
21
193.614812
0
LINE
8
0
10
1329.909926
20
193.614812
11
1329.199588
21
191.497139
0
LINE
8
0
10
1329.199588
20
191.497139
11
1326.310976
21
183.123103
0
LINE
8
0
10
1326.310976
20
183.123103
11
1323.594276
21
175.628080
0
LINE
8
0
10
1323.594276
20
175.628080
11
1322.586968
21
172.733628
0
LINE
8
0
10
1322.586968
20
172.733628
11
1321.204705
21
167.538707
0
LINE
8
0
10
1321.204705
20
167.538707
11
1321.000000
21
165.878080
0
LINE
8
0
10
1321.000000
20
165.878080
11
1321.000000
21
162.997139
0
LINE
8
0
10
1321.000000
20
162.997139
11
1334.000000
21
162.997139
0
LINE
8
0
10
1334.000000
20
162.997139
11
1336.276343
21
162.997847
0
LINE
8
0
10
1336.276343
20
162.997847
11
1340.000088
21
163.013528
0
LINE
8
0
10
1340.000088
20
163.013528
11
1343.794205
21
163.122779
0
LINE
8
0
10
1343.794205
20
163.122779
11
1346.295273
21
163.568672
0
LINE
8
0
10
1346.295273
20
163.568672
11
1346.971626
21
164.553512
0
LINE
8
0
10
1346.971626
20
164.553512
11
1347.000000
21
165.314796
0
LINE
8
0
10
366.586644
20
13.584706
11
367.583369
21
14.140974
0
LINE
8
0
10
367.583369
20
14.140974
11
369.719673
21
16.712573
0
LINE
8
0
10
369.719673
20
16.712573
11
371.633056
21
20.427065
0
LINE
8
0
10
371.633056
20
20.427065
11
372.827448
21
24.321417
0
LINE
8
0
10
372.827448
20
24.321417
11
373.000000
21
26.035093
0
LINE
8
0
10
373.000000
20
26.035093
11
372.822461
21
27.540191
0
LINE
8
0
10
372.822461
20
27.540191
11
371.623633
21
31.468667
0
LINE
8
0
10
371.623633
20
31.468667
11
370.750000
21
33.408185
0
LINE
8
0
10
370.750000
20
33.408185
11
369.460877
21
35.673113
0
LINE
8
0
10
369.460877
20
35.673113
11
366.790304
21
37.923008
0
LINE
8
0
10
366.790304
20
37.923008
11
364.829468
21
38.396092
0
LINE
8
0
10
364.829468
20
38.396092
11
361.993468
21
38.587073
0
LINE
8
0
10
361.993468
20
38.587073
11
357.273103
21
37.257395
0
LINE
8
0
10
357.273103
20
37.257395
11
353.961099
21
33.791526
0
LINE
8
0
10
353.961099
20
33.791526
11
352.224876
21
28.364664
0
LINE
8
0
10
352.224876
20
28.364664
11
352.000000
21
24.970610
0
LINE
8
0
10
352.000000
20
24.970610
11
352.272237
21
21.782681
0
LINE
8
0
10
352.272237
20
21.782681
11
354.336168
21
16.771149
0
LINE
8
0
10
354.336168
20
16.771149
11
358.172777
21
13.776405
0
LINE
8
0
10
358.172777
20
13.776405
11
363.478147
21
13.035679
0
LINE
8
0
10
363.478147
20
13.035679
11
366.586644
21
13.584706
0
LINE
8
0
10
729.112701
20
15.806530
11
731.074840
21
18.187276
0
LINE
8
0
10
731.074840
20
18.187276
11
732.920553
21
24.211274
0
LINE
8
0
10
732.920553
20
24.211274
11
732.150492
21
30.622693
0
LINE
8
0
10
732.150492
20
30.622693
11
728.951440
21
35.866427
0
LINE
8
0
10
728.951440
20
35.866427
11
726.499410
21
37.564443
0
LINE
8
0
10
726.499410
20
37.564443
11
723.873880
21
38.409617
0
LINE
8
0
10
723.873880
20
38.409617
11
719.099612
21
37.743593
0
LINE
8
0
10
719.099612
20
37.743593
11
715.397998
21
34.337754
0
LINE
8
0
10
715.397998
20
34.337754
11
713.293350
21
28.674522
0
LINE
8
0
10
713.293350
20
28.674522
11
713.003738
21
25.147139
0
LINE
8
0
10
713.003738
20
25.147139
11
713.108198
21
22.199426
0
LINE
8
0
10
713.108198
20
22.199426
11
714.594451
21
18.370299
0
LINE
8
0
10
714.594451
20
18.370299
11
716.400000
21
16.397139
0
LINE
8
0
10
716.400000
20
16.397139
11
718.011690
21
14.964402
0
LINE
8
0
10
718.011690
20
14.964402
11
721.168708
21
13.265891
0
LINE
8
0
10
721.168708
20
13.265891
11
724.299895
21
13.120422
0
LINE
8
0
10
724.299895
20
13.120422
11
727.480432
21
14.524501
0
LINE
8
0
10
727.480432
20
14.524501
11
729.112701
21
15.806530
0
LINE
8
0
10
1176.234223
20
15.917452
11
1178.055571
21
17.705364
0
LINE
8
0
10
1178.055571
20
17.705364
11
1179.284781
21
20.530146
0
LINE
8
0
10
1179.284781
20
20.530146
11
1179.483544
21
23.679774
0
LINE
8
0
10
1179.483544
20
23.679774
11
1179.494726
21
25.935677
0
LINE
8
0
10
1179.494726
20
25.935677
11
1179.479284
21
28.173738
0
LINE
8
0
10
1179.479284
20
28.173738
11
1179.274042
21
31.323208
0
LINE
8
0
10
1179.274042
20
31.323208
11
1178.065856
21
34.195624
0
LINE
8
0
10
1178.065856
20
34.195624
11
1176.298960
21
36.015364
0
LINE
8
0
10
1176.298960
20
36.015364
11
1174.943202
21
37.111729
0
LINE
8
0
10
1174.943202
20
37.111729
11
1171.956698
21
38.573225
0
LINE
8
0
10
1171.956698
20
38.573225
11
1168.704816
21
39.045050
0
LINE
8
0
10
1168.704816
20
39.045050
11
1165.309081
21
38.509570
0
LINE
8
0
10
1165.309081
20
38.509570
11
1163.595245
21
37.858582
0
LINE
8
0
10
1163.595245
20
37.858582
11
1162.407699
21
37.155969
0
LINE
8
0
10
1162.407699
20
37.155969
11
1160.448374
21
35.059893
0
LINE
8
0
10
1160.448374
20
35.059893
11
1158.576672
21
30.645814
0
LINE
8
0
10
1158.576672
20
30.645814
11
1158.151376
21
23.669848
0
LINE
8
0
10
1158.151376
20
23.669848
11
1160.201154
21
17.235598
0
LINE
8
0
10
1160.201154
20
17.235598
11
1162.191358
21
14.831175
0
LINE
8
0
10
1162.191358
20
14.831175
11
1163.616474
21
13.878734
0
LINE
8
0
10
1163.616474
20
13.878734
11
1167.095844
21
12.933386
0
LINE
8
0
10
1167.095844
20
12.933386
11
1170.952632
21
13.231726
0
LINE
8
0
10
1170.952632
20
13.231726
11
1174.633125
21
14.730920
0
LINE
8
0
10
1174.633125
20
14.730920
11
1176.234223
21
15.917452
0
LINE
8
0
10
1657.638710
20
13.598322
11
1658.651584
21
14.177846
0
LINE
8
0
10
1658.651584
20
14.177846
11
1661.034045
21
16.907566
0
LINE
8
0
10
1661.034045
20
16.907566
11
1663.310548
21
20.749919
0
LINE
8
0
10
1663.310548
20
20.749919
11
1664.783204
21
24.526985
0
LINE
8
0
10
1664.783204
20
24.526985
11
1665.000000
21
26.022936
0
LINE
8
0
10
1665.000000
20
26.022936
11
1664.825395
21
27.450118
0
LINE
8
0
10
1664.825395
20
27.450118
11
1663.621373
21
30.926588
0
LINE
8
0
10
1663.621373
20
30.926588
11
1661.706086
21
34.445328
0
LINE
8
0
10
1661.706086
20
34.445328
11
1659.593717
21
37.061688
0
LINE
8
0
10
1659.593717
20
37.061688
11
1658.624308
21
37.736274
0
LINE
8
0
10
1658.624308
20
37.736274
11
1657.407803
21
38.056700
0
LINE
8
0
10
1657.407803
20
38.056700
11
1653.631163
21
38.244914
0
LINE
8
0
10
1653.631163
20
38.244914
11
1651.536185
21
38.089520
0
LINE
8
0
10
1651.536185
20
38.089520
11
1648.896188
21
37.659829
0
LINE
8
0
10
1648.896188
20
37.659829
11
1645.645548
21
35.870738
0
LINE
8
0
10
1645.645548
20
35.870738
11
1644.286185
21
34.099256
0
LINE
8
0
10
1644.286185
20
34.099256
11
1642.791320
21
30.937832
0
LINE
8
0
10
1642.791320
20
30.937832
11
1642.132262
21
23.258360
0
LINE
8
0
10
1642.132262
20
23.258360
11
1643.021666
21
19.364833
0
LINE
8
0
10
1643.021666
20
19.364833
11
1643.884975
21
17.599291
0
LINE
8
0
10
1643.884975
20
17.599291
11
1646.690433
21
14.863994
0
LINE
8
0
10
1646.690433
20
14.863994
11
1650.597402
21
13.322671
0
LINE
8
0
10
1650.597402
20
13.322671
11
1655.201549
21
13.134835
0
LINE
8
0
10
1655.201549
20
13.134835
11
1657.638710
21
13.598322
0
LINE
8
0
10
426.661280
20
16.612964
11
427.548586
21
17.850557
0
LINE
8
0
10
427.548586
20
17.850557
11
429.007784
21
21.738557
0
LINE
8
0
10
429.007784
20
21.738557
11
429.807563
21
26.182923
0
LINE
8
0
10
429.807563
20
26.182923
11
429.661281
21
29.590792
0
LINE
8
0
10
429.661281
20
29.590792
11
429.143793
21
30.408270
0
LINE
8
0
10
429.143793
20
30.408270
11
428.527123
21
31.227174
0
LINE
8
0
10
428.527123
20
31.227174
11
428.528010
21
32.279164
0
LINE
8
0
10
428.528010
20
32.279164
11
428.438049
21
33.164057
0
LINE
8
0
10
428.438049
20
33.164057
11
426.446780
21
35.317370
0
LINE
8
0
10
426.446780
20
35.317370
11
422.971316
21
37.419088
0
LINE
8
0
10
422.971316
20
37.419088
11
419.128782
21
38.793652
0
LINE
8
0
10
419.128782
20
38.793652
11
417.418965
21
38.997139
0
LINE
8
0
10
417.418965
20
38.997139
11
414.758215
21
38.621892
0
LINE
8
0
10
414.758215
20
38.621892
11
411.408947
21
36.999020
0
LINE
8
0
10
411.408947
20
36.999020
11
410.172801
21
35.534468
0
LINE
8
0
10
410.172801
20
35.534468
11
410.000000
21
34.770723
0
LINE
8
0
10
410.000000
20
34.770723
11
409.559375
21
33.682861
0
LINE
8
0
10
409.559375
20
33.682861
11
408.500000
21
32.354282
0
LINE
8
0
10
408.500000
20
32.354282
11
407.605372
21
30.895164
0
LINE
8
0
10
407.605372
20
30.895164
11
407.031302
21
26.457630
0
LINE
8
0
10
407.031302
20
26.457630
11
407.875485
21
21.242281
0
LINE
8
0
10
407.875485
20
21.242281
11
409.895528
21
16.746618
0
LINE
8
0
10
409.895528
20
16.746618
11
411.270749
21
15.236636
0
LINE
8
0
10
411.270749
20
15.236636
11
413.019847
21
14.120175
0
LINE
8
0
10
413.019847
20
14.120175
11
416.929305
21
13.015067
0
LINE
8
0
10
416.929305
20
13.015067
11
421.038440
21
13.382534
0
LINE
8
0
10
421.038440
20
13.382534
11
424.928848
21
15.185160
0
LINE
8
0
10
424.928848
20
15.185160
11
426.661280
21
16.612964
0
LINE
8
0
10
307.206902
20
13.037820
11
309.229986
21
13.761504
0
LINE
8
0
10
309.229986
20
13.761504
11
312.311056
21
15.953279
0
LINE
8
0
10
312.311056
20
15.953279
11
314.167078
21
19.247180
0
LINE
8
0
10
314.167078
20
19.247180
11
314.872149
21
23.774713
0
LINE
8
0
10
314.872149
20
23.774713
11
314.816234
21
26.542185
0
LINE
8
0
10
314.816234
20
26.542185
11
314.675461
21
28.397704
0
LINE
8
0
10
314.675461
20
28.397704
11
314.263461
21
31.236545
0
LINE
8
0
10
314.263461
20
31.236545
11
313.012085
21
34.193087
0
LINE
8
0
10
313.012085
20
34.193087
11
311.516620
21
35.979791
0
LINE
8
0
10
311.516620
20
35.979791
11
309.827381
21
37.552363
0
LINE
8
0
10
309.827381
20
37.552363
11
306.199180
21
38.892715
0
LINE
8
0
10
306.199180
20
38.892715
11
303.348960
21
38.997139
0
LINE
8
0
10
303.348960
20
38.997139
11
301.683339
21
38.981051
0
LINE
8
0
10
301.683339
20
38.981051
11
299.321520
21
38.743761
0
LINE
8
0
10
299.321520
20
38.743761
11
297.065812
21
37.332140
0
LINE
8
0
10
297.065812
20
37.332140
11
295.536051
21
35.265004
0
LINE
8
0
10
295.536051
20
35.265004
11
294.332187
21
33.231797
0
LINE
8
0
10
294.332187
20
33.231797
11
293.127056
21
28.977358
0
LINE
8
0
10
293.127056
20
28.977358
11
293.000000
21
26.312057
0
LINE
8
0
10
293.000000
20
26.312057
11
293.066613
21
23.960769
0
LINE
8
0
10
293.066613
20
23.960769
11
293.663109
21
20.192051
0
LINE
8
0
10
293.663109
20
20.192051
11
295.018609
21
17.374774
0
LINE
8
0
10
295.018609
20
17.374774
11
297.302690
21
15.156493
0
LINE
8
0
10
297.302690
20
15.156493
11
298.845940
21
14.161837
0
LINE
8
0
10
298.845940
20
14.161837
11
300.250634
21
13.343690
0
LINE
8
0
10
300.250634
20
13.343690
11
302.156771
21
12.368230
0
LINE
8
0
10
302.156771
20
12.368230
11
303.651967
21
12.167222
0
LINE
8
0
10
303.651967
20
12.167222
11
305.688292
21
12.612671
0
LINE
8
0
10
305.688292
20
12.612671
11
307.206902
21
13.037820
0
LINE
8
0
10
1458.500000
20
14.595295
11
1460.469338
21
16.215249
0
LINE
8
0
10
1460.469338
20
16.215249
11
1462.701133
21
21.813430
0
LINE
8
0
10
1462.701133
20
21.813430
11
1462.985258
21
25.846010
0
LINE
8
0
10
1462.985258
20
25.846010
11
1462.887997
21
28.420474
0
LINE
8
0
10
1462.887997
20
28.420474
11
1462.084160
21
32.770190
0
LINE
8
0
10
1462.084160
20
32.770190
11
1460.509965
21
35.968833
0
LINE
8
0
10
1460.509965
20
35.968833
11
1458.215878
21
37.913854
0
LINE
8
0
10
1458.215878
20
37.913854
11
1456.814647
21
38.384210
0
LINE
8
0
10
1456.814647
20
38.384210
11
1453.704123
21
38.860223
0
LINE
8
0
10
1453.704123
20
38.860223
11
1449.084388
21
38.663692
0
LINE
8
0
10
1449.084388
20
38.663692
11
1447.707794
21
37.996788
0
LINE
8
0
10
1447.707794
20
37.996788
11
1446.155994
21
36.757657
0
LINE
8
0
10
1446.155994
20
36.757657
11
1444.121121
21
35.183219
0
LINE
8
0
10
1444.121121
20
35.183219
11
1442.967121
21
34.065359
0
LINE
8
0
10
1442.967121
20
34.065359
11
1441.602372
21
30.764978
0
LINE
8
0
10
1441.602372
20
30.764978
11
1441.249103
21
28.237799
0
LINE
8
0
10
1441.249103
20
28.237799
11
1441.077838
21
25.943378
0
LINE
8
0
10
1441.077838
20
25.943378
11
1441.169903
21
22.232855
0
LINE
8
0
10
1441.169903
20
22.232855
11
1442.596169
21
18.100158
0
LINE
8
0
10
1442.596169
20
18.100158
11
1444.562660
21
15.707206
0
LINE
8
0
10
1444.562660
20
15.707206
11
1445.974922
21
14.522706
0
LINE
8
0
10
1445.974922
20
14.522706
11
1449.311983
21
13.090032
0
LINE
8
0
10
1449.311983
20
13.090032
11
1451.332917
21
12.800585
0
LINE
8
0
10
1451.332917
20
12.800585
11
1452.990371
21
12.722216
0
LINE
8
0
10
1452.990371
20
12.722216
11
1455.477051
21
12.826942
0
LINE
8
0
10
1455.477051
20
12.826942
11
1456.000000
21
12.997139
0
LINE
8
0
10
1456.000000
20
12.997139
11
1456.940625
21
13.672847
0
LINE
8
0
10
1456.940625
20
13.672847
11
1458.500000
21
14.595295
0
ENDSEC
0
EOF
