999
DXF File generated by ImageToStl.com - Free Image and 3D model conversion tools
0
SECTION
2
HEADER
9
$ACADVER
1
AC1009
9
$EXTMIN
10
0
20
0
9
$EXTMAX
10
611.644763
20
274.837025
0
ENDSEC
0
SECTION
2
ENTITIES
0
LINE
8
0
10
124.000000
20
51.837025
11
124.000000
21
100.837025
0
LINE
8
0
10
124.000000
20
100.837025
11
117.073474
21
100.837025
0
LINE
8
0
10
117.073474
20
100.837025
11
110.146947
21
100.837025
0
LINE
8
0
10
110.146947
20
100.837025
11
109.823474
21
109.300628
0
LINE
8
0
10
109.823474
20
109.300628
11
109.500000
21
117.764231
0
LINE
8
0
10
109.500000
20
117.764231
11
116.500000
21
118.050628
0
LINE
8
0
10
116.500000
20
118.050628
11
123.500000
21
118.337025
0
LINE
8
0
10
123.500000
20
118.337025
11
124.219110
21
126.966951
0
LINE
8
0
10
124.219110
20
126.966951
11
124.894677
21
132.472972
0
LINE
8
0
10
124.894677
20
132.472972
11
127.443886
21
142.110709
0
LINE
8
0
10
127.443886
20
142.110709
11
131.622176
21
149.975610
0
LINE
8
0
10
131.622176
20
149.975610
11
137.467522
21
156.139157
0
LINE
8
0
10
137.467522
20
156.139157
11
141.027209
21
158.605262
0
LINE
8
0
10
141.027209
20
158.605262
11
143.693832
21
160.143197
0
LINE
8
0
10
143.693832
20
160.143197
11
148.454892
21
162.340783
0
LINE
8
0
10
148.454892
20
162.340783
11
153.485925
21
163.632517
0
LINE
8
0
10
153.485925
20
163.632517
11
160.026394
21
164.336637
0
LINE
8
0
10
160.026394
20
164.336637
11
164.250000
21
164.567791
0
LINE
8
0
10
164.250000
20
164.567791
11
175.000000
21
165.058273
0
LINE
8
0
10
175.000000
20
165.058273
11
175.000000
21
155.947649
0
LINE
8
0
10
175.000000
20
155.947649
11
175.000000
21
146.837025
0
LINE
8
0
10
175.000000
20
146.837025
11
170.442820
21
146.837025
0
LINE
8
0
10
170.442820
20
146.837025
11
165.105003
21
146.442536
0
LINE
8
0
10
165.105003
20
146.442536
11
156.137044
21
143.401931
0
LINE
8
0
10
156.137044
20
143.401931
11
149.729709
21
137.615394
0
LINE
8
0
10
149.729709
20
137.615394
11
146.223471
21
129.390406
0
LINE
8
0
10
146.223471
20
129.390406
11
145.664660
21
124.459583
0
LINE
8
0
10
145.664660
20
124.459583
11
145.500000
21
118.337025
0
LINE
8
0
10
145.500000
20
118.337025
11
180.750000
21
118.074233
0
LINE
8
0
10
180.750000
20
118.074233
11
216.000000
21
117.811440
0
LINE
8
0
10
216.000000
20
117.811440
11
216.000000
21
60.324233
0
LINE
8
0
10
216.000000
20
60.324233
11
216.000000
21
2.837025
0
LINE
8
0
10
216.000000
20
2.837025
11
205.500000
21
2.837025
0
LINE
8
0
10
205.500000
20
2.837025
11
195.000000
21
2.837025
0
LINE
8
0
10
195.000000
20
2.837025
11
195.000000
21
51.837025
0
LINE
8
0
10
195.000000
20
51.837025
11
195.000000
21
100.837025
0
LINE
8
0
10
195.000000
20
100.837025
11
170.000000
21
100.837025
0
LINE
8
0
10
170.000000
20
100.837025
11
145.000000
21
100.837025
0
LINE
8
0
10
145.000000
20
100.837025
11
145.000000
21
51.837025
0
LINE
8
0
10
145.000000
20
51.837025
11
145.000000
21
2.837025
0
LINE
8
0
10
145.000000
20
2.837025
11
134.500000
21
2.837025
0
LINE
8
0
10
134.500000
20
2.837025
11
124.000000
21
2.837025
0
LINE
8
0
10
124.000000
20
2.837025
11
124.000000
21
51.837025
0
LINE
8
0
10
286.000000
20
3.177594
11
282.186840
21
4.408118
0
LINE
8
0
10
282.186840
20
4.408118
11
275.409229
21
7.231742
0
LINE
8
0
10
275.409229
20
7.231742
11
269.414168
21
10.743257
0
LINE
8
0
10
269.414168
20
10.743257
11
263.782786
21
15.188012
0
LINE
8
0
10
263.782786
20
15.188012
11
260.972576
21
17.837025
0
LINE
8
0
10
260.972576
20
17.837025
11
258.248569
21
20.733565
0
LINE
8
0
10
258.248569
20
20.733565
11
253.399117
21
27.092731
0
LINE
8
0
10
253.399117
20
27.092731
11
249.457796
21
34.013440
0
LINE
8
0
10
249.457796
20
34.013440
11
246.556665
21
41.263802
0
LINE
8
0
10
246.556665
20
41.263802
11
245.537440
21
44.940138
0
LINE
8
0
10
245.537440
20
44.940138
11
244.946235
21
48.082062
0
LINE
8
0
10
244.946235
20
48.082062
11
244.209505
21
55.781416
0
LINE
8
0
10
244.209505
20
55.781416
11
244.084530
21
64.189666
0
LINE
8
0
10
244.084530
20
64.189666
11
244.592331
21
71.892679
0
LINE
8
0
10
244.592331
20
71.892679
11
245.090090
21
75.037804
0
LINE
8
0
10
245.090090
20
75.037804
11
245.871560
21
78.009444
0
LINE
8
0
10
245.871560
20
78.009444
11
248.528817
21
84.962395
0
LINE
8
0
10
248.528817
20
84.962395
11
252.134605
21
92.232209
0
LINE
8
0
10
252.134605
20
92.232209
11
256.076251
21
98.583645
0
LINE
8
0
10
256.076251
20
98.583645
11
257.981560
21
101.028958
0
LINE
8
0
10
257.981560
20
101.028958
11
261.267590
21
104.447496
0
LINE
8
0
10
261.267590
20
104.447496
11
268.855240
21
110.366358
0
LINE
8
0
10
268.855240
20
110.366358
11
277.557181
21
115.014698
0
LINE
8
0
10
277.557181
20
115.014698
11
287.085617
21
118.337032
0
LINE
8
0
10
287.085617
20
118.337032
11
297.152750
21
120.277876
0
LINE
8
0
10
297.152750
20
120.277876
11
307.470786
21
120.781746
0
LINE
8
0
10
307.470786
20
120.781746
11
317.751927
21
119.793157
0
LINE
8
0
10
317.751927
20
119.793157
11
327.708378
21
117.256625
0
LINE
8
0
10
327.708378
20
117.256625
11
332.474908
21
115.390541
0
LINE
8
0
10
332.474908
20
115.390541
11
337.618016
21
112.731391
0
LINE
8
0
10
337.618016
20
112.731391
11
344.786084
21
107.976731
0
LINE
8
0
10
344.786084
20
107.976731
11
347.597089
21
105.411095
0
LINE
8
0
10
347.597089
20
105.411095
11
348.000000
21
104.596170
0
LINE
8
0
10
348.000000
20
104.596170
11
347.898314
21
104.245457
0
LINE
8
0
10
347.898314
20
104.245457
11
347.160999
21
102.817341
0
LINE
8
0
10
347.160999
20
102.817341
11
345.101008
21
99.433055
0
LINE
8
0
10
345.101008
20
99.433055
11
341.639885
21
94.210973
0
LINE
8
0
10
341.639885
20
94.210973
11
339.396827
21
91.102895
0
LINE
8
0
10
339.396827
20
91.102895
11
338.450292
21
89.990447
0
LINE
8
0
10
338.450292
20
89.990447
11
338.217844
21
89.837025
0
LINE
8
0
10
338.217844
20
89.837025
11
337.803111
21
90.046480
0
LINE
8
0
10
337.803111
20
90.046480
11
335.899112
21
91.460819
0
LINE
8
0
10
335.899112
20
91.460819
11
334.644356
21
92.491503
0
LINE
8
0
10
334.644356
20
92.491503
11
332.632362
21
94.014916
0
LINE
8
0
10
332.632362
20
94.014916
11
327.645410
21
96.911657
0
LINE
8
0
10
327.645410
20
96.911657
11
318.816363
21
100.426257
0
LINE
8
0
10
318.816363
20
100.426257
11
312.854755
21
101.861524
0
LINE
8
0
10
312.854755
20
101.861524
11
307.031544
21
102.423209
0
LINE
8
0
10
307.031544
20
102.423209
11
295.694937
21
101.112027
0
LINE
8
0
10
295.694937
20
101.112027
11
285.305727
21
96.777687
0
LINE
8
0
10
285.305727
20
96.777687
11
276.505081
21
89.687680
0
LINE
8
0
10
276.505081
20
89.687680
11
272.900835
21
85.192894
0
LINE
8
0
10
272.900835
20
85.192894
11
270.134690
21
80.441352
0
LINE
8
0
10
270.134690
20
80.441352
11
266.567924
21
69.752703
0
LINE
8
0
10
266.567924
20
69.752703
11
265.688274
21
58.344665
0
LINE
8
0
10
265.688274
20
58.344665
11
267.575442
21
47.250873
0
LINE
8
0
10
267.575442
20
47.250873
11
269.581490
21
42.144831
0
LINE
8
0
10
269.581490
20
42.144831
11
272.026016
21
37.766253
0
LINE
8
0
10
272.026016
20
37.766253
11
278.134227
21
30.339344
0
LINE
8
0
10
278.134227
20
30.339344
11
285.598787
21
24.737706
0
LINE
8
0
10
285.598787
20
24.737706
11
294.096660
21
21.023268
0
LINE
8
0
10
294.096660
20
21.023268
11
303.304812
21
19.257959
0
LINE
8
0
10
303.304812
20
19.257959
11
312.900208
21
19.503710
0
LINE
8
0
10
312.900208
20
19.503710
11
322.559814
21
21.822448
0
LINE
8
0
10
322.559814
20
21.822448
11
331.960594
21
26.276105
0
LINE
8
0
10
331.960594
20
26.276105
11
336.462977
21
29.322881
0
LINE
8
0
10
336.462977
20
29.322881
11
338.833171
21
31.007405
0
LINE
8
0
10
338.833171
20
31.007405
11
341.711332
21
32.716169
0
LINE
8
0
10
341.711332
20
32.716169
11
342.860067
21
33.130496
0
LINE
8
0
10
342.860067
20
33.130496
11
343.121491
21
33.074049
0
LINE
8
0
10
343.121491
20
33.074049
11
343.338313
21
32.784720
0
LINE
8
0
10
343.338313
20
32.784720
11
344.157123
21
31.476402
0
LINE
8
0
10
344.157123
20
31.476402
11
346.073040
21
28.160966
0
LINE
8
0
10
346.073040
20
28.160966
11
347.594735
21
25.415192
0
LINE
8
0
10
347.594735
20
25.415192
11
351.372441
21
18.493359
0
LINE
8
0
10
351.372441
20
18.493359
11
346.943871
21
14.679197
0
LINE
8
0
10
346.943871
20
14.679197
11
344.625447
21
12.860692
0
LINE
8
0
10
344.625447
20
12.860692
11
338.848471
21
9.201869
0
LINE
8
0
10
338.848471
20
9.201869
11
332.234840
21
5.859405
0
LINE
8
0
10
332.234840
20
5.859405
11
325.604776
21
3.247832
0
LINE
8
0
10
325.604776
20
3.247832
11
322.539901
21
2.345671
0
LINE
8
0
10
322.539901
20
2.345671
11
318.690512
21
1.594410
0
LINE
8
0
10
318.690512
20
1.594410
11
309.357252
21
0.848159
0
LINE
8
0
10
309.357252
20
0.848159
11
299.203307
21
1.079339
0
LINE
8
0
10
299.203307
20
1.079339
11
289.859029
21
2.250831
0
LINE
8
0
10
289.859029
20
2.250831
11
286.000000
21
3.177594
0
LINE
8
0
10
543.122004
20
5.057049
11
542.928229
21
5.575274
0
LINE
8
0
10
542.928229
20
5.575274
11
541.937814
21
8.222054
0
LINE
8
0
10
541.937814
20
8.222054
11
540.217018
21
12.819742
0
LINE
8
0
10
540.217018
20
12.819742
11
537.853972
21
19.132904
0
LINE
8
0
10
537.853972
20
19.132904
11
534.936803
21
26.926104
0
LINE
8
0
10
534.936803
20
26.926104
11
531.553640
21
35.963905
0
LINE
8
0
10
531.553640
20
35.963905
11
525.797940
21
51.339220
0
LINE
8
0
10
525.797940
20
51.339220
11
521.635357
21
62.458496
0
LINE
8
0
10
521.635357
20
62.458496
11
517.490109
21
73.538962
0
LINE
8
0
10
517.490109
20
73.538962
11
511.819974
21
88.722717
0
LINE
8
0
10
511.819974
20
88.722717
11
508.528483
21
97.555286
0
LINE
8
0
10
508.528483
20
97.555286
11
505.726624
21
105.090333
0
LINE
8
0
10
505.726624
20
105.090333
11
503.499042
21
111.100219
0
LINE
8
0
10
503.499042
20
111.100219
11
501.930383
21
115.357309
0
LINE
8
0
10
501.930383
20
115.357309
11
501.105291
21
117.633966
0
LINE
8
0
10
501.105291
20
117.633966
11
500.998035
21
117.958496
0
LINE
8
0
10
500.998035
20
117.958496
11
501.230822
21
118.028223
0
LINE
8
0
10
501.230822
20
118.028223
11
502.954996
21
118.116756
0
LINE
8
0
10
502.954996
20
118.116756
11
507.984984
21
118.117990
0
LINE
8
0
10
507.984984
20
118.117990
11
512.420861
21
118.027787
0
LINE
8
0
10
512.420861
20
118.027787
11
516.181211
21
117.920374
0
LINE
8
0
10
516.181211
20
117.920374
11
521.089161
21
117.649915
0
LINE
8
0
10
521.089161
20
117.649915
11
523.470726
21
117.073642
0
LINE
8
0
10
523.470726
20
117.073642
11
524.474642
21
115.913592
0
LINE
8
0
10
524.474642
20
115.913592
11
524.818962
21
115.027787
0
LINE
8
0
10
524.818962
20
115.027787
11
528.633184
21
104.474177
0
LINE
8
0
10
528.633184
20
104.474177
11
535.333053
21
85.876646
0
LINE
8
0
10
535.333053
20
85.876646
11
540.866247
21
70.420617
0
LINE
8
0
10
540.866247
20
70.420617
11
545.318473
21
57.860388
0
LINE
8
0
10
545.318473
20
57.860388
11
548.775439
21
47.950258
0
LINE
8
0
10
548.775439
20
47.950258
11
551.322855
21
40.444526
0
LINE
8
0
10
551.322855
20
40.444526
11
553.046428
21
35.097491
0
LINE
8
0
10
553.046428
20
35.097491
11
554.031867
21
31.663453
0
LINE
8
0
10
554.031867
20
31.663453
11
554.274570
21
30.587025
0
LINE
8
0
10
554.274570
20
30.587025
11
554.713646
21
28.485826
0
LINE
8
0
10
554.713646
20
28.485826
11
555.580550
21
25.752889
0
LINE
8
0
10
555.580550
20
25.752889
11
556.417571
21
24.992751
0
LINE
8
0
10
556.417571
20
24.992751
11
557.206847
21
26.221632
0
LINE
8
0
10
557.206847
20
26.221632
11
557.577999
21
27.587025
0
LINE
8
0
10
557.577999
20
27.587025
11
558.258902
21
30.499175
0
LINE
8
0
10
558.258902
20
30.499175
11
559.030801
21
33.639024
0
LINE
8
0
10
559.030801
20
33.639024
11
559.191944
21
34.186532
0
LINE
8
0
10
559.191944
20
34.186532
11
559.939586
21
36.455806
0
LINE
8
0
10
559.939586
20
36.455806
11
561.201499
21
40.140367
0
LINE
8
0
10
561.201499
20
40.140367
11
562.914237
21
45.059748
0
LINE
8
0
10
562.914237
20
45.059748
11
566.189856
21
54.359328
0
LINE
8
0
10
566.189856
20
54.359328
11
571.543080
21
69.396260
0
LINE
8
0
10
571.543080
20
69.396260
11
574.499397
21
77.639024
0
LINE
8
0
10
574.499397
20
77.639024
11
589.131293
21
118.337025
0
LINE
8
0
10
589.131293
20
118.337025
11
600.388028
21
118.029481
0
LINE
8
0
10
600.388028
20
118.029481
11
611.644763
21
117.721937
0
LINE
8
0
10
611.644763
20
117.721937
11
590.404715
21
60.529481
0
LINE
8
0
10
590.404715
20
60.529481
11
569.164668
21
3.337025
0
LINE
8
0
10
569.164668
20
3.337025
11
556.568980
21
3.057049
0
LINE
8
0
10
556.568980
20
3.057049
11
552.489646
21
2.972967
0
LINE
8
0
10
552.489646
20
2.972967
11
547.121984
21
2.981813
0
LINE
8
0
10
547.121984
20
2.981813
11
544.495422
21
3.372468
0
LINE
8
0
10
544.495422
20
3.372468
11
543.433668
21
4.319883
0
LINE
8
0
10
543.433668
20
4.319883
11
543.122004
21
5.057049
0
LINE
8
0
10
420.000000
20
2.474408
11
415.344181
21
3.255857
0
LINE
8
0
10
415.344181
20
3.255857
11
407.352430
21
5.272501
0
LINE
8
0
10
407.352430
20
5.272501
11
400.825522
21
8.018242
0
LINE
8
0
10
400.825522
20
8.018242
11
395.409445
21
11.642006
0
LINE
8
0
10
395.409445
20
11.642006
11
393.007339
21
13.829686
0
LINE
8
0
10
393.007339
20
13.829686
11
389.783716
21
17.371508
0
LINE
8
0
10
389.783716
20
17.371508
11
386.215082
21
23.121345
0
LINE
8
0
10
386.215082
20
23.121345
11
384.563523
21
27.839590
0
LINE
8
0
10
384.563523
20
27.839590
11
383.400383
21
33.740745
0
LINE
8
0
10
383.400383
20
33.740745
11
382.645433
21
41.231863
0
LINE
8
0
10
382.645433
20
41.231863
11
382.218440
21
50.719996
0
LINE
8
0
10
382.218440
20
50.719996
11
382.039172
21
62.612196
0
LINE
8
0
10
382.039172
20
62.612196
11
382.017364
21
69.587025
0
LINE
8
0
10
382.017364
20
69.587025
11
382.000000
21
99.837025
0
LINE
8
0
10
382.000000
20
99.837025
11
374.500000
21
99.837025
0
LINE
8
0
10
374.500000
20
99.837025
11
367.000000
21
99.837025
0
LINE
8
0
10
367.000000
20
99.837025
11
367.000000
21
108.337025
0
LINE
8
0
10
367.000000
20
108.337025
11
367.000000
21
116.837025
0
LINE
8
0
10
367.000000
20
116.837025
11
375.000000
21
116.837025
0
LINE
8
0
10
375.000000
20
116.837025
11
383.000000
21
116.837025
0
LINE
8
0
10
383.000000
20
116.837025
11
383.000000
21
133.337025
0
LINE
8
0
10
383.000000
20
133.337025
11
383.000000
21
149.837025
0
LINE
8
0
10
383.000000
20
149.837025
11
393.500000
21
149.837025
0
LINE
8
0
10
393.500000
20
149.837025
11
404.000000
21
149.837025
0
LINE
8
0
10
404.000000
20
149.837025
11
404.000000
21
133.337025
0
LINE
8
0
10
404.000000
20
133.337025
11
404.000000
21
116.837025
0
LINE
8
0
10
404.000000
20
116.837025
11
418.000000
21
116.837025
0
LINE
8
0
10
418.000000
20
116.837025
11
432.000000
21
116.837025
0
LINE
8
0
10
432.000000
20
116.837025
11
432.000000
21
108.337025
0
LINE
8
0
10
432.000000
20
108.337025
11
432.000000
21
99.837025
0
LINE
8
0
10
432.000000
20
99.837025
11
418.000000
21
99.837025
0
LINE
8
0
10
418.000000
20
99.837025
11
404.000000
21
99.837025
0
LINE
8
0
10
404.000000
20
99.837025
11
404.009769
21
69.587025
0
LINE
8
0
10
404.009769
20
69.587025
11
404.012384
21
64.321293
0
LINE
8
0
10
404.012384
20
64.321293
11
404.032718
21
55.660226
0
LINE
8
0
10
404.032718
20
55.660226
11
404.096016
21
49.159630
0
LINE
8
0
10
404.096016
20
49.159630
11
404.229669
21
44.419436
0
LINE
8
0
10
404.229669
20
44.419436
11
404.621980
21
39.734742
0
LINE
8
0
10
404.621980
20
39.734742
11
405.646946
21
35.915893
0
LINE
8
0
10
405.646946
20
35.915893
11
406.436150
21
34.146627
0
LINE
8
0
10
406.436150
20
34.146627
11
407.742522
21
31.728857
0
LINE
8
0
10
407.742522
20
31.728857
11
411.066786
21
27.578546
0
LINE
8
0
10
411.066786
20
27.578546
11
412.999504
21
25.952344
0
LINE
8
0
10
412.999504
20
25.952344
11
414.893705
21
24.768451
0
LINE
8
0
10
414.893705
20
24.768451
11
419.529432
21
22.769702
0
LINE
8
0
10
419.529432
20
22.769702
11
424.590820
21
21.447005
0
LINE
8
0
10
424.590820
20
21.447005
11
429.232939
21
21.021167
0
LINE
8
0
10
429.232939
20
21.021167
11
431.132734
21
21.213572
0
LINE
8
0
10
431.132734
20
21.213572
11
434.000000
21
21.787025
0
LINE
8
0
10
434.000000
20
21.787025
11
434.000000
21
12.428657
0
LINE
8
0
10
434.000000
20
12.428657
11
433.990687
21
9.480355
0
LINE
8
0
10
433.990687
20
9.480355
11
433.849732
21
5.533940
0
LINE
8
0
10
433.849732
20
5.533940
11
433.000196
21
3.018708
0
LINE
8
0
10
433.000196
20
3.018708
11
431.750000
21
2.467311
0
LINE
8
0
10
431.750000
20
2.467311
11
429.535236
21
2.115585
0
LINE
8
0
10
429.535236
20
2.115585
11
423.328441
21
2.119333
0
LINE
8
0
10
423.328441
20
2.119333
11
420.000000
21
2.474408
0
LINE
8
0
10
459.000000
20
60.337025
11
459.000000
21
117.837025
0
LINE
8
0
10
459.000000
20
117.837025
11
470.000000
21
117.837025
0
LINE
8
0
10
470.000000
20
117.837025
11
481.000000
21
117.837025
0
LINE
8
0
10
481.000000
20
117.837025
11
481.000000
21
60.337025
0
LINE
8
0
10
481.000000
20
60.337025
11
481.000000
21
2.837025
0
LINE
8
0
10
481.000000
20
2.837025
11
470.000000
21
2.837025
0
LINE
8
0
10
470.000000
20
2.837025
11
459.000000
21
2.837025
0
LINE
8
0
10
459.000000
20
2.837025
11
459.000000
21
60.337025
0
LINE
8
0
10
459.000000
20
152.837025
11
459.000000
21
163.837025
0
LINE
8
0
10
459.000000
20
163.837025
11
470.000000
21
163.837025
0
LINE
8
0
10
470.000000
20
163.837025
11
481.000000
21
163.837025
0
LINE
8
0
10
481.000000
20
163.837025
11
481.000000
21
152.837025
0
LINE
8
0
10
481.000000
20
152.837025
11
481.000000
21
141.837025
0
LINE
8
0
10
481.000000
20
141.837025
11
470.000000
21
141.837025
0
LINE
8
0
10
470.000000
20
141.837025
11
459.000000
21
141.837025
0
LINE
8
0
10
459.000000
20
141.837025
11
459.000000
21
152.837025
0
LINE
8
0
10
195.000000
20
152.837025
11
195.000000
21
163.837025
0
LINE
8
0
10
195.000000
20
163.837025
11
205.500000
21
163.837025
0
LINE
8
0
10
205.500000
20
163.837025
11
216.000000
21
163.837025
0
LINE
8
0
10
216.000000
20
163.837025
11
216.000000
21
152.837025
0
LINE
8
0
10
216.000000
20
152.837025
11
216.000000
21
141.837025
0
LINE
8
0
10
216.000000
20
141.837025
11
205.500000
21
141.837025
0
LINE
8
0
10
205.500000
20
141.837025
11
195.000000
21
141.837025
0
LINE
8
0
10
195.000000
20
141.837025
11
195.000000
21
152.837025
0
ENDSEC
0
EOF
