999
DXF File generated by ImageToStl.com - Free Image and 3D model conversion tools
0
SECTION
2
HEADER
9
$ACADVER
1
AC1009
9
$EXTMIN
10
0
20
0
9
$EXTMAX
10
904.477849
20
189.787703
0
ENDSEC
0
SECTION
2
ENTITIES
0
LINE
8
0
10
110.000000
20
3.098496
11
108.237899
21
3.824716
0
LINE
8
0
10
108.237899
20
3.824716
11
102.633316
21
6.604763
0
LINE
8
0
10
102.633316
20
6.604763
11
90.699314
21
13.121430
0
LINE
8
0
10
90.699314
20
13.121430
11
77.210874
21
20.898141
0
LINE
8
0
10
77.210874
20
20.898141
11
68.842847
21
25.918266
0
LINE
8
0
10
68.842847
20
25.918266
11
62.015722
21
30.201852
0
LINE
8
0
10
62.015722
20
30.201852
11
57.622204
21
33.230275
0
LINE
8
0
10
57.622204
20
33.230275
11
56.617018
21
34.111731
0
LINE
8
0
10
56.617018
20
34.111731
11
56.043812
21
34.859267
0
LINE
8
0
10
56.043812
20
34.859267
11
55.306264
21
36.809259
0
LINE
8
0
10
55.306264
20
36.809259
11
55.037571
21
40.379693
0
LINE
8
0
10
55.037571
20
40.379693
11
55.088657
21
44.852828
0
LINE
8
0
10
55.088657
20
44.852828
11
55.221544
21
48.974981
0
LINE
8
0
10
55.221544
20
48.974981
11
55.313345
21
51.435107
0
LINE
8
0
10
55.313345
20
51.435107
11
55.409003
21
53.976862
0
LINE
8
0
10
55.409003
20
53.976862
11
55.550121
21
58.181686
0
LINE
8
0
10
55.550121
20
58.181686
11
55.611027
21
62.584479
0
LINE
8
0
10
55.611027
20
62.584479
11
55.340026
21
65.718291
0
LINE
8
0
10
55.340026
20
65.718291
11
54.567646
21
66.867712
0
LINE
8
0
10
54.567646
20
66.867712
11
53.959739
21
67.087980
0
LINE
8
0
10
53.959739
20
67.087980
11
53.319246
21
67.337560
0
LINE
8
0
10
53.319246
20
67.337560
11
50.763115
21
68.613216
0
LINE
8
0
10
50.763115
20
68.613216
11
44.620231
21
71.990585
0
LINE
8
0
10
44.620231
20
71.990585
11
39.669655
21
74.846817
0
LINE
8
0
10
39.669655
20
74.846817
11
37.584805
21
76.072608
0
LINE
8
0
10
37.584805
20
76.072608
11
34.159514
21
78.110150
0
LINE
8
0
10
34.159514
20
78.110150
11
30.680447
21
80.303587
0
LINE
8
0
10
30.680447
20
80.303587
11
28.572235
21
82.099687
0
LINE
8
0
10
28.572235
20
82.099687
11
28.565443
21
83.279672
0
LINE
8
0
10
28.565443
20
83.279672
11
29.080548
21
83.868250
0
LINE
8
0
10
29.080548
20
83.868250
11
30.956135
21
85.458933
0
LINE
8
0
10
30.956135
20
85.458933
11
33.882719
21
87.192793
0
LINE
8
0
10
33.882719
20
87.192793
11
35.289460
21
87.576960
0
LINE
8
0
10
35.289460
20
87.576960
11
35.670161
21
87.450874
0
LINE
8
0
10
35.670161
20
87.450874
11
36.017565
21
87.388777
0
LINE
8
0
10
36.017565
20
87.388777
11
37.321236
21
88.011624
0
LINE
8
0
10
37.321236
20
88.011624
11
38.116935
21
88.619854
0
LINE
8
0
10
38.116935
20
88.619854
11
39.691963
21
89.702597
0
LINE
8
0
10
39.691963
20
89.702597
11
40.743377
21
89.963703
0
LINE
8
0
10
40.743377
20
89.963703
11
41.399765
21
90.239957
0
LINE
8
0
10
41.399765
20
90.239957
11
42.025052
21
91.359120
0
LINE
8
0
10
42.025052
20
91.359120
11
43.169720
21
92.650083
0
LINE
8
0
10
43.169720
20
92.650083
11
45.074835
21
93.339390
0
LINE
8
0
10
45.074835
20
93.339390
11
46.322153
21
93.721095
0
LINE
8
0
10
46.322153
20
93.721095
11
49.633482
21
95.753612
0
LINE
8
0
10
49.633482
20
95.753612
11
51.289646
21
97.154083
0
LINE
8
0
10
51.289646
20
97.154083
11
53.039056
21
98.601215
0
LINE
8
0
10
53.039056
20
98.601215
11
56.873285
21
100.828377
0
LINE
8
0
10
56.873285
20
100.828377
11
58.528906
21
101.359103
0
LINE
8
0
10
58.528906
20
101.359103
11
59.941670
21
101.729337
0
LINE
8
0
10
59.941670
20
101.729337
11
61.747777
21
102.821457
0
LINE
8
0
10
61.747777
20
102.821457
11
62.000000
21
103.458010
0
LINE
8
0
10
62.000000
20
103.458010
11
62.086128
21
103.989876
0
LINE
8
0
10
62.086128
20
103.989876
11
62.697110
21
104.368321
0
LINE
8
0
10
62.697110
20
104.368321
11
63.169939
21
104.182675
0
LINE
8
0
10
63.169939
20
104.182675
11
63.651155
21
103.967195
0
LINE
8
0
10
63.651155
20
103.967195
11
63.886832
21
104.501882
0
LINE
8
0
10
63.886832
20
104.501882
11
63.647047
21
105.265101
0
LINE
8
0
10
63.647047
20
105.265101
11
63.348623
21
106.143865
0
LINE
8
0
10
63.348623
20
106.143865
11
63.721940
21
106.387448
0
LINE
8
0
10
63.721940
20
106.387448
11
64.477108
21
105.806701
0
LINE
8
0
10
64.477108
20
105.806701
11
65.154655
21
105.311768
0
LINE
8
0
10
65.154655
20
105.311768
11
65.908580
21
105.241745
0
LINE
8
0
10
65.908580
20
105.241745
11
66.000000
21
105.665258
0
LINE
8
0
10
66.000000
20
105.665258
11
66.449844
21
106.457984
0
LINE
8
0
10
66.449844
20
106.457984
11
67.531385
21
106.787703
0
LINE
8
0
10
67.531385
20
106.787703
11
68.782009
21
107.228328
0
LINE
8
0
10
68.782009
20
107.228328
11
69.638374
21
108.287703
0
LINE
8
0
10
69.638374
20
108.287703
11
70.065775
21
108.870124
0
LINE
8
0
10
70.065775
20
108.870124
11
71.749326
21
109.669343
0
LINE
8
0
10
71.749326
20
109.669343
11
72.798118
21
109.787703
0
LINE
8
0
10
72.798118
20
109.787703
11
74.213951
21
109.818586
0
LINE
8
0
10
74.213951
20
109.818586
11
74.481515
21
110.443773
0
LINE
8
0
10
74.481515
20
110.443773
11
73.441130
21
111.290156
0
LINE
8
0
10
73.441130
20
111.290156
11
72.463127
21
112.070886
0
LINE
8
0
10
72.463127
20
112.070886
11
72.409138
21
112.449441
0
LINE
8
0
10
72.409138
20
112.449441
11
73.317461
21
112.157280
0
LINE
8
0
10
73.317461
20
112.157280
11
75.219043
21
112.113091
0
LINE
8
0
10
75.219043
20
112.113091
11
78.374283
21
113.273290
0
LINE
8
0
10
78.374283
20
113.273290
11
79.499482
21
114.348592
0
LINE
8
0
10
79.499482
20
114.348592
11
79.465110
21
114.844155
0
LINE
8
0
10
79.465110
20
114.844155
11
79.634298
21
115.256701
0
LINE
8
0
10
79.634298
20
115.256701
11
81.751551
21
116.465124
0
LINE
8
0
10
81.751551
20
116.465124
11
83.438839
21
117.112163
0
LINE
8
0
10
83.438839
20
117.112163
11
84.833515
21
117.684518
0
LINE
8
0
10
84.833515
20
117.684518
11
90.022658
21
120.160182
0
LINE
8
0
10
90.022658
20
120.160182
11
97.583188
21
123.973581
0
LINE
8
0
10
97.583188
20
123.973581
11
106.521103
21
128.600470
0
LINE
8
0
10
106.521103
20
128.600470
11
115.842403
21
133.516604
0
LINE
8
0
10
115.842403
20
133.516604
11
124.553088
21
138.197740
0
LINE
8
0
10
124.553088
20
138.197740
11
131.659155
21
142.119632
0
LINE
8
0
10
131.659155
20
142.119632
11
135.337722
21
144.247431
0
LINE
8
0
10
135.337722
20
144.247431
11
136.770949
21
145.155656
0
LINE
8
0
10
136.770949
20
145.155656
11
137.135223
21
145.432102
0
LINE
8
0
10
137.135223
20
145.432102
11
138.452811
21
147.275255
0
LINE
8
0
10
138.452811
20
147.275255
11
139.324359
21
149.659498
0
LINE
8
0
10
139.324359
20
149.659498
11
139.805622
21
151.064251
0
LINE
8
0
10
139.805622
20
151.064251
11
142.125979
21
153.296410
0
LINE
8
0
10
142.125979
20
153.296410
11
144.189136
21
154.339362
0
LINE
8
0
10
144.189136
20
154.339362
11
145.953207
21
155.198181
0
LINE
8
0
10
145.953207
20
155.198181
11
148.859454
21
157.006630
0
LINE
8
0
10
148.859454
20
157.006630
11
149.643677
21
157.733519
0
LINE
8
0
10
149.643677
20
157.733519
11
150.370287
21
158.227676
0
LINE
8
0
10
150.370287
20
158.227676
11
151.594457
21
156.382005
0
LINE
8
0
10
151.594457
20
156.382005
11
152.466892
21
151.041312
0
LINE
8
0
10
152.466892
20
151.041312
11
152.931995
21
142.545945
0
LINE
8
0
10
152.931995
20
142.545945
11
152.994423
21
137.221617
0
LINE
8
0
10
152.994423
20
137.221617
11
153.000000
21
123.155531
0
LINE
8
0
10
153.000000
20
123.155531
11
177.331139
21
111.053803
0
LINE
8
0
10
177.331139
20
111.053803
11
180.547164
21
109.448250
0
LINE
8
0
10
180.547164
20
109.448250
11
186.250478
21
106.562099
0
LINE
8
0
10
186.250478
20
106.562099
11
193.097351
21
102.980547
0
LINE
8
0
10
193.097351
20
102.980547
11
199.356543
21
99.419624
0
LINE
8
0
10
199.356543
20
99.419624
11
202.780617
21
96.993596
0
LINE
8
0
10
202.780617
20
96.993596
11
203.581139
21
96.119889
0
LINE
8
0
10
203.581139
20
96.119889
11
204.167281
21
95.111264
0
LINE
8
0
10
204.167281
20
95.111264
11
204.980146
21
92.102685
0
LINE
8
0
10
204.980146
20
92.102685
11
205.350709
21
88.000200
0
LINE
8
0
10
205.350709
20
88.000200
11
205.519805
21
83.920119
0
LINE
8
0
10
205.519805
20
83.920119
11
205.648887
21
78.473998
0
LINE
8
0
10
205.648887
20
78.473998
11
205.757103
21
71.413295
0
LINE
8
0
10
205.757103
20
71.413295
11
205.809371
21
67.199805
0
LINE
8
0
10
205.809371
20
67.199805
11
206.118742
21
41.111907
0
LINE
8
0
10
206.118742
20
41.111907
11
203.809371
21
38.895113
0
LINE
8
0
10
203.809371
20
38.895113
11
203.317953
21
38.487627
0
LINE
8
0
10
203.317953
20
38.487627
11
201.488100
21
37.222426
0
LINE
8
0
10
201.488100
20
37.222426
11
196.908982
21
34.358100
0
LINE
8
0
10
196.908982
20
34.358100
11
188.172366
21
29.180150
0
LINE
8
0
10
188.172366
20
29.180150
11
177.536392
21
23.071277
0
LINE
8
0
10
177.536392
20
23.071277
11
166.209397
21
16.710079
0
LINE
8
0
10
166.209397
20
16.710079
11
155.399719
21
10.775153
0
LINE
8
0
10
155.399719
20
10.775153
11
146.315695
21
5.945099
0
LINE
8
0
10
146.315695
20
5.945099
11
141.362028
21
3.455848
0
LINE
8
0
10
141.362028
20
3.455848
11
139.228193
21
2.495056
0
LINE
8
0
10
139.228193
20
2.495056
11
138.568499
21
2.256082
0
LINE
8
0
10
138.568499
20
2.256082
11
135.485257
21
1.533410
0
LINE
8
0
10
135.485257
20
1.533410
11
128.254935
21
0.816799
0
LINE
8
0
10
128.254935
20
0.816799
11
120.467105
21
1.046443
0
LINE
8
0
10
120.467105
20
1.046443
11
113.154894
21
2.191877
0
LINE
8
0
10
113.154894
20
2.191877
11
110.000000
21
3.098496
0
LINE
8
0
10
803.000000
20
96.287703
11
803.000000
21
151.787703
0
LINE
8
0
10
803.000000
20
151.787703
11
830.789901
21
151.787703
0
LINE
8
0
10
830.789901
20
151.787703
11
836.201525
21
151.780441
0
LINE
8
0
10
836.201525
20
151.780441
11
845.358887
21
151.702659
0
LINE
8
0
10
845.358887
20
151.702659
11
852.624877
21
151.496782
0
LINE
8
0
10
852.624877
20
151.496782
11
858.395263
21
151.110310
0
LINE
8
0
10
858.395263
20
151.110310
11
865.112331
21
150.077141
0
LINE
8
0
10
865.112331
20
150.077141
11
872.527658
21
147.577495
0
LINE
8
0
10
872.527658
20
147.577495
11
876.465476
21
145.728652
0
LINE
8
0
10
876.465476
20
145.728652
11
880.816605
21
143.322568
0
LINE
8
0
10
880.816605
20
143.322568
11
888.507184
21
137.430349
0
LINE
8
0
10
888.507184
20
137.430349
11
894.850063
21
130.096666
0
LINE
8
0
10
894.850063
20
130.096666
11
899.846685
21
121.319850
0
LINE
8
0
10
899.846685
20
121.319850
11
901.840601
21
116.389745
0
LINE
8
0
10
901.840601
20
116.389745
11
903.161348
21
112.259537
0
LINE
8
0
10
903.161348
20
112.259537
11
904.166231
21
106.110600
0
LINE
8
0
10
904.166231
20
106.110600
11
904.392357
21
100.472276
0
LINE
8
0
10
904.392357
20
100.472276
11
904.425517
21
96.787703
0
LINE
8
0
10
904.425517
20
96.787703
11
904.384673
21
92.030433
0
LINE
8
0
10
904.384673
20
92.030433
11
903.816237
21
84.330288
0
LINE
8
0
10
903.816237
20
84.330288
11
902.323372
21
77.854592
0
LINE
8
0
10
902.323372
20
77.854592
11
899.575565
21
71.169655
0
LINE
8
0
10
899.575565
20
71.169655
11
897.627773
21
67.300694
0
LINE
8
0
10
897.627773
20
67.300694
11
895.992595
21
64.517054
0
LINE
8
0
10
895.992595
20
64.517054
11
891.680566
21
58.834900
0
LINE
8
0
10
891.680566
20
58.834900
11
886.476001
21
53.507644
0
LINE
8
0
10
886.476001
20
53.507644
11
880.974530
21
49.144958
0
LINE
8
0
10
880.974530
20
49.144958
11
878.298589
21
47.515851
0
LINE
8
0
10
878.298589
20
47.515851
11
874.419619
21
45.581135
0
LINE
8
0
10
874.419619
20
45.581135
11
866.409597
21
42.868224
0
LINE
8
0
10
866.409597
20
42.868224
11
858.951825
21
41.672981
0
LINE
8
0
10
858.951825
20
41.672981
11
852.703816
21
41.193737
0
LINE
8
0
10
852.703816
20
41.193737
11
845.070527
21
40.917445
0
LINE
8
0
10
845.070527
20
40.917445
11
835.739658
21
40.800293
0
LINE
8
0
10
835.739658
20
40.800293
11
830.340037
21
40.787703
0
LINE
8
0
10
830.340037
20
40.787703
11
803.000000
21
40.787703
0
LINE
8
0
10
803.000000
20
40.787703
11
803.000000
21
96.287703
0
LINE
8
0
10
661.000000
20
96.287703
11
661.000000
21
151.787703
0
LINE
8
0
10
661.000000
20
151.787703
11
672.931446
21
151.787703
0
LINE
8
0
10
672.931446
20
151.787703
11
684.862893
21
151.787703
0
LINE
8
0
10
684.862893
20
151.787703
11
700.882383
21
125.700930
0
LINE
8
0
10
700.882383
20
125.700930
11
716.901873
21
99.614157
0
LINE
8
0
10
716.901873
20
99.614157
11
721.257628
21
106.450930
0
LINE
8
0
10
721.257628
20
106.450930
11
722.376372
21
108.216837
0
LINE
8
0
10
722.376372
20
108.216837
11
725.735524
21
113.562811
0
LINE
8
0
10
725.735524
20
113.562811
11
732.575633
21
124.513282
0
LINE
8
0
10
732.575633
20
124.513282
11
737.556692
21
132.520468
0
LINE
8
0
10
737.556692
20
132.520468
11
749.500000
21
151.753234
0
LINE
8
0
10
749.500000
20
151.753234
11
761.250000
21
151.770468
0
LINE
8
0
10
761.250000
20
151.770468
11
773.000000
21
151.787703
0
LINE
8
0
10
773.000000
20
151.787703
11
773.000000
21
96.287703
0
LINE
8
0
10
773.000000
20
96.287703
11
773.000000
21
40.787703
0
LINE
8
0
10
773.000000
20
40.787703
11
759.891421
21
40.787703
0
LINE
8
0
10
759.891421
20
40.787703
11
746.782842
21
40.787703
0
LINE
8
0
10
746.782842
20
40.787703
11
747.141421
21
74.306053
0
LINE
8
0
10
747.141421
20
74.306053
11
747.191543
21
79.248446
0
LINE
8
0
10
747.191543
20
79.248446
11
747.256778
21
87.658651
0
LINE
8
0
10
747.256778
20
87.658651
11
747.270886
21
94.252169
0
LINE
8
0
10
747.270886
20
94.252169
11
747.228527
21
99.208307
0
LINE
8
0
10
747.228527
20
99.208307
11
747.124362
21
102.706375
0
LINE
8
0
10
747.124362
20
102.706375
11
746.953051
21
104.925678
0
LINE
8
0
10
746.953051
20
104.925678
11
746.558508
21
106.249187
0
LINE
8
0
10
746.558508
20
106.249187
11
746.195974
21
106.056053
0
LINE
8
0
10
746.195974
20
106.056053
11
745.695306
21
105.328495
0
LINE
8
0
10
745.695306
20
105.328495
11
743.463656
21
101.942595
0
LINE
8
0
10
743.463656
20
101.942595
11
739.947054
21
96.529489
0
LINE
8
0
10
739.947054
20
96.529489
11
735.572064
21
89.745785
0
LINE
8
0
10
735.572064
20
89.745785
11
733.195974
21
86.045148
0
LINE
8
0
10
733.195974
20
86.045148
11
721.500000
21
67.802593
0
LINE
8
0
10
721.500000
20
67.802593
11
716.429973
21
67.795148
0
LINE
8
0
10
716.429973
20
67.795148
11
711.359947
21
67.787703
0
LINE
8
0
10
711.359947
20
67.787703
11
699.000000
21
87.287703
0
LINE
8
0
10
699.000000
20
87.287703
11
696.512348
21
91.204841
0
LINE
8
0
10
696.512348
20
91.204841
11
692.061545
21
98.170759
0
LINE
8
0
10
692.061545
20
98.170759
11
688.654475
21
103.445661
0
LINE
8
0
10
688.654475
20
103.445661
11
686.704413
21
106.389704
0
LINE
8
0
10
686.704413
20
106.389704
11
686.404909
21
106.787703
0
LINE
8
0
10
686.404909
20
106.787703
11
686.383910
21
106.616499
0
LINE
8
0
10
686.383910
20
106.616499
11
686.360903
21
105.297627
0
LINE
8
0
10
686.360903
20
105.297627
11
686.371294
21
101.131941
0
LINE
8
0
10
686.371294
20
101.131941
11
686.461764
21
92.205183
0
LINE
8
0
10
686.461764
20
92.205183
11
686.629736
21
80.416706
0
LINE
8
0
10
686.629736
20
80.416706
11
686.739355
21
73.787703
0
LINE
8
0
10
686.739355
20
73.787703
11
687.308946
21
40.787703
0
LINE
8
0
10
687.308946
20
40.787703
11
674.154473
21
40.787703
0
LINE
8
0
10
674.154473
20
40.787703
11
661.000000
21
40.787703
0
LINE
8
0
10
661.000000
20
40.787703
11
661.000000
21
96.287703
0
LINE
8
0
10
251.000000
20
96.287703
11
251.000000
21
151.787703
0
LINE
8
0
10
251.000000
20
151.787703
11
264.500000
21
151.787703
0
LINE
8
0
10
264.500000
20
151.787703
11
278.000000
21
151.787703
0
LINE
8
0
10
278.000000
20
151.787703
11
278.000000
21
129.787703
0
LINE
8
0
10
278.000000
20
129.787703
11
278.000000
21
107.787703
0
LINE
8
0
10
278.000000
20
107.787703
11
299.500000
21
107.787703
0
LINE
8
0
10
299.500000
20
107.787703
11
321.000000
21
107.787703
0
LINE
8
0
10
321.000000
20
107.787703
11
321.000000
21
129.787703
0
LINE
8
0
10
321.000000
20
129.787703
11
321.000000
21
151.787703
0
LINE
8
0
10
321.000000
20
151.787703
11
334.000000
21
151.787703
0
LINE
8
0
10
334.000000
20
151.787703
11
347.000000
21
151.787703
0
LINE
8
0
10
347.000000
20
151.787703
11
347.000000
21
96.287703
0
LINE
8
0
10
347.000000
20
96.287703
11
347.000000
21
40.787703
0
LINE
8
0
10
347.000000
20
40.787703
11
334.019502
21
40.787703
0
LINE
8
0
10
334.019502
20
40.787703
11
321.039005
21
40.787703
0
LINE
8
0
10
321.039005
20
40.787703
11
320.769502
21
62.537703
0
LINE
8
0
10
320.769502
20
62.537703
11
320.500000
21
84.287703
0
LINE
8
0
10
320.500000
20
84.287703
11
299.250000
21
84.557590
0
LINE
8
0
10
299.250000
20
84.557590
11
278.000000
21
84.827478
0
LINE
8
0
10
278.000000
20
84.827478
11
278.000000
21
62.807590
0
LINE
8
0
10
278.000000
20
62.807590
11
278.000000
21
40.787703
0
LINE
8
0
10
278.000000
20
40.787703
11
264.500000
21
40.787703
0
LINE
8
0
10
264.500000
20
40.787703
11
251.000000
21
40.787703
0
LINE
8
0
10
251.000000
20
40.787703
11
251.000000
21
96.287703
0
LINE
8
0
10
556.000000
20
99.787703
11
556.000000
21
158.787703
0
LINE
8
0
10
556.000000
20
158.787703
11
568.500000
21
158.787703
0
LINE
8
0
10
568.500000
20
158.787703
11
581.000000
21
158.787703
0
LINE
8
0
10
581.000000
20
158.787703
11
581.000000
21
126.549802
0
LINE
8
0
10
581.000000
20
126.549802
11
581.000000
21
94.311902
0
LINE
8
0
10
581.000000
20
94.311902
11
596.261728
21
109.549802
0
LINE
8
0
10
596.261728
20
109.549802
11
611.523456
21
124.787703
0
LINE
8
0
10
611.523456
20
124.787703
11
627.511728
21
124.776112
0
LINE
8
0
10
627.511728
20
124.776112
11
643.500000
21
124.764521
0
LINE
8
0
10
643.500000
20
124.764521
11
632.000000
21
114.057133
0
LINE
8
0
10
632.000000
20
114.057133
11
626.921670
21
109.305411
0
LINE
8
0
10
626.921670
20
109.305411
11
619.037459
21
101.856933
0
LINE
8
0
10
619.037459
20
101.856933
11
614.525603
21
97.550087
0
LINE
8
0
10
614.525603
20
97.550087
11
612.730072
21
95.818724
0
LINE
8
0
10
612.730072
20
95.818724
11
604.960144
21
88.287703
0
LINE
8
0
10
604.960144
20
88.287703
11
623.992680
21
64.537703
0
LINE
8
0
10
623.992680
20
64.537703
11
643.025215
21
40.787703
0
LINE
8
0
10
643.025215
20
40.787703
11
628.262608
21
40.788260
0
LINE
8
0
10
628.262608
20
40.788260
11
613.500000
21
40.788818
0
LINE
8
0
10
613.500000
20
40.788818
11
601.571531
21
56.339543
0
LINE
8
0
10
601.571531
20
56.339543
11
599.156822
21
59.474809
0
LINE
8
0
10
599.156822
20
59.474809
11
594.758578
21
65.114659
0
LINE
8
0
10
594.758578
20
65.114659
11
591.286230
21
69.473044
0
LINE
8
0
10
591.286230
20
69.473044
11
589.160972
21
72.021291
0
LINE
8
0
10
589.160972
20
72.021291
11
588.735125
21
72.451404
0
LINE
8
0
10
588.735125
20
72.451404
11
588.113236
21
72.408215
0
LINE
8
0
10
588.113236
20
72.408215
11
585.810670
21
70.944339
0
LINE
8
0
10
585.810670
20
70.944339
11
584.413594
21
69.703955
0
LINE
8
0
10
584.413594
20
69.703955
11
581.000000
21
66.395369
0
LINE
8
0
10
581.000000
20
66.395369
11
581.000000
21
53.591536
0
LINE
8
0
10
581.000000
20
53.591536
11
581.000000
21
40.787703
0
LINE
8
0
10
581.000000
20
40.787703
11
568.500000
21
40.787703
0
LINE
8
0
10
568.500000
20
40.787703
11
556.000000
21
40.787703
0
LINE
8
0
10
556.000000
20
40.787703
11
556.000000
21
99.787703
0
LINE
8
0
10
391.343746
20
39.781985
11
387.784860
21
40.775532
0
LINE
8
0
10
387.784860
20
40.775532
11
381.213719
21
44.021863
0
LINE
8
0
10
381.213719
20
44.021863
11
375.795426
21
48.589718
0
LINE
8
0
10
375.795426
20
48.589718
11
372.038794
21
54.050146
0
LINE
8
0
10
372.038794
20
54.050146
11
370.942604
21
56.981028
0
LINE
8
0
10
370.942604
20
56.981028
11
370.267055
21
61.492415
0
LINE
8
0
10
370.267055
20
61.492415
11
370.587548
21
69.185407
0
LINE
8
0
10
370.587548
20
69.185407
11
371.597906
21
73.690227
0
LINE
8
0
10
371.597906
20
73.690227
11
372.318304
21
75.436340
0
LINE
8
0
10
372.318304
20
75.436340
11
374.662613
21
78.944812
0
LINE
8
0
10
374.662613
20
78.944812
11
381.652543
21
84.849998
0
LINE
8
0
10
381.652543
20
84.849998
11
385.938477
21
86.942846
0
LINE
8
0
10
385.938477
20
86.942846
11
389.315758
21
88.025896
0
LINE
8
0
10
389.315758
20
88.025896
11
395.777321
21
89.067034
0
LINE
8
0
10
395.777321
20
89.067034
11
402.029653
21
89.511258
0
LINE
8
0
10
402.029653
20
89.511258
11
406.000000
21
89.694176
0
LINE
8
0
10
406.000000
20
89.694176
11
420.500000
21
90.287703
0
LINE
8
0
10
420.500000
20
90.287703
11
420.223160
21
93.707551
0
LINE
8
0
10
420.223160
20
93.707551
11
419.617654
21
97.235946
0
LINE
8
0
10
419.617654
20
97.235946
11
416.544509
21
102.335515
0
LINE
8
0
10
416.544509
20
102.335515
11
413.998853
21
104.036149
0
LINE
8
0
10
413.998853
20
104.036149
11
411.321246
21
105.058067
0
LINE
8
0
10
411.321246
20
105.058067
11
405.291561
21
105.691680
0
LINE
8
0
10
405.291561
20
105.691680
11
398.851532
21
104.532968
0
LINE
8
0
10
398.851532
20
104.532968
11
392.587897
21
101.687500
0
LINE
8
0
10
392.587897
20
101.687500
11
389.705584
21
99.665222
0
LINE
8
0
10
389.705584
20
99.665222
11
385.911168
21
96.622069
0
LINE
8
0
10
385.911168
20
96.622069
11
378.453358
21
103.296775
0
LINE
8
0
10
378.453358
20
103.296775
11
375.603242
21
105.962241
0
LINE
8
0
10
375.603242
20
105.962241
11
372.529159
21
109.240839
0
LINE
8
0
10
372.529159
20
109.240839
11
371.609703
21
110.582685
0
LINE
8
0
10
371.609703
20
110.582685
11
371.573608
21
110.906803
0
LINE
8
0
10
371.573608
20
110.906803
11
372.700080
21
112.120299
0
LINE
8
0
10
372.700080
20
112.120299
11
377.444268
21
115.633069
0
LINE
8
0
10
377.444268
20
115.633069
11
383.937318
21
119.626280
0
LINE
8
0
10
383.937318
20
119.626280
11
390.291875
21
122.939212
0
LINE
8
0
10
390.291875
20
122.939212
11
392.827420
21
123.977849
0
LINE
8
0
10
392.827420
20
123.977849
11
396.627299
21
125.129776
0
LINE
8
0
10
396.627299
20
125.129776
11
402.390303
21
126.025139
0
LINE
8
0
10
402.390303
20
126.025139
11
407.378324
21
126.206337
0
LINE
8
0
10
407.378324
20
126.206337
11
410.500000
21
126.208043
0
LINE
8
0
10
410.500000
20
126.208043
11
415.104237
21
126.077471
0
LINE
8
0
10
415.104237
20
126.077471
11
422.807457
21
125.160215
0
LINE
8
0
10
422.807457
20
125.160215
11
428.950728
21
123.227498
0
LINE
8
0
10
428.950728
20
123.227498
11
434.070517
21
120.110543
0
LINE
8
0
10
434.070517
20
120.110543
11
436.414252
21
118.055235
0
LINE
8
0
10
436.414252
20
118.055235
11
438.881771
21
115.579242
0
LINE
8
0
10
438.881771
20
115.579242
11
442.081871
21
110.512538
0
LINE
8
0
10
442.081871
20
110.512538
11
443.302759
21
104.617601
0
LINE
8
0
10
443.302759
20
104.617601
11
443.716538
21
98.740290
0
LINE
8
0
10
443.716538
20
98.740290
11
443.910611
21
90.714125
0
LINE
8
0
10
443.910611
20
90.714125
11
443.971042
21
80.032558
0
LINE
8
0
10
443.971042
20
80.032558
11
443.978038
21
73.537703
0
LINE
8
0
10
443.978038
20
73.537703
11
444.000000
21
40.787703
0
LINE
8
0
10
444.000000
20
40.787703
11
432.500000
21
40.787703
0
LINE
8
0
10
432.500000
20
40.787703
11
421.000000
21
40.787703
0
LINE
8
0
10
421.000000
20
40.787703
11
421.000000
21
44.287703
0
LINE
8
0
10
421.000000
20
44.287703
11
420.961508
21
45.625053
0
LINE
8
0
10
420.961508
20
45.625053
11
420.579075
21
47.268271
0
LINE
8
0
10
420.579075
20
47.268271
11
419.623825
21
47.592343
0
LINE
8
0
10
419.623825
20
47.592343
11
417.897100
21
46.664665
0
LINE
8
0
10
417.897100
20
46.664665
11
416.682352
21
45.752481
0
LINE
8
0
10
416.682352
20
45.752481
11
414.042947
21
43.944230
0
LINE
8
0
10
414.042947
20
43.944230
11
407.924518
21
41.146746
0
LINE
8
0
10
407.924518
20
41.146746
11
401.202751
21
39.562907
0
LINE
8
0
10
401.202751
20
39.562907
11
394.497031
21
39.338657
0
LINE
8
0
10
394.497031
20
39.338657
11
391.343746
21
39.781985
0
LINE
8
0
10
14.645296
20
89.508752
11
11.783887
21
91.259041
0
LINE
8
0
10
11.783887
20
91.259041
11
7.420390
21
94.129366
0
LINE
8
0
10
7.420390
20
94.129366
11
4.593306
21
96.378993
0
LINE
8
0
10
4.593306
20
96.378993
11
2.971415
21
98.271485
0
LINE
8
0
10
2.971415
20
98.271485
11
2.508910
21
99.166171
0
LINE
8
0
10
2.508910
20
99.166171
11
2.166624
21
100.240614
0
LINE
8
0
10
2.166624
20
100.240614
11
1.783855
21
103.499616
0
LINE
8
0
10
1.783855
20
103.499616
11
1.807139
21
109.119472
0
LINE
8
0
10
1.807139
20
109.119472
11
2.093708
21
115.519433
0
LINE
8
0
10
2.093708
20
115.519433
11
2.413926
21
121.074278
0
LINE
8
0
10
2.413926
20
121.074278
11
2.612991
21
124.287703
0
LINE
8
0
10
2.612991
20
124.287703
11
2.913268
21
128.760769
0
LINE
8
0
10
2.913268
20
128.760769
11
3.570339
21
137.017202
0
LINE
8
0
10
3.570339
20
137.017202
11
4.235530
21
143.680491
0
LINE
8
0
10
4.235530
20
143.680491
11
4.828152
21
147.942381
0
LINE
8
0
10
4.828152
20
147.942381
11
5.072036
21
148.920223
0
LINE
8
0
10
5.072036
20
148.920223
11
6.616510
21
151.522854
0
LINE
8
0
10
6.616510
20
151.522854
11
8.822659
21
154.083512
0
LINE
8
0
10
8.822659
20
154.083512
11
9.293993
21
154.463012
0
LINE
8
0
10
9.293993
20
154.463012
11
11.049651
21
155.617353
0
LINE
8
0
10
11.049651
20
155.617353
11
15.445563
21
158.197213
0
LINE
8
0
10
15.445563
20
158.197213
11
23.840501
21
162.828588
0
LINE
8
0
10
23.840501
20
162.828588
11
34.074931
21
168.274162
0
LINE
8
0
10
34.074931
20
168.274162
11
44.996645
21
173.936567
0
LINE
8
0
10
44.996645
20
173.936567
11
55.453434
21
179.218437
0
LINE
8
0
10
55.453434
20
179.218437
11
64.293092
21
183.522406
0
LINE
8
0
10
64.293092
20
183.522406
11
69.168467
21
185.749281
0
LINE
8
0
10
69.168467
20
185.749281
11
71.313255
21
186.617141
0
LINE
8
0
10
71.313255
20
186.617141
11
72.000000
21
186.838053
0
LINE
8
0
10
72.000000
20
186.838053
11
74.675368
21
187.393388
0
LINE
8
0
10
74.675368
20
187.393388
11
81.076607
21
187.980023
0
LINE
8
0
10
81.076607
20
187.980023
11
87.991711
21
187.880684
0
LINE
8
0
10
87.991711
20
187.880684
11
94.356514
21
187.110657
0
LINE
8
0
10
94.356514
20
187.110657
11
97.000000
21
186.478913
0
LINE
8
0
10
97.000000
20
186.478913
11
98.748670
21
185.865580
0
LINE
8
0
10
98.748670
20
185.865580
11
104.236272
21
183.551865
0
LINE
8
0
10
104.236272
20
183.551865
11
115.818855
21
178.168372
0
LINE
8
0
10
115.818855
20
178.168372
11
128.823699
21
171.776889
0
LINE
8
0
10
128.823699
20
171.776889
11
136.839762
21
167.671191
0
LINE
8
0
10
136.839762
20
167.671191
11
143.321976
21
164.190427
0
LINE
8
0
10
143.321976
20
164.190427
11
147.403955
21
161.763768
0
LINE
8
0
10
147.403955
20
161.763768
11
148.274110
21
161.079845
0
LINE
8
0
10
148.274110
20
161.079845
11
149.034189
21
160.083448
0
LINE
8
0
10
149.034189
20
160.083448
11
149.514019
21
158.315120
0
LINE
8
0
10
149.514019
20
158.315120
11
148.509496
21
156.688615
0
LINE
8
0
10
148.509496
20
156.688615
11
145.903922
21
155.014977
0
LINE
8
0
10
145.903922
20
155.014977
11
143.964273
21
154.101436
0
LINE
8
0
10
143.964273
20
154.101436
11
142.427529
21
153.433354
0
LINE
8
0
10
142.427529
20
153.433354
11
140.367880
21
152.645083
0
LINE
8
0
10
140.367880
20
152.645083
11
139.127455
21
152.776480
0
LINE
8
0
10
139.127455
20
152.776480
11
139.000000
21
153.696449
0
LINE
8
0
10
139.000000
20
153.696449
11
138.843864
21
154.753192
0
LINE
8
0
10
138.843864
20
154.753192
11
137.064134
21
156.962344
0
LINE
8
0
10
137.064134
20
156.962344
11
133.748838
21
159.138489
0
LINE
8
0
10
133.748838
20
159.138489
11
130.263893
21
161.043944
0
LINE
8
0
10
130.263893
20
161.043944
11
125.552788
21
163.442211
0
LINE
8
0
10
125.552788
20
163.442211
11
119.438640
21
166.443912
0
LINE
8
0
10
119.438640
20
166.443912
11
115.800150
21
168.205620
0
LINE
8
0
10
115.800150
20
168.205620
11
111.867379
21
170.089037
0
LINE
8
0
10
111.867379
20
170.089037
11
104.998582
21
173.265988
0
LINE
8
0
10
104.998582
20
173.265988
11
99.272707
21
175.709206
0
LINE
8
0
10
99.272707
20
175.709206
11
94.466460
21
177.482028
0
LINE
8
0
10
94.466460
20
177.482028
11
88.492946
21
179.022816
0
LINE
8
0
10
88.492946
20
179.022816
11
81.662909
21
179.321948
0
LINE
8
0
10
81.662909
20
179.321948
11
78.231764
21
178.861769
0
LINE
8
0
10
78.231764
20
178.861769
11
76.598732
21
178.404923
0
LINE
8
0
10
76.598732
20
178.404923
11
70.829953
21
176.163311
0
LINE
8
0
10
70.829953
20
176.163311
11
62.568259
21
172.555158
0
LINE
8
0
10
62.568259
20
172.555158
11
52.826492
21
168.065284
0
LINE
8
0
10
52.826492
20
168.065284
11
42.617494
21
163.178510
0
LINE
8
0
10
42.617494
20
163.178510
11
32.954108
21
158.379656
0
LINE
8
0
10
32.954108
20
158.379656
11
24.849177
21
154.153543
0
LINE
8
0
10
24.849177
20
154.153543
11
19.315544
21
150.984992
0
LINE
8
0
10
19.315544
20
150.984992
11
17.829477
21
149.948809
0
LINE
8
0
10
17.829477
20
149.948809
11
16.611250
21
148.693893
0
LINE
8
0
10
16.611250
20
148.693893
11
15.141815
21
145.674436
0
LINE
8
0
10
15.141815
20
145.674436
11
14.981858
21
142.388712
0
LINE
8
0
10
14.981858
20
142.388712
11
16.155519
21
139.332602
0
LINE
8
0
10
16.155519
20
139.332602
11
17.250000
21
138.045614
0
LINE
8
0
10
17.250000
20
138.045614
11
18.099976
21
137.429552
0
LINE
8
0
10
18.099976
20
137.429552
11
21.847778
21
135.232252
0
LINE
8
0
10
21.847778
20
135.232252
11
27.731323
21
132.067912
0
LINE
8
0
10
27.731323
20
132.067912
11
35.036938
21
128.320365
0
LINE
8
0
10
35.036938
20
128.320365
11
39.000000
21
126.347837
0
LINE
8
0
10
39.000000
20
126.347837
11
42.548346
21
124.615093
0
LINE
8
0
10
42.548346
20
124.615093
11
48.872490
21
121.631157
0
LINE
8
0
10
48.872490
20
121.631157
11
56.681851
21
118.275886
0
LINE
8
0
10
56.681851
20
118.275886
11
64.676832
21
115.660965
0
LINE
8
0
10
64.676832
20
115.660965
11
70.904376
21
114.844782
0
LINE
8
0
10
70.904376
20
114.844782
11
73.694707
21
115.000227
0
LINE
8
0
10
73.694707
20
115.000227
11
75.005432
21
115.073091
0
LINE
8
0
10
75.005432
20
115.073091
11
76.757162
21
114.723165
0
LINE
8
0
10
76.757162
20
114.723165
11
77.015313
21
114.336902
0
LINE
8
0
10
77.015313
20
114.336902
11
77.089093
21
114.036574
0
LINE
8
0
10
77.089093
20
114.036574
11
77.555304
21
114.200448
0
LINE
8
0
10
77.555304
20
114.200448
11
77.890313
21
114.644465
0
LINE
8
0
10
77.890313
20
114.644465
11
78.277215
21
115.112210
0
LINE
8
0
10
78.277215
20
115.112210
11
79.040637
21
115.323104
0
LINE
8
0
10
79.040637
20
115.323104
11
79.340871
21
115.045179
0
LINE
8
0
10
79.340871
20
115.045179
11
79.414639
21
114.494954
0
LINE
8
0
10
79.414639
20
114.494954
11
78.376560
21
113.328002
0
LINE
8
0
10
78.376560
20
113.328002
11
75.286463
21
112.097436
0
LINE
8
0
10
75.286463
20
112.097436
11
73.317461
21
112.157280
0
LINE
8
0
10
73.317461
20
112.157280
11
72.409138
21
112.449441
0
LINE
8
0
10
72.409138
20
112.449441
11
72.463127
21
112.070886
0
LINE
8
0
10
72.463127
20
112.070886
11
73.441130
21
111.290156
0
LINE
8
0
10
73.441130
20
111.290156
11
74.481515
21
110.443773
0
LINE
8
0
10
74.481515
20
110.443773
11
74.213951
21
109.818586
0
LINE
8
0
10
74.213951
20
109.818586
11
72.798118
21
109.787703
0
LINE
8
0
10
72.798118
20
109.787703
11
71.749326
21
109.669343
0
LINE
8
0
10
71.749326
20
109.669343
11
70.065775
21
108.870124
0
LINE
8
0
10
70.065775
20
108.870124
11
69.638374
21
108.287703
0
LINE
8
0
10
69.638374
20
108.287703
11
68.782009
21
107.228328
0
LINE
8
0
10
68.782009
20
107.228328
11
67.531385
21
106.787703
0
LINE
8
0
10
67.531385
20
106.787703
11
66.449844
21
106.457984
0
LINE
8
0
10
66.449844
20
106.457984
11
66.000000
21
105.665258
0
LINE
8
0
10
66.000000
20
105.665258
11
65.908580
21
105.241745
0
LINE
8
0
10
65.908580
20
105.241745
11
65.154655
21
105.311768
0
LINE
8
0
10
65.154655
20
105.311768
11
64.477108
21
105.806701
0
LINE
8
0
10
64.477108
20
105.806701
11
63.721940
21
106.387448
0
LINE
8
0
10
63.721940
20
106.387448
11
63.348623
21
106.143865
0
LINE
8
0
10
63.348623
20
106.143865
11
63.647047
21
105.265101
0
LINE
8
0
10
63.647047
20
105.265101
11
63.886832
21
104.501882
0
LINE
8
0
10
63.886832
20
104.501882
11
63.651155
21
103.967195
0
LINE
8
0
10
63.651155
20
103.967195
11
63.169939
21
104.182675
0
LINE
8
0
10
63.169939
20
104.182675
11
62.697110
21
104.368321
0
LINE
8
0
10
62.697110
20
104.368321
11
62.086128
21
103.989876
0
LINE
8
0
10
62.086128
20
103.989876
11
62.000000
21
103.458010
0
LINE
8
0
10
62.000000
20
103.458010
11
61.747777
21
102.821457
0
LINE
8
0
10
61.747777
20
102.821457
11
59.941670
21
101.729337
0
LINE
8
0
10
59.941670
20
101.729337
11
58.528906
21
101.359103
0
LINE
8
0
10
58.528906
20
101.359103
11
56.873285
21
100.828377
0
LINE
8
0
10
56.873285
20
100.828377
11
53.039056
21
98.601215
0
LINE
8
0
10
53.039056
20
98.601215
11
51.289646
21
97.154083
0
LINE
8
0
10
51.289646
20
97.154083
11
49.633482
21
95.753612
0
LINE
8
0
10
49.633482
20
95.753612
11
46.322153
21
93.721095
0
LINE
8
0
10
46.322153
20
93.721095
11
45.074835
21
93.339390
0
LINE
8
0
10
45.074835
20
93.339390
11
43.169720
21
92.650083
0
LINE
8
0
10
43.169720
20
92.650083
11
42.025052
21
91.359120
0
LINE
8
0
10
42.025052
20
91.359120
11
41.399765
21
90.239957
0
LINE
8
0
10
41.399765
20
90.239957
11
40.743377
21
89.963703
0
LINE
8
0
10
40.743377
20
89.963703
11
39.691963
21
89.702597
0
LINE
8
0
10
39.691963
20
89.702597
11
38.116935
21
88.619854
0
LINE
8
0
10
38.116935
20
88.619854
11
37.321236
21
88.011624
0
LINE
8
0
10
37.321236
20
88.011624
11
36.017565
21
87.388777
0
LINE
8
0
10
36.017565
20
87.388777
11
35.670161
21
87.450874
0
LINE
8
0
10
35.670161
20
87.450874
11
35.251072
21
87.577296
0
LINE
8
0
10
35.251072
20
87.577296
11
33.725277
21
87.141504
0
LINE
8
0
10
33.725277
20
87.141504
11
30.939170
21
85.443393
0
LINE
8
0
10
30.939170
20
85.443393
11
29.700310
21
84.141718
0
LINE
8
0
10
29.700310
20
84.141718
11
29.127857
21
83.437930
0
LINE
8
0
10
29.127857
20
83.437930
11
27.313649
21
83.047126
0
LINE
8
0
10
27.313649
20
83.047126
11
24.002955
21
84.227370
0
LINE
8
0
10
24.002955
20
84.227370
11
18.470881
21
87.237086
0
LINE
8
0
10
18.470881
20
87.237086
11
14.645296
21
89.508752
0
LINE
8
0
10
495.000000
20
40.102742
11
490.237212
21
41.431414
0
LINE
8
0
10
490.237212
20
41.431414
11
481.688809
21
45.377248
0
LINE
8
0
10
481.688809
20
45.377248
11
474.478719
21
51.013383
0
LINE
8
0
10
474.478719
20
51.013383
11
468.649439
21
58.306597
0
LINE
8
0
10
468.649439
20
58.306597
11
466.265884
21
62.564227
0
LINE
8
0
10
466.265884
20
62.564227
11
465.027470
21
65.096705
0
LINE
8
0
10
465.027470
20
65.096705
11
463.426479
21
68.985435
0
LINE
8
0
10
463.426479
20
68.985435
11
462.702836
21
72.861563
0
LINE
8
0
10
462.702836
20
72.861563
11
462.508015
21
78.591930
0
LINE
8
0
10
462.508015
20
78.591930
11
462.500000
21
82.735840
0
LINE
8
0
10
462.500000
20
82.735840
11
462.511605
21
86.754906
0
LINE
8
0
10
462.511605
20
86.754906
11
462.702569
21
92.423560
0
LINE
8
0
10
462.702569
20
92.423560
11
463.899041
21
97.972137
0
LINE
8
0
10
463.899041
20
97.972137
11
465.684980
21
102.011032
0
LINE
8
0
10
465.684980
20
102.011032
11
467.682936
21
105.774450
0
LINE
8
0
10
467.682936
20
105.774450
11
472.513893
21
112.433883
0
LINE
8
0
10
472.513893
20
112.433883
11
478.335758
21
117.888964
0
LINE
8
0
10
478.335758
20
117.888964
11
485.001543
21
122.082310
0
LINE
8
0
10
485.001543
20
122.082310
11
492.364261
21
124.956543
0
LINE
8
0
10
492.364261
20
124.956543
11
500.276925
21
126.454283
0
LINE
8
0
10
500.276925
20
126.454283
11
508.592549
21
126.518147
0
LINE
8
0
10
508.592549
20
126.518147
11
517.164145
21
125.090758
0
LINE
8
0
10
517.164145
20
125.090758
11
521.500000
21
123.799911
0
LINE
8
0
10
521.500000
20
123.799911
11
526.784325
21
121.528024
0
LINE
8
0
10
526.784325
20
121.528024
11
534.393323
21
116.974230
0
LINE
8
0
10
534.393323
20
116.974230
11
537.713167
21
114.151313
0
LINE
8
0
10
537.713167
20
114.151313
11
538.450943
21
113.054947
0
LINE
8
0
10
538.450943
20
113.054947
11
538.566049
21
112.435890
0
LINE
8
0
10
538.566049
20
112.435890
11
538.009037
21
110.686944
0
LINE
8
0
10
538.009037
20
110.686944
11
536.052896
21
107.728270
0
LINE
8
0
10
536.052896
20
107.728270
11
532.278227
21
102.925526
0
LINE
8
0
10
532.278227
20
102.925526
11
529.577882
21
99.634397
0
LINE
8
0
10
529.577882
20
99.634397
11
526.558883
21
95.981091
0
LINE
8
0
10
526.558883
20
95.981091
11
523.529441
21
98.539018
0
LINE
8
0
10
523.529441
20
98.539018
11
520.613206
21
100.670514
0
LINE
8
0
10
520.613206
20
100.670514
11
514.140210
21
103.627225
0
LINE
8
0
10
514.140210
20
103.627225
11
507.264978
21
104.767307
0
LINE
8
0
10
507.264978
20
104.767307
11
500.529670
21
104.000857
0
LINE
8
0
10
500.529670
20
104.000857
11
497.383912
21
102.874587
0
LINE
8
0
10
497.383912
20
102.874587
11
495.044435
21
101.586489
0
LINE
8
0
10
495.044435
20
101.586489
11
491.145563
21
98.117400
0
LINE
8
0
10
491.145563
20
98.117400
11
488.314497
21
93.708225
0
LINE
8
0
10
488.314497
20
93.708225
11
486.584467
21
88.659496
0
LINE
8
0
10
486.584467
20
88.659496
11
485.988706
21
83.271742
0
LINE
8
0
10
485.988706
20
83.271742
11
486.560444
21
77.845492
0
LINE
8
0
10
486.560444
20
77.845492
11
488.332914
21
72.681276
0
LINE
8
0
10
488.332914
20
72.681276
11
491.339348
21
68.079625
0
LINE
8
0
10
491.339348
20
68.079625
11
493.315686
21
66.083676
0
LINE
8
0
10
493.315686
20
66.083676
11
496.389294
21
63.801153
0
LINE
8
0
10
496.389294
20
63.801153
11
503.071669
21
61.202461
0
LINE
8
0
10
503.071669
20
61.202461
11
510.314711
21
61.225094
0
LINE
8
0
10
510.314711
20
61.225094
11
517.934968
21
63.868481
0
LINE
8
0
10
517.934968
20
63.868481
11
521.829223
21
66.172778
0
LINE
8
0
10
521.829223
20
66.172778
11
526.762370
21
69.492541
0
LINE
8
0
10
526.762370
20
69.492541
11
532.616660
21
62.183695
0
LINE
8
0
10
532.616660
20
62.183695
11
534.914880
21
59.270482
0
LINE
8
0
10
534.914880
20
59.270482
11
537.608216
21
55.705652
0
LINE
8
0
10
537.608216
20
55.705652
11
538.605747
21
54.261176
0
LINE
8
0
10
538.605747
20
54.261176
11
538.789154
21
53.920240
0
LINE
8
0
10
538.789154
20
53.920240
11
538.758911
21
53.374593
0
LINE
8
0
10
538.758911
20
53.374593
11
537.717118
21
51.776343
0
LINE
8
0
10
537.717118
20
51.776343
11
534.164135
21
48.559583
0
LINE
8
0
10
534.164135
20
48.559583
11
530.828708
21
46.217262
0
LINE
8
0
10
530.828708
20
46.217262
11
527.172536
21
44.221497
0
LINE
8
0
10
527.172536
20
44.221497
11
518.370691
21
41.151601
0
LINE
8
0
10
518.370691
20
41.151601
11
508.628942
21
39.489076
0
LINE
8
0
10
508.628942
20
39.489076
11
499.202604
21
39.448154
0
LINE
8
0
10
499.202604
20
39.448154
11
495.000000
21
40.102742
0
LINE
8
0
10
135.843097
20
49.636086
11
137.426985
21
50.346464
0
LINE
8
0
10
137.426985
20
50.346464
11
142.985074
21
53.248972
0
LINE
8
0
10
142.985074
20
53.248972
11
150.882974
21
57.632351
0
LINE
8
0
10
150.882974
20
57.632351
11
160.103958
21
62.902844
0
LINE
8
0
10
160.103958
20
62.902844
11
169.631299
21
68.466695
0
LINE
8
0
10
169.631299
20
68.466695
11
178.448269
21
73.730148
0
LINE
8
0
10
178.448269
20
73.730148
11
185.538141
21
78.099446
0
LINE
8
0
10
185.538141
20
78.099446
11
189.110513
21
80.432449
0
LINE
8
0
10
189.110513
20
80.432449
11
190.422830
21
81.399114
0
LINE
8
0
10
190.422830
20
81.399114
11
190.710551
21
81.678012
0
LINE
8
0
10
190.710551
20
81.678012
11
191.294915
21
82.735831
0
LINE
8
0
10
191.294915
20
82.735831
11
191.894621
21
85.564279
0
LINE
8
0
10
191.894621
20
85.564279
11
191.428005
21
90.248864
0
LINE
8
0
10
191.428005
20
90.248864
11
190.250000
21
92.624225
0
LINE
8
0
10
190.250000
20
92.624225
11
189.334331
21
93.380229
0
LINE
8
0
10
189.334331
20
93.380229
11
185.338582
21
95.730534
0
LINE
8
0
10
185.338582
20
95.730534
11
179.125030
21
98.897432
0
LINE
8
0
10
179.125030
20
98.897432
11
171.495372
21
102.519560
0
LINE
8
0
10
171.495372
20
102.519560
11
159.149394
21
108.015828
0
LINE
8
0
10
159.149394
20
108.015828
11
148.126718
21
112.503699
0
LINE
8
0
10
148.126718
20
112.503699
11
142.849595
21
114.333121
0
LINE
8
0
10
142.849595
20
114.333121
11
141.133067
21
114.763573
0
LINE
8
0
10
141.133067
20
114.763573
11
136.296003
21
115.277262
0
LINE
8
0
10
136.296003
20
115.277262
11
126.362337
21
114.285369
0
LINE
8
0
10
126.362337
20
114.285369
11
121.536718
21
112.806846
0
LINE
8
0
10
121.536718
20
112.806846
11
120.152949
21
112.189144
0
LINE
8
0
10
120.152949
20
112.189144
11
115.000748
21
109.572269
0
LINE
8
0
10
115.000748
20
109.572269
11
107.499311
21
105.573653
0
LINE
8
0
10
107.499311
20
105.573653
11
98.645012
21
100.745562
0
LINE
8
0
10
98.645012
20
100.745562
11
89.434225
21
95.640259
0
LINE
8
0
10
89.434225
20
95.640259
11
80.863324
21
90.810011
0
LINE
8
0
10
80.863324
20
90.810011
11
73.928684
21
86.807080
0
LINE
8
0
10
73.928684
20
86.807080
11
70.400882
21
84.680031
0
LINE
8
0
10
70.400882
20
84.680031
11
69.079290
21
83.808174
0
LINE
8
0
10
69.079290
20
83.808174
11
68.774282
21
83.561985
0
LINE
8
0
10
68.774282
20
83.561985
11
68.009789
21
82.505997
0
LINE
8
0
10
68.009789
20
82.505997
11
67.132480
21
79.582457
0
LINE
8
0
10
67.132480
20
79.582457
11
67.125408
21
76.213127
0
LINE
8
0
10
67.125408
20
76.213127
11
67.990175
21
73.161560
0
LINE
8
0
10
67.990175
20
73.161560
11
68.750000
21
71.993549
0
LINE
8
0
10
68.750000
20
71.993549
11
69.669358
21
71.201002
0
LINE
8
0
10
69.669358
20
71.201002
11
73.539886
21
68.691769
0
LINE
8
0
10
73.539886
20
68.691769
11
82.989220
21
63.360332
0
LINE
8
0
10
82.989220
20
63.360332
11
98.368844
21
55.405303
0
LINE
8
0
10
98.368844
20
55.405303
11
108.638307
21
50.537298
0
LINE
8
0
10
108.638307
20
50.537298
11
113.446125
21
48.557703
0
LINE
8
0
10
113.446125
20
48.557703
11
114.951289
21
48.096179
0
LINE
8
0
10
114.951289
20
48.096179
11
120.116177
21
47.354385
0
LINE
8
0
10
120.116177
20
47.354385
11
130.768841
21
48.139579
0
LINE
8
0
10
130.768841
20
48.139579
11
135.843097
21
49.636086
0
LINE
8
0
10
855.966825
20
64.874008
11
860.455689
21
66.251631
0
LINE
8
0
10
860.455689
20
66.251631
11
868.079452
21
71.098187
0
LINE
8
0
10
868.079452
20
71.098187
11
873.679449
21
78.446461
0
LINE
8
0
10
873.679449
20
78.446461
11
876.993498
21
87.952424
0
LINE
8
0
10
876.993498
20
87.952424
11
877.711362
21
93.407029
0
LINE
8
0
10
877.711362
20
93.407029
11
877.786134
21
98.791296
0
LINE
8
0
10
877.786134
20
98.791296
11
876.156845
21
108.534684
0
LINE
8
0
10
876.156845
20
108.534684
11
872.266690
21
116.679006
0
LINE
8
0
10
872.266690
20
116.679006
11
866.248767
21
122.945616
0
LINE
8
0
10
866.248767
20
122.945616
11
862.483484
21
125.287703
0
LINE
8
0
10
862.483484
20
125.287703
11
858.938041
21
126.951883
0
LINE
8
0
10
858.938041
20
126.951883
11
853.434197
21
128.174825
0
LINE
8
0
10
853.434197
20
128.174825
11
847.510215
21
128.513617
0
LINE
8
0
10
847.510215
20
128.513617
11
843.323834
21
128.635817
0
LINE
8
0
10
843.323834
20
128.635817
11
830.000000
21
128.983931
0
LINE
8
0
10
830.000000
20
128.983931
11
830.000000
21
96.385817
0
LINE
8
0
10
830.000000
20
96.385817
11
830.000000
21
63.787703
0
LINE
8
0
10
830.000000
20
63.787703
11
840.450779
21
63.787703
0
LINE
8
0
10
840.450779
20
63.787703
11
844.908302
21
63.873419
0
LINE
8
0
10
844.908302
20
63.873419
11
851.348747
21
64.267735
0
LINE
8
0
10
851.348747
20
64.267735
11
854.736018
21
64.655792
0
LINE
8
0
10
854.736018
20
64.655792
11
855.966825
21
64.874008
0
LINE
8
0
10
414.766949
20
59.985662
11
416.524319
21
60.885456
0
LINE
8
0
10
416.524319
20
60.885456
11
419.051022
21
62.779804
0
LINE
8
0
10
419.051022
20
62.779804
11
420.431971
21
65.087281
0
LINE
8
0
10
420.431971
20
65.087281
11
420.873120
21
68.152022
0
LINE
8
0
10
420.873120
20
68.152022
11
420.805631
21
70.075909
0
LINE
8
0
10
420.805631
20
70.075909
11
420.500000
21
74.287703
0
LINE
8
0
10
420.500000
20
74.287703
11
414.000000
21
74.602715
0
LINE
8
0
10
414.000000
20
74.602715
11
409.357740
21
74.674566
0
LINE
8
0
10
409.357740
20
74.674566
11
401.881745
21
73.819826
0
LINE
8
0
10
401.881745
20
73.819826
11
396.854047
21
71.649770
0
LINE
8
0
10
396.854047
20
71.649770
11
394.318963
21
68.183525
0
LINE
8
0
10
394.318963
20
68.183525
11
394.000000
21
65.970310
0
LINE
8
0
10
394.000000
20
65.970310
11
394.436211
21
63.085393
0
LINE
8
0
10
394.436211
20
63.085393
11
397.638600
21
59.009142
0
LINE
8
0
10
397.638600
20
59.009142
11
403.309169
21
57.374990
0
LINE
8
0
10
403.309169
20
57.374990
11
410.681787
21
58.403721
0
LINE
8
0
10
410.681787
20
58.403721
11
414.766949
21
59.985662
0
ENDSEC
0
EOF
