999
DXF File generated by ImageToStl.com - Free Image and 3D model conversion tools
0
SECTION
2
HEADER
9
$ACADVER
1
AC1009
9
$EXTMIN
10
0
20
0
9
$EXTMAX
10
1142.018482
20
238.897405
0
ENDSEC
0
SECTION
2
ENTITIES
0
LINE
8
0
10
992.274510
20
10.436449
11
988.651470
21
11.554912
0
LINE
8
0
10
988.651470
20
11.554912
11
981.789900
21
14.518853
0
LINE
8
0
10
981.789900
20
14.518853
11
975.508381
21
18.377836
0
LINE
8
0
10
975.508381
20
18.377836
11
969.887758
21
23.042686
0
LINE
8
0
10
969.887758
20
23.042686
11
965.008876
21
28.424227
0
LINE
8
0
10
965.008876
20
28.424227
11
960.952582
21
34.433284
0
LINE
8
0
10
960.952582
20
34.433284
11
957.799721
21
40.980684
0
LINE
8
0
10
957.799721
20
40.980684
11
955.631137
21
47.977252
0
LINE
8
0
10
955.631137
20
47.977252
11
954.941214
21
51.616106
0
LINE
8
0
10
954.941214
20
51.616106
11
954.816794
21
52.620104
0
LINE
8
0
10
954.816794
20
52.620104
11
954.597901
21
55.471648
0
LINE
8
0
10
954.597901
20
55.471648
11
954.419611
21
59.405539
0
LINE
8
0
10
954.419611
20
59.405539
11
954.282734
21
64.370917
0
LINE
8
0
10
954.282734
20
64.370917
11
954.156837
21
73.641768
0
LINE
8
0
10
954.156837
20
73.641768
11
954.141476
21
89.138420
0
LINE
8
0
10
954.141476
20
89.138420
11
954.200975
21
98.116106
0
LINE
8
0
10
954.200975
20
98.116106
11
954.261211
21
104.810179
0
LINE
8
0
10
954.261211
20
104.810179
11
954.378455
21
115.883192
0
LINE
8
0
10
954.378455
20
115.883192
11
954.514396
21
124.268949
0
LINE
8
0
10
954.514396
20
124.268949
11
954.696638
21
130.446959
0
LINE
8
0
10
954.696638
20
130.446959
11
954.952782
21
134.896731
0
LINE
8
0
10
954.952782
20
134.896731
11
955.310430
21
138.097775
0
LINE
8
0
10
955.310430
20
138.097775
11
956.097603
21
141.606900
0
LINE
8
0
10
956.097603
20
141.606900
11
956.829771
21
143.783975
0
LINE
8
0
10
956.829771
20
143.783975
11
959.292343
21
149.640784
0
LINE
8
0
10
959.292343
20
149.640784
11
965.872464
21
159.923369
0
LINE
8
0
10
965.872464
20
159.923369
11
974.509892
21
168.155588
0
LINE
8
0
10
974.509892
20
168.155588
11
985.025435
21
174.166653
0
LINE
8
0
10
985.025435
20
174.166653
11
990.931501
21
176.285882
0
LINE
8
0
10
990.931501
20
176.285882
11
992.901564
21
176.754525
0
LINE
8
0
10
992.901564
20
176.754525
11
997.267239
21
177.276066
0
LINE
8
0
10
997.267239
20
177.276066
11
1001.693170
21
177.519051
0
LINE
8
0
10
1001.693170
20
177.519051
11
1007.791563
21
177.691260
0
LINE
8
0
10
1007.791563
20
177.691260
11
1015.956767
21
177.803829
0
LINE
8
0
10
1015.956767
20
177.803829
11
1026.583132
21
177.867894
0
LINE
8
0
10
1026.583132
20
177.867894
11
1040.065010
21
177.894590
0
LINE
8
0
10
1040.065010
20
177.894590
11
1048.000000
21
177.897405
0
LINE
8
0
10
1048.000000
20
177.897405
11
1055.934990
21
177.894590
0
LINE
8
0
10
1055.934990
20
177.894590
11
1069.416868
21
177.867894
0
LINE
8
0
10
1069.416868
20
177.867894
11
1080.043233
21
177.803829
0
LINE
8
0
10
1080.043233
20
177.803829
11
1088.208437
21
177.691260
0
LINE
8
0
10
1088.208437
20
177.691260
11
1094.306830
21
177.519051
0
LINE
8
0
10
1094.306830
20
177.519051
11
1098.732761
21
177.276066
0
LINE
8
0
10
1098.732761
20
177.276066
11
1103.098436
21
176.754525
0
LINE
8
0
10
1103.098436
20
176.754525
11
1105.068499
21
176.285882
0
LINE
8
0
10
1105.068499
20
176.285882
11
1110.974565
21
174.166653
0
LINE
8
0
10
1110.974565
20
174.166653
11
1121.490108
21
168.155588
0
LINE
8
0
10
1121.490108
20
168.155588
11
1130.127536
21
159.923369
0
LINE
8
0
10
1130.127536
20
159.923369
11
1136.707657
21
149.640784
0
LINE
8
0
10
1136.707657
20
149.640784
11
1139.170229
21
143.783975
0
LINE
8
0
10
1139.170229
20
143.783975
11
1139.902397
21
141.606900
0
LINE
8
0
10
1139.902397
20
141.606900
11
1140.689570
21
138.097775
0
LINE
8
0
10
1140.689570
20
138.097775
11
1141.047218
21
134.896731
0
LINE
8
0
10
1141.047218
20
134.896731
11
1141.303362
21
130.446959
0
LINE
8
0
10
1141.303362
20
130.446959
11
1141.485604
21
124.268949
0
LINE
8
0
10
1141.485604
20
124.268949
11
1141.621545
21
115.883192
0
LINE
8
0
10
1141.621545
20
115.883192
11
1141.738789
21
104.810179
0
LINE
8
0
10
1141.738789
20
104.810179
11
1141.799025
21
98.116106
0
LINE
8
0
10
1141.799025
20
98.116106
11
1141.858524
21
89.138420
0
LINE
8
0
10
1141.858524
20
89.138420
11
1141.843163
21
73.641768
0
LINE
8
0
10
1141.843163
20
73.641768
11
1141.717266
21
64.370917
0
LINE
8
0
10
1141.717266
20
64.370917
11
1141.580389
21
59.405539
0
LINE
8
0
10
1141.580389
20
59.405539
11
1141.402099
21
55.471648
0
LINE
8
0
10
1141.402099
20
55.471648
11
1141.183206
21
52.620104
0
LINE
8
0
10
1141.183206
20
52.620104
11
1141.058786
21
51.616106
0
LINE
8
0
10
1141.058786
20
51.616106
11
1140.362107
21
47.939892
0
LINE
8
0
10
1140.362107
20
47.939892
11
1138.175419
21
40.887509
0
LINE
8
0
10
1138.175419
20
40.887509
11
1134.996575
21
34.306825
0
LINE
8
0
10
1134.996575
20
34.306825
11
1130.904313
21
28.283812
0
LINE
8
0
10
1130.904313
20
28.283812
11
1125.977374
21
22.904439
0
LINE
8
0
10
1125.977374
20
22.904439
11
1120.294497
21
18.254676
0
LINE
8
0
10
1120.294497
20
18.254676
11
1113.934422
21
14.420494
0
LINE
8
0
10
1113.934422
20
14.420494
11
1106.975888
21
11.487864
0
LINE
8
0
10
1106.975888
20
11.487864
11
1103.296806
21
10.386495
0
LINE
8
0
10
1103.296806
20
10.386495
11
1102.283562
21
10.193783
0
LINE
8
0
10
1102.283562
20
10.193783
11
1098.858480
21
9.846375
0
LINE
8
0
10
1098.858480
20
9.846375
11
1093.780833
21
9.549560
0
LINE
8
0
10
1093.780833
20
9.549560
11
1087.305298
21
9.303224
0
LINE
8
0
10
1087.305298
20
9.303224
11
1075.528061
21
9.028117
0
LINE
8
0
10
1075.528061
20
9.028117
11
1057.309450
21
8.836914
0
LINE
8
0
10
1057.309450
20
8.836914
11
1038.083461
21
8.845565
0
LINE
8
0
10
1038.083461
20
8.845565
11
1019.887504
21
9.053152
0
LINE
8
0
10
1019.887504
20
9.053152
11
1008.142125
21
9.338842
0
LINE
8
0
10
1008.142125
20
9.338842
11
1001.694909
21
9.590993
0
LINE
8
0
10
1001.694909
20
9.590993
11
996.651244
21
9.892362
0
LINE
8
0
10
996.651244
20
9.892362
11
993.265807
21
10.242834
0
LINE
8
0
10
993.265807
20
10.242834
11
992.274510
21
10.436449
0
LINE
8
0
10
667.666667
20
9.564072
11
667.598755
21
10.059128
0
LINE
8
0
10
667.598755
20
10.059128
11
667.468986
21
13.479416
0
LINE
8
0
10
667.468986
20
13.479416
11
667.349569
21
19.856247
0
LINE
8
0
10
667.349569
20
19.856247
11
667.243237
21
28.849192
0
LINE
8
0
10
667.243237
20
28.849192
11
667.152726
21
40.117819
0
LINE
8
0
10
667.152726
20
40.117819
11
667.080770
21
53.321701
0
LINE
8
0
10
667.080770
20
53.321701
11
667.030103
21
68.120407
0
LINE
8
0
10
667.030103
20
68.120407
11
667.003459
21
84.173508
0
LINE
8
0
10
667.003459
20
84.173508
11
667.000000
21
92.564072
0
LINE
8
0
10
667.000000
20
92.564072
11
667.000000
21
174.897405
0
LINE
8
0
10
667.000000
20
174.897405
11
694.987042
21
174.897405
0
LINE
8
0
10
694.987042
20
174.897405
11
722.974084
21
174.897405
0
LINE
8
0
10
722.974084
20
174.897405
11
723.237042
21
140.321196
0
LINE
8
0
10
723.237042
20
140.321196
11
723.500000
21
105.744988
0
LINE
8
0
10
723.500000
20
105.744988
11
751.880164
21
140.321196
0
LINE
8
0
10
751.880164
20
140.321196
11
780.260328
21
174.897405
0
LINE
8
0
10
780.260328
20
174.897405
11
816.729108
21
174.897405
0
LINE
8
0
10
816.729108
20
174.897405
11
853.197889
21
174.897405
0
LINE
8
0
10
853.197889
20
174.897405
11
848.253130
21
169.147405
0
LINE
8
0
10
848.253130
20
169.147405
11
847.605860
21
168.391290
0
LINE
8
0
10
847.605860
20
168.391290
11
845.537432
21
165.959534
0
LINE
8
0
10
845.537432
20
165.959534
11
842.548637
21
162.433646
0
LINE
8
0
10
842.548637
20
162.433646
11
838.773251
21
157.971907
0
LINE
8
0
10
838.773251
20
157.971907
11
831.927956
21
149.870821
0
LINE
8
0
10
831.927956
20
149.870821
11
821.296420
21
137.271190
0
LINE
8
0
10
821.296420
20
137.271190
11
815.636878
21
130.556858
0
LINE
8
0
10
815.636878
20
130.556858
11
787.965384
21
97.716311
0
LINE
8
0
10
787.965384
20
97.716311
11
791.816734
21
93.056858
0
LINE
8
0
10
791.816734
20
93.056858
11
792.306957
21
92.462887
0
LINE
8
0
10
792.306957
20
92.462887
11
793.810766
21
90.636695
0
LINE
8
0
10
793.810766
20
90.636695
11
797.200159
21
86.514497
0
LINE
8
0
10
797.200159
20
86.514497
11
803.346299
21
79.032399
0
LINE
8
0
10
803.346299
20
79.032399
11
810.668414
21
70.112720
0
LINE
8
0
10
810.668414
20
70.112720
11
814.537485
21
65.397405
0
LINE
8
0
10
814.537485
20
65.397405
11
822.954795
21
55.145257
0
LINE
8
0
10
822.954795
20
55.145257
11
836.280974
21
38.937566
0
LINE
8
0
10
836.280974
20
38.937566
11
844.067548
21
29.481561
0
LINE
8
0
10
844.067548
20
29.481561
11
847.229309
21
25.647405
0
LINE
8
0
10
847.229309
20
25.647405
11
861.051732
21
8.897405
0
LINE
8
0
10
861.051732
20
8.897405
11
825.224066
21
8.897405
0
LINE
8
0
10
825.224066
20
8.897405
11
789.396401
21
8.897405
0
LINE
8
0
10
789.396401
20
8.897405
11
756.448200
21
49.647405
0
LINE
8
0
10
756.448200
20
49.647405
11
723.500000
21
90.397405
0
LINE
8
0
10
723.500000
20
90.397405
11
723.238783
21
49.647405
0
LINE
8
0
10
723.238783
20
49.647405
11
722.977565
21
8.897405
0
LINE
8
0
10
722.977565
20
8.897405
11
695.655449
21
8.897405
0
LINE
8
0
10
695.655449
20
8.897405
11
690.153406
21
8.911012
0
LINE
8
0
10
690.153406
20
8.911012
11
680.292569
21
9.011663
0
LINE
8
0
10
680.292569
20
9.011663
11
672.721385
21
9.192002
0
LINE
8
0
10
672.721385
20
9.192002
11
669.098045
21
9.366391
0
LINE
8
0
10
669.098045
20
9.366391
11
667.876325
21
9.496160
0
LINE
8
0
10
667.876325
20
9.496160
11
667.666667
21
9.564072
0
LINE
8
0
10
452.000000
20
9.941094
11
452.184889
21
10.474351
0
LINE
8
0
10
452.184889
20
10.474351
11
453.609190
21
13.956457
0
LINE
8
0
10
453.609190
20
13.956457
11
456.317712
21
20.375583
0
LINE
8
0
10
456.317712
20
20.375583
11
460.164281
21
29.391211
0
LINE
8
0
10
460.164281
20
29.391211
11
465.002728
21
40.662819
0
LINE
8
0
10
465.002728
20
40.662819
11
470.686881
21
53.849889
0
LINE
8
0
10
470.686881
20
53.849889
11
477.070569
21
68.611901
0
LINE
8
0
10
477.070569
20
68.611901
11
484.007620
21
84.608335
0
LINE
8
0
10
484.007620
20
84.608335
11
487.637978
21
92.963048
0
LINE
8
0
10
487.637978
20
92.963048
11
523.275955
21
174.924380
0
LINE
8
0
10
523.275955
20
174.924380
11
555.816077
21
174.660893
0
LINE
8
0
10
555.816077
20
174.660893
11
588.356200
21
174.397405
0
LINE
8
0
10
588.356200
20
174.397405
11
624.103538
21
91.897405
0
LINE
8
0
10
624.103538
20
91.897405
11
659.850876
21
9.397405
0
LINE
8
0
10
659.850876
20
9.397405
11
629.675438
21
9.131514
0
LINE
8
0
10
629.675438
20
9.131514
11
625.178227
21
9.094832
0
LINE
8
0
10
625.178227
20
9.094832
11
617.503801
21
9.053978
0
LINE
8
0
10
617.503801
20
9.053978
11
611.434672
21
9.062232
0
LINE
8
0
10
611.434672
20
9.062232
11
606.785201
21
9.126509
0
LINE
8
0
10
606.785201
20
9.126509
11
602.066772
21
9.343092
0
LINE
8
0
10
602.066772
20
9.343092
11
599.011715
21
9.892483
0
LINE
8
0
10
599.011715
20
9.892483
11
598.453436
21
10.294428
0
LINE
8
0
10
598.453436
20
10.294428
11
598.243444
21
10.702422
0
LINE
8
0
10
598.243444
20
10.702422
11
597.243331
21
13.002299
0
LINE
8
0
10
597.243331
20
13.002299
11
595.541397
21
17.102903
0
LINE
8
0
10
595.541397
20
17.102903
11
593.223667
21
22.790888
0
LINE
8
0
10
593.223667
20
22.790888
11
590.376166
21
29.852909
0
LINE
8
0
10
590.376166
20
29.852909
11
587.084917
21
38.075619
0
LINE
8
0
10
587.084917
20
38.075619
11
581.504194
21
52.119279
0
LINE
8
0
10
581.504194
20
52.119279
11
577.479932
21
62.310320
0
LINE
8
0
10
577.479932
20
62.310320
11
573.465275
21
72.472198
0
LINE
8
0
10
573.465275
20
72.472198
11
567.931969
21
86.371914
0
LINE
8
0
10
567.931969
20
86.371914
11
564.691520
21
94.440406
0
LINE
8
0
10
564.691520
20
94.440406
11
561.907918
21
101.308442
0
LINE
8
0
10
561.907918
20
101.308442
11
559.665256
21
106.768538
0
LINE
8
0
10
559.665256
20
106.768538
11
558.047629
21
110.613206
0
LINE
8
0
10
558.047629
20
110.613206
11
557.139130
21
112.634960
0
LINE
8
0
10
557.139130
20
112.634960
11
556.977083
21
112.897405
0
LINE
8
0
10
556.977083
20
112.897405
11
556.855210
21
112.739724
0
LINE
8
0
10
556.855210
20
112.739724
11
556.229362
21
111.536803
0
LINE
8
0
10
556.229362
20
111.536803
11
554.464649
21
107.806158
0
LINE
8
0
10
554.464649
20
107.806158
11
550.932014
21
100.055647
0
LINE
8
0
10
550.932014
20
100.055647
11
546.556925
21
90.276729
0
LINE
8
0
10
546.556925
20
90.276729
11
541.891112
21
79.717976
0
LINE
8
0
10
541.891112
20
79.717976
11
537.486309
21
69.627960
0
LINE
8
0
10
537.486309
20
69.627960
11
533.894249
21
61.255254
0
LINE
8
0
10
533.894249
20
61.255254
11
532.065466
21
56.853804
0
LINE
8
0
10
532.065466
20
56.853804
11
531.387621
21
55.106462
0
LINE
8
0
10
531.387621
20
55.106462
11
531.236963
21
54.647405
0
LINE
8
0
10
531.236963
20
54.647405
11
531.207010
21
54.103645
0
LINE
8
0
10
531.207010
20
54.103645
11
532.631244
21
53.376503
0
LINE
8
0
10
532.631244
20
53.376503
11
535.886854
21
53.082062
0
LINE
8
0
10
535.886854
20
53.082062
11
539.522139
21
52.974576
0
LINE
8
0
10
539.522139
20
52.974576
11
544.592677
21
52.919052
0
LINE
8
0
10
544.592677
20
52.919052
11
551.324199
21
52.899129
0
LINE
8
0
10
551.324199
20
52.899129
11
555.383369
21
52.897405
0
LINE
8
0
10
555.383369
20
52.897405
11
560.328331
21
52.889416
0
LINE
8
0
10
560.328331
20
52.889416
11
569.122045
21
52.830315
0
LINE
8
0
10
569.122045
20
52.830315
11
575.781036
21
52.724423
0
LINE
8
0
10
575.781036
20
52.724423
11
579.497571
21
52.584585
0
LINE
8
0
10
579.497571
20
52.584585
11
580.000000
21
52.505950
0
LINE
8
0
10
580.000000
20
52.505950
11
579.818426
21
51.991383
0
LINE
8
0
10
579.818426
20
51.991383
11
578.475303
21
48.626905
0
LINE
8
0
10
578.475303
20
48.626905
11
576.068800
21
42.743360
0
LINE
8
0
10
576.068800
20
42.743360
11
572.890827
21
35.054420
0
LINE
8
0
10
572.890827
20
35.054420
11
571.103760
21
30.755950
0
LINE
8
0
10
571.103760
20
30.755950
11
562.207519
21
9.397405
0
LINE
8
0
10
562.207519
20
9.397405
11
507.103760
21
9.138938
0
LINE
8
0
10
507.103760
20
9.138938
11
500.168106
21
9.110212
0
LINE
8
0
10
500.168106
20
9.110212
11
487.784616
21
9.082977
0
LINE
8
0
10
487.784616
20
9.082977
11
477.338140
21
9.096712
0
LINE
8
0
10
477.338140
20
9.096712
11
468.772584
21
9.152235
0
LINE
8
0
10
468.772584
20
9.152235
11
462.031856
21
9.250361
0
LINE
8
0
10
462.031856
20
9.250361
11
457.059864
21
9.391907
0
LINE
8
0
10
457.059864
20
9.391907
11
453.800517
21
9.577690
0
LINE
8
0
10
453.800517
20
9.577690
11
452.197720
21
9.808526
0
LINE
8
0
10
452.197720
20
9.808526
11
452.000000
21
9.941094
0
LINE
8
0
10
54.695826
20
0.641015
11
54.534228
21
1.078081
0
LINE
8
0
10
54.534228
20
1.078081
11
53.543154
21
3.998701
0
LINE
8
0
10
53.543154
20
3.998701
11
51.740646
21
9.408199
0
LINE
8
0
10
51.740646
20
9.408199
11
49.221585
21
17.018847
0
LINE
8
0
10
49.221585
20
17.018847
11
46.080855
21
26.542920
0
LINE
8
0
10
46.080855
20
26.542920
11
42.413338
21
37.692692
0
LINE
8
0
10
42.413338
20
37.692692
11
36.131894
21
56.836135
0
LINE
8
0
10
36.131894
20
56.836135
11
31.562522
21
70.791354
0
LINE
8
0
10
31.562522
20
70.791354
11
29.860031
21
75.997988
0
LINE
8
0
10
29.860031
20
75.997988
11
26.707487
21
85.658085
0
LINE
8
0
10
26.707487
20
85.658085
11
22.582737
21
98.354567
0
LINE
8
0
10
22.582737
20
98.354567
11
18.134981
21
112.184991
0
LINE
8
0
10
18.134981
20
112.184991
11
14.783696
21
122.823733
0
LINE
8
0
10
14.783696
20
122.823733
11
12.413560
21
130.651673
0
LINE
8
0
10
12.413560
20
130.651673
11
10.909250
21
136.049691
0
LINE
8
0
10
10.909250
20
136.049691
11
10.155444
21
139.398666
0
LINE
8
0
10
10.155444
20
139.398666
11
10.036820
21
141.079478
0
LINE
8
0
10
10.036820
20
141.079478
11
10.179663
21
141.413347
0
LINE
8
0
10
10.179663
20
141.413347
11
68.136366
21
183.797492
0
LINE
8
0
10
68.136366
20
183.797492
11
126.835968
21
226.306405
0
LINE
8
0
10
126.835968
20
226.306405
11
127.394256
21
226.254257
0
LINE
8
0
10
127.394256
20
226.254257
11
127.698113
21
223.596283
0
LINE
8
0
10
127.698113
20
223.596283
11
127.011208
21
218.255432
0
LINE
8
0
10
127.011208
20
218.255432
11
125.444976
21
211.098138
0
LINE
8
0
10
125.444976
20
211.098138
11
124.366935
21
207.109085
0
LINE
8
0
10
124.366935
20
207.109085
11
122.429103
21
201.092846
0
LINE
8
0
10
122.429103
20
201.092846
11
117.477966
21
189.790256
0
LINE
8
0
10
117.477966
20
189.790256
11
110.988261
21
179.291625
0
LINE
8
0
10
110.988261
20
179.291625
11
102.834462
21
169.393886
0
LINE
8
0
10
102.834462
20
169.393886
11
98.094300
21
164.606892
0
LINE
8
0
10
98.094300
20
164.606892
11
93.052960
21
160.067733
0
LINE
8
0
10
93.052960
20
160.067733
11
82.367812
21
152.041684
0
LINE
8
0
10
82.367812
20
152.041684
11
71.030506
21
145.505787
0
LINE
8
0
10
71.030506
20
145.505787
11
59.222397
21
140.564591
0
LINE
8
0
10
59.222397
20
140.564591
11
53.198466
21
138.724679
0
LINE
8
0
10
53.198466
20
138.724679
11
49.414445
21
137.923602
0
LINE
8
0
10
49.414445
20
137.923602
11
39.805139
21
136.844640
0
LINE
8
0
10
39.805139
20
136.844640
11
29.456362
21
136.524574
0
LINE
8
0
10
29.456362
20
136.524574
11
22.640412
21
136.826804
0
LINE
8
0
10
22.640412
20
136.826804
11
19.104244
21
137.303762
0
LINE
8
0
10
19.104244
20
137.303762
11
17.750000
21
137.628330
0
LINE
8
0
10
17.750000
20
137.628330
11
16.293945
21
138.037601
0
LINE
8
0
10
16.293945
20
138.037601
11
14.295898
21
138.486818
0
LINE
8
0
10
14.295898
20
138.486818
11
14.000000
21
138.471436
0
LINE
8
0
10
14.000000
20
138.471436
11
14.176452
21
138.310426
0
LINE
8
0
10
14.176452
20
138.310426
11
15.481691
21
137.418240
0
LINE
8
0
10
15.481691
20
137.418240
11
19.288498
21
134.995865
0
LINE
8
0
10
19.288498
20
134.995865
11
22.645310
21
132.923686
0
LINE
8
0
10
22.645310
20
132.923686
11
28.532684
21
128.991266
0
LINE
8
0
10
28.532684
20
128.991266
11
39.603403
21
119.633017
0
LINE
8
0
10
39.603403
20
119.633017
11
49.364909
21
108.698587
0
LINE
8
0
10
49.364909
20
108.698587
11
57.372587
21
96.686014
0
LINE
8
0
10
57.372587
20
96.686014
11
60.579800
21
90.431060
0
LINE
8
0
10
60.579800
20
90.431060
11
62.665498
21
85.642764
0
LINE
8
0
10
62.665498
20
85.642764
11
65.944605
21
76.242970
0
LINE
8
0
10
65.944605
20
76.242970
11
68.144001
21
66.596423
0
LINE
8
0
10
68.144001
20
66.596423
11
69.395694
21
56.124135
0
LINE
8
0
10
69.395694
20
56.124135
11
69.707404
21
50.397405
0
LINE
8
0
10
69.707404
20
50.397405
11
69.809657
21
44.515136
0
LINE
8
0
10
69.809657
20
44.515136
11
69.241737
21
34.079248
0
LINE
8
0
10
69.241737
20
34.079248
11
67.540271
21
24.852882
0
LINE
8
0
10
67.540271
20
24.852882
11
64.580888
21
16.161616
0
LINE
8
0
10
64.580888
20
16.161616
11
62.590611
21
11.805891
0
LINE
8
0
10
62.590611
20
11.805891
11
61.324632
21
9.123455
0
LINE
8
0
10
61.324632
20
9.123455
11
60.081343
21
6.081428
0
LINE
8
0
10
60.081343
20
6.081428
11
59.818800
21
5.038408
0
LINE
8
0
10
59.818800
20
5.038408
11
59.890646
21
4.897405
0
LINE
8
0
10
59.890646
20
4.897405
11
60.475698
21
5.217575
0
LINE
8
0
10
60.475698
20
5.217575
11
62.956689
21
7.379512
0
LINE
8
0
10
62.956689
20
7.379512
11
64.547052
21
8.955000
0
LINE
8
0
10
64.547052
20
8.955000
11
66.767553
21
11.017736
0
LINE
8
0
10
66.767553
20
11.017736
11
72.788546
21
15.615087
0
LINE
8
0
10
72.788546
20
15.615087
11
83.822294
21
22.438327
0
LINE
8
0
10
83.822294
20
22.438327
11
90.998073
21
25.964468
0
LINE
8
0
10
90.998073
20
25.964468
11
96.646147
21
28.142610
0
LINE
8
0
10
96.646147
20
28.142610
11
108.438800
21
31.408404
0
LINE
8
0
10
108.438800
20
31.408404
11
120.672595
21
33.237780
0
LINE
8
0
10
120.672595
20
33.237780
11
133.082494
21
33.651826
0
LINE
8
0
10
133.082494
20
33.651826
11
145.403460
21
32.671626
0
LINE
8
0
10
145.403460
20
32.671626
11
157.370454
21
30.318265
0
LINE
8
0
10
157.370454
20
30.318265
11
168.718438
21
26.612828
0
LINE
8
0
10
168.718438
20
26.612828
11
179.182374
21
21.576401
0
LINE
8
0
10
179.182374
20
21.576401
11
184.000000
21
18.565655
0
LINE
8
0
10
184.000000
20
18.565655
11
186.201853
21
16.945196
0
LINE
8
0
10
186.201853
20
16.945196
11
191.669101
21
12.401214
0
LINE
8
0
10
191.669101
20
12.401214
11
194.261110
21
10.037361
0
LINE
8
0
10
194.261110
20
10.037361
11
200.022219
21
4.571771
0
LINE
8
0
10
200.022219
20
4.571771
11
197.057322
21
11.110712
0
LINE
8
0
10
197.057322
20
11.110712
11
194.650147
21
17.147116
0
LINE
8
0
10
194.650147
20
17.147116
11
191.047550
21
30.605940
0
LINE
8
0
10
191.047550
20
30.605940
11
189.184493
21
44.958538
0
LINE
8
0
10
189.184493
20
44.958538
11
189.209614
21
59.059816
0
LINE
8
0
10
189.209614
20
59.059816
11
189.976692
21
65.658368
0
LINE
8
0
10
189.976692
20
65.658368
11
191.050052
21
71.322983
0
LINE
8
0
10
191.050052
20
71.322983
11
194.081958
21
82.358299
0
LINE
8
0
10
194.081958
20
82.358299
11
198.210039
21
92.875609
0
LINE
8
0
10
198.210039
20
92.875609
11
203.333403
21
102.723564
0
LINE
8
0
10
203.333403
20
102.723564
11
209.351157
21
111.750816
0
LINE
8
0
10
209.351157
20
111.750816
11
216.162411
21
119.806016
0
LINE
8
0
10
216.162411
20
119.806016
11
223.666271
21
126.737818
0
LINE
8
0
10
223.666271
20
126.737818
11
231.761847
21
132.394873
0
LINE
8
0
10
231.761847
20
132.394873
11
236.000000
21
134.698073
0
LINE
8
0
10
236.000000
20
134.698073
11
243.500000
21
138.397405
0
LINE
8
0
10
243.500000
20
138.397405
11
226.000000
21
138.452020
0
LINE
8
0
10
226.000000
20
138.452020
11
220.959928
21
138.485742
0
LINE
8
0
10
220.959928
20
138.485742
11
213.269708
21
138.692481
0
LINE
8
0
10
213.269708
20
138.692481
11
205.400094
21
139.552058
0
LINE
8
0
10
205.400094
20
139.552058
11
200.801534
21
140.647929
0
LINE
8
0
10
200.801534
20
140.647929
11
194.280889
21
142.716930
0
LINE
8
0
10
194.280889
20
142.716930
11
181.694538
21
148.195799
0
LINE
8
0
10
181.694538
20
148.195799
11
169.911358
21
155.264518
0
LINE
8
0
10
169.911358
20
155.264518
11
159.167254
21
163.685524
0
LINE
8
0
10
159.167254
20
163.685524
11
149.698131
21
173.221252
0
LINE
8
0
10
149.698131
20
173.221252
11
141.739892
21
183.634139
0
LINE
8
0
10
141.739892
20
183.634139
11
135.528444
21
194.686620
0
LINE
8
0
10
135.528444
20
194.686620
11
131.299691
21
206.141133
0
LINE
8
0
10
131.299691
20
206.141133
11
130.002544
21
211.944911
0
LINE
8
0
10
130.002544
20
211.944911
11
129.585985
21
214.808366
0
LINE
8
0
10
129.585985
20
214.808366
11
129.149113
21
220.465721
0
LINE
8
0
10
129.149113
20
220.465721
11
129.182608
21
222.562822
0
LINE
8
0
10
129.182608
20
222.562822
11
129.500000
21
226.633226
0
LINE
8
0
10
129.500000
20
226.633226
11
187.500000
21
184.677179
0
LINE
8
0
10
187.500000
20
184.677179
11
199.186836
21
176.223359
0
LINE
8
0
10
199.186836
20
176.223359
11
215.300389
21
164.568149
0
LINE
8
0
10
215.300389
20
164.568149
11
224.740856
21
157.740189
0
LINE
8
0
10
224.740856
20
157.740189
11
232.853856
21
151.872772
0
LINE
8
0
10
232.853856
20
151.872772
11
239.394292
21
147.143155
0
LINE
8
0
10
239.394292
20
147.143155
11
244.117067
21
143.728596
0
LINE
8
0
10
244.117067
20
143.728596
11
246.777083
21
141.806352
0
LINE
8
0
10
246.777083
20
141.806352
11
247.256965
21
141.460240
0
LINE
8
0
10
247.256965
20
141.460240
11
247.521695
21
141.180771
0
LINE
8
0
10
247.521695
20
141.180771
11
247.733341
21
140.016114
0
LINE
8
0
10
247.733341
20
140.016114
11
247.360447
21
137.499451
0
LINE
8
0
10
247.360447
20
137.499451
11
246.210069
21
132.977527
0
LINE
8
0
10
246.210069
20
132.977527
11
244.089262
21
125.797088
0
LINE
8
0
10
244.089262
20
125.797088
11
241.745744
21
118.274134
0
LINE
8
0
10
241.745744
20
118.274134
11
239.779648
21
112.087809
0
LINE
8
0
10
239.779648
20
112.087809
11
237.462413
21
104.869399
0
LINE
8
0
10
237.462413
20
104.869399
11
234.769922
21
96.537247
0
LINE
8
0
10
234.769922
20
96.537247
11
231.678055
21
87.009698
0
LINE
8
0
10
231.678055
20
87.009698
11
228.162696
21
76.205092
0
LINE
8
0
10
228.162696
20
76.205092
11
226.238670
21
70.298376
0
LINE
8
0
10
226.238670
20
70.298376
11
203.463410
21
0.397405
0
LINE
8
0
10
203.463410
20
0.397405
11
129.294672
21
0.141015
0
LINE
8
0
10
129.294672
20
0.141015
11
114.386958
21
0.104949
0
LINE
8
0
10
114.386958
20
0.104949
11
93.964426
21
0.110704
0
LINE
8
0
10
93.964426
20
0.110704
11
82.088306
21
0.151451
0
LINE
8
0
10
82.088306
20
0.151451
11
71.960274
21
0.219334
0
LINE
8
0
10
71.960274
20
0.219334
11
63.886303
21
0.312303
0
LINE
8
0
10
63.886303
20
0.312303
11
58.172363
21
0.428306
0
LINE
8
0
10
58.172363
20
0.428306
11
55.124426
21
0.565293
0
LINE
8
0
10
55.124426
20
0.565293
11
54.695826
21
0.641015
0
LINE
8
0
10
266.666667
20
9.564072
11
266.598755
21
10.059128
0
LINE
8
0
10
266.598755
20
10.059128
11
266.468986
21
13.479416
0
LINE
8
0
10
266.468986
20
13.479416
11
266.349569
21
19.856247
0
LINE
8
0
10
266.349569
20
19.856247
11
266.243237
21
28.849192
0
LINE
8
0
10
266.243237
20
28.849192
11
266.152726
21
40.117819
0
LINE
8
0
10
266.152726
20
40.117819
11
266.080770
21
53.321701
0
LINE
8
0
10
266.080770
20
53.321701
11
266.030103
21
68.120407
0
LINE
8
0
10
266.030103
20
68.120407
11
266.003459
21
84.173508
0
LINE
8
0
10
266.003459
20
84.173508
11
266.000000
21
92.564072
0
LINE
8
0
10
266.000000
20
92.564072
11
266.000000
21
174.897405
0
LINE
8
0
10
266.000000
20
174.897405
11
294.000000
21
174.897405
0
LINE
8
0
10
294.000000
20
174.897405
11
322.000000
21
174.897405
0
LINE
8
0
10
322.000000
20
174.897405
11
322.000000
21
144.897405
0
LINE
8
0
10
322.000000
20
144.897405
11
322.000000
21
114.897405
0
LINE
8
0
10
322.000000
20
114.897405
11
356.106989
21
114.897405
0
LINE
8
0
10
356.106989
20
114.897405
11
360.919935
21
114.894194
0
LINE
8
0
10
360.919935
20
114.894194
11
369.227019
21
114.866497
0
LINE
8
0
10
369.227019
20
114.866497
11
375.895506
21
114.805978
0
LINE
8
0
10
375.895506
20
114.805978
11
381.069169
21
114.707289
0
LINE
8
0
10
381.069169
20
114.707289
11
384.891782
21
114.565079
0
LINE
8
0
10
384.891782
20
114.565079
11
387.507117
21
114.374001
0
LINE
8
0
10
387.507117
20
114.374001
11
389.480981
21
113.984055
0
LINE
8
0
10
389.480981
20
113.984055
11
389.707133
21
113.647405
0
LINE
8
0
10
389.707133
20
113.647405
11
389.437091
21
112.972796
0
LINE
8
0
10
389.437091
20
112.972796
11
388.011626
21
109.393499
0
LINE
8
0
10
388.011626
20
109.393499
11
385.644890
21
103.442327
0
LINE
8
0
10
385.644890
20
103.442327
11
382.623970
21
95.841155
0
LINE
8
0
10
382.623970
20
95.841155
11
380.957904
21
91.647405
0
LINE
8
0
10
380.957904
20
91.647405
11
372.715518
21
70.897405
0
LINE
8
0
10
372.715518
20
70.897405
11
347.357759
21
70.897405
0
LINE
8
0
10
347.357759
20
70.897405
11
322.000000
21
70.897405
0
LINE
8
0
10
322.000000
20
70.897405
11
322.000000
21
39.897405
0
LINE
8
0
10
322.000000
20
39.897405
11
322.000000
21
8.897405
0
LINE
8
0
10
322.000000
20
8.897405
11
294.666667
21
8.897405
0
LINE
8
0
10
294.666667
20
8.897405
11
289.162370
21
8.911012
0
LINE
8
0
10
289.162370
20
8.911012
11
279.297526
21
9.011663
0
LINE
8
0
10
279.297526
20
9.011663
11
271.723307
21
9.192002
0
LINE
8
0
10
271.723307
20
9.192002
11
268.098551
21
9.366391
0
LINE
8
0
10
268.098551
20
9.366391
11
266.876383
21
9.496160
0
LINE
8
0
10
266.876383
20
9.496160
11
266.666667
21
9.564072
0
LINE
8
0
10
862.531925
20
53.267560
11
855.332111
21
62.194201
0
LINE
8
0
10
855.332111
20
62.194201
11
845.492406
21
74.452897
0
LINE
8
0
10
845.492406
20
74.452897
11
839.786377
21
81.601795
0
LINE
8
0
10
839.786377
20
81.601795
11
834.934380
21
87.716332
0
LINE
8
0
10
834.934380
20
87.716332
11
831.082994
21
92.611785
0
LINE
8
0
10
831.082994
20
92.611785
11
828.378801
21
96.103431
0
LINE
8
0
10
828.378801
20
96.103431
11
826.968380
21
98.006548
0
LINE
8
0
10
826.968380
20
98.006548
11
826.794141
21
98.304682
0
LINE
8
0
10
826.794141
20
98.304682
11
826.967772
21
98.569576
0
LINE
8
0
10
826.967772
20
98.569576
11
828.237171
21
100.216621
0
LINE
8
0
10
828.237171
20
100.216621
11
830.629055
21
103.221308
0
LINE
8
0
10
830.629055
20
103.221308
11
834.014984
21
107.425194
0
LINE
8
0
10
834.014984
20
107.425194
11
838.266516
21
112.669836
0
LINE
8
0
10
838.266516
20
112.669836
11
843.255211
21
118.796793
0
LINE
8
0
10
843.255211
20
118.796793
11
851.839472
21
129.294973
0
LINE
8
0
10
851.839472
20
129.294973
11
858.109149
21
136.934527
0
LINE
8
0
10
858.109149
20
136.934527
11
889.308637
21
174.897405
0
LINE
8
0
10
889.308637
20
174.897405
11
925.715672
21
174.897405
0
LINE
8
0
10
925.715672
20
174.897405
11
962.122708
21
174.897405
0
LINE
8
0
10
962.122708
20
174.897405
11
949.237661
21
159.647405
0
LINE
8
0
10
949.237661
20
159.647405
11
946.247303
21
156.107706
0
LINE
8
0
10
946.247303
20
156.107706
11
938.670600
21
147.136780
0
LINE
8
0
10
938.670600
20
147.136780
11
925.320152
21
131.325526
0
LINE
8
0
10
925.320152
20
131.325526
11
916.655372
21
121.061191
0
LINE
8
0
10
916.655372
20
121.061191
11
896.958129
21
97.724977
0
LINE
8
0
10
896.958129
20
97.724977
11
900.804408
21
93.061191
0
LINE
8
0
10
900.804408
20
93.061191
11
901.862199
21
91.777362
0
LINE
8
0
10
901.862199
20
91.777362
11
905.345518
21
87.544732
0
LINE
8
0
10
905.345518
20
87.544732
11
912.893645
21
78.366188
0
LINE
8
0
10
912.893645
20
78.366188
11
918.621901
21
71.397405
0
LINE
8
0
10
918.621901
20
71.397405
11
921.810351
21
67.518133
0
LINE
8
0
10
921.810351
20
67.518133
11
929.626406
21
58.010564
0
LINE
8
0
10
929.626406
20
58.010564
11
942.937557
21
41.822210
0
LINE
8
0
10
942.937557
20
41.822210
11
951.305731
21
31.647405
0
LINE
8
0
10
951.305731
20
31.647405
11
970.018347
21
8.897405
0
LINE
8
0
10
970.018347
20
8.897405
11
934.201788
21
8.897405
0
LINE
8
0
10
934.201788
20
8.897405
11
898.385229
21
8.897405
0
LINE
8
0
10
898.385229
20
8.897405
11
862.531925
21
53.267560
0
LINE
8
0
10
391.000000
20
91.881587
11
391.000000
21
174.897405
0
LINE
8
0
10
391.000000
20
174.897405
11
419.005778
21
174.897405
0
LINE
8
0
10
419.005778
20
174.897405
11
447.011556
21
174.897405
0
LINE
8
0
10
447.011556
20
174.897405
11
446.755778
21
92.147405
0
LINE
8
0
10
446.755778
20
92.147405
11
446.500000
21
9.397405
0
LINE
8
0
10
446.500000
20
9.397405
11
418.750000
21
9.131587
0
LINE
8
0
10
418.750000
20
9.131587
11
391.000000
21
8.865768
0
LINE
8
0
10
391.000000
20
8.865768
11
391.000000
21
91.881587
0
LINE
8
0
10
118.458547
20
58.292288
11
113.987856
21
59.622883
0
LINE
8
0
10
113.987856
20
59.622883
11
105.793311
21
63.497082
0
LINE
8
0
10
105.793311
20
63.497082
11
98.706744
21
68.800618
0
LINE
8
0
10
98.706744
20
68.800618
11
92.862784
21
75.307876
0
LINE
8
0
10
92.862784
20
75.307876
11
88.396061
21
82.793241
0
LINE
8
0
10
88.396061
20
82.793241
11
85.441206
21
91.031099
0
LINE
8
0
10
85.441206
20
91.031099
11
84.132849
21
99.795835
0
LINE
8
0
10
84.132849
20
99.795835
11
84.605620
21
108.861836
0
LINE
8
0
10
84.605620
20
108.861836
11
85.552001
21
113.437306
0
LINE
8
0
10
85.552001
20
113.437306
11
87.651996
21
119.530814
0
LINE
8
0
10
87.651996
20
119.530814
11
94.389114
21
130.351820
0
LINE
8
0
10
94.389114
20
130.351820
11
103.969155
21
138.871339
0
LINE
8
0
10
103.969155
20
138.871339
11
115.744224
21
144.513198
0
LINE
8
0
10
115.744224
20
144.513198
11
122.252427
21
146.074951
0
LINE
8
0
10
122.252427
20
146.074951
11
127.671087
21
146.617960
0
LINE
8
0
10
127.671087
20
146.617960
11
138.168188
21
145.666625
0
LINE
8
0
10
138.168188
20
145.666625
11
147.927863
21
142.281521
0
LINE
8
0
10
147.927863
20
142.281521
11
156.609549
21
136.801887
0
LINE
8
0
10
156.609549
20
136.801887
11
163.872683
21
129.566965
0
LINE
8
0
10
163.872683
20
129.566965
11
169.376702
21
120.915992
0
LINE
8
0
10
169.376702
20
120.915992
11
172.781043
21
111.188211
0
LINE
8
0
10
172.781043
20
111.188211
11
173.745144
21
100.722860
0
LINE
8
0
10
173.745144
20
100.722860
11
173.205679
21
95.319609
0
LINE
8
0
10
173.205679
20
95.319609
11
172.154046
21
90.524938
0
LINE
8
0
10
172.154046
20
90.524938
11
168.708970
21
81.661450
0
LINE
8
0
10
168.708970
20
81.661450
11
163.676755
21
73.902350
0
LINE
8
0
10
163.676755
20
73.902350
11
157.299729
21
67.411531
0
LINE
8
0
10
157.299729
20
67.411531
11
149.820223
21
62.352890
0
LINE
8
0
10
149.820223
20
62.352890
11
141.480565
21
58.890322
0
LINE
8
0
10
141.480565
20
58.890322
11
132.523086
21
57.187723
0
LINE
8
0
10
132.523086
20
57.187723
11
123.190115
21
57.408989
0
LINE
8
0
10
123.190115
20
57.408989
11
118.458547
21
58.292288
0
LINE
8
0
10
1074.566094
20
57.383271
11
1076.567159
21
58.750777
0
LINE
8
0
10
1076.567159
20
58.750777
11
1079.745968
21
62.192486
0
LINE
8
0
10
1079.745968
20
62.192486
11
1080.951049
21
64.296285
0
LINE
8
0
10
1080.951049
20
64.296285
11
1081.630976
21
65.801146
0
LINE
8
0
10
1081.630976
20
65.801146
11
1082.511570
21
69.250854
0
LINE
8
0
10
1082.511570
20
69.250854
11
1082.826889
21
73.463336
0
LINE
8
0
10
1082.826889
20
73.463336
11
1082.908103
21
77.636140
0
LINE
8
0
10
1082.908103
20
77.636140
11
1082.908110
21
83.268001
0
LINE
8
0
10
1082.908110
20
83.268001
11
1082.845763
21
90.673894
0
LINE
8
0
10
1082.845763
20
90.673894
11
1082.797097
21
95.140532
0
LINE
8
0
10
1082.797097
20
95.140532
11
1082.500000
21
121.557629
0
LINE
8
0
10
1082.500000
20
121.557629
11
1079.616088
21
125.336364
0
LINE
8
0
10
1079.616088
20
125.336364
11
1077.729196
21
127.606380
0
LINE
8
0
10
1077.729196
20
127.606380
11
1073.493920
21
130.694952
0
LINE
8
0
10
1073.493920
20
130.694952
11
1068.883127
21
131.986374
0
LINE
8
0
10
1068.883127
20
131.986374
11
1064.635519
21
132.475900
0
LINE
8
0
10
1064.635519
20
132.475900
11
1059.143572
21
132.740887
0
LINE
8
0
10
1059.143572
20
132.740887
11
1052.145564
21
132.843564
0
LINE
8
0
10
1052.145564
20
132.843564
11
1048.000000
21
132.853481
0
LINE
8
0
10
1048.000000
20
132.853481
11
1044.045424
21
132.844343
0
LINE
8
0
10
1044.045424
20
132.844343
11
1037.334248
21
132.753734
0
LINE
8
0
10
1037.334248
20
132.753734
11
1032.023844
21
132.527775
0
LINE
8
0
10
1032.023844
20
132.527775
11
1027.878378
21
132.119779
0
LINE
8
0
10
1027.878378
20
132.119779
11
1023.328554
21
131.064341
0
LINE
8
0
10
1023.328554
20
131.064341
11
1019.138294
21
128.584225
0
LINE
8
0
10
1019.138294
20
128.584225
11
1017.316612
21
126.779324
0
LINE
8
0
10
1017.316612
20
126.779324
11
1015.995664
21
125.184489
0
LINE
8
0
10
1015.995664
20
125.184489
11
1014.212847
21
121.258648
0
LINE
8
0
10
1014.212847
20
121.258648
11
1013.478329
21
116.522151
0
LINE
8
0
10
1013.478329
20
116.522151
11
1013.204601
21
111.964449
0
LINE
8
0
10
1013.204601
20
111.964449
11
1013.059457
21
105.946577
0
LINE
8
0
10
1013.059457
20
105.946577
11
1013.005029
21
98.176990
0
LINE
8
0
10
1013.005029
20
98.176990
11
1013.000000
21
93.544195
0
LINE
8
0
10
1013.000000
20
93.544195
11
1013.001582
21
89.274751
0
LINE
8
0
10
1013.001582
20
89.274751
11
1013.022883
21
82.196021
0
LINE
8
0
10
1013.022883
20
82.196021
11
1013.087589
21
76.810631
0
LINE
8
0
10
1013.087589
20
76.810631
11
1013.218764
21
72.814335
0
LINE
8
0
10
1013.218764
20
72.814335
11
1013.590607
21
68.758901
0
LINE
8
0
10
1013.590607
20
68.758901
11
1014.534301
21
65.373844
0
LINE
8
0
10
1014.534301
20
65.373844
11
1015.250000
21
63.863411
0
LINE
8
0
10
1015.250000
20
63.863411
11
1016.481371
21
61.785445
0
LINE
8
0
10
1016.481371
20
61.785445
11
1019.620025
21
58.423098
0
LINE
8
0
10
1019.620025
20
58.423098
11
1021.500000
21
57.167972
0
LINE
8
0
10
1021.500000
20
57.167972
11
1022.853031
21
56.460291
0
LINE
8
0
10
1022.853031
20
56.460291
11
1025.905579
21
55.522966
0
LINE
8
0
10
1025.905579
20
55.522966
11
1029.540534
21
55.149293
0
LINE
8
0
10
1029.540534
20
55.149293
11
1033.100942
21
55.014636
0
LINE
8
0
10
1033.100942
20
55.014636
11
1037.879884
21
54.945187
0
LINE
8
0
10
1037.879884
20
54.945187
11
1044.142088
21
54.918353
0
LINE
8
0
10
1044.142088
20
54.918353
11
1047.912142
21
54.913856
0
LINE
8
0
10
1047.912142
20
54.913856
11
1051.804603
21
54.912009
0
LINE
8
0
10
1051.804603
20
54.912009
11
1058.213734
21
54.925841
0
LINE
8
0
10
1058.213734
20
54.925841
11
1063.037273
21
54.986091
0
LINE
8
0
10
1063.037273
20
54.986091
11
1066.573779
21
55.120420
0
LINE
8
0
10
1066.573779
20
55.120420
11
1070.118445
21
55.521318
0
LINE
8
0
10
1070.118445
20
55.521318
11
1073.126587
21
56.573289
0
LINE
8
0
10
1073.126587
20
56.573289
11
1074.566094
21
57.383271
0
ENDSEC
0
EOF
