  0
SECTION
  2
HEADER
  9
$ACADVER
  1
AC1006
  9
$EXTMIN
 10
0.000000
 20
0.000000
 30
0.000000
  9
$EXTMAX
 10
469.000000
 20
96.000000
 30
0.000000
  0
ENDSEC
  0
SECTION
  2
ENTITIES
  0
POLYLINE
  8
0
 66
1
 70
1
  0
VERTEX
  8
0
 10
44.500000
 20
95.353701
 42
0.015040
  0
VERTEX
  8
0
 10
40.490137
 20
94.594684
 42
0.023427
  0
VERTEX
  8
0
 10
37.095680
 20
93.677141
 42
0.019665
  0
VERTEX
  8
0
 10
34.502605
 20
92.730104
 42
0.304223
  0
VERTEX
  8
0
 10
34.000000
 20
91.980508
 42
0.315270
  0
VERTEX
  8
0
 10
34.610835
 20
91.108047
 42
0.045494
  0
VERTEX
  8
0
 10
36.832037
 20
90.521329
 42
0.025576
  0
VERTEX
  8
0
 10
40.691867
 20
90.070867
 42
0.005335
  0
VERTEX
  8
0
 10
47.500000
 20
89.700352
 42
-0.025293
  0
VERTEX
  8
0
 10
56.127310
 20
88.884592
 42
-0.114729
  0
VERTEX
  8
0
 10
60.798647
 20
87.054939
 42
-0.235003
  0
VERTEX
  8
0
 10
62.424221
 20
84.130965
 42
-0.131505
  0
VERTEX
  8
0
 10
61.532825
 20
80.063477
 42
-0.044648
  0
VERTEX
  8
0
 10
59.182021
 20
76.367373
 42
-0.028478
  0
VERTEX
  8
0
 10
55.848902
 20
72.510350
 42
-0.022847
  0
VERTEX
  8
0
 10
51.335999
 20
68.259470
 42
-0.011717
  0
VERTEX
  8
0
 10
45.322091
 20
63.332355
 42
0.006819
  0
VERTEX
  8
0
 10
39.994939
 20
59.054395
 42
0.050542
  0
VERTEX
  8
0
 10
37.710480
 20
56.743124
 42
0.298524
  0
VERTEX
  8
0
 10
37.598533
 20
55.608702
 42
0.279170
  0
VERTEX
  8
0
 10
38.603767
 20
55.000000
 42
0.117404
  0
VERTEX
  8
0
 10
41.531260
 20
55.697004
 42
0.012424
  0
VERTEX
  8
0
 10
47.759438
 20
59.037637
 42
0.016369
  0
VERTEX
  8
0
 10
54.306958
 20
63.051083
 42
0.024417
  0
VERTEX
  8
0
 10
59.726923
 20
67.015018
 42
0.045714
  0
VERTEX
  8
0
 10
68.304620
 20
75.360073
 42
0.116293
  0
VERTEX
  8
0
 10
72.260854
 20
83.029639
 42
0.195089
  0
VERTEX
  8
0
 10
71.384718
 20
89.217782
 42
0.163697
  0
VERTEX
  8
0
 10
66.369735
 20
93.618875
 42
0.064697
  0
VERTEX
  8
0
 10
62.614394
 20
94.644324
 42
0.014549
  0
VERTEX
  8
0
 10
56.012613
 20
95.361810
 42
0.015600
  0
VERTEX
  8
0
 10
49.242406
 20
95.686768
 42
0.043467
  0
SEQEND
  0
POLYLINE
  8
0
 66
1
 70
1
  0
VERTEX
  8
0
 10
72.776016
 20
62.969001
 42
0.048576
  0
VERTEX
  8
0
 10
68.749495
 20
61.880766
 42
0.057562
  0
VERTEX
  8
0
 10
65.248256
 20
60.075595
 42
0.065686
  0
VERTEX
  8
0
 10
62.663704
 20
57.798616
 42
0.118422
  0
VERTEX
  8
0
 10
61.363031
 20
55.310296
 42
0.137629
  0
VERTEX
  8
0
 10
61.453217
 20
52.047643
 42
0.052073
  0
VERTEX
  8
0
 10
63.267391
 20
47.818475
 42
0.034220
  0
VERTEX
  8
0
 10
66.873945
 20
42.285879
 42
0.011381
  0
VERTEX
  8
0
 10
72.877200
 20
34.690770
 42
-0.020616
  0
VERTEX
  8
0
 10
80.638917
 20
24.489246
 42
-0.299912
  0
VERTEX
  8
0
 10
80.752958
 20
20.174423
 42
-0.231201
  0
VERTEX
  8
0
 10
76.654482
 20
17.604599
 42
-0.013453
  0
VERTEX
  8
0
 10
61.509257
 20
16.409802
 42
0.004890
  0
VERTEX
  8
0
 10
55.145823
 20
16.017311
 42
0.017789
  0
VERTEX
  8
0
 10
51.119714
 20
15.585047
 42
0.020034
  0
VERTEX
  8
0
 10
48.504008
 20
15.102062
 42
0.350405
  0
VERTEX
  8
0
 10
48.000000
 20
14.471187
 42
0.296948
  0
VERTEX
  8
0
 10
48.813613
 20
13.222030
 42
0.059628
  0
VERTEX
  8
0
 10
51.479312
 20
12.406007
 42
0.028550
  0
VERTEX
  8
0
 10
56.355649
 20
11.813753
 42
0.005127
  0
VERTEX
  8
0
 10
65.500000
 20
11.323835
 42
0.012717
  0
VERTEX
  8
0
 10
74.984872
 20
11.154629
 42
0.039926
  0
VERTEX
  8
0
 10
81.327179
 20
11.710400
 42
0.059600
  0
VERTEX
  8
0
 10
85.937823
 20
13.067594
 42
0.076406
  0
VERTEX
  8
0
 10
89.685872
 20
15.406222
 42
0.160610
  0
VERTEX
  8
0
 10
92.030819
 20
19.301109
 42
0.139458
  0
VERTEX
  8
0
 10
91.774077
 20
24.077745
 42
0.077463
  0
VERTEX
  8
0
 10
88.522272
 20
30.241734
 42
0.022953
  0
VERTEX
  8
0
 10
81.748537
 20
38.516906
 42
-0.013589
  0
VERTEX
  8
0
 10
77.758462
 20
43.209360
 42
-0.022099
  0
VERTEX
  8
0
 10
74.663456
 20
47.424850
 42
-0.023559
  0
VERTEX
  8
0
 10
72.546794
 20
50.939935
 42
-0.124360
  0
VERTEX
  8
0
 10
72.000000
 20
53.104363
 42
-0.215571
  0
VERTEX
  8
0
 10
72.861832
 20
55.010418
 42
-0.102618
  0
VERTEX
  8
0
 10
75.252110
 20
56.369457
 42
-0.052640
  0
VERTEX
  8
0
 10
79.536914
 20
57.270573
 42
-0.014096
  0
VERTEX
  8
0
 10
86.490189
 20
57.785432
 42
0.006398
  0
VERTEX
  8
0
 10
90.427062
 20
58.016066
 42
0.008682
  0
VERTEX
  8
0
 10
93.973777
 20
58.331402
 42
0.006177
  0
VERTEX
  8
0
 10
96.920371
 20
58.681901
 42
0.090821
  0
VERTEX
  8
0
 10
97.909903
 20
59.000941
 42
0.438935
  0
VERTEX
  8
0
 10
98.157673
 20
59.969139
 42
0.151411
  0
VERTEX
  8
0
 10
96.905513
 20
61.010108
 42
0.046914
  0
VERTEX
  8
0
 10
93.496664
 20
62.061829
 42
0.015481
  0
VERTEX
  8
0
 10
88.329062
 20
62.973063
 42
0.007269
  0
VERTEX
  8
0
 10
83.279291
 20
63.628349
 42
0.028700
  0
VERTEX
  8
0
 10
80.151694
 20
63.807202
 42
0.031555
  0
VERTEX
  8
0
 10
77.169528
 20
63.618025
 42
0.010111
  0
SEQEND
  0
POLYLINE
  8
0
 66
1
 70
1
  0
VERTEX
  8
0
 10
21.000000
 20
49.308084
 42
0.021692
  0
VERTEX
  8
0
 10
17.858710
 20
48.639697
 42
0.023850
  0
VERTEX
  8
0
 10
14.886878
 20
47.718073
 42
0.017662
  0
VERTEX
  8
0
 10
12.451813
 20
46.734939
 42
0.296168
  0
VERTEX
  8
0
 10
12.000000
 20
46.039079
 42
0.325966
  0
VERTEX
  8
0
 10
12.674096
 20
45.114949
 42
0.040284
  0
VERTEX
  8
0
 10
15.250651
 20
44.512076
 42
0.028029
  0
VERTEX
  8
0
 10
19.341738
 20
44.129339
 42
0.008776
  0
VERTEX
  8
0
 10
25.500000
 20
44.008078
 42
-0.026471
  0
VERTEX
  8
0
 10
35.624226
 20
43.450003
 42
-0.103536
  0
VERTEX
  8
0
 10
41.548520
 20
41.523939
 42
-0.200697
  0
VERTEX
  8
0
 10
44.116978
 20
38.173160
 42
-0.145166
  0
VERTEX
  8
0
 10
43.972027
 20
33.415240
 42
-0.093988
  0
VERTEX
  8
0
 10
41.468002
 20
28.898438
 42
-0.032462
  0
VERTEX
  8
0
 10
36.313843
 20
23.459566
 42
-0.031928
  0
VERTEX
  8
0
 10
29.936872
 20
18.265391
 42
-0.040192
  0
VERTEX
  8
0
 10
23.404133
 20
14.355170
 42
-0.019202
  0
VERTEX
  8
0
 10
16.368879
 20
11.208187
 42
-0.419931
  0
VERTEX
  8
0
 10
14.499622
 20
12.027116
 42
-0.205633
  0
VERTEX
  8
0
 10
14.623131
 20
14.906212
 42
-0.007954
  0
VERTEX
  8
0
 10
19.500000
 20
24.641819
 42
0.000937
  0
VERTEX
  8
0
 10
24.377905
 20
34.047532
 42
0.027147
  0
VERTEX
  8
0
 10
25.490513
 20
36.523853
 42
0.217139
  0
VERTEX
  8
0
 10
25.430394
 20
37.530518
 42
0.277702
  0
VERTEX
  8
0
 10
24.650283
 20
38.000000
 42
0.153341
  0
VERTEX
  8
0
 10
23.858784
 20
37.751417
 42
0.024783
  0
VERTEX
  8
0
 10
22.565628
 20
36.751562
 42
0.025384
  0
VERTEX
  8
0
 10
21.115365
 20
35.377319
 42
0.019888
  0
VERTEX
  8
0
 10
19.682974
 20
33.750000
 42
0.025551
  0
VERTEX
  8
0
 10
13.415145
 20
25.169986
 42
0.013436
  0
VERTEX
  8
0
 10
6.477577
 20
13.929112
 42
0.005180
  0
VERTEX
  8
0
 10
-0.001492
 20
2.499996
 42
0.334377
  0
VERTEX
  8
0
 10
0.299050
 20
0.367616
 42
0.259364
  0
VERTEX
  8
0
 10
1.793025
 20
-0.058512
 42
0.011395
  0
VERTEX
  8
0
 10
7.218850
 20
1.341275
 42
0.017804
  0
VERTEX
  8
0
 10
13.515147
 20
3.364220
 42
0.014559
  0
VERTEX
  8
0
 10
20.095284
 20
5.958854
 42
0.038646
  0
VERTEX
  8
0
 10
33.884447
 20
13.172097
 42
0.050809
  0
VERTEX
  8
0
 10
45.090368
 20
21.882513
 42
0.060039
  0
VERTEX
  8
0
 10
52.570204
 20
30.971504
 42
0.143127
  0
VERTEX
  8
0
 10
55.000000
 20
39.285848
 42
0.172123
  0
VERTEX
  8
0
 10
53.387491
 20
43.831264
 42
0.114601
  0
VERTEX
  8
0
 10
48.980804
 20
47.256830
 42
0.076503
  0
VERTEX
  8
0
 10
41.790248
 20
49.323462
 42
0.035767
  0
VERTEX
  8
0
 10
32.091069
 20
49.863818
 42
0.004011
  0
VERTEX
  8
0
 10
28.618620
 20
49.780907
 42
0.004543
  0
VERTEX
  8
0
 10
25.289252
 20
49.644396
 42
0.004151
  0
VERTEX
  8
0
 10
22.462928
 20
49.479246
 42
0.024906
  0
SEQEND
  0
POLYLINE
  8
0
 66
1
 70
1
  0
VERTEX
  8
0
 10
123.228960
 20
48.330706
 42
0.147681
  0
VERTEX
  8
0
 10
121.820977
 20
47.201939
 42
0.041634
  0
VERTEX
  8
0
 10
120.410922
 20
44.731000
 42
0.041908
  0
VERTEX
  8
0
 10
119.350502
 20
41.840120
 42
0.067052
  0
VERTEX
  8
0
 10
119.000000
 20
39.238221
 42
0.101945
  0
VERTEX
  8
0
 10
119.526800
 20
36.681325
 42
0.085563
  0
VERTEX
  8
0
 10
121.039490
 20
34.357726
 42
0.046362
  0
VERTEX
  8
0
 10
124.054648
 20
31.657551
 42
0.009569
  0
VERTEX
  8
0
 10
129.869257
 20
27.519196
 42
-0.014071
  0
VERTEX
  8
0
 10
136.109547
 20
22.992700
 42
-0.321748
  0
VERTEX
  8
0
 10
136.712123
 20
20.991940
 42
-0.298059
  0
VERTEX
  8
0
 10
135.000773
 20
19.659897
 42
-0.012838
  0
VERTEX
  8
0
 10
127.022631
 20
19.209617
 42
0.010486
  0
VERTEX
  8
0
 10
120.629093
 20
18.878935
 42
0.087897
  0
VERTEX
  8
0
 10
117.836302
 20
18.171797
 42
0.196164
  0
VERTEX
  8
0
 10
116.498083
 20
16.763971
 42
0.091716
  0
VERTEX
  8
0
 10
116.015313
 20
14.250000
 42
0.159091
  0
VERTEX
  8
0
 10
116.420051
 20
12.980944
 42
0.188229
  0
VERTEX
  8
0
 10
117.470815
 20
12.300861
 42
0.047616
  0
VERTEX
  8
0
 10
119.870929
 20
12.042678
 42
0.003000
  0
VERTEX
  8
0
 10
126.984223
 20
12.000000
 42
0.004717
  0
VERTEX
  8
0
 10
133.926107
 20
12.065496
 42
0.044319
  0
VERTEX
  8
0
 10
136.890698
 20
12.385271
 42
0.088338
  0
VERTEX
  8
0
 10
138.913339
 20
13.175015
 42
0.045217
  0
VERTEX
  8
0
 10
141.107283
 20
14.804550
 42
0.032337
  0
VERTEX
  8
0
 10
142.681111
 20
16.405252
 42
0.067852
  0
VERTEX
  8
0
 10
143.630866
 20
17.865103
 42
0.069153
  0
VERTEX
  8
0
 10
144.144728
 20
19.507625
 42
0.034740
  0
VERTEX
  8
0
 10
144.352740
 20
21.675338
 42
0.062703
  0
VERTEX
  8
0
 10
144.025043
 20
24.973665
 42
0.112739
  0
VERTEX
  8
0
 10
142.851029
 20
27.411524
 42
0.062660
  0
VERTEX
  8
0
 10
140.241008
 20
29.954102
 42
0.009409
  0
VERTEX
  8
0
 10
134.313307
 20
34.260980
 42
-0.011286
  0
VERTEX
  8
0
 10
131.511262
 20
36.312966
 42
-0.016497
  0
VERTEX
  8
0
 10
129.148284
 20
38.253902
 42
-0.011937
  0
VERTEX
  8
0
 10
127.313550
 20
39.944432
 42
-0.203337
  0
VERTEX
  8
0
 10
127.000000
 20
40.683566
 42
-0.310346
  0
VERTEX
  8
0
 10
127.438224
 20
41.321590
 42
-0.054709
  0
VERTEX
  8
0
 10
128.921181
 20
41.712601
 42
-0.030111
  0
VERTEX
  8
0
 10
131.482942
 20
41.939370
 42
-0.007022
  0
VERTEX
  8
0
 10
135.800000
 20
42.000000
 42
0.014048
  0
VERTEX
  8
0
 10
141.868347
 20
42.170536
 42
0.085491
  0
VERTEX
  8
0
 10
144.917275
 20
42.874001
 42
0.180522
  0
VERTEX
  8
0
 10
146.440645
 20
44.306087
 42
0.115276
  0
VERTEX
  8
0
 10
147.000000
 20
46.700000
 42
0.153942
  0
VERTEX
  8
0
 10
146.588610
 20
48.004518
 42
0.193591
  0
VERTEX
  8
0
 10
145.535755
 20
48.690368
 42
0.047713
  0
VERTEX
  8
0
 10
143.123067
 20
48.931389
 42
0.002808
  0
VERTEX
  8
0
 10
135.750000
 20
48.921053
 42
0.004149
  0
VERTEX
  8
0
 10
131.347631
 20
48.853624
 42
0.005875
  0
VERTEX
  8
0
 10
127.431320
 20
48.715073
 42
0.003498
  0
VERTEX
  8
0
 10
124.143726
 20
48.537011
 42
0.080529
  0
SEQEND
  0
POLYLINE
  8
0
 66
1
 70
1
  0
VERTEX
  8
0
 10
162.121329
 20
46.831047
 42
0.126934
  0
VERTEX
  8
0
 10
155.494603
 20
41.110429
 42
0.087094
  0
VERTEX
  8
0
 10
151.312394
 20
32.048408
 42
0.089986
  0
VERTEX
  8
0
 10
150.546526
 20
22.391950
 42
0.150922
  0
VERTEX
  8
0
 10
153.688975
 20
14.957786
 42
0.104206
  0
VERTEX
  8
0
 10
157.326540
 20
12.113444
 42
0.068509
  0
VERTEX
  8
0
 10
162.390922
 20
10.439867
 42
0.061184
  0
VERTEX
  8
0
 10
168.318940
 20
10.082908
 42
0.052228
  0
VERTEX
  8
0
 10
174.496700
 20
11.120698
 42
0.108732
  0
VERTEX
  8
0
 10
180.287472
 20
14.190173
 42
0.070249
  0
VERTEX
  8
0
 10
185.348247
 20
19.885069
 42
0.067362
  0
VERTEX
  8
0
 10
188.824454
 20
27.049825
 42
0.081268
  0
VERTEX
  8
0
 10
189.978038
 20
34.431501
 42
0.068843
  0
VERTEX
  8
0
 10
189.414978
 20
38.297519
 42
0.057626
  0
VERTEX
  8
0
 10
187.809903
 20
42.123498
 42
0.059931
  0
VERTEX
  8
0
 10
185.467291
 20
45.322572
 42
0.094265
  0
VERTEX
  8
0
 10
182.725727
 20
47.325861
 42
0.075167
  0
VERTEX
  8
0
 10
178.245541
 20
48.677527
 42
0.041768
  0
VERTEX
  8
0
 10
172.537230
 20
49.017437
 42
0.041519
  0
VERTEX
  8
0
 10
166.776759
 20
48.398697
 42
0.067511
  0
SEQEND
  0
POLYLINE
  8
0
 66
1
 70
1
  0
VERTEX
  8
0
 10
178.988322
 20
41.210539
 42
-0.189490
  0
VERTEX
  8
0
 10
181.354407
 20
37.035578
 42
-0.069886
  0
VERTEX
  8
0
 10
181.364833
 20
30.147177
 42
-0.067566
  0
VERTEX
  8
0
 10
179.416459
 20
23.187378
 42
-0.132793
  0
VERTEX
  8
0
 10
175.864236
 20
18.721407
 42
-0.078989
  0
VERTEX
  8
0
 10
172.512800
 20
16.988624
 42
-0.065086
  0
VERTEX
  8
0
 10
168.555673
 20
16.229495
 42
-0.068391
  0
VERTEX
  8
0
 10
164.752440
 20
16.523011
 42
-0.114130
  0
VERTEX
  8
0
 10
161.862378
 20
17.886660
 42
-0.078634
  0
VERTEX
  8
0
 10
159.764739
 20
20.157790
 42
-0.094311
  0
VERTEX
  8
0
 10
158.631551
 20
22.832835
 42
-0.073725
  0
VERTEX
  8
0
 10
158.407710
 20
26.248088
 42
-0.030749
  0
VERTEX
  8
0
 10
159.068244
 20
30.828727
 42
-0.056007
  0
VERTEX
  8
0
 10
160.810536
 20
36.146959
 42
-0.095033
  0
VERTEX
  8
0
 10
163.515259
 20
39.951787
 42
-0.106420
  0
VERTEX
  8
0
 10
167.192420
 20
42.212738
 42
-0.085013
  0
VERTEX
  8
0
 10
171.789216
 20
43.000000
 42
-0.024048
  0
VERTEX
  8
0
 10
174.102372
 20
42.888682
 42
-0.036881
  0
VERTEX
  8
0
 10
176.078887
 20
42.549600
 42
-0.043209
  0
VERTEX
  8
0
 10
177.712777
 20
41.989965
 42
-0.066172
  0
SEQEND
  0
POLYLINE
  8
0
 66
1
 70
1
  0
VERTEX
  8
0
 10
196.651973
 20
33.250000
 42
-0.000302
  0
VERTEX
  8
0
 10
195.539119
 20
27.015020
 42
-0.000393
  0
VERTEX
  8
0
 10
194.512667
 20
21.309974
 42
-0.000291
  0
VERTEX
  8
0
 10
193.645681
 20
16.528792
 42
-0.003633
  0
VERTEX
  8
0
 10
193.303027
 20
14.720123
 42
0.000000
  0
VERTEX
  8
0
 10
192.755423
 20
11.940246
 42
0.000000
  0
VERTEX
  8
0
 10
206.127712
 20
12.220123
 42
0.002558
  0
VERTEX
  8
0
 10
214.735820
 20
12.444349
 42
0.037907
  0
VERTEX
  8
0
 10
217.735413
 20
12.766339
 42
0.140330
  0
VERTEX
  8
0
 10
219.141536
 20
13.465718
 42
0.174059
  0
VERTEX
  8
0
 10
219.819551
 20
14.750000
 42
0.134901
  0
VERTEX
  8
0
 10
219.657472
 20
16.018293
 42
0.235151
  0
VERTEX
  8
0
 10
218.873817
 20
16.696788
 42
0.059351
  0
VERTEX
  8
0
 10
216.928295
 20
16.957331
 42
0.003641
  0
VERTEX
  8
0
 10
211.069551
 20
17.000000
 42
-0.007755
  0
VERTEX
  8
0
 10
207.592698
 20
17.053932
 42
-0.012894
  0
VERTEX
  8
0
 10
204.666986
 20
17.220312
 42
-0.006505
  0
VERTEX
  8
0
 10
202.275506
 20
17.449644
 42
-0.386403
  0
VERTEX
  8
0
 10
202.009552
 20
17.750000
 42
-0.040396
  0
VERTEX
  8
0
 10
202.063234
 20
18.322566
 42
-0.000334
  0
VERTEX
  8
0
 10
202.847240
 20
22.759375
 42
-0.001193
  0
VERTEX
  8
0
 10
203.762930
 20
27.850659
 42
-0.000767
  0
VERTEX
  8
0
 10
204.847843
 20
33.750000
 42
0.000000
  0
VERTEX
  8
0
 10
207.676582
 20
49.000000
 42
0.000000
  0
VERTEX
  8
0
 10
203.564948
 20
49.000000
 42
0.000000
  0
VERTEX
  8
0
 10
199.453315
 20
49.000000
 42
0.000000
  0
SEQEND
  0
POLYLINE
  8
0
 66
1
 70
1
  0
VERTEX
  8
0
 10
231.539937
 20
47.750000
 42
0.030017
  0
VERTEX
  8
0
 10
231.306026
 20
46.825142
 42
0.000718
  0
VERTEX
  8
0
 10
230.483571
 20
42.460938
 42
0.001572
  0
VERTEX
  8
0
 10
229.542470
 20
37.338366
 42
0.001067
  0
VERTEX
  8
0
 10
228.501696
 20
31.500000
 42
-0.000853
  0
VERTEX
  8
0
 10
227.450856
 20
25.590518
 42
-0.001149
  0
VERTEX
  8
0
 10
226.478259
 20
20.245313
 42
-0.000780
  0
VERTEX
  8
0
 10
225.644788
 20
15.762958
 42
-0.012408
  0
VERTEX
  8
0
 10
225.321966
 20
14.250000
 42
0.057261
  0
VERTEX
  8
0
 10
225.168566
 20
12.984582
 42
0.258594
  0
VERTEX
  8
0
 10
225.512608
 20
12.354614
 42
0.129758
  0
VERTEX
  8
0
 10
226.445578
 20
12.059090
 42
0.012172
  0
VERTEX
  8
0
 10
228.872540
 20
12.000000
 42
0.072075
  0
VERTEX
  8
0
 10
231.713843
 20
12.411713
 42
0.228644
  0
VERTEX
  8
0
 10
233.097736
 20
13.668655
 42
0.050924
  0
VERTEX
  8
0
 10
233.976295
 20
16.699805
 42
0.001248
  0
VERTEX
  8
0
 10
236.546841
 20
31.000000
 42
-0.001237
  0
VERTEX
  8
0
 10
237.568102
 20
36.682114
 42
-0.001730
  0
VERTEX
  8
0
 10
238.510916
 20
41.754688
 42
-0.001031
  0
VERTEX
  8
0
 10
239.328907
 20
46.024290
 42
-0.022982
  0
VERTEX
  8
0
 10
239.625364
 20
47.250000
 42
0.112930
  0
VERTEX
  8
0
 10
239.677305
 20
48.139038
 42
0.242229
  0
VERTEX
  8
0
 10
239.277210
 20
48.674332
 42
0.100133
  0
VERTEX
  8
0
 10
238.255692
 20
48.939567
 42
0.013610
  0
VERTEX
  8
0
 10
236.036003
 20
49.000000
 42
0.025872
  0
VERTEX
  8
0
 10
234.368617
 20
48.913664
 42
0.041951
  0
VERTEX
  8
0
 10
232.975051
 20
48.649525
 42
0.051346
  0
VERTEX
  8
0
 10
231.964774
 20
48.253282
 42
0.199246
  0
SEQEND
  0
POLYLINE
  8
0
 66
1
 70
1
  0
VERTEX
  8
0
 10
247.180449
 20
46.750000
 42
0.158815
  0
VERTEX
  8
0
 10
247.808168
 20
45.470441
 42
0.141339
  0
VERTEX
  8
0
 10
249.098862
 20
44.733322
 42
0.042707
  0
VERTEX
  8
0
 10
251.795339
 20
44.318281
 42
0.003408
  0
VERTEX
  8
0
 10
259.000000
 20
43.881560
 42
-0.000936
  0
VERTEX
  8
0
 10
263.430293
 20
43.634993
 42
-0.001500
  0
VERTEX
  8
0
 10
267.210302
 20
43.406141
 42
-0.000258
  0
VERTEX
  8
0
 10
270.552059
 20
43.192028
 42
-0.087100
  0
VERTEX
  8
0
 10
270.801027
 20
43.131560
 42
-0.174928
  0
VERTEX
  8
0
 10
270.964350
 20
42.976834
 42
-0.003845
  0
VERTEX
  8
0
 10
271.454484
 20
41.983525
 42
-0.008284
  0
VERTEX
  8
0
 10
272.005895
 20
40.794175
 42
-0.005445
  0
VERTEX
  8
0
 10
272.602846
 20
39.408098
 42
-0.092530
  0
VERTEX
  8
0
 10
273.511023
 20
35.173079
 42
-0.060593
  0
VERTEX
  8
0
 10
273.039516
 20
30.189228
 42
-0.058816
  0
VERTEX
  8
0
 10
271.346675
 20
25.292713
 42
-0.072995
  0
VERTEX
  8
0
 10
268.643293
 20
21.307828
 42
-0.031002
  0
VERTEX
  8
0
 10
266.669918
 20
19.405790
 42
-0.075409
  0
VERTEX
  8
0
 10
264.955785
 20
18.344262
 42
-0.062297
  0
VERTEX
  8
0
 10
262.810879
 20
17.728628
 42
-0.016162
  0
VERTEX
  8
0
 10
259.238896
 20
17.287946
 42
-0.024605
  0
VERTEX
  8
0
 10
254.632698
 20
17.097930
 42
-0.317461
  0
VERTEX
  8
0
 10
253.309777
 20
18.047914
 42
-0.128220
  0
VERTEX
  8
0
 10
253.134848
 20
20.280740
 42
-0.003634
  0
VERTEX
  8
0
 10
254.907809
 20
29.800412
 42
0.000000
  0
VERTEX
  8
0
 10
256.709968
 20
39.100824
 42
0.000000
  0
VERTEX
  8
0
 10
252.613135
 20
38.800412
 42
0.000000
  0
VERTEX
  8
0
 10
248.516303
 20
38.500000
 42
0.000000
  0
VERTEX
  8
0
 10
246.311999
 20
27.000000
 42
0.004145
  0
VERTEX
  8
0
 10
244.228228
 20
15.619302
 42
0.179599
  0
VERTEX
  8
0
 10
244.664810
 20
13.255143
 42
0.255230
  0
VERTEX
  8
0
 10
246.524077
 20
12.158294
 42
0.008788
  0
VERTEX
  8
0
 10
255.250000
 20
12.021962
 42
0.025328
  0
VERTEX
  8
0
 10
265.597421
 20
12.566711
 42
0.090159
  0
VERTEX
  8
0
 10
271.944281
 20
14.412918
 42
0.116232
  0
VERTEX
  8
0
 10
276.349074
 20
18.080539
 42
0.057204
  0
VERTEX
  8
0
 10
280.060680
 20
24.404273
 42
0.051740
  0
VERTEX
  8
0
 10
281.742440
 20
29.599179
 42
0.048240
  0
VERTEX
  8
0
 10
282.374438
 20
35.153763
 42
0.051879
  0
VERTEX
  8
0
 10
281.937615
 20
40.174877
 42
0.112530
  0
VERTEX
  8
0
 10
280.386540
 20
43.699521
 42
0.070940
  0
VERTEX
  8
0
 10
277.586450
 20
46.528178
 42
0.098560
  0
VERTEX
  8
0
 10
274.388099
 20
48.082414
 42
0.054461
  0
VERTEX
  8
0
 10
269.534695
 20
48.801261
 42
0.009281
  0
VERTEX
  8
0
 10
260.180449
 20
48.985258
 42
0.002144
  0
VERTEX
  8
0
 10
251.344305
 20
48.957147
 42
0.040725
  0
VERTEX
  8
0
 10
248.594589
 20
48.712125
 42
0.197043
  0
VERTEX
  8
0
 10
247.492608
 20
48.022190
 42
0.193200
  0
SEQEND
  0
POLYLINE
  8
0
 66
1
 70
1
  0
VERTEX
  8
0
 10
290.000000
 20
30.500000
 42
0.000000
  0
VERTEX
  8
0
 10
290.000000
 20
12.000000
 42
0.000000
  0
VERTEX
  8
0
 10
292.943702
 20
12.000000
 42
0.112652
  0
VERTEX
  8
0
 10
294.791950
 20
12.421769
 42
0.104892
  0
VERTEX
  8
0
 10
296.329832
 20
13.609753
 42
0.042998
  0
VERTEX
  8
0
 10
298.149484
 20
16.168883
 42
0.005030
  0
VERTEX
  8
0
 10
301.648234
 20
22.250000
 42
0.000000
  0
VERTEX
  8
0
 10
307.409065
 20
32.500000
 42
0.000000
  0
VERTEX
  8
0
 10
309.199275
 20
24.500000
 42
0.000225
  0
VERTEX
  8
0
 10
309.923117
 20
21.272153
 42
0.000258
  0
VERTEX
  8
0
 10
310.617627
 20
18.189063
 42
0.000232
  0
VERTEX
  8
0
 10
311.209262
 20
15.574617
 42
0.001483
  0
VERTEX
  8
0
 10
311.513795
 20
14.250000
 42
0.169794
  0
VERTEX
  8
0
 10
312.447832
 20
12.777650
 42
0.127937
  0
VERTEX
  8
0
 10
314.215077
 20
11.999853
 42
0.122432
  0
VERTEX
  8
0
 10
316.199857
 20
12.166040
 42
0.149441
  0
VERTEX
  8
0
 10
317.705833
 20
13.250000
 42
0.058183
  0
VERTEX
  8
0
 10
319.226030
 20
15.820913
 42
0.000990
  0
VERTEX
  8
0
 10
325.857736
 20
30.840779
 42
0.000593
  0
VERTEX
  8
0
 10
332.633555
 20
46.319528
 42
0.103223
  0
VERTEX
  8
0
 10
333.000000
 20
48.075635
 42
0.163710
  0
VERTEX
  8
0
 10
332.871522
 20
48.457515
 42
0.123049
  0
VERTEX
  8
0
 10
332.523595
 20
48.737062
 42
0.094584
  0
VERTEX
  8
0
 10
331.998497
 20
48.867443
 42
0.062971
  0
VERTEX
  8
0
 10
331.378197
 20
48.823324
 42
0.215800
  0
VERTEX
  8
0
 10
330.411985
 20
48.130817
 42
0.008467
  0
VERTEX
  8
0
 10
328.241000
 20
44.221394
 42
0.012198
  0
VERTEX
  8
0
 10
325.609105
 20
38.983070
 42
0.005516
  0
VERTEX
  8
0
 10
322.405146
 20
32.000000
 42
-0.001561
  0
VERTEX
  8
0
 10
319.578028
 20
25.707421
 42
-0.002698
  0
VERTEX
  8
0
 10
317.182058
 20
20.493750
 42
-0.000498
  0
VERTEX
  8
0
 10
315.075196
 20
15.985348
 42
-0.719080
  0
VERTEX
  8
0
 10
314.947450
 20
16.000000
 42
0.003427
  0
VERTEX
  8
0
 10
312.471218
 20
27.251814
 42
0.028623
  0
VERTEX
  8
0
 10
311.027483
 20
32.259225
 42
0.073785
  0
VERTEX
  8
0
 10
309.690058
 20
34.795638
 42
0.210731
  0
VERTEX
  8
0
 10
308.000000
 20
35.769748
 42
0.144554
  0
VERTEX
  8
0
 10
306.425734
 20
35.483871
 42
0.099617
  0
VERTEX
  8
0
 10
304.990699
 20
34.357820
 42
0.041444
  0
VERTEX
  8
0
 10
303.215626
 20
31.892558
 42
0.005638
  0
VERTEX
  8
0
 10
300.000000
 20
26.403470
 42
0.000000
  0
VERTEX
  8
0
 10
294.500000
 20
16.767444
 42
0.000000
  0
VERTEX
  8
0
 10
294.225229
 20
32.883722
 42
0.002132
  0
VERTEX
  8
0
 10
294.010237
 20
42.970208
 42
0.028292
  0
VERTEX
  8
0
 10
293.705187
 20
46.675424
 42
0.104072
  0
VERTEX
  8
0
 10
293.091296
 20
48.377705
 42
0.259950
  0
VERTEX
  8
0
 10
291.975229
 20
49.000000
 42
0.279597
  0
VERTEX
  8
0
 10
290.853950
 20
48.319813
 42
0.093745
  0
VERTEX
  8
0
 10
290.276692
 20
46.408499
 42
0.024869
  0
VERTEX
  8
0
 10
290.040577
 20
42.244113
 42
0.001728
  0
SEQEND
  0
POLYLINE
  8
0
 66
1
 70
1
  0
VERTEX
  8
0
 10
343.818039
 20
46.099558
 42
0.102812
  0
VERTEX
  8
0
 10
338.358544
 20
40.804819
 42
0.070531
  0
VERTEX
  8
0
 10
334.554608
 20
33.029226
 42
0.072477
  0
VERTEX
  8
0
 10
333.139244
 20
24.756709
 42
0.126495
  0
VERTEX
  8
0
 10
334.694621
 20
18.019933
 42
0.103417
  0
VERTEX
  8
0
 10
338.475016
 20
13.389330
 42
0.101848
  0
VERTEX
  8
0
 10
343.813535
 20
10.630084
 42
0.095944
  0
VERTEX
  8
0
 10
350.081255
 20
10.110286
 42
0.081138
  0
VERTEX
  8
0
 10
356.500000
 20
11.890043
 42
0.042213
  0
VERTEX
  8
0
 10
359.897620
 20
13.820876
 42
0.054839
  0
VERTEX
  8
0
 10
362.609562
 20
16.155273
 42
0.051789
  0
VERTEX
  8
0
 10
364.859734
 20
19.133600
 42
0.032488
  0
VERTEX
  8
0
 10
366.872129
 20
23.012457
 42
0.047506
  0
VERTEX
  8
0
 10
369.204756
 20
30.082435
 42
0.082458
  0
VERTEX
  8
0
 10
369.569627
 20
36.238296
 42
0.096749
  0
VERTEX
  8
0
 10
367.954086
 20
41.493662
 42
0.090024
  0
VERTEX
  8
0
 10
364.451257
 20
45.908653
 42
0.029277
  0
VERTEX
  8
0
 10
362.270831
 20
47.607877
 42
0.074540
  0
VERTEX
  8
0
 10
360.473695
 20
48.486332
 42
0.061375
  0
VERTEX
  8
0
 10
358.297310
 20
48.889685
 42
0.015165
  0
VERTEX
  8
0
 10
354.660984
 20
49.000000
 42
0.018469
  0
VERTEX
  8
0
 10
351.193599
 20
48.871878
 42
0.046912
  0
VERTEX
  8
0
 10
348.711998
 20
48.451968
 42
0.050867
  0
VERTEX
  8
0
 10
346.471022
 20
47.600716
 42
0.025132
  0
SEQEND
  0
POLYLINE
  8
0
 66
1
 70
1
  0
VERTEX
  8
0
 10
360.032733
 20
44.483073
 42
-0.114336
  0
VERTEX
  8
0
 10
363.493221
 20
41.539039
 42
-0.101436
  0
VERTEX
  8
0
 10
365.493312
 20
37.246094
 42
-0.085910
  0
VERTEX
  8
0
 10
365.828194
 20
31.888063
 42
-0.057615
  0
VERTEX
  8
0
 10
364.461154
 20
25.889899
 42
-0.049466
  0
VERTEX
  8
0
 10
362.649753
 20
22.022558
 42
-0.058266
  0
VERTEX
  8
0
 10
360.193421
 20
18.813364
 42
-0.058536
  0
VERTEX
  8
0
 10
357.073450
 20
16.268767
 42
-0.050649
  0
VERTEX
  8
0
 10
353.297005
 20
14.369325
 42
-0.021234
  0
VERTEX
  8
0
 10
350.848852
 20
13.551651
 42
-0.055132
  0
VERTEX
  8
0
 10
349.018852
 20
13.238022
 42
-0.059523
  0
VERTEX
  8
0
 10
347.247817
 20
13.343215
 42
-0.028223
  0
VERTEX
  8
0
 10
345.020736
 20
13.875641
 42
-0.067745
  0
VERTEX
  8
0
 10
341.404166
 20
15.518459
 42
-0.101846
  0
VERTEX
  8
0
 10
338.912192
 20
17.909143
 42
-0.096147
  0
VERTEX
  8
0
 10
337.476767
 20
21.198766
 42
-0.054990
  0
VERTEX
  8
0
 10
337.000000
 20
25.520667
 42
-0.107312
  0
VERTEX
  8
0
 10
339.012349
 20
34.788858
 42
-0.114093
  0
VERTEX
  8
0
 10
344.666635
 20
42.152828
 42
-0.130230
  0
VERTEX
  8
0
 10
352.342179
 20
45.670885
 42
-0.163437
  0
SEQEND
  0
POLYLINE
  8
0
 66
1
 70
1
  0
VERTEX
  8
0
 10
379.521439
 20
47.750000
 42
0.036595
  0
VERTEX
  8
0
 10
378.404587
 20
43.338601
 42
0.001771
  0
VERTEX
  8
0
 10
375.823316
 20
28.414419
 42
0.000371
  0
VERTEX
  8
0
 10
373.083041
 20
12.156376
 42
0.242501
  0
VERTEX
  8
0
 10
373.352404
 20
11.314262
 42
0.300022
  0
VERTEX
  8
0
 10
374.674843
 20
11.042823
 42
0.175808
  0
VERTEX
  8
0
 10
375.928211
 20
12.161254
 42
0.065866
  0
VERTEX
  8
0
 10
377.051393
 20
15.121624
 42
0.019192
  0
VERTEX
  8
0
 10
377.987047
 20
19.916733
 42
0.000000
  0
VERTEX
  8
0
 10
379.244499
 20
28.000000
 42
0.000000
  0
VERTEX
  8
0
 10
383.372249
 20
27.996736
 42
0.000000
  0
VERTEX
  8
0
 10
387.500000
 20
27.993472
 42
0.000000
  0
VERTEX
  8
0
 10
392.363759
 20
19.496736
 42
0.007605
  0
VERTEX
  8
0
 10
394.294245
 20
16.240180
 42
0.011788
  0
VERTEX
  8
0
 10
396.068341
 20
13.495916
 42
0.006151
  0
VERTEX
  8
0
 10
397.625551
 20
11.266793
 42
0.241731
  0
VERTEX
  8
0
 10
398.145144
 20
11.000000
 42
0.303519
  0
VERTEX
  8
0
 10
399.207945
 20
11.710627
 42
0.153188
  0
VERTEX
  8
0
 10
399.356064
 20
13.388396
 42
0.060967
  0
VERTEX
  8
0
 10
398.333528
 20
16.299960
 42
0.017332
  0
VERTEX
  8
0
 10
396.054455
 20
20.530053
 42
0.000000
  0
VERTEX
  8
0
 10
392.031120
 20
27.415005
 42
0.000000
  0
VERTEX
  8
0
 10
396.915315
 20
29.736366
 42
0.026397
  0
VERTEX
  8
0
 10
399.271653
 20
31.012823
 42
0.045293
  0
VERTEX
  8
0
 10
401.062694
 20
32.345673
 42
0.051296
  0
VERTEX
  8
0
 10
402.428174
 20
33.847124
 42
0.048147
  0
VERTEX
  8
0
 10
403.492807
 20
35.626085
 42
0.069142
  0
VERTEX
  8
0
 10
404.636007
 20
39.257302
 42
0.093654
  0
VERTEX
  8
0
 10
404.567978
 20
42.688392
 42
0.106700
  0
VERTEX
  8
0
 10
403.301303
 20
45.531056
 42
0.115957
  0
VERTEX
  8
0
 10
401.004814
 20
47.497511
 42
0.098326
  0
VERTEX
  8
0
 10
396.920247
 20
48.677474
 42
0.018365
  0
VERTEX
  8
0
 10
389.093714
 20
49.057188
 42
0.011871
  0
VERTEX
  8
0
 10
381.139911
 20
48.961834
 42
0.313161
  0
SEQEND
  0
POLYLINE
  8
0
 66
1
 70
1
  0
VERTEX
  8
0
 10
399.463772
 20
44.030067
 42
-0.208370
  0
VERTEX
  8
0
 10
400.900651
 20
41.181728
 42
-0.135183
  0
VERTEX
  8
0
 10
400.111219
 20
37.520816
 42
-0.106253
  0
VERTEX
  8
0
 10
397.269672
 20
34.097721
 42
-0.099160
  0
VERTEX
  8
0
 10
393.204514
 20
32.040022
 42
-0.025260
  0
VERTEX
  8
0
 10
391.439334
 20
31.644559
 42
-0.012417
  0
VERTEX
  8
0
 10
389.161044
 20
31.311746
 42
-0.012286
  0
VERTEX
  8
0
 10
386.772297
 20
31.082559
 42
-0.017485
  0
VERTEX
  8
0
 10
384.641592
 20
31.005577
 42
-0.008910
  0
VERTEX
  8
0
 10
381.672995
 20
31.055074
 42
-0.111668
  0
VERTEX
  8
0
 10
380.593663
 20
31.338628
 42
-0.271135
  0
VERTEX
  8
0
 10
380.193277
 20
31.974518
 42
-0.067100
  0
VERTEX
  8
0
 10
380.323317
 20
33.250000
 42
0.008838
  0
VERTEX
  8
0
 10
380.574943
 20
34.386310
 42
0.003167
  0
VERTEX
  8
0
 10
380.894604
 20
36.014062
 42
0.003141
  0
VERTEX
  8
0
 10
381.222650
 20
37.803622
 42
0.003713
  0
VERTEX
  8
0
 10
381.509638
 20
39.500000
 42
-0.015509
  0
VERTEX
  8
0
 10
382.386233
 20
44.029226
 42
-0.186554
  0
VERTEX
  8
0
 10
383.358883
 20
45.478577
 42
-0.159499
  0
VERTEX
  8
0
 10
385.121197
 20
46.013190
 42
-0.010573
  0
VERTEX
  8
0
 10
390.482392
 20
45.782824
 42
-0.014453
  0
VERTEX
  8
0
 10
393.445566
 20
45.506477
 42
-0.017711
  0
VERTEX
  8
0
 10
396.191798
 20
45.070858
 42
-0.016345
  0
VERTEX
  8
0
 10
398.446274
 20
44.553871
 42
-0.109084
  0
SEQEND
  0
POLYLINE
  8
0
 66
1
 70
1
  0
VERTEX
  8
0
 10
415.520416
 20
47.750000
 42
0.034257
  0
VERTEX
  8
0
 10
415.015653
 20
45.800614
 42
0.000276
  0
VERTEX
  8
0
 10
412.089178
 20
30.104534
 42
0.000210
  0
VERTEX
  8
0
 10
409.140768
 20
14.205098
 42
0.045767
  0
VERTEX
  8
0
 10
409.000000
 20
12.670432
 42
0.244366
  0
VERTEX
  8
0
 10
409.133713
 20
12.413178
 42
0.067399
  0
VERTEX
  8
0
 10
409.551589
 20
12.196939
 42
0.051862
  0
VERTEX
  8
0
 10
410.158506
 20
12.048866
 42
0.033931
  0
VERTEX
  8
0
 10
410.877751
 20
12.000000
 42
0.188069
  0
VERTEX
  8
0
 10
411.897920
 20
12.397796
 42
0.114270
  0
VERTEX
  8
0
 10
412.638287
 20
13.480794
 42
0.047034
  0
VERTEX
  8
0
 10
413.255655
 20
15.643211
 42
0.007444
  0
VERTEX
  8
0
 10
414.000000
 20
20.000000
 42
-0.004805
  0
VERTEX
  8
0
 10
414.507395
 20
23.067298
 42
-0.007905
  0
VERTEX
  8
0
 10
415.002377
 20
25.650000
 42
-0.002519
  0
VERTEX
  8
0
 10
415.470380
 20
27.843532
 42
-0.352487
  0
VERTEX
  8
0
 10
415.664753
 20
28.000000
 42
-0.197402
  0
VERTEX
  8
0
 10
415.946763
 20
27.884147
 42
-0.000790
  0
VERTEX
  8
0
 10
418.422083
 20
25.429688
 42
-0.003772
  0
VERTEX
  8
0
 10
421.219826
 20
22.604428
 42
-0.002345
  0
VERTEX
  8
0
 10
424.461264
 20
19.250000
 42
0.006084
  0
VERTEX
  8
0
 10
428.689462
 20
14.939395
 42
0.027993
  0
VERTEX
  8
0
 10
431.303462
 20
12.614595
 42
0.051350
  0
VERTEX
  8
0
 10
433.040503
 20
11.505304
 42
0.319721
  0
VERTEX
  8
0
 10
434.026260
 20
11.657499
 42
0.301869
  0
VERTEX
  8
0
 10
434.235164
 20
12.626344
 42
0.057697
  0
VERTEX
  8
0
 10
433.345012
 20
14.298281
 42
0.030294
  0
VERTEX
  8
0
 10
431.356438
 20
16.833874
 42
0.006570
  0
VERTEX
  8
0
 10
427.607499
 20
20.949716
 42
-0.004870
  0
VERTEX
  8
0
 10
424.691882
 20
24.128903
 42
-0.007468
  0
VERTEX
  8
0
 10
422.234703
 20
26.944628
 42
-0.003185
  0
VERTEX
  8
0
 10
420.199366
 20
29.379794
 42
-0.174187
  0
VERTEX
  8
0
 10
420.000000
 20
29.934708
 42
-0.206333
  0
VERTEX
  8
0
 10
420.230008
 20
30.468351
 42
-0.003070
  0
VERTEX
  8
0
 10
422.775584
 20
32.843357
 42
-0.007753
  0
VERTEX
  8
0
 10
425.827164
 20
35.569347
 42
-0.004973
  0
VERTEX
  8
0
 10
429.448796
 20
38.642491
 42
0.007050
  0
VERTEX
  8
0
 10
433.073389
 20
41.744140
 42
0.010601
  0
VERTEX
  8
0
 10
436.137049
 20
44.559044
 42
0.005760
  0
VERTEX
  8
0
 10
438.617626
 20
46.992595
 42
0.187788
  0
VERTEX
  8
0
 10
438.948796
 20
47.750000
 42
0.487141
  0
VERTEX
  8
0
 10
437.806460
 20
48.722220
 42
0.096419
  0
VERTEX
  8
0
 10
434.911529
 20
47.519572
 42
0.028329
  0
VERTEX
  8
0
 10
429.312795
 20
43.328178
 42
0.004731
  0
VERTEX
  8
0
 10
419.114306
 20
34.584792
 42
0.000000
  0
VERTEX
  8
0
 10
416.728612
 20
32.500000
 42
0.000000
  0
VERTEX
  8
0
 10
417.417349
 20
37.890214
 42
-0.003275
  0
VERTEX
  8
0
 10
417.722977
 20
40.163598
 42
-0.002863
  0
VERTEX
  8
0
 10
418.071782
 20
42.537115
 42
-0.002879
  0
VERTEX
  8
0
 10
418.411623
 20
44.678401
 42
-0.008561
  0
VERTEX
  8
0
 10
418.678043
 20
46.140214
 42
0.024323
  0
VERTEX
  8
0
 10
418.894411
 20
47.583961
 42
0.116160
  0
VERTEX
  8
0
 10
418.786139
 20
48.404695
 42
0.204400
  0
VERTEX
  8
0
 10
418.364859
 20
48.842915
 42
0.100804
  0
VERTEX
  8
0
 10
417.593615
 20
49.000000
 42
0.070008
  0
VERTEX
  8
0
 10
416.929261
 20
48.906522
 42
0.065845
  0
VERTEX
  8
0
 10
416.301354
 20
48.632812
 42
0.070242
  0
VERTEX
  8
0
 10
415.803494
 20
48.227879
 42
0.106868
  0
SEQEND
  0
POLYLINE
  8
0
 66
1
 70
1
  0
VERTEX
  8
0
 10
447.072580
 20
46.365141
 42
0.092046
  0
VERTEX
  8
0
 10
445.202556
 20
42.798818
 42
0.160982
  0
VERTEX
  8
0
 10
445.268119
 20
39.497588
 42
0.091216
  0
VERTEX
  8
0
 10
447.504278
 20
35.601193
 42
0.017590
  0
VERTEX
  8
0
 10
453.000000
 20
29.559544
 42
-0.014223
  0
VERTEX
  8
0
 10
457.944484
 20
24.196872
 42
-0.061390
  0
VERTEX
  8
0
 10
460.365687
 20
20.610114
 42
-0.141686
  0
VERTEX
  8
0
 10
460.844173
 20
18.117456
 42
-0.230069
  0
VERTEX
  8
0
 10
459.750000
 20
16.309017
 42
-0.102535
  0
VERTEX
  8
0
 10
458.869389
 20
15.967402
 42
-0.008061
  0
VERTEX
  8
0
 10
456.370313
 20
15.590774
 42
-0.010698
  0
VERTEX
  8
0
 10
453.346792
 20
15.250516
 42
-0.007979
  0
VERTEX
  8
0
 10
450.000000
 20
15.000000
 42
0.007225
  0
VERTEX
  8
0
 10
445.662522
 20
14.681900
 42
0.035874
  0
VERTEX
  8
0
 10
443.250000
 20
14.294118
 42
0.076005
  0
VERTEX
  8
0
 10
441.936155
 20
13.765067
 42
0.265023
  0
VERTEX
  8
0
 10
441.500000
 20
13.000000
 42
0.237200
  0
VERTEX
  8
0
 10
441.871491
 20
12.260982
 42
0.094879
  0
VERTEX
  8
0
 10
442.920111
 20
11.754410
 42
0.044519
  0
VERTEX
  8
0
 10
444.853717
 20
11.418805
 42
0.009755
  0
VERTEX
  8
0
 10
448.225534
 20
11.204868
 42
0.024593
  0
VERTEX
  8
0
 10
454.508637
 20
11.238310
 42
0.060061
  0
VERTEX
  8
0
 10
459.058339
 20
12.040283
 42
0.088002
  0
VERTEX
  8
0
 10
462.157017
 20
13.614330
 42
0.133927
  0
VERTEX
  8
0
 10
463.994699
 20
15.987202
 42
0.098591
  0
VERTEX
  8
0
 10
464.671982
 20
19.395657
 42
0.110596
  0
VERTEX
  8
0
 10
463.940919
 20
22.654308
 42
0.066394
  0
VERTEX
  8
0
 10
461.472576
 20
26.475093
 42
0.016406
  0
VERTEX
  8
0
 10
456.435487
 20
32.002931
 42
-0.023137
  0
VERTEX
  8
0
 10
449.859989
 20
39.417041
 42
-0.252744
  0
VERTEX
  8
0
 10
449.154658
 20
43.204056
 42
-0.294034
  0
VERTEX
  8
0
 10
451.920599
 20
45.476988
 42
-0.028988
  0
VERTEX
  8
0
 10
460.934259
 20
46.000000
 42
0.006914
  0
VERTEX
  8
0
 10
465.163790
 20
46.058491
 42
0.039074
  0
VERTEX
  8
0
 10
467.405710
 20
46.296493
 42
0.092962
  0
VERTEX
  8
0
 10
468.583715
 20
46.752399
 42
0.259645
  0
VERTEX
  8
0
 10
469.000000
 20
47.500000
 42
0.285923
  0
VERTEX
  8
0
 10
468.523490
 20
48.265160
 42
0.076866
  0
VERTEX
  8
0
 10
467.095430
 20
48.712226
 42
0.032289
  0
VERTEX
  8
0
 10
464.380549
 20
48.944660
 42
0.005213
  0
VERTEX
  8
0
 10
459.072580
 20
49.000000
 42
0.004930
  0
VERTEX
  8
0
 10
452.835392
 20
48.938501
 42
0.049145
  0
VERTEX
  8
0
 10
450.243843
 20
48.631454
 42
0.108648
  0
VERTEX
  8
0
 10
448.612105
 20
47.877986
 42
0.063898
  0
SEQEND
  0
ENDSEC
  0
EOF
