999
DXF File generated by ImageToStl.com - Free Image and 3D model conversion tools
0
SECTION
2
HEADER
9
$ACADVER
1
AC1009
9
$EXTMIN
10
0
20
0
9
$EXTMAX
10
539.932035
20
111.061714
0
ENDSEC
0
SECTION
2
ENTITIES
0
LINE
8
0
10
125.000000
20
69.093449
11
125.000000
21
90.125184
0
LINE
8
0
10
125.000000
20
90.125184
11
136.734995
21
89.843449
0
LINE
8
0
10
136.734995
20
89.843449
11
148.469990
21
89.561714
0
LINE
8
0
10
148.469990
20
89.561714
11
152.783355
21
79.063354
0
LINE
8
0
10
152.783355
20
79.063354
11
154.514777
21
74.930414
0
LINE
8
0
10
154.514777
20
74.930414
11
156.674569
21
70.047171
0
LINE
8
0
10
156.674569
20
70.047171
11
157.582130
21
68.205820
0
LINE
8
0
10
157.582130
20
68.205820
11
157.814317
21
67.847397
0
LINE
8
0
10
157.814317
20
67.847397
11
158.051421
21
67.932166
0
LINE
8
0
10
158.051421
20
67.932166
11
158.995361
21
69.369168
0
LINE
8
0
10
158.995361
20
69.369168
11
161.261252
21
74.047434
0
LINE
8
0
10
161.261252
20
74.047434
11
163.086230
21
78.345756
0
LINE
8
0
10
163.086230
20
78.345756
11
167.640547
21
89.561714
0
LINE
8
0
10
167.640547
20
89.561714
11
179.320273
21
89.843449
0
LINE
8
0
10
179.320273
20
89.843449
11
191.000000
21
90.125184
0
LINE
8
0
10
191.000000
20
90.125184
11
191.000000
21
69.093449
0
LINE
8
0
10
191.000000
20
69.093449
11
191.000000
21
48.061714
0
LINE
8
0
10
191.000000
20
48.061714
11
181.000000
21
48.061714
0
LINE
8
0
10
181.000000
20
48.061714
11
171.000000
21
48.061714
0
LINE
8
0
10
171.000000
20
48.061714
11
171.000000
21
56.561714
0
LINE
8
0
10
171.000000
20
56.561714
11
170.939463
21
59.862104
0
LINE
8
0
10
170.939463
20
59.862104
11
170.660978
21
63.604926
0
LINE
8
0
10
170.660978
20
63.604926
11
170.386914
21
64.888227
0
LINE
8
0
10
170.386914
20
64.888227
11
170.232799
21
65.061714
0
LINE
8
0
10
170.232799
20
65.061714
11
170.009143
21
64.888227
0
LINE
8
0
10
170.009143
20
64.888227
11
169.220666
21
63.604926
0
LINE
8
0
10
169.220666
20
63.604926
11
167.441869
21
59.862104
0
LINE
8
0
10
167.441869
20
59.862104
11
166.058369
21
56.561714
0
LINE
8
0
10
166.058369
20
56.561714
11
162.651139
21
48.061714
0
LINE
8
0
10
162.651139
20
48.061714
11
158.075570
21
48.068706
0
LINE
8
0
10
158.075570
20
48.068706
11
153.500000
21
48.075699
0
LINE
8
0
10
153.500000
20
48.075699
11
150.000000
21
56.818464
0
LINE
8
0
10
150.000000
20
56.818464
11
146.500000
21
65.561230
0
LINE
8
0
10
146.500000
20
65.561230
11
146.211067
21
56.811472
0
LINE
8
0
10
146.211067
20
56.811472
11
145.922134
21
48.061714
0
LINE
8
0
10
145.922134
20
48.061714
11
135.461067
21
48.061714
0
LINE
8
0
10
135.461067
20
48.061714
11
125.000000
21
48.061714
0
LINE
8
0
10
125.000000
20
48.061714
11
125.000000
21
69.093449
0
LINE
8
0
10
259.000000
20
69.093449
11
259.000000
21
90.125184
0
LINE
8
0
10
259.000000
20
90.125184
11
270.599346
21
89.843449
0
LINE
8
0
10
270.599346
20
89.843449
11
282.198691
21
89.561714
0
LINE
8
0
10
282.198691
20
89.561714
11
286.775481
21
78.361554
0
LINE
8
0
10
286.775481
20
78.361554
11
288.600786
21
74.042546
0
LINE
8
0
10
288.600786
20
74.042546
11
290.837928
21
69.247859
0
LINE
8
0
10
290.837928
20
69.247859
11
291.747230
21
67.691822
0
LINE
8
0
10
291.747230
20
67.691822
11
291.963407
21
67.539098
0
LINE
8
0
10
291.963407
20
67.539098
11
292.177256
21
67.840811
0
LINE
8
0
10
292.177256
20
67.840811
11
293.069338
21
69.646312
0
LINE
8
0
10
293.069338
20
69.646312
11
295.256255
21
74.655743
0
LINE
8
0
10
295.256255
20
74.655743
11
297.037272
21
78.981928
0
LINE
8
0
10
297.037272
20
78.981928
11
301.500000
21
90.047055
0
LINE
8
0
10
301.500000
20
90.047055
11
312.750000
21
90.054384
0
LINE
8
0
10
312.750000
20
90.054384
11
324.000000
21
90.061714
0
LINE
8
0
10
324.000000
20
90.061714
11
324.000000
21
69.061714
0
LINE
8
0
10
324.000000
20
69.061714
11
324.000000
21
48.061714
0
LINE
8
0
10
324.000000
20
48.061714
11
314.000000
21
48.061714
0
LINE
8
0
10
314.000000
20
48.061714
11
304.000000
21
48.061714
0
LINE
8
0
10
304.000000
20
48.061714
11
303.964908
21
57.311714
0
LINE
8
0
10
303.964908
20
57.311714
11
303.929816
21
66.561714
0
LINE
8
0
10
303.929816
20
66.561714
11
300.208894
21
57.561714
0
LINE
8
0
10
300.208894
20
57.561714
11
296.487972
21
48.561714
0
LINE
8
0
10
296.487972
20
48.561714
11
291.876296
21
48.262326
0
LINE
8
0
10
291.876296
20
48.262326
11
287.264621
21
47.962939
0
LINE
8
0
10
287.264621
20
47.962939
11
283.979115
21
56.262326
0
LINE
8
0
10
283.979115
20
56.262326
11
282.636596
21
59.559784
0
LINE
8
0
10
282.636596
20
59.559784
11
280.882503
21
63.559109
0
LINE
8
0
10
280.882503
20
63.559109
11
280.083967
21
65.151487
0
LINE
8
0
10
280.083967
20
65.151487
11
279.846804
21
65.511714
0
LINE
8
0
10
279.846804
20
65.511714
11
279.675510
21
65.517954
0
LINE
8
0
10
279.675510
20
65.517954
11
279.372378
21
64.479061
0
LINE
8
0
10
279.372378
20
64.479061
11
279.066236
21
60.778575
0
LINE
8
0
10
279.066236
20
60.778575
11
279.000000
21
57.261714
0
LINE
8
0
10
279.000000
20
57.261714
11
279.000000
21
48.061714
0
LINE
8
0
10
279.000000
20
48.061714
11
269.000000
21
48.061714
0
LINE
8
0
10
269.000000
20
48.061714
11
259.000000
21
48.061714
0
LINE
8
0
10
259.000000
20
48.061714
11
259.000000
21
69.093449
0
LINE
8
0
10
198.606125
20
61.811714
11
200.495429
21
67.723514
0
LINE
8
0
10
200.495429
20
67.723514
11
203.251150
21
76.413714
0
LINE
8
0
10
203.251150
20
76.413714
11
204.717830
21
81.083442
0
LINE
8
0
10
204.717830
20
81.083442
11
205.258178
21
82.822650
0
LINE
8
0
10
205.258178
20
82.822650
11
207.500000
21
90.083587
0
LINE
8
0
10
207.500000
20
90.083587
11
224.938539
21
89.822650
0
LINE
8
0
10
224.938539
20
89.822650
11
242.377077
21
89.561714
0
LINE
8
0
10
242.377077
20
89.561714
11
249.062017
21
68.811714
0
LINE
8
0
10
249.062017
20
68.811714
11
255.746956
21
48.061714
0
LINE
8
0
10
255.746956
20
48.061714
11
245.592716
21
48.061714
0
LINE
8
0
10
245.592716
20
48.061714
11
235.438475
21
48.061714
0
LINE
8
0
10
235.438475
20
48.061714
11
234.290402
21
51.103306
0
LINE
8
0
10
234.290402
20
51.103306
11
233.142330
21
54.144898
0
LINE
8
0
10
233.142330
20
54.144898
11
224.831515
21
53.853306
0
LINE
8
0
10
224.831515
20
53.853306
11
222.184785
21
53.750452
0
LINE
8
0
10
222.184785
20
53.750452
11
218.620763
21
53.462529
0
LINE
8
0
10
218.620763
20
53.462529
11
216.121904
21
52.358579
0
LINE
8
0
10
216.121904
20
52.358579
11
215.205784
21
50.811714
0
LINE
8
0
10
215.205784
20
50.811714
11
214.284127
21
49.232497
0
LINE
8
0
10
214.284127
20
49.232497
11
211.519571
21
48.213375
0
LINE
8
0
10
211.519571
20
48.213375
11
207.270983
21
48.068118
0
LINE
8
0
10
207.270983
20
48.068118
11
204.043381
21
48.061714
0
LINE
8
0
10
204.043381
20
48.061714
11
194.195893
21
48.061714
0
LINE
8
0
10
194.195893
20
48.061714
11
198.606125
21
61.811714
0
LINE
8
0
10
61.000000
20
48.882311
11
61.130821
21
49.453914
0
LINE
8
0
10
61.130821
20
49.453914
11
62.098518
21
52.755926
0
LINE
8
0
10
62.098518
20
52.755926
11
63.832361
21
58.368963
0
LINE
8
0
10
63.832361
20
58.368963
11
66.122036
21
65.612166
0
LINE
8
0
10
66.122036
20
65.612166
11
67.409587
21
69.632311
0
LINE
8
0
10
67.409587
20
69.632311
11
73.819174
21
89.561714
0
LINE
8
0
10
73.819174
20
89.561714
11
91.200103
21
89.833935
0
LINE
8
0
10
91.200103
20
89.833935
11
108.581031
21
90.106157
0
LINE
8
0
10
108.581031
20
90.106157
11
114.782567
21
70.686437
0
LINE
8
0
10
114.782567
20
70.686437
11
116.040875
21
66.752717
0
LINE
8
0
10
116.040875
20
66.752717
11
118.349070
21
59.573538
0
LINE
8
0
10
118.349070
20
59.573538
11
120.192979
21
53.886862
0
LINE
8
0
10
120.192979
20
53.886862
11
121.348938
21
50.382484
0
LINE
8
0
10
121.348938
20
50.382484
11
121.599040
21
49.664215
0
LINE
8
0
10
121.599040
20
49.664215
11
121.709134
21
49.191913
0
LINE
8
0
10
121.709134
20
49.191913
11
121.165039
21
48.539656
0
LINE
8
0
10
121.165039
20
48.539656
11
119.131683
21
48.198245
0
LINE
8
0
10
119.131683
20
48.198245
11
115.044808
21
48.072936
0
LINE
8
0
10
115.044808
20
48.072936
11
112.054969
21
48.061714
0
LINE
8
0
10
112.054969
20
48.061714
11
101.895961
21
48.061714
0
LINE
8
0
10
101.895961
20
48.061714
11
100.850155
21
51.061714
0
LINE
8
0
10
100.850155
20
51.061714
11
99.804350
21
54.061714
0
LINE
8
0
10
99.804350
20
54.061714
11
91.315311
21
54.061714
0
LINE
8
0
10
91.315311
20
54.061714
11
82.826272
21
54.061714
0
LINE
8
0
10
82.826272
20
54.061714
11
81.693898
21
51.061714
0
LINE
8
0
10
81.693898
20
51.061714
11
80.561525
21
48.061714
0
LINE
8
0
10
80.561525
20
48.061714
11
70.780762
21
48.061714
0
LINE
8
0
10
70.780762
20
48.061714
11
66.983076
21
48.126464
0
LINE
8
0
10
66.983076
20
48.126464
11
62.676293
21
48.424331
0
LINE
8
0
10
62.676293
20
48.424331
11
61.199627
21
48.717470
0
LINE
8
0
10
61.199627
20
48.717470
11
61.000000
21
48.882311
0
LINE
8
0
10
328.237778
20
49.311714
11
328.457786
21
49.965913
0
LINE
8
0
10
328.457786
20
49.965913
11
329.575313
21
53.394233
0
LINE
8
0
10
329.575313
20
53.394233
11
331.410665
21
59.074897
0
LINE
8
0
10
331.410665
20
59.074897
11
333.741216
21
66.318842
0
LINE
8
0
10
333.741216
20
66.318842
11
335.022619
21
70.311714
0
LINE
8
0
10
335.022619
20
70.311714
11
341.355704
21
90.061714
0
LINE
8
0
10
341.355704
20
90.061714
11
358.628400
21
90.061714
0
LINE
8
0
10
358.628400
20
90.061714
11
375.901096
21
90.061714
0
LINE
8
0
10
375.901096
20
90.061714
11
382.450548
21
69.678236
0
LINE
8
0
10
382.450548
20
69.678236
11
383.766195
21
65.571042
0
LINE
8
0
10
383.766195
20
65.571042
11
386.105833
21
58.196442
0
LINE
8
0
10
386.105833
20
58.196442
11
387.877511
21
52.515778
0
LINE
8
0
10
387.877511
20
52.515778
11
388.866325
21
49.218112
0
LINE
8
0
10
388.866325
20
49.218112
11
389.000000
21
48.678236
0
LINE
8
0
10
389.000000
20
48.678236
11
388.797895
21
48.554389
0
LINE
8
0
10
388.797895
20
48.554389
11
387.302899
21
48.334151
0
LINE
8
0
10
387.302899
20
48.334151
11
382.942654
21
48.110361
0
LINE
8
0
10
382.942654
20
48.110361
11
379.097825
21
48.061714
0
LINE
8
0
10
379.097825
20
48.061714
11
369.195650
21
48.061714
0
LINE
8
0
10
369.195650
20
48.061714
11
368.149845
21
51.061714
0
LINE
8
0
10
368.149845
20
51.061714
11
367.104039
21
54.061714
0
LINE
8
0
10
367.104039
20
54.061714
11
358.500000
21
54.061714
0
LINE
8
0
10
358.500000
20
54.061714
11
349.895961
21
54.061714
0
LINE
8
0
10
349.895961
20
54.061714
11
348.850155
21
51.061714
0
LINE
8
0
10
348.850155
20
51.061714
11
347.804350
21
48.061714
0
LINE
8
0
10
347.804350
20
48.061714
11
337.795186
21
48.061714
0
LINE
8
0
10
337.795186
20
48.061714
11
335.193732
21
48.076590
0
LINE
8
0
10
335.193732
20
48.076590
11
331.349179
21
48.207568
0
LINE
8
0
10
331.349179
20
48.207568
11
329.112371
21
48.500117
0
LINE
8
0
10
329.112371
20
48.500117
11
328.239238
21
48.986158
0
LINE
8
0
10
328.239238
20
48.986158
11
328.237778
21
49.311714
0
LINE
8
0
10
5.000000
20
69.061714
11
5.000000
21
90.061714
0
LINE
8
0
10
5.000000
20
90.061714
11
15.000000
21
90.061714
0
LINE
8
0
10
15.000000
20
90.061714
11
25.000000
21
90.061714
0
LINE
8
0
10
25.000000
20
90.061714
11
25.000000
21
82.061714
0
LINE
8
0
10
25.000000
20
82.061714
11
25.000000
21
74.061714
0
LINE
8
0
10
25.000000
20
74.061714
11
31.000000
21
74.061714
0
LINE
8
0
10
31.000000
20
74.061714
11
37.000000
21
74.061714
0
LINE
8
0
10
37.000000
20
74.061714
11
37.000000
21
82.061714
0
LINE
8
0
10
37.000000
20
82.061714
11
37.000000
21
90.061714
0
LINE
8
0
10
37.000000
20
90.061714
11
47.000000
21
90.061714
0
LINE
8
0
10
47.000000
20
90.061714
11
57.000000
21
90.061714
0
LINE
8
0
10
57.000000
20
90.061714
11
57.000000
21
69.061714
0
LINE
8
0
10
57.000000
20
69.061714
11
57.000000
21
48.061714
0
LINE
8
0
10
57.000000
20
48.061714
11
47.000000
21
48.061714
0
LINE
8
0
10
47.000000
20
48.061714
11
37.000000
21
48.061714
0
LINE
8
0
10
37.000000
20
48.061714
11
37.000000
21
56.061714
0
LINE
8
0
10
37.000000
20
56.061714
11
37.000000
21
64.061714
0
LINE
8
0
10
37.000000
20
64.061714
11
31.000000
21
64.061714
0
LINE
8
0
10
31.000000
20
64.061714
11
25.000000
21
64.061714
0
LINE
8
0
10
25.000000
20
64.061714
11
25.000000
21
56.061714
0
LINE
8
0
10
25.000000
20
56.061714
11
25.000000
21
48.061714
0
LINE
8
0
10
25.000000
20
48.061714
11
15.000000
21
48.061714
0
LINE
8
0
10
15.000000
20
48.061714
11
5.000000
21
48.061714
0
LINE
8
0
10
5.000000
20
48.061714
11
5.000000
21
69.061714
0
LINE
8
0
10
437.465282
20
48.973549
11
435.613489
21
50.031639
0
LINE
8
0
10
435.613489
20
50.031639
11
432.944015
21
53.463915
0
LINE
8
0
10
432.944015
20
53.463915
11
432.027796
21
55.964796
0
LINE
8
0
10
432.027796
20
55.964796
11
431.139611
21
59.061714
0
LINE
8
0
10
431.139611
20
59.061714
11
442.569806
21
59.061714
0
LINE
8
0
10
442.569806
20
59.061714
11
447.056978
21
58.989458
0
LINE
8
0
10
447.056978
20
58.989458
11
452.071668
21
58.653765
0
LINE
8
0
10
452.071668
20
58.653765
11
453.771476
21
58.319167
0
LINE
8
0
10
453.771476
20
58.319167
11
454.000000
21
58.129101
0
LINE
8
0
10
454.000000
20
58.129101
11
454.175633
21
57.576149
0
LINE
8
0
10
454.175633
20
57.576149
11
455.353916
21
56.771704
0
LINE
8
0
10
455.353916
20
56.771704
11
458.054998
21
56.518769
0
LINE
8
0
10
458.054998
20
56.518769
11
459.596245
21
57.141590
0
LINE
8
0
10
459.596245
20
57.141590
11
460.568197
21
58.634155
0
LINE
8
0
10
460.568197
20
58.634155
11
460.798257
21
60.474208
0
LINE
8
0
10
460.798257
20
60.474208
11
460.651381
21
61.123317
0
LINE
8
0
10
460.651381
20
61.123317
11
459.780696
21
62.022921
0
LINE
8
0
10
459.780696
20
62.022921
11
457.431147
21
62.550330
0
LINE
8
0
10
457.431147
20
62.550330
11
452.751190
21
62.896692
0
LINE
8
0
10
452.751190
20
62.896692
11
449.271201
21
63.061714
0
LINE
8
0
10
449.271201
20
63.061714
11
445.783774
21
63.229149
0
LINE
8
0
10
445.783774
20
63.229149
11
440.952558
21
63.609792
0
LINE
8
0
10
440.952558
20
63.609792
11
437.159043
21
64.721813
0
LINE
8
0
10
437.159043
20
64.721813
11
435.449962
21
66.155680
0
LINE
8
0
10
435.449962
20
66.155680
11
433.695753
21
68.403680
0
LINE
8
0
10
433.695753
20
68.403680
11
431.761513
21
73.884665
0
LINE
8
0
10
431.761513
20
73.884665
11
431.905330
21
79.818799
0
LINE
8
0
10
431.905330
20
79.818799
11
434.102187
21
85.173880
0
LINE
8
0
10
434.102187
20
85.173880
11
435.962689
21
87.311714
0
LINE
8
0
10
435.962689
20
87.311714
11
439.031553
21
90.061714
0
LINE
8
0
10
439.031553
20
90.061714
11
457.561231
21
90.061714
0
LINE
8
0
10
457.561231
20
90.061714
11
460.792567
21
90.060838
0
LINE
8
0
10
460.792567
20
90.060838
11
466.099970
21
90.043382
0
LINE
8
0
10
466.099970
20
90.043382
11
471.619833
21
89.925655
0
LINE
8
0
10
471.619833
20
89.925655
11
475.674072
21
89.451427
0
LINE
8
0
10
475.674072
20
89.451427
11
477.698507
21
88.410152
0
LINE
8
0
10
477.698507
20
88.410152
11
478.545455
21
87.607168
0
LINE
8
0
10
478.545455
20
87.607168
11
479.498509
21
86.538622
0
LINE
8
0
10
479.498509
20
86.538622
11
480.806321
21
84.450949
0
LINE
8
0
10
480.806321
20
84.450949
11
481.000000
21
83.688956
0
LINE
8
0
10
481.000000
20
83.688956
11
481.178303
21
82.190591
0
LINE
8
0
10
481.178303
20
82.190591
11
481.606989
21
80.643501
0
LINE
8
0
10
481.606989
20
80.643501
11
481.704876
21
80.177636
0
LINE
8
0
10
481.704876
20
80.177636
11
481.050744
21
79.533987
0
LINE
8
0
10
481.050744
20
79.533987
11
478.728595
21
79.196785
0
LINE
8
0
10
478.728595
20
79.196785
11
474.096664
21
79.072839
0
LINE
8
0
10
474.096664
20
79.072839
11
470.713978
21
79.061714
0
LINE
8
0
10
470.713978
20
79.061714
11
467.481655
21
79.075850
0
LINE
8
0
10
467.481655
20
79.075850
11
462.833481
21
79.215549
0
LINE
8
0
10
462.833481
20
79.215549
11
460.150634
21
79.562945
0
LINE
8
0
10
460.150634
20
79.562945
11
458.885147
21
80.188993
0
LINE
8
0
10
458.885147
20
80.188993
11
458.612674
21
80.628685
0
LINE
8
0
10
458.612674
20
80.628685
11
458.103327
21
81.341825
0
LINE
8
0
10
458.103327
20
81.341825
11
456.308110
21
81.968974
0
LINE
8
0
10
456.308110
20
81.968974
11
454.171737
21
81.638124
0
LINE
8
0
10
454.171737
20
81.638124
11
452.527260
21
80.478285
0
LINE
8
0
10
452.527260
20
80.478285
11
452.149810
21
79.627811
0
LINE
8
0
10
452.149810
20
79.627811
11
452.085928
21
78.409607
0
LINE
8
0
10
452.085928
20
78.409607
11
453.267087
21
76.618777
0
LINE
8
0
10
453.267087
20
76.618777
11
456.573684
21
75.567880
0
LINE
8
0
10
456.573684
20
75.567880
11
462.461965
21
75.111912
0
LINE
8
0
10
462.461965
20
75.111912
11
466.516816
21
75.061714
0
LINE
8
0
10
466.516816
20
75.061714
11
470.022745
21
75.051342
0
LINE
8
0
10
470.022745
20
75.051342
11
474.813596
21
74.897005
0
LINE
8
0
10
474.813596
20
74.897005
11
478.410872
21
73.974703
0
LINE
8
0
10
478.410872
20
73.974703
11
479.943569
21
72.621781
0
LINE
8
0
10
479.943569
20
72.621781
11
481.496295
21
70.447366
0
LINE
8
0
10
481.496295
20
70.447366
11
483.214702
21
64.907179
0
LINE
8
0
10
483.214702
20
64.907179
11
483.102214
21
58.785246
0
LINE
8
0
10
483.102214
20
58.785246
11
481.181030
21
53.289641
0
LINE
8
0
10
481.181030
20
53.289641
11
479.549114
21
51.154234
0
LINE
8
0
10
479.549114
20
51.154234
11
478.657422
21
50.299628
0
LINE
8
0
10
478.657422
20
50.299628
11
476.595286
21
49.185025
0
LINE
8
0
10
476.595286
20
49.185025
11
473.827327
21
48.740122
0
LINE
8
0
10
473.827327
20
48.740122
11
470.934972
21
48.568195
0
LINE
8
0
10
470.934972
20
48.568195
11
466.915362
21
48.457714
0
LINE
8
0
10
466.915362
20
48.457714
11
461.520258
21
48.375860
0
LINE
8
0
10
461.520258
20
48.375860
11
458.229320
21
48.335411
0
LINE
8
0
10
458.229320
20
48.335411
11
454.425466
21
48.307595
0
LINE
8
0
10
454.425466
20
48.307595
11
447.427660
21
48.357264
0
LINE
8
0
10
447.427660
20
48.357264
11
441.810826
21
48.529885
0
LINE
8
0
10
441.810826
20
48.529885
11
438.256282
21
48.804520
0
LINE
8
0
10
438.256282
20
48.804520
11
437.465282
21
48.973549
0
LINE
8
0
10
498.647894
20
49.500544
11
496.452259
21
50.259229
0
LINE
8
0
10
496.452259
20
50.259229
11
492.278485
21
52.580403
0
LINE
8
0
10
492.278485
20
52.580403
11
490.647894
21
53.949609
0
LINE
8
0
10
490.647894
20
53.949609
11
487.500000
21
57.094831
0
LINE
8
0
10
487.500000
20
57.094831
11
487.182701
21
73.578272
0
LINE
8
0
10
487.182701
20
73.578272
11
486.865403
21
90.061714
0
LINE
8
0
10
486.865403
20
90.061714
11
496.932701
21
90.061714
0
LINE
8
0
10
496.932701
20
90.061714
11
507.000000
21
90.061714
0
LINE
8
0
10
507.000000
20
90.061714
11
507.000000
21
75.696572
0
LINE
8
0
10
507.000000
20
75.696572
11
507.012016
21
71.326273
0
LINE
8
0
10
507.012016
20
71.326273
11
507.160520
21
65.226205
0
LINE
8
0
10
507.160520
20
65.226205
11
507.956328
21
60.529465
0
LINE
8
0
10
507.956328
20
60.529465
11
509.072580
21
58.696572
0
LINE
8
0
10
509.072580
20
58.696572
11
510.057979
21
57.598368
0
LINE
8
0
10
510.057979
20
57.598368
11
512.020676
21
56.343277
0
LINE
8
0
10
512.020676
20
56.343277
11
513.979324
21
56.343277
0
LINE
8
0
10
513.979324
20
56.343277
11
515.942021
21
57.598368
0
LINE
8
0
10
515.942021
20
57.598368
11
516.927420
21
58.696572
0
LINE
8
0
10
516.927420
20
58.696572
11
518.043672
21
60.529465
0
LINE
8
0
10
518.043672
20
60.529465
11
518.839480
21
65.226205
0
LINE
8
0
10
518.839480
20
65.226205
11
518.987984
21
71.326273
0
LINE
8
0
10
518.987984
20
71.326273
11
519.000000
21
75.696572
0
LINE
8
0
10
519.000000
20
75.696572
11
519.000000
21
90.061714
0
LINE
8
0
10
519.000000
20
90.061714
11
529.067299
21
90.061714
0
LINE
8
0
10
529.067299
20
90.061714
11
539.134597
21
90.061714
0
LINE
8
0
10
539.134597
20
90.061714
11
538.817299
21
73.482446
0
LINE
8
0
10
538.817299
20
73.482446
11
538.500000
21
56.903178
0
LINE
8
0
10
538.500000
20
56.903178
11
534.887217
21
53.594738
0
LINE
8
0
10
534.887217
20
53.594738
11
532.985673
21
52.082769
0
LINE
8
0
10
532.985673
20
52.082769
11
528.576094
21
49.867394
0
LINE
8
0
10
528.576094
20
49.867394
11
526.087996
21
49.174005
0
LINE
8
0
10
526.087996
20
49.174005
11
523.184531
21
48.698194
0
LINE
8
0
10
523.184531
20
48.698194
11
515.983083
21
48.200619
0
LINE
8
0
10
515.983083
20
48.200619
11
508.179867
21
48.293478
0
LINE
8
0
10
508.179867
20
48.293478
11
501.283987
21
48.958812
0
LINE
8
0
10
501.283987
20
48.958812
11
498.647894
21
49.500544
0
LINE
8
0
10
396.000000
20
64.061714
11
396.000000
21
80.061714
0
LINE
8
0
10
396.000000
20
80.061714
11
389.000000
21
80.061714
0
LINE
8
0
10
389.000000
20
80.061714
11
382.000000
21
80.061714
0
LINE
8
0
10
382.000000
20
80.061714
11
382.000000
21
85.061714
0
LINE
8
0
10
382.000000
20
85.061714
11
382.000000
21
90.061714
0
LINE
8
0
10
382.000000
20
90.061714
11
405.500000
21
90.061714
0
LINE
8
0
10
405.500000
20
90.061714
11
429.000000
21
90.061714
0
LINE
8
0
10
429.000000
20
90.061714
11
429.000000
21
85.061714
0
LINE
8
0
10
429.000000
20
85.061714
11
429.000000
21
80.061714
0
LINE
8
0
10
429.000000
20
80.061714
11
422.500000
21
80.061714
0
LINE
8
0
10
422.500000
20
80.061714
11
416.000000
21
80.061714
0
LINE
8
0
10
416.000000
20
80.061714
11
416.000000
21
64.061714
0
LINE
8
0
10
416.000000
20
64.061714
11
416.000000
21
48.061714
0
LINE
8
0
10
416.000000
20
48.061714
11
406.000000
21
48.061714
0
LINE
8
0
10
406.000000
20
48.061714
11
396.000000
21
48.061714
0
LINE
8
0
10
396.000000
20
48.061714
11
396.000000
21
64.061714
0
LINE
8
0
10
116.825006
20
4.099837
11
115.995815
21
4.802767
0
LINE
8
0
10
115.995815
20
4.802767
11
114.560870
21
7.187479
0
LINE
8
0
10
114.560870
20
7.187479
11
113.353112
21
11.958830
0
LINE
8
0
10
113.353112
20
11.958830
11
113.477986
21
14.961484
0
LINE
8
0
10
113.477986
20
14.961484
11
114.264076
21
17.096123
0
LINE
8
0
10
114.264076
20
17.096123
11
117.136767
21
20.162058
0
LINE
8
0
10
117.136767
20
20.162058
11
120.934529
21
21.366896
0
LINE
8
0
10
120.934529
20
21.366896
11
124.686632
21
20.402673
0
LINE
8
0
10
124.686632
20
20.402673
11
126.242209
21
19.010926
0
LINE
8
0
10
126.242209
20
19.010926
11
127.066662
21
17.621790
0
LINE
8
0
10
127.066662
20
17.621790
11
127.972136
21
13.917214
0
LINE
8
0
10
127.972136
20
13.917214
11
127.900776
21
9.807477
0
LINE
8
0
10
127.900776
20
9.807477
11
126.869875
21
6.288473
0
LINE
8
0
10
126.869875
20
6.288473
11
126.000000
21
5.061714
0
LINE
8
0
10
126.000000
20
5.061714
11
124.058069
21
3.787096
0
LINE
8
0
10
124.058069
20
3.787096
11
119.126514
21
3.270088
0
LINE
8
0
10
119.126514
20
3.270088
11
116.825006
21
4.099837
0
LINE
8
0
10
254.825006
20
4.099837
11
253.995815
21
4.802767
0
LINE
8
0
10
253.995815
20
4.802767
11
252.560870
21
7.187479
0
LINE
8
0
10
252.560870
20
7.187479
11
251.353112
21
11.958830
0
LINE
8
0
10
251.353112
20
11.958830
11
251.477986
21
14.961484
0
LINE
8
0
10
251.477986
20
14.961484
11
252.264076
21
17.096123
0
LINE
8
0
10
252.264076
20
17.096123
11
255.136767
21
20.162058
0
LINE
8
0
10
255.136767
20
20.162058
11
258.934529
21
21.366896
0
LINE
8
0
10
258.934529
20
21.366896
11
262.686632
21
20.402673
0
LINE
8
0
10
262.686632
20
20.402673
11
264.242209
21
19.010926
0
LINE
8
0
10
264.242209
20
19.010926
11
265.064783
21
17.639825
0
LINE
8
0
10
265.064783
20
17.639825
11
265.963227
21
14.034877
0
LINE
8
0
10
265.963227
20
14.034877
11
265.881420
21
10.031095
0
LINE
8
0
10
265.881420
20
10.031095
11
264.837787
21
6.530269
0
LINE
8
0
10
264.837787
20
6.530269
11
263.961045
21
5.250275
0
LINE
8
0
10
263.961045
20
5.250275
11
262.031573
21
3.864356
0
LINE
8
0
10
262.031573
20
3.864356
11
257.159307
21
3.250825
0
LINE
8
0
10
257.159307
20
3.250825
11
254.825006
21
4.099837
0
LINE
8
0
10
60.860784
20
4.973360
11
59.682668
21
6.139824
0
LINE
8
0
10
59.682668
20
6.139824
11
58.599125
21
9.339908
0
LINE
8
0
10
58.599125
20
9.339908
11
58.500000
21
11.945583
0
LINE
8
0
10
58.500000
20
11.945583
11
58.622935
21
14.153633
0
LINE
8
0
10
58.622935
20
14.153633
11
59.598633
21
17.692564
0
LINE
8
0
10
59.598633
20
17.692564
11
61.530134
21
20.040900
0
LINE
8
0
10
61.530134
20
20.040900
11
64.396678
21
21.173401
0
LINE
8
0
10
64.396678
20
21.173401
11
66.174103
21
21.275827
0
LINE
8
0
10
66.174103
20
21.275827
11
67.733390
21
21.091536
0
LINE
8
0
10
67.733390
20
21.091536
11
70.271594
21
19.918250
0
LINE
8
0
10
70.271594
20
19.918250
11
72.002884
21
17.714147
0
LINE
8
0
10
72.002884
20
17.714147
11
72.887555
21
14.529777
0
LINE
8
0
10
72.887555
20
14.529777
11
73.000000
21
12.585788
0
LINE
8
0
10
73.000000
20
12.585788
11
72.710391
21
9.737413
0
LINE
8
0
10
72.710391
20
9.737413
11
70.650493
21
5.397934
0
LINE
8
0
10
70.650493
20
5.397934
11
67.187403
21
3.226251
0
LINE
8
0
10
67.187403
20
3.226251
11
63.006379
21
3.652086
0
LINE
8
0
10
63.006379
20
3.652086
11
60.860784
21
4.973360
0
LINE
8
0
10
356.000000
20
12.061714
11
356.000000
21
21.061714
0
LINE
8
0
10
356.000000
20
21.061714
11
358.918213
21
21.061714
0
LINE
8
0
10
358.918213
20
21.061714
11
360.510229
21
21.014305
0
LINE
8
0
10
360.510229
20
21.014305
11
362.879298
21
20.594301
0
LINE
8
0
10
362.879298
20
20.594301
11
364.701487
21
18.947664
0
LINE
8
0
10
364.701487
20
18.947664
11
365.000000
21
17.013742
0
LINE
8
0
10
365.000000
20
17.013742
11
364.925776
21
15.867482
0
LINE
8
0
10
364.925776
20
15.867482
11
364.424578
21
14.047737
0
LINE
8
0
10
364.424578
20
14.047737
11
364.059335
21
13.598385
0
LINE
8
0
10
364.059335
20
13.598385
11
363.811757
21
13.137973
0
LINE
8
0
10
363.811757
20
13.137973
11
364.206134
21
11.238437
0
LINE
8
0
10
364.206134
20
11.238437
11
364.809335
21
9.985979
0
LINE
8
0
10
364.809335
20
9.985979
11
365.721553
21
8.230461
0
LINE
8
0
10
365.721553
20
8.230461
11
365.444213
21
6.170371
0
LINE
8
0
10
365.444213
20
6.170371
11
364.139216
21
5.008325
0
LINE
8
0
10
364.139216
20
5.008325
11
361.623205
21
3.633531
0
LINE
8
0
10
361.623205
20
3.633531
11
358.889216
21
3.061714
0
LINE
8
0
10
358.889216
20
3.061714
11
356.000000
21
3.061714
0
LINE
8
0
10
356.000000
20
3.061714
11
356.000000
21
12.061714
0
LINE
8
0
10
311.000000
20
12.061714
11
311.000000
21
21.061714
0
LINE
8
0
10
311.000000
20
21.061714
11
314.964816
21
21.061714
0
LINE
8
0
10
314.964816
20
21.061714
11
316.891221
21
20.957672
0
LINE
8
0
10
316.891221
20
20.957672
11
319.303216
21
19.985426
0
LINE
8
0
10
319.303216
20
19.985426
11
320.020215
21
19.023941
0
LINE
8
0
10
320.020215
20
19.023941
11
320.570108
21
17.148493
0
LINE
8
0
10
320.570108
20
17.148493
11
320.242478
21
14.358293
0
LINE
8
0
10
320.242478
20
14.358293
11
319.398535
21
13.226140
0
LINE
8
0
10
319.398535
20
13.226140
11
318.825624
21
13.061714
0
LINE
8
0
10
318.825624
20
13.061714
11
318.243033
21
12.694526
0
LINE
8
0
10
318.243033
20
12.694526
11
318.302202
21
11.811714
0
LINE
8
0
10
318.302202
20
11.811714
11
318.629209
21
11.030464
0
LINE
8
0
10
318.629209
20
11.030464
11
319.758989
21
8.366401
0
LINE
8
0
10
319.758989
20
8.366401
11
320.422611
21
6.811714
0
LINE
8
0
10
320.422611
20
6.811714
11
320.988936
21
5.309309
0
LINE
8
0
10
320.988936
20
5.309309
11
321.294611
21
3.342162
0
LINE
8
0
10
321.294611
20
3.342162
11
321.005323
21
3.061714
0
LINE
8
0
10
321.005323
20
3.061714
11
320.482399
21
3.377339
0
LINE
8
0
10
320.482399
20
3.377339
11
319.085365
21
5.508589
0
LINE
8
0
10
319.085365
20
5.508589
11
318.383323
21
7.061714
0
LINE
8
0
10
318.383323
20
7.061714
11
317.562238
21
8.822684
0
LINE
8
0
10
317.562238
20
8.822684
11
315.822671
21
10.815370
0
LINE
8
0
10
315.822671
20
10.815370
11
314.891420
21
11.061714
0
LINE
8
0
10
314.891420
20
11.061714
11
313.946202
21
10.894700
0
LINE
8
0
10
313.946202
20
10.894700
11
313.078973
21
9.060672
0
LINE
8
0
10
313.078973
20
9.060672
11
313.000000
21
7.061714
0
LINE
8
0
10
313.000000
20
7.061714
11
312.921094
21
5.508589
0
LINE
8
0
10
312.921094
20
5.508589
11
312.388281
21
3.377339
0
LINE
8
0
10
312.388281
20
3.377339
11
312.000000
21
3.061714
0
LINE
8
0
10
312.000000
20
3.061714
11
311.786892
21
3.229682
0
LINE
8
0
10
311.786892
20
3.229682
11
311.423177
21
4.503120
0
LINE
8
0
10
311.423177
20
4.503120
11
311.072917
21
8.405464
0
LINE
8
0
10
311.072917
20
8.405464
11
311.000000
21
12.061714
0
LINE
8
0
10
5.000000
20
12.061714
11
5.000000
21
21.061714
0
LINE
8
0
10
5.000000
20
21.061714
11
8.428571
21
21.061714
0
LINE
8
0
10
8.428571
20
21.061714
11
10.971397
21
20.693757
0
LINE
8
0
10
10.971397
20
20.693757
11
14.478561
21
18.218904
0
LINE
8
0
10
14.478561
20
18.218904
11
15.000000
21
16.424544
0
LINE
8
0
10
15.000000
20
16.424544
11
14.631333
21
14.250745
0
LINE
8
0
10
14.631333
20
14.250745
11
12.005805
21
11.454370
0
LINE
8
0
10
12.005805
20
11.454370
11
9.964816
21
11.061714
0
LINE
8
0
10
9.964816
20
11.061714
11
8.323568
21
10.966480
0
LINE
8
0
10
8.323568
20
10.966480
11
7.201839
21
9.982859
0
LINE
8
0
10
7.201839
20
9.982859
11
7.012867
21
8.315195
0
LINE
8
0
10
7.012867
20
8.315195
11
7.000000
21
7.061714
0
LINE
8
0
10
7.000000
20
7.061714
11
6.921094
21
5.508589
0
LINE
8
0
10
6.921094
20
5.508589
11
6.388281
21
3.377339
0
LINE
8
0
10
6.388281
20
3.377339
11
6.000000
21
3.061714
0
LINE
8
0
10
6.000000
20
3.061714
11
5.786892
21
3.229682
0
LINE
8
0
10
5.786892
20
3.229682
11
5.423177
21
4.503120
0
LINE
8
0
10
5.423177
20
4.503120
11
5.072917
21
8.405464
0
LINE
8
0
10
5.072917
20
8.405464
11
5.000000
21
12.061714
0
LINE
8
0
10
144.000000
20
12.061714
11
144.018061
21
14.081710
0
LINE
8
0
10
144.018061
20
14.081710
11
144.172458
21
17.346303
0
LINE
8
0
10
144.172458
20
17.346303
11
144.506573
21
19.582746
0
LINE
8
0
10
144.506573
20
19.582746
11
145.046829
21
20.797903
0
LINE
8
0
10
145.046829
20
20.797903
11
145.819649
21
20.998638
0
LINE
8
0
10
145.819649
20
20.998638
11
146.851454
21
20.191813
0
LINE
8
0
10
146.851454
20
20.191813
11
148.168668
21
18.384290
0
LINE
8
0
10
148.168668
20
18.384290
11
149.797712
21
15.582934
0
LINE
8
0
10
149.797712
20
15.582934
11
150.737428
21
13.811714
0
LINE
8
0
10
150.737428
20
13.811714
11
154.500000
21
6.561714
0
LINE
8
0
10
154.500000
20
6.561714
11
154.793810
21
13.811714
0
LINE
8
0
10
154.793810
20
13.811714
11
154.888193
21
15.627862
0
LINE
8
0
10
154.888193
20
15.627862
11
155.154256
21
18.442440
0
LINE
8
0
10
155.154256
20
18.442440
11
155.492665
21
20.191090
0
LINE
8
0
10
155.492665
20
20.191090
11
155.866561
21
20.903049
0
LINE
8
0
10
155.866561
20
20.903049
11
156.413319
21
20.091145
0
LINE
8
0
10
156.413319
20
20.091145
11
156.922527
21
15.653063
0
LINE
8
0
10
156.922527
20
15.653063
11
157.000000
21
12.061714
0
LINE
8
0
10
157.000000
20
12.061714
11
156.980335
21
9.991669
0
LINE
8
0
10
156.980335
20
9.991669
11
156.814743
21
6.654940
0
LINE
8
0
10
156.814743
20
6.654940
11
156.462413
21
4.385976
0
LINE
8
0
10
156.462413
20
4.385976
11
155.901283
21
3.180721
0
LINE
8
0
10
155.901283
20
3.180721
11
155.109289
21
3.035119
0
LINE
8
0
10
155.109289
20
3.035119
11
154.064366
21
3.945113
0
LINE
8
0
10
154.064366
20
3.945113
11
152.744453
21
5.906647
0
LINE
8
0
10
152.744453
20
5.906647
11
151.127484
21
8.915665
0
LINE
8
0
10
151.127484
20
8.915665
11
150.200710
21
10.811714
0
LINE
8
0
10
150.200710
20
10.811714
11
146.500000
21
18.561714
0
LINE
8
0
10
146.500000
20
18.561714
11
146.207936
21
10.811714
0
LINE
8
0
10
146.207936
20
10.811714
11
146.115994
21
8.922721
0
LINE
8
0
10
146.115994
20
8.922721
11
145.852876
21
5.966012
0
LINE
8
0
10
145.852876
20
5.966012
11
145.515295
21
4.086682
0
LINE
8
0
10
145.515295
20
4.086682
11
145.140678
21
3.263544
0
LINE
8
0
10
145.140678
20
3.263544
11
144.766447
21
3.475411
0
LINE
8
0
10
144.766447
20
3.475411
11
144.430028
21
4.701095
0
LINE
8
0
10
144.430028
20
4.701095
11
144.078161
21
8.394181
0
LINE
8
0
10
144.078161
20
8.394181
11
144.000000
21
12.061714
0
LINE
8
0
10
453.000000
20
12.061714
11
453.020516
21
14.103429
0
LINE
8
0
10
453.020516
20
14.103429
11
453.189114
21
17.413930
0
LINE
8
0
10
453.189114
20
17.413930
11
453.537738
21
19.697058
0
LINE
8
0
10
453.537738
20
19.697058
11
454.078311
21
20.956658
0
LINE
8
0
10
454.078311
20
20.956658
11
454.822756
21
21.196571
0
LINE
8
0
10
454.822756
20
21.196571
11
455.782997
21
20.420640
0
LINE
8
0
10
455.782997
20
20.420640
11
456.970958
21
18.632708
0
LINE
8
0
10
456.970958
20
18.632708
11
458.398562
21
15.836618
0
LINE
8
0
10
458.398562
20
15.836618
11
459.205956
21
14.061714
0
LINE
8
0
10
459.205956
20
14.061714
11
460.470157
21
11.343745
0
LINE
8
0
10
460.470157
20
11.343745
11
462.124629
21
8.261421
0
LINE
8
0
10
462.124629
20
8.261421
11
462.879811
21
7.204585
0
LINE
8
0
10
462.879811
20
7.204585
11
463.105084
21
7.061714
0
LINE
8
0
10
463.105084
20
7.061714
11
463.445774
21
7.633784
0
LINE
8
0
10
463.445774
20
7.633784
11
464.059792
21
11.496675
0
LINE
8
0
10
464.059792
20
11.496675
11
464.257493
21
14.311714
0
LINE
8
0
10
464.257493
20
14.311714
11
464.368820
21
16.606189
0
LINE
8
0
10
464.368820
20
16.606189
11
464.525580
21
19.119845
0
LINE
8
0
10
464.525580
20
19.119845
11
464.632796
21
18.725529
0
LINE
8
0
10
464.632796
20
18.725529
11
464.736447
21
15.254147
0
LINE
8
0
10
464.736447
20
15.254147
11
464.801303
21
12.311714
0
LINE
8
0
10
464.801303
20
12.311714
11
464.811845
21
8.521392
0
LINE
8
0
10
464.811845
20
8.521392
11
464.554175
21
4.522841
0
LINE
8
0
10
464.554175
20
4.522841
11
464.221354
21
3.231188
0
LINE
8
0
10
464.221354
20
3.231188
11
464.012103
21
3.061714
0
LINE
8
0
10
464.012103
20
3.061714
11
463.732788
21
3.219892
0
LINE
8
0
10
463.732788
20
3.219892
11
462.781698
21
4.389961
0
LINE
8
0
10
462.781698
20
4.389961
11
460.678458
21
7.802534
0
LINE
8
0
10
460.678458
20
7.802534
11
459.062092
21
10.811714
0
LINE
8
0
10
459.062092
20
10.811714
11
455.099979
21
18.561714
0
LINE
8
0
10
455.099979
20
18.561714
11
455.049989
21
10.811714
0
LINE
8
0
10
455.049989
20
10.811714
11
454.954822
21
7.716398
0
LINE
8
0
10
454.954822
20
7.716398
11
454.577903
21
4.336126
0
LINE
8
0
10
454.577903
20
4.336126
11
454.209409
21
3.211518
0
LINE
8
0
10
454.209409
20
3.211518
11
454.000000
21
3.061714
0
LINE
8
0
10
454.000000
20
3.061714
11
453.786892
21
3.229682
0
LINE
8
0
10
453.786892
20
3.229682
11
453.423177
21
4.503120
0
LINE
8
0
10
453.423177
20
4.503120
11
453.072917
21
8.405464
0
LINE
8
0
10
453.072917
20
8.405464
11
453.000000
21
12.061714
0
LINE
8
0
10
30.000000
20
12.061714
11
30.072917
21
15.717964
0
LINE
8
0
10
30.072917
20
15.717964
11
30.423177
21
19.620307
0
LINE
8
0
10
30.423177
20
19.620307
11
30.786892
21
20.893745
0
LINE
8
0
10
30.786892
20
20.893745
11
31.000000
21
21.061714
0
LINE
8
0
10
31.000000
20
21.061714
11
31.388281
21
20.746089
0
LINE
8
0
10
31.388281
20
20.746089
11
31.921094
21
18.614839
0
LINE
8
0
10
31.921094
20
18.614839
11
32.000000
21
17.061714
0
LINE
8
0
10
32.000000
20
17.061714
11
32.000000
21
13.061714
0
LINE
8
0
10
32.000000
20
13.061714
11
36.000000
21
13.061714
0
LINE
8
0
10
36.000000
20
13.061714
11
40.000000
21
13.061714
0
LINE
8
0
10
40.000000
20
13.061714
11
40.000000
21
17.061714
0
LINE
8
0
10
40.000000
20
17.061714
11
40.078906
21
18.614839
0
LINE
8
0
10
40.078906
20
18.614839
11
40.611719
21
20.746089
0
LINE
8
0
10
40.611719
20
20.746089
11
41.000000
21
21.061714
0
LINE
8
0
10
41.000000
20
21.061714
11
41.213108
21
20.893745
0
LINE
8
0
10
41.213108
20
20.893745
11
41.576823
21
19.620307
0
LINE
8
0
10
41.576823
20
19.620307
11
41.927083
21
15.717964
0
LINE
8
0
10
41.927083
20
15.717964
11
42.000000
21
12.061714
0
LINE
8
0
10
42.000000
20
12.061714
11
41.927083
21
8.405464
0
LINE
8
0
10
41.927083
20
8.405464
11
41.576823
21
4.503120
0
LINE
8
0
10
41.576823
20
4.503120
11
41.213108
21
3.229682
0
LINE
8
0
10
41.213108
20
3.229682
11
41.000000
21
3.061714
0
LINE
8
0
10
41.000000
20
3.061714
11
40.611719
21
3.416792
0
LINE
8
0
10
40.611719
20
3.416792
11
40.078906
21
5.814448
0
LINE
8
0
10
40.078906
20
5.814448
11
40.000000
21
7.561714
0
LINE
8
0
10
40.000000
20
7.561714
11
40.000000
21
12.061714
0
LINE
8
0
10
40.000000
20
12.061714
11
36.000000
21
12.061714
0
LINE
8
0
10
36.000000
20
12.061714
11
32.000000
21
12.061714
0
LINE
8
0
10
32.000000
20
12.061714
11
32.000000
21
7.561714
0
LINE
8
0
10
32.000000
20
7.561714
11
31.921094
21
5.814448
0
LINE
8
0
10
31.921094
20
5.814448
11
31.388281
21
3.416792
0
LINE
8
0
10
31.388281
20
3.416792
11
31.000000
21
3.061714
0
LINE
8
0
10
31.000000
20
3.061714
11
30.786892
21
3.229682
0
LINE
8
0
10
30.786892
20
3.229682
11
30.423177
21
4.503120
0
LINE
8
0
10
30.423177
20
4.503120
11
30.072917
21
8.405464
0
LINE
8
0
10
30.072917
20
8.405464
11
30.000000
21
12.061714
0
LINE
8
0
10
482.000000
20
12.061714
11
482.000000
21
21.061714
0
LINE
8
0
10
482.000000
20
21.061714
11
486.559017
21
21.061714
0
LINE
8
0
10
486.559017
20
21.061714
11
488.402677
21
20.991359
0
LINE
8
0
10
488.402677
20
20.991359
11
490.435079
21
20.475650
0
LINE
8
0
10
490.435079
20
20.475650
11
490.500000
21
20.061714
0
LINE
8
0
10
490.500000
20
20.061714
11
490.027967
21
19.673432
0
LINE
8
0
10
490.027967
20
19.673432
11
488.131678
21
19.140620
0
LINE
8
0
10
488.131678
20
19.140620
11
486.940983
21
19.061714
0
LINE
8
0
10
486.940983
20
19.061714
11
485.390067
21
18.966122
0
LINE
8
0
10
485.390067
20
18.966122
11
484.095733
21
17.673698
0
LINE
8
0
10
484.095733
20
17.673698
11
484.000000
21
16.125072
0
LINE
8
0
10
484.000000
20
16.125072
11
484.108817
21
14.571142
0
LINE
8
0
10
484.108817
20
14.571142
11
485.545201
21
13.094998
0
LINE
8
0
10
485.545201
20
13.094998
11
487.250000
21
12.785109
0
LINE
8
0
10
487.250000
20
12.785109
11
490.500000
21
12.381788
0
LINE
8
0
10
490.500000
20
12.381788
11
487.250000
21
12.221751
0
LINE
8
0
10
487.250000
20
12.221751
11
485.469333
21
12.044114
0
LINE
8
0
10
485.469333
20
12.044114
11
484.083528
21
10.483468
0
LINE
8
0
10
484.083528
20
10.483468
11
484.000000
21
8.561714
0
LINE
8
0
10
484.000000
20
8.561714
11
484.078125
21
6.608589
0
LINE
8
0
10
484.078125
20
6.608589
11
485.546875
21
5.139839
0
LINE
8
0
10
485.546875
20
5.139839
11
487.500000
21
5.061714
0
LINE
8
0
10
487.500000
20
5.061714
11
488.858984
21
4.982807
0
LINE
8
0
10
488.858984
20
4.982807
11
490.723828
21
4.449995
0
LINE
8
0
10
490.723828
20
4.449995
11
491.000000
21
4.061714
0
LINE
8
0
10
491.000000
20
4.061714
11
490.644922
21
3.673432
0
LINE
8
0
10
490.644922
20
3.673432
11
488.247266
21
3.140620
0
LINE
8
0
10
488.247266
20
3.140620
11
486.500000
21
3.061714
0
LINE
8
0
10
486.500000
20
3.061714
11
482.000000
21
3.061714
0
LINE
8
0
10
482.000000
20
3.061714
11
482.000000
21
12.061714
0
LINE
8
0
10
383.556704
20
5.284220
11
382.955712
21
6.687626
0
LINE
8
0
10
382.955712
20
6.687626
11
382.159650
21
11.386727
0
LINE
8
0
10
382.159650
20
11.386727
11
381.970908
21
16.735861
0
LINE
8
0
10
381.970908
20
16.735861
11
382.468791
21
20.487413
0
LINE
8
0
10
382.468791
20
20.487413
11
383.000000
21
21.061714
0
LINE
8
0
10
383.000000
20
21.061714
11
383.396140
21
20.542964
0
LINE
8
0
10
383.396140
20
20.542964
11
383.923713
21
16.955464
0
LINE
8
0
10
383.923713
20
16.955464
11
384.000000
21
14.261714
0
LINE
8
0
10
384.000000
20
14.261714
11
384.049016
21
11.779374
0
LINE
8
0
10
384.049016
20
11.779374
11
384.501569
21
8.156347
0
LINE
8
0
10
384.501569
20
8.156347
11
385.561102
21
6.055994
0
LINE
8
0
10
385.561102
20
6.055994
11
387.388755
21
5.158879
0
LINE
8
0
10
387.388755
20
5.158879
11
388.640983
21
5.061714
0
LINE
8
0
10
388.640983
20
5.061714
11
389.653881
21
5.119331
0
LINE
8
0
10
389.653881
20
5.119331
11
391.100214
21
5.807046
0
LINE
8
0
10
391.100214
20
5.807046
11
392.007907
21
7.762004
0
LINE
8
0
10
392.007907
20
7.762004
11
392.657737
21
11.588930
0
LINE
8
0
10
392.657737
20
11.588930
11
392.973696
21
14.393359
0
LINE
8
0
10
392.973696
20
14.393359
11
393.728439
21
21.561714
0
LINE
8
0
10
393.728439
20
21.561714
11
393.864220
21
13.966701
0
LINE
8
0
10
393.864220
20
13.966701
11
393.884543
21
11.844311
0
LINE
8
0
10
393.884543
20
11.844311
11
393.770955
21
8.671195
0
LINE
8
0
10
393.770955
20
8.671195
11
393.081265
21
5.860049
0
LINE
8
0
10
393.081265
20
5.860049
11
392.171259
21
4.716701
0
LINE
8
0
10
392.171259
20
4.716701
11
389.985766
21
3.435261
0
LINE
8
0
10
389.985766
20
3.435261
11
386.411923
21
3.314347
0
LINE
8
0
10
386.411923
20
3.314347
11
384.354058
21
4.400197
0
LINE
8
0
10
384.354058
20
4.400197
11
383.556704
21
5.284220
0
LINE
8
0
10
284.465534
20
4.463257
11
283.505210
21
5.489501
0
LINE
8
0
10
283.505210
20
5.489501
11
282.624832
21
8.251104
0
LINE
8
0
10
282.624832
20
8.251104
11
282.289072
21
11.385265
0
LINE
8
0
10
282.289072
20
11.385265
11
282.165105
21
13.463257
0
LINE
8
0
10
282.165105
20
13.463257
11
282.063928
21
16.814182
0
LINE
8
0
10
282.063928
20
16.814182
11
282.425032
21
20.595677
0
LINE
8
0
10
282.425032
20
20.595677
11
282.890700
21
21.061714
0
LINE
8
0
10
282.890700
20
21.061714
11
283.355325
21
20.644885
0
LINE
8
0
10
283.355325
20
20.644885
11
283.923771
21
17.536576
0
LINE
8
0
10
283.923771
20
17.536576
11
284.000000
21
14.995972
0
LINE
8
0
10
284.000000
20
14.995972
11
284.058540
21
12.490530
0
LINE
8
0
10
284.058540
20
12.490530
11
284.556177
21
8.671211
0
LINE
8
0
10
284.556177
20
8.671211
11
285.626363
21
6.296075
0
LINE
8
0
10
285.626363
20
6.296075
11
287.347267
21
5.191636
0
LINE
8
0
10
287.347267
20
5.191636
11
288.476167
21
5.061714
0
LINE
8
0
10
288.476167
20
5.061714
11
289.565852
21
5.130805
0
LINE
8
0
10
289.565852
20
5.130805
11
291.138228
21
5.886857
0
LINE
8
0
10
291.138228
20
5.886857
11
292.119498
21
7.918556
0
LINE
8
0
10
292.119498
20
7.918556
11
292.771529
21
11.768089
0
LINE
8
0
10
292.771529
20
11.768089
11
293.055912
21
14.543975
0
LINE
8
0
10
293.055912
20
14.543975
11
293.706699
21
21.561714
0
LINE
8
0
10
293.706699
20
21.561714
11
293.853349
21
13.883142
0
LINE
8
0
10
293.853349
20
13.883142
11
293.872537
21
11.870728
0
LINE
8
0
10
293.872537
20
11.870728
11
293.763835
21
8.722736
0
LINE
8
0
10
293.763835
20
8.722736
11
293.167016
21
5.763896
0
LINE
8
0
10
293.167016
20
5.763896
11
292.428571
21
4.633142
0
LINE
8
0
10
292.428571
20
4.633142
11
290.718831
21
3.524410
0
LINE
8
0
10
290.718831
20
3.524410
11
286.504471
21
3.434500
0
LINE
8
0
10
286.504471
20
3.434500
11
284.465534
21
4.463257
0
LINE
8
0
10
324.000000
20
69.028962
11
324.000000
21
89.996211
0
LINE
8
0
10
324.000000
20
89.996211
11
312.750000
21
90.315206
0
LINE
8
0
10
312.750000
20
90.315206
11
301.500000
21
90.634202
0
LINE
8
0
10
301.500000
20
90.634202
11
313.250000
21
90.847958
0
LINE
8
0
10
313.250000
20
90.847958
11
325.000000
21
91.061714
0
LINE
8
0
10
325.000000
20
91.061714
11
325.000000
21
69.561714
0
LINE
8
0
10
325.000000
20
69.561714
11
324.989795
21
65.242817
0
LINE
8
0
10
324.989795
20
65.242817
11
324.914307
21
57.562446
0
LINE
8
0
10
324.914307
20
57.562446
11
324.779053
21
51.746528
0
LINE
8
0
10
324.779053
20
51.746528
11
324.600439
21
48.500532
0
LINE
8
0
10
324.600439
20
48.500532
11
324.500000
21
48.061714
0
LINE
8
0
10
324.500000
20
48.061714
11
324.399561
21
48.489658
0
LINE
8
0
10
324.399561
20
48.489658
11
324.220947
21
51.655222
0
LINE
8
0
10
324.220947
20
51.655222
11
324.085693
21
57.327026
0
LINE
8
0
10
324.085693
20
57.327026
11
324.010205
21
64.817084
0
LINE
8
0
10
324.010205
20
64.817084
11
324.000000
21
69.028962
0
LINE
8
0
10
506.000000
20
3.998355
11
506.256445
21
4.386761
0
LINE
8
0
10
506.256445
20
4.386761
11
507.988086
21
5.052777
0
LINE
8
0
10
507.988086
20
5.052777
11
509.250000
21
5.248355
0
LINE
8
0
10
509.250000
20
5.248355
11
510.838091
21
5.554419
0
LINE
8
0
10
510.838091
20
5.554419
11
512.695161
21
6.829749
0
LINE
8
0
10
512.695161
20
6.829749
11
512.780491
21
8.705271
0
LINE
8
0
10
512.780491
20
8.705271
11
511.078570
21
10.840092
0
LINE
8
0
10
511.078570
20
10.840092
11
509.552544
21
11.898210
0
LINE
8
0
10
509.552544
20
11.898210
11
507.921765
21
12.997418
0
LINE
8
0
10
507.921765
20
12.997418
11
506.196520
21
15.218269
0
LINE
8
0
10
506.196520
20
15.218269
11
506.000000
21
16.471284
0
LINE
8
0
10
506.000000
20
16.471284
11
506.561037
21
18.565503
0
LINE
8
0
10
506.561037
20
18.565503
11
509.957370
21
21.289014
0
LINE
8
0
10
509.957370
20
21.289014
11
512.064692
21
21.334545
0
LINE
8
0
10
512.064692
20
21.334545
11
512.978488
21
21.040665
0
LINE
8
0
10
512.978488
20
21.040665
11
513.895419
21
20.421390
0
LINE
8
0
10
513.895419
20
20.421390
11
513.651627
21
19.879084
0
LINE
8
0
10
513.651627
20
19.879084
11
512.311302
21
19.556536
0
LINE
8
0
10
512.311302
20
19.556536
11
511.250000
21
19.522293
0
LINE
8
0
10
511.250000
20
19.522293
11
509.894720
21
19.370772
0
LINE
8
0
10
509.894720
20
19.370772
11
508.274380
21
18.230059
0
LINE
8
0
10
508.274380
20
18.230059
11
508.141050
21
16.424533
0
LINE
8
0
10
508.141050
20
16.424533
11
509.534792
21
14.496691
0
LINE
8
0
10
509.534792
20
14.496691
11
510.816833
21
13.656433
0
LINE
8
0
10
510.816833
20
13.656433
11
512.290647
21
12.742456
0
LINE
8
0
10
512.290647
20
12.742456
11
514.301448
21
10.570088
0
LINE
8
0
10
514.301448
20
10.570088
11
515.000995
21
8.153223
0
LINE
8
0
10
515.000995
20
8.153223
11
514.314709
21
5.749529
0
LINE
8
0
10
514.314709
20
5.749529
11
513.428571
21
4.633142
0
LINE
8
0
10
513.428571
20
4.633142
11
511.554659
21
3.603341
0
LINE
8
0
10
511.554659
20
3.603341
11
507.904698
21
3.074026
0
LINE
8
0
10
507.904698
20
3.074026
11
506.249858
21
3.512398
0
LINE
8
0
10
506.249858
20
3.512398
11
506.000000
21
3.998355
0
LINE
8
0
10
209.000000
20
3.998355
11
209.256445
21
4.386761
0
LINE
8
0
10
209.256445
20
4.386761
11
210.988086
21
5.052777
0
LINE
8
0
10
210.988086
20
5.052777
11
212.250000
21
5.248355
0
LINE
8
0
10
212.250000
20
5.248355
11
213.779036
21
5.550443
0
LINE
8
0
10
213.779036
20
5.550443
11
215.636829
21
6.825847
0
LINE
8
0
10
215.636829
20
6.825847
11
215.856653
21
8.679249
0
LINE
8
0
10
215.856653
20
8.679249
11
214.393395
21
10.730275
0
LINE
8
0
10
214.393395
20
10.730275
11
213.016512
21
11.711031
0
LINE
8
0
10
213.016512
20
11.711031
11
210.814733
21
13.495883
0
LINE
8
0
10
210.814733
20
13.495883
11
209.228982
21
16.650685
0
LINE
8
0
10
209.228982
20
16.650685
11
209.465782
21
18.681491
0
LINE
8
0
10
209.465782
20
18.681491
11
210.010777
21
19.574700
0
LINE
8
0
10
210.010777
20
19.574700
11
211.695777
21
20.582059
0
LINE
8
0
10
211.695777
20
20.582059
11
215.159150
21
21.020189
0
LINE
8
0
10
215.159150
20
21.020189
11
216.757328
21
20.515272
0
LINE
8
0
10
216.757328
20
20.515272
11
217.000000
21
20.002697
0
LINE
8
0
10
217.000000
20
20.002697
11
216.703621
21
19.437938
0
LINE
8
0
10
216.703621
20
19.437938
11
215.991051
21
19.567244
0
LINE
8
0
10
215.991051
20
19.567244
11
214.507742
21
19.892572
0
LINE
8
0
10
214.507742
20
19.892572
11
211.550193
21
18.512658
0
LINE
8
0
10
211.550193
20
18.512658
11
211.012379
21
17.244326
0
LINE
8
0
10
211.012379
20
17.244326
11
211.292380
21
16.412735
0
LINE
8
0
10
211.292380
20
16.412735
11
213.157224
21
14.312491
0
LINE
8
0
10
213.157224
20
14.312491
11
214.512379
21
13.302520
0
LINE
8
0
10
214.512379
20
13.302520
11
215.812284
21
12.324094
0
LINE
8
0
10
215.812284
20
12.324094
11
217.525657
21
10.175413
0
LINE
8
0
10
217.525657
20
10.175413
11
218.027166
21
7.906450
0
LINE
8
0
10
218.027166
20
7.906450
11
217.280874
21
5.679795
0
LINE
8
0
10
217.280874
20
5.679795
11
216.428571
21
4.633142
0
LINE
8
0
10
216.428571
20
4.633142
11
214.554659
21
3.603341
0
LINE
8
0
10
214.554659
20
3.603341
11
210.904698
21
3.074026
0
LINE
8
0
10
210.904698
20
3.074026
11
209.249858
21
3.512398
0
LINE
8
0
10
209.249858
20
3.512398
11
209.000000
21
3.998355
0
LINE
8
0
10
410.000000
20
3.998355
11
410.256445
21
4.386761
0
LINE
8
0
10
410.256445
20
4.386761
11
411.988086
21
5.052777
0
LINE
8
0
10
411.988086
20
5.052777
11
413.250000
21
5.248355
0
LINE
8
0
10
413.250000
20
5.248355
11
414.837734
21
5.554725
0
LINE
8
0
10
414.837734
20
5.554725
11
416.694149
21
6.837047
0
LINE
8
0
10
416.694149
20
6.837047
11
416.779504
21
8.737762
0
LINE
8
0
10
416.779504
20
8.737762
11
415.079012
21
10.927608
0
LINE
8
0
10
415.079012
20
10.927608
11
413.554453
21
12.028060
0
LINE
8
0
10
413.554453
20
12.028060
11
412.295045
21
12.926639
0
LINE
8
0
10
412.295045
20
12.926639
11
410.570937
21
14.901110
0
LINE
8
0
10
410.570937
20
14.901110
11
409.949803
21
16.967727
0
LINE
8
0
10
409.949803
20
16.967727
11
410.483675
21
18.953364
0
LINE
8
0
10
410.483675
20
18.953364
11
411.200000
21
19.861714
0
LINE
8
0
10
411.200000
20
19.861714
11
412.887692
21
20.713011
0
LINE
8
0
10
412.887692
20
20.713011
11
416.239183
21
20.986574
0
LINE
8
0
10
416.239183
20
20.986574
11
417.768595
21
20.474078
0
LINE
8
0
10
417.768595
20
20.474078
11
418.000000
21
20.002697
0
LINE
8
0
10
418.000000
20
20.002697
11
417.703621
21
19.437938
0
LINE
8
0
10
417.703621
20
19.437938
11
416.991051
21
19.567244
0
LINE
8
0
10
416.991051
20
19.567244
11
415.469834
21
19.906279
0
LINE
8
0
10
415.469834
20
19.906279
11
412.532730
21
18.407295
0
LINE
8
0
10
412.532730
20
18.407295
11
412.000000
21
17.020006
0
LINE
8
0
10
412.000000
20
17.020006
11
412.218506
21
16.149395
0
LINE
8
0
10
412.218506
20
16.149395
11
413.735074
21
14.360570
0
LINE
8
0
10
413.735074
20
14.360570
11
414.878819
21
13.624379
0
LINE
8
0
10
414.878819
20
13.624379
11
416.332116
21
12.719986
0
LINE
8
0
10
416.332116
20
12.719986
11
418.313183
21
10.557425
0
LINE
8
0
10
418.313183
20
10.557425
11
418.997588
21
8.143994
0
LINE
8
0
10
418.997588
20
8.143994
11
418.310185
21
5.744688
0
LINE
8
0
10
418.310185
20
5.744688
11
417.428571
21
4.633142
0
LINE
8
0
10
417.428571
20
4.633142
11
415.554659
21
3.603341
0
LINE
8
0
10
415.554659
20
3.603341
11
411.904698
21
3.074026
0
LINE
8
0
10
411.904698
20
3.074026
11
410.249858
21
3.512398
0
LINE
8
0
10
410.249858
20
3.512398
11
410.000000
21
3.998355
0
LINE
8
0
10
530.000000
20
4.061714
11
530.187604
21
4.449995
0
LINE
8
0
10
530.187604
20
4.449995
11
531.454395
21
4.982807
0
LINE
8
0
10
531.454395
20
4.982807
11
532.377555
21
5.061714
0
LINE
8
0
10
532.377555
20
5.061714
11
534.452368
21
5.538460
0
LINE
8
0
10
534.452368
20
5.538460
11
536.102054
21
6.684681
0
LINE
8
0
10
536.102054
20
6.684681
11
536.680658
21
7.639989
0
LINE
8
0
10
536.680658
20
7.639989
11
536.209815
21
9.108459
0
LINE
8
0
10
536.209815
20
9.108459
11
534.805078
21
10.507361
0
LINE
8
0
10
534.805078
20
10.507361
11
533.724454
21
11.434681
0
LINE
8
0
10
533.724454
20
11.434681
11
532.235307
21
12.858715
0
LINE
8
0
10
532.235307
20
12.858715
11
530.336055
21
15.727779
0
LINE
8
0
10
530.336055
20
15.727779
11
529.922722
21
18.327948
0
LINE
8
0
10
529.922722
20
18.327948
11
531.051940
21
20.302958
0
LINE
8
0
10
531.051940
20
20.302958
11
532.212705
21
20.944695
0
LINE
8
0
10
532.212705
20
20.944695
11
534.190996
21
21.362451
0
LINE
8
0
10
534.190996
20
21.362451
11
536.804190
21
21.104302
0
LINE
8
0
10
536.804190
20
21.104302
11
537.578786
21
20.467516
0
LINE
8
0
10
537.578786
20
20.467516
11
537.487757
21
20.041904
0
LINE
8
0
10
537.487757
20
20.041904
11
536.607581
21
19.621970
0
LINE
8
0
10
536.607581
20
19.621970
11
535.179148
21
19.725116
0
LINE
8
0
10
535.179148
20
19.725116
11
533.483994
21
19.566316
0
LINE
8
0
10
533.483994
20
19.566316
11
531.962555
21
18.516595
0
LINE
8
0
10
531.962555
20
18.516595
11
531.338555
21
17.529305
0
LINE
8
0
10
531.338555
20
17.529305
11
531.772884
21
16.095002
0
LINE
8
0
10
531.772884
20
16.095002
11
533.185408
21
14.748634
0
LINE
8
0
10
533.185408
20
14.748634
11
534.282411
21
13.850077
0
LINE
8
0
10
534.282411
20
13.850077
11
535.607246
21
12.641824
0
LINE
8
0
10
535.607246
20
12.641824
11
537.429822
21
10.086103
0
LINE
8
0
10
537.429822
20
10.086103
11
538.097957
21
7.541478
0
LINE
8
0
10
538.097957
20
7.541478
11
537.549670
21
5.244003
0
LINE
8
0
10
537.549670
20
5.244003
11
536.800000
21
4.261714
0
LINE
8
0
10
536.800000
20
4.261714
11
535.126093
21
3.421248
0
LINE
8
0
10
535.126093
20
3.421248
11
531.769433
21
3.124714
0
LINE
8
0
10
531.769433
20
3.124714
11
530.232745
21
3.607006
0
LINE
8
0
10
530.232745
20
3.607006
11
530.000000
21
4.061714
0
LINE
8
0
10
92.000000
20
11.061714
11
91.993408
21
13.664057
0
LINE
8
0
10
91.993408
20
13.664057
11
91.857178
21
17.049995
0
LINE
8
0
10
91.857178
20
17.049995
11
91.371338
21
18.604682
0
LINE
8
0
10
91.371338
20
18.604682
11
90.313232
21
19.040620
0
LINE
8
0
10
90.313232
20
19.040620
11
89.500000
21
19.061714
0
LINE
8
0
10
89.500000
20
19.061714
11
88.529297
21
19.140620
0
LINE
8
0
10
88.529297
20
19.140620
11
87.197266
21
19.673432
0
LINE
8
0
10
87.197266
20
19.673432
11
87.000000
21
20.061714
0
LINE
8
0
10
87.000000
20
20.061714
11
87.468750
21
20.452339
0
LINE
8
0
10
87.468750
20
20.452339
11
90.656250
21
20.983589
0
LINE
8
0
10
90.656250
20
20.983589
11
93.000000
21
21.061714
0
LINE
8
0
10
93.000000
20
21.061714
11
95.343750
21
20.983589
0
LINE
8
0
10
95.343750
20
20.983589
11
98.531250
21
20.452339
0
LINE
8
0
10
98.531250
20
20.452339
11
99.000000
21
20.061714
0
LINE
8
0
10
99.000000
20
20.061714
11
98.802734
21
19.673432
0
LINE
8
0
10
98.802734
20
19.673432
11
97.470703
21
19.140620
0
LINE
8
0
10
97.470703
20
19.140620
11
96.500000
21
19.061714
0
LINE
8
0
10
96.500000
20
19.061714
11
95.686768
21
19.040620
0
LINE
8
0
10
95.686768
20
19.040620
11
94.628662
21
18.604682
0
LINE
8
0
10
94.628662
20
18.604682
11
94.142822
21
17.049995
0
LINE
8
0
10
94.142822
20
17.049995
11
94.006592
21
13.664057
0
LINE
8
0
10
94.006592
20
13.664057
11
94.000000
21
11.061714
0
LINE
8
0
10
94.000000
20
11.061714
11
93.925781
21
7.842964
0
LINE
8
0
10
93.925781
20
7.842964
11
93.572754
21
4.362495
0
LINE
8
0
10
93.572754
20
4.362495
11
93.210449
21
3.214057
0
LINE
8
0
10
93.210449
20
3.214057
11
93.000000
21
3.061714
0
LINE
8
0
10
93.000000
20
3.061714
11
92.789551
21
3.214057
0
LINE
8
0
10
92.789551
20
3.214057
11
92.427246
21
4.362495
0
LINE
8
0
10
92.427246
20
4.362495
11
92.074219
21
7.842964
0
LINE
8
0
10
92.074219
20
7.842964
11
92.000000
21
11.061714
0
LINE
8
0
10
393.807349
20
90.809174
11
405.934130
21
90.938770
0
LINE
8
0
10
405.934130
20
90.938770
11
417.807349
21
90.807985
0
LINE
8
0
10
417.807349
20
90.807985
11
418.873940
21
90.775780
0
LINE
8
0
10
418.873940
20
90.775780
11
420.190774
21
90.714277
0
LINE
8
0
10
420.190774
20
90.714277
11
420.219800
21
90.631713
0
LINE
8
0
10
420.219800
20
90.631713
11
416.890566
21
90.546498
0
LINE
8
0
10
416.890566
20
90.546498
11
410.082445
21
90.499183
0
LINE
8
0
10
410.082445
20
90.499183
11
405.500000
21
90.492968
0
LINE
8
0
10
405.500000
20
90.492968
11
400.930101
21
90.499636
0
LINE
8
0
10
400.930101
20
90.499636
11
394.214785
21
90.547621
0
LINE
8
0
10
394.214785
20
90.547621
11
391.051831
21
90.633158
0
LINE
8
0
10
391.051831
20
90.633158
11
391.241653
21
90.715712
0
LINE
8
0
10
391.241653
20
90.715712
11
392.678139
21
90.777078
0
LINE
8
0
10
392.678139
20
90.777078
11
393.807349
21
90.809174
0
LINE
8
0
10
57.424763
20
69.061714
11
57.431324
21
73.161201
0
LINE
8
0
10
57.431324
20
73.161201
11
57.479855
21
79.218574
0
LINE
8
0
10
57.479855
20
79.218574
11
57.566810
21
82.126533
0
LINE
8
0
10
57.566810
20
82.126533
11
57.681641
21
81.532343
0
LINE
8
0
10
57.681641
20
81.532343
11
57.746213
21
79.811714
0
LINE
8
0
10
57.746213
20
79.811714
11
57.878811
21
69.061714
0
LINE
8
0
10
57.878811
20
69.061714
11
57.746213
21
58.311714
0
LINE
8
0
10
57.746213
20
58.311714
11
57.681641
21
56.591084
0
LINE
8
0
10
57.681641
20
56.591084
11
57.566810
21
55.996894
0
LINE
8
0
10
57.566810
20
55.996894
11
57.479855
21
58.904853
0
LINE
8
0
10
57.479855
20
58.904853
11
57.431324
21
64.962226
0
LINE
8
0
10
57.431324
20
64.962226
11
57.424763
21
69.061714
0
LINE
8
0
10
4.424763
20
69.061714
11
4.431324
21
73.161201
0
LINE
8
0
10
4.431324
20
73.161201
11
4.479855
21
79.218574
0
LINE
8
0
10
4.479855
20
79.218574
11
4.566810
21
82.126533
0
LINE
8
0
10
4.566810
20
82.126533
11
4.681641
21
81.532343
0
LINE
8
0
10
4.681641
20
81.532343
11
4.746213
21
79.811714
0
LINE
8
0
10
4.746213
20
79.811714
11
4.878811
21
69.061714
0
LINE
8
0
10
4.878811
20
69.061714
11
4.746213
21
58.311714
0
LINE
8
0
10
4.746213
20
58.311714
11
4.681641
21
56.591084
0
LINE
8
0
10
4.681641
20
56.591084
11
4.566810
21
55.996894
0
LINE
8
0
10
4.566810
20
55.996894
11
4.479855
21
58.904853
0
LINE
8
0
10
4.479855
20
58.904853
11
4.431324
21
64.962226
0
LINE
8
0
10
4.431324
20
64.962226
11
4.424763
21
69.061714
0
LINE
8
0
10
73.871980
20
90.336081
11
74.383673
21
90.485986
0
LINE
8
0
10
74.383673
20
90.485986
11
77.292013
21
90.720817
0
LINE
8
0
10
77.292013
20
90.720817
11
82.215902
21
90.855407
0
LINE
8
0
10
82.215902
20
90.855407
11
88.558072
21
90.873430
0
LINE
8
0
10
88.558072
20
90.873430
11
92.074368
21
90.833627
0
LINE
8
0
10
92.074368
20
90.833627
11
109.500000
21
90.556804
0
LINE
8
0
10
109.500000
20
90.556804
11
91.297612
21
90.059259
0
LINE
8
0
10
91.297612
20
90.059259
11
87.656989
21
89.975118
0
LINE
8
0
10
87.656989
20
89.975118
11
81.271885
21
89.914293
0
LINE
8
0
10
81.271885
20
89.914293
11
76.558115
21
89.989175
0
LINE
8
0
10
76.558115
20
89.989175
11
74.087459
21
90.190682
0
LINE
8
0
10
74.087459
20
90.190682
11
73.871980
21
90.336081
0
LINE
8
0
10
349.199419
20
90.805544
11
358.075429
21
90.943285
0
LINE
8
0
10
358.075429
20
90.943285
11
367.199419
21
90.807451
0
LINE
8
0
10
367.199419
20
90.807451
11
368.700326
21
90.740991
0
LINE
8
0
10
368.700326
20
90.740991
11
369.305163
21
90.622585
0
LINE
8
0
10
369.305163
20
90.622585
11
366.951902
21
90.532625
0
LINE
8
0
10
366.951902
20
90.532625
11
361.925994
21
90.482023
0
LINE
8
0
10
361.925994
20
90.482023
11
358.500000
21
90.474891
0
LINE
8
0
10
358.500000
20
90.474891
11
355.061736
21
90.481296
0
LINE
8
0
10
355.061736
20
90.481296
11
349.945066
21
90.530823
0
LINE
8
0
10
349.945066
20
90.530823
11
347.429186
21
90.620267
0
LINE
8
0
10
347.429186
20
90.620267
11
347.819272
21
90.738779
0
LINE
8
0
10
347.819272
20
90.738779
11
349.199419
21
90.805544
0
LINE
8
0
10
225.000000
20
90.061714
11
207.500000
21
90.633479
0
LINE
8
0
10
207.500000
20
90.633479
11
224.690983
21
90.847596
0
LINE
8
0
10
224.690983
20
90.847596
11
228.489487
21
90.877140
0
LINE
8
0
10
228.489487
20
90.877140
11
234.891935
21
90.819942
0
LINE
8
0
10
234.891935
20
90.819942
11
239.497381
21
90.616711
0
LINE
8
0
10
239.497381
20
90.616711
11
242.060718
21
90.278263
0
LINE
8
0
10
242.060718
20
90.278263
11
242.500000
21
90.061714
0
LINE
8
0
10
242.500000
20
90.061714
11
242.845713
21
89.418361
0
LINE
8
0
10
242.845713
20
89.418361
11
242.809017
21
89.275831
0
LINE
8
0
10
242.809017
20
89.275831
11
242.389764
21
89.330512
0
LINE
8
0
10
242.389764
20
89.330512
11
239.637285
21
89.493324
0
LINE
8
0
10
239.637285
20
89.493324
11
234.819807
21
89.705911
0
LINE
8
0
10
234.819807
20
89.705911
11
228.521688
21
89.942488
0
LINE
8
0
10
228.521688
20
89.942488
11
225.000000
21
90.061714
0
LINE
8
0
10
395.407091
20
64.061714
11
395.413967
21
67.207832
0
LINE
8
0
10
395.413967
20
67.207832
11
395.464830
21
71.856513
0
LINE
8
0
10
395.464830
20
71.856513
11
395.555964
21
74.088203
0
LINE
8
0
10
395.555964
20
74.088203
11
395.676312
21
73.632197
0
LINE
8
0
10
395.676312
20
73.632197
11
395.743988
21
72.311714
0
LINE
8
0
10
395.743988
20
72.311714
11
395.882958
21
64.061714
0
LINE
8
0
10
395.882958
20
64.061714
11
395.743988
21
55.811714
0
LINE
8
0
10
395.743988
20
55.811714
11
395.676312
21
54.491230
0
LINE
8
0
10
395.676312
20
54.491230
11
395.555964
21
54.035224
0
LINE
8
0
10
395.555964
20
54.035224
11
395.464830
21
56.266914
0
LINE
8
0
10
395.464830
20
56.266914
11
395.413967
21
60.915595
0
LINE
8
0
10
395.413967
20
60.915595
11
395.407091
21
64.061714
0
LINE
8
0
10
449.797482
20
90.806468
11
457.920193
21
90.945079
0
LINE
8
0
10
457.920193
20
90.945079
11
465.797482
21
90.804167
0
LINE
8
0
10
465.797482
20
90.804167
11
467.018193
21
90.735922
0
LINE
8
0
10
467.018193
20
90.735922
11
467.354112
21
90.614825
0
LINE
8
0
10
467.354112
20
90.614825
11
465.109578
21
90.523484
0
LINE
8
0
10
465.109578
20
90.523484
11
460.556853
21
90.472980
0
LINE
8
0
10
460.556853
20
90.472980
11
457.500000
21
90.466503
0
LINE
8
0
10
457.500000
20
90.466503
11
454.455290
21
90.473857
0
LINE
8
0
10
454.455290
20
90.473857
11
449.992391
21
90.525659
0
LINE
8
0
10
449.992391
20
90.525659
11
447.908799
21
90.617622
0
LINE
8
0
10
447.908799
20
90.617622
11
448.457255
21
90.738592
0
LINE
8
0
10
448.457255
20
90.738592
11
449.797482
21
90.806468
0
LINE
8
0
10
539.399941
20
75.561714
11
539.407426
21
78.415786
0
LINE
8
0
10
539.407426
20
78.415786
11
539.459916
21
82.597215
0
LINE
8
0
10
539.459916
20
82.597215
11
539.553022
21
84.546033
0
LINE
8
0
10
539.553022
20
84.546033
11
539.675450
21
84.025848
0
LINE
8
0
10
539.675450
20
84.025848
11
539.744131
21
82.766008
0
LINE
8
0
10
539.744131
20
82.766008
11
539.884311
21
75.144029
0
LINE
8
0
10
539.884311
20
75.144029
11
539.741584
21
67.766008
0
LINE
8
0
10
539.741584
20
67.766008
11
539.672496
21
66.624969
0
LINE
8
0
10
539.672496
20
66.624969
11
539.549926
21
66.316053
0
LINE
8
0
10
539.549926
20
66.316053
11
539.457509
21
68.424852
0
LINE
8
0
10
539.457509
20
68.424852
11
539.406455
21
72.695571
0
LINE
8
0
10
539.406455
20
72.695571
11
539.399941
21
75.561714
0
LINE
8
0
10
486.399941
20
75.561714
11
486.407426
21
78.415786
0
LINE
8
0
10
486.407426
20
78.415786
11
486.459916
21
82.597215
0
LINE
8
0
10
486.459916
20
82.597215
11
486.553022
21
84.546033
0
LINE
8
0
10
486.553022
20
84.546033
11
486.675450
21
84.025848
0
LINE
8
0
10
486.675450
20
84.025848
11
486.744131
21
82.766008
0
LINE
8
0
10
486.744131
20
82.766008
11
486.884311
21
75.144029
0
LINE
8
0
10
486.884311
20
75.144029
11
486.741584
21
67.766008
0
LINE
8
0
10
486.741584
20
67.766008
11
486.672496
21
66.624969
0
LINE
8
0
10
486.672496
20
66.624969
11
486.549926
21
66.316053
0
LINE
8
0
10
486.549926
20
66.316053
11
486.457509
21
68.424852
0
LINE
8
0
10
486.457509
20
68.424852
11
486.406455
21
72.695571
0
LINE
8
0
10
486.406455
20
72.695571
11
486.399941
21
75.561714
0
LINE
8
0
10
518.397394
20
76.061714
11
518.404438
21
78.826484
0
LINE
8
0
10
518.404438
20
78.826484
11
518.456542
21
82.911689
0
LINE
8
0
10
518.456542
20
82.911689
11
518.549897
21
84.872871
0
LINE
8
0
10
518.549897
20
84.872871
11
518.673181
21
84.472138
0
LINE
8
0
10
518.673181
20
84.472138
11
518.742507
21
83.311714
0
LINE
8
0
10
518.742507
20
83.311714
11
518.884865
21
76.061714
0
LINE
8
0
10
518.884865
20
76.061714
11
518.742507
21
68.811714
0
LINE
8
0
10
518.742507
20
68.811714
11
518.673181
21
67.651289
0
LINE
8
0
10
518.673181
20
67.651289
11
518.549897
21
67.250556
0
LINE
8
0
10
518.549897
20
67.250556
11
518.456542
21
69.211738
0
LINE
8
0
10
518.456542
20
69.211738
11
518.404438
21
73.296943
0
LINE
8
0
10
518.404438
20
73.296943
11
518.397394
21
76.061714
0
LINE
8
0
10
507.397394
20
76.061714
11
507.404438
21
78.826484
0
LINE
8
0
10
507.404438
20
78.826484
11
507.456542
21
82.911689
0
LINE
8
0
10
507.456542
20
82.911689
11
507.549897
21
84.872871
0
LINE
8
0
10
507.549897
20
84.872871
11
507.673181
21
84.472138
0
LINE
8
0
10
507.673181
20
84.472138
11
507.742507
21
83.311714
0
LINE
8
0
10
507.742507
20
83.311714
11
507.884865
21
76.061714
0
LINE
8
0
10
507.884865
20
76.061714
11
507.742507
21
68.811714
0
LINE
8
0
10
507.742507
20
68.811714
11
507.673181
21
67.651289
0
LINE
8
0
10
507.673181
20
67.651289
11
507.549897
21
67.250556
0
LINE
8
0
10
507.549897
20
67.250556
11
507.456542
21
69.211738
0
LINE
8
0
10
507.456542
20
69.211738
11
507.404438
21
73.296943
0
LINE
8
0
10
507.404438
20
73.296943
11
507.397394
21
76.061714
0
LINE
8
0
10
167.880493
20
90.346014
11
168.271804
21
90.497662
0
LINE
8
0
10
168.271804
20
90.497662
11
170.276840
21
90.734178
0
LINE
8
0
10
170.276840
20
90.734178
11
175.589612
21
90.891542
0
LINE
8
0
10
175.589612
20
90.891542
11
180.084301
21
90.841151
0
LINE
8
0
10
180.084301
20
90.841151
11
191.500000
21
90.551987
0
LINE
8
0
10
191.500000
20
90.551987
11
179.296192
21
90.056850
0
LINE
8
0
10
179.296192
20
90.056850
11
174.619869
21
89.926484
0
LINE
8
0
10
174.619869
20
89.926484
11
169.532216
21
89.993152
0
LINE
8
0
10
169.532216
20
89.993152
11
167.971260
21
90.198571
0
LINE
8
0
10
167.971260
20
90.198571
11
167.880493
21
90.346014
0
LINE
8
0
10
136.500000
20
90.061714
11
124.500000
21
90.659440
0
LINE
8
0
10
124.500000
20
90.659440
11
136.190983
21
90.860577
0
LINE
8
0
10
136.190983
20
90.860577
11
140.991038
21
90.869629
0
LINE
8
0
10
140.991038
20
90.869629
11
146.274327
21
90.606885
0
LINE
8
0
10
146.274327
20
90.606885
11
148.150446
21
90.271404
0
LINE
8
0
10
148.150446
20
90.271404
11
148.500000
21
90.061714
0
LINE
8
0
10
148.500000
20
90.061714
11
148.845713
21
89.414547
0
LINE
8
0
10
148.845713
20
89.414547
11
148.809017
21
89.262850
0
LINE
8
0
10
148.809017
20
89.262850
11
148.502020
21
89.315454
0
LINE
8
0
10
148.502020
20
89.315454
11
146.579912
21
89.477548
0
LINE
8
0
10
146.579912
20
89.477548
11
141.183758
21
89.813757
0
LINE
8
0
10
141.183758
20
89.813757
11
136.500000
21
90.061714
0
LINE
8
0
10
355.443760
20
12.561714
11
355.500000
21
21.561714
0
LINE
8
0
10
355.500000
20
21.561714
11
358.500000
21
21.654942
0
LINE
8
0
10
358.500000
20
21.654942
11
359.405085
21
21.681369
0
LINE
8
0
10
359.405085
20
21.681369
11
360.457525
21
21.692007
0
LINE
8
0
10
360.457525
20
21.692007
11
360.179851
21
21.561277
0
LINE
8
0
10
360.179851
20
21.561277
11
358.786724
21
21.344323
0
LINE
8
0
10
358.786724
20
21.344323
11
357.899825
21
21.191106
0
LINE
8
0
10
357.899825
20
21.191106
11
356.731271
21
20.554967
0
LINE
8
0
10
356.731271
20
20.554967
11
356.139712
21
18.794899
0
LINE
8
0
10
356.139712
20
18.794899
11
355.849145
21
15.089720
0
LINE
8
0
10
355.849145
20
15.089720
11
355.730483
21
12.251094
0
LINE
8
0
10
355.730483
20
12.251094
11
355.387520
21
3.561714
0
LINE
8
0
10
355.387520
20
3.561714
11
355.443760
21
12.561714
0
LINE
8
0
10
264.789188
20
90.803128
11
270.908478
21
90.948944
0
LINE
8
0
10
270.908478
20
90.948944
11
276.789188
21
90.799533
0
LINE
8
0
10
276.789188
20
90.799533
11
277.691448
21
90.727360
0
LINE
8
0
10
277.691448
20
90.727360
11
277.919783
21
90.599426
0
LINE
8
0
10
277.919783
20
90.599426
11
276.218508
21
90.503110
0
LINE
8
0
10
276.218508
20
90.503110
11
272.793988
21
90.450096
0
LINE
8
0
10
272.793988
20
90.450096
11
270.500000
21
90.443478
0
LINE
8
0
10
270.500000
20
90.443478
11
268.217816
21
90.451467
0
LINE
8
0
10
268.217816
20
90.451467
11
264.880618
21
90.506507
0
LINE
8
0
10
264.880618
20
90.506507
11
263.335798
21
90.603795
0
LINE
8
0
10
263.335798
20
90.603795
11
263.770744
21
90.731530
0
LINE
8
0
10
263.770744
20
90.731530
11
264.789188
21
90.803128
0
LINE
8
0
10
436.789188
20
59.803128
11
442.908478
21
59.948944
0
LINE
8
0
10
442.908478
20
59.948944
11
448.789188
21
59.799533
0
LINE
8
0
10
448.789188
20
59.799533
11
449.691448
21
59.727360
0
LINE
8
0
10
449.691448
20
59.727360
11
449.919783
21
59.599426
0
LINE
8
0
10
449.919783
20
59.599426
11
448.218508
21
59.503110
0
LINE
8
0
10
448.218508
20
59.503110
11
444.793988
21
59.450096
0
LINE
8
0
10
444.793988
20
59.450096
11
442.500000
21
59.443478
0
LINE
8
0
10
442.500000
20
59.443478
11
440.217816
21
59.451467
0
LINE
8
0
10
440.217816
20
59.451467
11
436.880618
21
59.506507
0
LINE
8
0
10
436.880618
20
59.506507
11
435.335798
21
59.603795
0
LINE
8
0
10
435.335798
20
59.603795
11
435.770744
21
59.731530
0
LINE
8
0
10
435.770744
20
59.731530
11
436.789188
21
59.803128
0
LINE
8
0
10
523.750000
20
90.798955
11
529.000000
21
90.950457
0
LINE
8
0
10
529.000000
20
90.950457
11
534.250000
21
90.798955
0
LINE
8
0
10
534.250000
20
90.798955
11
535.090308
21
90.725177
0
LINE
8
0
10
535.090308
20
90.725177
11
535.380493
21
90.593976
0
LINE
8
0
10
535.380493
20
90.593976
11
533.960327
21
90.494625
0
LINE
8
0
10
533.960327
20
90.494625
11
531.002075
21
90.439174
0
LINE
8
0
10
531.002075
20
90.439174
11
529.000000
21
90.431678
0
LINE
8
0
10
529.000000
20
90.431678
11
526.997925
21
90.439174
0
LINE
8
0
10
526.997925
20
90.439174
11
524.039673
21
90.494625
0
LINE
8
0
10
524.039673
20
90.494625
11
522.619507
21
90.593976
0
LINE
8
0
10
522.619507
20
90.593976
11
522.909692
21
90.725177
0
LINE
8
0
10
522.909692
20
90.725177
11
523.750000
21
90.798955
0
LINE
8
0
10
491.750000
20
90.798955
11
497.000000
21
90.950457
0
LINE
8
0
10
497.000000
20
90.950457
11
502.250000
21
90.798955
0
LINE
8
0
10
502.250000
20
90.798955
11
503.090308
21
90.725177
0
LINE
8
0
10
503.090308
20
90.725177
11
503.380493
21
90.593976
0
LINE
8
0
10
503.380493
20
90.593976
11
501.960327
21
90.494625
0
LINE
8
0
10
501.960327
20
90.494625
11
499.002075
21
90.439174
0
LINE
8
0
10
499.002075
20
90.439174
11
497.000000
21
90.431678
0
LINE
8
0
10
497.000000
20
90.431678
11
494.997925
21
90.439174
0
LINE
8
0
10
494.997925
20
90.439174
11
492.039673
21
90.494625
0
LINE
8
0
10
492.039673
20
90.494625
11
490.619507
21
90.593976
0
LINE
8
0
10
490.619507
20
90.593976
11
490.909692
21
90.725177
0
LINE
8
0
10
490.909692
20
90.725177
11
491.750000
21
90.798955
0
LINE
8
0
10
41.750000
20
90.798955
11
47.000000
21
90.950457
0
LINE
8
0
10
47.000000
20
90.950457
11
52.250000
21
90.798955
0
LINE
8
0
10
52.250000
20
90.798955
11
53.090308
21
90.725177
0
LINE
8
0
10
53.090308
20
90.725177
11
53.380493
21
90.593976
0
LINE
8
0
10
53.380493
20
90.593976
11
51.960327
21
90.494625
0
LINE
8
0
10
51.960327
20
90.494625
11
49.002075
21
90.439174
0
LINE
8
0
10
49.002075
20
90.439174
11
47.000000
21
90.431678
0
LINE
8
0
10
47.000000
20
90.431678
11
44.997925
21
90.439174
0
LINE
8
0
10
44.997925
20
90.439174
11
42.039673
21
90.494625
0
LINE
8
0
10
42.039673
20
90.494625
11
40.619507
21
90.593976
0
LINE
8
0
10
40.619507
20
90.593976
11
40.909692
21
90.725177
0
LINE
8
0
10
40.909692
20
90.725177
11
41.750000
21
90.798955
0
LINE
8
0
10
9.750000
20
90.798955
11
15.000000
21
90.950457
0
LINE
8
0
10
15.000000
20
90.950457
11
20.250000
21
90.798955
0
LINE
8
0
10
20.250000
20
90.798955
11
21.090308
21
90.725177
0
LINE
8
0
10
21.090308
20
90.725177
11
21.380493
21
90.593976
0
LINE
8
0
10
21.380493
20
90.593976
11
19.960327
21
90.494625
0
LINE
8
0
10
19.960327
20
90.494625
11
17.002075
21
90.439174
0
LINE
8
0
10
17.002075
20
90.439174
11
15.000000
21
90.431678
0
LINE
8
0
10
15.000000
20
90.431678
11
12.997925
21
90.439174
0
LINE
8
0
10
12.997925
20
90.439174
11
10.039673
21
90.494625
0
LINE
8
0
10
10.039673
20
90.494625
11
8.619507
21
90.593976
0
LINE
8
0
10
8.619507
20
90.593976
11
8.909692
21
90.725177
0
LINE
8
0
10
8.909692
20
90.725177
11
9.750000
21
90.798955
0
LINE
8
0
10
459.750000
20
75.798955
11
465.000000
21
75.950457
0
LINE
8
0
10
465.000000
20
75.950457
11
470.250000
21
75.798955
0
LINE
8
0
10
470.250000
20
75.798955
11
471.090308
21
75.725177
0
LINE
8
0
10
471.090308
20
75.725177
11
471.380493
21
75.593976
0
LINE
8
0
10
471.380493
20
75.593976
11
469.960327
21
75.494625
0
LINE
8
0
10
469.960327
20
75.494625
11
467.002075
21
75.439174
0
LINE
8
0
10
467.002075
20
75.439174
11
465.000000
21
75.431678
0
LINE
8
0
10
465.000000
20
75.431678
11
462.997925
21
75.439174
0
LINE
8
0
10
462.997925
20
75.439174
11
460.039673
21
75.494625
0
LINE
8
0
10
460.039673
20
75.494625
11
458.619507
21
75.593976
0
LINE
8
0
10
458.619507
20
75.593976
11
458.909692
21
75.725177
0
LINE
8
0
10
458.909692
20
75.725177
11
459.750000
21
75.798955
0
LINE
8
0
10
465.203545
20
11.728380
11
465.136211
21
13.920121
0
LINE
8
0
10
465.136211
20
13.920121
11
464.906986
21
17.438090
0
LINE
8
0
10
464.906986
20
17.438090
11
464.547066
21
19.832791
0
LINE
8
0
10
464.547066
20
19.832791
11
464.050904
21
21.141124
0
LINE
8
0
10
464.050904
20
21.141124
11
463.750000
21
21.399433
0
LINE
8
0
10
463.750000
20
21.399433
11
463.200726
21
21.648549
0
LINE
8
0
10
463.200726
20
21.648549
11
463.215389
21
21.921089
0
LINE
8
0
10
463.215389
20
21.921089
11
463.781385
21
21.982766
0
LINE
8
0
10
463.781385
20
21.982766
11
464.447766
21
21.918777
0
LINE
8
0
10
464.447766
20
21.918777
11
465.367832
21
20.958197
0
LINE
8
0
10
465.367832
20
20.958197
11
465.807075
21
18.498656
0
LINE
8
0
10
465.807075
20
18.498656
11
465.848823
21
14.073563
0
LINE
8
0
10
465.848823
20
14.073563
11
465.746676
21
10.978124
0
LINE
8
0
10
465.746676
20
10.978124
11
465.407091
21
2.561714
0
LINE
8
0
10
465.407091
20
2.561714
11
465.203545
21
11.728380
0
LINE
8
0
10
436.203545
20
11.728380
11
436.136211
21
13.920121
0
LINE
8
0
10
436.136211
20
13.920121
11
435.906986
21
17.438090
0
LINE
8
0
10
435.906986
20
17.438090
11
435.547066
21
19.832791
0
LINE
8
0
10
435.547066
20
19.832791
11
435.050904
21
21.141124
0
LINE
8
0
10
435.050904
20
21.141124
11
434.750000
21
21.399433
0
LINE
8
0
10
434.750000
20
21.399433
11
434.200726
21
21.648549
0
LINE
8
0
10
434.200726
20
21.648549
11
434.215389
21
21.921089
0
LINE
8
0
10
434.215389
20
21.921089
11
434.781385
21
21.982766
0
LINE
8
0
10
434.781385
20
21.982766
11
435.447766
21
21.918777
0
LINE
8
0
10
435.447766
20
21.918777
11
436.367832
21
20.958197
0
LINE
8
0
10
436.367832
20
20.958197
11
436.807075
21
18.498656
0
LINE
8
0
10
436.807075
20
18.498656
11
436.848823
21
14.073563
0
LINE
8
0
10
436.848823
20
14.073563
11
436.746676
21
10.978124
0
LINE
8
0
10
436.746676
20
10.978124
11
436.407091
21
2.561714
0
LINE
8
0
10
436.407091
20
2.561714
11
436.203545
21
11.728380
0
LINE
8
0
10
193.203545
20
11.728380
11
193.136211
21
13.920121
0
LINE
8
0
10
193.136211
20
13.920121
11
192.906986
21
17.438090
0
LINE
8
0
10
192.906986
20
17.438090
11
192.547066
21
19.832791
0
LINE
8
0
10
192.547066
20
19.832791
11
192.050904
21
21.141124
0
LINE
8
0
10
192.050904
20
21.141124
11
191.750000
21
21.399433
0
LINE
8
0
10
191.750000
20
21.399433
11
191.200726
21
21.648549
0
LINE
8
0
10
191.200726
20
21.648549
11
191.215389
21
21.921089
0
LINE
8
0
10
191.215389
20
21.921089
11
191.781385
21
21.982766
0
LINE
8
0
10
191.781385
20
21.982766
11
192.447766
21
21.918777
0
LINE
8
0
10
192.447766
20
21.918777
11
193.367832
21
20.958197
0
LINE
8
0
10
193.367832
20
20.958197
11
193.807075
21
18.498656
0
LINE
8
0
10
193.807075
20
18.498656
11
193.848823
21
14.073563
0
LINE
8
0
10
193.848823
20
14.073563
11
193.746676
21
10.978124
0
LINE
8
0
10
193.746676
20
10.978124
11
193.407091
21
2.561714
0
LINE
8
0
10
193.407091
20
2.561714
11
193.203545
21
11.728380
0
LINE
8
0
10
42.203545
20
11.728380
11
42.136211
21
13.920121
0
LINE
8
0
10
42.136211
20
13.920121
11
41.906986
21
17.438090
0
LINE
8
0
10
41.906986
20
17.438090
11
41.547066
21
19.832791
0
LINE
8
0
10
41.547066
20
19.832791
11
41.050904
21
21.141124
0
LINE
8
0
10
41.050904
20
21.141124
11
40.750000
21
21.399433
0
LINE
8
0
10
40.750000
20
21.399433
11
40.200726
21
21.648549
0
LINE
8
0
10
40.200726
20
21.648549
11
40.215389
21
21.921089
0
LINE
8
0
10
40.215389
20
21.921089
11
40.781385
21
21.982766
0
LINE
8
0
10
40.781385
20
21.982766
11
41.447766
21
21.918777
0
LINE
8
0
10
41.447766
20
21.918777
11
42.367832
21
20.958197
0
LINE
8
0
10
42.367832
20
20.958197
11
42.807075
21
18.498656
0
LINE
8
0
10
42.807075
20
18.498656
11
42.848823
21
14.073563
0
LINE
8
0
10
42.848823
20
14.073563
11
42.746676
21
10.978124
0
LINE
8
0
10
42.746676
20
10.978124
11
42.407091
21
2.561714
0
LINE
8
0
10
42.407091
20
2.561714
11
42.203545
21
11.728380
0
LINE
8
0
10
349.654508
20
53.311714
11
349.918698
21
53.462373
0
LINE
8
0
10
349.918698
20
53.462373
11
351.349762
21
53.730293
0
LINE
8
0
10
351.349762
20
53.730293
11
355.208865
21
54.002534
0
LINE
8
0
10
355.208865
20
54.002534
11
358.500000
21
54.061714
0
LINE
8
0
10
358.500000
20
54.061714
11
361.791135
21
54.002534
0
LINE
8
0
10
361.791135
20
54.002534
11
365.650238
21
53.730293
0
LINE
8
0
10
365.650238
20
53.730293
11
367.081302
21
53.462373
0
LINE
8
0
10
367.081302
20
53.462373
11
367.345492
21
53.311714
0
LINE
8
0
10
367.345492
20
53.311714
11
367.248606
21
53.161054
0
LINE
8
0
10
367.248606
20
53.161054
11
366.008746
21
52.893134
0
LINE
8
0
10
366.008746
20
52.893134
11
362.077942
21
52.620893
0
LINE
8
0
10
362.077942
20
52.620893
11
358.500000
21
52.561714
0
LINE
8
0
10
358.500000
20
52.561714
11
354.922058
21
52.620893
0
LINE
8
0
10
354.922058
20
52.620893
11
350.991254
21
52.893134
0
LINE
8
0
10
350.991254
20
52.893134
11
349.751394
21
53.161054
0
LINE
8
0
10
349.751394
20
53.161054
11
349.654508
21
53.311714
0
LINE
8
0
10
279.000000
20
57.061714
11
279.051164
21
60.634508
0
LINE
8
0
10
279.051164
20
60.634508
11
279.286531
21
64.508907
0
LINE
8
0
10
279.286531
20
64.508907
11
279.518162
21
65.686390
0
LINE
8
0
10
279.518162
20
65.686390
11
279.648415
21
65.746632
0
LINE
8
0
10
279.648415
20
65.746632
11
279.768766
21
65.442019
0
LINE
8
0
10
279.768766
20
65.442019
11
279.948564
21
63.925778
0
LINE
8
0
10
279.948564
20
63.925778
11
280.074433
21
60.063677
0
LINE
8
0
10
280.074433
20
60.063677
11
279.997392
21
53.853868
0
LINE
8
0
10
279.997392
20
53.853868
11
279.775641
21
49.987455
0
LINE
8
0
10
279.775641
20
49.987455
11
279.558160
21
48.466285
0
LINE
8
0
10
279.558160
20
48.466285
11
279.430212
21
48.158592
0
LINE
8
0
10
279.430212
20
48.158592
11
279.343791
21
48.262666
0
LINE
8
0
10
279.343791
20
48.262666
11
279.190108
21
49.518098
0
LINE
8
0
10
279.190108
20
49.518098
11
279.033946
21
53.471702
0
LINE
8
0
10
279.033946
20
53.471702
11
279.000000
21
57.061714
0
LINE
8
0
10
435.360496
20
12.061714
11
435.368141
21
13.873115
0
LINE
8
0
10
435.368141
20
13.873115
11
435.424688
21
16.549629
0
LINE
8
0
10
435.424688
20
16.549629
11
435.526005
21
17.834541
0
LINE
8
0
10
435.526005
20
17.834541
11
435.659802
21
17.571992
0
LINE
8
0
10
435.659802
20
17.571992
11
435.735039
21
16.811714
0
LINE
8
0
10
435.735039
20
16.811714
11
435.889538
21
12.061714
0
LINE
8
0
10
435.889538
20
12.061714
11
435.735039
21
7.311714
0
LINE
8
0
10
435.735039
20
7.311714
11
435.659802
21
6.551435
0
LINE
8
0
10
435.659802
20
6.551435
11
435.526005
21
6.288886
0
LINE
8
0
10
435.526005
20
6.288886
11
435.424688
21
7.573799
0
LINE
8
0
10
435.424688
20
7.573799
11
435.368141
21
10.250312
0
LINE
8
0
10
435.368141
20
10.250312
11
435.360496
21
12.061714
0
LINE
8
0
10
192.360496
20
12.061714
11
192.368141
21
13.873115
0
LINE
8
0
10
192.368141
20
13.873115
11
192.424688
21
16.549629
0
LINE
8
0
10
192.424688
20
16.549629
11
192.526005
21
17.834541
0
LINE
8
0
10
192.526005
20
17.834541
11
192.659802
21
17.571992
0
LINE
8
0
10
192.659802
20
17.571992
11
192.735039
21
16.811714
0
LINE
8
0
10
192.735039
20
16.811714
11
192.889538
21
12.061714
0
LINE
8
0
10
192.889538
20
12.061714
11
192.735039
21
7.311714
0
LINE
8
0
10
192.735039
20
7.311714
11
192.659802
21
6.551435
0
LINE
8
0
10
192.659802
20
6.551435
11
192.526005
21
6.288886
0
LINE
8
0
10
192.526005
20
6.288886
11
192.424688
21
7.573799
0
LINE
8
0
10
192.424688
20
7.573799
11
192.368141
21
10.250312
0
LINE
8
0
10
192.368141
20
10.250312
11
192.360496
21
12.061714
0
LINE
8
0
10
169.823474
20
56.564048
11
169.757055
21
59.865161
0
LINE
8
0
10
169.757055
20
59.865161
11
169.886860
21
63.608163
0
LINE
8
0
10
169.886860
20
63.608163
11
170.105943
21
64.890983
0
LINE
8
0
10
170.105943
20
64.890983
11
170.250000
21
65.064048
0
LINE
8
0
10
170.250000
20
65.064048
11
170.400659
21
64.890093
0
LINE
8
0
10
170.400659
20
64.890093
11
170.668579
21
63.605958
0
LINE
8
0
10
170.668579
20
63.605958
11
170.940820
21
59.862288
0
LINE
8
0
10
170.940820
20
59.862288
11
171.000000
21
56.561714
0
LINE
8
0
10
171.000000
20
56.561714
11
170.966344
21
53.261323
0
LINE
8
0
10
170.966344
20
53.261323
11
170.811520
21
49.518501
0
LINE
8
0
10
170.811520
20
49.518501
11
170.659154
21
48.235200
0
LINE
8
0
10
170.659154
20
48.235200
11
170.573474
21
48.061714
0
LINE
8
0
10
170.573474
20
48.061714
11
170.481191
21
48.235248
0
LINE
8
0
10
170.481191
20
48.235248
11
170.279988
21
49.518901
0
LINE
8
0
10
170.279988
20
49.518901
11
169.982728
21
53.262751
0
LINE
8
0
10
169.982728
20
53.262751
11
169.823474
21
56.564048
0
LINE
8
0
10
481.360496
20
12.061714
11
481.368141
21
13.873115
0
LINE
8
0
10
481.368141
20
13.873115
11
481.424688
21
16.549629
0
LINE
8
0
10
481.424688
20
16.549629
11
481.526005
21
17.834541
0
LINE
8
0
10
481.526005
20
17.834541
11
481.659802
21
17.571992
0
LINE
8
0
10
481.659802
20
17.571992
11
481.735039
21
16.811714
0
LINE
8
0
10
481.735039
20
16.811714
11
481.889538
21
12.061714
0
LINE
8
0
10
481.889538
20
12.061714
11
481.735039
21
7.311714
0
LINE
8
0
10
481.735039
20
7.311714
11
481.659802
21
6.551435
0
LINE
8
0
10
481.659802
20
6.551435
11
481.526005
21
6.288886
0
LINE
8
0
10
481.526005
20
6.288886
11
481.424688
21
7.573799
0
LINE
8
0
10
481.424688
20
7.573799
11
481.368141
21
10.250312
0
LINE
8
0
10
481.368141
20
10.250312
11
481.360496
21
12.061714
0
LINE
8
0
10
452.360496
20
12.061714
11
452.368141
21
13.873115
0
LINE
8
0
10
452.368141
20
13.873115
11
452.424688
21
16.549629
0
LINE
8
0
10
452.424688
20
16.549629
11
452.526005
21
17.834541
0
LINE
8
0
10
452.526005
20
17.834541
11
452.659802
21
17.571992
0
LINE
8
0
10
452.659802
20
17.571992
11
452.735039
21
16.811714
0
LINE
8
0
10
452.735039
20
16.811714
11
452.889538
21
12.061714
0
LINE
8
0
10
452.889538
20
12.061714
11
452.735039
21
7.311714
0
LINE
8
0
10
452.735039
20
7.311714
11
452.659802
21
6.551435
0
LINE
8
0
10
452.659802
20
6.551435
11
452.526005
21
6.288886
0
LINE
8
0
10
452.526005
20
6.288886
11
452.424688
21
7.573799
0
LINE
8
0
10
452.424688
20
7.573799
11
452.368141
21
10.250312
0
LINE
8
0
10
452.368141
20
10.250312
11
452.360496
21
12.061714
0
LINE
8
0
10
310.360496
20
12.061714
11
310.368141
21
13.873115
0
LINE
8
0
10
310.368141
20
13.873115
11
310.424688
21
16.549629
0
LINE
8
0
10
310.424688
20
16.549629
11
310.526005
21
17.834541
0
LINE
8
0
10
310.526005
20
17.834541
11
310.659802
21
17.571992
0
LINE
8
0
10
310.659802
20
17.571992
11
310.735039
21
16.811714
0
LINE
8
0
10
310.735039
20
16.811714
11
310.889538
21
12.061714
0
LINE
8
0
10
310.889538
20
12.061714
11
310.735039
21
7.311714
0
LINE
8
0
10
310.735039
20
7.311714
11
310.659802
21
6.551435
0
LINE
8
0
10
310.659802
20
6.551435
11
310.526005
21
6.288886
0
LINE
8
0
10
310.526005
20
6.288886
11
310.424688
21
7.573799
0
LINE
8
0
10
310.424688
20
7.573799
11
310.368141
21
10.250312
0
LINE
8
0
10
310.368141
20
10.250312
11
310.360496
21
12.061714
0
LINE
8
0
10
434.360496
20
12.061714
11
434.368141
21
13.873115
0
LINE
8
0
10
434.368141
20
13.873115
11
434.424688
21
16.549629
0
LINE
8
0
10
434.424688
20
16.549629
11
434.526005
21
17.834541
0
LINE
8
0
10
434.526005
20
17.834541
11
434.659802
21
17.571992
0
LINE
8
0
10
434.659802
20
17.571992
11
434.735039
21
16.811714
0
LINE
8
0
10
434.735039
20
16.811714
11
434.889538
21
12.061714
0
LINE
8
0
10
434.889538
20
12.061714
11
434.735039
21
7.311714
0
LINE
8
0
10
434.735039
20
7.311714
11
434.659802
21
6.551435
0
LINE
8
0
10
434.659802
20
6.551435
11
434.526005
21
6.288886
0
LINE
8
0
10
434.526005
20
6.288886
11
434.424688
21
7.573799
0
LINE
8
0
10
434.424688
20
7.573799
11
434.368141
21
10.250312
0
LINE
8
0
10
434.368141
20
10.250312
11
434.360496
21
12.061714
0
LINE
8
0
10
191.360496
20
12.061714
11
191.368141
21
13.873115
0
LINE
8
0
10
191.368141
20
13.873115
11
191.424688
21
16.549629
0
LINE
8
0
10
191.424688
20
16.549629
11
191.526005
21
17.834541
0
LINE
8
0
10
191.526005
20
17.834541
11
191.659802
21
17.571992
0
LINE
8
0
10
191.659802
20
17.571992
11
191.735039
21
16.811714
0
LINE
8
0
10
191.735039
20
16.811714
11
191.889538
21
12.061714
0
LINE
8
0
10
191.889538
20
12.061714
11
191.735039
21
7.311714
0
LINE
8
0
10
191.735039
20
7.311714
11
191.659802
21
6.551435
0
LINE
8
0
10
191.659802
20
6.551435
11
191.526005
21
6.288886
0
LINE
8
0
10
191.526005
20
6.288886
11
191.424688
21
7.573799
0
LINE
8
0
10
191.424688
20
7.573799
11
191.368141
21
10.250312
0
LINE
8
0
10
191.368141
20
10.250312
11
191.360496
21
12.061714
0
LINE
8
0
10
4.360496
20
12.061714
11
4.368141
21
13.873115
0
LINE
8
0
10
4.368141
20
13.873115
11
4.424688
21
16.549629
0
LINE
8
0
10
4.424688
20
16.549629
11
4.526005
21
17.834541
0
LINE
8
0
10
4.526005
20
17.834541
11
4.659802
21
17.571992
0
LINE
8
0
10
4.659802
20
17.571992
11
4.735039
21
16.811714
0
LINE
8
0
10
4.735039
20
16.811714
11
4.889538
21
12.061714
0
LINE
8
0
10
4.889538
20
12.061714
11
4.735039
21
7.311714
0
LINE
8
0
10
4.735039
20
7.311714
11
4.659802
21
6.551435
0
LINE
8
0
10
4.659802
20
6.551435
11
4.526005
21
6.288886
0
LINE
8
0
10
4.526005
20
6.288886
11
4.424688
21
7.573799
0
LINE
8
0
10
4.424688
20
7.573799
11
4.368141
21
10.250312
0
LINE
8
0
10
4.368141
20
10.250312
11
4.360496
21
12.061714
0
LINE
8
0
10
87.280173
20
53.797985
11
91.895745
21
53.951365
0
LINE
8
0
10
91.895745
20
53.951365
11
96.280173
21
53.792444
0
LINE
8
0
10
96.280173
20
53.792444
11
96.944156
21
53.715959
0
LINE
8
0
10
96.944156
20
53.715959
11
97.092801
21
53.580579
0
LINE
8
0
10
97.092801
20
53.580579
11
95.799727
21
53.478929
0
LINE
8
0
10
95.799727
20
53.478929
11
93.221783
21
53.423339
0
LINE
8
0
10
93.221783
20
53.423339
11
91.500000
21
53.416669
0
LINE
8
0
10
91.500000
20
53.416669
11
89.789654
21
53.425452
0
LINE
8
0
10
89.789654
20
53.425452
11
87.296309
21
53.484164
0
LINE
8
0
10
87.296309
20
53.484164
11
86.154813
21
53.587313
0
LINE
8
0
10
86.154813
20
53.587313
11
86.503629
21
53.722387
0
LINE
8
0
10
86.503629
20
53.722387
11
87.280173
21
53.797985
0
LINE
8
0
10
154.000000
20
7.387276
11
153.845312
21
8.116636
0
LINE
8
0
10
153.845312
20
8.116636
11
153.845312
21
11.985635
0
LINE
8
0
10
153.845312
20
11.985635
11
154.000000
21
14.648741
0
LINE
8
0
10
154.000000
20
14.648741
11
154.312500
21
17.774342
0
LINE
8
0
10
154.312500
20
17.774342
11
155.283387
21
21.250411
0
LINE
8
0
10
155.283387
20
21.250411
11
156.000000
21
21.809347
0
LINE
8
0
10
156.000000
20
21.809347
11
156.611869
21
21.944102
0
LINE
8
0
10
156.611869
20
21.944102
11
156.759021
21
21.724346
0
LINE
8
0
10
156.759021
20
21.724346
11
156.300758
21
21.360198
0
LINE
8
0
10
156.300758
20
21.360198
11
155.806248
21
20.497780
0
LINE
8
0
10
155.806248
20
20.497780
11
155.011702
21
16.437074
0
LINE
8
0
10
155.011702
20
16.437074
11
154.800758
21
13.694105
0
LINE
8
0
10
154.800758
20
13.694105
11
154.644526
21
11.088897
0
LINE
8
0
10
154.644526
20
11.088897
11
154.217872
21
7.728540
0
LINE
8
0
10
154.217872
20
7.728540
11
154.000000
21
7.387276
0
LINE
8
0
10
230.000000
20
64.905163
11
229.856037
21
65.604838
0
LINE
8
0
10
229.856037
20
65.604838
11
228.888515
21
68.859952
0
LINE
8
0
10
228.888515
20
68.859952
11
227.424171
21
73.337801
0
LINE
8
0
10
227.424171
20
73.337801
11
225.954167
21
77.536448
0
LINE
8
0
10
225.954167
20
77.536448
11
225.370532
21
79.061714
0
LINE
8
0
10
225.370532
20
79.061714
11
225.228617
21
79.135753
0
LINE
8
0
10
225.228617
20
79.135753
11
224.696548
21
78.442060
0
LINE
8
0
10
224.696548
20
78.442060
11
223.475405
21
75.823140
0
LINE
8
0
10
223.475405
20
75.823140
11
221.610693
21
70.857856
0
LINE
8
0
10
221.610693
20
70.857856
11
220.248335
21
66.266114
0
LINE
8
0
10
220.248335
20
66.266114
11
220.018946
21
64.811714
0
LINE
8
0
10
220.018946
20
64.811714
11
220.406121
21
64.520503
0
LINE
8
0
10
220.406121
20
64.520503
11
223.060089
21
64.120893
0
LINE
8
0
10
223.060089
20
64.120893
11
225.000000
21
64.061714
0
LINE
8
0
10
225.000000
20
64.061714
11
226.941406
21
64.128267
0
LINE
8
0
10
226.941406
20
64.128267
11
229.605469
21
64.577667
0
LINE
8
0
10
229.605469
20
64.577667
11
230.000000
21
64.905163
0
LINE
8
0
10
94.201237
20
72.052509
11
93.130415
21
75.096731
0
LINE
8
0
10
93.130415
20
75.096731
11
91.730039
21
78.346435
0
LINE
8
0
10
91.730039
20
78.346435
11
91.091590
21
79.288226
0
LINE
8
0
10
91.091590
20
79.288226
11
90.901509
21
79.302509
0
LINE
8
0
10
90.901509
20
79.302509
11
90.508997
21
78.564087
0
LINE
8
0
10
90.508997
20
78.564087
11
89.279292
21
75.125469
0
LINE
8
0
10
89.279292
20
75.125469
11
88.593559
21
72.848798
0
LINE
8
0
10
88.593559
20
72.848798
11
87.914947
21
70.509295
0
LINE
8
0
10
87.914947
20
70.509295
11
86.733328
21
66.646404
0
LINE
8
0
10
86.733328
20
66.646404
11
86.375857
21
65.598798
0
LINE
8
0
10
86.375857
20
65.598798
11
86.300243
21
64.823554
0
LINE
8
0
10
86.300243
20
64.823554
11
87.615302
21
64.213635
0
LINE
8
0
10
87.615302
20
64.213635
11
89.764634
21
64.075739
0
LINE
8
0
10
89.764634
20
64.075739
11
91.303453
21
64.061714
0
LINE
8
0
10
91.303453
20
64.061714
11
96.820884
21
64.061714
0
LINE
8
0
10
96.820884
20
64.061714
11
94.201237
21
72.052509
0
LINE
8
0
10
363.753313
20
65.311714
11
363.396977
21
66.334723
0
LINE
8
0
10
363.396977
20
66.334723
11
361.953174
21
70.631258
0
LINE
8
0
10
361.953174
20
70.631258
11
361.043536
21
73.375592
0
LINE
8
0
10
361.043536
20
73.375592
11
360.143627
21
75.994672
0
LINE
8
0
10
360.143627
20
75.994672
11
358.765509
21
79.445429
0
LINE
8
0
10
358.765509
20
79.445429
11
358.457040
21
79.852087
0
LINE
8
0
10
358.457040
20
79.852087
11
358.339188
21
79.626614
0
LINE
8
0
10
358.339188
20
79.626614
11
357.848226
21
78.339572
0
LINE
8
0
10
357.848226
20
78.339572
11
356.645353
21
74.814883
0
LINE
8
0
10
356.645353
20
74.814883
11
355.666037
21
71.788208
0
LINE
8
0
10
355.666037
20
71.788208
11
353.212418
21
64.061714
0
LINE
8
0
10
353.212418
20
64.061714
11
358.713198
21
64.061714
0
LINE
8
0
10
358.713198
20
64.061714
11
361.226495
21
64.129854
0
LINE
8
0
10
361.226495
20
64.129854
11
363.666034
21
64.734884
0
LINE
8
0
10
363.666034
20
64.734884
11
363.753313
21
65.311714
0
LINE
8
0
10
125.595117
20
8.635118
11
126.403791
21
11.340420
0
LINE
8
0
10
126.403791
20
11.340420
11
125.727967
21
16.119540
0
LINE
8
0
10
125.727967
20
16.119540
11
124.226732
21
18.311714
0
LINE
8
0
10
124.226732
20
18.311714
11
123.390992
21
19.112786
0
LINE
8
0
10
123.390992
20
19.112786
11
121.636953
21
19.929486
0
LINE
8
0
10
121.636953
20
19.929486
11
119.816024
21
19.704265
0
LINE
8
0
10
119.816024
20
19.704265
11
117.980031
21
18.443534
0
LINE
8
0
10
117.980031
20
18.443534
11
117.072580
21
17.426855
0
LINE
8
0
10
117.072580
20
17.426855
11
115.863430
21
15.433453
0
LINE
8
0
10
115.863430
20
15.433453
11
115.094632
21
11.276558
0
LINE
8
0
10
115.094632
20
11.276558
11
116.284170
21
7.631388
0
LINE
8
0
10
116.284170
20
7.631388
11
119.142844
21
5.384159
0
LINE
8
0
10
119.142844
20
5.384159
11
121.107731
21
5.061714
0
LINE
8
0
10
121.107731
20
5.061714
11
122.684255
21
5.202422
0
LINE
8
0
10
122.684255
20
5.202422
11
124.720421
21
6.823865
0
LINE
8
0
10
124.720421
20
6.823865
11
125.595117
21
8.635118
0
LINE
8
0
10
263.460097
20
8.311969
11
264.264777
21
11.240298
0
LINE
8
0
10
264.264777
20
11.240298
11
263.473885
21
16.586639
0
LINE
8
0
10
263.473885
20
16.586639
11
261.935156
21
18.620396
0
LINE
8
0
10
261.935156
20
18.620396
11
260.918840
21
19.363246
0
LINE
8
0
10
260.918840
20
19.363246
11
258.881353
21
19.919765
0
LINE
8
0
10
258.881353
20
19.919765
11
256.074816
21
18.833862
0
LINE
8
0
10
256.074816
20
18.833862
11
253.531988
21
14.927088
0
LINE
8
0
10
253.531988
20
14.927088
11
253.383747
21
9.783476
0
LINE
8
0
10
253.383747
20
9.783476
11
254.556704
21
7.284220
0
LINE
8
0
10
254.556704
20
7.284220
11
255.422107
21
6.323016
0
LINE
8
0
10
255.422107
20
6.323016
11
257.712831
21
5.204334
0
LINE
8
0
10
257.712831
20
5.204334
11
259.107731
21
5.061714
0
LINE
8
0
10
259.107731
20
5.061714
11
260.659050
21
5.198175
0
LINE
8
0
10
260.659050
20
5.198175
11
262.656655
21
6.689945
0
LINE
8
0
10
262.656655
20
6.689945
11
263.460097
21
8.311969
0
LINE
8
0
10
69.964816
20
6.995972
11
70.695915
21
9.549582
0
LINE
8
0
10
70.695915
20
9.549582
11
71.000000
21
12.972919
0
LINE
8
0
10
71.000000
20
12.972919
11
70.888763
21
15.022067
0
LINE
8
0
10
70.888763
20
15.022067
11
69.747149
21
17.653034
0
LINE
8
0
10
69.747149
20
17.653034
11
68.548963
21
18.621589
0
LINE
8
0
10
68.548963
20
18.621589
11
66.913881
21
19.420547
0
LINE
8
0
10
66.913881
20
19.420547
11
63.903593
21
19.411893
0
LINE
8
0
10
63.903593
20
19.411893
11
61.540691
21
17.504075
0
LINE
8
0
10
61.540691
20
17.504075
11
60.186232
21
13.988616
0
LINE
8
0
10
60.186232
20
13.988616
11
60.000000
21
11.719120
0
LINE
8
0
10
60.000000
20
11.719120
11
60.328364
21
9.693017
0
LINE
8
0
10
60.328364
20
9.693017
11
62.511286
21
6.520678
0
LINE
8
0
10
62.511286
20
6.520678
11
65.742479
21
4.989149
0
LINE
8
0
10
65.742479
20
4.989149
11
68.837961
21
5.659618
0
LINE
8
0
10
68.837961
20
5.659618
11
69.964816
21
6.995972
0
LINE
8
0
10
363.555163
20
7.235518
11
363.761287
21
8.297722
0
LINE
8
0
10
363.761287
20
8.297722
11
363.191573
21
10.026011
0
LINE
8
0
10
363.191573
20
10.026011
11
362.391893
21
10.764421
0
LINE
8
0
10
362.391893
20
10.764421
11
361.357322
21
11.410889
0
LINE
8
0
10
361.357322
20
11.410889
11
359.574156
21
11.865668
0
LINE
8
0
10
359.574156
20
11.865668
11
358.229750
21
11.230071
0
LINE
8
0
10
358.229750
20
11.230071
11
357.393052
21
9.536693
0
LINE
8
0
10
357.393052
20
9.536693
11
357.186642
21
8.303524
0
LINE
8
0
10
357.186642
20
8.303524
11
357.092879
21
6.529634
0
LINE
8
0
10
357.092879
20
6.529634
11
358.238013
21
5.145794
0
LINE
8
0
10
358.238013
20
5.145794
11
359.869254
21
5.061714
0
LINE
8
0
10
359.869254
20
5.061714
11
361.301106
21
5.177145
0
LINE
8
0
10
361.301106
20
5.177145
11
363.074772
21
6.223183
0
LINE
8
0
10
363.074772
20
6.223183
11
363.555163
21
7.235518
0
LINE
8
0
10
362.386082
20
14.590652
11
363.297847
21
16.028156
0
LINE
8
0
10
363.297847
20
16.028156
11
362.507852
21
18.714782
0
LINE
8
0
10
362.507852
20
18.714782
11
360.916567
21
19.588194
0
LINE
8
0
10
360.916567
20
19.588194
11
359.220210
21
19.860406
0
LINE
8
0
10
359.220210
20
19.860406
11
357.250499
21
18.392475
0
LINE
8
0
10
357.250499
20
18.392475
11
357.000000
21
16.669363
0
LINE
8
0
10
357.000000
20
16.669363
11
357.117318
21
15.358829
0
LINE
8
0
10
357.117318
20
15.358829
11
357.970592
21
13.583509
0
LINE
8
0
10
357.970592
20
13.583509
11
359.459228
21
13.008982
0
LINE
8
0
10
359.459228
20
13.008982
11
361.355842
21
13.723008
0
LINE
8
0
10
361.355842
20
13.723008
11
362.386082
21
14.590652
0
LINE
8
0
10
317.989431
20
14.548979
11
318.515289
21
15.358180
0
LINE
8
0
10
318.515289
20
15.358180
11
318.770047
21
16.918614
0
LINE
8
0
10
318.770047
20
16.918614
11
317.408370
21
18.657968
0
LINE
8
0
10
317.408370
20
18.657968
11
315.531385
21
19.061714
0
LINE
8
0
10
315.531385
20
19.061714
11
314.230519
21
18.950608
0
LINE
8
0
10
314.230519
20
18.950608
11
313.093750
21
17.603398
0
LINE
8
0
10
313.093750
20
17.603398
11
313.000000
21
16.061714
0
LINE
8
0
10
313.000000
20
16.061714
11
313.093750
21
14.636101
0
LINE
8
0
10
313.093750
20
14.636101
11
313.985333
21
13.211509
0
LINE
8
0
10
313.985333
20
13.211509
11
314.877555
21
13.061714
0
LINE
8
0
10
314.877555
20
13.061714
11
316.566160
21
13.498598
0
LINE
8
0
10
316.566160
20
13.498598
11
317.989431
21
14.548979
0
LINE
8
0
10
11.417611
20
13.377811
11
12.234581
21
14.148816
0
LINE
8
0
10
12.234581
20
14.148816
11
12.915480
21
15.859465
0
LINE
8
0
10
12.915480
20
15.859465
11
12.423247
21
17.474725
0
LINE
8
0
10
12.423247
20
17.474725
11
10.874991
21
18.610311
0
LINE
8
0
10
10.874991
20
18.610311
11
9.741449
21
18.878136
0
LINE
8
0
10
9.741449
20
18.878136
11
8.243522
21
18.957589
0
LINE
8
0
10
8.243522
20
18.957589
11
7.071826
21
17.568539
0
LINE
8
0
10
7.071826
20
17.568539
11
7.000000
21
15.628136
0
LINE
8
0
10
7.000000
20
15.628136
11
7.062868
21
14.336127
0
LINE
8
0
10
7.062868
20
14.336127
11
7.581644
21
12.631882
0
LINE
8
0
10
7.581644
20
12.631882
11
8.659658
21
12.082743
0
LINE
8
0
10
8.659658
20
12.082743
11
10.339132
21
12.667203
0
LINE
8
0
10
10.339132
20
12.667203
11
11.417611
21
13.377811
0
ENDSEC
0
EOF
