999
DXF File generated by ImageToStl.com - Free Image and 3D model conversion tools
0
SECTION
2
HEADER
9
$ACADVER
1
AC1009
9
$EXTMIN
10
0
20
0
9
$EXTMAX
10
609.385209
20
193.035341
0
ENDSEC
0
SECTION
2
ENTITIES
0
LINE
8
0
10
186.000000
20
90.035341
11
186.000000
21
142.035341
0
LINE
8
0
10
186.000000
20
142.035341
11
201.000000
21
142.035341
0
LINE
8
0
10
201.000000
20
142.035341
11
216.000000
21
142.035341
0
LINE
8
0
10
216.000000
20
142.035341
11
216.000000
21
135.035341
0
LINE
8
0
10
216.000000
20
135.035341
11
216.052979
21
132.317373
0
LINE
8
0
10
216.052979
20
132.317373
11
216.410718
21
128.587685
0
LINE
8
0
10
216.410718
20
128.587685
11
216.671417
21
128.035341
0
LINE
8
0
10
216.671417
20
128.035341
11
217.278462
21
128.396809
0
LINE
8
0
10
217.278462
20
128.396809
11
219.974899
21
130.837608
0
LINE
8
0
10
219.974899
20
130.837608
11
221.732178
21
132.616314
0
LINE
8
0
10
221.732178
20
132.616314
11
224.633879
21
135.295832
0
LINE
8
0
10
224.633879
20
135.295832
11
231.312089
21
139.619937
0
LINE
8
0
10
231.312089
20
139.619937
11
238.841953
21
142.558429
0
LINE
8
0
10
238.841953
20
142.558429
11
246.845766
21
144.104466
0
LINE
8
0
10
246.845766
20
144.104466
11
254.945822
21
144.251206
0
LINE
8
0
10
254.945822
20
144.251206
11
262.764415
21
142.991806
0
LINE
8
0
10
262.764415
20
142.991806
11
269.923840
21
140.319424
0
LINE
8
0
10
269.923840
20
140.319424
11
276.046389
21
136.227218
0
LINE
8
0
10
276.046389
20
136.227218
11
278.600802
21
133.646542
0
LINE
8
0
10
278.600802
20
133.646542
11
281.260909
21
130.088892
0
LINE
8
0
10
281.260909
20
130.088892
11
284.262991
21
123.737031
0
LINE
8
0
10
284.262991
20
123.737031
11
285.687299
21
118.279776
0
LINE
8
0
10
285.687299
20
118.279776
11
286.715251
21
111.407769
0
LINE
8
0
10
286.715251
20
111.407769
11
287.402828
21
102.746777
0
LINE
8
0
10
287.402828
20
102.746777
11
287.806011
21
91.922566
0
LINE
8
0
10
287.806011
20
91.922566
11
287.980778
21
78.560901
0
LINE
8
0
10
287.980778
20
78.560901
11
288.000000
21
70.811576
0
LINE
8
0
10
288.000000
20
70.811576
11
288.000000
21
39.035341
0
LINE
8
0
10
288.000000
20
39.035341
11
272.000000
21
39.035341
0
LINE
8
0
10
272.000000
20
39.035341
11
256.000000
21
39.035341
0
LINE
8
0
10
256.000000
20
39.035341
11
256.000000
21
73.323452
0
LINE
8
0
10
256.000000
20
73.323452
11
255.998932
21
79.242696
0
LINE
8
0
10
255.998932
20
79.242696
11
255.981127
21
88.990727
0
LINE
8
0
10
255.981127
20
88.990727
11
255.921835
21
96.306104
0
LINE
8
0
10
255.921835
20
96.306104
11
255.796350
21
101.614370
0
LINE
8
0
10
255.796350
20
101.614370
11
255.429956
21
106.744311
0
LINE
8
0
10
255.429956
20
106.744311
11
254.479134
21
110.531084
0
LINE
8
0
10
254.479134
20
110.531084
11
253.750000
21
112.073452
0
LINE
8
0
10
253.750000
20
112.073452
11
252.537611
21
114.174069
0
LINE
8
0
10
252.537611
20
114.174069
11
249.659732
21
117.321787
0
LINE
8
0
10
249.659732
20
117.321787
11
245.982414
21
119.162579
0
LINE
8
0
10
245.982414
20
119.162579
11
241.271291
21
119.813764
0
LINE
8
0
10
241.271291
20
119.813764
11
238.454813
21
119.729917
0
LINE
8
0
10
238.454813
20
119.729917
11
235.091438
21
119.317455
0
LINE
8
0
10
235.091438
20
119.317455
11
229.216081
21
117.507604
0
LINE
8
0
10
229.216081
20
117.507604
11
224.434338
21
114.357122
0
LINE
8
0
10
224.434338
20
114.357122
11
220.696315
21
109.833137
0
LINE
8
0
10
220.696315
20
109.833137
11
219.203106
21
107.045807
0
LINE
8
0
10
219.203106
20
107.045807
11
218.737776
21
105.770140
0
LINE
8
0
10
218.737776
20
105.770140
11
218.054409
21
101.545028
0
LINE
8
0
10
218.054409
20
101.545028
11
217.710052
21
96.031337
0
LINE
8
0
10
217.710052
20
96.031337
11
217.537601
21
90.819754
0
LINE
8
0
10
217.537601
20
90.819754
11
217.396561
21
84.118708
0
LINE
8
0
10
217.396561
20
84.118708
11
217.274687
21
75.704631
0
LINE
8
0
10
217.274687
20
75.704631
11
217.217111
21
70.785341
0
LINE
8
0
10
217.217111
20
70.785341
11
216.854682
21
38.035341
0
LINE
8
0
10
216.854682
20
38.035341
11
201.427341
21
38.035341
0
LINE
8
0
10
201.427341
20
38.035341
11
186.000000
21
38.035341
0
LINE
8
0
10
186.000000
20
38.035341
11
186.000000
21
90.035341
0
LINE
8
0
10
428.426206
20
1.758664
11
428.713261
21
2.509326
0
LINE
8
0
10
428.713261
20
2.509326
11
430.090960
21
6.056732
0
LINE
8
0
10
430.090960
20
6.056732
11
432.315269
21
11.756135
0
LINE
8
0
10
432.315269
20
11.756135
11
435.116382
21
18.916198
0
LINE
8
0
10
435.116382
20
18.916198
11
436.648925
21
22.827936
0
LINE
8
0
10
436.648925
20
22.827936
11
438.158182
21
26.738260
0
LINE
8
0
10
438.158182
20
26.738260
11
440.787049
21
33.887865
0
LINE
8
0
10
440.787049
20
33.887865
11
442.702742
21
39.568529
0
LINE
8
0
10
442.702742
20
39.568529
11
443.672889
21
43.091189
0
LINE
8
0
10
443.672889
20
43.091189
11
443.730765
21
43.827936
0
LINE
8
0
10
443.730765
20
43.827936
11
443.582625
21
44.247022
0
LINE
8
0
10
443.582625
20
44.247022
11
442.724791
21
46.467945
0
LINE
8
0
10
442.724791
20
46.467945
11
441.185232
21
50.365184
0
LINE
8
0
10
441.185232
20
50.365184
11
439.044360
21
55.737920
0
LINE
8
0
10
439.044360
20
55.737920
11
436.382589
21
62.385330
0
LINE
8
0
10
436.382589
20
62.385330
11
433.280332
21
70.106595
0
LINE
8
0
10
433.280332
20
70.106595
11
427.976938
21
83.262673
0
LINE
8
0
10
427.976938
20
83.262673
11
424.125273
21
92.789982
0
LINE
8
0
10
424.125273
20
92.789982
11
420.283409
21
102.292553
0
LINE
8
0
10
420.283409
20
102.292553
11
415.028395
21
115.326524
0
LINE
8
0
10
415.028395
20
115.326524
11
411.977970
21
122.916967
0
LINE
8
0
10
411.977970
20
122.916967
11
409.381396
21
129.399822
0
LINE
8
0
10
409.381396
20
129.399822
11
407.317118
21
134.579240
0
LINE
8
0
10
407.317118
20
134.579240
11
405.863579
21
138.259371
0
LINE
8
0
10
405.863579
20
138.259371
11
405.099222
21
140.244364
0
LINE
8
0
10
405.099222
20
140.244364
11
405.000000
21
140.539982
0
LINE
8
0
10
405.000000
20
140.539982
11
405.304077
21
140.639489
0
LINE
8
0
10
405.304077
20
140.639489
11
407.553378
21
140.816445
0
LINE
8
0
10
407.553378
20
140.816445
11
411.583496
21
140.950443
0
LINE
8
0
10
411.583496
20
140.950443
11
416.905579
21
141.025231
0
LINE
8
0
10
416.905579
20
141.025231
11
419.898341
21
141.035341
0
LINE
8
0
10
419.898341
20
141.035341
11
434.796682
21
141.035341
0
LINE
8
0
10
434.796682
20
141.035341
11
439.289652
21
130.285341
0
LINE
8
0
10
439.289652
20
130.285341
11
440.350681
21
127.738100
0
LINE
8
0
10
440.350681
20
127.738100
11
443.128035
21
121.029360
0
LINE
8
0
10
443.128035
20
121.029360
11
448.178147
21
108.760927
0
LINE
8
0
10
448.178147
20
108.760927
11
451.547708
21
100.535341
0
LINE
8
0
10
451.547708
20
100.535341
11
453.119813
21
96.704208
0
LINE
8
0
10
453.119813
20
96.704208
11
455.984416
21
89.810132
0
LINE
8
0
10
455.984416
20
89.810132
11
458.247456
21
84.479179
0
LINE
8
0
10
458.247456
20
84.479179
11
459.634427
21
81.357991
0
LINE
8
0
10
459.634427
20
81.357991
11
459.913603
21
80.828135
0
LINE
8
0
10
459.913603
20
80.828135
11
460.039332
21
80.914105
0
LINE
8
0
10
460.039332
20
80.914105
11
460.653359
21
81.993693
0
LINE
8
0
10
460.653359
20
81.993693
11
462.380550
21
85.653400
0
LINE
8
0
10
462.380550
20
85.653400
11
465.907530
21
93.701008
0
LINE
8
0
10
465.907530
20
93.701008
11
470.441265
21
104.474359
0
LINE
8
0
10
470.441265
20
104.474359
11
472.951970
21
110.578135
0
LINE
8
0
10
472.951970
20
110.578135
11
485.389528
21
141.035341
0
LINE
8
0
10
485.389528
20
141.035341
11
500.194764
21
141.035341
0
LINE
8
0
10
500.194764
20
141.035341
11
503.168824
21
141.019084
0
LINE
8
0
10
503.168824
20
141.019084
11
508.457647
21
140.898823
0
LINE
8
0
10
508.457647
20
140.898823
11
512.462579
21
140.683349
0
LINE
8
0
10
512.462579
20
140.683349
11
514.697823
21
140.398800
0
LINE
8
0
10
514.697823
20
140.398800
11
515.000000
21
140.238789
0
LINE
8
0
10
515.000000
20
140.238789
11
514.853279
21
139.797322
0
LINE
8
0
10
514.853279
20
139.797322
11
513.723014
21
136.866507
0
LINE
8
0
10
513.723014
20
136.866507
11
511.573645
21
131.445294
0
LINE
8
0
10
511.573645
20
131.445294
11
508.521168
21
123.821818
0
LINE
8
0
10
508.521168
20
123.821818
11
504.681578
21
114.284214
0
LINE
8
0
10
504.681578
20
114.284214
11
500.170872
21
103.120617
0
LINE
8
0
10
500.170872
20
103.120617
11
492.400208
21
83.956779
0
LINE
8
0
10
492.400208
20
83.956779
11
486.719190
21
69.988789
0
LINE
8
0
10
486.719190
20
69.988789
11
458.438380
21
0.535341
0
LINE
8
0
10
458.438380
20
0.535341
11
443.101964
21
0.258664
0
LINE
8
0
10
443.101964
20
0.258664
11
440.567550
21
0.214635
0
LINE
8
0
10
440.567550
20
0.214635
11
436.370477
21
0.158703
0
LINE
8
0
10
436.370477
20
0.158703
11
431.994774
21
0.181643
0
LINE
8
0
10
431.994774
20
0.181643
11
429.017782
21
0.485919
0
LINE
8
0
10
429.017782
20
0.485919
11
428.291396
21
1.206712
0
LINE
8
0
10
428.291396
20
1.206712
11
428.426206
21
1.758664
0
LINE
8
0
10
4.426794
20
39.764269
11
4.647578
21
40.322111
0
LINE
8
0
10
4.647578
20
40.322111
11
5.960741
21
43.574369
0
LINE
8
0
10
5.960741
20
43.574369
11
8.332416
21
49.420685
0
LINE
8
0
10
8.332416
20
49.420685
11
11.638267
21
57.555406
0
LINE
8
0
10
11.638267
20
57.555406
11
15.753958
21
67.672879
0
LINE
8
0
10
15.753958
20
67.672879
11
20.555151
21
79.467450
0
LINE
8
0
10
20.555151
20
79.467450
11
28.770271
21
99.635253
0
LINE
8
0
10
28.770271
20
99.635253
11
34.741248
21
114.285341
0
LINE
8
0
10
34.741248
20
114.285341
11
64.398758
21
187.035341
0
LINE
8
0
10
64.398758
20
187.035341
11
84.545003
21
187.035341
0
LINE
8
0
10
84.545003
20
187.035341
11
104.691247
21
187.035341
0
LINE
8
0
10
104.691247
20
187.035341
11
74.452561
21
112.785341
0
LINE
8
0
10
74.452561
20
112.785341
11
44.213876
21
38.535341
0
LINE
8
0
10
44.213876
20
38.535341
11
23.991863
21
38.264269
0
LINE
8
0
10
23.991863
20
38.264269
11
20.635285
21
38.220881
0
LINE
8
0
10
20.635285
20
38.220881
11
15.080322
21
38.165601
0
LINE
8
0
10
15.080322
20
38.165601
11
10.913364
21
38.164294
0
LINE
8
0
10
10.913364
20
38.164294
11
7.946912
21
38.231336
0
LINE
8
0
10
7.946912
20
38.231336
11
5.338025
21
38.491497
0
LINE
8
0
10
5.338025
20
38.491497
11
4.311281
21
39.211767
0
LINE
8
0
10
4.311281
20
39.211767
11
4.426794
21
39.764269
0
LINE
8
0
10
336.000000
20
37.700988
11
327.207211
21
39.547751
0
LINE
8
0
10
327.207211
20
39.547751
11
314.494329
21
43.655085
0
LINE
8
0
10
314.494329
20
43.655085
11
307.943842
21
46.727510
0
LINE
8
0
10
307.943842
20
46.727510
11
305.659318
21
48.220688
0
LINE
8
0
10
305.659318
20
48.220688
11
305.086684
21
48.707160
0
LINE
8
0
10
305.086684
20
48.707160
11
304.532890
21
49.869109
0
LINE
8
0
10
304.532890
20
49.869109
11
304.891385
21
52.027595
0
LINE
8
0
10
304.891385
20
52.027595
11
306.310557
21
56.076059
0
LINE
8
0
10
306.310557
20
56.076059
11
307.464268
21
59.088234
0
LINE
8
0
10
307.464268
20
59.088234
11
308.946516
21
62.823477
0
LINE
8
0
10
308.946516
20
62.823477
11
310.858721
21
67.292054
0
LINE
8
0
10
310.858721
20
67.292054
11
311.711171
21
69.022159
0
LINE
8
0
10
311.711171
20
69.022159
11
311.955428
21
69.385819
0
LINE
8
0
10
311.955428
20
69.385819
11
312.626935
21
69.518565
0
LINE
8
0
10
312.626935
20
69.518565
11
315.394922
21
68.638241
0
LINE
8
0
10
315.394922
20
68.638241
11
317.150478
21
67.733597
0
LINE
8
0
10
317.150478
20
67.733597
11
323.631994
21
64.538400
0
LINE
8
0
10
323.631994
20
64.538400
11
338.027703
21
60.198757
0
LINE
8
0
10
338.027703
20
60.198757
11
345.137929
21
59.296669
0
LINE
8
0
10
345.137929
20
59.296669
11
348.875457
21
59.119627
0
LINE
8
0
10
348.875457
20
59.119627
11
354.802362
21
59.216340
0
LINE
8
0
10
354.802362
20
59.216340
11
359.155674
21
60.002741
0
LINE
8
0
10
359.155674
20
60.002741
11
362.524121
21
61.585179
0
LINE
8
0
10
362.524121
20
61.585179
11
364.022999
21
62.708147
0
LINE
8
0
10
364.022999
20
62.708147
11
365.569896
21
64.162282
0
LINE
8
0
10
365.569896
20
64.162282
11
366.832997
21
66.969862
0
LINE
8
0
10
366.832997
20
66.969862
11
366.802435
21
68.886187
0
LINE
8
0
10
366.802435
20
68.886187
11
366.464050
21
70.638870
0
LINE
8
0
10
366.464050
20
70.638870
11
364.549719
21
73.576936
0
LINE
8
0
10
364.549719
20
73.576936
11
360.651854
21
75.962698
0
LINE
8
0
10
360.651854
20
75.962698
11
354.370311
21
78.041073
0
LINE
8
0
10
354.370311
20
78.041073
11
350.210614
21
79.041527
0
LINE
8
0
10
350.210614
20
79.041527
11
345.381895
21
80.131179
0
LINE
8
0
10
345.381895
20
80.131179
11
337.047384
21
82.152988
0
LINE
8
0
10
337.047384
20
82.152988
11
330.290896
21
84.049828
0
LINE
8
0
10
330.290896
20
84.049828
11
324.889375
21
85.923729
0
LINE
8
0
10
324.889375
20
85.923729
11
318.839720
21
88.914757
0
LINE
8
0
10
318.839720
20
88.914757
11
313.434039
21
93.774784
0
LINE
8
0
10
313.434039
20
93.774784
11
311.369547
21
96.808073
0
LINE
8
0
10
311.369547
20
96.808073
11
309.691493
21
100.021942
0
LINE
8
0
10
309.691493
20
100.021942
11
307.635136
21
106.583884
0
LINE
8
0
10
307.635136
20
106.583884
11
307.241129
21
113.165176
0
LINE
8
0
10
307.241129
20
113.165176
11
308.424694
21
119.574312
0
LINE
8
0
10
308.424694
20
119.574312
11
311.101049
21
125.619786
0
LINE
8
0
10
311.101049
20
125.619786
11
315.185414
21
131.110092
0
LINE
8
0
10
315.185414
20
131.110092
11
320.593009
21
135.853726
0
LINE
8
0
10
320.593009
20
135.853726
11
327.239053
21
139.659181
0
LINE
8
0
10
327.239053
20
139.659181
11
331.000000
21
141.150246
0
LINE
8
0
10
331.000000
20
141.150246
11
335.035370
21
142.279446
0
LINE
8
0
10
335.035370
20
142.279446
11
344.669382
21
143.685849
0
LINE
8
0
10
344.669382
20
143.685849
11
355.262971
21
143.930302
0
LINE
8
0
10
355.262971
20
143.930302
11
365.466394
21
142.981659
0
LINE
8
0
10
365.466394
20
142.981659
11
370.000000
21
142.050194
0
LINE
8
0
10
370.000000
20
142.050194
11
377.118787
21
139.741027
0
LINE
8
0
10
377.118787
20
139.741027
11
387.339867
21
135.123013
0
LINE
8
0
10
387.339867
20
135.123013
11
390.717488
21
133.025639
0
LINE
8
0
10
390.717488
20
133.025639
11
391.848797
21
131.934877
0
LINE
8
0
10
391.848797
20
131.934877
11
392.000000
21
131.519232
0
LINE
8
0
10
392.000000
20
131.519232
11
388.493809
21
121.730224
0
LINE
8
0
10
388.493809
20
121.730224
11
384.471623
21
112.188373
0
LINE
8
0
10
384.471623
20
112.188373
11
384.241084
21
112.200660
0
LINE
8
0
10
384.241084
20
112.200660
11
382.910738
21
112.683171
0
LINE
8
0
10
382.910738
20
112.683171
11
379.256250
21
114.325995
0
LINE
8
0
10
379.256250
20
114.325995
11
376.113876
21
115.858304
0
LINE
8
0
10
376.113876
20
115.858304
11
372.542649
21
117.512462
0
LINE
8
0
10
372.542649
20
117.512462
11
365.193721
21
120.290634
0
LINE
8
0
10
365.193721
20
120.290634
11
362.321165
21
121.072467
0
LINE
8
0
10
362.321165
20
121.072467
11
355.800038
21
121.861587
0
LINE
8
0
10
355.800038
20
121.861587
11
345.901972
21
121.446787
0
LINE
8
0
10
345.901972
20
121.446787
11
340.865594
21
120.226007
0
LINE
8
0
10
340.865594
20
120.226007
11
339.237798
21
119.363562
0
LINE
8
0
10
339.237798
20
119.363562
11
337.663734
21
117.867447
0
LINE
8
0
10
337.663734
20
117.867447
11
335.838022
21
114.231233
0
LINE
8
0
10
335.838022
20
114.231233
11
335.784716
21
110.396849
0
LINE
8
0
10
335.784716
20
110.396849
11
337.514834
21
107.156863
0
LINE
8
0
10
337.514834
20
107.156863
11
339.052120
21
106.007448
0
LINE
8
0
10
339.052120
20
106.007448
11
339.841253
21
105.687456
0
LINE
8
0
10
339.841253
20
105.687456
11
343.254291
21
104.617872
0
LINE
8
0
10
343.254291
20
104.617872
11
351.750472
21
102.278744
0
LINE
8
0
10
351.750472
20
102.278744
11
358.724329
21
100.493349
0
LINE
8
0
10
358.724329
20
100.493349
11
362.235449
21
99.599842
0
LINE
8
0
10
362.235449
20
99.599842
11
368.442406
21
97.891559
0
LINE
8
0
10
368.442406
20
97.891559
11
375.941211
21
95.418788
0
LINE
8
0
10
375.941211
20
95.418788
11
383.192316
21
91.989040
0
LINE
8
0
10
383.192316
20
91.989040
11
388.189804
21
87.988464
0
LINE
8
0
10
388.189804
20
87.988464
11
390.145542
21
85.631223
0
LINE
8
0
10
390.145542
20
85.631223
11
392.572148
21
81.603502
0
LINE
8
0
10
392.572148
20
81.603502
11
394.561218
21
74.842237
0
LINE
8
0
10
394.561218
20
74.842237
11
394.883203
21
69.453263
0
LINE
8
0
10
394.883203
20
69.453263
11
394.767791
21
66.391049
0
LINE
8
0
10
394.767791
20
66.391049
11
394.477649
21
63.654260
0
LINE
8
0
10
394.477649
20
63.654260
11
393.228993
21
58.535192
0
LINE
8
0
10
393.228993
20
58.535192
11
389.721327
21
51.777063
0
LINE
8
0
10
389.721327
20
51.777063
11
382.094513
21
44.580204
0
LINE
8
0
10
382.094513
20
44.580204
11
371.238113
21
39.590228
0
LINE
8
0
10
371.238113
20
39.590228
11
364.647144
21
37.968424
0
LINE
8
0
10
364.647144
20
37.968424
11
362.264461
21
37.665447
0
LINE
8
0
10
362.264461
20
37.665447
11
354.851501
21
37.275406
0
LINE
8
0
10
354.851501
20
37.275406
11
346.069157
21
37.193418
0
LINE
8
0
10
346.069157
20
37.193418
11
338.510322
21
37.443690
0
LINE
8
0
10
338.510322
20
37.443690
11
336.000000
21
37.700988
0
LINE
8
0
10
553.321291
20
37.045558
11
545.688199
21
38.152234
0
LINE
8
0
10
545.688199
20
38.152234
11
538.821291
21
39.624545
0
LINE
8
0
10
538.821291
20
39.624545
11
532.302649
21
41.844656
0
LINE
8
0
10
532.302649
20
41.844656
11
523.133102
21
46.136294
0
LINE
8
0
10
523.133102
20
46.136294
11
519.519044
21
48.600939
0
LINE
8
0
10
519.519044
20
48.600939
11
519.000000
21
49.447561
0
LINE
8
0
10
519.000000
20
49.447561
11
522.448789
21
59.757075
0
LINE
8
0
10
522.448789
20
59.757075
11
526.416754
21
69.767789
0
LINE
8
0
10
526.416754
20
69.767789
11
527.007963
21
69.588399
0
LINE
8
0
10
527.007963
20
69.588399
11
530.551347
21
67.891479
0
LINE
8
0
10
530.551347
20
67.891479
11
533.067092
21
66.582954
0
LINE
8
0
10
533.067092
20
66.582954
11
538.435340
21
64.089216
0
LINE
8
0
10
538.435340
20
64.089216
11
550.228699
21
60.431478
0
LINE
8
0
10
550.228699
20
60.431478
11
562.000614
21
58.750955
0
LINE
8
0
10
562.000614
20
58.750955
11
569.782764
21
58.935536
0
LINE
8
0
10
569.782764
20
58.935536
11
574.070038
21
59.804111
0
LINE
8
0
10
574.070038
20
59.804111
11
575.862957
21
60.473544
0
LINE
8
0
10
575.862957
20
60.473544
11
578.175786
21
61.809971
0
LINE
8
0
10
578.175786
20
61.809971
11
581.076565
21
65.238842
0
LINE
8
0
10
581.076565
20
65.238842
11
581.604708
21
69.138264
0
LINE
8
0
10
581.604708
20
69.138264
11
579.672859
21
72.863269
0
LINE
8
0
10
579.672859
20
72.863269
11
577.757140
21
74.458814
0
LINE
8
0
10
577.757140
20
74.458814
11
576.986670
21
74.838724
0
LINE
8
0
10
576.986670
20
74.838724
11
573.921717
21
75.922899
0
LINE
8
0
10
573.921717
20
75.922899
11
566.567073
21
78.046774
0
LINE
8
0
10
566.567073
20
78.046774
11
560.644691
21
79.550774
0
LINE
8
0
10
560.644691
20
79.550774
11
557.158522
21
80.400975
0
LINE
8
0
10
557.158522
20
80.400975
11
551.107923
21
81.948176
0
LINE
8
0
10
551.107923
20
81.948176
11
544.001281
21
84.018445
0
LINE
8
0
10
544.001281
20
84.018445
11
537.263449
21
86.682052
0
LINE
8
0
10
537.263449
20
86.682052
11
532.343833
21
89.753185
0
LINE
8
0
10
532.343833
20
89.753185
11
530.119068
21
91.618198
0
LINE
8
0
10
530.119068
20
91.618198
11
527.930095
21
93.779408
0
LINE
8
0
10
527.930095
20
93.779408
11
524.652502
21
98.346830
0
LINE
8
0
10
524.652502
20
98.346830
11
522.749056
21
103.492296
0
LINE
8
0
10
522.749056
20
103.492296
11
522.108166
21
109.517464
0
LINE
8
0
10
522.108166
20
109.517464
11
522.226307
21
112.954202
0
LINE
8
0
10
522.226307
20
112.954202
11
522.527189
21
115.853480
0
LINE
8
0
10
522.527189
20
115.853480
11
523.685409
21
120.984221
0
LINE
8
0
10
523.685409
20
120.984221
11
525.700860
21
125.481822
0
LINE
8
0
10
525.700860
20
125.481822
11
528.711891
21
129.655018
0
LINE
8
0
10
528.711891
20
129.655018
11
530.633983
21
131.716443
0
LINE
8
0
10
530.633983
20
131.716443
11
534.609486
21
135.190371
0
LINE
8
0
10
534.609486
20
135.190371
11
541.489640
21
139.097738
0
LINE
8
0
10
541.489640
20
139.097738
11
547.305433
21
141.152558
0
LINE
8
0
10
547.305433
20
141.152558
11
550.740887
21
142.096950
0
LINE
8
0
10
550.740887
20
142.096950
11
556.327178
21
143.212254
0
LINE
8
0
10
556.327178
20
143.212254
11
568.260589
21
143.876661
0
LINE
8
0
10
568.260589
20
143.876661
11
580.480617
21
142.532837
0
LINE
8
0
10
580.480617
20
142.532837
11
592.113878
21
139.276828
0
LINE
8
0
10
592.113878
20
139.276828
11
597.437537
21
136.961768
0
LINE
8
0
10
597.437537
20
136.961768
11
599.293874
21
136.044474
0
LINE
8
0
10
599.293874
20
136.044474
11
602.277398
21
134.541997
0
LINE
8
0
10
602.277398
20
134.541997
11
605.083086
21
132.720009
0
LINE
8
0
10
605.083086
20
132.720009
11
606.136586
21
129.980640
0
LINE
8
0
10
606.136586
20
129.980640
11
605.268787
21
126.763625
0
LINE
8
0
10
605.268787
20
126.763625
11
604.054040
21
123.666831
0
LINE
8
0
10
604.054040
20
123.666831
11
603.286457
21
121.753089
0
LINE
8
0
10
603.286457
20
121.753089
11
601.755547
21
118.049810
0
LINE
8
0
10
601.755547
20
118.049810
11
599.809012
21
113.810833
0
LINE
8
0
10
599.809012
20
113.810833
11
598.962542
21
112.324004
0
LINE
8
0
10
598.962542
20
112.324004
11
598.730730
21
112.101101
0
LINE
8
0
10
598.730730
20
112.101101
11
598.408209
21
112.154829
0
LINE
8
0
10
598.408209
20
112.154829
11
596.890758
21
112.714271
0
LINE
8
0
10
596.890758
20
112.714271
11
592.987268
21
114.443363
0
LINE
8
0
10
592.987268
20
114.443363
11
589.730730
21
116.002681
0
LINE
8
0
10
589.730730
20
116.002681
11
586.107638
21
117.644930
0
LINE
8
0
10
586.107638
20
117.644930
11
578.905566
21
120.133615
0
LINE
8
0
10
578.905566
20
120.133615
11
571.973517
21
121.582095
0
LINE
8
0
10
571.973517
20
121.582095
11
565.564942
21
122.015426
0
LINE
8
0
10
565.564942
20
122.015426
11
559.933291
21
121.458667
0
LINE
8
0
10
559.933291
20
121.458667
11
555.332017
21
119.936873
0
LINE
8
0
10
555.332017
20
119.936873
11
552.014570
21
117.475101
0
LINE
8
0
10
552.014570
20
117.475101
11
550.234402
21
114.098408
0
LINE
8
0
10
550.234402
20
114.098408
11
550.000000
21
112.074797
0
LINE
8
0
10
550.000000
20
112.074797
11
550.269128
21
110.164773
0
LINE
8
0
10
550.269128
20
110.164773
11
552.737351
21
106.903505
0
LINE
8
0
10
552.737351
20
106.903505
11
556.690939
21
104.740008
0
LINE
8
0
10
556.690939
20
104.740008
11
560.524816
21
103.333857
0
LINE
8
0
10
560.524816
20
103.333857
11
565.439792
21
101.895469
0
LINE
8
0
10
565.439792
20
101.895469
11
571.540933
21
100.372408
0
LINE
8
0
10
571.540933
20
100.372408
11
575.069149
21
99.562738
0
LINE
8
0
10
575.069149
20
99.562738
11
579.670660
21
98.459933
0
LINE
8
0
10
579.670660
20
98.459933
11
587.729867
21
96.064925
0
LINE
8
0
10
587.729867
20
96.064925
11
594.346254
21
93.342942
0
LINE
8
0
10
594.346254
20
93.342942
11
599.618543
21
90.204654
0
LINE
8
0
10
599.618543
20
90.204654
11
603.645456
21
86.560727
0
LINE
8
0
10
603.645456
20
86.560727
11
606.525713
21
82.321829
0
LINE
8
0
10
606.525713
20
82.321829
11
608.358037
21
77.398627
0
LINE
8
0
10
608.358037
20
77.398627
11
609.241148
21
71.701790
0
LINE
8
0
10
609.241148
20
71.701790
11
609.357600
21
68.535341
0
LINE
8
0
10
609.357600
20
68.535341
11
609.272354
21
64.395888
0
LINE
8
0
10
609.272354
20
64.395888
11
608.224144
21
58.490040
0
LINE
8
0
10
608.224144
20
58.490040
11
607.099848
21
55.814663
0
LINE
8
0
10
607.099848
20
55.814663
11
605.622035
21
53.167922
0
LINE
8
0
10
605.622035
20
53.167922
11
601.800430
21
48.424597
0
LINE
8
0
10
601.800430
20
48.424597
11
596.881950
21
44.434974
0
LINE
8
0
10
596.881950
20
44.434974
11
590.935912
21
41.223245
0
LINE
8
0
10
590.935912
20
41.223245
11
584.031634
21
38.813602
0
LINE
8
0
10
584.031634
20
38.813602
11
576.238433
21
37.230238
0
LINE
8
0
10
576.238433
20
37.230238
11
567.625627
21
36.497344
0
LINE
8
0
10
567.625627
20
36.497344
11
558.262534
21
36.639114
0
LINE
8
0
10
558.262534
20
36.639114
11
553.321291
21
37.045558
0
LINE
8
0
10
114.135044
20
85.042442
11
111.907276
21
90.470391
0
LINE
8
0
10
111.907276
20
90.470391
11
107.837927
21
100.471576
0
LINE
8
0
10
107.837927
20
100.471576
11
104.302713
21
109.283032
0
LINE
8
0
10
104.302713
20
109.283032
11
101.324698
21
116.844627
0
LINE
8
0
10
101.324698
20
116.844627
11
98.926946
21
123.096227
0
LINE
8
0
10
98.926946
20
123.096227
11
97.132520
21
127.977699
0
LINE
8
0
10
97.132520
20
127.977699
11
95.964484
21
131.428909
0
LINE
8
0
10
95.964484
20
131.428909
11
95.445903
21
133.389725
0
LINE
8
0
10
95.445903
20
133.389725
11
95.437365
21
133.792442
0
LINE
8
0
10
95.437365
20
133.792442
11
95.764055
21
134.616537
0
LINE
8
0
10
95.764055
20
134.616537
11
97.451605
21
138.745262
0
LINE
8
0
10
97.451605
20
138.745262
11
100.236538
21
145.498707
0
LINE
8
0
10
100.236538
20
145.498707
11
103.781044
21
154.057683
0
LINE
8
0
10
103.781044
20
154.057683
11
105.732570
21
158.758247
0
LINE
8
0
10
105.732570
20
158.758247
11
115.381884
21
181.981153
0
LINE
8
0
10
115.381884
20
181.981153
11
118.611249
21
174.258247
0
LINE
8
0
10
118.611249
20
174.258247
11
119.082697
21
173.138205
0
LINE
8
0
10
119.082697
20
173.138205
11
120.808905
21
169.067111
0
LINE
8
0
10
120.808905
20
169.067111
11
123.474621
21
162.800676
0
LINE
8
0
10
123.474621
20
162.800676
11
126.953956
21
154.634099
0
LINE
8
0
10
126.953956
20
154.634099
11
131.121022
21
144.862582
0
LINE
8
0
10
131.121022
20
144.862582
11
135.849930
21
133.781326
0
LINE
8
0
10
135.849930
20
133.781326
11
143.721363
21
115.349437
0
LINE
8
0
10
143.721363
20
115.349437
11
149.304113
21
102.285341
0
LINE
8
0
10
149.304113
20
102.285341
11
176.767611
21
38.035341
0
LINE
8
0
10
176.767611
20
38.035341
11
155.123114
21
38.035341
0
LINE
8
0
10
155.123114
20
38.035341
11
133.478617
21
38.035341
0
LINE
8
0
10
133.478617
20
38.035341
11
114.135044
21
85.042442
0
ENDSEC
0
EOF
