999
DXF File generated by ImageToStl.com - Free Image and 3D model conversion tools
0
SECTION
2
HEADER
9
$ACADVER
1
AC1009
9
$EXTMIN
10
0
20
0
9
$EXTMAX
10
664.804137
20
151.412022
0
ENDSEC
0
SECTION
2
ENTITIES
0
LINE
8
0
10
485.077710
20
59.162022
11
487.869271
21
70.165245
0
LINE
8
0
10
487.869271
20
70.165245
11
491.688631
21
85.233982
0
LINE
8
0
10
491.688631
20
85.233982
11
493.906354
21
93.993431
0
LINE
8
0
10
493.906354
20
93.993431
11
495.794709
21
101.460594
0
LINE
8
0
10
495.794709
20
101.460594
11
497.296646
21
107.409886
0
LINE
8
0
10
497.296646
20
107.409886
11
498.355119
21
111.615721
0
LINE
8
0
10
498.355119
20
111.615721
11
498.913079
21
113.852513
0
LINE
8
0
10
498.913079
20
113.852513
11
498.986539
21
114.162022
0
LINE
8
0
10
498.986539
20
114.162022
11
499.397446
21
114.212242
0
LINE
8
0
10
499.397446
20
114.212242
11
502.421786
21
114.301548
0
LINE
8
0
10
502.421786
20
114.301548
11
507.835584
21
114.369175
0
LINE
8
0
10
507.835584
20
114.369175
11
514.982147
21
114.406919
0
LINE
8
0
10
514.982147
20
114.406919
11
519.000000
21
114.412022
0
LINE
8
0
10
519.000000
20
114.412022
11
524.266764
21
114.397666
0
LINE
8
0
10
524.266764
20
114.397666
11
532.070694
21
114.269513
0
LINE
8
0
10
532.070694
20
114.269513
11
536.707519
21
113.979194
0
LINE
8
0
10
536.707519
20
113.979194
11
538.744070
21
113.491220
0
LINE
8
0
10
538.744070
20
113.491220
11
538.964378
21
113.162022
0
LINE
8
0
10
538.964378
20
113.162022
11
538.842116
21
112.222959
0
LINE
8
0
10
538.842116
20
112.222959
11
538.090957
21
108.493272
0
LINE
8
0
10
538.090957
20
108.493272
11
537.554579
21
106.162022
0
LINE
8
0
10
537.554579
20
106.162022
11
537.065504
21
103.929405
0
LINE
8
0
10
537.065504
20
103.929405
11
536.633763
21
100.865733
0
LINE
8
0
10
536.633763
20
100.865733
11
536.744273
21
100.412022
0
LINE
8
0
10
536.744273
20
100.412022
11
537.231490
21
100.725443
0
LINE
8
0
10
537.231490
20
100.725443
11
539.343461
21
102.841812
0
LINE
8
0
10
539.343461
20
102.841812
11
540.708089
21
104.384093
0
LINE
8
0
10
540.708089
20
104.384093
11
542.714893
21
106.382265
0
LINE
8
0
10
542.714893
20
106.382265
11
548.171602
21
110.194904
0
LINE
8
0
10
548.171602
20
110.194904
11
554.876521
21
113.435879
0
LINE
8
0
10
554.876521
20
113.435879
11
562.018544
21
115.713126
0
LINE
8
0
10
562.018544
20
115.713126
11
565.500000
21
116.367830
0
LINE
8
0
10
565.500000
20
116.367830
11
571.663420
21
116.789718
0
LINE
8
0
10
571.663420
20
116.789718
11
581.191391
21
116.083730
0
LINE
8
0
10
581.191391
20
116.083730
11
586.848226
21
114.810306
0
LINE
8
0
10
586.848226
20
114.810306
11
589.240862
21
113.955850
0
LINE
8
0
10
589.240862
20
113.955850
11
592.245277
21
112.152765
0
LINE
8
0
10
592.245277
20
112.152765
11
597.201210
21
106.394392
0
LINE
8
0
10
597.201210
20
106.394392
11
598.530550
21
103.162022
0
LINE
8
0
10
598.530550
20
103.162022
11
598.837196
21
102.094249
0
LINE
8
0
10
598.837196
20
102.094249
11
599.474176
21
100.629014
0
LINE
8
0
10
599.474176
20
100.629014
11
599.726055
21
100.412022
0
LINE
8
0
10
599.726055
20
100.412022
11
600.235877
21
100.724116
0
LINE
8
0
10
600.235877
20
100.724116
11
602.614610
21
102.831520
0
LINE
8
0
10
602.614610
20
102.831520
11
604.190540
21
104.367268
0
LINE
8
0
10
604.190540
20
104.367268
11
607.854690
21
107.559937
0
LINE
8
0
10
607.854690
20
107.559937
11
616.489219
21
112.793043
0
LINE
8
0
10
616.489219
20
112.793043
11
620.832718
21
114.453548
0
LINE
8
0
10
620.832718
20
114.453548
11
627.218155
21
115.921300
0
LINE
8
0
10
627.218155
20
115.921300
11
639.944028
21
116.576448
0
LINE
8
0
10
639.944028
20
116.576448
11
648.604572
21
115.231539
0
LINE
8
0
10
648.604572
20
115.231539
11
653.555244
21
113.536251
0
LINE
8
0
10
653.555244
20
113.536251
11
657.597279
21
111.249142
0
LINE
8
0
10
657.597279
20
111.249142
11
660.516205
21
108.410602
0
LINE
8
0
10
660.516205
20
108.410602
11
661.487478
21
106.797167
0
LINE
8
0
10
661.487478
20
106.797167
11
662.526713
21
104.148712
0
LINE
8
0
10
662.526713
20
104.148712
11
663.240696
21
99.508739
0
LINE
8
0
10
663.240696
20
99.508739
11
663.080688
21
95.443847
0
LINE
8
0
10
663.080688
20
95.443847
11
662.353681
21
90.180318
0
LINE
8
0
10
662.353681
20
90.180318
11
661.009789
21
83.356975
0
LINE
8
0
10
661.009789
20
83.356975
11
658.999126
21
74.612639
0
LINE
8
0
10
658.999126
20
74.612639
11
656.271805
21
63.586134
0
LINE
8
0
10
656.271805
20
63.586134
11
654.623808
21
57.104199
0
LINE
8
0
10
654.623808
20
57.104199
11
653.058624
21
50.996713
0
LINE
8
0
10
653.058624
20
50.996713
11
650.398945
21
40.732235
0
LINE
8
0
10
650.398945
20
40.732235
11
648.275775
21
32.779729
0
LINE
8
0
10
648.275775
20
32.779729
11
646.579817
21
26.792776
0
LINE
8
0
10
646.579817
20
26.792776
11
645.201777
21
22.424956
0
LINE
8
0
10
645.201777
20
22.424956
11
644.032360
21
19.329846
0
LINE
8
0
10
644.032360
20
19.329846
11
642.430318
21
16.315719
0
LINE
8
0
10
642.430318
20
16.315719
11
641.304290
21
14.886796
0
LINE
8
0
10
641.304290
20
14.886796
11
638.703411
21
12.295936
0
LINE
8
0
10
638.703411
20
12.295936
11
632.697163
21
8.295820
0
LINE
8
0
10
632.697163
20
8.295820
11
625.294522
21
5.760291
0
LINE
8
0
10
625.294522
20
5.760291
11
616.107004
21
4.556285
0
LINE
8
0
10
616.107004
20
4.556285
11
610.722514
21
4.412022
0
LINE
8
0
10
610.722514
20
4.412022
11
607.740450
21
4.422250
0
LINE
8
0
10
607.740450
20
4.422250
11
603.723783
21
4.548089
0
LINE
8
0
10
603.723783
20
4.548089
11
601.782295
21
4.912237
0
LINE
8
0
10
601.782295
20
4.912237
11
601.290258
21
5.632059
0
LINE
8
0
10
601.290258
20
5.632059
11
601.392245
21
6.162022
0
LINE
8
0
10
601.392245
20
6.162022
11
601.652888
21
7.064719
0
LINE
8
0
10
601.652888
20
7.064719
11
602.396365
21
9.817990
0
LINE
8
0
10
602.396365
20
9.817990
11
603.984246
21
15.976633
0
LINE
8
0
10
603.984246
20
15.976633
11
606.751880
21
27.020468
0
LINE
8
0
10
606.751880
20
27.020468
11
609.939038
21
39.967730
0
LINE
8
0
10
609.939038
20
39.967730
11
613.192419
21
53.363688
0
LINE
8
0
10
613.192419
20
53.363688
11
616.158724
21
65.753613
0
LINE
8
0
10
616.158724
20
65.753613
11
617.982527
21
73.510739
0
LINE
8
0
10
617.982527
20
73.510739
11
618.924675
21
77.610099
0
LINE
8
0
10
618.924675
20
77.610099
11
619.596322
21
80.639667
0
LINE
8
0
10
619.596322
20
80.639667
11
619.953307
21
82.417600
0
LINE
8
0
10
619.953307
20
82.417600
11
620.000000
21
82.780379
0
LINE
8
0
10
620.000000
20
82.780379
11
619.437884
21
85.175975
0
LINE
8
0
10
619.437884
20
85.175975
11
618.086413
21
87.551238
0
LINE
8
0
10
618.086413
20
87.551238
11
616.883506
21
88.766549
0
LINE
8
0
10
616.883506
20
88.766549
11
614.513062
21
89.684789
0
LINE
8
0
10
614.513062
20
89.684789
11
611.962161
21
89.869901
0
LINE
8
0
10
611.962161
20
89.869901
11
610.242989
21
89.879624
0
LINE
8
0
10
610.242989
20
89.879624
11
607.877841
21
89.781563
0
LINE
8
0
10
607.877841
20
89.781563
11
603.905473
21
89.037835
0
LINE
8
0
10
603.905473
20
89.037835
11
600.758969
21
87.472053
0
LINE
8
0
10
600.758969
20
87.472053
11
598.216681
21
84.973921
0
LINE
8
0
10
598.216681
20
84.973921
11
597.102854
21
83.340755
0
LINE
8
0
10
597.102854
20
83.340755
11
596.874333
21
82.861177
0
LINE
8
0
10
596.874333
20
82.861177
11
596.177049
21
80.914923
0
LINE
8
0
10
596.177049
20
80.914923
11
594.611071
21
75.814124
0
LINE
8
0
10
594.611071
20
75.814124
11
591.777865
21
65.742786
0
LINE
8
0
10
591.777865
20
65.742786
11
588.407989
21
53.053838
0
LINE
8
0
10
588.407989
20
53.053838
11
586.629196
21
46.109525
0
LINE
8
0
10
586.629196
20
46.109525
11
584.866243
21
39.149868
0
LINE
8
0
10
584.866243
20
39.149868
11
581.613534
21
26.347410
0
LINE
8
0
10
581.613534
20
26.347410
11
578.990258
21
16.072694
0
LINE
8
0
10
578.990258
20
16.072694
11
577.627284
21
10.775226
0
LINE
8
0
10
577.627284
20
10.775226
11
577.081064
21
8.682625
0
LINE
8
0
10
577.081064
20
8.682625
11
576.931597
21
8.126458
0
LINE
8
0
10
576.931597
20
8.126458
11
575.905992
21
4.412022
0
LINE
8
0
10
575.905992
20
4.412022
11
555.885608
21
4.412022
0
LINE
8
0
10
555.885608
20
4.412022
11
552.595937
21
4.413812
0
LINE
8
0
10
552.595937
20
4.413812
11
547.137393
21
4.434189
0
LINE
8
0
10
547.137393
20
4.434189
11
543.023371
21
4.490415
0
LINE
8
0
10
543.023371
20
4.490415
11
540.074013
21
4.598638
0
LINE
8
0
10
540.074013
20
4.598638
11
537.440288
21
4.893786
0
LINE
8
0
10
537.440288
20
4.893786
11
536.326327
21
5.620003
0
LINE
8
0
10
536.326327
20
5.620003
11
536.392245
21
6.162022
0
LINE
8
0
10
536.392245
20
6.162022
11
536.652888
21
7.064719
0
LINE
8
0
10
536.652888
20
7.064719
11
537.396365
21
9.817990
0
LINE
8
0
10
537.396365
20
9.817990
11
538.984246
21
15.976633
0
LINE
8
0
10
538.984246
20
15.976633
11
541.751880
21
27.020468
0
LINE
8
0
10
541.751880
20
27.020468
11
544.939038
21
39.967730
0
LINE
8
0
10
544.939038
20
39.967730
11
548.192419
21
53.363688
0
LINE
8
0
10
548.192419
20
53.363688
11
551.158724
21
65.753613
0
LINE
8
0
10
551.158724
20
65.753613
11
552.982527
21
73.510739
0
LINE
8
0
10
552.982527
20
73.510739
11
553.924675
21
77.610099
0
LINE
8
0
10
553.924675
20
77.610099
11
554.596322
21
80.639667
0
LINE
8
0
10
554.596322
20
80.639667
11
554.953307
21
82.417600
0
LINE
8
0
10
554.953307
20
82.417600
11
555.000000
21
82.780379
0
LINE
8
0
10
555.000000
20
82.780379
11
554.438454
21
85.175975
0
LINE
8
0
10
554.438454
20
85.175975
11
553.088353
21
87.551238
0
LINE
8
0
10
553.088353
20
87.551238
11
551.932578
21
88.718572
0
LINE
8
0
10
551.932578
20
88.718572
11
548.814036
21
89.808716
0
LINE
8
0
10
548.814036
20
89.808716
11
546.338353
21
89.910827
0
LINE
8
0
10
546.338353
20
89.910827
11
544.067491
21
89.825865
0
LINE
8
0
10
544.067491
20
89.825865
11
540.136946
21
89.130847
0
LINE
8
0
10
540.136946
20
89.130847
11
535.558554
21
86.681316
0
LINE
8
0
10
535.558554
20
86.681316
11
533.220841
21
84.036974
0
LINE
8
0
10
533.220841
20
84.036974
11
532.903122
21
83.482390
0
LINE
8
0
10
532.903122
20
83.482390
11
532.105319
21
81.592123
0
LINE
8
0
10
532.105319
20
81.592123
11
531.085987
21
78.642928
0
LINE
8
0
10
531.085987
20
78.642928
11
529.839079
21
74.613849
0
LINE
8
0
10
529.839079
20
74.613849
11
528.358548
21
69.483932
0
LINE
8
0
10
528.358548
20
69.483932
11
526.638346
21
63.232222
0
LINE
8
0
10
526.638346
20
63.232222
11
524.672425
21
55.837764
0
LINE
8
0
10
524.672425
20
55.837764
11
522.454738
21
47.279604
0
LINE
8
0
10
522.454738
20
47.279604
11
521.249592
21
42.557587
0
LINE
8
0
10
521.249592
20
42.557587
11
511.557502
21
4.412022
0
LINE
8
0
10
511.557502
20
4.412022
11
491.369921
21
4.412022
0
LINE
8
0
10
491.369921
20
4.412022
11
471.182341
21
4.412022
0
LINE
8
0
10
471.182341
20
4.412022
11
485.077710
21
59.162022
0
LINE
8
0
10
3.000000
20
4.895134
11
3.180810
21
5.380670
0
LINE
8
0
10
3.180810
20
5.380670
11
4.559949
21
8.188915
0
LINE
8
0
10
4.559949
20
8.188915
11
7.146142
21
13.172165
0
LINE
8
0
10
7.146142
20
13.172165
11
10.759820
21
20.000950
0
LINE
8
0
10
10.759820
20
20.000950
11
15.221415
21
28.345799
0
LINE
8
0
10
15.221415
20
28.345799
11
20.351358
21
37.877241
0
LINE
8
0
10
20.351358
20
37.877241
11
28.906621
21
53.678550
0
LINE
8
0
10
28.906621
20
53.678550
11
40.976887
21
75.824982
0
LINE
8
0
10
40.976887
20
75.824982
11
49.741413
21
91.801887
0
LINE
8
0
10
49.741413
20
91.801887
11
55.110513
21
101.534009
0
LINE
8
0
10
55.110513
20
101.534009
11
59.890984
21
110.146432
0
LINE
8
0
10
59.890984
20
110.146432
11
63.903258
21
117.309684
0
LINE
8
0
10
63.903258
20
117.309684
11
66.967765
21
122.694296
0
LINE
8
0
10
66.967765
20
122.694296
11
68.904938
21
125.970795
0
LINE
8
0
10
68.904938
20
125.970795
11
69.394659
21
126.715544
0
LINE
8
0
10
69.394659
20
126.715544
11
73.781153
21
131.767181
0
LINE
8
0
10
73.781153
20
131.767181
11
78.516399
21
136.143561
0
LINE
8
0
10
78.516399
20
136.143561
11
83.027676
21
139.478141
0
LINE
8
0
10
83.027676
20
139.478141
11
91.606736
21
144.358243
0
LINE
8
0
10
91.606736
20
144.358243
11
100.976898
21
147.284689
0
LINE
8
0
10
100.976898
20
147.284689
11
109.521621
21
148.509109
0
LINE
8
0
10
109.521621
20
148.509109
11
116.329339
21
148.984718
0
LINE
8
0
10
116.329339
20
148.984718
11
120.144332
21
149.144607
0
LINE
8
0
10
120.144332
20
149.144607
11
135.788663
21
149.688962
0
LINE
8
0
10
135.788663
20
149.688962
11
136.408536
21
139.300492
0
LINE
8
0
10
136.408536
20
139.300492
11
136.481897
21
137.954309
0
LINE
8
0
10
136.481897
20
137.954309
11
136.681255
21
133.714056
0
LINE
8
0
10
136.681255
20
133.714056
11
136.941945
21
127.635157
0
LINE
8
0
10
136.941945
20
127.635157
11
137.253348
21
119.987858
0
LINE
8
0
10
137.253348
20
119.987858
11
137.792312
21
106.167321
0
LINE
8
0
10
137.792312
20
106.167321
11
138.589319
21
84.772832
0
LINE
8
0
10
138.589319
20
84.772832
11
138.997524
21
73.412022
0
LINE
8
0
10
138.997524
20
73.412022
11
139.400898
21
62.125474
0
LINE
8
0
10
139.400898
20
62.125474
11
139.980549
21
46.195820
0
LINE
8
0
10
139.980549
20
46.195820
11
140.335973
21
36.615174
0
LINE
8
0
10
140.335973
20
36.615174
11
140.655334
21
28.163703
0
LINE
8
0
10
140.655334
20
28.163703
11
140.928982
21
21.096730
0
LINE
8
0
10
140.928982
20
21.096730
11
141.147271
21
15.669575
0
LINE
8
0
10
141.147271
20
15.669575
11
141.300552
21
12.137562
0
LINE
8
0
10
141.300552
20
12.137562
11
141.349799
21
11.162022
0
LINE
8
0
10
141.349799
20
11.162022
11
141.732960
21
4.412022
0
LINE
8
0
10
141.732960
20
4.412022
11
118.289775
21
4.412022
0
LINE
8
0
10
118.289775
20
4.412022
11
94.846590
21
4.412022
0
LINE
8
0
10
94.846590
20
4.412022
11
95.560036
21
16.935109
0
LINE
8
0
10
95.560036
20
16.935109
11
96.273481
21
29.458197
0
LINE
8
0
10
96.273481
20
29.458197
11
78.074754
21
29.185109
0
LINE
8
0
10
78.074754
20
29.185109
11
59.876027
21
28.912022
0
LINE
8
0
10
59.876027
20
28.912022
11
54.561527
21
16.912022
0
LINE
8
0
10
54.561527
20
16.912022
11
49.247028
21
4.912022
0
LINE
8
0
10
49.247028
20
4.912022
11
26.123514
21
4.643592
0
LINE
8
0
10
26.123514
20
4.643592
11
21.478488
21
4.600282
0
LINE
8
0
10
21.478488
20
4.600282
11
13.218154
21
4.582895
0
LINE
8
0
10
13.218154
20
4.582895
11
6.963063
21
4.650940
0
LINE
8
0
10
6.963063
20
4.650940
11
3.471955
21
4.796161
0
LINE
8
0
10
3.471955
20
4.796161
11
3.000000
21
4.895134
0
LINE
8
0
10
372.500000
20
2.037866
11
368.770899
21
2.787209
0
LINE
8
0
10
368.770899
20
2.787209
11
363.467806
21
4.020949
0
LINE
8
0
10
363.467806
20
4.020949
11
358.803635
21
5.969243
0
LINE
8
0
10
358.803635
20
5.969243
11
356.256594
21
7.924382
0
LINE
8
0
10
356.256594
20
7.924382
11
354.560547
21
9.561341
0
LINE
8
0
10
354.560547
20
9.561341
11
352.094902
21
13.200538
0
LINE
8
0
10
352.094902
20
13.200538
11
350.822663
21
17.467158
0
LINE
8
0
10
350.822663
20
17.467158
11
350.693597
21
22.529666
0
LINE
8
0
10
350.693597
20
22.529666
11
351.042055
21
25.412022
0
LINE
8
0
10
351.042055
20
25.412022
11
351.185267
21
26.186299
0
LINE
8
0
10
351.185267
20
26.186299
11
351.767727
21
28.905482
0
LINE
8
0
10
351.767727
20
28.905482
11
352.706763
21
33.025715
0
LINE
8
0
10
352.706763
20
33.025715
11
353.956608
21
38.355250
0
LINE
8
0
10
353.956608
20
38.355250
11
356.314033
21
48.197544
0
LINE
8
0
10
356.314033
20
48.197544
11
360.117958
21
63.763511
0
LINE
8
0
10
360.117958
20
63.763511
11
362.200101
21
72.162022
0
LINE
8
0
10
362.200101
20
72.162022
11
372.475597
21
113.412022
0
LINE
8
0
10
372.475597
20
113.412022
11
392.610198
21
113.412022
0
LINE
8
0
10
392.610198
20
113.412022
11
412.744798
21
113.412022
0
LINE
8
0
10
412.744798
20
113.412022
11
403.198245
21
75.162022
0
LINE
8
0
10
403.198245
20
75.162022
11
402.011493
21
70.387290
0
LINE
8
0
10
402.011493
20
70.387290
11
399.901614
21
61.773822
0
LINE
8
0
10
399.901614
20
61.773822
11
398.137750
21
54.383038
0
LINE
8
0
10
398.137750
20
54.383038
11
396.713318
21
48.184567
0
LINE
8
0
10
396.713318
20
48.184567
11
395.621736
21
43.148036
0
LINE
8
0
10
395.621736
20
43.148036
11
394.856420
21
39.243072
0
LINE
8
0
10
394.856420
20
39.243072
11
394.410788
21
36.439303
0
LINE
8
0
10
394.410788
20
36.439303
11
394.278257
21
34.706356
0
LINE
8
0
10
394.278257
20
34.706356
11
394.327347
21
34.231949
0
LINE
8
0
10
394.327347
20
34.231949
11
394.799133
21
32.716191
0
LINE
8
0
10
394.799133
20
32.716191
11
396.158781
21
30.453329
0
LINE
8
0
10
396.158781
20
30.453329
11
398.264114
21
29.091877
0
LINE
8
0
10
398.264114
20
29.091877
11
401.344231
21
28.483683
0
LINE
8
0
10
401.344231
20
28.483683
11
403.321429
21
28.415760
0
LINE
8
0
10
403.321429
20
28.415760
11
405.645606
21
28.536622
0
LINE
8
0
10
405.645606
20
28.536622
11
409.741752
21
29.495845
0
LINE
8
0
10
409.741752
20
29.495845
11
413.112516
21
31.417945
0
LINE
8
0
10
413.112516
20
31.417945
11
415.770967
21
34.310375
0
LINE
8
0
10
415.770967
20
34.310375
11
416.837161
21
36.122793
0
LINE
8
0
10
416.837161
20
36.122793
11
417.080652
21
36.699452
0
LINE
8
0
10
417.080652
20
36.699452
11
417.824704
21
38.905782
0
LINE
8
0
10
417.824704
20
38.905782
11
418.873255
21
42.377567
0
LINE
8
0
10
418.873255
20
42.377567
11
420.180390
21
46.948533
0
LINE
8
0
10
420.180390
20
46.948533
11
422.525502
21
55.502223
0
LINE
8
0
10
422.525502
20
55.502223
11
426.128834
21
69.202383
0
LINE
8
0
10
426.128834
20
69.202383
11
428.031414
21
76.662022
0
LINE
8
0
10
428.031414
20
76.662022
11
437.307833
21
113.412022
0
LINE
8
0
10
437.307833
20
113.412022
11
457.153916
21
113.412022
0
LINE
8
0
10
457.153916
20
113.412022
11
461.140576
21
113.401507
0
LINE
8
0
10
461.140576
20
113.401507
11
468.230124
21
113.323730
0
LINE
8
0
10
468.230124
20
113.323730
11
473.598645
21
113.184376
0
LINE
8
0
10
473.598645
20
113.184376
11
476.594938
21
113.000347
0
LINE
8
0
10
476.594938
20
113.000347
11
477.000000
21
112.896862
0
LINE
8
0
10
477.000000
20
112.896862
11
476.931161
21
112.576266
0
LINE
8
0
10
476.931161
20
112.576266
11
476.405624
21
110.386400
0
LINE
8
0
10
476.405624
20
110.386400
11
475.418899
21
106.356292
0
LINE
8
0
10
475.418899
20
106.356292
11
474.038131
21
100.755526
0
LINE
8
0
10
474.038131
20
100.755526
11
471.375027
21
89.999112
0
LINE
8
0
10
471.375027
20
89.999112
11
467.071760
21
72.676056
0
LINE
8
0
10
467.071760
20
72.676056
11
462.400935
21
53.922907
0
LINE
8
0
10
462.400935
20
53.922907
11
457.899715
21
35.896348
0
LINE
8
0
10
457.899715
20
35.896348
11
454.958240
21
24.150635
0
LINE
8
0
10
454.958240
20
24.150635
11
453.330031
21
17.670491
0
LINE
8
0
10
453.330031
20
17.670491
11
452.046377
21
12.585130
0
LINE
8
0
10
452.046377
20
12.585130
11
451.174423
21
9.164136
0
LINE
8
0
10
451.174423
20
9.164136
11
450.913816
21
8.162022
0
LINE
8
0
10
450.913816
20
8.162022
11
449.922912
21
4.412022
0
LINE
8
0
10
449.922912
20
4.412022
11
429.894068
21
4.412022
0
LINE
8
0
10
429.894068
20
4.412022
11
426.604159
21
4.413819
0
LINE
8
0
10
426.604159
20
4.413819
11
421.144563
21
4.434242
0
LINE
8
0
10
421.144563
20
4.434242
11
417.028710
21
4.490540
0
LINE
8
0
10
417.028710
20
4.490540
11
414.076732
21
4.598838
0
LINE
8
0
10
414.076732
20
4.598838
11
411.437571
21
4.894058
0
LINE
8
0
10
411.437571
20
4.894058
11
410.313490
21
5.620182
0
LINE
8
0
10
410.313490
20
5.620182
11
410.373092
21
6.162022
0
LINE
8
0
10
410.373092
20
6.162022
11
411.537711
21
10.397854
0
LINE
8
0
10
411.537711
20
10.397854
11
412.580919
21
15.069853
0
LINE
8
0
10
412.580919
20
15.069853
11
412.743756
21
16.758339
0
LINE
8
0
10
412.743756
20
16.758339
11
412.649058
21
17.096297
0
LINE
8
0
10
412.649058
20
17.096297
11
412.131762
21
16.953608
0
LINE
8
0
10
412.131762
20
16.953608
11
409.646472
21
14.982366
0
LINE
8
0
10
409.646472
20
14.982366
11
407.984583
21
13.396605
0
LINE
8
0
10
407.984583
20
13.396605
11
404.624878
21
10.565517
0
LINE
8
0
10
404.624878
20
10.565517
11
396.027373
21
5.806985
0
LINE
8
0
10
396.027373
20
5.806985
11
386.200304
21
2.661306
0
LINE
8
0
10
386.200304
20
2.661306
11
376.673148
21
1.618070
0
LINE
8
0
10
376.673148
20
1.618070
11
372.500000
21
2.037866
0
LINE
8
0
10
231.343746
20
4.391106
11
226.654326
21
5.756196
0
LINE
8
0
10
226.654326
20
5.756196
11
221.098889
21
8.725754
0
LINE
8
0
10
221.098889
20
8.725754
11
218.717849
21
11.118122
0
LINE
8
0
10
218.717849
20
11.118122
11
218.010707
21
12.386174
0
LINE
8
0
10
218.010707
20
12.386174
11
217.501574
21
14.143717
0
LINE
8
0
10
217.501574
20
14.143717
11
217.111871
21
19.122720
0
LINE
8
0
10
217.111871
20
19.122720
11
217.243456
21
22.188881
0
LINE
8
0
10
217.243456
20
22.188881
11
217.318769
21
22.826609
0
LINE
8
0
10
217.318769
20
22.826609
11
217.691386
21
24.941103
0
LINE
8
0
10
217.691386
20
24.941103
11
218.347122
21
28.121959
0
LINE
8
0
10
218.347122
20
28.121959
11
219.270534
21
32.306347
0
LINE
8
0
10
219.270534
20
32.306347
11
221.123764
21
40.327115
0
LINE
8
0
10
221.123764
20
40.327115
11
224.387471
21
53.947438
0
LINE
8
0
10
224.387471
20
53.947438
11
228.443914
21
70.450978
0
LINE
8
0
10
228.443914
20
70.450978
11
233.169550
21
89.335109
0
LINE
8
0
10
233.169550
20
89.335109
11
238.440838
21
110.097202
0
LINE
8
0
10
238.440838
20
110.097202
11
244.134235
21
132.234629
0
LINE
8
0
10
244.134235
20
132.234629
11
247.100618
21
143.662022
0
LINE
8
0
10
247.100618
20
143.662022
11
248.077088
21
147.412022
0
LINE
8
0
10
248.077088
20
147.412022
11
268.038544
21
147.412022
0
LINE
8
0
10
268.038544
20
147.412022
11
272.048380
21
147.405147
0
LINE
8
0
10
272.048380
20
147.405147
11
279.179142
21
147.354295
0
LINE
8
0
10
279.179142
20
147.354295
11
284.578872
21
147.263181
0
LINE
8
0
10
284.578872
20
147.263181
11
287.592584
21
147.142859
0
LINE
8
0
10
287.592584
20
147.142859
11
288.000000
21
147.075198
0
LINE
8
0
10
288.000000
20
147.075198
11
287.911709
21
146.667440
0
LINE
8
0
10
287.911709
20
146.667440
11
287.258612
21
144.031368
0
LINE
8
0
10
287.258612
20
144.031368
11
286.088444
21
139.432735
0
LINE
8
0
10
286.088444
20
139.432735
11
284.543146
21
133.429354
0
LINE
8
0
10
284.543146
20
133.429354
11
283.674180
21
130.075198
0
LINE
8
0
10
283.674180
20
130.075198
11
279.348360
21
113.412022
0
LINE
8
0
10
279.348360
20
113.412022
11
287.674180
21
113.412022
0
LINE
8
0
10
287.674180
20
113.412022
11
291.104652
21
113.338870
0
LINE
8
0
10
291.104652
20
113.338870
11
294.696635
21
112.982165
0
LINE
8
0
10
294.696635
20
112.982165
11
295.849291
21
112.605228
0
LINE
8
0
10
295.849291
20
112.605228
11
296.000000
21
112.381581
0
LINE
8
0
10
296.000000
20
112.381581
11
295.946456
21
111.960902
0
LINE
8
0
10
295.946456
20
111.960902
11
295.550380
21
110.012143
0
LINE
8
0
10
295.550380
20
110.012143
11
294.395204
21
105.028023
0
LINE
8
0
10
294.395204
20
105.028023
11
293.376578
21
100.881581
0
LINE
8
0
10
293.376578
20
100.881581
11
290.753156
21
90.412022
0
LINE
8
0
10
290.753156
20
90.412022
11
282.066909
21
90.412022
0
LINE
8
0
10
282.066909
20
90.412022
11
273.380662
21
90.412022
0
LINE
8
0
10
273.380662
20
90.412022
11
266.661926
21
62.662022
0
LINE
8
0
10
266.661926
20
62.662022
11
265.312853
21
57.062120
0
LINE
8
0
10
265.312853
20
57.062120
11
262.917031
21
46.960362
0
LINE
8
0
10
262.917031
20
46.960362
11
261.107244
21
39.115635
0
LINE
8
0
10
261.107244
20
39.115635
11
260.266549
21
35.285691
0
LINE
8
0
10
260.266549
20
35.285691
11
260.003558
21
33.933323
0
LINE
8
0
10
260.003558
20
33.933323
11
259.971595
21
33.662022
0
LINE
8
0
10
259.971595
20
33.662022
11
260.173534
21
32.547114
0
LINE
8
0
10
260.173534
20
32.547114
11
261.553633
21
30.639683
0
LINE
8
0
10
261.553633
20
30.639683
11
264.064144
21
29.256431
0
LINE
8
0
10
264.064144
20
29.256431
11
267.499612
21
28.510562
0
LINE
8
0
10
267.499612
20
28.510562
11
269.500000
21
28.412022
0
LINE
8
0
10
269.500000
20
28.412022
11
271.635547
21
28.370167
0
LINE
8
0
10
271.635547
20
28.370167
11
274.566016
21
28.087541
0
LINE
8
0
10
274.566016
20
28.087541
11
275.000000
21
27.881581
0
LINE
8
0
10
275.000000
20
27.881581
11
272.271422
21
16.513334
0
LINE
8
0
10
272.271422
20
16.513334
11
269.004801
21
5.419791
0
LINE
8
0
10
269.004801
20
5.419791
11
268.488570
21
5.122257
0
LINE
8
0
10
268.488570
20
5.122257
11
265.728195
21
4.593366
0
LINE
8
0
10
265.728195
20
4.593366
11
258.413478
21
3.996764
0
LINE
8
0
10
258.413478
20
3.996764
11
245.943200
21
3.656147
0
LINE
8
0
10
245.943200
20
3.656147
11
237.225638
21
3.814839
0
LINE
8
0
10
237.225638
20
3.814839
11
232.862010
21
4.149143
0
LINE
8
0
10
232.862010
20
4.149143
11
231.343746
21
4.391106
0
LINE
8
0
10
169.365773
20
76.891703
11
187.488865
21
149.412022
0
LINE
8
0
10
187.488865
20
149.412022
11
207.653295
21
149.412022
0
LINE
8
0
10
207.653295
20
149.412022
11
227.817726
21
149.412022
0
LINE
8
0
10
227.817726
20
149.412022
11
209.644111
21
77.162022
0
LINE
8
0
10
209.644111
20
77.162022
11
191.470495
21
4.912022
0
LINE
8
0
10
191.470495
20
4.912022
11
171.356588
21
4.641703
0
LINE
8
0
10
171.356588
20
4.641703
11
151.242681
21
4.371384
0
LINE
8
0
10
151.242681
20
4.371384
11
169.365773
21
76.891703
0
LINE
8
0
10
298.971122
20
58.662022
11
312.705575
21
112.912022
0
LINE
8
0
10
312.705575
20
112.912022
11
332.730995
21
113.182340
0
LINE
8
0
10
332.730995
20
113.182340
11
352.756416
21
113.452657
0
LINE
8
0
10
352.756416
20
113.452657
11
339.135601
21
58.932340
0
LINE
8
0
10
339.135601
20
58.932340
11
325.514785
21
4.412022
0
LINE
8
0
10
325.514785
20
4.412022
11
305.375728
21
4.412022
0
LINE
8
0
10
305.375728
20
4.412022
11
285.236670
21
4.412022
0
LINE
8
0
10
285.236670
20
4.412022
11
298.971122
21
58.662022
0
LINE
8
0
10
98.021483
20
59.162022
11
98.055638
21
60.224693
0
LINE
8
0
10
98.055638
20
60.224693
11
98.284042
21
64.981480
0
LINE
8
0
10
98.284042
20
64.981480
11
98.685339
21
72.488072
0
LINE
8
0
10
98.685339
20
72.488072
11
99.210852
21
81.833921
0
LINE
8
0
10
99.210852
20
81.833921
11
99.504978
21
86.912022
0
LINE
8
0
10
99.504978
20
86.912022
11
99.798806
21
92.005430
0
LINE
8
0
10
99.798806
20
92.005430
11
100.322121
21
101.464512
0
LINE
8
0
10
100.322121
20
101.464512
11
100.719481
21
109.173985
0
LINE
8
0
10
100.719481
20
109.173985
11
100.942685
21
114.198692
0
LINE
8
0
10
100.942685
20
114.198692
11
100.973917
21
115.412022
0
LINE
8
0
10
100.973917
20
115.412022
11
100.846121
21
116.073559
0
LINE
8
0
10
100.846121
20
116.073559
11
100.088236
21
115.529649
0
LINE
8
0
10
100.088236
20
115.529649
11
99.131504
21
114.005073
0
LINE
8
0
10
99.131504
20
114.005073
11
97.754378
21
111.440660
0
LINE
8
0
10
97.754378
20
111.440660
11
95.906108
21
107.741901
0
LINE
8
0
10
95.906108
20
107.741901
11
93.535939
21
102.814287
0
LINE
8
0
10
93.535939
20
102.814287
11
90.593119
21
96.563307
0
LINE
8
0
10
90.593119
20
96.563307
11
88.891105
21
92.912022
0
LINE
8
0
10
88.891105
20
92.912022
11
86.414657
21
87.582017
0
LINE
8
0
10
86.414657
20
87.582017
11
81.741742
21
77.501500
0
LINE
8
0
10
81.741742
20
77.501500
11
77.836855
21
69.048130
0
LINE
8
0
10
77.836855
20
69.048130
11
75.697145
21
64.392756
0
LINE
8
0
10
75.697145
20
64.392756
11
74.757380
21
62.331715
0
LINE
8
0
10
74.757380
20
62.331715
11
74.455712
21
61.662022
0
LINE
8
0
10
74.455712
20
61.662022
11
72.110058
21
56.412022
0
LINE
8
0
10
72.110058
20
56.412022
11
85.055029
21
56.412022
0
LINE
8
0
10
85.055029
20
56.412022
11
98.000000
21
56.412022
0
LINE
8
0
10
98.000000
20
56.412022
11
98.021483
21
59.162022
0
ENDSEC
0
EOF
