  0
SECTION
  2
HEADER
  9
$ACADVER
  1
AC1006
  9
$EXTMIN
 10
0.000000
 20
0.000000
 30
0.000000
  9
$EXTMAX
 10
1750.000000
 20
272.000000
 30
0.000000
  0
ENDSEC
  0
SECTION
  2
ENTITIES
  0
POLYLINE
  8
0
 66
1
 70
1
  0
VERTEX
  8
0
 10
1618.173702
 20
270.962942
 42
0.046307
  0
VERTEX
  8
0
 10
1594.160153
 20
265.642677
 42
0.054076
  0
VERTEX
  8
0
 10
1572.830868
 20
256.152750
 42
0.056232
  0
VERTEX
  8
0
 10
1554.719114
 20
242.695369
 42
0.057545
  0
VERTEX
  8
0
 10
1540.219185
 20
225.635776
 42
0.000000
  0
VERTEX
  8
0
 10
1535.125572
 20
218.020192
 42
0.000000
  0
VERTEX
  8
0
 10
1530.353501
 20
227.070950
 42
0.050562
  0
VERTEX
  8
0
 10
1521.572086
 20
240.293168
 42
0.067848
  0
VERTEX
  8
0
 10
1511.038629
 20
250.067179
 42
0.063814
  0
VERTEX
  8
0
 10
1497.754547
 20
257.068939
 42
0.038812
  0
VERTEX
  8
0
 10
1480.671824
 20
261.981813
 42
0.023850
  0
VERTEX
  8
0
 10
1466.917274
 20
264.127628
 42
0.016348
  0
VERTEX
  8
0
 10
1451.159328
 20
265.301822
 42
0.008836
  0
VERTEX
  8
0
 10
1427.832158
 20
265.862080
 42
0.001585
  0
VERTEX
  8
0
 10
1384.332202
 20
266.000000
 42
0.000000
  0
VERTEX
  8
0
 10
1319.011760
 20
266.000000
 42
0.000000
  0
VERTEX
  8
0
 10
1318.755880
 20
185.145414
 42
0.000000
  0
VERTEX
  8
0
 10
1318.500000
 20
104.290827
 42
0.000000
  0
VERTEX
  8
0
 10
1297.072571
 20
162.395414
 42
0.000072
  0
VERTEX
  8
0
 10
1288.249854
 20
186.309280
 42
0.000073
  0
VERTEX
  8
0
 10
1279.459331
 20
210.114590
 42
0.000071
  0
VERTEX
  8
0
 10
1271.803826
 20
230.827824
 42
0.000300
  0
VERTEX
  8
0
 10
1267.202186
 20
243.250000
 42
0.000000
  0
VERTEX
  8
0
 10
1258.759229
 20
266.000000
 42
0.000000
  0
VERTEX
  8
0
 10
1218.629615
 20
265.995579
 42
0.000000
  0
VERTEX
  8
0
 10
1178.500000
 20
265.991158
 42
0.000000
  0
VERTEX
  8
0
 10
1142.968046
 20
173.245579
 42
0.000000
  0
VERTEX
  8
0
 10
1107.436092
 20
80.500000
 42
0.000000
  0
VERTEX
  8
0
 10
1062.718046
 20
80.239705
 42
0.000000
  0
VERTEX
  8
0
 10
1018.000000
 20
79.979410
 42
0.000000
  0
VERTEX
  8
0
 10
1018.000000
 20
172.989705
 42
0.000000
  0
VERTEX
  8
0
 10
1018.000000
 20
266.000000
 42
0.000000
  0
VERTEX
  8
0
 10
974.000000
 20
266.000000
 42
0.000000
  0
VERTEX
  8
0
 10
930.000000
 20
266.000000
 42
0.000000
  0
VERTEX
  8
0
 10
930.000000
 20
140.440983
 42
-0.000620
  0
VERTEX
  8
0
 10
929.940342
 20
92.330218
 42
-0.001041
  0
VERTEX
  8
0
 10
929.755995
 20
51.915731
 42
-0.000051
  0
VERTEX
  8
0
 10
929.510920
 20
15.584250
 42
-0.585085
  0
VERTEX
  8
0
 10
929.169344
 20
15.395339
 42
-0.213433
  0
VERTEX
  8
0
 10
927.682906
 20
17.583676
 42
-0.007330
  0
VERTEX
  8
0
 10
925.979841
 20
28.040334
 42
-0.012069
  0
VERTEX
  8
0
 10
924.367633
 20
41.118754
 42
-0.006866
  0
VERTEX
  8
0
 10
923.017916
 20
57.000000
 42
0.024435
  0
VERTEX
  8
0
 10
920.407686
 20
78.663440
 42
0.046453
  0
VERTEX
  8
0
 10
915.870394
 20
95.609567
 42
0.057801
  0
VERTEX
  8
0
 10
909.210643
 20
108.722591
 42
0.075139
  0
VERTEX
  8
0
 10
900.183621
 20
118.700703
 42
0.022498
  0
VERTEX
  8
0
 10
897.849942
 20
120.439742
 42
0.015783
  0
VERTEX
  8
0
 10
895.079685
 20
122.191504
 42
0.015964
  0
VERTEX
  8
0
 10
892.314891
 20
123.703270
 42
0.031806
  0
VERTEX
  8
0
 10
890.023014
 20
124.685422
 42
-0.008549
  0
VERTEX
  8
0
 10
888.097897
 20
125.406461
 42
-0.013524
  0
VERTEX
  8
0
 10
886.476597
 20
126.096747
 42
-0.007432
  0
VERTEX
  8
0
 10
885.166375
 20
126.720671
 42
-0.287199
  0
VERTEX
  8
0
 10
885.003699
 20
126.984719
 42
-0.257843
  0
VERTEX
  8
0
 10
885.167209
 20
127.275757
 42
-0.003917
  0
VERTEX
  8
0
 10
886.880324
 20
128.317607
 42
-0.009401
  0
VERTEX
  8
0
 10
888.941310
 20
129.497001
 42
-0.005941
  0
VERTEX
  8
0
 10
891.387018
 20
130.798625
 42
0.064382
  0
VERTEX
  8
0
 10
902.810376
 20
138.711175
 42
0.055434
  0
VERTEX
  8
0
 10
912.510229
 20
149.644891
 42
0.054084
  0
VERTEX
  8
0
 10
919.776764
 20
162.732209
 42
0.055003
  0
VERTEX
  8
0
 10
924.017286
 20
177.000000
 42
0.031255
  0
VERTEX
  8
0
 10
924.914930
 20
184.669543
 42
0.017197
  0
VERTEX
  8
0
 10
925.100457
 20
194.118930
 42
0.017187
  0
VERTEX
  8
0
 10
924.643017
 20
203.422336
 42
0.036006
  0
VERTEX
  8
0
 10
923.521713
 20
210.575916
 42
0.052131
  0
VERTEX
  8
0
 10
919.642618
 20
221.840941
 42
0.045117
  0
VERTEX
  8
0
 10
913.363266
 20
232.657741
 42
0.044801
  0
VERTEX
  8
0
 10
905.191814
 20
242.248027
 42
0.049571
  0
VERTEX
  8
0
 10
895.695568
 20
249.872583
 42
0.029457
  0
VERTEX
  8
0
 10
888.770435
 20
253.824335
 42
0.020216
  0
VERTEX
  8
0
 10
880.506458
 20
257.507148
 42
0.019384
  0
VERTEX
  8
0
 10
871.514823
 20
260.688195
 42
0.019906
  0
VERTEX
  8
0
 10
862.382577
 20
263.131913
 42
0.031505
  0
VERTEX
  8
0
 10
854.125174
 20
264.453222
 42
0.016319
  0
VERTEX
  8
0
 10
843.693608
 20
265.111765
 42
0.005904
  0
VERTEX
  8
0
 10
825.559218
 20
265.449189
 42
0.000453
  0
VERTEX
  8
0
 10
776.758148
 20
265.736713
 42
0.000000
  0
VERTEX
  8
0
 10
701.016295
 20
266.114352
 42
0.000000
  0
VERTEX
  8
0
 10
700.758148
 20
208.307176
 42
-0.000484
  0
VERTEX
  8
0
 10
700.571503
 20
173.962932
 42
-0.006385
  0
VERTEX
  8
0
 10
700.328021
 20
161.265399
 42
-0.092817
  0
VERTEX
  8
0
 10
699.811153
 20
158.921534
 42
-0.754570
  0
VERTEX
  8
0
 10
699.182584
 20
159.000000
 42
0.016101
  0
VERTEX
  8
0
 10
696.784903
 20
171.744150
 42
0.020470
  0
VERTEX
  8
0
 10
693.718749
 20
183.312054
 42
0.021245
  0
VERTEX
  8
0
 10
689.827196
 20
194.225856
 42
0.019984
  0
VERTEX
  8
0
 10
684.951458
 20
205.000000
 42
0.053671
  0
VERTEX
  8
0
 10
670.055985
 20
228.128496
 42
0.060687
  0
VERTEX
  8
0
 10
651.110617
 20
246.505194
 42
0.059799
  0
VERTEX
  8
0
 10
628.054670
 20
259.997997
 42
0.049800
  0
VERTEX
  8
0
 10
601.000000
 20
268.679495
 42
0.020979
  0
VERTEX
  8
0
 10
595.726825
 20
269.579449
 42
0.016365
  0
VERTEX
  8
0
 10
589.939838
 20
270.127137
 42
0.011555
  0
VERTEX
  8
0
 10
582.457905
 20
270.415526
 42
0.003854
  0
VERTEX
  8
0
 10
571.500000
 20
270.500000
 42
0.003854
  0
VERTEX
  8
0
 10
560.542095
 20
270.415526
 42
0.011555
  0
VERTEX
  8
0
 10
553.060162
 20
270.127137
 42
0.016365
  0
VERTEX
  8
0
 10
547.273175
 20
269.579449
 42
0.020979
  0
VERTEX
  8
0
 10
542.000000
 20
268.679495
 42
0.022745
  0
VERTEX
  8
0
 10
529.298875
 20
265.348651
 42
0.024985
  0
VERTEX
  8
0
 10
517.353653
 20
260.962368
 42
0.025412
  0
VERTEX
  8
0
 10
506.090944
 20
255.484478
 42
0.025346
  0
VERTEX
  8
0
 10
495.431893
 20
248.887868
 42
0.039047
  0
VERTEX
  8
0
 10
485.005835
 20
240.406283
 42
0.026498
  0
VERTEX
  8
0
 10
474.492012
 20
229.274115
 42
0.026141
  0
VERTEX
  8
0
 10
465.015521
 20
216.849361
 42
0.033391
  0
VERTEX
  8
0
 10
457.706241
 20
204.447305
 42
0.028876
  0
VERTEX
  8
0
 10
453.478462
 20
194.668339
 42
0.016282
  0
VERTEX
  8
0
 10
449.438886
 20
182.386799
 42
0.016123
  0
VERTEX
  8
0
 10
446.120014
 20
169.547880
 42
0.023270
  0
VERTEX
  8
0
 10
444.087913
 20
158.000000
 42
-0.921909
  0
VERTEX
  8
0
 10
443.722457
 20
158.016983
 42
-0.003961
  0
VERTEX
  8
0
 10
443.441853
 20
168.461901
 42
-0.003094
  0
VERTEX
  8
0
 10
443.231012
 20
185.000093
 42
-0.001086
  0
VERTEX
  8
0
 10
443.126805
 20
208.750000
 42
0.000000
  0
VERTEX
  8
0
 10
443.000000
 20
266.000000
 42
0.000000
  0
VERTEX
  8
0
 10
409.000000
 20
266.000000
 42
0.000000
  0
VERTEX
  8
0
 10
375.000000
 20
266.000000
 42
0.000000
  0
VERTEX
  8
0
 10
375.000000
 20
218.500000
 42
0.000000
  0
VERTEX
  8
0
 10
375.000000
 20
171.000000
 42
0.000000
  0
VERTEX
  8
0
 10
330.000000
 20
171.000000
 42
0.000000
  0
VERTEX
  8
0
 10
285.000000
 20
171.000000
 42
0.000000
  0
VERTEX
  8
0
 10
285.000000
 20
218.500000
 42
0.000000
  0
VERTEX
  8
0
 10
285.000000
 20
266.000000
 42
0.000000
  0
VERTEX
  8
0
 10
142.500000
 20
266.000000
 42
0.000000
  0
VERTEX
  8
0
 10
0.000000
 20
266.000000
 42
0.000000
  0
VERTEX
  8
0
 10
0.000000
 20
237.000000
 42
0.000000
  0
VERTEX
  8
0
 10
0.000000
 20
208.000000
 42
0.000000
  0
VERTEX
  8
0
 10
39.000000
 20
208.000000
 42
0.000000
  0
VERTEX
  8
0
 10
78.000000
 20
208.000000
 42
0.000000
  0
VERTEX
  8
0
 10
78.000000
 20
107.000000
 42
0.000000
  0
VERTEX
  8
0
 10
78.000000
 20
6.000000
 42
0.000000
  0
VERTEX
  8
0
 10
112.000000
 20
6.000000
 42
0.000000
  0
VERTEX
  8
0
 10
146.000000
 20
6.000000
 42
0.000000
  0
VERTEX
  8
0
 10
146.000000
 20
107.000000
 42
0.000000
  0
VERTEX
  8
0
 10
146.000000
 20
208.000000
 42
0.000000
  0
VERTEX
  8
0
 10
181.500000
 20
208.000000
 42
0.000000
  0
VERTEX
  8
0
 10
217.000000
 20
208.000000
 42
0.000000
  0
VERTEX
  8
0
 10
217.000000
 20
107.000000
 42
0.000000
  0
VERTEX
  8
0
 10
217.000000
 20
6.000000
 42
0.000000
  0
VERTEX
  8
0
 10
251.000000
 20
6.000000
 42
0.000000
  0
VERTEX
  8
0
 10
285.000000
 20
6.000000
 42
0.000000
  0
VERTEX
  8
0
 10
285.000000
 20
59.500000
 42
0.000000
  0
VERTEX
  8
0
 10
285.000000
 20
113.000000
 42
0.000000
  0
VERTEX
  8
0
 10
330.000000
 20
113.000000
 42
0.000000
  0
VERTEX
  8
0
 10
375.000000
 20
113.000000
 42
0.000000
  0
VERTEX
  8
0
 10
375.000000
 20
59.500000
 42
0.000000
  0
VERTEX
  8
0
 10
375.000000
 20
6.000000
 42
0.000000
  0
VERTEX
  8
0
 10
409.000000
 20
6.000000
 42
0.000000
  0
VERTEX
  8
0
 10
443.000000
 20
6.000000
 42
0.000000
  0
VERTEX
  8
0
 10
443.126805
 20
63.250000
 42
-0.001106
  0
VERTEX
  8
0
 10
443.230765
 20
86.737225
 42
-0.003025
  0
VERTEX
  8
0
 10
443.441361
 20
103.336108
 42
-0.003709
  0
VERTEX
  8
0
 10
443.719901
 20
113.983429
 42
-0.923180
  0
VERTEX
  8
0
 10
444.077760
 20
114.000000
 42
0.053687
  0
VERTEX
  8
0
 10
451.785030
 20
81.578598
 42
0.062465
  0
VERTEX
  8
0
 10
465.996417
 20
53.281872
 42
0.064972
  0
VERTEX
  8
0
 10
486.187515
 20
30.258760
 42
0.066112
  0
VERTEX
  8
0
 10
511.500000
 20
13.345628
 42
0.029233
  0
VERTEX
  8
0
 10
525.366212
 20
7.506557
 42
0.032841
  0
VERTEX
  8
0
 10
539.295614
 20
3.584573
 42
0.030936
  0
VERTEX
  8
0
 10
554.318067
 20
1.361050
 42
0.021359
  0
VERTEX
  8
0
 10
571.500000
 20
0.632412
 42
0.023303
  0
VERTEX
  8
0
 10
589.273964
 20
1.467123
 42
0.030097
  0
VERTEX
  8
0
 10
605.413806
 20
3.967556
 42
0.031787
  0
VERTEX
  8
0
 10
620.387451
 20
8.231641
 42
0.032031
  0
VERTEX
  8
0
 10
634.660135
 20
14.350705
 42
0.061956
  0
VERTEX
  8
0
 10
657.005399
 20
29.403409
 42
0.058369
  0
VERTEX
  8
0
 10
675.493252
 20
49.747972
 42
0.056819
  0
VERTEX
  8
0
 10
689.180912
 20
74.362536
 42
0.053041
  0
VERTEX
  8
0
 10
697.368158
 20
102.000000
 42
0.000047
  0
VERTEX
  8
0
 10
698.034232
 20
105.620768
 42
0.000039
  0
VERTEX
  8
0
 10
698.741991
 20
109.471875
 42
0.000040
  0
VERTEX
  8
0
 10
699.389650
 20
112.999086
 42
0.000107
  0
VERTEX
  8
0
 10
699.848103
 20
115.500000
 42
-0.897356
  0
VERTEX
  8
0
 10
700.271884
 20
115.469011
 42
-0.003829
  0
VERTEX
  8
0
 10
700.563194
 20
104.854614
 42
-0.003395
  0
VERTEX
  8
0
 10
700.778212
 20
88.305081
 42
-0.001034
  0
VERTEX
  8
0
 10
700.881784
 20
63.250000
 42
0.000000
  0
VERTEX
  8
0
 10
701.000000
 20
6.000000
 42
0.000000
  0
VERTEX
  8
0
 10
735.000000
 20
6.000000
 42
0.000000
  0
VERTEX
  8
0
 10
769.000000
 20
6.000000
 42
0.000000
  0
VERTEX
  8
0
 10
769.000000
 20
53.598888
 42
0.000000
  0
VERTEX
  8
0
 10
769.000000
 20
101.197777
 42
0.000000
  0
VERTEX
  8
0
 10
798.750000
 20
100.753889
 42
-0.004350
  0
VERTEX
  8
0
 10
821.186167
 20
100.223875
 42
-0.037495
  0
VERTEX
  8
0
 10
831.138950
 20
99.152091
 42
-0.079451
  0
VERTEX
  8
0
 10
837.618343
 20
96.854276
 42
-0.058302
  0
VERTEX
  8
0
 10
843.852481
 20
92.442724
 42
-0.068413
  0
VERTEX
  8
0
 10
849.889239
 20
85.302822
 42
-0.065000
  0
VERTEX
  8
0
 10
853.902041
 20
76.677337
 42
-0.041592
  0
VERTEX
  8
0
 10
856.699550
 20
64.311906
 42
-0.011077
  0
VERTEX
  8
0
 10
859.063887
 20
44.230977
 42
0.008158
  0
VERTEX
  8
0
 10
860.574117
 20
30.725598
 42
0.012418
  0
VERTEX
  8
0
 10
862.367107
 20
19.060407
 42
0.008897
  0
VERTEX
  8
0
 10
864.230776
 20
9.631448
 42
0.146365
  0
VERTEX
  8
0
 10
865.763759
 20
6.849183
 42
0.195059
  0
VERTEX
  8
0
 10
867.313188
 20
6.210015
 42
0.000252
  0
VERTEX
  8
0
 10
900.935727
 20
6.026217
 42
0.001217
  0
VERTEX
  8
0
 10
950.704577
 20
5.900412
 42
0.000178
  0
VERTEX
  8
0
 10
1051.647442
 20
5.926897
 42
0.000000
  0
VERTEX
  8
0
 10
1169.794883
 20
6.000000
 42
0.000000
  0
VERTEX
  8
0
 10
1177.295890
 20
24.750000
 42
0.000000
  0
VERTEX
  8
0
 10
1184.796896
 20
43.500000
 42
0.000000
  0
VERTEX
  8
0
 10
1216.690160
 20
43.763578
 42
0.000000
  0
VERTEX
  8
0
 10
1248.583423
 20
44.027157
 42
0.000000
  0
VERTEX
  8
0
 10
1255.926404
 20
24.987456
 42
0.000000
  0
VERTEX
  8
0
 10
1263.269385
 20
5.947754
 42
0.000000
  0
VERTEX
  8
0
 10
1369.384692
 20
6.228750
 42
0.000000
  0
VERTEX
  8
0
 10
1475.500000
 20
6.509745
 42
0.000000
  0
VERTEX
  8
0
 10
1485.500000
 20
9.254240
 42
0.035194
  0
VERTEX
  8
0
 10
1500.293342
 20
14.457457
 42
0.041333
  0
VERTEX
  8
0
 10
1513.395357
 20
21.465937
 42
0.045152
  0
VERTEX
  8
0
 10
1524.075939
 20
29.824706
 42
0.065973
  0
VERTEX
  8
0
 10
1531.620646
 20
39.064456
 42
-0.003285
  0
VERTEX
  8
0
 10
1533.045900
 20
41.339960
 42
-0.005300
  0
VERTEX
  8
0
 10
1534.292597
 20
43.256434
 42
-0.001321
  0
VERTEX
  8
0
 10
1535.397946
 20
44.907375
 42
-0.249538
  0
VERTEX
  8
0
 10
1535.571983
 20
45.000000
 42
-0.270832
  0
VERTEX
  8
0
 10
1535.734995
 20
44.904713
 42
-0.002399
  0
VERTEX
  8
0
 10
1536.456723
 20
43.608507
 42
-0.007365
  0
VERTEX
  8
0
 10
1537.269658
 20
42.078965
 42
-0.004585
  0
VERTEX
  8
0
 10
1538.179846
 20
40.263002
 42
0.071761
  0
VERTEX
  8
0
 10
1543.740176
 20
32.113240
 42
0.038632
  0
VERTEX
  8
0
 10
1552.644301
 20
23.792084
 42
0.036410
  0
VERTEX
  8
0
 10
1563.570329
 20
16.292250
 42
0.038050
  0
VERTEX
  8
0
 10
1575.313259
 20
10.580595
 42
0.039652
  0
VERTEX
  8
0
 10
1592.238553
 20
5.393608
 42
0.023949
  0
VERTEX
  8
0
 10
1612.921496
 20
1.838423
 42
0.023588
  0
VERTEX
  8
0
 10
1634.444822
 20
0.217450
 42
0.031608
  0
VERTEX
  8
0
 10
1654.000000
 20
0.905907
 42
0.054991
  0
VERTEX
  8
0
 10
1687.319118
 20
7.946950
 42
0.074080
  0
VERTEX
  8
0
 10
1714.819067
 20
21.778547
 42
0.081993
  0
VERTEX
  8
0
 10
1735.049047
 20
41.692626
 42
0.088518
  0
VERTEX
  8
0
 10
1747.154070
 20
66.556587
 42
0.044447
  0
VERTEX
  8
0
 10
1748.903908
 20
75.771271
 42
0.024680
  0
VERTEX
  8
0
 10
1749.470085
 20
87.205209
 42
0.024620
  0
VERTEX
  8
0
 10
1748.903279
 20
98.738846
 42
0.041185
  0
VERTEX
  8
0
 10
1747.159359
 20
108.286718
 42
0.073034
  0
VERTEX
  8
0
 10
1738.832088
 20
127.509651
 42
0.070130
  0
VERTEX
  8
0
 10
1725.236750
 20
143.827620
 42
0.065406
  0
VERTEX
  8
0
 10
1706.738593
 20
156.633079
 42
0.051376
  0
VERTEX
  8
0
 10
1684.000000
 20
165.510768
 42
-0.002798
  0
VERTEX
  8
0
 10
1680.215907
 20
166.579095
 42
-0.003459
  0
VERTEX
  8
0
 10
1676.703125
 20
167.618454
 42
-0.002849
  0
VERTEX
  8
0
 10
1673.764880
 20
168.528287
 42
-0.025515
  0
VERTEX
  8
0
 10
1672.500000
 20
169.000071
 42
-0.799521
  0
VERTEX
  8
0
 10
1672.569743
 20
169.370445
 42
-0.002140
  0
VERTEX
  8
0
 10
1681.188484
 20
169.641959
 42
-0.004342
  0
VERTEX
  8
0
 10
1692.286051
 20
169.847611
 42
-0.001995
  0
VERTEX
  8
0
 10
1706.750000
 20
169.932320
 42
0.000000
  0
VERTEX
  8
0
 10
1743.000000
 20
170.000000
 42
0.000000
  0
VERTEX
  8
0
 10
1742.997183
 20
176.250000
 42
0.020939
  0
VERTEX
  8
0
 10
1742.670218
 20
183.970971
 42
0.014210
  0
VERTEX
  8
0
 10
1741.681181
 20
192.716444
 42
0.014189
  0
VERTEX
  8
0
 10
1740.193150
 20
201.416002
 42
0.020470
  0
VERTEX
  8
0
 10
1738.347532
 20
209.000000
 42
0.067423
  0
VERTEX
  8
0
 10
1728.165872
 20
232.153676
 42
0.084669
  0
VERTEX
  8
0
 10
1712.769794
 20
249.783376
 42
0.079173
  0
VERTEX
  8
0
 10
1691.521430
 20
262.118557
 42
0.051066
  0
VERTEX
  8
0
 10
1664.000000
 20
269.614479
 42
0.024168
  0
VERTEX
  8
0
 10
1654.191749
 20
270.752870
 42
0.009451
  0
VERTEX
  8
0
 10
1640.572488
 20
271.411455
 42
0.009229
  0
VERTEX
  8
0
 10
1627.122892
 20
271.558861
 42
0.029505
  0
SEQEND
  0
POLYLINE
  8
0
 66
1
 70
1
  0
VERTEX
  8
0
 10
1661.971435
 20
259.512528
 42
-0.063925
  0
VERTEX
  8
0
 10
1689.013993
 20
250.388539
 42
-0.085158
  0
VERTEX
  8
0
 10
1710.035912
 20
235.285979
 42
-0.091489
  0
VERTEX
  8
0
 10
1723.783472
 20
214.993273
 42
-0.086789
  0
VERTEX
  8
0
 10
1729.711720
 20
190.750000
 42
0.000000
  0
VERTEX
  8
0
 10
1730.296042
 20
182.000000
 42
0.000000
  0
VERTEX
  8
0
 10
1699.778126
 20
182.000000
 42
0.000000
  0
VERTEX
  8
0
 10
1669.260210
 20
182.000000
 42
0.000000
  0
VERTEX
  8
0
 10
1668.113605
 20
187.828086
 42
0.102647
  0
VERTEX
  8
0
 10
1664.189632
 20
197.139405
 42
0.107442
  0
VERTEX
  8
0
 10
1656.934816
 20
203.943137
 42
0.087298
  0
VERTEX
  8
0
 10
1646.186120
 20
208.051769
 42
0.046758
  0
VERTEX
  8
0
 10
1632.000000
 20
209.439387
 42
0.048432
  0
VERTEX
  8
0
 10
1618.140738
 20
208.150494
 42
0.111503
  0
VERTEX
  8
0
 10
1608.598794
 20
203.985000
 42
0.145108
  0
VERTEX
  8
0
 10
1603.276633
 20
196.967952
 42
0.107577
  0
VERTEX
  8
0
 10
1601.849200
 20
187.284796
 42
0.131999
  0
VERTEX
  8
0
 10
1602.772129
 20
184.594269
 42
0.041013
  0
VERTEX
  8
0
 10
1605.466318
 20
181.227720
 42
0.039810
  0
VERTEX
  8
0
 10
1609.054743
 20
177.988318
 42
0.047733
  0
VERTEX
  8
0
 10
1612.909980
 20
175.574753
 42
0.027771
  0
VERTEX
  8
0
 10
1618.622901
 20
173.102379
 42
0.014812
  0
VERTEX
  8
0
 10
1625.925043
 20
170.655892
 42
0.009442
  0
VERTEX
  8
0
 10
1636.363455
 20
167.713210
 42
0.002556
  0
VERTEX
  8
0
 10
1653.000000
 20
163.451345
 42
-0.009257
  0
VERTEX
  8
0
 10
1674.129619
 20
157.735662
 42
-0.021514
  0
VERTEX
  8
0
 10
1689.673615
 20
152.485694
 42
-0.027791
  0
VERTEX
  8
0
 10
1701.942373
 20
146.943268
 42
-0.034254
  0
VERTEX
  8
0
 10
1712.653972
 20
140.400092
 42
-0.070789
  0
VERTEX
  8
0
 10
1725.683771
 20
128.060851
 42
-0.079078
  0
VERTEX
  8
0
 10
1734.172587
 20
113.006681
 42
-0.075726
  0
VERTEX
  8
0
 10
1737.801170
 20
95.506636
 42
-0.058166
  0
VERTEX
  8
0
 10
1736.572310
 20
76.000000
 42
-0.046188
  0
VERTEX
  8
0
 10
1732.734011
 20
62.207718
 42
-0.049996
  0
VERTEX
  8
0
 10
1726.499742
 20
49.739113
 42
-0.050765
  0
VERTEX
  8
0
 10
1718.014464
 20
38.918044
 42
-0.050472
  0
VERTEX
  8
0
 10
1707.507608
 20
30.005235
 42
-0.039297
  0
VERTEX
  8
0
 10
1697.943742
 20
24.477326
 42
-0.025803
  0
VERTEX
  8
0
 10
1686.191488
 20
19.592314
 42
-0.024322
  0
VERTEX
  8
0
 10
1673.106084
 20
15.634539
 42
-0.023247
  0
VERTEX
  8
0
 10
1659.500000
 20
12.896429
 42
-0.028648
  0
VERTEX
  8
0
 10
1648.846142
 20
11.883148
 42
-0.012129
  0
VERTEX
  8
0
 10
1634.484252
 20
11.692300
 42
-0.012129
  0
VERTEX
  8
0
 10
1620.129819
 20
12.198159
 42
-0.028643
  0
VERTEX
  8
0
 10
1609.500000
 20
13.444903
 42
-0.028446
  0
VERTEX
  8
0
 10
1593.125051
 20
17.294559
 42
-0.039489
  0
VERTEX
  8
0
 10
1579.060505
 20
22.696590
 42
-0.042495
  0
VERTEX
  8
0
 10
1566.841869
 20
29.865393
 42
-0.042429
  0
VERTEX
  8
0
 10
1556.004300
 20
39.000000
 42
-0.019950
  0
VERTEX
  8
0
 10
1549.663028
 20
45.865078
 42
-0.032428
  0
VERTEX
  8
0
 10
1544.917992
 20
52.224515
 42
-0.033896
  0
VERTEX
  8
0
 10
1541.179094
 20
58.933522
 42
-0.024561
  0
VERTEX
  8
0
 10
1537.913500
 20
66.843102
 42
0.011183
  0
VERTEX
  8
0
 10
1536.830433
 20
69.679153
 42
0.023746
  0
VERTEX
  8
0
 10
1535.841097
 20
71.810161
 42
0.036690
  0
VERTEX
  8
0
 10
1535.066084
 20
73.058838
 42
0.611565
  0
VERTEX
  8
0
 10
1534.691465
 20
73.000000
 42
0.003622
  0
VERTEX
  8
0
 10
1534.386947
 20
72.049367
 42
0.000355
  0
VERTEX
  8
0
 10
1533.671208
 20
69.752266
 42
0.000450
  0
VERTEX
  8
0
 10
1532.822464
 20
67.012774
 42
0.000356
  0
VERTEX
  8
0
 10
1531.909855
 20
64.050266
 42
-0.063991
  0
VERTEX
  8
0
 10
1526.104319
 20
51.254157
 42
-0.059981
  0
VERTEX
  8
0
 10
1517.145870
 20
40.028666
 42
-0.057354
  0
VERTEX
  8
0
 10
1505.371153
 20
30.836391
 42
-0.049848
  0
VERTEX
  8
0
 10
1491.260515
 20
24.043593
 42
-0.034810
  0
VERTEX
  8
0
 10
1477.375622
 20
20.059224
 42
-0.039103
  0
VERTEX
  8
0
 10
1463.602572
 20
18.234886
 42
-0.012701
  0
VERTEX
  8
0
 10
1440.958398
 20
17.597856
 42
-0.000681
  0
VERTEX
  8
0
 10
1369.124414
 20
17.500000
 42
0.000000
  0
VERTEX
  8
0
 10
1271.748829
 20
17.500000
 42
0.000000
  0
VERTEX
  8
0
 10
1263.124414
 20
37.257969
 42
0.000000
  0
VERTEX
  8
0
 10
1254.500000
 20
57.015938
 42
0.000000
  0
VERTEX
  8
0
 10
1216.592733
 20
56.757969
 42
0.000000
  0
VERTEX
  8
0
 10
1178.685466
 20
56.500000
 42
0.000000
  0
VERTEX
  8
0
 10
1169.897977
 20
37.000000
 42
0.000000
  0
VERTEX
  8
0
 10
1161.110488
 20
17.500000
 42
0.000000
  0
VERTEX
  8
0
 10
1052.055244
 20
17.245576
 42
0.000000
  0
VERTEX
  8
0
 10
943.000000
 20
16.991153
 42
0.000000
  0
VERTEX
  8
0
 10
943.000000
 20
135.010028
 42
0.000000
  0
VERTEX
  8
0
 10
943.000000
 20
253.028904
 42
0.000000
  0
VERTEX
  8
0
 10
973.750000
 20
252.764452
 42
0.000000
  0
VERTEX
  8
0
 10
1004.500000
 20
252.500000
 42
0.000000
  0
VERTEX
  8
0
 10
1004.755289
 20
161.750000
 42
0.000000
  0
VERTEX
  8
0
 10
1005.010578
 20
71.000000
 42
0.000000
  0
VERTEX
  8
0
 10
1061.255289
 20
71.016218
 42
0.000000
  0
VERTEX
  8
0
 10
1117.500000
 20
71.032437
 42
0.000000
  0
VERTEX
  8
0
 10
1151.500000
 20
162.000000
 42
0.000000
  0
VERTEX
  8
0
 10
1185.500000
 20
252.967563
 42
0.000000
  0
VERTEX
  8
0
 10
1217.000000
 20
252.966756
 42
0.000000
  0
VERTEX
  8
0
 10
1248.500000
 20
252.965948
 42
0.000000
  0
VERTEX
  8
0
 10
1289.500000
 20
144.232974
 42
0.000000
  0
VERTEX
  8
0
 10
1330.500000
 20
35.500000
 42
0.000000
  0
VERTEX
  8
0
 10
1330.754424
 20
144.750000
 42
0.000000
  0
VERTEX
  8
0
 10
1331.008847
 20
254.000000
 42
0.000000
  0
VERTEX
  8
0
 10
1391.254424
 20
253.982671
 42
-0.001516
  0
VERTEX
  8
0
 10
1415.022431
 20
253.903784
 42
-0.002025
  0
VERTEX
  8
0
 10
1436.593487
 20
253.679407
 42
-0.001410
  0
VERTEX
  8
0
 10
1454.679908
 20
253.366978
 42
-0.020958
  0
VERTEX
  8
0
 10
1461.000000
 20
252.974616
 42
-0.027947
  0
VERTEX
  8
0
 10
1476.095641
 20
250.541731
 42
-0.036932
  0
VERTEX
  8
0
 10
1489.441611
 20
246.566390
 42
-0.041003
  0
VERTEX
  8
0
 10
1500.814185
 20
241.138736
 42
-0.054968
  0
VERTEX
  8
0
 10
1509.991084
 20
234.347769
 42
-0.039645
  0
VERTEX
  8
0
 10
1516.258199
 20
227.547863
 42
-0.050688
  0
VERTEX
  8
0
 10
1520.810297
 20
220.353024
 42
-0.048760
  0
VERTEX
  8
0
 10
1523.943194
 20
212.163609
 42
-0.032977
  0
VERTEX
  8
0
 10
1525.950246
 20
202.363380
 42
-0.069049
  0
VERTEX
  8
0
 10
1525.922621
 20
187.076211
 42
-0.073072
  0
VERTEX
  8
0
 10
1521.698011
 20
172.687061
 42
-0.072825
  0
VERTEX
  8
0
 10
1513.496094
 20
160.081840
 42
-0.067890
  0
VERTEX
  8
0
 10
1501.846766
 20
150.008399
 42
0.000000
  0
VERTEX
  8
0
 10
1496.193532
 20
146.325496
 42
0.000000
  0
VERTEX
  8
0
 10
1500.901163
 20
144.632655
 42
-0.039913
  0
VERTEX
  8
0
 10
1506.308621
 20
142.185454
 42
-0.024267
  0
VERTEX
  8
0
 10
1512.281783
 20
138.496190
 42
-0.024086
  0
VERTEX
  8
0
 10
1517.958819
 20
134.180707
 42
-0.035102
  0
VERTEX
  8
0
 10
1522.477067
 20
129.814283
 42
-0.041020
  0
VERTEX
  8
0
 10
1526.415862
 20
124.636443
 42
-0.026363
  0
VERTEX
  8
0
 10
1530.138874
 20
118.067328
 42
-0.026307
  0
VERTEX
  8
0
 10
1533.163223
 20
111.114478
 42
-0.039658
  0
VERTEX
  8
0
 10
1534.978158
 20
104.764997
 42
0.000000
  0
VERTEX
  8
0
 10
1536.135569
 20
99.029994
 42
0.000000
  0
VERTEX
  8
0
 10
1565.313924
 20
98.764997
 42
0.000000
  0
VERTEX
  8
0
 10
1594.492280
 20
98.500000
 42
0.000000
  0
VERTEX
  8
0
 10
1595.185119
 20
92.950604
 42
0.048579
  0
VERTEX
  8
0
 10
1597.269345
 20
83.686259
 42
0.071133
  0
VERTEX
  8
0
 10
1600.976654
 20
76.210982
 42
0.073907
  0
VERTEX
  8
0
 10
1606.505813
 20
70.275471
 42
0.057397
  0
VERTEX
  8
0
 10
1614.000000
 20
65.591460
 42
0.021645
  0
VERTEX
  8
0
 10
1618.348429
 20
63.749582
 42
0.054497
  0
VERTEX
  8
0
 10
1621.678184
 20
62.904701
 42
0.031417
  0
VERTEX
  8
0
 10
1626.032265
 20
62.569677
 42
0.003495
  0
VERTEX
  8
0
 10
1636.000000
 20
62.500000
 42
0.004978
  0
VERTEX
  8
0
 10
1644.313169
 20
62.582764
 42
0.017617
  0
VERTEX
  8
0
 10
1649.640978
 20
62.876846
 42
0.026370
  0
VERTEX
  8
0
 10
1653.665582
 20
63.456730
 42
0.030233
  0
VERTEX
  8
0
 10
1657.423134
 20
64.441347
 42
0.056496
  0
VERTEX
  8
0
 10
1664.954815
 20
67.891840
 42
0.071693
  0
VERTEX
  8
0
 10
1670.870311
 20
72.730573
 42
0.080900
  0
VERTEX
  8
0
 10
1674.655349
 20
78.500191
 42
0.104180
  0
VERTEX
  8
0
 10
1675.983550
 20
84.684900
 42
0.068819
  0
VERTEX
  8
0
 10
1675.196017
 20
90.549328
 42
0.092603
  0
VERTEX
  8
0
 10
1672.843665
 20
95.350319
 42
0.078934
  0
VERTEX
  8
0
 10
1668.585514
 20
99.504025
 42
0.037515
  0
VERTEX
  8
0
 10
1662.000000
 20
103.455571
 42
0.018345
  0
VERTEX
  8
0
 10
1655.921268
 20
106.234328
 42
0.020841
  0
VERTEX
  8
0
 10
1649.905536
 20
108.432997
 42
0.011394
  0
VERTEX
  8
0
 10
1641.327410
 20
110.954944
 42
0.001800
  0
VERTEX
  8
0
 10
1624.348691
 20
115.463528
 42
-0.003391
  0
VERTEX
  8
0
 10
1615.491826
 20
117.845609
 42
-0.003072
  0
VERTEX
  8
0
 10
1606.370652
 20
120.425666
 42
-0.003076
  0
VERTEX
  8
0
 10
1598.233563
 20
122.835800
 42
-0.009832
  0
VERTEX
  8
0
 10
1592.848691
 20
124.583161
 42
-0.033883
  0
VERTEX
  8
0
 10
1574.652093
 20
132.301875
 42
-0.054526
  0
VERTEX
  8
0
 10
1560.556235
 20
141.494090
 42
-0.062351
  0
VERTEX
  8
0
 10
1550.136543
 20
152.469168
 42
-0.065527
  0
VERTEX
  8
0
 10
1542.949329
 20
165.500000
 42
-0.027372
  0
VERTEX
  8
0
 10
1541.682271
 20
169.343583
 42
-0.036840
  0
VERTEX
  8
0
 10
1540.990242
 20
172.940743
 42
-0.023417
  0
VERTEX
  8
0
 10
1540.660699
 20
177.668640
 42
-0.004859
  0
VERTEX
  8
0
 10
1540.552000
 20
186.000000
 42
-0.004875
  0
VERTEX
  8
0
 10
1540.607610
 20
194.658769
 42
-0.025921
  0
VERTEX
  8
0
 10
1540.929254
 20
199.381364
 42
-0.038195
  0
VERTEX
  8
0
 10
1541.685205
 20
203.185064
 42
-0.019368
  0
VERTEX
  8
0
 10
1543.181086
 20
207.834604
 42
-0.052439
  0
VERTEX
  8
0
 10
1549.726408
 20
221.220606
 42
-0.053725
  0
VERTEX
  8
0
 10
1558.868514
 20
232.833463
 42
-0.050771
  0
VERTEX
  8
0
 10
1570.767177
 20
242.755957
 42
-0.038870
  0
VERTEX
  8
0
 10
1585.510745
 20
251.118006
 42
-0.023711
  0
VERTEX
  8
0
 10
1592.989993
 20
254.199502
 42
-0.015616
  0
VERTEX
  8
0
 10
1601.847470
 20
257.058009
 42
-0.015455
  0
VERTEX
  8
0
 10
1611.027084
 20
259.402267
 42
-0.020576
  0
VERTEX
  8
0
 10
1619.500000
 20
260.926391
 42
-0.031903
  0
VERTEX
  8
0
 10
1628.070474
 20
261.553568
 42
-0.010636
  0
VERTEX
  8
0
 10
1640.654514
 20
261.402469
 42
-0.010699
  0
VERTEX
  8
0
 10
1653.260498
 20
260.712550
 42
-0.030422
  0
SEQEND
  0
POLYLINE
  8
0
 66
1
 70
1
  0
VERTEX
  8
0
 10
587.355655
 20
211.415807
 42
-0.068807
  0
VERTEX
  8
0
 10
600.190561
 20
206.143976
 42
-0.065710
  0
VERTEX
  8
0
 10
611.338399
 20
197.521322
 42
-0.061971
  0
VERTEX
  8
0
 10
620.387327
 20
185.799602
 42
-0.050611
  0
VERTEX
  8
0
 10
627.032910
 20
171.404345
 42
-0.025778
  0
VERTEX
  8
0
 10
629.286969
 20
163.560332
 42
-0.022489
  0
VERTEX
  8
0
 10
630.844084
 20
155.161099
 42
-0.020481
  0
VERTEX
  8
0
 10
631.747610
 20
145.912011
 42
-0.014572
  0
VERTEX
  8
0
 10
632.031711
 20
135.500000
 42
-0.055504
  0
VERTEX
  8
0
 10
628.757290
 20
106.584055
 42
-0.087112
  0
VERTEX
  8
0
 10
619.100112
 20
83.578614
 42
-0.102008
  0
VERTEX
  8
0
 10
603.563832
 20
67.701159
 42
-0.104489
  0
VERTEX
  8
0
 10
583.143697
 20
59.433072
 42
-0.014136
  0
VERTEX
  8
0
 10
576.606479
 20
58.456900
 42
-0.029999
  0
VERTEX
  8
0
 10
571.500000
 20
58.150244
 42
-0.029999
  0
VERTEX
  8
0
 10
566.393521
 20
58.456900
 42
-0.014136
  0
VERTEX
  8
0
 10
559.856303
 20
59.433072
 42
-0.084506
  0
VERTEX
  8
0
 10
542.843010
 20
65.549306
 42
-0.087070
  0
VERTEX
  8
0
 10
529.011840
 20
76.904891
 42
-0.078224
  0
VERTEX
  8
0
 10
518.808738
 20
93.415145
 42
-0.053061
  0
VERTEX
  8
0
 10
512.446650
 20
114.627597
 42
-0.036819
  0
VERTEX
  8
0
 10
511.220656
 20
125.552049
 42
-0.016621
  0
VERTEX
  8
0
 10
511.149785
 20
139.975652
 42
-0.016518
  0
VERTEX
  8
0
 10
512.025592
 20
154.231630
 42
-0.041203
  0
VERTEX
  8
0
 10
513.859659
 20
164.500000
 42
-0.049908
  0
VERTEX
  8
0
 10
520.131321
 20
181.220794
 42
-0.064655
  0
VERTEX
  8
0
 10
529.203739
 20
194.838186
 42
-0.069877
  0
VERTEX
  8
0
 10
540.797168
 20
204.892759
 42
-0.073907
  0
VERTEX
  8
0
 10
554.500000
 20
211.133406
 42
-0.046672
  0
VERTEX
  8
0
 10
561.486463
 20
212.451961
 42
-0.021169
  0
VERTEX
  8
0
 10
570.790612
 20
212.926204
 42
-0.021200
  0
VERTEX
  8
0
 10
580.153278
 20
212.609644
 42
-0.044064
  0
SEQEND
  0
POLYLINE
  8
0
 66
1
 70
1
  0
VERTEX
  8
0
 10
839.000000
 20
209.484586
 42
-0.060552
  0
VERTEX
  8
0
 10
844.781588
 20
206.617540
 42
-0.053558
  0
VERTEX
  8
0
 10
849.976228
 20
202.344820
 42
-0.054577
  0
VERTEX
  8
0
 10
854.052264
 20
197.161860
 42
-0.069293
  0
VERTEX
  8
0
 10
856.526767
 20
191.605866
 42
-0.069219
  0
VERTEX
  8
0
 10
857.760401
 20
183.002599
 42
-0.065354
  0
VERTEX
  8
0
 10
856.643945
 20
174.211297
 42
-0.067106
  0
VERTEX
  8
0
 10
853.351281
 20
166.220419
 42
-0.081214
  0
VERTEX
  8
0
 10
848.214596
 20
159.957692
 42
-0.068004
  0
VERTEX
  8
0
 10
842.299393
 20
156.031412
 42
-0.075870
  0
VERTEX
  8
0
 10
835.761548
 20
154.018046
 42
-0.033210
  0
VERTEX
  8
0
 10
825.353435
 20
153.174247
 42
-0.003625
  0
VERTEX
  8
0
 10
801.318499
 20
153.000000
 42
0.000000
  0
VERTEX
  8
0
 10
769.000000
 20
153.000000
 42
0.000000
  0
VERTEX
  8
0
 10
769.000000
 20
182.562713
 42
0.000000
  0
VERTEX
  8
0
 10
769.000000
 20
212.125426
 42
0.000000
  0
VERTEX
  8
0
 10
801.250000
 20
211.775927
 42
-0.001521
  0
VERTEX
  8
0
 10
820.029858
 20
211.515250
 42
-0.010926
  0
VERTEX
  8
0
 10
829.088681
 20
211.163835
 42
-0.022968
  0
VERTEX
  8
0
 10
834.702131
 20
210.563442
 42
-0.046764
  0
SEQEND
  0
POLYLINE
  8
0
 66
1
 70
1
  0
VERTEX
  8
0
 10
1640.472490
 20
198.931407
 42
-0.033960
  0
VERTEX
  8
0
 10
1645.499977
 20
197.699454
 42
-0.041582
  0
VERTEX
  8
0
 10
1649.970742
 20
195.854827
 42
-0.045987
  0
VERTEX
  8
0
 10
1653.653406
 20
193.513305
 42
-0.068739
  0
VERTEX
  8
0
 10
1656.318844
 20
190.793382
 42
-0.062321
  0
VERTEX
  8
0
 10
1657.296711
 20
189.059623
 42
-0.041285
  0
VERTEX
  8
0
 10
1657.987163
 20
186.878183
 42
-0.029915
  0
VERTEX
  8
0
 10
1658.468915
 20
183.970676
 42
-0.011642
  0
VERTEX
  8
0
 10
1658.799271
 20
179.906501
 42
0.000000
  0
VERTEX
  8
0
 10
1659.272819
 20
171.726237
 42
0.000000
  0
VERTEX
  8
0
 10
1655.781339
 20
172.381243
 42
-0.021505
  0
VERTEX
  8
0
 10
1648.945694
 20
173.970590
 42
-0.005719
  0
VERTEX
  8
0
 10
1638.198287
 20
177.094728
 42
-0.005427
  0
VERTEX
  8
0
 10
1627.591043
 20
180.436271
 42
-0.026455
  0
VERTEX
  8
0
 10
1621.718402
 20
182.706861
 42
-0.047178
  0
VERTEX
  8
0
 10
1616.343384
 20
185.756757
 42
-0.125613
  0
VERTEX
  8
0
 10
1613.487967
 20
189.075641
 42
-0.190541
  0
VERTEX
  8
0
 10
1613.203195
 20
192.458179
 42
-0.133026
  0
VERTEX
  8
0
 10
1615.250000
 20
195.744188
 42
-0.102745
  0
VERTEX
  8
0
 10
1619.334477
 20
198.217312
 42
-0.053546
  0
VERTEX
  8
0
 10
1625.152049
 20
199.595964
 42
-0.044743
  0
VERTEX
  8
0
 10
1632.311507
 20
199.855761
 42
-0.029823
  0
SEQEND
  0
POLYLINE
  8
0
 66
1
 70
1
  0
VERTEX
  8
0
 10
1534.412070
 20
156.820994
 42
0.103987
  0
VERTEX
  8
0
 10
1541.367916
 20
143.756126
 42
0.057827
  0
VERTEX
  8
0
 10
1554.515679
 20
131.289720
 42
0.050461
  0
VERTEX
  8
0
 10
1572.382349
 20
120.520551
 42
0.039906
  0
VERTEX
  8
0
 10
1593.494884
 20
112.529521
 42
-0.003393
  0
VERTEX
  8
0
 10
1596.934879
 20
111.507297
 42
-0.005132
  0
VERTEX
  8
0
 10
1599.913451
 20
110.566635
 42
-0.002131
  0
VERTEX
  8
0
 10
1602.444758
 20
109.726597
 42
-0.115690
  0
VERTEX
  8
0
 10
1602.871087
 20
109.462246
 42
-0.664730
  0
VERTEX
  8
0
 10
1602.789815
 20
109.263354
 42
-0.000412
  0
VERTEX
  8
0
 10
1594.614329
 20
109.192000
 42
-0.002677
  0
VERTEX
  8
0
 10
1585.269787
 20
109.168173
 42
-0.001564
  0
VERTEX
  8
0
 10
1574.070628
 20
109.234606
 42
0.000000
  0
VERTEX
  8
0
 10
1544.777134
 20
109.500000
 42
0.000000
  0
VERTEX
  8
0
 10
1542.495638
 20
115.801974
 42
0.033305
  0
VERTEX
  8
0
 10
1539.682244
 20
122.205970
 42
0.030900
  0
VERTEX
  8
0
 10
1535.980538
 20
128.349241
 42
0.028276
  0
VERTEX
  8
0
 10
1531.226678
 20
134.466700
 42
0.019937
  0
VERTEX
  8
0
 10
1525.244372
 20
140.798491
 42
0.000000
  0
VERTEX
  8
0
 10
1517.776113
 20
148.096983
 42
0.000000
  0
VERTEX
  8
0
 10
1523.832852
 20
154.404447
 42
0.015202
  0
VERTEX
  8
0
 10
1526.204199
 20
157.029204
 42
0.016996
  0
VERTEX
  8
0
 10
1528.321431
 20
159.699817
 42
0.016501
  0
VERTEX
  8
0
 10
1529.962656
 20
162.081676
 42
0.081287
  0
VERTEX
  8
0
 10
1530.607915
 20
163.573945
 42
-0.063235
  0
VERTEX
  8
0
 10
1531.202016
 20
165.095705
 42
-0.589301
  0
VERTEX
  8
0
 10
1531.756301
 20
165.099727
 42
-0.055725
  0
VERTEX
  8
0
 10
1532.471262
 20
163.416608
 42
-0.002086
  0
SEQEND
  0
POLYLINE
  8
0
 66
1
 70
1
  0
VERTEX
  8
0
 10
1621.491174
 20
106.037961
 42
-0.017959
  0
VERTEX
  8
0
 10
1645.884224
 20
99.656323
 42
-0.076042
  0
VERTEX
  8
0
 10
1659.483611
 20
93.194275
 42
-0.200098
  0
VERTEX
  8
0
 10
1664.054674
 20
86.223971
 42
-0.230452
  0
VERTEX
  8
0
 10
1661.969954
 20
78.618561
 42
-0.040770
  0
VERTEX
  8
0
 10
1660.443206
 20
77.141764
 42
-0.026202
  0
VERTEX
  8
0
 10
1658.458288
 20
75.679637
 42
-0.025934
  0
VERTEX
  8
0
 10
1656.294146
 20
74.409790
 42
-0.035438
  0
VERTEX
  8
0
 10
1654.219954
 20
73.513383
 42
-0.063297
  0
VERTEX
  8
0
 10
1644.314121
 20
71.395222
 42
-0.045420
  0
VERTEX
  8
0
 10
1632.982284
 20
71.469408
 42
-0.046615
  0
VERTEX
  8
0
 10
1622.368664
 20
73.515976
 42
-0.092090
  0
VERTEX
  8
0
 10
1614.733495
 20
77.368578
 42
-0.051656
  0
VERTEX
  8
0
 10
1610.467598
 20
81.376197
 42
-0.075439
  0
VERTEX
  8
0
 10
1607.721519
 20
85.729201
 42
-0.063264
  0
VERTEX
  8
0
 10
1606.095454
 20
91.262145
 42
-0.026114
  0
VERTEX
  8
0
 10
1605.258044
 20
99.039189
 42
-0.003867
  0
VERTEX
  8
0
 10
1604.976741
 20
104.980329
 42
-0.040340
  0
VERTEX
  8
0
 10
1605.076898
 20
107.418412
 42
-0.138756
  0
VERTEX
  8
0
 10
1605.554485
 20
108.556111
 42
-0.228244
  0
VERTEX
  8
0
 10
1606.476225
 20
109.000000
 42
-0.046461
  0
VERTEX
  8
0
 10
1607.679128
 20
108.887982
 42
-0.002265
  0
VERTEX
  8
0
 10
1611.615776
 20
108.129901
 42
-0.003665
  0
VERTEX
  8
0
 10
1616.287578
 20
107.172657
 42
-0.002634
  0
SEQEND
  0
POLYLINE
  8
0
 66
1
 70
1
  0
VERTEX
  8
0
 10
1388.000000
 20
180.000000
 42
0.000000
  0
VERTEX
  8
0
 10
1388.000000
 20
152.000000
 42
0.000000
  0
VERTEX
  8
0
 10
1417.341069
 20
152.000000
 42
0.003795
  0
VERTEX
  8
0
 10
1438.148795
 20
152.157932
 42
0.028788
  0
VERTEX
  8
0
 10
1447.931551
 20
152.870794
 42
0.060152
  0
VERTEX
  8
0
 10
1454.307537
 20
154.501975
 42
0.058917
  0
VERTEX
  8
0
 10
1460.160492
 20
157.611221
 42
0.142843
  0
VERTEX
  8
0
 10
1467.581930
 20
166.769601
 42
0.094616
  0
VERTEX
  8
0
 10
1470.403014
 20
180.098135
 42
0.094971
  0
VERTEX
  8
0
 10
1468.112663
 20
193.483689
 42
0.145374
  0
VERTEX
  8
0
 10
1461.060420
 20
202.807523
 42
0.064983
  0
VERTEX
  8
0
 10
1455.769473
 20
205.730527
 42
0.063202
  0
VERTEX
  8
0
 10
1449.855526
 20
207.232455
 42
0.027562
  0
VERTEX
  8
0
 10
1440.435277
 20
207.867952
 42
0.003062
  0
VERTEX
  8
0
 10
1418.874273
 20
208.000000
 42
0.000000
  0
VERTEX
  8
0
 10
1388.000000
 20
208.000000
 42
0.000000
  0
SEQEND
  0
POLYLINE
  8
0
 66
1
 70
1
  0
VERTEX
  8
0
 10
1448.729340
 20
194.036180
 42
-0.130949
  0
VERTEX
  8
0
 10
1454.603932
 20
189.221665
 42
-0.121778
  0
VERTEX
  8
0
 10
1457.504784
 20
181.989749
 42
-0.122628
  0
VERTEX
  8
0
 10
1456.692747
 20
174.279318
 42
-0.133905
  0
VERTEX
  8
0
 10
1452.354966
 20
168.141063
 42
-0.073848
  0
VERTEX
  8
0
 10
1447.877665
 20
165.445380
 42
-0.059829
  0
VERTEX
  8
0
 10
1442.475931
 20
163.921282
 42
-0.032610
  0
VERTEX
  8
0
 10
1434.349684
 20
163.185582
 42
-0.006273
  0
VERTEX
  8
0
 10
1419.557180
 20
163.000000
 42
0.000000
  0
VERTEX
  8
0
 10
1399.000000
 20
163.000000
 42
0.000000
  0
VERTEX
  8
0
 10
1399.000000
 20
179.500000
 42
0.000000
  0
VERTEX
  8
0
 10
1399.000000
 20
196.000000
 42
0.000000
  0
VERTEX
  8
0
 10
1421.750000
 20
195.978038
 42
-0.002242
  0
VERTEX
  8
0
 10
1434.953999
 20
195.906092
 42
-0.015481
  0
VERTEX
  8
0
 10
1441.427598
 20
195.641227
 42
-0.032202
  0
VERTEX
  8
0
 10
1445.498253
 20
195.083214
 42
-0.056439
  0
SEQEND
  0
POLYLINE
  8
0
 66
1
 70
1
  0
VERTEX
  8
0
 10
1208.160676
 20
175.800711
 42
0.000531
  0
VERTEX
  8
0
 10
1198.446152
 20
146.197955
 42
0.000885
  0
VERTEX
  8
0
 10
1190.338305
 20
121.252944
 42
0.000103
  0
VERTEX
  8
0
 10
1183.184573
 20
99.094604
 42
0.078178
  0
VERTEX
  8
0
 10
1183.000000
 20
97.921351
 42
0.405370
  0
VERTEX
  8
0
 10
1183.389870
 20
97.519491
 42
0.000897
  0
VERTEX
  8
0
 10
1192.611252
 20
97.256676
 42
0.004461
  0
VERTEX
  8
0
 10
1203.582707
 20
97.061616
 42
0.002214
  0
VERTEX
  8
0
 10
1217.500000
 20
97.000000
 42
0.000679
  0
VERTEX
  8
0
 10
1230.727010
 20
97.017963
 42
0.001134
  0
VERTEX
  8
0
 10
1241.856826
 20
97.073437
 42
0.000052
  0
VERTEX
  8
0
 10
1251.879491
 20
97.147176
 42
0.447345
  0
VERTEX
  8
0
 10
1251.970048
 20
97.250000
 42
0.046729
  0
VERTEX
  8
0
 10
1251.926719
 20
97.450694
 42
0.000005
  0
VERTEX
  8
0
 10
1247.618550
 20
111.085938
 42
0.000149
  0
VERTEX
  8
0
 10
1242.853055
 20
126.152430
 42
0.000090
  0
VERTEX
  8
0
 10
1237.198500
 20
144.000000
 42
0.000000
  0
VERTEX
  8
0
 10
1222.456905
 20
190.500000
 42
0.000000
  0
VERTEX
  8
0
 10
1217.828352
 20
190.800711
 42
0.000000
  0
VERTEX
  8
0
 10
1213.199799
 20
191.101422
 42
0.000000
  0
SEQEND
  0
POLYLINE
  8
0
 66
1
 70
1
  0
VERTEX
  8
0
 10
1225.983725
 20
138.250000
 42
0.000157
  0
VERTEX
  8
0
 10
1229.216377
 20
127.906679
 42
0.000244
  0
VERTEX
  8
0
 10
1232.010812
 20
118.990625
 42
0.000067
  0
VERTEX
  8
0
 10
1234.452031
 20
111.218507
 42
0.008420
  0
VERTEX
  8
0
 10
1234.774399
 20
110.250000
 42
-0.470372
  0
VERTEX
  8
0
 10
1234.383042
 20
109.598855
 42
-0.019917
  0
VERTEX
  8
0
 10
1231.338645
 20
109.261189
 42
-0.014782
  0
VERTEX
  8
0
 10
1226.265221
 20
109.052700
 42
-0.002877
  0
VERTEX
  8
0
 10
1217.106989
 20
109.000000
 42
-0.003882
  0
VERTEX
  8
0
 10
1210.162007
 20
109.053916
 42
-0.006451
  0
VERTEX
  8
0
 10
1204.310514
 20
109.220313
 42
-0.001668
  0
VERTEX
  8
0
 10
1199.272899
 20
109.445479
 42
-0.389193
  0
VERTEX
  8
0
 10
1198.971357
 20
109.750000
 42
-0.088496
  0
VERTEX
  8
0
 10
1199.274729
 20
111.928610
 42
-0.000289
  0
VERTEX
  8
0
 10
1207.769890
 20
137.957859
 42
-0.000106
  0
VERTEX
  8
0
 10
1216.488920
 20
164.601561
 42
-0.324280
  0
VERTEX
  8
0
 10
1217.038662
 20
165.000000
 42
-0.322103
  0
VERTEX
  8
0
 10
1217.351954
 20
164.774812
 42
-0.000414
  0
VERTEX
  8
0
 10
1219.911286
 20
157.142188
 42
-0.003130
  0
VERTEX
  8
0
 10
1222.738980
 20
148.506649
 42
-0.001895
  0
SEQEND
  0
POLYLINE
  8
0
 66
1
 70
1
  0
VERTEX
  8
0
 10
1388.000000
 20
91.500000
 42
0.000000
  0
VERTEX
  8
0
 10
1388.000000
 20
59.000000
 42
0.000000
  0
VERTEX
  8
0
 10
1420.318499
 20
59.000000
 42
0.003437
  0
VERTEX
  8
0
 10
1443.672250
 20
59.160524
 42
0.029447
  0
VERTEX
  8
0
 10
1454.091953
 20
59.918579
 42
0.062876
  0
VERTEX
  8
0
 10
1460.951322
 20
61.721944
 42
0.051856
  0
VERTEX
  8
0
 10
1467.642837
 20
65.259325
 42
0.030922
  0
VERTEX
  8
0
 10
1470.188862
 20
67.201812
 42
0.042140
  0
VERTEX
  8
0
 10
1472.204195
 20
69.267727
 42
0.037023
  0
VERTEX
  8
0
 10
1474.023829
 20
71.845003
 42
0.017607
  0
VERTEX
  8
0
 10
1475.991890
 20
75.400561
 42
0.015085
  0
VERTEX
  8
0
 10
1478.029920
 20
79.727799
 42
0.050672
  0
VERTEX
  8
0
 10
1478.980380
 20
82.707920
 42
0.043440
  0
VERTEX
  8
0
 10
1479.385168
 20
86.046629
 42
0.009006
  0
VERTEX
  8
0
 10
1479.478768
 20
91.964718
 42
0.009219
  0
VERTEX
  8
0
 10
1479.359406
 20
97.748172
 42
0.039960
  0
VERTEX
  8
0
 10
1478.952360
 20
101.154000
 42
0.047713
  0
VERTEX
  8
0
 10
1478.042231
 20
104.158014
 42
0.016985
  0
VERTEX
  8
0
 10
1476.197303
 20
108.250786
 42
0.020071
  0
VERTEX
  8
0
 10
1474.482612
 20
111.407453
 42
0.029411
  0
VERTEX
  8
0
 10
1472.707481
 20
114.021474
 42
0.032747
  0
VERTEX
  8
0
 10
1470.809526
 20
116.181858
 42
0.037619
  0
VERTEX
  8
0
 10
1468.726457
 20
117.969778
 42
0.063173
  0
VERTEX
  8
0
 10
1462.637906
 20
121.358843
 42
0.063892
  0
VERTEX
  8
0
 10
1455.919220
 20
123.103992
 42
0.028399
  0
VERTEX
  8
0
 10
1445.316752
 20
123.844569
 42
0.003238
  0
VERTEX
  8
0
 10
1421.318499
 20
124.000000
 42
0.000000
  0
VERTEX
  8
0
 10
1388.000000
 20
124.000000
 42
0.000000
  0
SEQEND
  0
POLYLINE
  8
0
 66
1
 70
1
  0
VERTEX
  8
0
 10
1458.848057
 20
109.010748
 42
-0.065680
  0
VERTEX
  8
0
 10
1463.059551
 20
105.801680
 42
-0.076184
  0
VERTEX
  8
0
 10
1466.051919
 20
101.752496
 42
-0.071565
  0
VERTEX
  8
0
 10
1467.819597
 20
96.778568
 42
-0.049686
  0
VERTEX
  8
0
 10
1468.411765
 20
90.834201
 42
-0.014737
  0
VERTEX
  8
0
 10
1468.297266
 20
86.950437
 42
-0.051529
  0
VERTEX
  8
0
 10
1467.893857
 20
84.480721
 42
-0.060651
  0
VERTEX
  8
0
 10
1467.031976
 20
82.360081
 42
-0.026241
  0
VERTEX
  8
0
 10
1465.411478
 20
79.773370
 42
-0.034173
  0
VERTEX
  8
0
 10
1463.939513
 20
77.954780
 42
-0.021144
  0
VERTEX
  8
0
 10
1461.983694
 20
76.020927
 42
-0.021175
  0
VERTEX
  8
0
 10
1459.879961
 20
74.266433
 42
-0.035381
  0
VERTEX
  8
0
 10
1457.955595
 20
73.000000
 42
-0.056241
  0
VERTEX
  8
0
 10
1454.451241
 20
71.522692
 42
-0.049599
  0
VERTEX
  8
0
 10
1450.553393
 20
70.783257
 42
-0.017919
  0
VERTEX
  8
0
 10
1444.030981
 20
70.440356
 42
-0.001340
  0
VERTEX
  8
0
 10
1426.250000
 20
70.191221
 42
0.000000
  0
VERTEX
  8
0
 10
1399.000000
 20
69.882442
 42
0.000000
  0
VERTEX
  8
0
 10
1399.000000
 20
90.999158
 42
0.000000
  0
VERTEX
  8
0
 10
1399.000000
 20
112.115874
 42
0.000000
  0
VERTEX
  8
0
 10
1426.750000
 20
111.807937
 42
-0.001294
  0
VERTEX
  8
0
 10
1444.891608
 20
111.559650
 42
-0.017665
  0
VERTEX
  8
0
 10
1451.486113
 20
111.219073
 42
-0.049685
  0
VERTEX
  8
0
 10
1455.391369
 20
110.483336
 42
-0.058680
  0
SEQEND
  0
ENDSEC
  0
EOF
