999
DXF File generated by ImageToStl.com - Free Image and 3D model conversion tools
0
SECTION
2
HEADER
9
$ACADVER
1
AC1009
9
$EXTMIN
10
0
20
0
9
$EXTMAX
10
1903.013504
20
561.640447
0
ENDSEC
0
SECTION
2
ENTITIES
0
LINE
8
0
10
1677.807092
20
85.390447
11
1676.159082
21
87.620993
0
LINE
8
0
10
1676.159082
20
87.620993
11
1675.525348
21
91.265276
0
LINE
8
0
10
1675.525348
20
91.265276
11
1676.235407
21
95.187989
0
LINE
8
0
10
1676.235407
20
95.187989
11
1676.906294
21
97.930102
0
LINE
8
0
10
1676.906294
20
97.930102
11
1677.320238
21
99.582860
0
LINE
8
0
10
1677.320238
20
99.582860
11
1678.397192
21
103.950928
0
LINE
8
0
10
1678.397192
20
103.950928
11
1680.505280
21
112.618954
0
LINE
8
0
10
1680.505280
20
112.618954
11
1685.636931
21
134.005304
0
LINE
8
0
10
1685.636931
20
134.005304
11
1688.984972
21
148.140447
0
LINE
8
0
10
1688.984972
20
148.140447
11
1689.434365
21
150.043425
0
LINE
8
0
10
1689.434365
20
150.043425
11
1690.634407
21
155.090398
0
LINE
8
0
10
1690.634407
20
155.090398
11
1692.856765
21
164.379119
0
LINE
8
0
10
1692.856765
20
164.379119
11
1694.362542
21
170.640447
0
LINE
8
0
10
1694.362542
20
170.640447
11
1697.992649
21
185.727947
0
LINE
8
0
10
1697.992649
20
185.727947
11
1701.811631
21
201.640447
0
LINE
8
0
10
1701.811631
20
201.640447
11
1705.800291
21
218.287322
0
LINE
8
0
10
1705.800291
20
218.287322
11
1709.838344
21
235.140447
0
LINE
8
0
10
1709.838344
20
235.140447
11
1713.764266
21
251.552947
0
LINE
8
0
10
1713.764266
20
251.552947
11
1717.483333
21
267.140447
0
LINE
8
0
10
1717.483333
20
267.140447
11
1719.065274
21
273.737163
0
LINE
8
0
10
1719.065274
20
273.737163
11
1721.535506
21
283.895821
0
LINE
8
0
10
1721.535506
20
283.895821
11
1722.957984
21
289.657740
0
LINE
8
0
10
1722.957984
20
289.657740
11
1723.527548
21
291.930509
0
LINE
8
0
10
1723.527548
20
291.930509
11
1724.487555
21
295.875817
0
LINE
8
0
10
1724.487555
20
295.875817
11
1725.576255
21
300.849177
0
LINE
8
0
10
1725.576255
20
300.849177
11
1725.949537
21
302.979214
0
LINE
8
0
10
1725.949537
20
302.979214
11
1726.000000
21
303.545650
0
LINE
8
0
10
1726.000000
20
303.545650
11
1726.622666
21
305.626204
0
LINE
8
0
10
1726.622666
20
305.626204
11
1728.119714
21
308.065509
0
LINE
8
0
10
1728.119714
20
308.065509
11
1730.239428
21
310.760289
0
LINE
8
0
10
1730.239428
20
310.760289
11
1786.369714
21
310.371509
0
LINE
8
0
10
1786.369714
20
310.371509
11
1794.621079
21
310.310942
0
LINE
8
0
10
1794.621079
20
310.310942
11
1808.869011
21
310.181759
0
LINE
8
0
10
1808.869011
20
310.181759
11
1820.405149
21
310.032753
0
LINE
8
0
10
1820.405149
20
310.032753
11
1829.583017
21
309.853014
0
LINE
8
0
10
1829.583017
20
309.853014
11
1836.756138
21
309.631631
0
LINE
8
0
10
1836.756138
20
309.631631
11
1842.278037
21
309.357692
0
LINE
8
0
10
1842.278037
20
309.357692
11
1848.238173
21
308.824376
0
LINE
8
0
10
1848.238173
20
308.824376
11
1851.178679
21
308.371315
0
LINE
8
0
10
1851.178679
20
308.371315
11
1857.696993
21
307.031337
0
LINE
8
0
10
1857.696993
20
307.031337
11
1869.338342
21
303.818937
0
LINE
8
0
10
1869.338342
20
303.818937
11
1879.162044
21
299.858947
0
LINE
8
0
10
1879.162044
20
299.858947
11
1887.219366
21
295.106175
0
LINE
8
0
10
1887.219366
20
295.106175
11
1893.561577
21
289.515428
0
LINE
8
0
10
1893.561577
20
289.515428
11
1898.239945
21
283.041512
0
LINE
8
0
10
1898.239945
20
283.041512
11
1901.305736
21
275.639233
0
LINE
8
0
10
1901.305736
20
275.639233
11
1902.810221
21
267.263399
0
LINE
8
0
10
1902.810221
20
267.263399
11
1902.992994
21
262.696275
0
LINE
8
0
10
1902.992994
20
262.696275
11
1902.830193
21
257.692165
0
LINE
8
0
10
1902.830193
20
257.692165
11
1901.570564
21
248.110603
0
LINE
8
0
10
1901.570564
20
248.110603
11
1899.105275
21
239.160513
0
LINE
8
0
10
1899.105275
20
239.160513
11
1895.481976
21
230.917006
0
LINE
8
0
10
1895.481976
20
230.917006
11
1890.748317
21
223.455195
0
LINE
8
0
10
1890.748317
20
223.455195
11
1884.951947
21
216.850192
0
LINE
8
0
10
1884.951947
20
216.850192
11
1878.140518
21
211.177109
0
LINE
8
0
10
1878.140518
20
211.177109
11
1870.361679
21
206.511059
0
LINE
8
0
10
1870.361679
20
206.511059
11
1866.124371
21
204.579144
0
LINE
8
0
10
1866.124371
20
204.579144
11
1863.102258
21
203.301060
0
LINE
8
0
10
1863.102258
20
203.301060
11
1859.461112
21
201.652047
0
LINE
8
0
10
1859.461112
20
201.652047
11
1858.030625
21
200.916782
0
LINE
8
0
10
1858.030625
20
200.916782
11
1857.717904
21
200.706029
0
LINE
8
0
10
1857.717904
20
200.706029
11
1857.752115
21
200.321817
0
LINE
8
0
10
1857.752115
20
200.321817
11
1859.616959
21
199.251963
0
LINE
8
0
10
1859.616959
20
199.251963
11
1861.217904
21
198.698094
0
LINE
8
0
10
1861.217904
20
198.698094
11
1865.996883
21
196.929140
0
LINE
8
0
10
1865.996883
20
196.929140
11
1874.041607
21
191.871552
0
LINE
8
0
10
1874.041607
20
191.871552
11
1880.033625
21
184.983760
0
LINE
8
0
10
1880.033625
20
184.983760
11
1883.930860
21
176.501012
0
LINE
8
0
10
1883.930860
20
176.501012
11
1885.691239
21
166.658552
0
LINE
8
0
10
1885.691239
20
166.658552
11
1885.272686
21
155.691627
0
LINE
8
0
10
1885.272686
20
155.691627
11
1882.633125
21
143.835484
0
LINE
8
0
10
1882.633125
20
143.835484
11
1877.730483
21
131.325367
0
LINE
8
0
10
1877.730483
20
131.325367
11
1874.417357
21
124.898584
0
LINE
8
0
10
1874.417357
20
124.898584
11
1870.696082
21
119.180608
0
LINE
8
0
10
1870.696082
20
119.180608
11
1860.644610
21
108.554527
0
LINE
8
0
10
1860.644610
20
108.554527
11
1847.701289
21
99.422234
0
LINE
8
0
10
1847.701289
20
99.422234
11
1832.570174
21
92.280482
0
LINE
8
0
10
1832.570174
20
92.280482
11
1824.404211
21
89.611294
0
LINE
8
0
10
1824.404211
20
89.611294
11
1817.624408
21
87.826957
0
LINE
8
0
10
1817.624408
20
87.826957
11
1807.570754
21
85.870741
0
LINE
8
0
10
1807.570754
20
85.870741
11
1799.908929
21
84.977316
0
LINE
8
0
10
1799.908929
20
84.977316
11
1790.650188
21
84.356888
0
LINE
8
0
10
1790.650188
20
84.356888
11
1779.083611
21
83.961819
0
LINE
8
0
10
1779.083611
20
83.961819
11
1764.498281
21
83.744469
0
LINE
8
0
10
1764.498281
20
83.744469
11
1751.150564
21
83.669428
0
LINE
8
0
10
1751.150564
20
83.669428
11
1740.938455
21
83.650126
0
LINE
8
0
10
1740.938455
20
83.650126
11
1735.404988
21
83.647460
0
LINE
8
0
10
1735.404988
20
83.647460
11
1730.651962
21
83.647265
0
LINE
8
0
10
1730.651962
20
83.647265
11
1721.959446
21
83.650132
0
LINE
8
0
10
1721.959446
20
83.650132
11
1710.829355
21
83.666366
0
LINE
8
0
10
1710.829355
20
83.666366
11
1699.201669
21
83.720887
0
LINE
8
0
10
1699.201669
20
83.720887
11
1690.755835
21
83.827795
0
LINE
8
0
10
1690.755835
20
83.827795
11
1684.957853
21
84.003249
0
LINE
8
0
10
1684.957853
20
84.003249
11
1681.273720
21
84.263410
0
LINE
8
0
10
1681.273720
20
84.263410
11
1678.542859
21
84.847823
0
LINE
8
0
10
1678.542859
20
84.847823
11
1677.807092
21
85.390447
0
LINE
8
0
10
1233.806987
20
85.390447
11
1232.290354
21
87.599224
0
LINE
8
0
10
1232.290354
20
87.599224
11
1231.698078
21
91.580536
0
LINE
8
0
10
1231.698078
20
91.580536
11
1232.364571
21
95.652638
0
LINE
8
0
10
1232.364571
20
95.652638
11
1233.000680
21
98.364118
0
LINE
8
0
10
1233.000680
20
98.364118
11
1233.949821
21
102.251490
0
LINE
8
0
10
1233.949821
20
102.251490
11
1236.352699
21
112.255752
0
LINE
8
0
10
1236.352699
20
112.255752
11
1237.510480
21
117.140447
0
LINE
8
0
10
1237.510480
20
117.140447
11
1238.100118
21
119.635857
0
LINE
8
0
10
1238.100118
20
119.635857
11
1239.536050
21
125.679021
0
LINE
8
0
10
1239.536050
20
125.679021
11
1241.964297
21
135.836540
0
LINE
8
0
10
1241.964297
20
135.836540
11
1243.480361
21
142.140447
0
LINE
8
0
10
1243.480361
20
142.140447
11
1244.239578
21
145.289519
0
LINE
8
0
10
1244.239578
20
145.289519
11
1246.043096
21
152.781804
0
LINE
8
0
10
1246.043096
20
152.781804
11
1249.010039
21
165.129119
0
LINE
8
0
10
1249.010039
20
165.129119
11
1250.811631
21
172.640447
0
LINE
8
0
10
1250.811631
20
172.640447
11
1253.288360
21
182.978154
0
LINE
8
0
10
1253.288360
20
182.978154
11
1257.765583
21
201.671933
0
LINE
8
0
10
1257.765583
20
201.671933
11
1261.583670
21
217.622617
0
LINE
8
0
10
1261.583670
20
217.622617
11
1264.713636
21
230.709112
0
LINE
8
0
10
1264.713636
20
230.709112
11
1266.011515
21
236.140447
0
LINE
8
0
10
1266.011515
20
236.140447
11
1269.086217
21
248.993572
0
LINE
8
0
10
1269.086217
20
248.993572
11
1272.117968
21
261.640447
0
LINE
8
0
10
1272.117968
20
261.640447
11
1273.443312
21
267.164665
0
LINE
8
0
10
1273.443312
20
267.164665
11
1275.501078
21
275.754216
0
LINE
8
0
10
1275.501078
20
275.754216
11
1276.678754
21
280.677849
0
LINE
8
0
10
1276.678754
20
280.677849
11
1277.147456
21
282.640447
0
LINE
8
0
10
1277.147456
20
282.640447
11
1277.981208
21
286.120913
0
LINE
8
0
10
1277.981208
20
286.120913
11
1279.445742
21
292.140070
0
LINE
8
0
10
1279.445742
20
292.140070
11
1281.203942
21
299.051871
0
LINE
8
0
10
1281.203942
20
299.051871
11
1282.922214
21
304.981019
0
LINE
8
0
10
1282.922214
20
304.981019
11
1284.194264
21
308.082982
0
LINE
8
0
10
1284.194264
20
308.082982
11
1284.754729
21
308.890447
0
LINE
8
0
10
1284.754729
20
308.890447
11
1285.509904
21
309.432994
0
LINE
8
0
10
1285.509904
20
309.432994
11
1288.282996
21
310.017626
0
LINE
8
0
10
1288.282996
20
310.017626
11
1292.011842
21
310.278230
0
LINE
8
0
10
1292.011842
20
310.278230
11
1297.874032
21
310.454425
0
LINE
8
0
10
1297.874032
20
310.454425
11
1306.408925
21
310.562424
0
LINE
8
0
10
1306.408925
20
310.562424
11
1318.155879
21
310.618438
0
LINE
8
0
10
1318.155879
20
310.618438
11
1329.398468
21
310.636084
0
LINE
8
0
10
1329.398468
20
310.636084
11
1338.178212
21
310.640046
0
LINE
8
0
10
1338.178212
20
310.640046
11
1342.978772
21
310.640447
0
LINE
8
0
10
1342.978772
20
310.640447
11
1348.549173
21
310.639260
0
LINE
8
0
10
1348.549173
20
310.639260
11
1358.758001
21
310.627288
0
LINE
8
0
10
1358.758001
20
310.627288
11
1367.806030
21
310.597016
0
LINE
8
0
10
1367.806030
20
310.597016
11
1375.791460
21
310.541842
0
LINE
8
0
10
1375.791460
20
310.541842
11
1385.992048
21
310.397946
0
LINE
8
0
10
1385.992048
20
310.397946
11
1396.790274
21
310.057303
0
LINE
8
0
10
1396.790274
20
310.057303
11
1405.105717
21
309.498202
0
LINE
8
0
10
1405.105717
20
309.498202
11
1411.723979
21
308.667824
0
LINE
8
0
10
1411.723979
20
308.667824
11
1420.187669
21
306.798065
0
LINE
8
0
10
1420.187669
20
306.798065
11
1426.000000
21
305.058399
0
LINE
8
0
10
1426.000000
20
305.058399
11
1429.810237
21
303.725826
0
LINE
8
0
10
1429.810237
20
303.725826
11
1436.988721
21
300.438273
0
LINE
8
0
10
1436.988721
20
300.438273
11
1446.524026
21
294.087013
0
LINE
8
0
10
1446.524026
20
294.087013
11
1454.376514
21
286.249567
0
LINE
8
0
10
1454.376514
20
286.249567
11
1458.563321
21
280.319908
0
LINE
8
0
10
1458.563321
20
280.319908
11
1461.832280
21
273.911165
0
LINE
8
0
10
1461.832280
20
273.911165
11
1464.115420
21
267.095917
0
LINE
8
0
10
1464.115420
20
267.095917
11
1464.866067
21
263.558534
0
LINE
8
0
10
1464.866067
20
263.558534
11
1465.695696
21
257.541855
0
LINE
8
0
10
1465.695696
20
257.541855
11
1465.810047
21
249.254358
0
LINE
8
0
10
1465.810047
20
249.254358
11
1465.117256
21
243.081647
0
LINE
8
0
10
1465.117256
20
243.081647
11
1464.536133
21
239.507990
0
LINE
8
0
10
1464.536133
20
239.507990
11
1462.847072
21
231.146041
0
LINE
8
0
10
1462.847072
20
231.146041
11
1458.321882
21
215.580258
0
LINE
8
0
10
1458.321882
20
215.580258
11
1452.401920
21
201.870469
0
LINE
8
0
10
1452.401920
20
201.870469
11
1445.248776
21
190.390889
0
LINE
8
0
10
1445.248776
20
190.390889
11
1441.260256
21
185.604368
0
LINE
8
0
10
1441.260256
20
185.604368
11
1437.319654
21
181.518038
0
LINE
8
0
10
1437.319654
20
181.518038
11
1429.574097
21
174.610138
0
LINE
8
0
10
1429.574097
20
174.610138
11
1421.445352
21
168.999250
0
LINE
8
0
10
1421.445352
20
168.999250
11
1412.256557
21
164.218168
0
LINE
8
0
10
1412.256557
20
164.218168
11
1407.053122
21
161.992803
0
LINE
8
0
10
1407.053122
20
161.992803
11
1399.886611
21
159.396560
0
LINE
8
0
10
1399.886611
20
159.396560
11
1383.830567
21
155.427451
0
LINE
8
0
10
1383.830567
20
155.427451
11
1369.621201
21
153.437042
0
LINE
8
0
10
1369.621201
20
153.437042
11
1358.802089
21
152.539810
0
LINE
8
0
10
1358.802089
20
152.539810
11
1346.710553
21
151.961447
0
LINE
8
0
10
1346.710553
20
151.961447
11
1333.179052
21
151.680610
0
LINE
8
0
10
1333.179052
20
151.680610
11
1325.820958
21
151.645094
0
LINE
8
0
10
1325.820958
20
151.645094
11
1307.141917
21
151.640447
0
LINE
8
0
10
1307.141917
20
151.640447
11
1305.688693
21
146.390447
0
LINE
8
0
10
1305.688693
20
146.390447
11
1305.095450
21
144.179027
0
LINE
8
0
10
1305.095450
20
144.179027
11
1303.435062
21
137.681419
0
LINE
8
0
10
1303.435062
20
137.681419
11
1300.185472
21
124.519642
0
LINE
8
0
10
1300.185472
20
124.519642
11
1296.706271
21
110.093931
0
LINE
8
0
10
1296.706271
20
110.093931
11
1294.637686
21
101.349327
0
LINE
8
0
10
1294.637686
20
101.349327
11
1293.034717
21
94.405058
0
LINE
8
0
10
1293.034717
20
94.405058
11
1292.124430
21
90.205958
0
LINE
8
0
10
1292.124430
20
90.205958
11
1292.000000
21
89.431106
0
LINE
8
0
10
1292.000000
20
89.431106
11
1291.817375
21
88.699626
0
LINE
8
0
10
1291.817375
20
88.699626
11
1290.584207
21
86.772791
0
LINE
8
0
10
1290.584207
20
86.772791
11
1289.685549
21
85.814761
0
LINE
8
0
10
1289.685549
20
85.814761
11
1288.860216
21
85.113391
0
LINE
8
0
10
1288.860216
20
85.113391
11
1286.410564
21
84.196271
0
LINE
8
0
10
1286.410564
20
84.196271
11
1282.668903
21
83.840889
0
LINE
8
0
10
1282.668903
20
83.840889
11
1278.693638
21
83.718253
0
LINE
8
0
10
1278.693638
20
83.718253
11
1273.176585
21
83.659652
0
LINE
8
0
10
1273.176585
20
83.659652
11
1265.811633
21
83.641602
0
LINE
8
0
10
1265.811633
20
83.641602
11
1261.340536
21
83.640447
0
LINE
8
0
10
1261.340536
20
83.640447
11
1257.165048
21
83.642705
0
LINE
8
0
10
1257.165048
20
83.642705
11
1250.170463
21
83.666263
0
LINE
8
0
10
1250.170463
20
83.666263
11
1244.792329
21
83.727417
0
LINE
8
0
10
1244.792329
20
83.727417
11
1240.800164
21
83.840818
0
LINE
8
0
10
1240.800164
20
83.840818
11
1236.906430
21
84.140926
0
LINE
8
0
10
1236.906430
20
84.140926
11
1234.414508
21
84.860655
0
LINE
8
0
10
1234.414508
20
84.860655
11
1233.806987
21
85.390447
0
LINE
8
0
10
1098.000000
20
80.263323
11
1090.451054
21
81.081493
0
LINE
8
0
10
1090.451054
20
81.081493
11
1076.550282
21
83.574156
0
LINE
8
0
10
1076.550282
20
83.574156
11
1064.205532
21
87.234655
0
LINE
8
0
10
1064.205532
20
87.234655
11
1053.368632
21
92.094272
0
LINE
8
0
10
1053.368632
20
92.094272
11
1043.991413
21
98.184292
0
LINE
8
0
10
1043.991413
20
98.184292
11
1036.025706
21
105.536000
0
LINE
8
0
10
1036.025706
20
105.536000
11
1029.423339
21
114.180677
0
LINE
8
0
10
1029.423339
20
114.180677
11
1024.136144
21
124.149609
0
LINE
8
0
10
1024.136144
20
124.149609
11
1021.970683
21
129.640447
0
LINE
8
0
10
1021.970683
20
129.640447
11
1020.874986
21
133.629418
0
LINE
8
0
10
1020.874986
20
133.629418
11
1019.611897
21
143.799915
0
LINE
8
0
10
1019.611897
20
143.799915
11
1019.589139
21
155.554444
0
LINE
8
0
10
1019.589139
20
155.554444
11
1020.809825
21
167.285759
0
LINE
8
0
10
1020.809825
20
167.285759
11
1021.887431
21
172.640447
0
LINE
8
0
10
1021.887431
20
172.640447
11
1022.430692
21
174.885564
0
LINE
8
0
10
1022.430692
20
174.885564
11
1023.847525
21
180.770329
0
LINE
8
0
10
1023.847525
20
180.770329
11
1026.414925
21
191.484197
0
LINE
8
0
10
1026.414925
20
191.484197
11
1028.122915
21
198.640447
0
LINE
8
0
10
1028.122915
20
198.640447
11
1029.386152
21
203.918279
0
LINE
8
0
10
1029.386152
20
203.918279
11
1031.608879
21
213.007333
0
LINE
8
0
10
1031.608879
20
213.007333
11
1033.515035
21
220.423682
0
LINE
8
0
10
1033.515035
20
220.423682
11
1035.210732
21
226.506657
0
LINE
8
0
10
1035.210732
20
226.506657
11
1039.225572
21
238.107446
0
LINE
8
0
10
1039.225572
20
238.107446
11
1043.082054
21
246.477866
0
LINE
8
0
10
1043.082054
20
246.477866
11
1045.575988
21
251.219695
0
LINE
8
0
10
1045.575988
20
251.219695
11
1051.182965
21
260.276331
0
LINE
8
0
10
1051.182965
20
260.276331
11
1061.105164
21
272.760967
0
LINE
8
0
10
1061.105164
20
272.760967
11
1077.055756
21
287.261487
0
LINE
8
0
10
1077.055756
20
287.261487
11
1095.975099
21
299.181682
0
LINE
8
0
10
1095.975099
20
299.181682
11
1106.500000
21
304.130473
0
LINE
8
0
10
1106.500000
20
304.130473
11
1112.388433
21
306.387799
0
LINE
8
0
10
1112.388433
20
306.387799
11
1125.271970
21
310.025484
0
LINE
8
0
10
1125.271970
20
310.025484
11
1139.252434
21
312.491040
0
LINE
8
0
10
1139.252434
20
312.491040
11
1153.875467
21
313.781058
0
LINE
8
0
10
1153.875467
20
313.781058
11
1168.686709
21
313.892133
0
LINE
8
0
10
1168.686709
20
313.892133
11
1183.231803
21
312.820856
0
LINE
8
0
10
1183.231803
20
312.820856
11
1197.056390
21
310.563820
0
LINE
8
0
10
1197.056390
20
310.563820
11
1209.706109
21
307.117617
0
LINE
8
0
10
1209.706109
20
307.117617
11
1215.448407
21
304.947514
0
LINE
8
0
10
1215.448407
20
304.947514
11
1219.450216
21
303.142102
0
LINE
8
0
10
1219.450216
20
303.142102
11
1226.630664
21
299.120699
0
LINE
8
0
10
1226.630664
20
299.120699
11
1232.741555
21
294.511064
0
LINE
8
0
10
1232.741555
20
294.511064
11
1237.816490
21
289.264248
0
LINE
8
0
10
1237.816490
20
289.264248
11
1241.889073
21
283.331299
0
LINE
8
0
10
1241.889073
20
283.331299
11
1244.992903
21
276.663267
0
LINE
8
0
10
1244.992903
20
276.663267
11
1247.161582
21
269.211200
0
LINE
8
0
10
1247.161582
20
269.211200
11
1248.428713
21
260.926147
0
LINE
8
0
10
1248.428713
20
260.926147
11
1248.734698
21
256.455955
0
LINE
8
0
10
1248.734698
20
256.455955
11
1248.876041
21
252.881647
0
LINE
8
0
10
1248.876041
20
252.881647
11
1248.927358
21
247.745011
0
LINE
8
0
10
1248.927358
20
247.745011
11
1248.209175
21
243.001928
0
LINE
8
0
10
1248.209175
20
243.001928
11
1247.031712
21
240.205955
0
LINE
8
0
10
1247.031712
20
240.205955
11
1244.821587
21
235.640447
0
LINE
8
0
10
1244.821587
20
235.640447
11
1216.467498
21
235.640447
0
LINE
8
0
10
1216.467498
20
235.640447
11
1211.506847
21
235.641151
0
LINE
8
0
10
1211.506847
20
235.641151
11
1203.380332
21
235.656356
0
LINE
8
0
10
1203.380332
20
235.656356
11
1197.360561
21
235.711231
0
LINE
8
0
10
1197.360561
20
235.711231
11
1193.103967
21
235.831304
0
LINE
8
0
10
1193.103967
20
235.831304
11
1189.273478
21
236.189506
0
LINE
8
0
10
1189.273478
20
236.189506
11
1187.130649
21
237.133570
0
LINE
8
0
10
1187.130649
20
237.133570
11
1186.556704
21
237.862953
0
LINE
8
0
10
1186.556704
20
237.862953
11
1185.457282
21
239.912495
0
LINE
8
0
10
1185.457282
20
239.912495
11
1185.000000
21
241.719151
0
LINE
8
0
10
1185.000000
20
241.719151
11
1184.699293
21
242.971296
0
LINE
8
0
10
1184.699293
20
242.971296
11
1182.607226
21
246.456199
0
LINE
8
0
10
1182.607226
20
246.456199
11
1177.310432
21
252.293196
0
LINE
8
0
10
1177.310432
20
252.293196
11
1173.559616
21
255.158377
0
LINE
8
0
10
1173.559616
20
255.158377
11
1168.110144
21
257.810336
0
LINE
8
0
10
1168.110144
20
257.810336
11
1156.013460
21
260.775310
0
LINE
8
0
10
1156.013460
20
260.775310
11
1143.097429
21
260.630415
0
LINE
8
0
10
1143.097429
20
260.630415
11
1130.295215
21
257.386120
0
LINE
8
0
10
1130.295215
20
257.386120
11
1124.228404
21
254.604969
0
LINE
8
0
10
1124.228404
20
254.604969
11
1120.924002
21
252.766384
0
LINE
8
0
10
1120.924002
20
252.766384
11
1115.365178
21
249.213641
0
LINE
8
0
10
1115.365178
20
249.213641
11
1108.658855
21
243.386896
0
LINE
8
0
10
1108.658855
20
243.386896
11
1104.503553
21
238.541659
0
LINE
8
0
10
1104.503553
20
238.541659
11
1102.222434
21
235.490913
0
LINE
8
0
10
1102.222434
20
235.490913
11
1098.510352
21
229.196797
0
LINE
8
0
10
1098.510352
20
229.196797
11
1096.065088
21
223.278507
0
LINE
8
0
10
1096.065088
20
223.278507
11
1094.403344
21
218.272570
0
LINE
8
0
10
1094.403344
20
218.272570
11
1092.596320
21
212.113370
0
LINE
8
0
10
1092.596320
20
212.113370
11
1090.541135
21
204.539533
0
LINE
8
0
10
1090.541135
20
204.539533
11
1089.388332
21
200.140447
0
LINE
8
0
10
1089.388332
20
200.140447
11
1088.430971
21
196.448001
0
LINE
8
0
10
1088.430971
20
196.448001
11
1086.847208
21
190.231076
0
LINE
8
0
10
1086.847208
20
190.231076
11
1085.191523
21
183.186961
0
LINE
8
0
10
1085.191523
20
183.186961
11
1084.027040
21
176.264998
0
LINE
8
0
10
1084.027040
20
176.264998
11
1083.634465
21
169.668321
0
LINE
8
0
10
1083.634465
20
169.668321
11
1083.584392
21
165.640447
0
LINE
8
0
10
1083.584392
20
165.640447
11
1083.574083
21
161.879466
0
LINE
8
0
10
1083.574083
20
161.879466
11
1083.712737
21
156.415361
0
LINE
8
0
10
1083.712737
20
156.415361
11
1084.579671
21
151.342922
0
LINE
8
0
10
1084.579671
20
151.342922
11
1085.799753
21
148.471946
0
LINE
8
0
10
1085.799753
20
148.471946
11
1088.179098
21
144.434058
0
LINE
8
0
10
1088.179098
20
144.434058
11
1094.487969
21
138.072896
0
LINE
8
0
10
1094.487969
20
138.072896
11
1103.019801
21
133.921963
0
LINE
8
0
10
1103.019801
20
133.921963
11
1113.961856
21
131.890152
0
LINE
8
0
10
1113.961856
20
131.890152
11
1120.395236
21
131.640447
0
LINE
8
0
10
1120.395236
20
131.640447
11
1127.896564
21
131.955701
0
LINE
8
0
10
1127.896564
20
131.955701
11
1140.974663
21
134.498521
0
LINE
8
0
10
1140.974663
20
134.498521
11
1151.582036
21
139.637284
0
LINE
8
0
10
1151.582036
20
139.637284
11
1159.833107
21
147.427422
0
LINE
8
0
10
1159.833107
20
147.427422
11
1163.110785
21
152.334079
0
LINE
8
0
10
1163.110785
20
152.334079
11
1164.533607
21
154.566180
0
LINE
8
0
10
1164.533607
20
154.566180
11
1167.466160
21
157.924140
0
LINE
8
0
10
1167.466160
20
157.924140
11
1168.676991
21
158.707738
0
LINE
8
0
10
1168.676991
20
158.707738
11
1169.841319
21
158.950028
0
LINE
8
0
10
1169.841319
20
158.950028
11
1174.662289
21
159.325498
0
LINE
8
0
10
1174.662289
20
159.325498
11
1186.229825
21
159.623738
0
LINE
8
0
10
1186.229825
20
159.623738
11
1199.969132
21
159.616518
0
LINE
8
0
10
1199.969132
20
159.616518
11
1208.651030
21
159.448947
0
LINE
8
0
10
1208.651030
20
159.448947
11
1215.771889
21
159.156030
0
LINE
8
0
10
1215.771889
20
159.156030
11
1220.321200
21
158.741932
0
LINE
8
0
10
1220.321200
20
158.741932
11
1221.315741
21
158.490743
0
LINE
8
0
10
1221.315741
20
158.490743
11
1222.813693
21
157.518117
0
LINE
8
0
10
1222.813693
20
157.518117
11
1224.641364
21
154.968749
0
LINE
8
0
10
1224.641364
20
154.968749
11
1224.932691
21
151.349262
0
LINE
8
0
10
1224.932691
20
151.349262
11
1223.713234
21
146.342101
0
LINE
8
0
10
1223.713234
20
146.342101
11
1222.544948
21
143.218907
0
LINE
8
0
10
1222.544948
20
143.218907
11
1220.188408
21
137.807892
0
LINE
8
0
10
1220.188408
20
137.807892
11
1214.751541
21
127.753390
0
LINE
8
0
10
1214.751541
20
127.753390
11
1208.324745
21
118.701409
0
LINE
8
0
10
1208.324745
20
118.701409
11
1200.878169
21
110.626923
0
LINE
8
0
10
1200.878169
20
110.626923
11
1192.381959
21
103.504909
0
LINE
8
0
10
1192.381959
20
103.504909
11
1182.806264
21
97.310343
0
LINE
8
0
10
1182.806264
20
97.310343
11
1172.121231
21
92.018201
0
LINE
8
0
10
1172.121231
20
92.018201
11
1160.297008
21
87.603459
0
LINE
8
0
10
1160.297008
20
87.603459
11
1153.948371
21
85.717293
0
LINE
8
0
10
1153.948371
20
85.717293
11
1151.191028
21
85.020086
0
LINE
8
0
10
1151.191028
20
85.020086
11
1144.791133
21
83.710745
0
LINE
8
0
10
1144.791133
20
83.710745
11
1133.658387
21
82.025719
0
LINE
8
0
10
1133.658387
20
82.025719
11
1117.857642
21
80.485428
0
LINE
8
0
10
1117.857642
20
80.485428
11
1106.876216
21
80.014716
0
LINE
8
0
10
1106.876216
20
80.014716
11
1100.649257
21
80.093163
0
LINE
8
0
10
1100.649257
20
80.093163
11
1098.000000
21
80.263323
0
LINE
8
0
10
1545.000000
20
80.236305
11
1539.941675
21
80.818128
0
LINE
8
0
10
1539.941675
20
80.818128
11
1530.770762
21
82.092996
0
LINE
8
0
10
1530.770762
20
82.092996
11
1519.050562
21
84.388102
0
LINE
8
0
10
1519.050562
20
84.388102
11
1506.305589
21
88.456104
0
LINE
8
0
10
1506.305589
20
88.456104
11
1495.570755
21
94.085631
0
LINE
8
0
10
1495.570755
20
94.085631
11
1490.519574
21
97.625631
0
LINE
8
0
10
1490.519574
20
97.625631
11
1487.961461
21
99.583205
0
LINE
8
0
10
1487.961461
20
99.583205
11
1484.119698
21
102.777677
0
LINE
8
0
10
1484.119698
20
102.777677
11
1481.075488
21
105.951324
0
LINE
8
0
10
1481.075488
20
105.951324
11
1477.746750
21
110.232237
0
LINE
8
0
10
1477.746750
20
110.232237
11
1475.637532
21
113.140447
0
LINE
8
0
10
1475.637532
20
113.140447
11
1473.016558
21
117.127737
0
LINE
8
0
10
1473.016558
20
117.127737
11
1468.887371
21
125.632717
0
LINE
8
0
10
1468.887371
20
125.632717
11
1466.207983
21
134.962891
0
LINE
8
0
10
1466.207983
20
134.962891
11
1464.937733
21
145.259849
0
LINE
8
0
10
1464.937733
20
145.259849
11
1464.818327
21
150.815119
0
LINE
8
0
10
1464.818327
20
150.815119
11
1464.910395
21
154.954621
0
LINE
8
0
10
1464.910395
20
154.954621
11
1465.429955
21
161.135052
0
LINE
8
0
10
1465.429955
20
161.135052
11
1466.199152
21
166.092365
0
LINE
8
0
10
1466.199152
20
166.092365
11
1467.441426
21
172.404295
0
LINE
8
0
10
1467.441426
20
172.404295
11
1469.272331
21
180.657978
0
LINE
8
0
10
1469.272331
20
180.657978
11
1471.807426
21
191.440552
0
LINE
8
0
10
1471.807426
20
191.440552
11
1475.162266
21
205.339154
0
LINE
8
0
10
1475.162266
20
205.339154
11
1477.183202
21
213.640447
0
LINE
8
0
10
1477.183202
20
213.640447
11
1478.480002
21
218.769689
0
LINE
8
0
10
1478.480002
20
218.769689
11
1481.161463
21
228.177382
0
LINE
8
0
10
1481.161463
20
228.177382
11
1485.572486
21
240.496878
0
LINE
8
0
10
1485.572486
20
240.496878
11
1492.653375
21
254.515566
0
LINE
8
0
10
1492.653375
20
254.515566
11
1501.766831
21
267.093041
0
LINE
8
0
10
1501.766831
20
267.093041
11
1507.311346
21
273.287912
0
LINE
8
0
10
1507.311346
20
273.287912
11
1512.241306
21
278.241901
0
LINE
8
0
10
1512.241306
20
278.241901
11
1522.629708
21
287.182504
0
LINE
8
0
10
1522.629708
20
287.182504
11
1533.724934
21
294.834159
0
LINE
8
0
10
1533.724934
20
294.834159
11
1545.529598
21
301.197926
0
LINE
8
0
10
1545.529598
20
301.197926
11
1558.046316
21
306.274866
0
LINE
8
0
10
1558.046316
20
306.274866
11
1571.277702
21
310.066039
0
LINE
8
0
10
1571.277702
20
310.066039
11
1585.226370
21
312.572507
0
LINE
8
0
10
1585.226370
20
312.572507
11
1599.894937
21
313.795329
0
LINE
8
0
10
1599.894937
20
313.795329
11
1607.500000
21
313.925705
0
LINE
8
0
10
1607.500000
20
313.925705
11
1615.277007
21
313.758941
0
LINE
8
0
10
1615.277007
20
313.758941
11
1629.847043
21
312.619281
0
LINE
8
0
10
1629.847043
20
312.619281
11
1643.054241
21
310.425652
0
LINE
8
0
10
1643.054241
20
310.425652
11
1654.837561
21
307.203105
0
LINE
8
0
10
1654.837561
20
307.203105
11
1665.135964
21
302.976690
0
LINE
8
0
10
1665.135964
20
302.976690
11
1673.888409
21
297.771458
0
LINE
8
0
10
1673.888409
20
297.771458
11
1681.033855
21
291.612459
0
LINE
8
0
10
1681.033855
20
291.612459
11
1686.511265
21
284.524744
0
LINE
8
0
10
1686.511265
20
284.524744
11
1688.605380
21
280.640447
0
LINE
8
0
10
1688.605380
20
280.640447
11
1690.776929
21
275.343259
0
LINE
8
0
10
1690.776929
20
275.343259
11
1693.729679
21
264.091094
0
LINE
8
0
10
1693.729679
20
264.091094
11
1694.728894
21
253.062660
0
LINE
8
0
10
1694.728894
20
253.062660
11
1693.654894
21
243.578903
0
LINE
8
0
10
1693.654894
20
243.578903
11
1692.303037
21
239.829074
0
LINE
8
0
10
1692.303037
20
239.829074
11
1690.500000
21
236.140447
0
LINE
8
0
10
1690.500000
20
236.140447
11
1662.596518
21
235.874358
0
LINE
8
0
10
1662.596518
20
235.874358
11
1657.231086
21
235.824917
0
LINE
8
0
10
1657.231086
20
235.824917
11
1648.446791
21
235.780217
0
LINE
8
0
10
1648.446791
20
235.780217
11
1641.949089
21
235.860999
0
LINE
8
0
10
1641.949089
20
235.860999
11
1637.367381
21
236.131145
0
LINE
8
0
10
1637.367381
20
236.131145
11
1634.331069
21
236.654538
0
LINE
8
0
10
1634.331069
20
236.654538
11
1632.469554
21
237.495062
0
LINE
8
0
10
1632.469554
20
237.495062
11
1631.069340
21
239.490210
0
LINE
8
0
10
1631.069340
20
239.490210
11
1630.523447
21
241.403048
0
LINE
8
0
10
1630.523447
20
241.403048
11
1629.797870
21
243.602218
0
LINE
8
0
10
1629.797870
20
243.602218
11
1627.372771
21
247.754932
0
LINE
8
0
10
1627.372771
20
247.754932
11
1623.667429
21
251.561295
0
LINE
8
0
10
1623.667429
20
251.561295
11
1618.703866
21
254.998683
0
LINE
8
0
10
1618.703866
20
254.998683
11
1615.757134
21
256.571943
0
LINE
8
0
10
1615.757134
20
256.571943
11
1612.120825
21
258.157817
0
LINE
8
0
10
1612.120825
20
258.157817
11
1604.531818
21
260.320419
0
LINE
8
0
10
1604.531818
20
260.320419
11
1596.648859
21
261.164563
0
LINE
8
0
10
1596.648859
20
261.164563
11
1588.625425
21
260.722729
0
LINE
8
0
10
1588.625425
20
260.722729
11
1580.614997
21
259.027401
0
LINE
8
0
10
1580.614997
20
259.027401
11
1572.771052
21
256.111061
0
LINE
8
0
10
1572.771052
20
256.111061
11
1565.247070
21
252.006191
0
LINE
8
0
10
1565.247070
20
252.006191
11
1558.196528
21
246.745272
0
LINE
8
0
10
1558.196528
20
246.745272
11
1554.896760
21
243.691446
0
LINE
8
0
10
1554.896760
20
243.691446
11
1551.312787
21
239.942157
0
LINE
8
0
10
1551.312787
20
239.942157
11
1545.732348
21
232.356127
0
LINE
8
0
10
1545.732348
20
232.356127
11
1542.376801
21
225.346357
0
LINE
8
0
10
1542.376801
20
225.346357
11
1540.268577
21
219.452236
0
LINE
8
0
10
1540.268577
20
219.452236
11
1538.097685
21
212.212852
0
LINE
8
0
10
1538.097685
20
212.212852
11
1535.722083
21
203.312337
0
LINE
8
0
10
1535.722083
20
203.312337
11
1534.413129
21
198.140447
0
LINE
8
0
10
1534.413129
20
198.140447
11
1533.543784
21
194.646052
0
LINE
8
0
10
1533.543784
20
194.646052
11
1532.067789
21
188.581089
0
LINE
8
0
10
1532.067789
20
188.581089
11
1530.440430
21
181.402555
0
LINE
8
0
10
1530.440430
20
181.402555
11
1528.834924
21
171.375234
0
LINE
8
0
10
1528.834924
20
171.375234
11
1528.581199
21
165.640447
0
LINE
8
0
10
1528.581199
20
165.640447
11
1528.645472
21
161.274077
0
LINE
8
0
10
1528.645472
20
161.274077
11
1529.480131
21
154.024670
0
LINE
8
0
10
1529.480131
20
154.024670
11
1531.438033
21
148.213563
0
LINE
8
0
10
1531.438033
20
148.213563
11
1534.737293
21
143.193385
0
LINE
8
0
10
1534.737293
20
143.193385
11
1536.958093
21
140.777591
0
LINE
8
0
10
1536.958093
20
140.777591
11
1539.530388
21
138.458670
0
LINE
8
0
10
1539.530388
20
138.458670
11
1545.218548
21
134.938109
0
LINE
8
0
10
1545.218548
20
134.938109
11
1552.088774
21
132.762437
0
LINE
8
0
10
1552.088774
20
132.762437
11
1560.689826
21
131.757871
0
LINE
8
0
10
1560.689826
20
131.757871
11
1565.810900
21
131.640447
0
LINE
8
0
10
1565.810900
20
131.640447
11
1573.470894
21
131.941633
0
LINE
8
0
10
1573.470894
20
131.941633
11
1586.577971
21
134.436061
0
LINE
8
0
10
1586.577971
20
134.436061
11
1597.116604
21
139.641984
0
LINE
8
0
10
1597.116604
20
139.641984
11
1605.545320
21
147.785907
0
LINE
8
0
10
1605.545320
20
147.785907
11
1609.111749
21
153.030402
0
LINE
8
0
10
1609.111749
20
153.030402
11
1610.546265
21
155.201125
0
LINE
8
0
10
1610.546265
20
155.201125
11
1613.387491
21
158.414281
0
LINE
8
0
10
1613.387491
20
158.414281
11
1614.444255
21
159.060960
0
LINE
8
0
10
1614.444255
20
159.060960
11
1615.594525
21
159.227672
0
LINE
8
0
10
1615.594525
20
159.227672
11
1620.355916
21
159.471919
0
LINE
8
0
10
1620.355916
20
159.471919
11
1631.779878
21
159.629749
0
LINE
8
0
10
1631.779878
20
159.629749
11
1645.349685
21
159.560372
0
LINE
8
0
10
1645.349685
20
159.560372
11
1653.925913
21
159.400696
0
LINE
8
0
10
1653.925913
20
159.400696
11
1660.962180
21
159.159241
0
LINE
8
0
10
1660.962180
20
159.159241
11
1665.461017
21
158.843688
0
LINE
8
0
10
1665.461017
20
158.843688
11
1666.447191
21
158.660525
0
LINE
8
0
10
1666.447191
20
158.660525
11
1668.385557
21
157.616535
0
LINE
8
0
10
1668.385557
20
157.616535
11
1670.365653
21
154.179030
0
LINE
8
0
10
1670.365653
20
154.179030
11
1669.765737
21
148.453881
0
LINE
8
0
10
1669.765737
20
148.453881
11
1667.585732
21
142.306280
0
LINE
8
0
10
1667.585732
20
142.306280
11
1665.294164
21
137.187819
0
LINE
8
0
10
1665.294164
20
137.187819
11
1663.894033
21
134.295104
0
LINE
8
0
10
1663.894033
20
134.295104
11
1661.563818
21
129.904314
0
LINE
8
0
10
1661.563818
20
129.904314
11
1656.192337
21
121.656781
0
LINE
8
0
10
1656.192337
20
121.656781
11
1649.869668
21
114.118987
0
LINE
8
0
10
1649.869668
20
114.118987
11
1642.592061
21
107.288144
0
LINE
8
0
10
1642.592061
20
107.288144
11
1634.355769
21
101.161465
0
LINE
8
0
10
1634.355769
20
101.161465
11
1625.157045
21
95.736162
0
LINE
8
0
10
1625.157045
20
95.736162
11
1614.992139
21
91.009446
0
LINE
8
0
10
1614.992139
20
91.009446
11
1603.857306
21
86.978531
0
LINE
8
0
10
1603.857306
20
86.978531
11
1597.924995
21
85.223127
0
LINE
8
0
10
1597.924995
20
85.223127
11
1595.552534
21
84.633626
0
LINE
8
0
10
1595.552534
20
84.633626
11
1589.660181
21
83.492890
0
LINE
8
0
10
1589.660181
20
83.492890
11
1578.845331
21
81.961527
0
LINE
8
0
10
1578.845331
20
81.961527
11
1563.234724
21
80.490628
0
LINE
8
0
10
1563.234724
20
80.490628
11
1552.715603
21
80.011812
0
LINE
8
0
10
1552.715603
20
80.011812
11
1547.161226
21
80.073987
0
LINE
8
0
10
1547.161226
20
80.073987
11
1545.000000
21
80.236305
0
LINE
8
0
10
267.000000
20
0.279014
11
263.662976
21
0.662636
0
LINE
8
0
10
263.662976
20
0.662636
11
254.429092
21
2.036541
0
LINE
8
0
10
254.429092
20
2.036541
11
243.651806
21
3.896628
0
LINE
8
0
10
243.651806
20
3.896628
11
233.574776
21
5.855655
0
LINE
8
0
10
233.574776
20
5.855655
11
229.500000
21
6.751259
0
LINE
8
0
10
229.500000
20
6.751259
11
222.885601
21
8.373597
0
LINE
8
0
10
222.885601
20
8.373597
11
210.546764
21
11.902551
0
LINE
8
0
10
210.546764
20
11.902551
11
193.334126
21
18.232317
0
LINE
8
0
10
193.334126
20
18.232317
11
182.000000
21
23.396328
0
LINE
8
0
10
182.000000
20
23.396328
11
174.553324
21
27.238010
0
LINE
8
0
10
174.553324
20
27.238010
11
160.739093
21
35.608271
0
LINE
8
0
10
160.739093
20
35.608271
11
148.343962
21
44.917488
0
LINE
8
0
10
148.343962
20
44.917488
11
137.344256
21
55.193374
0
LINE
8
0
10
137.344256
20
55.193374
11
127.716301
21
66.463642
0
LINE
8
0
10
127.716301
20
66.463642
11
119.436422
21
78.756005
0
LINE
8
0
10
119.436422
20
78.756005
11
112.480944
21
92.098176
0
LINE
8
0
10
112.480944
20
92.098176
11
106.826192
21
106.517869
0
LINE
8
0
10
106.826192
20
106.517869
11
104.479190
21
114.140447
0
LINE
8
0
10
104.479190
20
114.140447
11
103.765247
21
117.002357
0
LINE
8
0
10
103.765247
20
117.002357
11
102.217650
21
124.698976
0
LINE
8
0
10
102.217650
20
124.698976
11
100.891935
21
132.718292
0
LINE
8
0
10
100.891935
20
132.718292
11
100.318654
21
137.278677
0
LINE
8
0
10
100.318654
20
137.278677
11
100.244241
21
138.977463
0
LINE
8
0
10
100.244241
20
138.977463
11
100.320826
21
139.294606
0
LINE
8
0
10
100.320826
20
139.294606
11
100.608540
21
139.100651
0
LINE
8
0
10
100.608540
20
139.100651
11
101.786247
21
137.025898
0
LINE
8
0
10
101.786247
20
137.025898
11
102.531186
21
135.400642
0
LINE
8
0
10
102.531186
20
135.400642
11
104.905145
21
130.344656
0
LINE
8
0
10
104.905145
20
130.344656
11
110.832205
21
119.969329
0
LINE
8
0
10
110.832205
20
119.969329
11
118.057381
21
109.634878
0
LINE
8
0
10
118.057381
20
109.634878
11
126.251785
21
99.811726
0
LINE
8
0
10
126.251785
20
99.811726
11
130.609670
21
95.238894
0
LINE
8
0
10
130.609670
20
95.238894
11
137.101455
21
89.139994
0
LINE
8
0
10
137.101455
20
89.139994
11
151.110905
21
78.341938
0
LINE
8
0
10
151.110905
20
78.341938
11
166.532893
21
69.397375
0
LINE
8
0
10
166.532893
20
69.397375
11
183.421060
21
62.290911
0
LINE
8
0
10
183.421060
20
62.290911
11
201.829046
21
57.007146
0
LINE
8
0
10
201.829046
20
57.007146
11
221.810491
21
53.530686
0
LINE
8
0
10
221.810491
20
53.530686
11
243.419035
21
51.846133
0
LINE
8
0
10
243.419035
20
51.846133
11
266.708319
21
51.938091
0
LINE
8
0
10
266.708319
20
51.938091
11
279.000000
21
52.645451
0
LINE
8
0
10
279.000000
20
52.645451
11
284.516041
21
53.118156
0
LINE
8
0
10
284.516041
20
53.118156
11
296.656891
21
54.494533
0
LINE
8
0
10
296.656891
20
54.494533
11
309.136553
21
56.282290
0
LINE
8
0
10
309.136553
20
56.282290
11
320.587567
21
58.285533
0
LINE
8
0
10
320.587567
20
58.285533
11
325.500000
21
59.306744
0
LINE
8
0
10
325.500000
20
59.306744
11
337.084478
21
62.194141
0
LINE
8
0
10
337.084478
20
62.194141
11
361.339146
21
69.888797
0
LINE
8
0
10
361.339146
20
69.888797
11
385.100854
21
79.369035
0
LINE
8
0
10
385.100854
20
79.369035
11
401.197777
21
87.092102
0
LINE
8
0
10
401.197777
20
87.092102
11
410.562149
21
92.314912
0
LINE
8
0
10
410.562149
20
92.314912
11
414.725105
21
94.904995
0
LINE
8
0
10
414.725105
20
94.904995
11
421.673501
21
99.681591
0
LINE
8
0
10
421.673501
20
99.681591
11
435.645790
21
110.808371
0
LINE
8
0
10
435.645790
20
110.808371
11
448.971704
21
123.331249
0
LINE
8
0
10
448.971704
20
123.331249
11
460.754797
21
136.407801
0
LINE
8
0
10
460.754797
20
136.407801
11
465.787646
21
142.890447
0
LINE
8
0
10
465.787646
20
142.890447
11
472.189108
21
151.640447
0
LINE
8
0
10
472.189108
20
151.640447
11
525.594554
21
151.640447
0
LINE
8
0
10
525.594554
20
151.640447
11
536.322581
21
151.624201
0
LINE
8
0
10
536.322581
20
151.624201
11
550.996693
21
151.544009
0
LINE
8
0
10
550.996693
20
151.544009
11
559.514705
21
151.458095
0
LINE
8
0
10
559.514705
20
151.458095
11
566.765381
21
151.350027
0
LINE
8
0
10
566.765381
20
151.350027
11
572.529675
21
151.223070
0
LINE
8
0
10
572.529675
20
151.223070
11
576.588541
21
151.080488
0
LINE
8
0
10
576.588541
20
151.080488
11
578.722933
21
150.925547
0
LINE
8
0
10
578.722933
20
150.925547
11
579.000000
21
150.844462
0
LINE
8
0
10
579.000000
20
150.844462
11
578.912166
21
150.542104
0
LINE
8
0
10
578.912166
20
150.542104
11
578.262450
21
149.203949
0
LINE
8
0
10
578.262450
20
149.203949
11
576.367515
21
145.841522
0
LINE
8
0
10
576.367515
20
145.841522
11
574.696577
21
143.068533
0
LINE
8
0
10
574.696577
20
143.068533
11
571.525656
21
138.148210
0
LINE
8
0
10
571.525656
20
138.148210
11
564.150469
21
127.918500
0
LINE
8
0
10
564.150469
20
127.918500
11
550.918902
21
112.025848
0
LINE
8
0
10
550.918902
20
112.025848
11
530.389222
21
91.001338
0
LINE
8
0
10
530.389222
20
91.001338
11
508.180892
21
71.826725
0
LINE
8
0
10
508.180892
20
71.826725
11
497.000000
21
63.499221
0
LINE
8
0
10
497.000000
20
63.499221
11
488.929231
21
58.030993
0
LINE
8
0
10
488.929231
20
58.030993
11
472.028196
21
47.767247
0
LINE
8
0
10
472.028196
20
47.767247
11
454.117258
21
38.401495
0
LINE
8
0
10
454.117258
20
38.401495
11
435.199731
21
29.934996
0
LINE
8
0
10
435.199731
20
29.934996
11
415.278928
21
22.369008
0
LINE
8
0
10
415.278928
20
22.369008
11
394.358162
21
15.704789
0
LINE
8
0
10
394.358162
20
15.704789
11
372.440746
21
9.943598
0
LINE
8
0
10
372.440746
20
9.943598
11
349.529992
21
5.086693
0
LINE
8
0
10
349.529992
20
5.086693
11
337.703150
21
2.997741
0
LINE
8
0
10
337.703150
20
2.997741
11
328.955629
21
1.698001
0
LINE
8
0
10
328.955629
20
1.698001
11
315.955672
21
0.622346
0
LINE
8
0
10
315.955672
20
0.622346
11
307.651299
21
0.348735
0
LINE
8
0
10
307.651299
20
0.348735
11
300.864165
21
0.223737
0
LINE
8
0
10
300.864165
20
0.223737
11
297.000000
21
0.171843
0
LINE
8
0
10
297.000000
20
0.171843
11
291.785742
21
0.117644
0
LINE
8
0
10
291.785742
20
0.117644
11
281.997070
21
0.069384
0
LINE
8
0
10
281.997070
20
0.069384
11
273.881836
21
0.098374
0
LINE
8
0
10
273.881836
20
0.098374
11
268.424414
21
0.201100
0
LINE
8
0
10
268.424414
20
0.201100
11
267.000000
21
0.279014
0
LINE
8
0
10
820.000000
20
85.640447
11
819.134137
21
86.654375
0
LINE
8
0
10
819.134137
20
86.654375
11
818.213105
21
89.198440
0
LINE
8
0
10
818.213105
20
89.198440
11
818.418934
21
93.359333
0
LINE
8
0
10
818.418934
20
93.359333
11
819.345966
21
98.211342
0
LINE
8
0
10
819.345966
20
98.211342
11
820.344838
21
102.531616
0
LINE
8
0
10
820.344838
20
102.531616
11
820.961114
21
105.069665
0
LINE
8
0
10
820.961114
20
105.069665
11
823.928417
21
117.266530
0
LINE
8
0
10
823.928417
20
117.266530
11
826.904411
21
129.640447
0
LINE
8
0
10
826.904411
20
129.640447
11
829.759470
21
141.600254
0
LINE
8
0
10
829.759470
20
141.600254
11
833.945786
21
159.105948
0
LINE
8
0
10
833.945786
20
159.105948
11
836.910833
21
171.483411
0
LINE
8
0
10
836.910833
20
171.483411
11
838.506898
21
178.140447
0
LINE
8
0
10
838.506898
20
178.140447
11
840.302777
21
185.629839
0
LINE
8
0
10
840.302777
20
185.629839
11
843.520206
21
199.052630
0
LINE
8
0
10
843.520206
20
199.052630
11
846.287264
21
210.604731
0
LINE
8
0
10
846.287264
20
210.604731
11
848.662436
21
220.530902
0
LINE
8
0
10
848.662436
20
220.530902
11
850.704205
21
229.075905
0
LINE
8
0
10
850.704205
20
229.075905
11
852.471055
21
236.484501
0
LINE
8
0
10
852.471055
20
236.484501
11
854.733791
21
246.002043
0
LINE
8
0
10
854.733791
20
246.002043
11
856.069211
21
251.640447
0
LINE
8
0
10
856.069211
20
251.640447
11
857.373113
21
257.125212
0
LINE
8
0
10
857.373113
20
257.125212
11
859.393295
21
265.533269
0
LINE
8
0
10
859.393295
20
265.533269
11
860.546791
21
270.278288
0
LINE
8
0
10
860.546791
20
270.278288
11
861.004821
21
272.140447
0
LINE
8
0
10
861.004821
20
272.140447
11
861.467728
21
274.021731
0
LINE
8
0
10
861.467728
20
274.021731
11
862.657300
21
278.908225
0
LINE
8
0
10
862.657300
20
278.908225
11
864.782697
21
287.728901
0
LINE
8
0
10
864.782697
20
287.728901
11
866.179378
21
293.577511
0
LINE
8
0
10
866.179378
20
293.577511
11
866.905362
21
296.525712
0
LINE
8
0
10
866.905362
20
296.525712
11
868.324974
21
301.691572
0
LINE
8
0
10
868.324974
20
301.691572
11
869.630275
21
305.666630
0
LINE
8
0
10
869.630275
20
305.666630
11
870.735858
21
308.190793
0
LINE
8
0
10
870.735858
20
308.190793
11
871.187064
21
308.827511
0
LINE
8
0
10
871.187064
20
308.827511
11
871.883026
21
309.381326
0
LINE
8
0
10
871.883026
20
309.381326
11
874.447576
21
310.129577
0
LINE
8
0
10
874.447576
20
310.129577
11
878.350535
21
310.438461
0
LINE
8
0
10
878.350535
20
310.438461
11
882.349196
21
310.553835
0
LINE
8
0
10
882.349196
20
310.553835
11
887.747727
21
310.615186
0
LINE
8
0
10
887.747727
20
310.615186
11
894.788286
21
310.638298
0
LINE
8
0
10
894.788286
20
310.638298
11
899.000000
21
310.640447
0
LINE
8
0
10
899.000000
20
310.640447
11
903.358549
21
310.638832
0
LINE
8
0
10
903.358549
20
310.638832
11
910.581055
21
310.618474
0
LINE
8
0
10
910.581055
20
310.618474
11
916.042142
21
310.558753
0
LINE
8
0
10
916.042142
20
310.558753
11
920.019456
21
310.439838
0
LINE
8
0
10
920.019456
20
310.439838
11
923.810697
21
310.107093
0
LINE
8
0
10
923.810697
20
310.107093
11
926.263822
21
309.271156
0
LINE
8
0
10
926.263822
20
309.271156
11
927.000000
21
308.640447
0
LINE
8
0
10
927.000000
20
308.640447
11
928.412500
21
306.713774
0
LINE
8
0
10
928.412500
20
306.713774
11
929.000000
21
304.890073
0
LINE
8
0
10
929.000000
20
304.890073
11
928.908212
21
303.719678
0
LINE
8
0
10
928.908212
20
303.719678
11
928.151055
21
299.370504
0
LINE
8
0
10
928.151055
20
299.370504
11
926.578333
21
292.108977
0
LINE
8
0
10
926.578333
20
292.108977
11
924.129096
21
281.653690
0
LINE
8
0
10
924.129096
20
281.653690
11
922.556740
21
275.140447
0
LINE
8
0
10
922.556740
20
275.140447
11
920.710031
21
267.533867
0
LINE
8
0
10
920.710031
20
267.533867
11
916.814109
21
251.416021
0
LINE
8
0
10
916.814109
20
251.416021
11
912.435069
21
233.205696
0
LINE
8
0
10
912.435069
20
233.205696
11
908.679902
21
217.535013
0
LINE
8
0
10
908.679902
20
217.535013
11
905.892287
21
205.880095
0
LINE
8
0
10
905.892287
20
205.880095
11
904.401241
21
199.640447
0
LINE
8
0
10
904.401241
20
199.640447
11
898.825481
21
176.457053
0
LINE
8
0
10
898.825481
20
176.457053
11
893.424705
21
154.242536
0
LINE
8
0
10
893.424705
20
154.242536
11
892.442349
21
150.175871
0
LINE
8
0
10
892.442349
20
150.175871
11
891.319000
21
144.630267
0
LINE
8
0
10
891.319000
20
144.630267
11
891.316635
21
141.404233
0
LINE
8
0
10
891.316635
20
141.404233
11
892.434260
21
139.140893
0
LINE
8
0
10
892.434260
20
139.140893
11
893.412757
21
137.946210
0
LINE
8
0
10
893.412757
20
137.946210
11
895.825515
21
135.140447
0
LINE
8
0
10
895.825515
20
135.140447
11
946.623359
21
134.854842
0
LINE
8
0
10
946.623359
20
134.854842
11
951.700310
21
134.826608
0
LINE
8
0
10
951.700310
20
134.826608
11
960.886957
21
134.773785
0
LINE
8
0
10
960.886957
20
134.773785
11
968.856002
21
134.717294
0
LINE
8
0
10
968.856002
20
134.717294
11
975.693930
21
134.646905
0
LINE
8
0
10
975.693930
20
134.646905
11
984.019168
21
134.492879
0
LINE
8
0
10
984.019168
20
134.492879
11
991.967776
21
134.143364
0
LINE
8
0
10
991.967776
20
134.143364
11
996.948659
21
133.554078
0
LINE
8
0
10
996.948659
20
133.554078
11
999.653702
21
132.643162
0
LINE
8
0
10
999.653702
20
132.643162
11
1000.957564
21
130.494671
0
LINE
8
0
10
1000.957564
20
130.494671
11
1001.000000
21
128.421559
0
LINE
8
0
10
1001.000000
20
128.421559
11
1000.929806
21
127.547679
0
LINE
8
0
10
1000.929806
20
127.547679
11
1000.410574
21
124.366770
0
LINE
8
0
10
1000.410574
20
124.366770
11
998.896201
21
117.064274
0
LINE
8
0
10
998.896201
20
117.064274
11
997.560840
21
111.326546
0
LINE
8
0
10
997.560840
20
111.326546
11
996.174189
21
105.531758
0
LINE
8
0
10
996.174189
20
105.531758
11
994.423873
21
97.966772
0
LINE
8
0
10
994.423873
20
97.966772
11
993.672442
21
94.527539
0
LINE
8
0
10
993.672442
20
94.527539
11
993.471676
21
93.508396
0
LINE
8
0
10
993.471676
20
93.508396
11
992.455621
21
90.027362
0
LINE
8
0
10
992.455621
20
90.027362
11
990.925535
21
86.758396
0
LINE
8
0
10
990.925535
20
86.758396
11
989.029397
21
83.640447
0
LINE
8
0
10
989.029397
20
83.640447
11
905.514698
21
83.640447
0
LINE
8
0
10
905.514698
20
83.640447
11
898.044477
21
83.640598
0
LINE
8
0
10
898.044477
20
83.640598
11
884.464996
21
83.642858
0
LINE
8
0
10
884.464996
20
83.642858
11
872.600743
21
83.650049
0
LINE
8
0
10
872.600743
20
83.650049
11
862.332453
21
83.664963
0
LINE
8
0
10
862.332453
20
83.664963
11
853.540859
21
83.690387
0
LINE
8
0
10
853.540859
20
83.690387
11
846.106696
21
83.729113
0
LINE
8
0
10
846.106696
20
83.729113
11
839.910697
21
83.783928
0
LINE
8
0
10
839.910697
20
83.783928
11
834.833597
21
83.857622
0
LINE
8
0
10
834.833597
20
83.857622
11
829.054987
21
84.009664
0
LINE
8
0
10
829.054987
20
84.009664
11
824.153170
21
84.304498
0
LINE
8
0
10
824.153170
20
84.304498
11
820.868791
21
84.989458
0
LINE
8
0
10
820.868791
20
84.989458
11
820.000000
21
85.640447
0
LINE
8
0
10
683.000000
20
80.258855
11
673.988236
21
81.153008
0
LINE
8
0
10
673.988236
20
81.153008
11
658.686784
21
83.247359
0
LINE
8
0
10
658.686784
20
83.247359
11
649.800300
21
85.041363
0
LINE
8
0
10
649.800300
20
85.041363
11
645.208070
21
86.322458
0
LINE
8
0
10
645.208070
20
86.322458
11
641.743080
21
87.658426
0
LINE
8
0
10
641.743080
20
87.658426
11
639.458102
21
89.037953
0
LINE
8
0
10
639.458102
20
89.037953
11
638.774609
21
89.740516
0
LINE
8
0
10
638.774609
20
89.740516
11
638.130155
21
90.724020
0
LINE
8
0
10
638.130155
20
90.724020
11
637.711943
21
92.801698
0
LINE
8
0
10
637.711943
20
92.801698
11
637.918666
21
95.254612
0
LINE
8
0
10
637.918666
20
95.254612
11
638.609720
21
99.094708
0
LINE
8
0
10
638.609720
20
99.094708
11
639.867313
21
104.778795
0
LINE
8
0
10
639.867313
20
104.778795
11
641.773649
21
112.763682
0
LINE
8
0
10
641.773649
20
112.763682
11
644.410937
21
123.506181
0
LINE
8
0
10
644.410937
20
123.506181
11
646.029377
21
130.054287
0
LINE
8
0
10
646.029377
20
130.054287
11
646.582258
21
132.230269
0
LINE
8
0
10
646.582258
20
132.230269
11
647.645980
21
135.804443
0
LINE
8
0
10
647.645980
20
135.804443
11
649.491447
21
139.404766
0
LINE
8
0
10
649.491447
20
139.404766
11
653.412476
21
141.432006
0
LINE
8
0
10
653.412476
20
141.432006
11
658.276852
21
141.300786
0
LINE
8
0
10
658.276852
20
141.300786
11
662.790755
21
140.610340
0
LINE
8
0
10
662.790755
20
140.610340
11
665.500000
21
140.120934
0
LINE
8
0
10
665.500000
20
140.120934
11
670.469829
21
139.374621
0
LINE
8
0
10
670.469829
20
139.374621
11
682.917378
21
138.289836
0
LINE
8
0
10
682.917378
20
138.289836
11
696.241445
21
137.833369
0
LINE
8
0
10
696.241445
20
137.833369
11
705.028599
21
137.964369
0
LINE
8
0
10
705.028599
20
137.964369
11
709.618528
21
138.300883
0
LINE
8
0
10
709.618528
20
138.300883
11
711.394252
21
138.548648
0
LINE
8
0
10
711.394252
20
138.548648
11
715.856934
21
139.549621
0
LINE
8
0
10
715.856934
20
139.549621
11
723.772570
21
142.758759
0
LINE
8
0
10
723.772570
20
142.758759
11
730.500993
21
147.694186
0
LINE
8
0
10
730.500993
20
147.694186
11
736.233115
21
154.495938
0
LINE
8
0
10
736.233115
20
154.495938
11
738.785222
21
158.640447
0
LINE
8
0
10
738.785222
20
158.640447
11
740.719930
21
162.362974
0
LINE
8
0
10
740.719930
20
162.362974
11
743.493719
21
169.262967
0
LINE
8
0
10
743.493719
20
169.262967
11
745.543876
21
175.784680
0
LINE
8
0
10
745.543876
20
175.784680
11
747.983988
21
184.679168
0
LINE
8
0
10
747.983988
20
184.679168
11
751.010498
21
196.662487
0
LINE
8
0
10
751.010498
20
196.662487
11
753.783376
21
208.107776
0
LINE
8
0
10
753.783376
20
208.107776
11
755.917525
21
217.076174
0
LINE
8
0
10
755.917525
20
217.076174
11
758.308773
21
227.219563
0
LINE
8
0
10
758.308773
20
227.219563
11
760.981674
21
238.627448
0
LINE
8
0
10
760.981674
20
238.627448
11
762.431419
21
244.833549
0
LINE
8
0
10
762.431419
20
244.833549
11
763.102205
21
248.198611
0
LINE
8
0
10
763.102205
20
248.198611
11
763.233277
21
253.299442
0
LINE
8
0
10
763.233277
20
253.299442
11
761.534453
21
256.654224
0
LINE
8
0
10
761.534453
20
256.654224
11
757.746658
21
258.774571
0
LINE
8
0
10
757.746658
20
258.774571
11
754.988436
21
259.531710
0
LINE
8
0
10
754.988436
20
259.531710
11
752.370896
21
260.256871
0
LINE
8
0
10
752.370896
20
260.256871
11
749.082366
21
262.583630
0
LINE
8
0
10
749.082366
20
262.583630
11
748.185295
21
265.770847
0
LINE
8
0
10
748.185295
20
265.770847
11
748.270780
21
268.903952
0
LINE
8
0
10
748.270780
20
268.903952
11
748.863417
21
273.043769
0
LINE
8
0
10
748.863417
20
273.043769
11
749.929197
21
278.361795
0
LINE
8
0
10
749.929197
20
278.361795
11
750.628888
21
281.516229
0
LINE
8
0
10
750.628888
20
281.516229
11
751.518804
21
285.430204
0
LINE
8
0
10
751.518804
20
285.430204
11
753.082666
21
292.159414
0
LINE
8
0
10
753.082666
20
292.159414
11
754.395053
21
297.545306
0
LINE
8
0
10
754.395053
20
297.545306
11
755.499748
21
301.733882
0
LINE
8
0
10
755.499748
20
301.733882
11
756.863141
21
306.091157
0
LINE
8
0
10
756.863141
20
306.091157
11
758.362709
21
309.072938
0
LINE
8
0
10
758.362709
20
309.072938
11
759.074594
21
309.680368
0
LINE
8
0
10
759.074594
20
309.680368
11
759.443391
21
309.790651
0
LINE
8
0
10
759.443391
20
309.790651
11
761.089071
21
309.987162
0
LINE
8
0
10
761.089071
20
309.987162
11
763.891704
21
310.150579
0
LINE
8
0
10
763.891704
20
310.150579
11
767.786695
21
310.279675
0
LINE
8
0
10
767.786695
20
310.279675
11
775.536047
21
310.406281
0
LINE
8
0
10
775.536047
20
310.406281
11
789.088873
21
310.443507
0
LINE
8
0
10
789.088873
20
310.443507
11
797.100098
21
310.402966
0
LINE
8
0
10
797.100098
20
310.402966
11
833.284896
21
310.140447
0
LINE
8
0
10
833.284896
20
310.140447
11
835.262911
21
307.490617
0
LINE
8
0
10
835.262911
20
307.490617
11
836.370976
21
305.828061
0
LINE
8
0
10
836.370976
20
305.828061
11
836.625959
21
302.933890
0
LINE
8
0
10
836.625959
20
302.933890
11
835.844611
21
299.245823
0
LINE
8
0
10
835.844611
20
299.245823
11
835.165125
21
296.490617
0
LINE
8
0
10
835.165125
20
296.490617
11
833.076947
21
287.802684
0
LINE
8
0
10
833.076947
20
287.802684
11
830.971387
21
278.640447
0
LINE
8
0
10
830.971387
20
278.640447
11
828.889460
21
269.434197
0
LINE
8
0
10
828.889460
20
269.434197
11
826.858103
21
260.640447
0
LINE
8
0
10
826.858103
20
260.640447
11
825.973749
21
256.866619
0
LINE
8
0
10
825.973749
20
256.866619
11
824.170543
21
249.140837
0
LINE
8
0
10
824.170543
20
249.140837
11
823.473787
21
246.140447
0
LINE
8
0
10
823.473787
20
246.140447
11
821.037403
21
235.647918
0
LINE
8
0
10
821.037403
20
235.647918
11
816.607272
21
216.775301
0
LINE
8
0
10
816.607272
20
216.775301
11
812.721976
21
200.541546
0
LINE
8
0
10
812.721976
20
200.541546
11
809.327095
21
186.733384
0
LINE
8
0
10
809.327095
20
186.733384
11
806.368210
21
175.137548
0
LINE
8
0
10
806.368210
20
175.137548
11
803.790902
21
165.540769
0
LINE
8
0
10
803.790902
20
165.540769
11
801.540751
21
157.729778
0
LINE
8
0
10
801.540751
20
157.729778
11
799.563337
21
151.491307
0
LINE
8
0
10
799.563337
20
151.491307
11
798.659902
21
148.895119
0
LINE
8
0
10
798.659902
20
148.895119
11
796.380587
21
142.999741
0
LINE
8
0
10
796.380587
20
142.999741
11
791.278248
21
132.356969
0
LINE
8
0
10
791.278248
20
132.356969
11
785.239877
21
122.914767
0
LINE
8
0
10
785.239877
20
122.914767
11
778.012170
21
114.277044
0
LINE
8
0
10
778.012170
20
114.277044
11
773.873158
21
110.136084
0
LINE
8
0
10
773.873158
20
110.136084
11
767.814014
21
104.818089
0
LINE
8
0
10
767.814014
20
104.818089
11
754.595769
21
95.681093
0
LINE
8
0
10
754.595769
20
95.681093
11
740.047009
21
88.608913
0
LINE
8
0
10
740.047009
20
88.608913
11
724.331046
21
83.680934
0
LINE
8
0
10
724.331046
20
83.680934
11
716.086399
21
82.045829
0
LINE
8
0
10
716.086399
20
82.045829
11
712.286839
21
81.511994
0
LINE
8
0
10
712.286839
20
81.511994
11
703.387633
21
80.655785
0
LINE
8
0
10
703.387633
20
80.655785
11
694.104153
21
80.154390
0
LINE
8
0
10
694.104153
20
80.154390
11
686.055408
21
80.095252
0
LINE
8
0
10
686.055408
20
80.095252
11
683.000000
21
80.258855
0
LINE
8
0
10
477.500000
20
314.730218
11
475.089069
21
317.995840
0
LINE
8
0
10
475.089069
20
317.995840
11
468.217006
21
325.701420
0
LINE
8
0
10
468.217006
20
325.701420
11
459.883526
21
333.744872
0
LINE
8
0
10
459.883526
20
333.744872
11
451.615250
21
340.652707
0
LINE
8
0
10
451.615250
20
340.652707
11
447.982632
21
343.220303
0
LINE
8
0
10
447.982632
20
343.220303
11
442.891850
21
346.329497
0
LINE
8
0
10
442.891850
20
346.329497
11
432.091111
21
351.844473
0
LINE
8
0
10
432.091111
20
351.844473
11
420.465511
21
356.421425
0
LINE
8
0
10
420.465511
20
356.421425
11
408.015902
21
360.060178
0
LINE
8
0
10
408.015902
20
360.060178
11
394.743132
21
362.760560
0
LINE
8
0
10
394.743132
20
362.760560
11
380.648055
21
364.522397
0
LINE
8
0
10
380.648055
20
364.522397
11
365.731518
21
365.345517
0
LINE
8
0
10
365.731518
20
365.345517
11
349.994374
21
365.229747
0
LINE
8
0
10
349.994374
20
365.229747
11
341.818340
21
364.819724
0
LINE
8
0
10
341.818340
20
364.819724
11
328.946868
21
363.719556
0
LINE
8
0
10
328.946868
20
363.719556
11
302.181477
21
359.820973
0
LINE
8
0
10
302.181477
20
359.820973
11
274.735388
21
353.807610
0
LINE
8
0
10
274.735388
20
353.807610
11
247.427678
21
345.858924
0
LINE
8
0
10
247.427678
20
345.858924
11
234.081676
21
341.214916
0
LINE
8
0
10
234.081676
20
341.214916
11
229.232996
21
339.466900
0
LINE
8
0
10
229.232996
20
339.466900
11
223.641166
21
337.577718
0
LINE
8
0
10
223.641166
20
337.577718
11
221.644608
21
337.009263
0
LINE
8
0
10
221.644608
20
337.009263
11
221.322723
21
336.984390
0
LINE
8
0
10
221.322723
20
336.984390
11
221.469967
21
337.186802
0
LINE
8
0
10
221.469967
20
337.186802
11
223.094111
21
338.189283
0
LINE
8
0
10
223.094111
20
338.189283
11
226.236453
21
339.864175
0
LINE
8
0
10
226.236453
20
339.864175
11
230.591378
21
342.062117
0
LINE
8
0
10
230.591378
20
342.062117
11
244.778155
21
348.865125
0
LINE
8
0
10
244.778155
20
348.865125
11
257.000000
21
354.420830
0
LINE
8
0
10
257.000000
20
354.420830
11
274.391306
21
361.796056
0
LINE
8
0
10
274.391306
20
361.796056
11
299.604523
21
371.488974
0
LINE
8
0
10
299.604523
20
371.488974
11
313.998566
21
376.348377
0
LINE
8
0
10
313.998566
20
376.348377
11
320.000000
21
378.120077
0
LINE
8
0
10
320.000000
20
378.120077
11
327.971360
21
380.290909
0
LINE
8
0
10
327.971360
20
380.290909
11
342.316398
21
384.009693
0
LINE
8
0
10
342.316398
20
384.009693
11
354.958957
21
386.963972
0
LINE
8
0
10
354.958957
20
386.963972
11
366.412352
21
389.232944
0
LINE
8
0
10
366.412352
20
389.232944
11
382.485641
21
391.524701
0
LINE
8
0
10
382.485641
20
391.524701
11
398.770710
21
392.720014
0
LINE
8
0
10
398.770710
20
392.720014
11
410.600605
21
393.039753
0
LINE
8
0
10
410.600605
20
393.039753
11
417.000000
21
393.086181
0
LINE
8
0
10
417.000000
20
393.086181
11
423.958311
21
393.080837
0
LINE
8
0
10
423.958311
20
393.080837
11
435.065039
21
392.923754
0
LINE
8
0
10
435.065039
20
392.923754
11
446.969420
21
392.213541
0
LINE
8
0
10
446.969420
20
392.213541
11
453.500000
21
391.339207
0
LINE
8
0
10
453.500000
20
391.339207
11
461.182957
21
389.988578
0
LINE
8
0
10
461.182957
20
389.988578
11
475.775300
21
386.836811
0
LINE
8
0
10
475.775300
20
386.836811
11
489.454271
21
383.033499
0
LINE
8
0
10
489.454271
20
383.033499
11
502.361536
21
378.517608
0
LINE
8
0
10
502.361536
20
378.517608
11
520.585385
21
370.274166
0
LINE
8
0
10
520.585385
20
370.274166
11
543.505114
21
356.219212
0
LINE
8
0
10
543.505114
20
356.219212
11
554.692843
21
347.741390
0
LINE
8
0
10
554.692843
20
347.741390
11
558.874113
21
344.273044
0
LINE
8
0
10
558.874113
20
344.273044
11
564.839512
21
339.001702
0
LINE
8
0
10
564.839512
20
339.001702
11
567.926236
21
336.055558
0
LINE
8
0
10
567.926236
20
336.055558
11
569.026168
21
334.910787
0
LINE
8
0
10
569.026168
20
334.910787
11
572.778823
21
330.727487
0
LINE
8
0
10
572.778823
20
330.727487
11
579.776224
21
322.499314
0
LINE
8
0
10
579.776224
20
322.499314
11
585.338281
21
315.420572
0
LINE
8
0
10
585.338281
20
315.420572
11
588.020603
21
311.562341
0
LINE
8
0
10
588.020603
20
311.562341
11
588.886440
21
309.952423
0
LINE
8
0
10
588.886440
20
309.952423
11
589.000000
21
309.490408
0
LINE
8
0
10
589.000000
20
309.490408
11
588.721146
21
309.403968
0
LINE
8
0
10
588.721146
20
309.403968
11
586.572983
21
309.239622
0
LINE
8
0
10
586.572983
20
309.239622
11
582.487930
21
309.089468
0
LINE
8
0
10
582.487930
20
309.089468
11
576.686447
21
308.956878
0
LINE
8
0
10
576.686447
20
308.956878
11
569.388992
21
308.845226
0
LINE
8
0
10
569.388992
20
308.845226
11
560.816025
21
308.757885
0
LINE
8
0
10
560.816025
20
308.757885
11
546.047241
21
308.679833
0
LINE
8
0
10
546.047241
20
308.679833
11
535.250000
21
308.668026
0
LINE
8
0
10
535.250000
20
308.668026
11
481.500000
21
308.695604
0
LINE
8
0
10
481.500000
20
308.695604
11
477.500000
21
314.730218
0
LINE
8
0
10
250.752463
20
164.556379
11
244.625534
21
166.242884
0
LINE
8
0
10
244.625534
20
166.242884
11
233.625320
21
171.145235
0
LINE
8
0
10
233.625320
20
171.145235
11
224.477166
21
177.952371
0
LINE
8
0
10
224.477166
20
177.952371
11
217.397714
21
186.503091
0
LINE
8
0
10
217.397714
20
186.503091
11
214.701451
21
191.381919
0
LINE
8
0
10
214.701451
20
191.381919
11
213.667533
21
193.604959
0
LINE
8
0
10
213.667533
20
193.604959
11
212.319505
21
197.216855
0
LINE
8
0
10
212.319505
20
197.216855
11
211.703549
21
201.182210
0
LINE
8
0
10
211.703549
20
201.182210
11
211.546455
21
207.259867
0
LINE
8
0
10
211.546455
20
207.259867
11
211.554604
21
211.640447
0
LINE
8
0
10
211.554604
20
211.640447
11
211.588855
21
215.583122
0
LINE
8
0
10
211.588855
20
215.583122
11
211.805164
21
221.572429
0
LINE
8
0
10
211.805164
20
221.572429
11
212.735431
21
227.794675
0
LINE
8
0
10
212.735431
20
227.794675
11
213.943255
21
231.640447
0
LINE
8
0
10
213.943255
20
231.640447
11
216.054601
21
237.060726
0
LINE
8
0
10
216.054601
20
237.060726
11
221.049030
21
247.313659
0
LINE
8
0
10
221.049030
20
247.313659
11
227.047349
21
256.758556
0
LINE
8
0
10
227.047349
20
256.758556
11
234.019452
21
265.365977
0
LINE
8
0
10
234.019452
20
265.365977
11
241.935233
21
273.106482
0
LINE
8
0
10
241.935233
20
273.106482
11
250.764583
21
279.950631
0
LINE
8
0
10
250.764583
20
279.950631
11
260.477396
21
285.868983
0
LINE
8
0
10
260.477396
20
285.868983
11
271.043565
21
290.832097
0
LINE
8
0
10
271.043565
20
290.832097
11
276.637249
21
292.946240
0
LINE
8
0
10
276.637249
20
292.946240
11
282.910158
21
294.952940
0
LINE
8
0
10
282.910158
20
294.952940
11
295.372792
21
297.864028
0
LINE
8
0
10
295.372792
20
297.864028
11
307.553960
21
299.326433
0
LINE
8
0
10
307.553960
20
299.326433
11
319.248997
21
299.365431
0
LINE
8
0
10
319.248997
20
299.365431
11
330.253238
21
298.006302
0
LINE
8
0
10
330.253238
20
298.006302
11
340.362018
21
295.274323
0
LINE
8
0
10
340.362018
20
295.274323
11
349.370673
21
291.194772
0
LINE
8
0
10
349.370673
20
291.194772
11
357.074538
21
285.792928
0
LINE
8
0
10
357.074538
20
285.792928
11
360.373216
21
282.604045
0
LINE
8
0
10
360.373216
20
282.604045
11
363.003270
21
279.546649
0
LINE
8
0
10
363.003270
20
279.546649
11
366.931780
21
273.401166
0
LINE
8
0
10
366.931780
20
273.401166
11
369.294540
21
266.612194
0
LINE
8
0
10
369.294540
20
266.612194
11
370.343205
21
258.456648
0
LINE
8
0
10
370.343205
20
258.456648
11
370.453393
21
253.640447
0
LINE
8
0
10
370.453393
20
253.640447
11
370.374364
21
249.569647
0
LINE
8
0
10
370.374364
20
249.569647
11
369.709676
21
242.603668
0
LINE
8
0
10
369.709676
20
242.603668
11
368.160217
21
236.362251
0
LINE
8
0
10
368.160217
20
236.362251
11
365.474874
21
229.833878
0
LINE
8
0
10
365.474874
20
229.833878
11
363.627773
21
226.145984
0
LINE
8
0
10
363.627773
20
226.145984
11
361.877666
21
223.212289
0
LINE
8
0
10
361.877666
20
223.212289
11
356.987625
21
216.907766
0
LINE
8
0
10
356.987625
20
216.907766
11
350.979527
21
210.771167
0
LINE
8
0
10
350.979527
20
210.771167
11
344.735429
21
205.703413
0
LINE
8
0
10
344.735429
20
205.703413
11
341.800523
21
203.851892
0
LINE
8
0
10
341.800523
20
203.851892
11
338.661525
21
202.282923
0
LINE
8
0
10
338.661525
20
202.282923
11
331.467842
21
199.579430
0
LINE
8
0
10
331.467842
20
199.579430
11
323.948780
21
197.681272
0
LINE
8
0
10
323.948780
20
197.681272
11
317.178988
21
196.859740
0
LINE
8
0
10
317.178988
20
196.859740
11
314.410896
21
196.937487
0
LINE
8
0
10
314.410896
20
196.937487
11
311.558263
21
197.405763
0
LINE
8
0
10
311.558263
20
197.405763
11
306.212580
21
199.214951
0
LINE
8
0
10
306.212580
20
199.214951
11
301.930246
21
201.830960
0
LINE
8
0
10
301.930246
20
201.830960
11
299.411944
21
204.825751
0
LINE
8
0
10
299.411944
20
204.825751
11
299.033269
21
206.331430
0
LINE
8
0
10
299.033269
20
206.331430
11
298.909555
21
207.131917
0
LINE
8
0
10
298.909555
20
207.131917
11
298.099173
21
208.041153
0
LINE
8
0
10
298.099173
20
208.041153
11
296.595609
21
208.028551
0
LINE
8
0
10
296.595609
20
208.028551
11
294.467770
21
207.094690
0
LINE
8
0
10
294.467770
20
207.094690
11
293.191280
21
206.282467
0
LINE
8
0
10
293.191280
20
206.282467
11
289.126983
21
203.765917
0
LINE
8
0
10
289.126983
20
203.765917
11
281.006851
21
200.333461
0
LINE
8
0
10
281.006851
20
200.333461
11
273.197873
21
198.925055
0
LINE
8
0
10
273.197873
20
198.925055
11
266.059896
21
199.408524
0
LINE
8
0
10
266.059896
20
199.408524
11
259.952769
21
201.651694
0
LINE
8
0
10
259.952769
20
201.651694
11
255.236338
21
205.522394
0
LINE
8
0
10
255.236338
20
205.522394
11
252.270452
21
210.888449
0
LINE
8
0
10
252.270452
20
210.888449
11
251.414958
21
217.617685
0
LINE
8
0
10
251.414958
20
217.617685
11
251.891061
21
221.452193
0
LINE
8
0
10
251.891061
20
221.452193
11
253.349070
21
226.650319
0
LINE
8
0
10
253.349070
20
226.650319
11
258.530321
21
237.154626
0
LINE
8
0
10
258.530321
20
237.154626
11
266.007646
21
246.862704
0
LINE
8
0
10
266.007646
20
246.862704
11
274.911965
21
254.646196
0
LINE
8
0
10
274.911965
20
254.646196
11
279.627660
21
257.463610
0
LINE
8
0
10
279.627660
20
257.463610
11
284.155046
21
259.449246
0
LINE
8
0
10
284.155046
20
259.449246
11
293.328897
21
261.912122
0
LINE
8
0
10
293.328897
20
261.912122
11
301.776206
21
262.320956
0
LINE
8
0
10
301.776206
20
262.320956
11
308.434595
21
260.624331
0
LINE
8
0
10
308.434595
20
260.624331
11
310.760952
21
258.970404
0
LINE
8
0
10
310.760952
20
258.970404
11
312.022145
21
257.809970
0
LINE
8
0
10
312.022145
20
257.809970
11
313.591027
21
257.263569
0
LINE
8
0
10
313.591027
20
257.263569
11
314.120083
21
257.800505
0
LINE
8
0
10
314.120083
20
257.800505
11
314.724393
21
258.967151
0
LINE
8
0
10
314.724393
20
258.967151
11
314.984687
21
259.890447
0
LINE
8
0
10
314.984687
20
259.890447
11
315.153228
21
260.041106
0
LINE
8
0
10
315.153228
20
260.041106
11
316.382664
21
260.309026
0
LINE
8
0
10
316.382664
20
260.309026
11
319.957989
21
260.581267
0
LINE
8
0
10
319.957989
20
260.581267
11
323.106989
21
260.640447
0
LINE
8
0
10
323.106989
20
260.640447
11
325.198709
21
260.625275
0
LINE
8
0
10
325.198709
20
260.625275
11
328.289142
21
260.492689
0
LINE
8
0
10
328.289142
20
260.492689
11
330.073509
21
260.198871
0
LINE
8
0
10
330.073509
20
260.198871
11
330.733345
21
259.713930
0
LINE
8
0
10
330.733345
20
259.713930
11
330.698292
21
259.390447
0
LINE
8
0
10
330.698292
20
259.390447
11
330.457373
21
258.833196
0
LINE
8
0
10
330.457373
20
258.833196
11
329.257312
21
256.122014
0
LINE
8
0
10
329.257312
20
256.122014
11
326.107355
21
249.063298
0
LINE
8
0
10
326.107355
20
249.063298
11
323.454117
21
243.140447
0
LINE
8
0
10
323.454117
20
243.140447
11
321.976932
21
239.822826
0
LINE
8
0
10
321.976932
20
239.822826
11
319.418752
21
233.915787
0
LINE
8
0
10
319.418752
20
233.915787
11
316.524284
21
226.729100
0
LINE
8
0
10
316.524284
20
226.729100
11
314.291412
21
219.860832
0
LINE
8
0
10
314.291412
20
219.860832
11
313.730857
21
215.520748
0
LINE
8
0
10
313.730857
20
215.520748
11
314.014138
21
214.103262
0
LINE
8
0
10
314.014138
20
214.103262
11
314.744086
21
212.717584
0
LINE
8
0
10
314.744086
20
212.717584
11
317.022210
21
210.752529
0
LINE
8
0
10
317.022210
20
210.752529
11
320.199195
21
209.818934
0
LINE
8
0
10
320.199195
20
209.818934
11
324.044518
21
209.864466
0
LINE
8
0
10
324.044518
20
209.864466
11
330.561358
21
211.654150
0
LINE
8
0
10
330.561358
20
211.654150
11
339.438084
21
216.978906
0
LINE
8
0
10
339.438084
20
216.978906
11
343.438166
21
220.782897
0
LINE
8
0
10
343.438166
20
220.782897
11
345.470997
21
223.136217
0
LINE
8
0
10
345.470997
20
223.136217
11
348.689121
21
227.549198
0
LINE
8
0
10
348.689121
20
227.549198
11
351.036847
21
232.070703
0
LINE
8
0
10
351.036847
20
232.070703
11
352.825759
21
237.300815
0
LINE
8
0
10
352.825759
20
237.300815
11
353.608030
21
240.369125
0
LINE
8
0
10
353.608030
20
240.369125
11
354.421581
21
244.772768
0
LINE
8
0
10
354.421581
20
244.772768
11
354.776015
21
253.478514
0
LINE
8
0
10
354.776015
20
253.478514
11
353.496457
21
261.647329
0
LINE
8
0
10
353.496457
20
261.647329
11
350.658383
21
268.797364
0
LINE
8
0
10
350.658383
20
268.797364
11
348.678489
21
271.839761
0
LINE
8
0
10
348.678489
20
271.839761
11
345.208081
21
275.728217
0
LINE
8
0
10
345.208081
20
275.728217
11
338.836499
21
280.421662
0
LINE
8
0
10
338.836499
20
280.421662
11
333.536445
21
282.977077
0
LINE
8
0
10
333.536445
20
282.977077
11
330.500000
21
284.130534
0
LINE
8
0
10
330.500000
20
284.130534
11
326.580960
21
285.239976
0
LINE
8
0
10
326.580960
20
285.239976
11
317.105948
21
286.558670
0
LINE
8
0
10
317.105948
20
286.558670
11
306.458466
21
286.666847
0
LINE
8
0
10
306.458466
20
286.666847
11
295.850641
21
285.552194
0
LINE
8
0
10
295.850641
20
285.552194
11
290.940390
21
284.532458
0
LINE
8
0
10
290.940390
20
284.532458
11
284.785475
21
282.750560
0
LINE
8
0
10
284.785475
20
282.750560
11
272.813925
21
277.844904
0
LINE
8
0
10
272.813925
20
277.844904
11
261.574333
21
271.313344
0
LINE
8
0
10
261.574333
20
271.313344
11
251.403796
21
263.351775
0
LINE
8
0
10
251.403796
20
263.351775
11
246.824765
21
258.895953
0
LINE
8
0
10
246.824765
20
258.895953
11
242.013459
21
253.441971
0
LINE
8
0
10
242.013459
20
253.441971
11
236.426805
21
245.159702
0
LINE
8
0
10
236.426805
20
245.159702
11
233.304886
21
238.806231
0
LINE
8
0
10
233.304886
20
238.806231
11
231.800134
21
235.183339
0
LINE
8
0
10
231.800134
20
235.183339
11
230.812016
21
232.629114
0
LINE
8
0
10
230.812016
20
232.629114
11
229.485651
21
228.461460
0
LINE
8
0
10
229.485651
20
228.461460
11
228.825302
21
224.278222
0
LINE
8
0
10
228.825302
20
224.278222
11
228.590401
21
218.555424
0
LINE
8
0
10
228.590401
20
218.555424
11
228.557317
21
214.640447
0
LINE
8
0
10
228.557317
20
214.640447
11
228.554824
21
210.855575
0
LINE
8
0
10
228.554824
20
210.855575
11
228.706782
21
205.373785
0
LINE
8
0
10
228.706782
20
205.373785
11
229.608441
21
200.269560
0
LINE
8
0
10
229.608441
20
200.269560
11
230.877531
21
197.311279
0
LINE
8
0
10
230.877531
20
197.311279
11
233.898323
21
192.577998
0
LINE
8
0
10
233.898323
20
192.577998
11
237.822418
21
187.979368
0
LINE
8
0
10
237.822418
20
187.979368
11
240.409154
21
185.667903
0
LINE
8
0
10
240.409154
20
185.667903
11
246.329707
21
181.690643
0
LINE
8
0
10
246.329707
20
181.690643
11
253.112693
21
178.595201
0
LINE
8
0
10
253.112693
20
178.595201
11
260.597706
21
176.406687
0
LINE
8
0
10
260.597706
20
176.406687
11
268.624338
21
175.150211
0
LINE
8
0
10
268.624338
20
175.150211
11
277.032181
21
174.850883
0
LINE
8
0
10
277.032181
20
174.850883
11
285.660828
21
175.533812
0
LINE
8
0
10
285.660828
20
175.533812
11
294.349871
21
177.224109
0
LINE
8
0
10
294.349871
20
177.224109
11
298.666914
21
178.454867
0
LINE
8
0
10
298.666914
20
178.454867
11
307.833827
21
181.357458
0
LINE
8
0
10
307.833827
20
181.357458
11
308.898891
21
177.127705
0
LINE
8
0
10
308.898891
20
177.127705
11
309.358608
21
175.365048
0
LINE
8
0
10
309.358608
20
175.365048
11
310.237864
21
172.298906
0
LINE
8
0
10
310.237864
20
172.298906
11
310.549108
21
171.373069
0
LINE
8
0
10
310.549108
20
171.373069
11
310.515592
21
170.543045
0
LINE
8
0
10
310.515592
20
170.543045
11
308.856162
21
169.295155
0
LINE
8
0
10
308.856162
20
169.295155
11
306.459028
21
168.323910
0
LINE
8
0
10
306.459028
20
168.323910
11
304.817130
21
167.761156
0
LINE
8
0
10
304.817130
20
167.761156
11
298.505752
21
165.956336
0
LINE
8
0
10
298.505752
20
165.956336
11
284.689194
21
163.502246
0
LINE
8
0
10
284.689194
20
163.502246
11
270.362116
21
162.652984
0
LINE
8
0
10
270.362116
20
162.652984
11
256.821976
21
163.485457
0
LINE
8
0
10
256.821976
20
163.485457
11
250.752463
21
164.556379
0
LINE
8
0
10
522.757703
20
163.622114
11
519.350734
21
164.550546
0
LINE
8
0
10
519.350734
20
164.550546
11
513.574749
21
166.558546
0
LINE
8
0
10
513.574749
20
166.558546
11
506.590520
21
170.408763
0
LINE
8
0
10
506.590520
20
170.408763
11
502.342428
21
173.892457
0
LINE
8
0
10
502.342428
20
173.892457
11
498.741094
21
177.695985
0
LINE
8
0
10
498.741094
20
177.695985
11
493.018789
21
186.699654
0
LINE
8
0
10
493.018789
20
186.699654
11
489.266030
21
197.252856
0
LINE
8
0
10
489.266030
20
197.252856
11
487.477698
21
208.980449
0
LINE
8
0
10
487.477698
20
208.980449
11
487.648672
21
221.507291
0
LINE
8
0
10
487.648672
20
221.507291
11
489.773833
21
234.458240
0
LINE
8
0
10
489.773833
20
234.458240
11
493.848061
21
247.458153
0
LINE
8
0
10
493.848061
20
247.458153
11
499.866234
21
260.131890
0
LINE
8
0
10
499.866234
20
260.131890
11
503.602701
21
266.229209
0
LINE
8
0
10
503.602701
20
266.229209
11
505.286244
21
268.561150
0
LINE
8
0
10
505.286244
20
268.561150
11
509.739624
21
273.787628
0
LINE
8
0
10
509.739624
20
273.787628
11
514.954896
21
279.069029
0
LINE
8
0
10
514.954896
20
279.069029
11
520.108260
21
283.571108
0
LINE
8
0
10
520.108260
20
283.571108
11
522.404289
21
285.269200
0
LINE
8
0
10
522.404289
20
285.269200
11
526.986973
21
288.083212
0
LINE
8
0
10
526.986973
20
288.083212
11
537.268330
21
292.744872
0
LINE
8
0
10
537.268330
20
292.744872
11
548.611722
21
295.995967
0
LINE
8
0
10
548.611722
20
295.995967
11
560.506006
21
297.689998
0
LINE
8
0
10
560.506006
20
297.689998
11
566.500000
21
297.907335
0
LINE
8
0
10
566.500000
20
297.907335
11
571.701255
21
297.741522
0
LINE
8
0
10
571.701255
20
297.741522
11
581.366750
21
296.440875
0
LINE
8
0
10
581.366750
20
296.440875
11
590.001363
21
293.885341
0
LINE
8
0
10
590.001363
20
293.885341
11
597.547262
21
290.119488
0
LINE
8
0
10
597.547262
20
290.119488
11
603.946613
21
285.187885
0
LINE
8
0
10
603.946613
20
285.187885
11
609.141583
21
279.135100
0
LINE
8
0
10
609.141583
20
279.135100
11
613.074340
21
272.005702
0
LINE
8
0
10
613.074340
20
272.005702
11
615.687051
21
263.844258
0
LINE
8
0
10
615.687051
20
263.844258
11
616.480317
21
259.390447
0
LINE
8
0
10
616.480317
20
259.390447
11
617.122546
21
254.640447
0
LINE
8
0
10
617.122546
20
254.640447
11
601.213147
21
254.640447
0
LINE
8
0
10
601.213147
20
254.640447
11
585.303749
21
254.640447
0
LINE
8
0
10
585.303749
20
254.640447
11
583.484137
21
258.675625
0
LINE
8
0
10
583.484137
20
258.675625
11
582.421294
21
260.670464
0
LINE
8
0
10
582.421294
20
260.670464
11
579.497404
21
264.453235
0
LINE
8
0
10
579.497404
20
264.453235
11
575.834269
21
267.674326
0
LINE
8
0
10
575.834269
20
267.674326
11
571.821920
21
269.990771
0
LINE
8
0
10
571.821920
20
269.990771
11
569.806675
21
270.702575
0
LINE
8
0
10
569.806675
20
270.702575
11
566.967609
21
271.267148
0
LINE
8
0
10
566.967609
20
271.267148
11
560.288380
21
271.580950
0
LINE
8
0
10
560.288380
20
271.580950
11
553.192162
21
270.896192
0
LINE
8
0
10
553.192162
20
270.896192
11
546.780323
21
269.319153
0
LINE
8
0
10
546.780323
20
269.319153
11
544.175224
21
268.229240
0
LINE
8
0
10
544.175224
20
268.229240
11
539.150347
21
265.187236
0
LINE
8
0
10
539.150347
20
265.187236
11
530.581935
21
256.968446
0
LINE
8
0
10
530.581935
20
256.968446
11
524.157080
21
246.185947
0
LINE
8
0
10
524.157080
20
246.185947
11
520.077898
21
233.178939
0
LINE
8
0
10
520.077898
20
233.178939
11
518.981096
21
225.947246
0
LINE
8
0
10
518.981096
20
225.947246
11
518.679299
21
222.146514
0
LINE
8
0
10
518.679299
20
222.146514
11
518.677004
21
215.120147
0
LINE
8
0
10
518.677004
20
215.120147
11
519.470921
21
208.871433
0
LINE
8
0
10
519.470921
20
208.871433
11
521.054427
21
203.413400
0
LINE
8
0
10
521.054427
20
203.413400
11
523.420896
21
198.759075
0
LINE
8
0
10
523.420896
20
198.759075
11
526.563705
21
194.921485
0
LINE
8
0
10
526.563705
20
194.921485
11
530.476231
21
191.913659
0
LINE
8
0
10
530.476231
20
191.913659
11
535.151850
21
189.748624
0
LINE
8
0
10
535.151850
20
189.748624
11
537.773749
21
188.986224
0
LINE
8
0
10
537.773749
20
188.986224
11
543.024960
21
188.247806
0
LINE
8
0
10
543.024960
20
188.247806
11
553.900264
21
189.570936
0
LINE
8
0
10
553.900264
20
189.570936
11
564.377935
21
194.229506
0
LINE
8
0
10
564.377935
20
194.229506
11
573.384200
21
201.746096
0
LINE
8
0
10
573.384200
20
201.746096
11
577.000000
21
206.426955
0
LINE
8
0
10
577.000000
20
206.426955
11
577.528879
21
207.167136
0
LINE
8
0
10
577.528879
20
207.167136
11
579.006257
21
208.117513
0
LINE
8
0
10
579.006257
20
208.117513
11
582.266924
21
208.507684
0
LINE
8
0
10
582.266924
20
208.507684
11
586.766132
21
208.538387
0
LINE
8
0
10
586.766132
20
208.538387
11
591.087754
21
208.475316
0
LINE
8
0
10
591.087754
20
208.475316
11
593.714048
21
208.426955
0
LINE
8
0
10
593.714048
20
208.426955
11
608.928095
21
208.140447
0
LINE
8
0
10
608.928095
20
208.140447
11
605.522758
21
201.140447
0
LINE
8
0
10
605.522758
20
201.140447
11
602.888255
21
196.341187
0
LINE
8
0
10
602.888255
20
196.341187
11
596.126809
21
187.170278
0
LINE
8
0
10
596.126809
20
187.170278
11
587.793542
21
178.980417
0
LINE
8
0
10
587.793542
20
178.980417
11
578.390171
21
172.264688
0
LINE
8
0
10
578.390171
20
172.264688
11
573.443983
21
169.613712
0
LINE
8
0
10
573.443983
20
169.613712
11
567.570936
21
167.161187
0
LINE
8
0
10
567.570936
20
167.161187
11
554.639615
21
163.623125
0
LINE
8
0
10
554.639615
20
163.623125
11
541.179450
21
162.032006
0
LINE
8
0
10
541.179450
20
162.032006
11
528.452193
21
162.536981
0
LINE
8
0
10
528.452193
20
162.536981
11
522.757703
21
163.622114
0
LINE
8
0
10
367.482116
20
163.890447
11
367.693469
21
164.850519
0
LINE
8
0
10
367.693469
20
164.850519
11
368.465134
21
168.526138
0
LINE
8
0
10
368.465134
20
168.526138
11
370.253460
21
177.236035
0
LINE
8
0
10
370.253460
20
177.236035
11
373.139070
21
191.477773
0
LINE
8
0
10
373.139070
20
191.477773
11
375.115514
21
201.348649
0
LINE
8
0
10
375.115514
20
201.348649
11
376.102170
21
206.351102
0
LINE
8
0
10
376.102170
20
206.351102
11
376.447893
21
208.140447
0
LINE
8
0
10
376.447893
20
208.140447
11
376.811021
21
210.005828
0
LINE
8
0
10
376.811021
20
210.005828
11
377.990039
21
215.903386
0
LINE
8
0
10
377.990039
20
215.903386
11
380.522245
21
228.351775
0
LINE
8
0
10
380.522245
20
228.351775
11
382.433101
21
237.640447
0
LINE
8
0
10
382.433101
20
237.640447
11
384.350840
21
246.968572
0
LINE
8
0
10
384.350840
20
246.968572
11
386.914711
21
259.598454
0
LINE
8
0
10
386.914711
20
259.598454
11
388.124892
21
265.674626
0
LINE
8
0
10
388.124892
20
265.674626
11
388.505543
21
267.640447
0
LINE
8
0
10
388.505543
20
267.640447
11
390.268618
21
276.674459
0
LINE
8
0
10
390.268618
20
276.674459
11
392.954620
21
289.728216
0
LINE
8
0
10
392.954620
20
289.728216
11
393.980713
21
294.418064
0
LINE
8
0
10
393.980713
20
294.418064
11
394.442250
21
296.358666
0
LINE
8
0
10
394.442250
20
296.358666
11
394.589054
21
296.890447
0
LINE
8
0
10
394.589054
20
296.890447
11
394.851530
21
297.416694
0
LINE
8
0
10
394.851530
20
297.416694
11
396.252254
21
298.134544
0
LINE
8
0
10
396.252254
20
298.134544
11
399.716680
21
298.500967
0
LINE
8
0
10
399.716680
20
298.500967
11
404.316108
21
298.613573
0
LINE
8
0
10
404.316108
20
298.613573
11
408.587304
21
298.638053
0
LINE
8
0
10
408.587304
20
298.638053
11
411.134775
21
298.640447
0
LINE
8
0
10
411.134775
20
298.640447
11
413.748425
21
298.638545
0
LINE
8
0
10
413.748425
20
298.638545
11
418.090193
21
298.617412
0
LINE
8
0
10
418.090193
20
298.617412
11
422.650749
21
298.512780
0
LINE
8
0
10
422.650749
20
298.512780
11
425.820427
21
298.154231
0
LINE
8
0
10
425.820427
20
298.154231
11
426.686840
21
297.429557
0
LINE
8
0
10
426.686840
20
297.429557
11
426.605298
21
296.890447
0
LINE
8
0
10
426.605298
20
296.890447
11
426.320993
21
295.737517
0
LINE
8
0
10
426.320993
20
295.737517
11
425.507328
21
291.608220
0
LINE
8
0
10
425.507328
20
291.608220
11
425.078186
21
289.140447
0
LINE
8
0
10
425.078186
20
289.140447
11
424.824905
21
287.690251
0
LINE
8
0
10
424.824905
20
287.690251
11
424.077383
21
283.735173
0
LINE
8
0
10
424.077383
20
283.735173
11
422.574471
21
276.273259
0
LINE
8
0
10
422.574471
20
276.273259
11
421.489819
21
271.140447
0
LINE
8
0
10
421.489819
20
271.140447
11
420.372037
21
265.928728
0
LINE
8
0
10
420.372037
20
265.928728
11
418.716719
21
258.103826
0
LINE
8
0
10
418.716719
20
258.103826
11
417.819210
21
253.791521
0
LINE
8
0
10
417.819210
20
253.791521
11
417.481587
21
252.140447
0
LINE
8
0
10
417.481587
20
252.140447
11
417.094143
21
250.234246
0
LINE
8
0
10
417.094143
20
250.234246
11
415.828108
21
244.034734
0
LINE
8
0
10
415.828108
20
244.034734
11
413.097961
21
230.705681
0
LINE
8
0
10
413.097961
20
230.705681
11
411.032403
21
220.640447
0
LINE
8
0
10
411.032403
20
220.640447
11
410.021637
21
215.693401
0
LINE
8
0
10
410.021637
20
215.693401
11
408.224133
21
206.752629
0
LINE
8
0
10
408.224133
20
206.752629
11
406.862926
21
199.787053
0
LINE
8
0
10
406.862926
20
199.787053
11
406.103131
21
195.641594
0
LINE
8
0
10
406.103131
20
195.641594
11
406.000361
21
194.890447
0
LINE
8
0
10
406.000361
20
194.890447
11
406.343629
21
194.557313
0
LINE
8
0
10
406.343629
20
194.557313
11
408.337473
21
194.169278
0
LINE
8
0
10
408.337473
20
194.169278
11
410.831204
21
193.977859
0
LINE
8
0
10
410.831204
20
193.977859
11
414.399366
21
193.834519
0
LINE
8
0
10
414.399366
20
193.834519
11
419.164388
21
193.734340
0
LINE
8
0
10
419.164388
20
193.734340
11
425.248697
21
193.672404
0
LINE
8
0
10
425.248697
20
193.672404
11
432.774719
21
193.643793
0
LINE
8
0
10
432.774719
20
193.643793
11
437.116631
21
193.640447
0
LINE
8
0
10
437.116631
20
193.640447
11
442.507669
21
193.639592
0
LINE
8
0
10
442.507669
20
193.639592
11
451.344918
21
193.624433
0
LINE
8
0
10
451.344918
20
193.624433
11
457.872804
21
193.572846
0
LINE
8
0
10
457.872804
20
193.572846
11
462.431812
21
193.462637
0
LINE
8
0
10
462.431812
20
193.462637
11
465.362427
21
193.271613
0
LINE
8
0
10
465.362427
20
193.271613
11
467.005136
21
192.977581
0
LINE
8
0
10
467.005136
20
192.977581
11
467.799186
21
192.294842
0
LINE
8
0
10
467.799186
20
192.294842
11
467.711753
21
191.646190
0
LINE
8
0
10
467.711753
20
191.646190
11
467.549947
21
190.959726
0
LINE
8
0
10
467.549947
20
190.959726
11
466.941680
21
188.132786
0
LINE
8
0
10
466.941680
20
188.132786
11
465.521676
21
181.241717
0
LINE
8
0
10
465.521676
20
181.241717
11
464.395303
21
175.646190
0
LINE
8
0
10
464.395303
20
175.646190
11
461.600363
21
161.640447
0
LINE
8
0
10
461.600363
20
161.640447
11
414.281129
21
161.640447
0
LINE
8
0
10
414.281129
20
161.640447
11
366.961896
21
161.640447
0
LINE
8
0
10
366.961896
20
161.640447
11
367.482116
21
163.890447
0
LINE
8
0
10
125.024244
20
163.243538
11
121.374312
21
164.384807
0
LINE
8
0
10
121.374312
20
164.384807
11
114.895983
21
167.395691
0
LINE
8
0
10
114.895983
20
167.395691
11
109.532011
21
171.342479
0
LINE
8
0
10
109.532011
20
171.342479
11
105.305170
21
176.182909
0
LINE
8
0
10
105.305170
20
176.182909
11
102.238233
21
181.874715
0
LINE
8
0
10
102.238233
20
181.874715
11
100.353974
21
188.375635
0
LINE
8
0
10
100.353974
20
188.375635
11
99.675166
21
195.643404
0
LINE
8
0
10
99.675166
20
195.643404
11
100.224581
21
203.635758
0
LINE
8
0
10
100.224581
20
203.635758
11
100.966989
21
207.890447
0
LINE
8
0
10
100.966989
20
207.890447
11
102.366917
21
214.640447
0
LINE
8
0
10
102.366917
20
214.640447
11
118.300036
21
214.640447
0
LINE
8
0
10
118.300036
20
214.640447
11
134.233154
21
214.640447
0
LINE
8
0
10
134.233154
20
214.640447
11
133.622736
21
211.890447
0
LINE
8
0
10
133.622736
20
211.890447
11
132.831960
21
207.841432
0
LINE
8
0
10
132.831960
20
207.841432
11
132.271722
21
201.253336
0
LINE
8
0
10
132.271722
20
201.253336
11
133.110722
21
196.464519
0
LINE
8
0
10
133.110722
20
196.464519
11
135.393943
21
193.218225
0
LINE
8
0
10
135.393943
20
193.218225
11
137.091194
21
192.093288
0
LINE
8
0
10
137.091194
20
192.093288
11
139.305923
21
191.250419
0
LINE
8
0
10
139.305923
20
191.250419
11
144.550271
21
190.734461
0
LINE
8
0
10
144.550271
20
190.734461
11
150.153542
21
191.658252
0
LINE
8
0
10
150.153542
20
191.658252
11
155.242619
21
193.877846
0
LINE
8
0
10
155.242619
20
193.877846
11
157.321487
21
195.428585
0
LINE
8
0
10
157.321487
20
195.428585
11
158.418664
21
196.617658
0
LINE
8
0
10
158.418664
20
196.617658
11
160.656798
21
200.091884
0
LINE
8
0
10
160.656798
20
200.091884
11
163.601402
21
206.921448
0
LINE
8
0
10
163.601402
20
206.921448
11
164.883374
21
211.680655
0
LINE
8
0
10
164.883374
20
211.680655
11
165.159244
21
213.073359
0
LINE
8
0
10
165.159244
20
213.073359
11
166.000872
21
217.212902
0
LINE
8
0
10
166.000872
20
217.212902
11
167.734351
21
225.579557
0
LINE
8
0
10
167.734351
20
225.579557
11
169.006719
21
231.640447
0
LINE
8
0
10
169.006719
20
231.640447
11
170.268429
21
237.665056
0
LINE
8
0
10
170.268429
20
237.665056
11
171.952877
21
245.864812
0
LINE
8
0
10
171.952877
20
245.864812
11
172.746252
21
249.840105
0
LINE
8
0
10
172.746252
20
249.840105
11
172.994989
21
251.140447
0
LINE
8
0
10
172.994989
20
251.140447
11
173.231617
21
252.379558
0
LINE
8
0
10
173.231617
20
252.379558
11
173.935424
21
255.901921
0
LINE
8
0
10
173.935424
20
255.901921
11
175.358643
21
262.780681
0
LINE
8
0
10
175.358643
20
262.780681
11
176.390003
21
267.640447
0
LINE
8
0
10
176.390003
20
267.640447
11
177.436570
21
272.539665
0
LINE
8
0
10
177.436570
20
272.539665
11
178.929743
21
279.599919
0
LINE
8
0
10
178.929743
20
279.599919
11
179.702395
21
283.300896
0
LINE
8
0
10
179.702395
20
283.300896
11
179.977737
21
284.640447
0
LINE
8
0
10
179.977737
20
284.640447
11
181.077399
21
289.920134
0
LINE
8
0
10
181.077399
20
289.920134
11
182.148581
21
294.890447
0
LINE
8
0
10
182.148581
20
294.890447
11
183.199482
21
299.640447
0
LINE
8
0
10
183.199482
20
299.640447
11
198.983565
21
299.640447
0
LINE
8
0
10
198.983565
20
299.640447
11
214.767649
21
299.640447
0
LINE
8
0
10
214.767649
20
299.640447
11
213.440195
21
292.890447
0
LINE
8
0
10
213.440195
20
292.890447
11
213.091277
21
291.136516
0
LINE
8
0
10
213.091277
20
291.136516
11
212.008581
21
285.781194
0
LINE
8
0
10
212.008581
20
285.781194
11
209.752022
21
274.744548
0
LINE
8
0
10
209.752022
20
274.744548
11
208.082353
21
266.640447
0
LINE
8
0
10
208.082353
20
266.640447
11
204.083216
21
247.287322
0
LINE
8
0
10
204.083216
20
247.287322
11
200.127962
21
228.140447
0
LINE
8
0
10
200.127962
20
228.140447
11
199.271846
21
224.014728
0
LINE
8
0
10
199.271846
20
224.014728
11
197.748845
21
216.813006
0
LINE
8
0
10
197.748845
20
216.813006
11
195.851123
21
208.296437
0
LINE
8
0
10
195.851123
20
208.296437
11
193.801177
21
200.261058
0
LINE
8
0
10
193.801177
20
200.261058
11
191.962673
21
194.696976
0
LINE
8
0
10
191.962673
20
194.696976
11
191.007645
21
192.390635
0
LINE
8
0
10
191.007645
20
192.390635
11
189.166001
21
188.762063
0
LINE
8
0
10
189.166001
20
188.762063
11
184.234533
21
181.675058
0
LINE
8
0
10
184.234533
20
181.675058
11
178.033470
21
175.225372
0
LINE
8
0
10
178.033470
20
175.225372
11
171.036386
21
169.905567
0
LINE
8
0
10
171.036386
20
169.905567
11
167.387328
21
167.823295
0
LINE
8
0
10
167.387328
20
167.823295
11
162.824519
21
165.858870
0
LINE
8
0
10
162.824519
20
165.858870
11
152.175855
21
163.026355
0
LINE
8
0
10
152.175855
20
163.026355
11
140.689961
21
161.784647
0
LINE
8
0
10
140.689961
20
161.784647
11
129.799034
21
162.288575
0
LINE
8
0
10
129.799034
20
162.288575
11
125.024244
21
163.243538
0
LINE
8
0
10
1792.845726
20
130.774036
11
1797.676018
21
131.844235
0
LINE
8
0
10
1797.676018
20
131.844235
11
1806.331105
21
135.138226
0
LINE
8
0
10
1806.331105
20
135.138226
11
1813.437491
21
139.832906
0
LINE
8
0
10
1813.437491
20
139.832906
11
1818.745527
21
145.763351
0
LINE
8
0
10
1818.745527
20
145.763351
11
1820.647151
21
149.140447
0
LINE
8
0
10
1820.647151
20
149.140447
11
1821.645306
21
151.504454
0
LINE
8
0
10
1821.645306
20
151.504454
11
1822.749302
21
155.832218
0
LINE
8
0
10
1822.749302
20
155.832218
11
1822.655813
21
159.968357
0
LINE
8
0
10
1822.655813
20
159.968357
11
1821.355561
21
164.323322
0
LINE
8
0
10
1821.355561
20
164.323322
11
1820.250000
21
166.711132
0
LINE
8
0
10
1820.250000
20
166.711132
11
1818.614497
21
169.628786
0
LINE
8
0
10
1818.614497
20
169.628786
11
1814.740536
21
173.393266
0
LINE
8
0
10
1814.740536
20
173.393266
11
1811.575540
21
175.140447
0
LINE
8
0
10
1811.575540
20
175.140447
11
1805.651080
21
178.140447
0
LINE
8
0
10
1805.651080
20
178.140447
11
1783.889241
21
178.459722
0
LINE
8
0
10
1783.889241
20
178.459722
11
1778.894600
21
178.514998
0
LINE
8
0
10
1778.894600
20
178.514998
11
1770.550119
21
178.495946
0
LINE
8
0
10
1770.550119
20
178.495946
11
1764.522084
21
178.307940
0
LINE
8
0
10
1764.522084
20
178.307940
11
1760.958546
21
177.955597
0
LINE
8
0
10
1760.958546
20
177.955597
11
1760.147230
21
177.719242
0
LINE
8
0
10
1760.147230
20
177.719242
11
1759.302073
21
177.082461
0
LINE
8
0
10
1759.302073
20
177.082461
11
1757.670260
21
174.355779
0
LINE
8
0
10
1757.670260
20
174.355779
11
1756.296645
21
170.436105
0
LINE
8
0
10
1756.296645
20
170.436105
11
1755.213903
21
166.643062
0
LINE
8
0
10
1755.213903
20
166.643062
11
1753.938023
21
161.727358
0
LINE
8
0
10
1753.938023
20
161.727358
11
1752.417972
21
155.535803
0
LINE
8
0
10
1752.417972
20
155.535803
11
1751.550435
21
151.913710
0
LINE
8
0
10
1751.550435
20
151.913710
11
1750.953895
21
149.399400
0
LINE
8
0
10
1750.953895
20
149.399400
11
1749.978758
21
145.198511
0
LINE
8
0
10
1749.978758
20
145.198511
11
1749.023921
21
140.648042
0
LINE
8
0
10
1749.023921
20
140.648042
11
1748.595260
21
136.957352
0
LINE
8
0
10
1748.595260
20
136.957352
11
1748.987025
21
134.737249
0
LINE
8
0
10
1748.987025
20
134.737249
11
1749.441250
21
133.754057
0
LINE
8
0
10
1749.441250
20
133.754057
11
1750.130438
21
132.574908
0
LINE
8
0
10
1750.130438
20
132.574908
11
1751.615764
21
130.739733
0
LINE
8
0
10
1751.615764
20
130.739733
11
1752.228960
21
130.309741
0
LINE
8
0
10
1752.228960
20
130.309741
11
1753.028239
21
130.136514
0
LINE
8
0
10
1753.028239
20
130.136514
11
1756.361942
21
129.882841
0
LINE
8
0
10
1756.361942
20
129.882841
11
1764.501009
21
129.720571
0
LINE
8
0
10
1764.501009
20
129.720571
11
1777.853472
21
129.873204
0
LINE
8
0
10
1777.853472
20
129.873204
11
1786.944612
21
130.232435
0
LINE
8
0
10
1786.944612
20
130.232435
11
1791.366397
21
130.574762
0
LINE
8
0
10
1791.366397
20
130.574762
11
1792.845726
21
130.774036
0
LINE
8
0
10
1805.422175
20
217.094205
11
1811.202618
21
218.510289
0
LINE
8
0
10
1811.202618
20
218.510289
11
1821.521117
21
222.868202
0
LINE
8
0
10
1821.521117
20
222.868202
11
1829.788131
21
228.968971
0
LINE
8
0
10
1829.788131
20
228.968971
11
1835.529698
21
236.462830
0
LINE
8
0
10
1835.529698
20
236.462830
11
1837.305327
21
240.622865
0
LINE
8
0
10
1837.305327
20
240.622865
11
1838.032162
21
243.064484
0
LINE
8
0
10
1838.032162
20
243.064484
11
1838.827319
21
247.245352
0
LINE
8
0
10
1838.827319
20
247.245352
11
1838.351293
21
252.640961
0
LINE
8
0
10
1838.351293
20
252.640961
11
1836.903951
21
256.338857
0
LINE
8
0
10
1836.903951
20
256.338857
11
1834.957878
21
259.458417
0
LINE
8
0
10
1834.957878
20
259.458417
11
1830.726187
21
263.176702
0
LINE
8
0
10
1830.726187
20
263.176702
11
1826.873597
21
265.062018
0
LINE
8
0
10
1826.873597
20
265.062018
11
1822.070709
21
266.510231
0
LINE
8
0
10
1822.070709
20
266.510231
11
1816.210272
21
267.553681
0
LINE
8
0
10
1816.210272
20
267.553681
11
1809.185033
21
268.224706
0
LINE
8
0
10
1809.185033
20
268.224706
11
1800.887743
21
268.555646
0
LINE
8
0
10
1800.887743
20
268.555646
11
1796.228561
21
268.603691
0
LINE
8
0
10
1796.228561
20
268.603691
11
1793.419728
21
268.608971
0
LINE
8
0
10
1793.419728
20
268.608971
11
1788.802290
21
268.601603
0
LINE
8
0
10
1788.802290
20
268.601603
11
1784.021255
21
268.500135
0
LINE
8
0
10
1784.021255
20
268.500135
11
1780.655504
21
268.068408
0
LINE
8
0
10
1780.655504
20
268.068408
11
1779.338364
21
267.119572
0
LINE
8
0
10
1779.338364
20
267.119572
11
1778.974088
21
266.390447
0
LINE
8
0
10
1778.974088
20
266.390447
11
1772.630583
21
242.731029
0
LINE
8
0
10
1772.630583
20
242.731029
11
1767.000000
21
219.546073
0
LINE
8
0
10
1767.000000
20
219.546073
11
1767.461607
21
218.545760
0
LINE
8
0
10
1767.461607
20
218.545760
11
1768.571429
21
217.211875
0
LINE
8
0
10
1768.571429
20
217.211875
11
1769.214292
21
216.839976
0
LINE
8
0
10
1769.214292
20
216.839976
11
1771.829134
21
216.239871
0
LINE
8
0
10
1771.829134
20
216.239871
11
1778.306888
21
215.701401
0
LINE
8
0
10
1778.306888
20
215.701401
11
1789.565706
21
215.665450
0
LINE
8
0
10
1789.565706
20
215.665450
11
1800.819888
21
216.418521
0
LINE
8
0
10
1800.819888
20
216.418521
11
1805.422175
21
217.094205
0
LINE
8
0
10
1372.028997
20
204.505752
11
1375.193006
21
205.470875
0
LINE
8
0
10
1375.193006
20
205.470875
11
1380.581712
21
207.540019
0
LINE
8
0
10
1380.581712
20
207.540019
11
1387.199193
21
211.472071
0
LINE
8
0
10
1387.199193
20
211.472071
11
1391.320347
21
215.019844
0
LINE
8
0
10
1391.320347
20
215.019844
11
1394.198209
21
218.187090
0
LINE
8
0
10
1394.198209
20
218.187090
11
1398.685669
21
225.561191
0
LINE
8
0
10
1398.685669
20
225.561191
11
1401.273261
21
233.667188
0
LINE
8
0
10
1401.273261
20
233.667188
11
1401.710364
21
241.719981
0
LINE
8
0
10
1401.710364
20
241.719981
11
1401.044165
21
245.481082
0
LINE
8
0
10
1401.044165
20
245.481082
11
1400.215623
21
247.789159
0
LINE
8
0
10
1400.215623
20
247.789159
11
1397.454447
21
252.296548
0
LINE
8
0
10
1397.454447
20
252.296548
11
1393.543749
21
256.326482
0
LINE
8
0
10
1393.543749
20
256.326482
11
1388.870649
21
259.480038
0
LINE
8
0
10
1388.870649
20
259.480038
11
1386.369174
21
260.603511
0
LINE
8
0
10
1386.369174
20
260.603511
11
1384.573040
21
261.222030
0
LINE
8
0
10
1384.573040
20
261.222030
11
1380.552137
21
262.060757
0
LINE
8
0
10
1380.552137
20
262.060757
11
1376.145781
21
262.409316
0
LINE
8
0
10
1376.145781
20
262.409316
11
1372.062352
21
262.540522
0
LINE
8
0
10
1372.062352
20
262.540522
11
1366.761310
21
262.610953
0
LINE
8
0
10
1366.761310
20
262.610953
11
1359.984719
21
262.637890
0
LINE
8
0
10
1359.984719
20
262.637890
11
1355.962487
21
262.640447
0
LINE
8
0
10
1355.962487
20
262.640447
11
1351.623436
21
262.639632
0
LINE
8
0
10
1351.623436
20
262.639632
11
1344.513192
21
262.624327
0
LINE
8
0
10
1344.513192
20
262.624327
11
1339.259425
21
262.571258
0
LINE
8
0
10
1339.259425
20
262.571258
11
1335.581336
21
262.456990
0
LINE
8
0
10
1335.581336
20
262.456990
11
1332.404349
21
262.119571
0
LINE
8
0
10
1332.404349
20
262.119571
11
1331.062439
21
261.236746
0
LINE
8
0
10
1331.062439
20
261.236746
11
1331.000000
21
260.557060
0
LINE
8
0
10
1331.000000
20
260.557060
11
1330.852388
21
259.143176
0
LINE
8
0
10
1330.852388
20
259.143176
11
1329.855640
21
253.948254
0
LINE
8
0
10
1329.855640
20
253.948254
11
1329.129270
21
250.807060
0
LINE
8
0
10
1329.129270
20
250.807060
11
1328.230669
21
247.001742
0
LINE
8
0
10
1328.230669
20
247.001742
11
1326.070926
21
237.322343
0
LINE
8
0
10
1326.070926
20
237.322343
11
1325.075794
21
232.640447
0
LINE
8
0
10
1325.075794
20
232.640447
11
1322.962437
21
222.812015
0
LINE
8
0
10
1322.962437
20
222.812015
11
1320.946523
21
213.926635
0
LINE
8
0
10
1320.946523
20
213.926635
11
1320.190725
21
210.616151
0
LINE
8
0
10
1320.190725
20
210.616151
11
1319.333608
21
206.441728
0
LINE
8
0
10
1319.333608
20
206.441728
11
1319.039729
21
204.652868
0
LINE
8
0
10
1319.039729
20
204.652868
11
1319.000000
21
204.176635
0
LINE
8
0
10
1319.000000
20
204.176635
11
1319.168746
21
203.726606
0
LINE
8
0
10
1319.168746
20
203.726606
11
1321.019076
21
203.102788
0
LINE
8
0
10
1321.019076
20
203.102788
11
1324.387280
21
202.833250
0
LINE
8
0
10
1324.387280
20
202.833250
11
1327.888550
21
202.727338
0
LINE
8
0
10
1327.888550
20
202.727338
11
1332.589045
21
202.667596
0
LINE
8
0
10
1332.589045
20
202.667596
11
1338.655553
21
202.643004
0
LINE
8
0
10
1338.655553
20
202.643004
11
1342.253182
21
202.640447
0
LINE
8
0
10
1342.253182
20
202.640447
11
1345.772616
21
202.644037
0
LINE
8
0
10
1345.772616
20
202.644037
11
1351.841338
21
202.677198
0
LINE
8
0
10
1351.841338
20
202.677198
11
1358.873016
21
202.814059
0
LINE
8
0
10
1358.873016
20
202.814059
11
1365.373066
21
203.221254
0
LINE
8
0
10
1365.373066
20
203.221254
11
1369.971198
21
203.971991
0
LINE
8
0
10
1369.971198
20
203.971991
11
1372.028997
21
204.505752
0
LINE
8
0
10
287.500000
20
213.519286
11
289.680386
21
214.631865
0
LINE
8
0
10
289.680386
20
214.631865
11
293.297535
21
217.371569
0
LINE
8
0
10
293.297535
20
217.371569
11
296.399779
21
221.419163
0
LINE
8
0
10
296.399779
20
221.419163
11
299.559030
21
227.520839
0
LINE
8
0
10
299.559030
20
227.520839
11
301.338756
21
231.575143
0
LINE
8
0
10
301.338756
20
231.575143
11
303.022177
21
235.582129
0
LINE
8
0
10
303.022177
20
235.582129
11
305.153280
21
241.114459
0
LINE
8
0
10
305.153280
20
241.114459
11
305.825925
21
244.208073
0
LINE
8
0
10
305.825925
20
244.208073
11
305.267145
21
245.907136
0
LINE
8
0
10
305.267145
20
245.907136
11
304.596918
21
246.560012
0
LINE
8
0
10
304.596918
20
246.560012
11
302.697337
21
247.746095
0
LINE
8
0
10
302.697337
20
247.746095
11
297.930972
21
248.804806
0
LINE
8
0
10
297.930972
20
248.804806
11
292.407827
21
248.173177
0
LINE
8
0
10
292.407827
20
248.173177
11
286.767291
21
245.924329
0
LINE
8
0
10
286.767291
20
245.924329
11
284.102810
21
244.216297
0
LINE
8
0
10
284.102810
20
244.216297
11
280.927994
21
241.479212
0
LINE
8
0
10
280.927994
20
241.479212
11
275.500158
21
234.631982
0
LINE
8
0
10
275.500158
20
234.631982
11
271.828991
21
227.044454
0
LINE
8
0
10
271.828991
20
227.044454
11
270.547619
21
220.025171
0
LINE
8
0
10
270.547619
20
220.025171
11
271.000960
21
217.137539
0
LINE
8
0
10
271.000960
20
217.137539
11
271.579283
21
215.708559
0
LINE
8
0
10
271.579283
20
215.708559
11
273.083970
21
213.332765
0
LINE
8
0
10
273.083970
20
213.332765
11
273.825006
21
212.678570
0
LINE
8
0
10
273.825006
20
212.678570
11
275.002130
21
212.185194
0
LINE
8
0
10
275.002130
20
212.185194
11
278.182269
21
211.734140
0
LINE
8
0
10
278.182269
20
211.734140
11
283.908175
21
212.328621
0
LINE
8
0
10
283.908175
20
212.328621
11
287.500000
21
213.519286
0
ENDSEC
0
EOF
