999
DXF File generated by ImageToStl.com - Free Image and 3D model conversion tools
0
SECTION
2
HEADER
9
$ACADVER
1
AC1009
9
$EXTMIN
10
0
20
0
9
$EXTMAX
10
2001.000000
20
270.655484
0
ENDSEC
0
SECTION
2
ENTITIES
0
LINE
8
0
10
965.535728
20
3.768229
11
961.008702
21
4.558257
0
LINE
8
0
10
961.008702
20
4.558257
11
952.934030
21
6.802561
0
LINE
8
0
10
952.934030
20
6.802561
11
945.999116
21
10.009325
0
LINE
8
0
10
945.999116
20
10.009325
11
940.004670
21
14.270702
0
LINE
8
0
10
940.004670
20
14.270702
11
937.297843
21
16.825669
0
LINE
8
0
10
937.297843
20
16.825669
11
935.147281
21
19.220319
0
LINE
8
0
10
935.147281
20
19.220319
11
931.827552
21
24.175500
0
LINE
8
0
10
931.827552
20
24.175500
11
929.665807
21
29.739315
0
LINE
8
0
10
929.665807
20
29.739315
11
928.481396
21
36.376717
0
LINE
8
0
10
928.481396
20
36.376717
11
928.199237
21
40.243310
0
LINE
8
0
10
928.199237
20
40.243310
11
928.155154
21
44.454242
0
LINE
8
0
10
928.155154
20
44.454242
11
928.944223
21
52.919757
0
LINE
8
0
10
928.944223
20
52.919757
11
930.833993
21
61.304877
0
LINE
8
0
10
930.833993
20
61.304877
11
933.741729
21
69.443282
0
LINE
8
0
10
933.741729
20
69.443282
11
937.584697
21
77.168654
0
LINE
8
0
10
937.584697
20
77.168654
11
942.280161
21
84.314673
0
LINE
8
0
10
942.280161
20
84.314673
11
947.745387
21
90.715021
0
LINE
8
0
10
947.745387
20
90.715021
11
953.897641
21
96.203380
0
LINE
8
0
10
953.897641
20
96.203380
11
957.205548
21
98.553589
0
LINE
8
0
10
957.205548
20
98.553589
11
959.689236
21
100.056283
0
LINE
8
0
10
959.689236
20
100.056283
11
965.580218
21
102.947715
0
LINE
8
0
10
965.580218
20
102.947715
11
972.683496
21
105.682333
0
LINE
8
0
10
972.683496
20
105.682333
11
980.976052
21
108.254287
0
LINE
8
0
10
980.976052
20
108.254287
11
990.434873
21
110.657729
0
LINE
8
0
10
990.434873
20
110.657729
11
1001.036941
21
112.886812
0
LINE
8
0
10
1001.036941
20
112.886812
11
1012.759240
21
114.935687
0
LINE
8
0
10
1012.759240
20
114.935687
11
1025.578756
21
116.798506
0
LINE
8
0
10
1025.578756
20
116.798506
11
1032.392777
21
117.658316
0
LINE
8
0
10
1032.392777
20
117.658316
11
1037.306470
21
118.271742
0
LINE
8
0
10
1037.306470
20
118.271742
11
1045.992743
21
119.507231
0
LINE
8
0
10
1045.992743
20
119.507231
11
1053.290555
21
120.795225
0
LINE
8
0
10
1053.290555
20
120.795225
11
1059.359532
21
122.184910
0
LINE
8
0
10
1059.359532
20
122.184910
11
1066.508119
21
124.567700
0
LINE
8
0
10
1066.508119
20
124.567700
11
1073.228505
21
128.559733
0
LINE
8
0
10
1073.228505
20
128.559733
11
1075.743119
21
131.015693
0
LINE
8
0
10
1075.743119
20
131.015693
11
1077.455913
21
133.357186
0
LINE
8
0
10
1077.455913
20
133.357186
11
1079.420008
21
138.437813
0
LINE
8
0
10
1079.420008
20
138.437813
11
1079.433716
21
143.419579
0
LINE
8
0
10
1079.433716
20
143.419579
11
1077.494959
21
147.547630
0
LINE
8
0
10
1077.494959
20
147.547630
11
1075.792757
21
149.055619
0
LINE
8
0
10
1075.792757
20
149.055619
11
1074.140401
21
149.843312
0
LINE
8
0
10
1074.140401
20
149.843312
11
1068.901647
21
151.202327
0
LINE
8
0
10
1068.901647
20
151.202327
11
1062.311420
21
152.104790
0
LINE
8
0
10
1062.311420
20
152.104790
11
1055.842422
21
152.349029
0
LINE
8
0
10
1055.842422
20
152.349029
11
1053.113602
21
152.161292
0
LINE
8
0
10
1053.113602
20
152.161292
11
1049.221585
21
151.461979
0
LINE
8
0
10
1049.221585
20
151.461979
11
1042.028571
21
148.890114
0
LINE
8
0
10
1042.028571
20
148.890114
11
1035.952147
21
144.966108
0
LINE
8
0
10
1035.952147
20
144.966108
11
1031.386583
21
139.944573
0
LINE
8
0
10
1031.386583
20
139.944573
11
1029.793585
21
137.101797
0
LINE
8
0
10
1029.793585
20
137.101797
11
1028.678970
21
134.655484
0
LINE
8
0
10
1028.678970
20
134.655484
11
995.231077
21
134.655484
0
LINE
8
0
10
995.231077
20
134.655484
11
961.783184
21
134.655484
0
LINE
8
0
10
961.783184
20
134.655484
11
962.417492
21
137.405484
0
LINE
8
0
10
962.417492
20
137.405484
11
962.629445
21
138.131387
0
LINE
8
0
10
962.629445
20
138.131387
11
963.481350
21
140.397061
0
LINE
8
0
10
963.481350
20
140.397061
11
965.535359
21
145.138101
0
LINE
8
0
10
965.535359
20
145.138101
11
967.193589
21
148.655484
0
LINE
8
0
10
967.193589
20
148.655484
11
969.644921
21
153.286614
0
LINE
8
0
10
969.644921
20
153.286614
11
973.885529
21
159.265663
0
LINE
8
0
10
973.885529
20
159.265663
11
977.895812
21
163.679714
0
LINE
8
0
10
977.895812
20
163.679714
11
980.463551
21
166.291090
0
LINE
8
0
10
980.463551
20
166.291090
11
983.274436
21
169.067552
0
LINE
8
0
10
983.274436
20
169.067552
11
987.863735
21
173.224699
0
LINE
8
0
10
987.863735
20
173.224699
11
992.180926
21
176.310210
0
LINE
8
0
10
992.180926
20
176.310210
11
997.551427
21
179.271366
0
LINE
8
0
10
997.551427
20
179.271366
11
1001.045862
21
181.001336
0
LINE
8
0
10
1001.045862
20
181.001336
11
1006.082611
21
183.326568
0
LINE
8
0
10
1006.082611
20
183.326568
11
1013.837263
21
186.520534
0
LINE
8
0
10
1013.837263
20
186.520534
11
1018.234565
21
188.089714
0
LINE
8
0
10
1018.234565
20
188.089714
11
1019.968638
21
188.612609
0
LINE
8
0
10
1019.968638
20
188.612609
11
1024.807475
21
189.784762
0
LINE
8
0
10
1024.807475
20
189.784762
11
1036.118152
21
191.722029
0
LINE
8
0
10
1036.118152
20
191.722029
11
1049.188924
21
193.073437
0
LINE
8
0
10
1049.188924
20
193.073437
11
1063.519101
21
193.787218
0
LINE
8
0
10
1063.519101
20
193.787218
11
1071.000000
21
193.888822
0
LINE
8
0
10
1071.000000
20
193.888822
11
1078.991353
21
193.806184
0
LINE
8
0
10
1078.991353
20
193.806184
11
1093.607980
21
193.051515
0
LINE
8
0
10
1093.607980
20
193.051515
11
1106.448180
21
191.495683
0
LINE
8
0
10
1106.448180
20
191.495683
11
1117.565970
21
189.120320
0
LINE
8
0
10
1117.565970
20
189.120320
11
1127.015368
21
185.907058
0
LINE
8
0
10
1127.015368
20
185.907058
11
1134.850389
21
181.837529
0
LINE
8
0
10
1134.850389
20
181.837529
11
1141.125051
21
176.893363
0
LINE
8
0
10
1141.125051
20
176.893363
11
1145.893370
21
171.056192
0
LINE
8
0
10
1145.893370
20
171.056192
11
1147.729532
21
167.796990
0
LINE
8
0
10
1147.729532
20
167.796990
11
1149.216564
21
164.471515
0
LINE
8
0
10
1149.216564
20
164.471515
11
1150.246239
21
159.736118
0
LINE
8
0
10
1150.246239
20
159.736118
11
1150.390045
21
155.217154
0
LINE
8
0
10
1150.390045
20
155.217154
11
1150.365482
21
152.155484
0
LINE
8
0
10
1150.365482
20
152.155484
11
1150.295287
21
148.375792
0
LINE
8
0
10
1150.295287
20
148.375792
11
1149.759238
21
142.761080
0
LINE
8
0
10
1149.759238
20
142.761080
11
1148.759612
21
137.560923
0
LINE
8
0
10
1148.759612
20
137.560923
11
1146.962108
21
130.000301
0
LINE
8
0
10
1146.962108
20
130.000301
11
1144.943899
21
122.164682
0
LINE
8
0
10
1144.943899
20
122.164682
11
1143.222271
21
115.669875
0
LINE
8
0
10
1143.222271
20
115.669875
11
1141.164211
21
108.008861
0
LINE
8
0
10
1141.164211
20
108.008861
11
1138.739282
21
99.053621
0
LINE
8
0
10
1138.739282
20
99.053621
11
1135.917049
21
88.676134
0
LINE
8
0
10
1135.917049
20
88.676134
11
1132.667075
21
76.748382
0
LINE
8
0
10
1132.667075
20
76.748382
11
1130.872173
21
70.163150
0
LINE
8
0
10
1130.872173
20
70.163150
11
1128.645632
21
61.976532
0
LINE
8
0
10
1128.645632
20
61.976532
11
1124.999522
21
48.385827
0
LINE
8
0
10
1124.999522
20
48.385827
11
1122.354915
21
38.067069
0
LINE
8
0
10
1122.354915
20
38.067069
11
1120.622457
21
30.494546
0
LINE
8
0
10
1120.622457
20
30.494546
11
1119.712795
21
25.142545
0
LINE
8
0
10
1119.712795
20
25.142545
11
1119.536574
21
21.485355
0
LINE
8
0
10
1119.536574
20
21.485355
11
1120.451984
21
18.027345
0
LINE
8
0
10
1120.451984
20
18.027345
11
1121.718446
21
16.307191
0
LINE
8
0
10
1121.718446
20
16.307191
11
1122.939206
21
14.126610
0
LINE
8
0
10
1122.939206
20
14.126610
11
1123.230867
21
11.905484
0
LINE
8
0
10
1123.230867
20
11.905484
11
1122.860898
21
9.655484
0
LINE
8
0
10
1122.860898
20
9.655484
11
1086.850855
21
9.655484
0
LINE
8
0
10
1086.850855
20
9.655484
11
1050.840812
21
9.655484
0
LINE
8
0
10
1050.840812
20
9.655484
11
1051.471556
21
16.405484
0
LINE
8
0
10
1051.471556
20
16.405484
11
1051.753383
21
19.203921
0
LINE
8
0
10
1051.753383
20
19.203921
11
1052.338755
21
23.999234
0
LINE
8
0
10
1052.338755
20
23.999234
11
1052.570202
21
25.405484
0
LINE
8
0
10
1052.570202
20
25.405484
11
1052.713384
21
26.279117
0
LINE
8
0
10
1052.713384
20
26.279117
11
1052.702745
21
27.477945
0
LINE
8
0
10
1052.702745
20
27.477945
11
1052.550235
21
27.655484
0
LINE
8
0
10
1052.550235
20
27.655484
11
1052.313827
21
27.566223
0
LINE
8
0
10
1052.313827
20
27.566223
11
1051.115747
21
26.905950
0
LINE
8
0
10
1051.115747
20
26.905950
11
1047.952684
21
24.980223
0
LINE
8
0
10
1047.952684
20
24.980223
11
1045.281182
21
23.282134
0
LINE
8
0
10
1045.281182
20
23.282134
11
1035.671568
21
17.617257
0
LINE
8
0
10
1035.671568
20
17.617257
11
1015.781842
21
8.963473
0
LINE
8
0
10
1015.781842
20
8.963473
11
995.482326
21
3.996132
0
LINE
8
0
10
995.482326
20
3.996132
11
980.338297
21
2.775388
0
LINE
8
0
10
980.338297
20
2.775388
11
970.416846
21
3.187625
0
LINE
8
0
10
970.416846
20
3.187625
11
965.535728
21
3.768229
0
LINE
8
0
10
256.500000
20
3.759008
11
251.640213
21
4.632773
0
LINE
8
0
10
251.640213
20
4.632773
11
242.864666
21
7.288155
0
LINE
8
0
10
242.864666
20
7.288155
11
235.391338
21
11.099291
0
LINE
8
0
10
235.391338
20
11.099291
11
229.272441
21
16.000520
0
LINE
8
0
10
229.272441
20
16.000520
11
224.560192
21
21.926181
0
LINE
8
0
10
224.560192
20
21.926181
11
221.306804
21
28.810614
0
LINE
8
0
10
221.306804
20
28.810614
11
219.564493
21
36.588160
0
LINE
8
0
10
219.564493
20
36.588160
11
219.385474
21
45.193158
0
LINE
8
0
10
219.385474
20
45.193158
11
219.898516
21
49.785432
0
LINE
8
0
10
219.898516
20
49.785432
11
221.052871
21
55.935162
0
LINE
8
0
10
221.052871
20
55.935162
11
224.507104
21
67.464066
0
LINE
8
0
10
224.507104
20
67.464066
11
229.442287
21
77.867717
0
LINE
8
0
10
229.442287
20
77.867717
11
235.802720
21
87.028698
0
LINE
8
0
10
235.802720
20
87.028698
11
239.500000
21
91.106495
0
LINE
8
0
10
239.500000
20
91.106495
11
242.210319
21
93.648674
0
LINE
8
0
10
242.210319
20
93.648674
11
248.396925
21
98.288376
0
LINE
8
0
10
248.396925
20
98.288376
11
255.777848
21
102.388720
0
LINE
8
0
10
255.777848
20
102.388720
11
264.560723
21
106.013926
0
LINE
8
0
10
264.560723
20
106.013926
11
274.953184
21
109.228212
0
LINE
8
0
10
274.953184
20
109.228212
11
287.162864
21
112.095798
0
LINE
8
0
10
287.162864
20
112.095798
11
301.397399
21
114.680902
0
LINE
8
0
10
301.397399
20
114.680902
11
317.864421
21
117.047744
0
LINE
8
0
10
317.864421
20
117.047744
11
327.000000
21
118.169385
0
LINE
8
0
10
327.000000
20
118.169385
11
330.808203
21
118.631617
0
LINE
8
0
10
330.808203
20
118.631617
11
337.627172
21
119.571151
0
LINE
8
0
10
337.627172
20
119.571151
11
346.085524
21
121.079695
0
LINE
8
0
10
346.085524
20
121.079695
11
354.684892
21
123.448731
0
LINE
8
0
10
354.684892
20
123.448731
11
361.097267
21
126.467302
0
LINE
8
0
10
361.097267
20
126.467302
11
363.781312
21
128.302253
0
LINE
8
0
10
363.781312
20
128.302253
11
366.084004
21
130.317943
0
LINE
8
0
10
366.084004
20
130.317943
11
369.409404
21
134.804089
0
LINE
8
0
10
369.409404
20
134.804089
11
370.911618
21
139.529964
0
LINE
8
0
10
370.911618
20
139.529964
11
370.450798
21
144.055617
0
LINE
8
0
10
370.450798
20
144.055617
11
369.440548
21
146.105875
0
LINE
8
0
10
369.440548
20
146.105875
11
368.420632
21
147.314481
0
LINE
8
0
10
368.420632
20
147.314481
11
365.365066
21
149.359774
0
LINE
8
0
10
365.365066
20
149.359774
11
358.814887
21
151.453074
0
LINE
8
0
10
358.814887
20
151.453074
11
348.012899
21
152.299244
0
LINE
8
0
10
348.012899
20
152.299244
11
337.086124
21
150.747274
0
LINE
8
0
10
337.086124
20
150.747274
11
332.339275
21
149.012191
0
LINE
8
0
10
332.339275
20
149.012191
11
328.949817
21
146.911937
0
LINE
8
0
10
328.949817
20
146.911937
11
322.832309
21
140.769375
0
LINE
8
0
10
322.832309
20
140.769375
11
320.979429
21
137.605821
0
LINE
8
0
10
320.979429
20
137.605821
11
319.757359
21
134.655484
0
LINE
8
0
10
319.757359
20
134.655484
11
285.887272
21
134.655484
0
LINE
8
0
10
285.887272
20
134.655484
11
252.017186
21
134.655484
0
LINE
8
0
10
252.017186
20
134.655484
11
254.508721
21
141.274885
0
LINE
8
0
10
254.508721
20
141.274885
11
256.242589
21
145.483278
0
LINE
8
0
10
256.242589
20
145.483278
11
260.421066
21
153.409706
0
LINE
8
0
10
260.421066
20
153.409706
11
265.535168
21
160.672098
0
LINE
8
0
10
265.535168
20
160.672098
11
271.570456
21
167.258190
0
LINE
8
0
10
271.570456
20
167.258190
11
278.512492
21
173.155716
0
LINE
8
0
10
278.512492
20
173.155716
11
286.346840
21
178.352412
0
LINE
8
0
10
286.346840
20
178.352412
11
295.059061
21
182.836010
0
LINE
8
0
10
295.059061
20
182.836010
11
304.634717
21
186.594247
0
LINE
8
0
10
304.634717
20
186.594247
11
309.741822
21
188.197522
0
LINE
8
0
10
309.741822
20
188.197522
11
314.951962
21
189.536296
0
LINE
8
0
10
314.951962
20
189.536296
11
326.837767
21
191.679170
0
LINE
8
0
10
326.837767
20
191.679170
11
347.172882
21
193.556525
0
LINE
8
0
10
347.172882
20
193.556525
11
368.663834
21
193.829095
0
LINE
8
0
10
368.663834
20
193.829095
11
382.604462
21
193.119020
0
LINE
8
0
10
382.604462
20
193.119020
11
395.515585
21
191.695344
0
LINE
8
0
10
395.515585
20
191.695344
11
406.779922
21
189.557922
0
LINE
8
0
10
406.779922
20
189.557922
11
411.601644
21
188.221511
0
LINE
8
0
10
411.601644
20
188.221511
11
416.678362
21
186.377889
0
LINE
8
0
10
416.678362
20
186.377889
11
425.667665
21
181.672862
0
LINE
8
0
10
425.667665
20
181.672862
11
432.865331
21
175.805979
0
LINE
8
0
10
432.865331
20
175.805979
11
437.984005
21
169.011464
0
LINE
8
0
10
437.984005
20
169.011464
11
439.673922
21
165.339541
0
LINE
8
0
10
439.673922
20
165.339541
11
440.213942
21
163.206829
0
LINE
8
0
10
440.213942
20
163.206829
11
440.814877
21
156.838641
0
LINE
8
0
10
440.814877
20
156.838641
11
440.782503
21
148.998027
0
LINE
8
0
10
440.782503
20
148.998027
11
440.123416
21
141.282497
0
LINE
8
0
10
440.123416
20
141.282497
11
439.560917
21
137.970860
0
LINE
8
0
10
439.560917
20
137.970860
11
439.136699
21
136.101746
0
LINE
8
0
10
439.136699
20
136.101746
11
437.622996
21
129.968187
0
LINE
8
0
10
437.622996
20
129.968187
11
434.185164
21
116.706150
0
LINE
8
0
10
434.185164
20
116.706150
11
431.500780
21
106.655484
0
LINE
8
0
10
431.500780
20
106.655484
11
428.994783
21
97.356854
0
LINE
8
0
10
428.994783
20
97.356854
11
424.469568
21
80.406819
0
LINE
8
0
10
424.469568
20
80.406819
11
420.592454
21
65.649308
0
LINE
8
0
10
420.592454
20
65.649308
11
417.362312
21
53.079790
0
LINE
8
0
10
417.362312
20
53.079790
11
414.778016
21
42.693735
0
LINE
8
0
10
414.778016
20
42.693735
11
412.838437
21
34.486611
0
LINE
8
0
10
412.838437
20
34.486611
11
411.542449
21
28.453889
0
LINE
8
0
10
411.542449
20
28.453889
11
410.888925
21
24.591037
0
LINE
8
0
10
410.888925
20
24.591037
11
410.802734
21
23.471897
0
LINE
8
0
10
410.802734
20
23.471897
11
410.914170
21
21.276844
0
LINE
8
0
10
410.914170
20
21.276844
11
411.872864
21
17.486732
0
LINE
8
0
10
411.872864
20
17.486732
11
412.699829
21
15.971897
0
LINE
8
0
10
412.699829
20
15.971897
11
413.418787
21
14.740251
0
LINE
8
0
10
413.418787
20
14.740251
11
414.240416
21
12.307209
0
LINE
8
0
10
414.240416
20
12.307209
11
414.241890
21
11.405484
0
LINE
8
0
10
414.241890
20
11.405484
11
413.949167
21
10.863282
0
LINE
8
0
10
413.949167
20
10.863282
11
412.401175
21
10.278838
0
LINE
8
0
10
412.401175
20
10.278838
11
410.145463
21
10.018200
0
LINE
8
0
10
410.145463
20
10.018200
11
406.523222
21
9.841894
0
LINE
8
0
10
406.523222
20
9.841894
11
401.202263
21
9.733748
0
LINE
8
0
10
401.202263
20
9.733748
11
393.850394
21
9.677596
0
LINE
8
0
10
393.850394
20
9.677596
11
384.135426
21
9.657267
0
LINE
8
0
10
384.135426
20
9.657267
11
378.287970
21
9.655484
0
LINE
8
0
10
378.287970
20
9.655484
11
342.722589
21
9.655484
0
LINE
8
0
10
342.722589
20
9.655484
11
343.235746
21
18.655484
0
LINE
8
0
10
343.235746
20
18.655484
11
343.393604
21
22.150015
0
LINE
8
0
10
343.393604
20
22.150015
11
343.429154
21
26.113003
0
LINE
8
0
10
343.429154
20
26.113003
11
343.319242
21
27.471792
0
LINE
8
0
10
343.319242
20
27.471792
11
343.224343
21
27.655484
0
LINE
8
0
10
343.224343
20
27.655484
11
342.955284
21
27.550484
0
LINE
8
0
10
342.955284
20
27.550484
11
341.557093
21
26.773785
0
LINE
8
0
10
341.557093
20
26.773785
11
337.835302
21
24.508498
0
LINE
8
0
10
337.835302
20
24.508498
11
334.679967
21
22.510986
0
LINE
8
0
10
334.679967
20
22.510986
11
325.321977
21
17.028135
0
LINE
8
0
10
325.321977
20
17.028135
11
305.936456
21
8.677503
0
LINE
8
0
10
305.936456
20
8.677503
11
286.077214
21
3.914133
0
LINE
8
0
10
286.077214
20
3.914133
11
266.247051
21
2.858625
0
LINE
8
0
10
266.247051
20
2.858625
11
256.500000
21
3.759008
0
LINE
8
0
10
739.000000
20
6.171570
11
732.408734
21
8.441561
0
LINE
8
0
10
732.408734
20
8.441561
11
723.331538
21
13.214675
0
LINE
8
0
10
723.331538
20
13.214675
11
718.253142
21
17.063571
0
LINE
8
0
10
718.253142
20
17.063571
11
716.117276
21
19.124997
0
LINE
8
0
10
716.117276
20
19.124997
11
713.051750
21
22.644666
0
LINE
8
0
10
713.051750
20
22.644666
11
708.529163
21
29.822100
0
LINE
8
0
10
708.529163
20
29.822100
11
705.967116
21
37.753528
0
LINE
8
0
10
705.967116
20
37.753528
11
705.144713
21
47.122789
0
LINE
8
0
10
705.144713
20
47.122789
11
705.316848
21
52.560307
0
LINE
8
0
10
705.316848
20
52.560307
11
705.680524
21
57.051442
0
LINE
8
0
10
705.680524
20
57.051442
11
706.769551
21
64.539751
0
LINE
8
0
10
706.769551
20
64.539751
11
708.073420
21
70.954677
0
LINE
8
0
10
708.073420
20
70.954677
11
710.011980
21
79.245102
0
LINE
8
0
10
710.011980
20
79.245102
11
712.733008
21
90.043014
0
LINE
8
0
10
712.733008
20
90.043014
11
716.384285
21
103.980404
0
LINE
8
0
10
716.384285
20
103.980404
11
719.822115
21
116.873908
0
LINE
8
0
10
719.822115
20
116.873908
11
722.481673
21
126.779826
0
LINE
8
0
10
722.481673
20
126.779826
11
723.928680
21
132.155484
0
LINE
8
0
10
723.928680
20
132.155484
11
726.548493
21
141.884414
0
LINE
8
0
10
726.548493
20
141.884414
11
731.334615
21
159.672940
0
LINE
8
0
10
731.334615
20
159.672940
11
734.300667
21
170.709832
0
LINE
8
0
10
734.300667
20
170.709832
11
735.873148
21
176.568554
0
LINE
8
0
10
735.873148
20
176.568554
11
737.054541
21
180.977887
0
LINE
8
0
10
737.054541
20
180.977887
11
737.787267
21
183.723523
0
LINE
8
0
10
737.787267
20
183.723523
11
737.967385
21
184.405484
0
LINE
8
0
10
737.967385
20
184.405484
11
739.077088
21
188.655484
0
LINE
8
0
10
739.077088
20
188.655484
11
774.038544
21
188.655484
0
LINE
8
0
10
774.038544
20
188.655484
11
778.595065
21
188.651775
0
LINE
8
0
10
778.595065
20
188.651775
11
786.647594
21
188.621276
0
LINE
8
0
10
786.647594
20
188.621276
11
793.343511
21
188.558149
0
LINE
8
0
10
793.343511
20
188.558149
11
798.751703
21
188.460174
0
LINE
8
0
10
798.751703
20
188.460174
11
802.941057
21
188.325131
0
LINE
8
0
10
802.941057
20
188.325131
11
805.980460
21
188.150798
0
LINE
8
0
10
805.980460
20
188.150798
11
808.534095
21
187.810775
0
LINE
8
0
10
808.534095
20
187.810775
11
809.000000
21
187.528505
0
LINE
8
0
10
809.000000
20
187.528505
11
808.932823
21
187.164040
0
LINE
8
0
10
808.932823
20
187.164040
11
808.415322
21
185.021394
0
LINE
8
0
10
808.415322
20
185.021394
11
807.431217
21
181.162126
0
LINE
8
0
10
807.431217
20
181.162126
11
806.033618
21
175.788239
0
LINE
8
0
10
806.033618
20
175.788239
11
804.275633
21
169.101734
0
LINE
8
0
10
804.275633
20
169.101734
11
802.210373
21
161.304613
0
LINE
8
0
10
802.210373
20
161.304613
11
798.652516
21
147.968407
0
LINE
8
0
10
798.652516
20
147.968407
11
796.051419
21
138.278505
0
LINE
8
0
10
796.051419
20
138.278505
11
793.427483
21
128.468734
0
LINE
8
0
10
793.427483
20
128.468734
11
788.632960
21
110.221077
0
LINE
8
0
10
788.632960
20
110.221077
11
785.660939
21
98.625964
0
LINE
8
0
10
785.660939
20
98.625964
11
784.084858
21
92.315347
0
LINE
8
0
10
784.084858
20
92.315347
11
782.900307
21
87.404068
0
LINE
8
0
10
782.900307
20
87.404068
11
782.164985
21
84.118219
0
LINE
8
0
10
782.164985
20
84.118219
11
781.983816
21
83.155484
0
LINE
8
0
10
781.983816
20
83.155484
11
781.562942
21
80.000176
0
LINE
8
0
10
781.562942
20
80.000176
11
781.354946
21
74.466114
0
LINE
8
0
10
781.354946
20
74.466114
11
782.000731
21
69.905476
0
LINE
8
0
10
782.000731
20
69.905476
11
783.510829
21
66.243884
0
LINE
8
0
10
783.510829
20
66.243884
11
784.593286
21
64.726989
0
LINE
8
0
10
784.593286
20
64.726989
11
785.942089
21
63.333194
0
LINE
8
0
10
785.942089
20
63.333194
11
789.167682
21
61.266924
0
LINE
8
0
10
789.167682
20
61.266924
11
793.326975
21
60.097846
0
LINE
8
0
10
793.326975
20
60.097846
11
798.695629
21
59.748478
0
LINE
8
0
10
798.695629
20
59.748478
11
801.919611
21
59.856972
0
LINE
8
0
10
801.919611
20
59.856972
11
806.734066
21
60.442682
0
LINE
8
0
10
806.734066
20
60.442682
11
815.316459
21
63.431919
0
LINE
8
0
10
815.316459
20
63.431919
11
822.619732
21
68.932457
0
LINE
8
0
10
822.619732
20
68.932457
11
828.783368
21
77.049350
0
LINE
8
0
10
828.783368
20
77.049350
11
831.481411
21
82.121758
0
LINE
8
0
10
831.481411
20
82.121758
11
831.917363
21
83.113915
0
LINE
8
0
10
831.917363
20
83.113915
11
833.003882
21
86.000244
0
LINE
8
0
10
833.003882
20
86.000244
11
834.363420
21
90.045395
0
LINE
8
0
10
834.363420
20
90.045395
11
835.980213
21
95.196733
0
LINE
8
0
10
835.980213
20
95.196733
11
838.853270
21
104.882696
0
LINE
8
0
10
838.853270
20
104.882696
11
843.437273
21
121.177688
0
LINE
8
0
10
843.437273
20
121.177688
11
846.016631
21
130.655484
0
LINE
8
0
10
846.016631
20
130.655484
11
848.308351
21
139.155240
0
LINE
8
0
10
848.308351
20
139.155240
11
852.634069
21
155.187954
0
LINE
8
0
10
852.634069
20
155.187954
11
855.436938
21
165.567123
0
LINE
8
0
10
855.436938
20
165.567123
11
856.992500
21
171.322384
0
LINE
8
0
10
856.992500
20
171.322384
11
858.233675
21
175.909433
0
LINE
8
0
10
858.233675
20
175.909433
11
859.105626
21
179.125241
0
LINE
8
0
10
859.105626
20
179.125241
11
859.386007
21
180.155484
0
LINE
8
0
10
859.386007
20
180.155484
11
861.568688
21
188.155484
0
LINE
8
0
10
861.568688
20
188.155484
11
896.784344
21
188.418276
0
LINE
8
0
10
896.784344
20
188.418276
11
904.355185
21
188.457756
0
LINE
8
0
10
904.355185
20
188.457756
11
917.198738
21
188.424052
0
LINE
8
0
10
917.198738
20
188.424052
11
924.491321
21
188.306386
0
LINE
8
0
10
924.491321
20
188.306386
11
928.081946
21
188.186896
0
LINE
8
0
10
928.081946
20
188.186896
11
930.558146
21
188.036404
0
LINE
8
0
10
930.558146
20
188.036404
11
931.836310
21
187.856482
0
LINE
8
0
10
931.836310
20
187.856482
11
932.000000
21
187.755976
0
LINE
8
0
10
932.000000
20
187.755976
11
931.953824
21
187.491377
0
LINE
8
0
10
931.953824
20
187.491377
11
931.598102
21
185.998919
0
LINE
8
0
10
931.598102
20
185.998919
11
930.474547
21
181.611731
0
LINE
8
0
10
930.474547
20
181.611731
11
928.066853
21
172.478632
0
LINE
8
0
10
928.066853
20
172.478632
11
924.887305
21
160.608466
0
LINE
8
0
10
924.887305
20
160.608466
11
923.099352
21
153.993184
0
LINE
8
0
10
923.099352
20
153.993184
11
916.566206
21
129.880744
0
LINE
8
0
10
916.566206
20
129.880744
11
907.304832
21
95.666304
0
LINE
8
0
10
907.304832
20
95.666304
11
901.711106
21
74.979911
0
LINE
8
0
10
901.711106
20
74.979911
11
896.759099
21
56.648441
0
LINE
8
0
10
896.759099
20
56.648441
11
892.600784
21
41.234469
0
LINE
8
0
10
892.600784
20
41.234469
11
890.094328
21
31.927021
0
LINE
8
0
10
890.094328
20
31.927021
11
888.750538
21
26.926782
0
LINE
8
0
10
888.750538
20
26.926782
11
887.690655
21
22.972364
0
LINE
8
0
10
887.690655
20
22.972364
11
886.933676
21
20.134091
0
LINE
8
0
10
886.933676
20
20.134091
11
886.674712
21
19.155484
0
LINE
8
0
10
886.674712
20
19.155484
11
884.304043
21
10.155484
0
LINE
8
0
10
884.304043
20
10.155484
11
852.038103
21
9.891480
0
LINE
8
0
10
852.038103
20
9.891480
11
819.772164
21
9.627477
0
LINE
8
0
10
819.772164
20
9.627477
11
820.463178
21
13.310899
0
LINE
8
0
10
820.463178
20
13.310899
11
820.640991
21
14.118202
0
LINE
8
0
10
820.640991
20
14.118202
11
821.289106
21
16.532846
0
LINE
8
0
10
821.289106
20
16.532846
11
822.805002
21
21.575855
0
LINE
8
0
10
822.805002
20
21.575855
11
825.316158
21
29.331138
0
LINE
8
0
10
825.316158
20
29.331138
11
827.653951
21
36.000283
0
LINE
8
0
10
827.653951
20
36.000283
11
828.507840
21
38.155484
0
LINE
8
0
10
828.507840
20
38.155484
11
828.524216
21
38.409937
0
LINE
8
0
10
828.524216
20
38.409937
11
827.664006
21
38.034761
0
LINE
8
0
10
827.664006
20
38.034761
11
825.801454
21
36.623464
0
LINE
8
0
10
825.801454
20
36.623464
11
823.162485
21
34.347238
0
LINE
8
0
10
823.162485
20
34.347238
11
821.622447
21
32.938273
0
LINE
8
0
10
821.622447
20
32.938273
11
816.602814
21
28.504824
0
LINE
8
0
10
816.602814
20
28.504824
11
806.202583
21
20.734778
0
LINE
8
0
10
806.202583
20
20.734778
11
795.297686
21
14.413651
0
LINE
8
0
10
795.297686
20
14.413651
11
783.860072
21
9.525182
0
LINE
8
0
10
783.860072
20
9.525182
11
777.932730
21
7.613113
0
LINE
8
0
10
777.932730
20
7.613113
11
773.746174
21
6.638412
0
LINE
8
0
10
773.746174
20
6.638412
11
763.377281
21
5.317702
0
LINE
8
0
10
763.377281
20
5.317702
11
752.231205
21
4.905002
0
LINE
8
0
10
752.231205
20
4.905002
11
742.568575
21
5.484014
0
LINE
8
0
10
742.568575
20
5.484014
11
739.000000
21
6.171570
0
LINE
8
0
10
2.000000
20
10.501740
11
2.075495
21
10.868637
0
LINE
8
0
10
2.075495
20
10.868637
11
2.657074
21
13.189499
0
LINE
8
0
10
2.657074
20
13.189499
11
3.763034
21
17.439300
0
LINE
8
0
10
3.763034
20
17.439300
11
5.333689
21
23.393457
0
LINE
8
0
10
5.333689
20
23.393457
11
7.309353
21
30.827389
0
LINE
8
0
10
7.309353
20
30.827389
11
9.630341
21
39.516514
0
LINE
8
0
10
9.630341
20
39.516514
11
13.628743
21
54.412414
0
LINE
8
0
10
13.628743
20
54.412414
11
16.551917
21
65.256973
0
LINE
8
0
10
16.551917
20
65.256973
11
18.114846
21
71.045799
0
LINE
8
0
10
18.114846
20
71.045799
11
21.568014
21
83.835357
0
LINE
8
0
10
21.568014
20
83.835357
11
27.334716
21
105.192763
0
LINE
8
0
10
27.334716
20
105.192763
11
35.471571
21
135.326930
0
LINE
8
0
10
35.471571
20
135.326930
11
41.370389
21
157.171803
0
LINE
8
0
10
41.370389
20
157.171803
11
44.974547
21
170.518468
0
LINE
8
0
10
44.974547
20
170.518468
11
46.631845
21
176.655484
0
LINE
8
0
10
46.631845
20
176.655484
11
49.797388
21
188.379507
0
LINE
8
0
10
49.797388
20
188.379507
11
54.292493
21
205.035000
0
LINE
8
0
10
54.292493
20
205.035000
11
57.013976
21
215.123526
0
LINE
8
0
10
57.013976
20
215.123526
11
59.430098
21
224.084121
0
LINE
8
0
10
59.430098
20
224.084121
11
61.467869
21
231.646084
0
LINE
8
0
10
61.467869
20
231.646084
11
63.054296
21
237.538711
0
LINE
8
0
10
63.054296
20
237.538711
11
64.116386
21
241.491299
0
LINE
8
0
10
64.116386
20
241.491299
11
64.427996
21
242.655484
0
LINE
8
0
10
64.427996
20
242.655484
11
66.696134
21
251.155484
0
LINE
8
0
10
66.696134
20
251.155484
11
105.348067
21
251.417227
0
LINE
8
0
10
105.348067
20
251.417227
11
113.112425
21
251.460516
0
LINE
8
0
10
113.112425
20
251.460516
11
126.919922
21
251.485297
0
LINE
8
0
10
126.919922
20
251.485297
11
135.145254
21
251.452935
0
LINE
8
0
10
135.145254
20
251.452935
11
139.317133
21
251.408587
0
LINE
8
0
10
139.317133
20
251.408587
11
142.254718
21
251.346946
0
LINE
8
0
10
142.254718
20
251.346946
11
143.799474
21
251.268805
0
LINE
8
0
10
143.799474
20
251.268805
11
144.000000
21
251.223796
0
LINE
8
0
10
144.000000
20
251.223796
11
143.948110
21
250.987793
0
LINE
8
0
10
143.948110
20
250.987793
11
143.542252
21
249.398922
0
LINE
8
0
10
143.542252
20
249.398922
11
142.754207
21
246.397564
0
LINE
8
0
10
142.754207
20
246.397564
11
141.608675
21
242.075719
0
LINE
8
0
10
141.608675
20
242.075719
11
140.130357
21
236.525388
0
LINE
8
0
10
140.130357
20
236.525388
11
138.343953
21
229.838570
0
LINE
8
0
10
138.343953
20
229.838570
11
135.140718
21
217.878683
0
LINE
8
0
10
135.140718
20
217.878683
11
130.021975
21
198.813136
0
LINE
8
0
10
130.021975
20
198.813136
11
124.115496
21
176.857652
0
LINE
8
0
10
124.115496
20
176.857652
11
117.618883
21
152.748233
0
LINE
8
0
10
117.618883
20
152.748233
11
110.729740
21
127.220882
0
LINE
8
0
10
110.729740
20
127.220882
11
107.199721
21
114.155484
0
LINE
8
0
10
107.199721
20
114.155484
11
96.388259
21
74.155484
0
LINE
8
0
10
96.388259
20
74.155484
11
149.194130
21
73.896720
0
LINE
8
0
10
149.194130
20
73.896720
11
156.588421
21
73.857204
0
LINE
8
0
10
156.588421
20
73.857204
11
169.391888
21
73.766325
0
LINE
8
0
10
169.391888
20
73.766325
11
179.726143
21
73.654601
0
LINE
8
0
10
179.726143
20
73.654601
11
187.804312
21
73.515972
0
LINE
8
0
10
187.804312
20
73.515972
11
193.839527
21
73.344379
0
LINE
8
0
10
193.839527
20
73.344379
11
198.044914
21
73.133761
0
LINE
8
0
10
198.044914
20
73.133761
11
200.633603
21
72.878060
0
LINE
8
0
10
200.633603
20
72.878060
11
201.818723
21
72.571215
0
LINE
8
0
10
201.818723
20
72.571215
11
201.951547
21
72.396720
0
LINE
8
0
10
201.951547
20
72.396720
11
201.903540
21
72.112045
0
LINE
8
0
10
201.903540
20
72.112045
11
201.562305
21
70.651477
0
LINE
8
0
10
201.562305
20
70.651477
11
200.501621
21
66.476685
0
LINE
8
0
10
200.501621
20
66.476685
11
198.242708
21
57.890432
0
LINE
8
0
10
198.242708
20
57.890432
11
195.269631
21
46.807624
0
LINE
8
0
10
195.269631
20
46.807624
11
193.600907
21
40.655484
0
LINE
8
0
10
193.600907
20
40.655484
11
185.298720
21
10.155484
0
LINE
8
0
10
185.298720
20
10.155484
11
93.649360
21
9.900250
0
LINE
8
0
10
93.649360
20
9.900250
11
84.312229
21
9.878691
0
LINE
8
0
10
84.312229
20
9.878691
11
66.471093
21
9.863241
0
LINE
8
0
10
66.471093
20
9.863241
11
50.053866
21
9.882626
0
LINE
8
0
10
50.053866
20
9.882626
11
35.436235
21
9.934380
0
LINE
8
0
10
35.436235
20
9.934380
11
22.993886
21
10.016038
0
LINE
8
0
10
22.993886
20
10.016038
11
13.102507
21
10.125135
0
LINE
8
0
10
13.102507
20
10.125135
11
6.137785
21
10.259205
0
LINE
8
0
10
6.137785
20
10.259205
11
2.475408
21
10.415782
0
LINE
8
0
10
2.475408
20
10.415782
11
2.000000
21
10.501740
0
LINE
8
0
10
1859.000000
20
3.663382
11
1856.267945
21
4.028678
0
LINE
8
0
10
1856.267945
20
4.028678
11
1851.398620
21
4.982966
0
LINE
8
0
10
1851.398620
20
4.982966
11
1849.861091
21
5.454420
0
LINE
8
0
10
1849.861091
20
5.454420
11
1846.592602
21
7.319924
0
LINE
8
0
10
1846.592602
20
7.319924
11
1840.048827
21
13.560640
0
LINE
8
0
10
1840.048827
20
13.560640
11
1837.691086
21
17.060803
0
LINE
8
0
10
1837.691086
20
17.060803
11
1836.977868
21
18.518017
0
LINE
8
0
10
1836.977868
20
18.518017
11
1836.218864
21
21.402717
0
LINE
8
0
10
1836.218864
20
21.402717
11
1835.879896
21
24.626028
0
LINE
8
0
10
1835.879896
20
24.626028
11
1835.642412
21
29.556886
0
LINE
8
0
10
1835.642412
20
29.556886
11
1835.478859
21
36.767355
0
LINE
8
0
10
1835.478859
20
36.767355
11
1835.361686
21
46.829497
0
LINE
8
0
10
1835.361686
20
46.829497
11
1835.263341
21
60.315375
0
LINE
8
0
10
1835.263341
20
60.315375
11
1835.212618
21
68.520984
0
LINE
8
0
10
1835.212618
20
68.520984
11
1835.182576
21
73.532562
0
LINE
8
0
10
1835.182576
20
73.532562
11
1835.134612
21
82.637605
0
LINE
8
0
10
1835.134612
20
82.637605
11
1835.112039
21
90.594452
0
LINE
8
0
10
1835.112039
20
90.594452
11
1835.125938
21
97.494243
0
LINE
8
0
10
1835.125938
20
97.494243
11
1835.239403
21
106.061322
0
LINE
8
0
10
1835.239403
20
106.061322
11
1835.621740
21
114.635047
0
LINE
8
0
10
1835.621740
20
114.635047
11
1836.349377
21
120.621088
0
LINE
8
0
10
1836.349377
20
120.621088
11
1837.510943
21
124.748573
0
LINE
8
0
10
1837.510943
20
124.748573
11
1840.260789
21
129.049976
0
LINE
8
0
10
1840.260789
20
129.049976
11
1842.894935
21
131.721008
0
LINE
8
0
10
1842.894935
20
131.721008
11
1845.207285
21
133.758527
0
LINE
8
0
10
1845.207285
20
133.758527
11
1849.841358
21
136.689612
0
LINE
8
0
10
1849.841358
20
136.689612
11
1852.055292
21
137.515002
0
LINE
8
0
10
1852.055292
20
137.515002
11
1852.843138
21
137.680596
0
LINE
8
0
10
1852.843138
20
137.680596
11
1855.452938
21
137.964240
0
LINE
8
0
10
1855.452938
20
137.964240
11
1859.614304
21
138.186887
0
LINE
8
0
10
1859.614304
20
138.186887
11
1865.534541
21
138.351410
0
LINE
8
0
10
1865.534541
20
138.351410
11
1873.420953
21
138.460679
0
LINE
8
0
10
1873.420953
20
138.460679
11
1883.480846
21
138.517569
0
LINE
8
0
10
1883.480846
20
138.517569
11
1895.921526
21
138.524950
0
LINE
8
0
10
1895.921526
20
138.524950
11
1910.950297
21
138.485696
0
LINE
8
0
10
1910.950297
20
138.485696
11
1919.500000
21
138.449478
0
LINE
8
0
10
1919.500000
20
138.449478
11
1925.171034
21
138.422890
0
LINE
8
0
10
1925.171034
20
138.422890
11
1935.475118
21
138.372674
0
LINE
8
0
10
1935.475118
20
138.372674
11
1944.474671
21
138.323492
0
LINE
8
0
10
1944.474671
20
138.323492
11
1952.265035
21
138.271848
0
LINE
8
0
10
1952.265035
20
138.271848
11
1961.891906
21
138.182119
0
LINE
8
0
10
1961.891906
20
138.182119
11
1971.385409
21
138.021241
0
LINE
8
0
10
1971.385409
20
138.021241
11
1977.758270
21
137.787598
0
LINE
8
0
10
1977.758270
20
137.787598
11
1981.773210
21
137.453228
0
LINE
8
0
10
1981.773210
20
137.453228
11
1985.042966
21
136.701639
0
LINE
8
0
10
1985.042966
20
136.701639
11
1986.500000
21
135.993113
0
LINE
8
0
10
1986.500000
20
135.993113
11
1990.020374
21
133.677001
0
LINE
8
0
10
1990.020374
20
133.677001
11
1996.308082
21
127.285906
0
LINE
8
0
10
1996.308082
20
127.285906
11
1998.638047
21
123.655484
0
LINE
8
0
10
1998.638047
20
123.655484
11
1999.218044
21
122.344088
0
LINE
8
0
10
1999.218044
20
122.344088
11
1999.841566
21
119.302713
0
LINE
8
0
10
1999.841566
20
119.302713
11
2000.118576
21
115.849673
0
LINE
8
0
10
2000.118576
20
115.849673
11
2000.305162
21
110.688855
0
LINE
8
0
10
2000.305162
20
110.688855
11
2000.418910
21
103.333903
0
LINE
8
0
10
2000.418910
20
103.333903
11
2000.477401
21
93.298462
0
LINE
8
0
10
2000.477401
20
93.298462
11
2000.498222
21
80.096178
0
LINE
8
0
10
2000.498222
20
80.096178
11
2000.500000
21
72.155484
0
LINE
8
0
10
2000.500000
20
72.155484
11
2000.500197
21
67.163932
0
LINE
8
0
10
2000.500197
20
67.163932
11
2000.496880
21
58.119982
0
LINE
8
0
10
2000.496880
20
58.119982
11
2000.477747
21
50.248457
0
LINE
8
0
10
2000.477747
20
50.248457
11
2000.429756
21
43.453627
0
LINE
8
0
10
2000.429756
20
43.453627
11
2000.275131
21
35.070767
0
LINE
8
0
10
2000.275131
20
35.070767
11
1999.846229
21
26.768545
0
LINE
8
0
10
1999.846229
20
26.768545
11
1999.067131
21
21.049917
0
LINE
8
0
10
1999.067131
20
21.049917
11
1997.833496
21
17.149022
0
LINE
8
0
10
1997.833496
20
17.149022
11
1994.902545
21
13.030613
0
LINE
8
0
10
1994.902545
20
13.030613
11
1992.076083
21
10.323419
0
LINE
8
0
10
1992.076083
20
10.323419
11
1989.243670
21
7.760010
0
LINE
8
0
10
1989.243670
20
7.760010
11
1984.721038
21
5.098287
0
LINE
8
0
10
1984.721038
20
5.098287
11
1980.265991
21
3.979474
0
LINE
8
0
10
1980.265991
20
3.979474
11
1973.653152
21
3.278592
0
LINE
8
0
10
1973.653152
20
3.278592
11
1964.020383
21
2.904263
0
LINE
8
0
10
1964.020383
20
2.904263
11
1954.295349
21
2.782849
0
LINE
8
0
10
1954.295349
20
2.782849
11
1946.419235
21
2.756363
0
LINE
8
0
10
1946.419235
20
2.756363
11
1937.303187
21
2.760116
0
LINE
8
0
10
1937.303187
20
2.760116
11
1926.839438
21
2.782686
0
LINE
8
0
10
1926.839438
20
2.782686
11
1921.068499
21
2.797459
0
LINE
8
0
10
1921.068499
20
2.797459
11
1909.773294
21
2.840754
0
LINE
8
0
10
1909.773294
20
2.840754
11
1893.850004
21
2.952698
0
LINE
8
0
10
1893.850004
20
2.952698
11
1884.285417
21
3.053482
0
LINE
8
0
10
1884.285417
20
3.053482
11
1875.858588
21
3.171046
0
LINE
8
0
10
1875.858588
20
3.171046
11
1868.824095
21
3.301837
0
LINE
8
0
10
1868.824095
20
3.301837
11
1863.436516
21
3.442306
0
LINE
8
0
10
1863.436516
20
3.442306
11
1859.950429
21
3.588899
0
LINE
8
0
10
1859.950429
20
3.588899
11
1859.000000
21
3.663382
0
LINE
8
0
10
1489.000000
20
64.155484
11
1489.000000
21
124.655484
0
LINE
8
0
10
1489.000000
20
124.655484
11
1424.000000
21
124.655484
0
LINE
8
0
10
1424.000000
20
124.655484
11
1359.000000
21
124.655484
0
LINE
8
0
10
1359.000000
20
124.655484
11
1359.000000
21
138.655484
0
LINE
8
0
10
1359.000000
20
138.655484
11
1359.000000
21
152.655484
0
LINE
8
0
10
1359.000000
20
152.655484
11
1424.000000
21
152.655484
0
LINE
8
0
10
1424.000000
20
152.655484
11
1489.000000
21
152.655484
0
LINE
8
0
10
1489.000000
20
152.655484
11
1489.000000
21
187.155484
0
LINE
8
0
10
1489.000000
20
187.155484
11
1489.000000
21
221.655484
0
LINE
8
0
10
1489.000000
20
221.655484
11
1425.500000
21
221.655484
0
LINE
8
0
10
1425.500000
20
221.655484
11
1362.000000
21
221.655484
0
LINE
8
0
10
1362.000000
20
221.655484
11
1362.000000
21
235.655484
0
LINE
8
0
10
1362.000000
20
235.655484
11
1362.000000
21
249.655484
0
LINE
8
0
10
1362.000000
20
249.655484
11
1425.500000
21
249.655484
0
LINE
8
0
10
1425.500000
20
249.655484
11
1489.000000
21
249.655484
0
LINE
8
0
10
1489.000000
20
249.655484
11
1489.000000
21
259.655484
0
LINE
8
0
10
1489.000000
20
259.655484
11
1489.000000
21
269.655484
0
LINE
8
0
10
1489.000000
20
269.655484
11
1503.000000
21
269.655484
0
LINE
8
0
10
1503.000000
20
269.655484
11
1517.000000
21
269.655484
0
LINE
8
0
10
1517.000000
20
269.655484
11
1517.000000
21
259.655484
0
LINE
8
0
10
1517.000000
20
259.655484
11
1517.000000
21
249.655484
0
LINE
8
0
10
1517.000000
20
249.655484
11
1581.000000
21
249.655484
0
LINE
8
0
10
1581.000000
20
249.655484
11
1645.000000
21
249.655484
0
LINE
8
0
10
1645.000000
20
249.655484
11
1645.000000
21
235.655484
0
LINE
8
0
10
1645.000000
20
235.655484
11
1645.000000
21
221.655484
0
LINE
8
0
10
1645.000000
20
221.655484
11
1581.000000
21
221.655484
0
LINE
8
0
10
1581.000000
20
221.655484
11
1517.000000
21
221.655484
0
LINE
8
0
10
1517.000000
20
221.655484
11
1517.000000
21
187.155484
0
LINE
8
0
10
1517.000000
20
187.155484
11
1517.000000
21
152.655484
0
LINE
8
0
10
1517.000000
20
152.655484
11
1582.500000
21
152.655484
0
LINE
8
0
10
1582.500000
20
152.655484
11
1648.000000
21
152.655484
0
LINE
8
0
10
1648.000000
20
152.655484
11
1648.000000
21
138.662725
0
LINE
8
0
10
1648.000000
20
138.662725
11
1648.000000
21
124.669967
0
LINE
8
0
10
1648.000000
20
124.669967
11
1582.750000
21
124.412725
0
LINE
8
0
10
1582.750000
20
124.412725
11
1517.500000
21
124.155484
0
LINE
8
0
10
1517.500000
20
124.155484
11
1517.242194
21
63.905484
0
LINE
8
0
10
1517.242194
20
63.905484
11
1516.984387
21
3.655484
0
LINE
8
0
10
1516.984387
20
3.655484
11
1502.992194
21
3.655484
0
LINE
8
0
10
1502.992194
20
3.655484
11
1489.000000
21
3.655484
0
LINE
8
0
10
1489.000000
20
3.655484
11
1489.000000
21
64.155484
0
LINE
8
0
10
569.354030
20
11.135688
11
569.487732
21
11.568024
0
LINE
8
0
10
569.487732
20
11.568024
11
570.182538
21
14.025087
0
LINE
8
0
10
570.182538
20
14.025087
11
571.395304
21
18.414788
0
LINE
8
0
10
571.395304
20
18.414788
11
573.063743
21
24.508463
0
LINE
8
0
10
573.063743
20
24.508463
11
575.125566
21
32.077451
0
LINE
8
0
10
575.125566
20
32.077451
11
577.518484
21
40.893090
0
LINE
8
0
10
577.518484
20
40.893090
11
581.592409
21
55.953819
0
LINE
8
0
10
581.592409
20
55.953819
11
584.540553
21
66.885688
0
LINE
8
0
10
584.540553
20
66.885688
11
587.546917
21
78.042272
0
LINE
8
0
10
587.546917
20
78.042272
11
593.285449
21
99.314616
0
LINE
8
0
10
593.285449
20
99.314616
11
597.058100
21
113.279983
0
LINE
8
0
10
597.058100
20
113.279983
11
599.181497
21
121.129725
0
LINE
8
0
10
599.181497
20
121.129725
11
600.905213
21
127.491606
0
LINE
8
0
10
600.905213
20
127.491606
11
602.155259
21
132.091806
0
LINE
8
0
10
602.155259
20
132.091806
11
602.579535
21
133.645707
0
LINE
8
0
10
602.579535
20
133.645707
11
603.907637
21
138.592246
0
LINE
8
0
10
603.907637
20
138.592246
11
605.413778
21
144.537488
0
LINE
8
0
10
605.413778
20
144.537488
11
605.930188
21
146.861545
0
LINE
8
0
10
605.930188
20
146.861545
11
606.000000
21
147.362956
0
LINE
8
0
10
606.000000
20
147.362956
11
605.851939
21
147.671174
0
LINE
8
0
10
605.851939
20
147.671174
11
604.613089
21
148.172553
0
LINE
8
0
10
604.613089
20
148.172553
11
601.996465
21
148.537366
0
LINE
8
0
10
601.996465
20
148.537366
11
597.857103
21
148.785822
0
LINE
8
0
10
597.857103
20
148.785822
11
595.171094
21
148.872733
0
LINE
8
0
10
595.171094
20
148.872733
11
584.342189
21
149.155484
0
LINE
8
0
10
584.342189
20
149.155484
11
589.521820
21
168.655484
0
LINE
8
0
10
589.521820
20
168.655484
11
594.701451
21
188.155484
0
LINE
8
0
10
594.701451
20
188.155484
11
606.116725
21
188.435195
0
LINE
8
0
10
606.116725
20
188.435195
11
617.532000
21
188.714906
0
LINE
8
0
10
617.532000
20
188.714906
11
619.698715
21
197.096453
0
LINE
8
0
10
619.698715
20
197.096453
11
621.539148
21
203.583183
0
LINE
8
0
10
621.539148
20
203.583183
11
625.909820
21
215.388129
0
LINE
8
0
10
625.909820
20
215.388129
11
631.231983
21
225.666810
0
LINE
8
0
10
631.231983
20
225.666810
11
637.543735
21
234.457331
0
LINE
8
0
10
637.543735
20
234.457331
11
644.883173
21
241.797795
0
LINE
8
0
10
644.883173
20
241.797795
11
653.288397
21
247.726306
0
LINE
8
0
10
653.288397
20
247.726306
11
662.797505
21
252.280967
0
LINE
8
0
10
662.797505
20
252.280967
11
673.448595
21
255.499881
0
LINE
8
0
10
673.448595
20
255.499881
11
679.214289
21
256.620341
0
LINE
8
0
10
679.214289
20
256.620341
11
680.994692
21
256.825399
0
LINE
8
0
10
680.994692
20
256.825399
11
687.069882
21
257.190922
0
LINE
8
0
10
687.069882
20
257.190922
11
700.521262
21
257.564509
0
LINE
8
0
10
700.521262
20
257.564509
11
710.866631
21
257.647930
0
LINE
8
0
10
710.866631
20
257.647930
11
715.051616
21
257.647462
0
LINE
8
0
10
715.051616
20
257.647462
11
721.991182
21
257.629673
0
LINE
8
0
10
721.991182
20
257.629673
11
727.217950
21
257.575812
0
LINE
8
0
10
727.217950
20
257.575812
11
730.965204
21
257.469559
0
LINE
8
0
10
730.965204
20
257.469559
11
734.322306
21
257.176243
0
LINE
8
0
10
734.322306
20
257.176243
11
735.797466
21
256.449463
0
LINE
8
0
10
735.797466
20
256.449463
11
735.773804
21
255.905484
0
LINE
8
0
10
735.773804
20
255.905484
11
735.571563
21
255.143143
0
LINE
8
0
10
735.571563
20
255.143143
11
734.594152
21
251.479237
0
LINE
8
0
10
734.594152
20
251.479237
11
733.012695
21
245.561240
0
LINE
8
0
10
733.012695
20
245.561240
11
731.019021
21
238.107003
0
LINE
8
0
10
731.019021
20
238.107003
11
729.927550
21
234.028124
0
LINE
8
0
10
729.927550
20
234.028124
11
724.540755
21
213.900763
0
LINE
8
0
10
724.540755
20
213.900763
11
714.876576
21
213.435400
0
LINE
8
0
10
714.876576
20
213.435400
11
709.384296
21
212.980520
0
LINE
8
0
10
709.384296
20
212.980520
11
700.831569
21
210.853546
0
LINE
8
0
10
700.831569
20
210.853546
11
694.873324
21
206.646053
0
LINE
8
0
10
694.873324
20
206.646053
11
690.732007
21
199.808960
0
LINE
8
0
10
690.732007
20
199.808960
11
689.099710
21
195.232726
0
LINE
8
0
10
689.099710
20
195.232726
11
687.232946
21
189.155484
0
LINE
8
0
10
687.232946
20
189.155484
11
702.116473
21
188.879438
0
LINE
8
0
10
702.116473
20
188.879438
11
705.892733
21
188.793657
0
LINE
8
0
10
705.892733
20
188.793657
11
711.626131
21
188.552679
0
LINE
8
0
10
711.626131
20
188.552679
11
715.169044
21
188.195451
0
LINE
8
0
10
715.169044
20
188.195451
11
716.803487
21
187.693537
0
LINE
8
0
10
716.803487
20
187.693537
11
716.993161
21
187.379438
0
LINE
8
0
10
716.993161
20
187.379438
11
716.909455
21
186.827419
0
LINE
8
0
10
716.909455
20
186.827419
11
716.297994
21
184.125542
0
LINE
8
0
10
716.297994
20
184.125542
11
714.519273
21
177.076280
0
LINE
8
0
10
714.519273
20
177.076280
11
712.952460
21
171.155484
0
LINE
8
0
10
712.952460
20
171.155484
11
711.307451
21
165.035367
0
LINE
8
0
10
711.307451
20
165.035367
11
709.169007
21
157.069180
0
LINE
8
0
10
709.169007
20
157.069180
11
708.203532
21
153.464932
0
LINE
8
0
10
708.203532
20
153.464932
11
707.920755
21
152.405484
0
LINE
8
0
10
707.920755
20
152.405484
11
706.922912
21
148.655484
0
LINE
8
0
10
706.922912
20
148.655484
11
692.001597
21
148.655484
0
LINE
8
0
10
692.001597
20
148.655484
11
677.080283
21
148.655484
0
LINE
8
0
10
677.080283
20
148.655484
11
675.996508
21
144.905484
0
LINE
8
0
10
675.996508
20
144.905484
11
675.849581
21
144.386287
0
LINE
8
0
10
675.849581
20
144.386287
11
675.328850
21
142.500174
0
LINE
8
0
10
675.328850
20
142.500174
11
674.022912
21
137.708974
0
LINE
8
0
10
674.022912
20
137.708974
11
671.420526
21
128.098610
0
LINE
8
0
10
671.420526
20
128.098610
11
667.999605
21
115.420952
0
LINE
8
0
10
667.999605
20
115.420952
11
663.940829
21
100.347021
0
LINE
8
0
10
663.940829
20
100.347021
11
659.424874
21
83.547838
0
LINE
8
0
10
659.424874
20
83.547838
11
652.188966
21
56.582077
0
LINE
8
0
10
652.188966
20
56.582077
11
647.320532
21
38.405484
0
LINE
8
0
10
647.320532
20
38.405484
11
639.626446
21
9.655484
0
LINE
8
0
10
639.626446
20
9.655484
11
604.206234
21
9.655484
0
LINE
8
0
10
604.206234
20
9.655484
11
598.723283
21
9.657937
0
LINE
8
0
10
598.723283
20
9.657937
11
589.486785
21
9.681560
0
LINE
8
0
10
589.486785
20
9.681560
11
582.347172
21
9.739013
0
LINE
8
0
10
582.347172
20
9.739013
11
577.053656
21
9.840946
0
LINE
8
0
10
577.053656
20
9.840946
11
573.355448
21
9.998012
0
LINE
8
0
10
573.355448
20
9.998012
11
571.001762
21
10.220862
0
LINE
8
0
10
571.001762
20
10.220862
11
569.443611
21
10.701780
0
LINE
8
0
10
569.443611
20
10.701780
11
569.354030
21
11.135688
0
LINE
8
0
10
1159.383099
20
11.405484
11
1159.662998
21
12.372401
0
LINE
8
0
10
1159.662998
20
12.372401
11
1160.497546
21
15.354537
0
LINE
8
0
10
1160.497546
20
15.354537
11
1161.659188
21
19.587008
0
LINE
8
0
10
1161.659188
20
19.587008
11
1163.100828
21
24.892935
0
LINE
8
0
10
1163.100828
20
24.892935
11
1165.685273
21
34.477625
0
LINE
8
0
10
1165.685273
20
34.477625
11
1169.671664
21
49.363415
0
LINE
8
0
10
1169.671664
20
49.363415
11
1173.930381
21
65.359166
0
LINE
8
0
10
1173.930381
20
65.359166
11
1178.084681
21
81.049830
0
LINE
8
0
10
1178.084681
20
81.049830
11
1181.757821
21
95.020359
0
LINE
8
0
10
1181.757821
20
95.020359
11
1183.970281
21
103.518178
0
LINE
8
0
10
1183.970281
20
103.518178
11
1185.098671
21
107.908845
0
LINE
8
0
10
1185.098671
20
107.908845
11
1185.541231
21
109.655484
0
LINE
8
0
10
1185.541231
20
109.655484
11
1186.801689
21
114.617300
0
LINE
8
0
10
1186.801689
20
114.617300
11
1190.019416
21
127.053433
0
LINE
8
0
10
1190.019416
20
127.053433
11
1195.731477
21
148.728140
0
LINE
8
0
10
1195.731477
20
148.728140
11
1199.463624
21
162.655484
0
LINE
8
0
10
1199.463624
20
162.655484
11
1201.331654
21
169.569961
0
LINE
8
0
10
1201.331654
20
169.569961
11
1205.541545
21
185.163174
0
LINE
8
0
10
1205.541545
20
185.163174
11
1209.938729
21
201.461270
0
LINE
8
0
10
1209.938729
20
201.461270
11
1213.989830
21
216.487295
0
LINE
8
0
10
1213.989830
20
216.487295
11
1215.718920
21
222.905484
0
LINE
8
0
10
1215.718920
20
222.905484
11
1223.461624
21
251.655484
0
LINE
8
0
10
1223.461624
20
251.655484
11
1259.298199
21
251.655484
0
LINE
8
0
10
1259.298199
20
251.655484
11
1295.134775
21
251.655484
0
LINE
8
0
10
1295.134775
20
251.655484
11
1294.415453
21
249.405484
0
LINE
8
0
10
1294.415453
20
249.405484
11
1294.265955
21
248.893536
0
LINE
8
0
10
1294.265955
20
248.893536
11
1293.538750
21
246.277429
0
LINE
8
0
10
1293.538750
20
246.277429
11
1292.293278
21
241.732342
0
LINE
8
0
10
1292.293278
20
241.732342
11
1290.592751
21
235.491040
0
LINE
8
0
10
1290.592751
20
235.491040
11
1288.500379
21
227.786285
0
LINE
8
0
10
1288.500379
20
227.786285
11
1286.079375
21
218.850842
0
LINE
8
0
10
1286.079375
20
218.850842
11
1281.969956
21
203.649307
0
LINE
8
0
10
1281.969956
20
203.649307
11
1279.003919
21
192.655484
0
LINE
8
0
10
1279.003919
20
192.655484
11
1277.417362
21
186.770367
0
LINE
8
0
10
1277.417362
20
186.770367
11
1273.864961
21
173.593957
0
LINE
8
0
10
1273.864961
20
173.593957
11
1267.834389
21
151.227139
0
LINE
8
0
10
1267.834389
20
151.227139
11
1259.172770
21
119.104336
0
LINE
8
0
10
1259.172770
20
119.104336
11
1252.785489
21
95.417840
0
LINE
8
0
10
1252.785489
20
95.417840
11
1248.825420
21
80.733227
0
LINE
8
0
10
1248.825420
20
80.733227
11
1246.984071
21
73.905484
0
LINE
8
0
10
1246.984071
20
73.905484
11
1229.656435
21
9.655484
0
LINE
8
0
10
1229.656435
20
9.655484
11
1194.260830
21
9.655484
0
LINE
8
0
10
1194.260830
20
9.655484
11
1188.385892
21
9.657081
0
LINE
8
0
10
1188.385892
20
9.657081
11
1178.656918
21
9.676149
0
LINE
8
0
10
1178.656918
20
9.676149
11
1171.344085
21
9.730348
0
LINE
8
0
10
1171.344085
20
9.730348
11
1166.113320
21
9.836441
0
LINE
8
0
10
1166.113320
20
9.836441
11
1162.630549
21
10.011190
0
LINE
8
0
10
1162.630549
20
10.011190
11
1160.561696
21
10.271358
0
LINE
8
0
10
1160.561696
20
10.271358
11
1159.378728
21
10.858436
0
LINE
8
0
10
1159.378728
20
10.858436
11
1159.383099
21
11.405484
0
LINE
8
0
10
450.000000
20
10.425583
11
450.152439
21
11.275356
0
LINE
8
0
10
450.152439
20
11.275356
11
451.181778
21
15.404653
0
LINE
8
0
10
451.181778
20
15.404653
11
451.931897
21
18.175583
0
LINE
8
0
10
451.931897
20
18.175583
11
452.238245
21
19.293867
0
LINE
8
0
10
452.238245
20
19.293867
11
453.458216
21
23.789844
0
LINE
8
0
10
453.458216
20
23.789844
11
455.409111
21
31.006202
0
LINE
8
0
10
455.409111
20
31.006202
11
457.996396
21
40.592340
0
LINE
8
0
10
457.996396
20
40.592340
11
461.125540
21
52.197655
0
LINE
8
0
10
461.125540
20
52.197655
11
464.702009
21
65.471548
0
LINE
8
0
10
464.702009
20
65.471548
11
470.698658
21
87.744029
0
LINE
8
0
10
470.698658
20
87.744029
11
474.979861
21
103.655484
0
LINE
8
0
10
474.979861
20
103.655484
11
479.242647
21
119.490811
0
LINE
8
0
10
479.242647
20
119.490811
11
485.148393
21
141.387524
0
LINE
8
0
10
485.148393
20
141.387524
11
488.627472
21
154.258832
0
LINE
8
0
10
488.627472
20
154.258832
11
491.634112
21
165.357751
0
LINE
8
0
10
491.634112
20
165.357751
11
494.077482
21
174.348980
0
LINE
8
0
10
494.077482
20
174.348980
11
495.866750
21
180.897217
0
LINE
8
0
10
495.866750
20
180.897217
11
496.911083
21
184.667157
0
LINE
8
0
10
496.911083
20
184.667157
11
497.125515
21
185.405484
0
LINE
8
0
10
497.125515
20
185.405484
11
498.155104
21
188.655484
0
LINE
8
0
10
498.155104
20
188.655484
11
533.077552
21
188.655484
0
LINE
8
0
10
533.077552
20
188.655484
11
537.560323
21
188.651704
0
LINE
8
0
10
537.560323
20
188.651704
11
545.517806
21
188.620822
0
LINE
8
0
10
545.517806
20
188.620822
11
552.176344
21
188.557415
0
LINE
8
0
10
552.176344
20
188.557415
11
557.590099
21
188.459772
0
LINE
8
0
10
557.590099
20
188.459772
11
561.813231
21
188.326177
0
LINE
8
0
10
561.813231
20
188.326177
11
564.899903
21
188.154918
0
LINE
8
0
10
564.899903
20
188.154918
11
566.904276
21
187.944282
0
LINE
8
0
10
566.904276
20
187.944282
11
567.880510
21
187.692555
0
LINE
8
0
10
567.880510
20
187.692555
11
568.000000
21
187.550747
0
LINE
8
0
10
568.000000
20
187.550747
11
567.888736
21
186.986368
0
LINE
8
0
10
567.888736
20
186.986368
11
567.037119
21
183.506017
0
LINE
8
0
10
567.037119
20
183.506017
11
565.432267
21
177.213779
0
LINE
8
0
10
565.432267
20
177.213779
11
563.176839
21
168.497937
0
LINE
8
0
10
563.176839
20
168.497937
11
560.373495
21
157.746777
0
LINE
8
0
10
560.373495
20
157.746777
11
557.124893
21
145.348582
0
LINE
8
0
10
557.124893
20
145.348582
11
551.641699
21
124.512469
0
LINE
8
0
10
551.641699
20
124.512469
11
543.730526
21
94.590348
0
LINE
8
0
10
543.730526
20
94.590348
11
535.886190
21
65.069198
0
LINE
8
0
10
535.886190
20
65.069198
11
530.540846
21
45.060090
0
LINE
8
0
10
530.540846
20
45.060090
11
527.425917
21
33.463838
0
LINE
8
0
10
527.425917
20
33.463838
11
524.789663
21
23.715107
0
LINE
8
0
10
524.789663
20
23.715107
11
522.734745
21
16.202181
0
LINE
8
0
10
522.734745
20
16.202181
11
521.957367
21
13.405484
0
LINE
8
0
10
521.957367
20
13.405484
11
520.905992
21
9.655484
0
LINE
8
0
10
520.905992
20
9.655484
11
485.452996
21
9.655484
0
LINE
8
0
10
485.452996
20
9.655484
11
478.331237
21
9.671202
0
LINE
8
0
10
478.331237
20
9.671202
11
465.666485
21
9.787469
0
LINE
8
0
10
465.666485
20
9.787469
11
458.121904
21
9.936459
0
LINE
8
0
10
458.121904
20
9.936459
11
454.295300
21
10.059288
0
LINE
8
0
10
454.295300
20
10.059288
11
451.600838
21
10.197233
0
LINE
8
0
10
451.600838
20
10.197233
11
450.183930
21
10.347135
0
LINE
8
0
10
450.183930
20
10.347135
11
450.000000
21
10.425583
0
LINE
8
0
10
1854.764045
20
155.651197
11
1850.866952
21
157.233129
0
LINE
8
0
10
1850.866952
20
157.233129
11
1844.777405
21
162.346374
0
LINE
8
0
10
1844.777405
20
162.346374
11
1842.570525
21
165.889801
0
LINE
8
0
10
1842.570525
20
165.889801
11
1841.118093
21
169.185262
0
LINE
8
0
10
1841.118093
20
169.185262
11
1840.157956
21
175.644832
0
LINE
8
0
10
1840.157956
20
175.644832
11
1840.026813
21
181.439277
0
LINE
8
0
10
1840.026813
20
181.439277
11
1840.006125
21
186.842006
0
LINE
8
0
10
1840.006125
20
186.842006
11
1840.005577
21
190.101828
0
LINE
8
0
10
1840.005577
20
190.101828
11
1840.088842
21
197.792009
0
LINE
8
0
10
1840.088842
20
197.792009
11
1840.464377
21
207.525235
0
LINE
8
0
10
1840.464377
20
207.525235
11
1840.832376
21
211.723860
0
LINE
8
0
10
1840.832376
20
211.723860
11
1841.038954
21
212.856130
0
LINE
8
0
10
1841.038954
20
212.856130
11
1841.771396
21
214.684541
0
LINE
8
0
10
1841.771396
20
214.684541
11
1844.449195
21
218.354847
0
LINE
8
0
10
1844.449195
20
218.354847
11
1848.339755
21
221.695810
0
LINE
8
0
10
1848.339755
20
221.695810
11
1852.957727
21
224.290642
0
LINE
8
0
10
1852.957727
20
224.290642
11
1855.387821
21
225.178014
0
LINE
8
0
10
1855.387821
20
225.178014
11
1856.380202
21
225.378472
0
LINE
8
0
10
1856.380202
20
225.378472
11
1860.024325
21
225.740296
0
LINE
8
0
10
1860.024325
20
225.740296
11
1865.629519
21
226.050036
0
LINE
8
0
10
1865.629519
20
226.050036
11
1872.894097
21
226.307741
0
LINE
8
0
10
1872.894097
20
226.307741
11
1886.242363
21
226.596838
0
LINE
8
0
10
1886.242363
20
226.596838
11
1907.032126
21
226.800622
0
LINE
8
0
10
1907.032126
20
226.800622
11
1929.029019
21
226.797128
0
LINE
8
0
10
1929.029019
20
226.797128
11
1949.819529
21
226.586738
0
LINE
8
0
10
1949.819529
20
226.586738
11
1963.168843
21
226.293401
0
LINE
8
0
10
1963.168843
20
226.293401
11
1970.434354
21
226.033388
0
LINE
8
0
10
1970.434354
20
226.033388
11
1976.040668
21
225.721866
0
LINE
8
0
10
1976.040668
20
225.721866
11
1979.686096
21
225.358884
0
LINE
8
0
10
1979.686096
20
225.358884
11
1980.679200
21
225.158111
0
LINE
8
0
10
1980.679200
20
225.158111
11
1982.896548
21
224.269537
0
LINE
8
0
10
1982.896548
20
224.269537
11
1987.562074
21
221.245111
0
LINE
8
0
10
1987.562074
20
221.245111
11
1991.840640
21
217.212449
0
LINE
8
0
10
1991.840640
20
217.212449
11
1994.898566
21
212.957315
0
LINE
8
0
10
1994.898566
20
212.957315
11
1995.709266
21
210.991873
0
LINE
8
0
10
1995.709266
20
210.991873
11
1995.867095
21
210.044514
0
LINE
8
0
10
1995.867095
20
210.044514
11
1996.142074
21
206.238214
0
LINE
8
0
10
1996.142074
20
206.238214
11
1996.407249
21
197.062496
0
LINE
8
0
10
1996.407249
20
197.062496
11
1996.450374
21
189.655484
0
LINE
8
0
10
1996.450374
20
189.655484
11
1996.439829
21
186.643087
0
LINE
8
0
10
1996.439829
20
186.643087
11
1996.399372
21
181.582688
0
LINE
8
0
10
1996.399372
20
181.582688
11
1996.253414
21
176.027188
0
LINE
8
0
10
1996.253414
20
176.027188
11
1995.796443
21
171.366229
0
LINE
8
0
10
1995.796443
20
171.366229
11
1994.895497
21
168.373856
0
LINE
8
0
10
1994.895497
20
168.373856
11
1994.229396
21
167.002210
0
LINE
8
0
10
1994.229396
20
167.002210
11
1991.771426
21
163.324251
0
LINE
8
0
10
1991.771426
20
163.324251
11
1984.909698
21
157.478026
0
LINE
8
0
10
1984.909698
20
157.478026
11
1981.077716
21
155.796914
0
LINE
8
0
10
1981.077716
20
155.796914
11
1980.332305
21
155.674158
0
LINE
8
0
10
1980.332305
20
155.674158
11
1977.022674
21
155.450139
0
LINE
8
0
10
1977.022674
20
155.450139
11
1971.563615
21
155.255099
0
LINE
8
0
10
1971.563615
20
155.255099
11
1964.285912
21
155.089417
0
LINE
8
0
10
1964.285912
20
155.089417
11
1950.682989
21
154.896778
0
LINE
8
0
10
1950.682989
20
154.896778
11
1929.267814
21
154.746245
0
LINE
8
0
10
1929.267814
20
154.746245
11
1906.532160
21
154.720016
0
LINE
8
0
10
1906.532160
20
154.720016
11
1885.122291
21
154.821146
0
LINE
8
0
10
1885.122291
20
154.821146
11
1871.526830
21
154.982409
0
LINE
8
0
10
1871.526830
20
154.982409
11
1864.255760
21
155.131307
0
LINE
8
0
10
1864.255760
20
155.131307
11
1858.804661
21
155.313762
0
LINE
8
0
10
1858.804661
20
155.313762
11
1855.504315
21
155.530154
0
LINE
8
0
10
1855.504315
20
155.530154
11
1854.764045
21
155.651197
0
LINE
8
0
10
1754.000000
20
98.155484
11
1754.000000
21
193.655484
0
LINE
8
0
10
1754.000000
20
193.655484
11
1734.500000
21
193.655484
0
LINE
8
0
10
1734.500000
20
193.655484
11
1715.000000
21
193.655484
0
LINE
8
0
10
1715.000000
20
193.655484
11
1715.000000
21
208.155484
0
LINE
8
0
10
1715.000000
20
208.155484
11
1715.000000
21
222.655484
0
LINE
8
0
10
1715.000000
20
222.655484
11
1768.000000
21
222.655484
0
LINE
8
0
10
1768.000000
20
222.655484
11
1821.000000
21
222.655484
0
LINE
8
0
10
1821.000000
20
222.655484
11
1821.000000
21
208.155484
0
LINE
8
0
10
1821.000000
20
208.155484
11
1821.000000
21
193.655484
0
LINE
8
0
10
1821.000000
20
193.655484
11
1801.500000
21
193.655484
0
LINE
8
0
10
1801.500000
20
193.655484
11
1782.000000
21
193.655484
0
LINE
8
0
10
1782.000000
20
193.655484
11
1782.000000
21
98.155484
0
LINE
8
0
10
1782.000000
20
98.155484
11
1782.000000
21
2.655484
0
LINE
8
0
10
1782.000000
20
2.655484
11
1768.000000
21
2.655484
0
LINE
8
0
10
1768.000000
20
2.655484
11
1754.000000
21
2.655484
0
LINE
8
0
10
1754.000000
20
2.655484
11
1754.000000
21
98.155484
0
LINE
8
0
10
1836.000000
20
253.655484
11
1836.000000
21
267.655484
0
LINE
8
0
10
1836.000000
20
267.655484
11
1918.500000
21
267.655484
0
LINE
8
0
10
1918.500000
20
267.655484
11
2001.000000
21
267.655484
0
LINE
8
0
10
2001.000000
20
267.655484
11
2001.000000
21
253.655484
0
LINE
8
0
10
2001.000000
20
253.655484
11
2001.000000
21
239.655484
0
LINE
8
0
10
2001.000000
20
239.655484
11
1918.500000
21
239.655484
0
LINE
8
0
10
1918.500000
20
239.655484
11
1836.000000
21
239.655484
0
LINE
8
0
10
1836.000000
20
239.655484
11
1836.000000
21
253.655484
0
LINE
8
0
10
1798.000000
20
88.655484
11
1798.000000
21
172.655484
0
LINE
8
0
10
1798.000000
20
172.655484
11
1809.500000
21
172.655484
0
LINE
8
0
10
1809.500000
20
172.655484
11
1821.000000
21
172.655484
0
LINE
8
0
10
1821.000000
20
172.655484
11
1821.000000
21
88.655484
0
LINE
8
0
10
1821.000000
20
88.655484
11
1821.000000
21
4.655484
0
LINE
8
0
10
1821.000000
20
4.655484
11
1809.500000
21
4.655484
0
LINE
8
0
10
1809.500000
20
4.655484
11
1798.000000
21
4.655484
0
LINE
8
0
10
1798.000000
20
4.655484
11
1798.000000
21
88.655484
0
LINE
8
0
10
503.246199
20
208.905484
11
503.467398
21
209.641324
0
LINE
8
0
10
503.467398
20
209.641324
11
504.584227
21
213.673550
0
LINE
8
0
10
504.584227
20
213.673550
11
506.415219
21
220.436245
0
LINE
8
0
10
506.415219
20
220.436245
11
508.738274
21
229.109097
0
LINE
8
0
10
508.738274
20
229.109097
11
510.014919
21
233.905484
0
LINE
8
0
10
510.014919
20
233.905484
11
516.323461
21
257.655484
0
LINE
8
0
10
516.323461
20
257.655484
11
551.661731
21
257.655484
0
LINE
8
0
10
551.661731
20
257.655484
11
558.760444
21
257.647677
0
LINE
8
0
10
558.760444
20
257.647677
11
571.384212
21
257.589932
0
LINE
8
0
10
571.384212
20
257.589932
11
578.904379
21
257.515934
0
LINE
8
0
10
578.904379
20
257.515934
11
582.718600
21
257.454930
0
LINE
8
0
10
582.718600
20
257.454930
11
585.404343
21
257.386418
0
LINE
8
0
10
585.404343
20
257.386418
11
586.816665
21
257.311968
0
LINE
8
0
10
586.816665
20
257.311968
11
587.000000
21
257.273006
0
LINE
8
0
10
587.000000
20
257.273006
11
586.867334
21
256.703086
0
LINE
8
0
10
586.867334
20
256.703086
11
585.885986
21
252.919016
0
LINE
8
0
10
585.885986
20
252.919016
11
584.127686
21
246.280364
0
LINE
8
0
10
584.127686
20
246.280364
11
581.805713
21
237.592394
0
LINE
8
0
10
581.805713
20
237.592394
11
580.500000
21
232.731561
0
LINE
8
0
10
580.500000
20
232.731561
11
579.194287
21
227.869175
0
LINE
8
0
10
579.194287
20
227.869175
11
576.872314
21
219.169719
0
LINE
8
0
10
576.872314
20
219.169719
11
575.114014
21
212.510487
0
LINE
8
0
10
575.114014
20
212.510487
11
574.132666
21
208.699241
0
LINE
8
0
10
574.132666
20
208.699241
11
574.000000
21
208.114039
0
LINE
8
0
10
574.000000
20
208.114039
11
573.815271
21
208.067327
0
LINE
8
0
10
573.815271
20
208.067327
11
572.392209
21
207.978068
0
LINE
8
0
10
572.392209
20
207.978068
11
569.686043
21
207.895928
0
LINE
8
0
10
569.686043
20
207.895928
11
565.842818
21
207.822790
0
LINE
8
0
10
565.842818
20
207.822790
11
558.265466
21
207.734074
0
LINE
8
0
10
558.265466
20
207.734074
11
545.545704
21
207.664843
0
LINE
8
0
10
545.545704
20
207.664843
11
538.393011
21
207.655484
0
LINE
8
0
10
538.393011
20
207.655484
11
533.369449
21
207.658698
0
LINE
8
0
10
533.369449
20
207.658698
11
524.697044
21
207.686414
0
LINE
8
0
10
524.697044
20
207.686414
11
517.732490
21
207.746963
0
LINE
8
0
10
517.732490
20
207.746963
11
512.325653
21
207.845685
0
LINE
8
0
10
512.325653
20
207.845685
11
508.326400
21
207.987919
0
LINE
8
0
10
508.326400
20
207.987919
11
505.584599
21
208.179004
0
LINE
8
0
10
505.584599
20
208.179004
11
503.501203
21
208.568909
0
LINE
8
0
10
503.501203
20
208.568909
11
503.246199
21
208.905484
0
LINE
8
0
10
1712.000000
20
13.822606
11
1712.008292
21
17.138803
0
LINE
8
0
10
1712.008292
20
17.138803
11
1712.163798
21
21.589869
0
LINE
8
0
10
1712.163798
20
21.589869
11
1713.190202
21
24.831632
0
LINE
8
0
10
1713.190202
20
24.831632
11
1714.750000
21
26.272847
0
LINE
8
0
10
1714.750000
20
26.272847
11
1717.500000
21
28.465339
0
LINE
8
0
10
1717.500000
20
28.465339
11
1717.769339
21
100.560411
0
LINE
8
0
10
1717.769339
20
100.560411
11
1718.038678
21
172.655484
0
LINE
8
0
10
1718.038678
20
172.655484
11
1728.519339
21
172.655484
0
LINE
8
0
10
1728.519339
20
172.655484
11
1739.000000
21
172.655484
0
LINE
8
0
10
1739.000000
20
172.655484
11
1739.000000
21
99.333623
0
LINE
8
0
10
1739.000000
20
99.333623
11
1739.000235
21
92.025624
0
LINE
8
0
10
1739.000235
20
92.025624
11
1738.998548
21
78.794090
0
LINE
8
0
10
1738.998548
20
78.794090
11
1738.986062
21
67.295932
0
LINE
8
0
10
1738.986062
20
67.295932
11
1738.953266
21
57.396063
0
LINE
8
0
10
1738.953266
20
57.396063
11
1738.890652
21
48.959396
0
LINE
8
0
10
1738.890652
20
48.959396
11
1738.788709
21
41.850844
0
LINE
8
0
10
1738.788709
20
41.850844
11
1738.541254
21
33.382727
0
LINE
8
0
10
1738.541254
20
33.382727
11
1737.984912
21
25.479489
0
LINE
8
0
10
1737.984912
20
25.479489
11
1737.100089
21
20.457137
0
LINE
8
0
10
1737.100089
20
20.457137
11
1734.990541
21
15.961239
0
LINE
8
0
10
1734.990541
20
15.961239
11
1732.951689
21
13.413042
0
LINE
8
0
10
1732.951689
20
13.413042
11
1731.527528
21
11.929534
0
LINE
8
0
10
1731.527528
20
11.929534
11
1727.663742
21
9.036246
0
LINE
8
0
10
1727.663742
20
9.036246
11
1720.508807
21
5.512408
0
LINE
8
0
10
1720.508807
20
5.512408
11
1715.750000
21
4.198625
0
LINE
8
0
10
1715.750000
20
4.198625
11
1712.000000
21
3.564858
0
LINE
8
0
10
1712.000000
20
3.564858
11
1712.000000
21
13.822606
0
LINE
8
0
10
1715.000000
20
254.655484
11
1715.000000
21
268.655484
0
LINE
8
0
10
1715.000000
20
268.655484
11
1768.000000
21
268.655484
0
LINE
8
0
10
1768.000000
20
268.655484
11
1821.000000
21
268.655484
0
LINE
8
0
10
1821.000000
20
268.655484
11
1821.000000
21
254.655484
0
LINE
8
0
10
1821.000000
20
254.655484
11
1821.000000
21
240.655484
0
LINE
8
0
10
1821.000000
20
240.655484
11
1768.000000
21
240.655484
0
LINE
8
0
10
1768.000000
20
240.655484
11
1715.000000
21
240.655484
0
LINE
8
0
10
1715.000000
20
240.655484
11
1715.000000
21
254.655484
0
LINE
8
0
10
1636.374529
20
10.146777
11
1630.175559
21
11.888408
0
LINE
8
0
10
1630.175559
20
11.888408
11
1619.133001
21
17.363616
0
LINE
8
0
10
1619.133001
20
17.363616
11
1610.143572
21
25.278204
0
LINE
8
0
10
1610.143572
20
25.278204
11
1603.502420
21
35.372313
0
LINE
8
0
10
1603.502420
20
35.372313
11
1601.154681
21
41.155484
0
LINE
8
0
10
1601.154681
20
41.155484
11
1600.668953
21
42.922036
0
LINE
8
0
10
1600.668953
20
42.922036
11
1599.334384
21
49.217251
0
LINE
8
0
10
1599.334384
20
49.217251
11
1597.682631
21
58.279263
0
LINE
8
0
10
1597.682631
20
58.279263
11
1595.914052
21
69.008853
0
LINE
8
0
10
1595.914052
20
69.008853
11
1595.048564
21
74.655484
0
LINE
8
0
10
1595.048564
20
74.655484
11
1594.212540
21
80.236353
0
LINE
8
0
10
1594.212540
20
80.236353
11
1592.661915
21
90.479493
0
LINE
8
0
10
1592.661915
20
90.479493
11
1591.400676
21
98.669923
0
LINE
8
0
10
1591.400676
20
98.669923
11
1590.736689
21
102.868004
0
LINE
8
0
10
1590.736689
20
102.868004
11
1590.464144
21
104.507807
0
LINE
8
0
10
1590.464144
20
104.507807
11
1590.386078
21
104.933462
0
LINE
8
0
10
1590.386078
20
104.933462
11
1589.828799
21
107.711441
0
LINE
8
0
10
1589.828799
20
107.711441
11
1604.164400
21
107.433462
0
LINE
8
0
10
1604.164400
20
107.433462
11
1618.500000
21
107.155484
0
LINE
8
0
10
1618.500000
20
107.155484
11
1622.238693
21
81.155484
0
LINE
8
0
10
1622.238693
20
81.155484
11
1623.021637
21
75.847499
0
LINE
8
0
10
1623.021637
20
75.847499
11
1624.593307
21
65.929870
0
LINE
8
0
10
1624.593307
20
65.929870
11
1626.027695
21
57.768350
0
LINE
8
0
10
1626.027695
20
57.768350
11
1627.150811
21
52.352931
0
LINE
8
0
10
1627.150811
20
52.352931
11
1627.541270
21
50.984380
0
LINE
8
0
10
1627.541270
20
50.984380
11
1628.545526
21
48.870536
0
LINE
8
0
10
1628.545526
20
48.870536
11
1631.667515
21
44.665515
0
LINE
8
0
10
1631.667515
20
44.665515
11
1635.775085
21
40.942989
0
LINE
8
0
10
1635.775085
20
40.942989
11
1640.269372
21
38.245683
0
LINE
8
0
10
1640.269372
20
38.245683
11
1642.474390
21
37.451090
0
LINE
8
0
10
1642.474390
20
37.451090
11
1647.000000
21
36.240674
0
LINE
8
0
10
1647.000000
20
36.240674
11
1647.000000
21
22.448079
0
LINE
8
0
10
1647.000000
20
22.448079
11
1647.007180
21
19.672758
0
LINE
8
0
10
1647.007180
20
19.672758
11
1647.006194
21
15.217805
0
LINE
8
0
10
1647.006194
20
15.217805
11
1646.854921
21
12.073466
0
LINE
8
0
10
1646.854921
20
12.073466
11
1646.397567
21
10.059375
0
LINE
8
0
10
1646.397567
20
10.059375
11
1644.796839
21
8.762909
0
LINE
8
0
10
1644.796839
20
8.762909
11
1641.631093
21
8.994953
0
LINE
8
0
10
1641.631093
20
8.994953
11
1638.391487
21
9.698214
0
LINE
8
0
10
1638.391487
20
9.698214
11
1636.374529
21
10.146777
0
LINE
8
0
10
1359.000000
20
22.426912
11
1359.000000
21
36.456002
0
LINE
8
0
10
1359.000000
20
36.456002
11
1364.058484
21
37.669514
0
LINE
8
0
10
1364.058484
20
37.669514
11
1367.043805
21
38.591722
0
LINE
8
0
10
1367.043805
20
38.591722
11
1372.064559
21
41.485750
0
LINE
8
0
10
1372.064559
20
41.485750
11
1375.920215
21
45.895251
0
LINE
8
0
10
1375.920215
20
45.895251
11
1378.732476
21
51.959411
0
LINE
8
0
10
1378.732476
20
51.959411
11
1379.785367
21
55.655484
0
LINE
8
0
10
1379.785367
20
55.655484
11
1380.066042
21
57.008462
0
LINE
8
0
10
1380.066042
20
57.008462
11
1380.922606
21
61.937466
0
LINE
8
0
10
1380.922606
20
61.937466
11
1382.687255
21
73.258218
0
LINE
8
0
10
1382.687255
20
73.258218
11
1383.982705
21
82.155484
0
LINE
8
0
10
1383.982705
20
82.155484
11
1384.619366
21
86.610537
0
LINE
8
0
10
1384.619366
20
86.610537
11
1385.810916
21
94.733731
0
LINE
8
0
10
1385.810916
20
94.733731
11
1386.794056
21
101.158291
0
LINE
8
0
10
1386.794056
20
101.158291
11
1387.449534
21
105.104922
0
LINE
8
0
10
1387.449534
20
105.104922
11
1387.617131
21
105.905484
0
LINE
8
0
10
1387.617131
20
105.905484
11
1387.861558
21
106.428042
0
LINE
8
0
10
1387.861558
20
106.428042
11
1389.120900
21
107.143934
0
LINE
8
0
10
1389.120900
20
107.143934
11
1392.165219
21
107.512616
0
LINE
8
0
10
1392.165219
20
107.512616
11
1397.903707
21
107.644197
0
LINE
8
0
10
1397.903707
20
107.644197
11
1402.067388
21
107.655484
0
LINE
8
0
10
1402.067388
20
107.655484
11
1407.477160
21
107.610879
0
LINE
8
0
10
1407.477160
20
107.610879
11
1413.612135
21
107.405688
0
LINE
8
0
10
1413.612135
20
107.405688
11
1415.715633
21
107.203753
0
LINE
8
0
10
1415.715633
20
107.203753
11
1416.000000
21
107.090200
0
LINE
8
0
10
1416.000000
20
107.090200
11
1415.903047
21
105.751991
0
LINE
8
0
10
1415.903047
20
105.751991
11
1415.196254
21
100.282462
0
LINE
8
0
10
1415.196254
20
100.282462
11
1413.958563
21
92.011598
0
LINE
8
0
10
1413.958563
20
92.011598
11
1412.373519
21
82.046775
0
LINE
8
0
10
1412.373519
20
82.046775
11
1410.624664
21
71.495372
0
LINE
8
0
10
1410.624664
20
71.495372
11
1408.895542
21
61.464764
0
LINE
8
0
10
1408.895542
20
61.464764
11
1407.369697
21
53.062328
0
LINE
8
0
10
1407.369697
20
53.062328
11
1406.230672
21
47.395442
0
LINE
8
0
10
1406.230672
20
47.395442
11
1405.863574
21
45.933885
0
LINE
8
0
10
1405.863574
20
45.933885
11
1404.515403
21
41.937915
0
LINE
8
0
10
1404.515403
20
41.937915
11
1401.328570
21
34.633285
0
LINE
8
0
10
1401.328570
20
34.633285
11
1397.481950
21
28.239936
0
LINE
8
0
10
1397.481950
20
28.239936
11
1392.968579
21
22.751707
0
LINE
8
0
10
1392.968579
20
22.751707
11
1387.781496
21
18.162439
0
LINE
8
0
10
1387.781496
20
18.162439
11
1381.913737
21
14.465970
0
LINE
8
0
10
1381.913737
20
14.465970
11
1375.358339
21
11.656141
0
LINE
8
0
10
1375.358339
20
11.656141
11
1368.108341
21
9.726791
0
LINE
8
0
10
1368.108341
20
9.726791
11
1364.220691
21
9.090372
0
LINE
8
0
10
1364.220691
20
9.090372
11
1359.000000
21
8.397822
0
LINE
8
0
10
1359.000000
20
8.397822
11
1359.000000
21
22.426912
0
LINE
8
0
10
1375.000000
20
188.655484
11
1375.000000
21
202.655484
0
LINE
8
0
10
1375.000000
20
202.655484
11
1408.000000
21
202.655484
0
LINE
8
0
10
1408.000000
20
202.655484
11
1441.000000
21
202.655484
0
LINE
8
0
10
1441.000000
20
202.655484
11
1441.000000
21
188.655484
0
LINE
8
0
10
1441.000000
20
188.655484
11
1441.000000
21
174.655484
0
LINE
8
0
10
1441.000000
20
174.655484
11
1408.000000
21
174.655484
0
LINE
8
0
10
1408.000000
20
174.655484
11
1375.000000
21
174.655484
0
LINE
8
0
10
1375.000000
20
174.655484
11
1375.000000
21
188.655484
0
LINE
8
0
10
1567.000000
20
188.655484
11
1567.000000
21
202.655484
0
LINE
8
0
10
1567.000000
20
202.655484
11
1599.000000
21
202.655484
0
LINE
8
0
10
1599.000000
20
202.655484
11
1631.000000
21
202.655484
0
LINE
8
0
10
1631.000000
20
202.655484
11
1631.000000
21
188.655484
0
LINE
8
0
10
1631.000000
20
188.655484
11
1631.000000
21
174.655484
0
LINE
8
0
10
1631.000000
20
174.655484
11
1599.000000
21
174.655484
0
LINE
8
0
10
1599.000000
20
174.655484
11
1567.000000
21
174.655484
0
LINE
8
0
10
1567.000000
20
174.655484
11
1567.000000
21
188.655484
0
LINE
8
0
10
1027.761843
20
45.684852
11
1031.308819
21
46.238607
0
LINE
8
0
10
1031.308819
20
46.238607
11
1038.109917
21
47.827418
0
LINE
8
0
10
1038.109917
20
47.827418
11
1040.526367
21
48.666786
0
LINE
8
0
10
1040.526367
20
48.666786
11
1043.056562
21
49.961532
0
LINE
8
0
10
1043.056562
20
49.961532
11
1048.256084
21
53.750856
0
LINE
8
0
10
1048.256084
20
53.750856
11
1053.171587
21
58.670068
0
LINE
8
0
10
1053.171587
20
58.670068
11
1057.239632
21
64.155305
0
LINE
8
0
10
1057.239632
20
64.155305
11
1058.779783
21
66.933976
0
LINE
8
0
10
1058.779783
20
66.933976
11
1059.915278
21
69.492430
0
LINE
8
0
10
1059.915278
20
69.492430
11
1062.380965
21
76.073596
0
LINE
8
0
10
1062.380965
20
76.073596
11
1064.526688
21
82.792362
0
LINE
8
0
10
1064.526688
20
82.792362
11
1065.507634
21
86.611722
0
LINE
8
0
10
1065.507634
20
86.611722
11
1065.699384
21
88.066751
0
LINE
8
0
10
1065.699384
20
88.066751
11
1065.623995
21
88.364822
0
LINE
8
0
10
1065.623995
20
88.364822
11
1065.314434
21
88.360940
0
LINE
8
0
10
1065.314434
20
88.360940
11
1063.396385
21
87.960413
0
LINE
8
0
10
1063.396385
20
87.960413
11
1058.025915
21
86.568619
0
LINE
8
0
10
1058.025915
20
86.568619
11
1053.369723
21
85.261901
0
LINE
8
0
10
1053.369723
20
85.261901
11
1048.426074
21
83.876345
0
LINE
8
0
10
1048.426074
20
83.876345
11
1041.733230
21
82.121876
0
LINE
8
0
10
1041.733230
20
82.121876
11
1038.513798
21
81.364430
0
LINE
8
0
10
1038.513798
20
81.364430
11
1037.472432
21
81.159842
0
LINE
8
0
10
1037.472432
20
81.159842
11
1032.871548
21
80.191688
0
LINE
8
0
10
1032.871548
20
80.191688
11
1023.441842
21
77.205573
0
LINE
8
0
10
1023.441842
20
77.205573
11
1014.838958
21
73.329217
0
LINE
8
0
10
1014.838958
20
73.329217
11
1008.419788
21
69.174017
0
LINE
8
0
10
1008.419788
20
69.174017
11
1006.453124
21
67.182913
0
LINE
8
0
10
1006.453124
20
67.182913
11
1004.576959
21
63.827745
0
LINE
8
0
10
1004.576959
20
63.827745
11
1003.253102
21
57.998253
0
LINE
8
0
10
1003.253102
20
57.998253
11
1003.489256
21
54.311322
0
LINE
8
0
10
1003.489256
20
54.311322
11
1003.975127
21
52.715533
0
LINE
8
0
10
1003.975127
20
52.715533
11
1005.521815
21
50.150961
0
LINE
8
0
10
1005.521815
20
50.150961
11
1010.929381
21
46.654697
0
LINE
8
0
10
1010.929381
20
46.654697
11
1014.866843
21
45.673491
0
LINE
8
0
10
1014.866843
20
45.673491
11
1016.667881
21
45.360275
0
LINE
8
0
10
1016.667881
20
45.360275
11
1019.150463
21
44.880537
0
LINE
8
0
10
1019.150463
20
44.880537
11
1019.526234
21
44.773103
0
LINE
8
0
10
1019.526234
20
44.773103
11
1019.699059
21
44.770485
0
LINE
8
0
10
1019.699059
20
44.770485
11
1020.947854
21
44.883879
0
LINE
8
0
10
1020.947854
20
44.883879
11
1024.572227
21
45.294449
0
LINE
8
0
10
1024.572227
20
45.294449
11
1027.761843
21
45.684852
0
LINE
8
0
10
328.000000
20
47.730432
11
332.610790
21
49.397552
0
LINE
8
0
10
332.610790
20
49.397552
11
340.538395
21
54.233111
0
LINE
8
0
10
340.538395
20
54.233111
11
346.914055
21
61.261533
0
LINE
8
0
10
346.914055
20
61.261533
11
351.945802
21
70.712147
0
LINE
8
0
10
351.945802
20
70.712147
11
354.022717
21
76.417441
0
LINE
8
0
10
354.022717
20
76.417441
11
355.019296
21
79.577075
0
LINE
8
0
10
355.019296
20
79.577075
11
356.377803
21
84.320931
0
LINE
8
0
10
356.377803
20
84.320931
11
356.936207
21
87.202068
0
LINE
8
0
10
356.936207
20
87.202068
11
356.749819
21
88.505885
0
LINE
8
0
10
356.749819
20
88.505885
11
356.394614
21
88.655484
0
LINE
8
0
10
356.394614
20
88.655484
11
356.106772
21
88.604843
0
LINE
8
0
10
356.106772
20
88.604843
11
354.660866
21
88.230244
0
LINE
8
0
10
354.660866
20
88.230244
11
350.854784
21
87.137704
0
LINE
8
0
10
350.854784
20
87.137704
11
347.644614
21
86.174312
0
LINE
8
0
10
347.644614
20
86.174312
11
345.773816
21
85.624175
0
LINE
8
0
10
345.773816
20
85.624175
11
341.128113
21
84.355242
0
LINE
8
0
10
341.128113
20
84.355242
11
333.107895
21
82.338751
0
LINE
8
0
10
333.107895
20
82.338751
11
328.000000
21
81.159019
0
LINE
8
0
10
328.000000
20
81.159019
11
321.617338
21
79.560353
0
LINE
8
0
10
321.617338
20
79.560353
11
310.502678
21
75.628187
0
LINE
8
0
10
310.502678
20
75.628187
11
301.955757
21
70.918401
0
LINE
8
0
10
301.955757
20
70.918401
11
296.416801
21
65.673581
0
LINE
8
0
10
296.416801
20
65.673581
11
294.912880
21
62.926341
0
LINE
8
0
10
294.912880
20
62.926341
11
294.127456
21
59.943790
0
LINE
8
0
10
294.127456
20
59.943790
11
294.578722
21
54.344539
0
LINE
8
0
10
294.578722
20
54.344539
11
297.440061
21
49.697687
0
LINE
8
0
10
297.440061
20
49.697687
11
302.368179
21
46.560746
0
LINE
8
0
10
302.368179
20
46.560746
11
305.500000
21
45.732717
0
LINE
8
0
10
305.500000
20
45.732717
11
310.658646
21
45.257073
0
LINE
8
0
10
310.658646
20
45.257073
11
322.024424
21
46.266210
0
LINE
8
0
10
322.024424
20
46.266210
11
328.000000
21
47.730432
0
LINE
8
0
10
1903.000000
20
44.655484
11
1903.000000
21
57.655484
0
LINE
8
0
10
1903.000000
20
57.655484
11
1882.911524
21
57.655484
0
LINE
8
0
10
1882.911524
20
57.655484
11
1862.823048
21
57.655484
0
LINE
8
0
10
1862.823048
20
57.655484
11
1863.161524
21
46.565195
0
LINE
8
0
10
1863.161524
20
46.565195
11
1863.241842
21
43.864762
0
LINE
8
0
10
1863.241842
20
43.864762
11
1863.464441
21
39.481579
0
LINE
8
0
10
1863.464441
20
39.481579
11
1864.009217
21
36.296203
0
LINE
8
0
10
1864.009217
20
36.296203
11
1865.163640
21
34.117710
0
LINE
8
0
10
1865.163640
20
34.117710
11
1867.215184
21
32.755174
0
LINE
8
0
10
1867.215184
20
32.755174
11
1870.451320
21
32.017670
0
LINE
8
0
10
1870.451320
20
32.017670
11
1875.159520
21
31.714274
0
LINE
8
0
10
1875.159520
20
31.714274
11
1881.627255
21
31.654061
0
LINE
8
0
10
1881.627255
20
31.654061
11
1885.610784
21
31.655484
0
LINE
8
0
10
1885.610784
20
31.655484
11
1903.000000
21
31.655484
0
LINE
8
0
10
1903.000000
20
31.655484
11
1903.000000
21
44.655484
0
LINE
8
0
10
1969.095630
20
33.723578
11
1970.773967
21
35.090414
0
LINE
8
0
10
1970.773967
20
35.090414
11
1971.846370
21
38.354148
0
LINE
8
0
10
1971.846370
20
38.354148
11
1971.994254
21
43.113029
0
LINE
8
0
10
1971.994254
20
43.113029
11
1972.000000
21
46.723578
0
LINE
8
0
10
1972.000000
20
46.723578
11
1972.000000
21
57.655484
0
LINE
8
0
10
1972.000000
20
57.655484
11
1951.500000
21
57.655484
0
LINE
8
0
10
1951.500000
20
57.655484
11
1931.000000
21
57.655484
0
LINE
8
0
10
1931.000000
20
57.655484
11
1931.000000
21
45.322150
0
LINE
8
0
10
1931.000000
20
45.322150
11
1931.052604
21
40.480744
0
LINE
8
0
10
1931.052604
20
40.480744
11
1931.294596
21
34.807990
0
LINE
8
0
10
1931.294596
20
34.807990
11
1931.532747
21
32.707795
0
LINE
8
0
10
1931.532747
20
32.707795
11
1931.666667
21
32.322150
0
LINE
8
0
10
1931.666667
20
32.322150
11
1932.146109
21
32.188231
0
LINE
8
0
10
1932.146109
20
32.188231
11
1934.940136
21
31.950080
0
LINE
8
0
10
1934.940136
20
31.950080
11
1939.699892
21
31.769742
0
LINE
8
0
10
1939.699892
20
31.769742
11
1945.848018
21
31.669091
0
LINE
8
0
10
1945.848018
20
31.669091
11
1949.262296
21
31.655484
0
LINE
8
0
10
1949.262296
20
31.655484
11
1952.012071
21
31.657891
0
LINE
8
0
10
1952.012071
20
31.657891
11
1956.624705
21
31.683951
0
LINE
8
0
10
1956.624705
20
31.683951
11
1961.652722
21
31.810190
0
LINE
8
0
10
1961.652722
20
31.810190
11
1965.740784
21
32.236467
0
LINE
8
0
10
1965.740784
20
32.236467
11
1968.115575
21
33.090649
0
LINE
8
0
10
1968.115575
20
33.090649
11
1969.095630
21
33.723578
0
LINE
8
0
10
1903.000000
20
98.155484
11
1903.000000
21
110.655484
0
LINE
8
0
10
1903.000000
20
110.655484
11
1885.610784
21
110.655484
0
LINE
8
0
10
1885.610784
20
110.655484
11
1881.644255
21
110.656166
0
LINE
8
0
10
1881.644255
20
110.656166
11
1875.198095
21
110.593261
0
LINE
8
0
10
1875.198095
20
110.593261
11
1870.497759
21
110.292739
0
LINE
8
0
10
1870.497759
20
110.292739
11
1867.259194
21
109.572292
0
LINE
8
0
10
1867.259194
20
109.572292
11
1865.198352
21
108.249612
0
LINE
8
0
10
1865.198352
20
108.249612
11
1864.031179
21
106.142391
0
LINE
8
0
10
1864.031179
20
106.142391
11
1863.473627
21
103.068322
0
LINE
8
0
10
1863.473627
20
103.068322
11
1863.241644
21
98.845095
0
LINE
8
0
10
1863.241644
20
98.845095
11
1863.158975
21
96.245576
0
LINE
8
0
10
1863.158975
20
96.245576
11
1862.817950
21
85.655484
0
LINE
8
0
10
1862.817950
20
85.655484
11
1882.908975
21
85.655484
0
LINE
8
0
10
1882.908975
20
85.655484
11
1903.000000
21
85.655484
0
LINE
8
0
10
1903.000000
20
85.655484
11
1903.000000
21
98.155484
0
LINE
8
0
10
1972.000000
20
95.964354
11
1972.008290
21
98.586143
0
LINE
8
0
10
1972.008290
20
98.586143
11
1971.961920
21
102.820462
0
LINE
8
0
10
1971.961920
20
102.820462
11
1971.581205
21
105.874787
0
LINE
8
0
10
1971.581205
20
105.874787
11
1970.565650
21
107.947942
0
LINE
8
0
10
1970.565650
20
107.947942
11
1968.614757
21
109.238749
0
LINE
8
0
10
1968.614757
20
109.238749
11
1965.428031
21
109.946031
0
LINE
8
0
10
1965.428031
20
109.946031
11
1960.704975
21
110.268612
0
LINE
8
0
10
1960.704975
20
110.268612
11
1954.145093
21
110.405315
0
LINE
8
0
10
1954.145093
20
110.405315
11
1950.082438
21
110.466094
0
LINE
8
0
10
1950.082438
20
110.466094
11
1931.000000
21
110.776705
0
LINE
8
0
10
1931.000000
20
110.776705
11
1931.000000
21
98.216094
0
LINE
8
0
10
1931.000000
20
98.216094
11
1931.000000
21
85.655484
0
LINE
8
0
10
1931.000000
20
85.655484
11
1951.500000
21
85.655484
0
LINE
8
0
10
1951.500000
20
85.655484
11
1972.000000
21
85.655484
0
LINE
8
0
10
1972.000000
20
85.655484
11
1972.000000
21
95.964354
0
LINE
8
0
10
1968.545455
20
182.110029
11
1969.791299
21
183.583810
0
LINE
8
0
10
1969.791299
20
183.583810
11
1970.903918
21
187.335909
0
LINE
8
0
10
1970.903918
20
187.335909
11
1971.000000
21
190.387523
0
LINE
8
0
10
1971.000000
20
190.387523
11
1970.894051
21
192.989206
0
LINE
8
0
10
1970.894051
20
192.989206
11
1970.098390
21
197.101392
0
LINE
8
0
10
1970.098390
20
197.101392
11
1969.443296
21
198.432977
0
LINE
8
0
10
1969.443296
20
198.432977
11
1967.886592
21
200.655484
0
LINE
8
0
10
1967.886592
20
200.655484
11
1918.514725
21
200.655484
0
LINE
8
0
10
1918.514725
20
200.655484
11
1910.780987
21
200.653064
0
LINE
8
0
10
1910.780987
20
200.653064
11
1897.760364
21
200.629247
0
LINE
8
0
10
1897.760364
20
200.629247
11
1887.680703
21
200.570206
0
LINE
8
0
10
1887.680703
20
200.570206
11
1880.156195
21
200.464042
0
LINE
8
0
10
1880.156195
20
200.464042
11
1874.801031
21
200.298853
0
LINE
8
0
10
1874.801031
20
200.298853
11
1871.229403
21
200.062739
0
LINE
8
0
10
1871.229403
20
200.062739
11
1868.372132
21
199.549549
0
LINE
8
0
10
1868.372132
20
199.549549
11
1867.571429
21
199.084055
0
LINE
8
0
10
1867.571429
20
199.084055
11
1866.843120
21
197.958818
0
LINE
8
0
10
1866.843120
20
197.958818
11
1866.084611
21
193.642004
0
LINE
8
0
10
1866.084611
20
193.642004
11
1866.000000
21
190.140759
0
LINE
8
0
10
1866.000000
20
190.140759
11
1866.015317
21
187.951579
0
LINE
8
0
10
1866.015317
20
187.951579
11
1866.187761
21
184.827213
0
LINE
8
0
10
1866.187761
20
184.827213
11
1867.050514
21
182.273088
0
LINE
8
0
10
1867.050514
20
182.273088
11
1868.222506
21
181.212188
0
LINE
8
0
10
1868.222506
20
181.212188
11
1869.219917
21
180.755904
0
LINE
8
0
10
1869.219917
20
180.755904
11
1872.295738
21
180.250158
0
LINE
8
0
10
1872.295738
20
180.250158
11
1875.924307
21
180.015787
0
LINE
8
0
10
1875.924307
20
180.015787
11
1881.235199
21
179.850587
0
LINE
8
0
10
1881.235199
20
179.850587
11
1888.588334
21
179.743364
0
LINE
8
0
10
1888.588334
20
179.743364
11
1898.343632
21
179.682922
0
LINE
8
0
10
1898.343632
20
179.682922
11
1910.861014
21
179.658066
0
LINE
8
0
10
1910.861014
20
179.658066
11
1918.267961
21
179.655484
0
LINE
8
0
10
1918.267961
20
179.655484
11
1966.090909
21
179.655484
0
LINE
8
0
10
1966.090909
20
179.655484
11
1968.545455
21
182.110029
0
ENDSEC
0
EOF
