999
DXF File generated by ImageToStl.com - Free Image and 3D model conversion tools
0
SECTION
2
HEADER
9
$ACADVER
1
AC1009
9
$EXTMIN
10
0
20
0
9
$EXTMAX
10
320.242460
20
121.328028
0
ENDSEC
0
SECTION
2
ENTITIES
0
LINE
8
0
10
214.000000
20
59.865457
11
214.000000
21
73.550434
0
LINE
8
0
10
214.000000
20
73.550434
11
228.477437
21
73.176079
0
LINE
8
0
10
228.477437
20
73.176079
11
231.652859
21
73.092206
0
LINE
8
0
10
231.652859
20
73.092206
11
236.833440
21
72.889136
0
LINE
8
0
10
236.833440
20
72.889136
11
240.637871
21
72.511990
0
LINE
8
0
10
240.637871
20
72.511990
11
243.287187
21
71.808392
0
LINE
8
0
10
243.287187
20
71.808392
11
245.578845
21
69.807575
0
LINE
8
0
10
245.578845
20
69.807575
11
246.514835
21
66.215129
0
LINE
8
0
10
246.514835
20
66.215129
11
246.754076
21
62.681966
0
LINE
8
0
10
246.754076
20
62.681966
11
246.841161
21
60.516784
0
LINE
8
0
10
246.841161
20
60.516784
11
246.925587
21
57.951217
0
LINE
8
0
10
246.925587
20
57.951217
11
246.902177
21
54.208764
0
LINE
8
0
10
246.902177
20
54.208764
11
246.212734
21
50.892969
0
LINE
8
0
10
246.212734
20
50.892969
11
245.181809
21
49.301391
0
LINE
8
0
10
245.181809
20
49.301391
11
244.492231
21
48.506223
0
LINE
8
0
10
244.492231
20
48.506223
11
242.807138
21
47.446231
0
LINE
8
0
10
242.807138
20
47.446231
11
239.539969
21
46.895413
0
LINE
8
0
10
239.539969
20
46.895413
11
235.203757
21
46.673545
0
LINE
8
0
10
235.203757
20
46.673545
11
231.084699
21
46.561029
0
LINE
8
0
10
231.084699
20
46.561029
11
228.590648
21
46.504254
0
LINE
8
0
10
228.590648
20
46.504254
11
214.000000
21
46.180480
0
LINE
8
0
10
214.000000
20
46.180480
11
214.000000
21
59.865457
0
LINE
8
0
10
177.860784
20
48.239675
11
176.571010
21
49.534563
0
LINE
8
0
10
176.571010
20
49.534563
11
175.671403
21
52.661067
0
LINE
8
0
10
175.671403
20
52.661067
11
175.511908
21
56.747885
0
LINE
8
0
10
175.511908
20
56.747885
11
175.500000
21
59.703961
0
LINE
8
0
10
175.500000
20
59.703961
11
175.503121
21
62.024689
0
LINE
8
0
10
175.503121
20
62.024689
11
175.601133
21
65.812374
0
LINE
8
0
10
175.601133
20
65.812374
11
176.342807
21
69.652068
0
LINE
8
0
10
176.342807
20
69.652068
11
178.382432
21
71.749712
0
LINE
8
0
10
178.382432
20
71.749712
11
180.787915
21
72.440419
0
LINE
8
0
10
180.787915
20
72.440419
11
184.257237
21
72.747008
0
LINE
8
0
10
184.257237
20
72.747008
11
188.985188
21
72.825528
0
LINE
8
0
10
188.985188
20
72.825528
11
191.882020
21
72.828028
0
LINE
8
0
10
191.882020
20
72.828028
11
195.149230
21
72.810309
0
LINE
8
0
10
195.149230
20
72.810309
11
200.264689
21
72.658974
0
LINE
8
0
10
200.264689
20
72.658974
11
203.712518
21
72.331826
0
LINE
8
0
10
203.712518
20
72.331826
11
205.761906
21
71.803324
0
LINE
8
0
10
205.761906
20
71.803324
11
206.346305
21
71.455583
0
LINE
8
0
10
206.346305
20
71.455583
11
207.171184
21
70.336864
0
LINE
8
0
10
207.171184
20
70.336864
11
207.830816
21
66.851099
0
LINE
8
0
10
207.830816
20
66.851099
11
207.984018
21
62.625134
0
LINE
8
0
10
207.984018
20
62.625134
11
208.000000
21
59.762287
0
LINE
8
0
10
208.000000
20
59.762287
11
207.995739
21
57.401610
0
LINE
8
0
10
207.995739
20
57.401610
11
207.891242
21
53.543078
0
LINE
8
0
10
207.891242
20
53.543078
11
207.142504
21
49.618791
0
LINE
8
0
10
207.142504
20
49.618791
11
205.120090
21
47.461038
0
LINE
8
0
10
205.120090
20
47.461038
11
202.751278
21
46.743012
0
LINE
8
0
10
202.751278
20
46.743012
11
199.346982
21
46.418712
0
LINE
8
0
10
199.346982
20
46.418712
11
194.719441
21
46.331581
0
LINE
8
0
10
194.719441
20
46.331581
11
191.888278
21
46.328028
0
LINE
8
0
10
191.888278
20
46.328028
11
188.498271
21
46.342983
0
LINE
8
0
10
188.498271
20
46.342983
11
183.590061
21
46.500975
0
LINE
8
0
10
183.590061
20
46.500975
11
179.500168
21
47.249925
0
LINE
8
0
10
179.500168
20
47.249925
11
177.860784
21
48.239675
0
LINE
8
0
10
45.601124
20
2.854575
11
41.807282
21
3.960024
0
LINE
8
0
10
41.807282
20
3.960024
11
34.562375
21
6.927158
0
LINE
8
0
10
34.562375
20
6.927158
11
27.837381
21
10.838463
0
LINE
8
0
10
27.837381
20
10.838463
11
21.707750
21
15.616969
0
LINE
8
0
10
21.707750
20
15.616969
11
16.248931
21
21.185709
0
LINE
8
0
10
16.248931
20
21.185709
11
11.536376
21
27.467711
0
LINE
8
0
10
11.536376
20
27.467711
11
7.645534
21
34.386006
0
LINE
8
0
10
7.645534
20
34.386006
11
4.651857
21
41.863624
0
LINE
8
0
10
4.651857
20
41.863624
11
3.515032
21
45.788127
0
LINE
8
0
10
3.515032
20
45.788127
11
2.917331
21
48.853751
0
LINE
8
0
10
2.917331
20
48.853751
11
2.194555
21
56.716562
0
LINE
8
0
10
2.194555
20
56.716562
11
2.136182
21
60.788127
0
LINE
8
0
10
2.136182
20
60.788127
11
2.223859
21
64.116000
0
LINE
8
0
10
2.223859
20
64.116000
11
2.443913
21
67.258616
0
LINE
8
0
10
2.443913
20
67.258616
11
2.622020
21
67.798787
0
LINE
8
0
10
2.622020
20
67.798787
11
2.713393
21
67.519573
0
LINE
8
0
10
2.713393
20
67.519573
11
3.030789
21
66.547536
0
LINE
8
0
10
3.030789
20
66.547536
11
4.115123
21
65.570293
0
LINE
8
0
10
4.115123
20
65.570293
11
5.464303
21
65.820194
0
LINE
8
0
10
5.464303
20
65.820194
11
6.676873
21
67.222880
0
LINE
8
0
10
6.676873
20
67.222880
11
7.106475
21
68.333279
0
LINE
8
0
10
7.106475
20
68.333279
11
7.252391
21
68.664896
0
LINE
8
0
10
7.252391
20
68.664896
11
7.517315
21
68.172729
0
LINE
8
0
10
7.517315
20
68.172729
11
7.728883
21
66.295121
0
LINE
8
0
10
7.728883
20
66.295121
11
7.866125
21
63.218184
0
LINE
8
0
10
7.866125
20
63.218184
11
7.900320
21
61.288127
0
LINE
8
0
10
7.900320
20
61.288127
11
8.026976
21
57.158549
0
LINE
8
0
10
8.026976
20
57.158549
11
8.821929
21
49.755767
0
LINE
8
0
10
8.821929
20
49.755767
11
10.454141
21
43.019945
0
LINE
8
0
10
10.454141
20
43.019945
11
13.061696
21
36.381240
0
LINE
8
0
10
13.061696
20
36.381240
11
14.774378
21
32.920229
0
LINE
8
0
10
14.774378
20
32.920229
11
17.775341
21
27.943832
0
LINE
8
0
10
17.775341
20
27.943832
11
25.466716
21
18.980761
0
LINE
8
0
10
25.466716
20
18.980761
11
34.865998
21
11.756002
0
LINE
8
0
10
34.865998
20
11.756002
11
45.319552
21
6.771970
0
LINE
8
0
10
45.319552
20
6.771970
11
50.737420
21
5.277232
0
LINE
8
0
10
50.737420
20
5.277232
11
55.505477
21
4.607794
0
LINE
8
0
10
55.505477
20
4.607794
11
65.926236
21
4.843620
0
LINE
8
0
10
65.926236
20
4.843620
11
76.595978
21
6.991705
0
LINE
8
0
10
76.595978
20
6.991705
11
86.398054
21
10.827241
0
LINE
8
0
10
86.398054
20
10.827241
11
90.624765
21
13.307550
0
LINE
8
0
10
90.624765
20
13.307550
11
92.388277
21
14.443721
0
LINE
8
0
10
92.388277
20
14.443721
11
94.259990
21
15.342226
0
LINE
8
0
10
94.259990
20
15.342226
11
94.137658
21
14.993895
0
LINE
8
0
10
94.137658
20
14.993895
11
92.975430
21
13.841932
0
LINE
8
0
10
92.975430
20
13.841932
11
89.224133
21
11.122072
0
LINE
8
0
10
89.224133
20
11.122072
11
81.526674
21
6.869220
0
LINE
8
0
10
81.526674
20
6.869220
11
76.178710
21
4.592763
0
LINE
8
0
10
76.178710
20
4.592763
11
72.759315
21
3.535451
0
LINE
8
0
10
72.759315
20
3.535451
11
64.984041
21
2.107252
0
LINE
8
0
10
64.984041
20
2.107252
11
56.748422
21
1.639096
0
LINE
8
0
10
56.748422
20
1.639096
11
48.998413
21
2.184759
0
LINE
8
0
10
48.998413
20
2.184759
11
45.601124
21
2.854575
0
LINE
8
0
10
2.789215
20
67.519573
11
2.705870
21
69.229746
0
LINE
8
0
10
2.705870
20
69.229746
11
3.348799
21
73.874813
0
LINE
8
0
10
3.348799
20
73.874813
11
5.957003
21
82.518308
0
LINE
8
0
10
5.957003
20
82.518308
11
8.495944
21
88.319974
0
LINE
8
0
10
8.495944
20
88.319974
11
11.401616
21
93.371450
0
LINE
8
0
10
11.401616
20
93.371450
11
18.810199
21
102.537474
0
LINE
8
0
10
18.810199
20
102.537474
11
27.960236
21
110.132054
0
LINE
8
0
10
27.960236
20
110.132054
11
38.385891
21
115.768544
0
LINE
8
0
10
38.385891
20
115.768544
11
43.931501
21
117.731679
0
LINE
8
0
10
43.931501
20
117.731679
11
46.793302
21
118.391187
0
LINE
8
0
10
46.793302
20
118.391187
11
53.875481
21
119.159992
0
LINE
8
0
10
53.875481
20
119.159992
11
61.695734
21
119.190938
0
LINE
8
0
10
61.695734
20
119.190938
11
68.966032
21
118.478926
0
LINE
8
0
10
68.966032
20
118.478926
11
71.992438
21
117.842718
0
LINE
8
0
10
71.992438
20
117.842718
11
74.439160
21
117.085222
0
LINE
8
0
10
74.439160
20
117.085222
11
80.171634
21
114.821248
0
LINE
8
0
10
80.171634
20
114.821248
11
85.830463
21
112.126443
0
LINE
8
0
10
85.830463
20
112.126443
11
89.984827
21
109.682182
0
LINE
8
0
10
89.984827
20
109.682182
11
91.050703
21
108.766935
0
LINE
8
0
10
91.050703
20
108.766935
11
91.130720
21
108.583010
0
LINE
8
0
10
91.130720
20
108.583010
11
90.543413
21
108.643356
0
LINE
8
0
10
90.543413
20
108.643356
11
88.121232
21
109.673966
0
LINE
8
0
10
88.121232
20
109.673966
11
85.733408
21
110.886350
0
LINE
8
0
10
85.733408
20
110.886350
11
81.776226
21
112.802367
0
LINE
8
0
10
81.776226
20
112.802367
11
73.770825
21
115.594135
0
LINE
8
0
10
73.770825
20
115.594135
11
65.717374
21
117.010878
0
LINE
8
0
10
65.717374
20
117.010878
11
57.703878
21
117.066996
0
LINE
8
0
10
57.703878
20
117.066996
11
49.818340
21
115.776886
0
LINE
8
0
10
49.818340
20
115.776886
11
42.148764
21
113.154946
0
LINE
8
0
10
42.148764
20
113.154946
11
34.783154
21
109.215574
0
LINE
8
0
10
34.783154
20
109.215574
11
27.809513
21
103.973167
0
LINE
8
0
10
27.809513
20
103.973167
11
24.497182
21
100.867824
0
LINE
8
0
10
24.497182
20
100.867824
11
19.435905
21
95.134984
0
LINE
8
0
10
19.435905
20
95.134984
11
12.097264
21
82.607834
0
LINE
8
0
10
12.097264
20
82.607834
11
9.828396
21
75.828028
0
LINE
8
0
10
9.828396
20
75.828028
11
9.274120
21
73.847169
0
LINE
8
0
10
9.274120
20
73.847169
11
8.237196
21
70.916700
0
LINE
8
0
10
8.237196
20
70.916700
11
7.882262
21
70.328028
0
LINE
8
0
10
7.882262
20
70.328028
11
7.311773
21
69.390776
0
LINE
8
0
10
7.311773
20
69.390776
11
6.854199
21
67.839512
0
LINE
8
0
10
6.854199
20
67.839512
11
6.539193
21
66.872510
0
LINE
8
0
10
6.539193
20
66.872510
11
5.443349
21
65.709449
0
LINE
8
0
10
5.443349
20
65.709449
11
4.126799
21
65.605829
0
LINE
8
0
10
4.126799
20
65.605829
11
3.070029
21
66.599466
0
LINE
8
0
10
3.070029
20
66.599466
11
2.789215
21
67.519573
0
LINE
8
0
10
131.000000
20
59.901352
11
131.008746
21
62.889831
0
LINE
8
0
10
131.008746
20
62.889831
11
131.119779
21
67.690981
0
LINE
8
0
10
131.119779
20
67.690981
11
131.446795
21
70.942809
0
LINE
8
0
10
131.446795
20
70.942809
11
132.099310
21
72.667415
0
LINE
8
0
10
132.099310
20
72.667415
11
133.186836
21
72.886903
0
LINE
8
0
10
133.186836
20
72.886903
11
134.818887
21
71.623375
0
LINE
8
0
10
134.818887
20
71.623375
11
137.104978
21
68.898934
0
LINE
8
0
10
137.104978
20
68.898934
11
140.154622
21
64.735682
0
LINE
8
0
10
140.154622
20
64.735682
11
142.000000
21
62.121408
0
LINE
8
0
10
142.000000
20
62.121408
11
144.958305
21
57.929511
0
LINE
8
0
10
144.958305
20
57.929511
11
148.473304
21
53.023214
0
LINE
8
0
10
148.473304
20
53.023214
11
149.814764
21
51.211242
0
LINE
8
0
10
149.814764
20
51.211242
11
150.085444
21
50.881231
0
LINE
8
0
10
150.085444
20
50.881231
11
150.364585
21
51.003861
0
LINE
8
0
10
150.364585
20
51.003861
11
151.768633
21
52.540140
0
LINE
8
0
10
151.768633
20
52.540140
11
154.067950
21
55.498714
0
LINE
8
0
10
154.067950
20
55.498714
11
156.983628
21
59.520710
0
LINE
8
0
10
156.983628
20
59.520710
11
158.585444
21
61.818343
0
LINE
8
0
10
158.585444
20
61.818343
11
160.485025
21
64.560732
0
LINE
8
0
10
160.485025
20
64.560732
11
163.630370
21
68.930069
0
LINE
8
0
10
163.630370
20
68.930069
11
165.995934
21
71.796114
0
LINE
8
0
10
165.995934
20
71.796114
11
167.692084
21
73.139622
0
LINE
8
0
10
167.692084
20
73.139622
11
168.829188
21
72.941349
0
LINE
8
0
10
168.829188
20
72.941349
11
169.517613
21
71.182051
0
LINE
8
0
10
169.517613
20
71.182051
11
169.867729
21
67.842483
0
LINE
8
0
10
169.867729
20
67.842483
11
169.989902
21
62.903401
0
LINE
8
0
10
169.989902
20
62.903401
11
170.000000
21
59.828028
0
LINE
8
0
10
170.000000
20
59.828028
11
169.991692
21
55.587204
0
LINE
8
0
10
169.991692
20
55.587204
11
169.867688
21
49.953361
0
LINE
8
0
10
169.867688
20
49.953361
11
169.472638
21
47.237603
0
LINE
8
0
10
169.472638
20
47.237603
11
168.653107
21
46.385143
0
LINE
8
0
10
168.653107
20
46.385143
11
168.036212
21
46.328028
0
LINE
8
0
10
168.036212
20
46.328028
11
167.434094
21
46.380858
0
LINE
8
0
10
167.434094
20
46.380858
11
166.603308
21
47.059390
0
LINE
8
0
10
166.603308
20
47.059390
11
166.139228
21
49.070403
0
LINE
8
0
10
166.139228
20
49.070403
11
165.884382
21
53.096275
0
LINE
8
0
10
165.884382
20
53.096275
11
165.786212
21
56.078028
0
LINE
8
0
10
165.786212
20
56.078028
11
165.500000
21
65.828028
0
LINE
8
0
10
165.500000
20
65.828028
11
158.675413
21
56.078028
0
LINE
8
0
10
158.675413
20
56.078028
11
155.781786
21
52.119456
0
LINE
8
0
10
155.781786
20
52.119456
11
152.235243
21
47.894997
0
LINE
8
0
10
152.235243
20
47.894997
11
150.659746
21
46.518414
0
LINE
8
0
10
150.659746
20
46.518414
11
150.175413
21
46.338529
0
LINE
8
0
10
150.175413
20
46.338529
11
149.698065
21
46.519132
0
LINE
8
0
10
149.698065
20
46.519132
11
148.163393
21
47.871389
0
LINE
8
0
10
148.163393
20
47.871389
11
144.751029
21
51.984015
0
LINE
8
0
10
144.751029
20
51.984015
11
142.000000
21
55.809292
0
LINE
8
0
10
142.000000
20
55.809292
11
139.416992
21
59.484841
0
LINE
8
0
10
139.416992
20
59.484841
11
136.282593
21
63.661110
0
LINE
8
0
10
136.282593
20
63.661110
11
135.033325
21
65.099832
0
LINE
8
0
10
135.033325
20
65.099832
11
134.750000
21
65.298791
0
LINE
8
0
10
134.750000
20
65.298791
11
134.599341
21
65.110767
0
LINE
8
0
10
134.599341
20
65.110767
11
134.331421
21
63.686934
0
LINE
8
0
10
134.331421
20
63.686934
11
134.059180
21
59.514393
0
LINE
8
0
10
134.059180
20
59.514393
11
134.000000
21
55.828028
0
LINE
8
0
10
134.000000
20
55.828028
11
133.985917
21
53.186752
0
LINE
8
0
10
133.985917
20
53.186752
11
133.849198
21
49.404200
0
LINE
8
0
10
133.849198
20
49.404200
11
133.514289
21
47.283106
0
LINE
8
0
10
133.514289
20
47.283106
11
132.917044
21
46.417221
0
LINE
8
0
10
132.917044
20
46.417221
11
132.500000
21
46.328028
0
LINE
8
0
10
132.500000
20
46.328028
11
132.073887
21
46.443740
0
LINE
8
0
10
132.073887
20
46.443740
11
131.471829
21
47.617246
0
LINE
8
0
10
131.471829
20
47.617246
11
131.142473
21
50.597557
0
LINE
8
0
10
131.142473
20
50.597557
11
131.012787
21
56.045504
0
LINE
8
0
10
131.012787
20
56.045504
11
131.000000
21
59.901352
0
LINE
8
0
10
290.000000
20
47.798151
11
290.120281
21
48.209065
0
LINE
8
0
10
290.120281
20
48.209065
11
291.285509
21
48.819746
0
LINE
8
0
10
291.285509
20
48.819746
11
294.134703
21
49.210812
0
LINE
8
0
10
294.134703
20
49.210812
11
299.209152
21
49.456557
0
LINE
8
0
10
299.209152
20
49.456557
11
302.750000
21
49.548151
0
LINE
8
0
10
302.750000
20
49.548151
11
315.500000
21
49.828028
0
LINE
8
0
10
315.500000
20
49.828028
11
315.500000
21
54.328028
0
LINE
8
0
10
315.500000
20
54.328028
11
315.500000
21
58.828028
0
LINE
8
0
10
315.500000
20
58.828028
11
303.795530
21
59.328028
0
LINE
8
0
10
303.795530
20
59.328028
11
301.141853
21
59.461707
0
LINE
8
0
10
301.141853
20
59.461707
11
296.646590
21
59.812116
0
LINE
8
0
10
296.646590
20
59.812116
11
293.334100
21
60.259750
0
LINE
8
0
10
293.334100
20
60.259750
11
291.324368
21
60.788394
0
LINE
8
0
10
291.324368
20
60.788394
11
290.845530
21
61.078028
0
LINE
8
0
10
290.845530
20
61.078028
11
290.257686
21
61.953290
0
LINE
8
0
10
290.257686
20
61.953290
11
289.662477
21
64.521536
0
LINE
8
0
10
289.662477
20
64.521536
11
289.808993
21
67.520097
0
LINE
8
0
10
289.808993
20
67.520097
11
290.658536
21
70.156988
0
LINE
8
0
10
290.658536
20
70.156988
11
291.334850
21
71.092314
0
LINE
8
0
10
291.334850
20
71.092314
11
292.062462
21
71.545800
0
LINE
8
0
10
292.062462
20
71.545800
11
294.827392
21
72.319758
0
LINE
8
0
10
294.827392
20
72.319758
11
301.200062
21
73.116456
0
LINE
8
0
10
301.200062
20
73.116456
11
310.913645
21
73.410034
0
LINE
8
0
10
310.913645
20
73.410034
11
316.663716
21
72.979729
0
LINE
8
0
10
316.663716
20
72.979729
11
318.717102
21
72.351397
0
LINE
8
0
10
318.717102
20
72.351397
11
319.000000
21
71.928452
0
LINE
8
0
10
319.000000
20
71.928452
11
318.911966
21
71.465515
0
LINE
8
0
10
318.911966
20
71.465515
11
317.979696
21
70.818749
0
LINE
8
0
10
317.979696
20
70.818749
11
315.532482
21
70.472421
0
LINE
8
0
10
315.532482
20
70.472421
11
310.962319
21
70.340487
0
LINE
8
0
10
310.962319
20
70.340487
11
307.691130
21
70.328028
0
LINE
8
0
10
307.691130
20
70.328028
11
303.326985
21
70.278937
0
LINE
8
0
10
303.326985
20
70.278937
11
297.200345
21
69.797713
0
LINE
8
0
10
297.200345
20
69.797713
11
294.015652
21
68.609106
0
LINE
8
0
10
294.015652
20
68.609106
11
293.140600
21
66.477124
0
LINE
8
0
10
293.140600
20
66.477124
11
293.371593
21
64.983619
0
LINE
8
0
10
293.371593
20
64.983619
11
294.038104
21
62.328028
0
LINE
8
0
10
294.038104
20
62.328028
11
304.269052
21
62.313286
0
LINE
8
0
10
304.269052
20
62.313286
11
308.770934
21
62.257100
0
LINE
8
0
10
308.770934
20
62.257100
11
314.972540
21
61.671158
0
LINE
8
0
10
314.972540
20
61.671158
11
318.247715
21
60.053935
0
LINE
8
0
10
318.247715
20
60.053935
11
319.568199
21
56.925603
0
LINE
8
0
10
319.568199
20
56.925603
11
319.799100
21
54.644825
0
LINE
8
0
10
319.799100
20
54.644825
11
319.852092
21
52.102248
0
LINE
8
0
10
319.852092
20
52.102248
11
318.832381
21
48.668623
0
LINE
8
0
10
318.832381
20
48.668623
11
315.320450
21
46.952685
0
LINE
8
0
10
315.320450
20
46.952685
11
310.335392
21
46.443325
0
LINE
8
0
10
310.335392
20
46.443325
11
305.613642
21
46.337812
0
LINE
8
0
10
305.613642
20
46.337812
11
302.777494
21
46.328028
0
LINE
8
0
10
302.777494
20
46.328028
11
299.192080
21
46.341290
0
LINE
8
0
10
299.192080
20
46.341290
11
294.087093
21
46.472350
0
LINE
8
0
10
294.087093
20
46.472350
11
291.254366
21
46.798271
0
LINE
8
0
10
291.254366
20
46.798271
11
290.115264
21
47.385629
0
LINE
8
0
10
290.115264
20
47.385629
11
290.000000
21
47.798151
0
LINE
8
0
10
58.222506
20
47.884732
11
56.995326
21
49.034263
0
LINE
8
0
10
56.995326
20
49.034263
11
56.153269
21
52.572946
0
LINE
8
0
10
56.153269
20
52.572946
11
56.009951
21
57.646581
0
LINE
8
0
10
56.009951
20
57.646581
11
56.000000
21
61.384732
0
LINE
8
0
10
56.000000
20
61.384732
11
56.008485
21
65.135547
0
LINE
8
0
10
56.008485
20
65.135547
11
56.134905
21
70.119216
0
LINE
8
0
10
56.134905
20
70.119216
11
56.537341
21
72.522425
0
LINE
8
0
10
56.537341
20
72.522425
11
57.371896
21
73.277358
0
LINE
8
0
10
57.371896
20
73.277358
11
58.000000
21
73.328028
0
LINE
8
0
10
58.000000
20
73.328028
11
58.626556
21
73.278432
0
LINE
8
0
10
58.626556
20
73.278432
11
59.460289
21
72.551444
0
LINE
8
0
10
59.460289
20
72.551444
11
59.863674
21
70.253562
0
LINE
8
0
10
59.863674
20
70.253562
11
59.991294
21
65.504194
0
LINE
8
0
10
59.991294
20
65.504194
11
60.000000
21
61.935017
0
LINE
8
0
10
60.000000
20
61.935017
11
60.014060
21
58.722173
0
LINE
8
0
10
60.014060
20
58.722173
11
60.153942
21
54.111065
0
LINE
8
0
10
60.153942
20
54.111065
11
60.503724
21
51.457493
0
LINE
8
0
10
60.503724
20
51.457493
11
61.136470
21
50.207172
0
LINE
8
0
10
61.136470
20
50.207172
11
61.581787
21
49.935017
0
LINE
8
0
10
61.581787
20
49.935017
11
63.293532
21
49.582208
0
LINE
8
0
10
63.293532
20
49.582208
11
69.267542
21
49.291286
0
LINE
8
0
10
69.267542
20
49.291286
11
76.316445
21
49.488291
0
LINE
8
0
10
76.316445
20
49.488291
11
80.629585
21
49.909322
0
LINE
8
0
10
80.629585
20
49.909322
11
82.387290
21
50.301860
0
LINE
8
0
10
82.387290
20
50.301860
11
82.800000
21
50.528028
0
LINE
8
0
10
82.800000
20
50.528028
11
83.076997
21
50.979243
0
LINE
8
0
10
83.076997
20
50.979243
11
83.524740
21
52.806674
0
LINE
8
0
10
83.524740
20
52.806674
11
83.827344
21
55.832716
0
LINE
8
0
10
83.827344
20
55.832716
11
83.980642
21
60.015702
0
LINE
8
0
10
83.980642
20
60.015702
11
84.000000
21
62.528028
0
LINE
8
0
10
84.000000
20
62.528028
11
84.008970
21
65.901466
0
LINE
8
0
10
84.008970
20
65.901466
11
84.138021
21
70.398341
0
LINE
8
0
10
84.138021
20
70.398341
11
84.542535
21
72.582716
0
LINE
8
0
10
84.542535
20
72.582716
11
85.375289
21
73.279591
0
LINE
8
0
10
85.375289
20
73.279591
11
86.000000
21
73.328028
0
LINE
8
0
10
86.000000
20
73.328028
11
86.626868
21
73.278223
0
LINE
8
0
10
86.626868
20
73.278223
11
87.460768
21
72.545802
0
LINE
8
0
10
87.460768
20
72.545802
11
87.863961
21
70.227442
0
LINE
8
0
10
87.863961
20
70.227442
11
87.991338
21
65.432520
0
LINE
8
0
10
87.991338
20
65.432520
11
88.000000
21
61.828028
0
LINE
8
0
10
88.000000
20
61.828028
11
87.996641
21
59.092377
0
LINE
8
0
10
87.996641
20
59.092377
11
87.899839
21
54.625518
0
LINE
8
0
10
87.899839
20
54.625518
11
87.527538
21
51.345257
0
LINE
8
0
10
87.527538
20
51.345257
11
86.693268
21
49.068407
0
LINE
8
0
10
86.693268
20
49.068407
11
85.210561
21
47.611778
0
LINE
8
0
10
85.210561
20
47.611778
11
82.892948
21
46.792181
0
LINE
8
0
10
82.892948
20
46.792181
11
79.553962
21
46.426427
0
LINE
8
0
10
79.553962
20
46.426427
11
75.007133
21
46.331328
0
LINE
8
0
10
75.007133
20
46.331328
11
72.222506
21
46.328028
0
LINE
8
0
10
72.222506
20
46.328028
11
69.095141
21
46.345903
0
LINE
8
0
10
69.095141
20
46.345903
11
64.269543
21
46.505487
0
LINE
8
0
10
64.269543
20
46.505487
11
61.018076
21
46.867028
0
LINE
8
0
10
61.018076
20
46.867028
11
58.943087
21
47.474742
0
LINE
8
0
10
58.943087
20
47.474742
11
58.222506
21
47.884732
0
LINE
8
0
10
255.268166
20
47.540417
11
254.312552
21
48.158095
0
LINE
8
0
10
254.312552
20
48.158095
11
252.957746
21
50.255989
0
LINE
8
0
10
252.957746
20
50.255989
11
252.256289
21
53.973160
0
LINE
8
0
10
252.256289
20
53.973160
11
252.101928
21
59.872677
0
LINE
8
0
10
252.101928
20
59.872677
11
252.196703
21
63.816775
0
LINE
8
0
10
252.196703
20
63.816775
11
252.297907
21
66.394356
0
LINE
8
0
10
252.297907
20
66.394356
11
252.568099
21
70.041829
0
LINE
8
0
10
252.568099
20
70.041829
11
253.339243
21
72.635599
0
LINE
8
0
10
253.339243
20
72.635599
11
254.250000
21
73.140099
0
LINE
8
0
10
254.250000
20
73.140099
11
254.778971
21
73.176339
0
LINE
8
0
10
254.778971
20
73.176339
11
255.498266
21
72.521592
0
LINE
8
0
10
255.498266
20
72.521592
11
255.863022
21
70.308815
0
LINE
8
0
10
255.863022
20
70.308815
11
255.989630
21
65.831929
0
LINE
8
0
10
255.989630
20
65.831929
11
256.000000
21
62.523797
0
LINE
8
0
10
256.000000
20
62.523797
11
256.017363
21
59.698449
0
LINE
8
0
10
256.017363
20
59.698449
11
256.167709
21
55.337451
0
LINE
8
0
10
256.167709
20
55.337451
11
256.497639
21
52.475500
0
LINE
8
0
10
256.497639
20
52.475500
11
257.037665
21
50.847936
0
LINE
8
0
10
257.037665
20
50.847936
11
257.395999
21
50.414342
0
LINE
8
0
10
257.395999
20
50.414342
11
257.885259
21
50.151478
0
LINE
8
0
10
257.885259
20
50.151478
11
259.728570
21
49.755712
0
LINE
8
0
10
259.728570
20
49.755712
11
262.691299
21
49.535728
0
LINE
8
0
10
262.691299
20
49.535728
11
266.733079
21
49.494521
0
LINE
8
0
10
266.733079
20
49.494521
11
269.145999
21
49.541897
0
LINE
8
0
10
269.145999
20
49.541897
11
279.500000
21
49.828028
0
LINE
8
0
10
279.500000
20
49.828028
11
279.781735
21
61.578028
0
LINE
8
0
10
279.781735
20
61.578028
11
279.878563
21
65.219511
0
LINE
8
0
10
279.878563
20
65.219511
11
280.126237
21
70.096720
0
LINE
8
0
10
280.126237
20
70.096720
11
280.584679
21
72.490806
0
LINE
8
0
10
280.584679
20
72.490806
11
281.420382
21
73.271231
0
LINE
8
0
10
281.420382
20
73.271231
11
282.031735
21
73.328028
0
LINE
8
0
10
282.031735
20
73.328028
11
282.646796
21
73.274757
0
LINE
8
0
10
282.646796
20
73.274757
11
283.466477
21
72.506297
0
LINE
8
0
10
283.466477
20
72.506297
11
283.864411
21
70.094637
0
LINE
8
0
10
283.864411
20
70.094637
11
283.991210
21
65.127004
0
LINE
8
0
10
283.991210
20
65.127004
11
284.000000
21
61.399457
0
LINE
8
0
10
284.000000
20
61.399457
11
284.001021
21
58.672438
0
LINE
8
0
10
284.001021
20
58.672438
11
283.938489
21
54.244252
0
LINE
8
0
10
283.938489
20
54.244252
11
283.632745
21
51.024824
0
LINE
8
0
10
283.632745
20
51.024824
11
282.895254
21
48.823299
0
LINE
8
0
10
282.895254
20
48.823299
11
281.537480
21
47.448824
0
LINE
8
0
10
281.537480
20
47.448824
11
279.370889
21
46.710542
0
LINE
8
0
10
279.370889
20
46.710542
11
276.206945
21
46.417601
0
LINE
8
0
10
276.206945
20
46.417601
11
271.857113
21
46.379146
0
LINE
8
0
10
271.857113
20
46.379146
11
269.178571
21
46.395708
0
LINE
8
0
10
269.178571
20
46.395708
11
264.467895
21
46.506972
0
LINE
8
0
10
264.467895
20
46.506972
11
258.515317
21
46.927722
0
LINE
8
0
10
258.515317
20
46.927722
11
255.954855
21
47.322683
0
LINE
8
0
10
255.954855
20
47.322683
11
255.268166
21
47.540417
0
LINE
8
0
10
99.461035
20
52.961395
11
106.422070
21
59.508356
0
LINE
8
0
10
106.422070
20
59.508356
11
99.711035
21
66.024613
0
LINE
8
0
10
99.711035
20
66.024613
11
97.105266
21
68.585810
0
LINE
8
0
10
97.105266
20
68.585810
11
94.150182
21
71.597991
0
LINE
8
0
10
94.150182
20
71.597991
11
93.136973
21
72.722390
0
LINE
8
0
10
93.136973
20
72.722390
11
93.000000
21
72.934450
0
LINE
8
0
10
93.000000
20
72.934450
11
93.594327
21
73.212414
0
LINE
8
0
10
93.594327
20
73.212414
11
95.023240
21
73.328028
0
LINE
8
0
10
95.023240
20
73.328028
11
95.710609
21
73.092456
0
LINE
8
0
10
95.710609
20
73.092456
11
98.386386
21
71.305540
0
LINE
8
0
10
98.386386
20
71.305540
11
102.526600
21
67.981277
0
LINE
8
0
10
102.526600
20
67.981277
11
107.806908
21
63.380087
0
LINE
8
0
10
107.806908
20
63.380087
11
110.773240
21
60.682027
0
LINE
8
0
10
110.773240
20
60.682027
11
113.550047
21
58.124282
0
LINE
8
0
10
113.550047
20
58.124282
11
118.597037
21
53.477861
0
LINE
8
0
10
118.597037
20
53.477861
11
122.567216
21
49.826005
0
LINE
8
0
10
122.567216
20
49.826005
11
124.979000
21
47.611684
0
LINE
8
0
10
124.979000
20
47.611684
11
125.450000
21
47.182027
0
LINE
8
0
10
125.450000
20
47.182027
11
125.623457
21
46.839733
0
LINE
8
0
10
125.623457
20
46.839733
11
124.666722
21
46.391846
0
LINE
8
0
10
124.666722
20
46.391846
11
123.625763
21
46.328028
0
LINE
8
0
10
123.625763
20
46.328028
11
122.020546
21
46.637641
0
LINE
8
0
10
122.020546
20
46.637641
11
119.021425
21
48.405889
0
LINE
8
0
10
119.021425
20
48.405889
11
116.423067
21
50.587205
0
LINE
8
0
10
116.423067
20
50.587205
11
114.891557
21
52.012875
0
LINE
8
0
10
114.891557
20
52.012875
11
108.931588
21
57.697723
0
LINE
8
0
10
108.931588
20
57.697723
11
103.186796
21
52.012875
0
LINE
8
0
10
103.186796
20
52.012875
11
100.476603
21
49.479340
0
LINE
8
0
10
100.476603
20
49.479340
11
96.415908
21
46.690930
0
LINE
8
0
10
96.415908
20
46.690930
11
94.971003
21
46.371231
0
LINE
8
0
10
94.971003
20
46.371231
11
94.283336
21
46.427718
0
LINE
8
0
10
94.283336
20
46.427718
11
93.806137
21
46.945371
0
LINE
8
0
10
93.806137
20
46.945371
11
94.756276
21
48.339921
0
LINE
8
0
10
94.756276
20
48.339921
11
97.409544
21
51.016153
0
LINE
8
0
10
97.409544
20
51.016153
11
99.461035
21
52.961395
0
LINE
8
0
10
26.000000
20
59.828028
11
26.008265
21
64.071845
0
LINE
8
0
10
26.008265
20
64.071845
11
26.132213
21
69.707276
0
LINE
8
0
10
26.132213
20
69.707276
11
26.527896
21
72.421202
0
LINE
8
0
10
26.527896
20
72.421202
11
27.349527
21
73.271341
0
LINE
8
0
10
27.349527
20
73.271341
11
27.968265
21
73.328028
0
LINE
8
0
10
27.968265
20
73.328028
11
28.579618
21
73.271231
0
LINE
8
0
10
28.579618
20
73.271231
11
29.415321
21
72.490806
0
LINE
8
0
10
29.415321
20
72.490806
11
29.873763
21
70.096720
0
LINE
8
0
10
29.873763
20
70.096720
11
30.121437
21
65.219511
0
LINE
8
0
10
30.121437
20
65.219511
11
30.218265
21
61.578028
0
LINE
8
0
10
30.218265
20
61.578028
11
30.500000
21
49.828028
0
LINE
8
0
10
30.500000
20
49.828028
11
41.250000
21
49.544196
0
LINE
8
0
10
41.250000
20
49.544196
11
44.195291
21
49.451819
0
LINE
8
0
10
44.195291
20
49.451819
11
48.452454
21
49.201179
0
LINE
8
0
10
48.452454
20
49.201179
11
50.879285
21
48.806113
0
LINE
8
0
10
50.879285
20
48.806113
11
51.892854
21
48.198727
0
LINE
8
0
10
51.892854
20
48.198727
11
52.000000
21
47.794196
0
LINE
8
0
10
52.000000
20
47.794196
11
51.882553
21
47.382923
0
LINE
8
0
10
51.882553
20
47.382923
11
50.722659
21
46.797219
0
LINE
8
0
10
50.722659
20
46.797219
11
47.839849
21
46.472089
0
LINE
8
0
10
47.839849
20
46.472089
11
42.646618
21
46.341274
0
LINE
8
0
10
42.646618
20
46.341274
11
39.000000
21
46.328028
0
LINE
8
0
10
39.000000
20
46.328028
11
26.000000
21
46.328028
0
LINE
8
0
10
26.000000
20
46.328028
11
26.000000
21
59.828028
0
LINE
8
0
10
116.527382
20
68.783216
11
118.760392
21
70.627772
0
LINE
8
0
10
118.760392
20
70.627772
11
122.615562
21
72.938739
0
LINE
8
0
10
122.615562
20
72.938739
11
124.000000
21
73.262649
0
LINE
8
0
10
124.000000
20
73.262649
11
124.735531
21
73.245605
0
LINE
8
0
10
124.735531
20
73.245605
11
125.416717
21
72.944478
0
LINE
8
0
10
125.416717
20
72.944478
11
124.900155
21
72.031863
0
LINE
8
0
10
124.900155
20
72.031863
11
123.012343
21
70.201237
0
LINE
8
0
10
123.012343
20
70.201237
11
121.500000
21
68.845882
0
LINE
8
0
10
121.500000
20
68.845882
11
119.284588
21
67.034819
0
LINE
8
0
10
119.284588
20
67.034819
11
115.397213
21
64.704547
0
LINE
8
0
10
115.397213
20
64.704547
11
114.027382
21
64.366450
0
LINE
8
0
10
114.027382
20
64.366450
11
113.305602
21
64.380420
0
LINE
8
0
10
113.305602
20
64.380420
11
112.642796
21
64.682744
0
LINE
8
0
10
112.642796
20
64.682744
11
113.162024
21
65.600069
0
LINE
8
0
10
113.162024
20
65.600069
11
115.032522
21
67.431381
0
LINE
8
0
10
115.032522
20
67.431381
11
116.527382
21
68.783216
0
LINE
8
0
10
241.800000
20
50.528028
11
242.279511
21
51.615198
0
LINE
8
0
10
242.279511
20
51.615198
11
242.869513
21
56.210136
0
LINE
8
0
10
242.869513
20
56.210136
11
242.943350
21
62.105452
0
LINE
8
0
10
242.943350
20
62.105452
11
242.472059
21
66.988640
0
LINE
8
0
10
242.472059
20
66.988640
11
242.022940
21
68.328028
0
LINE
8
0
10
242.022940
20
68.328028
11
241.641936
21
68.728496
0
LINE
8
0
10
241.641936
20
68.728496
11
240.098665
21
69.349096
0
LINE
8
0
10
240.098665
20
69.349096
11
237.207301
21
69.774313
0
LINE
8
0
10
237.207301
20
69.774313
11
232.600151
21
70.058220
0
LINE
8
0
10
232.600151
20
70.058220
11
229.538252
21
70.164081
0
LINE
8
0
10
229.538252
20
70.164081
11
218.000000
21
70.500134
0
LINE
8
0
10
218.000000
20
70.500134
11
218.000000
21
59.914081
0
LINE
8
0
10
218.000000
20
59.914081
11
218.000000
21
49.328028
0
LINE
8
0
10
218.000000
20
49.328028
11
229.300000
21
49.328028
0
LINE
8
0
10
229.300000
20
49.328028
11
231.945196
21
49.347117
0
LINE
8
0
10
231.945196
20
49.347117
11
236.322686
21
49.498956
0
LINE
8
0
10
236.322686
20
49.498956
11
239.462809
21
49.800408
0
LINE
8
0
10
239.462809
20
49.800408
11
241.341369
21
50.249150
0
LINE
8
0
10
241.341369
20
50.249150
11
241.800000
21
50.528028
0
LINE
8
0
10
203.789728
20
59.244458
11
203.845886
21
61.629114
0
LINE
8
0
10
203.845886
20
61.629114
11
203.813779
21
65.339900
0
LINE
8
0
10
203.813779
20
65.339900
11
203.574635
21
67.787464
0
LINE
8
0
10
203.574635
20
67.787464
11
203.111084
21
69.149578
0
LINE
8
0
10
203.111084
20
69.149578
11
202.789728
21
69.479145
0
LINE
8
0
10
202.789728
20
69.479145
11
202.333108
21
69.643828
0
LINE
8
0
10
202.333108
20
69.643828
11
200.411145
21
69.938443
0
LINE
8
0
10
200.411145
20
69.938443
11
195.681204
21
70.242204
0
LINE
8
0
10
195.681204
20
70.242204
11
191.821429
21
70.312715
0
LINE
8
0
10
191.821429
20
70.312715
11
187.726269
21
70.281360
0
LINE
8
0
10
187.726269
20
70.281360
11
182.339793
21
69.647494
0
LINE
8
0
10
182.339793
20
69.647494
11
179.801867
21
67.498590
0
LINE
8
0
10
179.801867
20
67.498590
11
179.044601
21
62.930448
0
LINE
8
0
10
179.044601
20
62.930448
11
179.000000
21
59.456600
0
LINE
8
0
10
179.000000
20
59.456600
11
179.085149
21
56.145390
0
LINE
8
0
10
179.085149
20
56.145390
11
179.716920
21
51.545874
0
LINE
8
0
10
179.716920
20
51.545874
11
180.230594
21
50.497434
0
LINE
8
0
10
180.230594
20
50.497434
11
180.687855
21
50.201054
0
LINE
8
0
10
180.687855
20
50.201054
11
182.450085
21
49.766199
0
LINE
8
0
10
182.450085
20
49.766199
11
185.439731
21
49.534349
0
LINE
8
0
10
185.439731
20
49.534349
11
189.773360
21
49.496464
0
LINE
8
0
10
189.773360
20
49.496464
11
192.480594
21
49.547434
0
LINE
8
0
10
192.480594
20
49.547434
11
203.500000
21
49.828028
0
LINE
8
0
10
203.500000
20
49.828028
11
203.789728
21
59.244458
0
ENDSEC
0
EOF
