999
DXF File generated by ImageToStl.com - Free Image and 3D model conversion tools
0
SECTION
2
HEADER
9
$ACADVER
1
AC1009
9
$EXTMIN
10
0
20
0
9
$EXTMAX
10
1491.000000
20
331.018662
0
ENDSEC
0
SECTION
2
ENTITIES
0
LINE
8
0
10
54.354948
20
43.302725
11
1.500000
21
86.605451
0
LINE
8
0
10
1.500000
20
86.605451
11
1.242577
21
149.714613
0
LINE
8
0
10
1.242577
20
149.714613
11
0.985155
21
212.823776
0
LINE
8
0
10
0.985155
20
212.823776
11
15.632386
21
223.496492
0
LINE
8
0
10
15.632386
20
223.496492
11
30.279616
21
234.169207
0
LINE
8
0
10
30.279616
20
234.169207
11
78.106182
21
216.226975
0
LINE
8
0
10
78.106182
20
216.226975
11
87.724422
21
212.633651
0
LINE
8
0
10
87.724422
20
212.633651
11
100.919395
21
207.757458
0
LINE
8
0
10
100.919395
20
207.757458
11
108.605188
21
204.953321
0
LINE
8
0
10
108.605188
20
204.953321
11
115.170887
21
202.589814
0
LINE
8
0
10
115.170887
20
202.589814
11
120.418139
21
200.738339
0
LINE
8
0
10
120.418139
20
200.738339
11
124.148591
21
199.470298
0
LINE
8
0
10
124.148591
20
199.470298
11
126.163891
21
198.857094
0
LINE
8
0
10
126.163891
20
198.857094
11
126.466374
21
198.818369
0
LINE
8
0
10
126.466374
20
198.818369
11
126.520757
21
199.153312
0
LINE
8
0
10
126.520757
20
199.153312
11
126.624813
21
201.418669
0
LINE
8
0
10
126.624813
20
201.418669
11
126.720750
21
205.624641
0
LINE
8
0
10
126.720750
20
205.624641
11
126.806360
21
211.547214
0
LINE
8
0
10
126.806360
20
211.547214
11
126.879434
21
218.962373
0
LINE
8
0
10
126.879434
20
218.962373
11
126.937767
21
227.646103
0
LINE
8
0
10
126.937767
20
227.646103
11
126.992794
21
242.560236
0
LINE
8
0
10
126.992794
20
242.560236
11
127.004611
21
253.435328
0
LINE
8
0
10
127.004611
20
253.435328
11
127.009222
21
307.518662
0
LINE
8
0
10
127.009222
20
307.518662
11
140.754611
21
318.018662
0
LINE
8
0
10
140.754611
20
318.018662
11
143.538910
21
320.127890
0
LINE
8
0
10
143.538910
20
320.127890
11
148.620299
21
323.878769
0
LINE
8
0
10
148.620299
20
323.878769
11
152.645226
21
326.719101
0
LINE
8
0
10
152.645226
20
326.719101
11
155.125467
21
328.304355
0
LINE
8
0
10
155.125467
20
328.304355
11
155.633761
21
328.518662
0
LINE
8
0
10
155.633761
20
328.518662
11
156.021890
21
328.295578
0
LINE
8
0
10
156.021890
20
328.295578
11
158.342835
21
326.577048
0
LINE
8
0
10
158.342835
20
326.577048
11
162.539869
21
323.309006
0
LINE
8
0
10
162.539869
20
323.309006
11
168.392799
21
318.667820
0
LINE
8
0
10
168.392799
20
318.667820
11
175.681432
21
312.829856
0
LINE
8
0
10
175.681432
20
312.829856
11
184.185578
21
305.971482
0
LINE
8
0
10
184.185578
20
305.971482
11
198.739208
21
294.156455
0
LINE
8
0
10
198.739208
20
294.156455
11
209.318789
21
285.518662
0
LINE
8
0
10
209.318789
20
285.518662
11
261.870057
21
242.518662
0
LINE
8
0
10
261.870057
20
242.518662
11
261.935028
21
179.906867
0
LINE
8
0
10
261.935028
20
179.906867
11
262.000000
21
117.295073
0
LINE
8
0
10
262.000000
20
117.295073
11
226.534148
21
90.156867
0
LINE
8
0
10
226.534148
20
90.156867
11
219.393802
21
84.705643
0
LINE
8
0
10
219.393802
20
84.705643
11
206.606069
21
75.013145
0
LINE
8
0
10
206.606069
20
75.013145
11
198.907044
21
69.240544
0
LINE
8
0
10
198.907044
20
69.240544
11
194.953983
21
66.313496
0
LINE
8
0
10
194.953983
20
66.313496
11
192.118082
21
64.253327
0
LINE
8
0
10
192.118082
20
64.253327
11
190.548024
21
63.171291
0
LINE
8
0
10
190.548024
20
63.171291
11
190.284148
21
63.031841
0
LINE
8
0
10
190.284148
20
63.031841
11
190.009858
21
63.253629
0
LINE
8
0
10
190.009858
20
63.253629
11
188.865968
21
64.879345
0
LINE
8
0
10
188.865968
20
64.879345
11
186.062090
21
69.611895
0
LINE
8
0
10
186.062090
20
69.611895
11
183.778769
21
73.781841
0
LINE
8
0
10
183.778769
20
73.781841
11
178.057538
21
84.518662
0
LINE
8
0
10
178.057538
20
84.518662
11
177.981605
21
69.018662
0
LINE
8
0
10
177.981605
20
69.018662
11
177.905671
21
53.518662
0
LINE
8
0
10
177.905671
20
53.518662
11
146.296993
21
29.518662
0
LINE
8
0
10
146.296993
20
29.518662
11
139.871158
21
24.641250
0
LINE
8
0
10
139.871158
20
24.641250
11
128.015166
21
15.651218
0
LINE
8
0
10
128.015166
20
15.651218
11
120.565253
21
10.010048
0
LINE
8
0
10
120.565253
20
10.010048
11
116.557191
21
6.979513
0
LINE
8
0
10
116.557191
20
6.979513
11
113.485112
21
4.661222
0
LINE
8
0
10
113.485112
20
4.661222
11
111.493995
21
3.164929
0
LINE
8
0
10
111.493995
20
3.164929
11
110.949105
21
2.759331
0
LINE
8
0
10
110.949105
20
2.759331
11
107.209896
21
0.000000
0
LINE
8
0
10
107.209896
20
0.000000
11
54.354948
21
43.302725
0
LINE
8
0
10
1144.130544
20
39.361366
11
1143.979999
21
39.932919
0
LINE
8
0
10
1143.979999
20
39.932919
11
1143.720650
21
43.485359
0
LINE
8
0
10
1143.720650
20
43.485359
11
1143.515091
21
50.516223
0
LINE
8
0
10
1143.515091
20
50.516223
11
1143.394876
21
58.264088
0
LINE
8
0
10
1143.394876
20
58.264088
11
1143.330377
21
64.682575
0
LINE
8
0
10
1143.330377
20
64.682575
11
1143.278068
21
72.150202
0
LINE
8
0
10
1143.278068
20
72.150202
11
1143.237670
21
80.706866
0
LINE
8
0
10
1143.237670
20
80.706866
11
1143.208903
21
90.392465
0
LINE
8
0
10
1143.208903
20
90.392465
11
1143.191487
21
101.246894
0
LINE
8
0
10
1143.191487
20
101.246894
11
1143.185143
21
113.310050
0
LINE
8
0
10
1143.185143
20
113.310050
11
1143.189591
21
126.621829
0
LINE
8
0
10
1143.189591
20
126.621829
11
1143.204553
21
141.222129
0
LINE
8
0
10
1143.204553
20
141.222129
11
1143.229748
21
157.150846
0
LINE
8
0
10
1143.229748
20
157.150846
11
1143.246096
21
165.625829
0
LINE
8
0
10
1143.246096
20
165.625829
11
1143.500000
21
290.518662
0
LINE
8
0
10
1143.500000
20
290.518662
11
1190.940088
21
290.778574
0
LINE
8
0
10
1190.940088
20
290.778574
11
1200.486476
21
290.814110
0
LINE
8
0
10
1200.486476
20
290.814110
11
1213.603804
21
290.803219
0
LINE
8
0
10
1213.603804
20
290.803219
11
1221.258539
21
290.756493
0
LINE
8
0
10
1221.258539
20
290.756493
11
1227.810238
21
290.680862
0
LINE
8
0
10
1227.810238
20
290.680862
11
1233.060969
21
290.578609
0
LINE
8
0
10
1233.060969
20
290.578609
11
1236.812805
21
290.452020
0
LINE
8
0
10
1236.812805
20
290.452020
11
1238.867815
21
290.303380
0
LINE
8
0
10
1238.867815
20
290.303380
11
1239.197158
21
290.221504
0
LINE
8
0
10
1239.197158
20
290.221504
11
1239.345277
21
289.780605
0
LINE
8
0
10
1239.345277
20
289.780605
11
1240.004231
21
286.866216
0
LINE
8
0
10
1240.004231
20
286.866216
11
1241.101256
21
281.480144
0
LINE
8
0
10
1241.101256
20
281.480144
11
1242.581696
21
273.908512
0
LINE
8
0
10
1242.581696
20
273.908512
11
1244.390895
21
264.437446
0
LINE
8
0
10
1244.390895
20
264.437446
11
1246.474196
21
253.353070
0
LINE
8
0
10
1246.474196
20
253.353070
11
1249.993527
21
234.327448
0
LINE
8
0
10
1249.993527
20
234.327448
11
1252.522961
21
220.461592
0
LINE
8
0
10
1252.522961
20
220.461592
11
1253.821244
21
213.306337
0
LINE
8
0
10
1253.821244
20
213.306337
11
1256.180885
21
200.305661
0
LINE
8
0
10
1256.180885
20
200.305661
11
1258.242366
21
188.958674
0
LINE
8
0
10
1258.242366
20
188.958674
11
1260.026976
21
179.154066
0
LINE
8
0
10
1260.026976
20
179.154066
11
1261.556005
21
170.780528
0
LINE
8
0
10
1261.556005
20
170.780528
11
1262.850742
21
163.726748
0
LINE
8
0
10
1262.850742
20
163.726748
11
1263.932477
21
157.881416
0
LINE
8
0
10
1263.932477
20
157.881416
11
1264.822499
21
153.133224
0
LINE
8
0
10
1264.822499
20
153.133224
11
1265.844641
21
147.824580
0
LINE
8
0
10
1265.844641
20
147.824580
11
1266.735203
21
143.547480
0
LINE
8
0
10
1266.735203
20
143.547480
11
1267.242123
21
141.655354
0
LINE
8
0
10
1267.242123
20
141.655354
11
1267.535715
21
141.257722
0
LINE
8
0
10
1267.535715
20
141.257722
11
1267.655738
21
141.341066
0
LINE
8
0
10
1267.655738
20
141.341066
11
1267.774383
21
141.772893
0
LINE
8
0
10
1267.774383
20
141.772893
11
1268.404528
21
144.815642
0
LINE
8
0
10
1268.404528
20
144.815642
11
1269.510952
21
150.509991
0
LINE
8
0
10
1269.510952
20
150.509991
11
1271.036621
21
158.551310
0
LINE
8
0
10
1271.036621
20
158.551310
11
1272.924501
21
168.634968
0
LINE
8
0
10
1272.924501
20
168.634968
11
1275.117560
21
180.456332
0
LINE
8
0
10
1275.117560
20
180.456332
11
1278.854594
21
200.780200
0
LINE
8
0
10
1278.854594
20
200.780200
11
1281.561075
21
215.613070
0
LINE
8
0
10
1281.561075
20
215.613070
11
1284.274418
21
230.452803
0
LINE
8
0
10
1284.274418
20
230.452803
11
1288.045323
21
250.810540
0
LINE
8
0
10
1288.045323
20
250.810540
11
1290.274668
21
262.668192
0
LINE
8
0
10
1290.274668
20
262.668192
11
1292.208193
21
272.797494
0
LINE
8
0
10
1292.208193
20
272.797494
11
1293.787485
21
280.892436
0
LINE
8
0
10
1293.787485
20
280.892436
11
1294.954131
21
286.647007
0
LINE
8
0
10
1294.954131
20
286.647007
11
1295.649718
21
289.755198
0
LINE
8
0
10
1295.649718
20
289.755198
11
1295.802611
21
290.221272
0
LINE
8
0
10
1295.802611
20
290.221272
11
1296.131977
21
290.303172
0
LINE
8
0
10
1296.131977
20
290.303172
11
1298.187032
21
290.451857
0
LINE
8
0
10
1298.187032
20
290.451857
11
1301.938909
21
290.578488
0
LINE
8
0
10
1301.938909
20
290.578488
11
1307.189678
21
290.680777
0
LINE
8
0
10
1307.189678
20
290.680777
11
1313.741408
21
290.756440
0
LINE
8
0
10
1313.741408
20
290.756440
11
1321.396168
21
290.803191
0
LINE
8
0
10
1321.396168
20
290.803191
11
1334.513519
21
290.814105
0
LINE
8
0
10
1334.513519
20
290.814105
11
1344.059912
21
290.778574
0
LINE
8
0
10
1344.059912
20
290.778574
11
1391.500000
21
290.518662
0
LINE
8
0
10
1391.500000
20
290.518662
11
1391.753904
21
165.625829
0
LINE
8
0
10
1391.753904
20
165.625829
11
1391.770252
21
157.150846
0
LINE
8
0
10
1391.770252
20
157.150846
11
1391.795447
21
141.222129
0
LINE
8
0
10
1391.795447
20
141.222129
11
1391.810409
21
126.621829
0
LINE
8
0
10
1391.810409
20
126.621829
11
1391.814857
21
113.310050
0
LINE
8
0
10
1391.814857
20
113.310050
11
1391.808513
21
101.246894
0
LINE
8
0
10
1391.808513
20
101.246894
11
1391.791097
21
90.392465
0
LINE
8
0
10
1391.791097
20
90.392465
11
1391.762330
21
80.706866
0
LINE
8
0
10
1391.762330
20
80.706866
11
1391.721932
21
72.150202
0
LINE
8
0
10
1391.721932
20
72.150202
11
1391.669623
21
64.682575
0
LINE
8
0
10
1391.669623
20
64.682575
11
1391.605124
21
58.264088
0
LINE
8
0
10
1391.605124
20
58.264088
11
1391.484909
21
50.516223
0
LINE
8
0
10
1391.484909
20
50.516223
11
1391.279350
21
43.485359
0
LINE
8
0
10
1391.279350
20
43.485359
11
1391.020001
21
39.932919
0
LINE
8
0
10
1391.020001
20
39.932919
11
1390.869456
21
39.361366
0
LINE
8
0
10
1390.869456
20
39.361366
11
1390.266689
21
38.984067
0
LINE
8
0
10
1390.266689
20
38.984067
11
1387.043175
21
38.463079
0
LINE
8
0
10
1387.043175
20
38.463079
11
1382.218787
21
38.254038
0
LINE
8
0
10
1382.218787
20
38.254038
11
1377.551206
21
38.190388
0
LINE
8
0
10
1377.551206
20
38.190388
11
1371.532636
21
38.180579
0
LINE
8
0
10
1371.532636
20
38.180579
11
1364.000277
21
38.218842
0
LINE
8
0
10
1364.000277
20
38.218842
11
1359.615552
21
38.254199
0
LINE
8
0
10
1359.615552
20
38.254199
11
1329.500000
21
38.518662
0
LINE
8
0
10
1329.500000
20
38.518662
11
1329.000000
21
133.018662
0
LINE
8
0
10
1329.000000
20
133.018662
11
1328.945373
21
142.634781
0
LINE
8
0
10
1328.945373
20
142.634781
11
1328.819596
21
160.949588
0
LINE
8
0
10
1328.819596
20
160.949588
11
1328.675931
21
177.724991
0
LINE
8
0
10
1328.675931
20
177.724991
11
1328.519348
21
192.581595
0
LINE
8
0
10
1328.519348
20
192.581595
11
1328.354818
21
205.140006
0
LINE
8
0
10
1328.354818
20
205.140006
11
1328.187311
21
215.020829
0
LINE
8
0
10
1328.187311
20
215.020829
11
1328.021798
21
221.844669
0
LINE
8
0
10
1328.021798
20
221.844669
11
1327.863249
21
225.232132
0
LINE
8
0
10
1327.863249
20
225.232132
11
1327.788139
21
225.518662
0
LINE
8
0
10
1327.788139
20
225.518662
11
1327.624977
21
224.838986
0
LINE
8
0
10
1327.624977
20
224.838986
11
1326.788116
21
220.783256
0
LINE
8
0
10
1326.788116
20
220.783256
11
1325.332691
21
213.452753
0
LINE
8
0
10
1325.332691
20
213.452753
11
1323.333286
21
203.231953
0
LINE
8
0
10
1323.333286
20
203.231953
11
1320.864484
21
190.505332
0
LINE
8
0
10
1320.864484
20
190.505332
11
1318.000868
21
175.657366
0
LINE
8
0
10
1318.000868
20
175.657366
11
1314.817023
21
159.072532
0
LINE
8
0
10
1314.817023
20
159.072532
11
1311.387530
21
141.135305
0
LINE
8
0
10
1311.387530
20
141.135305
11
1309.603974
21
131.779694
0
LINE
8
0
10
1309.603974
20
131.779694
11
1307.820870
21
122.429213
0
LINE
8
0
10
1307.820870
20
122.429213
11
1304.394855
21
104.531512
0
LINE
8
0
10
1304.394855
20
104.531512
11
1301.217622
21
88.021840
0
LINE
8
0
10
1301.217622
20
88.021840
11
1298.363398
21
73.280618
0
LINE
8
0
10
1298.363398
20
73.280618
11
1295.906408
21
60.688266
0
LINE
8
0
10
1295.906408
20
60.688266
11
1293.920881
21
50.625203
0
LINE
8
0
10
1293.920881
20
50.625203
11
1292.481041
21
43.471850
0
LINE
8
0
10
1292.481041
20
43.471850
11
1291.661117
21
39.608626
0
LINE
8
0
10
1291.661117
20
39.608626
11
1291.506818
21
39.029694
0
LINE
8
0
10
1291.506818
20
39.029694
11
1290.836812
21
38.787838
0
LINE
8
0
10
1290.836812
20
38.787838
11
1286.832975
21
38.400867
0
LINE
8
0
10
1286.832975
20
38.400867
11
1280.165314
21
38.142887
0
LINE
8
0
10
1280.165314
20
38.142887
11
1271.899360
21
38.013897
0
LINE
8
0
10
1271.899360
20
38.013897
11
1263.100640
21
38.013897
0
LINE
8
0
10
1263.100640
20
38.013897
11
1254.834686
21
38.142887
0
LINE
8
0
10
1254.834686
20
38.142887
11
1248.167025
21
38.400867
0
LINE
8
0
10
1248.167025
20
38.400867
11
1244.163188
21
38.787838
0
LINE
8
0
10
1244.163188
20
38.787838
11
1243.493182
21
39.029694
0
LINE
8
0
10
1243.493182
20
39.029694
11
1243.338883
21
39.608626
0
LINE
8
0
10
1243.338883
20
39.608626
11
1242.518959
21
43.471850
0
LINE
8
0
10
1242.518959
20
43.471850
11
1241.079119
21
50.625203
0
LINE
8
0
10
1241.079119
20
50.625203
11
1239.093592
21
60.688266
0
LINE
8
0
10
1239.093592
20
60.688266
11
1236.636602
21
73.280618
0
LINE
8
0
10
1236.636602
20
73.280618
11
1233.782378
21
88.021840
0
LINE
8
0
10
1233.782378
20
88.021840
11
1230.605145
21
104.531512
0
LINE
8
0
10
1230.605145
20
104.531512
11
1227.179130
21
122.429213
0
LINE
8
0
10
1227.179130
20
122.429213
11
1225.396026
21
131.779694
0
LINE
8
0
10
1225.396026
20
131.779694
11
1223.612470
21
141.135305
0
LINE
8
0
10
1223.612470
20
141.135305
11
1220.182977
21
159.072532
0
LINE
8
0
10
1220.182977
20
159.072532
11
1216.999132
21
175.657366
0
LINE
8
0
10
1216.999132
20
175.657366
11
1214.135516
21
190.505332
0
LINE
8
0
10
1214.135516
20
190.505332
11
1211.666714
21
203.231953
0
LINE
8
0
10
1211.666714
20
203.231953
11
1209.667309
21
213.452753
0
LINE
8
0
10
1209.667309
20
213.452753
11
1208.211884
21
220.783256
0
LINE
8
0
10
1208.211884
20
220.783256
11
1207.375023
21
224.838986
0
LINE
8
0
10
1207.375023
20
224.838986
11
1207.211861
21
225.518662
0
LINE
8
0
10
1207.211861
20
225.518662
11
1207.136751
21
225.232132
0
LINE
8
0
10
1207.136751
20
225.232132
11
1206.978202
21
221.844669
0
LINE
8
0
10
1206.978202
20
221.844669
11
1206.812689
21
215.020829
0
LINE
8
0
10
1206.812689
20
215.020829
11
1206.645182
21
205.140006
0
LINE
8
0
10
1206.645182
20
205.140006
11
1206.480652
21
192.581595
0
LINE
8
0
10
1206.480652
20
192.581595
11
1206.324069
21
177.724991
0
LINE
8
0
10
1206.324069
20
177.724991
11
1206.180404
21
160.949588
0
LINE
8
0
10
1206.180404
20
160.949588
11
1206.054627
21
142.634781
0
LINE
8
0
10
1206.054627
20
142.634781
11
1206.000000
21
133.018662
0
LINE
8
0
10
1206.000000
20
133.018662
11
1205.500000
21
38.518662
0
LINE
8
0
10
1205.500000
20
38.518662
11
1175.384448
21
38.254199
0
LINE
8
0
10
1175.384448
20
38.254199
11
1170.999723
21
38.218842
0
LINE
8
0
10
1170.999723
20
38.218842
11
1163.467364
21
38.180579
0
LINE
8
0
10
1163.467364
20
38.180579
11
1157.448794
21
38.190388
0
LINE
8
0
10
1157.448794
20
38.190388
11
1152.781213
21
38.254038
0
LINE
8
0
10
1152.781213
20
38.254038
11
1147.956825
21
38.463079
0
LINE
8
0
10
1147.956825
20
38.463079
11
1144.733311
21
38.984067
0
LINE
8
0
10
1144.733311
20
38.984067
11
1144.130544
21
39.361366
0
LINE
8
0
10
349.214343
20
39.204318
11
349.045902
21
39.710740
0
LINE
8
0
10
349.045902
20
39.710740
11
348.753454
21
42.881383
0
LINE
8
0
10
348.753454
20
42.881383
11
348.516447
21
49.320348
0
LINE
8
0
10
348.516447
20
49.320348
11
348.372330
21
56.576844
0
LINE
8
0
10
348.372330
20
56.576844
11
348.291201
21
62.680392
0
LINE
8
0
10
348.291201
20
62.680392
11
348.221366
21
69.865116
0
LINE
8
0
10
348.221366
20
69.865116
11
348.162254
21
78.189705
0
LINE
8
0
10
348.162254
20
78.189705
11
348.113294
21
87.712846
0
LINE
8
0
10
348.113294
20
87.712846
11
348.073916
21
98.493228
0
LINE
8
0
10
348.073916
20
98.493228
11
348.043550
21
110.589539
0
LINE
8
0
10
348.043550
20
110.589539
11
348.021625
21
124.060467
0
LINE
8
0
10
348.021625
20
124.060467
11
348.007571
21
138.964699
0
LINE
8
0
10
348.007571
20
138.964699
11
348.000817
21
155.360924
0
LINE
8
0
10
348.000817
20
155.360924
11
348.000000
21
164.136874
0
LINE
8
0
10
348.000000
20
164.136874
11
348.003149
21
176.747967
0
LINE
8
0
10
348.003149
20
176.747967
11
348.027408
21
200.893346
0
LINE
8
0
10
348.027408
20
200.893346
11
348.073540
21
223.174709
0
LINE
8
0
10
348.073540
20
223.174709
11
348.139055
21
243.078131
0
LINE
8
0
10
348.139055
20
243.078131
11
348.221463
21
260.089686
0
LINE
8
0
10
348.221463
20
260.089686
11
348.318276
21
273.695448
0
LINE
8
0
10
348.318276
20
273.695448
11
348.398841
21
281.355561
0
LINE
8
0
10
348.398841
20
281.355561
11
348.455756
21
285.130322
0
LINE
8
0
10
348.455756
20
285.130322
11
348.514871
21
287.764552
0
LINE
8
0
10
348.514871
20
287.764552
11
348.575875
21
289.194010
0
LINE
8
0
10
348.575875
20
289.194010
11
348.606989
21
289.436874
0
LINE
8
0
10
348.606989
20
289.436874
11
349.090427
21
289.910128
0
LINE
8
0
10
349.090427
20
289.910128
11
351.462229
21
290.429249
0
LINE
8
0
10
351.462229
20
290.429249
11
354.696990
21
290.666465
0
LINE
8
0
10
354.696990
20
290.666465
11
359.699236
21
290.831235
0
LINE
8
0
10
359.699236
20
290.831235
11
366.850085
21
290.936113
0
LINE
8
0
10
366.850085
20
290.936113
11
376.530654
21
290.993652
0
LINE
8
0
10
376.530654
20
290.993652
11
389.122061
21
291.016406
0
LINE
8
0
10
389.122061
20
291.016406
11
396.628428
21
291.018662
0
LINE
8
0
10
396.628428
20
291.018662
11
444.042878
21
291.018662
0
LINE
8
0
10
444.042878
20
291.018662
11
444.967179
21
288.768662
0
LINE
8
0
10
444.967179
20
288.768662
11
445.129286
21
288.163537
0
LINE
8
0
10
445.129286
20
288.163537
11
445.832664
21
284.829640
0
LINE
8
0
10
445.832664
20
284.829640
11
446.993669
21
278.919568
0
LINE
8
0
10
446.993669
20
278.919568
11
448.554786
21
270.739749
0
LINE
8
0
10
448.554786
20
270.739749
11
450.458505
21
260.596612
0
LINE
8
0
10
450.458505
20
260.596612
11
452.647314
21
248.796585
0
LINE
8
0
10
452.647314
20
248.796585
11
456.339261
21
228.660187
0
LINE
8
0
10
456.339261
20
228.660187
11
458.989178
21
214.058557
0
LINE
8
0
10
458.989178
20
214.058557
11
461.627684
21
199.495396
0
LINE
8
0
10
461.627684
20
199.495396
11
465.263311
21
179.548875
0
LINE
8
0
10
465.263311
20
179.548875
11
467.391779
21
167.952277
0
LINE
8
0
10
467.391779
20
167.952277
11
469.219599
21
158.065025
0
LINE
8
0
10
469.219599
20
158.065025
11
470.691550
21
150.185818
0
LINE
8
0
10
470.691550
20
150.185818
11
471.752415
21
144.613352
0
LINE
8
0
10
471.752415
20
144.613352
11
472.346973
21
141.646327
0
LINE
8
0
10
472.346973
20
141.646327
11
472.452132
21
141.233197
0
LINE
8
0
10
472.452132
20
141.233197
11
472.583572
21
141.174854
0
LINE
8
0
10
472.583572
20
141.174854
11
472.923482
21
141.755552
0
LINE
8
0
10
472.923482
20
141.755552
11
473.486459
21
143.892041
0
LINE
8
0
10
473.486459
20
143.892041
11
474.416929
21
148.335451
0
LINE
8
0
10
474.416929
20
148.335451
11
475.859323
21
155.836913
0
LINE
8
0
10
475.859323
20
155.836913
11
477.363950
21
163.921710
0
LINE
8
0
10
477.363950
20
163.921710
11
478.602235
21
170.658430
0
LINE
8
0
10
478.602235
20
170.658430
11
480.049741
21
178.582176
0
LINE
8
0
10
480.049741
20
178.582176
11
481.724523
21
187.786837
0
LINE
8
0
10
481.724523
20
187.786837
11
483.644635
21
198.366306
0
LINE
8
0
10
483.644635
20
198.366306
11
485.828129
21
210.414474
0
LINE
8
0
10
485.828129
20
210.414474
11
487.024286
21
217.018662
0
LINE
8
0
10
487.024286
20
217.018662
11
489.676712
21
231.597892
0
LINE
8
0
10
489.676712
20
231.597892
11
493.358157
21
251.595134
0
LINE
8
0
10
493.358157
20
251.595134
11
495.531406
21
263.240693
0
LINE
8
0
10
495.531406
20
263.240693
11
497.413483
21
273.186942
0
LINE
8
0
10
497.413483
20
273.186942
11
498.947528
21
281.133402
0
LINE
8
0
10
498.947528
20
281.133402
11
500.076683
21
286.779593
0
LINE
8
0
10
500.076683
20
286.779593
11
500.744091
21
289.825034
0
LINE
8
0
10
500.744091
20
289.825034
11
500.886872
21
290.278574
0
LINE
8
0
10
500.886872
20
290.278574
11
501.207655
21
290.354636
0
LINE
8
0
10
501.207655
20
290.354636
11
503.246308
21
290.492167
0
LINE
8
0
10
503.246308
20
290.492167
11
506.983092
21
290.608534
0
LINE
8
0
10
506.983092
20
290.608534
11
512.220421
21
290.701684
0
LINE
8
0
10
512.220421
20
290.701684
11
518.760711
21
290.769567
0
LINE
8
0
10
518.760711
20
290.769567
11
526.406377
21
290.810133
0
LINE
8
0
10
526.406377
20
290.810133
11
539.515239
21
290.815275
0
LINE
8
0
10
539.515239
20
290.815275
11
549.059912
21
290.778574
0
LINE
8
0
10
549.059912
20
290.778574
11
596.500000
21
290.518662
0
LINE
8
0
10
596.500000
20
290.518662
11
596.753904
21
165.625829
0
LINE
8
0
10
596.753904
20
165.625829
11
596.770102
21
157.219104
0
LINE
8
0
10
596.770102
20
157.219104
11
596.795000
21
141.401266
0
LINE
8
0
10
596.795000
20
141.401266
11
596.809689
21
126.880541
0
LINE
8
0
10
596.809689
20
126.880541
11
596.813918
21
113.620484
0
LINE
8
0
10
596.813918
20
113.620484
11
596.807434
21
101.584648
0
LINE
8
0
10
596.807434
20
101.584648
11
596.789986
21
90.736590
0
LINE
8
0
10
596.789986
20
90.736590
11
596.761322
21
81.039864
0
LINE
8
0
10
596.761322
20
81.039864
11
596.721190
21
72.458025
0
LINE
8
0
10
596.721190
20
72.458025
11
596.669338
21
64.954629
0
LINE
8
0
10
596.669338
20
64.954629
11
596.605515
21
58.493229
0
LINE
8
0
10
596.605515
20
58.493229
11
596.486782
21
50.675151
0
LINE
8
0
10
596.486782
20
50.675151
11
596.284219
21
43.557884
0
LINE
8
0
10
596.284219
20
43.557884
11
596.029237
21
39.952594
0
LINE
8
0
10
596.029237
20
39.952594
11
595.881459
21
39.375829
0
LINE
8
0
10
595.881459
20
39.375829
11
595.576941
21
39.206628
0
LINE
8
0
10
595.576941
20
39.206628
11
594.069407
21
38.898496
0
LINE
8
0
10
594.069407
20
38.898496
11
589.867248
21
38.512760
0
LINE
8
0
10
589.867248
20
38.512760
11
581.496511
21
38.143391
0
LINE
8
0
10
581.496511
20
38.143391
11
571.156904
21
37.942767
0
LINE
8
0
10
571.156904
20
37.942767
11
560.151406
21
37.914262
0
LINE
8
0
10
560.151406
20
37.914262
11
549.782992
21
38.061252
0
LINE
8
0
10
549.782992
20
38.061252
11
541.354643
21
38.387111
0
LINE
8
0
10
541.354643
20
38.387111
11
537.090369
21
38.750919
0
LINE
8
0
10
537.090369
20
38.750919
11
535.532424
21
39.051111
0
LINE
8
0
10
535.532424
20
39.051111
11
535.200000
21
39.218662
0
LINE
8
0
10
535.200000
20
39.218662
11
535.035496
21
39.649799
0
LINE
8
0
10
535.035496
20
39.649799
11
534.747324
21
42.189221
0
LINE
8
0
10
534.747324
20
42.189221
11
534.510005
21
47.231071
0
LINE
8
0
10
534.510005
20
47.231071
11
534.319227
21
55.094823
0
LINE
8
0
10
534.319227
20
55.094823
11
534.170679
21
66.099952
0
LINE
8
0
10
534.170679
20
66.099952
11
534.060047
21
80.565933
0
LINE
8
0
10
534.060047
20
80.565933
11
533.999361
21
93.878786
0
LINE
8
0
10
533.999361
20
93.878786
11
533.968508
21
104.001930
0
LINE
8
0
10
533.968508
20
104.001930
11
533.944707
21
115.169992
0
LINE
8
0
10
533.944707
20
115.169992
11
533.927421
21
127.422906
0
LINE
8
0
10
533.927421
20
127.422906
11
533.921053
21
133.968662
0
LINE
8
0
10
533.921053
20
133.968662
11
533.908237
21
144.230388
0
LINE
8
0
10
533.908237
20
144.230388
11
533.859723
21
163.281342
0
LINE
8
0
10
533.859723
20
163.281342
11
533.782638
21
180.186431
0
LINE
8
0
10
533.782638
20
180.186431
11
533.679314
21
194.726613
0
LINE
8
0
10
533.679314
20
194.726613
11
533.552082
21
206.682847
0
LINE
8
0
10
533.552082
20
206.682847
11
533.403273
21
215.836091
0
LINE
8
0
10
533.403273
20
215.836091
11
533.235218
21
221.967304
0
LINE
8
0
10
533.235218
20
221.967304
11
533.050248
21
224.857444
0
LINE
8
0
10
533.050248
20
224.857444
11
532.952147
21
225.018662
0
LINE
8
0
10
532.952147
20
225.018662
11
532.772921
21
224.297074
0
LINE
8
0
10
532.772921
20
224.297074
11
531.917397
21
220.213517
0
LINE
8
0
10
531.917397
20
220.213517
11
530.460504
21
212.925614
0
LINE
8
0
10
530.460504
20
212.925614
11
528.475915
21
202.812760
0
LINE
8
0
10
528.475915
20
202.812760
11
526.037301
21
190.254349
0
LINE
8
0
10
526.037301
20
190.254349
11
523.218333
21
175.629776
0
LINE
8
0
10
523.218333
20
175.629776
11
520.092682
21
159.318436
0
LINE
8
0
10
520.092682
20
159.318436
11
516.734020
21
141.699723
0
LINE
8
0
10
516.734020
20
141.699723
11
514.990333
21
132.518662
0
LINE
8
0
10
514.990333
20
132.518662
11
513.246397
21
123.338898
0
LINE
8
0
10
513.246397
20
123.338898
11
509.885824
21
105.730176
0
LINE
8
0
10
509.885824
20
105.730176
11
506.756537
21
89.437836
0
LINE
8
0
10
506.756537
20
89.437836
11
503.932405
21
74.840247
0
LINE
8
0
10
503.932405
20
74.840247
11
501.487296
21
62.315778
0
LINE
8
0
10
501.487296
20
62.315778
11
499.495076
21
52.242798
0
LINE
8
0
10
499.495076
20
52.242798
11
498.029614
21
44.999677
0
LINE
8
0
10
498.029614
20
44.999677
11
497.164777
21
40.964783
0
LINE
8
0
10
497.164777
20
40.964783
11
496.980677
21
40.268662
0
LINE
8
0
10
496.980677
20
40.268662
11
496.623073
21
39.528066
0
LINE
8
0
10
496.623073
20
39.528066
11
495.015962
21
38.571162
0
LINE
8
0
10
495.015962
20
38.571162
11
491.915201
21
38.209418
0
LINE
8
0
10
491.915201
20
38.209418
11
488.414484
21
38.088786
0
LINE
8
0
10
488.414484
20
38.088786
11
483.436560
21
38.034114
0
LINE
8
0
10
483.436560
20
38.034114
11
476.698249
21
38.019291
0
LINE
8
0
10
476.698249
20
38.019291
11
472.580456
21
38.018662
0
LINE
8
0
10
472.580456
20
38.018662
11
467.857293
21
38.034934
0
LINE
8
0
10
467.857293
20
38.034934
11
459.401502
21
38.155301
0
LINE
8
0
10
459.401502
20
38.155301
11
452.921446
21
38.370965
0
LINE
8
0
10
452.921446
20
38.370965
11
449.203154
21
38.655765
0
LINE
8
0
10
449.203154
20
38.655765
11
448.625303
21
38.815917
0
LINE
8
0
10
448.625303
20
38.815917
11
448.483783
21
39.376776
0
LINE
8
0
10
448.483783
20
39.376776
11
447.684335
21
43.226914
0
LINE
8
0
10
447.684335
20
43.226914
11
446.258195
21
50.396222
0
LINE
8
0
10
446.258195
20
50.396222
11
444.279586
21
60.502229
0
LINE
8
0
10
444.279586
20
60.502229
11
441.822729
21
73.162465
0
LINE
8
0
10
441.822729
20
73.162465
11
438.961848
21
87.994458
0
LINE
8
0
10
438.961848
20
87.994458
11
435.771165
21
104.615738
0
LINE
8
0
10
435.771165
20
104.615738
11
432.324904
21
122.643835
0
LINE
8
0
10
432.324904
20
122.643835
11
430.529125
21
132.065917
0
LINE
8
0
10
430.529125
20
132.065917
11
428.732205
21
141.491645
0
LINE
8
0
10
428.732205
20
141.491645
11
425.277146
21
159.547828
0
LINE
8
0
10
425.277146
20
159.547828
11
422.069735
21
176.222517
0
LINE
8
0
10
422.069735
20
176.222517
11
419.185097
21
191.130361
0
LINE
8
0
10
419.185097
20
191.130361
11
416.698357
21
203.886006
0
LINE
8
0
10
416.698357
20
203.886006
11
414.684641
21
214.104099
0
LINE
8
0
10
414.684641
20
214.104099
11
413.219074
21
221.399287
0
LINE
8
0
10
413.219074
20
221.399287
11
412.376781
21
225.386217
0
LINE
8
0
10
412.376781
20
225.386217
11
412.212839
21
226.018662
0
LINE
8
0
10
412.212839
20
226.018662
11
412.137630
21
225.681198
0
LINE
8
0
10
412.137630
20
225.681198
11
411.978890
21
222.196408
0
LINE
8
0
10
411.978890
20
222.196408
11
411.813202
21
215.283005
0
LINE
8
0
10
411.813202
20
215.283005
11
411.645539
21
205.322434
0
LINE
8
0
10
411.645539
20
205.322434
11
411.480876
21
192.696140
0
LINE
8
0
10
411.480876
20
192.696140
11
411.324187
21
177.785569
0
LINE
8
0
10
411.324187
20
177.785569
11
411.180448
21
160.972165
0
LINE
8
0
10
411.180448
20
160.972165
11
411.054632
21
142.637375
0
LINE
8
0
10
411.054632
20
142.637375
11
411.000000
21
133.018662
0
LINE
8
0
10
411.000000
20
133.018662
11
410.500000
21
38.518662
0
LINE
8
0
10
410.500000
20
38.518662
11
380.464343
21
38.254318
0
LINE
8
0
10
380.464343
20
38.254318
11
376.411526
21
38.222314
0
LINE
8
0
10
376.411526
20
38.222314
11
369.294390
21
38.190340
0
LINE
8
0
10
369.294390
20
38.190340
11
363.419034
21
38.203394
0
LINE
8
0
10
363.419034
20
38.203394
11
358.694000
21
38.264257
0
LINE
8
0
10
358.694000
20
38.264257
11
353.563237
21
38.451274
0
LINE
8
0
10
353.563237
20
38.451274
11
349.894731
21
38.893910
0
LINE
8
0
10
349.894731
20
38.893910
11
349.214343
21
39.204318
0
LINE
8
0
10
998.500000
20
35.167135
11
991.155073
21
36.167227
0
LINE
8
0
10
991.155073
20
36.167227
11
978.393136
21
39.135465
0
LINE
8
0
10
978.393136
20
39.135465
11
967.718370
21
43.596449
0
LINE
8
0
10
967.718370
20
43.596449
11
958.550713
21
49.792585
0
LINE
8
0
10
958.550713
20
49.792585
11
954.350780
21
53.617088
0
LINE
8
0
10
954.350780
20
53.617088
11
950.467426
21
57.883179
0
LINE
8
0
10
950.467426
20
57.883179
11
943.880322
21
67.713610
0
LINE
8
0
10
943.880322
20
67.713610
11
938.825391
21
79.368733
0
LINE
8
0
10
938.825391
20
79.368733
11
935.253869
21
92.960981
0
LINE
8
0
10
935.253869
20
92.960981
11
934.009147
21
100.518662
0
LINE
8
0
10
934.009147
20
100.518662
11
933.875722
21
101.846892
0
LINE
8
0
10
933.875722
20
101.846892
11
933.642800
21
106.375851
0
LINE
8
0
10
933.642800
20
106.375851
11
933.454823
21
113.437994
0
LINE
8
0
10
933.454823
20
113.437994
11
933.311434
21
123.077140
0
LINE
8
0
10
933.311434
20
123.077140
11
933.212281
21
135.337110
0
LINE
8
0
10
933.212281
20
135.337110
11
933.157008
21
150.261726
0
LINE
8
0
10
933.157008
20
150.261726
11
933.145261
21
167.894807
0
LINE
8
0
10
933.145261
20
167.894807
11
933.176686
21
188.280176
0
LINE
8
0
10
933.176686
20
188.280176
11
933.208477
21
199.518662
0
LINE
8
0
10
933.208477
20
199.518662
11
933.500000
21
290.518662
0
LINE
8
0
10
933.500000
20
290.518662
11
966.500000
21
290.518662
0
LINE
8
0
10
966.500000
20
290.518662
11
999.500000
21
290.518662
0
LINE
8
0
10
999.500000
20
290.518662
11
1000.000000
21
192.018662
0
LINE
8
0
10
1000.000000
20
192.018662
11
1000.046495
21
182.852359
0
LINE
8
0
10
1000.046495
20
182.852359
11
1000.132663
21
166.238922
0
LINE
8
0
10
1000.132663
20
166.238922
11
1000.215124
21
151.781799
0
LINE
8
0
10
1000.215124
20
151.781799
11
1000.300339
21
139.317898
0
LINE
8
0
10
1000.300339
20
139.317898
11
1000.394774
21
128.684124
0
LINE
8
0
10
1000.394774
20
128.684124
11
1000.504890
21
119.717386
0
LINE
8
0
10
1000.504890
20
119.717386
11
1000.637154
21
112.254589
0
LINE
8
0
10
1000.637154
20
112.254589
11
1000.798027
21
106.132642
0
LINE
8
0
10
1000.798027
20
106.132642
11
1001.107119
21
99.107048
0
LINE
8
0
10
1001.107119
20
99.107048
11
1001.679703
21
92.910360
0
LINE
8
0
10
1001.679703
20
92.910360
11
1002.987461
21
87.759574
0
LINE
8
0
10
1002.987461
20
87.759574
11
1004.233963
21
85.185798
0
LINE
8
0
10
1004.233963
20
85.185798
11
1005.055035
21
84.069536
0
LINE
8
0
10
1005.055035
20
84.069536
11
1008.107712
21
81.405474
0
LINE
8
0
10
1008.107712
20
81.405474
11
1009.963327
21
80.185798
0
LINE
8
0
10
1009.963327
20
80.185798
11
1012.464615
21
78.873704
0
LINE
8
0
10
1012.464615
20
78.873704
11
1017.341133
21
77.676722
0
LINE
8
0
10
1017.341133
20
77.676722
11
1020.500000
21
77.599485
0
LINE
8
0
10
1020.500000
20
77.599485
11
1023.813071
21
77.819000
0
LINE
8
0
10
1023.813071
20
77.819000
11
1029.450249
21
79.334585
0
LINE
8
0
10
1029.450249
20
79.334585
11
1033.903374
21
82.377532
0
LINE
8
0
10
1033.903374
20
82.377532
11
1037.333926
21
87.058185
0
LINE
8
0
10
1037.333926
20
87.058185
11
1038.716199
21
90.047134
0
LINE
8
0
10
1038.716199
20
90.047134
11
1039.009737
21
90.882401
0
LINE
8
0
10
1039.009737
20
90.882401
11
1039.502309
21
93.246875
0
LINE
8
0
10
1039.502309
20
93.246875
11
1039.886407
21
97.323135
0
LINE
8
0
10
1039.886407
20
97.323135
11
1040.183067
21
104.055024
0
LINE
8
0
10
1040.183067
20
104.055024
11
1040.360834
21
111.414476
0
LINE
8
0
10
1040.360834
20
111.414476
11
1040.462977
21
117.642245
0
LINE
8
0
10
1040.462977
20
117.642245
11
1040.555093
21
125.064831
0
LINE
8
0
10
1040.555093
20
125.064831
11
1040.639812
21
133.800216
0
LINE
8
0
10
1040.639812
20
133.800216
11
1040.719762
21
143.966378
0
LINE
8
0
10
1040.719762
20
143.966378
11
1040.797573
21
155.681299
0
LINE
8
0
10
1040.797573
20
155.681299
11
1040.875875
21
169.062958
0
LINE
8
0
10
1040.875875
20
169.062958
11
1040.957297
21
184.229335
0
LINE
8
0
10
1040.957297
20
184.229335
11
1041.000000
21
192.518662
0
LINE
8
0
10
1041.000000
20
192.518662
11
1041.500000
21
290.518662
0
LINE
8
0
10
1041.500000
20
290.518662
11
1074.500000
21
290.518662
0
LINE
8
0
10
1074.500000
20
290.518662
11
1107.500000
21
290.518662
0
LINE
8
0
10
1107.500000
20
290.518662
11
1107.790743
21
202.018662
0
LINE
8
0
10
1107.790743
20
202.018662
11
1107.822410
21
191.070556
0
LINE
8
0
10
1107.822410
20
191.070556
11
1107.853191
21
171.169284
0
LINE
8
0
10
1107.853191
20
171.169284
11
1107.840247
21
153.889556
0
LINE
8
0
10
1107.840247
20
153.889556
11
1107.783194
21
139.185320
0
LINE
8
0
10
1107.783194
20
139.185320
11
1107.681648
21
127.010526
0
LINE
8
0
10
1107.681648
20
127.010526
11
1107.535225
21
117.319121
0
LINE
8
0
10
1107.535225
20
117.319121
11
1107.343541
21
110.065055
0
LINE
8
0
10
1107.343541
20
110.065055
11
1107.106211
21
105.202277
0
LINE
8
0
10
1107.106211
20
105.202277
11
1106.970309
21
103.653229
0
LINE
8
0
10
1106.970309
20
103.653229
11
1106.033328
21
96.858721
0
LINE
8
0
10
1106.033328
20
96.858721
11
1103.250708
21
84.298005
0
LINE
8
0
10
1103.250708
20
84.298005
11
1099.271346
21
73.127843
0
LINE
8
0
10
1099.271346
20
73.127843
11
1094.113004
21
63.371617
0
LINE
8
0
10
1094.113004
20
63.371617
11
1087.793447
21
55.052711
0
LINE
8
0
10
1087.793447
20
55.052711
11
1080.330437
21
48.194508
0
LINE
8
0
10
1080.330437
20
48.194508
11
1071.741738
21
42.820390
0
LINE
8
0
10
1071.741738
20
42.820390
11
1062.045112
21
38.953740
0
LINE
8
0
10
1062.045112
20
38.953740
11
1056.786877
21
37.593023
0
LINE
8
0
10
1056.786877
20
37.593023
11
1050.439268
21
36.409497
0
LINE
8
0
10
1050.439268
20
36.409497
11
1036.153639
21
34.764257
0
LINE
8
0
10
1036.153639
20
34.764257
11
1020.795723
21
34.125063
0
LINE
8
0
10
1020.795723
20
34.125063
11
1005.623435
21
34.544271
0
LINE
8
0
10
1005.623435
20
34.544271
11
998.500000
21
35.167135
0
LINE
8
0
10
790.014817
20
35.169897
11
783.682313
21
35.975936
0
LINE
8
0
10
783.682313
20
35.975936
11
772.051045
21
38.357509
0
LINE
8
0
10
772.051045
20
38.357509
11
761.776186
21
41.781032
0
LINE
8
0
10
761.776186
20
41.781032
11
752.831445
21
46.265651
0
LINE
8
0
10
752.831445
20
46.265651
11
745.190532
21
51.830515
0
LINE
8
0
10
745.190532
20
51.830515
11
738.827157
21
58.494770
0
LINE
8
0
10
738.827157
20
58.494770
11
733.715027
21
66.277565
0
LINE
8
0
10
733.715027
20
66.277565
11
729.827854
21
75.198046
0
LINE
8
0
10
729.827854
20
75.198046
11
728.335409
21
80.090903
0
LINE
8
0
10
728.335409
20
80.090903
11
727.566525
21
83.734213
0
LINE
8
0
10
727.566525
20
83.734213
11
726.689646
21
93.332663
0
LINE
8
0
10
726.689646
20
93.332663
11
726.560561
21
99.518662
0
LINE
8
0
10
726.560561
20
99.518662
11
726.500000
21
112.518662
0
LINE
8
0
10
726.500000
20
112.518662
11
757.379897
21
112.783301
0
LINE
8
0
10
757.379897
20
112.783301
11
761.348983
21
112.813387
0
LINE
8
0
10
761.348983
20
112.813387
11
768.424297
21
112.841917
0
LINE
8
0
10
768.424297
20
112.841917
11
774.390914
21
112.827128
0
LINE
8
0
10
774.390914
20
112.827128
11
779.298972
21
112.767664
0
LINE
8
0
10
779.298972
20
112.767664
11
784.785939
21
112.591736
0
LINE
8
0
10
784.785939
20
112.591736
11
788.864895
21
112.188143
0
LINE
8
0
10
788.864895
20
112.188143
11
789.629897
21
111.910857
0
LINE
8
0
10
789.629897
20
111.910857
11
790.219603
21
111.019547
0
LINE
8
0
10
790.219603
20
111.019547
11
790.911130
21
107.318316
0
LINE
8
0
10
790.911130
20
107.318316
11
791.000000
21
104.577718
0
LINE
8
0
10
791.000000
20
104.577718
11
791.265327
21
99.647829
0
LINE
8
0
10
791.265327
20
99.647829
11
793.332525
21
91.059146
0
LINE
8
0
10
793.332525
20
91.059146
11
797.325292
21
84.371534
0
LINE
8
0
10
797.325292
20
84.371534
11
803.095842
21
79.832526
0
LINE
8
0
10
803.095842
20
79.832526
11
806.601603
21
78.446102
0
LINE
8
0
10
806.601603
20
78.446102
11
810.346901
21
77.642351
0
LINE
8
0
10
810.346901
20
77.642351
11
817.504239
21
77.756087
0
LINE
8
0
10
817.504239
20
77.756087
11
823.923460
21
80.059395
0
LINE
8
0
10
823.923460
20
80.059395
11
829.252035
21
84.425784
0
LINE
8
0
10
829.252035
20
84.425784
11
831.397166
21
87.343105
0
LINE
8
0
10
831.397166
20
87.343105
11
832.939739
21
90.122700
0
LINE
8
0
10
832.939739
20
90.122700
11
834.227435
21
94.315544
0
LINE
8
0
10
834.227435
20
94.315544
11
834.656236
21
98.113089
0
LINE
8
0
10
834.656236
20
98.113089
11
834.807166
21
100.566274
0
LINE
8
0
10
834.807166
20
100.566274
11
834.925514
21
103.153646
0
LINE
8
0
10
834.925514
20
103.153646
11
834.912119
21
107.019776
0
LINE
8
0
10
834.912119
20
107.019776
11
833.976572
21
111.322445
0
LINE
8
0
10
833.976572
20
111.322445
11
832.516838
21
114.573773
0
LINE
8
0
10
832.516838
20
114.573773
11
830.451834
21
118.134975
0
LINE
8
0
10
830.451834
20
118.134975
11
824.309344
21
124.581863
0
LINE
8
0
10
824.309344
20
124.581863
11
817.170293
21
129.310619
0
LINE
8
0
10
817.170293
20
129.310619
11
810.837858
21
132.643246
0
LINE
8
0
10
810.837858
20
132.643246
11
803.018446
21
136.263575
0
LINE
8
0
10
803.018446
20
136.263575
11
793.516183
21
140.294696
0
LINE
8
0
10
793.516183
20
140.294696
11
788.072770
21
142.502769
0
LINE
8
0
10
788.072770
20
142.502769
11
783.843890
21
144.227594
0
LINE
8
0
10
783.843890
20
144.227594
11
776.216293
21
147.532704
0
LINE
8
0
10
776.216293
20
147.532704
11
766.578303
21
152.301229
0
LINE
8
0
10
766.578303
20
152.301229
11
756.332409
21
158.788410
0
LINE
8
0
10
756.332409
20
158.788410
11
747.999559
21
166.096748
0
LINE
8
0
10
747.999559
20
166.096748
11
744.187860
21
170.288472
0
LINE
8
0
10
744.187860
20
170.288472
11
739.930510
21
176.012457
0
LINE
8
0
10
739.930510
20
176.012457
11
733.002893
21
189.385853
0
LINE
8
0
10
733.002893
20
189.385853
11
730.859240
21
196.018662
0
LINE
8
0
10
730.859240
20
196.018662
11
730.545756
21
197.563964
0
LINE
8
0
10
730.545756
20
197.563964
11
730.045655
21
201.782832
0
LINE
8
0
10
730.045655
20
201.782832
11
729.717955
21
207.449927
0
LINE
8
0
10
729.717955
20
207.449927
11
729.566551
21
214.497897
0
LINE
8
0
10
729.566551
20
214.497897
11
729.558177
21
218.518662
0
LINE
8
0
10
729.558177
20
218.518662
11
729.593549
21
223.438547
0
LINE
8
0
10
729.593549
20
223.438547
11
729.809179
21
230.989969
0
LINE
8
0
10
729.809179
20
230.989969
11
730.710474
21
238.970056
0
LINE
8
0
10
730.710474
20
238.970056
11
731.864292
21
243.905055
0
LINE
8
0
10
731.864292
20
243.905055
11
733.306224
21
248.750764
0
LINE
8
0
10
733.306224
20
248.750764
11
736.855039
21
257.694245
0
LINE
8
0
10
736.855039
20
257.694245
11
741.311617
21
265.660764
0
LINE
8
0
10
741.311617
20
265.660764
11
746.701352
21
272.674661
0
LINE
8
0
10
746.701352
20
272.674661
11
753.049634
21
278.760281
0
LINE
8
0
10
753.049634
20
278.760281
11
760.381857
21
283.941963
0
LINE
8
0
10
760.381857
20
283.941963
11
768.723414
21
288.244050
0
LINE
8
0
10
768.723414
20
288.244050
11
778.099696
21
291.690883
0
LINE
8
0
10
778.099696
20
291.690883
11
783.183794
21
293.101187
0
LINE
8
0
10
783.183794
20
293.101187
11
785.564748
21
293.625178
0
LINE
8
0
10
785.564748
20
293.625178
11
791.328363
21
294.518659
0
LINE
8
0
10
791.328363
20
294.518659
11
801.797115
21
295.453430
0
LINE
8
0
10
801.797115
20
295.453430
11
817.252361
21
295.889191
0
LINE
8
0
10
817.252361
20
295.889191
11
828.377613
21
295.563264
0
LINE
8
0
10
828.377613
20
295.563264
11
834.891515
21
295.015947
0
LINE
8
0
10
834.891515
20
295.015947
11
837.741397
21
294.639440
0
LINE
8
0
10
837.741397
20
294.639440
11
843.473052
21
293.630340
0
LINE
8
0
10
843.473052
20
293.630340
11
853.984325
21
290.950490
0
LINE
8
0
10
853.984325
20
290.950490
11
863.259256
21
287.362184
0
LINE
8
0
10
863.259256
20
287.362184
11
871.337492
21
282.833916
0
LINE
8
0
10
871.337492
20
282.833916
11
878.258681
21
277.334184
0
LINE
8
0
10
878.258681
20
277.334184
11
884.062469
21
270.831481
0
LINE
8
0
10
884.062469
20
270.831481
11
888.788506
21
263.294304
0
LINE
8
0
10
888.788506
20
263.294304
11
892.476437
21
254.691147
0
LINE
8
0
10
892.476437
20
254.691147
11
893.943503
21
249.979980
0
LINE
8
0
10
893.943503
20
249.979980
11
894.786002
21
246.486176
0
LINE
8
0
10
894.786002
20
246.486176
11
896.348552
21
237.741861
0
LINE
8
0
10
896.348552
20
237.741861
11
897.478617
21
228.788308
0
LINE
8
0
10
897.478617
20
228.788308
11
897.848005
21
223.475614
0
LINE
8
0
10
897.848005
20
223.475614
11
897.790850
21
221.201577
0
LINE
8
0
10
897.790850
20
221.201577
11
897.656105
21
220.564870
0
LINE
8
0
10
897.656105
20
220.564870
11
897.271538
21
220.098596
0
LINE
8
0
10
897.271538
20
220.098596
11
895.628256
21
219.595826
0
LINE
8
0
10
895.628256
20
219.595826
11
893.470122
21
219.377053
0
LINE
8
0
10
893.470122
20
219.377053
11
890.180571
21
219.239654
0
LINE
8
0
10
890.180571
20
219.239654
11
885.518467
21
219.173558
0
LINE
8
0
10
885.518467
20
219.173558
11
879.242673
21
219.168694
0
LINE
8
0
10
879.242673
20
219.168694
11
871.112051
21
219.214988
0
LINE
8
0
10
871.112051
20
219.214988
11
866.275825
21
219.254173
0
LINE
8
0
10
866.275825
20
219.254173
11
835.500000
21
219.518662
0
LINE
8
0
10
835.500000
20
219.518662
11
834.887688
21
227.018662
0
LINE
8
0
10
834.887688
20
227.018662
11
834.250704
21
231.828762
0
LINE
8
0
10
834.250704
20
231.828762
11
831.699400
21
240.229914
0
LINE
8
0
10
831.699400
20
240.229914
11
827.671842
21
246.644358
0
LINE
8
0
10
827.671842
20
246.644358
11
822.440264
21
250.638524
0
LINE
8
0
10
822.440264
20
250.638524
11
819.458041
21
251.592511
0
LINE
8
0
10
819.458041
20
251.592511
11
816.710044
21
251.954259
0
LINE
8
0
10
816.710044
20
251.954259
11
811.502304
21
251.748725
0
LINE
8
0
10
811.502304
20
251.748725
11
806.770749
21
250.393320
0
LINE
8
0
10
806.770749
20
250.393320
11
802.625593
21
247.994640
0
LINE
8
0
10
802.625593
20
247.994640
11
799.177053
21
244.659284
0
LINE
8
0
10
799.177053
20
244.659284
11
796.535344
21
240.493851
0
LINE
8
0
10
796.535344
20
240.493851
11
794.810682
21
235.604937
0
LINE
8
0
10
794.810682
20
235.604937
11
794.113282
21
230.099143
0
LINE
8
0
10
794.113282
20
230.099143
11
794.184247
21
227.148227
0
LINE
8
0
10
794.184247
20
227.148227
11
794.495960
21
224.254804
0
LINE
8
0
10
794.495960
20
224.254804
11
795.789783
21
218.999625
0
LINE
8
0
10
795.789783
20
218.999625
11
798.199744
21
214.278413
0
LINE
8
0
10
798.199744
20
214.278413
11
801.992570
21
209.881262
0
LINE
8
0
10
801.992570
20
209.881262
11
807.434988
21
205.598269
0
LINE
8
0
10
807.434988
20
205.598269
11
814.793727
21
201.219527
0
LINE
8
0
10
814.793727
20
201.219527
11
824.335514
21
196.535130
0
LINE
8
0
10
824.335514
20
196.535130
11
836.327076
21
191.335175
0
LINE
8
0
10
836.327076
20
191.335175
11
843.324875
21
188.476267
0
LINE
8
0
10
843.324875
20
188.476267
11
847.894156
21
186.598270
0
LINE
8
0
10
847.894156
20
186.598270
11
856.207234
21
182.932748
0
LINE
8
0
10
856.207234
20
182.932748
11
866.824006
21
177.521635
0
LINE
8
0
10
866.824006
20
177.521635
11
878.111479
21
170.080293
0
LINE
8
0
10
878.111479
20
170.080293
11
886.945697
21
161.836368
0
LINE
8
0
10
886.945697
20
161.836368
11
890.723989
21
157.228086
0
LINE
8
0
10
890.723989
20
157.228086
11
893.997566
21
152.602536
0
LINE
8
0
10
893.997566
20
152.602536
11
899.028985
21
143.488413
0
LINE
8
0
10
899.028985
20
143.488413
11
902.303459
21
133.773572
0
LINE
8
0
10
902.303459
20
133.773572
11
904.137833
21
122.517989
0
LINE
8
0
10
904.137833
20
122.517989
11
904.613995
21
116.018662
0
LINE
8
0
10
904.613995
20
116.018662
11
904.783942
21
109.667442
0
LINE
8
0
10
904.783942
20
109.667442
11
904.167305
21
97.705821
0
LINE
8
0
10
904.167305
20
97.705821
11
902.281785
21
86.745107
0
LINE
8
0
10
902.281785
20
86.745107
11
899.135171
21
76.801076
0
LINE
8
0
10
899.135171
20
76.801076
11
894.735254
21
67.889506
0
LINE
8
0
10
894.735254
20
67.889506
11
889.089822
21
60.026173
0
LINE
8
0
10
889.089822
20
60.026173
11
882.206665
21
53.226855
0
LINE
8
0
10
882.206665
20
53.226855
11
874.093573
21
47.507329
0
LINE
8
0
10
874.093573
20
47.507329
11
869.578236
21
45.057418
0
LINE
8
0
10
869.578236
20
45.057418
11
865.914004
21
43.372207
0
LINE
8
0
10
865.914004
20
43.372207
11
857.857214
21
40.403214
0
LINE
8
0
10
857.857214
20
40.403214
11
844.187676
21
36.982683
0
LINE
8
0
10
844.187676
20
36.982683
11
823.666258
21
34.432441
0
LINE
8
0
10
823.666258
20
34.432441
11
801.446389
21
34.294806
0
LINE
8
0
10
801.446389
20
34.294806
11
790.014817
21
35.169897
0
LINE
8
0
10
1426.666667
20
38.685328
11
1426.598755
21
39.179830
0
LINE
8
0
10
1426.598755
20
39.179830
11
1426.468986
21
42.595842
0
LINE
8
0
10
1426.468986
20
42.595842
11
1426.349569
21
48.964542
0
LINE
8
0
10
1426.349569
20
48.964542
11
1426.243237
21
57.945938
0
LINE
8
0
10
1426.243237
20
57.945938
11
1426.152726
21
69.200041
0
LINE
8
0
10
1426.152726
20
69.200041
11
1426.080770
21
82.386858
0
LINE
8
0
10
1426.080770
20
82.386858
11
1426.030103
21
97.166400
0
LINE
8
0
10
1426.030103
20
97.166400
11
1426.003459
21
113.198674
0
LINE
8
0
10
1426.003459
20
113.198674
11
1426.000000
21
121.578340
0
LINE
8
0
10
1426.000000
20
121.578340
11
1426.000494
21
128.330120
0
LINE
8
0
10
1426.000494
20
128.330120
11
1426.005058
21
140.719140
0
LINE
8
0
10
1426.005058
20
140.719140
11
1426.015746
21
151.693083
0
LINE
8
0
10
1426.015746
20
151.693083
11
1426.034182
21
161.337122
0
LINE
8
0
10
1426.034182
20
161.337122
11
1426.061994
21
169.736430
0
LINE
8
0
10
1426.061994
20
169.736430
11
1426.100809
21
176.976181
0
LINE
8
0
10
1426.100809
20
176.976181
11
1426.183218
21
185.847953
0
LINE
8
0
10
1426.183218
20
185.847953
11
1426.346786
21
194.413481
0
LINE
8
0
10
1426.346786
20
194.413481
11
1426.583639
21
199.873898
0
LINE
8
0
10
1426.583639
20
199.873898
11
1426.906790
21
202.910590
0
LINE
8
0
10
1426.906790
20
202.910590
11
1427.329250
21
204.204942
0
LINE
8
0
10
1427.329250
20
204.204942
11
1427.581787
21
204.411673
0
LINE
8
0
10
1427.581787
20
204.411673
11
1427.897098
21
204.473506
0
LINE
8
0
10
1427.897098
20
204.473506
11
1429.392711
21
204.591658
0
LINE
8
0
10
1429.392711
20
204.591658
11
1433.557899
21
204.750437
0
LINE
8
0
10
1433.557899
20
204.750437
11
1442.024793
21
204.914632
0
LINE
8
0
10
1442.024793
20
204.914632
11
1452.879741
21
205.006273
0
LINE
8
0
10
1452.879741
20
205.006273
11
1458.881787
21
205.018662
0
LINE
8
0
10
1458.881787
20
205.018662
11
1462.808722
21
205.014848
0
LINE
8
0
10
1462.808722
20
205.014848
11
1469.747761
21
204.983286
0
LINE
8
0
10
1469.747761
20
204.983286
11
1475.527034
21
204.917486
0
LINE
8
0
10
1475.527034
20
204.917486
11
1480.218547
21
204.814651
0
LINE
8
0
10
1480.218547
20
204.814651
11
1485.373781
21
204.584846
0
LINE
8
0
10
1485.373781
20
204.584846
11
1489.112326
21
204.122735
0
LINE
8
0
10
1489.112326
20
204.122735
11
1489.800000
21
203.818662
0
LINE
8
0
10
1489.800000
20
203.818662
11
1489.964058
21
203.420565
0
LINE
8
0
10
1489.964058
20
203.420565
11
1490.250051
21
201.160171
0
LINE
8
0
10
1490.250051
20
201.160171
11
1490.483216
21
196.717312
0
LINE
8
0
10
1490.483216
20
196.717312
11
1490.667550
21
189.815748
0
LINE
8
0
10
1490.667550
20
189.815748
11
1490.807053
21
180.179245
0
LINE
8
0
10
1490.807053
20
180.179245
11
1490.905723
21
167.531564
0
LINE
8
0
10
1490.905723
20
167.531564
11
1490.967560
21
151.596467
0
LINE
8
0
10
1490.967560
20
151.596467
11
1490.996562
21
132.097719
0
LINE
8
0
10
1490.996562
20
132.097719
11
1491.000000
21
120.925651
0
LINE
8
0
10
1491.000000
20
120.925651
11
1490.999505
21
114.218188
0
LINE
8
0
10
1490.999505
20
114.218188
11
1490.994939
21
101.910369
0
LINE
8
0
10
1490.994939
20
101.910369
11
1490.984247
21
91.008191
0
LINE
8
0
10
1490.984247
20
91.008191
11
1490.965805
21
81.427057
0
LINE
8
0
10
1490.965805
20
81.427057
11
1490.937986
21
73.082368
0
LINE
8
0
10
1490.937986
20
73.082368
11
1490.899164
21
65.889525
0
LINE
8
0
10
1490.899164
20
65.889525
11
1490.816744
21
57.074915
0
LINE
8
0
10
1490.816744
20
57.074915
11
1490.653166
21
48.563980
0
LINE
8
0
10
1490.653166
20
48.563980
11
1490.416309
21
43.137662
0
LINE
8
0
10
1490.416309
20
43.137662
11
1490.093167
21
40.119174
0
LINE
8
0
10
1490.093167
20
40.119174
11
1489.670731
21
38.831728
0
LINE
8
0
10
1489.670731
20
38.831728
11
1489.418213
21
38.625651
0
LINE
8
0
10
1489.418213
20
38.625651
11
1489.050218
21
38.550415
0
LINE
8
0
10
1489.050218
20
38.550415
11
1487.387214
21
38.415454
0
LINE
8
0
10
1487.387214
20
38.415454
11
1482.895185
21
38.251486
0
LINE
8
0
10
1482.895185
20
38.251486
11
1474.073144
21
38.103827
0
LINE
8
0
10
1474.073144
20
38.103827
11
1463.265378
21
38.036081
0
LINE
8
0
10
1463.265378
20
38.036081
11
1451.837278
21
38.046950
0
LINE
8
0
10
1451.837278
20
38.046950
11
1441.154238
21
38.135134
0
LINE
8
0
10
1441.154238
20
38.135134
11
1432.581651
21
38.299335
0
LINE
8
0
10
1432.581651
20
38.299335
11
1428.358565
21
38.471591
0
LINE
8
0
10
1428.358565
20
38.471591
11
1426.913832
21
38.609507
0
LINE
8
0
10
1426.913832
20
38.609507
11
1426.666667
21
38.685328
0
LINE
8
0
10
632.213947
20
39.204715
11
632.054906
21
39.826000
0
LINE
8
0
10
632.054906
20
39.826000
11
631.767379
21
43.636416
0
LINE
8
0
10
631.767379
20
43.636416
11
631.520624
21
50.481557
0
LINE
8
0
10
631.520624
20
50.481557
11
631.314680
21
59.894544
0
LINE
8
0
10
631.314680
20
59.894544
11
631.149588
21
71.408493
0
LINE
8
0
10
631.149588
20
71.408493
11
631.025386
21
84.556524
0
LINE
8
0
10
631.025386
20
84.556524
11
630.915840
21
106.321171
0
LINE
8
0
10
630.915840
20
106.321171
11
630.913266
21
136.702425
0
LINE
8
0
10
630.913266
20
136.702425
11
631.019124
21
158.467053
0
LINE
8
0
10
631.019124
20
158.467053
11
631.141098
21
171.615064
0
LINE
8
0
10
631.141098
20
171.615064
11
631.304239
21
183.128985
0
LINE
8
0
10
631.304239
20
183.128985
11
631.508588
21
192.541937
0
LINE
8
0
10
631.508588
20
192.541937
11
631.754183
21
199.387037
0
LINE
8
0
10
631.754183
20
199.387037
11
632.041064
21
203.197404
0
LINE
8
0
10
632.041064
20
203.197404
11
632.200000
21
203.818662
0
LINE
8
0
10
632.200000
20
203.818662
11
632.495401
21
203.945664
0
LINE
8
0
10
632.495401
20
203.945664
11
634.015360
21
204.180955
0
LINE
8
0
10
634.015360
20
204.180955
11
638.303725
21
204.485233
0
LINE
8
0
10
638.303725
20
204.485233
11
646.890097
21
204.794873
0
LINE
8
0
10
646.890097
20
204.794873
11
657.524901
21
204.987409
0
LINE
8
0
10
657.524901
20
204.987409
11
668.866411
21
205.054864
0
LINE
8
0
10
668.866411
20
205.054864
11
679.572903
21
204.989255
0
LINE
8
0
10
679.572903
20
204.989255
11
688.302650
21
204.782604
0
LINE
8
0
10
688.302650
20
204.782604
11
692.745591
21
204.530256
0
LINE
8
0
10
692.745591
20
204.530256
11
694.391003
21
204.313791
0
LINE
8
0
10
694.391003
20
204.313791
11
694.755852
21
204.190716
0
LINE
8
0
10
694.755852
20
204.190716
11
694.933214
21
203.869171
0
LINE
8
0
10
694.933214
20
203.869171
11
695.234836
21
201.869702
0
LINE
8
0
10
695.234836
20
201.869702
11
695.469323
21
197.756152
0
LINE
8
0
10
695.469323
20
197.756152
11
695.641082
21
191.161832
0
LINE
8
0
10
695.641082
20
191.161832
11
695.754518
21
181.720054
0
LINE
8
0
10
695.754518
20
181.720054
11
695.814036
21
169.064129
0
LINE
8
0
10
695.814036
20
169.064129
11
695.824041
21
152.827368
0
LINE
8
0
10
695.824041
20
152.827368
11
695.801703
21
138.079288
0
LINE
8
0
10
695.801703
20
138.079288
11
695.773633
21
126.937239
0
LINE
8
0
10
695.773633
20
126.937239
11
695.755852
21
120.956028
0
LINE
8
0
10
695.755852
20
120.956028
11
695.500000
21
38.518662
0
LINE
8
0
10
695.500000
20
38.518662
11
664.463947
21
38.254715
0
LINE
8
0
10
664.463947
20
38.254715
11
660.271625
21
38.222712
0
LINE
8
0
10
660.271625
20
38.222712
11
652.912712
21
38.190689
0
LINE
8
0
10
652.912712
20
38.190689
11
646.841927
21
38.203654
0
LINE
8
0
10
646.841927
20
38.203654
11
641.963852
21
38.264417
0
LINE
8
0
10
641.963852
20
38.264417
11
636.674348
21
38.451331
0
LINE
8
0
10
636.674348
20
38.451331
11
632.905607
21
38.894077
0
LINE
8
0
10
632.905607
20
38.894077
11
632.213947
21
39.204715
0
LINE
8
0
10
56.000000
20
51.879942
11
10.500000
21
89.589512
0
LINE
8
0
10
10.500000
20
89.589512
11
10.241603
21
145.306085
0
LINE
8
0
10
10.241603
20
145.306085
11
9.983207
21
201.022659
0
LINE
8
0
10
9.983207
20
201.022659
11
44.741603
21
172.335927
0
LINE
8
0
10
44.741603
20
172.335927
11
51.953446
21
166.382706
0
LINE
8
0
10
51.953446
20
166.382706
11
66.068555
21
154.724691
0
LINE
8
0
10
66.068555
20
154.724691
11
75.641851
21
146.812708
0
LINE
8
0
10
75.641851
20
146.812708
11
81.187825
21
142.226472
0
LINE
8
0
10
81.187825
20
142.226472
11
85.844665
21
138.372943
0
LINE
8
0
10
85.844665
20
138.372943
11
89.423662
21
135.408095
0
LINE
8
0
10
89.423662
20
135.408095
11
90.750000
21
134.307669
0
LINE
8
0
10
90.750000
20
134.307669
11
102.000000
21
124.966143
0
LINE
8
0
10
102.000000
20
124.966143
11
102.000000
21
69.492402
0
LINE
8
0
10
102.000000
20
69.492402
11
101.994897
21
58.350446
0
LINE
8
0
10
101.994897
20
58.350446
11
101.969711
21
43.115676
0
LINE
8
0
10
101.969711
20
43.115676
11
101.942728
21
34.275964
0
LINE
8
0
10
101.942728
20
34.275964
11
101.908786
21
26.754781
0
LINE
8
0
10
101.908786
20
26.754781
11
101.868912
21
20.779346
0
LINE
8
0
10
101.868912
20
20.779346
11
101.824130
21
16.576875
0
LINE
8
0
10
101.824130
20
16.576875
11
101.775467
21
14.374587
0
LINE
8
0
10
101.775467
20
14.374587
11
101.750000
21
14.094517
0
LINE
8
0
10
101.750000
20
14.094517
11
101.488480
21
14.297881
0
LINE
8
0
10
101.488480
20
14.297881
11
99.621371
21
15.819740
0
LINE
8
0
10
99.621371
20
15.819740
11
96.118546
21
18.699292
0
LINE
8
0
10
96.118546
20
18.699292
11
91.167648
21
22.781557
0
LINE
8
0
10
91.167648
20
22.781557
11
84.956326
21
27.911555
0
LINE
8
0
10
84.956326
20
27.911555
11
77.672226
21
33.934309
0
LINE
8
0
10
77.672226
20
33.934309
11
65.145093
21
44.303336
0
LINE
8
0
10
65.145093
20
44.303336
11
56.000000
21
51.879942
0
LINE
8
0
10
195.048992
20
131.706693
11
195.097985
21
187.518662
0
LINE
8
0
10
195.097985
20
187.518662
11
221.606564
21
207.518662
0
LINE
8
0
10
221.606564
20
207.518662
11
226.981428
21
211.573660
0
LINE
8
0
10
226.981428
20
211.573660
11
236.819746
21
218.994993
0
LINE
8
0
10
236.819746
20
218.994993
11
244.651220
21
224.901100
0
LINE
8
0
10
244.651220
20
224.901100
11
248.636377
21
227.905349
0
LINE
8
0
10
248.636377
20
227.905349
11
250.171241
21
229.061544
0
LINE
8
0
10
250.171241
20
229.061544
11
250.557571
21
229.352068
0
LINE
8
0
10
250.557571
20
229.352068
11
253.000000
21
231.185475
0
LINE
8
0
10
253.000000
20
231.185475
11
252.999184
21
175.852068
0
LINE
8
0
10
252.999184
20
175.852068
11
252.998367
21
120.518662
0
LINE
8
0
10
252.998367
20
120.518662
11
235.249184
21
106.873652
0
LINE
8
0
10
235.249184
20
106.873652
11
227.469813
21
100.891673
0
LINE
8
0
10
227.469813
20
100.891673
11
215.570661
21
91.737333
0
LINE
8
0
10
215.570661
20
91.737333
11
208.872151
21
86.581189
0
LINE
8
0
10
208.872151
20
86.581189
11
206.250000
21
84.561683
0
LINE
8
0
10
206.250000
20
84.561683
11
195.000000
21
75.894724
0
LINE
8
0
10
195.000000
20
75.894724
11
195.048992
21
131.706693
0
LINE
8
0
10
111.000000
20
69.004987
11
111.000000
21
123.991312
0
LINE
8
0
10
111.000000
20
123.991312
11
139.246369
21
145.254987
0
LINE
8
0
10
139.246369
20
145.254987
11
144.935850
21
149.533214
0
LINE
8
0
10
144.935850
20
149.533214
11
155.139984
21
157.179489
0
LINE
8
0
10
155.139984
20
157.179489
11
161.296762
21
161.768999
0
LINE
8
0
10
161.296762
20
161.768999
11
164.465723
21
164.117250
0
LINE
8
0
10
164.465723
20
164.117250
11
166.747470
21
165.793019
0
LINE
8
0
10
166.747470
20
165.793019
11
168.023056
21
166.707724
0
LINE
8
0
10
168.023056
20
166.707724
11
168.246369
21
166.851995
0
LINE
8
0
10
168.246369
20
166.851995
11
168.323139
21
166.600383
0
LINE
8
0
10
168.323139
20
166.600383
11
168.469836
21
164.465387
0
LINE
8
0
10
168.469836
20
164.465387
11
168.604831
21
160.341695
0
LINE
8
0
10
168.604831
20
160.341695
11
168.725033
21
154.453705
0
LINE
8
0
10
168.725033
20
154.453705
11
168.827351
21
147.025817
0
LINE
8
0
10
168.827351
20
147.025817
11
168.908694
21
138.282432
0
LINE
8
0
10
168.908694
20
138.282432
11
168.984618
21
123.191667
0
LINE
8
0
10
168.984618
20
123.191667
11
169.000000
21
112.141283
0
LINE
8
0
10
169.000000
20
112.141283
11
169.000000
21
57.097237
0
LINE
8
0
10
169.000000
20
57.097237
11
140.563355
21
35.557950
0
LINE
8
0
10
140.563355
20
35.557950
11
134.839535
21
31.231161
0
LINE
8
0
10
134.839535
20
31.231161
11
124.596156
21
23.536755
0
LINE
8
0
10
124.596156
20
23.536755
11
118.435699
21
18.953083
0
LINE
8
0
10
118.435699
20
18.953083
11
115.276549
21
16.628250
0
LINE
8
0
10
115.276549
20
16.628250
11
113.014424
21
14.991243
0
LINE
8
0
10
113.014424
20
14.991243
11
111.768271
21
14.130407
0
LINE
8
0
10
111.768271
20
14.130407
11
111.563355
21
14.018662
0
LINE
8
0
10
111.563355
20
14.018662
11
111.505967
21
14.303930
0
LINE
8
0
10
111.505967
20
14.303930
11
111.396308
21
16.501504
0
LINE
8
0
10
111.396308
20
16.501504
11
111.295397
21
20.680518
0
LINE
8
0
10
111.295397
20
20.680518
11
111.205543
21
26.615444
0
LINE
8
0
10
111.205543
20
26.615444
11
111.129059
21
34.080750
0
LINE
8
0
10
111.129059
20
34.080750
11
111.068253
21
42.850908
0
LINE
8
0
10
111.068253
20
42.850908
11
111.011498
21
57.959394
0
LINE
8
0
10
111.011498
20
57.959394
11
111.000000
21
69.004987
0
LINE
8
0
10
172.940914
20
233.276993
11
164.706443
21
249.030105
0
LINE
8
0
10
164.706443
20
249.030105
11
152.990543
21
271.450806
0
LINE
8
0
10
152.990543
20
271.450806
11
148.262516
21
280.502209
0
LINE
8
0
10
148.262516
20
280.502209
11
145.793430
21
285.230770
0
LINE
8
0
10
145.793430
20
285.230770
11
144.807039
21
287.120523
0
LINE
8
0
10
144.807039
20
287.120523
11
136.114079
21
303.777721
0
LINE
8
0
10
136.114079
20
303.777721
11
145.989092
21
311.362939
0
LINE
8
0
10
145.989092
20
311.362939
11
155.864105
21
318.948158
0
LINE
8
0
10
155.864105
20
318.948158
11
203.469257
21
279.845025
0
LINE
8
0
10
203.469257
20
279.845025
11
213.026267
21
271.974746
0
LINE
8
0
10
213.026267
20
271.974746
11
226.077708
21
261.155010
0
LINE
8
0
10
226.077708
20
261.155010
11
233.639591
21
254.837348
0
LINE
8
0
10
233.639591
20
254.837348
11
240.063788
21
249.426778
0
LINE
8
0
10
240.063788
20
249.426778
11
245.156221
21
245.086758
0
LINE
8
0
10
245.156221
20
245.086758
11
248.722813
21
241.980742
0
LINE
8
0
10
248.722813
20
241.980742
11
250.569487
21
240.272186
0
LINE
8
0
10
250.569487
20
240.272186
11
250.787205
21
239.993035
0
LINE
8
0
10
250.787205
20
239.993035
11
250.612684
21
239.809175
0
LINE
8
0
10
250.612684
20
239.809175
11
249.437736
21
238.834700
0
LINE
8
0
10
249.437736
20
238.834700
11
247.258263
21
237.124650
0
LINE
8
0
10
247.258263
20
237.124650
11
244.190287
21
234.767142
0
LINE
8
0
10
244.190287
20
234.767142
11
238.176176
21
230.209660
0
LINE
8
0
10
238.176176
20
230.209660
11
228.130471
21
222.689362
0
LINE
8
0
10
228.130471
20
222.689362
11
222.500000
21
218.508773
0
LINE
8
0
10
222.500000
20
218.508773
11
216.853775
21
214.326295
0
LINE
8
0
10
216.853775
20
214.326295
11
206.691534
21
206.792033
0
LINE
8
0
10
206.691534
20
206.792033
11
200.528088
21
202.216655
0
LINE
8
0
10
200.528088
20
202.216655
11
197.336999
21
199.844395
0
LINE
8
0
10
197.336999
20
199.844395
11
195.019262
21
198.117776
0
LINE
8
0
10
195.019262
20
198.117776
11
193.694064
21
197.125296
0
LINE
8
0
10
193.694064
20
197.125296
11
193.440914
21
196.932014
0
LINE
8
0
10
193.440914
20
196.932014
11
193.236208
21
196.982621
0
LINE
8
0
10
193.236208
20
196.982621
11
192.380704
21
197.999653
0
LINE
8
0
10
192.380704
20
197.999653
11
190.938346
21
200.223705
0
LINE
8
0
10
190.938346
20
200.223705
11
188.918656
21
203.637893
0
LINE
8
0
10
188.918656
20
203.637893
11
186.331158
21
208.225335
0
LINE
8
0
10
186.331158
20
208.225335
11
183.185375
21
213.969147
0
LINE
8
0
10
183.185375
20
213.969147
11
179.490829
21
220.852444
0
LINE
8
0
10
179.490829
20
220.852444
11
175.257045
21
228.858343
0
LINE
8
0
10
175.257045
20
228.858343
11
172.940914
21
233.276993
0
LINE
8
0
10
60.000000
20
171.156349
11
50.655302
21
179.006683
0
LINE
8
0
10
50.655302
20
179.006683
11
37.859686
21
189.793795
0
LINE
8
0
10
37.859686
20
189.793795
11
30.422822
21
196.088893
0
LINE
8
0
10
30.422822
20
196.088893
11
24.084203
21
201.477036
0
LINE
8
0
10
24.084203
20
201.477036
11
19.035322
21
205.795445
0
LINE
8
0
10
19.035322
20
205.795445
11
15.467670
21
208.881342
0
LINE
8
0
10
15.467670
20
208.881342
11
13.572740
21
210.571951
0
LINE
8
0
10
13.572740
20
210.571951
11
13.312387
21
210.843153
0
LINE
8
0
10
13.312387
20
210.843153
11
13.465506
21
211.152344
0
LINE
8
0
10
13.465506
20
211.152344
11
14.825768
21
212.489328
0
LINE
8
0
10
14.825768
20
212.489328
11
18.755809
21
215.728355
0
LINE
8
0
10
18.755809
20
215.728355
11
25.436063
21
220.773432
0
LINE
8
0
10
25.436063
20
220.773432
11
29.787113
21
223.788469
0
LINE
8
0
10
29.787113
20
223.788469
11
31.628527
21
224.869464
0
LINE
8
0
10
31.628527
20
224.869464
11
32.082367
21
225.018662
0
LINE
8
0
10
32.082367
20
225.018662
11
32.688531
21
224.877082
0
LINE
8
0
10
32.688531
20
224.877082
11
35.958637
21
223.798280
0
LINE
8
0
10
35.958637
20
223.798280
11
41.656269
21
221.778262
0
LINE
8
0
10
41.656269
20
221.778262
11
49.402012
21
218.960596
0
LINE
8
0
10
49.402012
20
218.960596
11
58.816452
21
215.488850
0
LINE
8
0
10
58.816452
20
215.488850
11
69.520174
21
211.506592
0
LINE
8
0
10
69.520174
20
211.506592
11
87.163194
21
204.890051
0
LINE
8
0
10
87.163194
20
204.890051
11
111.658510
21
195.621173
0
LINE
8
0
10
111.658510
20
195.621173
11
129.098526
21
188.962508
0
LINE
8
0
10
129.098526
20
188.962508
11
139.570244
21
184.932109
0
LINE
8
0
10
139.570244
20
184.932109
11
148.675344
21
181.396174
0
LINE
8
0
10
148.675344
20
181.396174
11
156.034413
21
178.498272
0
LINE
8
0
10
156.034413
20
178.498272
11
161.268035
21
176.381970
0
LINE
8
0
10
161.268035
20
176.381970
11
163.996797
21
175.190837
0
LINE
8
0
10
163.996797
20
175.190837
11
164.303288
21
174.987074
0
LINE
8
0
10
164.303288
20
174.987074
11
163.905645
21
174.647725
0
LINE
8
0
10
163.905645
20
174.647725
11
162.285663
21
173.357848
0
LINE
8
0
10
162.285663
20
173.357848
11
158.081516
21
170.110961
0
LINE
8
0
10
158.081516
20
170.110961
11
149.969387
21
163.937016
0
LINE
8
0
10
149.969387
20
163.937016
11
140.117276
21
156.499065
0
LINE
8
0
10
140.117276
20
156.499065
11
129.752137
21
148.718158
0
LINE
8
0
10
129.752137
20
148.718158
11
120.100923
21
141.515345
0
LINE
8
0
10
120.100923
20
141.515345
11
112.390586
21
135.811674
0
LINE
8
0
10
112.390586
20
135.811674
11
108.619623
21
133.071803
0
LINE
8
0
10
108.619623
20
133.071803
11
107.351210
21
132.193417
0
LINE
8
0
10
107.351210
20
132.193417
11
107.148185
21
132.081857
0
LINE
8
0
10
107.148185
20
132.081857
11
106.840915
21
132.290685
0
LINE
8
0
10
106.840915
20
132.290685
11
104.856333
21
133.862104
0
LINE
8
0
10
104.856333
20
133.862104
11
101.206180
21
136.838321
0
LINE
8
0
10
101.206180
20
136.838321
11
96.083839
21
141.059068
0
LINE
8
0
10
96.083839
20
141.059068
11
89.682690
21
146.364079
0
LINE
8
0
10
89.682690
20
146.364079
11
82.196115
21
152.593087
0
LINE
8
0
10
82.196115
20
152.593087
11
69.354099
21
163.318512
0
LINE
8
0
10
69.354099
20
163.318512
11
60.000000
21
171.156349
0
LINE
8
0
10
1426.458771
20
229.265508
11
1426.410306
21
229.550974
0
LINE
8
0
10
1426.410306
20
229.550974
11
1426.325669
21
230.997697
0
LINE
8
0
10
1426.325669
20
230.997697
11
1426.231168
21
235.116827
0
LINE
8
0
10
1426.231168
20
235.116827
11
1426.170569
21
243.574006
0
LINE
8
0
10
1426.170569
20
243.574006
11
1426.191455
21
254.479396
0
LINE
8
0
10
1426.191455
20
254.479396
11
1426.234751
21
260.529591
0
LINE
8
0
10
1426.234751
20
260.529591
11
1426.500000
21
290.518662
0
LINE
8
0
10
1426.500000
20
290.518662
11
1458.500000
21
290.518662
0
LINE
8
0
10
1458.500000
20
290.518662
11
1490.500000
21
290.518662
0
LINE
8
0
10
1490.500000
20
290.518662
11
1490.500000
21
259.518662
0
LINE
8
0
10
1490.500000
20
259.518662
11
1490.500000
21
228.518662
0
LINE
8
0
10
1490.500000
20
228.518662
11
1458.724019
21
228.254579
0
LINE
8
0
10
1458.724019
20
228.254579
11
1454.242049
21
228.220629
0
LINE
8
0
10
1454.242049
20
228.220629
11
1446.487026
21
228.184602
0
LINE
8
0
10
1446.487026
20
228.184602
11
1440.229657
21
228.194653
0
LINE
8
0
10
1440.229657
20
228.194653
11
1435.332859
21
228.255076
0
LINE
8
0
10
1435.332859
20
228.255076
11
1431.659548
21
228.370168
0
LINE
8
0
10
1431.659548
20
228.370168
11
1429.072640
21
228.544222
0
LINE
8
0
10
1429.072640
20
228.544222
11
1426.929413
21
228.925255
0
LINE
8
0
10
1426.929413
20
228.925255
11
1426.458771
21
229.265508
0
LINE
8
0
10
631.458771
20
229.265508
11
631.410306
21
229.550974
0
LINE
8
0
10
631.410306
20
229.550974
11
631.325669
21
230.997697
0
LINE
8
0
10
631.325669
20
230.997697
11
631.231168
21
235.116827
0
LINE
8
0
10
631.231168
20
235.116827
11
631.170569
21
243.574006
0
LINE
8
0
10
631.170569
20
243.574006
11
631.191455
21
254.479396
0
LINE
8
0
10
631.191455
20
254.479396
11
631.234751
21
260.529591
0
LINE
8
0
10
631.234751
20
260.529591
11
631.500000
21
290.518662
0
LINE
8
0
10
631.500000
20
290.518662
11
663.500000
21
290.518662
0
LINE
8
0
10
663.500000
20
290.518662
11
695.500000
21
290.518662
0
LINE
8
0
10
695.500000
20
290.518662
11
695.500000
21
259.518662
0
LINE
8
0
10
695.500000
20
259.518662
11
695.500000
21
228.518662
0
LINE
8
0
10
695.500000
20
228.518662
11
663.724019
21
228.254579
0
LINE
8
0
10
663.724019
20
228.254579
11
659.242049
21
228.220629
0
LINE
8
0
10
659.242049
20
228.220629
11
651.487026
21
228.184602
0
LINE
8
0
10
651.487026
20
228.184602
11
645.229657
21
228.194653
0
LINE
8
0
10
645.229657
20
228.194653
11
640.332859
21
228.255076
0
LINE
8
0
10
640.332859
20
228.255076
11
636.659548
21
228.370168
0
LINE
8
0
10
636.659548
20
228.370168
11
634.072640
21
228.544222
0
LINE
8
0
10
634.072640
20
228.544222
11
631.929413
21
228.925255
0
LINE
8
0
10
631.929413
20
228.925255
11
631.458771
21
229.265508
0
LINE
8
0
10
182.000000
20
95.696276
11
178.500000
21
102.518662
0
LINE
8
0
10
178.500000
20
102.518662
11
178.000000
21
141.018662
0
LINE
8
0
10
178.000000
20
141.018662
11
177.500000
21
179.518662
0
LINE
8
0
10
177.500000
20
179.518662
11
156.272179
21
187.518662
0
LINE
8
0
10
156.272179
20
187.518662
11
135.044357
21
195.518662
0
LINE
8
0
10
135.044357
20
195.518662
11
135.033624
21
241.018662
0
LINE
8
0
10
135.033624
20
241.018662
11
135.022892
21
286.518662
0
LINE
8
0
10
135.022892
20
286.518662
11
138.341980
21
280.518662
0
LINE
8
0
10
138.341980
20
280.518662
11
138.795152
21
279.686522
0
LINE
8
0
10
138.795152
20
279.686522
11
140.327617
21
276.816633
0
LINE
8
0
10
140.327617
20
276.816633
11
142.607763
21
272.505328
0
LINE
8
0
10
142.607763
20
272.505328
11
145.531008
21
266.951884
0
LINE
8
0
10
145.531008
20
266.951884
11
150.892915
21
256.728627
0
LINE
8
0
10
150.892915
20
256.728627
11
159.316878
21
240.610051
0
LINE
8
0
10
159.316878
20
240.610051
11
163.839876
21
231.933037
0
LINE
8
0
10
163.839876
20
231.933037
11
186.018682
21
189.347411
0
LINE
8
0
10
186.018682
20
189.347411
11
185.759341
21
139.110651
0
LINE
8
0
10
185.759341
20
139.110651
11
185.500000
21
88.873890
0
LINE
8
0
10
185.500000
20
88.873890
11
182.000000
21
95.696276
0
LINE
8
0
10
141.340619
20
35.426441
11
169.000000
21
56.334219
0
LINE
8
0
10
169.000000
20
56.334219
11
169.000000
21
112.298885
0
LINE
8
0
10
169.000000
20
112.298885
11
168.996913
21
120.279140
0
LINE
8
0
10
168.996913
20
120.279140
11
168.970058
21
134.011562
0
LINE
8
0
10
168.970058
20
134.011562
11
168.910844
21
144.983804
0
LINE
8
0
10
168.910844
20
144.983804
11
168.813525
21
153.448590
0
LINE
8
0
10
168.813525
20
153.448590
11
168.672355
21
159.658647
0
LINE
8
0
10
168.672355
20
159.658647
11
168.481591
21
163.866700
0
LINE
8
0
10
168.481591
20
163.866700
11
168.235487
21
166.325472
0
LINE
8
0
10
168.235487
20
166.325472
11
167.928297
21
167.287690
0
LINE
8
0
10
167.928297
20
167.287690
11
167.750000
21
167.286567
0
LINE
8
0
10
167.750000
20
167.286567
11
167.476105
21
167.077271
0
LINE
8
0
10
167.476105
20
167.077271
11
166.103754
21
166.041455
0
LINE
8
0
10
166.103754
20
166.041455
11
163.732819
21
164.258337
0
LINE
8
0
10
163.732819
20
164.258337
11
160.484296
21
161.818709
0
LINE
8
0
10
160.484296
20
161.818709
11
154.230713
21
157.126919
0
LINE
8
0
10
154.230713
20
157.126919
11
143.950342
21
149.420812
0
LINE
8
0
10
143.950342
20
149.420812
11
138.250000
21
145.150448
0
LINE
8
0
10
138.250000
20
145.150448
11
110.000000
21
123.991312
0
LINE
8
0
10
110.000000
20
123.991312
11
110.000000
21
67.948283
0
LINE
8
0
10
110.000000
20
67.948283
11
110.000225
21
63.016222
0
LINE
8
0
10
110.000225
20
63.016222
11
110.002938
21
54.038101
0
LINE
8
0
10
110.002938
20
54.038101
11
110.010697
21
46.180978
0
LINE
8
0
10
110.010697
20
46.180978
11
110.025937
21
39.372444
0
LINE
8
0
10
110.025937
20
39.372444
11
110.068151
21
30.967360
0
LINE
8
0
10
110.068151
20
30.967360
11
110.173345
21
22.754843
0
LINE
8
0
10
110.173345
20
22.754843
11
110.352291
21
17.433356
0
LINE
8
0
10
110.352291
20
17.433356
11
110.624467
21
14.423639
0
LINE
8
0
10
110.624467
20
14.423639
11
111.250148
21
12.976504
0
LINE
8
0
10
111.250148
20
12.976504
11
111.840619
21
13.211958
0
LINE
8
0
10
111.840619
20
13.211958
11
112.171615
21
13.453538
0
LINE
8
0
10
112.171615
20
13.453538
11
113.635328
21
14.543489
0
LINE
8
0
10
113.635328
20
14.543489
11
117.608330
21
17.524552
0
LINE
8
0
10
117.608330
20
17.524552
11
125.588310
21
23.533743
0
LINE
8
0
10
125.588310
20
23.533743
11
135.746866
21
31.199839
0
LINE
8
0
10
135.746866
20
31.199839
11
141.340619
21
35.426441
0
LINE
8
0
10
102.758396
20
69.742021
11
102.500000
21
125.465381
0
LINE
8
0
10
102.500000
20
125.465381
11
57.000000
21
163.171049
0
LINE
8
0
10
57.000000
20
163.171049
11
47.834326
21
170.746771
0
LINE
8
0
10
47.834326
20
170.746771
11
35.205602
21
181.114235
0
LINE
8
0
10
35.205602
20
181.114235
11
27.812661
21
187.135839
0
LINE
8
0
10
27.812661
20
187.135839
11
21.464432
21
192.264645
0
LINE
8
0
10
21.464432
20
192.264645
11
16.352699
21
196.345710
0
LINE
8
0
10
16.352699
20
196.345710
11
12.669243
21
199.224090
0
LINE
8
0
10
12.669243
20
199.224090
11
10.605848
21
200.744843
0
LINE
8
0
10
10.605848
20
200.744843
11
10.241604
21
200.947690
0
LINE
8
0
10
10.241604
20
200.947690
11
10.063339
21
200.818406
0
LINE
8
0
10
10.063339
20
200.818406
11
9.760423
21
199.626826
0
LINE
8
0
10
9.760423
20
199.626826
11
9.525244
21
196.982640
0
LINE
8
0
10
9.525244
20
196.982640
11
9.353306
21
192.635541
0
LINE
8
0
10
9.353306
20
192.635541
11
9.240111
21
186.335221
0
LINE
8
0
10
9.240111
20
186.335221
11
9.181162
21
177.831372
0
LINE
8
0
10
9.181162
20
177.831372
11
9.171962
21
166.873686
0
LINE
8
0
10
9.171962
20
166.873686
11
9.208014
21
153.211857
0
LINE
8
0
10
9.208014
20
153.211857
11
9.241604
21
145.288666
0
LINE
8
0
10
9.241604
20
145.288666
11
9.500000
21
89.558671
0
LINE
8
0
10
9.500000
20
89.558671
11
55.000000
21
51.853950
0
LINE
8
0
10
55.000000
20
51.853950
11
64.165674
21
44.278535
0
LINE
8
0
10
64.165674
20
44.278535
11
76.794398
21
33.911904
0
LINE
8
0
10
76.794398
20
33.911904
11
84.187339
21
27.891065
0
LINE
8
0
10
84.187339
20
27.891065
11
90.535568
21
22.763160
0
LINE
8
0
10
90.535568
20
22.763160
11
95.647301
21
18.683105
0
LINE
8
0
10
95.647301
20
18.683105
11
99.330757
21
15.805815
0
LINE
8
0
10
99.330757
20
15.805815
11
101.394152
21
14.286207
0
LINE
8
0
10
101.394152
20
14.286207
11
101.758396
21
14.083946
0
LINE
8
0
10
101.758396
20
14.083946
11
101.936652
21
14.214049
0
LINE
8
0
10
101.936652
20
14.214049
11
102.239556
21
15.407063
0
LINE
8
0
10
102.239556
20
15.407063
11
102.474729
21
18.052334
0
LINE
8
0
10
102.474729
20
18.052334
11
102.646668
21
22.400080
0
LINE
8
0
10
102.646668
20
22.400080
11
102.759867
21
28.700518
0
LINE
8
0
10
102.759867
20
28.700518
11
102.818822
21
37.203866
0
LINE
8
0
10
102.818822
20
37.203866
11
102.828029
21
48.160342
0
LINE
8
0
10
102.828029
20
48.160342
11
102.791983
21
61.820163
0
LINE
8
0
10
102.791983
20
61.820163
11
102.758396
21
69.742021
0
LINE
8
0
10
222.316730
20
96.165589
11
227.632525
21
100.264526
0
LINE
8
0
10
227.632525
20
100.264526
11
237.401070
21
107.845049
0
LINE
8
0
10
237.401070
20
107.845049
11
245.227745
21
113.982085
0
LINE
8
0
10
245.227745
20
113.982085
11
249.252293
21
117.189757
0
LINE
8
0
10
249.252293
20
117.189757
11
250.834025
21
118.489397
0
LINE
8
0
10
250.834025
20
118.489397
11
251.250000
21
118.852680
0
LINE
8
0
10
251.250000
20
118.852680
11
254.000000
21
121.392844
0
LINE
8
0
10
254.000000
20
121.392844
11
254.000000
21
176.205753
0
LINE
8
0
10
254.000000
20
176.205753
11
253.996190
21
183.127526
0
LINE
8
0
10
253.996190
20
183.127526
11
253.965267
21
195.474139
0
LINE
8
0
10
253.965267
20
195.474139
11
253.902287
21
205.875376
0
LINE
8
0
10
253.902287
20
205.875376
11
253.806066
21
214.391882
0
LINE
8
0
10
253.806066
20
214.391882
11
253.675419
21
221.084303
0
LINE
8
0
10
253.675419
20
221.084303
11
253.509164
21
226.013283
0
LINE
8
0
10
253.509164
20
226.013283
11
253.306115
21
229.239467
0
LINE
8
0
10
253.306115
20
229.239467
11
253.065090
21
230.823500
0
LINE
8
0
10
253.065090
20
230.823500
11
252.929966
21
231.018662
0
LINE
8
0
10
252.929966
20
231.018662
11
252.673470
21
230.906709
0
LINE
8
0
10
252.673470
20
230.906709
11
251.328957
21
230.044275
0
LINE
8
0
10
251.328957
20
230.044275
11
248.976581
21
228.404229
0
LINE
8
0
10
248.976581
20
228.404229
11
245.737338
21
226.075078
0
LINE
8
0
10
245.737338
20
226.075078
11
239.480275
21
221.482895
0
LINE
8
0
10
239.480275
20
221.482895
11
229.162786
21
213.774202
0
LINE
8
0
10
229.162786
20
213.774202
11
223.429966
21
209.439380
0
LINE
8
0
10
223.429966
20
209.439380
11
195.000000
21
187.860097
0
LINE
8
0
10
195.000000
20
187.860097
11
195.000000
21
131.939380
0
LINE
8
0
10
195.000000
20
131.939380
11
195.011567
21
120.706087
0
LINE
8
0
10
195.011567
20
120.706087
11
195.068662
21
105.340859
0
LINE
8
0
10
195.068662
20
105.340859
11
195.129832
21
96.421669
0
LINE
8
0
10
195.129832
20
96.421669
11
195.206775
21
88.829503
0
LINE
8
0
10
195.206775
20
88.829503
11
195.297167
21
82.793724
0
LINE
8
0
10
195.297167
20
82.793724
11
195.398683
21
78.543695
0
LINE
8
0
10
195.398683
20
78.543695
11
195.508999
21
76.308778
0
LINE
8
0
10
195.508999
20
76.308778
11
195.566730
21
76.018662
0
LINE
8
0
10
195.566730
20
76.018662
11
195.760300
21
76.123184
0
LINE
8
0
10
195.760300
20
76.123184
11
196.917052
21
76.928372
0
LINE
8
0
10
196.917052
20
76.928372
11
200.370490
21
79.471578
0
LINE
8
0
10
200.370490
20
79.471578
11
207.606574
21
84.921479
0
LINE
8
0
10
207.606574
20
84.921479
11
217.045496
21
92.118496
0
LINE
8
0
10
217.045496
20
92.118496
11
222.316730
21
96.165589
0
LINE
8
0
10
161.563818
20
237.504058
11
156.439075
21
247.306089
0
LINE
8
0
10
156.439075
20
247.306089
11
149.388160
21
260.754737
0
LINE
8
0
10
149.388160
20
260.754737
11
145.267315
21
268.589330
0
LINE
8
0
10
145.267315
20
268.589330
11
141.734788
21
275.283063
0
LINE
8
0
10
141.734788
20
275.283063
11
138.897298
21
280.633715
0
LINE
8
0
10
138.897298
20
280.633715
11
136.861563
21
284.439065
0
LINE
8
0
10
136.861563
20
284.439065
11
135.734304
21
286.496894
0
LINE
8
0
10
135.734304
20
286.496894
11
135.544702
21
286.807294
0
LINE
8
0
10
135.544702
20
286.807294
11
135.488505
21
286.624823
0
LINE
8
0
10
135.488505
20
286.624823
11
135.388939
21
284.885808
0
LINE
8
0
10
135.388939
20
284.885808
11
135.307517
21
281.470893
0
LINE
8
0
10
135.307517
20
281.470893
11
135.245490
21
276.567516
0
LINE
8
0
10
135.245490
20
276.567516
11
135.204108
21
270.363114
0
LINE
8
0
10
135.204108
20
270.363114
11
135.184621
21
263.045125
0
LINE
8
0
10
135.184621
20
263.045125
11
135.199177
21
250.390183
0
LINE
8
0
10
135.199177
20
250.390183
11
135.239897
21
241.108264
0
LINE
8
0
10
135.239897
20
241.108264
11
135.500000
21
194.844326
0
LINE
8
0
10
135.500000
20
194.844326
11
156.000000
21
187.067532
0
LINE
8
0
10
156.000000
20
187.067532
11
176.500000
21
179.290739
0
LINE
8
0
10
176.500000
20
179.290739
11
177.000000
21
141.404700
0
LINE
8
0
10
177.000000
20
141.404700
11
177.500000
21
103.518662
0
LINE
8
0
10
177.500000
20
103.518662
11
182.000000
21
95.018662
0
LINE
8
0
10
182.000000
20
95.018662
11
186.500000
21
86.518662
0
LINE
8
0
10
186.500000
20
86.518662
11
186.759013
21
137.642196
0
LINE
8
0
10
186.759013
20
137.642196
11
187.018026
21
188.765730
0
LINE
8
0
10
187.018026
20
188.765730
11
161.563818
21
237.504058
0
LINE
8
0
10
136.654801
20
153.627215
11
142.368319
21
157.983543
0
LINE
8
0
10
142.368319
20
157.983543
11
152.432272
21
165.818274
0
LINE
8
0
10
152.432272
20
165.818274
11
158.340404
21
170.564798
0
LINE
8
0
10
158.340404
20
170.564798
11
161.285363
21
173.019213
0
LINE
8
0
10
161.285363
20
173.019213
11
163.302801
21
174.798615
0
LINE
8
0
10
163.302801
20
174.798615
11
164.279159
21
175.811237
0
LINE
8
0
10
164.279159
20
175.811237
11
164.341446
21
176.001328
0
LINE
8
0
10
164.341446
20
176.001328
11
163.913870
21
176.206820
0
LINE
8
0
10
163.913870
20
176.206820
11
161.116551
21
177.338089
0
LINE
8
0
10
161.116551
20
177.338089
11
155.957777
21
179.343117
0
LINE
8
0
10
155.957777
20
179.343117
11
148.711270
21
182.117958
0
LINE
8
0
10
148.711270
20
182.117958
11
139.650753
21
185.558667
0
LINE
8
0
10
139.650753
20
185.558667
11
129.049946
21
189.561299
0
LINE
8
0
10
129.049946
20
189.561299
11
110.859461
21
196.391473
0
LINE
8
0
10
110.859461
20
196.391473
11
97.605464
21
201.344153
0
LINE
8
0
10
97.605464
20
201.344153
11
31.710929
21
225.921418
0
LINE
8
0
10
31.710929
20
225.921418
11
22.605464
21
218.887749
0
LINE
8
0
10
22.605464
20
218.887749
11
19.047204
21
216.094863
0
LINE
8
0
10
19.047204
20
216.094863
11
14.932988
21
212.713218
0
LINE
8
0
10
14.932988
20
212.713218
11
13.455151
21
211.371319
0
LINE
8
0
10
13.455151
20
211.371319
11
13.211317
21
211.070320
0
LINE
8
0
10
13.211317
20
211.070320
11
13.449335
21
210.767461
0
LINE
8
0
10
13.449335
20
210.767461
11
15.431002
21
208.916463
0
LINE
8
0
10
15.431002
20
208.916463
11
19.194270
21
205.594925
0
LINE
8
0
10
19.194270
20
205.594925
11
24.468049
21
201.030641
0
LINE
8
0
10
24.468049
20
201.030641
11
30.981251
21
195.451410
0
LINE
8
0
10
30.981251
20
195.451410
11
38.462789
21
189.085026
0
LINE
8
0
10
38.462789
20
189.085026
11
50.907719
21
178.557843
0
LINE
8
0
10
50.907719
20
178.557843
11
68.359974
21
163.892666
0
LINE
8
0
10
68.359974
20
163.892666
11
80.907417
21
153.418689
0
LINE
8
0
10
80.907417
20
153.418689
11
88.506112
21
147.113112
0
LINE
8
0
10
88.506112
20
147.113112
11
95.175525
21
141.614957
0
LINE
8
0
10
95.175525
20
141.614957
11
100.644566
21
137.152018
0
LINE
8
0
10
100.644566
20
137.152018
11
104.642148
21
133.952094
0
LINE
8
0
10
104.642148
20
133.952094
11
106.897183
21
132.242979
0
LINE
8
0
10
106.897183
20
132.242979
11
107.286530
21
132.018662
0
LINE
8
0
10
107.286530
20
132.018662
11
107.520121
21
132.130767
0
LINE
8
0
10
107.520121
20
132.130767
11
108.823813
21
132.994370
0
LINE
8
0
10
108.823813
20
132.994370
11
111.142474
21
134.636642
0
LINE
8
0
10
111.142474
20
134.636642
11
114.355647
21
136.968951
0
LINE
8
0
10
114.355647
20
136.968951
11
120.589122
21
141.567364
0
LINE
8
0
10
120.589122
20
141.567364
11
130.906961
21
149.286513
0
LINE
8
0
10
130.906961
20
149.286513
11
136.654801
21
153.627215
0
LINE
8
0
10
221.500000
20
217.374860
11
226.958231
21
221.412115
0
LINE
8
0
10
226.958231
20
221.412115
11
236.858554
21
228.775635
0
LINE
8
0
10
236.858554
20
228.775635
11
244.619523
21
234.602202
0
LINE
8
0
10
244.619523
20
234.602202
11
248.469985
21
237.538342
0
LINE
8
0
10
248.469985
20
237.538342
11
249.878098
21
238.647366
0
LINE
8
0
10
249.878098
20
238.647366
11
250.190368
21
238.914229
0
LINE
8
0
10
250.190368
20
238.914229
11
250.612575
21
239.493713
0
LINE
8
0
10
250.612575
20
239.493713
11
249.933972
21
241.290210
0
LINE
8
0
10
249.933972
20
241.290210
11
247.403641
21
243.868205
0
LINE
8
0
10
247.403641
20
243.868205
11
244.426221
21
246.493251
0
LINE
8
0
10
244.426221
20
246.493251
11
240.212305
21
250.042748
0
LINE
8
0
10
240.212305
20
250.042748
11
234.586975
21
254.687560
0
LINE
8
0
10
234.586975
20
254.687560
11
231.190368
21
257.474106
0
LINE
8
0
10
231.190368
20
257.474106
11
226.477305
21
261.337373
0
LINE
8
0
10
226.477305
20
261.337373
11
214.967404
21
270.776838
0
LINE
8
0
10
214.967404
20
270.776838
11
201.990845
21
281.423968
0
LINE
8
0
10
201.990845
20
281.423968
11
189.121680
21
291.987269
0
LINE
8
0
10
189.121680
20
291.987269
11
183.219262
21
296.833893
0
LINE
8
0
10
183.219262
20
296.833893
11
155.938524
21
319.238236
0
LINE
8
0
10
155.938524
20
319.238236
11
146.424946
21
311.961253
0
LINE
8
0
10
146.424946
20
311.961253
11
142.695143
21
309.077715
0
LINE
8
0
10
142.695143
20
309.077715
11
138.341048
21
305.606513
0
LINE
8
0
10
138.341048
20
305.606513
11
136.742378
21
304.245182
0
LINE
8
0
10
136.742378
20
304.245182
11
136.456914
21
303.948947
0
LINE
8
0
10
136.456914
20
303.948947
11
136.535615
21
303.552409
0
LINE
8
0
10
136.535615
20
303.552409
11
137.652135
21
300.991888
0
LINE
8
0
10
137.652135
20
300.991888
11
140.157305
21
295.861236
0
LINE
8
0
10
140.157305
20
295.861236
11
144.182915
21
287.904207
0
LINE
8
0
10
144.182915
20
287.904207
11
149.860755
21
276.864558
0
LINE
8
0
10
149.860755
20
276.864558
11
155.282690
21
266.407703
0
LINE
8
0
10
155.282690
20
266.407703
11
159.482277
21
258.339686
0
LINE
8
0
10
159.482277
20
258.339686
11
164.169053
21
249.356876
0
LINE
8
0
10
164.169053
20
249.356876
11
169.359492
21
239.427243
0
LINE
8
0
10
169.359492
20
239.427243
11
175.070068
21
228.518755
0
LINE
8
0
10
175.070068
20
228.518755
11
181.317255
21
216.599382
0
LINE
8
0
10
181.317255
20
216.599382
11
184.647226
21
210.250604
0
LINE
8
0
10
184.647226
20
210.250604
11
186.428589
21
206.901225
0
LINE
8
0
10
186.428589
20
206.901225
11
189.387096
21
201.632342
0
LINE
8
0
10
189.387096
20
201.632342
11
191.548194
21
198.257125
0
LINE
8
0
10
191.548194
20
198.257125
11
192.921746
21
196.760174
0
LINE
8
0
10
192.921746
20
196.760174
11
193.316273
21
196.711235
0
LINE
8
0
10
193.316273
20
196.711235
11
193.576932
21
196.888887
0
LINE
8
0
10
193.576932
20
196.888887
11
194.886426
21
197.827445
0
LINE
8
0
10
194.886426
20
197.827445
11
198.604359
21
200.534504
0
LINE
8
0
10
198.604359
20
200.534504
11
206.228277
21
206.124176
0
LINE
8
0
10
206.228277
20
206.124176
11
216.052109
21
213.355479
0
LINE
8
0
10
216.052109
20
213.355479
11
221.500000
21
217.374860
0
ENDSEC
0
EOF
