999
DXF File generated by ImageToStl.com - Free Image and 3D model conversion tools
0
SECTION
2
HEADER
9
$ACADVER
1
AC1009
9
$EXTMIN
10
0
20
0
9
$EXTMAX
10
1980.742966
20
669.000000
0
ENDSEC
0
SECTION
2
ENTITIES
0
LINE
8
0
10
1769.921445
20
302.839421
11
1767.209038
21
304.558421
0
LINE
8
0
10
1767.209038
20
304.558421
11
1760.943745
21
308.402595
0
LINE
8
0
10
1760.943745
20
308.402595
11
1749.630237
21
315.083839
0
LINE
8
0
10
1749.630237
20
315.083839
11
1731.489585
21
325.418882
0
LINE
8
0
10
1731.489585
20
325.418882
11
1710.582402
21
336.991601
0
LINE
8
0
10
1710.582402
20
336.991601
11
1675.766900
21
355.733812
0
LINE
8
0
10
1675.766900
20
355.733812
11
1639.181755
21
374.850058
0
LINE
8
0
10
1639.181755
20
374.850058
11
1615.128540
21
387.087729
0
LINE
8
0
10
1615.128540
20
387.087729
11
1603.500000
21
392.893900
0
LINE
8
0
10
1603.500000
20
392.893900
11
1580.054879
21
404.400548
0
LINE
8
0
10
1580.054879
20
404.400548
11
1534.117854
21
426.230781
0
LINE
8
0
10
1534.117854
20
426.230781
11
1489.189538
21
446.602506
0
LINE
8
0
10
1489.189538
20
446.602506
11
1444.955237
21
465.658415
0
LINE
8
0
10
1444.955237
20
465.658415
11
1423.000000
21
474.737529
0
LINE
8
0
10
1423.000000
20
474.737529
11
1419.265625
21
476.265633
0
LINE
8
0
10
1419.265625
20
476.265633
11
1411.806250
21
479.343615
0
LINE
8
0
10
1411.806250
20
479.343615
11
1409.000000
21
480.514386
0
LINE
8
0
10
1409.000000
20
480.514386
11
1407.470400
21
481.143786
0
LINE
8
0
10
1407.470400
20
481.143786
11
1402.822040
21
482.996684
0
LINE
8
0
10
1402.822040
20
482.996684
11
1396.433518
21
485.496168
0
LINE
8
0
10
1396.433518
20
485.496168
11
1388.759294
21
488.467586
0
LINE
8
0
10
1388.759294
20
488.467586
11
1375.831405
21
493.427538
0
LINE
8
0
10
1375.831405
20
493.427538
11
1358.335911
21
500.062487
0
LINE
8
0
10
1358.335911
20
500.062487
11
1350.500000
21
502.996285
0
LINE
8
0
10
1350.500000
20
502.996285
11
1333.276515
21
509.289960
0
LINE
8
0
10
1333.276515
20
509.289960
11
1297.956702
21
521.503927
0
LINE
8
0
10
1297.956702
20
521.503927
11
1261.463730
21
533.223062
0
LINE
8
0
10
1261.463730
20
533.223062
11
1223.786353
21
544.450975
0
LINE
8
0
10
1223.786353
20
544.450975
11
1204.500000
21
549.881852
0
LINE
8
0
10
1204.500000
20
549.881852
11
1181.613090
21
555.908420
0
LINE
8
0
10
1181.613090
20
555.908420
11
1134.934414
21
566.474468
0
LINE
8
0
10
1134.934414
20
566.474468
11
1088.062222
21
574.876162
0
LINE
8
0
10
1088.062222
20
574.876162
11
1042.212063
21
580.895620
0
LINE
8
0
10
1042.212063
20
580.895620
11
1020.050106
21
582.943921
0
LINE
8
0
10
1020.050106
20
582.943921
11
1016.535823
21
583.178961
0
LINE
8
0
10
1016.535823
20
583.178961
11
1007.824202
21
583.556302
0
LINE
8
0
10
1007.824202
20
583.556302
11
991.861647
21
583.889922
0
LINE
8
0
10
991.861647
20
583.889922
11
968.849068
21
583.899432
0
LINE
8
0
10
968.849068
20
583.899432
11
953.355300
21
583.578812
0
LINE
8
0
10
953.355300
20
583.578812
11
945.179435
21
583.208449
0
LINE
8
0
10
945.179435
20
583.208449
11
942.000000
21
582.976175
0
LINE
8
0
10
942.000000
20
582.976175
11
930.127972
21
581.797409
0
LINE
8
0
10
930.127972
20
581.797409
11
907.501080
21
578.692140
0
LINE
8
0
10
907.501080
20
578.692140
11
886.286215
21
574.563862
0
LINE
8
0
10
886.286215
20
574.563862
11
866.390344
21
569.381341
0
LINE
8
0
10
866.390344
20
569.381341
11
847.720435
21
563.113343
0
LINE
8
0
10
847.720435
20
563.113343
11
830.183455
21
555.728635
0
LINE
8
0
10
830.183455
20
555.728635
11
813.686374
21
547.195983
0
LINE
8
0
10
813.686374
20
547.195983
11
798.136157
21
537.484154
0
LINE
8
0
10
798.136157
20
537.484154
11
790.687050
21
532.176288
0
LINE
8
0
10
790.687050
20
532.176288
11
782.567951
21
525.808904
0
LINE
8
0
10
782.567951
20
525.808904
11
767.881435
21
512.230370
0
LINE
8
0
10
767.881435
20
512.230370
11
755.251350
21
497.512279
0
LINE
8
0
10
755.251350
20
497.512279
11
744.662724
21
481.637180
0
LINE
8
0
10
744.662724
20
481.637180
11
740.129279
21
473.260301
0
LINE
8
0
10
740.129279
20
473.260301
11
735.382042
21
462.967894
0
LINE
8
0
10
735.382042
20
462.967894
11
728.156249
21
441.639985
0
LINE
8
0
10
728.156249
20
441.639985
11
723.803946
21
418.516806
0
LINE
8
0
10
723.803946
20
418.516806
11
722.316138
21
399.415546
0
LINE
8
0
10
722.316138
20
399.415546
11
722.127595
21
385.617556
0
LINE
8
0
10
722.127595
20
385.617556
11
722.265804
21
378.354163
0
LINE
8
0
10
722.265804
20
378.354163
11
722.834489
21
358.735489
0
LINE
8
0
10
722.834489
20
358.735489
11
720.167244
21
361.673560
0
LINE
8
0
10
720.167244
20
361.673560
11
717.069504
21
365.299190
0
LINE
8
0
10
717.069504
20
365.299190
11
711.047705
21
373.601762
0
LINE
8
0
10
711.047705
20
373.601762
11
705.324297
21
383.149209
0
LINE
8
0
10
705.324297
20
383.149209
11
699.979453
21
393.753283
0
LINE
8
0
10
699.979453
20
393.753283
11
692.847376
21
411.228780
0
LINE
8
0
10
692.847376
20
411.228780
11
685.411210
21
436.470663
0
LINE
8
0
10
685.411210
20
436.470663
11
682.762064
21
449.500000
0
LINE
8
0
10
682.762064
20
449.500000
11
681.718717
21
456.922705
0
LINE
8
0
10
681.718717
20
456.922705
11
680.526830
21
473.921769
0
LINE
8
0
10
680.526830
20
473.921769
11
680.527904
21
491.866313
0
LINE
8
0
10
680.527904
20
491.866313
11
681.721800
21
508.445067
0
LINE
8
0
10
681.721800
20
508.445067
11
682.766014
21
515.500000
0
LINE
8
0
10
682.766014
20
515.500000
11
684.209331
21
522.527162
0
LINE
8
0
10
684.209331
20
522.527162
11
687.927698
21
536.112957
0
LINE
8
0
10
687.927698
20
536.112957
11
692.753399
21
549.071311
0
LINE
8
0
10
692.753399
20
549.071311
11
698.684455
21
561.398938
0
LINE
8
0
10
698.684455
20
561.398938
11
705.718891
21
573.092553
0
LINE
8
0
10
705.718891
20
573.092553
11
713.854730
21
584.148871
0
LINE
8
0
10
713.854730
20
584.148871
11
723.089997
21
594.564607
0
LINE
8
0
10
723.089997
20
594.564607
11
733.422715
21
604.336474
0
LINE
8
0
10
733.422715
20
604.336474
11
739.000000
21
608.979931
0
LINE
8
0
10
739.000000
20
608.979931
11
745.589005
21
613.914009
0
LINE
8
0
10
745.589005
20
613.914009
11
760.742463
21
623.381966
0
LINE
8
0
10
760.742463
20
623.381966
11
778.651344
21
632.377349
0
LINE
8
0
10
778.651344
20
632.377349
11
799.461438
21
640.973388
0
LINE
8
0
10
799.461438
20
640.973388
11
811.000000
21
645.144536
0
LINE
8
0
10
811.000000
20
645.144536
11
815.408995
21
646.610636
0
LINE
8
0
10
815.408995
20
646.610636
11
825.169634
21
649.513923
0
LINE
8
0
10
825.169634
20
649.513923
11
841.568663
21
653.673265
0
LINE
8
0
10
841.568663
20
653.673265
11
865.039809
21
658.508682
0
LINE
8
0
10
865.039809
20
658.508682
11
888.005112
21
662.049960
0
LINE
8
0
10
888.005112
20
662.049960
11
898.500000
21
663.170881
0
LINE
8
0
10
898.500000
20
663.170881
11
902.235679
21
663.445229
0
LINE
8
0
10
902.235679
20
663.445229
11
911.687317
21
663.885131
0
LINE
8
0
10
911.687317
20
663.885131
11
929.388105
21
664.272613
0
LINE
8
0
10
929.388105
20
664.272613
11
955.569416
21
664.279741
0
LINE
8
0
10
955.569416
20
664.279741
11
973.810072
21
663.902045
0
LINE
8
0
10
973.810072
20
663.902045
11
983.878701
21
663.467457
0
LINE
8
0
10
983.878701
20
663.467457
11
988.000000
21
663.195249
0
LINE
8
0
10
988.000000
20
663.195249
11
1004.294008
21
661.696013
0
LINE
8
0
10
1004.294008
20
661.696013
11
1038.298244
21
657.143148
0
LINE
8
0
10
1038.298244
20
657.143148
11
1074.019583
21
650.564237
0
LINE
8
0
10
1074.019583
20
650.564237
11
1111.252595
21
642.015057
0
LINE
8
0
10
1111.252595
20
642.015057
11
1149.791850
21
631.551383
0
LINE
8
0
10
1149.791850
20
631.551383
11
1189.431916
21
619.228990
0
LINE
8
0
10
1189.431916
20
619.228990
11
1229.967365
21
605.103655
0
LINE
8
0
10
1229.967365
20
605.103655
11
1271.192765
21
589.231154
0
LINE
8
0
10
1271.192765
20
589.231154
11
1292.000000
21
580.657146
0
LINE
8
0
10
1292.000000
20
580.657146
11
1300.701891
21
576.950381
0
LINE
8
0
10
1300.701891
20
576.950381
11
1319.327076
21
568.777175
0
LINE
8
0
10
1319.327076
20
568.777175
11
1349.351069
21
555.079459
0
LINE
8
0
10
1349.351069
20
555.079459
11
1390.568912
21
535.423342
0
LINE
8
0
10
1390.568912
20
535.423342
11
1420.114667
21
520.713218
0
LINE
8
0
10
1420.114667
20
520.713218
11
1438.193295
21
511.382974
0
LINE
8
0
10
1438.193295
20
511.382974
11
1446.553587
21
506.953062
0
LINE
8
0
10
1446.553587
20
506.953062
11
1453.928241
21
503.005775
0
LINE
8
0
10
1453.928241
20
503.005775
11
1460.500000
21
499.487810
0
LINE
8
0
10
1460.500000
20
499.487810
11
1462.082861
21
498.632465
0
LINE
8
0
10
1462.082861
20
498.632465
11
1467.019287
21
495.931019
0
LINE
8
0
10
1467.019287
20
495.931019
11
1477.343359
21
490.232827
0
LINE
8
0
10
1477.343359
20
490.232827
11
1485.000000
21
485.982914
0
LINE
8
0
10
1485.000000
20
485.982914
11
1492.498828
21
481.811249
0
LINE
8
0
10
1492.498828
20
481.811249
11
1502.096924
21
476.473020
0
LINE
8
0
10
1502.096924
20
476.473020
11
1506.318896
21
474.125824
0
LINE
8
0
10
1506.318896
20
474.125824
11
1507.500000
21
473.469684
0
LINE
8
0
10
1507.500000
20
473.469684
11
1509.546289
21
472.321479
0
LINE
8
0
10
1509.546289
20
472.321479
11
1515.007617
21
469.207123
0
LINE
8
0
10
1515.007617
20
469.207123
11
1517.750000
21
467.624558
0
LINE
8
0
10
1517.750000
20
467.624558
11
1522.658101
21
464.777923
0
LINE
8
0
10
1522.658101
20
464.777923
11
1530.186790
21
460.408858
0
LINE
8
0
10
1530.186790
20
460.408858
11
1538.279533
21
455.701767
0
LINE
8
0
10
1538.279533
20
455.701767
11
1543.500000
21
452.656038
0
LINE
8
0
10
1543.500000
20
452.656038
11
1546.724609
21
450.769918
0
LINE
8
0
10
1546.724609
20
450.769918
11
1550.791748
21
448.379908
0
LINE
8
0
10
1550.791748
20
448.379908
11
1552.535400
21
447.346788
0
LINE
8
0
10
1552.535400
20
447.346788
11
1553.000000
21
447.067065
0
LINE
8
0
10
1553.000000
20
447.067065
11
1553.597266
21
446.705151
0
LINE
8
0
10
1553.597266
20
446.705151
11
1556.322266
21
445.064055
0
LINE
8
0
10
1556.322266
20
445.064055
11
1563.251562
21
440.900848
0
LINE
8
0
10
1563.251562
20
440.900848
11
1569.000000
21
437.451138
0
LINE
8
0
10
1569.000000
20
437.451138
11
1575.024609
21
433.818547
0
LINE
8
0
10
1575.024609
20
433.818547
11
1583.224365
21
428.814042
0
LINE
8
0
10
1583.224365
20
428.814042
11
1587.199658
21
426.345002
0
LINE
8
0
10
1587.199658
20
426.345002
11
1588.500000
21
425.517511
0
LINE
8
0
10
1588.500000
20
425.517511
11
1589.922803
21
424.605541
0
LINE
8
0
10
1589.922803
20
424.605541
11
1594.803955
21
421.511595
0
LINE
8
0
10
1594.803955
20
421.511595
11
1605.645703
21
414.684515
0
LINE
8
0
10
1605.645703
20
414.684515
11
1614.000000
21
409.444792
0
LINE
8
0
10
1614.000000
20
409.444792
11
1626.200535
21
401.750205
0
LINE
8
0
10
1626.200535
20
401.750205
11
1651.995776
21
385.182608
0
LINE
8
0
10
1651.995776
20
385.182608
11
1677.990405
21
368.132277
0
LINE
8
0
10
1677.990405
20
368.132277
11
1696.419270
21
355.813495
0
LINE
8
0
10
1696.419270
20
355.813495
11
1707.730298
21
348.130431
0
LINE
8
0
10
1707.730298
20
348.130431
11
1713.000000
21
344.508964
0
LINE
8
0
10
1713.000000
20
344.508964
11
1717.043750
21
341.717771
0
LINE
8
0
10
1717.043750
20
341.717771
11
1722.860352
21
337.702892
0
LINE
8
0
10
1722.860352
20
337.702892
11
1725.902148
21
335.603324
0
LINE
8
0
10
1725.902148
20
335.603324
11
1727.000000
21
334.845551
0
LINE
8
0
10
1727.000000
20
334.845551
11
1728.196357
21
334.015068
0
LINE
8
0
10
1728.196357
20
334.015068
11
1731.966815
21
331.377664
0
LINE
8
0
10
1731.966815
20
331.377664
11
1739.908599
21
325.794157
0
LINE
8
0
10
1739.908599
20
325.794157
11
1745.826318
21
321.619759
0
LINE
8
0
10
1745.826318
20
321.619759
11
1751.560476
21
317.572086
0
LINE
8
0
10
1751.560476
20
317.572086
11
1758.657834
21
312.571545
0
LINE
8
0
10
1758.657834
20
312.571545
11
1761.597269
21
310.507854
0
LINE
8
0
10
1761.597269
20
310.507854
11
1762.326318
21
309.999987
0
LINE
8
0
10
1762.326318
20
309.999987
11
1766.623477
21
306.953786
0
LINE
8
0
10
1766.623477
20
306.953786
11
1772.438028
21
302.603927
0
LINE
8
0
10
1772.438028
20
302.603927
11
1774.680682
21
300.768481
0
LINE
8
0
10
1774.680682
20
300.768481
11
1775.000000
21
300.406195
0
LINE
8
0
10
1775.000000
20
300.406195
11
1774.836203
21
300.073901
0
LINE
8
0
10
1774.836203
20
300.073901
11
1773.496230
21
300.613213
0
LINE
8
0
10
1773.496230
20
300.613213
11
1771.425358
21
301.879252
0
LINE
8
0
10
1771.425358
20
301.879252
11
1769.921445
21
302.839421
0
LINE
8
0
10
730.997460
20
67.470034
11
725.862144
21
68.514202
0
LINE
8
0
10
725.862144
20
68.514202
11
715.964337
21
71.592206
0
LINE
8
0
10
715.964337
20
71.592206
11
706.621274
21
75.941518
0
LINE
8
0
10
706.621274
20
75.941518
11
697.902123
21
81.504239
0
LINE
8
0
10
697.902123
20
81.504239
11
689.876057
21
88.222471
0
LINE
8
0
10
689.876057
20
88.222471
11
682.612245
21
96.038313
0
LINE
8
0
10
682.612245
20
96.038313
11
676.179858
21
104.893866
0
LINE
8
0
10
676.179858
20
104.893866
11
670.648067
21
114.731231
0
LINE
8
0
10
670.648067
20
114.731231
11
668.241510
21
120.000000
0
LINE
8
0
10
668.241510
20
120.000000
11
666.928829
21
123.354765
0
LINE
8
0
10
666.928829
20
123.354765
11
664.282327
21
131.530152
0
LINE
8
0
10
664.282327
20
131.530152
11
660.754333
21
145.584621
0
LINE
8
0
10
660.754333
20
145.584621
11
659.081544
21
154.691553
0
LINE
8
0
10
659.081544
20
154.691553
11
658.842671
21
156.680702
0
LINE
8
0
10
658.842671
20
156.680702
11
658.457466
21
162.215267
0
LINE
8
0
10
658.457466
20
162.215267
11
658.112513
21
173.231764
0
LINE
8
0
10
658.112513
20
173.231764
11
658.091453
21
189.694922
0
LINE
8
0
10
658.091453
20
189.694922
11
658.408327
21
200.629122
0
LINE
8
0
10
658.408327
20
200.629122
11
658.779493
21
206.069634
0
LINE
8
0
10
658.779493
20
206.069634
11
659.013353
21
208.000000
0
LINE
8
0
10
659.013353
20
208.000000
11
660.907112
21
218.382113
0
LINE
8
0
10
660.907112
20
218.382113
11
666.196935
21
237.402777
0
LINE
8
0
10
666.196935
20
237.402777
11
673.401333
21
253.896090
0
LINE
8
0
10
673.401333
20
253.896090
11
682.414109
21
267.618933
0
LINE
8
0
10
682.414109
20
267.618933
11
687.565452
21
273.365452
0
LINE
8
0
10
687.565452
20
273.365452
11
691.061767
21
276.700995
0
LINE
8
0
10
691.061767
20
276.700995
11
698.053934
21
282.318357
0
LINE
8
0
10
698.053934
20
282.318357
11
705.540962
21
286.829280
0
LINE
8
0
10
705.540962
20
286.829280
11
714.117426
21
290.591994
0
LINE
8
0
10
714.117426
20
290.591994
11
719.000000
21
292.304719
0
LINE
8
0
10
719.000000
20
292.304719
11
722.123478
21
293.310837
0
LINE
8
0
10
722.123478
20
293.310837
11
727.203777
21
294.627960
0
LINE
8
0
10
727.203777
20
294.627960
11
732.785816
21
295.246072
0
LINE
8
0
10
732.785816
20
295.246072
11
738.786711
21
295.415379
0
LINE
8
0
10
738.786711
20
295.415379
11
744.229903
21
295.452190
0
LINE
8
0
10
744.229903
20
295.452190
11
747.500000
21
295.460591
0
LINE
8
0
10
747.500000
20
295.460591
11
750.794054
21
295.466066
0
LINE
8
0
10
750.794054
20
295.466066
11
756.259902
21
295.453559
0
LINE
8
0
10
756.259902
20
295.453559
11
762.238534
21
295.312409
0
LINE
8
0
10
762.238534
20
295.312409
11
767.705188
21
294.717271
0
LINE
8
0
10
767.705188
20
294.717271
11
772.599124
21
293.407759
0
LINE
8
0
10
772.599124
20
293.407759
11
775.611995
21
292.400123
0
LINE
8
0
10
775.611995
20
292.400123
11
781.673738
21
290.111569
0
LINE
8
0
10
781.673738
20
290.111569
11
792.807993
21
284.500577
0
LINE
8
0
10
792.807993
20
284.500577
11
802.696359
21
277.459028
0
LINE
8
0
10
802.696359
20
277.459028
11
811.426537
21
268.924469
0
LINE
8
0
10
811.426537
20
268.924469
11
815.384713
21
264.077794
0
LINE
8
0
10
815.384713
20
264.077794
11
819.500000
21
258.655587
0
LINE
8
0
10
819.500000
20
258.655587
11
819.757190
21
324.327794
0
LINE
8
0
10
819.757190
20
324.327794
11
820.014379
21
390.000000
0
LINE
8
0
10
820.014379
20
390.000000
11
842.507190
21
390.000000
0
LINE
8
0
10
842.507190
20
390.000000
11
865.000000
21
390.000000
0
LINE
8
0
10
865.000000
20
390.000000
11
865.000000
21
230.000000
0
LINE
8
0
10
865.000000
20
230.000000
11
865.000000
21
70.000000
0
LINE
8
0
10
865.000000
20
70.000000
11
848.000000
21
70.000000
0
LINE
8
0
10
848.000000
20
70.000000
11
831.000000
21
70.000000
0
LINE
8
0
10
831.000000
20
70.000000
11
831.000126
21
74.750000
0
LINE
8
0
10
831.000126
20
74.750000
11
830.959461
21
75.824809
0
LINE
8
0
10
830.959461
20
75.824809
11
830.662552
21
79.665188
0
LINE
8
0
10
830.662552
20
79.665188
11
829.820892
21
88.347834
0
LINE
8
0
10
829.820892
20
88.347834
11
828.358348
21
101.725719
0
LINE
8
0
10
828.358348
20
101.725719
11
827.339045
21
110.065302
0
LINE
8
0
10
827.339045
20
110.065302
11
826.839115
21
113.513609
0
LINE
8
0
10
826.839115
20
113.513609
11
826.671561
21
114.343372
0
LINE
8
0
10
826.671561
20
114.343372
11
826.529040
21
114.322088
0
LINE
8
0
10
826.529040
20
114.322088
11
825.738692
21
113.212733
0
LINE
8
0
10
825.738692
20
113.212733
11
823.592324
21
109.404681
0
LINE
8
0
10
823.592324
20
109.404681
11
821.756063
21
105.843372
0
LINE
8
0
10
821.756063
20
105.843372
11
819.576772
21
101.765492
0
LINE
8
0
10
819.576772
20
101.765492
11
814.641425
21
93.748455
0
LINE
8
0
10
814.641425
20
93.748455
11
812.493243
21
90.796732
0
LINE
8
0
10
812.493243
20
90.796732
11
808.728829
21
86.592387
0
LINE
8
0
10
808.728829
20
86.592387
11
799.703986
21
79.060315
0
LINE
8
0
10
799.703986
20
79.060315
11
789.196582
21
72.992796
0
LINE
8
0
10
789.196582
20
72.992796
11
777.821166
21
68.744703
0
LINE
8
0
10
777.821166
20
68.744703
11
772.000000
21
67.413838
0
LINE
8
0
10
772.000000
20
67.413838
11
767.983137
21
66.869079
0
LINE
8
0
10
767.983137
20
66.869079
11
757.589437
21
66.254449
0
LINE
8
0
10
757.589437
20
66.254449
11
745.928931
21
66.270431
0
LINE
8
0
10
745.928931
20
66.270431
11
735.257413
21
66.913931
0
LINE
8
0
10
735.257413
20
66.913931
11
730.997460
21
67.470034
0
LINE
8
0
10
1113.000000
20
146.000000
11
1113.000000
21
292.000000
0
LINE
8
0
10
1113.000000
20
292.000000
11
1135.500000
21
292.000000
0
LINE
8
0
10
1135.500000
20
292.000000
11
1158.000000
21
292.000000
0
LINE
8
0
10
1158.000000
20
292.000000
11
1158.011006
21
277.250000
0
LINE
8
0
10
1158.011006
20
277.250000
11
1158.065332
21
271.219902
0
LINE
8
0
10
1158.065332
20
271.219902
11
1158.300436
21
263.331360
0
LINE
8
0
10
1158.300436
20
263.331360
11
1158.528700
21
259.732933
0
LINE
8
0
10
1158.528700
20
259.732933
11
1158.656350
21
258.660636
0
LINE
8
0
10
1158.656350
20
258.660636
11
1159.290688
21
254.821273
0
LINE
8
0
10
1159.290688
20
254.821273
11
1162.300126
21
259.660636
0
LINE
8
0
10
1162.300126
20
259.660636
11
1163.080805
21
260.806249
0
LINE
8
0
10
1163.080805
20
260.806249
11
1165.458832
21
263.818299
0
LINE
8
0
10
1165.458832
20
263.818299
11
1170.351429
21
269.317753
0
LINE
8
0
10
1170.351429
20
269.317753
11
1173.939884
21
273.000000
0
LINE
8
0
10
1173.939884
20
273.000000
11
1177.535407
21
276.381993
0
LINE
8
0
10
1177.535407
20
276.381993
11
1184.803702
21
282.218514
0
LINE
8
0
10
1184.803702
20
282.218514
11
1192.471417
21
287.003389
0
LINE
8
0
10
1192.471417
20
287.003389
11
1200.894254
21
290.958584
0
LINE
8
0
10
1200.894254
20
290.958584
11
1205.500000
21
292.694417
0
LINE
8
0
10
1205.500000
20
292.694417
11
1210.381876
21
294.266694
0
LINE
8
0
10
1210.381876
20
294.266694
11
1217.845270
21
295.315824
0
LINE
8
0
10
1217.845270
20
295.315824
11
1223.627595
21
295.460061
0
LINE
8
0
10
1223.627595
20
295.460061
11
1228.864792
21
295.480809
0
LINE
8
0
10
1228.864792
20
295.480809
11
1232.000000
21
295.479270
0
LINE
8
0
10
1232.000000
20
295.479270
11
1235.171782
21
295.473991
0
LINE
8
0
10
1235.171782
20
295.473991
11
1240.456847
21
295.442099
0
LINE
8
0
10
1240.456847
20
295.442099
11
1246.289346
21
295.279460
0
LINE
8
0
10
1246.289346
20
295.279460
11
1251.698393
21
294.676195
0
LINE
8
0
10
1251.698393
20
294.676195
11
1256.557215
21
293.390900
0
LINE
8
0
10
1256.557215
20
293.390900
11
1259.515162
21
292.410532
0
LINE
8
0
10
1259.515162
20
292.410532
11
1266.872102
21
289.580905
0
LINE
8
0
10
1266.872102
20
289.580905
11
1280.143085
21
282.351945
0
LINE
8
0
10
1280.143085
20
282.351945
11
1291.496246
21
273.019168
0
LINE
8
0
10
1291.496246
20
273.019168
11
1300.938829
21
261.569525
0
LINE
8
0
10
1300.938829
20
261.569525
11
1308.478080
21
247.989965
0
LINE
8
0
10
1308.478080
20
247.989965
11
1314.121244
21
232.267439
0
LINE
8
0
10
1314.121244
20
232.267439
11
1317.875566
21
214.388895
0
LINE
8
0
10
1317.875566
20
214.388895
11
1319.748292
21
194.341284
0
LINE
8
0
10
1319.748292
20
194.341284
11
1319.981321
21
183.500000
0
LINE
8
0
10
1319.981321
20
183.500000
11
1319.865446
21
175.561705
0
LINE
8
0
10
1319.865446
20
175.561705
11
1318.938415
21
160.565230
0
LINE
8
0
10
1318.938415
20
160.565230
11
1317.074924
21
146.713096
0
LINE
8
0
10
1317.074924
20
146.713096
11
1314.263672
21
133.970328
0
LINE
8
0
10
1314.263672
20
133.970328
11
1310.493358
21
122.301951
0
LINE
8
0
10
1310.493358
20
122.301951
11
1305.752681
21
111.672991
0
LINE
8
0
10
1305.752681
20
111.672991
11
1300.030339
21
102.048472
0
LINE
8
0
10
1300.030339
20
102.048472
11
1293.315033
21
93.393420
0
LINE
8
0
10
1293.315033
20
93.393420
11
1289.581485
21
89.418515
0
LINE
8
0
10
1289.581485
20
89.418515
11
1283.320325
21
83.711680
0
LINE
8
0
10
1283.320325
20
83.711680
11
1269.857798
21
74.812626
0
LINE
8
0
10
1269.857798
20
74.812626
11
1254.682100
21
69.093191
0
LINE
8
0
10
1254.682100
20
69.093191
11
1237.241753
21
66.345533
0
LINE
8
0
10
1237.241753
20
66.345533
11
1227.500000
21
66.021170
0
LINE
8
0
10
1227.500000
20
66.021170
11
1222.550572
21
66.114999
0
LINE
8
0
10
1222.550572
20
66.114999
11
1213.766170
21
66.876844
0
LINE
8
0
10
1213.766170
20
66.876844
11
1205.942308
21
68.514228
0
LINE
8
0
10
1205.942308
20
68.514228
11
1198.448506
21
71.159098
0
LINE
8
0
10
1198.448506
20
71.159098
11
1194.628354
21
72.900575
0
LINE
8
0
10
1194.628354
20
72.900575
11
1189.769809
21
75.541115
0
LINE
8
0
10
1189.769809
20
75.541115
11
1180.245840
21
82.265634
0
LINE
8
0
10
1180.245840
20
82.265634
11
1171.600425
21
90.335053
0
LINE
8
0
10
1171.600425
20
90.335053
11
1164.578838
21
99.053750
0
LINE
8
0
10
1164.578838
20
99.053750
11
1161.909878
21
103.439197
0
LINE
8
0
10
1161.909878
20
103.439197
11
1161.239531
21
104.653236
0
LINE
8
0
10
1161.239531
20
104.653236
11
1160.137482
21
106.219620
0
LINE
8
0
10
1160.137482
20
106.219620
11
1159.318625
21
106.190764
0
LINE
8
0
10
1159.318625
20
106.190764
11
1158.740959
21
104.031085
0
LINE
8
0
10
1158.740959
20
104.031085
11
1158.362480
21
99.205002
0
LINE
8
0
10
1158.362480
20
99.205002
11
1158.141186
21
91.176935
0
LINE
8
0
10
1158.141186
20
91.176935
11
1158.053102
21
82.732396
0
LINE
8
0
10
1158.053102
20
82.732396
11
1158.021624
21
75.823135
0
LINE
8
0
10
1158.021624
20
75.823135
11
1158.005816
21
67.812114
0
LINE
8
0
10
1158.005816
20
67.812114
11
1158.000427
21
58.632385
0
LINE
8
0
10
1158.000427
20
58.632385
11
1158.000000
21
53.583333
0
LINE
8
0
10
1158.000000
20
53.583333
11
1158.000000
21
0.000000
0
LINE
8
0
10
1158.000000
20
0.000000
11
1135.500000
21
0.000000
0
LINE
8
0
10
1135.500000
20
0.000000
11
1113.000000
21
0.000000
0
LINE
8
0
10
1113.000000
20
0.000000
11
1113.000000
21
146.000000
0
LINE
8
0
10
352.500000
20
70.664505
11
342.173445
21
72.669233
0
LINE
8
0
10
342.173445
20
72.669233
11
323.217473
21
78.572018
0
LINE
8
0
10
323.217473
20
78.572018
11
306.188720
21
87.168683
0
LINE
8
0
10
306.188720
20
87.168683
11
290.684428
21
98.662553
0
LINE
8
0
10
290.684428
20
98.662553
11
283.378092
21
105.559479
0
LINE
8
0
10
283.378092
20
105.559479
11
279.389199
21
109.807197
0
LINE
8
0
10
279.389199
20
109.807197
11
272.127346
21
118.750389
0
LINE
8
0
10
272.127346
20
118.750389
11
265.838104
21
128.246575
0
LINE
8
0
10
265.838104
20
128.246575
11
260.543116
21
138.242937
0
LINE
8
0
10
260.543116
20
138.242937
11
256.264022
21
148.686653
0
LINE
8
0
10
256.264022
20
148.686653
11
253.022464
21
159.524905
0
LINE
8
0
10
253.022464
20
159.524905
11
250.840084
21
170.704873
0
LINE
8
0
10
250.840084
20
170.704873
11
249.738525
21
182.173738
0
LINE
8
0
10
249.738525
20
182.173738
11
249.599815
21
188.000000
0
LINE
8
0
10
249.599815
20
188.000000
11
249.772394
21
194.635616
0
LINE
8
0
10
249.772394
20
194.635616
11
251.150186
21
207.597883
0
LINE
8
0
10
251.150186
20
207.597883
11
253.898512
21
220.119446
0
LINE
8
0
10
253.898512
20
220.119446
11
258.009801
21
232.165804
0
LINE
8
0
10
258.009801
20
232.165804
11
260.574190
21
238.000000
0
LINE
8
0
10
260.574190
20
238.000000
11
263.818725
21
244.353455
0
LINE
8
0
10
263.818725
20
244.353455
11
271.335136
21
256.325837
0
LINE
8
0
10
271.335136
20
256.325837
11
280.117846
21
267.238429
0
LINE
8
0
10
280.117846
20
267.238429
11
290.042673
21
276.994732
0
LINE
8
0
10
290.042673
20
276.994732
11
300.985433
21
285.498242
0
LINE
8
0
10
300.985433
20
285.498242
11
312.821943
21
292.652458
0
LINE
8
0
10
312.821943
20
292.652458
11
325.428018
21
298.360879
0
LINE
8
0
10
325.428018
20
298.360879
11
338.679477
21
302.527003
0
LINE
8
0
10
338.679477
20
302.527003
11
345.508418
21
304.001547
0
LINE
8
0
10
345.508418
20
304.001547
11
352.841901
21
305.128023
0
LINE
8
0
10
352.841901
20
305.128023
11
367.429966
21
306.065496
0
LINE
8
0
10
367.429966
20
306.065496
11
381.802028
21
305.282570
0
LINE
8
0
10
381.802028
20
305.282570
11
395.825122
21
302.819532
0
LINE
8
0
10
395.825122
20
302.819532
11
409.366284
21
298.716669
0
LINE
8
0
10
409.366284
20
298.716669
11
422.292550
21
293.014268
0
LINE
8
0
10
422.292550
20
293.014268
11
434.470956
21
285.752616
0
LINE
8
0
10
434.470956
20
285.752616
11
445.768538
21
276.972000
0
LINE
8
0
10
445.768538
20
276.972000
11
451.045469
21
272.024670
0
LINE
8
0
10
451.045469
20
272.024670
11
456.731928
21
266.005290
0
LINE
8
0
10
456.731928
20
266.005290
11
466.490809
21
253.423496
0
LINE
8
0
10
466.490809
20
253.423496
11
474.278048
21
239.802091
0
LINE
8
0
10
474.278048
20
239.802091
11
480.310132
21
224.762397
0
LINE
8
0
10
480.310132
20
224.762397
11
482.735643
21
216.592355
0
LINE
8
0
10
482.735643
20
216.592355
11
484.185993
21
210.637651
0
LINE
8
0
10
484.185993
20
210.637651
11
485.226326
21
202.147610
0
LINE
8
0
10
485.226326
20
202.147610
11
485.403419
21
196.368438
0
LINE
8
0
10
485.403419
20
196.368438
11
485.446992
21
191.404328
0
LINE
8
0
10
485.446992
20
191.404328
11
485.455036
21
188.500000
0
LINE
8
0
10
485.455036
20
188.500000
11
485.445993
21
183.176655
0
LINE
8
0
10
485.445993
20
183.176655
11
485.268441
21
175.113699
0
LINE
8
0
10
485.268441
20
175.113699
11
484.358274
21
166.576715
0
LINE
8
0
10
484.358274
20
166.576715
11
483.131573
21
161.000000
0
LINE
8
0
10
483.131573
20
161.000000
11
480.808572
21
152.819861
0
LINE
8
0
10
480.808572
20
152.819861
11
474.623562
21
137.276773
0
LINE
8
0
10
474.623562
20
137.276773
11
466.515987
21
122.952016
0
LINE
8
0
10
466.515987
20
122.952016
11
456.641182
21
110.000086
0
LINE
8
0
10
456.641182
20
110.000086
11
445.154481
21
98.575478
0
LINE
8
0
10
445.154481
20
98.575478
11
432.211219
21
88.832687
0
LINE
8
0
10
432.211219
20
88.832687
11
417.966733
21
80.926209
0
LINE
8
0
10
417.966733
20
80.926209
11
402.576355
21
75.010539
0
LINE
8
0
10
402.576355
20
75.010539
11
394.500000
21
72.847536
0
LINE
8
0
10
394.500000
20
72.847536
11
392.654398
21
72.474468
0
LINE
8
0
10
392.654398
20
72.474468
11
387.981282
21
71.788150
0
LINE
8
0
10
387.981282
20
71.788150
11
379.290083
21
70.948413
0
LINE
8
0
10
379.290083
20
70.948413
11
366.728077
21
70.295478
0
LINE
8
0
10
366.728077
20
70.295478
11
358.380522
21
70.249594
0
LINE
8
0
10
358.380522
20
70.249594
11
354.100142
21
70.470536
0
LINE
8
0
10
354.100142
20
70.470536
11
352.500000
21
70.664505
0
LINE
8
0
10
1390.418038
20
67.513357
11
1386.108465
21
68.450965
0
LINE
8
0
10
1386.108465
20
68.450965
11
1377.772246
21
71.134046
0
LINE
8
0
10
1377.772246
20
71.134046
11
1369.919435
21
74.807120
0
LINE
8
0
10
1369.919435
20
74.807120
11
1362.677437
21
79.365591
0
LINE
8
0
10
1362.677437
20
79.365591
11
1356.173661
21
84.704867
0
LINE
8
0
10
1356.173661
20
84.704867
11
1350.535512
21
90.720352
0
LINE
8
0
10
1350.535512
20
90.720352
11
1345.890397
21
97.307451
0
LINE
8
0
10
1345.890397
20
97.307451
11
1342.365723
21
104.361570
0
LINE
8
0
10
1342.365723
20
104.361570
11
1341.063365
21
108.031077
0
LINE
8
0
10
1341.063365
20
108.031077
11
1339.546427
21
113.542393
0
LINE
8
0
10
1339.546427
20
113.542393
11
1337.724986
21
124.239551
0
LINE
8
0
10
1337.724986
20
124.239551
11
1337.513235
21
134.847908
0
LINE
8
0
10
1337.513235
20
134.847908
11
1338.902905
21
145.781662
0
LINE
8
0
10
1338.902905
20
145.781662
11
1340.195690
21
151.500000
0
LINE
8
0
10
1340.195690
20
151.500000
11
1341.430444
21
155.736111
0
LINE
8
0
10
1341.430444
20
155.736111
11
1344.665563
21
163.656691
0
LINE
8
0
10
1344.665563
20
163.656691
11
1348.930789
21
170.850181
0
LINE
8
0
10
1348.930789
20
170.850181
11
1354.237269
21
177.326698
0
LINE
8
0
10
1354.237269
20
177.326698
11
1360.596155
21
183.096357
0
LINE
8
0
10
1360.596155
20
183.096357
11
1368.018596
21
188.169275
0
LINE
8
0
10
1368.018596
20
188.169275
11
1376.515740
21
192.555568
0
LINE
8
0
10
1376.515740
20
192.555568
11
1386.098738
21
196.265353
0
LINE
8
0
10
1386.098738
20
196.265353
11
1391.300917
21
197.869717
0
LINE
8
0
10
1391.300917
20
197.869717
11
1397.017961
21
199.369995
0
LINE
8
0
10
1397.017961
20
199.369995
11
1409.400582
21
201.764353
0
LINE
8
0
10
1409.400582
20
201.764353
11
1420.328337
21
203.123932
0
LINE
8
0
10
1420.328337
20
203.123932
11
1428.780941
21
203.867482
0
LINE
8
0
10
1428.780941
20
203.867482
11
1438.407738
21
204.508684
0
LINE
8
0
10
1438.407738
20
204.508684
11
1449.414650
21
205.071471
0
LINE
8
0
10
1449.414650
20
205.071471
11
1455.500000
21
205.330938
0
LINE
8
0
10
1455.500000
20
205.330938
11
1484.500000
21
206.500000
0
LINE
8
0
10
1484.500000
20
206.500000
11
1484.421530
21
219.000000
0
LINE
8
0
10
1484.421530
20
219.000000
11
1484.314133
21
224.057495
0
LINE
8
0
10
1484.314133
20
224.057495
11
1483.590509
21
232.415932
0
LINE
8
0
10
1483.590509
20
232.415932
11
1482.037793
21
239.078758
0
LINE
8
0
10
1482.037793
20
239.078758
11
1479.475203
21
244.821726
0
LINE
8
0
10
1479.475203
20
244.821726
11
1477.758711
21
247.590685
0
LINE
8
0
10
1477.758711
20
247.590685
11
1474.993705
21
251.220173
0
LINE
8
0
10
1474.993705
20
251.220173
11
1468.444932
21
256.985903
0
LINE
8
0
10
1468.444932
20
256.985903
11
1460.252326
21
260.896921
0
LINE
8
0
10
1460.252326
20
260.896921
11
1450.073308
21
263.116770
0
LINE
8
0
10
1450.073308
20
263.116770
11
1444.131838
21
263.643613
0
LINE
8
0
10
1444.131838
20
263.643613
11
1439.232701
21
263.815492
0
LINE
8
0
10
1439.232701
20
263.815492
11
1430.207195
21
263.529260
0
LINE
8
0
10
1430.207195
20
263.529260
11
1422.140823
21
262.393007
0
LINE
8
0
10
1422.140823
20
262.393007
11
1414.948115
21
260.394693
0
LINE
8
0
10
1414.948115
20
260.394693
11
1411.652677
21
259.068501
0
LINE
8
0
10
1411.652677
20
259.068501
11
1407.366491
21
256.936934
0
LINE
8
0
10
1407.366491
20
256.936934
11
1400.094582
21
251.984698
0
LINE
8
0
10
1400.094582
20
251.984698
11
1394.477882
21
246.030181
0
LINE
8
0
10
1394.477882
20
246.030181
11
1390.421902
21
238.973210
0
LINE
8
0
10
1390.421902
20
238.973210
11
1388.949653
21
235.000000
0
LINE
8
0
10
1388.949653
20
235.000000
11
1387.226910
21
229.500000
0
LINE
8
0
10
1387.226910
20
229.500000
11
1367.473146
21
229.228392
0
LINE
8
0
10
1367.473146
20
229.228392
11
1347.719383
21
228.956784
0
LINE
8
0
10
1347.719383
20
228.956784
11
1348.376510
21
235.370727
0
LINE
8
0
10
1348.376510
20
235.370727
11
1349.351872
21
241.504285
0
LINE
8
0
10
1349.351872
20
241.504285
11
1353.243140
21
253.422115
0
LINE
8
0
10
1353.243140
20
253.422115
11
1359.435705
21
264.368506
0
LINE
8
0
10
1359.435705
20
264.368506
11
1367.586249
21
273.736587
0
LINE
8
0
10
1367.586249
20
273.736587
11
1372.288476
21
277.639113
0
LINE
8
0
10
1372.288476
20
277.639113
11
1379.171879
21
282.238611
0
LINE
8
0
10
1379.171879
20
282.238611
11
1390.279131
21
287.750053
0
LINE
8
0
10
1390.279131
20
287.750053
11
1398.844778
21
290.796245
0
LINE
8
0
10
1398.844778
20
290.796245
11
1403.640259
21
292.207307
0
LINE
8
0
10
1403.640259
20
292.207307
11
1415.500000
21
295.500000
0
LINE
8
0
10
1415.500000
20
295.500000
11
1440.000000
21
295.500000
0
LINE
8
0
10
1440.000000
20
295.500000
11
1444.205782
21
295.498406
0
LINE
8
0
10
1444.205782
20
295.498406
11
1451.203222
21
295.474011
0
LINE
8
0
10
1451.203222
20
295.474011
11
1456.632758
21
295.395475
0
LINE
8
0
10
1456.632758
20
295.395475
11
1460.875505
21
295.231755
0
LINE
8
0
10
1460.875505
20
295.231755
11
1468.791238
21
294.246069
0
LINE
8
0
10
1468.791238
20
294.246069
11
1475.500000
21
292.608576
0
LINE
8
0
10
1475.500000
20
292.608576
11
1480.679055
21
291.127679
0
LINE
8
0
10
1480.679055
20
291.127679
11
1490.136483
21
287.670471
0
LINE
8
0
10
1490.136483
20
287.670471
11
1498.442653
21
283.506586
0
LINE
8
0
10
1498.442653
20
283.506586
11
1505.657144
21
278.580676
0
LINE
8
0
10
1505.657144
20
278.580676
11
1511.839536
21
272.837393
0
LINE
8
0
10
1511.839536
20
272.837393
11
1517.049410
21
266.221389
0
LINE
8
0
10
1517.049410
20
266.221389
11
1521.346345
21
258.677315
0
LINE
8
0
10
1521.346345
20
258.677315
11
1524.789921
21
250.149824
0
LINE
8
0
10
1524.789921
20
250.149824
11
1526.210318
21
245.500000
0
LINE
8
0
10
1526.210318
20
245.500000
11
1526.935249
21
242.683608
0
LINE
8
0
10
1526.935249
20
242.683608
11
1527.705754
21
237.401033
0
LINE
8
0
10
1527.705754
20
237.401033
11
1528.050415
21
231.656390
0
LINE
8
0
10
1528.050415
20
231.656390
11
1528.240779
21
225.441040
0
LINE
8
0
10
1528.240779
20
225.441040
11
1528.342035
21
220.145541
0
LINE
8
0
10
1528.342035
20
220.145541
11
1528.426994
21
213.776735
0
LINE
8
0
10
1528.426994
20
213.776735
11
1528.499278
21
206.204544
0
LINE
8
0
10
1528.499278
20
206.204544
11
1528.562508
21
197.298885
0
LINE
8
0
10
1528.562508
20
197.298885
11
1528.620306
21
186.929680
0
LINE
8
0
10
1528.620306
20
186.929680
11
1528.676294
21
174.966849
0
LINE
8
0
10
1528.676294
20
174.966849
11
1528.734093
21
161.280310
0
LINE
8
0
10
1528.734093
20
161.280310
11
1528.764803
21
153.750000
0
LINE
8
0
10
1528.764803
20
153.750000
11
1529.104878
21
70.000000
0
LINE
8
0
10
1529.104878
20
70.000000
11
1509.646277
21
70.000000
0
LINE
8
0
10
1509.646277
20
70.000000
11
1490.187676
21
70.000000
0
LINE
8
0
10
1490.187676
20
70.000000
11
1489.634750
21
74.750000
0
LINE
8
0
10
1489.634750
20
74.750000
11
1489.499335
21
76.015430
0
LINE
8
0
10
1489.499335
20
76.015430
11
1489.121742
21
80.014648
0
LINE
8
0
10
1489.121742
20
80.014648
11
1488.395841
21
88.453906
0
LINE
8
0
10
1488.395841
20
88.453906
11
1487.889099
21
94.750000
0
LINE
8
0
10
1487.889099
20
94.750000
11
1487.637297
21
97.812820
0
LINE
8
0
10
1487.637297
20
97.812820
11
1487.120911
21
103.256208
0
LINE
8
0
10
1487.120911
20
103.256208
11
1486.636455
21
107.373718
0
LINE
8
0
10
1486.636455
20
107.373718
11
1486.242694
21
109.665896
0
LINE
8
0
10
1486.242694
20
109.665896
11
1486.098187
21
109.971407
0
LINE
8
0
10
1486.098187
20
109.971407
11
1485.886178
21
109.810613
0
LINE
8
0
10
1485.886178
20
109.810613
11
1484.993095
21
108.653466
0
LINE
8
0
10
1484.993095
20
108.653466
11
1482.794466
21
105.297992
0
LINE
8
0
10
1482.794466
20
105.297992
11
1481.000000
21
102.346057
0
LINE
8
0
10
1481.000000
20
102.346057
11
1476.452489
21
95.443226
0
LINE
8
0
10
1476.452489
20
95.443226
11
1465.893282
21
83.806243
0
LINE
8
0
10
1465.893282
20
83.806243
11
1453.391546
21
75.067628
0
LINE
8
0
10
1453.391546
20
75.067628
11
1438.958945
21
69.235532
0
LINE
8
0
10
1438.958945
20
69.235532
11
1431.022214
21
67.411976
0
LINE
8
0
10
1431.022214
20
67.411976
11
1426.969049
21
66.865062
0
LINE
8
0
10
1426.969049
20
66.865062
11
1416.529393
21
66.254518
0
LINE
8
0
10
1416.529393
20
66.254518
11
1404.921329
21
66.283501
0
LINE
8
0
10
1404.921329
20
66.283501
11
1394.476089
21
66.946191
0
LINE
8
0
10
1394.476089
20
66.946191
11
1390.418038
21
67.513357
0
LINE
8
0
10
1860.432294
20
67.559721
11
1854.295298
21
68.789692
0
LINE
8
0
10
1854.295298
20
68.789692
11
1842.494431
21
72.340463
0
LINE
8
0
10
1842.494431
20
72.340463
11
1831.394176
21
77.289938
0
LINE
8
0
10
1831.394176
20
77.289938
11
1821.078268
21
83.571234
0
LINE
8
0
10
1821.078268
20
83.571234
11
1811.630443
21
91.117469
0
LINE
8
0
10
1811.630443
20
91.117469
11
1803.134438
21
99.861762
0
LINE
8
0
10
1803.134438
20
99.861762
11
1795.673987
21
109.737231
0
LINE
8
0
10
1795.673987
20
109.737231
11
1789.332826
21
120.676993
0
LINE
8
0
10
1789.332826
20
120.676993
11
1786.608146
21
126.525083
0
LINE
8
0
10
1786.608146
20
126.525083
11
1784.318023
21
132.400865
0
LINE
8
0
10
1784.318023
20
132.400865
11
1780.690586
21
145.141727
0
LINE
8
0
10
1780.690586
20
145.141727
11
1778.330134
21
158.890092
0
LINE
8
0
10
1778.330134
20
158.890092
11
1777.232551
21
173.272086
0
LINE
8
0
10
1777.232551
20
173.272086
11
1777.393722
21
187.913835
0
LINE
8
0
10
1777.393722
20
187.913835
11
1778.809532
21
202.441464
0
LINE
8
0
10
1778.809532
20
202.441464
11
1781.475864
21
216.481099
0
LINE
8
0
10
1781.475864
20
216.481099
11
1785.388604
21
229.658865
0
LINE
8
0
10
1785.388604
20
229.658865
11
1787.811091
21
235.807712
0
LINE
8
0
10
1787.811091
20
235.807712
11
1790.305614
21
241.255006
0
LINE
8
0
10
1790.305614
20
241.255006
11
1795.837026
21
251.365985
0
LINE
8
0
10
1795.837026
20
251.365985
11
1802.105464
21
260.444716
0
LINE
8
0
10
1802.105464
20
260.444716
11
1809.127572
21
268.506279
0
LINE
8
0
10
1809.127572
20
268.506279
11
1816.919995
21
275.565752
0
LINE
8
0
10
1816.919995
20
275.565752
11
1825.499376
21
281.638214
0
LINE
8
0
10
1825.499376
20
281.638214
11
1834.882360
21
286.738743
0
LINE
8
0
10
1834.882360
20
286.738743
11
1845.085591
21
290.882418
0
LINE
8
0
10
1845.085591
20
290.882418
11
1850.500000
21
292.600147
0
LINE
8
0
10
1850.500000
20
292.600147
11
1856.546484
21
294.226187
0
LINE
8
0
10
1856.546484
20
294.226187
11
1865.240250
21
295.315554
0
LINE
8
0
10
1865.240250
20
295.315554
11
1871.708328
21
295.470640
0
LINE
8
0
10
1871.708328
20
295.470640
11
1877.523791
21
295.497979
0
LINE
8
0
10
1877.523791
20
295.497979
11
1881.000000
21
295.500000
0
LINE
8
0
10
1881.000000
20
295.500000
11
1884.476209
21
295.497979
0
LINE
8
0
10
1884.476209
20
295.497979
11
1890.291672
21
295.470640
0
LINE
8
0
10
1890.291672
20
295.470640
11
1896.759750
21
295.315554
0
LINE
8
0
10
1896.759750
20
295.315554
11
1905.453516
21
294.226187
0
LINE
8
0
10
1905.453516
20
294.226187
11
1911.500000
21
292.600147
0
LINE
8
0
10
1911.500000
20
292.600147
11
1917.285134
21
290.776113
0
LINE
8
0
10
1917.285134
20
290.776113
11
1927.710853
21
286.542696
0
LINE
8
0
10
1927.710853
20
286.542696
11
1936.924758
21
281.351776
0
LINE
8
0
10
1936.924758
20
281.351776
11
1945.303948
21
274.990901
0
LINE
8
0
10
1945.303948
20
274.990901
11
1949.298368
21
271.305341
0
LINE
8
0
10
1949.298368
20
271.305341
11
1953.105413
21
267.379431
0
LINE
8
0
10
1953.105413
20
267.379431
11
1959.720176
21
259.210433
0
LINE
8
0
10
1959.720176
20
259.210433
11
1965.298455
21
250.137148
0
LINE
8
0
10
1965.298455
20
250.137148
11
1970.195394
21
239.581924
0
LINE
8
0
10
1970.195394
20
239.581924
11
1972.499343
21
233.568067
0
LINE
8
0
10
1972.499343
20
233.568067
11
1974.045567
21
228.929308
0
LINE
8
0
10
1974.045567
20
228.929308
11
1976.529344
21
219.019047
0
LINE
8
0
10
1976.529344
20
219.019047
11
1978.274918
21
207.793358
0
LINE
8
0
10
1978.274918
20
207.793358
11
1979.370320
21
194.686116
0
LINE
8
0
10
1979.370320
20
194.686116
11
1979.701717
21
187.250000
0
LINE
8
0
10
1979.701717
20
187.250000
11
1980.289915
21
170.000000
0
LINE
8
0
10
1980.289915
20
170.000000
11
1901.501344
21
170.000000
0
LINE
8
0
10
1901.501344
20
170.000000
11
1822.712774
21
170.000000
0
LINE
8
0
10
1822.712774
20
170.000000
11
1823.239855
21
159.672619
0
LINE
8
0
10
1823.239855
20
159.672619
11
1823.720098
21
154.136178
0
LINE
8
0
10
1823.720098
20
154.136178
11
1825.799576
21
143.555671
0
LINE
8
0
10
1825.799576
20
143.555671
11
1829.271140
21
133.762897
0
LINE
8
0
10
1829.271140
20
133.762897
11
1834.014902
21
124.915334
0
LINE
8
0
10
1834.014902
20
124.915334
11
1839.910976
21
117.170462
0
LINE
8
0
10
1839.910976
20
117.170462
11
1846.839475
21
110.685760
0
LINE
8
0
10
1846.839475
20
110.685760
11
1854.680512
21
105.618707
0
LINE
8
0
10
1854.680512
20
105.618707
11
1863.314199
21
102.126782
0
LINE
8
0
10
1863.314199
20
102.126782
11
1867.890823
21
101.020705
0
LINE
8
0
10
1867.890823
20
101.020705
11
1870.932355
21
100.582537
0
LINE
8
0
10
1870.932355
20
100.582537
11
1878.734946
21
100.091897
0
LINE
8
0
10
1878.734946
20
100.091897
11
1887.440257
21
100.112265
0
LINE
8
0
10
1887.440257
20
100.112265
11
1895.380313
21
100.639739
0
LINE
8
0
10
1895.380313
20
100.639739
11
1898.542126
21
101.092420
0
LINE
8
0
10
1898.542126
20
101.092420
11
1904.490901
21
102.658115
0
LINE
8
0
10
1904.490901
20
102.658115
11
1916.875829
21
108.236626
0
LINE
8
0
10
1916.875829
20
108.236626
11
1922.209943
21
111.753054
0
LINE
8
0
10
1922.209943
20
111.753054
11
1924.236704
21
113.502732
0
LINE
8
0
10
1924.236704
20
113.502732
11
1928.417033
21
118.169459
0
LINE
8
0
10
1928.417033
20
118.169459
11
1932.215877
21
123.604928
0
LINE
8
0
10
1932.215877
20
123.604928
11
1934.972564
21
128.863832
0
LINE
8
0
10
1934.972564
20
128.863832
11
1935.753639
21
131.131665
0
LINE
8
0
10
1935.753639
20
131.131665
11
1936.625789
21
134.500000
0
LINE
8
0
10
1936.625789
20
134.500000
11
1957.312894
21
134.770288
0
LINE
8
0
10
1957.312894
20
134.770288
11
1961.418525
21
134.829642
0
LINE
8
0
10
1961.418525
20
134.829642
11
1968.010750
21
134.914662
0
LINE
8
0
10
1968.010750
20
134.914662
11
1972.679827
21
134.853836
0
LINE
8
0
10
1972.679827
20
134.853836
11
1975.708442
21
134.526051
0
LINE
8
0
10
1975.708442
20
134.526051
11
1977.379278
21
133.810190
0
LINE
8
0
10
1977.379278
20
133.810190
11
1977.975019
21
132.585141
0
LINE
8
0
10
1977.975019
20
132.585141
11
1977.471201
21
129.527898
0
LINE
8
0
10
1977.471201
20
129.527898
11
1976.615950
21
126.500000
0
LINE
8
0
10
1976.615950
20
126.500000
11
1975.703245
21
123.614933
0
LINE
8
0
10
1975.703245
20
123.614933
11
1972.961917
21
116.980366
0
LINE
8
0
10
1972.961917
20
116.980366
11
1969.409983
21
110.000161
0
LINE
8
0
10
1969.409983
20
110.000161
11
1965.540185
21
103.642646
0
LINE
8
0
10
1965.540185
20
103.642646
11
1963.640069
21
101.000000
0
LINE
8
0
10
1963.640069
20
101.000000
11
1958.387580
21
94.989000
0
LINE
8
0
10
1958.387580
20
94.989000
11
1945.382466
21
84.141865
0
LINE
8
0
10
1945.382466
20
84.141865
11
1929.952884
21
75.377571
0
LINE
8
0
10
1929.952884
20
75.377571
11
1913.189690
21
69.315745
0
LINE
8
0
10
1913.189690
20
69.315745
11
1904.648880
21
67.491890
0
LINE
8
0
10
1904.648880
20
67.491890
11
1899.986754
21
66.897771
0
LINE
8
0
10
1899.986754
20
66.897771
11
1888.640754
21
66.228009
0
LINE
8
0
10
1888.640754
20
66.228009
11
1876.306241
21
66.246931
0
LINE
8
0
10
1876.306241
20
66.246931
11
1865.031802
21
66.951394
0
LINE
8
0
10
1865.031802
20
66.951394
11
1860.432294
21
67.559721
0
LINE
8
0
10
33.000000
20
181.000000
11
33.000000
21
292.000000
0
LINE
8
0
10
33.000000
20
292.000000
11
54.975229
21
292.000000
0
LINE
8
0
10
54.975229
20
292.000000
11
76.950457
21
292.000000
0
LINE
8
0
10
76.950457
20
292.000000
11
77.225229
21
275.885151
0
LINE
8
0
10
77.225229
20
275.885151
11
77.500000
21
259.770301
0
LINE
8
0
10
77.500000
20
259.770301
11
80.639374
21
264.135151
0
LINE
8
0
10
80.639374
20
264.135151
11
84.545278
21
269.115631
0
LINE
8
0
10
84.545278
20
269.115631
11
93.369772
21
277.753455
0
LINE
8
0
10
93.369772
20
277.753455
11
103.639036
21
284.690954
0
LINE
8
0
10
103.639036
20
284.690954
11
115.466498
21
290.004755
0
LINE
8
0
10
115.466498
20
290.004755
11
122.000000
21
292.076714
0
LINE
8
0
10
122.000000
20
292.076714
11
126.924459
21
293.295527
0
LINE
8
0
10
126.924459
20
293.295527
11
134.373802
21
294.227510
0
LINE
8
0
10
134.373802
20
294.227510
11
141.132612
21
294.427960
0
LINE
8
0
10
141.132612
20
294.427960
11
145.500000
21
294.447339
0
LINE
8
0
10
145.500000
20
294.447339
11
151.632632
21
294.353613
0
LINE
8
0
10
151.632632
20
294.353613
11
162.108232
21
293.489514
0
LINE
8
0
10
162.108232
20
293.489514
11
171.360824
21
291.469232
0
LINE
8
0
10
171.360824
20
291.469232
11
180.786261
21
287.987988
0
LINE
8
0
10
180.786261
20
287.987988
11
186.000000
21
285.604260
0
LINE
8
0
10
186.000000
20
285.604260
11
190.541095
21
283.244028
0
LINE
8
0
10
190.541095
20
283.244028
11
196.318260
21
279.262095
0
LINE
8
0
10
196.318260
20
279.262095
11
200.355670
21
275.673262
0
LINE
8
0
10
200.355670
20
275.673262
11
202.655323
21
273.434057
0
LINE
8
0
10
202.655323
20
273.434057
11
206.006043
21
269.902183
0
LINE
8
0
10
206.006043
20
269.902183
11
211.715292
21
262.554971
0
LINE
8
0
10
211.715292
20
262.554971
11
216.247497
21
254.572887
0
LINE
8
0
10
216.247497
20
254.572887
11
219.777711
21
245.647627
0
LINE
8
0
10
219.777711
20
245.647627
11
221.221777
21
240.734961
0
LINE
8
0
10
221.221777
20
240.734961
11
221.932502
21
237.840814
0
LINE
8
0
10
221.932502
20
237.840814
11
222.690664
21
232.469512
0
LINE
8
0
10
222.690664
20
232.469512
11
223.031666
21
226.754502
0
LINE
8
0
10
223.031666
20
226.754502
11
223.273792
21
218.174241
0
LINE
8
0
10
223.273792
20
218.174241
11
223.407348
21
209.261663
0
LINE
8
0
10
223.407348
20
209.261663
11
223.480074
21
201.907617
0
LINE
8
0
10
223.480074
20
201.907617
11
223.543835
21
193.278966
0
LINE
8
0
10
223.543835
20
193.278966
11
223.602133
21
183.251648
0
LINE
8
0
10
223.602133
20
183.251648
11
223.658469
21
171.701595
0
LINE
8
0
10
223.658469
20
171.701595
11
223.716343
21
158.504745
0
LINE
8
0
10
223.716343
20
158.504745
11
223.746951
21
151.250000
0
LINE
8
0
10
223.746951
20
151.250000
11
224.087793
21
70.000000
0
LINE
8
0
10
224.087793
20
70.000000
11
201.584929
21
70.000000
0
LINE
8
0
10
201.584929
20
70.000000
11
179.082066
21
70.000000
0
LINE
8
0
10
179.082066
20
70.000000
11
178.767022
21
146.250000
0
LINE
8
0
10
178.767022
20
146.250000
11
178.739946
21
152.701325
0
LINE
8
0
10
178.739946
20
152.701325
11
178.687006
21
164.508350
0
LINE
8
0
10
178.687006
20
164.508350
11
178.633620
21
174.933032
0
LINE
8
0
10
178.633620
20
174.933032
11
178.577307
21
184.069562
0
LINE
8
0
10
178.577307
20
184.069562
11
178.515590
21
192.012129
0
LINE
8
0
10
178.515590
20
192.012129
11
178.445989
21
198.854922
0
LINE
8
0
10
178.445989
20
198.854922
11
178.321385
21
207.263076
0
LINE
8
0
10
178.321385
20
207.263076
11
178.104520
21
215.503843
0
LINE
8
0
10
178.104520
20
215.503843
11
177.811505
21
221.040930
0
LINE
8
0
10
177.811505
20
221.040930
11
177.185823
21
225.925478
0
LINE
8
0
10
177.185823
20
225.925478
11
176.615678
21
228.000000
0
LINE
8
0
10
176.615678
20
228.000000
11
174.884089
21
232.653507
0
LINE
8
0
10
174.884089
20
232.653507
11
170.766804
21
240.439552
0
LINE
8
0
10
170.766804
20
240.439552
11
165.435903
21
246.591719
0
LINE
8
0
10
165.435903
20
246.591719
11
158.481620
21
251.582902
0
LINE
8
0
10
158.481620
20
251.582902
11
154.267658
21
253.790905
0
LINE
8
0
10
154.267658
20
253.790905
11
146.500000
21
257.500000
0
LINE
8
0
10
146.500000
20
257.500000
11
131.500000
21
257.453283
0
LINE
8
0
10
131.500000
20
257.453283
11
125.976309
21
257.397964
0
LINE
8
0
10
125.976309
20
257.397964
11
117.569315
21
256.940698
0
LINE
8
0
10
117.569315
20
256.940698
11
111.167818
21
255.736196
0
LINE
8
0
10
111.167818
20
255.736196
11
104.953796
21
253.442382
0
LINE
8
0
10
104.953796
20
253.442382
11
101.348957
21
251.780084
0
LINE
8
0
10
101.348957
20
251.780084
11
98.061598
21
250.065684
0
LINE
8
0
10
98.061598
20
250.065684
11
92.208305
21
246.116692
0
LINE
8
0
10
92.208305
20
246.116692
11
87.316511
21
241.473729
0
LINE
8
0
10
87.316511
20
241.473729
11
83.385733
21
236.136338
0
LINE
8
0
10
83.385733
20
236.136338
11
81.780574
21
233.207088
0
LINE
8
0
10
81.780574
20
233.207088
11
78.500000
21
226.544538
0
LINE
8
0
10
78.500000
20
226.544538
11
78.215300
21
148.272269
0
LINE
8
0
10
78.215300
20
148.272269
11
77.930600
21
70.000000
0
LINE
8
0
10
77.930600
20
70.000000
11
55.465300
21
70.000000
0
LINE
8
0
10
55.465300
20
70.000000
11
33.000000
21
70.000000
0
LINE
8
0
10
33.000000
20
70.000000
11
33.000000
21
181.000000
0
LINE
8
0
10
968.454282
20
67.448420
11
964.370840
21
68.207504
0
LINE
8
0
10
964.370840
20
68.207504
11
955.342045
21
70.529149
0
LINE
8
0
10
955.342045
20
70.529149
11
946.124204
21
73.602014
0
LINE
8
0
10
946.124204
20
73.602014
11
937.869520
21
77.042000
0
LINE
8
0
10
937.869520
20
77.042000
11
934.463425
21
78.779632
0
LINE
8
0
10
934.463425
20
78.779632
11
931.881890
21
80.347219
0
LINE
8
0
10
931.881890
20
80.347219
11
925.915305
21
84.620821
0
LINE
8
0
10
925.915305
20
84.620821
11
919.747482
21
89.696308
0
LINE
8
0
10
919.747482
20
89.696308
11
914.422553
21
94.714467
0
LINE
8
0
10
914.422553
20
94.714467
11
912.402467
21
96.933542
0
LINE
8
0
10
912.402467
20
96.933542
11
910.669392
21
99.182091
0
LINE
8
0
10
910.669392
20
99.182091
11
907.178052
21
104.761790
0
LINE
8
0
10
907.178052
20
104.761790
11
902.380339
21
114.837107
0
LINE
8
0
10
902.380339
20
114.837107
11
899.865383
21
121.912814
0
LINE
8
0
10
899.865383
20
121.912814
11
899.073992
21
124.450438
0
LINE
8
0
10
899.073992
20
124.450438
11
897.808743
21
128.511363
0
LINE
8
0
10
897.808743
20
128.511363
11
897.188336
21
131.384328
0
LINE
8
0
10
897.188336
20
131.384328
11
897.478532
21
133.266701
0
LINE
8
0
10
897.478532
20
133.266701
11
898.945087
21
134.355848
0
LINE
8
0
10
898.945087
20
134.355848
11
901.853761
21
134.849137
0
LINE
8
0
10
901.853761
20
134.849137
11
906.470313
21
134.943936
0
LINE
8
0
10
906.470313
20
134.943936
11
913.060501
21
134.837611
0
LINE
8
0
10
913.060501
20
134.837611
11
917.178758
21
134.770705
0
LINE
8
0
10
917.178758
20
134.770705
11
937.357516
21
134.500000
0
LINE
8
0
10
937.357516
20
134.500000
11
938.028112
21
132.000000
0
LINE
8
0
10
938.028112
20
132.000000
11
939.740437
21
127.274269
0
LINE
8
0
10
939.740437
20
127.274269
11
945.400114
21
117.552898
0
LINE
8
0
10
945.400114
20
117.552898
11
948.722436
21
113.630846
0
LINE
8
0
10
948.722436
20
113.630846
11
953.041881
21
109.789702
0
LINE
8
0
10
953.041881
20
109.789702
11
962.980707
21
103.737579
0
LINE
8
0
10
962.980707
20
103.737579
11
974.594106
21
99.878510
0
LINE
8
0
10
974.594106
20
99.878510
11
987.811664
21
98.235890
0
LINE
8
0
10
987.811664
20
98.235890
11
995.000000
21
98.253060
0
LINE
8
0
10
995.000000
20
98.253060
11
1002.769820
21
98.816438
0
LINE
8
0
10
1002.769820
20
98.816438
11
1015.882801
21
101.367526
0
LINE
8
0
10
1015.882801
20
101.367526
11
1025.901702
21
105.881459
0
LINE
8
0
10
1025.901702
20
105.881459
11
1032.996281
21
112.434720
0
LINE
8
0
10
1032.996281
20
112.434720
11
1035.500000
21
116.500000
0
LINE
8
0
10
1035.500000
20
116.500000
11
1037.041637
21
119.862163
0
LINE
8
0
10
1037.041637
20
119.862163
11
1038.376949
21
125.921959
0
LINE
8
0
10
1038.376949
20
125.921959
11
1038.474805
21
130.000000
0
LINE
8
0
10
1038.474805
20
130.000000
11
1038.320201
21
133.419448
0
LINE
8
0
10
1038.320201
20
133.419448
11
1037.131304
21
139.469806
0
LINE
8
0
10
1037.131304
20
139.469806
11
1034.716585
21
144.580754
0
LINE
8
0
10
1034.716585
20
144.580754
11
1031.012563
21
148.886657
0
LINE
8
0
10
1031.012563
20
148.886657
11
1028.657224
21
150.779706
0
LINE
8
0
10
1028.657224
20
150.779706
11
1026.271831
21
152.418122
0
LINE
8
0
10
1026.271831
20
152.418122
11
1022.422174
21
154.469284
0
LINE
8
0
10
1022.422174
20
154.469284
11
1018.949729
21
155.786245
0
LINE
8
0
10
1018.949729
20
155.786245
11
1014.172508
21
157.239216
0
LINE
8
0
10
1014.172508
20
157.239216
11
1007.593395
21
158.979394
0
LINE
8
0
10
1007.593395
20
158.979394
11
998.715272
21
161.157976
0
LINE
8
0
10
998.715272
20
161.157976
11
987.041022
21
163.926156
0
LINE
8
0
10
987.041022
20
163.926156
11
980.000000
21
165.578595
0
LINE
8
0
10
980.000000
20
165.578595
11
973.607685
21
167.116890
0
LINE
8
0
10
973.607685
20
167.116890
11
962.092974
21
170.151940
0
LINE
8
0
10
962.092974
20
170.151940
11
952.121672
21
173.198392
0
LINE
8
0
10
952.121672
20
173.198392
11
943.514001
21
176.336398
0
LINE
8
0
10
943.514001
20
176.336398
11
932.766041
21
181.390393
0
LINE
8
0
10
932.766041
20
181.390393
11
921.530212
21
189.197543
0
LINE
8
0
10
921.530212
20
189.197543
11
916.834134
21
193.739379
0
LINE
8
0
10
916.834134
20
193.739379
11
912.877619
21
198.660072
0
LINE
8
0
10
912.877619
20
198.660072
11
907.120249
21
210.133070
0
LINE
8
0
10
907.120249
20
210.133070
11
904.340763
21
223.290781
0
LINE
8
0
10
904.340763
20
223.290781
11
904.663568
21
237.544285
0
LINE
8
0
10
904.663568
20
237.544285
11
906.027206
21
244.897922
0
LINE
8
0
10
906.027206
20
244.897922
11
907.224394
21
249.250485
0
LINE
8
0
10
907.224394
20
249.250485
11
910.409401
21
257.396534
0
LINE
8
0
10
910.409401
20
257.396534
11
914.654437
21
264.802594
0
LINE
8
0
10
914.654437
20
264.802594
11
919.966524
21
271.475205
0
LINE
8
0
10
919.966524
20
271.475205
11
926.352685
21
277.420906
0
LINE
8
0
10
926.352685
20
277.420906
11
933.819943
21
282.646235
0
LINE
8
0
10
933.819943
20
282.646235
11
942.375322
21
287.157730
0
LINE
8
0
10
942.375322
20
287.157730
11
952.025845
21
290.961931
0
LINE
8
0
10
952.025845
20
290.961931
11
957.263980
21
292.600839
0
LINE
8
0
10
957.263980
20
292.600839
11
962.777020
21
294.029181
0
LINE
8
0
10
962.777020
20
294.029181
11
971.471038
21
295.187022
0
LINE
8
0
10
971.471038
20
295.187022
11
977.631695
21
295.500449
0
LINE
8
0
10
977.631695
20
295.500449
11
982.919042
21
295.666730
0
LINE
8
0
10
982.919042
20
295.666730
11
986.000000
21
295.746177
0
LINE
8
0
10
986.000000
20
295.746177
11
990.726340
21
295.840841
0
LINE
8
0
10
990.726340
20
295.840841
11
998.926242
21
295.868262
0
LINE
8
0
10
998.926242
20
295.868262
11
1005.510329
21
295.678234
0
LINE
8
0
10
1005.510329
20
295.678234
11
1010.544060
21
295.268869
0
LINE
8
0
10
1010.544060
20
295.268869
11
1012.500000
21
294.981344
0
LINE
8
0
10
1012.500000
20
294.981344
11
1020.596108
21
293.259513
0
LINE
8
0
10
1020.596108
20
293.259513
11
1035.469539
21
288.413475
0
LINE
8
0
10
1035.469539
20
288.413475
11
1048.205669
21
281.891639
0
LINE
8
0
10
1048.205669
20
281.891639
11
1058.349794
21
273.926845
0
LINE
8
0
10
1058.349794
20
273.926845
11
1062.307760
21
269.476103
0
LINE
8
0
10
1062.307760
20
269.476103
11
1064.830378
21
265.867974
0
LINE
8
0
10
1064.830378
20
265.867974
11
1069.350065
21
257.438474
0
LINE
8
0
10
1069.350065
20
257.438474
11
1072.799937
21
248.362324
0
LINE
8
0
10
1072.799937
20
248.362324
11
1074.737094
21
239.804728
0
LINE
8
0
10
1074.737094
20
239.804728
11
1075.000000
21
236.084516
0
LINE
8
0
10
1075.000000
20
236.084516
11
1075.000000
21
231.957720
0
LINE
8
0
10
1075.000000
20
231.957720
11
1055.266260
21
232.228860
0
LINE
8
0
10
1055.266260
20
232.228860
11
1035.532520
21
232.500000
0
LINE
8
0
10
1035.532520
20
232.500000
11
1034.945031
21
236.000000
0
LINE
8
0
10
1034.945031
20
236.000000
11
1034.048076
21
239.384887
0
LINE
8
0
10
1034.048076
20
239.384887
11
1030.436653
21
246.204355
0
LINE
8
0
10
1030.436653
20
246.204355
11
1024.851459
21
252.577108
0
LINE
8
0
10
1024.851459
20
252.577108
11
1017.831986
21
257.887583
0
LINE
8
0
10
1017.831986
20
257.887583
11
1013.952985
21
259.952102
0
LINE
8
0
10
1013.952985
20
259.952102
11
1009.844970
21
261.697517
0
LINE
8
0
10
1009.844970
20
261.697517
11
1004.088734
21
263.085149
0
LINE
8
0
10
1004.088734
20
263.085149
11
998.768119
21
263.542654
0
LINE
8
0
10
998.768119
20
263.542654
11
995.211936
21
263.721837
0
LINE
8
0
10
995.211936
20
263.721837
11
989.820681
21
263.875785
0
LINE
8
0
10
989.820681
20
263.875785
11
980.417135
21
263.545937
0
LINE
8
0
10
980.417135
20
263.545937
11
972.457302
21
262.304156
0
LINE
8
0
10
972.457302
20
262.304156
11
965.467299
21
260.076515
0
LINE
8
0
10
965.467299
20
260.076515
11
962.187894
21
258.569894
0
LINE
8
0
10
962.187894
20
258.569894
11
957.904270
21
256.104022
0
LINE
8
0
10
957.904270
20
256.104022
11
951.193454
21
250.352803
0
LINE
8
0
10
951.193454
20
250.352803
11
946.949433
21
243.495297
0
LINE
8
0
10
946.949433
20
243.495297
11
945.162068
21
235.515124
0
LINE
8
0
10
945.162068
20
235.515124
11
945.186464
21
231.098917
0
LINE
8
0
10
945.186464
20
231.098917
11
945.506490
21
228.305631
0
LINE
8
0
10
945.506490
20
228.305631
11
946.830637
21
223.392123
0
LINE
8
0
10
946.830637
20
223.392123
11
949.130545
21
219.261756
0
LINE
8
0
10
949.130545
20
219.261756
11
952.482574
21
215.777398
0
LINE
8
0
10
952.482574
20
215.777398
11
954.576996
21
214.234617
0
LINE
8
0
10
954.576996
20
214.234617
11
957.295404
21
212.539880
0
LINE
8
0
10
957.295404
20
212.539880
11
963.529389
21
209.569510
0
LINE
8
0
10
963.529389
20
209.569510
11
970.076528
21
207.320406
0
LINE
8
0
10
970.076528
20
207.320406
11
975.891658
21
205.626068
0
LINE
8
0
10
975.891658
20
205.626068
11
983.214975
21
203.660805
0
LINE
8
0
10
983.214975
20
203.660805
11
992.344668
21
201.326068
0
LINE
8
0
10
992.344668
20
201.326068
11
997.680091
21
199.989350
0
LINE
8
0
10
997.680091
20
199.989350
11
1005.156231
21
198.109342
0
LINE
8
0
10
1005.156231
20
198.109342
11
1017.938890
21
194.770879
0
LINE
8
0
10
1017.938890
20
194.770879
11
1028.213073
21
191.839760
0
LINE
8
0
10
1028.213073
20
191.839760
11
1036.440000
21
189.130306
0
LINE
8
0
10
1036.440000
20
189.130306
11
1045.950709
21
185.075582
0
LINE
8
0
10
1045.950709
20
185.075582
11
1055.770990
21
178.712135
0
LINE
8
0
10
1055.770990
20
178.712135
11
1060.492880
21
174.702432
0
LINE
8
0
10
1060.492880
20
174.702432
11
1063.300276
21
171.993905
0
LINE
8
0
10
1063.300276
20
171.993905
11
1068.248539
21
166.033498
0
LINE
8
0
10
1068.248539
20
166.033498
11
1072.285085
21
159.430627
0
LINE
8
0
10
1072.285085
20
159.430627
11
1075.382302
21
152.283706
0
LINE
8
0
10
1075.382302
20
152.283706
11
1077.512578
21
144.691146
0
LINE
8
0
10
1077.512578
20
144.691146
11
1078.648302
21
136.751358
0
LINE
8
0
10
1078.648302
20
136.751358
11
1078.761862
21
128.562754
0
LINE
8
0
10
1078.761862
20
128.562754
11
1077.825646
21
120.223746
0
LINE
8
0
10
1077.825646
20
120.223746
11
1076.955243
21
116.028595
0
LINE
8
0
10
1076.955243
20
116.028595
11
1075.893523
21
112.250744
0
LINE
8
0
10
1075.893523
20
112.250744
11
1072.966606
21
104.438065
0
LINE
8
0
10
1072.966606
20
104.438065
11
1071.461909
21
101.365502
0
LINE
8
0
10
1071.461909
20
101.365502
11
1069.504276
21
98.159652
0
LINE
8
0
10
1069.504276
20
98.159652
11
1064.813315
21
92.085441
0
LINE
8
0
10
1064.813315
20
92.085441
11
1056.022834
21
83.930107
0
LINE
8
0
10
1056.022834
20
83.930107
11
1041.546553
21
75.155165
0
LINE
8
0
10
1041.546553
20
75.155165
11
1024.645315
21
69.217962
0
LINE
8
0
10
1024.645315
20
69.217962
11
1015.532274
21
67.463195
0
LINE
8
0
10
1015.532274
20
67.463195
11
1010.482872
21
66.897431
0
LINE
8
0
10
1010.482872
20
66.897431
11
998.221934
21
66.248806
0
LINE
8
0
10
998.221934
20
66.248806
11
985.006314
21
66.244658
0
LINE
8
0
10
985.006314
20
66.244658
11
973.149807
21
66.885714
0
LINE
8
0
10
973.149807
20
66.885714
11
968.454282
21
67.448420
0
LINE
8
0
10
1642.715599
20
67.513615
11
1637.655253
21
68.525729
0
LINE
8
0
10
1637.655253
20
68.525729
11
1627.509478
21
71.498988
0
LINE
8
0
10
1627.509478
20
71.498988
11
1617.544727
21
75.648314
0
LINE
8
0
10
1617.544727
20
75.648314
11
1608.018362
21
80.866543
0
LINE
8
0
10
1608.018362
20
80.866543
11
1603.500000
21
83.843006
0
LINE
8
0
10
1603.500000
20
83.843006
11
1598.029351
21
88.065209
0
LINE
8
0
10
1598.029351
20
88.065209
11
1587.893044
21
98.233978
0
LINE
8
0
10
1587.893044
20
98.233978
11
1579.111962
21
110.314086
0
LINE
8
0
10
1579.111962
20
110.314086
11
1572.024386
21
123.840157
0
LINE
8
0
10
1572.024386
20
123.840157
11
1569.221376
21
131.000000
0
LINE
8
0
10
1569.221376
20
131.000000
11
1567.440831
21
136.436548
0
LINE
8
0
10
1567.440831
20
136.436548
11
1564.811421
21
146.983761
0
LINE
8
0
10
1564.811421
20
146.983761
11
1563.256724
21
158.317776
0
LINE
8
0
10
1563.256724
20
158.317776
11
1562.575704
21
171.904169
0
LINE
8
0
10
1562.575704
20
171.904169
11
1562.500000
21
180.000000
0
LINE
8
0
10
1562.500000
20
180.000000
11
1562.576106
21
188.110322
0
LINE
8
0
10
1562.576106
20
188.110322
11
1563.260151
21
201.718442
0
LINE
8
0
10
1563.260151
20
201.718442
11
1564.820410
21
213.057622
0
LINE
8
0
10
1564.820410
20
213.057622
11
1567.457407
21
223.585175
0
LINE
8
0
10
1567.457407
20
223.585175
11
1569.242347
21
229.000000
0
LINE
8
0
10
1569.242347
20
229.000000
11
1571.549425
21
235.090794
0
LINE
8
0
10
1571.549425
20
235.090794
11
1576.861387
21
246.415190
0
LINE
8
0
10
1576.861387
20
246.415190
11
1583.109297
21
256.602062
0
LINE
8
0
10
1583.109297
20
256.602062
11
1590.299804
21
265.657887
0
LINE
8
0
10
1590.299804
20
265.657887
11
1598.439556
21
273.589146
0
LINE
8
0
10
1598.439556
20
273.589146
11
1607.535204
21
280.402316
0
LINE
8
0
10
1607.535204
20
280.402316
11
1617.593396
21
286.103878
0
LINE
8
0
10
1617.593396
20
286.103878
11
1628.620782
21
290.700309
0
LINE
8
0
10
1628.620782
20
290.700309
11
1634.500000
21
292.586125
0
LINE
8
0
10
1634.500000
20
292.586125
11
1637.764635
21
293.516440
0
LINE
8
0
10
1637.764635
20
293.516440
11
1643.177576
21
294.738794
0
LINE
8
0
10
1643.177576
20
294.738794
11
1649.216648
21
295.310186
0
LINE
8
0
10
1649.216648
20
295.310186
11
1655.683307
21
295.455961
0
LINE
8
0
10
1655.683307
20
295.455961
11
1661.511685
21
295.474763
0
LINE
8
0
10
1661.511685
20
295.474763
11
1665.000000
21
295.471904
0
LINE
8
0
10
1665.000000
20
295.471904
11
1668.581455
21
295.465903
0
LINE
8
0
10
1668.581455
20
295.465903
11
1674.507833
21
295.435426
0
LINE
8
0
10
1674.507833
20
295.435426
11
1680.953725
21
295.274561
0
LINE
8
0
10
1680.953725
20
295.274561
11
1686.800161
21
294.652033
0
LINE
8
0
10
1686.800161
20
294.652033
11
1692.038984
21
293.293452
0
LINE
8
0
10
1692.038984
20
293.293452
11
1695.294083
21
292.246193
0
LINE
8
0
10
1695.294083
20
292.246193
11
1704.544455
21
288.781997
0
LINE
8
0
10
1704.544455
20
288.781997
11
1720.778371
21
279.905866
0
LINE
8
0
10
1720.778371
20
279.905866
11
1734.085250
21
268.349902
0
LINE
8
0
10
1734.085250
20
268.349902
11
1744.579570
21
254.014688
0
LINE
8
0
10
1744.579570
20
254.014688
11
1748.807795
21
245.773795
0
LINE
8
0
10
1748.807795
20
245.773795
11
1750.545227
21
241.555686
0
LINE
8
0
10
1750.545227
20
241.555686
11
1752.805382
21
233.884487
0
LINE
8
0
10
1752.805382
20
233.884487
11
1754.530910
21
226.245642
0
LINE
8
0
10
1754.530910
20
226.245642
11
1755.574866
21
221.250000
0
LINE
8
0
10
1755.574866
20
221.250000
11
1756.038104
21
219.000000
0
LINE
8
0
10
1756.038104
20
219.000000
11
1736.769052
21
219.002598
0
LINE
8
0
10
1736.769052
20
219.002598
11
1717.500000
21
219.005196
0
LINE
8
0
10
1717.500000
20
219.005196
11
1714.707474
21
226.912300
0
LINE
8
0
10
1714.707474
20
226.912300
11
1712.440216
21
232.397676
0
LINE
8
0
10
1712.440216
20
232.397676
11
1706.407587
21
242.089600
0
LINE
8
0
10
1706.407587
20
242.089600
11
1698.481194
21
249.973258
0
LINE
8
0
10
1698.481194
20
249.973258
11
1688.785507
21
255.924852
0
LINE
8
0
10
1688.785507
20
255.924852
11
1683.313073
21
258.137439
0
LINE
8
0
10
1683.313073
20
258.137439
11
1679.462064
21
259.210230
0
LINE
8
0
10
1679.462064
20
259.210230
11
1670.476477
21
260.445360
0
LINE
8
0
10
1670.476477
20
260.445360
11
1660.792529
21
260.464549
0
LINE
8
0
10
1660.792529
20
260.464549
11
1651.625900
21
259.265387
0
LINE
8
0
10
1651.625900
20
259.265387
11
1647.616480
21
258.208171
0
LINE
8
0
10
1647.616480
20
258.208171
11
1643.253148
21
256.610206
0
LINE
8
0
10
1643.253148
20
256.610206
11
1635.174906
21
252.513491
0
LINE
8
0
10
1635.174906
20
252.513491
11
1627.987626
21
247.252791
0
LINE
8
0
10
1627.987626
20
247.252791
11
1621.722985
21
240.872576
0
LINE
8
0
10
1621.722985
20
240.872576
11
1616.412658
21
233.417318
0
LINE
8
0
10
1616.412658
20
233.417318
11
1612.088323
21
224.931488
0
LINE
8
0
10
1612.088323
20
224.931488
11
1608.781655
21
215.459556
0
LINE
8
0
10
1608.781655
20
215.459556
11
1606.524331
21
205.045995
0
LINE
8
0
10
1606.524331
20
205.045995
11
1605.799072
21
199.500000
0
LINE
8
0
10
1605.799072
20
199.500000
11
1605.572039
21
196.892189
0
LINE
8
0
10
1605.572039
20
196.892189
11
1605.273990
21
190.820910
0
LINE
8
0
10
1605.273990
20
190.820910
11
1605.190264
21
180.352287
0
LINE
8
0
10
1605.190264
20
180.352287
11
1605.682126
21
166.029110
0
LINE
8
0
10
1605.682126
20
166.029110
11
1606.441350
21
156.826998
0
LINE
8
0
10
1606.441350
20
156.826998
11
1607.106672
21
152.203160
0
LINE
8
0
10
1607.106672
20
152.203160
11
1607.481746
21
150.500000
0
LINE
8
0
10
1607.481746
20
150.500000
11
1608.976597
21
145.287836
0
LINE
8
0
10
1608.976597
20
145.287836
11
1612.479917
21
135.686769
0
LINE
8
0
10
1612.479917
20
135.686769
11
1616.662677
21
127.189495
0
LINE
8
0
10
1616.662677
20
127.189495
11
1621.518418
21
119.803344
0
LINE
8
0
10
1621.518418
20
119.803344
11
1627.040682
21
113.535647
0
LINE
8
0
10
1627.040682
20
113.535647
11
1633.223008
21
108.393735
0
LINE
8
0
10
1633.223008
20
108.393735
11
1640.058938
21
104.384940
0
LINE
8
0
10
1640.058938
20
104.384940
11
1647.542012
21
101.516592
0
LINE
8
0
10
1647.542012
20
101.516592
11
1651.524210
21
100.512376
0
LINE
8
0
10
1651.524210
20
100.512376
11
1658.399007
21
99.479324
0
LINE
8
0
10
1658.399007
20
99.479324
11
1673.023720
21
99.414952
0
LINE
8
0
10
1673.023720
20
99.414952
11
1679.641906
21
100.388614
0
LINE
8
0
10
1679.641906
20
100.388614
11
1685.740126
21
102.205038
0
LINE
8
0
10
1685.740126
20
102.205038
11
1697.040011
21
108.495611
0
LINE
8
0
10
1697.040011
20
108.495611
11
1706.574699
21
117.775264
0
LINE
8
0
10
1706.574699
20
117.775264
11
1713.660437
21
129.378534
0
LINE
8
0
10
1713.660437
20
129.378534
11
1716.071278
21
135.843569
0
LINE
8
0
10
1716.071278
20
135.843569
11
1717.316575
21
140.000000
0
LINE
8
0
10
1717.316575
20
140.000000
11
1736.158288
21
140.000000
0
LINE
8
0
10
1736.158288
20
140.000000
11
1738.957155
21
139.997022
0
LINE
8
0
10
1738.957155
20
139.997022
11
1743.727071
21
139.970044
0
LINE
8
0
10
1743.727071
20
139.970044
11
1749.019299
21
139.861271
0
LINE
8
0
10
1749.019299
20
139.861271
11
1753.177990
21
139.544624
0
LINE
8
0
10
1753.177990
20
139.544624
11
1754.834337
21
138.970232
0
LINE
8
0
10
1754.834337
20
138.970232
11
1755.000000
21
138.565376
0
LINE
8
0
10
1755.000000
20
138.565376
11
1754.849537
21
136.692646
0
LINE
8
0
10
1754.849537
20
136.692646
11
1753.785922
21
131.226471
0
LINE
8
0
10
1753.785922
20
131.226471
11
1750.984229
21
121.338129
0
LINE
8
0
10
1750.984229
20
121.338129
11
1748.857049
21
115.651957
0
LINE
8
0
10
1748.857049
20
115.651957
11
1746.661261
21
111.051670
0
LINE
8
0
10
1746.661261
20
111.051670
11
1741.419635
21
102.361392
0
LINE
8
0
10
1741.419635
20
102.361392
11
1735.127653
21
94.415401
0
LINE
8
0
10
1735.127653
20
94.415401
11
1727.884962
21
87.290368
0
LINE
8
0
10
1727.884962
20
87.290368
11
1719.791212
21
81.062962
0
LINE
8
0
10
1719.791212
20
81.062962
11
1710.946050
21
75.809854
0
LINE
8
0
10
1710.946050
20
75.809854
11
1701.449126
21
71.607716
0
LINE
8
0
10
1701.449126
20
71.607716
11
1691.400089
21
68.533217
0
LINE
8
0
10
1691.400089
20
68.533217
11
1686.199667
21
67.442792
0
LINE
8
0
10
1686.199667
20
67.442792
11
1684.243527
21
67.142359
0
LINE
8
0
10
1684.243527
20
67.142359
11
1679.511565
21
66.664277
0
LINE
8
0
10
1679.511565
20
66.664277
11
1670.958694
21
66.253141
0
LINE
8
0
10
1670.958694
20
66.253141
11
1658.502955
21
66.273428
0
LINE
8
0
10
1658.502955
20
66.273428
11
1647.169292
21
66.939607
0
LINE
8
0
10
1647.169292
20
66.939607
11
1642.715599
21
67.513615
0
LINE
8
0
10
516.000000
20
181.000000
11
516.000000
21
292.000000
0
LINE
8
0
10
516.000000
20
292.000000
11
537.500000
21
292.000000
0
LINE
8
0
10
537.500000
20
292.000000
11
559.000000
21
292.000000
0
LINE
8
0
10
559.000000
20
292.000000
11
559.000000
21
270.059017
0
LINE
8
0
10
559.000000
20
270.059017
11
559.018423
21
265.583037
0
LINE
8
0
10
559.018423
20
265.583037
11
559.155377
21
257.630188
0
LINE
8
0
10
559.155377
20
257.630188
11
559.402619
21
251.577144
0
LINE
8
0
10
559.402619
20
251.577144
11
559.732326
21
248.105092
0
LINE
8
0
10
559.732326
20
248.105092
11
559.919409
21
247.549808
0
LINE
8
0
10
559.919409
20
247.549808
11
560.373301
21
247.625802
0
LINE
8
0
10
560.373301
20
247.625802
11
561.517510
21
249.325997
0
LINE
8
0
10
561.517510
20
249.325997
11
562.066897
21
250.740791
0
LINE
8
0
10
562.066897
20
250.740791
11
563.333871
21
254.061222
0
LINE
8
0
10
563.333871
20
254.061222
11
567.049680
21
261.304775
0
LINE
8
0
10
567.049680
20
261.304775
11
571.862364
21
268.623582
0
LINE
8
0
10
571.862364
20
268.623582
11
577.197201
21
275.143640
0
LINE
8
0
10
577.197201
20
275.143640
11
579.880824
21
277.831012
0
LINE
8
0
10
579.880824
20
277.831012
11
585.199485
21
282.143561
0
LINE
8
0
10
585.199485
20
282.143561
11
598.031845
21
289.800743
0
LINE
8
0
10
598.031845
20
289.800743
11
604.500000
21
292.521491
0
LINE
8
0
10
604.500000
20
292.521491
11
608.947633
21
293.936935
0
LINE
8
0
10
608.947633
20
293.936935
11
615.389121
21
295.192268
0
LINE
8
0
10
615.389121
20
295.192268
11
620.604777
21
295.632369
0
LINE
8
0
10
620.604777
20
295.632369
11
623.765340
21
295.780124
0
LINE
8
0
10
623.765340
20
295.780124
11
628.414421
21
295.898105
0
LINE
8
0
10
628.414421
20
295.898105
11
634.639802
21
295.853103
0
LINE
8
0
10
634.639802
20
295.853103
11
637.585418
21
295.685507
0
LINE
8
0
10
637.585418
20
295.685507
11
638.515340
21
295.563100
0
LINE
8
0
10
638.515340
20
295.563100
11
642.000000
21
294.909374
0
LINE
8
0
10
642.000000
20
294.909374
11
642.000000
21
272.838110
0
LINE
8
0
10
642.000000
20
272.838110
11
642.000000
21
250.766846
0
LINE
8
0
10
642.000000
20
250.766846
11
639.250000
21
251.370197
0
LINE
8
0
10
639.250000
20
251.370197
11
638.462834
21
251.504734
0
LINE
8
0
10
638.462834
20
251.504734
11
635.743989
21
251.818915
0
LINE
8
0
10
635.743989
20
251.818915
11
629.681248
21
252.325638
0
LINE
8
0
10
629.681248
20
252.325638
11
624.998401
21
252.626950
0
LINE
8
0
10
624.998401
20
252.626950
11
619.975495
21
252.802563
0
LINE
8
0
10
619.975495
20
252.802563
11
610.444695
21
252.471684
0
LINE
8
0
10
610.444695
20
252.471684
11
601.627109
21
251.242194
0
LINE
8
0
10
601.627109
20
251.242194
11
593.554576
21
249.127133
0
LINE
8
0
10
593.554576
20
249.127133
11
586.258936
21
246.139538
0
LINE
8
0
10
586.258936
20
246.139538
11
579.772028
21
242.292449
0
LINE
8
0
10
579.772028
20
242.292449
11
574.125693
21
237.598903
0
LINE
8
0
10
574.125693
20
237.598903
11
569.351768
21
232.071939
0
LINE
8
0
10
569.351768
20
232.071939
11
567.301910
21
229.000000
0
LINE
8
0
10
567.301910
20
229.000000
11
565.581979
21
225.961991
0
LINE
8
0
10
565.581979
20
225.961991
11
563.769338
21
220.491773
0
LINE
8
0
10
563.769338
20
220.491773
11
562.987183
21
214.831240
0
LINE
8
0
10
562.987183
20
214.831240
11
562.477861
21
206.435797
0
LINE
8
0
10
562.477861
20
206.435797
11
562.239758
21
197.764902
0
LINE
8
0
10
562.239758
20
197.764902
11
562.135843
21
190.627890
0
LINE
8
0
10
562.135843
20
190.627890
11
562.067261
21
182.265254
0
LINE
8
0
10
562.067261
20
182.265254
11
562.026707
21
172.556573
0
LINE
8
0
10
562.026707
20
172.556573
11
562.006875
21
161.381425
0
LINE
8
0
10
562.006875
20
161.381425
11
562.000459
21
148.619388
0
LINE
8
0
10
562.000459
20
148.619388
11
562.000000
21
141.605655
0
LINE
8
0
10
562.000000
20
141.605655
11
562.000000
21
70.000000
0
LINE
8
0
10
562.000000
20
70.000000
11
539.000000
21
70.000000
0
LINE
8
0
10
539.000000
20
70.000000
11
516.000000
21
70.000000
0
LINE
8
0
10
516.000000
20
70.000000
11
516.000000
21
181.000000
0
LINE
8
0
10
320.000000
20
118.406320
11
320.157812
21
118.973954
0
LINE
8
0
10
320.157812
20
118.973954
11
321.223437
21
122.220742
0
LINE
8
0
10
321.223437
20
122.220742
11
322.000000
21
124.500000
0
LINE
8
0
10
322.000000
20
124.500000
11
323.139053
21
127.723408
0
LINE
8
0
10
323.139053
20
127.723408
11
323.806529
21
131.400229
0
LINE
8
0
10
323.806529
20
131.400229
11
323.072635
21
133.718917
0
LINE
8
0
10
323.072635
20
133.718917
11
321.007791
21
136.443319
0
LINE
8
0
10
321.007791
20
136.443319
11
317.279557
21
140.012064
0
LINE
8
0
10
317.279557
20
140.012064
11
311.555493
21
144.863782
0
LINE
8
0
10
311.555493
20
144.863782
11
303.503157
21
151.437101
0
LINE
8
0
10
303.503157
20
151.437101
11
298.500000
21
155.506433
0
LINE
8
0
10
298.500000
20
155.506433
11
294.878780
21
158.466259
0
LINE
8
0
10
294.878780
20
158.466259
11
288.408760
21
163.811113
0
LINE
8
0
10
288.408760
20
163.811113
11
283.468056
21
167.969252
0
LINE
8
0
10
283.468056
20
167.969252
11
280.655972
21
170.436295
0
LINE
8
0
10
280.655972
20
170.436295
11
280.235446
21
170.878036
0
LINE
8
0
10
280.235446
20
170.878036
11
280.491511
21
171.327752
0
LINE
8
0
10
280.491511
20
171.327752
11
282.773252
21
172.882709
0
LINE
8
0
10
282.773252
20
172.882709
11
284.517892
21
173.796430
0
LINE
8
0
10
284.517892
20
173.796430
11
286.334733
21
174.787935
0
LINE
8
0
10
286.334733
20
174.787935
11
289.104003
21
176.868125
0
LINE
8
0
10
289.104003
20
176.868125
11
289.715351
21
177.700599
0
LINE
8
0
10
289.715351
20
177.700599
11
289.772585
21
178.327909
0
LINE
8
0
10
289.772585
20
178.327909
11
289.461780
21
181.054979
0
LINE
8
0
10
289.461780
20
181.054979
11
288.113716
21
187.857887
0
LINE
8
0
10
288.113716
20
187.857887
11
286.768131
21
193.447832
0
LINE
8
0
10
286.768131
20
193.447832
11
285.393435
21
198.926389
0
LINE
8
0
10
285.393435
20
198.926389
11
283.911456
21
205.216890
0
LINE
8
0
10
283.911456
20
205.216890
11
283.468862
21
207.439685
0
LINE
8
0
10
283.468862
20
207.439685
11
283.451987
21
207.783427
0
LINE
8
0
10
283.451987
20
207.783427
11
283.727377
21
207.788654
0
LINE
8
0
10
283.727377
20
207.788654
11
285.446704
21
207.507413
0
LINE
8
0
10
285.446704
20
207.507413
11
290.270095
21
206.494745
0
LINE
8
0
10
290.270095
20
206.494745
11
294.455424
21
205.533427
0
LINE
8
0
10
294.455424
20
205.533427
11
297.270301
21
204.872665
0
LINE
8
0
10
297.270301
20
204.872665
11
301.908484
21
203.847808
0
LINE
8
0
10
301.908484
20
203.847808
11
306.766823
21
203.143688
0
LINE
8
0
10
306.766823
20
203.143688
11
310.390557
21
204.016318
0
LINE
8
0
10
310.390557
20
204.016318
11
312.238691
21
207.317071
0
LINE
8
0
10
312.238691
20
207.317071
11
313.003557
21
210.000000
0
LINE
8
0
10
313.003557
20
210.000000
11
313.506490
21
211.808433
0
LINE
8
0
10
313.506490
20
211.808433
11
314.397545
21
214.619123
0
LINE
8
0
10
314.397545
20
214.619123
11
314.675918
21
215.275194
0
LINE
8
0
10
314.675918
20
215.275194
11
315.227432
21
215.159942
0
LINE
8
0
10
315.227432
20
215.159942
11
317.962861
21
212.762285
0
LINE
8
0
10
317.962861
20
212.762285
11
319.809861
21
210.775194
0
LINE
8
0
10
319.809861
20
210.775194
11
323.211772
21
206.973712
0
LINE
8
0
10
323.211772
20
206.973712
11
329.472503
21
200.250827
0
LINE
8
0
10
329.472503
20
200.250827
11
334.521300
21
195.190322
0
LINE
8
0
10
334.521300
20
195.190322
11
337.772791
21
192.378927
0
LINE
8
0
10
337.772791
20
192.378927
11
338.541617
21
192.000000
0
LINE
8
0
10
338.541617
20
192.000000
11
339.782146
21
192.462088
0
LINE
8
0
10
339.782146
20
192.462088
11
341.060639
21
193.573065
0
LINE
8
0
10
341.060639
20
193.573065
11
341.407393
21
194.124239
0
LINE
8
0
10
341.407393
20
194.124239
11
341.728818
21
195.834090
0
LINE
8
0
10
341.728818
20
195.834090
11
341.517782
21
198.878315
0
LINE
8
0
10
341.517782
20
198.878315
11
340.730662
21
203.886153
0
LINE
8
0
10
340.730662
20
203.886153
11
340.107439
21
207.323065
0
LINE
8
0
10
340.107439
20
207.323065
11
339.345839
21
211.423767
0
LINE
8
0
10
339.345839
20
211.423767
11
337.970641
21
218.795899
0
LINE
8
0
10
337.970641
20
218.795899
11
336.786485
21
225.094925
0
LINE
8
0
10
336.786485
20
225.094925
11
335.785819
21
230.359950
0
LINE
8
0
10
335.785819
20
230.359950
11
334.612340
21
236.404284
0
LINE
8
0
10
334.612340
20
236.404284
11
333.619420
21
241.209388
0
LINE
8
0
10
333.619420
20
241.209388
11
333.350988
21
242.305355
0
LINE
8
0
10
333.350988
20
242.305355
11
333.269217
21
242.778800
0
LINE
8
0
10
333.269217
20
242.778800
11
333.693159
21
243.181414
0
LINE
8
0
10
333.693159
20
243.181414
11
335.144710
21
242.792949
0
LINE
8
0
10
335.144710
20
242.792949
11
337.917024
21
241.534948
0
LINE
8
0
10
337.917024
20
241.534948
11
339.890079
21
240.555355
0
LINE
8
0
10
339.890079
20
240.555355
11
342.747655
21
239.174877
0
LINE
8
0
10
342.747655
20
239.174877
11
347.294712
21
237.280540
0
LINE
8
0
10
347.294712
20
237.280540
11
348.424145
21
237.000000
0
LINE
8
0
10
348.424145
20
237.000000
11
349.301203
21
237.243107
0
LINE
8
0
10
349.301203
20
237.243107
11
351.512208
21
239.305089
0
LINE
8
0
10
351.512208
20
239.305089
11
354.508725
21
243.728383
0
LINE
8
0
10
354.508725
20
243.728383
11
358.502347
21
250.825330
0
LINE
8
0
10
358.502347
20
250.825330
11
360.939195
21
255.474031
0
LINE
8
0
10
360.939195
20
255.474031
11
363.363519
21
260.149803
0
LINE
8
0
10
363.363519
20
260.149803
11
366.204619
21
265.544167
0
LINE
8
0
10
366.204619
20
265.544167
11
367.256862
21
267.471847
0
LINE
8
0
10
367.256862
20
267.471847
11
367.450318
21
267.783652
0
LINE
8
0
10
367.450318
20
267.783652
11
367.655691
21
267.589618
0
LINE
8
0
10
367.655691
20
267.589618
11
368.796083
21
265.775547
0
LINE
8
0
10
368.796083
20
265.775547
11
370.715331
21
262.401224
0
LINE
8
0
10
370.715331
20
262.401224
11
373.180631
21
257.875954
0
LINE
8
0
10
373.180631
20
257.875954
11
374.545300
21
255.309621
0
LINE
8
0
10
374.545300
20
255.309621
11
376.003547
21
252.555932
0
LINE
8
0
10
376.003547
20
252.555932
11
378.519698
21
247.877734
0
LINE
8
0
10
378.519698
20
247.877734
11
381.435990
21
242.720677
0
LINE
8
0
10
381.435990
20
242.720677
11
384.123073
21
238.721471
0
LINE
8
0
10
384.123073
20
238.721471
11
385.996203
21
237.178197
0
LINE
8
0
10
385.996203
20
237.178197
11
386.818094
21
237.043926
0
LINE
8
0
10
386.818094
20
237.043926
11
388.011493
21
237.323018
0
LINE
8
0
10
388.011493
20
237.323018
11
392.556311
21
239.115817
0
LINE
8
0
10
392.556311
20
239.115817
11
395.347957
21
240.408710
0
LINE
8
0
10
395.347957
20
240.408710
11
402.195913
21
243.729567
0
LINE
8
0
10
402.195913
20
243.729567
11
401.534212
21
240.614784
0
LINE
8
0
10
401.534212
20
240.614784
11
401.351879
21
239.713552
0
LINE
8
0
10
401.351879
20
239.713552
11
400.750003
21
236.562685
0
LINE
8
0
10
400.750003
20
236.562685
11
399.443813
21
229.487573
0
LINE
8
0
10
399.443813
20
229.487573
11
398.451611
21
224.000000
0
LINE
8
0
10
398.451611
20
224.000000
11
397.407835
21
218.205859
0
LINE
8
0
10
397.407835
20
218.205859
11
395.864393
21
209.720459
0
LINE
8
0
10
395.864393
20
209.720459
11
395.029030
21
205.181689
0
LINE
8
0
10
395.029030
20
205.181689
11
394.715400
21
203.500000
0
LINE
8
0
10
394.715400
20
203.500000
11
394.244033
21
200.829560
0
LINE
8
0
10
394.244033
20
200.829560
11
393.777138
21
196.848907
0
LINE
8
0
10
393.777138
20
196.848907
11
393.969166
21
194.365404
0
LINE
8
0
10
393.969166
20
194.365404
11
394.849483
21
192.999267
0
LINE
8
0
10
394.849483
20
192.999267
11
395.556927
21
192.616529
0
LINE
8
0
10
395.556927
20
192.616529
11
396.500428
21
192.373447
0
LINE
8
0
10
396.500428
20
192.373447
11
398.586982
21
192.932778
0
LINE
8
0
10
398.586982
20
192.932778
11
401.686858
21
195.506521
0
LINE
8
0
10
401.686858
20
195.506521
11
405.216178
21
199.206653
0
LINE
8
0
10
405.216178
20
199.206653
11
408.352753
21
202.690676
0
LINE
8
0
10
408.352753
20
202.690676
11
410.198182
21
204.772766
0
LINE
8
0
10
410.198182
20
204.772766
11
420.417521
21
216.339674
0
LINE
8
0
10
420.417521
20
216.339674
11
422.458761
21
209.919837
0
LINE
8
0
10
422.458761
20
209.919837
11
423.335979
21
207.317501
0
LINE
8
0
10
423.335979
20
207.317501
11
425.293277
21
204.107215
0
LINE
8
0
10
425.293277
20
204.107215
11
428.819359
21
203.234932
0
LINE
8
0
10
428.819359
20
203.234932
11
433.430649
21
203.883187
0
LINE
8
0
10
433.430649
20
203.883187
11
437.806528
21
204.845250
0
LINE
8
0
10
437.806528
20
204.845250
11
440.458003
21
205.467183
0
LINE
8
0
10
440.458003
20
205.467183
11
444.704707
21
206.426611
0
LINE
8
0
10
444.704707
20
206.426611
11
449.644078
21
207.391277
0
LINE
8
0
10
449.644078
20
207.391277
11
451.442640
21
207.617031
0
LINE
8
0
10
451.442640
20
207.617031
11
451.754615
21
207.578718
0
LINE
8
0
10
451.754615
20
207.578718
11
451.795157
21
207.097473
0
LINE
8
0
10
451.795157
20
207.097473
11
451.234130
21
204.029086
0
LINE
8
0
10
451.234130
20
204.029086
11
449.772139
21
197.967017
0
LINE
8
0
10
449.772139
20
197.967017
11
447.355406
21
188.688280
0
LINE
8
0
10
447.355406
20
188.688280
11
445.772207
21
182.772977
0
LINE
8
0
10
445.772207
20
182.772977
11
445.361221
21
181.057504
0
LINE
8
0
10
445.361221
20
181.057504
11
445.244761
21
178.472341
0
LINE
8
0
10
445.244761
20
178.472341
11
446.327004
21
176.558646
0
LINE
8
0
10
446.327004
20
176.558646
11
448.917568
21
174.768927
0
LINE
8
0
10
448.917568
20
174.768927
11
450.875227
21
173.749467
0
LINE
8
0
10
450.875227
20
173.749467
11
455.912944
21
171.239067
0
LINE
8
0
10
455.912944
20
171.239067
11
448.206472
21
164.824076
0
LINE
8
0
10
448.206472
20
164.824076
11
446.367559
21
163.294841
0
LINE
8
0
10
446.367559
20
163.294841
11
441.463187
21
159.223493
0
LINE
8
0
10
441.463187
20
159.223493
11
432.391097
21
151.704201
0
LINE
8
0
10
432.391097
20
151.704201
11
426.250000
21
146.620879
0
LINE
8
0
10
426.250000
20
146.620879
11
423.452120
21
144.302637
0
LINE
8
0
10
423.452120
20
144.302637
11
418.896796
21
140.450205
0
LINE
8
0
10
418.896796
20
140.450205
11
415.607067
21
137.421805
0
LINE
8
0
10
415.607067
20
137.421805
11
413.436950
21
134.951785
0
LINE
8
0
10
413.436950
20
134.951785
11
411.961711
21
131.712613
0
LINE
8
0
10
411.961711
20
131.712613
11
412.550865
21
126.868657
0
LINE
8
0
10
412.550865
20
126.868657
11
413.612469
21
123.623941
0
LINE
8
0
10
413.612469
20
123.623941
11
414.209960
21
121.760371
0
LINE
8
0
10
414.209960
20
121.760371
11
414.875975
21
119.062734
0
LINE
8
0
10
414.875975
20
119.062734
11
414.862469
21
118.560928
0
LINE
8
0
10
414.862469
20
118.560928
11
413.991532
21
118.406036
0
LINE
8
0
10
413.991532
20
118.406036
11
409.668308
21
118.859922
0
LINE
8
0
10
409.668308
20
118.859922
11
399.994215
21
120.831103
0
LINE
8
0
10
399.994215
20
120.831103
11
393.957407
21
122.524155
0
LINE
8
0
10
393.957407
20
122.524155
11
389.739593
21
124.158882
0
LINE
8
0
10
389.739593
20
124.158882
11
382.955369
21
128.468362
0
LINE
8
0
10
382.955369
20
128.468362
11
377.948823
21
134.691847
0
LINE
8
0
10
377.948823
20
134.691847
11
374.210926
21
143.462098
0
LINE
8
0
10
374.210926
20
143.462098
11
372.658647
21
149.000000
0
LINE
8
0
10
372.658647
20
149.000000
11
371.326707
21
155.693805
0
LINE
8
0
10
371.326707
20
155.693805
11
370.388093
21
162.659762
0
LINE
8
0
10
370.388093
20
162.659762
11
370.123186
21
165.164722
0
LINE
8
0
10
370.123186
20
165.164722
11
369.495278
21
169.029648
0
LINE
8
0
10
369.495278
20
169.029648
11
368.747996
21
171.332733
0
LINE
8
0
10
368.747996
20
171.332733
11
367.895040
21
172.031755
0
LINE
8
0
10
367.895040
20
172.031755
11
367.433215
21
171.766549
0
LINE
8
0
10
367.433215
20
171.766549
11
367.260077
21
171.400295
0
LINE
8
0
10
367.260077
20
171.400295
11
366.741819
21
169.453538
0
LINE
8
0
10
366.741819
20
169.453538
11
365.688896
21
164.234315
0
LINE
8
0
10
365.688896
20
164.234315
11
364.923357
21
159.794966
0
LINE
8
0
10
364.923357
20
159.794966
11
363.871303
21
153.715156
0
LINE
8
0
10
363.871303
20
153.715156
11
361.733161
21
144.174916
0
LINE
8
0
10
361.733161
20
144.174916
11
359.263938
21
137.335875
0
LINE
8
0
10
359.263938
20
137.335875
11
356.120795
21
132.248460
0
LINE
8
0
10
356.120795
20
132.248460
11
354.189365
21
130.064872
0
LINE
8
0
10
354.189365
20
130.064872
11
351.792209
21
127.835574
0
LINE
8
0
10
351.792209
20
127.835574
11
346.338732
21
124.269799
0
LINE
8
0
10
346.338732
20
124.269799
11
339.276381
21
121.620621
0
LINE
8
0
10
339.276381
20
121.620621
11
329.729171
21
119.559448
0
LINE
8
0
10
329.729171
20
119.559448
11
323.750000
21
118.646678
0
LINE
8
0
10
323.750000
20
118.646678
11
322.293945
21
118.466547
0
LINE
8
0
10
322.293945
20
118.466547
11
320.295898
21
118.338482
0
LINE
8
0
10
320.295898
20
118.338482
11
320.000000
21
118.406320
0
LINE
8
0
10
778.215685
20
101.117784
11
782.537607
21
102.215830
0
LINE
8
0
10
782.537607
20
102.215830
11
790.440755
21
105.395928
0
LINE
8
0
10
790.440755
20
105.395928
11
797.366067
21
109.902097
0
LINE
8
0
10
797.366067
20
109.902097
11
803.325259
21
115.751211
0
LINE
8
0
10
803.325259
20
115.751211
11
808.330045
21
122.960143
0
LINE
8
0
10
808.330045
20
122.960143
11
812.392140
21
131.545767
0
LINE
8
0
10
812.392140
20
131.545767
11
815.523258
21
141.524958
0
LINE
8
0
10
815.523258
20
141.524958
11
817.735114
21
152.914588
0
LINE
8
0
10
817.735114
20
152.914588
11
818.499979
21
159.143591
0
LINE
8
0
10
818.499979
20
159.143591
11
819.099956
21
165.482851
0
LINE
8
0
10
819.099956
20
165.482851
11
819.793542
21
176.406258
0
LINE
8
0
10
819.793542
20
176.406258
11
819.814758
21
186.289370
0
LINE
8
0
10
819.814758
20
186.289370
11
819.166955
21
196.692013
0
LINE
8
0
10
819.166955
20
196.692013
11
818.593218
21
202.575606
0
LINE
8
0
10
818.593218
20
202.575606
11
817.635682
21
209.762993
0
LINE
8
0
10
817.635682
20
209.762993
11
814.685035
21
222.753120
0
LINE
8
0
10
814.685035
20
222.753120
11
810.356063
21
233.894491
0
LINE
8
0
10
810.356063
20
233.894491
11
804.651691
21
243.184032
0
LINE
8
0
10
804.651691
20
243.184032
11
797.574844
21
250.618667
0
LINE
8
0
10
797.574844
20
250.618667
11
789.128451
21
256.195324
0
LINE
8
0
10
789.128451
20
256.195324
11
779.315436
21
259.910927
0
LINE
8
0
10
779.315436
20
259.910927
11
768.138727
21
261.762402
0
LINE
8
0
10
768.138727
20
261.762402
11
762.039901
21
261.988131
0
LINE
8
0
10
762.039901
20
261.988131
11
755.934817
21
261.745689
0
LINE
8
0
10
755.934817
20
261.745689
11
744.813616
21
259.814226
0
LINE
8
0
10
744.813616
20
259.814226
11
734.927403
21
255.867369
0
LINE
8
0
10
734.927403
20
255.867369
11
726.015814
21
249.801175
0
LINE
8
0
10
726.015814
20
249.801175
11
721.844142
21
245.940844
0
LINE
8
0
10
721.844142
20
245.940844
11
719.261592
21
243.146462
0
LINE
8
0
10
719.261592
20
243.146462
11
714.703278
21
237.064337
0
LINE
8
0
10
714.703278
20
237.064337
11
710.935367
21
230.253931
0
LINE
8
0
10
710.935367
20
230.253931
11
707.935489
21
222.630686
0
LINE
8
0
10
707.935489
20
222.630686
11
705.681274
21
214.110046
0
LINE
8
0
10
705.681274
20
214.110046
11
704.150350
21
204.607451
0
LINE
8
0
10
704.150350
20
204.607451
11
703.320347
21
194.038343
0
LINE
8
0
10
703.320347
20
194.038343
11
703.168895
21
182.318165
0
LINE
8
0
10
703.168895
20
182.318165
11
703.340635
21
176.000000
0
LINE
8
0
10
703.340635
20
176.000000
11
703.768130
21
167.780440
0
LINE
8
0
10
703.768130
20
167.780440
11
705.252772
21
153.902586
0
LINE
8
0
10
705.252772
20
153.902586
11
707.819670
21
142.347086
0
LINE
8
0
10
707.819670
20
142.347086
11
711.760088
21
131.802740
0
LINE
8
0
10
711.760088
20
131.802740
11
714.336388
21
126.500000
0
LINE
8
0
10
714.336388
20
126.500000
11
716.143112
21
123.452984
0
LINE
8
0
10
716.143112
20
123.452984
11
721.113935
21
117.056468
0
LINE
8
0
10
721.113935
20
117.056468
11
727.140650
21
111.012712
0
LINE
8
0
10
727.140650
20
111.012712
11
733.318525
21
106.229006
0
LINE
8
0
10
733.318525
20
106.229006
11
736.181420
21
104.593199
0
LINE
8
0
10
736.181420
20
104.593199
11
740.479618
21
102.808270
0
LINE
8
0
10
740.479618
20
102.808270
11
750.308508
21
100.361838
0
LINE
8
0
10
750.308508
20
100.361838
11
761.230065
21
99.458838
0
LINE
8
0
10
761.230065
20
99.458838
11
772.583505
21
100.153903
0
LINE
8
0
10
772.583505
20
100.153903
11
778.215685
21
101.117784
0
LINE
8
0
10
1230.113510
20
100.998790
11
1235.229769
21
102.327531
0
LINE
8
0
10
1235.229769
20
102.327531
11
1245.374565
21
107.084713
0
LINE
8
0
10
1245.374565
20
107.084713
11
1254.759420
21
114.156957
0
LINE
8
0
10
1254.759420
20
114.156957
11
1262.612761
21
122.962820
0
LINE
8
0
10
1262.612761
20
122.962820
11
1265.723996
21
127.834158
0
LINE
8
0
10
1265.723996
20
127.834158
11
1268.251257
21
132.933902
0
LINE
8
0
10
1268.251257
20
132.933902
11
1272.415646
21
144.899386
0
LINE
8
0
10
1272.415646
20
144.899386
11
1275.300675
21
158.774568
0
LINE
8
0
10
1275.300675
20
158.774568
11
1276.795318
21
174.025494
0
LINE
8
0
10
1276.795318
20
174.025494
11
1276.986551
21
182.000000
0
LINE
8
0
10
1276.986551
20
182.000000
11
1276.823820
21
189.273063
0
LINE
8
0
10
1276.823820
20
189.273063
11
1275.540765
21
202.935623
0
LINE
8
0
10
1275.540765
20
202.935623
11
1273.009565
21
215.363361
0
LINE
8
0
10
1273.009565
20
215.363361
11
1269.264591
21
226.488196
0
LINE
8
0
10
1269.264591
20
226.488196
11
1264.340214
21
236.242046
0
LINE
8
0
10
1264.340214
20
236.242046
11
1258.270806
21
244.556832
0
LINE
8
0
10
1258.270806
20
244.556832
11
1251.090739
21
251.364472
0
LINE
8
0
10
1251.090739
20
251.364472
11
1242.834385
21
256.596884
0
LINE
8
0
10
1242.834385
20
256.596884
11
1238.313341
21
258.601105
0
LINE
8
0
10
1238.313341
20
258.601105
11
1234.852247
21
259.712994
0
LINE
8
0
10
1234.852247
20
259.712994
11
1226.487736
21
261.305061
0
LINE
8
0
10
1226.487736
20
261.305061
11
1217.340492
21
261.971735
0
LINE
8
0
10
1217.340492
20
261.971735
11
1208.778945
21
261.613282
0
LINE
8
0
10
1208.778945
20
261.613282
11
1205.145444
21
261.018465
0
LINE
8
0
10
1205.145444
20
261.018465
11
1200.861461
21
259.906369
0
LINE
8
0
10
1200.861461
20
259.906369
11
1192.938790
21
256.846185
0
LINE
8
0
10
1192.938790
20
256.846185
11
1185.850189
21
252.639783
0
LINE
8
0
10
1185.850189
20
252.639783
11
1179.564067
21
247.249290
0
LINE
8
0
10
1179.564067
20
247.249290
11
1174.048834
21
240.636830
0
LINE
8
0
10
1174.048834
20
240.636830
11
1169.272901
21
232.764529
0
LINE
8
0
10
1169.272901
20
232.764529
11
1165.204678
21
223.594512
0
LINE
8
0
10
1165.204678
20
223.594512
11
1161.812575
21
213.088906
0
LINE
8
0
10
1161.812575
20
213.088906
11
1160.360196
21
207.323420
0
LINE
8
0
10
1160.360196
20
207.323420
11
1159.499369
21
202.754413
0
LINE
8
0
10
1159.499369
20
202.754413
11
1158.767533
21
194.457378
0
LINE
8
0
10
1158.767533
20
194.457378
11
1158.584900
21
187.026394
0
LINE
8
0
10
1158.584900
20
187.026394
11
1158.567757
21
182.500000
0
LINE
8
0
10
1158.567757
20
182.500000
11
1158.611703
21
176.399842
0
LINE
8
0
10
1158.611703
20
176.399842
11
1159.034017
21
166.731718
0
LINE
8
0
10
1159.034017
20
166.731718
11
1160.145337
21
158.678060
0
LINE
8
0
10
1160.145337
20
158.678060
11
1162.237395
21
150.124721
0
LINE
8
0
10
1162.237395
20
150.124721
11
1163.742365
21
145.000000
0
LINE
8
0
10
1163.742365
20
145.000000
11
1166.683489
21
136.835301
0
LINE
8
0
10
1166.683489
20
136.835301
11
1174.660380
21
122.432852
0
LINE
8
0
10
1174.660380
20
122.432852
11
1182.188958
21
113.632325
0
LINE
8
0
10
1182.188958
20
113.632325
11
1187.807538
21
108.868423
0
LINE
8
0
10
1187.807538
20
108.868423
11
1193.820732
21
105.080414
0
LINE
8
0
10
1193.820732
20
105.080414
11
1200.155676
21
102.348359
0
LINE
8
0
10
1200.155676
20
102.348359
11
1203.421034
21
101.403331
0
LINE
8
0
10
1203.421034
20
101.403331
11
1206.084471
21
100.892048
0
LINE
8
0
10
1206.084471
20
100.892048
11
1212.750454
21
100.252830
0
LINE
8
0
10
1212.750454
20
100.252830
11
1220.185721
21
100.140143
0
LINE
8
0
10
1220.185721
20
100.140143
11
1227.170835
21
100.572471
0
LINE
8
0
10
1227.170835
20
100.572471
11
1230.113510
21
100.998790
0
LINE
8
0
10
333.113929
20
119.427903
11
336.880053
21
120.184882
0
LINE
8
0
10
336.880053
20
120.184882
11
343.496486
21
122.095571
0
LINE
8
0
10
343.496486
20
122.095571
11
348.999825
21
124.663139
0
LINE
8
0
10
348.999825
20
124.663139
11
353.519663
21
128.041073
0
LINE
8
0
10
353.519663
20
128.041073
11
357.185595
21
132.382856
0
LINE
8
0
10
357.185595
20
132.382856
11
360.127213
21
137.841974
0
LINE
8
0
10
360.127213
20
137.841974
11
362.474110
21
144.571913
0
LINE
8
0
10
362.474110
20
144.571913
11
364.355881
21
152.726157
0
LINE
8
0
10
364.355881
20
152.726157
11
365.162842
21
157.385358
0
LINE
8
0
10
365.162842
20
157.385358
11
365.607551
21
160.111549
0
LINE
8
0
10
365.607551
20
160.111549
11
366.460459
21
164.897510
0
LINE
8
0
10
366.460459
20
164.897510
11
367.190854
21
168.437117
0
LINE
8
0
10
367.190854
20
168.437117
11
367.710141
21
170.301015
0
LINE
8
0
10
367.710141
20
170.301015
11
367.862932
21
170.470401
0
LINE
8
0
10
367.862932
20
170.470401
11
368.017933
21
170.086121
0
LINE
8
0
10
368.017933
20
170.086121
11
368.553563
21
167.854482
0
LINE
8
0
10
368.553563
20
167.854482
11
369.748302
21
161.713232
0
LINE
8
0
10
369.748302
20
161.713232
11
370.671274
21
156.428466
0
LINE
8
0
10
370.671274
20
156.428466
11
371.305921
21
152.829144
0
LINE
8
0
10
371.305921
20
152.829144
11
372.631556
21
146.487394
0
LINE
8
0
10
372.631556
20
146.487394
11
374.898280
21
138.858808
0
LINE
8
0
10
374.898280
20
138.858808
11
378.824795
21
131.481287
0
LINE
8
0
10
378.824795
20
131.481287
11
384.322156
21
126.286993
0
LINE
8
0
10
384.322156
20
126.286993
11
387.843130
21
124.164295
0
LINE
8
0
10
387.843130
20
124.164295
11
390.891612
21
122.751649
0
LINE
8
0
10
390.891612
20
122.751649
11
398.333051
21
120.394353
0
LINE
8
0
10
398.333051
20
120.394353
11
402.453192
21
119.536124
0
LINE
8
0
10
402.453192
20
119.536124
11
405.342358
21
119.052402
0
LINE
8
0
10
405.342358
20
119.052402
11
410.273859
21
118.344729
0
LINE
8
0
10
410.273859
20
118.344729
11
413.837020
21
118.006148
0
LINE
8
0
10
413.837020
20
118.006148
11
415.744758
21
118.063940
0
LINE
8
0
10
415.744758
20
118.063940
11
415.988131
21
118.250000
0
LINE
8
0
10
415.988131
20
118.250000
11
415.867036
21
118.781055
0
LINE
8
0
10
415.867036
20
118.781055
11
415.074141
21
121.844727
0
LINE
8
0
10
415.074141
20
121.844727
11
414.500000
21
124.000000
0
LINE
8
0
10
414.500000
20
124.000000
11
413.576054
21
127.428191
0
LINE
8
0
10
413.576054
20
127.428191
11
413.308853
21
132.471485
0
LINE
8
0
10
413.308853
20
132.471485
11
415.551382
21
136.179648
0
LINE
8
0
10
415.551382
20
136.179648
11
418.714380
21
139.336440
0
LINE
8
0
10
418.714380
20
139.336440
11
423.525782
21
143.489022
0
LINE
8
0
10
423.525782
20
143.489022
11
430.254751
21
149.021430
0
LINE
8
0
10
430.254751
20
149.021430
11
434.422436
21
152.425080
0
LINE
8
0
10
434.422436
20
152.425080
11
438.738610
21
155.964260
0
LINE
8
0
10
438.738610
20
155.964260
11
446.486394
21
162.374956
0
LINE
8
0
10
446.486394
20
162.374956
11
452.451759
21
167.388633
0
LINE
8
0
10
452.451759
20
167.388633
11
455.320782
21
169.866253
0
LINE
8
0
10
455.320782
20
169.866253
11
456.299586
21
170.764683
0
LINE
8
0
10
456.299586
20
170.764683
11
456.474905
21
170.959396
0
LINE
8
0
10
456.474905
20
170.959396
11
456.280171
21
171.553529
0
LINE
8
0
10
456.280171
20
171.553529
11
453.606940
21
173.424704
0
LINE
8
0
10
453.606940
20
173.424704
11
451.438248
21
174.484890
0
LINE
8
0
10
451.438248
20
174.484890
11
445.771558
21
176.990970
0
LINE
8
0
10
445.771558
20
176.990970
11
446.409586
21
181.245485
0
LINE
8
0
10
446.409586
20
181.245485
11
446.598497
21
182.302449
0
LINE
8
0
10
446.598497
20
182.302449
11
447.275753
21
185.318878
0
LINE
8
0
10
447.275753
20
185.318878
11
448.817863
21
191.228146
0
LINE
8
0
10
448.817863
20
191.228146
11
450.023807
21
195.412814
0
LINE
8
0
10
450.023807
20
195.412814
11
450.756262
21
197.851970
0
LINE
8
0
10
450.756262
20
197.851970
11
451.915479
21
201.810061
0
LINE
8
0
10
451.915479
20
201.810061
11
452.824725
21
205.731668
0
LINE
8
0
10
452.824725
20
205.731668
11
452.305534
21
207.996238
0
LINE
8
0
10
452.305534
20
207.996238
11
449.551881
21
207.987888
0
LINE
8
0
10
449.551881
20
207.987888
11
447.250000
21
207.511406
0
LINE
8
0
10
447.250000
20
207.511406
11
443.545955
21
206.737535
0
LINE
8
0
10
443.545955
20
206.737535
11
437.010241
21
205.446818
0
LINE
8
0
10
437.010241
20
205.446818
11
431.864910
21
204.538897
0
LINE
8
0
10
431.864910
20
204.538897
11
428.382619
21
204.061882
0
LINE
8
0
10
428.382619
20
204.061882
11
427.350320
21
204.000000
0
LINE
8
0
10
427.350320
20
204.000000
11
426.568543
21
204.110475
0
LINE
8
0
10
426.568543
20
204.110475
11
425.178057
21
205.068118
0
LINE
8
0
10
425.178057
20
205.068118
11
423.920229
21
207.172106
0
LINE
8
0
10
423.920229
20
207.172106
11
422.677342
21
210.619343
0
LINE
8
0
10
422.677342
20
210.619343
11
422.024716
21
212.908213
0
LINE
8
0
10
422.024716
20
212.908213
11
421.540768
21
214.491518
0
LINE
8
0
10
421.540768
20
214.491518
11
420.574640
21
216.634813
0
LINE
8
0
10
420.574640
20
216.634813
11
420.211456
21
216.930819
0
LINE
8
0
10
420.211456
20
216.930819
11
419.874643
21
216.692292
0
LINE
8
0
10
419.874643
20
216.692292
11
418.186215
21
215.005963
0
LINE
8
0
10
418.186215
20
215.005963
11
413.744810
21
210.134653
0
LINE
8
0
10
413.744810
20
210.134653
11
410.000000
21
205.855856
0
LINE
8
0
10
410.000000
20
205.855856
11
406.666226
21
202.031222
0
LINE
8
0
10
406.666226
20
202.031222
11
401.736396
21
196.689881
0
LINE
8
0
10
401.736396
20
196.689881
11
398.594981
21
193.967784
0
LINE
8
0
10
398.594981
20
193.967784
11
396.607734
21
193.315342
0
LINE
8
0
10
396.607734
20
193.315342
11
395.848721
21
193.593495
0
LINE
8
0
10
395.848721
20
193.593495
11
395.389478
21
194.367259
0
LINE
8
0
10
395.389478
20
194.367259
11
395.194423
21
198.364609
0
LINE
8
0
10
395.194423
20
198.364609
11
395.954511
21
205.539355
0
LINE
8
0
10
395.954511
20
205.539355
11
397.658423
21
215.784659
0
LINE
8
0
10
397.658423
20
215.784659
11
398.860777
21
222.025384
0
LINE
8
0
10
398.860777
20
222.025384
11
400.032881
21
227.982547
0
LINE
8
0
10
400.032881
20
227.982547
11
401.537255
21
235.906197
0
LINE
8
0
10
401.537255
20
235.906197
11
402.202117
21
239.616934
0
LINE
8
0
10
402.202117
20
239.616934
11
402.389710
21
240.770145
0
LINE
8
0
10
402.389710
20
240.770145
11
403.030078
21
245.040290
0
LINE
8
0
10
403.030078
20
245.040290
11
396.040003
21
241.520145
0
LINE
8
0
10
396.040003
20
241.520145
11
393.461655
21
240.263994
0
LINE
8
0
10
393.461655
20
240.263994
11
389.458798
21
238.624778
0
LINE
8
0
10
389.458798
20
238.624778
11
386.720404
21
238.096857
0
LINE
8
0
10
386.720404
20
238.096857
11
384.917690
21
238.616846
0
LINE
8
0
10
384.917690
20
238.616846
11
384.264468
21
239.250000
0
LINE
8
0
10
384.264468
20
239.250000
11
383.948066
21
239.725752
0
LINE
8
0
10
383.948066
20
239.725752
11
382.743015
21
241.793679
0
LINE
8
0
10
382.743015
20
241.793679
11
379.902152
21
246.943642
0
LINE
8
0
10
379.902152
20
246.943642
11
375.298071
21
255.552958
0
LINE
8
0
10
375.298071
20
255.552958
11
372.159926
21
261.583333
0
LINE
8
0
10
372.159926
20
261.583333
11
370.615123
21
264.657445
0
LINE
8
0
10
370.615123
20
264.657445
11
370.086377
21
265.762062
0
LINE
8
0
10
370.086377
20
265.762062
11
369.429160
21
267.005541
0
LINE
8
0
10
369.429160
20
267.005541
11
368.154141
21
268.587495
0
LINE
8
0
10
368.154141
20
268.587495
11
367.693379
21
268.731126
0
LINE
8
0
10
367.693379
20
268.731126
11
367.420982
21
268.489209
0
LINE
8
0
10
367.420982
20
268.489209
11
366.398153
21
267.030424
0
LINE
8
0
10
366.398153
20
267.030424
11
364.011748
21
262.974703
0
LINE
8
0
10
364.011748
20
262.974703
11
362.119425
21
259.469064
0
LINE
8
0
10
362.119425
20
259.469064
11
360.160327
21
255.728238
0
LINE
8
0
10
360.160327
20
255.728238
11
356.935205
21
249.601756
0
LINE
8
0
10
356.935205
20
249.601756
11
354.504039
21
245.079312
0
LINE
8
0
10
354.504039
20
245.079312
11
352.710653
21
241.917483
0
LINE
8
0
10
352.710653
20
241.917483
11
350.874781
21
239.193396
0
LINE
8
0
10
350.874781
20
239.193396
11
349.201557
21
238.051458
0
LINE
8
0
10
349.201557
20
238.051458
11
348.345526
21
238.000000
0
LINE
8
0
10
348.345526
20
238.000000
11
347.003596
21
238.236719
0
LINE
8
0
10
347.003596
20
238.236719
11
342.905452
21
239.835156
0
LINE
8
0
10
342.905452
20
239.835156
11
340.653995
21
241.000000
0
LINE
8
0
10
340.653995
20
241.000000
11
338.488793
21
242.164844
0
LINE
8
0
10
338.488793
20
242.164844
11
334.973085
21
243.763281
0
LINE
8
0
10
334.973085
20
243.763281
11
334.055599
21
244.000000
0
LINE
8
0
10
334.055599
20
244.000000
11
333.560022
21
243.824146
0
LINE
8
0
10
333.560022
20
243.824146
11
333.235494
21
241.770696
0
LINE
8
0
10
333.235494
20
241.770696
11
333.686198
21
237.892901
0
LINE
8
0
10
333.686198
20
237.892901
11
334.369951
21
233.790375
0
LINE
8
0
10
334.369951
20
233.790375
11
335.393161
21
228.222524
0
LINE
8
0
10
335.393161
20
228.222524
11
336.783968
21
220.973809
0
LINE
8
0
10
336.783968
20
220.973809
11
337.626014
21
216.651772
0
LINE
8
0
10
337.626014
20
216.651772
11
338.956070
21
209.512398
0
LINE
8
0
10
338.956070
20
209.512398
11
340.380476
21
200.690689
0
LINE
8
0
10
340.380476
20
200.690689
11
340.797414
21
197.048742
0
LINE
8
0
10
340.797414
20
197.048742
11
340.806944
21
196.151772
0
LINE
8
0
10
340.806944
20
196.151772
11
340.456109
21
194.586021
0
LINE
8
0
10
340.456109
20
194.586021
11
338.789617
21
193.563896
0
LINE
8
0
10
338.789617
20
193.563896
11
335.439280
21
195.595235
0
LINE
8
0
10
335.439280
20
195.595235
11
331.534618
21
199.296515
0
LINE
8
0
10
331.534618
20
199.296515
11
328.156921
21
202.868841
0
LINE
8
0
10
328.156921
20
202.868841
11
326.213342
21
205.000000
0
LINE
8
0
10
326.213342
20
205.000000
11
322.116895
21
209.487805
0
LINE
8
0
10
322.116895
20
209.487805
11
317.261336
21
214.655451
0
LINE
8
0
10
317.261336
20
214.655451
11
315.417819
21
216.493862
0
LINE
8
0
10
315.417819
20
216.493862
11
315.051460
21
216.786038
0
LINE
8
0
10
315.051460
20
216.786038
11
314.618473
21
216.416289
0
LINE
8
0
10
314.618473
20
216.416289
11
313.298471
21
213.322022
0
LINE
8
0
10
313.298471
20
213.322022
11
312.574037
21
210.978616
0
LINE
8
0
10
312.574037
20
210.978616
11
311.792145
21
208.567347
0
LINE
8
0
10
311.792145
20
208.567347
11
310.084164
21
205.014834
0
LINE
8
0
10
310.084164
20
205.014834
11
309.368442
21
204.311143
0
LINE
8
0
10
309.368442
20
204.311143
11
308.809027
21
204.246629
0
LINE
8
0
10
308.809027
20
204.246629
11
306.359334
21
204.417306
0
LINE
8
0
10
306.359334
20
204.417306
11
300.230174
21
205.304783
0
LINE
8
0
10
300.230174
20
205.304783
11
295.186292
21
206.225790
0
LINE
8
0
10
295.186292
20
206.225790
11
290.243232
21
207.179570
0
LINE
8
0
10
290.243232
20
207.179570
11
284.577879
21
208.217811
0
LINE
8
0
10
284.577879
20
208.217811
11
282.584630
21
208.536859
0
LINE
8
0
10
282.584630
20
208.536859
11
282.281886
21
208.555779
0
LINE
8
0
10
282.281886
20
208.555779
11
282.281418
21
208.390246
0
LINE
8
0
10
282.281418
20
208.390246
11
282.493621
21
207.286132
0
LINE
8
0
10
282.493621
20
207.286132
11
283.277248
21
203.963462
0
LINE
8
0
10
283.277248
20
203.963462
11
285.001615
21
197.167581
0
LINE
8
0
10
285.001615
20
197.167581
11
287.238491
21
188.708933
0
LINE
8
0
10
287.238491
20
188.708933
11
288.459085
21
184.210902
0
LINE
8
0
10
288.459085
20
184.210902
11
288.982674
21
182.056404
0
LINE
8
0
10
288.982674
20
182.056404
11
289.492966
21
178.557383
0
LINE
8
0
10
289.492966
20
178.557383
11
289.416817
21
177.643825
0
LINE
8
0
10
289.416817
20
177.643825
11
288.834774
21
176.982152
0
LINE
8
0
10
288.834774
20
176.982152
11
285.929021
21
175.183977
0
LINE
8
0
10
285.929021
20
175.183977
11
283.963205
21
174.268952
0
LINE
8
0
10
283.963205
20
174.268952
11
282.037008
21
173.388800
0
LINE
8
0
10
282.037008
20
173.388800
11
279.398778
21
171.826102
0
LINE
8
0
10
279.398778
20
171.826102
11
279.011688
21
171.336029
0
LINE
8
0
10
279.011688
20
171.336029
11
279.124145
21
171.160075
0
LINE
8
0
10
279.124145
20
171.160075
11
279.983564
21
170.297937
0
LINE
8
0
10
279.983564
20
170.297937
11
282.693929
21
167.870169
0
LINE
8
0
10
282.693929
20
167.870169
11
288.498650
21
162.910130
0
LINE
8
0
10
288.498650
20
162.910130
11
296.161824
21
156.532444
0
LINE
8
0
10
296.161824
20
156.532444
11
300.470297
21
153.000000
0
LINE
8
0
10
300.470297
20
153.000000
11
304.929401
21
149.328209
0
LINE
8
0
10
304.929401
20
149.328209
11
312.758534
21
142.690430
0
LINE
8
0
10
312.758534
20
142.690430
11
318.647730
21
137.429514
0
LINE
8
0
10
318.647730
20
137.429514
11
322.011587
21
134.068410
0
LINE
8
0
10
322.011587
20
134.068410
11
322.563576
21
133.263709
0
LINE
8
0
10
322.563576
20
133.263709
11
322.661041
21
131.881258
0
LINE
8
0
10
322.661041
20
131.881258
11
321.948394
21
127.234204
0
LINE
8
0
10
321.948394
20
127.234204
11
321.221723
21
124.513709
0
LINE
8
0
10
321.221723
20
124.513709
11
319.233512
21
118.000000
0
LINE
8
0
10
319.233512
20
118.000000
11
322.366756
21
118.034888
0
LINE
8
0
10
322.366756
20
118.034888
11
324.184123
21
118.155599
0
LINE
8
0
10
324.184123
20
118.155599
11
329.910351
21
118.897815
0
LINE
8
0
10
329.910351
20
118.897815
11
333.113929
21
119.427903
0
LINE
8
0
10
1440.539901
20
98.502080
11
1446.180852
21
100.259493
0
LINE
8
0
10
1446.180852
20
100.259493
11
1457.378275
21
105.593051
0
LINE
8
0
10
1457.378275
20
105.593051
11
1467.596939
21
112.745365
0
LINE
8
0
10
1467.596939
20
112.745365
11
1475.797500
21
120.988970
0
LINE
8
0
10
1475.797500
20
120.988970
11
1478.816197
21
125.292675
0
LINE
8
0
10
1478.816197
20
125.292675
11
1480.596109
21
128.452314
0
LINE
8
0
10
1480.596109
20
128.452314
11
1483.084791
21
134.662101
0
LINE
8
0
10
1483.084791
20
134.662101
11
1484.420991
21
142.302395
0
LINE
8
0
10
1484.420991
20
142.302395
11
1484.865855
21
150.109418
0
LINE
8
0
10
1484.865855
20
150.109418
11
1484.974599
21
156.746441
0
LINE
8
0
10
1484.974599
20
156.746441
11
1484.988131
21
160.583333
0
LINE
8
0
10
1484.988131
20
160.583333
11
1484.982057
21
164.425277
0
LINE
8
0
10
1484.982057
20
164.425277
11
1484.923730
21
171.305257
0
LINE
8
0
10
1484.923730
20
171.305257
11
1484.814839
21
176.580160
0
LINE
8
0
10
1484.814839
20
176.580160
11
1484.668592
21
179.610140
0
LINE
8
0
10
1484.668592
20
179.610140
11
1484.585588
21
180.083333
0
LINE
8
0
10
1484.585588
20
180.083333
11
1483.995443
21
180.152953
0
LINE
8
0
10
1483.995443
20
180.152953
11
1480.097812
21
180.197643
0
LINE
8
0
10
1480.097812
20
180.197643
11
1473.267490
21
180.123740
0
LINE
8
0
10
1473.267490
20
180.123740
11
1464.332992
21
179.940208
0
LINE
8
0
10
1464.332992
20
179.940208
11
1459.335588
21
179.810133
0
LINE
8
0
10
1459.335588
20
179.810133
11
1455.552030
21
179.700837
0
LINE
8
0
10
1455.552030
20
179.700837
11
1448.965062
21
179.478865
0
LINE
8
0
10
1448.965062
20
179.478865
11
1441.088067
21
179.097989
0
LINE
8
0
10
1441.088067
20
179.097989
11
1429.596874
21
177.903222
0
LINE
8
0
10
1429.596874
20
177.903222
11
1422.511528
21
176.557908
0
LINE
8
0
10
1422.511528
20
176.557908
11
1415.259964
21
174.779483
0
LINE
8
0
10
1415.259964
20
174.779483
11
1403.095517
21
170.302509
0
LINE
8
0
10
1403.095517
20
170.302509
11
1393.788494
21
164.434255
0
LINE
8
0
10
1393.788494
20
164.434255
11
1387.025915
21
156.977379
0
LINE
8
0
10
1387.025915
20
156.977379
11
1384.500985
21
152.591540
0
LINE
8
0
10
1384.500985
20
152.591540
11
1382.981833
21
149.174824
0
LINE
8
0
10
1382.981833
20
149.174824
11
1381.900602
21
144.128880
0
LINE
8
0
10
1381.900602
20
144.128880
11
1381.693349
21
139.115947
0
LINE
8
0
10
1381.693349
20
139.115947
11
1381.670569
21
135.677204
0
LINE
8
0
10
1381.670569
20
135.677204
11
1381.734495
21
131.205235
0
LINE
8
0
10
1381.734495
20
131.205235
11
1382.450099
21
124.150869
0
LINE
8
0
10
1382.450099
20
124.150869
11
1384.266930
21
118.655391
0
LINE
8
0
10
1384.266930
20
118.655391
11
1387.566061
21
113.566155
0
LINE
8
0
10
1387.566061
20
113.566155
11
1389.890573
21
110.813675
0
LINE
8
0
10
1389.890573
20
110.813675
11
1393.606191
21
107.052742
0
LINE
8
0
10
1393.606191
20
107.052742
11
1399.639017
21
102.862272
0
LINE
8
0
10
1399.639017
20
102.862272
11
1404.736628
21
100.545910
0
LINE
8
0
10
1404.736628
20
100.545910
11
1407.806014
21
99.404914
0
LINE
8
0
10
1407.806014
20
99.404914
11
1411.154594
21
98.446379
0
LINE
8
0
10
1411.154594
20
98.446379
11
1419.239078
21
97.233482
0
LINE
8
0
10
1419.239078
20
97.233482
11
1428.172884
21
96.987078
0
LINE
8
0
10
1428.172884
20
96.987078
11
1436.755477
21
97.740280
0
LINE
8
0
10
1436.755477
20
97.740280
11
1440.539901
21
98.502080
0
LINE
8
0
10
1936.440957
20
207.750000
11
1935.873464
21
212.890369
0
LINE
8
0
10
1935.873464
20
212.890369
11
1933.951714
21
222.503345
0
LINE
8
0
10
1933.951714
20
222.503345
11
1930.996337
21
231.204893
0
LINE
8
0
10
1930.996337
20
231.204893
11
1927.025803
21
238.969717
0
LINE
8
0
10
1927.025803
20
238.969717
11
1922.058582
21
245.772522
0
LINE
8
0
10
1922.058582
20
245.772522
11
1916.113145
21
251.588010
0
LINE
8
0
10
1916.113145
20
251.588010
11
1909.207962
21
256.390887
0
LINE
8
0
10
1909.207962
20
256.390887
11
1901.361504
21
260.155856
0
LINE
8
0
10
1901.361504
20
260.155856
11
1897.091069
21
261.641220
0
LINE
8
0
10
1897.091069
20
261.641220
11
1894.137693
21
262.272427
0
LINE
8
0
10
1894.137693
20
262.272427
11
1885.644083
21
262.954795
0
LINE
8
0
10
1885.644083
20
262.954795
11
1875.788679
21
262.879677
0
LINE
8
0
10
1875.788679
20
262.879677
11
1867.076300
21
262.066164
0
LINE
8
0
10
1867.076300
20
262.066164
11
1863.931501
21
261.388476
0
LINE
8
0
10
1863.931501
20
261.388476
11
1858.098446
21
259.344231
0
LINE
8
0
10
1858.098446
20
259.344231
11
1848.079991
21
253.634038
0
LINE
8
0
10
1848.079991
20
253.634038
11
1843.335725
21
249.649553
0
LINE
8
0
10
1843.335725
20
249.649553
11
1839.112922
21
245.358334
0
LINE
8
0
10
1839.112922
20
245.358334
11
1832.041842
21
235.825816
0
LINE
8
0
10
1832.041842
20
235.825816
11
1826.928029
21
225.283326
0
LINE
8
0
10
1826.928029
20
225.283326
11
1823.920962
21
214.039027
0
LINE
8
0
10
1823.920962
20
214.039027
11
1823.254171
21
208.250000
0
LINE
8
0
10
1823.254171
20
208.250000
11
1822.718086
21
200.000000
0
LINE
8
0
10
1822.718086
20
200.000000
11
1879.900743
21
200.000000
0
LINE
8
0
10
1879.900743
20
200.000000
11
1937.083401
21
200.000000
0
LINE
8
0
10
1937.083401
20
200.000000
11
1936.440957
21
207.750000
0
ENDSEC
0
EOF
