999
DXF File generated by ImageToStl.com - Free Image and 3D model conversion tools
0
SECTION
2
HEADER
9
$ACADVER
1
AC1009
9
$EXTMIN
10
0
20
0
9
$EXTMAX
10
928.435565
20
180.582510
0
ENDSEC
0
SECTION
2
ENTITIES
0
LINE
8
0
10
65.920447
20
1.592850
11
61.295042
21
2.726219
0
LINE
8
0
10
61.295042
20
2.726219
11
53.266338
21
6.807895
0
LINE
8
0
10
53.266338
20
6.807895
11
47.080369
21
13.092814
0
LINE
8
0
10
47.080369
20
13.092814
11
42.993048
21
21.320971
0
LINE
8
0
10
42.993048
20
21.320971
11
41.816353
21
26.082510
0
LINE
8
0
10
41.816353
20
26.082510
11
40.410682
21
34.082510
0
LINE
8
0
10
40.410682
20
34.082510
11
33.955341
21
34.870411
0
LINE
8
0
10
33.955341
20
34.870411
11
30.416750
21
35.457042
0
LINE
8
0
10
30.416750
20
35.457042
11
25.892188
21
37.091550
0
LINE
8
0
10
25.892188
20
37.091550
11
22.519328
21
39.043440
0
LINE
8
0
10
22.519328
20
39.043440
11
20.500000
21
40.370411
0
LINE
8
0
10
20.500000
20
40.370411
11
17.652241
21
42.253599
0
LINE
8
0
10
17.652241
20
42.253599
11
13.972850
21
44.574914
0
LINE
8
0
10
13.972850
20
44.574914
11
12.328424
21
45.528846
0
LINE
8
0
10
12.328424
20
45.528846
11
11.855134
21
45.761394
0
LINE
8
0
10
11.855134
20
45.761394
11
10.849667
21
46.360630
0
LINE
8
0
10
10.849667
20
46.360630
11
8.578933
21
48.662608
0
LINE
8
0
10
8.578933
20
48.662608
11
5.054015
21
54.109216
0
LINE
8
0
10
5.054015
20
54.109216
11
3.037614
21
58.474282
0
LINE
8
0
10
3.037614
20
58.474282
11
2.356844
21
60.338390
0
LINE
8
0
10
2.356844
20
60.338390
11
1.645006
21
63.544005
0
LINE
8
0
10
1.645006
20
63.544005
11
1.348196
21
66.677703
0
LINE
8
0
10
1.348196
20
66.677703
11
1.170815
21
71.187624
0
LINE
8
0
10
1.170815
20
71.187624
11
1.093347
21
77.569988
0
LINE
8
0
10
1.093347
20
77.569988
11
1.096273
21
86.321015
0
LINE
8
0
10
1.096273
20
86.321015
11
1.160078
21
97.936926
0
LINE
8
0
10
1.160078
20
97.936926
11
1.208711
21
104.974282
0
LINE
8
0
10
1.208711
20
104.974282
11
1.500000
21
146.082510
0
LINE
8
0
10
1.500000
20
146.082510
11
4.180879
21
151.802372
0
LINE
8
0
10
4.180879
20
151.802372
11
5.517096
21
154.282111
0
LINE
8
0
10
5.517096
20
154.282111
11
8.939387
21
159.077423
0
LINE
8
0
10
8.939387
20
159.077423
11
10.603948
21
160.802372
0
LINE
8
0
10
10.603948
20
160.802372
11
12.141947
21
162.155838
0
LINE
8
0
10
12.141947
20
162.155838
11
14.709635
21
164.442719
0
LINE
8
0
10
14.709635
20
164.442719
11
15.423069
21
165.094466
0
LINE
8
0
10
15.423069
20
165.094466
11
16.275206
21
165.640870
0
LINE
8
0
10
16.275206
20
165.640870
11
19.779477
21
167.216420
0
LINE
8
0
10
19.779477
20
167.216420
11
22.000000
21
168.051512
0
LINE
8
0
10
22.000000
20
168.051512
11
23.936520
21
168.654214
0
LINE
8
0
10
23.936520
20
168.654214
11
27.696980
21
169.316573
0
LINE
8
0
10
27.696980
20
169.316573
11
31.483880
21
169.627443
0
LINE
8
0
10
31.483880
20
169.627443
11
36.862300
21
169.858089
0
LINE
8
0
10
36.862300
20
169.858089
11
44.318736
21
170.029374
0
LINE
8
0
10
44.318736
20
170.029374
11
54.339684
21
170.162162
0
LINE
8
0
10
54.339684
20
170.162162
11
67.411639
21
170.277314
0
LINE
8
0
10
67.411639
20
170.277314
11
75.243775
21
170.334797
0
LINE
8
0
10
75.243775
20
170.334797
11
81.535623
21
170.375672
0
LINE
8
0
10
81.535623
20
170.375672
11
92.647425
21
170.423850
0
LINE
8
0
10
92.647425
20
170.423850
11
101.889088
21
170.425746
0
LINE
8
0
10
101.889088
20
170.425746
11
109.371476
21
170.379530
0
LINE
8
0
10
109.371476
20
170.379530
11
115.205455
21
170.283376
0
LINE
8
0
10
115.205455
20
170.283376
11
119.501890
21
170.135457
0
LINE
8
0
10
119.501890
20
170.135457
11
122.371646
21
169.933946
0
LINE
8
0
10
122.371646
20
169.933946
11
123.925589
21
169.677015
0
LINE
8
0
10
123.925589
20
169.677015
11
124.243775
21
169.527196
0
LINE
8
0
10
124.243775
20
169.527196
11
125.241410
21
168.833793
0
LINE
8
0
10
125.241410
20
168.833793
11
129.353601
21
166.545235
0
LINE
8
0
10
129.353601
20
166.545235
11
131.961670
21
165.231954
0
LINE
8
0
10
131.961670
20
165.231954
11
134.937122
21
163.647276
0
LINE
8
0
10
134.937122
20
163.647276
11
138.880284
21
160.609358
0
LINE
8
0
10
138.880284
20
160.609358
11
139.943534
21
159.082510
0
LINE
8
0
10
139.943534
20
159.082510
11
141.830311
21
155.616168
0
LINE
8
0
10
141.830311
20
155.616168
11
144.231864
21
151.494963
0
LINE
8
0
10
144.231864
20
151.494963
11
147.000000
21
146.907415
0
LINE
8
0
10
147.000000
20
146.907415
11
147.000000
21
106.139307
0
LINE
8
0
10
147.000000
20
106.139307
11
146.997884
21
101.443026
0
LINE
8
0
10
146.997884
20
101.443026
11
146.975519
21
92.861105
0
LINE
8
0
10
146.975519
20
92.861105
11
146.869437
21
81.870611
0
LINE
8
0
10
146.869437
20
81.870611
11
146.516441
21
70.326623
0
LINE
8
0
10
146.516441
20
70.326623
11
145.815290
21
61.772901
0
LINE
8
0
10
145.815290
20
61.772901
11
144.649935
21
55.594145
0
LINE
8
0
10
144.649935
20
55.594145
11
142.904326
21
51.175058
0
LINE
8
0
10
142.904326
20
51.175058
11
138.944078
21
46.499839
0
LINE
8
0
10
138.944078
20
46.499839
11
135.240118
21
43.787991
0
LINE
8
0
10
135.240118
20
43.787991
11
131.583679
21
41.389335
0
LINE
8
0
10
131.583679
20
41.389335
11
125.192586
21
38.217762
0
LINE
8
0
10
125.192586
20
38.217762
11
119.384009
21
36.907295
0
LINE
8
0
10
119.384009
20
36.907295
11
114.160635
21
36.373603
0
LINE
8
0
10
114.160635
20
36.373603
11
107.316672
21
36.006893
0
LINE
8
0
10
107.316672
20
36.006893
11
98.389435
21
35.717183
0
LINE
8
0
10
98.389435
20
35.717183
11
93.000000
21
35.573082
0
LINE
8
0
10
93.000000
20
35.573082
11
87.469386
21
35.434262
0
LINE
8
0
10
87.469386
20
35.434262
11
77.597989
21
35.217517
0
LINE
8
0
10
77.597989
20
35.217517
11
70.073618
21
35.094409
0
LINE
8
0
10
70.073618
20
35.094409
11
66.519624
21
35.072510
0
LINE
8
0
10
66.519624
20
35.072510
11
65.359107
21
35.094949
0
LINE
8
0
10
65.359107
20
35.094949
11
65.184275
21
35.117981
0
LINE
8
0
10
65.184275
20
35.117981
11
65.145427
21
35.530956
0
LINE
8
0
10
65.145427
20
35.530956
11
65.542673
21
37.770884
0
LINE
8
0
10
65.542673
20
37.770884
11
65.929839
21
39.321951
0
LINE
8
0
10
65.929839
20
39.321951
11
66.569191
21
41.138109
0
LINE
8
0
10
66.569191
20
41.138109
11
69.213420
21
43.639764
0
LINE
8
0
10
69.213420
20
43.639764
11
73.463871
21
44.765455
0
LINE
8
0
10
73.463871
20
44.765455
11
77.887848
21
45.272216
0
LINE
8
0
10
77.887848
20
45.272216
11
83.901861
21
45.654764
0
LINE
8
0
10
83.901861
20
45.654764
11
91.778277
21
45.973743
0
LINE
8
0
10
91.778277
20
45.973743
11
96.500000
21
46.128344
0
LINE
8
0
10
96.500000
20
46.128344
11
100.758120
21
46.268397
0
LINE
8
0
10
100.758120
20
46.268397
11
107.914485
21
46.564213
0
LINE
8
0
10
107.914485
20
46.564213
11
113.496150
21
46.930790
0
LINE
8
0
10
113.496150
20
46.930790
11
117.789276
21
47.427908
0
LINE
8
0
10
117.789276
20
47.427908
11
122.438927
21
48.549113
0
LINE
8
0
10
122.438927
20
48.549113
11
126.799396
21
51.058880
0
LINE
8
0
10
126.799396
20
51.058880
11
128.835319
21
52.883191
0
LINE
8
0
10
128.835319
20
52.883191
11
130.889402
21
54.889340
0
LINE
8
0
10
130.889402
20
54.889340
11
133.013628
21
57.973302
0
LINE
8
0
10
133.013628
20
57.973302
11
133.905460
21
60.989152
0
LINE
8
0
10
133.905460
20
60.989152
11
134.468728
21
65.500940
0
LINE
8
0
10
134.468728
20
65.500940
11
134.781338
21
72.132700
0
LINE
8
0
10
134.781338
20
72.132700
11
134.921197
21
81.508464
0
LINE
8
0
10
134.921197
20
81.508464
11
134.966212
21
94.252267
0
LINE
8
0
10
134.966212
20
94.252267
11
134.977499
21
102.082193
0
LINE
8
0
10
134.977499
20
102.082193
11
135.038069
21
142.841836
0
LINE
8
0
10
135.038069
20
142.841836
11
132.386492
21
147.462173
0
LINE
8
0
10
132.386492
20
147.462173
11
130.971789
21
149.800925
0
LINE
8
0
10
130.971789
20
149.800925
11
128.194141
21
153.605248
0
LINE
8
0
10
128.194141
20
153.605248
11
123.994965
21
157.286782
0
LINE
8
0
10
123.994965
20
157.286782
11
121.047629
21
158.514060
0
LINE
8
0
10
121.047629
20
158.514060
11
120.473533
21
158.609127
0
LINE
8
0
10
120.473533
20
158.609127
11
118.144376
21
158.810608
0
LINE
8
0
10
118.144376
20
158.810608
11
114.392864
21
159.021887
0
LINE
8
0
10
114.392864
20
159.021887
11
109.401710
21
159.236570
0
LINE
8
0
10
109.401710
20
159.236570
11
99.990341
21
159.550987
0
LINE
8
0
10
99.990341
20
159.550987
11
84.808443
21
159.922431
0
LINE
8
0
10
84.808443
20
159.922431
11
76.500000
21
160.073288
0
LINE
8
0
10
76.500000
20
160.073288
11
69.479589
21
160.184974
0
LINE
8
0
10
69.479589
20
160.184974
11
57.882129
21
160.352706
0
LINE
8
0
10
57.882129
20
160.352706
11
49.118338
21
160.433509
0
LINE
8
0
10
49.118338
20
160.433509
11
42.679239
21
160.412085
0
LINE
8
0
10
42.679239
20
160.412085
11
38.055855
21
160.273139
0
LINE
8
0
10
38.055855
20
160.273139
11
34.739211
21
160.001373
0
LINE
8
0
10
34.739211
20
160.001373
11
31.100995
21
159.311230
0
LINE
8
0
10
31.100995
20
159.311230
11
28.824428
21
158.640496
0
LINE
8
0
10
28.824428
20
158.640496
11
26.338732
21
157.775185
0
LINE
8
0
10
26.338732
20
157.775185
11
22.283828
21
155.722731
0
LINE
8
0
10
22.283828
20
155.722731
11
19.087971
21
152.923251
0
LINE
8
0
10
19.087971
20
152.923251
11
16.315643
21
148.995241
0
LINE
8
0
10
16.315643
20
148.995241
11
14.952202
21
146.488818
0
LINE
8
0
10
14.952202
20
146.488818
11
14.340777
21
145.120216
0
LINE
8
0
10
14.340777
20
145.120216
11
13.685231
21
142.354385
0
LINE
8
0
10
13.685231
20
142.354385
11
13.395116
21
139.432765
0
LINE
8
0
10
13.395116
20
139.432765
11
13.200552
21
135.167000
0
LINE
8
0
10
13.200552
20
135.167000
11
13.082695
21
129.143983
0
LINE
8
0
10
13.082695
20
129.143983
11
13.022704
21
120.950607
0
LINE
8
0
10
13.022704
20
120.950607
11
13.001738
21
110.173765
0
LINE
8
0
10
13.001738
20
110.173765
11
13.000000
21
103.687448
0
LINE
8
0
10
13.000000
20
103.687448
11
13.018359
21
95.810993
0
LINE
8
0
10
13.018359
20
95.810993
11
13.154164
21
81.538656
0
LINE
8
0
10
13.154164
20
81.538656
11
13.328192
21
72.796729
0
LINE
8
0
10
13.328192
20
72.796729
11
13.471661
21
68.220756
0
LINE
8
0
10
13.471661
20
68.220756
11
13.632787
21
64.843943
0
LINE
8
0
10
13.632787
20
64.843943
11
13.807880
21
62.835644
0
LINE
8
0
10
13.807880
20
62.835644
11
13.899511
21
62.397610
0
LINE
8
0
10
13.899511
20
62.397610
11
14.595347
21
61.139662
0
LINE
8
0
10
14.595347
20
61.139662
11
17.414839
21
57.481754
0
LINE
8
0
10
17.414839
20
57.481754
11
19.191227
21
55.532328
0
LINE
8
0
10
19.191227
20
55.532328
11
21.025121
21
53.810114
0
LINE
8
0
10
21.025121
20
53.810114
11
25.308759
21
50.860907
0
LINE
8
0
10
25.308759
20
50.860907
11
30.668356
21
48.457736
0
LINE
8
0
10
30.668356
20
48.457736
11
37.409707
21
46.463487
0
LINE
8
0
10
37.409707
20
46.463487
11
41.394100
21
45.576860
0
LINE
8
0
10
41.394100
20
45.576860
11
43.990700
21
44.939904
0
LINE
8
0
10
43.990700
20
44.939904
11
47.969239
21
43.182936
0
LINE
8
0
10
47.969239
20
43.182936
11
50.565815
21
40.540072
0
LINE
8
0
10
50.565815
20
40.540072
11
52.065532
21
36.721126
0
LINE
8
0
10
52.065532
20
36.721126
11
52.493165
21
34.279938
0
LINE
8
0
10
52.493165
20
34.279938
11
53.187302
21
29.945691
0
LINE
8
0
10
53.187302
20
29.945691
11
55.253853
21
23.161564
0
LINE
8
0
10
55.253853
20
23.161564
11
58.468079
21
18.540100
0
LINE
8
0
10
58.468079
20
18.540100
11
63.121947
21
15.661503
0
LINE
8
0
10
63.121947
20
15.661503
11
66.079987
21
14.744594
0
LINE
8
0
10
66.079987
20
14.744594
11
66.791043
21
14.615140
0
LINE
8
0
10
66.791043
20
14.615140
11
69.164255
21
14.376057
0
LINE
8
0
10
69.164255
20
14.376057
11
72.769565
21
14.164340
0
LINE
8
0
10
72.769565
20
14.164340
11
77.563730
21
13.981109
0
LINE
8
0
10
77.563730
20
13.981109
11
83.503507
21
13.827480
0
LINE
8
0
10
83.503507
20
13.827480
11
90.545653
21
13.704574
0
LINE
8
0
10
90.545653
20
13.704574
11
103.081222
21
13.580264
0
LINE
8
0
10
103.081222
20
13.580264
11
112.690105
21
13.539055
0
LINE
8
0
10
112.690105
20
13.539055
11
119.307896
21
13.525780
0
LINE
8
0
10
119.307896
20
13.525780
11
130.467751
21
13.524155
0
LINE
8
0
10
130.467751
20
13.524155
11
139.155668
21
13.565913
0
LINE
8
0
10
139.155668
20
13.565913
11
145.726483
21
13.663235
0
LINE
8
0
10
145.726483
20
13.663235
11
150.535036
21
13.828302
0
LINE
8
0
10
150.535036
20
13.828302
11
153.936163
21
14.073294
0
LINE
8
0
10
153.936163
20
14.073294
11
157.175139
21
14.617288
0
LINE
8
0
10
157.175139
20
14.617288
11
158.610117
21
15.115385
0
LINE
8
0
10
158.610117
20
15.115385
11
160.269666
21
15.777842
0
LINE
8
0
10
160.269666
20
15.777842
11
163.349580
21
16.748556
0
LINE
8
0
10
163.349580
20
16.748556
11
164.390601
21
16.937252
0
LINE
8
0
10
164.390601
20
16.937252
11
165.348957
21
17.270830
0
LINE
8
0
10
165.348957
20
17.270830
11
167.870678
21
19.219861
0
LINE
8
0
10
167.870678
20
19.219861
11
169.123449
21
20.595256
0
LINE
8
0
10
169.123449
20
20.595256
11
170.639572
21
22.771528
0
LINE
8
0
10
170.639572
20
22.771528
11
172.034363
21
26.834098
0
LINE
8
0
10
172.034363
20
26.834098
11
172.692425
21
31.163861
0
LINE
8
0
10
172.692425
20
31.163861
11
173.020779
21
34.095256
0
LINE
8
0
10
173.020779
20
34.095256
11
173.131981
21
35.367482
0
LINE
8
0
10
173.131981
20
35.367482
11
173.317027
21
38.802448
0
LINE
8
0
10
173.317027
20
38.802448
11
173.505721
21
45.856640
0
LINE
8
0
10
173.505721
20
45.856640
11
173.604073
21
57.903429
0
LINE
8
0
10
173.604073
20
57.903429
11
173.544974
21
71.699407
0
LINE
8
0
10
173.544974
20
71.699407
11
173.347714
21
85.859857
0
LINE
8
0
10
173.347714
20
85.859857
11
173.031584
21
99.000061
0
LINE
8
0
10
173.031584
20
99.000061
11
172.615871
21
109.735301
0
LINE
8
0
10
172.615871
20
109.735301
11
172.250340
21
115.375479
0
LINE
8
0
10
172.250340
20
115.375479
11
171.985580
21
117.662840
0
LINE
8
0
10
171.985580
20
117.662840
11
171.847783
21
118.299784
0
LINE
8
0
10
171.847783
20
118.299784
11
171.216396
21
119.860340
0
LINE
8
0
10
171.216396
20
119.860340
11
169.176193
21
122.718412
0
LINE
8
0
10
169.176193
20
122.718412
11
164.669961
21
125.942373
0
LINE
8
0
10
164.669961
20
125.942373
11
161.088917
21
127.067488
0
LINE
8
0
10
161.088917
20
127.067488
11
158.861088
21
127.562834
0
LINE
8
0
10
158.861088
20
127.562834
11
156.936099
21
129.060031
0
LINE
8
0
10
156.936099
20
129.060031
11
155.985318
21
131.175290
0
LINE
8
0
10
155.985318
20
131.175290
11
155.452330
21
132.726031
0
LINE
8
0
10
155.452330
20
132.726031
11
154.841687
21
134.694408
0
LINE
8
0
10
154.841687
20
134.694408
11
154.178005
21
137.569742
0
LINE
8
0
10
154.178005
20
137.569742
11
154.206709
21
138.122552
0
LINE
8
0
10
154.206709
20
138.122552
11
154.994092
21
138.266095
0
LINE
8
0
10
154.994092
20
138.266095
11
158.759164
21
137.884218
0
LINE
8
0
10
158.759164
20
137.884218
11
163.571032
21
136.967383
0
LINE
8
0
10
163.571032
20
136.967383
11
167.181356
21
135.943981
0
LINE
8
0
10
167.181356
20
135.943981
11
167.833333
21
135.526189
0
LINE
8
0
10
167.833333
20
135.526189
11
168.440822
21
134.859716
0
LINE
8
0
10
168.440822
20
134.859716
11
169.433295
21
134.582510
0
LINE
8
0
10
169.433295
20
134.582510
11
170.631587
21
134.311499
0
LINE
8
0
10
170.631587
20
134.311499
11
173.759334
21
132.429178
0
LINE
8
0
10
173.759334
20
132.429178
11
177.151955
21
129.394820
0
LINE
8
0
10
177.151955
20
129.394820
11
179.957442
21
125.970463
0
LINE
8
0
10
179.957442
20
125.970463
11
180.873756
21
124.350171
0
LINE
8
0
10
180.873756
20
124.350171
11
182.089349
21
121.344708
0
LINE
8
0
10
182.089349
20
121.344708
11
183.433239
21
116.106208
0
LINE
8
0
10
183.433239
20
116.106208
11
184.053875
21
111.522172
0
LINE
8
0
10
184.053875
20
111.522172
11
184.489779
21
105.580907
0
LINE
8
0
10
184.489779
20
105.580907
11
184.771380
21
97.867671
0
LINE
8
0
10
184.771380
20
97.867671
11
184.929108
21
87.967723
0
LINE
8
0
10
184.929108
20
87.967723
11
184.993391
21
75.466318
0
LINE
8
0
10
184.993391
20
75.466318
11
185.000000
21
68.110463
0
LINE
8
0
10
185.000000
20
68.110463
11
185.000092
21
63.788545
0
LINE
8
0
10
185.000092
20
63.788545
11
184.995052
21
55.951735
0
LINE
8
0
10
184.995052
20
55.951735
11
184.945568
21
46.050645
0
LINE
8
0
10
184.945568
20
46.050645
11
184.720506
21
35.852588
0
LINE
8
0
10
184.720506
20
35.852588
11
184.200735
21
28.447744
0
LINE
8
0
10
184.200735
20
28.447744
11
183.263092
21
23.138759
0
LINE
8
0
10
183.263092
20
23.138759
11
181.784415
21
19.228281
0
LINE
8
0
10
181.784415
20
19.228281
11
178.282543
21
14.459302
0
LINE
8
0
10
178.282543
20
14.459302
11
174.912444
21
10.994169
0
LINE
8
0
10
174.912444
20
10.994169
11
172.287242
21
8.500916
0
LINE
8
0
10
172.287242
20
8.500916
11
168.780578
21
5.679054
0
LINE
8
0
10
168.780578
20
5.679054
11
167.123300
21
4.713011
0
LINE
8
0
10
167.123300
20
4.713011
11
166.599886
21
4.582510
0
LINE
8
0
10
166.599886
20
4.582510
11
164.409514
21
4.294043
0
LINE
8
0
10
164.409514
20
4.294043
11
158.343865
21
2.546074
0
LINE
8
0
10
158.343865
20
2.546074
11
155.763569
21
1.459754
0
LINE
8
0
10
155.763569
20
1.459754
11
155.337385
21
1.362770
0
LINE
8
0
10
155.337385
20
1.362770
11
153.205805
21
1.189589
0
LINE
8
0
10
153.205805
20
1.189589
11
149.556719
21
1.043847
0
LINE
8
0
10
149.556719
20
1.043847
11
144.615865
21
0.925210
0
LINE
8
0
10
144.615865
20
0.925210
11
135.276318
21
0.797345
0
LINE
8
0
10
135.276318
20
0.797345
11
120.409275
21
0.718605
0
LINE
8
0
10
120.409275
20
0.718605
11
104.438417
21
0.742264
0
LINE
8
0
10
104.438417
20
0.742264
11
89.169636
21
0.865649
0
LINE
8
0
10
89.169636
20
0.865649
11
79.265147
21
1.022022
0
LINE
8
0
10
79.265147
20
1.022022
11
73.822123
21
1.156042
0
LINE
8
0
10
73.822123
20
1.156042
11
69.570432
21
1.313488
0
LINE
8
0
10
69.570432
20
1.313488
11
66.735813
21
1.494026
0
LINE
8
0
10
66.735813
20
1.494026
11
65.920447
21
1.592850
0
LINE
8
0
10
220.000000
20
85.114629
11
220.000139
21
89.419783
0
LINE
8
0
10
220.000139
20
89.419783
11
220.005257
21
97.230907
0
LINE
8
0
10
220.005257
20
97.230907
11
220.045084
21
107.089927
0
LINE
8
0
10
220.045084
20
107.089927
11
220.214326
21
117.160473
0
LINE
8
0
10
220.214326
20
117.160473
11
220.594699
21
124.265661
0
LINE
8
0
10
220.594699
20
124.265661
11
221.271732
21
129.004088
0
LINE
8
0
10
221.271732
20
129.004088
11
222.330953
21
131.974352
0
LINE
8
0
10
222.330953
20
131.974352
11
224.823482
21
134.423871
0
LINE
8
0
10
224.823482
20
134.423871
11
227.212361
21
135.592588
0
LINE
8
0
10
227.212361
20
135.592588
11
228.710347
21
136.195661
0
LINE
8
0
10
228.710347
20
136.195661
11
232.814968
21
137.003400
0
LINE
8
0
10
232.814968
20
137.003400
11
238.294194
21
137.331462
0
LINE
8
0
10
238.294194
20
137.331462
11
243.771513
21
137.451658
0
LINE
8
0
10
243.771513
20
137.451658
11
251.132343
21
137.514041
0
LINE
8
0
10
251.132343
20
137.514041
11
260.740034
21
137.536609
0
LINE
8
0
10
260.740034
20
137.536609
11
266.500000
21
137.538586
0
LINE
8
0
10
266.500000
20
137.538586
11
271.022071
21
137.543372
0
LINE
8
0
10
271.022071
20
137.543372
11
279.178149
21
137.560709
0
LINE
8
0
10
279.178149
20
137.560709
11
289.346714
21
137.501359
0
LINE
8
0
10
289.346714
20
137.501359
11
299.482021
21
136.969557
0
LINE
8
0
10
299.482021
20
136.969557
11
306.310285
21
135.510670
0
LINE
8
0
10
306.310285
20
135.510670
11
310.491185
21
132.677702
0
LINE
8
0
10
310.491185
20
132.677702
11
312.684401
21
128.023655
0
LINE
8
0
10
312.684401
20
128.023655
11
313.549610
21
121.101534
0
LINE
8
0
10
313.549610
20
121.101534
11
313.746492
21
111.464340
0
LINE
8
0
10
313.746492
20
111.464340
11
313.800461
21
105.487904
0
LINE
8
0
10
313.800461
20
105.487904
11
313.847562
21
101.569473
0
LINE
8
0
10
313.847562
20
101.569473
11
313.905538
21
95.010434
0
LINE
8
0
10
313.905538
20
95.010434
11
313.902246
21
89.939202
0
LINE
8
0
10
313.902246
20
89.939202
11
313.822125
21
86.096627
0
LINE
8
0
10
313.822125
20
86.096627
11
313.523850
21
82.069608
0
LINE
8
0
10
313.523850
20
82.069608
11
312.712020
21
78.581819
0
LINE
8
0
10
312.712020
20
78.581819
11
312.093609
21
77.061225
0
LINE
8
0
10
312.093609
20
77.061225
11
310.918112
21
74.758612
0
LINE
8
0
10
310.918112
20
74.758612
11
307.979085
21
71.732883
0
LINE
8
0
10
307.979085
20
71.732883
11
305.793149
21
70.574898
0
LINE
8
0
10
305.793149
20
70.574898
11
304.296789
21
69.971902
0
LINE
8
0
10
304.296789
20
69.971902
11
300.227883
21
69.162176
0
LINE
8
0
10
300.227883
20
69.162176
11
294.840001
21
68.830322
0
LINE
8
0
10
294.840001
20
68.830322
11
289.471537
21
68.706301
0
LINE
8
0
10
289.471537
20
68.706301
11
282.268642
21
68.638926
0
LINE
8
0
10
282.268642
20
68.638926
11
272.877149
21
68.610094
0
LINE
8
0
10
272.877149
20
68.610094
11
267.250000
21
68.604472
0
LINE
8
0
10
267.250000
20
68.604472
11
233.000000
21
68.582510
0
LINE
8
0
10
233.000000
20
68.582510
11
233.000000
21
57.282510
0
LINE
8
0
10
233.000000
20
57.282510
11
232.980911
21
54.637315
0
LINE
8
0
10
232.980911
20
54.637315
11
232.829072
21
50.259824
0
LINE
8
0
10
232.829072
20
50.259824
11
232.527620
21
47.119701
0
LINE
8
0
10
232.527620
20
47.119701
11
232.078879
21
45.241141
0
LINE
8
0
10
232.078879
20
45.241141
11
231.800000
21
44.782510
0
LINE
8
0
10
231.800000
20
44.782510
11
230.915859
21
44.316573
0
LINE
8
0
10
230.915859
20
44.316573
11
227.452578
21
43.677198
0
LINE
8
0
10
227.452578
20
43.677198
11
225.300000
21
43.582510
0
LINE
8
0
10
225.300000
20
43.582510
11
220.000000
21
43.582510
0
LINE
8
0
10
220.000000
20
43.582510
11
220.000000
21
85.114629
0
LINE
8
0
10
703.014742
20
85.832510
11
703.018568
21
93.826217
0
LINE
8
0
10
703.018568
20
93.826217
11
703.054978
21
106.896671
0
LINE
8
0
10
703.054978
20
106.896671
11
703.182240
21
116.564160
0
LINE
8
0
10
703.182240
20
116.564160
11
703.463362
21
123.412266
0
LINE
8
0
10
703.463362
20
123.412266
11
703.961355
21
128.024568
0
LINE
8
0
10
703.961355
20
128.024568
11
704.739227
21
130.984647
0
LINE
8
0
10
704.739227
20
130.984647
11
706.568643
21
133.603428
0
LINE
8
0
10
706.568643
20
133.603428
11
708.321881
21
134.986111
0
LINE
8
0
10
708.321881
20
134.986111
11
709.349147
21
135.659071
0
LINE
8
0
10
709.349147
20
135.659071
11
711.562732
21
136.381094
0
LINE
8
0
10
711.562732
20
136.381094
11
714.100209
21
136.707488
0
LINE
8
0
10
714.100209
20
136.707488
11
717.977725
21
136.939243
0
LINE
8
0
10
717.977725
20
136.939243
11
723.615825
21
137.101495
0
LINE
8
0
10
723.615825
20
137.101495
11
731.435056
21
137.219379
0
LINE
8
0
10
731.435056
20
137.219379
11
741.855963
21
137.318031
0
LINE
8
0
10
741.855963
20
137.318031
11
748.173465
21
137.367999
0
LINE
8
0
10
748.173465
20
137.367999
11
785.203169
21
137.653489
0
LINE
8
0
10
785.203169
20
137.653489
11
789.583192
21
135.086624
0
LINE
8
0
10
789.583192
20
135.086624
11
791.364231
21
133.939809
0
LINE
8
0
10
791.364231
20
133.939809
11
794.240574
21
131.558272
0
LINE
8
0
10
794.240574
20
131.558272
11
794.981608
21
130.616876
0
LINE
8
0
10
794.981608
20
130.616876
11
795.201374
21
129.750767
0
LINE
8
0
10
795.201374
20
129.750767
11
795.573232
21
125.582215
0
LINE
8
0
10
795.573232
20
125.582215
11
795.839414
21
118.571968
0
LINE
8
0
10
795.839414
20
118.571968
11
795.981385
21
109.208125
0
LINE
8
0
10
795.981385
20
109.208125
11
796.000000
21
103.796135
0
LINE
8
0
10
796.000000
20
103.796135
11
795.998804
21
99.512970
0
LINE
8
0
10
795.998804
20
99.512970
11
795.979985
21
92.450058
0
LINE
8
0
10
795.979985
20
92.450058
11
795.918701
21
87.136481
0
LINE
8
0
10
795.918701
20
87.136481
11
795.790278
21
83.265974
0
LINE
8
0
10
795.790278
20
83.265974
11
795.417788
21
79.496016
0
LINE
8
0
10
795.417788
20
79.496016
11
794.455863
21
76.661680
0
LINE
8
0
10
794.455863
20
76.661680
11
793.719985
21
75.494962
0
LINE
8
0
10
793.719985
20
75.494962
11
792.336708
21
73.552649
0
LINE
8
0
10
792.336708
20
73.552649
11
789.872399
21
71.522724
0
LINE
8
0
10
789.872399
20
71.522724
11
787.242975
21
70.657519
0
LINE
8
0
10
787.242975
20
70.657519
11
783.242747
21
70.102017
0
LINE
8
0
10
783.242747
20
70.102017
11
777.373230
21
69.786993
0
LINE
8
0
10
777.373230
20
69.786993
11
769.135940
21
69.643225
0
LINE
8
0
10
769.135940
20
69.643225
11
758.032395
21
69.601490
0
LINE
8
0
10
758.032395
20
69.601490
11
751.250000
21
69.597252
0
LINE
8
0
10
751.250000
20
69.597252
11
716.000000
21
69.582510
0
LINE
8
0
10
716.000000
20
69.582510
11
716.000000
21
58.516769
0
LINE
8
0
10
716.000000
20
58.516769
11
715.993240
21
56.034227
0
LINE
8
0
10
715.993240
20
56.034227
11
715.911954
21
51.922490
0
LINE
8
0
10
715.911954
20
51.922490
11
715.484557
21
47.618614
0
LINE
8
0
10
715.484557
20
47.618614
11
713.963556
21
44.604086
0
LINE
8
0
10
713.963556
20
44.604086
11
710.823440
21
43.648083
0
LINE
8
0
10
710.823440
20
43.648083
11
708.464816
21
43.582510
0
LINE
8
0
10
708.464816
20
43.582510
11
703.000000
21
43.582510
0
LINE
8
0
10
703.000000
20
43.582510
11
703.014742
21
85.832510
0
LINE
8
0
10
840.500000
20
70.444004
11
837.827628
21
71.717653
0
LINE
8
0
10
837.827628
20
71.717653
11
834.397642
21
74.602736
0
LINE
8
0
10
834.397642
20
74.602736
11
833.097928
21
78.593491
0
LINE
8
0
10
833.097928
20
78.593491
11
832.645803
21
82.853196
0
LINE
8
0
10
832.645803
20
82.853196
11
832.405859
21
88.846005
0
LINE
8
0
10
832.405859
20
88.846005
11
832.275839
21
96.960840
0
LINE
8
0
10
832.275839
20
96.960840
11
832.220095
21
101.935555
0
LINE
8
0
10
832.220095
20
101.935555
11
832.121662
21
108.616582
0
LINE
8
0
10
832.121662
20
108.616582
11
832.057014
21
119.377738
0
LINE
8
0
10
832.057014
20
119.377738
11
832.714378
21
127.091372
0
LINE
8
0
10
832.714378
20
127.091372
11
834.748615
21
132.261887
0
LINE
8
0
10
834.748615
20
132.261887
11
838.814588
21
135.393690
0
LINE
8
0
10
838.814588
20
135.393690
11
845.567160
21
136.991188
0
LINE
8
0
10
845.567160
20
136.991188
11
852.788611
21
137.485855
0
LINE
8
0
10
852.788611
20
137.485855
11
858.783549
21
137.598874
0
LINE
8
0
10
858.783549
20
137.598874
11
865.818496
21
137.612045
0
LINE
8
0
10
865.818496
20
137.612045
11
873.975311
21
137.588419
0
LINE
8
0
10
873.975311
20
137.588419
11
878.500000
21
137.582510
0
LINE
8
0
10
878.500000
20
137.582510
11
883.027922
21
137.587539
0
LINE
8
0
10
883.027922
20
137.587539
11
891.193542
21
137.606243
0
LINE
8
0
10
891.193542
20
137.606243
11
898.241098
21
137.588627
0
LINE
8
0
10
898.241098
20
137.588627
11
904.253266
21
137.477276
0
LINE
8
0
10
904.253266
20
137.477276
11
911.511022
21
137.008900
0
LINE
8
0
10
911.511022
20
137.008900
11
918.335825
21
135.520450
0
LINE
8
0
10
918.335825
20
135.520450
11
922.507267
21
132.623585
0
LINE
8
0
10
922.507267
20
132.623585
11
924.686764
21
127.858981
0
LINE
8
0
10
924.686764
20
127.858981
11
925.535735
21
120.767316
0
LINE
8
0
10
925.535735
20
120.767316
11
925.715596
21
110.889266
0
LINE
8
0
10
925.715596
20
110.889266
11
925.761304
21
104.761809
0
LINE
8
0
10
925.761304
20
104.761809
11
925.804839
21
100.701235
0
LINE
8
0
10
925.804839
20
100.701235
11
925.859366
21
93.995670
0
LINE
8
0
10
925.859366
20
93.995670
11
925.852622
21
88.930889
0
LINE
8
0
10
925.852622
20
88.930889
11
925.763147
21
85.210903
0
LINE
8
0
10
925.763147
20
85.210903
11
925.426868
21
81.504931
0
LINE
8
0
10
925.426868
20
81.504931
11
924.488641
21
78.507831
0
LINE
8
0
10
924.488641
20
78.507831
11
923.761304
21
77.176527
0
LINE
8
0
10
923.761304
20
77.176527
11
921.335349
21
73.802809
0
LINE
8
0
10
921.335349
20
73.802809
11
918.678180
21
71.176527
0
LINE
8
0
10
918.678180
20
71.176527
11
917.654513
21
70.505272
0
LINE
8
0
10
917.654513
20
70.505272
11
915.479470
21
69.785748
0
LINE
8
0
10
915.479470
20
69.785748
11
913.013303
21
69.461772
0
LINE
8
0
10
913.013303
20
69.461772
11
909.262403
21
69.233670
0
LINE
8
0
10
909.262403
20
69.233670
11
903.822351
21
69.076846
0
LINE
8
0
10
903.822351
20
69.076846
11
896.288728
21
68.966708
0
LINE
8
0
10
896.288728
20
68.966708
11
886.257114
21
68.878660
0
LINE
8
0
10
886.257114
20
68.878660
11
880.178180
21
68.835235
0
LINE
8
0
10
880.178180
20
68.835235
11
874.341627
21
68.796821
0
LINE
8
0
10
874.341627
20
68.796821
11
864.594045
21
68.751945
0
LINE
8
0
10
864.594045
20
68.751945
11
857.114927
21
68.761792
0
LINE
8
0
10
857.114927
20
68.761792
11
851.545591
21
68.840904
0
LINE
8
0
10
851.545591
20
68.840904
11
847.527357
21
69.003825
0
LINE
8
0
10
847.527357
20
69.003825
11
844.701543
21
69.265098
0
LINE
8
0
10
844.701543
20
69.265098
11
841.913994
21
69.873228
0
LINE
8
0
10
841.913994
20
69.873228
11
840.500000
21
70.444004
0
LINE
8
0
10
331.216228
20
70.570700
11
329.072172
21
71.710127
0
LINE
8
0
10
329.072172
20
71.710127
11
326.127617
21
74.654682
0
LINE
8
0
10
326.127617
20
74.654682
11
324.988190
21
76.798738
0
LINE
8
0
10
324.988190
20
76.798738
11
324.401352
21
78.237149
0
LINE
8
0
10
324.401352
20
78.237149
11
323.601134
21
81.763998
0
LINE
8
0
10
323.601134
20
81.763998
11
323.263864
21
85.906456
0
LINE
8
0
10
323.263864
20
85.906456
11
323.133784
21
89.823272
0
LINE
8
0
10
323.133784
20
89.823272
11
323.060588
21
94.939355
0
LINE
8
0
10
323.060588
20
94.939355
11
323.028052
21
101.490526
0
LINE
8
0
10
323.028052
20
101.490526
11
323.021962
21
105.377965
0
LINE
8
0
10
323.021962
20
105.377965
11
323.000000
21
129.673419
0
LINE
8
0
10
323.000000
20
129.673419
11
325.509571
21
132.182990
0
LINE
8
0
10
325.509571
20
132.182990
11
327.369936
21
133.914821
0
LINE
8
0
10
327.369936
20
133.914821
11
330.526062
21
135.750093
0
LINE
8
0
10
330.526062
20
135.750093
11
333.560113
21
136.548564
0
LINE
8
0
10
333.560113
20
136.548564
11
337.887135
21
137.073616
0
LINE
8
0
10
337.887135
20
137.073616
11
343.977699
21
137.382350
0
LINE
8
0
10
343.977699
20
137.382350
11
352.302374
21
137.531865
0
LINE
8
0
10
352.302374
20
137.531865
11
363.331732
21
137.579262
0
LINE
8
0
10
363.331732
20
137.579262
11
370.007719
21
137.582510
0
LINE
8
0
10
370.007719
20
137.582510
11
375.832339
21
137.580707
0
LINE
8
0
10
375.832339
20
137.580707
11
385.519341
21
137.559204
0
LINE
8
0
10
385.519341
20
137.559204
11
392.900706
21
137.498103
0
LINE
8
0
10
392.900706
20
137.498103
11
398.349254
21
137.378520
0
LINE
8
0
10
398.349254
20
137.378520
11
402.237804
21
137.181574
0
LINE
8
0
10
402.237804
20
137.181574
11
404.939174
21
136.888382
0
LINE
8
0
10
404.939174
20
136.888382
11
407.580809
21
136.226827
0
LINE
8
0
10
407.580809
20
136.226827
11
408.945312
21
135.610410
0
LINE
8
0
10
408.945312
20
135.610410
11
411.295305
21
134.312207
0
LINE
8
0
10
411.295305
20
134.312207
11
414.560567
21
131.572228
0
LINE
8
0
10
414.560567
20
131.572228
11
416.287655
21
127.828373
0
LINE
8
0
10
416.287655
20
127.828373
11
416.926318
21
122.105706
0
LINE
8
0
10
416.926318
20
122.105706
11
416.978038
21
118.197651
0
LINE
8
0
10
416.978038
20
118.197651
11
416.950402
21
115.501141
0
LINE
8
0
10
416.950402
20
115.501141
11
416.747911
21
111.133615
0
LINE
8
0
10
416.747911
20
111.133615
11
415.980774
21
106.428685
0
LINE
8
0
10
415.980774
20
106.428685
11
415.086252
21
103.965010
0
LINE
8
0
10
415.086252
20
103.965010
11
413.923581
21
101.460388
0
LINE
8
0
10
413.923581
20
101.460388
11
411.825782
21
98.876791
0
LINE
8
0
10
411.825782
20
98.876791
11
409.389568
21
97.798340
0
LINE
8
0
10
409.389568
20
97.798340
11
405.481752
21
97.124425
0
LINE
8
0
10
405.481752
20
97.124425
11
399.552512
21
96.760228
0
LINE
8
0
10
399.552512
20
96.760228
11
391.052030
21
96.610932
0
LINE
8
0
10
391.052030
20
96.610932
11
379.430484
21
96.581717
0
LINE
8
0
10
379.430484
20
96.581717
11
372.277494
21
96.582510
0
LINE
8
0
10
372.277494
20
96.582510
11
336.000000
21
96.582510
0
LINE
8
0
10
336.000000
20
96.582510
11
336.000000
21
92.193294
0
LINE
8
0
10
336.000000
20
92.193294
11
336.125279
21
90.158740
0
LINE
8
0
10
336.125279
20
90.158740
11
337.092220
21
86.742170
0
LINE
8
0
10
337.092220
20
86.742170
11
337.910352
21
85.443294
0
LINE
8
0
10
337.910352
20
85.443294
11
339.820704
21
83.082510
0
LINE
8
0
10
339.820704
20
83.082510
11
375.160352
21
82.582510
0
LINE
8
0
10
375.160352
20
82.582510
11
382.284855
21
82.465558
0
LINE
8
0
10
382.284855
20
82.465558
11
395.097836
21
82.164803
0
LINE
8
0
10
395.097836
20
82.164803
11
402.860133
21
81.901880
0
LINE
8
0
10
402.860133
20
81.901880
11
406.873874
21
81.718877
0
LINE
8
0
10
406.873874
20
81.718877
11
409.783629
21
81.535960
0
LINE
8
0
10
409.783629
20
81.535960
11
411.439324
21
81.358500
0
LINE
8
0
10
411.439324
20
81.358500
11
411.750000
21
81.273493
0
LINE
8
0
10
411.750000
20
81.273493
11
412.269712
21
80.522784
0
LINE
8
0
10
412.269712
20
80.522784
11
412.912821
21
77.049998
0
LINE
8
0
10
412.912821
20
77.049998
11
413.000000
21
74.523493
0
LINE
8
0
10
413.000000
20
74.523493
11
413.000000
21
68.582510
0
LINE
8
0
10
413.000000
20
68.582510
11
374.250000
21
68.604472
0
LINE
8
0
10
374.250000
20
68.604472
11
367.842256
21
68.609972
0
LINE
8
0
10
367.842256
20
68.609972
11
357.172832
21
68.637827
0
LINE
8
0
10
357.172832
20
68.637827
11
349.026975
21
68.703590
0
LINE
8
0
10
349.026975
20
68.703590
11
342.999262
21
68.825787
0
LINE
8
0
10
342.999262
20
68.825787
11
338.684273
21
69.022940
0
LINE
8
0
10
338.684273
20
69.022940
11
335.676586
21
69.313574
0
LINE
8
0
10
335.676586
20
69.313574
11
332.729384
21
69.965322
0
LINE
8
0
10
332.729384
20
69.965322
11
331.216228
21
70.570700
0
LINE
8
0
10
602.401269
20
71.479558
11
600.496890
21
72.836297
0
LINE
8
0
10
600.496890
20
72.836297
11
597.882004
21
76.680633
0
LINE
8
0
10
597.882004
20
76.680633
11
596.770651
21
81.572613
0
LINE
8
0
10
596.770651
20
81.572613
11
596.341648
21
86.275818
0
LINE
8
0
10
596.341648
20
86.275818
11
596.104439
21
92.434524
0
LINE
8
0
10
596.104439
20
92.434524
11
596.009543
21
100.307584
0
LINE
8
0
10
596.009543
20
100.307584
11
596.000000
21
104.967888
0
LINE
8
0
10
596.000000
20
104.967888
11
596.001450
21
108.930720
0
LINE
8
0
10
596.001450
20
108.930720
11
596.021487
21
115.484255
0
LINE
8
0
10
596.021487
20
115.484255
11
596.083126
21
120.433736
0
LINE
8
0
10
596.083126
20
120.433736
11
596.208871
21
124.049705
0
LINE
8
0
10
596.208871
20
124.049705
11
596.566913
21
127.565136
0
LINE
8
0
10
596.566913
20
127.565136
11
597.478702
21
130.110151
0
LINE
8
0
10
597.478702
20
130.110151
11
598.171401
21
131.073282
0
LINE
8
0
10
598.171401
20
131.073282
11
600.903042
21
133.567022
0
LINE
8
0
10
600.903042
20
133.567022
11
604.421401
21
135.686179
0
LINE
8
0
10
604.421401
20
135.686179
11
605.864281
21
136.251861
0
LINE
8
0
10
605.864281
20
136.251861
11
608.742034
21
136.866309
0
LINE
8
0
10
608.742034
20
136.866309
11
611.644160
21
137.143462
0
LINE
8
0
10
611.644160
20
137.143462
11
615.739583
21
137.333488
0
LINE
8
0
10
615.739583
20
137.333488
11
621.376649
21
137.452549
0
LINE
8
0
10
621.376649
20
137.452549
11
628.903700
21
137.516810
0
LINE
8
0
10
628.903700
20
137.516810
11
638.669080
21
137.542433
0
LINE
8
0
10
638.669080
20
137.542433
11
644.500000
21
137.545806
0
LINE
8
0
10
644.500000
20
137.545806
11
651.315314
21
137.545469
0
LINE
8
0
10
651.315314
20
137.545469
11
662.492892
21
137.511389
0
LINE
8
0
10
662.492892
20
137.511389
11
670.809564
21
137.382432
0
LINE
8
0
10
670.809564
20
137.382432
11
676.757125
21
137.098195
0
LINE
8
0
10
676.757125
20
137.098195
11
680.827367
21
136.598273
0
LINE
8
0
10
680.827367
20
136.598273
11
683.512083
21
135.822262
0
LINE
8
0
10
683.512083
20
135.822262
11
686.017092
21
134.008448
0
LINE
8
0
10
686.017092
20
134.008448
11
687.389587
21
132.277950
0
LINE
8
0
10
687.389587
20
132.277950
11
688.461433
21
130.434617
0
LINE
8
0
10
688.461433
20
130.434617
11
689.387233
21
126.339067
0
LINE
8
0
10
689.387233
20
126.339067
11
689.717291
21
121.796169
0
LINE
8
0
10
689.717291
20
121.796169
11
689.839250
21
118.742977
0
LINE
8
0
10
689.839250
20
118.742977
11
689.925027
21
114.080795
0
LINE
8
0
10
689.925027
20
114.080795
11
689.451655
21
107.118136
0
LINE
8
0
10
689.451655
20
107.118136
11
687.872879
21
102.602180
0
LINE
8
0
10
687.872879
20
102.602180
11
684.894097
21
99.690238
0
LINE
8
0
10
684.894097
20
99.690238
11
682.787639
21
98.572432
0
LINE
8
0
10
682.787639
20
98.572432
11
681.290625
21
97.969933
0
LINE
8
0
10
681.290625
20
97.969933
11
677.193974
21
97.161091
0
LINE
8
0
10
677.193974
20
97.161091
11
671.741690
21
96.829764
0
LINE
8
0
10
671.741690
20
96.829764
11
666.299788
21
96.706008
0
LINE
8
0
10
666.299788
20
96.706008
11
658.992990
21
96.638820
0
LINE
8
0
10
658.992990
20
96.638820
11
649.461930
21
96.610083
0
LINE
8
0
10
649.461930
20
96.610083
11
643.750000
21
96.604472
0
LINE
8
0
10
643.750000
20
96.604472
11
609.000000
21
96.582510
0
LINE
8
0
10
609.000000
20
96.582510
11
609.000000
21
93.032850
0
LINE
8
0
10
609.000000
20
93.032850
11
609.383492
21
89.879153
0
LINE
8
0
10
609.383492
20
89.879153
11
611.086069
21
85.615869
0
LINE
8
0
10
611.086069
20
85.615869
11
612.682641
21
83.712462
0
LINE
8
0
10
612.682641
20
83.712462
11
613.544802
21
83.203691
0
LINE
8
0
10
613.544802
20
83.203691
11
613.883417
21
83.140413
0
LINE
8
0
10
613.883417
20
83.140413
11
615.536730
21
83.019498
0
LINE
8
0
10
615.536730
20
83.019498
11
620.186953
21
82.857007
0
LINE
8
0
10
620.186953
20
82.857007
11
629.682515
21
82.688972
0
LINE
8
0
10
629.682515
20
82.688972
11
641.888269
21
82.595188
0
LINE
8
0
10
641.888269
20
82.595188
11
648.647529
21
82.582510
0
LINE
8
0
10
648.647529
20
82.582510
11
656.197065
21
82.564872
0
LINE
8
0
10
656.197065
20
82.564872
11
668.834418
21
82.427533
0
LINE
8
0
10
668.834418
20
82.427533
11
677.903474
21
82.162468
0
LINE
8
0
10
677.903474
20
82.162468
11
682.157113
21
81.885883
0
LINE
8
0
10
682.157113
20
81.885883
11
683.699026
21
81.666803
0
LINE
8
0
10
683.699026
20
81.666803
11
684.065741
21
81.547326
0
LINE
8
0
10
684.065741
20
81.547326
11
685.021916
21
80.797580
0
LINE
8
0
10
685.021916
20
80.797580
11
685.915754
21
77.793870
0
LINE
8
0
10
685.915754
20
77.793870
11
686.000000
21
75.047326
0
LINE
8
0
10
686.000000
20
75.047326
11
686.000000
21
69.582510
0
LINE
8
0
10
686.000000
20
69.582510
11
645.750000
21
69.586248
0
LINE
8
0
10
645.750000
20
69.586248
11
639.081927
21
69.588642
0
LINE
8
0
10
639.081927
20
69.588642
11
627.998023
21
69.610599
0
LINE
8
0
10
627.998023
20
69.610599
11
619.574170
21
69.670423
0
LINE
8
0
10
619.574170
20
69.670423
11
613.398840
21
69.786089
0
LINE
8
0
10
613.398840
20
69.786089
11
609.060507
21
69.975571
0
LINE
8
0
10
609.060507
20
69.975571
11
606.147644
21
70.256843
0
LINE
8
0
10
606.147644
20
70.256843
11
603.550889
21
70.890175
0
LINE
8
0
10
603.550889
20
70.890175
11
602.401269
21
71.479558
0
LINE
8
0
10
500.218183
20
70.245593
11
497.248808
21
72.301453
0
LINE
8
0
10
497.248808
20
72.301453
11
494.718183
21
74.972823
0
LINE
8
0
10
494.718183
20
74.972823
11
494.012642
21
76.050114
0
LINE
8
0
10
494.012642
20
76.050114
11
493.066228
21
78.804423
0
LINE
8
0
10
493.066228
20
78.804423
11
492.662947
21
82.482840
0
LINE
8
0
10
492.662947
20
82.482840
11
492.492412
21
86.221121
0
LINE
8
0
10
492.492412
20
86.221121
11
492.370888
21
91.310553
0
LINE
8
0
10
492.370888
20
91.310553
11
492.272963
21
98.027434
0
LINE
8
0
10
492.272963
20
98.027434
11
492.224909
21
102.082510
0
LINE
8
0
10
492.224909
20
102.082510
11
492.175824
21
106.923521
0
LINE
8
0
10
492.175824
20
106.923521
11
492.163033
21
114.969335
0
LINE
8
0
10
492.163033
20
114.969335
11
492.323636
21
121.105468
0
LINE
8
0
10
492.323636
20
121.105468
11
492.729099
21
125.658238
0
LINE
8
0
10
492.729099
20
125.658238
11
493.952736
21
130.232409
0
LINE
8
0
10
493.952736
20
130.232409
11
497.108278
21
133.835168
0
LINE
8
0
10
497.108278
20
133.835168
11
499.500000
21
135.300990
0
LINE
8
0
10
499.500000
20
135.300990
11
500.904594
21
136.037455
0
LINE
8
0
10
500.904594
20
136.037455
11
503.501526
21
136.810509
0
LINE
8
0
10
503.501526
20
136.810509
11
506.303693
21
137.142450
0
LINE
8
0
10
506.303693
20
137.142450
11
510.557910
21
137.357782
0
LINE
8
0
10
510.557910
20
137.357782
11
516.774476
21
137.482334
0
LINE
8
0
10
516.774476
20
137.482334
11
525.463689
21
137.541936
0
LINE
8
0
10
525.463689
20
137.541936
11
537.135848
21
137.562418
0
LINE
8
0
10
537.135848
20
137.562418
11
544.250000
21
137.566060
0
LINE
8
0
10
544.250000
20
137.566060
11
585.000000
21
137.582510
0
LINE
8
0
10
585.000000
20
137.582510
11
585.000000
21
132.204955
0
LINE
8
0
10
585.000000
20
132.204955
11
584.905144
21
129.691670
0
LINE
8
0
10
584.905144
20
129.691670
11
584.096054
21
126.385108
0
LINE
8
0
10
584.096054
20
126.385108
11
583.348329
21
125.454955
0
LINE
8
0
10
583.348329
20
125.454955
11
582.520635
21
125.078868
0
LINE
8
0
10
582.520635
20
125.078868
11
579.753375
21
124.619061
0
LINE
8
0
10
579.753375
20
124.619061
11
576.648607
21
124.370092
0
LINE
8
0
10
576.648607
20
124.370092
11
572.341672
21
124.157598
0
LINE
8
0
10
572.341672
20
124.157598
11
566.666093
21
123.973363
0
LINE
8
0
10
566.666093
20
123.973363
11
559.455391
21
123.809174
0
LINE
8
0
10
559.455391
20
123.809174
11
550.543089
21
123.656818
0
LINE
8
0
10
550.543089
20
123.656818
11
545.396814
21
123.582510
0
LINE
8
0
10
545.396814
20
123.582510
11
540.665949
21
123.513464
0
LINE
8
0
10
540.665949
20
123.513464
11
532.277870
21
123.366005
0
LINE
8
0
10
532.277870
20
123.366005
11
525.260500
21
123.203310
0
LINE
8
0
10
525.260500
20
123.203310
11
519.540852
21
123.022082
0
LINE
8
0
10
519.540852
20
123.022082
11
515.045938
21
122.819023
0
LINE
8
0
10
515.045938
20
122.819023
11
511.702772
21
122.590837
0
LINE
8
0
10
511.702772
20
122.590837
11
508.687891
21
122.194231
0
LINE
8
0
10
508.687891
20
122.194231
11
507.904775
21
121.888800
0
LINE
8
0
10
507.904775
20
121.888800
11
507.601019
21
121.290367
0
LINE
8
0
10
507.601019
20
121.290367
11
507.062741
21
118.596013
0
LINE
8
0
10
507.062741
20
118.596013
11
506.459274
21
111.836353
0
LINE
8
0
10
506.459274
20
111.836353
11
506.121774
21
100.621286
0
LINE
8
0
10
506.121774
20
100.621286
11
506.291005
21
92.951387
0
LINE
8
0
10
506.291005
20
92.951387
11
506.635813
21
89.216761
0
LINE
8
0
10
506.635813
20
89.216761
11
506.883985
21
87.968157
0
LINE
8
0
10
506.883985
20
87.968157
11
507.256438
21
86.664340
0
LINE
8
0
10
507.256438
20
86.664340
11
508.010233
21
84.903554
0
LINE
8
0
10
508.010233
20
84.903554
11
509.160883
21
83.954272
0
LINE
8
0
10
509.160883
20
83.954272
11
511.170389
21
83.435346
0
LINE
8
0
10
511.170389
20
83.435346
11
512.641589
21
83.218157
0
LINE
8
0
10
512.641589
20
83.218157
11
513.281521
21
83.153406
0
LINE
8
0
10
513.281521
20
83.153406
11
515.474693
21
83.029675
0
LINE
8
0
10
515.474693
20
83.029675
11
520.763739
21
82.863399
0
LINE
8
0
10
520.763739
20
82.863399
11
530.752660
21
82.691452
0
LINE
8
0
10
530.752660
20
82.691452
11
542.987310
21
82.595484
0
LINE
8
0
10
542.987310
20
82.595484
11
549.568143
21
82.582510
0
LINE
8
0
10
549.568143
20
82.582510
11
556.076099
21
82.584789
0
LINE
8
0
10
556.076099
20
82.584789
11
566.605933
21
82.560106
0
LINE
8
0
10
566.605933
20
82.560106
11
574.215199
21
82.401072
0
LINE
8
0
10
574.215199
20
82.401072
11
579.376936
21
81.993255
0
LINE
8
0
10
579.376936
20
81.993255
11
582.564185
21
81.222217
0
LINE
8
0
10
582.564185
20
81.222217
11
584.249988
21
79.973526
0
LINE
8
0
10
584.249988
20
79.973526
11
584.998258
21
76.954561
0
LINE
8
0
10
584.998258
20
76.954561
11
585.000000
21
74.011081
0
LINE
8
0
10
585.000000
20
74.011081
11
585.000000
21
68.582510
0
LINE
8
0
10
585.000000
20
68.582510
11
544.250000
21
68.605280
0
LINE
8
0
10
544.250000
20
68.605280
11
537.938610
21
68.611493
0
LINE
8
0
10
537.938610
20
68.611493
11
527.253284
21
68.643305
0
LINE
8
0
10
527.253284
20
68.643305
11
518.887796
21
68.710779
0
LINE
8
0
10
518.887796
20
68.710779
11
512.526029
21
68.825691
0
LINE
8
0
10
512.526029
20
68.825691
11
507.851863
21
68.999817
0
LINE
8
0
10
507.851863
20
68.999817
11
504.549180
21
69.244934
0
LINE
8
0
10
504.549180
20
69.244934
11
501.475177
21
69.771478
0
LINE
8
0
10
501.475177
20
69.771478
11
500.218183
21
70.245593
0
LINE
8
0
10
427.000000
20
99.005785
11
427.000000
21
128.429059
0
LINE
8
0
10
427.000000
20
128.429059
11
429.703309
21
131.641759
0
LINE
8
0
10
429.703309
20
131.641759
11
431.374672
21
133.472142
0
LINE
8
0
10
431.374672
20
133.472142
11
435.192243
21
135.932342
0
LINE
8
0
10
435.192243
20
135.932342
11
439.564560
21
136.938185
0
LINE
8
0
10
439.564560
20
136.938185
11
443.718862
21
137.309643
0
LINE
8
0
10
443.718862
20
137.309643
11
449.188748
21
137.504391
0
LINE
8
0
10
449.188748
20
137.504391
11
456.251971
21
137.576065
0
LINE
8
0
10
456.251971
20
137.576065
11
460.467881
21
137.582510
0
LINE
8
0
10
460.467881
20
137.582510
11
482.000000
21
137.582510
0
LINE
8
0
10
482.000000
20
137.582510
11
481.984687
21
132.332510
0
LINE
8
0
10
481.984687
20
132.332510
11
481.960045
21
129.561471
0
LINE
8
0
10
481.960045
20
129.561471
11
481.055771
21
126.011975
0
LINE
8
0
10
481.055771
20
126.011975
11
478.628777
21
124.656374
0
LINE
8
0
10
478.628777
20
124.656374
11
475.701516
21
124.166703
0
LINE
8
0
10
475.701516
20
124.166703
11
471.430346
21
123.878805
0
LINE
8
0
10
471.430346
20
123.878805
11
465.561131
21
123.681698
0
LINE
8
0
10
465.561131
20
123.681698
11
461.947837
21
123.582510
0
LINE
8
0
10
461.947837
20
123.582510
11
457.762652
21
123.486931
0
LINE
8
0
10
457.762652
20
123.486931
11
451.047171
21
123.309814
0
LINE
8
0
10
451.047171
20
123.309814
11
446.266667
21
122.808996
0
LINE
8
0
10
446.266667
20
122.808996
11
443.095285
21
121.573572
0
LINE
8
0
10
443.095285
20
121.573572
11
441.207172
21
119.192635
0
LINE
8
0
10
441.207172
20
119.192635
11
440.276473
21
115.255279
0
LINE
8
0
10
440.276473
20
115.255279
11
439.977335
21
109.350598
0
LINE
8
0
10
439.977335
20
109.350598
11
439.983904
21
101.067686
0
LINE
8
0
10
439.983904
20
101.067686
11
440.000000
21
95.905985
0
LINE
8
0
10
440.000000
20
95.905985
11
439.981171
21
91.010894
0
LINE
8
0
10
439.981171
20
91.010894
11
439.837367
21
82.535404
0
LINE
8
0
10
439.837367
20
82.535404
11
439.567197
21
76.170131
0
LINE
8
0
10
439.567197
20
76.170131
11
439.188860
21
72.343825
0
LINE
8
0
10
439.188860
20
72.343825
11
438.964816
21
71.516769
0
LINE
8
0
10
438.964816
20
71.516769
11
438.215070
21
70.560594
0
LINE
8
0
10
438.215070
20
70.560594
11
435.211360
21
69.666756
0
LINE
8
0
10
435.211360
20
69.666756
11
432.464816
21
69.582510
0
LINE
8
0
10
432.464816
20
69.582510
11
427.000000
21
69.582510
0
LINE
8
0
10
427.000000
20
69.582510
11
427.000000
21
99.005785
0
LINE
8
0
10
807.000000
20
103.082510
11
807.000000
21
137.582510
0
LINE
8
0
10
807.000000
20
137.582510
11
811.845012
21
137.582510
0
LINE
8
0
10
811.845012
20
137.582510
11
814.611562
21
137.559137
0
LINE
8
0
10
814.611562
20
137.559137
11
817.465420
21
136.707504
0
LINE
8
0
10
817.465420
20
136.707504
11
818.656732
21
134.915037
0
LINE
8
0
10
818.656732
20
134.915037
11
819.401212
21
131.598538
0
LINE
8
0
10
819.401212
20
131.598538
11
819.803581
21
126.291494
0
LINE
8
0
10
819.803581
20
126.291494
11
819.968560
21
118.527394
0
LINE
8
0
10
819.968560
20
118.527394
11
820.000870
21
107.839726
0
LINE
8
0
10
820.000870
20
107.839726
11
820.000000
21
101.253769
0
LINE
8
0
10
820.000000
20
101.253769
11
820.000000
21
68.582510
0
LINE
8
0
10
820.000000
20
68.582510
11
813.500000
21
68.582510
0
LINE
8
0
10
813.500000
20
68.582510
11
807.000000
21
68.582510
0
LINE
8
0
10
807.000000
20
68.582510
11
807.000000
21
103.082510
0
LINE
8
0
10
416.198089
20
3.255324
11
414.742131
21
4.107957
0
LINE
8
0
10
414.742131
20
4.107957
11
412.416107
21
6.336737
0
LINE
8
0
10
412.416107
20
6.336737
11
410.868593
21
9.268614
0
LINE
8
0
10
410.868593
20
9.268614
11
410.096376
21
12.909676
0
LINE
8
0
10
410.096376
20
12.909676
11
410.000000
21
14.998054
0
LINE
8
0
10
410.000000
20
14.998054
11
410.134607
21
17.385705
0
LINE
8
0
10
410.134607
20
17.385705
11
411.567669
21
21.102578
0
LINE
8
0
10
411.567669
20
21.102578
11
413.103592
21
23.047714
0
LINE
8
0
10
413.103592
20
23.047714
11
414.911706
21
24.933421
0
LINE
8
0
10
414.911706
20
24.933421
11
418.443469
21
26.474663
0
LINE
8
0
10
418.443469
20
26.474663
11
421.203592
21
26.582510
0
LINE
8
0
10
421.203592
20
26.582510
11
423.934046
21
26.467418
0
LINE
8
0
10
423.934046
20
26.467418
11
427.651144
21
24.962235
0
LINE
8
0
10
427.651144
20
24.962235
11
429.600000
21
23.182510
0
LINE
8
0
10
429.600000
20
23.182510
11
431.406851
21
21.207929
0
LINE
8
0
10
431.406851
20
21.207929
11
432.893950
21
17.368810
0
LINE
8
0
10
432.893950
20
17.368810
11
433.000000
21
14.405016
0
LINE
8
0
10
433.000000
20
14.405016
11
432.922776
21
12.278727
0
LINE
8
0
10
432.922776
20
12.278727
11
432.262046
21
8.769816
0
LINE
8
0
10
432.262046
20
8.769816
11
430.830851
21
6.072633
0
LINE
8
0
10
430.830851
20
6.072633
11
428.514686
21
3.971384
0
LINE
8
0
10
428.514686
20
3.971384
11
426.988956
21
3.076799
0
LINE
8
0
10
426.988956
20
3.076799
11
424.327023
21
2.012512
0
LINE
8
0
10
424.327023
20
2.012512
11
419.110228
21
2.098819
0
LINE
8
0
10
419.110228
20
2.098819
11
416.198089
21
3.255324
0
LINE
8
0
10
687.749705
20
2.702706
11
686.513976
21
3.967158
0
LINE
8
0
10
686.513976
20
3.967158
11
686.000000
21
5.632200
0
LINE
8
0
10
686.000000
20
5.632200
11
685.805655
21
6.661023
0
LINE
8
0
10
685.805655
20
6.661023
11
684.224517
21
7.417974
0
LINE
8
0
10
684.224517
20
7.417974
11
681.787242
21
7.569105
0
LINE
8
0
10
681.787242
20
7.569105
11
680.019052
21
7.582510
0
LINE
8
0
10
680.019052
20
7.582510
11
678.166741
21
7.570165
0
LINE
8
0
10
678.166741
20
7.570165
11
675.644444
21
7.402703
0
LINE
8
0
10
675.644444
20
7.402703
11
673.908791
21
6.451068
0
LINE
8
0
10
673.908791
20
6.451068
11
673.410644
21
5.082510
0
LINE
8
0
10
673.410644
20
5.082510
11
673.016570
21
4.027252
0
LINE
8
0
10
673.016570
20
4.027252
11
671.721465
21
2.751591
0
LINE
8
0
10
671.721465
20
2.751591
11
670.872540
21
2.582510
0
LINE
8
0
10
670.872540
20
2.582510
11
670.125235
21
2.691169
0
LINE
8
0
10
670.125235
20
2.691169
11
669.446980
21
3.803355
0
LINE
8
0
10
669.446980
20
3.803355
11
669.953255
21
6.648502
0
LINE
8
0
10
669.953255
20
6.648502
11
671.759324
21
11.874375
0
LINE
8
0
10
671.759324
20
11.874375
11
673.185802
21
15.582510
0
LINE
8
0
10
673.185802
20
15.582510
11
674.542515
21
18.976397
0
LINE
8
0
10
674.542515
20
18.976397
11
676.663631
21
23.581873
0
LINE
8
0
10
676.663631
20
23.581873
11
678.354259
21
25.735199
0
LINE
8
0
10
678.354259
20
25.735199
11
680.045505
21
25.985470
0
LINE
8
0
10
680.045505
20
25.985470
11
681.026081
21
25.568552
0
LINE
8
0
10
681.026081
20
25.568552
11
681.978667
21
24.694004
0
LINE
8
0
10
681.978667
20
24.694004
11
684.580217
21
20.795225
0
LINE
8
0
10
684.580217
20
20.795225
11
687.448301
21
15.298810
0
LINE
8
0
10
687.448301
20
15.298810
11
689.788555
21
9.727084
0
LINE
8
0
10
689.788555
20
9.727084
11
690.512506
21
7.388706
0
LINE
8
0
10
690.512506
20
7.388706
11
690.749584
21
6.092134
0
LINE
8
0
10
690.749584
20
6.092134
11
690.643970
21
3.971652
0
LINE
8
0
10
690.643970
20
3.971652
11
689.872723
21
2.663537
0
LINE
8
0
10
689.872723
20
2.663537
11
688.564719
21
2.386373
0
LINE
8
0
10
688.564719
20
2.386373
11
687.749705
21
2.702706
0
LINE
8
0
10
470.624575
20
4.066269
11
469.753597
21
4.886957
0
LINE
8
0
10
469.753597
20
4.886957
11
469.100627
21
6.454989
0
LINE
8
0
10
469.100627
20
6.454989
11
469.715182
21
7.585814
0
LINE
8
0
10
469.715182
20
7.585814
11
471.375913
21
7.872134
0
LINE
8
0
10
471.375913
20
7.872134
11
472.529422
21
7.571324
0
LINE
8
0
10
472.529422
20
7.571324
11
475.228348
21
6.872974
0
LINE
8
0
10
475.228348
20
6.872974
11
478.065100
21
6.582510
0
LINE
8
0
10
478.065100
20
6.582510
11
479.526757
21
6.677700
0
LINE
8
0
10
479.526757
20
6.677700
11
480.873953
21
7.711830
0
LINE
8
0
10
480.873953
20
7.711830
11
480.996252
21
8.832510
0
LINE
8
0
10
480.996252
20
8.832510
11
480.771494
21
10.011149
0
LINE
8
0
10
480.771494
20
10.011149
11
478.544005
21
11.959322
0
LINE
8
0
10
478.544005
20
11.959322
11
476.246252
21
12.986885
0
LINE
8
0
10
476.246252
20
12.986885
11
474.304738
21
13.802704
0
LINE
8
0
10
474.304738
20
13.802704
11
471.109860
21
15.333179
0
LINE
8
0
10
471.109860
20
15.333179
11
470.250000
21
15.859329
0
LINE
8
0
10
470.250000
20
15.859329
11
469.658542
21
16.581105
0
LINE
8
0
10
469.658542
20
16.581105
11
469.062985
21
18.850450
0
LINE
8
0
10
469.062985
20
18.850450
11
469.557575
21
22.873157
0
LINE
8
0
10
469.557575
20
22.873157
11
470.750000
21
24.842909
0
LINE
8
0
10
470.750000
20
24.842909
11
472.490896
21
25.998318
0
LINE
8
0
10
472.490896
20
25.998318
11
476.777673
21
27.067985
0
LINE
8
0
10
476.777673
20
27.067985
11
481.084066
21
26.597826
0
LINE
8
0
10
481.084066
20
26.597826
11
484.145631
21
24.725889
0
LINE
8
0
10
484.145631
20
24.725889
11
484.814466
21
23.307393
0
LINE
8
0
10
484.814466
20
23.307393
11
484.793444
21
22.427754
0
LINE
8
0
10
484.793444
20
22.427754
11
483.549915
21
21.746945
0
LINE
8
0
10
483.549915
20
21.746945
11
481.586388
21
21.597308
0
LINE
8
0
10
481.586388
20
21.597308
11
480.180313
21
21.582510
0
LINE
8
0
10
480.180313
20
21.582510
11
478.027183
21
21.483302
0
LINE
8
0
10
478.027183
20
21.483302
11
475.231153
21
20.789413
0
LINE
8
0
10
475.231153
20
20.789413
11
474.576829
21
19.656612
0
LINE
8
0
10
474.576829
20
19.656612
11
476.217896
21
18.350964
0
LINE
8
0
10
476.217896
20
18.350964
11
477.947227
21
17.716467
0
LINE
8
0
10
477.947227
20
17.716467
11
480.967179
21
16.573810
0
LINE
8
0
10
480.967179
20
16.573810
11
485.263778
21
13.547764
0
LINE
8
0
10
485.263778
20
13.547764
11
487.025847
21
9.961700
0
LINE
8
0
10
487.025847
20
9.961700
11
486.001242
21
6.328770
0
LINE
8
0
10
486.001242
20
6.328770
11
484.365141
21
4.655090
0
LINE
8
0
10
484.365141
20
4.655090
11
482.997364
21
3.834539
0
LINE
8
0
10
482.997364
20
3.834539
11
479.410746
21
2.810057
0
LINE
8
0
10
479.410746
20
2.810057
11
475.424364
21
2.639230
0
LINE
8
0
10
475.424364
20
2.639230
11
471.920202
21
3.359853
0
LINE
8
0
10
471.920202
20
3.359853
11
470.624575
21
4.066269
0
LINE
8
0
10
515.349273
20
3.280876
11
513.989095
21
4.071107
0
LINE
8
0
10
513.989095
20
4.071107
11
511.926638
21
6.061396
0
LINE
8
0
10
511.926638
20
6.061396
11
510.654488
21
8.784091
0
LINE
8
0
10
510.654488
20
8.784091
11
510.068376
21
12.462355
0
LINE
8
0
10
510.068376
20
12.462355
11
510.000000
21
14.729563
0
LINE
8
0
10
510.000000
20
14.729563
11
510.114395
21
17.510085
0
LINE
8
0
10
510.114395
20
17.510085
11
511.665001
21
21.283523
0
LINE
8
0
10
511.665001
20
21.283523
11
513.524842
21
23.307352
0
LINE
8
0
10
513.524842
20
23.307352
11
514.645838
21
24.402952
0
LINE
8
0
10
514.645838
20
24.402952
11
516.439368
21
25.837456
0
LINE
8
0
10
516.439368
20
25.837456
11
518.172725
21
26.454462
0
LINE
8
0
10
518.172725
20
26.454462
11
520.491238
21
26.483679
0
LINE
8
0
10
520.491238
20
26.483679
11
522.071594
21
26.349653
0
LINE
8
0
10
522.071594
20
26.349653
11
524.586212
21
25.976871
0
LINE
8
0
10
524.586212
20
25.976871
11
528.398710
21
24.393612
0
LINE
8
0
10
528.398710
20
24.393612
11
530.046752
21
23.037719
0
LINE
8
0
10
530.046752
20
23.037719
11
531.193443
21
21.835523
0
LINE
8
0
10
531.193443
20
21.835523
11
532.766970
21
19.628453
0
LINE
8
0
10
532.766970
20
19.628453
11
533.000000
21
18.895419
0
LINE
8
0
10
533.000000
20
18.895419
11
532.800993
21
18.200574
0
LINE
8
0
10
532.800993
20
18.200574
11
531.439418
21
17.598798
0
LINE
8
0
10
531.439418
20
17.598798
11
528.140568
21
18.470486
0
LINE
8
0
10
528.140568
20
18.470486
11
526.000000
21
20.082510
0
LINE
8
0
10
526.000000
20
20.082510
11
523.768569
21
21.735897
0
LINE
8
0
10
523.768569
20
21.735897
11
520.030734
21
22.543836
0
LINE
8
0
10
520.030734
20
22.543836
11
517.892731
21
21.891470
0
LINE
8
0
10
517.892731
20
21.891470
11
517.087869
21
21.188386
0
LINE
8
0
10
517.087869
20
21.188386
11
516.592461
21
20.257336
0
LINE
8
0
10
516.592461
20
20.257336
11
515.664301
21
16.882834
0
LINE
8
0
10
515.664301
20
16.882834
11
515.345868
21
14.855010
0
LINE
8
0
10
515.345868
20
14.855010
11
515.181319
21
13.330029
0
LINE
8
0
10
515.181319
20
13.330029
11
515.130028
21
11.139228
0
LINE
8
0
10
515.130028
20
11.139228
11
516.034631
21
9.060795
0
LINE
8
0
10
516.034631
20
9.060795
11
517.515302
21
7.749134
0
LINE
8
0
10
517.515302
20
7.749134
11
518.965871
21
6.762487
0
LINE
8
0
10
518.965871
20
6.762487
11
521.825236
21
5.702488
0
LINE
8
0
10
521.825236
20
5.702488
11
524.508181
21
5.853426
0
LINE
8
0
10
524.508181
20
5.853426
11
526.869838
21
7.207150
0
LINE
8
0
10
526.869838
20
7.207150
11
527.884913
21
8.332510
0
LINE
8
0
10
527.884913
20
8.332510
11
528.684060
21
9.304127
0
LINE
8
0
10
528.684060
20
9.304127
11
529.794125
21
10.120068
0
LINE
8
0
10
529.794125
20
10.120068
11
529.968320
21
9.863895
0
LINE
8
0
10
529.968320
20
9.863895
11
530.431319
21
9.172332
0
LINE
8
0
10
530.431319
20
9.172332
11
531.500000
21
9.220884
0
LINE
8
0
10
531.500000
20
9.220884
11
532.632122
21
9.460389
0
LINE
8
0
10
532.632122
20
9.460389
11
533.039032
21
8.370727
0
LINE
8
0
10
533.039032
20
8.370727
11
530.365630
21
4.904439
0
LINE
8
0
10
530.365630
20
4.904439
11
527.451627
21
2.997852
0
LINE
8
0
10
527.451627
20
2.997852
11
524.307770
21
2.003842
0
LINE
8
0
10
524.307770
20
2.003842
11
518.320755
21
2.143853
0
LINE
8
0
10
518.320755
20
2.143853
11
515.349273
21
3.280876
0
LINE
8
0
10
252.216795
20
3.143214
11
249.843915
21
5.463824
0
LINE
8
0
10
249.843915
20
5.463824
11
247.348868
21
11.727109
0
LINE
8
0
10
247.348868
20
11.727109
11
247.758365
21
18.547443
0
LINE
8
0
10
247.758365
20
18.547443
11
249.902000
21
22.869139
0
LINE
8
0
10
249.902000
20
22.869139
11
252.178505
21
24.920782
0
LINE
8
0
10
252.178505
20
24.920782
11
253.565559
21
25.607436
0
LINE
8
0
10
253.565559
20
25.607436
11
255.473554
21
26.221006
0
LINE
8
0
10
255.473554
20
26.221006
11
259.024370
21
26.667308
0
LINE
8
0
10
259.024370
20
26.667308
11
262.256684
21
26.065969
0
LINE
8
0
10
262.256684
20
26.065969
11
265.212570
21
24.409161
0
LINE
8
0
10
265.212570
20
24.409161
11
266.600000
21
23.182510
0
LINE
8
0
10
266.600000
20
23.182510
11
267.889002
21
21.831960
0
LINE
8
0
10
267.889002
20
21.831960
11
269.506323
21
19.711770
0
LINE
8
0
10
269.506323
20
19.711770
11
269.850499
21
18.335066
0
LINE
8
0
10
269.850499
20
18.335066
11
268.930848
21
17.664574
0
LINE
8
0
10
268.930848
20
17.664574
11
268.000000
21
17.582510
0
LINE
8
0
10
268.000000
20
17.582510
11
267.054114
21
17.440401
0
LINE
8
0
10
267.054114
20
17.440401
11
266.042399
21
16.124932
0
LINE
8
0
10
266.042399
20
16.124932
11
265.885001
21
14.832510
0
LINE
8
0
10
265.885001
20
14.832510
11
265.801549
21
13.506379
0
LINE
8
0
10
265.801549
20
13.506379
11
265.572535
21
13.376940
0
LINE
8
0
10
265.572535
20
13.376940
11
265.281907
21
14.597212
0
LINE
8
0
10
265.281907
20
14.597212
11
265.077535
21
15.616475
0
LINE
8
0
10
265.077535
20
15.616475
11
264.717255
21
17.297092
0
LINE
8
0
10
264.717255
20
17.297092
11
263.907000
21
19.679903
0
LINE
8
0
10
263.907000
20
19.679903
11
261.848841
21
21.525312
0
LINE
8
0
10
261.848841
20
21.525312
11
259.433802
21
22.160907
0
LINE
8
0
10
259.433802
20
22.160907
11
257.719884
21
22.319854
0
LINE
8
0
10
257.719884
20
22.319854
11
254.947266
21
21.553412
0
LINE
8
0
10
254.947266
20
21.553412
11
253.071441
21
19.368176
0
LINE
8
0
10
253.071441
20
19.368176
11
252.120207
21
15.796533
0
LINE
8
0
10
252.120207
20
15.796533
11
252.000000
21
13.500929
0
LINE
8
0
10
252.000000
20
13.500929
11
252.085589
21
11.551268
0
LINE
8
0
10
252.085589
20
11.551268
11
252.797026
21
8.532100
0
LINE
8
0
10
252.797026
20
8.532100
11
254.288198
21
6.609912
0
LINE
8
0
10
254.288198
20
6.609912
11
256.630373
21
5.692838
0
LINE
8
0
10
256.630373
20
5.692838
11
258.142857
21
5.582510
0
LINE
8
0
10
258.142857
20
5.582510
11
260.207297
21
5.800891
0
LINE
8
0
10
260.207297
20
5.800891
11
263.342475
21
7.925154
0
LINE
8
0
10
263.342475
20
7.925154
11
264.784364
21
10.082510
0
LINE
8
0
10
264.784364
20
10.082510
11
265.235158
21
10.760440
0
LINE
8
0
10
265.235158
20
10.760440
11
265.866662
21
11.160049
0
LINE
8
0
10
265.866662
20
11.160049
11
265.969591
21
10.832510
0
LINE
8
0
10
265.969591
20
10.832510
11
266.431692
21
9.949698
0
LINE
8
0
10
266.431692
20
9.949698
11
267.500000
21
9.582510
0
LINE
8
0
10
267.500000
20
9.582510
11
268.547661
21
9.465728
0
LINE
8
0
10
268.547661
20
9.465728
11
268.819634
21
8.451441
0
LINE
8
0
10
268.819634
20
8.451441
11
268.138426
21
6.841407
0
LINE
8
0
10
268.138426
20
6.841407
11
267.540048
21
5.659954
0
LINE
8
0
10
267.540048
20
5.659954
11
266.437746
21
4.210366
0
LINE
8
0
10
266.437746
20
4.210366
11
262.910479
21
2.181273
0
LINE
8
0
10
262.910479
20
2.181273
11
258.453950
21
1.449319
0
LINE
8
0
10
258.453950
20
1.449319
11
254.069304
21
2.178933
0
LINE
8
0
10
254.069304
20
2.178933
11
252.216795
21
3.143214
0
LINE
8
0
10
594.430246
20
3.903689
11
594.334290
21
4.371735
0
LINE
8
0
10
594.334290
20
4.371735
11
594.196718
21
6.342715
0
LINE
8
0
10
594.196718
20
6.342715
11
594.139667
21
11.194265
0
LINE
8
0
10
594.139667
20
11.194265
11
594.211631
21
15.153689
0
LINE
8
0
10
594.211631
20
15.153689
11
594.500000
21
25.082510
0
LINE
8
0
10
594.500000
20
25.082510
11
603.250000
21
25.371443
0
LINE
8
0
10
603.250000
20
25.371443
11
605.989891
21
25.452998
0
LINE
8
0
10
605.989891
20
25.452998
11
609.636791
21
25.443084
0
LINE
8
0
10
609.636791
20
25.443084
11
611.402387
21
25.089965
0
LINE
8
0
10
611.402387
20
25.089965
11
611.961726
21
24.258631
0
LINE
8
0
10
611.961726
20
24.258631
11
612.000000
21
23.621443
0
LINE
8
0
10
612.000000
20
23.621443
11
611.803140
21
22.519131
0
LINE
8
0
10
611.803140
20
22.519131
11
610.017626
21
21.737811
0
LINE
8
0
10
610.017626
20
21.737811
11
607.131933
21
21.593925
0
LINE
8
0
10
607.131933
20
21.593925
11
605.000000
21
21.582510
0
LINE
8
0
10
605.000000
20
21.582510
11
602.880859
21
21.570791
0
LINE
8
0
10
602.880859
20
21.570791
11
600.001953
21
21.426818
0
LINE
8
0
10
600.001953
20
21.426818
11
598.203125
21
20.658403
0
LINE
8
0
10
598.203125
20
20.658403
11
598.000000
21
19.582510
0
LINE
8
0
10
598.000000
20
19.582510
11
598.187500
21
18.520010
0
LINE
8
0
10
598.187500
20
18.520010
11
599.757812
21
17.746573
0
LINE
8
0
10
599.757812
20
17.746573
11
602.210938
21
17.595531
0
LINE
8
0
10
602.210938
20
17.595531
11
604.000000
21
17.582510
0
LINE
8
0
10
604.000000
20
17.582510
11
605.789062
21
17.569489
0
LINE
8
0
10
605.789062
20
17.569489
11
608.242188
21
17.418448
0
LINE
8
0
10
608.242188
20
17.418448
11
609.812500
21
16.645010
0
LINE
8
0
10
609.812500
20
16.645010
11
610.000000
21
15.582510
0
LINE
8
0
10
610.000000
20
15.582510
11
609.812500
21
14.520010
0
LINE
8
0
10
609.812500
20
14.520010
11
608.242188
21
13.746573
0
LINE
8
0
10
608.242188
20
13.746573
11
605.789062
21
13.595531
0
LINE
8
0
10
605.789062
20
13.595531
11
604.000000
21
13.582510
0
LINE
8
0
10
604.000000
20
13.582510
11
598.000000
21
13.582510
0
LINE
8
0
10
598.000000
20
13.582510
11
598.000000
21
10.082510
0
LINE
8
0
10
598.000000
20
10.082510
11
598.000000
21
6.582510
0
LINE
8
0
10
598.000000
20
6.582510
11
605.000000
21
6.582510
0
LINE
8
0
10
605.000000
20
6.582510
11
607.119141
21
6.570791
0
LINE
8
0
10
607.119141
20
6.570791
11
609.998047
21
6.426818
0
LINE
8
0
10
609.998047
20
6.426818
11
611.796875
21
5.658403
0
LINE
8
0
10
611.796875
20
5.658403
11
612.000000
21
4.582510
0
LINE
8
0
10
612.000000
20
4.582510
11
611.772947
21
3.492193
0
LINE
8
0
10
611.772947
20
3.492193
11
609.624174
21
2.729187
0
LINE
8
0
10
609.624174
20
2.729187
11
606.093232
21
2.592826
0
LINE
8
0
10
606.093232
20
2.592826
11
603.468615
21
2.582510
0
LINE
8
0
10
603.468615
20
2.582510
11
601.330154
21
2.600231
0
LINE
8
0
10
601.330154
20
2.600231
11
598.003497
21
2.749511
0
LINE
8
0
10
598.003497
20
2.749511
11
595.132089
21
3.295610
0
LINE
8
0
10
595.132089
20
3.295610
11
594.430246
21
3.903689
0
LINE
8
0
10
372.000000
20
2.304042
11
369.466042
21
3.614007
0
LINE
8
0
10
369.466042
20
3.614007
11
363.857103
21
8.396633
0
LINE
8
0
10
363.857103
20
8.396633
11
361.044157
21
11.645863
0
LINE
8
0
10
361.044157
20
11.645863
11
357.228184
21
16.473431
0
LINE
8
0
10
357.228184
20
16.473431
11
356.614092
21
13.402970
0
LINE
8
0
10
356.614092
20
13.402970
11
356.180390
21
10.096177
0
LINE
8
0
10
356.180390
20
10.096177
11
356.000000
21
6.457510
0
LINE
8
0
10
356.000000
20
6.457510
11
355.920363
21
4.498526
0
LINE
8
0
10
355.920363
20
4.498526
11
355.011089
21
2.736807
0
LINE
8
0
10
355.011089
20
2.736807
11
354.000000
21
2.582510
0
LINE
8
0
10
354.000000
20
2.582510
11
353.371996
21
2.633108
0
LINE
8
0
10
353.371996
20
2.633108
11
352.537493
21
3.386167
0
LINE
8
0
10
352.537493
20
3.386167
11
352.134996
21
5.782310
0
LINE
8
0
10
352.134996
20
5.782310
11
352.008499
21
10.750261
0
LINE
8
0
10
352.008499
20
10.750261
11
352.000000
21
14.488890
0
LINE
8
0
10
352.000000
20
14.488890
11
352.007446
21
18.267166
0
LINE
8
0
10
352.007446
20
18.267166
11
352.127632
21
23.225758
0
LINE
8
0
10
352.127632
20
23.225758
11
352.522917
21
25.493066
0
LINE
8
0
10
352.522917
20
25.493066
11
353.354949
21
25.996287
0
LINE
8
0
10
353.354949
20
25.996287
11
353.985260
21
25.876114
0
LINE
8
0
10
353.985260
20
25.876114
11
354.515760
21
25.632213
0
LINE
8
0
10
354.515760
20
25.632213
11
356.199175
21
24.414024
0
LINE
8
0
10
356.199175
20
24.414024
11
359.761194
21
21.213550
0
LINE
8
0
10
359.761194
20
21.213550
11
362.423360
21
18.516605
0
LINE
8
0
10
362.423360
20
18.516605
11
364.501474
21
16.323520
0
LINE
8
0
10
364.501474
20
16.323520
11
367.244344
21
13.595428
0
LINE
8
0
10
367.244344
20
13.595428
11
368.592928
21
12.782687
0
LINE
8
0
10
368.592928
20
12.782687
11
369.135455
21
13.530794
0
LINE
8
0
10
369.135455
20
13.530794
11
369.288269
21
14.379382
0
LINE
8
0
10
369.288269
20
14.379382
11
369.495746
21
15.522307
0
LINE
8
0
10
369.495746
20
15.522307
11
369.758248
21
15.033242
0
LINE
8
0
10
369.758248
20
15.033242
11
369.850168
21
13.332510
0
LINE
8
0
10
369.850168
20
13.332510
11
370.009706
21
11.466861
0
LINE
8
0
10
370.009706
20
11.466861
11
370.998620
21
9.741877
0
LINE
8
0
10
370.998620
20
9.741877
11
372.000000
21
9.582510
0
LINE
8
0
10
372.000000
20
9.582510
11
373.015625
21
9.426260
0
LINE
8
0
10
373.015625
20
9.426260
11
373.921875
21
7.613760
0
LINE
8
0
10
373.921875
20
7.613760
11
374.000000
21
5.582510
0
LINE
8
0
10
374.000000
20
5.582510
11
373.980273
21
4.035614
0
LINE
8
0
10
373.980273
20
4.035614
11
373.847070
21
1.946429
0
LINE
8
0
10
373.847070
20
1.946429
11
373.750000
21
1.661457
0
LINE
8
0
10
373.750000
20
1.661457
11
373.132812
21
1.882782
0
LINE
8
0
10
373.132812
20
1.882782
11
372.000000
21
2.304042
0
LINE
8
0
10
388.308297
20
2.592107
11
386.854029
21
3.319276
0
LINE
8
0
10
386.854029
20
3.319276
11
384.741186
21
5.442570
0
LINE
8
0
10
384.741186
20
5.442570
11
383.561953
21
8.822752
0
LINE
8
0
10
383.561953
20
8.822752
11
383.163548
21
13.897759
0
LINE
8
0
10
383.163548
20
13.897759
11
383.209411
21
17.207677
0
LINE
8
0
10
383.209411
20
17.207677
11
383.306964
21
19.743821
0
LINE
8
0
10
383.306964
20
19.743821
11
383.572362
21
23.335176
0
LINE
8
0
10
383.572362
20
23.335176
11
384.340365
21
25.894097
0
LINE
8
0
10
384.340365
20
25.894097
11
385.250000
21
26.394581
0
LINE
8
0
10
385.250000
20
26.394581
11
386.169069
21
26.339913
0
LINE
8
0
10
386.169069
20
26.339913
11
386.849809
21
24.628136
0
LINE
8
0
10
386.849809
20
24.628136
11
386.987574
21
21.838699
0
LINE
8
0
10
386.987574
20
21.838699
11
387.000000
21
19.805057
0
LINE
8
0
10
387.000000
20
19.805057
11
387.144670
21
15.766244
0
LINE
8
0
10
387.144670
20
15.766244
11
388.258475
21
9.725483
0
LINE
8
0
10
388.258475
20
9.725483
11
390.374793
21
6.545939
0
LINE
8
0
10
390.374793
20
6.545939
11
393.377487
21
6.402093
0
LINE
8
0
10
393.377487
20
6.402093
11
395.174935
21
7.523080
0
LINE
8
0
10
395.174935
20
7.523080
11
396.305233
21
8.741016
0
LINE
8
0
10
396.305233
20
8.741016
11
397.280363
21
11.768536
0
LINE
8
0
10
397.280363
20
11.768536
11
397.644209
21
15.349962
0
LINE
8
0
10
397.644209
20
15.349962
11
397.790139
21
17.805714
0
LINE
8
0
10
397.790139
20
17.805714
11
397.936846
21
20.393434
0
LINE
8
0
10
397.936846
20
20.393434
11
398.255050
21
23.870276
0
LINE
8
0
10
398.255050
20
23.870276
11
398.738263
21
25.537648
0
LINE
8
0
10
398.738263
20
25.537648
11
399.544831
21
25.941940
0
LINE
8
0
10
399.544831
20
25.941940
11
400.118856
21
25.841177
0
LINE
8
0
10
400.118856
20
25.841177
11
401.113892
21
25.299017
0
LINE
8
0
10
401.113892
20
25.299017
11
401.842986
21
22.789158
0
LINE
8
0
10
401.842986
20
22.789158
11
401.987333
21
19.158085
0
LINE
8
0
10
401.987333
20
19.158085
11
402.000000
21
16.542604
0
LINE
8
0
10
402.000000
20
16.542604
11
401.985404
21
13.845540
0
LINE
8
0
10
401.985404
20
13.845540
11
401.802148
21
9.998586
0
LINE
8
0
10
401.802148
20
9.998586
11
400.809686
21
6.570220
0
LINE
8
0
10
400.809686
20
6.570220
11
399.411106
21
4.659235
0
LINE
8
0
10
399.411106
20
4.659235
11
398.344253
21
3.568091
0
LINE
8
0
10
398.344253
20
3.568091
11
395.923152
21
2.097308
0
LINE
8
0
10
395.923152
20
2.097308
11
393.135195
21
1.578245
0
LINE
8
0
10
393.135195
20
1.578245
11
389.999990
21
2.014550
0
LINE
8
0
10
389.999990
20
2.014550
11
388.308297
21
2.592107
0
LINE
8
0
10
224.954109
20
3.864313
11
222.851258
21
5.955208
0
LINE
8
0
10
222.851258
20
5.955208
11
220.331156
21
11.242347
0
LINE
8
0
10
220.331156
20
11.242347
11
220.000000
21
14.257963
0
LINE
8
0
10
220.000000
20
14.257963
11
220.284582
21
17.926436
0
LINE
8
0
10
220.284582
20
17.926436
11
222.724812
21
23.139594
0
LINE
8
0
10
222.724812
20
23.139594
11
224.989504
21
24.917239
0
LINE
8
0
10
224.989504
20
24.917239
11
227.107343
21
25.836615
0
LINE
8
0
10
227.107343
20
25.836615
11
232.015809
21
26.507339
0
LINE
8
0
10
232.015809
20
26.507339
11
236.552420
21
25.814483
0
LINE
8
0
10
236.552420
20
25.814483
11
239.194487
21
23.990601
0
LINE
8
0
10
239.194487
20
23.990601
11
239.329225
21
22.727199
0
LINE
8
0
10
239.329225
20
22.727199
11
238.880416
21
21.922023
0
LINE
8
0
10
238.880416
20
21.922023
11
237.119895
21
21.365536
0
LINE
8
0
10
237.119895
20
21.365536
11
234.864840
21
21.351907
0
LINE
8
0
10
234.864840
20
21.351907
11
233.321228
21
21.432548
0
LINE
8
0
10
233.321228
20
21.432548
11
231.100694
21
21.527010
0
LINE
8
0
10
231.100694
20
21.527010
11
228.095614
21
21.147455
0
LINE
8
0
10
228.095614
20
21.147455
11
226.584585
21
19.571161
0
LINE
8
0
10
226.584585
20
19.571161
11
226.062887
21
16.271608
0
LINE
8
0
10
226.062887
20
16.271608
11
226.015313
21
13.811071
0
LINE
8
0
10
226.015313
20
13.811071
11
226.027322
21
12.231390
0
LINE
8
0
10
226.027322
20
12.231390
11
226.213479
21
9.988306
0
LINE
8
0
10
226.213479
20
9.988306
11
227.195293
21
8.159821
0
LINE
8
0
10
227.195293
20
8.159821
11
228.549402
21
7.378047
0
LINE
8
0
10
228.549402
20
7.378047
11
229.927860
21
6.881274
0
LINE
8
0
10
229.927860
20
6.881274
11
232.682430
21
6.891419
0
LINE
8
0
10
232.682430
20
6.891419
11
234.370400
21
7.399486
0
LINE
8
0
10
234.370400
20
7.399486
11
237.027297
21
8.234997
0
LINE
8
0
10
237.027297
20
8.234997
11
238.820998
21
8.582510
0
LINE
8
0
10
238.820998
20
8.582510
11
239.730341
21
8.150486
0
LINE
8
0
10
239.730341
20
8.150486
11
239.506616
21
5.625724
0
LINE
8
0
10
239.506616
20
5.625724
11
238.428571
21
4.153939
0
LINE
8
0
10
238.428571
20
4.153939
11
237.397623
21
3.520852
0
LINE
8
0
10
237.397623
20
3.520852
11
233.935429
21
2.748233
0
LINE
8
0
10
233.935429
20
2.748233
11
229.726539
21
2.657766
0
LINE
8
0
10
229.726539
20
2.657766
11
226.115392
21
3.278348
0
LINE
8
0
10
226.115392
20
3.278348
11
224.954109
21
3.864313
0
LINE
8
0
10
650.392161
20
8.332510
11
648.630178
21
12.399024
0
LINE
8
0
10
648.630178
20
12.399024
11
646.106671
21
19.130905
0
LINE
8
0
10
646.106671
20
19.130905
11
644.959203
21
23.822484
0
LINE
8
0
10
644.959203
20
23.822484
11
645.238287
21
26.267235
0
LINE
8
0
10
645.238287
20
26.267235
11
645.928571
21
26.582510
0
LINE
8
0
10
645.928571
20
26.582510
11
646.639351
21
26.434279
0
LINE
8
0
10
646.639351
20
26.434279
11
648.132843
21
25.266872
0
LINE
8
0
10
648.132843
20
25.266872
11
649.694282
21
22.979175
0
LINE
8
0
10
649.694282
20
22.979175
11
651.290111
21
19.620355
0
LINE
8
0
10
651.290111
20
19.620355
11
652.090434
21
17.554638
0
LINE
8
0
10
652.090434
20
17.554638
11
652.994014
21
15.235772
0
LINE
8
0
10
652.994014
20
15.235772
11
654.546414
21
12.053748
0
LINE
8
0
10
654.546414
20
12.053748
11
655.004030
21
11.582510
0
LINE
8
0
10
655.004030
20
11.582510
11
655.387157
21
11.930151
0
LINE
8
0
10
655.387157
20
11.930151
11
656.436573
21
14.277584
0
LINE
8
0
10
656.436573
20
14.277584
11
656.973609
21
15.988251
0
LINE
8
0
10
656.973609
20
15.988251
11
658.404453
21
20.076561
0
LINE
8
0
10
658.404453
20
20.076561
11
661.022698
21
24.751018
0
LINE
8
0
10
661.022698
20
24.751018
11
662.753894
21
26.363825
0
LINE
8
0
10
662.753894
20
26.363825
11
663.530615
21
26.582510
0
LINE
8
0
10
663.530615
20
26.582510
11
664.196841
21
26.334356
0
LINE
8
0
10
664.196841
20
26.334356
11
664.604614
21
24.354424
0
LINE
8
0
10
664.604614
20
24.354424
11
663.781938
21
20.408096
0
LINE
8
0
10
663.781938
20
20.408096
11
661.731755
21
14.509497
0
LINE
8
0
10
661.731755
20
14.509497
11
660.247270
21
10.832510
0
LINE
8
0
10
660.247270
20
10.832510
11
658.731731
21
7.402430
0
LINE
8
0
10
658.731731
20
7.402430
11
656.209357
21
3.281851
0
LINE
8
0
10
656.209357
20
3.281851
11
654.011156
21
2.724221
0
LINE
8
0
10
654.011156
20
2.724221
11
651.712206
21
5.621748
0
LINE
8
0
10
651.712206
20
5.621748
11
650.392161
21
8.332510
0
LINE
8
0
10
808.833814
20
6.637080
11
808.868110
21
8.875015
0
LINE
8
0
10
808.868110
20
8.875015
11
807.553809
21
13.590232
0
LINE
8
0
10
807.553809
20
13.590232
11
806.040813
21
16.657316
0
LINE
8
0
10
806.040813
20
16.657316
11
804.832493
21
19.110162
0
LINE
8
0
10
804.832493
20
19.110162
11
803.315818
21
23.210383
0
LINE
8
0
10
803.315818
20
23.210383
11
803.194268
21
24.352746
0
LINE
8
0
10
803.194268
20
24.352746
11
803.509715
21
25.307298
0
LINE
8
0
10
803.509715
20
25.307298
11
804.640806
21
26.035767
0
LINE
8
0
10
804.640806
20
26.035767
11
806.312204
21
25.249615
0
LINE
8
0
10
806.312204
20
25.249615
11
808.371966
21
23.020309
0
LINE
8
0
10
808.371966
20
23.020309
11
809.500000
21
21.386807
0
LINE
8
0
10
809.500000
20
21.386807
11
810.722694
21
19.559269
0
LINE
8
0
10
810.722694
20
19.559269
11
812.711765
21
17.028409
0
LINE
8
0
10
812.711765
20
17.028409
11
813.233154
21
16.636807
0
LINE
8
0
10
813.233154
20
16.636807
11
813.714287
21
17.003426
0
LINE
8
0
10
813.714287
20
17.003426
11
815.431534
21
19.592441
0
LINE
8
0
10
815.431534
20
19.592441
11
816.456139
21
21.495955
0
LINE
8
0
10
816.456139
20
21.495955
11
817.766230
21
23.885100
0
LINE
8
0
10
817.766230
20
23.885100
11
819.834612
21
25.928314
0
LINE
8
0
10
819.834612
20
25.928314
11
820.910139
21
25.895758
0
LINE
8
0
10
820.910139
20
25.895758
11
821.668534
21
25.642615
0
LINE
8
0
10
821.668534
20
25.642615
11
822.293852
21
24.565563
0
LINE
8
0
10
822.293852
20
24.565563
11
821.431066
21
21.750294
0
LINE
8
0
10
821.431066
20
21.750294
11
819.591222
21
17.792725
0
LINE
8
0
10
819.591222
20
17.792725
11
817.712454
21
14.000405
0
LINE
8
0
10
817.712454
20
14.000405
11
816.560562
21
11.703096
0
LINE
8
0
10
816.560562
20
11.703096
11
815.426316
21
9.495793
0
LINE
8
0
10
815.426316
20
9.495793
11
813.479678
21
6.038609
0
LINE
8
0
10
813.479678
20
6.038609
11
811.922603
21
3.801114
0
LINE
8
0
10
811.922603
20
3.801114
11
810.707602
21
2.715067
0
LINE
8
0
10
810.707602
20
2.715067
11
810.213538
21
2.582510
0
LINE
8
0
10
810.213538
20
2.582510
11
809.336324
21
2.744226
0
LINE
8
0
10
809.336324
20
2.744226
11
808.708867
21
4.588123
0
LINE
8
0
10
808.708867
20
4.588123
11
808.833814
21
6.637080
0
LINE
8
0
10
807.000000
20
153.582510
11
807.000000
21
160.582510
0
LINE
8
0
10
807.000000
20
160.582510
11
812.300000
21
160.582510
0
LINE
8
0
10
812.300000
20
160.582510
11
814.452578
21
160.487823
0
LINE
8
0
10
814.452578
20
160.487823
11
817.915859
21
159.848448
0
LINE
8
0
10
817.915859
20
159.848448
11
818.800000
21
159.382510
0
LINE
8
0
10
818.800000
20
159.382510
11
819.265937
21
158.458916
0
LINE
8
0
10
819.265937
20
158.458916
11
819.905313
21
154.729229
0
LINE
8
0
10
819.905313
20
154.729229
11
820.000000
21
152.382510
0
LINE
8
0
10
820.000000
20
152.382510
11
820.000000
21
146.582510
0
LINE
8
0
10
820.000000
20
146.582510
11
813.500000
21
146.582510
0
LINE
8
0
10
813.500000
20
146.582510
11
807.000000
21
146.582510
0
LINE
8
0
10
807.000000
20
146.582510
11
807.000000
21
153.582510
0
LINE
8
0
10
543.666667
20
3.249177
11
543.532747
21
3.604206
0
LINE
8
0
10
543.532747
20
3.604206
11
543.294596
21
5.477936
0
LINE
8
0
10
543.294596
20
5.477936
11
543.052604
21
10.490192
0
LINE
8
0
10
543.052604
20
10.490192
11
543.000000
21
14.749177
0
LINE
8
0
10
543.000000
20
14.749177
11
543.012426
21
17.892349
0
LINE
8
0
10
543.012426
20
17.892349
11
543.145068
21
22.275397
0
LINE
8
0
10
543.145068
20
22.275397
11
543.495287
21
24.613868
0
LINE
8
0
10
543.495287
20
24.613868
11
544.151710
21
25.499541
0
LINE
8
0
10
544.151710
20
25.499541
11
544.622445
21
25.582510
0
LINE
8
0
10
544.622445
20
25.582510
11
545.366661
21
25.519165
0
LINE
8
0
10
545.366661
20
25.519165
11
545.573049
21
24.860245
0
LINE
8
0
10
545.573049
20
24.860245
11
545.066993
21
24.163232
0
LINE
8
0
10
545.066993
20
24.163232
11
544.569954
21
23.425194
0
LINE
8
0
10
544.569954
20
23.425194
11
544.830975
21
22.311134
0
LINE
8
0
10
544.830975
20
22.311134
11
545.627460
21
21.771118
0
LINE
8
0
10
545.627460
20
21.771118
11
546.492823
21
20.987700
0
LINE
8
0
10
546.492823
20
20.987700
11
547.147225
21
18.572741
0
LINE
8
0
10
547.147225
20
18.572741
11
547.253462
21
15.634386
0
LINE
8
0
10
547.253462
20
15.634386
11
547.233044
21
13.637652
0
LINE
8
0
10
547.233044
20
13.637652
11
547.100267
21
6.477023
0
LINE
8
0
10
547.100267
20
6.477023
11
551.800134
21
6.779766
0
LINE
8
0
10
551.800134
20
6.779766
11
553.220960
21
6.886093
0
LINE
8
0
10
553.220960
20
6.886093
11
555.157580
21
7.191475
0
LINE
8
0
10
555.157580
20
7.191475
11
556.394186
21
8.230653
0
LINE
8
0
10
556.394186
20
8.230653
11
556.568577
21
9.582510
0
LINE
8
0
10
556.568577
20
9.582510
11
556.851918
21
11.870831
0
LINE
8
0
10
556.851918
20
11.870831
11
557.436843
21
13.861900
0
LINE
8
0
10
557.436843
20
13.861900
11
557.914160
21
14.821443
0
LINE
8
0
10
557.914160
20
14.821443
11
558.812428
21
14.821443
0
LINE
8
0
10
558.812428
20
14.821443
11
559.586463
21
13.861900
0
LINE
8
0
10
559.586463
20
13.861900
11
560.651748
21
11.633177
0
LINE
8
0
10
560.651748
20
11.633177
11
560.335616
21
6.631150
0
LINE
8
0
10
560.335616
20
6.631150
11
559.000000
21
4.582510
0
LINE
8
0
10
559.000000
20
4.582510
11
557.734923
21
3.603892
0
LINE
8
0
10
557.734923
20
3.603892
11
553.856086
21
2.672971
0
LINE
8
0
10
553.856086
20
2.672971
11
550.666667
21
2.582510
0
LINE
8
0
10
550.666667
20
2.582510
11
548.154948
21
2.635114
0
LINE
8
0
10
548.154948
20
2.635114
11
544.425260
21
2.990323
0
LINE
8
0
10
544.425260
20
2.990323
11
543.666667
21
3.249177
0
LINE
8
0
10
631.457596
20
4.332510
11
629.811437
21
6.509607
0
LINE
8
0
10
629.811437
20
6.509607
11
628.342586
21
7.882200
0
LINE
8
0
10
628.342586
20
7.882200
11
627.394385
21
8.848531
0
LINE
8
0
10
627.394385
20
8.848531
11
627.000000
21
10.048867
0
LINE
8
0
10
627.000000
20
10.048867
11
626.632812
21
11.162457
0
LINE
8
0
10
626.632812
20
11.162457
11
625.750000
21
11.920229
0
LINE
8
0
10
625.750000
20
11.920229
11
625.435734
21
12.122302
0
LINE
8
0
10
625.435734
20
12.122302
11
625.924969
21
12.433110
0
LINE
8
0
10
625.924969
20
12.433110
11
626.668213
21
12.503563
0
LINE
8
0
10
626.668213
20
12.503563
11
628.083606
21
12.604351
0
LINE
8
0
10
628.083606
20
12.604351
11
630.170978
21
13.124668
0
LINE
8
0
10
630.170978
20
13.124668
11
631.747950
21
14.964544
0
LINE
8
0
10
631.747950
20
14.964544
11
632.000000
21
17.101601
0
LINE
8
0
10
632.000000
20
17.101601
11
631.898516
21
18.936270
0
LINE
8
0
10
631.898516
20
18.936270
11
630.890945
21
20.361516
0
LINE
8
0
10
630.890945
20
20.361516
11
629.205872
21
20.863258
0
LINE
8
0
10
629.205872
20
20.863258
11
627.945381
21
21.091738
0
LINE
8
0
10
627.945381
20
21.091738
11
626.049558
21
21.499301
0
LINE
8
0
10
626.049558
20
21.499301
11
624.263577
21
22.615227
0
LINE
8
0
10
624.263577
20
22.615227
11
624.203697
21
23.429636
0
LINE
8
0
10
624.203697
20
23.429636
11
624.683825
21
24.345174
0
LINE
8
0
10
624.683825
20
24.345174
11
626.968734
21
25.386552
0
LINE
8
0
10
626.968734
20
25.386552
11
630.205667
21
25.377320
0
LINE
8
0
10
630.205667
20
25.377320
11
633.417611
21
24.320265
0
LINE
8
0
10
633.417611
20
24.320265
11
634.708895
21
23.399675
0
LINE
8
0
10
634.708895
20
23.399675
11
635.983387
21
22.039081
0
LINE
8
0
10
635.983387
20
22.039081
11
636.819542
21
19.059278
0
LINE
8
0
10
636.819542
20
19.059278
11
636.593532
21
16.683397
0
LINE
8
0
10
636.593532
20
16.683397
11
636.277977
21
14.873992
0
LINE
8
0
10
636.277977
20
14.873992
11
635.392580
21
11.845978
0
LINE
8
0
10
635.392580
20
11.845978
11
634.931789
21
11.000321
0
LINE
8
0
10
634.931789
20
11.000321
11
634.526903
21
10.275629
0
LINE
8
0
10
634.526903
20
10.275629
11
634.780571
21
8.479605
0
LINE
8
0
10
634.780571
20
8.479605
11
635.455782
21
7.290339
0
LINE
8
0
10
635.455782
20
7.290339
11
636.319611
21
5.309216
0
LINE
8
0
10
636.319611
20
5.309216
11
636.185837
21
2.707706
0
LINE
8
0
10
636.185837
20
2.707706
11
635.226952
21
1.721867
0
LINE
8
0
10
635.226952
20
1.721867
11
634.508021
21
1.582510
0
LINE
8
0
10
634.508021
20
1.582510
11
633.871942
21
1.799502
0
LINE
8
0
10
633.871942
20
1.799502
11
632.246637
21
3.264737
0
LINE
8
0
10
632.246637
20
3.264737
11
631.457596
21
4.332510
0
LINE
8
0
10
784.000000
20
12.082510
11
784.000000
21
21.582510
0
LINE
8
0
10
784.000000
20
21.582510
11
780.500000
21
21.582510
0
LINE
8
0
10
780.500000
20
21.582510
11
778.757812
21
21.667331
0
LINE
8
0
10
778.757812
20
21.667331
11
777.148438
21
22.586974
0
LINE
8
0
10
777.148438
20
22.586974
11
777.000000
21
23.582510
0
LINE
8
0
10
777.000000
20
23.582510
11
777.045898
21
24.202370
0
LINE
8
0
10
777.045898
20
24.202370
11
777.676758
21
25.032551
0
LINE
8
0
10
777.676758
20
25.032551
11
779.612305
21
25.440035
0
LINE
8
0
10
779.612305
20
25.440035
11
783.555664
21
25.572847
0
LINE
8
0
10
783.555664
20
25.572847
11
786.500000
21
25.582510
0
LINE
8
0
10
786.500000
20
25.582510
11
789.444336
21
25.572847
0
LINE
8
0
10
789.444336
20
25.572847
11
793.387695
21
25.440035
0
LINE
8
0
10
793.387695
20
25.440035
11
795.323242
21
25.032551
0
LINE
8
0
10
795.323242
20
25.032551
11
795.954102
21
24.202370
0
LINE
8
0
10
795.954102
20
24.202370
11
796.000000
21
23.582510
0
LINE
8
0
10
796.000000
20
23.582510
11
795.843750
21
22.566885
0
LINE
8
0
10
795.843750
20
22.566885
11
794.031250
21
21.660635
0
LINE
8
0
10
794.031250
20
21.660635
11
792.000000
21
21.582510
0
LINE
8
0
10
792.000000
20
21.582510
11
788.000000
21
21.582510
0
LINE
8
0
10
788.000000
20
21.582510
11
788.000000
21
12.082510
0
LINE
8
0
10
788.000000
20
12.082510
11
787.990337
21
9.138174
0
LINE
8
0
10
787.990337
20
9.138174
11
787.857525
21
5.194815
0
LINE
8
0
10
787.857525
20
5.194815
11
787.450041
21
3.259268
0
LINE
8
0
10
787.450041
20
3.259268
11
786.619860
21
2.628408
0
LINE
8
0
10
786.619860
20
2.628408
11
786.000000
21
2.582510
0
LINE
8
0
10
786.000000
20
2.582510
11
785.380140
21
2.628408
0
LINE
8
0
10
785.380140
20
2.628408
11
784.549959
21
3.259268
0
LINE
8
0
10
784.549959
20
3.259268
11
784.142475
21
5.194815
0
LINE
8
0
10
784.142475
20
5.194815
11
784.009663
21
9.138174
0
LINE
8
0
10
784.009663
20
9.138174
11
784.000000
21
12.082510
0
LINE
8
0
10
317.000000
20
12.082510
11
317.000000
21
21.582510
0
LINE
8
0
10
317.000000
20
21.582510
11
313.500000
21
21.582510
0
LINE
8
0
10
313.500000
20
21.582510
11
311.757812
21
21.667331
0
LINE
8
0
10
311.757812
20
21.667331
11
310.148438
21
22.586974
0
LINE
8
0
10
310.148438
20
22.586974
11
310.000000
21
23.582510
0
LINE
8
0
10
310.000000
20
23.582510
11
310.045898
21
24.202370
0
LINE
8
0
10
310.045898
20
24.202370
11
310.676758
21
25.032551
0
LINE
8
0
10
310.676758
20
25.032551
11
312.612305
21
25.440035
0
LINE
8
0
10
312.612305
20
25.440035
11
316.555664
21
25.572847
0
LINE
8
0
10
316.555664
20
25.572847
11
319.500000
21
25.582510
0
LINE
8
0
10
319.500000
20
25.582510
11
322.444336
21
25.572847
0
LINE
8
0
10
322.444336
20
25.572847
11
326.387695
21
25.440035
0
LINE
8
0
10
326.387695
20
25.440035
11
328.323242
21
25.032551
0
LINE
8
0
10
328.323242
20
25.032551
11
328.954102
21
24.202370
0
LINE
8
0
10
328.954102
20
24.202370
11
329.000000
21
23.582510
0
LINE
8
0
10
329.000000
20
23.582510
11
328.843750
21
22.566885
0
LINE
8
0
10
328.843750
20
22.566885
11
327.031250
21
21.660635
0
LINE
8
0
10
327.031250
20
21.660635
11
325.000000
21
21.582510
0
LINE
8
0
10
325.000000
20
21.582510
11
321.000000
21
21.582510
0
LINE
8
0
10
321.000000
20
21.582510
11
321.000000
21
12.082510
0
LINE
8
0
10
321.000000
20
12.082510
11
320.990337
21
9.138174
0
LINE
8
0
10
320.990337
20
9.138174
11
320.857525
21
5.194815
0
LINE
8
0
10
320.857525
20
5.194815
11
320.450041
21
3.259268
0
LINE
8
0
10
320.450041
20
3.259268
11
319.619860
21
2.628408
0
LINE
8
0
10
319.619860
20
2.628408
11
319.000000
21
2.582510
0
LINE
8
0
10
319.000000
20
2.582510
11
318.380140
21
2.628408
0
LINE
8
0
10
318.380140
20
2.628408
11
317.549959
21
3.259268
0
LINE
8
0
10
317.549959
20
3.259268
11
317.142475
21
5.194815
0
LINE
8
0
10
317.142475
20
5.194815
11
317.009663
21
9.138174
0
LINE
8
0
10
317.009663
20
9.138174
11
317.000000
21
12.082510
0
LINE
8
0
10
570.330179
20
3.357287
11
569.407002
21
4.312104
0
LINE
8
0
10
569.407002
20
4.312104
11
568.830179
21
5.562749
0
LINE
8
0
10
568.830179
20
5.562749
11
568.928894
21
6.278174
0
LINE
8
0
10
568.928894
20
6.278174
11
570.577469
21
6.772088
0
LINE
8
0
10
570.577469
20
6.772088
11
573.028484
21
6.783437
0
LINE
8
0
10
573.028484
20
6.783437
11
574.750000
21
6.711275
0
LINE
8
0
10
574.750000
20
6.711275
11
576.768954
21
6.617696
0
LINE
8
0
10
576.768954
20
6.617696
11
579.406722
21
6.627484
0
LINE
8
0
10
579.406722
20
6.627484
11
580.880776
21
7.494124
0
LINE
8
0
10
580.880776
20
7.494124
11
581.000000
21
8.919541
0
LINE
8
0
10
581.000000
20
8.919541
11
580.814541
21
10.292969
0
LINE
8
0
10
580.814541
20
10.292969
11
579.350901
21
11.700822
0
LINE
8
0
10
579.350901
20
11.700822
11
577.127527
21
12.548014
0
LINE
8
0
10
577.127527
20
12.548014
11
575.523961
21
13.032521
0
LINE
8
0
10
575.523961
20
13.032521
11
572.111931
21
14.393734
0
LINE
8
0
10
572.111931
20
14.393734
11
568.643607
21
16.991274
0
LINE
8
0
10
568.643607
20
16.991274
11
568.001280
21
18.601425
0
LINE
8
0
10
568.001280
20
18.601425
11
568.327674
21
19.243517
0
LINE
8
0
10
568.327674
20
19.243517
11
568.569795
21
19.269905
0
LINE
8
0
10
568.569795
20
19.269905
11
569.181682
21
18.425053
0
LINE
8
0
10
569.181682
20
18.425053
11
569.476082
21
17.657871
0
LINE
8
0
10
569.476082
20
17.657871
11
570.457130
21
16.256833
0
LINE
8
0
10
570.457130
20
16.256833
11
572.671007
21
15.641921
0
LINE
8
0
10
572.671007
20
15.641921
11
573.864516
21
16.327571
0
LINE
8
0
10
573.864516
20
16.327571
11
574.176676
21
17.025943
0
LINE
8
0
10
574.176676
20
17.025943
11
574.561032
21
17.664459
0
LINE
8
0
10
574.561032
20
17.664459
11
576.233834
21
17.613422
0
LINE
8
0
10
576.233834
20
17.613422
11
578.457999
21
16.856335
0
LINE
8
0
10
578.457999
20
16.856335
11
580.000000
21
16.247882
0
LINE
8
0
10
580.000000
20
16.247882
11
581.803629
21
15.509911
0
LINE
8
0
10
581.803629
20
15.509911
11
584.134950
21
14.348080
0
LINE
8
0
10
584.134950
20
14.348080
11
585.178941
21
13.116948
0
LINE
8
0
10
585.178941
20
13.116948
11
585.432305
21
11.230776
0
LINE
8
0
10
585.432305
20
11.230776
11
585.417722
21
9.859005
0
LINE
8
0
10
585.417722
20
9.859005
11
585.301988
21
7.829020
0
LINE
8
0
10
585.301988
20
7.829020
11
584.506689
21
4.928301
0
LINE
8
0
10
584.506689
20
4.928301
11
582.659348
21
3.310254
0
LINE
8
0
10
582.659348
20
3.310254
11
579.399644
21
2.659281
0
LINE
8
0
10
579.399644
20
2.659281
11
577.127555
21
2.597823
0
LINE
8
0
10
577.127555
20
2.597823
11
574.850175
21
2.662487
0
LINE
8
0
10
574.850175
20
2.662487
11
571.228448
21
3.067138
0
LINE
8
0
10
571.228448
20
3.067138
11
570.330179
21
3.357287
0
LINE
8
0
10
742.666667
20
3.249177
11
742.532747
21
3.612500
0
LINE
8
0
10
742.532747
20
3.612500
11
742.294596
21
5.547585
0
LINE
8
0
10
742.294596
20
5.547585
11
742.052604
21
10.738783
0
LINE
8
0
10
742.052604
20
10.738783
11
742.000000
21
15.155557
0
LINE
8
0
10
742.000000
20
15.155557
11
742.007499
21
18.722227
0
LINE
8
0
10
742.007499
20
18.722227
11
742.128568
21
23.401223
0
LINE
8
0
10
742.128568
20
23.401223
11
742.526780
21
25.534982
0
LINE
8
0
10
742.526780
20
25.534982
11
743.364996
21
25.996171
0
LINE
8
0
10
743.364996
20
25.996171
11
744.000000
21
25.872259
0
LINE
8
0
10
744.000000
20
25.872259
11
745.080627
21
25.324787
0
LINE
8
0
10
745.080627
20
25.324787
11
745.847267
21
22.728745
0
LINE
8
0
10
745.847267
20
22.728745
11
745.988742
21
18.824607
0
LINE
8
0
10
745.988742
20
18.824607
11
746.000000
21
15.965879
0
LINE
8
0
10
746.000000
20
15.965879
11
746.000000
21
6.582510
0
LINE
8
0
10
746.000000
20
6.582510
11
751.500000
21
6.582510
0
LINE
8
0
10
751.500000
20
6.582510
11
753.124023
21
6.568661
0
LINE
8
0
10
753.124023
20
6.568661
11
755.364258
21
6.413121
0
LINE
8
0
10
755.364258
20
6.413121
11
756.820312
21
5.636487
0
LINE
8
0
10
756.820312
20
5.636487
11
757.000000
21
4.582510
0
LINE
8
0
10
757.000000
20
4.582510
11
756.799479
21
3.508577
0
LINE
8
0
10
756.799479
20
3.508577
11
755.038737
21
2.739427
0
LINE
8
0
10
755.038737
20
2.739427
11
752.230794
21
2.594419
0
LINE
8
0
10
752.230794
20
2.594419
11
750.166667
21
2.582510
0
LINE
8
0
10
750.166667
20
2.582510
11
747.460807
21
2.635114
0
LINE
8
0
10
747.460807
20
2.635114
11
743.464714
21
2.990323
0
LINE
8
0
10
743.464714
20
2.990323
11
742.666667
21
3.249177
0
LINE
8
0
10
700.078947
20
10.285825
11
700.142705
21
13.234225
0
LINE
8
0
10
700.142705
20
13.234225
11
700.329756
21
16.304367
0
LINE
8
0
10
700.329756
20
16.304367
11
700.491545
21
17.124257
0
LINE
8
0
10
700.491545
20
17.124257
11
700.577433
21
17.082510
0
LINE
8
0
10
700.577433
20
17.082510
11
701.262433
21
16.597823
0
LINE
8
0
10
701.262433
20
16.597823
11
704.488829
21
16.277614
0
LINE
8
0
10
704.488829
20
16.277614
11
708.564163
21
16.667413
0
LINE
8
0
10
708.564163
20
16.667413
11
711.536927
21
17.580561
0
LINE
8
0
10
711.536927
20
17.580561
11
712.000000
21
18.175060
0
LINE
8
0
10
712.000000
20
18.175060
11
712.157812
21
18.721546
0
LINE
8
0
10
712.157812
20
18.721546
11
713.223438
21
19.471453
0
LINE
8
0
10
713.223438
20
19.471453
11
714.000000
21
19.582510
0
LINE
8
0
10
714.000000
20
19.582510
11
714.964987
21
19.442807
0
LINE
8
0
10
714.964987
20
19.442807
11
715.904996
21
18.060533
0
LINE
8
0
10
715.904996
20
18.060533
11
716.000000
21
16.641527
0
LINE
8
0
10
716.000000
20
16.641527
11
716.078906
21
15.450832
0
LINE
8
0
10
716.078906
20
15.450832
11
716.611719
21
13.554543
0
LINE
8
0
10
716.611719
20
13.554543
11
717.000000
21
13.082510
0
LINE
8
0
10
717.000000
20
13.082510
11
717.388281
21
12.610477
0
LINE
8
0
10
717.388281
20
12.610477
11
717.921094
21
10.714188
0
LINE
8
0
10
717.921094
20
10.714188
11
718.000000
21
9.523493
0
LINE
8
0
10
718.000000
20
9.523493
11
717.904996
21
8.104487
0
LINE
8
0
10
717.904996
20
8.104487
11
716.964987
21
6.722213
0
LINE
8
0
10
716.964987
20
6.722213
11
716.000000
21
6.582510
0
LINE
8
0
10
716.000000
20
6.582510
11
715.031250
21
6.723135
0
LINE
8
0
10
715.031250
20
6.723135
11
714.093750
21
8.129385
0
LINE
8
0
10
714.093750
20
8.129385
11
714.000000
21
9.582510
0
LINE
8
0
10
714.000000
20
9.582510
11
713.906250
21
11.292373
0
LINE
8
0
10
713.906250
20
11.292373
11
712.709100
21
12.408987
0
LINE
8
0
10
712.709100
20
12.408987
11
710.548686
21
12.574268
0
LINE
8
0
10
710.548686
20
12.574268
11
708.890594
21
12.582510
0
LINE
8
0
10
708.890594
20
12.582510
11
703.781188
21
12.582510
0
LINE
8
0
10
703.781188
20
12.582510
11
704.169664
21
9.254931
0
LINE
8
0
10
704.169664
20
9.254931
11
704.248616
21
7.568272
0
LINE
8
0
10
704.248616
20
7.568272
11
703.359783
21
5.195651
0
LINE
8
0
10
703.359783
20
5.195651
11
702.279070
21
4.208246
0
LINE
8
0
10
702.279070
20
4.208246
11
700.000000
21
2.489140
0
LINE
8
0
10
700.000000
20
2.489140
11
700.078947
21
10.285825
0
LINE
8
0
10
294.534796
20
5.686102
11
293.162301
21
7.050671
0
LINE
8
0
10
293.162301
20
7.050671
11
291.278918
21
9.781335
0
LINE
8
0
10
291.278918
20
9.781335
11
291.000000
21
10.811102
0
LINE
8
0
10
291.000000
20
10.811102
11
291.111309
21
11.827220
0
LINE
8
0
10
291.111309
20
11.827220
11
292.458926
21
12.465725
0
LINE
8
0
10
292.458926
20
12.465725
11
294.000000
21
12.232510
0
LINE
8
0
10
294.000000
20
12.232510
11
297.000000
21
11.632510
0
LINE
8
0
10
297.000000
20
11.632510
11
297.000000
21
18.607510
0
LINE
8
0
10
297.000000
20
18.607510
11
297.011747
21
20.718399
0
LINE
8
0
10
297.011747
20
20.718399
11
297.155872
21
23.586660
0
LINE
8
0
10
297.155872
20
23.586660
11
297.924395
21
25.379776
0
LINE
8
0
10
297.924395
20
25.379776
11
299.000000
21
25.582510
0
LINE
8
0
10
299.000000
20
25.582510
11
299.626868
21
25.532705
0
LINE
8
0
10
299.626868
20
25.532705
11
300.460768
21
24.800283
0
LINE
8
0
10
300.460768
20
24.800283
11
300.863961
21
22.481924
0
LINE
8
0
10
300.863961
20
22.481924
11
300.991338
21
17.687002
0
LINE
8
0
10
300.991338
20
17.687002
11
301.000000
21
14.082510
0
LINE
8
0
10
301.000000
20
14.082510
11
300.993317
21
11.777858
0
LINE
8
0
10
300.993317
20
11.777858
11
300.917566
21
8.005922
0
LINE
8
0
10
300.917566
20
8.005922
11
300.536548
21
4.296730
0
LINE
8
0
10
300.536548
20
4.296730
11
299.217393
21
2.583532
0
LINE
8
0
10
299.217393
20
2.583532
11
296.535415
21
3.998505
0
LINE
8
0
10
296.535415
20
3.998505
11
294.534796
21
5.686102
0
LINE
8
0
10
279.000000
20
13.082510
11
279.043712
21
16.769288
0
LINE
8
0
10
279.043712
20
16.769288
11
279.440619
21
21.728425
0
LINE
8
0
10
279.440619
20
21.728425
11
280.355082
21
23.693819
0
LINE
8
0
10
280.355082
20
23.693819
11
281.912999
21
22.936050
0
LINE
8
0
10
281.912999
20
22.936050
11
282.972594
21
21.620534
0
LINE
8
0
10
282.972594
20
21.620534
11
283.677329
21
20.797555
0
LINE
8
0
10
283.677329
20
20.797555
11
284.959365
21
20.317784
0
LINE
8
0
10
284.959365
20
20.317784
11
285.576570
21
20.646057
0
LINE
8
0
10
285.576570
20
20.646057
11
286.143070
21
20.996801
0
LINE
8
0
10
286.143070
20
20.996801
11
287.019580
21
20.731159
0
LINE
8
0
10
287.019580
20
20.731159
11
287.351832
21
20.108033
0
LINE
8
0
10
287.351832
20
20.108033
11
287.480739
21
19.030633
0
LINE
8
0
10
287.480739
20
19.030633
11
286.968615
21
18.582510
0
LINE
8
0
10
286.968615
20
18.582510
11
286.284531
21
18.151104
0
LINE
8
0
10
286.284531
20
18.151104
11
286.000000
21
17.113895
0
LINE
8
0
10
286.000000
20
17.113895
11
285.894116
21
16.547649
0
LINE
8
0
10
285.894116
20
16.547649
11
285.119847
21
16.086695
0
LINE
8
0
10
285.119847
20
16.086695
11
284.500000
21
16.220884
0
LINE
8
0
10
284.500000
20
16.220884
11
283.739707
21
16.232767
0
LINE
8
0
10
283.739707
20
16.232767
11
283.145910
21
14.477825
0
LINE
8
0
10
283.145910
20
14.477825
11
283.013322
21
11.685571
0
LINE
8
0
10
283.013322
20
11.685571
11
283.000000
21
9.689499
0
LINE
8
0
10
283.000000
20
9.689499
11
282.988399
21
7.535044
0
LINE
8
0
10
282.988399
20
7.535044
11
282.845064
21
4.610583
0
LINE
8
0
10
282.845064
20
4.610583
11
282.077103
21
2.787307
0
LINE
8
0
10
282.077103
20
2.787307
11
281.000000
21
2.582510
0
LINE
8
0
10
281.000000
20
2.582510
11
280.376302
21
2.630362
0
LINE
8
0
10
280.376302
20
2.630362
11
279.544085
21
3.312002
0
LINE
8
0
10
279.544085
20
3.312002
11
279.138951
21
5.438955
0
LINE
8
0
10
279.138951
20
5.438955
11
279.009115
21
9.808096
0
LINE
8
0
10
279.009115
20
9.808096
11
279.000000
21
13.082510
0
LINE
8
0
10
621.000000
20
14.082510
11
621.010992
21
17.529987
0
LINE
8
0
10
621.010992
20
17.529987
11
621.140976
21
22.241449
0
LINE
8
0
10
621.140976
20
22.241449
11
621.508397
21
24.655502
0
LINE
8
0
10
621.508397
20
24.655502
11
622.225382
21
25.508842
0
LINE
8
0
10
622.225382
20
25.508842
11
622.750000
21
25.580461
0
LINE
8
0
10
622.750000
20
25.580461
11
623.652588
21
25.317686
0
LINE
8
0
10
623.652588
20
25.317686
11
624.433478
21
23.442733
0
LINE
8
0
10
624.433478
20
23.442733
11
624.715347
21
20.738724
0
LINE
8
0
10
624.715347
20
20.738724
11
624.821506
21
18.830461
0
LINE
8
0
10
624.821506
20
18.830461
11
625.019605
21
16.184056
0
LINE
8
0
10
625.019605
20
16.184056
11
625.685620
21
12.411059
0
LINE
8
0
10
625.685620
20
12.411059
11
626.071506
21
11.749177
0
LINE
8
0
10
626.071506
20
11.749177
11
626.765155
21
11.064993
0
LINE
8
0
10
626.765155
20
11.064993
11
626.718846
21
9.014171
0
LINE
8
0
10
626.718846
20
9.014171
11
626.000000
21
8.582510
0
LINE
8
0
10
626.000000
20
8.582510
11
625.611719
21
8.345791
0
LINE
8
0
10
625.611719
20
8.345791
11
625.078906
21
6.747354
0
LINE
8
0
10
625.078906
20
6.747354
11
625.000000
21
5.582510
0
LINE
8
0
10
625.000000
20
5.582510
11
624.906250
21
4.129385
0
LINE
8
0
10
624.906250
20
4.129385
11
623.968750
21
2.723135
0
LINE
8
0
10
623.968750
20
2.723135
11
623.000000
21
2.582510
0
LINE
8
0
10
623.000000
20
2.582510
11
622.373132
21
2.632315
0
LINE
8
0
10
622.373132
20
2.632315
11
621.539232
21
3.364737
0
LINE
8
0
10
621.539232
20
3.364737
11
621.136039
21
5.683096
0
LINE
8
0
10
621.136039
20
5.683096
11
621.008662
21
10.478018
0
LINE
8
0
10
621.008662
20
10.478018
11
621.000000
21
14.082510
0
LINE
8
0
10
765.000000
20
14.082510
11
765.007186
21
18.003451
0
LINE
8
0
10
765.007186
20
18.003451
11
765.126555
21
23.139775
0
LINE
8
0
10
765.126555
20
23.139775
11
765.523425
21
25.479273
0
LINE
8
0
10
765.523425
20
25.479273
11
766.362804
21
25.994648
0
LINE
8
0
10
766.362804
20
25.994648
11
767.000000
21
25.872259
0
LINE
8
0
10
767.000000
20
25.872259
11
767.617294
21
25.654333
0
LINE
8
0
10
767.617294
20
25.654333
11
768.446113
21
24.678199
0
LINE
8
0
10
768.446113
20
24.678199
11
768.855168
21
22.266872
0
LINE
8
0
10
768.855168
20
22.266872
11
768.989971
21
17.562576
0
LINE
8
0
10
768.989971
20
17.562576
11
769.000000
21
14.082510
0
LINE
8
0
10
769.000000
20
14.082510
11
768.989971
21
10.602444
0
LINE
8
0
10
768.989971
20
10.602444
11
768.855168
21
5.898148
0
LINE
8
0
10
768.855168
20
5.898148
11
768.446113
21
3.486821
0
LINE
8
0
10
768.446113
20
3.486821
11
767.617294
21
2.510687
0
LINE
8
0
10
767.617294
20
2.510687
11
767.000000
21
2.292761
0
LINE
8
0
10
767.000000
20
2.292761
11
766.362804
21
2.170372
0
LINE
8
0
10
766.362804
20
2.170372
11
765.523425
21
2.685747
0
LINE
8
0
10
765.523425
20
2.685747
11
765.126555
21
5.025245
0
LINE
8
0
10
765.126555
20
5.025245
11
765.007186
21
10.161569
0
LINE
8
0
10
765.007186
20
10.161569
11
765.000000
21
14.082510
0
LINE
8
0
10
727.000000
20
14.082510
11
727.007186
21
18.003451
0
LINE
8
0
10
727.007186
20
18.003451
11
727.126555
21
23.139775
0
LINE
8
0
10
727.126555
20
23.139775
11
727.523425
21
25.479273
0
LINE
8
0
10
727.523425
20
25.479273
11
728.362804
21
25.994648
0
LINE
8
0
10
728.362804
20
25.994648
11
729.000000
21
25.872259
0
LINE
8
0
10
729.000000
20
25.872259
11
729.617294
21
25.654333
0
LINE
8
0
10
729.617294
20
25.654333
11
730.446113
21
24.678199
0
LINE
8
0
10
730.446113
20
24.678199
11
730.855168
21
22.266872
0
LINE
8
0
10
730.855168
20
22.266872
11
730.989971
21
17.562576
0
LINE
8
0
10
730.989971
20
17.562576
11
731.000000
21
14.082510
0
LINE
8
0
10
731.000000
20
14.082510
11
730.989971
21
10.602444
0
LINE
8
0
10
730.989971
20
10.602444
11
730.855168
21
5.898148
0
LINE
8
0
10
730.855168
20
5.898148
11
730.446113
21
3.486821
0
LINE
8
0
10
730.446113
20
3.486821
11
729.617294
21
2.510687
0
LINE
8
0
10
729.617294
20
2.510687
11
729.000000
21
2.292761
0
LINE
8
0
10
729.000000
20
2.292761
11
728.362804
21
2.170372
0
LINE
8
0
10
728.362804
20
2.170372
11
727.523425
21
2.685747
0
LINE
8
0
10
727.523425
20
2.685747
11
727.126555
21
5.025245
0
LINE
8
0
10
727.126555
20
5.025245
11
727.007186
21
10.161569
0
LINE
8
0
10
727.007186
20
10.161569
11
727.000000
21
14.082510
0
LINE
8
0
10
337.000000
20
14.082510
11
337.008662
21
17.687002
0
LINE
8
0
10
337.008662
20
17.687002
11
337.136039
21
22.481924
0
LINE
8
0
10
337.136039
20
22.481924
11
337.539232
21
24.800283
0
LINE
8
0
10
337.539232
20
24.800283
11
338.373132
21
25.532705
0
LINE
8
0
10
338.373132
20
25.532705
11
339.000000
21
25.582510
0
LINE
8
0
10
339.000000
20
25.582510
11
339.626868
21
25.532705
0
LINE
8
0
10
339.626868
20
25.532705
11
340.460768
21
24.800283
0
LINE
8
0
10
340.460768
20
24.800283
11
340.863961
21
22.481924
0
LINE
8
0
10
340.863961
20
22.481924
11
340.991338
21
17.687002
0
LINE
8
0
10
340.991338
20
17.687002
11
341.000000
21
14.082510
0
LINE
8
0
10
341.000000
20
14.082510
11
340.991338
21
10.478018
0
LINE
8
0
10
340.991338
20
10.478018
11
340.863961
21
5.683096
0
LINE
8
0
10
340.863961
20
5.683096
11
340.460768
21
3.364737
0
LINE
8
0
10
340.460768
20
3.364737
11
339.626868
21
2.632315
0
LINE
8
0
10
339.626868
20
2.632315
11
339.000000
21
2.582510
0
LINE
8
0
10
339.000000
20
2.582510
11
338.373132
21
2.632315
0
LINE
8
0
10
338.373132
20
2.632315
11
337.539232
21
3.364737
0
LINE
8
0
10
337.539232
20
3.364737
11
337.136039
21
5.683096
0
LINE
8
0
10
337.136039
20
5.683096
11
337.008662
21
10.478018
0
LINE
8
0
10
337.008662
20
10.478018
11
337.000000
21
14.082510
0
LINE
8
0
10
448.000000
20
1.798216
11
446.810944
21
2.363909
0
LINE
8
0
10
446.810944
20
2.363909
11
446.469136
21
3.052055
0
LINE
8
0
10
446.469136
20
3.052055
11
447.250000
21
3.308154
0
LINE
8
0
10
447.250000
20
3.308154
11
448.485937
21
4.024574
0
LINE
8
0
10
448.485937
20
4.024574
11
449.000000
21
5.155834
0
LINE
8
0
10
449.000000
20
5.155834
11
449.195575
21
5.764205
0
LINE
8
0
10
449.195575
20
5.764205
11
450.694733
21
6.488076
0
LINE
8
0
10
450.694733
20
6.488076
11
451.954687
21
6.582510
0
LINE
8
0
10
451.954687
20
6.582510
11
453.548383
21
6.697472
0
LINE
8
0
10
453.548383
20
6.697472
11
455.104533
21
8.333647
0
LINE
8
0
10
455.104533
20
8.333647
11
455.521277
21
10.332510
0
LINE
8
0
10
455.521277
20
10.332510
11
455.871623
21
12.439595
0
LINE
8
0
10
455.871623
20
12.439595
11
456.374904
21
15.111943
0
LINE
8
0
10
456.374904
20
15.111943
11
456.672464
21
15.876192
0
LINE
8
0
10
456.672464
20
15.876192
11
456.833296
21
14.909545
0
LINE
8
0
10
456.833296
20
14.909545
11
456.883999
21
13.832510
0
LINE
8
0
10
456.883999
20
13.832510
11
457.032730
21
12.251166
0
LINE
8
0
10
457.032730
20
12.251166
11
458.021513
21
10.732479
0
LINE
8
0
10
458.021513
20
10.732479
11
459.000000
21
10.582510
0
LINE
8
0
10
459.000000
20
10.582510
11
460.271687
21
10.301260
0
LINE
8
0
10
460.271687
20
10.301260
11
461.084255
21
8.429558
0
LINE
8
0
10
461.084255
20
8.429558
11
459.936555
21
5.652903
0
LINE
8
0
10
459.936555
20
5.652903
11
457.245559
21
2.980081
0
LINE
8
0
10
457.245559
20
2.980081
11
455.451627
21
1.997852
0
LINE
8
0
10
455.451627
20
1.997852
11
453.098204
21
1.071431
0
LINE
8
0
10
453.098204
20
1.071431
11
450.012811
21
0.988771
0
LINE
8
0
10
450.012811
20
0.988771
11
448.000000
21
1.798216
0
LINE
8
0
10
179.000000
20
161.582510
11
179.010702
21
163.444691
0
LINE
8
0
10
179.010702
20
163.444691
11
179.159199
21
165.929250
0
LINE
8
0
10
179.159199
20
165.929250
11
180.014094
21
167.378811
0
LINE
8
0
10
180.014094
20
167.378811
11
181.250000
21
167.466509
0
LINE
8
0
10
181.250000
20
167.466509
11
182.227622
21
167.388495
0
LINE
8
0
10
182.227622
20
167.388495
11
182.465549
21
167.115677
0
LINE
8
0
10
182.465549
20
167.115677
11
181.750000
21
166.893185
0
LINE
8
0
10
181.750000
20
166.893185
11
180.897956
21
166.440985
0
LINE
8
0
10
180.897956
20
166.440985
11
180.080569
21
163.898670
0
LINE
8
0
10
180.080569
20
163.898670
11
180.000000
21
161.450169
0
LINE
8
0
10
180.000000
20
161.450169
11
180.069682
21
159.419422
0
LINE
8
0
10
180.069682
20
159.419422
11
180.584047
21
157.172852
0
LINE
8
0
10
180.584047
20
157.172852
11
181.000000
21
157.082510
0
LINE
8
0
10
181.000000
20
157.082510
11
181.710748
21
158.162598
0
LINE
8
0
10
181.710748
20
158.162598
11
182.015313
21
159.891527
0
LINE
8
0
10
182.015313
20
159.891527
11
182.276529
21
161.834009
0
LINE
8
0
10
182.276529
20
161.834009
11
182.883056
21
163.427531
0
LINE
8
0
10
182.883056
20
163.427531
11
183.316472
21
163.908168
0
LINE
8
0
10
183.316472
20
163.908168
11
184.057661
21
163.236956
0
LINE
8
0
10
184.057661
20
163.236956
11
184.423099
21
162.032887
0
LINE
8
0
10
184.423099
20
162.032887
11
184.740558
21
161.057862
0
LINE
8
0
10
184.740558
20
161.057862
11
185.489633
21
160.157280
0
LINE
8
0
10
185.489633
20
160.157280
11
186.275972
21
160.592387
0
LINE
8
0
10
186.275972
20
160.592387
11
186.961644
21
162.286861
0
LINE
8
0
10
186.961644
20
162.286861
11
187.223626
21
163.582510
0
LINE
8
0
10
187.223626
20
163.582510
11
187.348791
21
164.244129
0
LINE
8
0
10
187.348791
20
164.244129
11
187.648699
21
164.805649
0
LINE
8
0
10
187.648699
20
164.805649
11
188.093422
21
164.253891
0
LINE
8
0
10
188.093422
20
164.253891
11
188.777413
21
162.471667
0
LINE
8
0
10
188.777413
20
162.471667
11
189.238650
21
161.082510
0
LINE
8
0
10
189.238650
20
161.082510
11
190.860697
21
156.082510
0
LINE
8
0
10
190.860697
20
156.082510
11
190.930348
21
161.259186
0
LINE
8
0
10
190.930348
20
161.259186
11
190.887338
21
163.828724
0
LINE
8
0
10
190.887338
20
163.828724
11
190.108738
21
166.439273
0
LINE
8
0
10
190.108738
20
166.439273
11
189.250000
21
166.893185
0
LINE
8
0
10
189.250000
20
166.893185
11
188.534451
21
167.115677
0
LINE
8
0
10
188.534451
20
167.115677
11
188.772378
21
167.388495
0
LINE
8
0
10
188.772378
20
167.388495
11
189.750000
21
167.466509
0
LINE
8
0
10
189.750000
20
167.466509
11
190.985906
21
167.378811
0
LINE
8
0
10
190.985906
20
167.378811
11
191.840801
21
165.929250
0
LINE
8
0
10
191.840801
20
165.929250
11
191.989298
21
163.444691
0
LINE
8
0
10
191.989298
20
163.444691
11
192.000000
21
161.582510
0
LINE
8
0
10
192.000000
20
161.582510
11
192.000000
21
155.582510
0
LINE
8
0
10
192.000000
20
155.582510
11
188.083333
21
155.582510
0
LINE
8
0
10
188.083333
20
155.582510
11
186.515980
21
155.681081
0
LINE
8
0
10
186.515980
20
155.681081
11
184.118772
21
156.346971
0
LINE
8
0
10
184.118772
20
156.346971
11
183.583333
21
156.832510
0
LINE
8
0
10
183.583333
20
156.832510
11
183.269792
21
157.395010
0
LINE
8
0
10
183.269792
20
157.395010
11
182.730208
21
157.395010
0
LINE
8
0
10
182.730208
20
157.395010
11
182.416667
21
156.832510
0
LINE
8
0
10
182.416667
20
156.832510
11
181.588542
21
155.949698
0
LINE
8
0
10
181.588542
20
155.949698
11
180.416667
21
155.582510
0
LINE
8
0
10
180.416667
20
155.582510
11
179.746094
21
155.885819
0
LINE
8
0
10
179.746094
20
155.885819
11
179.167480
21
157.702225
0
LINE
8
0
10
179.167480
20
157.702225
11
179.017198
21
160.029891
0
LINE
8
0
10
179.017198
20
160.029891
11
179.000000
21
161.582510
0
LINE
8
0
10
572.030409
20
19.262959
11
571.392109
21
20.190519
0
LINE
8
0
10
571.392109
20
20.190519
11
569.900174
21
20.762959
0
LINE
8
0
10
569.900174
20
20.762959
11
567.800348
21
21.082510
0
LINE
8
0
10
567.800348
20
21.082510
11
569.972754
21
23.832510
0
LINE
8
0
10
569.972754
20
23.832510
11
571.217266
21
25.181123
0
LINE
8
0
10
571.217266
20
25.181123
11
574.082591
21
26.459131
0
LINE
8
0
10
574.082591
20
26.459131
11
576.138322
21
26.582510
0
LINE
8
0
10
576.138322
20
26.582510
11
579.324586
21
26.323606
0
LINE
8
0
10
579.324586
20
26.323606
11
582.736189
21
25.082968
0
LINE
8
0
10
582.736189
20
25.082968
11
583.852543
21
23.798393
0
LINE
8
0
10
583.852543
20
23.798393
11
584.000000
21
23.047326
0
LINE
8
0
10
584.000000
20
23.047326
11
583.744121
21
22.358963
0
LINE
8
0
10
583.744121
20
22.358963
11
581.375998
21
21.658226
0
LINE
8
0
10
581.375998
20
21.658226
11
579.049690
21
21.582510
0
LINE
8
0
10
579.049690
20
21.582510
11
576.679005
21
21.491002
0
LINE
8
0
10
576.679005
20
21.491002
11
573.816107
21
20.651737
0
LINE
8
0
10
573.816107
20
20.651737
11
573.080099
21
19.832510
0
LINE
8
0
10
573.080099
20
19.832510
11
572.681931
21
19.246163
0
LINE
8
0
10
572.681931
20
19.246163
11
572.122643
21
18.942699
0
LINE
8
0
10
572.122643
20
18.942699
11
572.030409
21
19.262959
0
LINE
8
0
10
862.185979
20
138.330523
11
879.056445
21
138.454368
0
LINE
8
0
10
879.056445
20
138.454368
11
896.185979
21
138.331178
0
LINE
8
0
10
896.185979
20
138.331178
11
897.773327
21
138.300705
0
LINE
8
0
10
897.773327
20
138.300705
11
899.784720
21
138.242456
0
LINE
8
0
10
899.784720
20
138.242456
11
900.302078
21
138.188828
0
LINE
8
0
10
900.302078
20
138.188828
11
899.393838
21
138.141050
0
LINE
8
0
10
899.393838
20
138.141050
11
897.128440
21
138.100352
0
LINE
8
0
10
897.128440
20
138.100352
11
893.574321
21
138.067963
0
LINE
8
0
10
893.574321
20
138.067963
11
888.799920
21
138.045114
0
LINE
8
0
10
888.799920
20
138.045114
11
882.873676
21
138.033032
0
LINE
8
0
10
882.873676
20
138.033032
11
879.500000
21
138.031413
0
LINE
8
0
10
879.500000
20
138.031413
11
876.123066
21
138.032902
0
LINE
8
0
10
876.123066
20
138.032902
11
870.171722
21
138.044755
0
LINE
8
0
10
870.171722
20
138.044755
11
865.349589
21
138.067420
0
LINE
8
0
10
865.349589
20
138.067420
11
861.727683
21
138.099670
0
LINE
8
0
10
861.727683
20
138.099670
11
859.377017
21
138.140280
0
LINE
8
0
10
859.377017
20
138.140280
11
858.368606
21
138.188020
0
LINE
8
0
10
858.368606
20
138.188020
11
858.773465
21
138.241666
0
LINE
8
0
10
858.773465
20
138.241666
11
860.662609
21
138.299990
0
LINE
8
0
10
860.662609
20
138.299990
11
862.185979
21
138.330523
0
LINE
8
0
10
353.250000
20
138.330813
11
370.000000
21
138.454586
0
LINE
8
0
10
370.000000
20
138.454586
11
386.750000
21
138.330813
0
LINE
8
0
10
386.750000
20
138.330813
11
388.282486
21
138.300248
0
LINE
8
0
10
388.282486
20
138.300248
11
390.204074
21
138.241841
0
LINE
8
0
10
390.204074
20
138.241841
11
390.658401
21
138.188093
0
LINE
8
0
10
390.658401
20
138.188093
11
389.714169
21
138.140235
0
LINE
8
0
10
389.714169
20
138.140235
11
387.440079
21
138.099498
0
LINE
8
0
10
387.440079
20
138.099498
11
383.904831
21
138.067112
0
LINE
8
0
10
383.904831
20
138.067112
11
379.177127
21
138.044307
0
LINE
8
0
10
379.177127
20
138.044307
11
373.325668
21
138.032315
0
LINE
8
0
10
373.325668
20
138.032315
11
370.000000
21
138.030759
0
LINE
8
0
10
370.000000
20
138.030759
11
366.674332
21
138.032315
0
LINE
8
0
10
366.674332
20
138.032315
11
360.822873
21
138.044307
0
LINE
8
0
10
360.822873
20
138.044307
11
356.095169
21
138.067112
0
LINE
8
0
10
356.095169
20
138.067112
11
352.559921
21
138.099498
0
LINE
8
0
10
352.559921
20
138.099498
11
350.285831
21
138.140235
0
LINE
8
0
10
350.285831
20
138.140235
11
349.341599
21
138.188093
0
LINE
8
0
10
349.341599
20
138.188093
11
349.795926
21
138.241841
0
LINE
8
0
10
349.795926
20
138.241841
11
351.717514
21
138.300248
0
LINE
8
0
10
351.717514
20
138.300248
11
353.250000
21
138.330813
0
LINE
8
0
10
250.250000
20
138.330813
11
267.000000
21
138.454586
0
LINE
8
0
10
267.000000
20
138.454586
11
283.750000
21
138.330813
0
LINE
8
0
10
283.750000
20
138.330813
11
285.282486
21
138.300248
0
LINE
8
0
10
285.282486
20
138.300248
11
287.204074
21
138.241841
0
LINE
8
0
10
287.204074
20
138.241841
11
287.658401
21
138.188093
0
LINE
8
0
10
287.658401
20
138.188093
11
286.714169
21
138.140235
0
LINE
8
0
10
286.714169
20
138.140235
11
284.440079
21
138.099498
0
LINE
8
0
10
284.440079
20
138.099498
11
280.904831
21
138.067112
0
LINE
8
0
10
280.904831
20
138.067112
11
276.177127
21
138.044307
0
LINE
8
0
10
276.177127
20
138.044307
11
270.325668
21
138.032315
0
LINE
8
0
10
270.325668
20
138.032315
11
267.000000
21
138.030759
0
LINE
8
0
10
267.000000
20
138.030759
11
263.674332
21
138.032315
0
LINE
8
0
10
263.674332
20
138.032315
11
257.822873
21
138.044307
0
LINE
8
0
10
257.822873
20
138.044307
11
253.095169
21
138.067112
0
LINE
8
0
10
253.095169
20
138.067112
11
249.559921
21
138.099498
0
LINE
8
0
10
249.559921
20
138.099498
11
247.285831
21
138.140235
0
LINE
8
0
10
247.285831
20
138.140235
11
246.341599
21
138.188093
0
LINE
8
0
10
246.341599
20
138.188093
11
246.795926
21
138.241841
0
LINE
8
0
10
246.795926
20
138.241841
11
248.717514
21
138.300248
0
LINE
8
0
10
248.717514
20
138.300248
11
250.250000
21
138.330813
0
LINE
8
0
10
547.710251
20
14.582510
11
548.126766
21
15.524829
0
LINE
8
0
10
548.126766
20
15.524829
11
549.960578
21
16.479950
0
LINE
8
0
10
549.960578
20
16.479950
11
551.550209
21
16.582510
0
LINE
8
0
10
551.550209
20
16.582510
11
553.291169
21
16.677017
0
LINE
8
0
10
553.291169
20
16.677017
11
554.904192
21
17.894075
0
LINE
8
0
10
554.904192
20
17.894075
11
555.183578
21
19.323959
0
LINE
8
0
10
555.183578
20
19.323959
11
555.438542
21
20.473567
0
LINE
8
0
10
555.438542
20
20.473567
11
556.508680
21
22.065149
0
LINE
8
0
10
556.508680
20
22.065149
11
557.250000
21
22.397284
0
LINE
8
0
10
557.250000
20
22.397284
11
558.099503
21
22.412346
0
LINE
8
0
10
558.099503
20
22.412346
11
558.918584
21
21.098451
0
LINE
8
0
10
558.918584
20
21.098451
11
559.000000
21
19.590093
0
LINE
8
0
10
559.000000
20
19.590093
11
558.925810
21
17.705503
0
LINE
8
0
10
558.925810
20
17.705503
11
558.244164
21
14.949153
0
LINE
8
0
10
558.244164
20
14.949153
11
556.655654
21
13.345535
0
LINE
8
0
10
556.655654
20
13.345535
11
553.925270
21
12.657405
0
LINE
8
0
10
553.925270
20
12.657405
11
552.058436
21
12.582510
0
LINE
8
0
10
552.058436
20
12.582510
11
550.595102
21
12.594707
0
LINE
8
0
10
550.595102
20
12.594707
11
548.634370
21
12.741277
0
LINE
8
0
10
548.634370
20
12.741277
11
547.575532
21
13.511537
0
LINE
8
0
10
547.575532
20
13.511537
11
547.710251
21
14.582510
0
LINE
8
0
10
370.000000
20
17.582510
11
370.010742
21
20.031729
0
LINE
8
0
10
370.010742
20
20.031729
11
370.149414
21
23.336416
0
LINE
8
0
10
370.149414
20
23.336416
11
370.914062
21
25.363760
0
LINE
8
0
10
370.914062
20
25.363760
11
372.000000
21
25.582510
0
LINE
8
0
10
372.000000
20
25.582510
11
373.085938
21
25.363760
0
LINE
8
0
10
373.085938
20
25.363760
11
373.850586
21
23.336416
0
LINE
8
0
10
373.850586
20
23.336416
11
373.989258
21
20.031729
0
LINE
8
0
10
373.989258
20
20.031729
11
374.000000
21
17.582510
0
LINE
8
0
10
374.000000
20
17.582510
11
373.989258
21
15.133291
0
LINE
8
0
10
373.989258
20
15.133291
11
373.850586
21
11.828604
0
LINE
8
0
10
373.850586
20
11.828604
11
373.085938
21
9.801260
0
LINE
8
0
10
373.085938
20
9.801260
11
372.000000
21
9.582510
0
LINE
8
0
10
372.000000
20
9.582510
11
370.914062
21
9.801260
0
LINE
8
0
10
370.914062
20
9.801260
11
370.149414
21
11.828604
0
LINE
8
0
10
370.149414
20
11.828604
11
370.010742
21
15.133291
0
LINE
8
0
10
370.010742
20
15.133291
11
370.000000
21
17.582510
0
LINE
8
0
10
457.000000
20
18.082510
11
457.011198
21
20.366690
0
LINE
8
0
10
457.011198
20
20.366690
11
457.152344
21
23.458487
0
LINE
8
0
10
457.152344
20
23.458487
11
457.918750
21
25.371573
0
LINE
8
0
10
457.918750
20
25.371573
11
459.000000
21
25.582510
0
LINE
8
0
10
459.000000
20
25.582510
11
460.081250
21
25.371573
0
LINE
8
0
10
460.081250
20
25.371573
11
460.847656
21
23.458487
0
LINE
8
0
10
460.847656
20
23.458487
11
460.988802
21
20.366690
0
LINE
8
0
10
460.988802
20
20.366690
11
461.000000
21
18.082510
0
LINE
8
0
10
461.000000
20
18.082510
11
460.988802
21
15.798330
0
LINE
8
0
10
460.988802
20
15.798330
11
460.847656
21
12.706533
0
LINE
8
0
10
460.847656
20
12.706533
11
460.081250
21
10.793448
0
LINE
8
0
10
460.081250
20
10.793448
11
459.000000
21
10.582510
0
LINE
8
0
10
459.000000
20
10.582510
11
457.918750
21
10.793448
0
LINE
8
0
10
457.918750
20
10.793448
11
457.152344
21
12.706533
0
LINE
8
0
10
457.152344
20
12.706533
11
457.011198
21
15.798330
0
LINE
8
0
10
457.011198
20
15.798330
11
457.000000
21
18.082510
0
LINE
8
0
10
443.247630
20
5.938367
11
442.715059
21
7.166173
0
LINE
8
0
10
442.715059
20
7.166173
11
442.128811
21
8.981659
0
LINE
8
0
10
442.128811
20
8.981659
11
442.460578
21
10.360497
0
LINE
8
0
10
442.460578
20
10.360497
11
443.500000
21
10.582510
0
LINE
8
0
10
443.500000
20
10.582510
11
444.240625
21
10.910635
0
LINE
8
0
10
444.240625
20
10.910635
11
444.841797
21
13.072744
0
LINE
8
0
10
444.841797
20
13.072744
11
444.984766
21
16.037588
0
LINE
8
0
10
444.984766
20
16.037588
11
445.000000
21
18.082510
0
LINE
8
0
10
445.000000
20
18.082510
11
445.075000
21
21.082510
0
LINE
8
0
10
445.075000
20
21.082510
11
445.429688
21
24.352041
0
LINE
8
0
10
445.429688
20
24.352041
11
445.791146
21
25.437979
0
LINE
8
0
10
445.791146
20
25.437979
11
446.000000
21
25.582510
0
LINE
8
0
10
446.000000
20
25.582510
11
446.389150
21
25.128799
0
LINE
8
0
10
446.389150
20
25.128799
11
446.927826
21
22.065127
0
LINE
8
0
10
446.927826
20
22.065127
11
447.011006
21
19.832510
0
LINE
8
0
10
447.011006
20
19.832510
11
447.200855
21
14.670010
0
LINE
8
0
10
447.200855
20
14.670010
11
447.641848
21
10.332510
0
LINE
8
0
10
447.641848
20
10.332510
11
447.878921
21
8.483679
0
LINE
8
0
10
447.878921
20
8.483679
11
447.444788
21
6.747483
0
LINE
8
0
10
447.444788
20
6.747483
11
446.704167
21
6.582510
0
LINE
8
0
10
446.704167
20
6.582510
11
445.508497
21
6.085721
0
LINE
8
0
10
445.508497
20
6.085721
11
444.820954
21
4.891314
0
LINE
8
0
10
444.820954
20
4.891314
11
444.603709
21
4.229496
0
LINE
8
0
10
444.603709
20
4.229496
11
443.854532
21
4.728076
0
LINE
8
0
10
443.854532
20
4.728076
11
443.247630
21
5.938367
0
LINE
8
0
10
735.250000
20
124.330367
11
750.000000
21
124.456431
0
LINE
8
0
10
750.000000
20
124.456431
11
764.750000
21
124.330367
0
LINE
8
0
10
764.750000
20
124.330367
11
766.099503
21
124.299236
0
LINE
8
0
10
766.099503
20
124.299236
11
767.791647
21
124.239748
0
LINE
8
0
10
767.791647
20
124.239748
11
768.191727
21
124.185006
0
LINE
8
0
10
768.191727
20
124.185006
11
767.360239
21
124.136262
0
LINE
8
0
10
767.360239
20
124.136262
11
765.357681
21
124.094770
0
LINE
8
0
10
765.357681
20
124.094770
11
762.244553
21
124.061785
0
LINE
8
0
10
762.244553
20
124.061785
11
755.624878
21
124.030996
0
LINE
8
0
10
755.624878
20
124.030996
11
750.000000
21
124.024759
0
LINE
8
0
10
750.000000
20
124.024759
11
744.375122
21
124.030996
0
LINE
8
0
10
744.375122
20
124.030996
11
737.755447
21
124.061785
0
LINE
8
0
10
737.755447
20
124.061785
11
734.642319
21
124.094770
0
LINE
8
0
10
734.642319
20
124.094770
11
732.639761
21
124.136262
0
LINE
8
0
10
732.639761
20
124.136262
11
731.808273
21
124.185006
0
LINE
8
0
10
731.808273
20
124.185006
11
732.208353
21
124.239748
0
LINE
8
0
10
732.208353
20
124.239748
11
733.900497
21
124.299236
0
LINE
8
0
10
733.900497
20
124.299236
11
735.250000
21
124.330367
0
LINE
8
0
10
355.250000
20
124.330367
11
370.000000
21
124.456431
0
LINE
8
0
10
370.000000
20
124.456431
11
384.750000
21
124.330367
0
LINE
8
0
10
384.750000
20
124.330367
11
386.099503
21
124.299236
0
LINE
8
0
10
386.099503
20
124.299236
11
387.791647
21
124.239748
0
LINE
8
0
10
387.791647
20
124.239748
11
388.191727
21
124.185006
0
LINE
8
0
10
388.191727
20
124.185006
11
387.360239
21
124.136262
0
LINE
8
0
10
387.360239
20
124.136262
11
385.357681
21
124.094770
0
LINE
8
0
10
385.357681
20
124.094770
11
382.244553
21
124.061785
0
LINE
8
0
10
382.244553
20
124.061785
11
375.624878
21
124.030996
0
LINE
8
0
10
375.624878
20
124.030996
11
370.000000
21
124.024759
0
LINE
8
0
10
370.000000
20
124.024759
11
364.375122
21
124.030996
0
LINE
8
0
10
364.375122
20
124.030996
11
357.755447
21
124.061785
0
LINE
8
0
10
357.755447
20
124.061785
11
354.642319
21
124.094770
0
LINE
8
0
10
354.642319
20
124.094770
11
352.639761
21
124.136262
0
LINE
8
0
10
352.639761
20
124.136262
11
351.808273
21
124.185006
0
LINE
8
0
10
351.808273
20
124.185006
11
352.208353
21
124.239748
0
LINE
8
0
10
352.208353
20
124.239748
11
353.900497
21
124.299236
0
LINE
8
0
10
353.900497
20
124.299236
11
355.250000
21
124.330367
0
LINE
8
0
10
702.146431
20
4.157513
11
703.663096
21
5.208091
0
LINE
8
0
10
703.663096
20
5.208091
11
708.190722
21
6.663052
0
LINE
8
0
10
708.190722
20
6.663052
11
713.106955
21
7.110462
0
LINE
8
0
10
713.106955
20
7.110462
11
716.487250
21
6.375174
0
LINE
8
0
10
716.487250
20
6.375174
11
717.000000
21
5.509286
0
LINE
8
0
10
717.000000
20
5.509286
11
716.813704
21
4.879293
0
LINE
8
0
10
716.813704
20
4.879293
11
715.394627
21
3.811451
0
LINE
8
0
10
715.394627
20
3.811451
11
712.738669
21
3.045489
0
LINE
8
0
10
712.738669
20
3.045489
11
709.035944
21
2.636237
0
LINE
8
0
10
709.035944
20
2.636237
11
706.851456
21
2.582510
0
LINE
8
0
10
706.851456
20
2.582510
11
704.949621
21
2.591397
0
LINE
8
0
10
704.949621
20
2.591397
11
702.473281
21
2.702920
0
LINE
8
0
10
702.473281
20
2.702920
11
701.498319
21
3.029288
0
LINE
8
0
10
701.498319
20
3.029288
11
701.702665
21
3.678312
0
LINE
8
0
10
701.702665
20
3.678312
11
702.146431
21
4.157513
0
LINE
8
0
10
170.666667
20
156.249177
11
170.407813
21
156.889411
0
LINE
8
0
10
170.407813
20
156.889411
11
170.052604
21
159.819880
0
LINE
8
0
10
170.052604
20
159.819880
11
170.000000
21
161.749177
0
LINE
8
0
10
170.000000
20
161.749177
11
170.008511
21
163.317955
0
LINE
8
0
10
170.008511
20
163.317955
11
170.179548
21
165.361784
0
LINE
8
0
10
170.179548
20
165.361784
11
171.335885
21
166.493961
0
LINE
8
0
10
171.335885
20
166.493961
11
173.106989
21
166.582510
0
LINE
8
0
10
173.106989
20
166.582510
11
174.586080
21
166.508777
0
LINE
8
0
10
174.586080
20
166.508777
11
175.756648
21
165.768142
0
LINE
8
0
10
175.756648
20
165.768142
11
175.606989
21
165.000723
0
LINE
8
0
10
175.606989
20
165.000723
11
175.178303
21
162.732610
0
LINE
8
0
10
175.178303
20
162.732610
11
175.000000
21
159.500723
0
LINE
8
0
10
175.000000
20
159.500723
11
174.919676
21
157.566847
0
LINE
8
0
10
174.919676
20
157.566847
11
174.071528
21
155.754179
0
LINE
8
0
10
174.071528
20
155.754179
11
173.166667
21
155.582510
0
LINE
8
0
10
173.166667
20
155.582510
11
171.676042
21
155.778343
0
LINE
8
0
10
171.676042
20
155.778343
11
170.666667
21
156.249177
0
LINE
8
0
10
290.192728
20
9.155634
11
288.002501
21
11.760924
0
LINE
8
0
10
288.002501
20
11.760924
11
285.798956
21
15.463651
0
LINE
8
0
10
285.798956
20
15.463651
11
285.729373
21
16.655634
0
LINE
8
0
10
285.729373
20
16.655634
11
286.362071
21
18.016490
0
LINE
8
0
10
286.362071
20
18.016490
11
287.175648
21
18.582510
0
LINE
8
0
10
287.175648
20
18.582510
11
287.632883
21
18.949698
0
LINE
8
0
10
287.632883
20
18.949698
11
287.408840
21
19.832510
0
LINE
8
0
10
287.408840
20
19.832510
11
287.421495
21
20.045938
0
LINE
8
0
10
287.421495
20
20.045938
11
288.988488
21
18.875792
0
LINE
8
0
10
288.988488
20
18.875792
11
290.349823
21
17.636343
0
LINE
8
0
10
290.349823
20
17.636343
11
291.670087
21
16.351223
0
LINE
8
0
10
291.670087
20
16.351223
11
293.383125
21
14.402641
0
LINE
8
0
10
293.383125
20
14.402641
11
293.894457
21
13.200792
0
LINE
8
0
10
293.894457
20
13.200792
11
293.246023
21
12.647101
0
LINE
8
0
10
293.246023
20
12.647101
11
292.500000
21
12.582510
0
LINE
8
0
10
292.500000
20
12.582510
11
291.753580
21
12.442418
0
LINE
8
0
10
291.753580
20
12.442418
11
291.063266
21
11.433001
0
LINE
8
0
10
291.063266
20
11.433001
11
291.927464
21
8.652388
0
LINE
8
0
10
291.927464
20
8.652388
11
293.687091
21
6.387229
0
LINE
8
0
10
293.687091
20
6.387229
11
294.682534
21
5.298209
0
LINE
8
0
10
294.682534
20
5.298209
11
295.790777
21
3.803820
0
LINE
8
0
10
295.790777
20
3.803820
11
295.767078
21
3.582510
0
LINE
8
0
10
295.767078
20
3.582510
11
295.139404
21
4.022264
0
LINE
8
0
10
295.139404
20
4.022264
11
292.169321
21
6.991694
0
LINE
8
0
10
292.169321
20
6.991694
11
290.192728
21
9.155634
0
LINE
8
0
10
863.250000
20
124.330075
11
877.000000
21
124.457486
0
LINE
8
0
10
877.000000
20
124.457486
11
890.750000
21
124.330075
0
LINE
8
0
10
890.750000
20
124.330075
11
892.008011
21
124.298611
0
LINE
8
0
10
892.008011
20
124.298611
11
893.585434
21
124.238488
0
LINE
8
0
10
893.585434
20
124.238488
11
893.958389
21
124.183160
0
LINE
8
0
10
893.958389
20
124.183160
11
893.183273
21
124.133896
0
LINE
8
0
10
893.183273
20
124.133896
11
891.316483
21
124.091961
0
LINE
8
0
10
891.316483
20
124.091961
11
888.414413
21
124.058623
0
LINE
8
0
10
888.414413
20
124.058623
11
882.243530
21
124.027506
0
LINE
8
0
10
882.243530
20
124.027506
11
877.000000
21
124.021202
0
LINE
8
0
10
877.000000
20
124.021202
11
871.756470
21
124.027506
0
LINE
8
0
10
871.756470
20
124.027506
11
865.585587
21
124.058623
0
LINE
8
0
10
865.585587
20
124.058623
11
862.683517
21
124.091961
0
LINE
8
0
10
862.683517
20
124.091961
11
860.816727
21
124.133896
0
LINE
8
0
10
860.816727
20
124.133896
11
860.041611
21
124.183160
0
LINE
8
0
10
860.041611
20
124.183160
11
860.414566
21
124.238488
0
LINE
8
0
10
860.414566
20
124.238488
11
861.991989
21
124.298611
0
LINE
8
0
10
861.991989
20
124.298611
11
863.250000
21
124.330075
0
LINE
8
0
10
48.309787
20
171.330465
11
61.937574
21
171.457749
0
LINE
8
0
10
61.937574
20
171.457749
11
75.309787
21
171.329490
0
LINE
8
0
10
75.309787
20
171.329490
11
76.513368
21
171.297892
0
LINE
8
0
10
76.513368
20
171.297892
11
78.001809
21
171.237542
0
LINE
8
0
10
78.001809
20
171.237542
11
78.312493
21
171.182044
0
LINE
8
0
10
78.312493
20
171.182044
11
77.502060
21
171.132668
0
LINE
8
0
10
77.502060
20
171.132668
11
74.308220
21
171.072854
0
LINE
8
0
10
74.308220
20
171.072854
11
66.654516
21
171.026363
0
LINE
8
0
10
66.654516
20
171.026363
11
61.500000
21
171.020227
0
LINE
8
0
10
61.500000
20
171.020227
11
56.358129
21
171.026735
0
LINE
8
0
10
56.358129
20
171.026735
11
48.797966
21
171.073774
0
LINE
8
0
10
48.797966
20
171.073774
11
45.723996
21
171.133815
0
LINE
8
0
10
45.723996
20
171.133815
11
45.012383
21
171.183246
0
LINE
8
0
10
45.012383
20
171.183246
11
45.434048
21
171.238718
0
LINE
8
0
10
45.434048
20
171.238718
11
47.043092
21
171.298956
0
LINE
8
0
10
47.043092
20
171.298956
11
48.309787
21
171.330465
0
LINE
8
0
10
442.207936
20
18.321666
11
442.302028
21
20.358005
0
LINE
8
0
10
442.302028
20
20.358005
11
442.570502
21
23.406185
0
LINE
8
0
10
442.570502
20
23.406185
11
443.267138
21
25.834699
0
LINE
8
0
10
443.267138
20
25.834699
11
444.000000
21
26.349254
0
LINE
8
0
10
444.000000
20
26.349254
11
444.750777
21
26.185460
0
LINE
8
0
10
444.750777
20
26.185460
11
445.252894
21
24.071530
0
LINE
8
0
10
445.252894
20
24.071530
11
445.253128
21
20.879300
0
LINE
8
0
10
445.253128
20
20.879300
11
445.173853
21
18.610099
0
LINE
8
0
10
445.173853
20
18.610099
11
445.070808
21
16.474264
0
LINE
8
0
10
445.070808
20
16.474264
11
444.795802
21
13.328947
0
LINE
8
0
10
444.795802
20
13.328947
11
444.106703
21
10.959646
0
LINE
8
0
10
444.106703
20
10.959646
11
443.381789
21
10.582510
0
LINE
8
0
10
443.381789
20
10.582510
11
442.664454
21
10.910676
0
LINE
8
0
10
442.664454
20
10.910676
11
442.162524
21
13.119584
0
LINE
8
0
10
442.162524
20
13.119584
11
442.141812
21
16.190259
0
LINE
8
0
10
442.141812
20
16.190259
11
442.207936
21
18.321666
0
LINE
8
0
10
542.807349
20
123.329971
11
554.934130
21
123.459566
0
LINE
8
0
10
554.934130
20
123.459566
11
566.807349
21
123.328782
0
LINE
8
0
10
566.807349
20
123.328782
11
567.873940
21
123.296577
0
LINE
8
0
10
567.873940
20
123.296577
11
569.190774
21
123.235074
0
LINE
8
0
10
569.190774
20
123.235074
11
569.219800
21
123.152509
0
LINE
8
0
10
569.219800
20
123.152509
11
565.890566
21
123.067294
0
LINE
8
0
10
565.890566
20
123.067294
11
559.082445
21
123.019979
0
LINE
8
0
10
559.082445
20
123.019979
11
554.500000
21
123.013765
0
LINE
8
0
10
554.500000
20
123.013765
11
549.930101
21
123.020433
0
LINE
8
0
10
549.930101
20
123.020433
11
543.214785
21
123.068418
0
LINE
8
0
10
543.214785
20
123.068418
11
540.051831
21
123.153954
0
LINE
8
0
10
540.051831
20
123.153954
11
540.241653
21
123.236508
0
LINE
8
0
10
540.241653
20
123.236508
11
541.678139
21
123.297875
0
LINE
8
0
10
541.678139
20
123.297875
11
542.807349
21
123.329971
0
LINE
8
0
10
544.807349
20
83.329971
11
556.934130
21
83.459566
0
LINE
8
0
10
556.934130
20
83.459566
11
568.807349
21
83.328782
0
LINE
8
0
10
568.807349
20
83.328782
11
569.873940
21
83.296577
0
LINE
8
0
10
569.873940
20
83.296577
11
571.190774
21
83.235074
0
LINE
8
0
10
571.190774
20
83.235074
11
571.219800
21
83.152509
0
LINE
8
0
10
571.219800
20
83.152509
11
567.890566
21
83.067294
0
LINE
8
0
10
567.890566
20
83.067294
11
561.082445
21
83.019979
0
LINE
8
0
10
561.082445
20
83.019979
11
556.500000
21
83.013765
0
LINE
8
0
10
556.500000
20
83.013765
11
551.930101
21
83.020433
0
LINE
8
0
10
551.930101
20
83.020433
11
545.214785
21
83.068418
0
LINE
8
0
10
545.214785
20
83.068418
11
542.051831
21
83.153954
0
LINE
8
0
10
542.051831
20
83.153954
11
542.241653
21
83.236508
0
LINE
8
0
10
542.241653
20
83.236508
11
543.678139
21
83.297875
0
LINE
8
0
10
543.678139
20
83.297875
11
544.807349
21
83.329971
0
LINE
8
0
10
702.431254
20
104.082510
11
702.437923
21
108.652409
0
LINE
8
0
10
702.437923
20
108.652409
11
702.485908
21
115.367725
0
LINE
8
0
10
702.485908
20
115.367725
11
702.571444
21
118.530679
0
LINE
8
0
10
702.571444
20
118.530679
11
702.653998
21
118.340857
0
LINE
8
0
10
702.653998
20
118.340857
11
702.715365
21
116.904371
0
LINE
8
0
10
702.715365
20
116.904371
11
702.747461
21
115.775161
0
LINE
8
0
10
702.747461
20
115.775161
11
702.877056
21
103.648380
0
LINE
8
0
10
702.877056
20
103.648380
11
702.746272
21
91.775161
0
LINE
8
0
10
702.746272
20
91.775161
11
702.714067
21
90.708570
0
LINE
8
0
10
702.714067
20
90.708570
11
702.652564
21
89.391736
0
LINE
8
0
10
702.652564
20
89.391736
11
702.569999
21
89.362710
0
LINE
8
0
10
702.569999
20
89.362710
11
702.484784
21
92.691944
0
LINE
8
0
10
702.484784
20
92.691944
11
702.437469
21
99.500065
0
LINE
8
0
10
702.437469
20
99.500065
11
702.431254
21
104.082510
0
LINE
8
0
10
147.431254
20
119.082510
11
147.437923
21
123.652409
0
LINE
8
0
10
147.437923
20
123.652409
11
147.485908
21
130.367725
0
LINE
8
0
10
147.485908
20
130.367725
11
147.571444
21
133.530679
0
LINE
8
0
10
147.571444
20
133.530679
11
147.653998
21
133.340857
0
LINE
8
0
10
147.653998
20
133.340857
11
147.715365
21
131.904371
0
LINE
8
0
10
147.715365
20
131.904371
11
147.747461
21
130.775161
0
LINE
8
0
10
147.747461
20
130.775161
11
147.877056
21
118.648380
0
LINE
8
0
10
147.877056
20
118.648380
11
147.746272
21
106.775161
0
LINE
8
0
10
147.746272
20
106.775161
11
147.714067
21
105.708570
0
LINE
8
0
10
147.714067
20
105.708570
11
147.652564
21
104.391736
0
LINE
8
0
10
147.652564
20
104.391736
11
147.569999
21
104.362710
0
LINE
8
0
10
147.569999
20
104.362710
11
147.484784
21
107.691944
0
LINE
8
0
10
147.484784
20
107.691944
11
147.437469
21
114.500065
0
LINE
8
0
10
147.437469
20
114.500065
11
147.431254
21
119.082510
0
LINE
8
0
10
626.250000
20
83.329278
11
638.000000
21
83.459918
0
LINE
8
0
10
638.000000
20
83.459918
11
649.750000
21
83.329278
0
LINE
8
0
10
649.750000
20
83.329278
11
650.825027
21
83.297016
0
LINE
8
0
10
650.825027
20
83.297016
11
652.173007
21
83.235369
0
LINE
8
0
10
652.173007
20
83.235369
11
652.280151
21
83.152525
0
LINE
8
0
10
652.280151
20
83.152525
11
649.101685
21
83.066854
0
LINE
8
0
10
649.101685
20
83.066854
11
642.480835
21
83.019039
0
LINE
8
0
10
642.480835
20
83.019039
11
638.000000
21
83.012575
0
LINE
8
0
10
638.000000
20
83.012575
11
633.519165
21
83.019039
0
LINE
8
0
10
633.519165
20
83.019039
11
626.898315
21
83.066854
0
LINE
8
0
10
626.898315
20
83.066854
11
623.719849
21
83.152525
0
LINE
8
0
10
623.719849
20
83.152525
11
623.826993
21
83.235369
0
LINE
8
0
10
623.826993
20
83.235369
11
625.174973
21
83.297016
0
LINE
8
0
10
625.174973
20
83.297016
11
626.250000
21
83.329278
0
LINE
8
0
10
260.250000
20
124.329278
11
272.000000
21
124.459918
0
LINE
8
0
10
272.000000
20
124.459918
11
283.750000
21
124.329278
0
LINE
8
0
10
283.750000
20
124.329278
11
284.825027
21
124.297016
0
LINE
8
0
10
284.825027
20
124.297016
11
286.173007
21
124.235369
0
LINE
8
0
10
286.173007
20
124.235369
11
286.280151
21
124.152525
0
LINE
8
0
10
286.280151
20
124.152525
11
283.101685
21
124.066854
0
LINE
8
0
10
283.101685
20
124.066854
11
276.480835
21
124.019039
0
LINE
8
0
10
276.480835
20
124.019039
11
272.000000
21
124.012575
0
LINE
8
0
10
272.000000
20
124.012575
11
267.519165
21
124.019039
0
LINE
8
0
10
267.519165
20
124.019039
11
260.898315
21
124.066854
0
LINE
8
0
10
260.898315
20
124.066854
11
257.719849
21
124.152525
0
LINE
8
0
10
257.719849
20
124.152525
11
257.826993
21
124.235369
0
LINE
8
0
10
257.826993
20
124.235369
11
259.174973
21
124.297016
0
LINE
8
0
10
259.174973
20
124.297016
11
260.250000
21
124.329278
0
LINE
8
0
10
185.430065
20
79.582510
11
185.436529
21
84.063345
0
LINE
8
0
10
185.436529
20
84.063345
11
185.484344
21
90.684195
0
LINE
8
0
10
185.484344
20
90.684195
11
185.570015
21
93.862661
0
LINE
8
0
10
185.570015
20
93.862661
11
185.652859
21
93.755517
0
LINE
8
0
10
185.652859
20
93.755517
11
185.714506
21
92.407538
0
LINE
8
0
10
185.714506
20
92.407538
11
185.746768
21
91.332510
0
LINE
8
0
10
185.746768
20
91.332510
11
185.877408
21
79.582510
0
LINE
8
0
10
185.877408
20
79.582510
11
185.746768
21
67.832510
0
LINE
8
0
10
185.746768
20
67.832510
11
185.714506
21
66.757483
0
LINE
8
0
10
185.714506
20
66.757483
11
185.652859
21
65.409503
0
LINE
8
0
10
185.652859
20
65.409503
11
185.570015
21
65.302359
0
LINE
8
0
10
185.570015
20
65.302359
11
185.484344
21
68.480825
0
LINE
8
0
10
185.484344
20
68.480825
11
185.436529
21
75.101675
0
LINE
8
0
10
185.436529
20
75.101675
11
185.430065
21
79.582510
0
LINE
8
0
10
354.306420
20
83.329766
11
365.932819
21
83.460232
0
LINE
8
0
10
365.932819
20
83.460232
11
377.306420
21
83.328489
0
LINE
8
0
10
377.306420
20
83.328489
11
378.327361
21
83.296055
0
LINE
8
0
10
378.327361
20
83.296055
11
379.587014
21
83.234115
0
LINE
8
0
10
379.587014
20
83.234115
11
379.611724
21
83.150970
0
LINE
8
0
10
379.611724
20
83.150970
11
376.417995
21
83.065167
0
LINE
8
0
10
376.417995
20
83.065167
11
369.891752
21
83.017542
0
LINE
8
0
10
369.891752
20
83.017542
11
365.500000
21
83.011299
0
LINE
8
0
10
365.500000
20
83.011299
11
361.120756
21
83.018029
0
LINE
8
0
10
361.120756
20
83.018029
11
354.687038
21
83.066374
0
LINE
8
0
10
354.687038
20
83.066374
11
351.659087
21
83.152521
0
LINE
8
0
10
351.659087
20
83.152521
11
351.844106
21
83.235655
0
LINE
8
0
10
351.844106
20
83.235655
11
353.223052
21
83.297448
0
LINE
8
0
10
353.223052
20
83.297448
11
354.306420
21
83.329766
0
LINE
8
0
10
515.750000
20
68.329017
11
527.000000
21
68.460603
0
LINE
8
0
10
527.000000
20
68.460603
11
538.250000
21
68.329017
0
LINE
8
0
10
538.250000
20
68.329017
11
539.279282
21
68.296522
0
LINE
8
0
10
539.279282
20
68.296522
11
540.569901
21
68.234428
0
LINE
8
0
10
540.569901
20
68.234428
11
540.672485
21
68.150984
0
LINE
8
0
10
540.672485
20
68.150984
11
537.629272
21
68.064694
0
LINE
8
0
10
537.629272
20
68.064694
11
531.290161
21
68.016533
0
LINE
8
0
10
531.290161
20
68.016533
11
527.000000
21
68.010022
0
LINE
8
0
10
527.000000
20
68.010022
11
522.709839
21
68.016533
0
LINE
8
0
10
522.709839
20
68.016533
11
516.370728
21
68.064694
0
LINE
8
0
10
516.370728
20
68.064694
11
513.327515
21
68.150984
0
LINE
8
0
10
513.327515
20
68.150984
11
513.430099
21
68.234428
0
LINE
8
0
10
513.430099
20
68.234428
11
514.720718
21
68.296522
0
LINE
8
0
10
514.720718
20
68.296522
11
515.750000
21
68.329017
0
LINE
8
0
10
875.750000
20
83.329017
11
887.000000
21
83.460603
0
LINE
8
0
10
887.000000
20
83.460603
11
898.250000
21
83.329017
0
LINE
8
0
10
898.250000
20
83.329017
11
899.279282
21
83.296522
0
LINE
8
0
10
899.279282
20
83.296522
11
900.569901
21
83.234428
0
LINE
8
0
10
900.569901
20
83.234428
11
900.672485
21
83.150984
0
LINE
8
0
10
900.672485
20
83.150984
11
897.629272
21
83.064694
0
LINE
8
0
10
897.629272
20
83.064694
11
891.290161
21
83.016533
0
LINE
8
0
10
891.290161
20
83.016533
11
887.000000
21
83.010022
0
LINE
8
0
10
887.000000
20
83.010022
11
882.709839
21
83.016533
0
LINE
8
0
10
882.709839
20
83.016533
11
876.370728
21
83.064694
0
LINE
8
0
10
876.370728
20
83.064694
11
873.327515
21
83.150984
0
LINE
8
0
10
873.327515
20
83.150984
11
873.430099
21
83.234428
0
LINE
8
0
10
873.430099
20
83.234428
11
874.720718
21
83.296522
0
LINE
8
0
10
874.720718
20
83.296522
11
875.750000
21
83.329017
0
LINE
8
0
10
298.545455
20
84.037056
11
299.336172
21
84.873826
0
LINE
8
0
10
299.336172
20
84.873826
11
300.370938
21
86.758076
0
LINE
8
0
10
300.370938
20
86.758076
11
300.852676
21
90.168161
0
LINE
8
0
10
300.852676
20
90.168161
11
300.978008
21
94.625706
0
LINE
8
0
10
300.978008
20
94.625706
11
300.998656
21
98.852280
0
LINE
8
0
10
300.998656
20
98.852280
11
301.000000
21
101.412056
0
LINE
8
0
10
301.000000
20
101.412056
11
300.995060
21
104.761497
0
LINE
8
0
10
300.995060
20
104.761497
11
300.941489
21
110.357507
0
LINE
8
0
10
300.941489
20
110.357507
11
300.798433
21
114.645019
0
LINE
8
0
10
300.798433
20
114.645019
11
300.528417
21
117.818433
0
LINE
8
0
10
300.528417
20
117.818433
11
299.803370
21
120.914871
0
LINE
8
0
10
299.803370
20
120.914871
11
298.042520
21
122.958516
0
LINE
8
0
10
298.042520
20
122.958516
11
296.737440
21
123.524194
0
LINE
8
0
10
296.737440
20
123.524194
11
295.566362
21
123.755802
0
LINE
8
0
10
295.566362
20
123.755802
11
290.561406
21
124.143950
0
LINE
8
0
10
290.561406
20
124.143950
11
282.404523
21
124.418591
0
LINE
8
0
10
282.404523
20
124.418591
11
271.573878
21
124.563626
0
LINE
8
0
10
271.573878
20
124.563626
11
265.305322
21
124.582510
0
LINE
8
0
10
265.305322
20
124.582510
11
236.909091
21
124.582510
0
LINE
8
0
10
236.909091
20
124.582510
11
234.304529
21
121.977948
0
LINE
8
0
10
234.304529
20
121.977948
11
231.699967
21
119.373386
0
LINE
8
0
10
231.699967
20
119.373386
11
232.349983
21
105.819836
0
LINE
8
0
10
232.349983
20
105.819836
11
232.602373
21
100.177952
0
LINE
8
0
10
232.602373
20
100.177952
11
232.888596
21
92.465040
0
LINE
8
0
10
232.888596
20
92.465040
11
232.986733
21
88.701617
0
LINE
8
0
10
232.986733
20
88.701617
11
233.000000
21
87.459381
0
LINE
8
0
10
233.000000
20
87.459381
11
233.000000
21
82.652476
0
LINE
8
0
10
233.000000
20
82.652476
11
243.250000
21
82.328391
0
LINE
8
0
10
243.250000
20
82.328391
11
245.743652
21
82.258984
0
LINE
8
0
10
245.743652
20
82.258984
11
252.620339
21
82.111372
0
LINE
8
0
10
252.620339
20
82.111372
11
265.718040
21
81.900867
0
LINE
8
0
10
265.718040
20
81.900867
11
274.795455
21
81.793407
0
LINE
8
0
10
274.795455
20
81.793407
11
296.090909
21
81.582510
0
LINE
8
0
10
296.090909
20
81.582510
11
298.545455
21
84.037056
0
LINE
8
0
10
780.694236
20
83.995926
11
783.500000
21
86.409343
0
LINE
8
0
10
783.500000
20
86.409343
11
783.500000
21
103.584280
0
LINE
8
0
10
783.500000
20
103.584280
11
783.498923
21
106.553733
0
LINE
8
0
10
783.498923
20
106.553733
11
783.480532
21
111.439609
0
LINE
8
0
10
783.480532
20
111.439609
11
783.363488
21
116.530940
0
LINE
8
0
10
783.363488
20
116.530940
11
782.903607
21
120.249006
0
LINE
8
0
10
782.903607
20
120.249006
11
781.905373
21
122.003322
0
LINE
8
0
10
781.905373
20
122.003322
11
781.139216
21
122.670863
0
LINE
8
0
10
781.139216
20
122.670863
11
780.267524
21
123.265618
0
LINE
8
0
10
780.267524
20
123.265618
11
777.358645
21
124.060333
0
LINE
8
0
10
777.358645
20
124.060333
11
772.980655
21
124.381660
0
LINE
8
0
10
772.980655
20
124.381660
11
768.455875
21
124.498749
0
LINE
8
0
10
768.455875
20
124.498749
11
762.297600
21
124.559093
0
LINE
8
0
10
762.297600
20
124.559093
11
754.207031
21
124.580657
0
LINE
8
0
10
754.207031
20
124.580657
11
749.343761
21
124.582510
0
LINE
8
0
10
749.343761
20
124.582510
11
719.909091
21
124.582510
0
LINE
8
0
10
719.909091
20
124.582510
11
717.304529
21
121.977948
0
LINE
8
0
10
717.304529
20
121.977948
11
714.699967
21
119.373386
0
LINE
8
0
10
714.699967
20
119.373386
11
715.349983
21
105.819836
0
LINE
8
0
10
715.349983
20
105.819836
11
715.602373
21
100.177952
0
LINE
8
0
10
715.602373
20
100.177952
11
715.888596
21
92.465040
0
LINE
8
0
10
715.888596
20
92.465040
11
715.986733
21
88.701617
0
LINE
8
0
10
715.986733
20
88.701617
11
716.000000
21
87.459381
0
LINE
8
0
10
716.000000
20
87.459381
11
716.000000
21
82.652476
0
LINE
8
0
10
716.000000
20
82.652476
11
726.250000
21
82.328391
0
LINE
8
0
10
726.250000
20
82.328391
11
728.731381
21
82.258984
0
LINE
8
0
10
728.731381
20
82.258984
11
735.517298
21
82.111372
0
LINE
8
0
10
735.517298
20
82.111372
11
748.350263
21
81.900867
0
LINE
8
0
10
748.350263
20
81.900867
11
757.194236
21
81.793407
0
LINE
8
0
10
757.194236
20
81.793407
11
760.818250
21
81.757225
0
LINE
8
0
10
760.818250
20
81.757225
11
766.764362
21
81.713175
0
LINE
8
0
10
766.764362
20
81.713175
11
771.200131
21
81.728017
0
LINE
8
0
10
771.200131
20
81.728017
11
774.396208
21
81.827118
0
LINE
8
0
10
774.396208
20
81.827118
11
777.457953
21
82.189246
0
LINE
8
0
10
777.457953
20
82.189246
11
779.727449
21
83.203746
0
LINE
8
0
10
779.727449
20
83.203746
11
780.694236
21
83.995926
0
LINE
8
0
10
909.822318
20
83.451535
11
910.592192
21
84.199026
0
LINE
8
0
10
910.592192
20
84.199026
11
911.686352
21
87.194444
0
LINE
8
0
10
911.686352
20
87.194444
11
912.240252
21
92.728537
0
LINE
8
0
10
912.240252
20
92.728537
11
912.318520
21
101.447021
0
LINE
8
0
10
912.318520
20
101.447021
11
912.199489
21
107.202195
0
LINE
8
0
10
912.199489
20
107.202195
11
911.767680
21
123.321880
0
LINE
8
0
10
911.767680
20
123.321880
11
905.737149
21
123.952195
0
LINE
8
0
10
905.737149
20
123.952195
11
903.228716
21
124.157280
0
LINE
8
0
10
903.228716
20
124.157280
11
896.382456
21
124.453237
0
LINE
8
0
10
896.382456
20
124.453237
11
883.143138
21
124.629856
0
LINE
8
0
10
883.143138
20
124.629856
11
868.905612
21
124.514840
0
LINE
8
0
10
868.905612
20
124.514840
11
860.284757
21
124.292335
0
LINE
8
0
10
860.284757
20
124.292335
11
853.358340
21
123.964502
0
LINE
8
0
10
853.358340
20
123.964502
11
848.981593
21
123.541057
0
LINE
8
0
10
848.981593
20
123.541057
11
848.016607
21
123.296515
0
LINE
8
0
10
848.016607
20
123.296515
11
846.723293
21
122.484640
0
LINE
8
0
10
846.723293
20
122.484640
11
844.990241
21
119.900676
0
LINE
8
0
10
844.990241
20
119.900676
11
844.229405
21
114.958985
0
LINE
8
0
10
844.229405
20
114.958985
11
844.177045
21
108.927679
0
LINE
8
0
10
844.177045
20
108.927679
11
844.342278
21
103.496616
0
LINE
8
0
10
844.342278
20
103.496616
11
844.475604
21
100.297421
0
LINE
8
0
10
844.475604
20
100.297421
11
845.209922
21
83.650159
0
LINE
8
0
10
845.209922
20
83.650159
11
855.354961
21
83.327232
0
LINE
8
0
10
855.354961
20
83.327232
11
873.353443
21
82.928845
0
LINE
8
0
10
873.353443
20
82.928845
11
894.552158
21
82.839892
0
LINE
8
0
10
894.552158
20
82.839892
11
901.254394
21
82.928431
0
LINE
8
0
10
901.254394
20
82.928431
11
906.299136
21
83.086431
0
LINE
8
0
10
906.299136
20
83.086431
11
909.258439
21
83.312916
0
LINE
8
0
10
909.258439
20
83.312916
11
909.822318
21
83.451535
0
LINE
8
0
10
401.139216
20
110.494157
11
402.290009
21
111.634078
0
LINE
8
0
10
402.290009
20
111.634078
11
403.391768
21
114.644240
0
LINE
8
0
10
403.391768
20
114.644240
11
403.500000
21
116.944157
0
LINE
8
0
10
403.500000
20
116.944157
11
403.397536
21
118.808892
0
LINE
8
0
10
403.397536
20
118.808892
11
402.705647
21
121.919640
0
LINE
8
0
10
402.705647
20
121.919640
11
402.201441
21
122.782510
0
LINE
8
0
10
402.201441
20
122.782510
11
401.887702
21
122.935838
0
LINE
8
0
10
401.887702
20
122.935838
11
400.371512
21
123.225976
0
LINE
8
0
10
400.371512
20
123.225976
11
396.170922
21
123.615795
0
LINE
8
0
10
396.170922
20
123.615795
11
387.801700
21
124.039364
0
LINE
8
0
10
387.801700
20
124.039364
11
377.424188
21
124.336984
0
LINE
8
0
10
377.424188
20
124.336984
11
366.299085
21
124.491181
0
LINE
8
0
10
366.299085
20
124.491181
11
355.687087
21
124.484482
0
LINE
8
0
10
355.687087
20
124.484482
11
346.848891
21
124.299412
0
LINE
8
0
10
346.848891
20
124.299412
11
342.142690
21
124.033043
0
LINE
8
0
10
342.142690
20
124.033043
11
340.216148
21
123.790622
0
LINE
8
0
10
340.216148
20
123.790622
11
339.675251
21
123.649140
0
LINE
8
0
10
339.675251
20
123.649140
11
338.193683
21
122.931837
0
LINE
8
0
10
338.193683
20
122.931837
11
337.181741
21
120.952288
0
LINE
8
0
10
337.181741
20
120.952288
11
337.011550
21
118.181354
0
LINE
8
0
10
337.011550
20
118.181354
11
337.000000
21
116.142244
0
LINE
8
0
10
337.000000
20
116.142244
11
337.000000
21
109.652476
0
LINE
8
0
10
337.000000
20
109.652476
11
347.250000
21
109.328391
0
LINE
8
0
10
347.250000
20
109.328391
11
349.730258
21
109.258984
0
LINE
8
0
10
349.730258
20
109.258984
11
356.507869
21
109.111372
0
LINE
8
0
10
356.507869
20
109.111372
11
369.316606
21
108.900867
0
LINE
8
0
10
369.316606
20
108.900867
11
378.139216
21
108.793407
0
LINE
8
0
10
378.139216
20
108.793407
11
381.506735
21
108.761146
0
LINE
8
0
10
381.506735
20
108.761146
11
387.135361
21
108.727319
0
LINE
8
0
10
387.135361
20
108.727319
11
393.198119
21
108.781850
0
LINE
8
0
10
393.198119
20
108.781850
11
397.919180
21
109.130951
0
LINE
8
0
10
397.919180
20
109.130951
11
400.306361
21
109.907525
0
LINE
8
0
10
400.306361
20
109.907525
11
401.139216
21
110.494157
0
LINE
8
0
10
674.545455
20
111.037056
11
675.677564
21
112.410699
0
LINE
8
0
10
675.677564
20
112.410699
11
676.941541
21
115.457833
0
LINE
8
0
10
676.941541
20
115.457833
11
676.878426
21
118.579965
0
LINE
8
0
10
676.878426
20
118.579965
11
675.496099
21
121.387335
0
LINE
8
0
10
675.496099
20
121.387335
11
674.312693
21
122.551186
0
LINE
8
0
10
674.312693
20
122.551186
11
673.355834
21
123.232761
0
LINE
8
0
10
673.355834
20
123.232761
11
670.536216
21
124.108258
0
LINE
8
0
10
670.536216
20
124.108258
11
666.239036
21
124.415928
0
LINE
8
0
10
666.239036
20
124.415928
11
661.673168
21
124.491895
0
LINE
8
0
10
661.673168
20
124.491895
11
655.334642
21
124.487579
0
LINE
8
0
10
655.334642
20
124.487579
11
646.870491
21
124.422725
0
LINE
8
0
10
646.870491
20
124.422725
11
641.731005
21
124.373766
0
LINE
8
0
10
641.731005
20
124.373766
11
635.719913
21
124.317613
0
LINE
8
0
10
635.719913
20
124.317613
11
625.993715
21
124.196466
0
LINE
8
0
10
625.993715
20
124.196466
11
618.964820
21
123.958462
0
LINE
8
0
10
618.964820
20
123.958462
11
614.196413
21
123.477520
0
LINE
8
0
10
614.196413
20
123.477520
11
611.251677
21
122.627558
0
LINE
8
0
10
611.251677
20
122.627558
11
609.693799
21
121.282496
0
LINE
8
0
10
609.693799
20
121.282496
11
609.001804
21
118.060784
0
LINE
8
0
10
609.001804
20
118.060784
11
609.000000
21
114.926364
0
LINE
8
0
10
609.000000
20
114.926364
11
609.000000
21
109.652476
0
LINE
8
0
10
609.000000
20
109.652476
11
619.250000
21
109.328391
0
LINE
8
0
10
619.250000
20
109.328391
11
621.743652
21
109.258984
0
LINE
8
0
10
621.743652
20
109.258984
11
628.620339
21
109.111372
0
LINE
8
0
10
628.620339
20
109.111372
11
641.718040
21
108.900867
0
LINE
8
0
10
641.718040
20
108.900867
11
650.795455
21
108.793407
0
LINE
8
0
10
650.795455
20
108.793407
11
672.090909
21
108.582510
0
LINE
8
0
10
672.090909
20
108.582510
11
674.545455
21
111.037056
0
LINE
8
0
10
427.250000
20
7.780190
11
428.416066
21
9.665695
0
LINE
8
0
10
428.416066
20
9.665695
11
428.758985
21
14.388107
0
LINE
8
0
10
428.758985
20
14.388107
11
427.937439
21
17.247058
0
LINE
8
0
10
427.937439
20
17.247058
11
426.915252
21
19.382307
0
LINE
8
0
10
426.915252
20
19.382307
11
423.892258
21
21.371609
0
LINE
8
0
10
423.892258
20
21.371609
11
421.372445
21
21.567197
0
LINE
8
0
10
421.372445
20
21.567197
11
420.071462
21
21.494736
0
LINE
8
0
10
420.071462
20
21.494736
11
418.021373
21
20.820868
0
LINE
8
0
10
418.021373
20
20.820868
11
416.594854
21
19.323931
0
LINE
8
0
10
416.594854
20
19.323931
11
415.657189
21
16.862555
0
LINE
8
0
10
415.657189
20
16.862555
11
415.329576
21
15.226026
0
LINE
8
0
10
415.329576
20
15.226026
11
415.103093
21
13.361802
0
LINE
8
0
10
415.103093
20
13.361802
11
415.206408
21
10.227923
0
LINE
8
0
10
415.206408
20
10.227923
11
416.056904
21
7.871649
0
LINE
8
0
10
416.056904
20
7.871649
11
417.661142
21
6.274797
0
LINE
8
0
10
417.661142
20
6.274797
11
418.747967
21
5.755471
0
LINE
8
0
10
418.747967
20
5.755471
11
421.215045
21
5.179177
0
LINE
8
0
10
421.215045
20
5.179177
11
425.456253
21
6.189201
0
LINE
8
0
10
425.456253
20
6.189201
11
427.250000
21
7.780190
0
ENDSEC
0
EOF
