999
DXF File generated by ImageToStl.com - Free Image and 3D model conversion tools
0
SECTION
2
HEADER
9
$ACADVER
1
AC1009
9
$EXTMIN
10
0
20
0
9
$EXTMAX
10
308.054072
20
80.048567
0
ENDSEC
0
SECTION
2
ENTITIES
0
LINE
8
0
10
23.292364
20
6.859292
11
18.729581
21
10.330007
0
LINE
8
0
10
18.729581
20
10.330007
11
12.467027
21
16.920179
0
LINE
8
0
10
12.467027
20
16.920179
11
9.337898
21
21.501020
0
LINE
8
0
10
9.337898
20
21.501020
11
8.256347
21
23.658569
0
LINE
8
0
10
8.256347
20
23.658569
11
6.900685
21
27.299964
0
LINE
8
0
10
6.900685
20
27.299964
11
5.317866
21
34.692933
0
LINE
8
0
10
5.317866
20
34.692933
11
5.182136
21
42.078914
0
LINE
8
0
10
5.182136
20
42.078914
11
6.424394
21
49.273232
0
LINE
8
0
10
6.424394
20
49.273232
11
8.975538
21
56.091214
0
LINE
8
0
10
8.975538
20
56.091214
11
12.766468
21
62.348185
0
LINE
8
0
10
12.766468
20
62.348185
11
17.728083
21
67.859471
0
LINE
8
0
10
17.728083
20
67.859471
11
23.791281
21
72.440398
0
LINE
8
0
10
23.791281
20
72.440398
11
27.214379
21
74.324266
0
LINE
8
0
10
27.214379
20
74.324266
11
29.327391
21
75.334948
0
LINE
8
0
10
29.327391
20
75.334948
11
32.775182
21
76.679359
0
LINE
8
0
10
32.775182
20
76.679359
11
36.320834
21
77.329321
0
LINE
8
0
10
36.320834
20
77.329321
11
41.326951
21
77.534614
0
LINE
8
0
10
41.326951
20
77.534614
11
44.803499
21
77.548567
0
LINE
8
0
10
44.803499
20
77.548567
11
48.243277
21
77.533599
0
LINE
8
0
10
48.243277
20
77.533599
11
53.240845
21
77.328176
0
LINE
8
0
10
53.240845
20
77.328176
11
58.458047
21
76.152948
0
LINE
8
0
10
58.458047
20
76.152948
11
62.303499
21
74.458214
0
LINE
8
0
10
62.303499
20
74.458214
11
65.202164
21
73.004151
0
LINE
8
0
10
65.202164
20
73.004151
11
70.063313
21
70.033282
0
LINE
8
0
10
70.063313
20
70.033282
11
75.721220
21
64.822694
0
LINE
8
0
10
75.721220
20
64.822694
11
78.953554
21
60.381447
0
LINE
8
0
10
78.953554
20
60.381447
11
80.345351
21
58.153400
0
LINE
8
0
10
80.345351
20
58.153400
11
81.926805
21
55.157464
0
LINE
8
0
10
81.926805
20
55.157464
11
81.900786
21
53.881886
0
LINE
8
0
10
81.900786
20
53.881886
11
80.261750
21
54.054851
0
LINE
8
0
10
80.261750
20
54.054851
11
78.835618
21
54.599594
0
LINE
8
0
10
78.835618
20
54.599594
11
76.165186
21
55.474522
0
LINE
8
0
10
76.165186
20
55.474522
11
70.716889
21
55.928323
0
LINE
8
0
10
70.716889
20
55.928323
11
65.483803
21
54.735740
0
LINE
8
0
10
65.483803
20
54.735740
11
60.896070
21
51.994801
0
LINE
8
0
10
60.896070
20
51.994801
11
58.978632
21
50.074331
0
LINE
8
0
10
58.978632
20
50.074331
11
56.677009
21
47.339009
0
LINE
8
0
10
56.677009
20
47.339009
11
53.740254
21
49.689686
0
LINE
8
0
10
53.740254
20
49.689686
11
51.466653
21
51.195501
0
LINE
8
0
10
51.466653
20
51.195501
11
46.593789
21
52.709908
0
LINE
8
0
10
46.593789
20
52.709908
11
41.601925
21
52.256640
0
LINE
8
0
10
41.601925
20
52.256640
11
36.869320
21
49.870043
0
LINE
8
0
10
36.869320
20
49.870043
11
34.718444
21
47.962479
0
LINE
8
0
10
34.718444
20
47.962479
11
31.803499
21
44.922621
0
LINE
8
0
10
31.803499
20
44.922621
11
31.303499
21
24.747416
0
LINE
8
0
10
31.303499
20
24.747416
11
31.202785
21
20.722139
0
LINE
8
0
10
31.202785
20
20.722139
11
30.998829
21
14.186095
0
LINE
8
0
10
30.998829
20
14.186095
11
30.710750
21
9.489090
0
LINE
8
0
10
30.710750
20
9.489090
11
30.241648
21
6.414752
0
LINE
8
0
10
30.241648
20
6.414752
11
29.494622
21
4.746711
0
LINE
8
0
10
29.494622
20
4.746711
11
28.372770
21
4.268595
0
LINE
8
0
10
28.372770
20
4.268595
11
25.775222
21
5.309219
0
LINE
8
0
10
25.775222
20
5.309219
11
23.292364
21
6.859292
0
LINE
8
0
10
38.386827
20
0.880485
11
34.970155
21
1.548567
0
LINE
8
0
10
34.970155
20
1.548567
11
35.210914
21
15.039321
0
LINE
8
0
10
35.210914
20
15.039321
11
35.326263
21
20.299395
0
LINE
8
0
10
35.326263
20
20.299395
11
35.532873
21
26.340402
0
LINE
8
0
10
35.532873
20
26.340402
11
35.668221
21
28.476188
0
LINE
8
0
10
35.668221
20
28.476188
11
35.728805
21
28.807206
0
LINE
8
0
10
35.728805
20
28.807206
11
36.065142
21
28.795527
0
LINE
8
0
10
36.065142
20
28.795527
11
37.757308
21
28.137720
0
LINE
8
0
10
37.757308
20
28.137720
11
38.904718
21
27.572614
0
LINE
8
0
10
38.904718
20
27.572614
11
41.232100
21
26.651457
0
LINE
8
0
10
41.232100
20
26.651457
11
46.196162
21
26.219360
0
LINE
8
0
10
46.196162
20
26.219360
11
51.055688
21
27.528313
0
LINE
8
0
10
51.055688
20
27.528313
11
55.190356
21
30.411225
0
LINE
8
0
10
55.190356
20
30.411225
11
56.792018
21
32.390701
0
LINE
8
0
10
56.792018
20
32.390701
11
57.476011
21
33.740999
0
LINE
8
0
10
57.476011
20
33.740999
11
58.758056
21
37.766555
0
LINE
8
0
10
58.758056
20
37.766555
11
59.198202
21
39.945997
0
LINE
8
0
10
59.198202
20
39.945997
11
59.661910
21
42.098391
0
LINE
8
0
10
59.661910
20
42.098391
11
61.103053
21
45.941304
0
LINE
8
0
10
61.103053
20
45.941304
11
61.902988
21
47.158501
0
LINE
8
0
10
61.902988
20
47.158501
11
63.597737
21
48.782239
0
LINE
8
0
10
63.597737
20
48.782239
11
67.289169
21
51.005254
0
LINE
8
0
10
67.289169
20
51.005254
11
71.180708
21
51.939806
0
LINE
8
0
10
71.180708
20
51.939806
11
75.029387
21
51.678875
0
LINE
8
0
10
75.029387
20
51.678875
11
78.592238
21
50.315438
0
LINE
8
0
10
78.592238
20
50.315438
11
81.626296
21
47.942475
0
LINE
8
0
10
81.626296
20
47.942475
11
83.888593
21
44.652964
0
LINE
8
0
10
83.888593
20
44.652964
11
85.136164
21
40.539884
0
LINE
8
0
10
85.136164
20
40.539884
11
85.303499
21
38.203562
0
LINE
8
0
10
85.303499
20
38.203562
11
85.140999
21
35.732646
0
LINE
8
0
10
85.140999
20
35.732646
11
83.946953
21
30.098114
0
LINE
8
0
10
83.946953
20
30.098114
11
81.829630
21
24.196282
0
LINE
8
0
10
81.829630
20
24.196282
11
79.071572
21
18.814709
0
LINE
8
0
10
79.071572
20
18.814709
11
77.540562
21
16.565131
0
LINE
8
0
10
77.540562
20
16.565131
11
73.465604
21
12.092635
0
LINE
8
0
10
73.465604
20
12.092635
11
65.876545
21
6.251104
0
LINE
8
0
10
65.876545
20
6.251104
11
60.593159
21
3.481547
0
LINE
8
0
10
60.593159
20
3.481547
11
58.079795
21
2.574775
0
LINE
8
0
10
58.079795
20
2.574775
11
53.100146
21
1.433158
0
LINE
8
0
10
53.100146
20
1.433158
11
45.011726
21
0.558971
0
LINE
8
0
10
45.011726
20
0.558971
11
40.279301
21
0.627276
0
LINE
8
0
10
40.279301
20
0.627276
11
38.386827
21
0.880485
0
LINE
8
0
10
101.303499
20
30.125490
11
101.303499
21
46.202413
0
LINE
8
0
10
101.303499
20
46.202413
11
104.226576
21
49.125490
0
LINE
8
0
10
104.226576
20
49.125490
11
105.708629
21
50.388428
0
LINE
8
0
10
105.708629
20
50.388428
11
108.888576
21
51.869989
0
LINE
8
0
10
108.888576
20
51.869989
11
112.231919
21
51.955933
0
LINE
8
0
10
112.231919
20
51.955933
11
115.589388
21
50.642423
0
LINE
8
0
10
115.589388
20
50.642423
11
117.226774
21
49.459674
0
LINE
8
0
10
117.226774
20
49.459674
11
118.754182
21
48.004892
0
LINE
8
0
10
118.754182
20
48.004892
11
120.171651
21
44.989356
0
LINE
8
0
10
120.171651
20
44.989356
11
120.303499
21
42.914219
0
LINE
8
0
10
120.303499
20
42.914219
11
120.140755
21
40.861781
0
LINE
8
0
10
120.140755
20
40.861781
11
118.855503
21
37.514462
0
LINE
8
0
10
118.855503
20
37.514462
11
116.327672
21
35.211029
0
LINE
8
0
10
116.327672
20
35.211029
11
112.601792
21
33.992061
0
LINE
8
0
10
112.601792
20
33.992061
11
110.303499
21
33.801931
0
LINE
8
0
10
110.303499
20
33.801931
11
109.142561
21
33.985148
0
LINE
8
0
10
109.142561
20
33.985148
11
107.053499
21
34.439404
0
LINE
8
0
10
107.053499
20
34.439404
11
104.303499
21
35.086671
0
LINE
8
0
10
104.303499
20
35.086671
11
104.303499
21
24.567619
0
LINE
8
0
10
104.303499
20
24.567619
11
104.289834
21
21.622485
0
LINE
8
0
10
104.289834
20
21.622485
11
104.155386
21
17.423290
0
LINE
8
0
10
104.155386
20
17.423290
11
103.822269
21
15.087240
0
LINE
8
0
10
103.822269
20
15.087240
11
103.223470
21
14.144394
0
LINE
8
0
10
103.223470
20
14.144394
11
102.803499
21
14.048567
0
LINE
8
0
10
102.803499
20
14.048567
11
102.374092
21
14.180579
0
LINE
8
0
10
102.374092
20
14.180579
11
101.770286
21
15.543159
0
LINE
8
0
10
101.770286
20
15.543159
11
101.442946
21
19.051572
0
LINE
8
0
10
101.442946
20
19.051572
11
101.315816
21
25.523127
0
LINE
8
0
10
101.315816
20
25.523127
11
101.303499
21
30.125490
0
LINE
8
0
10
232.266210
20
34.429378
11
230.608767
21
35.167827
0
LINE
8
0
10
230.608767
20
35.167827
11
227.938046
21
37.512782
0
LINE
8
0
10
227.938046
20
37.512782
11
226.319751
21
40.641023
0
LINE
8
0
10
226.319751
20
40.641023
11
225.986132
21
44.103600
0
LINE
8
0
10
225.986132
20
44.103600
11
226.373654
21
45.819968
0
LINE
8
0
10
226.373654
20
45.819968
11
227.456027
21
47.963576
0
LINE
8
0
10
227.456027
20
47.963576
11
230.890823
21
50.965141
0
LINE
8
0
10
230.890823
20
50.965141
11
235.306870
21
52.073731
0
LINE
8
0
10
235.306870
20
52.073731
11
239.849597
21
51.074817
0
LINE
8
0
10
239.849597
20
51.074817
11
241.901411
21
49.718005
0
LINE
8
0
10
241.901411
20
49.718005
11
243.269723
21
48.319043
0
LINE
8
0
10
243.269723
20
48.319043
11
244.730536
21
44.656705
0
LINE
8
0
10
244.730536
20
44.656705
11
245.078013
21
41.754094
0
LINE
8
0
10
245.078013
20
41.754094
11
245.226598
21
39.421898
0
LINE
8
0
10
245.226598
20
39.421898
11
245.164557
21
35.896910
0
LINE
8
0
10
245.164557
20
35.896910
11
244.630676
21
33.917490
0
LINE
8
0
10
244.630676
20
33.917490
11
243.633488
21
33.515278
0
LINE
8
0
10
243.633488
20
33.515278
11
242.963822
21
33.915511
0
LINE
8
0
10
242.963822
20
33.915511
11
242.206716
21
34.325214
0
LINE
8
0
10
242.206716
20
34.325214
11
240.037722
21
34.448711
0
LINE
8
0
10
240.037722
20
34.448711
11
238.688366
21
34.158946
0
LINE
8
0
10
238.688366
20
34.158946
11
235.594220
21
33.836915
0
LINE
8
0
10
235.594220
20
33.836915
11
232.266210
21
34.429378
0
LINE
8
0
10
128.758044
20
36.503113
11
127.608660
21
37.937573
0
LINE
8
0
10
127.608660
20
37.937573
11
126.320380
21
41.307168
0
LINE
8
0
10
126.320380
20
41.307168
11
126.373037
21
44.907837
0
LINE
8
0
10
126.373037
20
44.907837
11
127.758970
21
48.215791
0
LINE
8
0
10
127.758970
20
48.215791
11
128.949522
21
49.596316
0
LINE
8
0
10
128.949522
20
49.596316
11
130.478553
21
50.762834
0
LINE
8
0
10
130.478553
20
50.762834
11
133.882017
21
52.037945
0
LINE
8
0
10
133.882017
20
52.037945
11
137.456717
21
51.912633
0
LINE
8
0
10
137.456717
20
51.912633
11
140.855493
21
50.399066
0
LINE
8
0
10
140.855493
20
50.399066
11
142.380422
21
49.125490
0
LINE
8
0
10
142.380422
20
49.125490
11
143.608518
21
47.710878
0
LINE
8
0
10
143.608518
20
47.710878
11
145.048381
21
44.789769
0
LINE
8
0
10
145.048381
20
44.789769
11
145.132447
21
41.771047
0
LINE
8
0
10
145.132447
20
41.771047
11
143.859883
21
38.684588
0
LINE
8
0
10
143.859883
20
38.684588
11
142.714605
21
37.125293
0
LINE
8
0
10
142.714605
20
37.125293
11
141.222193
21
35.552699
0
LINE
8
0
10
141.222193
20
35.552699
11
138.045283
21
34.165354
0
LINE
8
0
10
138.045283
20
34.165354
11
135.669151
21
34.048567
0
LINE
8
0
10
135.669151
20
34.048567
11
133.418830
21
34.168882
0
LINE
8
0
10
133.418830
20
34.168882
11
130.149638
21
35.329967
0
LINE
8
0
10
130.149638
20
35.329967
11
128.758044
21
36.503113
0
LINE
8
0
10
189.942979
20
33.742420
11
189.814521
21
34.051168
0
LINE
8
0
10
189.814521
20
34.051168
11
189.586082
21
35.613234
0
LINE
8
0
10
189.586082
20
35.613234
11
189.353958
21
39.734957
0
LINE
8
0
10
189.353958
20
39.734957
11
189.303499
21
43.215234
0
LINE
8
0
10
189.303499
20
43.215234
11
189.318626
21
45.591421
0
LINE
8
0
10
189.318626
20
45.591421
11
189.457667
21
49.066222
0
LINE
8
0
10
189.457667
20
49.066222
11
189.781800
21
51.087285
0
LINE
8
0
10
189.781800
20
51.087285
11
190.339079
21
51.954243
0
LINE
8
0
10
190.339079
20
51.954243
11
190.720166
21
52.048567
0
LINE
8
0
10
190.720166
20
52.048567
11
191.855322
21
51.681380
0
LINE
8
0
10
191.855322
20
51.681380
11
192.595166
21
50.798567
0
LINE
8
0
10
192.595166
20
50.798567
11
192.879436
21
50.236067
0
LINE
8
0
10
192.879436
20
50.236067
11
193.704228
21
50.236067
0
LINE
8
0
10
193.704228
20
50.236067
11
194.378499
21
50.798567
0
LINE
8
0
10
194.378499
20
50.798567
11
196.338222
21
51.747154
0
LINE
8
0
10
196.338222
20
51.747154
11
200.308064
21
51.877239
0
LINE
8
0
10
200.308064
20
51.877239
11
202.576988
21
51.134848
0
LINE
8
0
10
202.576988
20
51.134848
11
203.324437
21
50.523339
0
LINE
8
0
10
203.324437
20
50.523339
11
204.057251
21
49.764407
0
LINE
8
0
10
204.057251
20
49.764407
11
205.442496
21
49.851744
0
LINE
8
0
10
205.442496
20
49.851744
11
206.496619
21
50.723339
0
LINE
8
0
10
206.496619
20
50.723339
11
207.574826
21
51.466927
0
LINE
8
0
10
207.574826
20
51.466927
11
210.324314
21
52.298439
0
LINE
8
0
10
210.324314
20
52.298439
11
213.378300
21
52.261600
0
LINE
8
0
10
213.378300
20
52.261600
11
216.153263
21
51.363448
0
LINE
8
0
10
216.153263
20
51.363448
11
217.253761
21
50.593580
0
LINE
8
0
10
217.253761
20
50.593580
11
218.296243
21
49.365142
0
LINE
8
0
10
218.296243
20
49.365142
11
219.106331
21
46.591817
0
LINE
8
0
10
219.106331
20
46.591817
11
219.285639
21
43.486601
0
LINE
8
0
10
219.285639
20
43.486601
11
219.303499
21
41.393580
0
LINE
8
0
10
219.303499
20
41.393580
11
219.288149
21
39.394872
0
LINE
8
0
10
219.288149
20
39.394872
11
219.144554
21
36.493395
0
LINE
8
0
10
219.144554
20
36.493395
11
218.542937
21
34.371849
0
LINE
8
0
10
218.542937
20
34.371849
11
217.803499
21
34.048567
0
LINE
8
0
10
217.803499
20
34.048567
11
217.073588
21
34.339192
0
LINE
8
0
10
217.073588
20
34.339192
11
216.468398
21
36.187239
0
LINE
8
0
10
216.468398
20
36.187239
11
216.319775
21
38.661458
0
LINE
8
0
10
216.319775
20
38.661458
11
216.303499
21
40.348567
0
LINE
8
0
10
216.303499
20
40.348567
11
216.251654
21
42.707716
0
LINE
8
0
10
216.251654
20
42.707716
11
215.769315
21
46.140058
0
LINE
8
0
10
215.769315
20
46.140058
11
214.631942
21
48.119087
0
LINE
8
0
10
214.631942
20
48.119087
11
212.659332
21
48.958356
0
LINE
8
0
10
212.659332
20
48.958356
11
211.303499
21
49.048567
0
LINE
8
0
10
211.303499
20
49.048567
11
209.944687
21
48.958343
0
LINE
8
0
10
209.944687
20
48.958343
11
207.970497
21
48.116053
0
LINE
8
0
10
207.970497
20
48.116053
11
206.834948
21
46.123545
0
LINE
8
0
10
206.834948
20
46.123545
11
206.354919
21
42.659502
0
LINE
8
0
10
206.354919
20
42.659502
11
206.303499
21
40.275243
0
LINE
8
0
10
206.303499
20
40.275243
11
206.290562
21
38.417580
0
LINE
8
0
10
206.290562
20
38.417580
11
206.150210
21
35.860193
0
LINE
8
0
10
206.150210
20
35.860193
11
205.469184
21
34.281462
0
LINE
8
0
10
205.469184
20
34.281462
11
204.558157
21
34.238041
0
LINE
8
0
10
204.558157
20
34.238041
11
203.688495
21
34.665598
0
LINE
8
0
10
203.688495
20
34.665598
11
202.910851
21
36.509766
0
LINE
8
0
10
202.910851
20
36.509766
11
202.638070
21
38.868513
0
LINE
8
0
10
202.638070
20
38.868513
11
202.548225
21
40.470869
0
LINE
8
0
10
202.548225
20
40.470869
11
202.392701
21
42.800606
0
LINE
8
0
10
202.392701
20
42.800606
11
201.765207
21
46.186687
0
LINE
8
0
10
201.765207
20
46.186687
11
200.553743
21
48.135599
0
LINE
8
0
10
200.553743
20
48.135599
11
198.563857
21
48.960161
0
LINE
8
0
10
198.563857
20
48.960161
11
197.216238
21
49.048567
0
LINE
8
0
10
197.216238
20
49.048567
11
195.950906
21
48.933133
0
LINE
8
0
10
195.950906
20
48.933133
11
194.048188
21
47.929806
0
LINE
8
0
10
194.048188
20
47.929806
11
192.889743
21
45.719084
0
LINE
8
0
10
192.889743
20
45.719084
11
192.363988
21
42.088025
0
LINE
8
0
10
192.363988
20
42.088025
11
192.303499
21
39.673326
0
LINE
8
0
10
192.303499
20
39.673326
11
192.262398
21
37.874831
0
LINE
8
0
10
192.262398
20
37.874831
11
191.944436
21
35.138536
0
LINE
8
0
10
191.944436
20
35.138536
11
191.336230
21
33.610392
0
LINE
8
0
10
191.336230
20
33.610392
11
190.466701
21
33.363067
0
LINE
8
0
10
190.466701
20
33.363067
11
189.942979
21
33.742420
0
LINE
8
0
10
164.552294
20
22.294953
11
165.018237
21
22.828418
0
LINE
8
0
10
165.018237
20
22.828418
11
167.296584
21
23.826861
0
LINE
8
0
10
167.296584
20
23.826861
11
168.828371
21
24.168865
0
LINE
8
0
10
168.828371
20
24.168865
11
170.475378
21
24.615984
0
LINE
8
0
10
170.475378
20
24.615984
11
173.724124
21
26.414911
0
LINE
8
0
10
173.724124
20
26.414911
11
176.444167
21
28.978653
0
LINE
8
0
10
176.444167
20
28.978653
11
178.073489
21
31.777489
0
LINE
8
0
10
178.073489
20
31.777489
11
178.303499
21
33.099528
0
LINE
8
0
10
178.303499
20
33.099528
11
178.228455
21
34.086454
0
LINE
8
0
10
178.228455
20
34.086454
11
177.353021
21
34.531908
0
LINE
8
0
10
177.353021
20
34.531908
11
176.369240
21
34.083751
0
LINE
8
0
10
176.369240
20
34.083751
11
173.729038
21
33.201015
0
LINE
8
0
10
173.729038
20
33.201015
11
168.103417
21
33.906419
0
LINE
8
0
10
168.103417
20
33.906419
11
165.648764
21
35.428006
0
LINE
8
0
10
165.648764
20
35.428006
11
164.173538
21
36.914585
0
LINE
8
0
10
164.173538
20
36.914585
11
162.994992
21
39.713959
0
LINE
8
0
10
162.994992
20
39.713959
11
162.618121
21
42.801467
0
LINE
8
0
10
162.618121
20
42.801467
11
162.480153
21
44.928006
0
LINE
8
0
10
162.480153
20
44.928006
11
162.377799
21
46.971110
0
LINE
8
0
10
162.377799
20
46.971110
11
162.351570
21
49.839888
0
LINE
8
0
10
162.351570
20
49.839888
11
162.875271
21
51.786825
0
LINE
8
0
10
162.875271
20
51.786825
11
163.690652
21
52.048567
0
LINE
8
0
10
163.690652
20
52.048567
11
164.484088
21
51.810618
0
LINE
8
0
10
164.484088
20
51.810618
11
165.131577
21
50.257097
0
LINE
8
0
10
165.131577
20
50.257097
11
165.286836
21
48.139683
0
LINE
8
0
10
165.286836
20
48.139683
11
165.303499
21
46.683426
0
LINE
8
0
10
165.303499
20
46.683426
11
165.425835
21
44.344224
0
LINE
8
0
10
165.425835
20
44.344224
11
166.367887
21
40.437517
0
LINE
8
0
10
166.367887
20
40.437517
11
168.158353
21
37.684919
0
LINE
8
0
10
168.158353
20
37.684919
11
170.699525
21
36.236643
0
LINE
8
0
10
170.699525
20
36.236643
11
172.221091
21
36.048567
0
LINE
8
0
10
172.221091
20
36.048567
11
173.643305
21
36.176073
0
LINE
8
0
10
173.643305
20
36.176073
11
175.886490
21
37.247313
0
LINE
8
0
10
175.886490
20
37.247313
11
177.403962
21
39.520625
0
LINE
8
0
10
177.403962
20
39.520625
11
178.286851
21
43.132530
0
LINE
8
0
10
178.286851
20
43.132530
11
178.518805
21
45.483118
0
LINE
8
0
10
178.518805
20
45.483118
11
178.765344
21
47.874530
0
LINE
8
0
10
178.765344
20
47.874530
11
179.601473
21
51.208494
0
LINE
8
0
10
179.601473
20
51.208494
11
180.107150
21
51.816451
0
LINE
8
0
10
180.107150
20
51.816451
11
180.411030
21
51.778932
0
LINE
8
0
10
180.411030
20
51.778932
11
180.871737
21
50.743733
0
LINE
8
0
10
180.871737
20
50.743733
11
181.155527
21
48.260763
0
LINE
8
0
10
181.155527
20
48.260763
11
181.285379
21
44.128954
0
LINE
8
0
10
181.285379
20
44.128954
11
181.299761
21
41.381901
0
LINE
8
0
10
181.299761
20
41.381901
11
181.228064
21
37.199594
0
LINE
8
0
10
181.228064
20
37.199594
11
180.567429
21
30.844896
0
LINE
8
0
10
180.567429
20
30.844896
11
179.002678
21
26.586436
0
LINE
8
0
10
179.002678
20
26.586436
11
176.276461
21
23.723836
0
LINE
8
0
10
176.276461
20
23.723836
11
174.397381
21
22.597116
0
LINE
8
0
10
174.397381
20
22.597116
11
171.221540
21
21.492571
0
LINE
8
0
10
171.221540
20
21.492571
11
166.431899
21
21.093801
0
LINE
8
0
10
166.431899
20
21.093801
11
164.651250
21
21.710531
0
LINE
8
0
10
164.651250
20
21.710531
11
164.552294
21
22.294953
0
LINE
8
0
10
273.758044
20
36.503113
11
272.612590
21
37.864476
0
LINE
8
0
10
272.612590
20
37.864476
11
271.433044
21
41.009931
0
LINE
8
0
10
271.433044
20
41.009931
11
271.303499
21
43.048567
0
LINE
8
0
10
271.303499
20
43.048567
11
271.459397
21
45.034494
0
LINE
8
0
10
271.459397
20
45.034494
11
272.661910
21
48.343990
0
LINE
8
0
10
272.661910
20
48.343990
11
274.952776
21
50.669571
0
LINE
8
0
10
274.952776
20
50.669571
11
278.212869
21
51.890307
0
LINE
8
0
10
278.212869
20
51.890307
11
280.169151
21
52.048567
0
LINE
8
0
10
280.169151
20
52.048567
11
282.244288
21
51.916719
0
LINE
8
0
10
282.244288
20
51.916719
11
285.259823
21
50.499251
0
LINE
8
0
10
285.259823
20
50.499251
11
286.714605
21
48.971842
0
LINE
8
0
10
286.714605
20
48.971842
11
287.719824
21
47.625449
0
LINE
8
0
10
287.719824
20
47.625449
11
289.099219
21
44.961386
0
LINE
8
0
10
289.099219
20
44.961386
11
289.303499
21
43.971842
0
LINE
8
0
10
289.303499
20
43.971842
11
289.078536
21
42.942861
0
LINE
8
0
10
289.078536
20
42.942861
11
287.135648
21
42.201810
0
LINE
8
0
10
287.135648
20
42.201810
11
284.059044
21
42.060385
0
LINE
8
0
10
284.059044
20
42.060385
11
281.803499
21
42.048567
0
LINE
8
0
10
281.803499
20
42.048567
11
278.891390
21
42.003927
0
LINE
8
0
10
278.891390
20
42.003927
11
275.588899
21
41.798569
0
LINE
8
0
10
275.588899
20
41.798569
11
274.456575
21
41.596471
0
LINE
8
0
10
274.456575
20
41.596471
11
274.303499
21
41.482826
0
LINE
8
0
10
274.303499
20
41.482826
11
274.564242
21
40.084849
0
LINE
8
0
10
274.564242
20
40.084849
11
276.364240
21
37.862565
0
LINE
8
0
10
276.364240
20
37.862565
11
279.233490
21
36.669415
0
LINE
8
0
10
279.233490
20
36.669415
11
282.409475
21
36.822483
0
LINE
8
0
10
282.409475
20
36.822483
11
283.874205
21
37.502939
0
LINE
8
0
10
283.874205
20
37.502939
11
284.861694
21
38.132701
0
LINE
8
0
10
284.861694
20
38.132701
11
286.245178
21
38.858437
0
LINE
8
0
10
286.245178
20
38.858437
11
287.179167
21
38.620522
0
LINE
8
0
10
287.179167
20
38.620522
11
287.303499
21
37.583751
0
LINE
8
0
10
287.303499
20
37.583751
11
286.875910
21
36.215530
0
LINE
8
0
10
286.875910
20
36.215530
11
284.010476
21
34.462234
0
LINE
8
0
10
284.010476
20
34.462234
11
279.698651
21
34.118242
0
LINE
8
0
10
279.698651
20
34.118242
11
275.421172
21
35.301686
0
LINE
8
0
10
275.421172
20
35.301686
11
273.758044
21
36.503113
0
LINE
8
0
10
252.767735
20
34.281171
11
252.668637
21
34.847573
0
LINE
8
0
10
252.668637
20
34.847573
11
252.524371
21
37.503007
0
LINE
8
0
10
252.524371
20
37.503007
11
252.457744
21
44.324883
0
LINE
8
0
10
252.457744
20
44.324883
11
252.524798
21
50.012514
0
LINE
8
0
10
252.524798
20
50.012514
11
252.611296
21
53.622748
0
LINE
8
0
10
252.611296
20
53.622748
11
252.858553
21
59.184241
0
LINE
8
0
10
252.858553
20
59.184241
11
253.225340
21
62.732231
0
LINE
8
0
10
253.225340
20
62.732231
11
253.736279
21
64.504873
0
LINE
8
0
10
253.736279
20
64.504873
11
254.053499
21
64.799862
0
LINE
8
0
10
254.053499
20
64.799862
11
254.376732
21
64.796761
0
LINE
8
0
10
254.376732
20
64.796761
11
254.861540
21
63.992995
0
LINE
8
0
10
254.861540
20
63.992995
11
255.155511
21
61.954492
0
LINE
8
0
10
255.155511
20
61.954492
11
255.288291
21
58.475672
0
LINE
8
0
10
255.288291
20
58.475672
11
255.303499
21
56.131901
0
LINE
8
0
10
255.303499
20
56.131901
11
255.348217
21
52.605013
0
LINE
8
0
10
255.348217
20
52.605013
11
255.553930
21
48.605330
0
LINE
8
0
10
255.553930
20
48.605330
11
255.756378
21
47.233960
0
LINE
8
0
10
255.756378
20
47.233960
11
255.870221
21
47.048567
0
LINE
8
0
10
255.870221
20
47.048567
11
256.348897
21
47.245833
0
LINE
8
0
10
256.348897
20
47.245833
11
258.397236
21
48.577864
0
LINE
8
0
10
258.397236
20
48.577864
11
259.714612
21
49.548567
0
LINE
8
0
10
259.714612
20
49.548567
11
261.682634
21
50.902683
0
LINE
8
0
10
261.682634
20
50.902683
11
264.444124
21
52.057346
0
LINE
8
0
10
264.444124
20
52.057346
11
265.313952
21
51.390276
0
LINE
8
0
10
265.313952
20
51.390276
11
263.901411
21
49.201106
0
LINE
8
0
10
263.901411
20
49.201106
11
262.217156
21
47.629368
0
LINE
8
0
10
262.217156
20
47.629368
11
259.130813
21
45.032382
0
LINE
8
0
10
259.130813
20
45.032382
11
263.217156
21
40.151694
0
LINE
8
0
10
263.217156
20
40.151694
11
264.734915
21
38.317999
0
LINE
8
0
10
264.734915
20
38.317999
11
266.627719
21
35.813146
0
LINE
8
0
10
266.627719
20
35.813146
11
267.119704
21
34.540752
0
LINE
8
0
10
267.119704
20
34.540752
11
266.358232
21
34.119705
0
LINE
8
0
10
266.358232
20
34.119705
11
265.553499
21
34.109340
0
LINE
8
0
10
265.553499
20
34.109340
11
264.597835
21
34.478424
0
LINE
8
0
10
264.597835
20
34.478424
11
261.800569
21
36.843700
0
LINE
8
0
10
261.800569
20
36.843700
11
260.303499
21
38.548567
0
LINE
8
0
10
260.303499
20
38.548567
11
258.885335
21
40.253435
0
LINE
8
0
10
258.885335
20
40.253435
11
256.620882
21
42.618711
0
LINE
8
0
10
256.620882
20
42.618711
11
256.053499
21
42.987795
0
LINE
8
0
10
256.053499
20
42.987795
11
255.762288
21
42.660970
0
LINE
8
0
10
255.762288
20
42.660970
11
255.362679
21
40.327139
0
LINE
8
0
10
255.362679
20
40.327139
11
255.303499
21
38.607584
0
LINE
8
0
10
255.303499
20
38.607584
11
255.236199
21
37.055671
0
LINE
8
0
10
255.236199
20
37.055671
11
254.768972
21
34.616120
0
LINE
8
0
10
254.768972
20
34.616120
11
254.016407
21
33.332126
0
LINE
8
0
10
254.016407
20
33.332126
11
253.168303
21
33.527514
0
LINE
8
0
10
253.168303
20
33.527514
11
252.767735
21
34.281171
0
LINE
8
0
10
152.303499
20
49.631901
11
152.317658
21
53.748305
0
LINE
8
0
10
152.317658
20
53.748305
11
152.444748
21
59.798544
0
LINE
8
0
10
152.444748
20
59.798544
11
152.734227
21
63.311153
0
LINE
8
0
10
152.734227
20
63.311153
11
153.222928
21
64.733090
0
LINE
8
0
10
153.222928
20
64.733090
11
153.553499
21
64.799731
0
LINE
8
0
10
153.553499
20
64.799731
11
153.872122
21
64.496224
0
LINE
8
0
10
153.872122
20
64.496224
11
154.383297
21
62.647915
0
LINE
8
0
10
154.383297
20
62.647915
11
154.748337
21
58.920280
0
LINE
8
0
10
154.748337
20
58.920280
11
154.993597
21
53.044201
0
LINE
8
0
10
154.993597
20
53.044201
11
155.079545
21
49.216397
0
LINE
8
0
10
155.079545
20
49.216397
11
155.147890
21
44.817447
0
LINE
8
0
10
155.147890
20
44.817447
11
155.134653
21
38.681679
0
LINE
8
0
10
155.134653
20
38.681679
11
154.864738
21
35.406450
0
LINE
8
0
10
154.864738
20
35.406450
11
154.270008
21
34.164995
0
LINE
8
0
10
154.270008
20
34.164995
11
153.829545
21
34.048567
0
LINE
8
0
10
153.829545
20
34.048567
11
153.389933
21
34.172517
0
LINE
8
0
10
153.389933
20
34.172517
11
152.774185
21
35.471500
0
LINE
8
0
10
152.774185
20
35.471500
11
152.442844
21
38.855018
0
LINE
8
0
10
152.442844
20
38.855018
11
152.315637
21
45.142775
0
LINE
8
0
10
152.315637
20
45.142775
11
152.303499
21
49.631901
0
LINE
8
0
10
295.513384
20
42.678680
11
295.803499
21
51.470893
0
LINE
8
0
10
295.803499
20
51.470893
11
299.303499
21
51.708057
0
LINE
8
0
10
299.303499
20
51.708057
11
302.331258
21
51.964171
0
LINE
8
0
10
302.331258
20
51.964171
11
304.695870
21
52.246895
0
LINE
8
0
10
304.695870
20
52.246895
11
305.771080
21
52.323038
0
LINE
8
0
10
305.771080
20
52.323038
11
306.852759
21
51.861661
0
LINE
8
0
10
306.852759
20
51.861661
11
306.589346
21
50.879861
0
LINE
8
0
10
306.589346
20
50.879861
11
305.076720
21
49.734993
0
LINE
8
0
10
305.076720
20
49.734993
11
303.881913
21
49.213083
0
LINE
8
0
10
303.881913
20
49.213083
11
302.528147
21
48.576501
0
LINE
8
0
10
302.528147
20
48.576501
11
300.406440
21
46.640039
0
LINE
8
0
10
300.406440
20
46.640039
11
299.075000
21
43.838472
0
LINE
8
0
10
299.075000
20
43.838472
11
298.544829
21
40.194952
0
LINE
8
0
10
298.544829
20
40.194952
11
298.583659
21
38.064694
0
LINE
8
0
10
298.583659
20
38.064694
11
298.601117
21
36.382019
0
LINE
8
0
10
298.601117
20
36.382019
11
297.858493
21
34.570215
0
LINE
8
0
10
297.858493
20
34.570215
11
297.013384
21
34.233645
0
LINE
8
0
10
297.013384
20
34.233645
11
296.470729
21
34.177936
0
LINE
8
0
10
296.470729
20
34.177936
11
295.753833
21
34.658801
0
LINE
8
0
10
295.753833
20
34.658801
11
295.442828
21
36.409766
0
LINE
8
0
10
295.442828
20
36.409766
11
295.435322
21
40.007302
0
LINE
8
0
10
295.435322
20
40.007302
11
295.513384
21
42.678680
0
LINE
8
0
10
115.813690
20
39.059828
11
116.931929
21
40.857046
0
LINE
8
0
10
116.931929
20
40.857046
11
116.927340
21
44.598259
0
LINE
8
0
10
116.927340
20
44.598259
11
114.619863
21
47.633780
0
LINE
8
0
10
114.619863
20
47.633780
11
110.831741
21
48.881938
0
LINE
8
0
10
110.831741
20
48.881938
11
108.639388
21
48.497733
0
LINE
8
0
10
108.639388
20
48.497733
11
107.461142
21
47.915016
0
LINE
8
0
10
107.461142
20
47.915016
11
105.581953
21
46.060959
0
LINE
8
0
10
105.581953
20
46.060959
11
104.520856
21
43.694017
0
LINE
8
0
10
104.520856
20
43.694017
11
104.495873
21
41.300524
0
LINE
8
0
10
104.495873
20
41.300524
11
104.940055
21
40.245799
0
LINE
8
0
10
104.940055
20
40.245799
11
106.012637
21
38.876317
0
LINE
8
0
10
106.012637
20
38.876317
11
108.675475
21
37.154461
0
LINE
8
0
10
108.675475
20
37.154461
11
111.665882
21
36.828302
0
LINE
8
0
10
111.665882
20
36.828302
11
114.548660
21
37.945307
0
LINE
8
0
10
114.548660
20
37.945307
11
115.813690
21
39.059828
0
LINE
8
0
10
239.944731
20
38.598890
11
241.205323
21
40.259013
0
LINE
8
0
10
241.205323
20
40.259013
11
241.928624
21
43.758978
0
LINE
8
0
10
241.928624
20
43.758978
11
240.543052
21
46.854471
0
LINE
8
0
10
240.543052
20
46.854471
11
237.394573
21
48.772574
0
LINE
8
0
10
237.394573
20
48.772574
11
235.267357
21
49.048567
0
LINE
8
0
10
235.267357
20
49.048567
11
233.090589
21
48.655405
0
LINE
8
0
10
233.090589
20
48.655405
11
230.109967
21
46.047417
0
LINE
8
0
10
230.109967
20
46.047417
11
229.232529
21
42.204569
0
LINE
8
0
10
229.232529
20
42.204569
11
230.785434
21
38.559688
0
LINE
8
0
10
230.785434
20
38.559688
11
232.575501
21
37.259244
0
LINE
8
0
10
232.575501
20
37.259244
11
234.775552
21
36.385443
0
LINE
8
0
10
234.775552
20
36.385443
11
238.104994
21
36.990699
0
LINE
8
0
10
238.104994
20
36.990699
11
239.944731
21
38.598890
0
LINE
8
0
10
140.834090
20
39.395705
11
141.932989
21
41.468376
0
LINE
8
0
10
141.932989
20
41.468376
11
141.670453
21
45.254996
0
LINE
8
0
10
141.670453
20
45.254996
11
140.303499
21
47.048567
0
LINE
8
0
10
140.303499
20
47.048567
11
138.680169
21
48.251523
0
LINE
8
0
10
138.680169
20
48.251523
11
135.061795
21
48.985188
0
LINE
8
0
10
135.061795
20
48.985188
11
131.727227
21
47.772618
0
LINE
8
0
10
131.727227
20
47.772618
11
129.611773
21
44.953925
0
LINE
8
0
10
129.611773
20
44.953925
11
129.303499
21
43.048567
0
LINE
8
0
10
129.303499
20
43.048567
11
129.655435
21
40.934122
0
LINE
8
0
10
129.655435
20
40.934122
11
132.029226
21
37.893022
0
LINE
8
0
10
132.029226
20
37.893022
11
135.648032
21
36.746594
0
LINE
8
0
10
135.648032
20
36.746594
11
139.334000
21
37.867977
0
LINE
8
0
10
139.334000
20
37.867977
11
140.834090
21
39.395705
0
LINE
8
0
10
285.678499
20
44.846313
11
285.853478
21
45.769719
0
LINE
8
0
10
285.853478
20
45.769719
11
284.236099
21
47.877776
0
LINE
8
0
10
284.236099
20
47.877776
11
282.534393
21
48.944272
0
LINE
8
0
10
282.534393
20
48.944272
11
281.416498
21
49.339734
0
LINE
8
0
10
281.416498
20
49.339734
11
278.914044
21
49.311414
0
LINE
8
0
10
278.914044
20
49.311414
11
276.540329
21
48.380665
0
LINE
8
0
10
276.540329
20
48.380665
11
274.876501
21
46.775357
0
LINE
8
0
10
274.876501
20
46.775357
11
274.492404
21
45.790954
0
LINE
8
0
10
274.492404
20
45.790954
11
274.519281
21
44.891617
0
LINE
8
0
10
274.519281
20
44.891617
11
275.889785
21
44.207939
0
LINE
8
0
10
275.889785
20
44.207939
11
278.086254
21
44.062469
0
LINE
8
0
10
278.086254
20
44.062469
11
279.671158
21
44.048567
0
LINE
8
0
10
279.671158
20
44.048567
11
281.851163
21
44.111514
0
LINE
8
0
10
281.851163
20
44.111514
11
285.051950
21
44.536563
0
LINE
8
0
10
285.051950
20
44.536563
11
285.678499
21
44.846313
0
ENDSEC
0
EOF
