999
DXF File generated by ImageToStl.com - Free Image and 3D model conversion tools
0
SECTION
2
HEADER
9
$ACADVER
1
AC1009
9
$EXTMIN
10
0
20
0
9
$EXTMAX
10
319.652483
20
176.661728
0
ENDSEC
0
SECTION
2
ENTITIES
0
LINE
8
0
10
139.499905
20
101.661823
11
117.516858
21
123.661918
0
LINE
8
0
10
117.516858
20
123.661918
11
140.000184
21
146.161912
0
LINE
8
0
10
140.000184
20
146.161912
11
162.483510
21
168.661907
0
LINE
8
0
10
162.483510
20
168.661907
11
184.741845
21
146.420062
0
LINE
8
0
10
184.741845
20
146.420062
11
207.000179
21
124.178218
0
LINE
8
0
10
207.000179
20
124.178218
11
184.758424
21
101.919973
0
LINE
8
0
10
184.758424
20
101.919973
11
180.279975
21
97.448761
0
LINE
8
0
10
180.279975
20
97.448761
11
172.256596
21
89.497525
0
LINE
8
0
10
172.256596
20
89.497525
11
166.100213
21
83.476495
0
LINE
8
0
10
166.100213
20
83.476495
11
163.157370
21
80.666772
0
LINE
8
0
10
163.157370
20
80.666772
11
162.167852
21
79.777203
0
LINE
8
0
10
162.167852
20
79.777203
11
161.999811
21
79.661728
0
LINE
8
0
10
161.999811
20
79.661728
11
161.833112
21
79.775864
0
LINE
8
0
10
161.833112
20
79.775864
11
160.853933
21
80.655116
0
LINE
8
0
10
160.853933
20
80.655116
11
157.943747
21
83.432252
0
LINE
8
0
10
157.943747
20
83.432252
11
151.857347
21
89.383449
0
LINE
8
0
10
151.857347
20
89.383449
11
143.926385
21
97.242468
0
LINE
8
0
10
143.926385
20
97.242468
11
139.499905
21
101.661823
0
LINE
8
0
10
26.000000
20
119.161728
11
26.000000
21
150.661728
0
LINE
8
0
10
26.000000
20
150.661728
11
57.500000
21
150.661728
0
LINE
8
0
10
57.500000
20
150.661728
11
89.000000
21
150.661728
0
LINE
8
0
10
89.000000
20
150.661728
11
89.000000
21
119.161728
0
LINE
8
0
10
89.000000
20
119.161728
11
89.000000
21
87.661728
0
LINE
8
0
10
89.000000
20
87.661728
11
57.500000
21
87.661728
0
LINE
8
0
10
57.500000
20
87.661728
11
26.000000
21
87.661728
0
LINE
8
0
10
26.000000
20
87.661728
11
26.000000
21
119.161728
0
LINE
8
0
10
235.000000
20
99.161728
11
235.000000
21
130.661728
0
LINE
8
0
10
235.000000
20
130.661728
11
266.500000
21
130.661728
0
LINE
8
0
10
266.500000
20
130.661728
11
298.000000
21
130.661728
0
LINE
8
0
10
298.000000
20
130.661728
11
298.000000
21
99.161728
0
LINE
8
0
10
298.000000
20
99.161728
11
298.000000
21
67.661728
0
LINE
8
0
10
298.000000
20
67.661728
11
266.500000
21
67.661728
0
LINE
8
0
10
266.500000
20
67.661728
11
235.000000
21
67.661728
0
LINE
8
0
10
235.000000
20
67.661728
11
235.000000
21
99.161728
0
LINE
8
0
10
139.210204
20
72.951354
11
118.000000
21
94.178780
0
LINE
8
0
10
118.000000
20
94.178780
11
118.000000
21
108.661730
0
LINE
8
0
10
118.000000
20
108.661730
11
118.000000
21
123.144680
0
LINE
8
0
10
118.000000
20
123.144680
11
140.000000
21
101.161728
0
LINE
8
0
10
140.000000
20
101.161728
11
162.000000
21
79.178776
0
LINE
8
0
10
162.000000
20
79.178776
11
161.984687
21
66.670252
0
LINE
8
0
10
161.984687
20
66.670252
11
161.917630
21
61.717248
0
LINE
8
0
10
161.917630
20
61.717248
11
161.629759
21
55.766897
0
LINE
8
0
10
161.629759
20
55.766897
11
161.350781
21
53.442980
0
LINE
8
0
10
161.350781
20
53.442980
11
161.194891
21
52.942827
0
LINE
8
0
10
161.194891
20
52.942827
11
160.685026
21
52.983050
0
LINE
8
0
10
160.685026
20
52.983050
11
157.765109
21
55.156146
0
LINE
8
0
10
157.765109
20
55.156146
11
152.287225
21
60.141634
0
LINE
8
0
10
152.287225
20
60.141634
11
144.222113
21
67.966144
0
LINE
8
0
10
144.222113
20
67.966144
11
139.210204
21
72.951354
0
LINE
8
0
10
15.951731
20
77.711583
11
26.403461
21
87.661728
0
LINE
8
0
10
26.403461
20
87.661728
11
57.856082
21
87.661728
0
LINE
8
0
10
57.856082
20
87.661728
11
89.308703
21
87.661728
0
LINE
8
0
10
89.308703
20
87.661728
11
79.196219
21
77.661728
0
LINE
8
0
10
79.196219
20
77.661728
11
69.083736
21
67.661728
0
LINE
8
0
10
69.083736
20
67.661728
11
37.291868
21
67.711583
0
LINE
8
0
10
37.291868
20
67.711583
11
5.500000
21
67.761438
0
LINE
8
0
10
5.500000
20
67.761438
11
15.951731
21
77.711583
0
LINE
8
0
10
6.000000
20
100.256176
11
6.000000
21
131.199251
0
LINE
8
0
10
6.000000
20
131.199251
11
16.000000
21
141.161728
0
LINE
8
0
10
16.000000
20
141.161728
11
26.000000
21
151.124205
0
LINE
8
0
10
26.000000
20
151.124205
11
26.000000
21
119.575038
0
LINE
8
0
10
26.000000
20
119.575038
11
26.000000
21
88.025872
0
LINE
8
0
10
26.000000
20
88.025872
11
18.731213
21
81.093800
0
LINE
8
0
10
18.731213
20
81.093800
11
15.693370
21
78.210913
0
LINE
8
0
10
15.693370
20
78.210913
11
11.501292
21
74.278502
0
LINE
8
0
10
11.501292
20
74.278502
11
9.428213
21
72.365892
0
LINE
8
0
10
9.428213
20
72.365892
11
8.731213
21
71.737414
0
LINE
8
0
10
8.731213
20
71.737414
11
6.000000
21
69.313100
0
LINE
8
0
10
6.000000
20
69.313100
11
6.000000
21
100.256176
0
LINE
8
0
10
298.764783
20
100.182608
11
298.500000
21
131.161728
0
LINE
8
0
10
298.500000
20
131.161728
11
308.500000
21
140.796543
0
LINE
8
0
10
308.500000
20
140.796543
11
318.500000
21
150.431357
0
LINE
8
0
10
318.500000
20
150.431357
11
318.764783
21
119.817423
0
LINE
8
0
10
318.764783
20
119.817423
11
319.029566
21
89.203489
0
LINE
8
0
10
319.029566
20
89.203489
11
309.029566
21
79.203489
0
LINE
8
0
10
309.029566
20
79.203489
11
299.029566
21
69.203489
0
LINE
8
0
10
299.029566
20
69.203489
11
298.764783
21
100.182608
0
LINE
8
0
10
162.000000
20
64.678397
11
162.000000
21
78.178397
0
LINE
8
0
10
162.000000
20
78.178397
11
184.500000
21
100.661728
0
LINE
8
0
10
184.500000
20
100.661728
11
207.000000
21
123.145059
0
LINE
8
0
10
207.000000
20
123.145059
11
207.000000
21
109.645059
0
LINE
8
0
10
207.000000
20
109.645059
11
207.000000
21
96.145059
0
LINE
8
0
10
207.000000
20
96.145059
11
184.500000
21
73.661728
0
LINE
8
0
10
184.500000
20
73.661728
11
162.000000
21
51.178397
0
LINE
8
0
10
162.000000
20
51.178397
11
162.000000
21
64.678397
0
LINE
8
0
10
245.000000
20
141.161728
11
254.460499
21
150.661728
0
LINE
8
0
10
254.460499
20
150.661728
11
285.960499
21
150.661728
0
LINE
8
0
10
285.960499
20
150.661728
11
317.460499
21
150.661728
0
LINE
8
0
10
317.460499
20
150.661728
11
308.000000
21
141.161728
0
LINE
8
0
10
308.000000
20
141.161728
11
298.539501
21
131.661728
0
LINE
8
0
10
298.539501
20
131.661728
11
267.039501
21
131.661728
0
LINE
8
0
10
267.039501
20
131.661728
11
235.539501
21
131.661728
0
LINE
8
0
10
235.539501
20
131.661728
11
245.000000
21
141.161728
0
LINE
8
0
10
157.740524
20
4.058406
11
155.981393
21
4.741939
0
LINE
8
0
10
155.981393
20
4.741939
11
153.354362
21
6.127276
0
LINE
8
0
10
153.354362
20
6.127276
11
151.550947
21
7.894309
0
LINE
8
0
10
151.550947
20
7.894309
11
150.133519
21
10.471840
0
LINE
8
0
10
150.133519
20
10.471840
11
149.432790
21
12.198543
0
LINE
8
0
10
149.432790
20
12.198543
11
148.697096
21
14.564497
0
LINE
8
0
10
148.697096
20
14.564497
11
148.201522
21
19.247680
0
LINE
8
0
10
148.201522
20
19.247680
11
148.972179
21
23.666062
0
LINE
8
0
10
148.972179
20
23.666062
11
150.967241
21
27.579849
0
LINE
8
0
10
150.967241
20
27.579849
11
152.410855
21
29.272583
0
LINE
8
0
10
152.410855
20
29.272583
11
154.090927
21
30.729198
0
LINE
8
0
10
154.090927
20
30.729198
11
157.772181
21
32.734348
0
LINE
8
0
10
157.772181
20
32.734348
11
161.694862
21
33.589909
0
LINE
8
0
10
161.694862
20
33.589909
11
165.634909
21
33.369302
0
LINE
8
0
10
165.634909
20
33.369302
11
169.368261
21
32.145948
0
LINE
8
0
10
169.368261
20
32.145948
11
172.670857
21
29.993267
0
LINE
8
0
10
172.670857
20
29.993267
11
175.318636
21
26.984682
0
LINE
8
0
10
175.318636
20
26.984682
11
177.087535
21
23.193612
0
LINE
8
0
10
177.087535
20
23.193612
11
177.572386
21
21.027589
0
LINE
8
0
10
177.572386
20
21.027589
11
177.768616
21
18.812107
0
LINE
8
0
10
177.768616
20
18.812107
11
177.362832
21
14.651477
0
LINE
8
0
10
177.362832
20
14.651477
11
175.016958
21
9.307482
0
LINE
8
0
10
175.016958
20
9.307482
11
169.369902
21
4.475564
0
LINE
8
0
10
169.369902
20
4.475564
11
163.848145
21
3.087601
0
LINE
8
0
10
163.848145
20
3.087601
11
159.812782
21
3.448152
0
LINE
8
0
10
159.812782
20
3.448152
11
157.740524
21
4.058406
0
LINE
8
0
10
86.642550
20
3.689934
11
84.120708
21
4.755555
0
LINE
8
0
10
84.120708
20
4.755555
11
79.926421
21
8.460922
0
LINE
8
0
10
79.926421
20
8.460922
11
78.289028
21
11.069704
0
LINE
8
0
10
78.289028
20
11.069704
11
77.650053
21
12.782470
0
LINE
8
0
10
77.650053
20
12.782470
11
77.104318
21
17.201028
0
LINE
8
0
10
77.104318
20
17.201028
11
77.468838
21
22.062915
0
LINE
8
0
10
77.468838
20
22.062915
11
78.664375
21
26.311280
0
LINE
8
0
10
78.664375
20
26.311280
11
79.549013
21
27.875127
0
LINE
8
0
10
79.549013
20
27.875127
11
81.321442
21
29.823569
0
LINE
8
0
10
81.321442
20
29.823569
11
85.746670
21
32.515828
0
LINE
8
0
10
85.746670
20
32.515828
11
90.927726
21
33.520838
0
LINE
8
0
10
90.927726
20
33.520838
11
96.363007
21
32.741298
0
LINE
8
0
10
96.363007
20
32.741298
11
99.019231
21
31.651917
0
LINE
8
0
10
99.019231
20
31.651917
11
100.898341
21
30.547621
0
LINE
8
0
10
100.898341
20
30.547621
11
103.698421
21
27.879895
0
LINE
8
0
10
103.698421
20
27.879895
11
105.321094
21
24.384336
0
LINE
8
0
10
105.321094
20
24.384336
11
105.886490
21
19.802156
0
LINE
8
0
10
105.886490
20
19.802156
11
105.810251
21
17.022712
0
LINE
8
0
10
105.810251
20
17.022712
11
105.671124
21
15.198712
0
LINE
8
0
10
105.671124
20
15.198712
11
105.259359
21
12.397917
0
LINE
8
0
10
105.259359
20
12.397917
11
104.005606
21
9.458060
0
LINE
8
0
10
104.005606
20
9.458060
11
102.510557
21
7.672747
0
LINE
8
0
10
102.510557
20
7.672747
11
100.880234
21
6.181670
0
LINE
8
0
10
100.880234
20
6.181670
11
97.240889
21
4.031782
0
LINE
8
0
10
97.240889
20
4.031782
11
93.197913
21
3.017009
0
LINE
8
0
10
93.197913
20
3.017009
11
88.872864
21
3.167863
0
LINE
8
0
10
88.872864
20
3.167863
11
86.642550
21
3.689934
0
LINE
8
0
10
176.224735
20
128.936592
11
162.000000
21
143.186750
0
LINE
8
0
10
162.000000
20
143.186750
11
162.000000
21
152.664102
0
LINE
8
0
10
162.000000
20
152.664102
11
162.000000
21
162.141454
0
LINE
8
0
10
162.000000
20
162.141454
11
180.500000
21
143.661728
0
LINE
8
0
10
180.500000
20
143.661728
11
184.216260
21
139.928071
0
LINE
8
0
10
184.216260
20
139.928071
11
190.824951
21
133.167805
0
LINE
8
0
10
190.824951
20
133.167805
11
195.829346
21
127.884340
0
LINE
8
0
10
195.829346
20
127.884340
11
198.622412
21
124.718557
0
LINE
8
0
10
198.622412
20
124.718557
11
199.000000
21
124.130073
0
LINE
8
0
10
199.000000
20
124.130073
11
198.662655
21
123.390549
0
LINE
8
0
10
198.662655
20
123.390549
11
196.384740
21
120.594464
0
LINE
8
0
10
196.384740
20
120.594464
11
194.724735
21
118.882288
0
LINE
8
0
10
194.724735
20
118.882288
11
190.449469
21
114.686433
0
LINE
8
0
10
190.449469
20
114.686433
11
176.224735
21
128.936592
0
LINE
8
0
10
240.000000
20
99.940616
11
240.000000
21
126.661728
0
LINE
8
0
10
240.000000
20
126.661728
11
246.500000
21
126.661728
0
LINE
8
0
10
246.500000
20
126.661728
11
253.000000
21
126.661728
0
LINE
8
0
10
253.000000
20
126.661728
11
253.000000
21
106.382840
0
LINE
8
0
10
253.000000
20
106.382840
11
253.000000
21
86.103951
0
LINE
8
0
10
253.000000
20
86.103951
11
246.500000
21
79.661728
0
LINE
8
0
10
246.500000
20
79.661728
11
240.000000
21
73.219505
0
LINE
8
0
10
240.000000
20
73.219505
11
240.000000
21
99.940616
0
LINE
8
0
10
71.000000
20
112.438547
11
71.000000
21
132.215367
0
LINE
8
0
10
71.000000
20
132.215367
11
77.750000
21
138.914996
0
LINE
8
0
10
77.750000
20
138.914996
11
84.500000
21
145.614626
0
LINE
8
0
10
84.500000
20
145.614626
11
84.218120
21
119.138177
0
LINE
8
0
10
84.218120
20
119.138177
11
83.936241
21
92.661728
0
LINE
8
0
10
83.936241
20
92.661728
11
77.468120
21
92.661728
0
LINE
8
0
10
77.468120
20
92.661728
11
71.000000
21
92.661728
0
LINE
8
0
10
71.000000
20
92.661728
11
71.000000
21
112.438547
0
LINE
8
0
10
247.000000
20
80.161728
11
253.442223
21
86.661728
0
LINE
8
0
10
253.442223
20
86.661728
11
273.221112
21
86.661728
0
LINE
8
0
10
273.221112
20
86.661728
11
293.000000
21
86.661728
0
LINE
8
0
10
293.000000
20
86.661728
11
293.000000
21
80.161728
0
LINE
8
0
10
293.000000
20
80.161728
11
293.000000
21
73.661728
0
LINE
8
0
10
293.000000
20
73.661728
11
266.778888
21
73.661728
0
LINE
8
0
10
266.778888
20
73.661728
11
240.557777
21
73.661728
0
LINE
8
0
10
240.557777
20
73.661728
11
247.000000
21
80.161728
0
LINE
8
0
10
129.221943
20
119.935585
11
125.027470
21
124.209441
0
LINE
8
0
10
125.027470
20
124.209441
11
143.513735
21
142.675448
0
LINE
8
0
10
143.513735
20
142.675448
11
162.000000
21
161.141454
0
LINE
8
0
10
162.000000
20
161.141454
11
162.000000
21
152.138194
0
LINE
8
0
10
162.000000
20
152.138194
11
162.000000
21
143.134934
0
LINE
8
0
10
162.000000
20
143.134934
11
148.237057
21
129.398331
0
LINE
8
0
10
148.237057
20
129.398331
11
145.461578
21
126.638937
0
LINE
8
0
10
145.461578
20
126.638937
11
140.465245
21
121.731858
0
LINE
8
0
10
140.465245
20
121.731858
11
136.599204
21
118.015999
0
LINE
8
0
10
136.599204
20
118.015999
11
134.332403
21
115.942094
0
LINE
8
0
10
134.332403
20
115.942094
11
133.945265
21
115.661728
0
LINE
8
0
10
133.945265
20
115.661728
11
133.408952
21
115.998962
0
LINE
8
0
10
133.408952
20
115.998962
11
130.892308
21
118.276126
0
LINE
8
0
10
130.892308
20
118.276126
11
129.221943
21
119.935585
0
LINE
8
0
10
51.250000
20
133.410417
11
32.000000
21
133.704913
0
LINE
8
0
10
32.000000
20
133.704913
11
32.000000
21
139.683321
0
LINE
8
0
10
32.000000
20
139.683321
11
32.000000
21
145.661728
0
LINE
8
0
10
32.000000
20
145.661728
11
57.721112
21
145.661728
0
LINE
8
0
10
57.721112
20
145.661728
11
83.442223
21
145.661728
0
LINE
8
0
10
83.442223
20
145.661728
11
77.000000
21
139.161728
0
LINE
8
0
10
77.000000
20
139.161728
11
74.496326
21
136.655819
0
LINE
8
0
10
74.496326
20
136.655819
11
71.649123
21
133.876094
0
LINE
8
0
10
71.649123
20
133.876094
11
70.666178
21
132.975871
0
LINE
8
0
10
70.666178
20
132.975871
11
70.528888
21
132.888824
0
LINE
8
0
10
70.528888
20
132.888824
11
70.130190
21
132.940454
0
LINE
8
0
10
70.130190
20
132.940454
11
67.213571
21
133.066040
0
LINE
8
0
10
67.213571
20
133.066040
11
61.998481
21
133.207135
0
LINE
8
0
10
61.998481
20
133.207135
11
55.117509
21
133.346624
0
LINE
8
0
10
55.117509
20
133.346624
11
51.250000
21
133.410417
0
LINE
8
0
10
41.000000
20
18.161728
11
41.000000
21
32.661728
0
LINE
8
0
10
41.000000
20
32.661728
11
51.000000
21
32.661728
0
LINE
8
0
10
51.000000
20
32.661728
11
53.932812
21
32.646884
0
LINE
8
0
10
53.932812
20
32.646884
11
58.148437
21
32.485947
0
LINE
8
0
10
58.148437
20
32.485947
11
61.612500
21
31.705478
0
LINE
8
0
10
61.612500
20
31.705478
11
63.000000
21
30.661728
0
LINE
8
0
10
63.000000
20
30.661728
11
63.963050
21
29.443793
0
LINE
8
0
10
63.963050
20
29.443793
11
64.978191
21
26.580435
0
LINE
8
0
10
64.978191
20
26.580435
11
64.802009
21
23.547941
0
LINE
8
0
10
64.802009
20
23.547941
11
63.462452
21
20.827334
0
LINE
8
0
10
63.462452
20
20.827334
11
62.365141
21
19.734308
0
LINE
8
0
10
62.365141
20
19.734308
11
61.234357
21
18.929564
0
LINE
8
0
10
61.234357
20
18.929564
11
59.103107
21
17.825267
0
LINE
8
0
10
59.103107
20
17.825267
11
58.365141
21
17.661728
0
LINE
8
0
10
58.365141
20
17.661728
11
57.312247
21
17.433552
0
LINE
8
0
10
57.312247
20
17.433552
11
57.616603
21
15.956559
0
LINE
8
0
10
57.616603
20
15.956559
11
58.925989
21
14.940022
0
LINE
8
0
10
58.925989
20
14.940022
11
59.789285
21
14.209184
0
LINE
8
0
10
59.789285
20
14.209184
11
62.271013
21
11.391002
0
LINE
8
0
10
62.271013
20
11.391002
11
64.919547
21
7.878283
0
LINE
8
0
10
64.919547
20
7.878283
11
66.726836
21
5.007989
0
LINE
8
0
10
66.726836
20
5.007989
11
67.000000
21
4.231553
0
LINE
8
0
10
67.000000
20
4.231553
11
66.482491
21
3.829114
0
LINE
8
0
10
66.482491
20
3.829114
11
65.238267
21
3.661728
0
LINE
8
0
10
65.238267
20
3.661728
11
64.180013
21
4.149102
0
LINE
8
0
10
64.180013
20
4.149102
11
60.780505
21
7.561350
0
LINE
8
0
10
60.780505
20
7.561350
11
58.762535
21
10.161728
0
LINE
8
0
10
58.762535
20
10.161728
11
54.048536
21
16.661728
0
LINE
8
0
10
54.048536
20
16.661728
11
49.024268
21
16.661728
0
LINE
8
0
10
49.024268
20
16.661728
11
44.000000
21
16.661728
0
LINE
8
0
10
44.000000
20
16.661728
11
44.000000
21
10.161728
0
LINE
8
0
10
44.000000
20
10.161728
11
43.983924
21
8.414983
0
LINE
8
0
10
43.983924
20
8.414983
11
43.836388
21
5.858994
0
LINE
8
0
10
43.836388
20
5.858994
11
43.231971
21
3.958603
0
LINE
8
0
10
43.231971
20
3.958603
11
42.500000
21
3.661728
0
LINE
8
0
10
42.500000
20
3.661728
11
42.072535
21
3.783473
0
LINE
8
0
10
42.072535
20
3.783473
11
41.469760
21
5.026962
0
LINE
8
0
10
41.469760
20
5.026962
11
41.141231
21
8.202744
0
LINE
8
0
10
41.141231
20
8.202744
11
41.012594
21
14.029566
0
LINE
8
0
10
41.012594
20
14.029566
11
41.000000
21
18.161728
0
LINE
8
0
10
6.000000
20
18.161728
11
6.000000
21
32.661728
0
LINE
8
0
10
6.000000
20
32.661728
11
15.325686
21
32.661728
0
LINE
8
0
10
15.325686
20
32.661728
11
18.166499
21
32.648345
0
LINE
8
0
10
18.166499
20
32.648345
11
22.160178
21
32.482705
0
LINE
8
0
10
22.160178
20
32.482705
11
25.386151
21
31.594163
0
LINE
8
0
10
25.386151
20
31.594163
11
26.825686
21
30.347277
0
LINE
8
0
10
26.825686
20
30.347277
11
28.292174
21
27.906513
0
LINE
8
0
10
28.292174
20
27.906513
11
28.928635
21
23.373265
0
LINE
8
0
10
28.928635
20
23.373265
11
28.257913
21
20.538056
0
LINE
8
0
10
28.257913
20
20.538056
11
27.580452
21
19.374117
0
LINE
8
0
10
27.580452
20
19.374117
11
26.771833
21
18.547931
0
LINE
8
0
10
26.771833
20
18.547931
11
24.323665
21
17.179082
0
LINE
8
0
10
24.323665
20
17.179082
11
18.863519
21
15.915257
0
LINE
8
0
10
18.863519
20
15.915257
11
14.256602
21
15.661728
0
LINE
8
0
10
14.256602
20
15.661728
11
9.000000
21
15.661728
0
LINE
8
0
10
9.000000
20
15.661728
11
9.000000
21
9.661728
0
LINE
8
0
10
9.000000
20
9.661728
11
8.983398
21
8.064072
0
LINE
8
0
10
8.983398
20
8.064072
11
8.833008
21
5.712509
0
LINE
8
0
10
8.833008
20
5.712509
11
8.226562
21
3.942978
0
LINE
8
0
10
8.226562
20
3.942978
11
7.500000
21
3.661728
0
LINE
8
0
10
7.500000
20
3.661728
11
7.072535
21
3.783473
0
LINE
8
0
10
7.072535
20
3.783473
11
6.469760
21
5.026962
0
LINE
8
0
10
6.469760
20
5.026962
11
6.141231
21
8.202744
0
LINE
8
0
10
6.141231
20
8.202744
11
6.012594
21
14.029566
0
LINE
8
0
10
6.012594
20
14.029566
11
6.000000
21
18.161728
0
LINE
8
0
10
224.000000
20
4.447815
11
224.110146
21
4.880524
0
LINE
8
0
10
224.110146
20
4.880524
11
224.924908
21
7.194071
0
LINE
8
0
10
224.924908
20
7.194071
11
227.301209
21
13.408003
0
LINE
8
0
10
227.301209
20
13.408003
11
229.396612
21
18.697815
0
LINE
8
0
10
229.396612
20
18.697815
11
230.990375
21
22.631801
0
LINE
8
0
10
230.990375
20
22.631801
11
233.372851
21
28.116543
0
LINE
8
0
10
233.372851
20
28.116543
11
235.049402
21
31.071281
0
LINE
8
0
10
235.049402
20
31.071281
11
236.461000
21
32.273183
0
LINE
8
0
10
236.461000
20
32.273183
11
237.205247
21
32.459684
0
LINE
8
0
10
237.205247
20
32.459684
11
238.604785
21
32.356762
0
LINE
8
0
10
238.604785
20
32.356762
11
240.469427
21
30.195398
0
LINE
8
0
10
240.469427
20
30.195398
11
242.130485
21
26.606654
0
LINE
8
0
10
242.130485
20
26.606654
11
243.234107
21
23.959684
0
LINE
8
0
10
243.234107
20
23.959684
11
244.843124
21
20.084205
0
LINE
8
0
10
244.843124
20
20.084205
11
248.152226
21
12.294469
0
LINE
8
0
10
248.152226
20
12.294469
11
249.444738
21
9.339652
0
LINE
8
0
10
249.444738
20
9.339652
11
252.038531
21
3.517577
0
LINE
8
0
10
252.038531
20
3.517577
11
249.856920
21
3.839652
0
LINE
8
0
10
249.856920
20
3.839652
11
248.780490
21
4.229469
0
LINE
8
0
10
248.780490
20
4.229469
11
246.955465
21
6.468956
0
LINE
8
0
10
246.955465
20
6.468956
11
246.131000
21
8.411728
0
LINE
8
0
10
246.131000
20
8.411728
11
244.586691
21
12.661728
0
LINE
8
0
10
244.586691
20
12.661728
11
237.429203
21
12.661728
0
LINE
8
0
10
237.429203
20
12.661728
11
230.271716
21
12.661728
0
LINE
8
0
10
230.271716
20
12.661728
11
228.553150
21
8.161728
0
LINE
8
0
10
228.553150
20
8.161728
11
227.774030
21
6.414462
0
LINE
8
0
10
227.774030
20
6.414462
11
226.103206
21
4.016806
0
LINE
8
0
10
226.103206
20
4.016806
11
225.417292
21
3.661728
0
LINE
8
0
10
225.417292
20
3.661728
11
224.416330
21
3.892641
0
LINE
8
0
10
224.416330
20
3.892641
11
224.000000
21
4.447815
0
LINE
8
0
10
176.000000
20
49.661728
11
176.286621
21
49.781285
0
LINE
8
0
10
176.286621
20
49.781285
11
178.570801
21
49.998109
0
LINE
8
0
10
178.570801
20
49.998109
11
183.116699
21
50.184940
0
LINE
8
0
10
183.116699
20
50.184940
11
189.900879
21
50.341450
0
LINE
8
0
10
189.900879
20
50.341450
11
198.899902
21
50.467310
0
LINE
8
0
10
198.899902
20
50.467310
11
210.090332
21
50.562194
0
LINE
8
0
10
210.090332
20
50.562194
11
223.448730
21
50.625773
0
LINE
8
0
10
223.448730
20
50.625773
11
238.951660
21
50.657719
0
LINE
8
0
10
238.951660
20
50.657719
11
247.500000
21
50.661728
0
LINE
8
0
10
247.500000
20
50.661728
11
256.048340
21
50.657719
0
LINE
8
0
10
256.048340
20
50.657719
11
271.551270
21
50.625773
0
LINE
8
0
10
271.551270
20
50.625773
11
284.909668
21
50.562194
0
LINE
8
0
10
284.909668
20
50.562194
11
296.100098
21
50.467310
0
LINE
8
0
10
296.100098
20
50.467310
11
305.099121
21
50.341450
0
LINE
8
0
10
305.099121
20
50.341450
11
311.883301
21
50.184940
0
LINE
8
0
10
311.883301
20
50.184940
11
316.429199
21
49.998109
0
LINE
8
0
10
316.429199
20
49.998109
11
318.713379
21
49.781285
0
LINE
8
0
10
318.713379
20
49.781285
11
319.000000
21
49.661728
0
LINE
8
0
10
319.000000
20
49.661728
11
318.713379
21
49.542171
0
LINE
8
0
10
318.713379
20
49.542171
11
316.429199
21
49.325347
0
LINE
8
0
10
316.429199
20
49.325347
11
311.883301
21
49.138516
0
LINE
8
0
10
311.883301
20
49.138516
11
305.099121
21
48.982006
0
LINE
8
0
10
305.099121
20
48.982006
11
296.100098
21
48.856146
0
LINE
8
0
10
296.100098
20
48.856146
11
284.909668
21
48.761262
0
LINE
8
0
10
284.909668
20
48.761262
11
271.551270
21
48.697683
0
LINE
8
0
10
271.551270
20
48.697683
11
256.048340
21
48.665737
0
LINE
8
0
10
256.048340
20
48.665737
11
247.500000
21
48.661728
0
LINE
8
0
10
247.500000
20
48.661728
11
238.951660
21
48.665737
0
LINE
8
0
10
238.951660
20
48.665737
11
223.448730
21
48.697683
0
LINE
8
0
10
223.448730
20
48.697683
11
210.090332
21
48.761262
0
LINE
8
0
10
210.090332
20
48.761262
11
198.899902
21
48.856146
0
LINE
8
0
10
198.899902
20
48.856146
11
189.900879
21
48.982006
0
LINE
8
0
10
189.900879
20
48.982006
11
183.116699
21
49.138516
0
LINE
8
0
10
183.116699
20
49.138516
11
178.570801
21
49.325347
0
LINE
8
0
10
178.570801
20
49.325347
11
176.286621
21
49.542171
0
LINE
8
0
10
176.286621
20
49.542171
11
176.000000
21
49.661728
0
LINE
8
0
10
6.000000
20
49.661728
11
6.403493
21
49.787085
0
LINE
8
0
10
6.403493
20
49.787085
11
9.477388
21
50.013537
0
LINE
8
0
10
9.477388
20
50.013537
11
15.231493
21
50.207639
0
LINE
8
0
10
15.231493
20
50.207639
11
23.255005
21
50.369391
0
LINE
8
0
10
23.255005
20
50.369391
11
33.137123
21
50.498792
0
LINE
8
0
10
33.137123
20
50.498792
11
44.467045
21
50.595843
0
LINE
8
0
10
44.467045
20
50.595843
11
63.277930
21
50.680762
0
LINE
8
0
10
63.277930
20
50.680762
11
89.592272
21
50.680762
0
LINE
8
0
10
89.592272
20
50.680762
11
108.455640
21
50.595843
0
LINE
8
0
10
108.455640
20
50.595843
11
119.845543
21
50.498792
0
LINE
8
0
10
119.845543
20
50.498792
11
129.807635
21
50.369391
0
LINE
8
0
10
129.807635
20
50.369391
11
137.931116
21
50.207639
0
LINE
8
0
10
137.931116
20
50.207639
11
143.805182
21
50.013537
0
LINE
8
0
10
143.805182
20
50.013537
11
147.019032
21
49.787085
0
LINE
8
0
10
147.019032
20
49.787085
11
147.500000
21
49.661728
0
LINE
8
0
10
147.500000
20
49.661728
11
147.294103
21
49.541225
0
LINE
8
0
10
147.294103
20
49.541225
11
145.189223
21
49.323215
0
LINE
8
0
10
145.189223
20
49.323215
11
140.834288
21
49.135972
0
LINE
8
0
10
140.834288
20
49.135972
11
134.238175
21
48.979622
0
LINE
8
0
10
134.238175
20
48.979622
11
125.409757
21
48.854292
0
LINE
8
0
10
125.409757
20
48.854292
11
114.357908
21
48.760106
0
LINE
8
0
10
114.357908
20
48.760106
11
101.091503
21
48.697191
0
LINE
8
0
10
101.091503
20
48.697191
11
85.619417
21
48.665674
0
LINE
8
0
10
85.619417
20
48.665674
11
77.059017
21
48.661728
0
LINE
8
0
10
77.059017
20
48.661728
11
68.564077
21
48.665737
0
LINE
8
0
10
68.564077
20
48.665737
11
53.157613
21
48.697688
0
LINE
8
0
10
53.157613
20
48.697688
11
39.881899
21
48.761274
0
LINE
8
0
10
39.881899
20
48.761274
11
28.760373
21
48.856164
0
LINE
8
0
10
28.760373
20
48.856164
11
19.816472
21
48.982030
0
LINE
8
0
10
19.816472
20
48.982030
11
13.073634
21
49.138541
0
LINE
8
0
10
13.073634
20
49.138541
11
8.555297
21
49.325368
0
LINE
8
0
10
8.555297
20
49.325368
11
6.284899
21
49.542180
0
LINE
8
0
10
6.284899
20
49.542180
11
6.000000
21
49.661728
0
LINE
8
0
10
267.312913
20
3.720593
11
264.784115
21
4.985690
0
LINE
8
0
10
264.784115
20
4.985690
11
261.447504
21
8.103666
0
LINE
8
0
10
261.447504
20
8.103666
11
260.179462
21
10.320442
0
LINE
8
0
10
260.179462
20
10.320442
11
260.000000
21
11.296587
0
LINE
8
0
10
260.000000
20
11.296587
11
260.101667
21
12.025733
0
LINE
8
0
10
260.101667
20
12.025733
11
260.857178
21
12.621251
0
LINE
8
0
10
260.857178
20
12.621251
11
262.220438
21
12.114193
0
LINE
8
0
10
262.220438
20
12.114193
11
264.037257
21
10.561909
0
LINE
8
0
10
264.037257
20
10.561909
11
265.067568
21
9.411728
0
LINE
8
0
10
265.067568
20
9.411728
11
266.660478
21
7.695456
0
LINE
8
0
10
266.660478
20
7.695456
11
270.031911
21
6.266720
0
LINE
8
0
10
270.031911
20
6.266720
11
272.736699
21
6.161728
0
LINE
8
0
10
272.736699
20
6.161728
11
274.699294
21
6.239124
0
LINE
8
0
10
274.699294
20
6.239124
11
277.811766
21
6.864161
0
LINE
8
0
10
277.811766
20
6.864161
11
279.861744
21
8.129229
0
LINE
8
0
10
279.861744
20
8.129229
11
280.874584
21
10.049976
0
LINE
8
0
10
280.874584
20
10.049976
11
281.000000
21
11.261120
0
LINE
8
0
10
281.000000
20
11.261120
11
280.862854
21
12.314910
0
LINE
8
0
10
280.862854
20
12.314910
11
279.718928
21
14.158130
0
LINE
8
0
10
279.718928
20
14.158130
11
277.311596
21
15.716107
0
LINE
8
0
10
277.311596
20
15.716107
11
273.516180
21
17.069529
0
LINE
8
0
10
273.516180
20
17.069529
11
271.058980
21
17.694747
0
LINE
8
0
10
271.058980
20
17.694747
11
267.043593
21
19.034256
0
LINE
8
0
10
267.043593
20
19.034256
11
262.655430
21
21.988936
0
LINE
8
0
10
262.655430
20
21.988936
11
261.194643
21
24.298938
0
LINE
8
0
10
261.194643
20
24.298938
11
261.000000
21
25.481415
0
LINE
8
0
10
261.000000
20
25.481415
11
261.171013
21
26.686611
0
LINE
8
0
10
261.171013
20
26.686611
11
262.402450
21
29.128962
0
LINE
8
0
10
262.402450
20
29.128962
11
265.789794
21
32.169925
0
LINE
8
0
10
265.789794
20
32.169925
11
268.543331
21
33.235835
0
LINE
8
0
10
268.543331
20
33.235835
11
271.131466
21
33.514616
0
LINE
8
0
10
271.131466
20
33.514616
11
276.128149
21
32.976596
0
LINE
8
0
10
276.128149
20
32.976596
11
280.232202
21
31.252239
0
LINE
8
0
10
280.232202
20
31.252239
11
282.659808
21
28.670874
0
LINE
8
0
10
282.659808
20
28.670874
11
283.000000
21
27.161728
0
LINE
8
0
10
283.000000
20
27.161728
11
282.910753
21
26.437540
0
LINE
8
0
10
282.910753
20
26.437540
11
282.258378
21
25.741608
0
LINE
8
0
10
282.258378
20
25.741608
11
280.403107
21
26.505115
0
LINE
8
0
10
280.403107
20
26.505115
11
278.821340
21
28.161728
0
LINE
8
0
10
278.821340
20
28.161728
11
277.656313
21
29.248471
0
LINE
8
0
10
277.656313
20
29.248471
11
274.438230
21
30.564036
0
LINE
8
0
10
274.438230
20
30.564036
11
270.719988
21
30.709038
0
LINE
8
0
10
270.719988
20
30.709038
11
267.322237
21
29.651474
0
LINE
8
0
10
267.322237
20
29.651474
11
266.000000
21
28.661728
0
LINE
8
0
10
266.000000
20
28.661728
11
264.587500
21
27.001006
0
LINE
8
0
10
264.587500
20
27.001006
11
264.000000
21
25.816715
0
LINE
8
0
10
264.000000
20
25.816715
11
264.172791
21
25.115292
0
LINE
8
0
10
264.172791
20
25.115292
11
265.484498
21
23.656428
0
LINE
8
0
10
265.484498
20
23.656428
11
269.514267
21
21.536374
0
LINE
8
0
10
269.514267
20
21.536374
11
273.300948
21
20.330496
0
LINE
8
0
10
273.300948
20
20.330496
11
275.819163
21
19.617811
0
LINE
8
0
10
275.819163
20
19.617811
11
279.823102
21
18.086585
0
LINE
8
0
10
279.823102
20
18.086585
11
282.562426
21
16.342897
0
LINE
8
0
10
282.562426
20
16.342897
11
284.171581
21
14.301167
0
LINE
8
0
10
284.171581
20
14.301167
11
284.594359
21
13.141793
0
LINE
8
0
10
284.594359
20
13.141793
11
284.616512
21
10.884628
0
LINE
8
0
10
284.616512
20
10.884628
11
282.201212
21
6.337865
0
LINE
8
0
10
282.201212
20
6.337865
11
280.125245
21
4.728757
0
LINE
8
0
10
280.125245
20
4.728757
11
277.380038
21
3.760417
0
LINE
8
0
10
277.380038
20
3.760417
11
270.381091
21
3.209691
0
LINE
8
0
10
270.381091
20
3.209691
11
267.312913
21
3.720593
0
LINE
8
0
10
297.000000
20
18.161728
11
297.000000
21
32.661728
0
LINE
8
0
10
297.000000
20
32.661728
11
308.000000
21
32.661728
0
LINE
8
0
10
308.000000
20
32.661728
11
310.386719
21
32.643617
0
LINE
8
0
10
310.386719
20
32.643617
11
314.410156
21
32.505123
0
LINE
8
0
10
314.410156
20
32.505123
11
317.277344
21
32.244469
0
LINE
8
0
10
317.277344
20
32.244469
11
318.800781
21
31.878702
0
LINE
8
0
10
318.800781
20
31.878702
11
319.000000
21
31.661728
0
LINE
8
0
10
319.000000
20
31.661728
11
318.823402
21
31.447391
0
LINE
8
0
10
318.823402
20
31.447391
11
317.480932
21
31.083023
0
LINE
8
0
10
317.480932
20
31.083023
11
313.345604
21
30.734042
0
LINE
8
0
10
313.345604
20
30.734042
11
309.447740
21
30.661728
0
LINE
8
0
10
309.447740
20
30.661728
11
299.895481
21
30.661728
0
LINE
8
0
10
299.895481
20
30.661728
11
300.197740
21
25.411728
0
LINE
8
0
10
300.197740
20
25.411728
11
300.500000
21
20.161728
0
LINE
8
0
10
300.500000
20
20.161728
11
308.750000
21
19.871286
0
LINE
8
0
10
308.750000
20
19.871286
11
310.664122
21
19.783219
0
LINE
8
0
10
310.664122
20
19.783219
11
313.713426
21
19.524848
0
LINE
8
0
10
313.713426
20
19.524848
11
315.727755
21
19.188737
0
LINE
8
0
10
315.727755
20
19.188737
11
316.711441
21
18.813178
0
LINE
8
0
10
316.711441
20
18.813178
11
316.668818
21
18.436465
0
LINE
8
0
10
316.668818
20
18.436465
11
315.604218
21
18.096890
0
LINE
8
0
10
315.604218
20
18.096890
11
313.521973
21
17.832746
0
LINE
8
0
10
313.521973
20
17.832746
11
310.426416
21
17.682325
0
LINE
8
0
10
310.426416
20
17.682325
11
308.500000
21
17.661728
0
LINE
8
0
10
308.500000
20
17.661728
11
300.000000
21
17.661728
0
LINE
8
0
10
300.000000
20
17.661728
11
300.000000
21
12.161728
0
LINE
8
0
10
300.000000
20
12.161728
11
300.000000
21
6.661728
0
LINE
8
0
10
300.000000
20
6.661728
11
309.500000
21
6.661728
0
LINE
8
0
10
309.500000
20
6.661728
11
312.141276
21
6.647645
0
LINE
8
0
10
312.141276
20
6.647645
11
315.923828
21
6.510926
0
LINE
8
0
10
315.923828
20
6.510926
11
318.044922
21
6.176017
0
LINE
8
0
10
318.044922
20
6.176017
11
318.910807
21
5.578771
0
LINE
8
0
10
318.910807
20
5.578771
11
319.000000
21
5.161728
0
LINE
8
0
10
319.000000
20
5.161728
11
318.901042
21
4.740563
0
LINE
8
0
10
318.901042
20
4.740563
11
317.921875
21
4.141131
0
LINE
8
0
10
317.921875
20
4.141131
11
315.484375
21
3.808745
0
LINE
8
0
10
315.484375
20
3.808745
11
311.088542
21
3.675222
0
LINE
8
0
10
311.088542
20
3.675222
11
308.000000
21
3.661728
0
LINE
8
0
10
308.000000
20
3.661728
11
297.000000
21
3.661728
0
LINE
8
0
10
297.000000
20
3.661728
11
297.000000
21
18.161728
0
LINE
8
0
10
197.332914
20
3.759023
11
195.764959
21
4.362224
0
LINE
8
0
10
195.764959
20
4.362224
11
193.015093
21
6.279165
0
LINE
8
0
10
193.015093
20
6.279165
11
189.955499
21
10.535816
0
LINE
8
0
10
189.955499
20
10.535816
11
188.144701
21
17.683366
0
LINE
8
0
10
188.144701
20
17.683366
11
189.318153
21
24.967911
0
LINE
8
0
10
189.318153
20
24.967911
11
191.157437
21
28.134747
0
LINE
8
0
10
191.157437
20
28.134747
11
192.972819
21
30.039386
0
LINE
8
0
10
192.972819
20
30.039386
11
197.394766
21
32.669219
0
LINE
8
0
10
197.394766
20
32.669219
11
202.388955
21
33.633288
0
LINE
8
0
10
202.388955
20
33.633288
11
207.376180
21
32.819783
0
LINE
8
0
10
207.376180
20
32.819783
11
209.686178
21
31.711501
0
LINE
8
0
10
209.686178
20
31.711501
11
211.138172
21
30.735190
0
LINE
8
0
10
211.138172
20
30.735190
11
213.274030
21
28.767359
0
LINE
8
0
10
213.274030
20
28.767359
11
214.268390
21
26.989070
0
LINE
8
0
10
214.268390
20
26.989070
11
213.980458
21
25.652114
0
LINE
8
0
10
213.980458
20
25.652114
11
213.311636
21
25.227819
0
LINE
8
0
10
213.311636
20
25.227819
11
212.157045
21
25.142866
0
LINE
8
0
10
212.157045
20
25.142866
11
210.330689
21
26.658181
0
LINE
8
0
10
210.330689
20
26.658181
11
210.015313
21
27.962755
0
LINE
8
0
10
210.015313
20
27.962755
11
209.726429
21
28.391997
0
LINE
8
0
10
209.726429
20
28.391997
11
207.807735
21
29.617067
0
LINE
8
0
10
207.807735
20
29.617067
11
206.414245
21
30.262005
0
LINE
8
0
10
206.414245
20
30.262005
11
204.708319
21
30.834424
0
LINE
8
0
10
204.708319
20
30.834424
11
201.444079
21
31.139557
0
LINE
8
0
10
201.444079
20
31.139557
11
197.122365
21
29.732826
0
LINE
8
0
10
197.122365
20
29.732826
11
193.008481
21
25.034438
0
LINE
8
0
10
193.008481
20
25.034438
11
191.582670
21
18.028504
0
LINE
8
0
10
191.582670
20
18.028504
11
192.151948
21
13.973314
0
LINE
8
0
10
192.151948
20
13.973314
11
192.712632
21
12.100002
0
LINE
8
0
10
192.712632
20
12.100002
11
194.215715
21
9.212939
0
LINE
8
0
10
194.215715
20
9.212939
11
196.408853
21
7.315254
0
LINE
8
0
10
196.408853
20
7.315254
11
199.509364
21
6.218905
0
LINE
8
0
10
199.509364
20
6.218905
11
201.467797
21
5.912468
0
LINE
8
0
10
201.467797
20
5.912468
11
204.048631
21
5.724630
0
LINE
8
0
10
204.048631
20
5.724630
11
206.634709
21
6.436709
0
LINE
8
0
10
206.634709
20
6.436709
11
208.358821
21
7.909082
0
LINE
8
0
10
208.358821
20
7.909082
11
209.441225
21
9.030731
0
LINE
8
0
10
209.441225
20
9.030731
11
210.712830
21
10.318471
0
LINE
8
0
10
210.712830
20
10.318471
11
212.780798
21
12.034332
0
LINE
8
0
10
212.780798
20
12.034332
11
214.189614
21
12.593907
0
LINE
8
0
10
214.189614
20
12.593907
11
214.908682
21
11.985044
0
LINE
8
0
10
214.908682
20
11.985044
11
215.000000
21
11.238651
0
LINE
8
0
10
215.000000
20
11.238651
11
214.751317
21
10.259370
0
LINE
8
0
10
214.751317
20
10.259370
11
213.037108
21
7.887663
0
LINE
8
0
10
213.037108
20
7.887663
11
208.799967
21
4.502713
0
LINE
8
0
10
208.799967
20
4.502713
11
205.935096
21
3.298747
0
LINE
8
0
10
205.935096
20
3.298747
11
203.558509
21
2.882267
0
LINE
8
0
10
203.558509
20
2.882267
11
199.868505
21
3.079707
0
LINE
8
0
10
199.868505
20
3.079707
11
197.332914
21
3.759023
0
LINE
8
0
10
125.779025
20
16.911728
11
125.500000
21
30.161728
0
LINE
8
0
10
125.500000
20
30.161728
11
120.250000
21
30.463987
0
LINE
8
0
10
120.250000
20
30.463987
11
118.211523
21
30.656132
0
LINE
8
0
10
118.211523
20
30.656132
11
115.414258
21
31.322147
0
LINE
8
0
10
115.414258
20
31.322147
11
115.000000
21
31.713987
0
LINE
8
0
10
115.000000
20
31.713987
11
115.241503
21
31.911599
0
LINE
8
0
10
115.241503
20
31.911599
11
117.054754
21
32.253994
0
LINE
8
0
10
117.054754
20
32.253994
11
120.377714
21
32.505938
0
LINE
8
0
10
120.377714
20
32.505938
11
124.893648
21
32.643417
0
LINE
8
0
10
124.893648
20
32.643417
11
127.500000
21
32.661728
0
LINE
8
0
10
127.500000
20
32.661728
11
130.106352
21
32.643417
0
LINE
8
0
10
130.106352
20
32.643417
11
134.622286
21
32.505938
0
LINE
8
0
10
134.622286
20
32.505938
11
137.945246
21
32.253994
0
LINE
8
0
10
137.945246
20
32.253994
11
139.758497
21
31.911599
0
LINE
8
0
10
139.758497
20
31.911599
11
140.000000
21
31.713987
0
LINE
8
0
10
140.000000
20
31.713987
11
139.585742
21
31.322147
0
LINE
8
0
10
139.585742
20
31.322147
11
136.788477
21
30.656132
0
LINE
8
0
10
136.788477
20
30.656132
11
134.750000
21
30.463987
0
LINE
8
0
10
134.750000
20
30.463987
11
129.500000
21
30.161728
0
LINE
8
0
10
129.500000
20
30.161728
11
129.220975
21
16.911728
0
LINE
8
0
10
129.220975
20
16.911728
11
129.130023
21
13.257393
0
LINE
8
0
10
129.130023
20
13.257393
11
128.885334
21
7.997407
0
LINE
8
0
10
128.885334
20
7.997407
11
128.498736
21
5.020948
0
LINE
8
0
10
128.498736
20
5.020948
11
127.900397
21
3.790350
0
LINE
8
0
10
127.900397
20
3.790350
11
127.500000
21
3.661728
0
LINE
8
0
10
127.500000
20
3.661728
11
127.099603
21
3.790350
0
LINE
8
0
10
127.099603
20
3.790350
11
126.501264
21
5.020948
0
LINE
8
0
10
126.501264
20
5.020948
11
126.114666
21
7.997407
0
LINE
8
0
10
126.114666
20
7.997407
11
125.869977
21
13.257393
0
LINE
8
0
10
125.869977
20
13.257393
11
125.779025
21
16.911728
0
LINE
8
0
10
31.195860
20
139.411728
11
31.000000
21
146.661728
0
LINE
8
0
10
31.000000
20
146.661728
11
57.750000
21
146.429063
0
LINE
8
0
10
57.750000
20
146.429063
11
84.500000
21
146.196399
0
LINE
8
0
10
84.500000
20
146.196399
11
58.295313
21
145.912548
0
LINE
8
0
10
58.295313
20
145.912548
11
32.090627
21
145.628698
0
LINE
8
0
10
32.090627
20
145.628698
11
31.741174
21
138.895213
0
LINE
8
0
10
31.741174
20
138.895213
11
31.391721
21
132.161728
0
LINE
8
0
10
31.391721
20
132.161728
11
31.195860
21
139.411728
0
LINE
8
0
10
250.812975
20
131.410236
11
266.942077
21
131.534448
0
LINE
8
0
10
266.942077
20
131.534448
11
282.812975
21
131.409508
0
LINE
8
0
10
282.812975
20
131.409508
11
284.244960
21
131.378710
0
LINE
8
0
10
284.244960
20
131.378710
11
286.019585
21
131.319883
0
LINE
8
0
10
286.019585
20
131.319883
11
286.397508
21
131.265777
0
LINE
8
0
10
286.397508
20
131.265777
11
285.445636
21
131.217629
0
LINE
8
0
10
285.445636
20
131.217629
11
283.230879
21
131.176676
0
LINE
8
0
10
283.230879
20
131.176676
11
279.820145
21
131.144156
0
LINE
8
0
10
279.820145
20
131.144156
11
275.280343
21
131.121307
0
LINE
8
0
10
275.280343
20
131.121307
11
269.678382
21
131.109364
0
LINE
8
0
10
269.678382
20
131.109364
11
266.500000
21
131.107869
0
LINE
8
0
10
266.500000
20
131.107869
11
263.324866
21
131.109508
0
LINE
8
0
10
263.324866
20
131.109508
11
257.747921
21
131.121705
0
LINE
8
0
10
257.747921
20
131.121705
11
253.255692
21
131.144761
0
LINE
8
0
10
253.255692
20
131.144761
11
249.912519
21
131.177434
0
LINE
8
0
10
249.912519
20
131.177434
11
247.782745
21
131.218485
0
LINE
8
0
10
247.782745
20
131.218485
11
246.930711
21
131.266674
0
LINE
8
0
10
246.930711
20
131.266674
11
247.420757
21
131.320761
0
LINE
8
0
10
247.420757
20
131.320761
11
249.317225
21
131.379505
0
LINE
8
0
10
249.317225
20
131.379505
11
250.812975
21
131.410236
0
LINE
8
0
10
298.445414
20
99.661728
11
298.446984
21
102.788849
0
LINE
8
0
10
298.446984
20
102.788849
11
298.459081
21
108.290967
0
LINE
8
0
10
298.459081
20
108.290967
11
298.482086
21
112.736420
0
LINE
8
0
10
298.482086
20
112.736420
11
298.514756
21
116.060608
0
LINE
8
0
10
298.514756
20
116.060608
11
298.555851
21
118.198932
0
LINE
8
0
10
298.555851
20
118.198932
11
298.604128
21
119.086792
0
LINE
8
0
10
298.604128
20
119.086792
11
298.658347
21
118.659589
0
LINE
8
0
10
298.658347
20
118.659589
11
298.717266
21
116.852722
0
LINE
8
0
10
298.717266
20
116.852722
11
298.748100
21
115.411728
0
LINE
8
0
10
298.748100
20
115.411728
11
298.872958
21
99.661728
0
LINE
8
0
10
298.872958
20
99.661728
11
298.748100
21
83.911728
0
LINE
8
0
10
298.748100
20
83.911728
11
298.717266
21
82.470734
0
LINE
8
0
10
298.717266
20
82.470734
11
298.658347
21
80.663867
0
LINE
8
0
10
298.658347
20
80.663867
11
298.604128
21
80.236664
0
LINE
8
0
10
298.604128
20
80.236664
11
298.555851
21
81.124524
0
LINE
8
0
10
298.555851
20
81.124524
11
298.514756
21
83.262848
0
LINE
8
0
10
298.514756
20
83.262848
11
298.482086
21
86.587036
0
LINE
8
0
10
298.482086
20
86.587036
11
298.459081
21
91.032489
0
LINE
8
0
10
298.459081
20
91.032489
11
298.446984
21
96.534607
0
LINE
8
0
10
298.446984
20
96.534607
11
298.445414
21
99.661728
0
LINE
8
0
10
253.309787
20
73.409682
11
266.937574
21
73.536967
0
LINE
8
0
10
266.937574
20
73.536967
11
280.309787
21
73.408708
0
LINE
8
0
10
280.309787
20
73.408708
11
281.513368
21
73.377110
0
LINE
8
0
10
281.513368
20
73.377110
11
283.001809
21
73.316760
0
LINE
8
0
10
283.001809
20
73.316760
11
283.312493
21
73.261262
0
LINE
8
0
10
283.312493
20
73.261262
11
282.502060
21
73.211885
0
LINE
8
0
10
282.502060
20
73.211885
11
279.308220
21
73.152071
0
LINE
8
0
10
279.308220
20
73.152071
11
271.654516
21
73.105581
0
LINE
8
0
10
271.654516
20
73.105581
11
266.500000
21
73.099445
0
LINE
8
0
10
266.500000
20
73.099445
11
261.358129
21
73.105953
0
LINE
8
0
10
261.358129
20
73.105953
11
253.797966
21
73.152992
0
LINE
8
0
10
253.797966
20
73.152992
11
250.723996
21
73.213033
0
LINE
8
0
10
250.723996
20
73.213033
11
250.012383
21
73.262464
0
LINE
8
0
10
250.012383
20
73.262464
11
250.434048
21
73.317935
0
LINE
8
0
10
250.434048
20
73.317935
11
252.043092
21
73.378173
0
LINE
8
0
10
252.043092
20
73.378173
11
253.309787
21
73.409682
0
LINE
8
0
10
84.435703
20
119.161728
11
84.442261
21
124.112940
0
LINE
8
0
10
84.442261
20
124.112940
11
84.489595
21
131.391480
0
LINE
8
0
10
84.489595
20
131.391480
11
84.549998
21
134.349527
0
LINE
8
0
10
84.549998
20
134.349527
11
84.599724
21
135.033075
0
LINE
8
0
10
84.599724
20
135.033075
11
84.655523
21
134.625108
0
LINE
8
0
10
84.655523
20
134.625108
11
84.716114
21
133.073573
0
LINE
8
0
10
84.716114
20
133.073573
11
84.747807
21
131.852701
0
LINE
8
0
10
84.747807
20
131.852701
11
84.875816
21
118.725228
0
LINE
8
0
10
84.875816
20
118.725228
11
84.746768
21
105.852701
0
LINE
8
0
10
84.746768
20
105.852701
11
84.714980
21
104.694789
0
LINE
8
0
10
84.714980
20
104.694789
11
84.654270
21
103.263560
0
LINE
8
0
10
84.654270
20
103.263560
11
84.598443
21
102.966303
0
LINE
8
0
10
84.598443
20
102.966303
11
84.548775
21
103.748428
0
LINE
8
0
10
84.548775
20
103.748428
11
84.488614
21
106.826050
0
LINE
8
0
10
84.488614
20
106.826050
11
84.441865
21
114.197901
0
LINE
8
0
10
84.441865
20
114.197901
11
84.435703
21
119.161728
0
LINE
8
0
10
184.000000
20
101.161728
11
188.526632
21
105.681503
0
LINE
8
0
10
188.526632
20
105.681503
11
196.633764
21
113.719101
0
LINE
8
0
10
196.633764
20
113.719101
11
202.850934
21
119.805527
0
LINE
8
0
10
202.850934
20
119.805527
11
205.819863
21
122.645767
0
LINE
8
0
10
205.819863
20
122.645767
11
206.815754
21
123.544998
0
LINE
8
0
10
206.815754
20
123.544998
11
206.983331
21
123.661728
0
LINE
8
0
10
206.983331
20
123.661728
11
206.917622
21
123.544998
0
LINE
8
0
10
206.917622
20
123.544998
11
206.116384
21
122.645767
0
LINE
8
0
10
206.116384
20
122.645767
11
203.409040
21
119.805527
0
LINE
8
0
10
203.409040
20
119.805527
11
197.462377
21
113.719101
0
LINE
8
0
10
197.462377
20
113.719101
11
189.506222
21
105.681503
0
LINE
8
0
10
189.506222
20
105.681503
11
185.000000
21
101.161728
0
LINE
8
0
10
185.000000
20
101.161728
11
180.473368
21
96.641953
0
LINE
8
0
10
180.473368
20
96.641953
11
172.366236
21
88.604355
0
LINE
8
0
10
172.366236
20
88.604355
11
166.149066
21
82.517929
0
LINE
8
0
10
166.149066
20
82.517929
11
163.180137
21
79.677689
0
LINE
8
0
10
163.180137
20
79.677689
11
162.184246
21
78.778458
0
LINE
8
0
10
162.184246
20
78.778458
11
162.016669
21
78.661728
0
LINE
8
0
10
162.016669
20
78.661728
11
162.082378
21
78.778458
0
LINE
8
0
10
162.082378
20
78.778458
11
162.883616
21
79.677689
0
LINE
8
0
10
162.883616
20
79.677689
11
165.590960
21
82.517929
0
LINE
8
0
10
165.590960
20
82.517929
11
171.537623
21
88.604355
0
LINE
8
0
10
171.537623
20
88.604355
11
179.493778
21
96.641953
0
LINE
8
0
10
179.493778
20
96.641953
11
184.000000
21
101.161728
0
LINE
8
0
10
181.943432
20
105.378027
11
200.060908
21
124.094327
0
LINE
8
0
10
200.060908
20
124.094327
11
181.033767
21
143.121467
0
LINE
8
0
10
181.033767
20
143.121467
11
162.006627
21
162.148608
0
LINE
8
0
10
162.006627
20
162.148608
11
143.003189
21
143.164913
0
LINE
8
0
10
143.003189
20
143.164913
11
123.999750
21
124.181219
0
LINE
8
0
10
123.999750
20
124.181219
11
142.740005
21
105.421473
0
LINE
8
0
10
142.740005
20
105.421473
11
146.528465
21
101.653036
0
LINE
8
0
10
146.528465
20
101.653036
11
153.400054
21
94.951557
0
LINE
8
0
10
153.400054
20
94.951557
11
158.786704
21
89.876899
0
LINE
8
0
10
158.786704
20
89.876899
11
162.035016
21
87.044617
0
LINE
8
0
10
162.035016
20
87.044617
11
162.653108
21
86.661728
0
LINE
8
0
10
162.653108
20
86.661728
11
163.258490
21
87.043731
0
LINE
8
0
10
163.258490
20
87.043731
11
166.412776
21
89.869453
0
LINE
8
0
10
166.412776
20
89.869453
11
171.630960
21
94.932358
0
LINE
8
0
10
171.630960
20
94.932358
11
178.280076
21
101.618318
0
LINE
8
0
10
178.280076
20
101.618318
11
181.943432
21
105.378027
0
LINE
8
0
10
85.000000
20
119.661728
11
85.000000
21
146.661728
0
LINE
8
0
10
85.000000
20
146.661728
11
58.000000
21
146.661728
0
LINE
8
0
10
58.000000
20
146.661728
11
31.000000
21
146.661728
0
LINE
8
0
10
31.000000
20
146.661728
11
31.000000
21
119.661728
0
LINE
8
0
10
31.000000
20
119.661728
11
31.000000
21
92.661728
0
LINE
8
0
10
31.000000
20
92.661728
11
58.000000
21
92.661728
0
LINE
8
0
10
58.000000
20
92.661728
11
85.000000
21
92.661728
0
LINE
8
0
10
85.000000
20
92.661728
11
85.000000
21
119.661728
0
LINE
8
0
10
293.500000
20
99.661728
11
293.500000
21
126.161728
0
LINE
8
0
10
293.500000
20
126.161728
11
266.750000
21
126.428061
0
LINE
8
0
10
266.750000
20
126.428061
11
240.000000
21
126.694395
0
LINE
8
0
10
240.000000
20
126.694395
11
240.000000
21
99.661728
0
LINE
8
0
10
240.000000
20
99.661728
11
240.000000
21
72.629061
0
LINE
8
0
10
240.000000
20
72.629061
11
266.750000
21
72.895395
0
LINE
8
0
10
266.750000
20
72.895395
11
293.500000
21
73.161728
0
LINE
8
0
10
293.500000
20
73.161728
11
293.500000
21
99.661728
0
LINE
8
0
10
170.600000
20
9.061728
11
172.405549
21
11.034888
0
LINE
8
0
10
172.405549
20
11.034888
11
173.891802
21
14.864015
0
LINE
8
0
10
173.891802
20
14.864015
11
173.996262
21
17.811728
0
LINE
8
0
10
173.996262
20
17.811728
11
173.720686
21
21.254234
0
LINE
8
0
10
173.720686
20
21.254234
11
171.657869
21
26.743589
0
LINE
8
0
10
171.657869
20
26.743589
11
167.860516
21
30.122049
0
LINE
8
0
10
167.860516
20
30.122049
11
162.665851
21
31.089590
0
LINE
8
0
10
162.665851
20
31.089590
11
159.649909
21
30.575508
0
LINE
8
0
10
159.649909
20
30.575508
11
156.824727
21
29.452363
0
LINE
8
0
10
156.824727
20
29.452363
11
153.251343
21
25.385700
0
LINE
8
0
10
153.251343
20
25.385700
11
152.243722
21
22.146954
0
LINE
8
0
10
152.243722
20
22.146954
11
151.825696
21
18.867615
0
LINE
8
0
10
151.825696
20
18.867615
11
152.748776
21
12.995737
0
LINE
8
0
10
152.748776
20
12.995737
11
155.702751
21
8.516643
0
LINE
8
0
10
155.702751
20
8.516643
11
160.310083
21
6.002793
0
LINE
8
0
10
160.310083
20
6.002793
11
163.115777
21
5.661728
0
LINE
8
0
10
163.115777
20
5.661728
11
165.294551
21
5.805316
0
LINE
8
0
10
165.294551
20
5.805316
11
168.733281
21
7.367493
0
LINE
8
0
10
168.733281
20
7.367493
11
170.600000
21
9.061728
0
LINE
8
0
10
96.434441
20
6.636802
11
98.832255
21
8.287458
0
LINE
8
0
10
98.832255
20
8.287458
11
100.995802
21
10.886802
0
LINE
8
0
10
100.995802
20
10.886802
11
102.243094
21
13.571101
0
LINE
8
0
10
102.243094
20
13.571101
11
102.900243
21
19.269016
0
LINE
8
0
10
102.900243
20
19.269016
11
101.321796
21
24.672378
0
LINE
8
0
10
101.321796
20
24.672378
11
97.764930
21
28.900811
0
LINE
8
0
10
97.764930
20
28.900811
11
95.324958
21
30.299312
0
LINE
8
0
10
95.324958
20
30.299312
11
93.466591
21
30.894992
0
LINE
8
0
10
93.466591
20
30.894992
11
89.904337
21
31.040112
0
LINE
8
0
10
89.904337
20
31.040112
11
86.676020
21
29.965822
0
LINE
8
0
10
86.676020
20
29.965822
11
83.935198
21
27.882814
0
LINE
8
0
10
83.935198
20
27.882814
11
81.073929
21
23.327852
0
LINE
8
0
10
81.073929
20
23.327852
11
80.173294
21
17.688430
0
LINE
8
0
10
80.173294
20
17.688430
11
80.918043
21
13.677494
0
LINE
8
0
10
80.918043
20
13.677494
11
81.751554
21
11.675639
0
LINE
8
0
10
81.751554
20
11.675639
11
82.906617
21
9.812233
0
LINE
8
0
10
82.906617
20
9.812233
11
85.957956
21
7.088495
0
LINE
8
0
10
85.957956
20
7.088495
11
89.786778
21
5.774529
0
LINE
8
0
10
89.786778
20
5.774529
11
94.140122
21
5.957147
0
LINE
8
0
10
94.140122
20
5.957147
11
96.434441
21
6.636802
0
LINE
8
0
10
60.000000
20
21.661728
11
61.453536
21
23.483250
0
LINE
8
0
10
61.453536
20
23.483250
11
61.946000
21
26.705512
0
LINE
8
0
10
61.946000
20
26.705512
11
59.459780
21
29.131749
0
LINE
8
0
10
59.459780
20
29.131749
11
54.283825
21
30.479981
0
LINE
8
0
10
54.283825
20
30.479981
11
50.777494
21
30.661728
0
LINE
8
0
10
50.777494
20
30.661728
11
44.000000
21
30.661728
0
LINE
8
0
10
44.000000
20
30.661728
11
44.000000
21
25.161728
0
LINE
8
0
10
44.000000
20
25.161728
11
44.000000
21
19.661728
0
LINE
8
0
10
44.000000
20
19.661728
11
51.000000
21
19.661728
0
LINE
8
0
10
51.000000
20
19.661728
11
52.947266
21
19.681259
0
LINE
8
0
10
52.947266
20
19.681259
11
55.910993
21
19.867643
0
LINE
8
0
10
55.910993
20
19.867643
11
58.707589
21
20.666192
0
LINE
8
0
10
58.707589
20
20.666192
11
60.000000
21
21.661728
0
LINE
8
0
10
24.000000
20
20.661728
11
25.360665
21
22.457823
0
LINE
8
0
10
25.360665
20
22.457823
11
25.650879
21
26.235723
0
LINE
8
0
10
25.650879
20
26.235723
11
24.580663
21
28.220598
0
LINE
8
0
10
24.580663
20
28.220598
11
23.588595
21
29.196169
0
LINE
8
0
10
23.588595
20
29.196169
11
21.098016
21
29.967711
0
LINE
8
0
10
21.098016
20
29.967711
11
18.247325
21
30.143680
0
LINE
8
0
10
18.247325
20
30.143680
11
16.330663
21
30.161728
0
LINE
8
0
10
16.330663
20
30.161728
11
9.500000
21
30.161728
0
LINE
8
0
10
9.500000
20
30.161728
11
9.200096
21
24.411728
0
LINE
8
0
10
9.200096
20
24.411728
11
8.900192
21
18.661728
0
LINE
8
0
10
8.900192
20
18.661728
11
15.450096
21
18.661728
0
LINE
8
0
10
15.450096
20
18.661728
11
17.249869
21
18.682333
0
LINE
8
0
10
17.249869
20
18.682333
11
20.027783
21
18.874546
0
LINE
8
0
10
20.027783
20
18.874546
11
22.725666
21
19.677236
0
LINE
8
0
10
22.725666
20
19.677236
11
24.000000
21
20.661728
0
LINE
8
0
10
242.461627
20
15.599639
11
242.459227
21
16.501415
0
LINE
8
0
10
242.459227
20
16.501415
11
241.331692
21
20.504399
0
LINE
8
0
10
241.331692
20
20.504399
11
239.446716
21
25.485651
0
LINE
8
0
10
239.446716
20
25.485651
11
237.691744
21
29.100004
0
LINE
8
0
10
237.691744
20
29.100004
11
237.140336
21
29.661728
0
LINE
8
0
10
237.140336
20
29.661728
11
236.724729
21
29.138282
0
LINE
8
0
10
236.724729
20
29.138282
11
235.215842
21
25.736735
0
LINE
8
0
10
235.215842
20
25.736735
11
233.447598
21
20.942351
0
LINE
8
0
10
233.447598
20
20.942351
11
232.193055
21
16.851179
0
LINE
8
0
10
232.193055
20
16.851179
11
232.000000
21
15.724312
0
LINE
8
0
10
232.000000
20
15.724312
11
232.416366
21
15.286992
0
LINE
8
0
10
232.416366
20
15.286992
11
235.096970
21
14.760924
0
LINE
8
0
10
235.096970
20
14.760924
11
238.796246
21
14.716839
0
LINE
8
0
10
238.796246
20
14.716839
11
241.780003
21
15.175404
0
LINE
8
0
10
241.780003
20
15.175404
11
242.461627
21
15.599639
0
ENDSEC
0
EOF
