999
DXF File generated by ImageToStl.com - Free Image and 3D model conversion tools
0
SECTION
2
HEADER
9
$ACADVER
1
AC1009
9
$EXTMIN
10
0
20
0
9
$EXTMAX
10
501.178830
20
208.618749
0
ENDSEC
0
SECTION
2
ENTITIES
0
LINE
8
0
10
240.500000
20
142.479309
11
237.846323
21
144.353068
0
LINE
8
0
10
237.846323
20
144.353068
11
234.050838
21
148.789178
0
LINE
8
0
10
234.050838
20
148.789178
11
232.649087
21
151.655347
0
LINE
8
0
10
232.649087
20
151.655347
11
231.484908
21
155.175550
0
LINE
8
0
10
231.484908
20
155.175550
11
230.401106
21
162.942391
0
LINE
8
0
10
230.401106
20
162.942391
11
230.923220
21
170.866032
0
LINE
8
0
10
230.923220
20
170.866032
11
232.987062
21
177.972340
0
LINE
8
0
10
232.987062
20
177.972340
11
234.577072
21
180.914577
0
LINE
8
0
10
234.577072
20
180.914577
11
236.701382
21
183.457969
0
LINE
8
0
10
236.701382
20
183.457969
11
242.230233
21
186.998732
0
LINE
8
0
10
242.230233
20
186.998732
11
248.582768
21
188.297540
0
LINE
8
0
10
248.582768
20
188.297540
11
254.699042
21
187.137681
0
LINE
8
0
10
254.699042
20
187.137681
11
257.337349
21
185.568030
0
LINE
8
0
10
257.337349
20
185.568030
11
258.346286
21
184.811161
0
LINE
8
0
10
258.346286
20
184.811161
11
259.982223
21
183.772559
0
LINE
8
0
10
259.982223
20
183.772559
11
260.407729
21
183.618749
0
LINE
8
0
10
260.407729
20
183.618749
11
260.526704
21
183.863671
0
LINE
8
0
10
260.526704
20
183.863671
11
260.738279
21
185.675389
0
LINE
8
0
10
260.738279
20
185.675389
11
260.953266
21
190.959374
0
LINE
8
0
10
260.953266
20
190.959374
11
261.000000
21
195.618749
0
LINE
8
0
10
261.000000
20
195.618749
11
261.000000
21
207.618749
0
LINE
8
0
10
261.000000
20
207.618749
11
266.000000
21
207.618749
0
LINE
8
0
10
266.000000
20
207.618749
11
271.000000
21
207.618749
0
LINE
8
0
10
271.000000
20
207.618749
11
271.000000
21
174.618749
0
LINE
8
0
10
271.000000
20
174.618749
11
271.000000
21
141.618749
0
LINE
8
0
10
271.000000
20
141.618749
11
266.500000
21
141.618749
0
LINE
8
0
10
266.500000
20
141.618749
11
264.179688
21
141.691666
0
LINE
8
0
10
264.179688
20
141.691666
11
262.164062
21
142.587499
0
LINE
8
0
10
262.164062
20
142.587499
11
262.000000
21
143.618749
0
LINE
8
0
10
262.000000
20
143.618749
11
261.984775
21
144.447746
0
LINE
8
0
10
261.984775
20
144.447746
11
261.717499
21
145.367981
0
LINE
8
0
10
261.717499
20
145.367981
11
260.811175
21
145.269364
0
LINE
8
0
10
260.811175
20
145.269364
11
258.877866
21
144.109681
0
LINE
8
0
10
258.877866
20
144.109681
11
257.404862
21
143.118749
0
LINE
8
0
10
257.404862
20
143.118749
11
255.538100
21
142.077442
0
LINE
8
0
10
255.538100
20
142.077442
11
251.217190
21
140.804633
0
LINE
8
0
10
251.217190
20
140.804633
11
246.614741
21
140.630542
0
LINE
8
0
10
246.614741
20
140.630542
11
242.332727
21
141.577938
0
LINE
8
0
10
242.332727
20
141.577938
11
240.500000
21
142.479309
0
LINE
8
0
10
229.429259
20
53.448225
11
225.820918
21
55.635393
0
LINE
8
0
10
225.820918
20
55.635393
11
220.389756
21
61.909275
0
LINE
8
0
10
220.389756
20
61.909275
11
217.536601
21
70.146254
0
LINE
8
0
10
217.536601
20
70.146254
11
217.498225
21
79.662773
0
LINE
8
0
10
217.498225
20
79.662773
11
218.608571
21
84.687248
0
LINE
8
0
10
218.608571
20
84.687248
11
220.008562
21
88.266651
0
LINE
8
0
10
220.008562
20
88.266651
11
224.188051
21
93.927571
0
LINE
8
0
10
224.188051
20
93.927571
11
229.730682
21
97.607541
0
LINE
8
0
10
229.730682
20
97.607541
11
236.065011
21
99.326047
0
LINE
8
0
10
236.065011
20
99.326047
11
242.619596
21
99.102571
0
LINE
8
0
10
242.619596
20
99.102571
11
248.822991
21
96.956595
0
LINE
8
0
10
248.822991
20
96.956595
11
254.103754
21
92.907604
0
LINE
8
0
10
254.103754
20
92.907604
11
257.890441
21
86.975081
0
LINE
8
0
10
257.890441
20
86.975081
11
259.044931
21
83.308583
0
LINE
8
0
10
259.044931
20
83.308583
11
259.741301
21
78.989609
0
LINE
8
0
10
259.741301
20
78.989609
11
259.562806
21
70.650049
0
LINE
8
0
10
259.562806
20
70.650049
11
257.434729
21
63.216255
0
LINE
8
0
10
257.434729
20
63.216255
11
253.531551
21
57.297721
0
LINE
8
0
10
253.531551
20
57.297721
11
250.968825
21
55.097145
0
LINE
8
0
10
250.968825
20
55.097145
11
248.755381
21
53.845973
0
LINE
8
0
10
248.755381
20
53.845973
11
243.394571
21
52.199329
0
LINE
8
0
10
243.394571
20
52.199329
11
237.486329
21
51.747036
0
LINE
8
0
10
237.486329
20
51.747036
11
231.868017
21
52.553194
0
LINE
8
0
10
231.868017
20
52.553194
11
229.429259
21
53.448225
0
LINE
8
0
10
64.459638
20
54.368749
11
64.581994
21
54.689687
0
LINE
8
0
10
64.581994
20
54.689687
11
65.127078
21
56.129390
0
LINE
8
0
10
65.127078
20
56.129390
11
66.610793
21
60.058568
0
LINE
8
0
10
66.610793
20
60.058568
11
69.594905
21
67.970922
0
LINE
8
0
10
69.594905
20
67.970922
11
73.396723
21
78.058861
0
LINE
8
0
10
73.396723
20
78.058861
11
75.491156
21
83.618749
0
LINE
8
0
10
75.491156
20
83.618749
11
77.585770
21
89.178637
0
LINE
8
0
10
77.585770
20
89.178637
11
81.388923
21
99.266576
0
LINE
8
0
10
81.388923
20
99.266576
11
84.375427
21
107.178930
0
LINE
8
0
10
84.375427
20
107.178930
11
85.861456
21
111.108107
0
LINE
8
0
10
85.861456
20
111.108107
11
86.408261
21
112.547811
0
LINE
8
0
10
86.408261
20
112.547811
11
86.531518
21
112.868749
0
LINE
8
0
10
86.531518
20
112.868749
11
87.094942
21
113.703410
0
LINE
8
0
10
87.094942
20
113.703410
11
89.702011
21
114.532386
0
LINE
8
0
10
89.702011
20
114.532386
11
92.035140
21
114.618749
0
LINE
8
0
10
92.035140
20
114.618749
11
96.856302
21
114.618749
0
LINE
8
0
10
96.856302
20
114.618749
11
98.825909
21
109.368749
0
LINE
8
0
10
98.825909
20
109.368749
11
99.417544
21
107.796776
0
LINE
8
0
10
99.417544
20
107.796776
11
101.570854
21
102.094367
0
LINE
8
0
10
101.570854
20
102.094367
11
104.701129
21
93.817340
0
LINE
8
0
10
104.701129
20
93.817340
11
108.428670
21
83.969697
0
LINE
8
0
10
108.428670
20
83.969697
11
110.397758
21
78.770644
0
LINE
8
0
10
110.397758
20
78.770644
11
112.326646
21
73.670542
0
LINE
8
0
10
112.326646
20
73.670542
11
115.756822
21
64.554849
0
LINE
8
0
10
115.756822
20
64.554849
11
118.354303
21
57.589273
0
LINE
8
0
10
118.354303
20
57.589273
11
119.566422
21
54.284378
0
LINE
8
0
10
119.566422
20
54.284378
11
119.950184
21
53.193090
0
LINE
8
0
10
119.950184
20
53.193090
11
120.000000
21
53.020644
0
LINE
8
0
10
120.000000
20
53.020644
11
119.583915
21
52.864596
0
LINE
8
0
10
119.583915
20
52.864596
11
116.774312
21
52.650461
0
LINE
8
0
10
116.774312
20
52.650461
11
114.726845
21
52.618749
0
LINE
8
0
10
114.726845
20
52.618749
11
109.453689
21
52.618749
0
LINE
8
0
10
109.453689
20
52.618749
11
107.070550
21
59.618749
0
LINE
8
0
10
107.070550
20
59.618749
11
104.687411
21
66.618749
0
LINE
8
0
10
104.687411
20
66.618749
11
92.057381
21
66.618749
0
LINE
8
0
10
92.057381
20
66.618749
11
79.427352
21
66.618749
0
LINE
8
0
10
79.427352
20
66.618749
11
77.000000
21
59.618749
0
LINE
8
0
10
77.000000
20
59.618749
11
74.572648
21
52.618749
0
LINE
8
0
10
74.572648
20
52.618749
11
69.179335
21
52.618749
0
LINE
8
0
10
69.179335
20
52.618749
11
67.595319
21
52.631042
0
LINE
8
0
10
67.595319
20
52.631042
11
65.453294
21
52.768089
0
LINE
8
0
10
65.453294
20
52.768089
11
64.283392
21
53.448318
0
LINE
8
0
10
64.283392
20
53.448318
11
64.459638
21
54.368749
0
LINE
8
0
10
107.000000
20
164.618749
11
107.000000
21
187.618749
0
LINE
8
0
10
107.000000
20
187.618749
11
111.500000
21
187.618749
0
LINE
8
0
10
111.500000
20
187.618749
11
112.875874
21
187.605341
0
LINE
8
0
10
112.875874
20
187.605341
11
114.733800
21
187.433320
0
LINE
8
0
10
114.733800
20
187.433320
11
115.876066
21
186.488483
0
LINE
8
0
10
115.876066
20
186.488483
11
116.000000
21
185.148886
0
LINE
8
0
10
116.000000
20
185.148886
11
116.000000
21
182.679022
0
LINE
8
0
10
116.000000
20
182.679022
11
119.513344
21
185.063242
0
LINE
8
0
10
119.513344
20
185.063242
11
122.246192
21
186.574662
0
LINE
8
0
10
122.246192
20
186.574662
11
128.242111
21
188.150275
0
LINE
8
0
10
128.242111
20
188.150275
11
134.179986
21
187.836661
0
LINE
8
0
10
134.179986
20
187.836661
11
139.141804
21
185.682304
0
LINE
8
0
10
139.141804
20
185.682304
11
140.969811
21
183.929998
0
LINE
8
0
10
140.969811
20
183.929998
11
143.046859
21
181.289460
0
LINE
8
0
10
143.046859
20
181.289460
11
145.773429
21
183.833479
0
LINE
8
0
10
145.773429
20
183.833479
11
147.964150
21
185.509558
0
LINE
8
0
10
147.964150
20
185.509558
11
153.217028
21
187.717016
0
LINE
8
0
10
153.217028
20
187.717016
11
158.959905
21
188.326857
0
LINE
8
0
10
158.959905
20
188.326857
11
164.386483
21
187.253460
0
LINE
8
0
10
164.386483
20
187.253460
11
166.729190
21
186.058789
0
LINE
8
0
10
166.729190
20
186.058789
11
168.383567
21
184.813842
0
LINE
8
0
10
168.383567
20
184.813842
11
170.710067
21
181.518466
0
LINE
8
0
10
170.710067
20
181.518466
11
172.016551
21
175.904452
0
LINE
8
0
10
172.016551
20
175.904452
11
172.536123
21
169.273845
0
LINE
8
0
10
172.536123
20
169.273845
11
172.744784
21
163.350953
0
LINE
8
0
10
172.744784
20
163.350953
11
172.824092
21
159.868749
0
LINE
8
0
10
172.824092
20
159.868749
11
173.190748
21
141.618749
0
LINE
8
0
10
173.190748
20
141.618749
11
168.095374
21
141.618749
0
LINE
8
0
10
168.095374
20
141.618749
11
163.000000
21
141.618749
0
LINE
8
0
10
163.000000
20
141.618749
11
163.000000
21
157.668409
0
LINE
8
0
10
163.000000
20
157.668409
11
162.989102
21
160.773113
0
LINE
8
0
10
162.989102
20
160.773113
11
162.890576
21
166.087877
0
LINE
8
0
10
162.890576
20
166.087877
11
162.494237
21
172.066296
0
LINE
8
0
10
162.494237
20
172.066296
11
161.343007
21
176.995988
0
LINE
8
0
10
161.343007
20
176.995988
11
159.258185
21
179.399607
0
LINE
8
0
10
159.258185
20
179.399607
11
157.790048
21
179.977990
0
LINE
8
0
10
157.790048
20
179.977990
11
154.921623
21
180.518089
0
LINE
8
0
10
154.921623
20
180.518089
11
150.304469
21
179.592058
0
LINE
8
0
10
150.304469
20
179.592058
11
148.076725
21
178.029855
0
LINE
8
0
10
148.076725
20
178.029855
11
145.000000
21
175.440962
0
LINE
8
0
10
145.000000
20
175.440962
11
145.000000
21
158.529855
0
LINE
8
0
10
145.000000
20
158.529855
11
145.000000
21
141.618749
0
LINE
8
0
10
145.000000
20
141.618749
11
140.000000
21
141.618749
0
LINE
8
0
10
140.000000
20
141.618749
11
135.000000
21
141.618749
0
LINE
8
0
10
135.000000
20
141.618749
11
135.000000
21
158.195672
0
LINE
8
0
10
135.000000
20
158.195672
11
135.000000
21
174.772595
0
LINE
8
0
10
135.000000
20
174.772595
11
132.076923
21
177.695672
0
LINE
8
0
10
132.076923
20
177.695672
11
130.761201
21
178.850341
0
LINE
8
0
10
130.761201
20
178.850341
11
128.032917
21
180.266677
0
LINE
8
0
10
128.032917
20
180.266677
11
125.118755
21
180.496824
0
LINE
8
0
10
125.118755
20
180.496824
11
121.950605
21
179.546162
0
LINE
8
0
10
121.950605
20
179.546162
11
120.250000
21
178.629709
0
LINE
8
0
10
120.250000
20
178.629709
11
117.000000
21
176.648146
0
LINE
8
0
10
117.000000
20
176.648146
11
117.000000
21
159.133447
0
LINE
8
0
10
117.000000
20
159.133447
11
117.000000
21
141.618749
0
LINE
8
0
10
117.000000
20
141.618749
11
112.000000
21
141.618749
0
LINE
8
0
10
112.000000
20
141.618749
11
107.000000
21
141.618749
0
LINE
8
0
10
107.000000
20
141.618749
11
107.000000
21
164.618749
0
LINE
8
0
10
16.706960
20
142.103080
11
13.890889
21
143.375650
0
LINE
8
0
10
13.890889
20
143.375650
11
8.961166
21
146.762222
0
LINE
8
0
10
8.961166
20
146.762222
11
5.291672
21
150.905261
0
LINE
8
0
10
5.291672
20
150.905261
11
3.270814
21
155.366237
0
LINE
8
0
10
3.270814
20
155.366237
11
3.000000
21
157.578911
0
LINE
8
0
10
3.000000
20
157.578911
11
3.164343
21
158.644251
0
LINE
8
0
10
3.164343
20
158.644251
11
4.450897
21
159.439966
0
LINE
8
0
10
4.450897
20
159.439966
11
6.397466
21
159.603687
0
LINE
8
0
10
6.397466
20
159.603687
11
7.799112
21
159.618749
0
LINE
8
0
10
7.799112
20
159.618749
11
9.329284
21
159.605542
0
LINE
8
0
10
9.329284
20
159.605542
11
11.419298
21
159.390440
0
LINE
8
0
10
11.419298
20
159.390440
11
13.062188
21
158.048816
0
LINE
8
0
10
13.062188
20
158.048816
11
13.888899
21
156.049447
0
LINE
8
0
10
13.888899
20
156.049447
11
14.684028
21
154.306263
0
LINE
8
0
10
14.684028
20
154.306263
11
17.011668
21
151.520770
0
LINE
8
0
10
17.011668
20
151.520770
11
20.328357
21
149.666493
0
LINE
8
0
10
20.328357
20
149.666493
11
24.641143
21
148.739491
0
LINE
8
0
10
24.641143
20
148.739491
11
27.173275
21
148.622487
0
LINE
8
0
10
27.173275
20
148.622487
11
29.741016
21
148.772224
0
LINE
8
0
10
29.741016
20
148.772224
11
34.067715
21
149.927729
0
LINE
8
0
10
34.067715
20
149.927729
11
37.149385
21
152.106770
0
LINE
8
0
10
37.149385
20
152.106770
11
38.786044
21
155.167941
0
LINE
8
0
10
38.786044
20
155.167941
11
39.000000
21
156.985136
0
LINE
8
0
10
39.000000
20
156.985136
11
38.893110
21
158.621089
0
LINE
8
0
10
38.893110
20
158.621089
11
37.972718
21
161.386851
0
LINE
8
0
10
37.972718
20
161.386851
11
35.965118
21
163.640594
0
LINE
8
0
10
35.965118
20
163.640594
11
32.696245
21
165.577727
0
LINE
8
0
10
32.696245
20
165.577727
11
30.534435
21
166.488629
0
LINE
8
0
10
30.534435
20
166.488629
11
24.975328
21
168.628763
0
LINE
8
0
10
24.975328
20
168.628763
11
19.381574
21
170.782958
0
LINE
8
0
10
19.381574
20
170.782958
11
15.911224
21
172.289475
0
LINE
8
0
10
15.911224
20
172.289475
11
10.465248
21
175.774731
0
LINE
8
0
10
10.465248
20
175.774731
11
6.930876
21
179.986574
0
LINE
8
0
10
6.930876
20
179.986574
11
5.210474
21
185.041355
0
LINE
8
0
10
5.210474
20
185.041355
11
5.000000
21
187.921206
0
LINE
8
0
10
5.000000
20
187.921206
11
5.162452
21
190.048812
0
LINE
8
0
10
5.162452
20
190.048812
11
6.403024
21
193.984029
0
LINE
8
0
10
6.403024
20
193.984029
11
8.733274
21
197.421532
0
LINE
8
0
10
8.733274
20
197.421532
11
11.995747
21
200.276054
0
LINE
8
0
10
11.995747
20
200.276054
11
18.292941
21
203.278228
0
LINE
8
0
10
18.292941
20
203.278228
11
28.482402
21
204.444878
0
LINE
8
0
10
28.482402
20
204.444878
11
33.991373
21
203.620818
0
LINE
8
0
10
33.991373
20
203.620818
11
36.956088
21
202.662032
0
LINE
8
0
10
36.956088
20
202.662032
11
42.290930
21
199.562121
0
LINE
8
0
10
42.290930
20
199.562121
11
46.381617
21
195.350479
0
LINE
8
0
10
46.381617
20
195.350479
11
48.686500
21
190.584769
0
LINE
8
0
10
48.686500
20
190.584769
11
49.000000
21
188.168409
0
LINE
8
0
10
49.000000
20
188.168409
11
48.878652
21
186.760509
0
LINE
8
0
10
48.878652
20
186.760509
11
47.644225
21
185.794530
0
LINE
8
0
10
47.644225
20
185.794530
11
45.562144
21
185.630157
0
LINE
8
0
10
45.562144
20
185.630157
11
44.000000
21
185.618749
0
LINE
8
0
10
44.000000
20
185.618749
11
42.544820
21
185.633691
0
LINE
8
0
10
42.544820
20
185.633691
11
40.519495
21
185.794530
0
LINE
8
0
10
40.519495
20
185.794530
11
39.173739
21
186.569674
0
LINE
8
0
10
39.173739
20
186.569674
11
39.000000
21
187.602972
0
LINE
8
0
10
39.000000
20
187.602972
11
38.776536
21
188.623508
0
LINE
8
0
10
38.776536
20
188.623508
11
37.267604
21
191.369515
0
LINE
8
0
10
37.267604
20
191.369515
11
36.167987
21
192.756769
0
LINE
8
0
10
36.167987
20
192.756769
11
34.514535
21
194.392905
0
LINE
8
0
10
34.514535
20
194.392905
11
30.795982
21
196.002675
0
LINE
8
0
10
30.795982
20
196.002675
11
27.917987
21
196.328214
0
LINE
8
0
10
27.917987
20
196.328214
11
25.691789
21
196.368426
0
LINE
8
0
10
25.691789
20
196.368426
11
21.787056
21
195.732342
0
LINE
8
0
10
21.787056
20
195.732342
11
18.689772
21
194.298715
0
LINE
8
0
10
18.689772
20
194.298715
11
16.492620
21
192.256906
0
LINE
8
0
10
16.492620
20
192.256906
11
15.288283
21
189.796277
0
LINE
8
0
10
15.288283
20
189.796277
11
15.169441
21
187.106192
0
LINE
8
0
10
15.169441
20
187.106192
11
16.228778
21
184.376011
0
LINE
8
0
10
16.228778
20
184.376011
11
18.558974
21
181.795098
0
LINE
8
0
10
18.558974
20
181.795098
11
20.229608
21
180.619792
0
LINE
8
0
10
20.229608
20
180.619792
11
22.099030
21
179.645383
0
LINE
8
0
10
22.099030
20
179.645383
11
27.890251
21
177.232031
0
LINE
8
0
10
27.890251
20
177.232031
11
31.098762
21
176.090333
0
LINE
8
0
10
31.098762
20
176.090333
11
35.645296
21
174.412414
0
LINE
8
0
10
35.645296
20
174.412414
11
42.540624
21
170.731019
0
LINE
8
0
10
42.540624
20
170.731019
11
46.796292
21
166.313860
0
LINE
8
0
10
46.796292
20
166.313860
11
48.761091
21
160.798911
0
LINE
8
0
10
48.761091
20
160.798911
11
48.993411
21
157.516632
0
LINE
8
0
10
48.993411
20
157.516632
11
48.871799
21
155.068258
0
LINE
8
0
10
48.871799
20
155.068258
11
47.859079
21
150.798140
0
LINE
8
0
10
47.859079
20
150.798140
11
45.772001
21
147.282048
0
LINE
8
0
10
45.772001
20
147.282048
11
42.552524
21
144.422205
0
LINE
8
0
10
42.552524
20
144.422205
11
40.500000
21
143.207822
0
LINE
8
0
10
40.500000
20
143.207822
11
38.252776
21
142.313075
0
LINE
8
0
10
38.252776
20
142.313075
11
32.232162
21
141.130209
0
LINE
8
0
10
32.232162
20
141.130209
11
25.380798
21
140.812092
0
LINE
8
0
10
25.380798
20
140.812092
11
19.143651
21
141.425813
0
LINE
8
0
10
19.143651
20
141.425813
11
16.706960
21
142.103080
0
LINE
8
0
10
345.071085
20
53.313875
11
343.246815
21
54.393829
0
LINE
8
0
10
343.246815
20
54.393829
11
340.411930
21
56.871292
0
LINE
8
0
10
340.411930
20
56.871292
11
338.607821
21
59.861832
0
LINE
8
0
10
338.607821
20
59.861832
11
337.769571
21
63.473056
0
LINE
8
0
10
337.769571
20
63.473056
11
337.692356
21
65.545052
0
LINE
8
0
10
337.692356
20
65.545052
11
338.010934
21
68.808007
0
LINE
8
0
10
338.010934
20
68.808007
11
340.340955
21
73.995076
0
LINE
8
0
10
340.340955
20
73.995076
11
345.145989
21
77.558592
0
LINE
8
0
10
345.145989
20
77.558592
11
352.687467
21
79.692438
0
LINE
8
0
10
352.687467
20
79.692438
11
357.566069
21
80.283824
0
LINE
8
0
10
357.566069
20
80.283824
11
365.000000
21
80.912221
0
LINE
8
0
10
365.000000
20
80.912221
11
365.000000
21
84.154701
0
LINE
8
0
10
365.000000
20
84.154701
11
364.870335
21
85.904283
0
LINE
8
0
10
364.870335
20
85.904283
11
363.847822
21
88.766380
0
LINE
8
0
10
363.847822
20
88.766380
11
361.840634
21
90.746592
0
LINE
8
0
10
361.840634
20
90.746592
11
358.888256
21
91.805967
0
LINE
8
0
10
358.888256
20
91.805967
11
357.069960
21
91.978167
0
LINE
8
0
10
357.069960
20
91.978167
11
354.737092
21
91.922295
0
LINE
8
0
10
354.737092
20
91.922295
11
351.610426
21
90.530037
0
LINE
8
0
10
351.610426
20
90.530037
11
350.056083
21
88.854992
0
LINE
8
0
10
350.056083
20
88.854992
11
348.481674
21
87.162186
0
LINE
8
0
10
348.481674
20
87.162186
11
345.183349
21
85.728698
0
LINE
8
0
10
345.183349
20
85.728698
11
342.609786
21
85.618749
0
LINE
8
0
10
342.609786
20
85.618749
11
341.127248
21
85.628592
0
LINE
8
0
10
341.127248
20
85.628592
11
339.195263
21
85.772428
0
LINE
8
0
10
339.195263
20
85.772428
11
338.296645
21
86.624010
0
LINE
8
0
10
338.296645
20
86.624010
11
338.576745
21
87.868749
0
LINE
8
0
10
338.576745
20
87.868749
11
339.643355
21
90.478198
0
LINE
8
0
10
339.643355
20
90.478198
11
342.896088
21
94.666312
0
LINE
8
0
10
342.896088
20
94.666312
11
347.633159
21
97.475097
0
LINE
8
0
10
347.633159
20
97.475097
11
353.844557
21
98.898618
0
LINE
8
0
10
353.844557
20
98.898618
11
357.500000
21
99.089050
0
LINE
8
0
10
357.500000
20
99.089050
11
361.134969
21
99.002975
0
LINE
8
0
10
361.134969
20
99.002975
11
366.101049
21
97.935091
0
LINE
8
0
10
366.101049
20
97.935091
11
368.274244
21
96.772206
0
LINE
8
0
10
368.274244
20
96.772206
11
370.288813
21
95.405670
0
LINE
8
0
10
370.288813
20
95.405670
11
373.044026
21
92.344140
0
LINE
8
0
10
373.044026
20
92.344140
11
374.461105
21
87.650966
0
LINE
8
0
10
374.461105
20
87.650966
11
374.905951
21
82.198616
0
LINE
8
0
10
374.905951
20
82.198616
11
375.009618
21
77.307765
0
LINE
8
0
10
375.009618
20
77.307765
11
375.023857
21
74.418409
0
LINE
8
0
10
375.023857
20
74.418409
11
375.101834
21
68.570221
0
LINE
8
0
10
375.101834
20
68.570221
11
375.428441
21
60.912416
0
LINE
8
0
10
375.428441
20
60.912416
11
375.743127
21
57.413903
0
LINE
8
0
10
375.743127
20
57.413903
11
375.918546
21
56.368749
0
LINE
8
0
10
375.918546
20
56.368749
11
376.789378
21
52.618749
0
LINE
8
0
10
376.789378
20
52.618749
11
371.394689
21
52.618749
0
LINE
8
0
10
371.394689
20
52.618749
11
369.788427
21
52.632340
0
LINE
8
0
10
369.788427
20
52.632340
11
367.584012
21
52.789211
0
LINE
8
0
10
367.584012
20
52.789211
11
366.169716
21
53.589470
0
LINE
8
0
10
366.169716
20
53.589470
11
366.000000
21
54.686843
0
LINE
8
0
10
366.000000
20
54.686843
11
365.946110
21
55.836040
0
LINE
8
0
10
365.946110
20
55.836040
11
365.209601
21
56.078035
0
LINE
8
0
10
365.209601
20
56.078035
11
363.858132
21
55.224971
0
LINE
8
0
10
363.858132
20
55.224971
11
362.815397
21
54.487300
0
LINE
8
0
10
362.815397
20
54.487300
11
361.004011
21
53.450338
0
LINE
8
0
10
361.004011
20
53.450338
11
356.543215
21
52.107147
0
LINE
8
0
10
356.543215
20
52.107147
11
351.617673
21
51.781422
0
LINE
8
0
10
351.617673
20
51.781422
11
347.010527
21
52.524954
0
LINE
8
0
10
347.010527
20
52.524954
11
345.071085
21
53.313875
0
LINE
8
0
10
64.000000
20
142.801078
11
62.306480
21
144.096803
0
LINE
8
0
10
62.306480
20
144.096803
11
59.627456
21
147.102058
0
LINE
8
0
10
59.627456
20
147.102058
11
57.955885
21
150.529009
0
LINE
8
0
10
57.955885
20
150.529009
11
57.367885
21
154.221602
0
LINE
8
0
10
57.367885
20
154.221602
11
57.504010
21
156.118749
0
LINE
8
0
10
57.504010
20
156.118749
11
58.170104
21
159.031443
0
LINE
8
0
10
58.170104
20
159.031443
11
60.824818
21
163.613899
0
LINE
8
0
10
60.824818
20
163.613899
11
65.539137
21
166.735254
0
LINE
8
0
10
65.539137
20
166.735254
11
72.668547
21
168.630872
0
LINE
8
0
10
72.668547
20
168.630872
11
77.250000
21
169.192583
0
LINE
8
0
10
77.250000
20
169.192583
11
85.000000
21
169.894612
0
LINE
8
0
10
85.000000
20
169.894612
11
85.000000
21
173.256680
0
LINE
8
0
10
85.000000
20
173.256680
11
84.863916
21
174.953608
0
LINE
8
0
10
84.863916
20
174.953608
11
83.787226
21
177.699231
0
LINE
8
0
10
83.787226
20
177.699231
11
81.664474
21
179.557232
0
LINE
8
0
10
81.664474
20
179.557232
11
78.527621
21
180.499637
0
LINE
8
0
10
78.527621
20
180.499637
11
76.588894
21
180.618749
0
LINE
8
0
10
76.588894
20
180.618749
11
74.251065
21
180.501339
0
LINE
8
0
10
74.251065
20
180.501339
11
71.107417
21
179.141520
0
LINE
8
0
10
71.107417
20
179.141520
11
69.653454
21
177.618749
0
LINE
8
0
10
69.653454
20
177.618749
11
68.185360
21
176.079184
0
LINE
8
0
10
68.185360
20
176.079184
11
64.968317
21
174.730561
0
LINE
8
0
10
64.968317
20
174.730561
11
62.497172
21
174.618749
0
LINE
8
0
10
62.497172
20
174.618749
11
61.056367
21
174.629044
0
LINE
8
0
10
61.056367
20
174.629044
11
59.172946
21
174.775332
0
LINE
8
0
10
59.172946
20
174.775332
11
58.280652
21
175.628656
0
LINE
8
0
10
58.280652
20
175.628656
11
58.536738
21
176.868749
0
LINE
8
0
10
58.536738
20
176.868749
11
59.640823
21
179.650234
0
LINE
8
0
10
59.640823
20
179.650234
11
63.201823
21
183.895764
0
LINE
8
0
10
63.201823
20
183.895764
11
65.764625
21
185.486050
0
LINE
8
0
10
65.764625
20
185.486050
11
69.990853
21
187.164764
0
LINE
8
0
10
69.990853
20
187.164764
11
78.648520
21
188.199954
0
LINE
8
0
10
78.648520
20
188.199954
11
86.518693
21
186.383707
0
LINE
8
0
10
86.518693
20
186.383707
11
91.138542
21
183.327038
0
LINE
8
0
10
91.138542
20
183.327038
11
93.309157
21
180.551234
0
LINE
8
0
10
93.309157
20
180.551234
11
94.061992
21
178.955698
0
LINE
8
0
10
94.061992
20
178.955698
11
94.250418
21
178.156605
0
LINE
8
0
10
94.250418
20
178.156605
11
94.585499
21
175.030283
0
LINE
8
0
10
94.585499
20
175.030283
11
94.925985
21
167.587087
0
LINE
8
0
10
94.925985
20
167.587087
11
95.000000
21
161.618749
0
LINE
8
0
10
95.000000
20
161.618749
11
95.076953
21
155.642682
0
LINE
8
0
10
95.076953
20
155.642682
11
95.430957
21
148.163931
0
LINE
8
0
10
95.430957
20
148.163931
11
95.779342
21
145.002618
0
LINE
8
0
10
95.779342
20
145.002618
11
95.975249
21
144.183849
0
LINE
8
0
10
95.975249
20
144.183849
11
96.285438
21
143.338662
0
LINE
8
0
10
96.285438
20
143.338662
11
96.419861
21
142.247285
0
LINE
8
0
10
96.419861
20
142.247285
11
95.556925
21
141.755392
0
LINE
8
0
10
95.556925
20
141.755392
11
93.277328
21
141.623973
0
LINE
8
0
10
93.277328
20
141.623973
11
91.475249
21
141.618749
0
LINE
8
0
10
91.475249
20
141.618749
11
89.842142
21
141.632185
0
LINE
8
0
10
89.842142
20
141.632185
11
87.603292
21
141.788219
0
LINE
8
0
10
87.603292
20
141.788219
11
86.170850
21
142.587883
0
LINE
8
0
10
86.170850
20
142.587883
11
86.000000
21
143.686843
0
LINE
8
0
10
86.000000
20
143.686843
11
85.945051
21
144.833984
0
LINE
8
0
10
85.945051
20
144.833984
11
85.201827
21
145.071685
0
LINE
8
0
10
85.201827
20
145.071685
11
83.841387
21
144.212921
0
LINE
8
0
10
83.841387
20
144.212921
11
82.792543
21
143.471026
0
LINE
8
0
10
82.792543
20
143.471026
11
80.777963
21
142.318885
0
LINE
8
0
10
80.777963
20
142.318885
11
75.931470
21
140.911456
0
LINE
8
0
10
75.931470
20
140.911456
11
70.702705
21
140.725052
0
LINE
8
0
10
70.702705
20
140.725052
11
65.940675
21
141.789941
0
LINE
8
0
10
65.940675
20
141.789941
11
64.000000
21
142.801078
0
LINE
8
0
10
190.415186
20
141.985204
11
188.637875
21
142.921994
0
LINE
8
0
10
188.637875
20
142.921994
11
185.836286
21
145.259225
0
LINE
8
0
10
185.836286
20
145.259225
11
184.006598
21
148.267507
0
LINE
8
0
10
184.006598
20
148.267507
11
183.110237
21
152.010260
0
LINE
8
0
10
183.110237
20
152.010260
11
183.000000
21
154.176882
0
LINE
8
0
10
183.000000
20
154.176882
11
183.114147
21
156.947888
0
LINE
8
0
10
183.114147
20
156.947888
11
184.356182
21
160.853726
0
LINE
8
0
10
184.356182
20
160.853726
11
185.703309
21
162.677998
0
LINE
8
0
10
185.703309
20
162.677998
11
187.076465
21
164.154788
0
LINE
8
0
10
187.076465
20
164.154788
11
190.162269
21
166.417897
0
LINE
8
0
10
190.162269
20
166.417897
11
194.149134
21
167.930503
0
LINE
8
0
10
194.149134
20
167.930503
11
199.575144
21
168.896753
0
LINE
8
0
10
199.575144
20
168.896753
11
202.995982
21
169.238791
0
LINE
8
0
10
202.995982
20
169.238791
11
211.212150
21
169.923994
0
LINE
8
0
10
211.212150
20
169.923994
11
210.648819
21
173.395399
0
LINE
8
0
10
210.648819
20
173.395399
11
209.752257
21
176.398147
0
LINE
8
0
10
209.752257
20
176.398147
11
208.387756
21
178.742777
0
LINE
8
0
10
208.387756
20
178.742777
11
206.829784
21
179.839357
0
LINE
8
0
10
206.829784
20
179.839357
11
202.396990
21
180.598423
0
LINE
8
0
10
202.396990
20
180.598423
11
197.689342
21
179.721292
0
LINE
8
0
10
197.689342
20
179.721292
11
194.483974
21
177.539081
0
LINE
8
0
10
194.483974
20
177.539081
11
194.000000
21
176.062045
0
LINE
8
0
10
194.000000
20
176.062045
11
193.737723
21
175.387111
0
LINE
8
0
10
193.737723
20
175.387111
11
191.338168
21
174.694458
0
LINE
8
0
10
191.338168
20
174.694458
11
189.000000
21
174.618749
0
LINE
8
0
10
189.000000
20
174.618749
11
187.549488
21
174.633810
0
LINE
8
0
10
187.549488
20
174.633810
11
185.526640
21
174.794530
0
LINE
8
0
10
185.526640
20
174.794530
11
184.176025
21
175.563255
0
LINE
8
0
10
184.176025
20
175.563255
11
184.000000
21
176.583953
0
LINE
8
0
10
184.000000
20
176.583953
11
184.245096
21
177.626153
0
LINE
8
0
10
184.245096
20
177.626153
11
185.900098
21
180.558181
0
LINE
8
0
10
185.900098
20
180.558181
11
187.106162
21
182.086880
0
LINE
8
0
10
187.106162
20
182.086880
11
188.673478
21
183.620069
0
LINE
8
0
10
188.673478
20
183.620069
11
192.440852
21
186.025823
0
LINE
8
0
10
192.440852
20
186.025823
11
199.121192
21
188.003662
0
LINE
8
0
10
199.121192
20
188.003662
11
208.402396
21
187.654797
0
LINE
8
0
10
208.402396
20
187.654797
11
214.354503
21
185.202124
0
LINE
8
0
10
214.354503
20
185.202124
11
217.289612
21
182.544434
0
LINE
8
0
10
217.289612
20
182.544434
11
218.336762
21
180.912971
0
LINE
8
0
10
218.336762
20
180.912971
11
218.693758
21
179.995891
0
LINE
8
0
10
218.693758
20
179.995891
11
219.293510
21
176.998730
0
LINE
8
0
10
219.293510
20
176.998730
11
219.756440
21
172.293345
0
LINE
8
0
10
219.756440
20
172.293345
11
220.101152
21
165.690662
0
LINE
8
0
10
220.101152
20
165.690662
11
220.234989
21
161.618749
0
LINE
8
0
10
220.234989
20
161.618749
11
220.475051
21
155.074022
0
LINE
8
0
10
220.475051
20
155.074022
11
220.954422
21
147.173314
0
LINE
8
0
10
220.954422
20
147.173314
11
221.295062
21
144.057055
0
LINE
8
0
10
221.295062
20
144.057055
11
221.456667
21
143.368749
0
LINE
8
0
10
221.456667
20
143.368749
11
221.686777
21
142.445871
0
LINE
8
0
10
221.686777
20
142.445871
11
220.605316
21
141.766560
0
LINE
8
0
10
220.605316
20
141.766560
11
218.545082
21
141.630804
0
LINE
8
0
10
218.545082
20
141.630804
11
217.013369
21
141.618749
0
LINE
8
0
10
217.013369
20
141.618749
11
215.545692
21
141.636161
0
LINE
8
0
10
215.545692
20
141.636161
11
213.420635
21
141.809143
0
LINE
8
0
10
213.420635
20
141.809143
11
211.766159
21
142.582459
0
LINE
8
0
10
211.766159
20
142.582459
11
211.302085
21
143.571577
0
LINE
8
0
10
211.302085
20
143.571577
11
210.957508
21
144.642807
0
LINE
8
0
10
210.957508
20
144.642807
11
210.087473
21
144.867779
0
LINE
8
0
10
210.087473
20
144.867779
11
208.836871
21
144.072734
0
LINE
8
0
10
208.836871
20
144.072734
11
207.898506
21
143.385590
0
LINE
8
0
10
207.898506
20
143.385590
11
206.290324
21
142.472686
0
LINE
8
0
10
206.290324
20
142.472686
11
201.955160
21
141.229343
0
LINE
8
0
10
201.955160
20
141.229343
11
196.960301
21
140.829262
0
LINE
8
0
10
196.960301
20
140.829262
11
192.304193
21
141.352419
0
LINE
8
0
10
192.304193
20
141.352419
11
190.415186
21
141.985204
0
LINE
8
0
10
428.047168
20
52.923668
11
426.249764
21
53.680806
0
LINE
8
0
10
426.249764
20
53.680806
11
422.631671
21
56.178015
0
LINE
8
0
10
422.631671
20
56.178015
11
419.379015
21
59.572082
0
LINE
8
0
10
419.379015
20
59.572082
11
416.967578
21
63.366540
0
LINE
8
0
10
416.967578
20
63.366540
11
416.225998
21
65.258770
0
LINE
8
0
10
416.225998
20
65.258770
11
415.342918
21
69.812374
0
LINE
8
0
10
415.342918
20
69.812374
11
415.341114
21
80.417276
0
LINE
8
0
10
415.341114
20
80.417276
11
416.222645
21
84.967535
0
LINE
8
0
10
416.222645
20
84.967535
11
417.592562
21
88.297331
0
LINE
8
0
10
417.592562
20
88.297331
11
422.035824
21
93.905777
0
LINE
8
0
10
422.035824
20
93.905777
11
428.161153
21
97.743558
0
LINE
8
0
10
428.161153
20
97.743558
11
435.261546
21
99.367706
0
LINE
8
0
10
435.261546
20
99.367706
11
438.956453
21
99.211239
0
LINE
8
0
10
438.956453
20
99.211239
11
442.424034
21
98.457838
0
LINE
8
0
10
442.424034
20
98.457838
11
448.093921
21
95.461007
0
LINE
8
0
10
448.093921
20
95.461007
11
452.066311
21
90.490564
0
LINE
8
0
10
452.066311
20
90.490564
11
454.328648
21
83.562222
0
LINE
8
0
10
454.328648
20
83.562222
11
454.814622
21
79.368749
0
LINE
8
0
10
454.814622
20
79.368749
11
455.225693
21
72.618749
0
LINE
8
0
10
455.225693
20
72.618749
11
440.112847
21
72.618749
0
LINE
8
0
10
440.112847
20
72.618749
11
437.542351
21
72.617437
0
LINE
8
0
10
437.542351
20
72.617437
11
433.308418
21
72.598908
0
LINE
8
0
10
433.308418
20
72.598908
11
428.928992
21
72.491186
0
LINE
8
0
10
428.928992
20
72.491186
11
425.940566
21
72.085884
0
LINE
8
0
10
425.940566
20
72.085884
11
425.051855
21
71.224430
0
LINE
8
0
10
425.051855
20
71.224430
11
425.000000
21
70.569089
0
LINE
8
0
10
425.000000
20
70.569089
11
425.448104
21
68.075000
0
LINE
8
0
10
425.448104
20
68.075000
11
428.422145
21
63.037560
0
LINE
8
0
10
428.422145
20
63.037560
11
430.540887
21
61.183915
0
LINE
8
0
10
430.540887
20
61.183915
11
432.154960
21
60.346196
0
LINE
8
0
10
432.154960
20
60.346196
11
435.952985
21
59.488777
0
LINE
8
0
10
435.952985
20
59.488777
11
440.108968
21
59.701483
0
LINE
8
0
10
440.108968
20
59.701483
11
444.140649
21
60.959631
0
LINE
8
0
10
444.140649
20
60.959631
11
445.959172
21
61.973032
0
LINE
8
0
10
445.959172
20
61.973032
11
449.768584
21
64.493982
0
LINE
8
0
10
449.768584
20
64.493982
11
452.048762
21
62.066844
0
LINE
8
0
10
452.048762
20
62.066844
11
453.322636
21
60.638495
0
LINE
8
0
10
453.322636
20
60.638495
11
453.472411
21
58.763233
0
LINE
8
0
10
453.472411
20
58.763233
11
452.414470
21
57.487996
0
LINE
8
0
10
452.414470
20
57.487996
11
450.387555
21
55.682508
0
LINE
8
0
10
450.387555
20
55.682508
11
444.929512
21
53.030635
0
LINE
8
0
10
444.929512
20
53.030635
11
438.306902
21
51.790130
0
LINE
8
0
10
438.306902
20
51.790130
11
431.368979
21
52.120070
0
LINE
8
0
10
431.368979
20
52.120070
11
428.047168
21
52.923668
0
LINE
8
0
10
282.000000
20
174.618749
11
282.000000
21
207.618749
0
LINE
8
0
10
282.000000
20
207.618749
11
287.000000
21
207.618749
0
LINE
8
0
10
287.000000
20
207.618749
11
292.000000
21
207.618749
0
LINE
8
0
10
292.000000
20
207.618749
11
292.000000
21
195.046169
0
LINE
8
0
10
292.000000
20
195.046169
11
292.000000
21
182.473589
0
LINE
8
0
10
292.000000
20
182.473589
11
294.630547
21
184.542777
0
LINE
8
0
10
294.630547
20
184.542777
11
296.865339
21
186.005617
0
LINE
8
0
10
296.865339
20
186.005617
11
301.980084
21
187.842473
0
LINE
8
0
10
301.980084
20
187.842473
11
307.419650
21
188.193060
0
LINE
8
0
10
307.419650
20
188.193060
11
312.541565
21
187.015970
0
LINE
8
0
10
312.541565
20
187.015970
11
314.782631
21
185.841605
0
LINE
8
0
10
314.782631
20
185.841605
11
316.293275
21
184.675443
0
LINE
8
0
10
316.293275
20
184.675443
11
318.402511
21
181.421136
0
LINE
8
0
10
318.402511
20
181.421136
11
319.530635
21
175.758051
0
LINE
8
0
10
319.530635
20
175.758051
11
319.902483
21
169.078551
0
LINE
8
0
10
319.902483
20
169.078551
11
319.990633
21
163.135640
0
LINE
8
0
10
319.990633
20
163.135640
11
320.000000
21
159.650867
0
LINE
8
0
10
320.000000
20
159.650867
11
320.000000
21
141.618749
0
LINE
8
0
10
320.000000
20
141.618749
11
315.250000
21
141.620433
0
LINE
8
0
10
315.250000
20
141.620433
11
310.500000
21
141.622118
0
LINE
8
0
10
310.500000
20
141.622118
11
310.500000
21
158.708364
0
LINE
8
0
10
310.500000
20
158.708364
11
310.500000
21
175.794609
0
LINE
8
0
10
310.500000
20
175.794609
11
307.694236
21
178.206679
0
LINE
8
0
10
307.694236
20
178.206679
11
306.355817
21
179.201731
0
LINE
8
0
10
306.355817
20
179.201731
11
303.567149
21
180.352113
0
LINE
8
0
10
303.567149
20
180.352113
11
300.622908
21
180.382933
0
LINE
8
0
10
300.622908
20
180.382933
11
297.515339
21
179.294272
0
LINE
8
0
10
297.515339
20
179.294272
11
295.897883
21
178.330162
0
LINE
8
0
10
295.897883
20
178.330162
11
292.500000
21
176.041576
0
LINE
8
0
10
292.500000
20
176.041576
11
292.226386
21
158.830162
0
LINE
8
0
10
292.226386
20
158.830162
11
291.952772
21
141.618749
0
LINE
8
0
10
291.952772
20
141.618749
11
286.976386
21
141.618749
0
LINE
8
0
10
286.976386
20
141.618749
11
282.000000
21
141.618749
0
LINE
8
0
10
282.000000
20
141.618749
11
282.000000
21
174.618749
0
LINE
8
0
10
354.000000
20
164.618749
11
354.000000
21
187.618749
0
LINE
8
0
10
354.000000
20
187.618749
11
359.000000
21
187.618749
0
LINE
8
0
10
359.000000
20
187.618749
11
360.550016
21
187.606842
0
LINE
8
0
10
360.550016
20
187.606842
11
362.625663
21
187.442968
0
LINE
8
0
10
362.625663
20
187.442968
11
363.872712
21
186.503920
0
LINE
8
0
10
363.872712
20
186.503920
11
364.000000
21
185.148886
0
LINE
8
0
10
364.000000
20
185.148886
11
364.000000
21
182.679022
0
LINE
8
0
10
364.000000
20
182.679022
11
367.563228
21
185.097094
0
LINE
8
0
10
367.563228
20
185.097094
11
370.371587
21
186.645142
0
LINE
8
0
10
370.371587
20
186.645142
11
376.473634
21
188.176239
0
LINE
8
0
10
376.473634
20
188.176239
11
382.486308
21
187.681296
0
LINE
8
0
10
382.486308
20
187.681296
11
387.525835
21
185.233062
0
LINE
8
0
10
387.525835
20
185.233062
11
389.404488
21
183.299195
0
LINE
8
0
10
389.404488
20
183.299195
11
390.045979
21
182.331669
0
LINE
8
0
10
390.045979
20
182.331669
11
390.945292
21
179.801222
0
LINE
8
0
10
390.945292
20
179.801222
11
391.482262
21
175.197702
0
LINE
8
0
10
391.482262
20
175.197702
11
391.754912
21
169.461178
0
LINE
8
0
10
391.754912
20
169.461178
11
391.916704
21
164.189487
0
LINE
8
0
10
391.916704
20
164.189487
11
392.000000
21
161.047483
0
LINE
8
0
10
392.000000
20
161.047483
11
392.500000
21
141.615323
0
LINE
8
0
10
392.500000
20
141.615323
11
387.815849
21
141.617036
0
LINE
8
0
10
387.815849
20
141.617036
11
383.131697
21
141.618749
0
LINE
8
0
10
383.131697
20
141.618749
11
382.815849
21
158.707585
0
LINE
8
0
10
382.815849
20
158.707585
11
382.500000
21
175.796421
0
LINE
8
0
10
382.500000
20
175.796421
11
379.694236
21
178.207585
0
LINE
8
0
10
379.694236
20
178.207585
11
378.408027
21
179.143795
0
LINE
8
0
10
378.408027
20
179.143795
11
375.584302
21
180.428493
0
LINE
8
0
10
375.584302
20
180.428493
11
374.394576
21
180.618749
0
LINE
8
0
10
374.394576
20
180.618749
11
371.729257
21
180.185603
0
LINE
8
0
10
371.729257
20
180.185603
11
366.576680
21
177.465084
0
LINE
8
0
10
366.576680
20
177.465084
11
365.029644
21
175.674140
0
LINE
8
0
10
365.029644
20
175.674140
11
364.817836
21
174.961556
0
LINE
8
0
10
364.817836
20
174.961556
11
364.447380
21
171.903999
0
LINE
8
0
10
364.447380
20
171.903999
11
364.171899
21
167.090873
0
LINE
8
0
10
364.171899
20
167.090873
11
364.020305
21
161.027320
0
LINE
8
0
10
364.020305
20
161.027320
11
364.000000
21
157.684490
0
LINE
8
0
10
364.000000
20
157.684490
11
364.000000
21
141.618749
0
LINE
8
0
10
364.000000
20
141.618749
11
359.000000
21
141.618749
0
LINE
8
0
10
359.000000
20
141.618749
11
354.000000
21
141.618749
0
LINE
8
0
10
354.000000
20
141.618749
11
354.000000
21
164.618749
0
LINE
8
0
10
180.020432
20
53.868749
11
176.809042
21
55.853292
0
LINE
8
0
10
176.809042
20
55.853292
11
172.539410
21
60.827402
0
LINE
8
0
10
172.539410
20
60.827402
11
171.436720
21
63.868749
0
LINE
8
0
10
171.436720
20
63.868749
11
171.234984
21
64.767986
0
LINE
8
0
10
171.234984
20
64.767986
11
171.223650
21
65.934386
0
LINE
8
0
10
171.223650
20
65.934386
11
172.063795
21
66.465943
0
LINE
8
0
10
172.063795
20
66.465943
11
174.149772
21
66.612167
0
LINE
8
0
10
174.149772
20
66.612167
11
175.783184
21
66.618749
0
LINE
8
0
10
175.783184
20
66.618749
11
177.290851
21
66.603510
0
LINE
8
0
10
177.290851
20
66.603510
11
179.387786
21
66.421069
0
LINE
8
0
10
179.387786
20
66.421069
11
180.922890
21
65.464850
0
LINE
8
0
10
180.922890
20
65.464850
11
181.406079
21
64.136937
0
LINE
8
0
10
181.406079
20
64.136937
11
182.313471
21
62.260827
0
LINE
8
0
10
182.313471
20
62.260827
11
185.963327
21
59.620721
0
LINE
8
0
10
185.963327
20
59.620721
11
190.881789
21
58.687078
0
LINE
8
0
10
190.881789
20
58.687078
11
195.655068
21
59.728270
0
LINE
8
0
10
195.655068
20
59.728270
11
197.545455
21
61.073294
0
LINE
8
0
10
197.545455
20
61.073294
11
198.498509
21
62.112428
0
LINE
8
0
10
198.498509
20
62.112428
11
199.806321
21
64.001490
0
LINE
8
0
10
199.806321
20
64.001490
11
200.000000
21
64.618749
0
LINE
8
0
10
200.000000
20
64.618749
11
199.782497
21
65.497899
0
LINE
8
0
10
199.782497
20
65.497899
11
198.234730
21
67.493301
0
LINE
8
0
10
198.234730
20
67.493301
11
194.092489
21
70.346144
0
LINE
8
0
10
194.092489
20
70.346144
11
190.864952
21
71.584409
0
LINE
8
0
10
190.864952
20
71.584409
11
186.136517
21
72.891185
0
LINE
8
0
10
186.136517
20
72.891185
11
179.149920
21
75.648897
0
LINE
8
0
10
179.149920
20
75.648897
11
175.015113
21
78.951822
0
LINE
8
0
10
175.015113
20
78.951822
11
173.201806
21
83.223562
0
LINE
8
0
10
173.201806
20
83.223562
11
173.000000
21
85.855112
0
LINE
8
0
10
173.000000
20
85.855112
11
173.115349
21
88.553868
0
LINE
8
0
10
173.115349
20
88.553868
11
174.587449
21
92.233243
0
LINE
8
0
10
174.587449
20
92.233243
11
176.310403
21
94.129152
0
LINE
8
0
10
176.310403
20
94.129152
11
177.919814
21
95.539569
0
LINE
8
0
10
177.919814
20
95.539569
11
181.594863
21
97.707246
0
LINE
8
0
10
181.594863
20
97.707246
11
187.856746
21
99.357518
0
LINE
8
0
10
187.856746
20
99.357518
11
196.509133
21
98.657522
0
LINE
8
0
10
196.509133
20
98.657522
11
202.312910
21
96.031113
0
LINE
8
0
10
202.312910
20
96.031113
11
205.464409
21
93.311154
0
LINE
8
0
10
205.464409
20
93.311154
11
206.746602
21
91.666799
0
LINE
8
0
10
206.746602
20
91.666799
11
207.846071
21
89.950670
0
LINE
8
0
10
207.846071
20
89.950670
11
208.904353
21
87.524201
0
LINE
8
0
10
208.904353
20
87.524201
11
208.337866
21
86.195016
0
LINE
8
0
10
208.337866
20
86.195016
11
206.021941
21
85.670590
0
LINE
8
0
10
206.021941
20
85.670590
11
204.168980
21
85.618749
0
LINE
8
0
10
204.168980
20
85.618749
11
201.629514
21
85.708891
0
LINE
8
0
10
201.629514
20
85.708891
11
198.872861
21
86.816755
0
LINE
8
0
10
198.872861
20
86.816755
11
198.014159
21
88.092292
0
LINE
8
0
10
198.014159
20
88.092292
11
196.733200
21
89.770879
0
LINE
8
0
10
196.733200
20
89.770879
11
192.985218
21
91.823181
0
LINE
8
0
10
192.985218
20
91.823181
11
188.599272
21
92.080336
0
LINE
8
0
10
188.599272
20
92.080336
11
184.707502
21
90.475966
0
LINE
8
0
10
184.707502
20
90.475966
11
183.300728
21
88.954965
0
LINE
8
0
10
183.300728
20
88.954965
11
182.534856
21
87.497646
0
LINE
8
0
10
182.534856
20
87.497646
11
182.342364
21
84.889319
0
LINE
8
0
10
182.342364
20
84.889319
11
183.940853
21
82.682071
0
LINE
8
0
10
183.940853
20
82.682071
11
187.336696
21
80.867104
0
LINE
8
0
10
187.336696
20
80.867104
11
189.710617
21
80.103976
0
LINE
8
0
10
189.710617
20
80.103976
11
193.321159
21
79.076458
0
LINE
8
0
10
193.321159
20
79.076458
11
198.922590
21
77.230318
0
LINE
8
0
10
198.922590
20
77.230318
11
204.237757
21
74.545126
0
LINE
8
0
10
204.237757
20
74.545126
11
206.471562
21
72.470176
0
LINE
8
0
10
206.471562
20
72.470176
11
207.564926
21
70.886865
0
LINE
8
0
10
207.564926
20
70.886865
11
208.860046
21
67.247213
0
LINE
8
0
10
208.860046
20
67.247213
11
208.956611
21
63.368174
0
LINE
8
0
10
208.956611
20
63.368174
11
207.842933
21
59.719331
0
LINE
8
0
10
207.842933
20
59.719331
11
206.828599
21
58.127977
0
LINE
8
0
10
206.828599
20
58.127977
11
204.556356
21
55.899652
0
LINE
8
0
10
204.556356
20
55.899652
11
198.338261
21
52.777660
0
LINE
8
0
10
198.338261
20
52.777660
11
190.887278
21
51.593862
0
LINE
8
0
10
190.887278
20
51.593862
11
183.401712
21
52.538645
0
LINE
8
0
10
183.401712
20
52.538645
11
180.020432
21
53.868749
0
LINE
8
0
10
471.020432
20
53.868749
11
467.809042
21
55.853292
0
LINE
8
0
10
467.809042
20
55.853292
11
463.539410
21
60.827402
0
LINE
8
0
10
463.539410
20
60.827402
11
462.436720
21
63.868749
0
LINE
8
0
10
462.436720
20
63.868749
11
462.234984
21
64.767986
0
LINE
8
0
10
462.234984
20
64.767986
11
462.223650
21
65.934386
0
LINE
8
0
10
462.223650
20
65.934386
11
463.063795
21
66.465943
0
LINE
8
0
10
463.063795
20
66.465943
11
465.149772
21
66.612167
0
LINE
8
0
10
465.149772
20
66.612167
11
466.783184
21
66.618749
0
LINE
8
0
10
466.783184
20
66.618749
11
468.290851
21
66.603510
0
LINE
8
0
10
468.290851
20
66.603510
11
470.387786
21
66.421069
0
LINE
8
0
10
470.387786
20
66.421069
11
471.922890
21
65.464850
0
LINE
8
0
10
471.922890
20
65.464850
11
472.406079
21
64.136937
0
LINE
8
0
10
472.406079
20
64.136937
11
473.313471
21
62.260827
0
LINE
8
0
10
473.313471
20
62.260827
11
476.963327
21
59.620721
0
LINE
8
0
10
476.963327
20
59.620721
11
481.881789
21
58.687078
0
LINE
8
0
10
481.881789
20
58.687078
11
486.655068
21
59.728270
0
LINE
8
0
10
486.655068
20
59.728270
11
488.545455
21
61.073294
0
LINE
8
0
10
488.545455
20
61.073294
11
489.522618
21
62.085734
0
LINE
8
0
10
489.522618
20
62.085734
11
490.668928
21
63.678571
0
LINE
8
0
10
490.668928
20
63.678571
11
490.764451
21
65.087066
0
LINE
8
0
10
490.764451
20
65.087066
11
489.841065
21
66.781273
0
LINE
8
0
10
489.841065
20
66.781273
11
489.007243
21
67.882412
0
LINE
8
0
10
489.007243
20
67.882412
11
487.807716
21
69.059762
0
LINE
8
0
10
487.807716
20
69.059762
11
484.164977
21
70.949984
0
LINE
8
0
10
484.164977
20
70.949984
11
481.757243
21
71.644447
0
LINE
8
0
10
481.757243
20
71.644447
11
479.082447
21
72.313858
0
LINE
8
0
10
479.082447
20
72.313858
11
474.534312
21
73.746094
0
LINE
8
0
10
474.534312
20
73.746094
11
469.365670
21
76.284611
0
LINE
8
0
10
469.365670
20
76.284611
11
466.750000
21
78.358888
0
LINE
8
0
10
466.750000
20
78.358888
11
465.362909
21
79.884995
0
LINE
8
0
10
465.362909
20
79.884995
11
464.110553
21
83.321893
0
LINE
8
0
10
464.110553
20
83.321893
11
464.000000
21
85.905840
0
LINE
8
0
10
464.000000
20
85.905840
11
464.116641
21
88.573736
0
LINE
8
0
10
464.116641
20
88.573736
11
465.591323
21
92.236968
0
LINE
8
0
10
465.591323
20
92.236968
11
467.310403
21
94.129152
0
LINE
8
0
10
467.310403
20
94.129152
11
468.919814
21
95.539569
0
LINE
8
0
10
468.919814
20
95.539569
11
472.594863
21
97.707246
0
LINE
8
0
10
472.594863
20
97.707246
11
478.856746
21
99.357518
0
LINE
8
0
10
478.856746
20
99.357518
11
487.509133
21
98.657522
0
LINE
8
0
10
487.509133
20
98.657522
11
493.312910
21
96.031113
0
LINE
8
0
10
493.312910
20
96.031113
11
496.464409
21
93.311154
0
LINE
8
0
10
496.464409
20
93.311154
11
497.746602
21
91.666799
0
LINE
8
0
10
497.746602
20
91.666799
11
498.850218
21
89.944650
0
LINE
8
0
10
498.850218
20
89.944650
11
499.907057
21
87.514987
0
LINE
8
0
10
499.907057
20
87.514987
11
499.319877
21
86.189487
0
LINE
8
0
10
499.319877
20
86.189487
11
496.956479
21
85.669730
0
LINE
8
0
10
496.956479
20
85.669730
11
495.067388
21
85.618749
0
LINE
8
0
10
495.067388
20
85.618749
11
492.556663
21
85.700008
0
LINE
8
0
10
492.556663
20
85.700008
11
490.017374
21
86.616638
0
LINE
8
0
10
490.017374
20
86.616638
11
489.496519
21
87.629716
0
LINE
8
0
10
489.496519
20
87.629716
11
488.491718
21
89.417317
0
LINE
8
0
10
488.491718
20
89.417317
11
484.803373
21
91.695295
0
LINE
8
0
10
484.803373
20
91.695295
11
480.099669
21
92.130492
0
LINE
8
0
10
480.099669
20
92.130492
11
475.848156
21
90.587127
0
LINE
8
0
10
475.848156
20
90.587127
11
474.350582
21
89.031052
0
LINE
8
0
10
474.350582
20
89.031052
11
473.565606
21
87.548169
0
LINE
8
0
10
473.565606
20
87.548169
11
473.340718
21
84.909895
0
LINE
8
0
10
473.340718
20
84.909895
11
474.921521
21
82.691047
0
LINE
8
0
10
474.921521
20
82.691047
11
478.322745
21
80.870951
0
LINE
8
0
10
478.322745
20
80.870951
11
480.710617
21
80.103976
0
LINE
8
0
10
480.710617
20
80.103976
11
484.321159
21
79.076458
0
LINE
8
0
10
484.321159
20
79.076458
11
489.922590
21
77.230318
0
LINE
8
0
10
489.922590
20
77.230318
11
495.237757
21
74.545126
0
LINE
8
0
10
495.237757
20
74.545126
11
497.471562
21
72.470176
0
LINE
8
0
10
497.471562
20
72.470176
11
498.564926
21
70.886865
0
LINE
8
0
10
498.564926
20
70.886865
11
499.860046
21
67.247213
0
LINE
8
0
10
499.860046
20
67.247213
11
499.956611
21
63.368174
0
LINE
8
0
10
499.956611
20
63.368174
11
498.842933
21
59.719331
0
LINE
8
0
10
498.842933
20
59.719331
11
497.828599
21
58.127977
0
LINE
8
0
10
497.828599
20
58.127977
11
495.556356
21
55.899652
0
LINE
8
0
10
495.556356
20
55.899652
11
489.338261
21
52.777660
0
LINE
8
0
10
489.338261
20
52.777660
11
481.887278
21
51.593862
0
LINE
8
0
10
481.887278
20
51.593862
11
474.401712
21
52.538645
0
LINE
8
0
10
474.401712
20
52.538645
11
471.020432
21
53.868749
0
LINE
8
0
10
136.791359
20
52.607157
11
133.635093
21
53.944548
0
LINE
8
0
10
133.635093
20
53.944548
11
128.348917
21
58.307914
0
LINE
8
0
10
128.348917
20
58.307914
11
126.623287
21
61.000184
0
LINE
8
0
10
126.623287
20
61.000184
11
125.844414
21
62.711510
0
LINE
8
0
10
125.844414
20
62.711510
11
125.163960
21
65.027785
0
LINE
8
0
10
125.163960
20
65.027785
11
125.840548
21
66.190911
0
LINE
8
0
10
125.840548
20
66.190911
11
128.098958
21
66.587312
0
LINE
8
0
10
128.098958
20
66.587312
11
129.891592
21
66.618749
0
LINE
8
0
10
129.891592
20
66.618749
11
131.361556
21
66.603134
0
LINE
8
0
10
131.361556
20
66.603134
11
133.411777
21
66.418650
0
LINE
8
0
10
133.411777
20
66.418650
11
134.924569
21
65.460979
0
LINE
8
0
10
134.924569
20
65.460979
11
135.406079
21
64.136937
0
LINE
8
0
10
135.406079
20
64.136937
11
136.313471
21
62.260827
0
LINE
8
0
10
136.313471
20
62.260827
11
139.963327
21
59.620721
0
LINE
8
0
10
139.963327
20
59.620721
11
144.881789
21
58.687078
0
LINE
8
0
10
144.881789
20
58.687078
11
149.655068
21
59.728270
0
LINE
8
0
10
149.655068
20
59.728270
11
151.545455
21
61.073294
0
LINE
8
0
10
151.545455
20
61.073294
11
152.498509
21
62.134540
0
LINE
8
0
10
152.498509
20
62.134540
11
153.806321
21
64.172913
0
LINE
8
0
10
153.806321
20
64.172913
11
154.000000
21
64.898980
0
LINE
8
0
10
154.000000
20
64.898980
11
153.793701
21
65.884645
0
LINE
8
0
10
153.793701
20
65.884645
11
152.233609
21
67.883839
0
LINE
8
0
10
152.233609
20
67.883839
11
149.344193
21
69.787947
0
LINE
8
0
10
149.344193
20
69.787947
11
145.366256
21
71.438282
0
LINE
8
0
10
145.366256
20
71.438282
11
143.044343
21
72.118695
0
LINE
8
0
10
143.044343
20
72.118695
11
139.096584
21
73.261053
0
LINE
8
0
10
139.096584
20
73.261053
11
132.980537
21
75.884971
0
LINE
8
0
10
132.980537
20
75.884971
11
129.084165
21
79.086847
0
LINE
8
0
10
129.084165
20
79.086847
11
127.223926
21
83.017509
0
LINE
8
0
10
127.223926
20
83.017509
11
127.000000
21
85.303267
0
LINE
8
0
10
127.000000
20
85.303267
11
127.134033
21
87.153585
0
LINE
8
0
10
127.134033
20
87.153585
11
128.157161
21
90.567566
0
LINE
8
0
10
128.157161
20
90.567566
11
131.333836
21
94.834141
0
LINE
8
0
10
131.333836
20
94.834141
11
137.946552
21
98.542292
0
LINE
8
0
10
137.946552
20
98.542292
11
146.315158
21
99.448075
0
LINE
8
0
10
146.315158
20
99.448075
11
150.830354
21
98.666393
0
LINE
8
0
10
150.830354
20
98.666393
11
154.686134
21
97.025006
0
LINE
8
0
10
154.686134
20
97.025006
11
159.800668
21
92.974911
0
LINE
8
0
10
159.800668
20
92.974911
11
162.016161
21
89.872203
0
LINE
8
0
10
162.016161
20
89.872203
11
162.573279
21
88.368749
0
LINE
8
0
10
162.573279
20
88.368749
11
162.771782
21
87.469239
0
LINE
8
0
10
162.771782
20
87.469239
11
162.777117
21
86.302693
0
LINE
8
0
10
162.777117
20
86.302693
11
161.927379
21
85.771303
0
LINE
8
0
10
161.927379
20
85.771303
11
159.823155
21
85.625292
0
LINE
8
0
10
159.823155
20
85.625292
11
158.175796
21
85.618749
0
LINE
8
0
10
158.175796
20
85.618749
11
155.602658
21
85.698925
0
LINE
8
0
10
155.602658
20
85.698925
11
153.020071
21
86.613390
0
LINE
8
0
10
153.020071
20
86.613390
11
152.496519
21
87.629716
0
LINE
8
0
10
152.496519
20
87.629716
11
151.346164
21
89.301330
0
LINE
8
0
10
151.346164
20
89.301330
11
146.801783
21
92.136572
0
LINE
8
0
10
146.801783
20
92.136572
11
144.500000
21
92.618749
0
LINE
8
0
10
144.500000
20
92.618749
11
142.207057
21
92.138070
0
LINE
8
0
10
142.207057
20
92.138070
11
137.662547
21
89.319989
0
LINE
8
0
10
137.662547
20
89.319989
11
136.515470
21
87.667489
0
LINE
8
0
10
136.515470
20
87.667489
11
136.258993
21
86.403478
0
LINE
8
0
10
136.258993
20
86.403478
11
136.723269
21
84.167753
0
LINE
8
0
10
136.723269
20
84.167753
11
138.517587
21
82.293481
0
LINE
8
0
10
138.517587
20
82.293481
11
141.674435
21
80.746725
0
LINE
8
0
10
141.674435
20
80.746725
11
143.773961
21
80.085561
0
LINE
8
0
10
143.773961
20
80.085561
11
148.956318
21
78.558018
0
LINE
8
0
10
148.956318
20
78.558018
11
156.524911
21
75.535955
0
LINE
8
0
10
156.524911
20
75.535955
11
160.917388
21
72.129844
0
LINE
8
0
10
160.917388
20
72.129844
11
162.796201
21
67.825991
0
LINE
8
0
10
162.796201
20
67.825991
11
163.000000
21
65.176882
0
LINE
8
0
10
163.000000
20
65.176882
11
162.871147
21
63.263771
0
LINE
8
0
10
162.871147
20
63.263771
11
161.833301
21
59.844091
0
LINE
8
0
10
161.833301
20
59.844091
11
159.739657
21
56.944852
0
LINE
8
0
10
159.739657
20
56.944852
11
156.571486
21
54.540115
0
LINE
8
0
10
156.571486
20
54.540115
11
154.578599
21
53.515080
0
LINE
8
0
10
154.578599
20
53.515080
11
152.787796
21
52.858374
0
LINE
8
0
10
152.787796
20
52.858374
11
148.361301
21
51.986376
0
LINE
8
0
10
148.361301
20
51.986376
11
141.031597
21
51.854513
0
LINE
8
0
10
141.031597
20
51.854513
11
136.791359
21
52.607157
0
LINE
8
0
10
279.458630
20
53.498413
11
275.944988
21
55.603571
0
LINE
8
0
10
275.944988
20
55.603571
11
270.560586
21
61.756638
0
LINE
8
0
10
270.560586
20
61.756638
11
269.044006
21
65.399803
0
LINE
8
0
10
269.044006
20
65.399803
11
268.587402
21
67.531383
0
LINE
8
0
10
268.587402
20
67.531383
11
268.090788
21
72.819142
0
LINE
8
0
10
268.090788
20
72.819142
11
268.142006
21
78.610656
0
LINE
8
0
10
268.142006
20
78.610656
11
268.731904
21
83.871073
0
LINE
8
0
10
268.731904
20
83.871073
11
269.225998
21
85.978728
0
LINE
8
0
10
269.225998
20
85.978728
11
270.490192
21
89.125089
0
LINE
8
0
10
270.490192
20
89.125089
11
274.361401
21
94.156755
0
LINE
8
0
10
274.361401
20
94.156755
11
279.559924
21
97.507639
0
LINE
8
0
10
279.559924
20
97.507639
11
285.530027
21
99.178499
0
LINE
8
0
10
285.530027
20
99.178499
11
291.715977
21
99.170088
0
LINE
8
0
10
291.715977
20
99.170088
11
297.562039
21
97.483164
0
LINE
8
0
10
297.562039
20
97.483164
11
302.512478
21
94.118481
0
LINE
8
0
10
302.512478
20
94.118481
11
306.011560
21
89.076796
0
LINE
8
0
10
306.011560
20
89.076796
11
307.043176
21
85.927313
0
LINE
8
0
10
307.043176
20
85.927313
11
307.789378
21
82.618749
0
LINE
8
0
10
307.789378
20
82.618749
11
302.894689
21
82.618749
0
LINE
8
0
10
302.894689
20
82.618749
11
300.530867
21
82.693423
0
LINE
8
0
10
300.530867
20
82.693423
11
298.231786
21
83.434119
0
LINE
8
0
10
298.231786
20
83.434119
11
298.000000
21
84.195672
0
LINE
8
0
10
298.000000
20
84.195672
11
297.769351
21
85.038611
0
LINE
8
0
10
297.769351
20
85.038611
11
296.211899
21
87.436267
0
LINE
8
0
10
296.211899
20
87.436267
11
295.076923
21
88.695672
0
LINE
8
0
10
295.076923
20
88.695672
11
293.542320
21
90.005134
0
LINE
8
0
10
293.542320
20
90.005134
11
290.288355
21
91.502316
0
LINE
8
0
10
290.288355
20
91.502316
11
286.886630
21
91.503801
0
LINE
8
0
10
286.886630
20
91.503801
11
283.455446
21
90.009535
0
LINE
8
0
10
283.455446
20
90.009535
11
281.765777
21
88.701480
0
LINE
8
0
10
281.765777
20
88.701480
11
279.915260
21
86.874199
0
LINE
8
0
10
279.915260
20
86.874199
11
278.611006
21
83.651005
0
LINE
8
0
10
278.611006
20
83.651005
11
278.276702
21
79.715329
0
LINE
8
0
10
278.276702
20
79.715329
11
278.155471
21
76.834618
0
LINE
8
0
10
278.155471
20
76.834618
11
278.128454
21
72.412548
0
LINE
8
0
10
278.128454
20
72.412548
11
279.095903
21
65.701070
0
LINE
8
0
10
279.095903
20
65.701070
11
281.592592
21
61.555404
0
LINE
8
0
10
281.592592
20
61.555404
11
285.819238
21
59.642268
0
LINE
8
0
10
285.819238
20
59.642268
11
288.644018
21
59.418749
0
LINE
8
0
10
288.644018
20
59.418749
11
291.581937
21
59.824221
0
LINE
8
0
10
291.581937
20
59.824221
11
296.286644
21
62.575175
0
LINE
8
0
10
296.286644
20
62.575175
11
297.491544
21
64.592107
0
LINE
8
0
10
297.491544
20
64.592107
11
298.014155
21
65.615687
0
LINE
8
0
10
298.014155
20
65.615687
11
300.557039
21
66.537725
0
LINE
8
0
10
300.557039
20
66.537725
11
303.080808
21
66.618749
0
LINE
8
0
10
303.080808
20
66.618749
11
308.026840
21
66.618749
0
LINE
8
0
10
308.026840
20
66.618749
11
306.475282
21
62.905347
0
LINE
8
0
10
306.475282
20
62.905347
11
304.863215
21
59.637732
0
LINE
8
0
10
304.863215
20
59.637732
11
300.619500
21
55.190427
0
LINE
8
0
10
300.619500
20
55.190427
11
297.500000
21
53.499480
0
LINE
8
0
10
297.500000
20
53.499480
11
295.468826
21
52.729105
0
LINE
8
0
10
295.468826
20
52.729105
11
290.907268
21
51.848543
0
LINE
8
0
10
290.907268
20
51.848543
11
286.089712
21
51.848258
0
LINE
8
0
10
286.089712
20
51.848258
11
281.507700
21
52.728279
0
LINE
8
0
10
281.507700
20
52.728279
11
279.458630
21
53.498413
0
LINE
8
0
10
19.000000
20
68.118749
11
19.000000
21
77.618749
0
LINE
8
0
10
19.000000
20
77.618749
11
11.000000
21
77.618749
0
LINE
8
0
10
11.000000
20
77.618749
11
3.000000
21
77.618749
0
LINE
8
0
10
3.000000
20
77.618749
11
3.000000
21
82.118749
0
LINE
8
0
10
3.000000
20
82.118749
11
3.000000
21
86.618749
0
LINE
8
0
10
3.000000
20
86.618749
11
11.000000
21
86.618749
0
LINE
8
0
10
11.000000
20
86.618749
11
19.000000
21
86.618749
0
LINE
8
0
10
19.000000
20
86.618749
11
19.000000
21
95.118749
0
LINE
8
0
10
19.000000
20
95.118749
11
19.000000
21
103.618749
0
LINE
8
0
10
19.000000
20
103.618749
11
24.000000
21
103.618749
0
LINE
8
0
10
24.000000
20
103.618749
11
29.000000
21
103.618749
0
LINE
8
0
10
29.000000
20
103.618749
11
29.000000
21
95.118749
0
LINE
8
0
10
29.000000
20
95.118749
11
29.000000
21
86.618749
0
LINE
8
0
10
29.000000
20
86.618749
11
37.000000
21
86.618749
0
LINE
8
0
10
37.000000
20
86.618749
11
45.000000
21
86.618749
0
LINE
8
0
10
45.000000
20
86.618749
11
45.000000
21
82.118749
0
LINE
8
0
10
45.000000
20
82.118749
11
45.000000
21
77.618749
0
LINE
8
0
10
45.000000
20
77.618749
11
37.000000
21
77.618749
0
LINE
8
0
10
37.000000
20
77.618749
11
29.000000
21
77.618749
0
LINE
8
0
10
29.000000
20
77.618749
11
29.000000
21
68.118749
0
LINE
8
0
10
29.000000
20
68.118749
11
29.000000
21
58.618749
0
LINE
8
0
10
29.000000
20
58.618749
11
24.000000
21
58.618749
0
LINE
8
0
10
24.000000
20
58.618749
11
19.000000
21
58.618749
0
LINE
8
0
10
19.000000
20
58.618749
11
19.000000
21
68.118749
0
LINE
8
0
10
395.465282
20
52.547136
11
393.954806
21
53.275015
0
LINE
8
0
10
393.954806
20
53.275015
11
391.888826
21
55.441565
0
LINE
8
0
10
391.888826
20
55.441565
11
390.768350
21
59.843655
0
LINE
8
0
10
390.768350
20
59.843655
11
390.311854
21
65.541939
0
LINE
8
0
10
390.311854
20
65.541939
11
390.098124
21
70.844288
0
LINE
8
0
10
390.098124
20
70.844288
11
390.000000
21
74.018950
0
LINE
8
0
10
390.000000
20
74.018950
11
389.500000
21
91.118749
0
LINE
8
0
10
389.500000
20
91.118749
11
385.750000
21
91.429114
0
LINE
8
0
10
385.750000
20
91.429114
11
383.667943
21
91.681445
0
LINE
8
0
10
383.667943
20
91.681445
11
382.087231
21
93.262157
0
LINE
8
0
10
382.087231
20
93.262157
11
382.000000
21
95.179114
0
LINE
8
0
10
382.000000
20
95.179114
11
382.012267
21
96.287648
0
LINE
8
0
10
382.012267
20
96.287648
11
382.239575
21
97.737952
0
LINE
8
0
10
382.239575
20
97.737952
11
383.024291
21
98.412736
0
LINE
8
0
10
383.024291
20
98.412736
11
384.710870
21
98.608200
0
LINE
8
0
10
384.710870
20
98.608200
11
386.000000
21
98.618749
0
LINE
8
0
10
386.000000
20
98.618749
11
390.000000
21
98.618749
0
LINE
8
0
10
390.000000
20
98.618749
11
390.000000
21
104.118749
0
LINE
8
0
10
390.000000
20
104.118749
11
390.000000
21
109.618749
0
LINE
8
0
10
390.000000
20
109.618749
11
395.074139
21
109.618749
0
LINE
8
0
10
395.074139
20
109.618749
11
400.148278
21
109.618749
0
LINE
8
0
10
400.148278
20
109.618749
11
399.864653
21
104.368749
0
LINE
8
0
10
399.864653
20
104.368749
11
399.581028
21
99.118749
0
LINE
8
0
10
399.581028
20
99.118749
11
403.790514
21
98.811251
0
LINE
8
0
10
403.790514
20
98.811251
11
405.136013
21
98.701303
0
LINE
8
0
10
405.136013
20
98.701303
11
406.905008
21
98.372771
0
LINE
8
0
10
406.905008
20
98.372771
11
407.912695
21
97.030140
0
LINE
8
0
10
407.912695
20
97.030140
11
408.000000
21
95.118749
0
LINE
8
0
10
408.000000
20
95.118749
11
407.912165
21
93.216147
0
LINE
8
0
10
407.912165
20
93.216147
11
406.932484
21
91.869533
0
LINE
8
0
10
406.932484
20
91.869533
11
405.230097
21
91.536516
0
LINE
8
0
10
405.230097
20
91.536516
11
403.939671
21
91.426247
0
LINE
8
0
10
403.939671
20
91.426247
11
399.879342
21
91.118749
0
LINE
8
0
10
399.879342
20
91.118749
11
399.847545
21
76.234703
0
LINE
8
0
10
399.847545
20
76.234703
11
399.844558
21
73.396211
0
LINE
8
0
10
399.844558
20
73.396211
11
399.881278
21
68.728511
0
LINE
8
0
10
399.881278
20
68.728511
11
400.152794
21
63.916820
0
LINE
8
0
10
400.152794
20
63.916820
11
401.225976
21
60.655590
0
LINE
8
0
10
401.225976
20
60.655590
11
403.540947
21
59.695577
0
LINE
8
0
10
403.540947
20
59.695577
11
405.310365
21
59.634062
0
LINE
8
0
10
405.310365
20
59.634062
11
406.853037
21
59.533894
0
LINE
8
0
10
406.853037
20
59.533894
11
407.841638
21
58.600761
0
LINE
8
0
10
407.841638
20
58.600761
11
407.894482
21
57.038977
0
LINE
8
0
10
407.894482
20
57.038977
11
407.810365
21
55.868749
0
LINE
8
0
10
407.810365
20
55.868749
11
407.500000
21
52.118749
0
LINE
8
0
10
407.500000
20
52.118749
11
402.500000
21
51.908998
0
LINE
8
0
10
402.500000
20
51.908998
11
400.398042
21
51.894460
0
LINE
8
0
10
400.398042
20
51.894460
11
396.649856
21
52.234468
0
LINE
8
0
10
396.649856
20
52.234468
11
395.465282
21
52.547136
0
LINE
8
0
10
332.000000
20
164.618749
11
332.000000
21
187.618749
0
LINE
8
0
10
332.000000
20
187.618749
11
337.000000
21
187.618749
0
LINE
8
0
10
337.000000
20
187.618749
11
342.000000
21
187.618749
0
LINE
8
0
10
342.000000
20
187.618749
11
342.000000
21
164.618749
0
LINE
8
0
10
342.000000
20
164.618749
11
342.000000
21
141.618749
0
LINE
8
0
10
342.000000
20
141.618749
11
337.000000
21
141.618749
0
LINE
8
0
10
337.000000
20
141.618749
11
332.000000
21
141.618749
0
LINE
8
0
10
332.000000
20
141.618749
11
332.000000
21
164.618749
0
LINE
8
0
10
317.000000
20
75.618749
11
317.000000
21
98.618749
0
LINE
8
0
10
317.000000
20
98.618749
11
322.000000
21
98.618749
0
LINE
8
0
10
322.000000
20
98.618749
11
327.000000
21
98.618749
0
LINE
8
0
10
327.000000
20
98.618749
11
327.000000
21
75.618749
0
LINE
8
0
10
327.000000
20
75.618749
11
327.000000
21
52.618749
0
LINE
8
0
10
327.000000
20
52.618749
11
322.000000
21
52.618749
0
LINE
8
0
10
322.000000
20
52.618749
11
317.000000
21
52.618749
0
LINE
8
0
10
317.000000
20
52.618749
11
317.000000
21
75.618749
0
LINE
8
0
10
34.090721
20
3.687298
11
32.743759
21
4.334043
0
LINE
8
0
10
32.743759
20
4.334043
11
30.767923
21
6.022802
0
LINE
8
0
10
30.767923
20
6.022802
11
29.608770
21
8.544873
0
LINE
8
0
10
29.608770
20
8.544873
11
29.097378
21
12.267796
0
LINE
8
0
10
29.097378
20
12.267796
11
29.031803
21
14.694435
0
LINE
8
0
10
29.031803
20
14.694435
11
29.127521
21
17.454507
0
LINE
8
0
10
29.127521
20
17.454507
11
30.036008
21
21.657081
0
LINE
8
0
10
30.036008
20
21.657081
11
32.024831
21
24.265903
0
LINE
8
0
10
32.024831
20
24.265903
11
35.243115
21
25.476583
0
LINE
8
0
10
35.243115
20
25.476583
11
37.359906
21
25.618749
0
LINE
8
0
10
37.359906
20
25.618749
11
39.467322
21
25.457862
0
LINE
8
0
10
39.467322
20
25.457862
11
42.751076
21
24.131256
0
LINE
8
0
10
42.751076
20
24.131256
11
44.860654
21
21.377057
0
LINE
8
0
10
44.860654
20
21.377057
11
45.876769
21
17.089892
0
LINE
8
0
10
45.876769
20
17.089892
11
46.000000
21
14.338517
0
LINE
8
0
10
46.000000
20
14.338517
11
45.980353
21
12.519524
0
LINE
8
0
10
45.980353
20
12.519524
11
45.783298
21
9.783291
0
LINE
8
0
10
45.783298
20
9.783291
11
44.893901
21
7.182551
0
LINE
8
0
10
44.893901
20
7.182551
11
43.750000
21
5.867192
0
LINE
8
0
10
43.750000
20
5.867192
11
41.495755
21
4.239318
0
LINE
8
0
10
41.495755
20
4.239318
11
36.527623
21
3.118116
0
LINE
8
0
10
36.527623
20
3.118116
11
34.090721
21
3.687298
0
LINE
8
0
10
457.000000
20
14.618749
11
457.000000
21
25.618749
0
LINE
8
0
10
457.000000
20
25.618749
11
463.000000
21
25.618749
0
LINE
8
0
10
463.000000
20
25.618749
11
466.000000
21
25.524999
0
LINE
8
0
10
466.000000
20
25.524999
11
469.750000
21
24.587499
0
LINE
8
0
10
469.750000
20
24.587499
11
471.000000
21
23.618749
0
LINE
8
0
10
471.000000
20
23.618749
11
472.387058
21
21.737756
0
LINE
8
0
10
472.387058
20
21.737756
11
472.584943
21
17.894104
0
LINE
8
0
10
472.584943
20
17.894104
11
471.384708
21
16.146314
0
LINE
8
0
10
471.384708
20
16.146314
11
470.571475
21
15.233880
0
LINE
8
0
10
470.571475
20
15.233880
11
470.521455
21
13.782858
0
LINE
8
0
10
470.521455
20
13.782858
11
471.270210
21
12.824886
0
LINE
8
0
10
471.270210
20
12.824886
11
472.452885
21
10.507950
0
LINE
8
0
10
472.452885
20
10.507950
11
473.188840
21
7.333298
0
LINE
8
0
10
473.188840
20
7.333298
11
473.326210
21
5.481139
0
LINE
8
0
10
473.326210
20
5.481139
11
472.800249
21
3.863743
0
LINE
8
0
10
472.800249
20
3.863743
11
472.053338
21
3.841488
0
LINE
8
0
10
472.053338
20
3.841488
11
471.378401
21
4.202448
0
LINE
8
0
10
471.378401
20
4.202448
11
470.428446
21
6.136508
0
LINE
8
0
10
470.428446
20
6.136508
11
470.194031
21
7.626938
0
LINE
8
0
10
470.194031
20
7.626938
11
469.975252
21
9.088317
0
LINE
8
0
10
469.975252
20
9.088317
11
469.027658
21
11.365517
0
LINE
8
0
10
469.027658
20
11.365517
11
467.346503
21
12.828542
0
LINE
8
0
10
467.346503
20
12.828542
11
464.867571
21
13.533277
0
LINE
8
0
10
464.867571
20
13.533277
11
463.308870
21
13.618749
0
LINE
8
0
10
463.308870
20
13.618749
11
462.218089
21
13.608680
0
LINE
8
0
10
462.218089
20
13.608680
11
460.809980
21
13.353128
0
LINE
8
0
10
460.809980
20
13.353128
11
460.175781
21
12.394797
0
LINE
8
0
10
460.175781
20
12.394797
11
460.006663
21
10.267017
0
LINE
8
0
10
460.006663
20
10.267017
11
460.000000
21
8.618749
0
LINE
8
0
10
460.000000
20
8.618749
11
459.925000
21
6.243749
0
LINE
8
0
10
459.925000
20
6.243749
11
459.212500
21
3.868749
0
LINE
8
0
10
459.212500
20
3.868749
11
458.500000
21
3.618749
0
LINE
8
0
10
458.500000
20
3.618749
11
458.078835
21
3.717707
0
LINE
8
0
10
458.078835
20
3.717707
11
457.479403
21
4.696874
0
LINE
8
0
10
457.479403
20
4.696874
11
457.147017
21
7.134374
0
LINE
8
0
10
457.147017
20
7.134374
11
457.013494
21
11.530207
0
LINE
8
0
10
457.013494
20
11.530207
11
457.000000
21
14.618749
0
LINE
8
0
10
205.000000
20
14.618749
11
205.014742
21
17.568348
0
LINE
8
0
10
205.014742
20
17.568348
11
205.149608
21
21.890456
0
LINE
8
0
10
205.149608
20
21.890456
11
205.462611
21
24.413023
0
LINE
8
0
10
205.462611
20
24.413023
11
205.998903
21
25.499942
0
LINE
8
0
10
205.998903
20
25.499942
11
206.364893
21
25.618749
0
LINE
8
0
10
206.364893
20
25.618749
11
206.748982
21
25.440160
0
LINE
8
0
10
206.748982
20
25.440160
11
208.049583
21
24.119115
0
LINE
8
0
10
208.049583
20
24.119115
11
210.916259
21
20.266210
0
LINE
8
0
10
210.916259
20
20.266210
11
213.114893
21
16.868749
0
LINE
8
0
10
213.114893
20
16.868749
11
218.500000
21
8.118749
0
LINE
8
0
10
218.500000
20
8.118749
11
218.788933
21
16.868749
0
LINE
8
0
10
218.788933
20
16.868749
11
218.882224
21
19.218788
0
LINE
8
0
10
218.882224
20
19.218788
11
219.139698
21
22.658828
0
LINE
8
0
10
219.139698
20
22.658828
11
219.540555
21
24.663109
0
LINE
8
0
10
219.540555
20
24.663109
11
220.143423
21
25.524781
0
LINE
8
0
10
220.143423
20
25.524781
11
220.538933
21
25.618749
0
LINE
8
0
10
220.538933
20
25.618749
11
220.944198
21
25.514447
0
LINE
8
0
10
220.944198
20
25.514447
11
221.525436
21
24.506274
0
LINE
8
0
10
221.525436
20
24.506274
11
221.852236
21
22.045875
0
LINE
8
0
10
221.852236
20
22.045875
11
221.986146
21
17.669888
0
LINE
8
0
10
221.986146
20
17.669888
11
222.000000
21
14.618749
0
LINE
8
0
10
222.000000
20
14.618749
11
221.983186
21
12.113726
0
LINE
8
0
10
221.983186
20
12.113726
11
221.829010
21
8.068100
0
LINE
8
0
10
221.829010
20
8.068100
11
221.470397
21
5.295461
0
LINE
8
0
10
221.470397
20
5.295461
11
220.854899
21
3.780318
0
LINE
8
0
10
220.854899
20
3.780318
11
219.930071
21
3.507182
0
LINE
8
0
10
219.930071
20
3.507182
11
218.643466
21
4.460565
0
LINE
8
0
10
218.643466
20
4.460565
11
216.942638
21
6.624976
0
LINE
8
0
10
216.942638
20
6.624976
11
214.775140
21
9.984927
0
LINE
8
0
10
214.775140
20
9.984927
11
213.500000
21
12.108389
0
LINE
8
0
10
213.500000
20
12.108389
11
211.499414
21
15.394320
0
LINE
8
0
10
211.499414
20
15.394320
11
209.025513
21
19.127990
0
LINE
8
0
10
209.025513
20
19.127990
11
208.002710
21
20.414319
0
LINE
8
0
10
208.002710
20
20.414319
11
207.750000
21
20.592257
0
LINE
8
0
10
207.750000
20
20.592257
11
207.599341
21
20.424092
0
LINE
8
0
10
207.599341
20
20.424092
11
207.331421
21
19.150255
0
LINE
8
0
10
207.331421
20
19.150255
11
207.059180
21
15.417049
0
LINE
8
0
10
207.059180
20
15.417049
11
207.000000
21
12.118749
0
LINE
8
0
10
207.000000
20
12.118749
11
206.926471
21
8.681249
0
LINE
8
0
10
206.926471
20
8.681249
11
206.574908
21
4.989843
0
LINE
8
0
10
206.574908
20
4.989843
11
206.211857
21
3.778905
0
LINE
8
0
10
206.211857
20
3.778905
11
206.000000
21
3.618749
0
LINE
8
0
10
206.000000
20
3.618749
11
205.783026
21
3.817968
0
LINE
8
0
10
205.783026
20
3.817968
11
205.417259
21
5.341405
0
LINE
8
0
10
205.417259
20
5.341405
11
205.156605
21
8.208593
0
LINE
8
0
10
205.156605
20
8.208593
11
205.018111
21
12.232030
0
LINE
8
0
10
205.018111
20
12.232030
11
205.000000
21
14.618749
0
LINE
8
0
10
377.000000
20
14.618749
11
377.014742
21
17.568348
0
LINE
8
0
10
377.014742
20
17.568348
11
377.149608
21
21.890456
0
LINE
8
0
10
377.149608
20
21.890456
11
377.462611
21
24.413023
0
LINE
8
0
10
377.462611
20
24.413023
11
377.998903
21
25.499942
0
LINE
8
0
10
377.998903
20
25.499942
11
378.364893
21
25.618749
0
LINE
8
0
10
378.364893
20
25.618749
11
378.748982
21
25.440160
0
LINE
8
0
10
378.748982
20
25.440160
11
380.049583
21
24.119115
0
LINE
8
0
10
380.049583
20
24.119115
11
382.916259
21
20.266210
0
LINE
8
0
10
382.916259
20
20.266210
11
385.114893
21
16.868749
0
LINE
8
0
10
385.114893
20
16.868749
11
390.500000
21
8.118749
0
LINE
8
0
10
390.500000
20
8.118749
11
390.788933
21
16.868749
0
LINE
8
0
10
390.788933
20
16.868749
11
390.882224
21
19.218788
0
LINE
8
0
10
390.882224
20
19.218788
11
391.139698
21
22.658828
0
LINE
8
0
10
391.139698
20
22.658828
11
391.540555
21
24.663109
0
LINE
8
0
10
391.540555
20
24.663109
11
392.143423
21
25.524781
0
LINE
8
0
10
392.143423
20
25.524781
11
392.538933
21
25.618749
0
LINE
8
0
10
392.538933
20
25.618749
11
392.944198
21
25.514447
0
LINE
8
0
10
392.944198
20
25.514447
11
393.525436
21
24.506274
0
LINE
8
0
10
393.525436
20
24.506274
11
393.852236
21
22.045875
0
LINE
8
0
10
393.852236
20
22.045875
11
393.986146
21
17.669888
0
LINE
8
0
10
393.986146
20
17.669888
11
394.000000
21
14.618749
0
LINE
8
0
10
394.000000
20
14.618749
11
393.983210
21
12.116097
0
LINE
8
0
10
393.983210
20
12.116097
11
393.829193
21
8.074610
0
LINE
8
0
10
393.829193
20
8.074610
11
393.470826
21
5.305395
0
LINE
8
0
10
393.470826
20
5.305395
11
392.855588
21
3.793067
0
LINE
8
0
10
392.855588
20
3.793067
11
391.930957
21
3.522244
0
LINE
8
0
10
391.930957
20
3.522244
11
390.644412
21
4.477541
0
LINE
8
0
10
390.644412
20
4.477541
11
388.943431
21
6.643576
0
LINE
8
0
10
388.943431
20
6.643576
11
386.775492
21
10.004964
0
LINE
8
0
10
386.775492
20
10.004964
11
385.500000
21
12.129109
0
LINE
8
0
10
385.500000
20
12.129109
11
383.499414
21
15.414222
0
LINE
8
0
10
383.499414
20
15.414222
11
381.025513
21
19.144132
0
LINE
8
0
10
381.025513
20
19.144132
11
380.002710
21
20.426760
0
LINE
8
0
10
380.002710
20
20.426760
11
379.750000
21
20.602617
0
LINE
8
0
10
379.750000
20
20.602617
11
379.599341
21
20.432371
0
LINE
8
0
10
379.599341
20
20.432371
11
379.331421
21
19.154833
0
LINE
8
0
10
379.331421
20
19.154833
11
379.059180
21
15.417867
0
LINE
8
0
10
379.059180
20
15.417867
11
379.000000
21
12.118749
0
LINE
8
0
10
379.000000
20
12.118749
11
378.926471
21
8.681249
0
LINE
8
0
10
378.926471
20
8.681249
11
378.574908
21
4.989843
0
LINE
8
0
10
378.574908
20
4.989843
11
378.211857
21
3.778905
0
LINE
8
0
10
378.211857
20
3.778905
11
378.000000
21
3.618749
0
LINE
8
0
10
378.000000
20
3.618749
11
377.783026
21
3.817968
0
LINE
8
0
10
377.783026
20
3.817968
11
377.417259
21
5.341405
0
LINE
8
0
10
377.417259
20
5.341405
11
377.156605
21
8.208593
0
LINE
8
0
10
377.156605
20
8.208593
11
377.018111
21
12.232030
0
LINE
8
0
10
377.018111
20
12.232030
11
377.000000
21
14.618749
0
LINE
8
0
10
303.000000
20
14.618749
11
303.012352
21
17.049172
0
LINE
8
0
10
303.012352
20
17.049172
11
303.134116
21
20.969497
0
LINE
8
0
10
303.134116
20
20.969497
11
303.436287
21
23.651615
0
LINE
8
0
10
303.436287
20
23.651615
11
303.980060
21
25.114511
0
LINE
8
0
10
303.980060
20
25.114511
11
304.826629
21
25.377172
0
LINE
8
0
10
304.826629
20
25.377172
11
306.037186
21
24.458584
0
LINE
8
0
10
306.037186
20
24.458584
11
307.672927
21
22.377734
0
LINE
8
0
10
307.672927
20
22.377734
11
309.795043
21
19.153607
0
LINE
8
0
10
309.795043
20
19.153607
11
311.057616
21
17.118749
0
LINE
8
0
10
311.057616
20
17.118749
11
313.130089
21
13.818174
0
LINE
8
0
10
313.130089
20
13.818174
11
315.648562
21
10.074504
0
LINE
8
0
10
315.648562
20
10.074504
11
316.655198
21
8.790370
0
LINE
8
0
10
316.655198
20
8.790370
11
316.885107
21
8.616415
0
LINE
8
0
10
316.885107
20
8.616415
11
317.002024
21
8.789480
0
LINE
8
0
10
317.002024
20
8.789480
11
317.172843
21
10.072299
0
LINE
8
0
10
317.172843
20
10.072299
11
317.253606
21
13.815302
0
LINE
8
0
10
317.253606
20
13.815302
11
317.176526
21
17.116415
0
LINE
8
0
10
317.176526
20
17.116415
11
317.096856
21
19.550220
0
LINE
8
0
10
317.096856
20
19.550220
11
317.100032
21
22.972633
0
LINE
8
0
10
317.100032
20
22.972633
11
317.630189
21
25.303388
0
LINE
8
0
10
317.630189
20
25.303388
11
318.426526
21
25.618749
0
LINE
8
0
10
318.426526
20
25.618749
11
318.877878
21
25.528739
0
LINE
8
0
10
318.877878
20
25.528739
11
319.511742
21
24.595203
0
LINE
8
0
10
319.511742
20
24.595203
11
319.854558
21
22.182633
0
LINE
8
0
10
319.854558
20
22.182633
11
319.987210
21
17.721810
0
LINE
8
0
10
319.987210
20
17.721810
11
320.000000
21
14.545425
0
LINE
8
0
10
320.000000
20
14.545425
11
319.985969
21
12.116114
0
LINE
8
0
10
319.985969
20
12.116114
11
319.851082
21
8.200042
0
LINE
8
0
10
319.851082
20
8.200042
11
319.523458
21
5.527653
0
LINE
8
0
10
319.523458
20
5.527653
11
318.942728
21
4.083282
0
LINE
8
0
10
318.942728
20
4.083282
11
318.048527
21
3.851267
0
LINE
8
0
10
318.048527
20
3.851267
11
316.780488
21
4.815944
0
LINE
8
0
10
316.780488
20
4.815944
11
315.078244
21
6.961651
0
LINE
8
0
10
315.078244
20
6.961651
11
312.881427
21
10.272724
0
LINE
8
0
10
312.881427
20
10.272724
11
311.578690
21
12.360378
0
LINE
8
0
10
311.578690
20
12.360378
11
309.541753
21
15.561108
0
LINE
8
0
10
309.541753
20
15.561108
11
307.006532
21
19.193200
0
LINE
8
0
10
307.006532
20
19.193200
11
305.945602
21
20.440483
0
LINE
8
0
10
305.945602
20
20.440483
11
305.676526
21
20.610378
0
LINE
8
0
10
305.676526
20
20.610378
11
305.517710
21
20.438525
0
LINE
8
0
10
305.517710
20
20.438525
11
305.272380
21
19.157863
0
LINE
8
0
10
305.272380
20
19.157863
11
305.115905
21
15.417051
0
LINE
8
0
10
305.115905
20
15.417051
11
305.176526
21
12.116415
0
LINE
8
0
10
305.176526
20
12.116415
11
305.243666
21
9.939849
0
LINE
8
0
10
305.243666
20
9.939849
11
305.233393
21
6.654167
0
LINE
8
0
10
305.233393
20
6.654167
11
305.014028
21
4.641704
0
LINE
8
0
10
305.014028
20
4.641704
11
304.565945
21
3.722400
0
LINE
8
0
10
304.565945
20
3.722400
11
304.250000
21
3.616415
0
LINE
8
0
10
304.250000
20
3.616415
11
303.930971
21
3.756124
0
LINE
8
0
10
303.930971
20
3.756124
11
303.448393
21
4.954177
0
LINE
8
0
10
303.448393
20
4.954177
11
303.151848
21
7.564325
0
LINE
8
0
10
303.151848
20
7.564325
11
303.015808
21
11.811264
0
LINE
8
0
10
303.015808
20
11.811264
11
303.000000
21
14.618749
0
LINE
8
0
10
58.000000
20
14.618749
11
58.014236
21
17.627884
0
LINE
8
0
10
58.014236
20
17.627884
11
58.148557
21
21.981583
0
LINE
8
0
10
58.148557
20
21.981583
11
58.469421
21
24.467700
0
LINE
8
0
10
58.469421
20
24.467700
11
59.031320
21
25.508447
0
LINE
8
0
10
59.031320
20
25.508447
11
59.419686
21
25.618749
0
LINE
8
0
10
59.419686
20
25.618749
11
59.813664
21
25.445296
0
LINE
8
0
10
59.813664
20
25.445296
11
61.125566
21
24.162245
0
LINE
8
0
10
61.125566
20
24.162245
11
63.988003
21
20.420150
0
LINE
8
0
10
63.988003
20
20.420150
11
66.169686
21
17.120401
0
LINE
8
0
10
66.169686
20
17.120401
11
68.304324
21
13.820521
0
LINE
8
0
10
68.304324
20
13.820521
11
70.950344
21
10.077826
0
LINE
8
0
10
70.950344
20
10.077826
11
72.049263
21
8.794185
0
LINE
8
0
10
72.049263
20
8.794185
11
72.323474
21
8.620401
0
LINE
8
0
10
72.323474
20
8.620401
11
72.482290
21
8.793603
0
LINE
8
0
10
72.482290
20
8.793603
11
72.727620
21
10.076666
0
LINE
8
0
10
72.727620
20
10.076666
11
72.884095
21
13.819916
0
LINE
8
0
10
72.884095
20
13.819916
11
72.823474
21
17.121083
0
LINE
8
0
10
72.823474
20
17.121083
11
72.756334
21
19.297649
0
LINE
8
0
10
72.756334
20
19.297649
11
72.766607
21
22.583330
0
LINE
8
0
10
72.766607
20
22.583330
11
72.985972
21
24.595794
0
LINE
8
0
10
72.985972
20
24.595794
11
73.434055
21
25.515098
0
LINE
8
0
10
73.434055
20
25.515098
11
73.750000
21
25.621083
0
LINE
8
0
10
73.750000
20
25.621083
11
74.069029
21
25.481374
0
LINE
8
0
10
74.069029
20
25.481374
11
74.551607
21
24.283320
0
LINE
8
0
10
74.551607
20
24.283320
11
74.848152
21
21.673173
0
LINE
8
0
10
74.848152
20
21.673173
11
74.984192
21
17.426233
0
LINE
8
0
10
74.984192
20
17.426233
11
75.000000
21
14.618749
0
LINE
8
0
10
75.000000
20
14.618749
11
74.987040
21
12.182515
0
LINE
8
0
10
74.987040
20
12.182515
11
74.860876
21
8.252062
0
LINE
8
0
10
74.860876
20
8.252062
11
74.551078
21
5.562232
0
LINE
8
0
10
74.551078
20
5.562232
11
73.997679
21
4.094552
0
LINE
8
0
10
73.997679
20
4.094552
11
73.140710
21
3.830547
0
LINE
8
0
10
73.140710
20
3.830547
11
71.920203
21
4.751743
0
LINE
8
0
10
71.920203
20
4.751743
11
70.276192
21
6.839665
0
LINE
8
0
10
70.276192
20
6.839665
11
68.148707
21
10.075840
0
LINE
8
0
10
68.148707
20
10.075840
11
66.884923
21
12.118749
0
LINE
8
0
10
66.884923
20
12.118749
11
64.821135
21
15.419151
0
LINE
8
0
10
64.821135
20
15.419151
11
62.317853
21
19.162026
0
LINE
8
0
10
62.317853
20
19.162026
11
61.320972
21
20.445378
0
LINE
8
0
10
61.320972
20
20.445378
11
61.095362
21
20.618894
0
LINE
8
0
10
61.095362
20
20.618894
11
60.982963
21
20.445433
0
LINE
8
0
10
60.982963
20
20.445433
11
60.823521
21
19.162163
0
LINE
8
0
10
60.823521
20
19.162163
11
60.762680
21
15.419329
0
LINE
8
0
10
60.762680
20
15.419329
11
60.852616
21
12.118894
0
LINE
8
0
10
60.852616
20
12.118894
11
60.941862
21
9.664186
0
LINE
8
0
10
60.941862
20
9.664186
11
60.951568
21
6.231232
0
LINE
8
0
10
60.951568
20
6.231232
11
60.419245
21
3.923484
0
LINE
8
0
10
60.419245
20
3.923484
11
59.602616
21
3.618749
0
LINE
8
0
10
59.602616
20
3.618749
11
59.139545
21
3.704868
0
LINE
8
0
10
59.139545
20
3.704868
11
58.492158
21
4.614335
0
LINE
8
0
10
58.492158
20
4.614335
11
58.145049
21
6.996809
0
LINE
8
0
10
58.145049
20
6.996809
11
58.012547
21
11.440331
0
LINE
8
0
10
58.012547
20
11.440331
11
58.000000
21
14.618749
0
LINE
8
0
10
119.258796
20
3.323329
11
117.880876
21
3.735048
0
LINE
8
0
10
117.880876
20
3.735048
11
115.831682
21
5.425119
0
LINE
8
0
10
115.831682
20
5.425119
11
114.605997
21
8.575786
0
LINE
8
0
10
114.605997
20
8.575786
11
114.061399
21
13.553153
0
LINE
8
0
10
114.061399
20
13.553153
11
114.000000
21
16.841255
0
LINE
8
0
10
114.000000
20
16.841255
11
114.016583
21
19.043354
0
LINE
8
0
10
114.016583
20
19.043354
11
114.156831
21
22.411585
0
LINE
8
0
10
114.156831
20
22.411585
11
114.456697
21
24.516789
0
LINE
8
0
10
114.456697
20
24.516789
11
114.936396
21
25.500874
0
LINE
8
0
10
114.936396
20
25.500874
11
115.250000
21
25.616845
0
LINE
8
0
10
115.250000
20
25.616845
11
115.564430
21
25.496762
0
LINE
8
0
10
115.564430
20
25.496762
11
116.044568
21
24.481925
0
LINE
8
0
10
116.044568
20
24.481925
11
116.343928
21
22.306906
0
LINE
8
0
10
116.343928
20
22.306906
11
116.483535
21
18.818954
0
LINE
8
0
10
116.483535
20
18.818954
11
116.500000
21
16.534895
0
LINE
8
0
10
116.500000
20
16.534895
11
116.514712
21
13.884611
0
LINE
8
0
10
116.514712
20
13.884611
11
116.672569
21
10.092920
0
LINE
8
0
10
116.672569
20
10.092920
11
117.431242
21
7.091571
0
LINE
8
0
10
117.431242
20
7.091571
11
118.441130
21
6.036799
0
LINE
8
0
10
118.441130
20
6.036799
11
120.521817
21
4.972063
0
LINE
8
0
10
120.521817
20
4.972063
11
124.649407
21
5.186536
0
LINE
8
0
10
124.649407
20
5.186536
11
126.345012
21
6.447490
0
LINE
8
0
10
126.345012
20
6.447490
11
127.140291
21
7.743829
0
LINE
8
0
10
127.140291
20
7.743829
11
127.811781
21
11.066750
0
LINE
8
0
10
127.811781
20
11.066750
11
127.981065
21
14.640282
0
LINE
8
0
10
127.981065
20
14.640282
11
128.000000
21
16.947490
0
LINE
8
0
10
128.000000
20
16.947490
11
128.014496
21
19.341654
0
LINE
8
0
10
128.014496
20
19.341654
11
128.153454
21
22.785372
0
LINE
8
0
10
128.153454
20
22.785372
11
128.490132
21
24.731653
0
LINE
8
0
10
128.490132
20
24.731653
11
129.085845
21
25.534952
0
LINE
8
0
10
129.085845
20
25.534952
11
129.500000
21
25.618749
0
LINE
8
0
10
129.500000
20
25.618749
11
130.243708
21
25.277033
0
LINE
8
0
10
130.243708
20
25.277033
11
130.843724
21
23.001102
0
LINE
8
0
10
130.843724
20
23.001102
11
130.985065
21
19.858448
0
LINE
8
0
10
130.985065
20
19.858448
11
131.000000
21
17.683849
0
LINE
8
0
10
131.000000
20
17.683849
11
130.950926
21
14.305992
0
LINE
8
0
10
130.950926
20
14.305992
11
130.480505
21
9.307924
0
LINE
8
0
10
130.480505
20
9.307924
11
129.340767
21
6.178494
0
LINE
8
0
10
129.340767
20
6.178494
11
127.324166
21
4.347838
0
LINE
8
0
10
127.324166
20
4.347838
11
125.922185
21
3.741467
0
LINE
8
0
10
125.922185
20
3.741467
11
124.624269
21
3.316282
0
LINE
8
0
10
124.624269
20
3.316282
11
122.588175
21
2.790643
0
LINE
8
0
10
122.588175
20
2.790643
11
122.100777
21
2.754931
0
LINE
8
0
10
122.100777
20
2.754931
11
121.018124
21
2.978073
0
LINE
8
0
10
121.018124
20
2.978073
11
119.258796
21
3.323329
0
LINE
8
0
10
338.000000
20
3.324977
11
336.279688
21
4.313553
0
LINE
8
0
10
336.279688
20
4.313553
11
334.250000
21
5.920344
0
LINE
8
0
10
334.250000
20
5.920344
11
333.095760
21
7.218790
0
LINE
8
0
10
333.095760
20
7.218790
11
332.210241
21
9.851223
0
LINE
8
0
10
332.210241
20
9.851223
11
332.018642
21
12.701134
0
LINE
8
0
10
332.018642
20
12.701134
11
332.000000
21
14.618749
0
LINE
8
0
10
332.000000
20
14.618749
11
332.107706
21
17.435842
0
LINE
8
0
10
332.107706
20
17.435842
11
333.036500
21
21.688765
0
LINE
8
0
10
333.036500
20
21.688765
11
335.065696
21
24.291393
0
LINE
8
0
10
335.065696
20
24.291393
11
338.374360
21
25.473396
0
LINE
8
0
10
338.374360
20
25.473396
11
340.564451
21
25.603436
0
LINE
8
0
10
340.564451
20
25.603436
11
343.383251
21
25.452374
0
LINE
8
0
10
343.383251
20
25.452374
11
346.682108
21
23.769523
0
LINE
8
0
10
346.682108
20
23.769523
11
347.885480
21
21.868749
0
LINE
8
0
10
347.885480
20
21.868749
11
348.330614
21
20.881353
0
LINE
8
0
10
348.330614
20
20.881353
11
348.372854
21
19.788299
0
LINE
8
0
10
348.372854
20
19.788299
11
347.435715
21
19.859411
0
LINE
8
0
10
347.435715
20
19.859411
11
345.700792
21
21.080910
0
LINE
8
0
10
345.700792
20
21.080910
11
344.590909
21
22.118749
0
LINE
8
0
10
344.590909
20
22.118749
11
343.466912
21
23.149879
0
LINE
8
0
10
343.466912
20
23.149879
11
341.455199
21
24.332377
0
LINE
8
0
10
341.455199
20
24.332377
11
339.565717
21
24.342932
0
LINE
8
0
10
339.565717
20
24.342932
11
337.567092
21
23.182839
0
LINE
8
0
10
337.567092
20
23.182839
11
336.454545
21
22.164203
0
LINE
8
0
10
336.454545
20
22.164203
11
335.301387
21
20.650897
0
LINE
8
0
10
335.301387
20
20.650897
11
333.983492
21
16.771582
0
LINE
8
0
10
333.983492
20
16.771582
11
333.983492
21
12.465916
0
LINE
8
0
10
333.983492
20
12.465916
11
335.301387
21
8.586600
0
LINE
8
0
10
335.301387
20
8.586600
11
336.454545
21
7.073294
0
LINE
8
0
10
336.454545
20
7.073294
11
338.077204
21
5.739357
0
LINE
8
0
10
338.077204
20
5.739357
11
341.330658
21
4.520586
0
LINE
8
0
10
341.330658
20
4.520586
11
344.093281
21
5.124317
0
LINE
8
0
10
344.093281
20
5.124317
11
345.763058
21
7.418989
0
LINE
8
0
10
345.763058
20
7.418989
11
346.000000
21
9.159315
0
LINE
8
0
10
346.000000
20
9.159315
11
345.902947
21
10.900928
0
LINE
8
0
10
345.902947
20
10.900928
11
344.677590
21
12.568830
0
LINE
8
0
10
344.677590
20
12.568830
11
343.250000
21
12.902494
0
LINE
8
0
10
343.250000
20
12.902494
11
342.250149
21
13.099604
0
LINE
8
0
10
342.250149
20
13.099604
11
342.985185
21
13.377164
0
LINE
8
0
10
342.985185
20
13.377164
11
344.750000
21
13.468917
0
LINE
8
0
10
344.750000
20
13.468917
11
349.000000
21
13.618749
0
LINE
8
0
10
349.000000
20
13.618749
11
349.000000
21
9.567722
0
LINE
8
0
10
349.000000
20
9.567722
11
348.900834
21
7.341920
0
LINE
8
0
10
348.900834
20
7.341920
11
347.402047
21
4.964869
0
LINE
8
0
10
347.402047
20
4.964869
11
345.532119
21
4.067722
0
LINE
8
0
10
345.532119
20
4.067722
11
343.176099
21
3.184268
0
LINE
8
0
10
343.176099
20
3.184268
11
339.719043
21
2.843367
0
LINE
8
0
10
339.719043
20
2.843367
11
338.000000
21
3.324977
0
LINE
8
0
10
91.098156
20
3.842895
11
89.181212
21
5.165939
0
LINE
8
0
10
89.181212
20
5.165939
11
87.301351
21
7.466010
0
LINE
8
0
10
87.301351
20
7.466010
11
87.030318
21
8.761903
0
LINE
8
0
10
87.030318
20
8.761903
11
87.271365
21
9.223447
0
LINE
8
0
10
87.271365
20
9.223447
11
87.708050
21
9.286176
0
LINE
8
0
10
87.708050
20
9.286176
11
89.193110
21
8.246106
0
LINE
8
0
10
89.193110
20
8.246106
11
90.058576
21
7.271411
0
LINE
8
0
10
90.058576
20
7.271411
11
91.420033
21
5.966164
0
LINE
8
0
10
91.420033
20
5.966164
11
94.634135
21
4.769071
0
LINE
8
0
10
94.634135
20
4.769071
11
97.712489
21
5.316029
0
LINE
8
0
10
97.712489
20
5.316029
11
99.706299
21
7.438456
0
LINE
8
0
10
99.706299
20
7.438456
11
100.000000
21
9.037789
0
LINE
8
0
10
100.000000
20
9.037789
11
99.768625
21
10.305050
0
LINE
8
0
10
99.768625
20
10.305050
11
98.196004
21
11.879499
0
LINE
8
0
10
98.196004
20
11.879499
11
95.996509
21
12.988838
0
LINE
8
0
10
95.996509
20
12.988838
11
94.465541
21
13.632735
0
LINE
8
0
10
94.465541
20
13.632735
11
91.935906
21
14.777040
0
LINE
8
0
10
91.935906
20
14.777040
11
88.470666
21
17.133981
0
LINE
8
0
10
88.470666
20
17.133981
11
87.115647
21
19.609719
0
LINE
8
0
10
87.115647
20
19.609719
11
87.852662
21
22.237478
0
LINE
8
0
10
87.852662
20
22.237478
11
89.000000
21
23.618749
0
LINE
8
0
10
89.000000
20
23.618749
11
90.125000
21
24.493749
0
LINE
8
0
10
90.125000
20
24.493749
11
93.125000
21
25.493749
0
LINE
8
0
10
93.125000
20
25.493749
11
95.000000
21
25.618749
0
LINE
8
0
10
95.000000
20
25.618749
11
97.888224
21
25.178796
0
LINE
8
0
10
97.888224
20
25.178796
11
101.492640
21
23.267332
0
LINE
8
0
10
101.492640
20
23.267332
11
102.815522
21
21.530407
0
LINE
8
0
10
102.815522
20
21.530407
11
103.000000
21
20.618749
0
LINE
8
0
10
103.000000
20
20.618749
11
102.875982
21
20.050249
0
LINE
8
0
10
102.875982
20
20.050249
11
102.062145
21
19.592159
0
LINE
8
0
10
102.062145
20
19.592159
11
100.318431
21
20.348106
0
LINE
8
0
10
100.318431
20
20.348106
11
99.500738
21
21.616425
0
LINE
8
0
10
99.500738
20
21.616425
11
98.694683
21
22.998263
0
LINE
8
0
10
98.694683
20
22.998263
11
95.885737
21
24.305468
0
LINE
8
0
10
95.885737
20
24.305468
11
92.640748
21
23.837838
0
LINE
8
0
10
92.640748
20
23.837838
11
90.351403
21
21.795926
0
LINE
8
0
10
90.351403
20
21.795926
11
90.000000
21
20.247288
0
LINE
8
0
10
90.000000
20
20.247288
11
90.255025
21
18.994575
0
LINE
8
0
10
90.255025
20
18.994575
11
91.960539
21
17.338890
0
LINE
8
0
10
91.960539
20
17.338890
11
94.321726
21
16.104204
0
LINE
8
0
10
94.321726
20
16.104204
11
95.957565
21
15.375638
0
LINE
8
0
10
95.957565
20
15.375638
11
98.874472
21
14.004813
0
LINE
8
0
10
98.874472
20
14.004813
11
101.983150
21
11.541447
0
LINE
8
0
10
101.983150
20
11.541447
11
102.588807
21
10.120935
0
LINE
8
0
10
102.588807
20
10.120935
11
102.672699
21
8.298206
0
LINE
8
0
10
102.672699
20
8.298206
11
100.898899
21
5.193570
0
LINE
8
0
10
100.898899
20
5.193570
11
97.387701
21
3.275189
0
LINE
8
0
10
97.387701
20
3.275189
11
93.160761
21
3.101257
0
LINE
8
0
10
93.160761
20
3.101257
11
91.098156
21
3.842895
0
LINE
8
0
10
238.522828
20
4.183465
11
237.148344
21
4.943939
0
LINE
8
0
10
237.148344
20
4.943939
11
235.292777
21
6.477005
0
LINE
8
0
10
235.292777
20
6.477005
11
234.364118
21
8.642523
0
LINE
8
0
10
234.364118
20
8.642523
11
234.045215
21
12.180053
0
LINE
8
0
10
234.045215
20
12.180053
11
234.015313
21
14.694435
0
LINE
8
0
10
234.015313
20
14.694435
11
234.029639
21
16.600053
0
LINE
8
0
10
234.029639
20
16.600053
11
234.218099
21
19.432826
0
LINE
8
0
10
234.218099
20
19.432826
11
235.123054
21
22.083555
0
LINE
8
0
10
235.123054
20
22.083555
11
236.314451
21
23.444435
0
LINE
8
0
10
236.314451
20
23.444435
11
238.114968
21
24.665747
0
LINE
8
0
10
238.114968
20
24.665747
11
242.500460
21
25.610045
0
LINE
8
0
10
242.500460
20
25.610045
11
246.783296
21
24.779353
0
LINE
8
0
10
246.783296
20
24.779353
11
249.585159
21
22.441008
0
LINE
8
0
10
249.585159
20
22.441008
11
250.000000
21
20.790008
0
LINE
8
0
10
250.000000
20
20.790008
11
249.860329
21
19.885158
0
LINE
8
0
10
249.860329
20
19.885158
11
248.897689
21
20.020538
0
LINE
8
0
10
248.897689
20
20.020538
11
247.539767
21
21.189333
0
LINE
8
0
10
247.539767
20
21.189333
11
246.590909
21
22.118749
0
LINE
8
0
10
246.590909
20
22.118749
11
245.466912
21
23.149879
0
LINE
8
0
10
245.466912
20
23.149879
11
243.455199
21
24.332377
0
LINE
8
0
10
243.455199
20
24.332377
11
241.565717
21
24.342932
0
LINE
8
0
10
241.565717
20
24.342932
11
239.567092
21
23.182839
0
LINE
8
0
10
239.567092
20
23.182839
11
238.454545
21
22.164203
0
LINE
8
0
10
238.454545
20
22.164203
11
237.242796
21
20.729601
0
LINE
8
0
10
237.242796
20
20.729601
11
236.107447
21
17.239454
0
LINE
8
0
10
236.107447
20
17.239454
11
236.000000
21
14.618749
0
LINE
8
0
10
236.000000
20
14.618749
11
236.107447
21
11.998044
0
LINE
8
0
10
236.107447
20
11.998044
11
237.242796
21
8.507897
0
LINE
8
0
10
237.242796
20
8.507897
11
238.454545
21
7.073294
0
LINE
8
0
10
238.454545
20
7.073294
11
240.027490
21
5.808674
0
LINE
8
0
10
240.027490
20
5.808674
11
243.254564
21
4.739895
0
LINE
8
0
10
243.254564
20
4.739895
11
246.047625
21
5.475570
0
LINE
8
0
10
246.047625
20
5.475570
11
247.755956
21
7.844306
0
LINE
8
0
10
247.755956
20
7.844306
11
248.000000
21
9.587510
0
LINE
8
0
10
248.000000
20
9.587510
11
247.889763
21
11.067148
0
LINE
8
0
10
247.889763
20
11.067148
11
246.638038
21
12.576038
0
LINE
8
0
10
246.638038
20
12.576038
11
245.250000
21
12.902494
0
LINE
8
0
10
245.250000
20
12.902494
11
244.155012
21
13.106888
0
LINE
8
0
10
244.155012
20
13.106888
11
244.754422
21
13.376946
0
LINE
8
0
10
244.754422
20
13.376946
11
246.507206
21
13.468917
0
LINE
8
0
10
246.507206
20
13.468917
11
250.514412
21
13.618749
0
LINE
8
0
10
250.514412
20
13.618749
11
250.161643
21
9.183261
0
LINE
8
0
10
250.161643
20
9.183261
11
249.877002
21
6.804721
0
LINE
8
0
10
249.877002
20
6.804721
11
248.380523
21
4.388515
0
LINE
8
0
10
248.380523
20
4.388515
11
246.755214
21
3.683261
0
LINE
8
0
10
246.755214
20
3.683261
11
244.285889
21
2.915828
0
LINE
8
0
10
244.285889
20
2.915828
11
240.742527
21
3.131125
0
LINE
8
0
10
240.742527
20
3.131125
11
238.522828
21
4.183465
0
LINE
8
0
10
488.399661
20
4.034706
11
487.142738
21
4.701833
0
LINE
8
0
10
487.142738
20
4.701833
11
485.132149
21
6.362060
0
LINE
8
0
10
485.132149
20
6.362060
11
484.626122
21
7.150675
0
LINE
8
0
10
484.626122
20
7.150675
11
484.320841
21
8.102849
0
LINE
8
0
10
484.320841
20
8.102849
11
484.338369
21
9.207286
0
LINE
8
0
10
484.338369
20
9.207286
11
485.107106
21
9.241356
0
LINE
8
0
10
485.107106
20
9.241356
11
486.523551
21
8.200470
0
LINE
8
0
10
486.523551
20
8.200470
11
487.442321
21
7.275486
0
LINE
8
0
10
487.442321
20
7.275486
11
488.936601
21
6.030402
0
LINE
8
0
10
488.936601
20
6.030402
11
492.375638
21
4.824193
0
LINE
8
0
10
492.375638
20
4.824193
11
495.615165
21
5.229757
0
LINE
8
0
10
495.615165
20
5.229757
11
497.695011
21
7.126889
0
LINE
8
0
10
497.695011
20
7.126889
11
498.000000
21
8.597229
0
LINE
8
0
10
498.000000
20
8.597229
11
497.408733
21
10.272523
0
LINE
8
0
10
497.408733
20
10.272523
11
493.943332
21
13.131030
0
LINE
8
0
10
493.943332
20
13.131030
11
491.912352
21
13.618749
0
LINE
8
0
10
491.912352
20
13.618749
11
489.710847
21
14.274437
0
LINE
8
0
10
489.710847
20
14.274437
11
486.486205
21
16.921212
0
LINE
8
0
10
486.486205
20
16.921212
11
485.187985
21
19.052004
0
LINE
8
0
10
485.187985
20
19.052004
11
485.000000
21
20.036341
0
LINE
8
0
10
485.000000
20
20.036341
11
485.140538
21
21.239636
0
LINE
8
0
10
485.140538
20
21.239636
11
486.211779
21
23.277281
0
LINE
8
0
10
486.211779
20
23.277281
11
488.218656
21
24.737219
0
LINE
8
0
10
488.218656
20
24.737219
11
491.019667
21
25.516512
0
LINE
8
0
10
491.019667
20
25.516512
11
492.673753
21
25.618749
0
LINE
8
0
10
492.673753
20
25.618749
11
495.494941
21
25.232578
0
LINE
8
0
10
495.494941
20
25.232578
11
498.729718
21
23.468850
0
LINE
8
0
10
498.729718
20
23.468850
11
499.848190
21
21.749479
0
LINE
8
0
10
499.848190
20
21.749479
11
500.000000
21
20.790008
0
LINE
8
0
10
500.000000
20
20.790008
11
499.860329
21
19.885158
0
LINE
8
0
10
499.860329
20
19.885158
11
498.897689
21
20.020538
0
LINE
8
0
10
498.897689
20
20.020538
11
497.539767
21
21.189333
0
LINE
8
0
10
497.539767
20
21.189333
11
496.590909
21
22.118749
0
LINE
8
0
10
496.590909
20
22.118749
11
495.523522
21
23.111163
0
LINE
8
0
10
495.523522
20
23.111163
11
493.646532
21
24.293181
0
LINE
8
0
10
493.646532
20
24.293181
11
491.885109
21
24.421389
0
LINE
8
0
10
491.885109
20
24.421389
11
489.965480
21
23.515714
0
LINE
8
0
10
489.965480
20
23.515714
11
488.860784
21
22.681399
0
LINE
8
0
10
488.860784
20
22.681399
11
487.916305
21
21.737321
0
LINE
8
0
10
487.916305
20
21.737321
11
487.257307
21
19.881111
0
LINE
8
0
10
487.257307
20
19.881111
11
488.207787
21
18.123828
0
LINE
8
0
10
488.207787
20
18.123828
11
490.731183
21
16.533071
0
LINE
8
0
10
490.731183
20
16.533071
11
492.571298
21
15.821265
0
LINE
8
0
10
492.571298
20
15.821265
11
495.830615
21
14.432713
0
LINE
8
0
10
495.830615
20
14.432713
11
498.223728
21
12.916277
0
LINE
8
0
10
498.223728
20
12.916277
11
499.428506
21
11.081873
0
LINE
8
0
10
499.428506
20
11.081873
11
499.929311
21
7.566327
0
LINE
8
0
10
499.929311
20
7.566327
11
499.337595
21
5.550718
0
LINE
8
0
10
499.337595
20
5.550718
11
498.750000
21
4.856666
0
LINE
8
0
10
498.750000
20
4.856666
11
496.623981
21
3.764059
0
LINE
8
0
10
496.623981
20
3.764059
11
491.034818
21
3.320202
0
LINE
8
0
10
491.034818
20
3.320202
11
488.399661
21
4.034706
0
LINE
8
0
10
432.000000
20
14.618749
11
432.000000
21
25.618749
0
LINE
8
0
10
432.000000
20
25.618749
11
439.559017
21
25.618749
0
LINE
8
0
10
439.559017
20
25.618749
11
442.717104
21
25.551512
0
LINE
8
0
10
442.717104
20
25.551512
11
445.737336
21
25.213320
0
LINE
8
0
10
445.737336
20
25.213320
11
446.510320
21
24.843452
0
LINE
8
0
10
446.510320
20
24.843452
11
446.500000
21
24.618749
0
LINE
8
0
10
446.500000
20
24.618749
11
445.786485
21
24.230468
0
LINE
8
0
10
445.786485
20
24.230468
11
442.259595
21
23.697655
0
LINE
8
0
10
442.259595
20
23.697655
11
439.880618
21
23.618749
0
LINE
8
0
10
439.880618
20
23.618749
11
433.879269
21
23.618749
0
LINE
8
0
10
433.879269
20
23.618749
11
434.189635
21
19.868749
0
LINE
8
0
10
434.189635
20
19.868749
11
434.500000
21
16.118749
0
LINE
8
0
10
434.500000
20
16.118749
11
439.750000
21
15.816489
0
LINE
8
0
10
439.750000
20
15.816489
11
442.035510
21
15.606370
0
LINE
8
0
10
442.035510
20
15.606370
11
444.588450
21
14.944041
0
LINE
8
0
10
444.588450
20
14.944041
11
444.485451
21
14.207886
0
LINE
8
0
10
444.485451
20
14.207886
11
441.768312
21
13.696657
0
LINE
8
0
10
441.768312
20
13.696657
11
439.442502
21
13.618749
0
LINE
8
0
10
439.442502
20
13.618749
11
433.885004
21
13.618749
0
LINE
8
0
10
433.885004
20
13.618749
11
434.192502
21
9.368749
0
LINE
8
0
10
434.192502
20
9.368749
11
434.500000
21
5.118749
0
LINE
8
0
10
434.500000
20
5.118749
11
441.000000
21
4.541348
0
LINE
8
0
10
441.000000
20
4.541348
11
447.500000
21
3.963947
0
LINE
8
0
10
447.500000
20
3.963947
11
439.750000
21
3.791348
0
LINE
8
0
10
439.750000
20
3.791348
11
432.000000
21
3.618749
0
LINE
8
0
10
432.000000
20
3.618749
11
432.000000
21
14.618749
0
LINE
8
0
10
6.399661
20
4.023994
11
5.110861
21
4.660211
0
LINE
8
0
10
5.110861
20
4.660211
11
3.324287
21
6.171685
0
LINE
8
0
10
3.324287
20
6.171685
11
2.382104
21
8.527801
0
LINE
8
0
10
2.382104
20
8.527801
11
2.031940
21
12.359665
0
LINE
8
0
10
2.031940
20
12.359665
11
2.000000
21
15.026222
0
LINE
8
0
10
2.000000
20
15.026222
11
2.019879
21
16.815836
0
LINE
8
0
10
2.019879
20
16.815836
11
2.220784
21
19.509214
0
LINE
8
0
10
2.220784
20
19.509214
11
3.134381
21
22.096197
0
LINE
8
0
10
3.134381
20
22.096197
11
4.314451
21
23.444435
0
LINE
8
0
10
4.314451
20
23.444435
11
5.588023
21
24.370636
0
LINE
8
0
10
5.588023
20
24.370636
11
8.798682
21
25.479568
0
LINE
8
0
10
8.798682
20
25.479568
11
12.272483
21
25.579352
0
LINE
8
0
10
12.272483
20
25.579352
11
15.263569
21
24.648563
0
LINE
8
0
10
15.263569
20
24.648563
11
16.345012
21
23.790008
0
LINE
8
0
10
16.345012
20
23.790008
11
17.438162
21
22.131104
0
LINE
8
0
10
17.438162
20
22.131104
11
17.963909
21
19.723158
0
LINE
8
0
10
17.963909
20
19.723158
11
17.497437
21
18.758225
0
LINE
8
0
10
17.497437
20
18.758225
11
17.000000
21
18.618749
0
LINE
8
0
10
17.000000
20
18.618749
11
16.293750
21
18.912499
0
LINE
8
0
10
16.293750
20
18.912499
11
16.000000
21
19.618749
0
LINE
8
0
10
16.000000
20
19.618749
11
15.375802
21
21.055346
0
LINE
8
0
10
15.375802
20
21.055346
11
12.047862
21
24.055948
0
LINE
8
0
10
12.047862
20
24.055948
11
10.454545
21
24.618749
0
LINE
8
0
10
10.454545
20
24.618749
11
9.660795
21
24.425070
0
LINE
8
0
10
9.660795
20
24.425070
11
7.529545
21
23.117257
0
LINE
8
0
10
7.529545
20
23.117257
11
6.454545
21
22.164203
0
LINE
8
0
10
6.454545
20
22.164203
11
4.987975
21
20.025454
0
LINE
8
0
10
4.987975
20
20.025454
11
3.956693
21
14.493054
0
LINE
8
0
10
3.956693
20
14.493054
11
5.124847
21
8.898446
0
LINE
8
0
10
5.124847
20
8.898446
11
7.201521
21
5.824601
0
LINE
8
0
10
7.201521
20
5.824601
11
9.063060
21
4.762801
0
LINE
8
0
10
9.063060
20
4.762801
11
10.118035
21
4.618749
0
LINE
8
0
10
10.118035
20
4.618749
11
11.081330
21
4.816014
0
LINE
8
0
10
11.081330
20
4.816014
11
13.464534
21
6.148046
0
LINE
8
0
10
13.464534
20
6.148046
11
14.590909
21
7.118749
0
LINE
8
0
10
14.590909
20
7.118749
11
15.556990
21
8.065391
0
LINE
8
0
10
15.556990
20
8.065391
11
16.924051
21
9.236361
0
LINE
8
0
10
16.924051
20
9.236361
11
17.868765
21
9.290996
0
LINE
8
0
10
17.868765
20
9.290996
11
18.000000
21
8.273736
0
LINE
8
0
10
18.000000
20
8.273736
11
17.695620
21
6.906207
0
LINE
8
0
10
17.695620
20
6.906207
11
15.577184
21
4.694674
0
LINE
8
0
10
15.577184
20
4.694674
11
12.149421
21
3.438925
0
LINE
8
0
10
12.149421
20
3.438925
11
8.256615
21
3.448262
0
LINE
8
0
10
8.256615
20
3.448262
11
6.399661
21
4.023994
0
LINE
8
0
10
406.500000
20
14.618749
11
406.500000
21
25.618749
0
LINE
8
0
10
406.500000
20
25.618749
11
413.750000
21
25.618749
0
LINE
8
0
10
413.750000
20
25.618749
11
416.640625
21
25.543318
0
LINE
8
0
10
416.640625
20
25.543318
11
420.453125
21
25.017456
0
LINE
8
0
10
420.453125
20
25.017456
11
421.000000
21
24.618749
0
LINE
8
0
10
421.000000
20
24.618749
11
420.531250
21
24.228124
0
LINE
8
0
10
420.531250
20
24.228124
11
417.343750
21
23.696874
0
LINE
8
0
10
417.343750
20
23.696874
11
415.000000
21
23.618749
0
LINE
8
0
10
415.000000
20
23.618749
11
409.000000
21
23.618749
0
LINE
8
0
10
409.000000
20
23.618749
11
409.000000
21
19.618749
0
LINE
8
0
10
409.000000
20
19.618749
11
409.000000
21
15.618749
0
LINE
8
0
10
409.000000
20
15.618749
11
414.559017
21
15.618749
0
LINE
8
0
10
414.559017
20
15.618749
11
416.841051
21
15.549807
0
LINE
8
0
10
416.841051
20
15.549807
11
419.375198
21
15.036924
0
LINE
8
0
10
419.375198
20
15.036924
11
419.500000
21
14.618749
0
LINE
8
0
10
419.500000
20
14.618749
11
418.865618
21
14.230468
0
LINE
8
0
10
418.865618
20
14.230468
11
415.873068
21
13.697655
0
LINE
8
0
10
415.873068
20
13.697655
11
413.883485
21
13.618749
0
LINE
8
0
10
413.883485
20
13.618749
11
408.885004
21
13.618749
0
LINE
8
0
10
408.885004
20
13.618749
11
409.192502
21
9.368749
0
LINE
8
0
10
409.192502
20
9.368749
11
409.500000
21
5.118749
0
LINE
8
0
10
409.500000
20
5.118749
11
415.500000
21
4.536857
0
LINE
8
0
10
415.500000
20
4.536857
11
421.500000
21
3.954964
0
LINE
8
0
10
421.500000
20
3.954964
11
414.000000
21
3.786857
0
LINE
8
0
10
414.000000
20
3.786857
11
406.500000
21
3.618749
0
LINE
8
0
10
406.500000
20
3.618749
11
406.500000
21
14.618749
0
LINE
8
0
10
278.000000
20
14.618749
11
278.000000
21
25.618749
0
LINE
8
0
10
278.000000
20
25.618749
11
285.000000
21
25.618749
0
LINE
8
0
10
285.000000
20
25.618749
11
287.781250
21
25.542856
0
LINE
8
0
10
287.781250
20
25.542856
11
291.468750
21
25.016070
0
LINE
8
0
10
291.468750
20
25.016070
11
292.000000
21
24.618749
0
LINE
8
0
10
292.000000
20
24.618749
11
291.531250
21
24.228124
0
LINE
8
0
10
291.531250
20
24.228124
11
288.343750
21
23.696874
0
LINE
8
0
10
288.343750
20
23.696874
11
286.000000
21
23.618749
0
LINE
8
0
10
286.000000
20
23.618749
11
280.000000
21
23.618749
0
LINE
8
0
10
280.000000
20
23.618749
11
280.000000
21
19.618749
0
LINE
8
0
10
280.000000
20
19.618749
11
280.000000
21
15.618749
0
LINE
8
0
10
280.000000
20
15.618749
11
285.559017
21
15.618749
0
LINE
8
0
10
285.559017
20
15.618749
11
287.841051
21
15.549807
0
LINE
8
0
10
287.841051
20
15.549807
11
290.375198
21
15.036924
0
LINE
8
0
10
290.375198
20
15.036924
11
290.500000
21
14.618749
0
LINE
8
0
10
290.500000
20
14.618749
11
289.865618
21
14.230468
0
LINE
8
0
10
289.865618
20
14.230468
11
286.873068
21
13.697655
0
LINE
8
0
10
286.873068
20
13.697655
11
284.883485
21
13.618749
0
LINE
8
0
10
284.883485
20
13.618749
11
279.885004
21
13.618749
0
LINE
8
0
10
279.885004
20
13.618749
11
280.192502
21
9.368749
0
LINE
8
0
10
280.192502
20
9.368749
11
280.500000
21
5.118749
0
LINE
8
0
10
280.500000
20
5.118749
11
286.500000
21
4.536857
0
LINE
8
0
10
286.500000
20
4.536857
11
292.500000
21
3.954964
0
LINE
8
0
10
292.500000
20
3.954964
11
285.250000
21
3.786857
0
LINE
8
0
10
285.250000
20
3.786857
11
278.000000
21
3.618749
0
LINE
8
0
10
278.000000
20
3.618749
11
278.000000
21
14.618749
0
LINE
8
0
10
333.750000
20
195.698848
11
332.997780
21
196.362824
0
LINE
8
0
10
332.997780
20
196.362824
11
332.113843
21
198.631273
0
LINE
8
0
10
332.113843
20
198.631273
11
332.000000
21
200.189878
0
LINE
8
0
10
332.000000
20
200.189878
11
332.114644
21
201.951487
0
LINE
8
0
10
332.114644
20
201.951487
11
333.316343
21
204.107903
0
LINE
8
0
10
333.316343
20
204.107903
11
334.593100
21
204.843122
0
LINE
8
0
10
334.593100
20
204.843122
11
336.741986
21
205.380846
0
LINE
8
0
10
336.741986
20
205.380846
11
340.477825
21
204.226070
0
LINE
8
0
10
340.477825
20
204.226070
11
342.649435
21
201.224227
0
LINE
8
0
10
342.649435
20
201.224227
11
342.278835
21
197.727194
0
LINE
8
0
10
342.278835
20
197.727194
11
340.834586
21
196.215442
0
LINE
8
0
10
340.834586
20
196.215442
11
338.977947
21
195.158786
0
LINE
8
0
10
338.977947
20
195.158786
11
335.544237
21
194.908406
0
LINE
8
0
10
335.544237
20
194.908406
11
333.750000
21
195.698848
0
LINE
8
0
10
317.938507
20
107.680242
11
317.089216
21
108.704367
0
LINE
8
0
10
317.089216
20
108.704367
11
316.268134
21
110.839226
0
LINE
8
0
10
316.268134
20
110.839226
11
316.591725
21
112.926232
0
LINE
8
0
10
316.591725
20
112.926232
11
318.029602
21
114.769384
0
LINE
8
0
10
318.029602
20
114.769384
11
319.156900
21
115.538265
0
LINE
8
0
10
319.156900
20
115.538265
11
320.585064
21
116.223474
0
LINE
8
0
10
320.585064
20
116.223474
11
323.007581
21
116.364145
0
LINE
8
0
10
323.007581
20
116.364145
11
324.406900
21
115.843122
0
LINE
8
0
10
324.406900
20
115.843122
11
325.690076
21
115.104613
0
LINE
8
0
10
325.690076
20
115.104613
11
326.887496
21
112.921502
0
LINE
8
0
10
326.887496
20
112.921502
11
327.000000
21
111.115437
0
LINE
8
0
10
327.000000
20
111.115437
11
326.892814
21
109.302863
0
LINE
8
0
10
326.892814
20
109.302863
11
325.716529
21
107.229455
0
LINE
8
0
10
325.716529
20
107.229455
11
324.434900
21
106.593998
0
LINE
8
0
10
324.434900
20
106.593998
11
322.245479
21
105.862452
0
LINE
8
0
10
322.245479
20
105.862452
11
319.440792
21
106.331416
0
LINE
8
0
10
319.440792
20
106.331416
11
317.938507
21
107.680242
0
LINE
8
0
10
169.000000
20
13.618749
11
169.000000
21
23.618749
0
LINE
8
0
10
169.000000
20
23.618749
11
165.000000
21
23.618749
0
LINE
8
0
10
165.000000
20
23.618749
11
163.446875
21
23.697655
0
LINE
8
0
10
163.446875
20
23.697655
11
161.315625
21
24.230468
0
LINE
8
0
10
161.315625
20
24.230468
11
161.000000
21
24.618749
0
LINE
8
0
10
161.000000
20
24.618749
11
161.167969
21
24.831856
0
LINE
8
0
10
161.167969
20
24.831856
11
162.441406
21
25.195572
0
LINE
8
0
10
162.441406
20
25.195572
11
166.343750
21
25.545832
0
LINE
8
0
10
166.343750
20
25.545832
11
170.000000
21
25.618749
0
LINE
8
0
10
170.000000
20
25.618749
11
173.656250
21
25.545832
0
LINE
8
0
10
173.656250
20
25.545832
11
177.558594
21
25.195572
0
LINE
8
0
10
177.558594
20
25.195572
11
178.832031
21
24.831856
0
LINE
8
0
10
178.832031
20
24.831856
11
179.000000
21
24.618749
0
LINE
8
0
10
179.000000
20
24.618749
11
178.684375
21
24.230468
0
LINE
8
0
10
178.684375
20
24.230468
11
176.553125
21
23.697655
0
LINE
8
0
10
176.553125
20
23.697655
11
175.000000
21
23.618749
0
LINE
8
0
10
175.000000
20
23.618749
11
171.000000
21
23.618749
0
LINE
8
0
10
171.000000
20
23.618749
11
171.000000
21
13.618749
0
LINE
8
0
10
171.000000
20
13.618749
11
170.928125
21
9.524999
0
LINE
8
0
10
170.928125
20
9.524999
11
170.580078
21
5.200780
0
LINE
8
0
10
170.580078
20
5.200780
11
170.215234
21
3.802343
0
LINE
8
0
10
170.215234
20
3.802343
11
170.000000
21
3.618749
0
LINE
8
0
10
170.000000
20
3.618749
11
169.784766
21
3.802343
0
LINE
8
0
10
169.784766
20
3.802343
11
169.419922
21
5.200780
0
LINE
8
0
10
169.419922
20
5.200780
11
169.071875
21
9.524999
0
LINE
8
0
10
169.071875
20
9.524999
11
169.000000
21
13.618749
0
LINE
8
0
10
361.000000
20
14.618749
11
361.013494
21
17.707291
0
LINE
8
0
10
361.013494
20
17.707291
11
361.147017
21
22.103124
0
LINE
8
0
10
361.147017
20
22.103124
11
361.479403
21
24.540624
0
LINE
8
0
10
361.479403
20
24.540624
11
362.078835
21
25.519791
0
LINE
8
0
10
362.078835
20
25.519791
11
362.500000
21
25.618749
0
LINE
8
0
10
362.500000
20
25.618749
11
362.921165
21
25.519791
0
LINE
8
0
10
362.921165
20
25.519791
11
363.520597
21
24.540624
0
LINE
8
0
10
363.520597
20
24.540624
11
363.852983
21
22.103124
0
LINE
8
0
10
363.852983
20
22.103124
11
363.986506
21
17.707291
0
LINE
8
0
10
363.986506
20
17.707291
11
364.000000
21
14.618749
0
LINE
8
0
10
364.000000
20
14.618749
11
363.986506
21
11.530207
0
LINE
8
0
10
363.986506
20
11.530207
11
363.852983
21
7.134374
0
LINE
8
0
10
363.852983
20
7.134374
11
363.520597
21
4.696874
0
LINE
8
0
10
363.520597
20
4.696874
11
362.921165
21
3.717707
0
LINE
8
0
10
362.921165
20
3.717707
11
362.500000
21
3.618749
0
LINE
8
0
10
362.500000
20
3.618749
11
362.078835
21
3.717707
0
LINE
8
0
10
362.078835
20
3.717707
11
361.479403
21
4.696874
0
LINE
8
0
10
361.479403
20
4.696874
11
361.147017
21
7.134374
0
LINE
8
0
10
361.147017
20
7.134374
11
361.013494
21
11.530207
0
LINE
8
0
10
361.013494
20
11.530207
11
361.000000
21
14.618749
0
LINE
8
0
10
189.000000
20
14.618749
11
189.013494
21
17.707291
0
LINE
8
0
10
189.013494
20
17.707291
11
189.147017
21
22.103124
0
LINE
8
0
10
189.147017
20
22.103124
11
189.479403
21
24.540624
0
LINE
8
0
10
189.479403
20
24.540624
11
190.078835
21
25.519791
0
LINE
8
0
10
190.078835
20
25.519791
11
190.500000
21
25.618749
0
LINE
8
0
10
190.500000
20
25.618749
11
190.921165
21
25.519791
0
LINE
8
0
10
190.921165
20
25.519791
11
191.520597
21
24.540624
0
LINE
8
0
10
191.520597
20
24.540624
11
191.852983
21
22.103124
0
LINE
8
0
10
191.852983
20
22.103124
11
191.986506
21
17.707291
0
LINE
8
0
10
191.986506
20
17.707291
11
192.000000
21
14.618749
0
LINE
8
0
10
192.000000
20
14.618749
11
191.986506
21
11.530207
0
LINE
8
0
10
191.986506
20
11.530207
11
191.852983
21
7.134374
0
LINE
8
0
10
191.852983
20
7.134374
11
191.520597
21
4.696874
0
LINE
8
0
10
191.520597
20
4.696874
11
190.921165
21
3.717707
0
LINE
8
0
10
190.921165
20
3.717707
11
190.500000
21
3.618749
0
LINE
8
0
10
190.500000
20
3.618749
11
190.078835
21
3.717707
0
LINE
8
0
10
190.078835
20
3.717707
11
189.479403
21
4.696874
0
LINE
8
0
10
189.479403
20
4.696874
11
189.147017
21
7.134374
0
LINE
8
0
10
189.147017
20
7.134374
11
189.013494
21
11.530207
0
LINE
8
0
10
189.013494
20
11.530207
11
189.000000
21
14.618749
0
LINE
8
0
10
143.000000
20
14.618749
11
143.020629
21
17.092772
0
LINE
8
0
10
143.020629
20
17.092772
11
143.171287
21
21.091046
0
LINE
8
0
10
143.171287
20
21.091046
11
143.435875
21
23.812143
0
LINE
8
0
10
143.435875
20
23.812143
11
143.776071
21
25.243086
0
LINE
8
0
10
143.776071
20
25.243086
11
144.153548
21
25.370899
0
LINE
8
0
10
144.153548
20
25.370899
11
144.529985
21
24.182606
0
LINE
8
0
10
144.529985
20
24.182606
11
144.867055
21
21.665230
0
LINE
8
0
10
144.867055
20
21.665230
11
145.126436
21
17.805794
0
LINE
8
0
10
145.126436
20
17.805794
11
145.215017
21
15.368749
0
LINE
8
0
10
145.215017
20
15.368749
11
145.500000
21
5.118749
0
LINE
8
0
10
145.500000
20
5.118749
11
151.000000
21
4.531745
0
LINE
8
0
10
151.000000
20
4.531745
11
156.500000
21
3.944742
0
LINE
8
0
10
156.500000
20
3.944742
11
149.750000
21
3.781745
0
LINE
8
0
10
149.750000
20
3.781745
11
143.000000
21
3.618749
0
LINE
8
0
10
143.000000
20
3.618749
11
143.000000
21
14.618749
0
LINE
8
0
10
258.312909
20
151.423468
11
259.816197
21
153.222452
0
LINE
8
0
10
259.816197
20
153.222452
11
260.826931
21
156.820824
0
LINE
8
0
10
260.826931
20
156.820824
11
260.989873
21
161.399571
0
LINE
8
0
10
260.989873
20
161.399571
11
261.000000
21
164.749154
0
LINE
8
0
10
261.000000
20
164.749154
11
260.988695
21
168.029703
0
LINE
8
0
10
260.988695
20
168.029703
11
260.830829
21
172.550027
0
LINE
8
0
10
260.830829
20
172.550027
11
259.918751
21
176.022175
0
LINE
8
0
10
259.918751
20
176.022175
11
258.598293
21
177.526408
0
LINE
8
0
10
258.598293
20
177.526408
11
255.757299
21
179.273458
0
LINE
8
0
10
255.757299
20
179.273458
11
252.299435
21
180.305412
0
LINE
8
0
10
252.299435
20
180.305412
11
250.207822
21
180.460973
0
LINE
8
0
10
250.207822
20
180.460973
11
246.985896
21
179.482756
0
LINE
8
0
10
246.985896
20
179.482756
11
245.230399
21
178.159163
0
LINE
8
0
10
245.230399
20
178.159163
11
243.412707
21
176.198282
0
LINE
8
0
10
243.412707
20
176.198282
11
240.903359
21
170.924984
0
LINE
8
0
10
240.903359
20
170.924984
11
239.999463
21
164.580179
0
LINE
8
0
10
239.999463
20
164.580179
11
240.825910
21
158.040513
0
LINE
8
0
10
240.825910
20
158.040513
11
241.927040
21
154.971560
0
LINE
8
0
10
241.927040
20
154.971560
11
242.768828
21
153.273096
0
LINE
8
0
10
242.768828
20
153.273096
11
244.548786
21
150.795334
0
LINE
8
0
10
244.548786
20
150.795334
11
246.743253
21
149.355474
0
LINE
8
0
10
246.743253
20
149.355474
11
249.695429
21
148.728330
0
LINE
8
0
10
249.695429
20
148.728330
11
251.562909
21
148.649158
0
LINE
8
0
10
251.562909
20
148.649158
11
253.659933
21
148.764956
0
LINE
8
0
10
253.659933
20
148.764956
11
256.819598
21
150.063607
0
LINE
8
0
10
256.819598
20
150.063607
11
258.312909
21
151.423468
0
LINE
8
0
10
245.751822
20
61.826739
11
247.179835
21
63.549329
0
LINE
8
0
10
247.179835
20
63.549329
11
249.235270
21
68.998381
0
LINE
8
0
10
249.235270
20
68.998381
11
250.054141
21
75.729239
0
LINE
8
0
10
250.054141
20
75.729239
11
249.433518
21
82.073881
0
LINE
8
0
10
249.433518
20
82.073881
11
248.519980
21
84.580113
0
LINE
8
0
10
248.519980
20
84.580113
11
247.039964
21
86.906083
0
LINE
8
0
10
247.039964
20
86.906083
11
243.295507
21
90.189069
0
LINE
8
0
10
243.295507
20
90.189069
11
238.955882
21
91.509622
0
LINE
8
0
10
238.955882
20
91.509622
11
234.561968
21
90.703152
0
LINE
8
0
10
234.561968
20
90.703152
11
232.513679
21
89.450849
0
LINE
8
0
10
232.513679
20
89.450849
11
231.040060
21
88.052639
0
LINE
8
0
10
231.040060
20
88.052639
11
228.790775
21
84.510656
0
LINE
8
0
10
228.790775
20
84.510656
11
227.107175
21
77.989807
0
LINE
8
0
10
227.107175
20
77.989807
11
227.864908
21
68.877551
0
LINE
8
0
10
227.864908
20
68.877551
11
230.557816
21
63.260770
0
LINE
8
0
10
230.557816
20
63.260770
11
233.310253
21
60.752006
0
LINE
8
0
10
233.310253
20
60.752006
11
234.962711
21
59.999559
0
LINE
8
0
10
234.962711
20
59.999559
11
237.809462
21
59.466681
0
LINE
8
0
10
237.809462
20
59.466681
11
243.427656
21
60.418145
0
LINE
8
0
10
243.427656
20
60.418145
11
245.751822
21
61.826739
0
LINE
8
0
10
101.000000
20
75.971533
11
100.904665
21
76.504619
0
LINE
8
0
10
100.904665
20
76.504619
11
100.214198
21
78.889735
0
LINE
8
0
10
100.214198
20
78.889735
11
98.290081
21
84.736329
0
LINE
8
0
10
98.290081
20
84.736329
11
95.077219
21
93.887476
0
LINE
8
0
10
95.077219
20
93.887476
11
93.024547
21
99.367909
0
LINE
8
0
10
93.024547
20
99.367909
11
92.187160
21
101.334555
0
LINE
8
0
10
92.187160
20
101.334555
11
92.000000
21
101.606096
0
LINE
8
0
10
92.000000
20
101.606096
11
91.812840
21
101.334555
0
LINE
8
0
10
91.812840
20
101.334555
11
90.975453
21
99.367909
0
LINE
8
0
10
90.975453
20
99.367909
11
88.922781
21
93.887476
0
LINE
8
0
10
88.922781
20
93.887476
11
85.709919
21
84.736329
0
LINE
8
0
10
85.709919
20
84.736329
11
83.785802
21
78.889735
0
LINE
8
0
10
83.785802
20
78.889735
11
83.095335
21
76.504619
0
LINE
8
0
10
83.095335
20
76.504619
11
83.000000
21
75.971533
0
LINE
8
0
10
83.000000
20
75.971533
11
83.183691
21
75.800227
0
LINE
8
0
10
83.183691
20
75.800227
11
84.542480
21
75.495590
0
LINE
8
0
10
84.542480
20
75.495590
11
88.505469
21
75.186039
0
LINE
8
0
10
88.505469
20
75.186039
11
92.000000
21
75.118749
0
LINE
8
0
10
92.000000
20
75.118749
11
95.494531
21
75.186039
0
LINE
8
0
10
95.494531
20
75.186039
11
99.457520
21
75.495590
0
LINE
8
0
10
99.457520
20
75.495590
11
100.816309
21
75.800227
0
LINE
8
0
10
100.816309
20
75.800227
11
101.000000
21
75.971533
0
LINE
8
0
10
362.365141
20
61.691329
11
363.733756
21
62.958879
0
LINE
8
0
10
363.733756
20
62.958879
11
364.907276
21
66.299249
0
LINE
8
0
10
364.907276
20
66.299249
11
365.000000
21
69.191329
0
LINE
8
0
10
365.000000
20
69.191329
11
365.000000
21
74.618749
0
LINE
8
0
10
365.000000
20
74.618749
11
360.467881
21
74.618749
0
LINE
8
0
10
360.467881
20
74.618749
11
356.580847
21
74.291619
0
LINE
8
0
10
356.580847
20
74.291619
11
350.563439
21
71.976171
0
LINE
8
0
10
350.563439
20
71.976171
11
347.431934
21
68.116003
0
LINE
8
0
10
347.431934
20
68.116003
11
347.369655
21
64.690955
0
LINE
8
0
10
347.369655
20
64.690955
11
348.569787
21
62.343740
0
LINE
8
0
10
348.569787
20
62.343740
11
349.572930
21
61.188676
0
LINE
8
0
10
349.572930
20
61.188676
11
350.656765
21
60.439491
0
LINE
8
0
10
350.656765
20
60.439491
11
353.789398
21
59.657700
0
LINE
8
0
10
353.789398
20
59.657700
11
357.510820
21
59.803929
0
LINE
8
0
10
357.510820
20
59.803929
11
360.983641
21
60.845272
0
LINE
8
0
10
360.983641
20
60.845272
11
362.365141
21
61.691329
0
LINE
8
0
10
82.000000
20
150.568806
11
83.280960
21
151.679945
0
LINE
8
0
10
83.280960
20
151.679945
11
84.549889
21
155.034458
0
LINE
8
0
10
84.549889
20
155.034458
11
84.799904
21
157.970570
0
LINE
8
0
10
84.799904
20
157.970570
11
85.099808
21
163.618749
0
LINE
8
0
10
85.099808
20
163.618749
11
80.799904
21
163.562307
0
LINE
8
0
10
80.799904
20
163.562307
11
76.486053
21
163.166113
0
LINE
8
0
10
76.486053
20
163.166113
11
71.268548
21
161.429453
0
LINE
8
0
10
71.268548
20
161.429453
11
68.905247
21
159.620693
0
LINE
8
0
10
68.905247
20
159.620693
11
68.129985
21
158.549455
0
LINE
8
0
10
68.129985
20
158.549455
11
67.477634
21
157.111829
0
LINE
8
0
10
67.477634
20
157.111829
11
67.096787
21
154.430196
0
LINE
8
0
10
67.096787
20
154.430196
11
68.470345
21
151.101694
0
LINE
8
0
10
68.470345
20
151.101694
11
72.910656
21
148.546789
0
LINE
8
0
10
72.910656
20
148.546789
11
78.905784
21
148.964952
0
LINE
8
0
10
78.905784
20
148.964952
11
82.000000
21
150.568806
0
LINE
8
0
10
203.505062
20
148.618749
11
204.272612
21
148.826313
0
LINE
8
0
10
204.272612
20
148.826313
11
206.653044
21
150.227883
0
LINE
8
0
10
206.653044
20
150.227883
11
207.972736
21
151.249261
0
LINE
8
0
10
207.972736
20
151.249261
11
209.628693
21
152.792611
0
LINE
8
0
10
209.628693
20
152.792611
11
210.862740
21
155.957701
0
LINE
8
0
10
210.862740
20
155.957701
11
210.799461
21
158.499261
0
LINE
8
0
10
210.799461
20
158.499261
11
210.500000
21
163.118749
0
LINE
8
0
10
210.500000
20
163.118749
11
204.864355
21
163.098930
0
LINE
8
0
10
204.864355
20
163.098930
11
202.473626
21
162.982852
0
LINE
8
0
10
202.473626
20
162.982852
11
198.103415
21
162.240445
0
LINE
8
0
10
198.103415
20
162.240445
11
196.662200
21
161.705556
0
LINE
8
0
10
196.662200
20
161.705556
11
194.517876
21
159.958022
0
LINE
8
0
10
194.517876
20
159.958022
11
192.838569
21
156.333705
0
LINE
8
0
10
192.838569
20
156.333705
11
192.919485
21
153.738591
0
LINE
8
0
10
192.919485
20
153.738591
11
193.365250
21
152.513306
0
LINE
8
0
10
193.365250
20
152.513306
11
194.816540
21
150.594728
0
LINE
8
0
10
194.816540
20
150.594728
11
199.015659
21
148.128952
0
LINE
8
0
10
199.015659
20
148.128952
11
200.831787
21
148.128861
0
LINE
8
0
10
200.831787
20
148.128861
11
202.166424
21
148.474844
0
LINE
8
0
10
202.166424
20
148.474844
11
203.505062
21
148.618749
0
LINE
8
0
10
446.000000
20
80.650867
11
445.889976
21
81.314945
0
LINE
8
0
10
445.889976
20
81.314945
11
445.147040
21
83.642966
0
LINE
8
0
10
445.147040
20
83.642966
11
444.605633
21
85.020175
0
LINE
8
0
10
444.605633
20
85.020175
11
442.915049
21
87.917929
0
LINE
8
0
10
442.915049
20
87.917929
11
438.194854
21
91.229647
0
LINE
8
0
10
438.194854
20
91.229647
11
432.805146
21
91.229647
0
LINE
8
0
10
432.805146
20
91.229647
11
428.084951
21
87.917929
0
LINE
8
0
10
428.084951
20
87.917929
11
426.394367
21
85.020175
0
LINE
8
0
10
426.394367
20
85.020175
11
425.852960
21
83.642966
0
LINE
8
0
10
425.852960
20
83.642966
11
425.110024
21
81.314945
0
LINE
8
0
10
425.110024
20
81.314945
11
425.000000
21
80.650867
0
LINE
8
0
10
425.000000
20
80.650867
11
425.182472
21
80.421632
0
LINE
8
0
10
425.182472
20
80.421632
11
426.594907
21
80.041308
0
LINE
8
0
10
426.594907
20
80.041308
11
429.298803
21
79.775523
0
LINE
8
0
10
429.298803
20
79.775523
11
433.167927
21
79.636685
0
LINE
8
0
10
433.167927
20
79.636685
11
435.500000
21
79.618749
0
LINE
8
0
10
435.500000
20
79.618749
11
437.832073
21
79.636685
0
LINE
8
0
10
437.832073
20
79.636685
11
441.701197
21
79.775523
0
LINE
8
0
10
441.701197
20
79.775523
11
444.405093
21
80.041308
0
LINE
8
0
10
444.405093
20
80.041308
11
445.817528
21
80.421632
0
LINE
8
0
10
445.817528
20
80.421632
11
446.000000
21
80.650867
0
LINE
8
0
10
41.545455
20
7.073294
11
42.748617
21
8.498225
0
LINE
8
0
10
42.748617
20
8.498225
11
43.889691
21
11.933337
0
LINE
8
0
10
43.889691
20
11.933337
11
44.000000
21
14.462510
0
LINE
8
0
10
44.000000
20
14.462510
11
43.744570
21
17.367353
0
LINE
8
0
10
43.744570
20
17.367353
11
41.936742
21
21.809828
0
LINE
8
0
10
41.936742
20
21.809828
11
38.923213
21
24.041598
0
LINE
8
0
10
38.923213
20
24.041598
11
35.332289
21
23.597349
0
LINE
8
0
10
35.332289
20
23.597349
11
33.516649
21
22.226307
0
LINE
8
0
10
33.516649
20
22.226307
11
32.028710
21
20.068214
0
LINE
8
0
10
32.028710
20
20.068214
11
30.960601
21
14.509985
0
LINE
8
0
10
30.960601
20
14.509985
11
32.107478
21
8.902782
0
LINE
8
0
10
32.107478
20
8.902782
11
34.183935
21
5.825355
0
LINE
8
0
10
34.183935
20
5.825355
11
36.054980
21
4.762860
0
LINE
8
0
10
36.054980
20
4.762860
11
37.118035
21
4.618749
0
LINE
8
0
10
37.118035
20
4.618749
11
38.077744
21
4.812428
0
LINE
8
0
10
38.077744
20
4.812428
11
40.436728
21
6.120240
0
LINE
8
0
10
40.436728
20
6.120240
11
41.545455
21
7.073294
0
LINE
8
0
10
467.498307
20
15.618105
11
468.827626
21
16.252360
0
LINE
8
0
10
468.827626
20
16.252360
11
469.872831
21
18.171119
0
LINE
8
0
10
469.872831
20
18.171119
11
469.813406
21
19.868105
0
LINE
8
0
10
469.813406
20
19.868105
11
469.535973
21
21.697527
0
LINE
8
0
10
469.535973
20
21.697527
11
468.274437
21
22.992009
0
LINE
8
0
10
468.274437
20
22.992009
11
466.262943
21
23.314702
0
LINE
8
0
10
466.262943
20
23.314702
11
464.750000
21
23.423540
0
LINE
8
0
10
464.750000
20
23.423540
11
460.000000
21
23.728331
0
LINE
8
0
10
460.000000
20
23.728331
11
460.000000
21
19.173540
0
LINE
8
0
10
460.000000
20
19.173540
11
460.013427
21
17.783651
0
LINE
8
0
10
460.013427
20
17.783651
11
460.184148
21
15.904557
0
LINE
8
0
10
460.184148
20
15.904557
11
461.116416
21
14.745533
0
LINE
8
0
10
461.116416
20
14.745533
11
462.434900
21
14.618749
0
LINE
8
0
10
462.434900
20
14.618749
11
464.926672
21
14.912310
0
LINE
8
0
10
464.926672
20
14.912310
11
467.498307
21
15.618105
0
ENDSEC
0
EOF
