999
DXF File generated by ImageToStl.com - Free Image and 3D model conversion tools
0
SECTION
2
HEADER
9
$ACADVER
1
AC1009
9
$EXTMIN
10
0
20
0
9
$EXTMAX
10
1241.024763
20
479.953273
0
ENDSEC
0
SECTION
2
ENTITIES
0
LINE
8
0
10
18.463137
20
1.201135
11
18.439086
21
1.565431
0
LINE
8
0
10
18.439086
20
1.565431
11
18.393905
21
4.048048
0
LINE
8
0
10
18.393905
20
4.048048
11
18.352711
21
8.770781
0
LINE
8
0
10
18.352711
20
8.770781
11
18.315617
21
15.615322
0
LINE
8
0
10
18.315617
20
15.615322
11
18.282734
21
24.463368
0
LINE
8
0
10
18.282734
20
24.463368
11
18.254176
21
35.196612
0
LINE
8
0
10
18.254176
20
35.196612
11
18.230054
21
47.696748
0
LINE
8
0
10
18.230054
20
47.696748
11
18.210482
21
61.845471
0
LINE
8
0
10
18.210482
20
61.845471
11
18.195572
21
77.524476
0
LINE
8
0
10
18.195572
20
77.524476
11
18.185437
21
94.615457
0
LINE
8
0
10
18.185437
20
94.615457
11
18.180188
21
113.000109
0
LINE
8
0
10
18.180188
20
113.000109
11
18.179939
21
132.560125
0
LINE
8
0
10
18.179939
20
132.560125
11
18.189185
21
163.845166
0
LINE
8
0
10
18.189185
20
163.845166
11
18.220061
21
208.568145
0
LINE
8
0
10
18.220061
20
208.568145
11
18.243701
21
231.953273
0
LINE
8
0
10
18.243701
20
231.953273
11
18.500000
21
461.453273
0
LINE
8
0
10
18.500000
20
461.453273
11
249.000000
21
461.453273
0
LINE
8
0
10
249.000000
20
461.453273
11
479.500000
21
461.453273
0
LINE
8
0
10
479.500000
20
461.453273
11
479.500000
21
230.953273
0
LINE
8
0
10
479.500000
20
230.953273
11
479.500000
21
0.453273
0
LINE
8
0
10
479.500000
20
0.453273
11
249.219435
21
0.201135
0
LINE
8
0
10
249.219435
20
0.201135
11
232.396253
21
0.183473
0
LINE
8
0
10
232.396253
20
0.183473
11
201.092040
21
0.155527
0
LINE
8
0
10
201.092040
20
0.155527
11
172.799947
21
0.137900
0
LINE
8
0
10
172.799947
20
0.137900
11
147.387077
21
0.131168
0
LINE
8
0
10
147.387077
20
0.131168
11
124.720531
21
0.135906
0
LINE
8
0
10
124.720531
20
0.135906
11
104.667411
21
0.152692
0
LINE
8
0
10
104.667411
20
0.152692
11
87.094821
21
0.182099
0
LINE
8
0
10
87.094821
20
0.182099
11
71.869860
21
0.224706
0
LINE
8
0
10
71.869860
20
0.224706
11
58.859633
21
0.281087
0
LINE
8
0
10
58.859633
20
0.281087
11
47.931240
21
0.351818
0
LINE
8
0
10
47.931240
20
0.351818
11
38.951783
21
0.437475
0
LINE
8
0
10
38.951783
20
0.437475
11
31.788366
21
0.538635
0
LINE
8
0
10
31.788366
20
0.538635
11
26.308089
21
0.655873
0
LINE
8
0
10
26.308089
20
0.655873
11
22.378054
21
0.789765
0
LINE
8
0
10
22.378054
20
0.789765
11
19.865364
21
0.940887
0
LINE
8
0
10
19.865364
20
0.940887
11
18.637121
21
1.109814
0
LINE
8
0
10
18.637121
20
1.109814
11
18.463137
21
1.201135
0
LINE
8
0
10
19.000000
20
230.953273
11
19.000000
21
460.953273
0
LINE
8
0
10
19.000000
20
460.953273
11
249.000000
21
460.953273
0
LINE
8
0
10
249.000000
20
460.953273
11
479.000000
21
460.953273
0
LINE
8
0
10
479.000000
20
460.953273
11
479.000000
21
230.953273
0
LINE
8
0
10
479.000000
20
230.953273
11
479.000000
21
0.953273
0
LINE
8
0
10
479.000000
20
0.953273
11
249.000000
21
0.953273
0
LINE
8
0
10
249.000000
20
0.953273
11
19.000000
21
0.953273
0
LINE
8
0
10
19.000000
20
0.953273
11
19.000000
21
230.953273
0
LINE
8
0
10
614.099364
20
250.203273
11
613.376563
21
253.874971
0
LINE
8
0
10
613.376563
20
253.874971
11
611.526288
21
263.424607
0
LINE
8
0
10
611.526288
20
263.424607
11
608.133014
21
281.178669
0
LINE
8
0
10
608.133014
20
281.178669
11
604.628412
21
299.710670
0
LINE
8
0
10
604.628412
20
299.710670
11
602.580222
21
310.643306
0
LINE
8
0
10
602.580222
20
310.643306
11
601.007643
21
319.140367
0
LINE
8
0
10
601.007643
20
319.140367
11
600.266679
21
323.245558
0
LINE
8
0
10
600.266679
20
323.245558
11
600.030725
21
324.641792
0
LINE
8
0
10
600.030725
20
324.641792
11
600.000000
21
324.885591
0
LINE
8
0
10
600.000000
20
324.885591
11
600.150632
21
325.125757
0
LINE
8
0
10
600.150632
20
325.125757
11
601.324934
21
325.520794
0
LINE
8
0
10
601.324934
20
325.520794
11
605.115207
21
325.881610
0
LINE
8
0
10
605.115207
20
325.881610
11
608.875000
21
325.953273
0
LINE
8
0
10
608.875000
20
325.953273
11
617.750000
21
325.953273
0
LINE
8
0
10
617.750000
20
325.953273
11
618.261905
21
323.203273
0
LINE
8
0
10
618.261905
20
323.203273
11
618.336290
21
322.770091
0
LINE
8
0
10
618.336290
20
322.770091
11
618.607241
21
321.055803
0
LINE
8
0
10
618.607241
20
321.055803
11
619.282227
21
316.612575
0
LINE
8
0
10
619.282227
20
316.612575
11
620.580195
21
307.888698
0
LINE
8
0
10
620.580195
20
307.888698
11
622.188682
21
296.935329
0
LINE
8
0
10
622.188682
20
296.935329
11
623.060169
21
290.953273
0
LINE
8
0
10
623.060169
20
290.953273
11
623.933181
21
285.012856
0
LINE
8
0
10
623.933181
20
285.012856
11
625.552949
21
274.367495
0
LINE
8
0
10
625.552949
20
274.367495
11
626.871131
21
266.195483
0
LINE
8
0
10
626.871131
20
266.195483
11
627.565663
21
262.285916
0
LINE
8
0
10
627.565663
20
262.285916
11
627.851160
21
260.968741
0
LINE
8
0
10
627.851160
20
260.968741
11
627.933156
21
260.743380
0
LINE
8
0
10
627.933156
20
260.743380
11
628.029592
21
260.840764
0
LINE
8
0
10
628.029592
20
260.840764
11
628.426326
21
262.009859
0
LINE
8
0
10
628.426326
20
262.009859
11
629.068708
21
264.368682
0
LINE
8
0
10
629.068708
20
264.368682
11
629.925335
21
267.785985
0
LINE
8
0
10
629.925335
20
267.785985
11
631.543290
21
274.609477
0
LINE
8
0
10
631.543290
20
274.609477
11
634.157329
21
286.187142
0
LINE
8
0
10
634.157329
20
286.187142
11
635.589449
21
292.743380
0
LINE
8
0
10
635.589449
20
292.743380
11
642.659113
21
325.453273
0
LINE
8
0
10
642.659113
20
325.453273
11
652.644391
21
325.736212
0
LINE
8
0
10
652.644391
20
325.736212
11
662.629670
21
326.019151
0
LINE
8
0
10
662.629670
20
326.019151
11
669.444384
21
294.236212
0
LINE
8
0
10
669.444384
20
294.236212
11
670.827404
21
287.825082
0
LINE
8
0
10
670.827404
20
287.825082
11
673.366011
21
276.274548
0
LINE
8
0
10
673.366011
20
276.274548
11
675.396159
21
267.324363
0
LINE
8
0
10
675.396159
20
267.324363
11
676.436955
21
262.971290
0
LINE
8
0
10
676.436955
20
262.971290
11
676.843668
21
261.447296
0
LINE
8
0
10
676.843668
20
261.447296
11
676.949335
21
261.149605
0
LINE
8
0
10
676.949335
20
261.149605
11
677.086441
21
261.127589
0
LINE
8
0
10
677.086441
20
261.127589
11
677.502527
21
262.279431
0
LINE
8
0
10
677.502527
20
262.279431
11
678.119615
21
265.097194
0
LINE
8
0
10
678.119615
20
265.097194
11
678.951907
21
269.666586
0
LINE
8
0
10
678.951907
20
269.666586
11
680.013608
21
276.073312
0
LINE
8
0
10
680.013608
20
276.073312
11
681.318920
21
284.403082
0
LINE
8
0
10
681.318920
20
284.403082
11
682.882046
21
294.741602
0
LINE
8
0
10
682.882046
20
294.741602
11
684.717189
21
307.174579
0
LINE
8
0
10
684.717189
20
307.174579
11
685.741206
21
314.203273
0
LINE
8
0
10
685.741206
20
314.203273
11
687.446874
21
325.953273
0
LINE
8
0
10
687.446874
20
325.953273
11
696.603298
21
325.953273
0
LINE
8
0
10
696.603298
20
325.953273
11
705.759723
21
325.953273
0
LINE
8
0
10
705.759723
20
325.953273
11
704.373073
21
318.703273
0
LINE
8
0
10
704.373073
20
318.703273
11
704.199157
21
317.793529
0
LINE
8
0
10
704.199157
20
317.793529
11
703.677639
21
315.063420
0
LINE
8
0
10
703.677639
20
315.063420
11
702.520221
21
309.001247
0
LINE
8
0
10
702.520221
20
309.001247
11
700.442154
21
298.113307
0
LINE
8
0
10
700.442154
20
298.113307
11
697.983903
21
285.230250
0
LINE
8
0
10
697.983903
20
285.230250
11
696.690979
21
278.453273
0
LINE
8
0
10
696.690979
20
278.453273
11
690.395536
21
245.453273
0
LINE
8
0
10
690.395536
20
245.453273
11
677.518427
21
245.453273
0
LINE
8
0
10
677.518427
20
245.453273
11
664.641318
21
245.453273
0
LINE
8
0
10
664.641318
20
245.453273
11
658.934031
21
273.256568
0
LINE
8
0
10
658.934031
20
273.256568
11
657.778509
21
278.850711
0
LINE
8
0
10
657.778509
20
278.850711
11
655.672788
21
288.849713
0
LINE
8
0
10
655.672788
20
288.849713
11
654.009008
21
296.490636
0
LINE
8
0
10
654.009008
20
296.490636
11
653.172602
21
300.116286
0
LINE
8
0
10
653.172602
20
300.116286
11
652.858217
21
301.313756
0
LINE
8
0
10
652.858217
20
301.313756
11
652.783450
21
301.503156
0
LINE
8
0
10
652.783450
20
301.503156
11
652.708036
21
301.400474
0
LINE
8
0
10
652.708036
20
301.400474
11
652.388661
21
300.347873
0
LINE
8
0
10
652.388661
20
300.347873
11
651.536497
21
296.866624
0
LINE
8
0
10
651.536497
20
296.866624
11
649.838947
21
289.277989
0
LINE
8
0
10
649.838947
20
289.277989
11
647.688630
21
279.165177
0
LINE
8
0
10
647.688630
20
279.165177
11
646.508031
21
273.449861
0
LINE
8
0
10
646.508031
20
273.449861
11
640.675906
21
244.953273
0
LINE
8
0
10
640.675906
20
244.953273
11
627.908851
21
244.953273
0
LINE
8
0
10
627.908851
20
244.953273
11
615.141796
21
244.953273
0
LINE
8
0
10
615.141796
20
244.953273
11
614.099364
21
250.203273
0
LINE
8
0
10
1012.146765
20
136.966077
11
1008.730985
21
137.895902
0
LINE
8
0
10
1008.730985
20
137.895902
11
1002.744528
21
140.850101
0
LINE
8
0
10
1002.744528
20
140.850101
11
997.832527
21
145.311242
0
LINE
8
0
10
997.832527
20
145.311242
11
993.932163
21
151.336378
0
LINE
8
0
10
993.932163
20
151.336378
11
992.341715
21
154.953273
0
LINE
8
0
10
992.341715
20
154.953273
11
991.886884
21
156.478541
0
LINE
8
0
10
991.886884
20
156.478541
11
991.157563
21
160.932953
0
LINE
8
0
10
991.157563
20
160.932953
11
990.515249
21
170.089219
0
LINE
8
0
10
990.515249
20
170.089219
11
990.504234
21
184.018789
0
LINE
8
0
10
990.504234
20
184.018789
11
991.131936
21
193.341773
0
LINE
8
0
10
991.131936
20
193.341773
11
991.854062
21
197.986720
0
LINE
8
0
10
991.854062
20
197.986720
11
992.306385
21
199.631072
0
LINE
8
0
10
992.306385
20
199.631072
11
993.957418
21
203.677053
0
LINE
8
0
10
993.957418
20
203.677053
11
998.228236
21
210.281036
0
LINE
8
0
10
998.228236
20
210.281036
11
1003.949765
21
215.033145
0
LINE
8
0
10
1003.949765
20
215.033145
11
1011.312855
21
218.091892
0
LINE
8
0
10
1011.312855
20
218.091892
11
1015.669626
21
219.035789
0
LINE
8
0
10
1015.669626
20
219.035789
11
1022.161572
21
219.601764
0
LINE
8
0
10
1022.161572
20
219.601764
11
1032.125041
21
218.857821
0
LINE
8
0
10
1032.125041
20
218.857821
11
1037.996122
21
217.397761
0
LINE
8
0
10
1037.996122
20
217.397761
11
1040.463310
21
216.403659
0
LINE
8
0
10
1040.463310
20
216.403659
11
1044.314128
21
214.087494
0
LINE
8
0
10
1044.314128
20
214.087494
11
1050.484649
21
207.254717
0
LINE
8
0
10
1050.484649
20
207.254717
11
1054.606652
21
197.504643
0
LINE
8
0
10
1054.606652
20
197.504643
11
1056.671698
21
184.857237
0
LINE
8
0
10
1056.671698
20
184.857237
11
1056.930224
21
177.453273
0
LINE
8
0
10
1056.930224
20
177.453273
11
1056.822950
21
172.303751
0
LINE
8
0
10
1056.822950
20
172.303751
11
1055.946215
21
163.142018
0
LINE
8
0
10
1055.946215
20
163.142018
11
1054.145364
21
155.442796
0
LINE
8
0
10
1054.145364
20
155.442796
11
1051.370955
21
149.141400
0
LINE
8
0
10
1051.370955
20
149.141400
11
1047.573549
21
144.173145
0
LINE
8
0
10
1047.573549
20
144.173145
11
1042.703704
21
140.473345
0
LINE
8
0
10
1042.703704
20
140.473345
11
1036.711978
21
137.977315
0
LINE
8
0
10
1036.711978
20
137.977315
11
1029.548931
21
136.620371
0
LINE
8
0
10
1029.548931
20
136.620371
11
1025.512712
21
136.348841
0
LINE
8
0
10
1025.512712
20
136.348841
11
1021.669748
21
136.304449
0
LINE
8
0
10
1021.669748
20
136.304449
11
1014.548204
21
136.633320
0
LINE
8
0
10
1014.548204
20
136.633320
11
1012.146765
21
136.966077
0
LINE
8
0
10
792.000000
20
285.539210
11
792.000000
21
326.125146
0
LINE
8
0
10
792.000000
20
326.125146
11
813.250000
21
325.780354
0
LINE
8
0
10
813.250000
20
325.780354
11
816.643508
21
325.722537
0
LINE
8
0
10
816.643508
20
325.722537
11
822.374851
21
325.601253
0
LINE
8
0
10
822.374851
20
325.601253
11
828.727320
21
325.367559
0
LINE
8
0
10
828.727320
20
325.367559
11
834.112450
21
324.853946
0
LINE
8
0
10
834.112450
20
324.853946
11
837.515537
21
323.962241
0
LINE
8
0
10
837.515537
20
323.962241
11
839.000000
21
323.324418
0
LINE
8
0
10
839.000000
20
323.324418
11
842.253785
21
321.548370
0
LINE
8
0
10
842.253785
20
321.548370
11
847.318793
21
317.109813
0
LINE
8
0
10
847.318793
20
317.109813
11
850.571308
21
311.290862
0
LINE
8
0
10
850.571308
20
311.290862
11
852.144435
21
303.853381
0
LINE
8
0
10
852.144435
20
303.853381
11
852.342825
21
299.453273
0
LINE
8
0
10
852.342825
20
299.453273
11
852.236635
21
296.056352
0
LINE
8
0
10
852.236635
20
296.056352
11
851.320159
21
290.022218
0
LINE
8
0
10
851.320159
20
290.022218
11
849.424126
21
284.890714
0
LINE
8
0
10
849.424126
20
284.890714
11
846.499624
21
280.529460
0
LINE
8
0
10
846.499624
20
280.529460
11
844.636412
21
278.596309
0
LINE
8
0
10
844.636412
20
278.596309
11
841.254993
21
275.453273
0
LINE
8
0
10
841.254993
20
275.453273
11
846.580484
21
261.453273
0
LINE
8
0
10
846.580484
20
261.453273
11
848.651982
21
255.918703
0
LINE
8
0
10
848.651982
20
255.918703
11
851.014031
21
249.300319
0
LINE
8
0
10
851.014031
20
249.300319
11
851.834850
21
246.740114
0
LINE
8
0
10
851.834850
20
246.740114
11
851.952988
21
246.203273
0
LINE
8
0
10
851.952988
20
246.203273
11
851.844776
21
245.887293
0
LINE
8
0
10
851.844776
20
245.887293
11
850.839244
21
245.407130
0
LINE
8
0
10
850.839244
20
245.407130
11
848.642672
21
245.110613
0
LINE
8
0
10
848.642672
20
245.110613
11
845.088379
21
244.975242
0
LINE
8
0
10
845.088379
20
244.975242
11
842.750000
21
244.960954
0
LINE
8
0
10
842.750000
20
244.960954
11
833.500000
21
244.968636
0
LINE
8
0
10
833.500000
20
244.968636
11
828.950111
21
258.210954
0
LINE
8
0
10
828.950111
20
258.210954
11
824.400221
21
271.453273
0
LINE
8
0
10
824.400221
20
271.453273
11
817.200111
21
271.747082
0
LINE
8
0
10
817.200111
20
271.747082
11
810.000000
21
272.040892
0
LINE
8
0
10
810.000000
20
272.040892
11
810.000000
21
258.497082
0
LINE
8
0
10
810.000000
20
258.497082
11
810.000000
21
244.953273
0
LINE
8
0
10
810.000000
20
244.953273
11
801.000000
21
244.953273
0
LINE
8
0
10
801.000000
20
244.953273
11
792.000000
21
244.953273
0
LINE
8
0
10
792.000000
20
244.953273
11
792.000000
21
285.539210
0
LINE
8
0
10
920.000000
20
177.453273
11
920.000000
21
217.953273
0
LINE
8
0
10
920.000000
20
217.953273
11
939.341069
21
217.953273
0
LINE
8
0
10
939.341069
20
217.953273
11
943.106242
21
217.942545
0
LINE
8
0
10
943.106242
20
217.942545
11
949.613346
21
217.844333
0
LINE
8
0
10
949.613346
20
217.844333
11
957.184798
21
217.443205
0
LINE
8
0
10
957.184798
20
217.443205
11
964.226474
21
216.261204
0
LINE
8
0
10
964.226474
20
216.261204
11
969.221145
21
214.097401
0
LINE
8
0
10
969.221145
20
214.097401
11
971.442720
21
212.564760
0
LINE
8
0
10
971.442720
20
212.564760
11
973.311933
21
210.927199
0
LINE
8
0
10
973.311933
20
210.927199
11
976.288615
21
206.946056
0
LINE
8
0
10
976.288615
20
206.946056
11
978.269958
21
201.972540
0
LINE
8
0
10
978.269958
20
201.972540
11
979.280348
21
195.945440
0
LINE
8
0
10
979.280348
20
195.945440
11
979.429056
21
192.517668
0
LINE
8
0
10
979.429056
20
192.517668
11
979.360227
21
188.991852
0
LINE
8
0
10
979.360227
20
188.991852
11
978.570626
21
182.924313
0
LINE
8
0
10
978.570626
20
182.924313
11
976.815957
21
177.894227
0
LINE
8
0
10
976.815957
20
177.894227
11
973.981239
21
173.571990
0
LINE
8
0
10
973.981239
20
173.571990
11
972.122932
21
171.573313
0
LINE
8
0
10
972.122932
20
171.573313
11
968.262453
21
167.803656
0
LINE
8
0
10
968.262453
20
167.803656
11
973.627307
21
153.628464
0
LINE
8
0
10
973.627307
20
153.628464
11
975.710688
21
148.022909
0
LINE
8
0
10
975.710688
20
148.022909
11
978.074428
21
141.313762
0
LINE
8
0
10
978.074428
20
141.313762
11
978.885796
21
138.713702
0
LINE
8
0
10
978.885796
20
138.713702
11
978.996080
21
138.165747
0
LINE
8
0
10
978.996080
20
138.165747
11
978.888364
21
137.833093
0
LINE
8
0
10
978.888364
20
137.833093
11
977.929980
21
137.362079
0
LINE
8
0
10
977.929980
20
137.362079
11
975.781086
21
137.128384
0
LINE
8
0
10
975.781086
20
137.128384
11
972.201796
21
137.105920
0
LINE
8
0
10
972.201796
20
137.105920
11
969.800787
21
137.165747
0
LINE
8
0
10
969.800787
20
137.165747
11
960.601575
21
137.453273
0
LINE
8
0
10
960.601575
20
137.453273
11
956.050787
21
150.695592
0
LINE
8
0
10
956.050787
20
150.695592
11
951.500000
21
163.937910
0
LINE
8
0
10
951.500000
20
163.937910
11
944.250000
21
163.945592
0
LINE
8
0
10
944.250000
20
163.945592
11
937.000000
21
163.953273
0
LINE
8
0
10
937.000000
20
163.953273
11
937.000000
21
150.453273
0
LINE
8
0
10
937.000000
20
150.453273
11
937.000000
21
136.953273
0
LINE
8
0
10
937.000000
20
136.953273
11
928.500000
21
136.953273
0
LINE
8
0
10
928.500000
20
136.953273
11
920.000000
21
136.953273
0
LINE
8
0
10
920.000000
20
136.953273
11
920.000000
21
177.453273
0
LINE
8
0
10
1069.000000
20
177.453273
11
1069.000000
21
217.953273
0
LINE
8
0
10
1069.000000
20
217.953273
11
1083.277053
21
217.953273
0
LINE
8
0
10
1083.277053
20
217.953273
11
1097.554107
21
217.953273
0
LINE
8
0
10
1097.554107
20
217.953273
11
1107.027053
21
185.356542
0
LINE
8
0
10
1107.027053
20
185.356542
11
1116.500000
21
152.759812
0
LINE
8
0
10
1116.500000
20
152.759812
11
1116.763664
21
185.356542
0
LINE
8
0
10
1116.763664
20
185.356542
11
1117.027329
21
217.953273
0
LINE
8
0
10
1117.027329
20
217.953273
11
1125.513664
21
217.953273
0
LINE
8
0
10
1125.513664
20
217.953273
11
1134.000000
21
217.953273
0
LINE
8
0
10
1134.000000
20
217.953273
11
1134.000000
21
177.453273
0
LINE
8
0
10
1134.000000
20
177.453273
11
1134.000000
21
136.953273
0
LINE
8
0
10
1134.000000
20
136.953273
11
1120.223443
21
136.953273
0
LINE
8
0
10
1120.223443
20
136.953273
11
1106.446885
21
136.953273
0
LINE
8
0
10
1106.446885
20
136.953273
11
1096.473443
21
169.994413
0
LINE
8
0
10
1096.473443
20
169.994413
11
1086.500000
21
203.035553
0
LINE
8
0
10
1086.500000
20
203.035553
11
1086.236519
21
169.994413
0
LINE
8
0
10
1086.236519
20
169.994413
11
1085.973039
21
136.953273
0
LINE
8
0
10
1085.973039
20
136.953273
11
1077.486519
21
136.953273
0
LINE
8
0
10
1077.486519
20
136.953273
11
1069.000000
21
136.953273
0
LINE
8
0
10
1069.000000
20
136.953273
11
1069.000000
21
177.453273
0
LINE
8
0
10
930.000000
20
285.453273
11
930.000000
21
325.953273
0
LINE
8
0
10
930.000000
20
325.953273
11
939.000000
21
325.953273
0
LINE
8
0
10
939.000000
20
325.953273
11
948.000000
21
325.953273
0
LINE
8
0
10
948.000000
20
325.953273
11
948.000000
21
309.453273
0
LINE
8
0
10
948.000000
20
309.453273
11
948.000000
21
292.953273
0
LINE
8
0
10
948.000000
20
292.953273
11
962.000000
21
292.953273
0
LINE
8
0
10
962.000000
20
292.953273
11
976.000000
21
292.953273
0
LINE
8
0
10
976.000000
20
292.953273
11
976.000000
21
309.453273
0
LINE
8
0
10
976.000000
20
309.453273
11
976.000000
21
325.953273
0
LINE
8
0
10
976.000000
20
325.953273
11
985.000000
21
325.953273
0
LINE
8
0
10
985.000000
20
325.953273
11
994.000000
21
325.953273
0
LINE
8
0
10
994.000000
20
325.953273
11
994.000000
21
285.453273
0
LINE
8
0
10
994.000000
20
285.453273
11
994.000000
21
244.953273
0
LINE
8
0
10
994.000000
20
244.953273
11
985.000000
21
244.953273
0
LINE
8
0
10
985.000000
20
244.953273
11
976.000000
21
244.953273
0
LINE
8
0
10
976.000000
20
244.953273
11
976.000000
21
261.453273
0
LINE
8
0
10
976.000000
20
261.453273
11
976.000000
21
277.953273
0
LINE
8
0
10
976.000000
20
277.953273
11
962.000000
21
277.953273
0
LINE
8
0
10
962.000000
20
277.953273
11
948.000000
21
277.953273
0
LINE
8
0
10
948.000000
20
277.953273
11
948.000000
21
261.453273
0
LINE
8
0
10
948.000000
20
261.453273
11
948.000000
21
244.953273
0
LINE
8
0
10
948.000000
20
244.953273
11
939.000000
21
244.953273
0
LINE
8
0
10
939.000000
20
244.953273
11
930.000000
21
244.953273
0
LINE
8
0
10
930.000000
20
244.953273
11
930.000000
21
285.453273
0
LINE
8
0
10
1181.000000
20
177.453273
11
1181.000000
21
217.953273
0
LINE
8
0
10
1181.000000
20
217.953273
11
1190.000000
21
217.953273
0
LINE
8
0
10
1190.000000
20
217.953273
11
1199.000000
21
217.953273
0
LINE
8
0
10
1199.000000
20
217.953273
11
1199.000000
21
200.346284
0
LINE
8
0
10
1199.000000
20
200.346284
11
1199.002323
21
197.571319
0
LINE
8
0
10
1199.002323
20
197.571319
11
1199.025536
21
192.921850
0
LINE
8
0
10
1199.025536
20
192.921850
11
1199.129904
21
187.950179
0
LINE
8
0
10
1199.129904
20
187.950179
11
1199.463660
21
184.363184
0
LINE
8
0
10
1199.463660
20
184.363184
11
1200.110295
21
183.280240
0
LINE
8
0
10
1200.110295
20
183.280240
11
1200.581787
21
183.346284
0
LINE
8
0
10
1200.581787
20
183.346284
11
1202.629587
21
183.780470
0
LINE
8
0
10
1202.629587
20
183.780470
11
1205.331787
21
183.971996
0
LINE
8
0
10
1205.331787
20
183.971996
11
1208.500000
21
183.990718
0
LINE
8
0
10
1208.500000
20
183.990718
11
1214.974707
21
200.971996
0
LINE
8
0
10
1214.974707
20
200.971996
11
1221.449415
21
217.953273
0
LINE
8
0
10
1221.449415
20
217.953273
11
1231.224707
21
217.953273
0
LINE
8
0
10
1231.224707
20
217.953273
11
1235.020270
21
217.923592
0
LINE
8
0
10
1235.020270
20
217.923592
11
1239.324645
21
217.787055
0
LINE
8
0
10
1239.324645
20
217.787055
11
1240.800485
21
217.652685
0
LINE
8
0
10
1240.800485
20
217.652685
11
1241.000000
21
217.577125
0
LINE
8
0
10
1241.000000
20
217.577125
11
1240.825329
21
217.097549
0
LINE
8
0
10
1240.825329
20
217.097549
11
1239.533261
21
213.974625
0
LINE
8
0
10
1239.533261
20
213.974625
11
1237.218238
21
208.518219
0
LINE
8
0
10
1237.218238
20
208.518219
11
1234.161070
21
201.390193
0
LINE
8
0
10
1234.161070
20
201.390193
11
1232.441935
21
197.406153
0
LINE
8
0
10
1232.441935
20
197.406153
11
1223.883870
21
177.611329
0
LINE
8
0
10
1223.883870
20
177.611329
11
1232.457911
21
158.532301
0
LINE
8
0
10
1232.457911
20
158.532301
11
1234.179929
21
154.673475
0
LINE
8
0
10
1234.179929
20
154.673475
11
1237.240392
21
147.663751
0
LINE
8
0
10
1237.240392
20
147.663751
11
1239.555416
21
142.154795
0
LINE
8
0
10
1239.555416
20
142.154795
11
1240.844188
21
138.814840
0
LINE
8
0
10
1240.844188
20
138.814840
11
1241.015976
21
138.167061
0
LINE
8
0
10
1241.015976
20
138.167061
11
1240.898681
21
137.834368
0
LINE
8
0
10
1240.898681
20
137.834368
11
1239.892582
21
137.363479
0
LINE
8
0
10
1239.892582
20
137.363479
11
1237.646548
21
137.129953
0
LINE
8
0
10
1237.646548
20
137.129953
11
1233.907069
21
137.107432
0
LINE
8
0
10
1233.907069
20
137.107432
11
1231.398065
21
137.167061
0
LINE
8
0
10
1231.398065
20
137.167061
11
1221.796129
21
137.453273
0
LINE
8
0
10
1221.796129
20
137.453273
11
1215.438358
21
152.453273
0
LINE
8
0
10
1215.438358
20
152.453273
11
1214.154313
21
155.484700
0
LINE
8
0
10
1214.154313
20
155.484700
11
1211.832082
21
160.978048
0
LINE
8
0
10
1211.832082
20
160.978048
11
1210.020758
21
165.277457
0
LINE
8
0
10
1210.020758
20
165.277457
11
1208.940055
21
167.861410
0
LINE
8
0
10
1208.940055
20
167.861410
11
1208.742346
21
168.347116
0
LINE
8
0
10
1208.742346
20
168.347116
11
1208.239992
21
168.638541
0
LINE
8
0
10
1208.239992
20
168.638541
11
1205.554460
21
168.739097
0
LINE
8
0
10
1205.554460
20
168.739097
11
1203.702052
21
168.535843
0
LINE
8
0
10
1203.702052
20
168.535843
11
1199.000000
21
167.830727
0
LINE
8
0
10
1199.000000
20
167.830727
11
1199.000000
21
152.392000
0
LINE
8
0
10
1199.000000
20
152.392000
11
1199.000000
21
136.953273
0
LINE
8
0
10
1199.000000
20
136.953273
11
1190.000000
21
136.953273
0
LINE
8
0
10
1190.000000
20
136.953273
11
1181.000000
21
136.953273
0
LINE
8
0
10
1181.000000
20
136.953273
11
1181.000000
21
177.453273
0
LINE
8
0
10
783.000000
20
177.453273
11
783.000000
21
217.953273
0
LINE
8
0
10
783.000000
20
217.953273
11
791.500000
21
217.953273
0
LINE
8
0
10
791.500000
20
217.953273
11
800.000000
21
217.953273
0
LINE
8
0
10
800.000000
20
217.953273
11
800.000000
21
200.576110
0
LINE
8
0
10
800.000000
20
200.576110
11
800.000000
21
183.198947
0
LINE
8
0
10
800.000000
20
183.198947
11
804.750000
21
183.697960
0
LINE
8
0
10
804.750000
20
183.697960
11
806.640148
21
183.941282
0
LINE
8
0
10
806.640148
20
183.941282
11
809.480351
21
184.541849
0
LINE
8
0
10
809.480351
20
184.541849
11
810.080587
21
184.825123
0
LINE
8
0
10
810.080587
20
184.825123
11
810.314147
21
185.258225
0
LINE
8
0
10
810.314147
20
185.258225
11
811.386514
21
187.752945
0
LINE
8
0
10
811.386514
20
187.752945
11
813.093344
21
191.990659
0
LINE
8
0
10
813.093344
20
191.990659
11
815.227600
21
197.457333
0
LINE
8
0
10
815.227600
20
197.457333
11
816.390313
21
200.490894
0
LINE
8
0
10
816.390313
20
200.490894
11
818.675818
21
206.428402
0
LINE
8
0
10
818.675818
20
206.428402
11
821.479102
21
213.503905
0
LINE
8
0
10
821.479102
20
213.503905
11
822.620175
21
216.220984
0
LINE
8
0
10
822.620175
20
216.220984
11
822.892371
21
216.779125
0
LINE
8
0
10
822.892371
20
216.779125
11
823.214314
21
217.085571
0
LINE
8
0
10
823.214314
20
217.085571
11
824.599108
21
217.530771
0
LINE
8
0
10
824.599108
20
217.530771
11
827.087929
21
217.763229
0
LINE
8
0
10
827.087929
20
217.763229
11
830.820156
21
217.795964
0
LINE
8
0
10
830.820156
20
217.795964
11
833.196104
21
217.741503
0
LINE
8
0
10
833.196104
20
217.741503
11
842.726918
21
217.453273
0
LINE
8
0
10
842.726918
20
217.453273
11
834.421046
21
198.453273
0
LINE
8
0
10
834.421046
20
198.453273
11
832.751396
21
194.605682
0
LINE
8
0
10
832.751396
20
194.605682
11
829.775624
21
187.589868
0
LINE
8
0
10
829.775624
20
187.589868
11
827.513243
21
182.040794
0
LINE
8
0
10
827.513243
20
182.040794
11
826.238679
21
178.631562
0
LINE
8
0
10
826.238679
20
178.631562
11
826.057587
21
177.939730
0
LINE
8
0
10
826.057587
20
177.939730
11
826.219505
21
177.250245
0
LINE
8
0
10
826.219505
20
177.250245
11
827.482235
21
173.858368
0
LINE
8
0
10
827.482235
20
173.858368
11
829.765973
21
168.340389
0
LINE
8
0
10
829.765973
20
168.340389
11
832.793705
21
161.365639
0
LINE
8
0
10
832.793705
20
161.365639
11
834.500000
21
157.541139
0
LINE
8
0
10
834.500000
20
157.541139
11
836.207471
21
153.730154
0
LINE
8
0
10
836.207471
20
153.730154
11
839.243896
21
146.855370
0
LINE
8
0
10
839.243896
20
146.855370
11
841.543213
21
141.516504
0
LINE
8
0
10
841.543213
20
141.516504
11
842.826514
21
138.361159
0
LINE
8
0
10
842.826514
20
138.361159
11
843.000000
21
137.804682
0
LINE
8
0
10
843.000000
20
137.804682
11
842.801001
21
137.633869
0
LINE
8
0
10
842.801001
20
137.633869
11
841.328979
21
137.331332
0
LINE
8
0
10
841.328979
20
137.331332
11
837.035742
21
137.026974
0
LINE
8
0
10
837.035742
20
137.026974
11
833.250000
21
136.963930
0
LINE
8
0
10
833.250000
20
136.963930
11
823.500000
21
136.974588
0
LINE
8
0
10
823.500000
20
136.974588
11
817.030131
21
152.540800
0
LINE
8
0
10
817.030131
20
152.540800
11
815.713099
21
155.678460
0
LINE
8
0
10
815.713099
20
155.678460
11
813.273389
21
161.318542
0
LINE
8
0
10
813.273389
20
161.318542
11
811.293002
21
165.671619
0
LINE
8
0
10
811.293002
20
165.671619
11
810.012157
21
168.209663
0
LINE
8
0
10
810.012157
20
168.209663
11
809.709132
21
168.633039
0
LINE
8
0
10
809.709132
20
168.633039
11
809.029178
21
168.784879
0
LINE
8
0
10
809.029178
20
168.784879
11
806.215858
21
168.711275
0
LINE
8
0
10
806.215858
20
168.711275
11
804.429001
21
168.494897
0
LINE
8
0
10
804.429001
20
168.494897
11
800.000000
21
167.830727
0
LINE
8
0
10
800.000000
20
167.830727
11
800.000000
21
152.392000
0
LINE
8
0
10
800.000000
20
152.392000
11
800.000000
21
136.953273
0
LINE
8
0
10
800.000000
20
136.953273
11
791.500000
21
136.953273
0
LINE
8
0
10
791.500000
20
136.953273
11
783.000000
21
136.953273
0
LINE
8
0
10
783.000000
20
136.953273
11
783.000000
21
177.453273
0
LINE
8
0
10
719.000000
20
177.453273
11
719.000000
21
217.953273
0
LINE
8
0
10
719.000000
20
217.953273
11
745.500000
21
217.953273
0
LINE
8
0
10
745.500000
20
217.953273
11
772.000000
21
217.953273
0
LINE
8
0
10
772.000000
20
217.953273
11
772.000000
21
210.453273
0
LINE
8
0
10
772.000000
20
210.453273
11
772.000000
21
202.953273
0
LINE
8
0
10
772.000000
20
202.953273
11
754.000000
21
202.953273
0
LINE
8
0
10
754.000000
20
202.953273
11
736.000000
21
202.953273
0
LINE
8
0
10
736.000000
20
202.953273
11
736.000000
21
194.453273
0
LINE
8
0
10
736.000000
20
194.453273
11
736.000000
21
185.953273
0
LINE
8
0
10
736.000000
20
185.953273
11
750.500000
21
185.953273
0
LINE
8
0
10
750.500000
20
185.953273
11
765.000000
21
185.953273
0
LINE
8
0
10
765.000000
20
185.953273
11
765.000000
21
178.453273
0
LINE
8
0
10
765.000000
20
178.453273
11
765.000000
21
170.953273
0
LINE
8
0
10
765.000000
20
170.953273
11
750.500000
21
170.953273
0
LINE
8
0
10
750.500000
20
170.953273
11
736.000000
21
170.953273
0
LINE
8
0
10
736.000000
20
170.953273
11
736.000000
21
161.953273
0
LINE
8
0
10
736.000000
20
161.953273
11
736.000000
21
152.953273
0
LINE
8
0
10
736.000000
20
152.953273
11
754.000000
21
152.953273
0
LINE
8
0
10
754.000000
20
152.953273
11
772.000000
21
152.953273
0
LINE
8
0
10
772.000000
20
152.953273
11
772.000000
21
144.953273
0
LINE
8
0
10
772.000000
20
144.953273
11
772.000000
21
136.953273
0
LINE
8
0
10
772.000000
20
136.953273
11
745.500000
21
136.953273
0
LINE
8
0
10
745.500000
20
136.953273
11
719.000000
21
136.953273
0
LINE
8
0
10
719.000000
20
136.953273
11
719.000000
21
177.453273
0
LINE
8
0
10
600.000000
20
177.453273
11
600.000000
21
217.953273
0
LINE
8
0
10
600.000000
20
217.953273
11
626.000000
21
217.953273
0
LINE
8
0
10
626.000000
20
217.953273
11
652.000000
21
217.953273
0
LINE
8
0
10
652.000000
20
217.953273
11
652.000000
21
210.453273
0
LINE
8
0
10
652.000000
20
210.453273
11
652.000000
21
202.953273
0
LINE
8
0
10
652.000000
20
202.953273
11
634.500000
21
202.953273
0
LINE
8
0
10
634.500000
20
202.953273
11
617.000000
21
202.953273
0
LINE
8
0
10
617.000000
20
202.953273
11
617.000000
21
194.453273
0
LINE
8
0
10
617.000000
20
194.453273
11
617.000000
21
185.953273
0
LINE
8
0
10
617.000000
20
185.953273
11
631.000000
21
185.953273
0
LINE
8
0
10
631.000000
20
185.953273
11
645.000000
21
185.953273
0
LINE
8
0
10
645.000000
20
185.953273
11
645.000000
21
178.453273
0
LINE
8
0
10
645.000000
20
178.453273
11
645.000000
21
170.953273
0
LINE
8
0
10
645.000000
20
170.953273
11
631.000000
21
170.953273
0
LINE
8
0
10
631.000000
20
170.953273
11
617.000000
21
170.953273
0
LINE
8
0
10
617.000000
20
170.953273
11
617.000000
21
161.953273
0
LINE
8
0
10
617.000000
20
161.953273
11
617.000000
21
152.953273
0
LINE
8
0
10
617.000000
20
152.953273
11
634.500000
21
152.953273
0
LINE
8
0
10
634.500000
20
152.953273
11
652.000000
21
152.953273
0
LINE
8
0
10
652.000000
20
152.953273
11
652.000000
21
144.953273
0
LINE
8
0
10
652.000000
20
144.953273
11
652.000000
21
136.953273
0
LINE
8
0
10
652.000000
20
136.953273
11
626.000000
21
136.953273
0
LINE
8
0
10
626.000000
20
136.953273
11
600.000000
21
136.953273
0
LINE
8
0
10
600.000000
20
136.953273
11
600.000000
21
177.453273
0
LINE
8
0
10
732.013787
20
245.859556
11
729.454104
21
246.937386
0
LINE
8
0
10
729.454104
20
246.937386
11
724.901718
21
249.877058
0
LINE
8
0
10
724.901718
20
249.877058
11
721.211815
21
253.750279
0
LINE
8
0
10
721.211815
20
253.750279
11
718.512207
21
258.422887
0
LINE
8
0
10
718.512207
20
258.422887
11
717.573705
21
261.017036
0
LINE
8
0
10
717.573705
20
261.017036
11
717.168886
21
262.600421
0
LINE
8
0
10
717.168886
20
262.600421
11
716.559655
21
266.563291
0
LINE
8
0
10
716.559655
20
266.563291
11
716.188258
21
272.019112
0
LINE
8
0
10
716.188258
20
272.019112
11
716.019449
21
279.485665
0
LINE
8
0
10
716.019449
20
279.485665
11
716.000000
21
284.134774
0
LINE
8
0
10
716.000000
20
284.134774
11
716.000000
21
301.953273
0
LINE
8
0
10
716.000000
20
301.953273
11
724.419017
21
301.953273
0
LINE
8
0
10
724.419017
20
301.953273
11
732.838035
21
301.953273
0
LINE
8
0
10
732.838035
20
301.953273
11
733.169017
21
284.203273
0
LINE
8
0
10
733.169017
20
284.203273
11
733.239356
21
280.731752
0
LINE
8
0
10
733.239356
20
280.731752
11
733.414572
21
274.954423
0
LINE
8
0
10
733.414572
20
274.954423
11
733.689720
21
270.539753
0
LINE
8
0
10
733.689720
20
270.539753
11
734.129457
21
267.257788
0
LINE
8
0
10
734.129457
20
267.257788
11
735.239106
21
263.955645
0
LINE
8
0
10
735.239106
20
263.955645
11
737.898172
21
261.371038
0
LINE
8
0
10
737.898172
20
261.371038
11
739.878700
21
260.340592
0
LINE
8
0
10
739.878700
20
260.340592
11
741.905470
21
259.599874
0
LINE
8
0
10
741.905470
20
259.599874
11
746.524073
21
258.999680
0
LINE
8
0
10
746.524073
20
258.999680
11
751.220085
21
259.502143
0
LINE
8
0
10
751.220085
20
259.502143
11
755.182296
21
261.020466
0
LINE
8
0
10
755.182296
20
261.020466
11
756.634724
21
262.133451
0
LINE
8
0
10
756.634724
20
262.133451
11
757.827758
21
263.524529
0
LINE
8
0
10
757.827758
20
263.524529
11
759.543424
21
267.148128
0
LINE
8
0
10
759.543424
20
267.148128
11
760.515826
21
272.763327
0
LINE
8
0
10
760.515826
20
272.763327
11
760.866077
21
278.909510
0
LINE
8
0
10
760.866077
20
278.909510
11
760.961435
21
284.172888
0
LINE
8
0
10
760.961435
20
284.172888
11
760.976143
21
287.203273
0
LINE
8
0
10
760.976143
20
287.203273
11
761.000000
21
301.953273
0
LINE
8
0
10
761.000000
20
301.953273
11
769.500000
21
301.953273
0
LINE
8
0
10
769.500000
20
301.953273
11
778.000000
21
301.953273
0
LINE
8
0
10
778.000000
20
301.953273
11
778.000000
21
285.163372
0
LINE
8
0
10
778.000000
20
285.163372
11
777.967422
21
280.660613
0
LINE
8
0
10
777.967422
20
280.660613
11
777.682239
21
272.800509
0
LINE
8
0
10
777.682239
20
272.800509
11
777.049101
21
266.314059
0
LINE
8
0
10
777.049101
20
266.314059
11
776.002509
21
261.016986
0
LINE
8
0
10
776.002509
20
261.016986
11
773.514117
21
254.898356
0
LINE
8
0
10
773.514117
20
254.898356
11
768.137846
21
249.183092
0
LINE
8
0
10
768.137846
20
249.183092
11
764.420159
21
246.957800
0
LINE
8
0
10
764.420159
20
246.957800
11
761.432517
21
245.792055
0
LINE
8
0
10
761.432517
20
245.792055
11
753.401868
21
244.303333
0
LINE
8
0
10
753.401868
20
244.303333
11
744.156185
21
243.989999
0
LINE
8
0
10
744.156185
20
243.989999
11
735.526012
21
244.914090
0
LINE
8
0
10
735.526012
20
244.914090
11
732.013787
21
245.859556
0
LINE
8
0
10
882.000000
20
277.953273
11
882.000000
21
310.953273
0
LINE
8
0
10
882.000000
20
310.953273
11
871.000000
21
310.953273
0
LINE
8
0
10
871.000000
20
310.953273
11
860.000000
21
310.953273
0
LINE
8
0
10
860.000000
20
310.953273
11
860.000000
21
318.453273
0
LINE
8
0
10
860.000000
20
318.453273
11
860.000000
21
325.953273
0
LINE
8
0
10
860.000000
20
325.953273
11
890.000000
21
325.953273
0
LINE
8
0
10
890.000000
20
325.953273
11
920.000000
21
325.953273
0
LINE
8
0
10
920.000000
20
325.953273
11
920.000000
21
318.453273
0
LINE
8
0
10
920.000000
20
318.453273
11
920.000000
21
310.953273
0
LINE
8
0
10
920.000000
20
310.953273
11
909.500000
21
310.953273
0
LINE
8
0
10
909.500000
20
310.953273
11
899.000000
21
310.953273
0
LINE
8
0
10
899.000000
20
310.953273
11
899.000000
21
277.953273
0
LINE
8
0
10
899.000000
20
277.953273
11
899.000000
21
244.953273
0
LINE
8
0
10
899.000000
20
244.953273
11
890.500000
21
244.953273
0
LINE
8
0
10
890.500000
20
244.953273
11
882.000000
21
244.953273
0
LINE
8
0
10
882.000000
20
244.953273
11
882.000000
21
277.953273
0
LINE
8
0
10
871.000000
20
169.953273
11
871.000000
21
202.953273
0
LINE
8
0
10
871.000000
20
202.953273
11
860.500000
21
202.953273
0
LINE
8
0
10
860.500000
20
202.953273
11
850.000000
21
202.953273
0
LINE
8
0
10
850.000000
20
202.953273
11
850.000000
21
210.453273
0
LINE
8
0
10
850.000000
20
210.453273
11
850.000000
21
217.953273
0
LINE
8
0
10
850.000000
20
217.953273
11
879.500000
21
217.953273
0
LINE
8
0
10
879.500000
20
217.953273
11
909.000000
21
217.953273
0
LINE
8
0
10
909.000000
20
217.953273
11
909.000000
21
210.453273
0
LINE
8
0
10
909.000000
20
210.453273
11
909.000000
21
202.953273
0
LINE
8
0
10
909.000000
20
202.953273
11
898.500000
21
202.953273
0
LINE
8
0
10
898.500000
20
202.953273
11
888.000000
21
202.953273
0
LINE
8
0
10
888.000000
20
202.953273
11
888.000000
21
169.953273
0
LINE
8
0
10
888.000000
20
169.953273
11
888.000000
21
136.953273
0
LINE
8
0
10
888.000000
20
136.953273
11
879.500000
21
136.953273
0
LINE
8
0
10
879.500000
20
136.953273
11
871.000000
21
136.953273
0
LINE
8
0
10
871.000000
20
136.953273
11
871.000000
21
169.953273
0
LINE
8
0
10
663.000000
20
177.453273
11
663.000000
21
217.953273
0
LINE
8
0
10
663.000000
20
217.953273
11
671.500000
21
217.953273
0
LINE
8
0
10
671.500000
20
217.953273
11
680.000000
21
217.953273
0
LINE
8
0
10
680.000000
20
217.953273
11
680.000000
21
185.453273
0
LINE
8
0
10
680.000000
20
185.453273
11
680.000000
21
152.953273
0
LINE
8
0
10
680.000000
20
152.953273
11
694.500000
21
152.953273
0
LINE
8
0
10
694.500000
20
152.953273
11
709.000000
21
152.953273
0
LINE
8
0
10
709.000000
20
152.953273
11
709.000000
21
144.953273
0
LINE
8
0
10
709.000000
20
144.953273
11
709.000000
21
136.953273
0
LINE
8
0
10
709.000000
20
136.953273
11
686.000000
21
136.953273
0
LINE
8
0
10
686.000000
20
136.953273
11
663.000000
21
136.953273
0
LINE
8
0
10
663.000000
20
136.953273
11
663.000000
21
177.453273
0
LINE
8
0
10
1150.000000
20
177.453273
11
1150.000000
21
217.953273
0
LINE
8
0
10
1150.000000
20
217.953273
11
1158.500000
21
217.953273
0
LINE
8
0
10
1158.500000
20
217.953273
11
1167.000000
21
217.953273
0
LINE
8
0
10
1167.000000
20
217.953273
11
1167.000000
21
177.453273
0
LINE
8
0
10
1167.000000
20
177.453273
11
1167.000000
21
136.953273
0
LINE
8
0
10
1167.000000
20
136.953273
11
1158.500000
21
136.953273
0
LINE
8
0
10
1158.500000
20
136.953273
11
1150.000000
21
136.953273
0
LINE
8
0
10
1150.000000
20
136.953273
11
1150.000000
21
177.453273
0
LINE
8
0
10
761.000000
20
317.453273
11
761.000000
21
325.953273
0
LINE
8
0
10
761.000000
20
325.953273
11
769.500000
21
325.953273
0
LINE
8
0
10
769.500000
20
325.953273
11
778.000000
21
325.953273
0
LINE
8
0
10
778.000000
20
325.953273
11
778.000000
21
317.453273
0
LINE
8
0
10
778.000000
20
317.453273
11
778.000000
21
308.953273
0
LINE
8
0
10
778.000000
20
308.953273
11
769.500000
21
308.953273
0
LINE
8
0
10
769.500000
20
308.953273
11
761.000000
21
308.953273
0
LINE
8
0
10
761.000000
20
308.953273
11
761.000000
21
317.453273
0
LINE
8
0
10
716.000000
20
317.453273
11
716.000000
21
325.953273
0
LINE
8
0
10
716.000000
20
325.953273
11
724.500000
21
325.953273
0
LINE
8
0
10
724.500000
20
325.953273
11
733.000000
21
325.953273
0
LINE
8
0
10
733.000000
20
325.953273
11
733.000000
21
317.453273
0
LINE
8
0
10
733.000000
20
317.453273
11
733.000000
21
308.953273
0
LINE
8
0
10
733.000000
20
308.953273
11
724.500000
21
308.953273
0
LINE
8
0
10
724.500000
20
308.953273
11
716.000000
21
308.953273
0
LINE
8
0
10
716.000000
20
308.953273
11
716.000000
21
317.453273
0
LINE
8
0
10
479.000000
20
230.953273
11
479.000000
21
460.953273
0
LINE
8
0
10
479.000000
20
460.953273
11
249.000000
21
460.953273
0
LINE
8
0
10
249.000000
20
460.953273
11
19.000000
21
460.953273
0
LINE
8
0
10
19.000000
20
460.953273
11
19.000000
21
230.953273
0
LINE
8
0
10
19.000000
20
230.953273
11
19.000000
21
0.953273
0
LINE
8
0
10
19.000000
20
0.953273
11
249.000000
21
0.953273
0
LINE
8
0
10
249.000000
20
0.953273
11
479.000000
21
0.953273
0
LINE
8
0
10
479.000000
20
0.953273
11
479.000000
21
230.953273
0
LINE
8
0
10
127.995298
20
152.081812
11
138.490596
21
168.205726
0
LINE
8
0
10
138.490596
20
168.205726
11
140.175030
21
156.329500
0
LINE
8
0
10
140.175030
20
156.329500
11
140.879102
21
151.381464
0
LINE
8
0
10
140.879102
20
151.381464
11
141.850997
21
144.602991
0
LINE
8
0
10
141.850997
20
144.602991
11
142.331839
21
141.285555
0
LINE
8
0
10
142.331839
20
141.285555
11
142.493604
21
140.185943
0
LINE
8
0
10
142.493604
20
140.185943
11
143.127743
21
135.918613
0
LINE
8
0
10
143.127743
20
135.918613
11
167.755361
21
136.185943
0
LINE
8
0
10
167.755361
20
136.185943
11
192.382979
21
136.453273
0
LINE
8
0
10
192.382979
20
136.453273
11
247.691490
21
230.854973
0
LINE
8
0
10
247.691490
20
230.854973
11
253.325639
21
240.473262
0
LINE
8
0
10
253.325639
20
240.473262
11
264.091624
21
258.862786
0
LINE
8
0
10
264.091624
20
258.862786
11
273.998815
21
275.799054
0
LINE
8
0
10
273.998815
20
275.799054
11
282.820360
21
290.893442
0
LINE
8
0
10
282.820360
20
290.893442
11
290.329409
21
303.757328
0
LINE
8
0
10
290.329409
20
303.757328
11
296.299109
21
314.002087
0
LINE
8
0
10
296.299109
20
314.002087
11
300.502610
21
321.239098
0
LINE
8
0
10
300.502610
20
321.239098
11
302.359702
21
324.459240
0
LINE
8
0
10
302.359702
20
324.459240
11
302.927674
21
325.463672
0
LINE
8
0
10
302.927674
20
325.463672
11
303.000000
21
325.604973
0
LINE
8
0
10
303.000000
20
325.604973
11
302.860619
21
325.640453
0
LINE
8
0
10
302.860619
20
325.640453
11
301.786897
21
325.708251
0
LINE
8
0
10
301.786897
20
325.708251
11
298.395522
21
325.799361
0
LINE
8
0
10
298.395522
20
325.799361
11
291.128055
21
325.893579
0
LINE
8
0
10
291.128055
20
325.893579
11
281.530801
21
325.946164
0
LINE
8
0
10
281.530801
20
325.946164
11
276.133986
21
325.953273
0
LINE
8
0
10
276.133986
20
325.953273
11
249.267972
21
325.953273
0
LINE
8
0
10
249.267972
20
325.953273
11
220.537763
21
277.703273
0
LINE
8
0
10
220.537763
20
277.703273
11
214.751454
21
267.994906
0
LINE
8
0
10
214.751454
20
267.994906
11
206.783188
21
254.658568
0
LINE
8
0
10
206.783188
20
254.658568
11
202.121393
21
246.878434
0
LINE
8
0
10
202.121393
20
246.878434
11
198.120901
21
240.221531
0
LINE
8
0
10
198.120901
20
240.221531
11
194.902570
21
234.888967
0
LINE
8
0
10
194.902570
20
234.888967
11
192.587256
21
231.081850
0
LINE
8
0
10
192.587256
20
231.081850
11
191.295815
21
229.001287
0
LINE
8
0
10
191.295815
20
229.001287
11
191.071815
21
228.671310
0
LINE
8
0
10
191.071815
20
228.671310
11
190.873823
21
228.805728
0
LINE
8
0
10
190.873823
20
228.805728
11
190.239680
21
230.682631
0
LINE
8
0
10
190.239680
20
230.682631
11
189.375360
21
234.334487
0
LINE
8
0
10
189.375360
20
234.334487
11
188.385705
21
239.318325
0
LINE
8
0
10
188.385705
20
239.318325
11
187.876640
21
242.171310
0
LINE
8
0
10
187.876640
20
242.171310
11
185.417206
21
256.453273
0
LINE
8
0
10
185.417206
20
256.453273
11
160.458603
21
256.694939
0
LINE
8
0
10
160.458603
20
256.694939
11
135.500000
21
256.936605
0
LINE
8
0
10
135.500000
20
256.936605
11
125.500000
21
242.826758
0
LINE
8
0
10
125.500000
20
242.826758
11
115.500000
21
228.716911
0
LINE
8
0
10
115.500000
20
228.716911
11
115.240487
21
277.335092
0
LINE
8
0
10
115.240487
20
277.335092
11
114.980975
21
325.953273
0
LINE
8
0
10
114.980975
20
325.953273
11
90.990487
21
325.953273
0
LINE
8
0
10
90.990487
20
325.953273
11
67.000000
21
325.953273
0
LINE
8
0
10
67.000000
20
325.953273
11
67.000000
21
230.953273
0
LINE
8
0
10
67.000000
20
230.953273
11
67.000000
21
135.953273
0
LINE
8
0
10
67.000000
20
135.953273
11
92.250000
21
135.955585
0
LINE
8
0
10
92.250000
20
135.955585
11
117.500000
21
135.957897
0
LINE
8
0
10
117.500000
20
135.957897
11
127.995298
21
152.081812
0
LINE
8
0
10
353.375041
20
158.924081
11
356.112007
21
163.549233
0
LINE
8
0
10
356.112007
20
163.549233
11
360.979205
21
171.834912
0
LINE
8
0
10
360.979205
20
171.834912
11
364.664863
21
178.191845
0
LINE
8
0
10
364.664863
20
178.191845
11
366.384781
21
181.229946
0
LINE
8
0
10
366.384781
20
181.229946
11
366.929314
21
182.251002
0
LINE
8
0
10
366.929314
20
182.251002
11
367.000000
21
182.424081
0
LINE
8
0
10
367.000000
20
182.424081
11
366.795074
21
182.477989
0
LINE
8
0
10
366.795074
20
182.477989
11
365.216425
21
182.580998
0
LINE
8
0
10
365.216425
20
182.580998
11
362.214386
21
182.675790
0
LINE
8
0
10
362.214386
20
182.675790
11
357.950970
21
182.760194
0
LINE
8
0
10
357.950970
20
182.760194
11
349.545166
21
182.862577
0
LINE
8
0
10
349.545166
20
182.862577
11
335.434717
21
182.942472
0
LINE
8
0
10
335.434717
20
182.942472
11
327.500000
21
182.953273
0
LINE
8
0
10
327.500000
20
182.953273
11
319.565283
21
182.961339
0
LINE
8
0
10
319.565283
20
182.961339
11
305.454834
21
183.021002
0
LINE
8
0
10
305.454834
20
183.021002
11
297.049030
21
183.097457
0
LINE
8
0
10
297.049030
20
183.097457
11
292.785614
21
183.160487
0
LINE
8
0
10
292.785614
20
183.160487
11
289.783575
21
183.231274
0
LINE
8
0
10
289.783575
20
183.231274
11
288.204926
21
183.308197
0
LINE
8
0
10
288.204926
20
183.308197
11
288.000000
21
183.348453
0
LINE
8
0
10
288.000000
20
183.348453
11
288.149134
21
183.680001
0
LINE
8
0
10
288.149134
20
183.680001
11
289.252301
21
185.686458
0
LINE
8
0
10
289.252301
20
185.686458
11
292.469750
21
191.270126
0
LINE
8
0
10
292.469750
20
191.270126
11
295.306872
21
196.098453
0
LINE
8
0
10
295.306872
20
196.098453
11
302.613744
21
208.453273
0
LINE
8
0
10
302.613744
20
208.453273
11
342.875847
21
208.953273
0
LINE
8
0
10
342.875847
20
208.953273
11
383.137950
21
209.453273
0
LINE
8
0
10
383.137950
20
209.453273
11
396.568975
21
232.403320
0
LINE
8
0
10
396.568975
20
232.403320
11
399.266984
21
237.029827
0
LINE
8
0
10
399.266984
20
237.029827
11
404.064903
21
245.348968
0
LINE
8
0
10
404.064903
20
245.348968
11
407.698101
21
251.773528
0
LINE
8
0
10
407.698101
20
251.773528
11
409.393538
21
254.879835
0
LINE
8
0
10
409.393538
20
254.879835
11
409.930320
21
255.952766
0
LINE
8
0
10
409.930320
20
255.952766
11
410.000000
21
256.153320
0
LINE
8
0
10
410.000000
20
256.153320
11
409.797668
21
256.234809
0
LINE
8
0
10
409.797668
20
256.234809
11
408.239001
21
256.390523
0
LINE
8
0
10
408.239001
20
256.390523
11
405.274963
21
256.533815
0
LINE
8
0
10
405.274963
20
256.533815
11
401.065515
21
256.661405
0
LINE
8
0
10
401.065515
20
256.661405
11
392.766113
21
256.816172
0
LINE
8
0
10
392.766113
20
256.816172
11
378.834277
21
256.936946
0
LINE
8
0
10
378.834277
20
256.936946
11
371.000000
21
256.953273
0
LINE
8
0
10
371.000000
20
256.953273
11
363.165723
21
256.966456
0
LINE
8
0
10
363.165723
20
256.966456
11
349.233887
21
257.063971
0
LINE
8
0
10
349.233887
20
257.063971
11
340.934485
21
257.188933
0
LINE
8
0
10
340.934485
20
257.188933
11
336.725037
21
257.291952
0
LINE
8
0
10
336.725037
20
257.291952
11
333.760999
21
257.407649
0
LINE
8
0
10
333.760999
20
257.407649
11
332.202332
21
257.533375
0
LINE
8
0
10
332.202332
20
257.533375
11
332.000000
21
257.599171
0
LINE
8
0
10
332.000000
20
257.599171
11
332.124301
21
257.930042
0
LINE
8
0
10
332.124301
20
257.930042
11
333.043774
21
259.648512
0
LINE
8
0
10
333.043774
20
259.648512
11
335.725471
21
264.222043
0
LINE
8
0
10
335.725471
20
264.222043
11
338.090170
21
268.099171
0
LINE
8
0
10
338.090170
20
268.099171
11
344.180340
21
277.953273
0
LINE
8
0
10
344.180340
20
277.953273
11
383.840170
21
277.954171
0
LINE
8
0
10
383.840170
20
277.954171
11
423.500000
21
277.955070
0
LINE
8
0
10
423.500000
20
277.955070
11
437.250000
21
301.366476
0
LINE
8
0
10
437.250000
20
301.366476
11
440.012085
21
306.081471
0
LINE
8
0
10
440.012085
20
306.081471
11
444.923950
21
314.534431
0
LINE
8
0
10
444.923950
20
314.534431
11
448.643433
21
321.028266
0
LINE
8
0
10
448.643433
20
321.028266
11
450.379135
21
324.139116
0
LINE
8
0
10
450.379135
20
324.139116
11
450.928665
21
325.190529
0
LINE
8
0
10
450.928665
20
325.190529
11
451.000000
21
325.372566
0
LINE
8
0
10
451.000000
20
325.372566
11
450.649026
21
325.431812
0
LINE
8
0
10
450.649026
20
325.431812
11
447.945291
21
325.537299
0
LINE
8
0
10
447.945291
20
325.537299
11
442.803734
21
325.624291
0
LINE
8
0
10
442.803734
20
325.624291
11
435.501832
21
325.691403
0
LINE
8
0
10
435.501832
20
325.691403
11
426.317059
21
325.737251
0
LINE
8
0
10
426.317059
20
325.737251
11
415.526892
21
325.760449
0
LINE
8
0
10
415.526892
20
325.760449
11
396.938504
21
325.749748
0
LINE
8
0
10
396.938504
20
325.749748
11
383.348806
21
325.710262
0
LINE
8
0
10
383.348806
20
325.710262
11
315.697612
21
325.453273
0
LINE
8
0
10
315.697612
20
325.453273
11
260.865702
21
231.453273
0
LINE
8
0
10
260.865702
20
231.453273
11
255.280015
21
221.873820
0
LINE
8
0
10
255.280015
20
221.873820
11
244.606126
21
203.546434
0
LINE
8
0
10
244.606126
20
203.546434
11
234.783023
21
186.651591
0
LINE
8
0
10
234.783023
20
186.651591
11
226.035670
21
171.577916
0
LINE
8
0
10
226.035670
20
171.577916
11
218.589034
21
158.714030
0
LINE
8
0
10
218.589034
20
158.714030
11
212.668081
21
148.448558
0
LINE
8
0
10
212.668081
20
148.448558
11
208.497775
21
141.170122
0
LINE
8
0
10
208.497775
20
141.170122
11
206.654240
21
137.905318
0
LINE
8
0
10
206.654240
20
137.905318
11
206.089464
21
136.864639
0
LINE
8
0
10
206.089464
20
136.864639
11
206.016896
21
136.703273
0
LINE
8
0
10
206.016896
20
136.703273
11
206.362122
21
136.626872
0
LINE
8
0
10
206.362122
20
136.626872
11
209.031549
21
136.480882
0
LINE
8
0
10
209.031549
20
136.480882
11
214.111091
21
136.346538
0
LINE
8
0
10
214.111091
20
136.346538
11
221.326524
21
136.226915
0
LINE
8
0
10
221.326524
20
136.226915
11
230.403628
21
136.125090
0
LINE
8
0
10
230.403628
20
136.125090
11
241.068177
21
136.044139
0
LINE
8
0
10
241.068177
20
136.044139
11
259.441600
21
135.968581
0
LINE
8
0
10
259.441600
20
135.968581
11
272.875041
21
135.953273
0
LINE
8
0
10
272.875041
20
135.953273
11
339.750081
21
135.953273
0
LINE
8
0
10
339.750081
20
135.953273
11
353.375041
21
158.924081
0
LINE
8
0
10
1031.824492
20
153.668169
11
1033.784765
21
155.263859
0
LINE
8
0
10
1033.784765
20
155.263859
11
1036.498045
21
158.772705
0
LINE
8
0
10
1036.498045
20
158.772705
11
1037.924656
21
163.855777
0
LINE
8
0
10
1037.924656
20
163.855777
11
1038.383419
21
169.532001
0
LINE
8
0
10
1038.383419
20
169.532001
11
1038.489065
21
174.527432
0
LINE
8
0
10
1038.489065
20
174.527432
11
1038.500000
21
177.453273
0
LINE
8
0
10
1038.500000
20
177.453273
11
1038.487309
21
182.043606
0
LINE
8
0
10
1038.487309
20
182.043606
11
1038.327620
21
188.525125
0
LINE
8
0
10
1038.327620
20
188.525125
11
1037.461506
21
193.974141
0
LINE
8
0
10
1037.461506
20
193.974141
11
1036.240189
21
196.682666
0
LINE
8
0
10
1036.240189
20
196.682666
11
1035.121623
21
198.505170
0
LINE
8
0
10
1035.121623
20
198.505170
11
1032.414309
21
201.382149
0
LINE
8
0
10
1032.414309
20
201.382149
11
1029.042623
21
203.255908
0
LINE
8
0
10
1029.042623
20
203.255908
11
1024.961606
21
204.151433
0
LINE
8
0
10
1024.961606
20
204.151433
11
1022.641050
21
204.240165
0
LINE
8
0
10
1022.641050
20
204.240165
11
1019.518661
21
203.954142
0
LINE
8
0
10
1019.518661
20
203.954142
11
1014.500376
21
201.809221
0
LINE
8
0
10
1014.500376
20
201.809221
11
1010.939500
21
197.344034
0
LINE
8
0
10
1010.939500
20
197.344034
11
1008.622531
21
190.290859
0
LINE
8
0
10
1008.622531
20
190.290859
11
1007.863792
21
185.710112
0
LINE
8
0
10
1007.863792
20
185.710112
11
1007.377539
21
177.786616
0
LINE
8
0
10
1007.377539
20
177.786616
11
1008.274405
21
165.982712
0
LINE
8
0
10
1008.274405
20
165.982712
11
1009.791692
21
159.757087
0
LINE
8
0
10
1009.791692
20
159.757087
11
1010.783774
21
157.546075
0
LINE
8
0
10
1010.783774
20
157.546075
11
1012.508487
21
155.321530
0
LINE
8
0
10
1012.508487
20
155.321530
11
1017.441544
21
152.233290
0
LINE
8
0
10
1017.441544
20
152.233290
11
1023.409319
21
151.133400
0
LINE
8
0
10
1023.409319
20
151.133400
11
1029.279658
21
152.230522
0
LINE
8
0
10
1029.279658
20
152.230522
11
1031.824492
21
153.668169
0
LINE
8
0
10
831.234223
20
289.871244
11
833.018102
21
291.626978
0
LINE
8
0
10
833.018102
20
291.626978
11
834.262688
21
294.286842
0
LINE
8
0
10
834.262688
20
294.286842
11
834.483496
21
297.037688
0
LINE
8
0
10
834.483496
20
297.037688
11
834.500000
21
298.953273
0
LINE
8
0
10
834.500000
20
298.953273
11
834.483496
21
300.868858
0
LINE
8
0
10
834.483496
20
300.868858
11
834.262688
21
303.619704
0
LINE
8
0
10
834.262688
20
303.619704
11
833.018102
21
306.279568
0
LINE
8
0
10
833.018102
20
306.279568
11
831.234223
21
308.035302
0
LINE
8
0
10
831.234223
20
308.035302
11
829.211808
21
309.657762
0
LINE
8
0
10
829.211808
20
309.657762
11
825.785524
21
310.759088
0
LINE
8
0
10
825.785524
20
310.759088
11
821.827980
21
310.941304
0
LINE
8
0
10
821.827980
20
310.941304
11
818.984223
21
310.953273
0
LINE
8
0
10
818.984223
20
310.953273
11
810.000000
21
310.953273
0
LINE
8
0
10
810.000000
20
310.953273
11
810.000000
21
298.953273
0
LINE
8
0
10
810.000000
20
298.953273
11
810.000000
21
286.953273
0
LINE
8
0
10
810.000000
20
286.953273
11
818.984223
21
286.953273
0
LINE
8
0
10
818.984223
20
286.953273
11
821.827980
21
286.965242
0
LINE
8
0
10
821.827980
20
286.965242
11
825.785524
21
287.147458
0
LINE
8
0
10
825.785524
20
287.147458
11
829.211808
21
288.248784
0
LINE
8
0
10
829.211808
20
288.248784
11
831.234223
21
289.871244
0
LINE
8
0
10
958.553564
20
182.050691
11
960.087051
21
184.009688
0
LINE
8
0
10
960.087051
20
184.009688
11
961.806643
21
188.787580
0
LINE
8
0
10
961.806643
20
188.787580
11
961.739388
21
193.967735
0
LINE
8
0
10
961.739388
20
193.967735
11
959.896882
21
198.657030
0
LINE
8
0
10
959.896882
20
198.657030
11
958.313534
21
200.538504
0
LINE
8
0
10
958.313534
20
200.538504
11
956.641373
21
201.841920
0
LINE
8
0
10
956.641373
20
201.841920
11
953.250400
21
202.768043
0
LINE
8
0
10
953.250400
20
202.768043
11
949.212153
21
202.939552
0
LINE
8
0
10
949.212153
20
202.939552
11
946.353977
21
202.953273
0
LINE
8
0
10
946.353977
20
202.953273
11
937.000000
21
202.953273
0
LINE
8
0
10
937.000000
20
202.953273
11
937.000000
21
190.856743
0
LINE
8
0
10
937.000000
20
190.856743
11
937.000000
21
178.760213
0
LINE
8
0
10
937.000000
20
178.760213
11
946.478873
21
179.106743
0
LINE
8
0
10
946.478873
20
179.106743
11
949.380612
21
179.226823
0
LINE
8
0
10
949.380612
20
179.226823
11
953.471488
21
179.552914
0
LINE
8
0
10
953.471488
20
179.552914
11
956.883638
21
180.636577
0
LINE
8
0
10
956.883638
20
180.636577
11
958.553564
21
182.050691
0
ENDSEC
0
EOF
